G04 #@! TF.GenerationSoftware,KiCad,Pcbnew,5.1.3-ffb9f22~84~ubuntu18.04.1*
G04 #@! TF.CreationDate,2019-10-12T08:12:31-07:00*
G04 #@! TF.ProjectId,board,626f6172-642e-46b6-9963-61645f706362,rev?*
G04 #@! TF.SameCoordinates,Original*
G04 #@! TF.FileFunction,Paste,Top*
G04 #@! TF.FilePolarity,Positive*
%FSLAX46Y46*%
G04 Gerber Fmt 4.6, Leading zero omitted, Abs format (unit mm)*
G04 Created by KiCad (PCBNEW 5.1.3-ffb9f22~84~ubuntu18.04.1) date 2019-10-12 08:12:31*
%MOMM*%
%LPD*%
G04 APERTURE LIST*
%ADD10C,0.100000*%
%ADD11C,0.975000*%
%ADD12C,0.600000*%
%ADD13C,1.200000*%
%ADD14R,0.570000X0.738000*%
%ADD15R,0.630000X0.500000*%
%ADD16R,1.250000X0.760000*%
%ADD17R,0.850000X1.600000*%
%ADD18C,1.600000*%
%ADD19R,3.000000X1.500000*%
%ADD20C,0.950000*%
%ADD21C,0.590000*%
%ADD22R,3.500000X2.000000*%
%ADD23R,6.000000X2.000000*%
%ADD24R,1.500000X1.600000*%
%ADD25R,0.500000X1.600000*%
%ADD26R,2.400000X3.480000*%
%ADD27R,1.180000X4.700000*%
G04 APERTURE END LIST*
D10*
G36*
X119225142Y-121101174D02*
G01*
X119248803Y-121104684D01*
X119272007Y-121110496D01*
X119294529Y-121118554D01*
X119316153Y-121128782D01*
X119336670Y-121141079D01*
X119355883Y-121155329D01*
X119373607Y-121171393D01*
X119389671Y-121189117D01*
X119403921Y-121208330D01*
X119416218Y-121228847D01*
X119426446Y-121250471D01*
X119434504Y-121272993D01*
X119440316Y-121296197D01*
X119443826Y-121319858D01*
X119445000Y-121343750D01*
X119445000Y-121831250D01*
X119443826Y-121855142D01*
X119440316Y-121878803D01*
X119434504Y-121902007D01*
X119426446Y-121924529D01*
X119416218Y-121946153D01*
X119403921Y-121966670D01*
X119389671Y-121985883D01*
X119373607Y-122003607D01*
X119355883Y-122019671D01*
X119336670Y-122033921D01*
X119316153Y-122046218D01*
X119294529Y-122056446D01*
X119272007Y-122064504D01*
X119248803Y-122070316D01*
X119225142Y-122073826D01*
X119201250Y-122075000D01*
X118288750Y-122075000D01*
X118264858Y-122073826D01*
X118241197Y-122070316D01*
X118217993Y-122064504D01*
X118195471Y-122056446D01*
X118173847Y-122046218D01*
X118153330Y-122033921D01*
X118134117Y-122019671D01*
X118116393Y-122003607D01*
X118100329Y-121985883D01*
X118086079Y-121966670D01*
X118073782Y-121946153D01*
X118063554Y-121924529D01*
X118055496Y-121902007D01*
X118049684Y-121878803D01*
X118046174Y-121855142D01*
X118045000Y-121831250D01*
X118045000Y-121343750D01*
X118046174Y-121319858D01*
X118049684Y-121296197D01*
X118055496Y-121272993D01*
X118063554Y-121250471D01*
X118073782Y-121228847D01*
X118086079Y-121208330D01*
X118100329Y-121189117D01*
X118116393Y-121171393D01*
X118134117Y-121155329D01*
X118153330Y-121141079D01*
X118173847Y-121128782D01*
X118195471Y-121118554D01*
X118217993Y-121110496D01*
X118241197Y-121104684D01*
X118264858Y-121101174D01*
X118288750Y-121100000D01*
X119201250Y-121100000D01*
X119225142Y-121101174D01*
X119225142Y-121101174D01*
G37*
D11*
X118745000Y-121587500D03*
D10*
G36*
X119225142Y-119226174D02*
G01*
X119248803Y-119229684D01*
X119272007Y-119235496D01*
X119294529Y-119243554D01*
X119316153Y-119253782D01*
X119336670Y-119266079D01*
X119355883Y-119280329D01*
X119373607Y-119296393D01*
X119389671Y-119314117D01*
X119403921Y-119333330D01*
X119416218Y-119353847D01*
X119426446Y-119375471D01*
X119434504Y-119397993D01*
X119440316Y-119421197D01*
X119443826Y-119444858D01*
X119445000Y-119468750D01*
X119445000Y-119956250D01*
X119443826Y-119980142D01*
X119440316Y-120003803D01*
X119434504Y-120027007D01*
X119426446Y-120049529D01*
X119416218Y-120071153D01*
X119403921Y-120091670D01*
X119389671Y-120110883D01*
X119373607Y-120128607D01*
X119355883Y-120144671D01*
X119336670Y-120158921D01*
X119316153Y-120171218D01*
X119294529Y-120181446D01*
X119272007Y-120189504D01*
X119248803Y-120195316D01*
X119225142Y-120198826D01*
X119201250Y-120200000D01*
X118288750Y-120200000D01*
X118264858Y-120198826D01*
X118241197Y-120195316D01*
X118217993Y-120189504D01*
X118195471Y-120181446D01*
X118173847Y-120171218D01*
X118153330Y-120158921D01*
X118134117Y-120144671D01*
X118116393Y-120128607D01*
X118100329Y-120110883D01*
X118086079Y-120091670D01*
X118073782Y-120071153D01*
X118063554Y-120049529D01*
X118055496Y-120027007D01*
X118049684Y-120003803D01*
X118046174Y-119980142D01*
X118045000Y-119956250D01*
X118045000Y-119468750D01*
X118046174Y-119444858D01*
X118049684Y-119421197D01*
X118055496Y-119397993D01*
X118063554Y-119375471D01*
X118073782Y-119353847D01*
X118086079Y-119333330D01*
X118100329Y-119314117D01*
X118116393Y-119296393D01*
X118134117Y-119280329D01*
X118153330Y-119266079D01*
X118173847Y-119253782D01*
X118195471Y-119243554D01*
X118217993Y-119235496D01*
X118241197Y-119229684D01*
X118264858Y-119226174D01*
X118288750Y-119225000D01*
X119201250Y-119225000D01*
X119225142Y-119226174D01*
X119225142Y-119226174D01*
G37*
D11*
X118745000Y-119712500D03*
D10*
G36*
X99350203Y-116890222D02*
G01*
X99364764Y-116892382D01*
X99379043Y-116895959D01*
X99392903Y-116900918D01*
X99406210Y-116907212D01*
X99418836Y-116914780D01*
X99430659Y-116923548D01*
X99441566Y-116933434D01*
X99451452Y-116944341D01*
X99460220Y-116956164D01*
X99467788Y-116968790D01*
X99474082Y-116982097D01*
X99479041Y-116995957D01*
X99482618Y-117010236D01*
X99484778Y-117024797D01*
X99485500Y-117039500D01*
X99485500Y-117339500D01*
X99484778Y-117354203D01*
X99482618Y-117368764D01*
X99479041Y-117383043D01*
X99474082Y-117396903D01*
X99467788Y-117410210D01*
X99460220Y-117422836D01*
X99451452Y-117434659D01*
X99441566Y-117445566D01*
X99430659Y-117455452D01*
X99418836Y-117464220D01*
X99406210Y-117471788D01*
X99392903Y-117478082D01*
X99379043Y-117483041D01*
X99364764Y-117486618D01*
X99350203Y-117488778D01*
X99335500Y-117489500D01*
X98085500Y-117489500D01*
X98070797Y-117488778D01*
X98056236Y-117486618D01*
X98041957Y-117483041D01*
X98028097Y-117478082D01*
X98014790Y-117471788D01*
X98002164Y-117464220D01*
X97990341Y-117455452D01*
X97979434Y-117445566D01*
X97969548Y-117434659D01*
X97960780Y-117422836D01*
X97953212Y-117410210D01*
X97946918Y-117396903D01*
X97941959Y-117383043D01*
X97938382Y-117368764D01*
X97936222Y-117354203D01*
X97935500Y-117339500D01*
X97935500Y-117039500D01*
X97936222Y-117024797D01*
X97938382Y-117010236D01*
X97941959Y-116995957D01*
X97946918Y-116982097D01*
X97953212Y-116968790D01*
X97960780Y-116956164D01*
X97969548Y-116944341D01*
X97979434Y-116933434D01*
X97990341Y-116923548D01*
X98002164Y-116914780D01*
X98014790Y-116907212D01*
X98028097Y-116900918D01*
X98041957Y-116895959D01*
X98056236Y-116892382D01*
X98070797Y-116890222D01*
X98085500Y-116889500D01*
X99335500Y-116889500D01*
X99350203Y-116890222D01*
X99350203Y-116890222D01*
G37*
D12*
X98710500Y-117189500D03*
D10*
G36*
X99350203Y-117890222D02*
G01*
X99364764Y-117892382D01*
X99379043Y-117895959D01*
X99392903Y-117900918D01*
X99406210Y-117907212D01*
X99418836Y-117914780D01*
X99430659Y-117923548D01*
X99441566Y-117933434D01*
X99451452Y-117944341D01*
X99460220Y-117956164D01*
X99467788Y-117968790D01*
X99474082Y-117982097D01*
X99479041Y-117995957D01*
X99482618Y-118010236D01*
X99484778Y-118024797D01*
X99485500Y-118039500D01*
X99485500Y-118339500D01*
X99484778Y-118354203D01*
X99482618Y-118368764D01*
X99479041Y-118383043D01*
X99474082Y-118396903D01*
X99467788Y-118410210D01*
X99460220Y-118422836D01*
X99451452Y-118434659D01*
X99441566Y-118445566D01*
X99430659Y-118455452D01*
X99418836Y-118464220D01*
X99406210Y-118471788D01*
X99392903Y-118478082D01*
X99379043Y-118483041D01*
X99364764Y-118486618D01*
X99350203Y-118488778D01*
X99335500Y-118489500D01*
X98085500Y-118489500D01*
X98070797Y-118488778D01*
X98056236Y-118486618D01*
X98041957Y-118483041D01*
X98028097Y-118478082D01*
X98014790Y-118471788D01*
X98002164Y-118464220D01*
X97990341Y-118455452D01*
X97979434Y-118445566D01*
X97969548Y-118434659D01*
X97960780Y-118422836D01*
X97953212Y-118410210D01*
X97946918Y-118396903D01*
X97941959Y-118383043D01*
X97938382Y-118368764D01*
X97936222Y-118354203D01*
X97935500Y-118339500D01*
X97935500Y-118039500D01*
X97936222Y-118024797D01*
X97938382Y-118010236D01*
X97941959Y-117995957D01*
X97946918Y-117982097D01*
X97953212Y-117968790D01*
X97960780Y-117956164D01*
X97969548Y-117944341D01*
X97979434Y-117933434D01*
X97990341Y-117923548D01*
X98002164Y-117914780D01*
X98014790Y-117907212D01*
X98028097Y-117900918D01*
X98041957Y-117895959D01*
X98056236Y-117892382D01*
X98070797Y-117890222D01*
X98085500Y-117889500D01*
X99335500Y-117889500D01*
X99350203Y-117890222D01*
X99350203Y-117890222D01*
G37*
D12*
X98710500Y-118189500D03*
D10*
G36*
X99350203Y-118890222D02*
G01*
X99364764Y-118892382D01*
X99379043Y-118895959D01*
X99392903Y-118900918D01*
X99406210Y-118907212D01*
X99418836Y-118914780D01*
X99430659Y-118923548D01*
X99441566Y-118933434D01*
X99451452Y-118944341D01*
X99460220Y-118956164D01*
X99467788Y-118968790D01*
X99474082Y-118982097D01*
X99479041Y-118995957D01*
X99482618Y-119010236D01*
X99484778Y-119024797D01*
X99485500Y-119039500D01*
X99485500Y-119339500D01*
X99484778Y-119354203D01*
X99482618Y-119368764D01*
X99479041Y-119383043D01*
X99474082Y-119396903D01*
X99467788Y-119410210D01*
X99460220Y-119422836D01*
X99451452Y-119434659D01*
X99441566Y-119445566D01*
X99430659Y-119455452D01*
X99418836Y-119464220D01*
X99406210Y-119471788D01*
X99392903Y-119478082D01*
X99379043Y-119483041D01*
X99364764Y-119486618D01*
X99350203Y-119488778D01*
X99335500Y-119489500D01*
X98085500Y-119489500D01*
X98070797Y-119488778D01*
X98056236Y-119486618D01*
X98041957Y-119483041D01*
X98028097Y-119478082D01*
X98014790Y-119471788D01*
X98002164Y-119464220D01*
X97990341Y-119455452D01*
X97979434Y-119445566D01*
X97969548Y-119434659D01*
X97960780Y-119422836D01*
X97953212Y-119410210D01*
X97946918Y-119396903D01*
X97941959Y-119383043D01*
X97938382Y-119368764D01*
X97936222Y-119354203D01*
X97935500Y-119339500D01*
X97935500Y-119039500D01*
X97936222Y-119024797D01*
X97938382Y-119010236D01*
X97941959Y-118995957D01*
X97946918Y-118982097D01*
X97953212Y-118968790D01*
X97960780Y-118956164D01*
X97969548Y-118944341D01*
X97979434Y-118933434D01*
X97990341Y-118923548D01*
X98002164Y-118914780D01*
X98014790Y-118907212D01*
X98028097Y-118900918D01*
X98041957Y-118895959D01*
X98056236Y-118892382D01*
X98070797Y-118890222D01*
X98085500Y-118889500D01*
X99335500Y-118889500D01*
X99350203Y-118890222D01*
X99350203Y-118890222D01*
G37*
D12*
X98710500Y-119189500D03*
D10*
G36*
X99350203Y-119890222D02*
G01*
X99364764Y-119892382D01*
X99379043Y-119895959D01*
X99392903Y-119900918D01*
X99406210Y-119907212D01*
X99418836Y-119914780D01*
X99430659Y-119923548D01*
X99441566Y-119933434D01*
X99451452Y-119944341D01*
X99460220Y-119956164D01*
X99467788Y-119968790D01*
X99474082Y-119982097D01*
X99479041Y-119995957D01*
X99482618Y-120010236D01*
X99484778Y-120024797D01*
X99485500Y-120039500D01*
X99485500Y-120339500D01*
X99484778Y-120354203D01*
X99482618Y-120368764D01*
X99479041Y-120383043D01*
X99474082Y-120396903D01*
X99467788Y-120410210D01*
X99460220Y-120422836D01*
X99451452Y-120434659D01*
X99441566Y-120445566D01*
X99430659Y-120455452D01*
X99418836Y-120464220D01*
X99406210Y-120471788D01*
X99392903Y-120478082D01*
X99379043Y-120483041D01*
X99364764Y-120486618D01*
X99350203Y-120488778D01*
X99335500Y-120489500D01*
X98085500Y-120489500D01*
X98070797Y-120488778D01*
X98056236Y-120486618D01*
X98041957Y-120483041D01*
X98028097Y-120478082D01*
X98014790Y-120471788D01*
X98002164Y-120464220D01*
X97990341Y-120455452D01*
X97979434Y-120445566D01*
X97969548Y-120434659D01*
X97960780Y-120422836D01*
X97953212Y-120410210D01*
X97946918Y-120396903D01*
X97941959Y-120383043D01*
X97938382Y-120368764D01*
X97936222Y-120354203D01*
X97935500Y-120339500D01*
X97935500Y-120039500D01*
X97936222Y-120024797D01*
X97938382Y-120010236D01*
X97941959Y-119995957D01*
X97946918Y-119982097D01*
X97953212Y-119968790D01*
X97960780Y-119956164D01*
X97969548Y-119944341D01*
X97979434Y-119933434D01*
X97990341Y-119923548D01*
X98002164Y-119914780D01*
X98014790Y-119907212D01*
X98028097Y-119900918D01*
X98041957Y-119895959D01*
X98056236Y-119892382D01*
X98070797Y-119890222D01*
X98085500Y-119889500D01*
X99335500Y-119889500D01*
X99350203Y-119890222D01*
X99350203Y-119890222D01*
G37*
D12*
X98710500Y-120189500D03*
D10*
G36*
X99350203Y-120890222D02*
G01*
X99364764Y-120892382D01*
X99379043Y-120895959D01*
X99392903Y-120900918D01*
X99406210Y-120907212D01*
X99418836Y-120914780D01*
X99430659Y-120923548D01*
X99441566Y-120933434D01*
X99451452Y-120944341D01*
X99460220Y-120956164D01*
X99467788Y-120968790D01*
X99474082Y-120982097D01*
X99479041Y-120995957D01*
X99482618Y-121010236D01*
X99484778Y-121024797D01*
X99485500Y-121039500D01*
X99485500Y-121339500D01*
X99484778Y-121354203D01*
X99482618Y-121368764D01*
X99479041Y-121383043D01*
X99474082Y-121396903D01*
X99467788Y-121410210D01*
X99460220Y-121422836D01*
X99451452Y-121434659D01*
X99441566Y-121445566D01*
X99430659Y-121455452D01*
X99418836Y-121464220D01*
X99406210Y-121471788D01*
X99392903Y-121478082D01*
X99379043Y-121483041D01*
X99364764Y-121486618D01*
X99350203Y-121488778D01*
X99335500Y-121489500D01*
X98085500Y-121489500D01*
X98070797Y-121488778D01*
X98056236Y-121486618D01*
X98041957Y-121483041D01*
X98028097Y-121478082D01*
X98014790Y-121471788D01*
X98002164Y-121464220D01*
X97990341Y-121455452D01*
X97979434Y-121445566D01*
X97969548Y-121434659D01*
X97960780Y-121422836D01*
X97953212Y-121410210D01*
X97946918Y-121396903D01*
X97941959Y-121383043D01*
X97938382Y-121368764D01*
X97936222Y-121354203D01*
X97935500Y-121339500D01*
X97935500Y-121039500D01*
X97936222Y-121024797D01*
X97938382Y-121010236D01*
X97941959Y-120995957D01*
X97946918Y-120982097D01*
X97953212Y-120968790D01*
X97960780Y-120956164D01*
X97969548Y-120944341D01*
X97979434Y-120933434D01*
X97990341Y-120923548D01*
X98002164Y-120914780D01*
X98014790Y-120907212D01*
X98028097Y-120900918D01*
X98041957Y-120895959D01*
X98056236Y-120892382D01*
X98070797Y-120890222D01*
X98085500Y-120889500D01*
X99335500Y-120889500D01*
X99350203Y-120890222D01*
X99350203Y-120890222D01*
G37*
D12*
X98710500Y-121189500D03*
D10*
G36*
X95510005Y-115290704D02*
G01*
X95534273Y-115294304D01*
X95558072Y-115300265D01*
X95581171Y-115308530D01*
X95603350Y-115319020D01*
X95624393Y-115331632D01*
X95644099Y-115346247D01*
X95662277Y-115362723D01*
X95678753Y-115380901D01*
X95693368Y-115400607D01*
X95705980Y-115421650D01*
X95716470Y-115443829D01*
X95724735Y-115466928D01*
X95730696Y-115490727D01*
X95734296Y-115514995D01*
X95735500Y-115539499D01*
X95735500Y-116239501D01*
X95734296Y-116264005D01*
X95730696Y-116288273D01*
X95724735Y-116312072D01*
X95716470Y-116335171D01*
X95705980Y-116357350D01*
X95693368Y-116378393D01*
X95678753Y-116398099D01*
X95662277Y-116416277D01*
X95644099Y-116432753D01*
X95624393Y-116447368D01*
X95603350Y-116459980D01*
X95581171Y-116470470D01*
X95558072Y-116478735D01*
X95534273Y-116484696D01*
X95510005Y-116488296D01*
X95485501Y-116489500D01*
X94185499Y-116489500D01*
X94160995Y-116488296D01*
X94136727Y-116484696D01*
X94112928Y-116478735D01*
X94089829Y-116470470D01*
X94067650Y-116459980D01*
X94046607Y-116447368D01*
X94026901Y-116432753D01*
X94008723Y-116416277D01*
X93992247Y-116398099D01*
X93977632Y-116378393D01*
X93965020Y-116357350D01*
X93954530Y-116335171D01*
X93946265Y-116312072D01*
X93940304Y-116288273D01*
X93936704Y-116264005D01*
X93935500Y-116239501D01*
X93935500Y-115539499D01*
X93936704Y-115514995D01*
X93940304Y-115490727D01*
X93946265Y-115466928D01*
X93954530Y-115443829D01*
X93965020Y-115421650D01*
X93977632Y-115400607D01*
X93992247Y-115380901D01*
X94008723Y-115362723D01*
X94026901Y-115346247D01*
X94046607Y-115331632D01*
X94067650Y-115319020D01*
X94089829Y-115308530D01*
X94112928Y-115300265D01*
X94136727Y-115294304D01*
X94160995Y-115290704D01*
X94185499Y-115289500D01*
X95485501Y-115289500D01*
X95510005Y-115290704D01*
X95510005Y-115290704D01*
G37*
D13*
X94835500Y-115889500D03*
D10*
G36*
X95510005Y-121890704D02*
G01*
X95534273Y-121894304D01*
X95558072Y-121900265D01*
X95581171Y-121908530D01*
X95603350Y-121919020D01*
X95624393Y-121931632D01*
X95644099Y-121946247D01*
X95662277Y-121962723D01*
X95678753Y-121980901D01*
X95693368Y-122000607D01*
X95705980Y-122021650D01*
X95716470Y-122043829D01*
X95724735Y-122066928D01*
X95730696Y-122090727D01*
X95734296Y-122114995D01*
X95735500Y-122139499D01*
X95735500Y-122839501D01*
X95734296Y-122864005D01*
X95730696Y-122888273D01*
X95724735Y-122912072D01*
X95716470Y-122935171D01*
X95705980Y-122957350D01*
X95693368Y-122978393D01*
X95678753Y-122998099D01*
X95662277Y-123016277D01*
X95644099Y-123032753D01*
X95624393Y-123047368D01*
X95603350Y-123059980D01*
X95581171Y-123070470D01*
X95558072Y-123078735D01*
X95534273Y-123084696D01*
X95510005Y-123088296D01*
X95485501Y-123089500D01*
X94185499Y-123089500D01*
X94160995Y-123088296D01*
X94136727Y-123084696D01*
X94112928Y-123078735D01*
X94089829Y-123070470D01*
X94067650Y-123059980D01*
X94046607Y-123047368D01*
X94026901Y-123032753D01*
X94008723Y-123016277D01*
X93992247Y-122998099D01*
X93977632Y-122978393D01*
X93965020Y-122957350D01*
X93954530Y-122935171D01*
X93946265Y-122912072D01*
X93940304Y-122888273D01*
X93936704Y-122864005D01*
X93935500Y-122839501D01*
X93935500Y-122139499D01*
X93936704Y-122114995D01*
X93940304Y-122090727D01*
X93946265Y-122066928D01*
X93954530Y-122043829D01*
X93965020Y-122021650D01*
X93977632Y-122000607D01*
X93992247Y-121980901D01*
X94008723Y-121962723D01*
X94026901Y-121946247D01*
X94046607Y-121931632D01*
X94067650Y-121919020D01*
X94089829Y-121908530D01*
X94112928Y-121900265D01*
X94136727Y-121894304D01*
X94160995Y-121890704D01*
X94185499Y-121889500D01*
X95485501Y-121889500D01*
X95510005Y-121890704D01*
X95510005Y-121890704D01*
G37*
D13*
X94835500Y-122489500D03*
D14*
X139340000Y-131660000D03*
X139340000Y-130440000D03*
X138390000Y-131660000D03*
X138390000Y-130440000D03*
D15*
X137810000Y-132020000D03*
X137810000Y-131380000D03*
X137810000Y-130720000D03*
X137810000Y-130080000D03*
X140690000Y-130080000D03*
X140690000Y-130720000D03*
X140690000Y-131380000D03*
X140690000Y-132020000D03*
D16*
X104475000Y-113105000D03*
X98325000Y-109295000D03*
X104475000Y-111835000D03*
X98325000Y-110565000D03*
X104475000Y-110565000D03*
X98325000Y-111835000D03*
X104475000Y-109295000D03*
X98325000Y-113105000D03*
D17*
X100175000Y-134150000D03*
X98425000Y-134150000D03*
X100175000Y-137650000D03*
X98425000Y-137650000D03*
X94325000Y-137650000D03*
X96075000Y-137650000D03*
X94325000Y-134150000D03*
X96075000Y-134150000D03*
D10*
G36*
X128780142Y-129676174D02*
G01*
X128803803Y-129679684D01*
X128827007Y-129685496D01*
X128849529Y-129693554D01*
X128871153Y-129703782D01*
X128891670Y-129716079D01*
X128910883Y-129730329D01*
X128928607Y-129746393D01*
X128944671Y-129764117D01*
X128958921Y-129783330D01*
X128971218Y-129803847D01*
X128981446Y-129825471D01*
X128989504Y-129847993D01*
X128995316Y-129871197D01*
X128998826Y-129894858D01*
X129000000Y-129918750D01*
X129000000Y-130406250D01*
X128998826Y-130430142D01*
X128995316Y-130453803D01*
X128989504Y-130477007D01*
X128981446Y-130499529D01*
X128971218Y-130521153D01*
X128958921Y-130541670D01*
X128944671Y-130560883D01*
X128928607Y-130578607D01*
X128910883Y-130594671D01*
X128891670Y-130608921D01*
X128871153Y-130621218D01*
X128849529Y-130631446D01*
X128827007Y-130639504D01*
X128803803Y-130645316D01*
X128780142Y-130648826D01*
X128756250Y-130650000D01*
X127843750Y-130650000D01*
X127819858Y-130648826D01*
X127796197Y-130645316D01*
X127772993Y-130639504D01*
X127750471Y-130631446D01*
X127728847Y-130621218D01*
X127708330Y-130608921D01*
X127689117Y-130594671D01*
X127671393Y-130578607D01*
X127655329Y-130560883D01*
X127641079Y-130541670D01*
X127628782Y-130521153D01*
X127618554Y-130499529D01*
X127610496Y-130477007D01*
X127604684Y-130453803D01*
X127601174Y-130430142D01*
X127600000Y-130406250D01*
X127600000Y-129918750D01*
X127601174Y-129894858D01*
X127604684Y-129871197D01*
X127610496Y-129847993D01*
X127618554Y-129825471D01*
X127628782Y-129803847D01*
X127641079Y-129783330D01*
X127655329Y-129764117D01*
X127671393Y-129746393D01*
X127689117Y-129730329D01*
X127708330Y-129716079D01*
X127728847Y-129703782D01*
X127750471Y-129693554D01*
X127772993Y-129685496D01*
X127796197Y-129679684D01*
X127819858Y-129676174D01*
X127843750Y-129675000D01*
X128756250Y-129675000D01*
X128780142Y-129676174D01*
X128780142Y-129676174D01*
G37*
D11*
X128300000Y-130162500D03*
D10*
G36*
X128780142Y-131551174D02*
G01*
X128803803Y-131554684D01*
X128827007Y-131560496D01*
X128849529Y-131568554D01*
X128871153Y-131578782D01*
X128891670Y-131591079D01*
X128910883Y-131605329D01*
X128928607Y-131621393D01*
X128944671Y-131639117D01*
X128958921Y-131658330D01*
X128971218Y-131678847D01*
X128981446Y-131700471D01*
X128989504Y-131722993D01*
X128995316Y-131746197D01*
X128998826Y-131769858D01*
X129000000Y-131793750D01*
X129000000Y-132281250D01*
X128998826Y-132305142D01*
X128995316Y-132328803D01*
X128989504Y-132352007D01*
X128981446Y-132374529D01*
X128971218Y-132396153D01*
X128958921Y-132416670D01*
X128944671Y-132435883D01*
X128928607Y-132453607D01*
X128910883Y-132469671D01*
X128891670Y-132483921D01*
X128871153Y-132496218D01*
X128849529Y-132506446D01*
X128827007Y-132514504D01*
X128803803Y-132520316D01*
X128780142Y-132523826D01*
X128756250Y-132525000D01*
X127843750Y-132525000D01*
X127819858Y-132523826D01*
X127796197Y-132520316D01*
X127772993Y-132514504D01*
X127750471Y-132506446D01*
X127728847Y-132496218D01*
X127708330Y-132483921D01*
X127689117Y-132469671D01*
X127671393Y-132453607D01*
X127655329Y-132435883D01*
X127641079Y-132416670D01*
X127628782Y-132396153D01*
X127618554Y-132374529D01*
X127610496Y-132352007D01*
X127604684Y-132328803D01*
X127601174Y-132305142D01*
X127600000Y-132281250D01*
X127600000Y-131793750D01*
X127601174Y-131769858D01*
X127604684Y-131746197D01*
X127610496Y-131722993D01*
X127618554Y-131700471D01*
X127628782Y-131678847D01*
X127641079Y-131658330D01*
X127655329Y-131639117D01*
X127671393Y-131621393D01*
X127689117Y-131605329D01*
X127708330Y-131591079D01*
X127728847Y-131578782D01*
X127750471Y-131568554D01*
X127772993Y-131560496D01*
X127796197Y-131554684D01*
X127819858Y-131551174D01*
X127843750Y-131550000D01*
X128756250Y-131550000D01*
X128780142Y-131551174D01*
X128780142Y-131551174D01*
G37*
D11*
X128300000Y-132037500D03*
D10*
G36*
X134480142Y-131551174D02*
G01*
X134503803Y-131554684D01*
X134527007Y-131560496D01*
X134549529Y-131568554D01*
X134571153Y-131578782D01*
X134591670Y-131591079D01*
X134610883Y-131605329D01*
X134628607Y-131621393D01*
X134644671Y-131639117D01*
X134658921Y-131658330D01*
X134671218Y-131678847D01*
X134681446Y-131700471D01*
X134689504Y-131722993D01*
X134695316Y-131746197D01*
X134698826Y-131769858D01*
X134700000Y-131793750D01*
X134700000Y-132281250D01*
X134698826Y-132305142D01*
X134695316Y-132328803D01*
X134689504Y-132352007D01*
X134681446Y-132374529D01*
X134671218Y-132396153D01*
X134658921Y-132416670D01*
X134644671Y-132435883D01*
X134628607Y-132453607D01*
X134610883Y-132469671D01*
X134591670Y-132483921D01*
X134571153Y-132496218D01*
X134549529Y-132506446D01*
X134527007Y-132514504D01*
X134503803Y-132520316D01*
X134480142Y-132523826D01*
X134456250Y-132525000D01*
X133543750Y-132525000D01*
X133519858Y-132523826D01*
X133496197Y-132520316D01*
X133472993Y-132514504D01*
X133450471Y-132506446D01*
X133428847Y-132496218D01*
X133408330Y-132483921D01*
X133389117Y-132469671D01*
X133371393Y-132453607D01*
X133355329Y-132435883D01*
X133341079Y-132416670D01*
X133328782Y-132396153D01*
X133318554Y-132374529D01*
X133310496Y-132352007D01*
X133304684Y-132328803D01*
X133301174Y-132305142D01*
X133300000Y-132281250D01*
X133300000Y-131793750D01*
X133301174Y-131769858D01*
X133304684Y-131746197D01*
X133310496Y-131722993D01*
X133318554Y-131700471D01*
X133328782Y-131678847D01*
X133341079Y-131658330D01*
X133355329Y-131639117D01*
X133371393Y-131621393D01*
X133389117Y-131605329D01*
X133408330Y-131591079D01*
X133428847Y-131578782D01*
X133450471Y-131568554D01*
X133472993Y-131560496D01*
X133496197Y-131554684D01*
X133519858Y-131551174D01*
X133543750Y-131550000D01*
X134456250Y-131550000D01*
X134480142Y-131551174D01*
X134480142Y-131551174D01*
G37*
D11*
X134000000Y-132037500D03*
D10*
G36*
X134480142Y-129676174D02*
G01*
X134503803Y-129679684D01*
X134527007Y-129685496D01*
X134549529Y-129693554D01*
X134571153Y-129703782D01*
X134591670Y-129716079D01*
X134610883Y-129730329D01*
X134628607Y-129746393D01*
X134644671Y-129764117D01*
X134658921Y-129783330D01*
X134671218Y-129803847D01*
X134681446Y-129825471D01*
X134689504Y-129847993D01*
X134695316Y-129871197D01*
X134698826Y-129894858D01*
X134700000Y-129918750D01*
X134700000Y-130406250D01*
X134698826Y-130430142D01*
X134695316Y-130453803D01*
X134689504Y-130477007D01*
X134681446Y-130499529D01*
X134671218Y-130521153D01*
X134658921Y-130541670D01*
X134644671Y-130560883D01*
X134628607Y-130578607D01*
X134610883Y-130594671D01*
X134591670Y-130608921D01*
X134571153Y-130621218D01*
X134549529Y-130631446D01*
X134527007Y-130639504D01*
X134503803Y-130645316D01*
X134480142Y-130648826D01*
X134456250Y-130650000D01*
X133543750Y-130650000D01*
X133519858Y-130648826D01*
X133496197Y-130645316D01*
X133472993Y-130639504D01*
X133450471Y-130631446D01*
X133428847Y-130621218D01*
X133408330Y-130608921D01*
X133389117Y-130594671D01*
X133371393Y-130578607D01*
X133355329Y-130560883D01*
X133341079Y-130541670D01*
X133328782Y-130521153D01*
X133318554Y-130499529D01*
X133310496Y-130477007D01*
X133304684Y-130453803D01*
X133301174Y-130430142D01*
X133300000Y-130406250D01*
X133300000Y-129918750D01*
X133301174Y-129894858D01*
X133304684Y-129871197D01*
X133310496Y-129847993D01*
X133318554Y-129825471D01*
X133328782Y-129803847D01*
X133341079Y-129783330D01*
X133355329Y-129764117D01*
X133371393Y-129746393D01*
X133389117Y-129730329D01*
X133408330Y-129716079D01*
X133428847Y-129703782D01*
X133450471Y-129693554D01*
X133472993Y-129685496D01*
X133496197Y-129679684D01*
X133519858Y-129676174D01*
X133543750Y-129675000D01*
X134456250Y-129675000D01*
X134480142Y-129676174D01*
X134480142Y-129676174D01*
G37*
D11*
X134000000Y-130162500D03*
D10*
G36*
X132580142Y-129676174D02*
G01*
X132603803Y-129679684D01*
X132627007Y-129685496D01*
X132649529Y-129693554D01*
X132671153Y-129703782D01*
X132691670Y-129716079D01*
X132710883Y-129730329D01*
X132728607Y-129746393D01*
X132744671Y-129764117D01*
X132758921Y-129783330D01*
X132771218Y-129803847D01*
X132781446Y-129825471D01*
X132789504Y-129847993D01*
X132795316Y-129871197D01*
X132798826Y-129894858D01*
X132800000Y-129918750D01*
X132800000Y-130406250D01*
X132798826Y-130430142D01*
X132795316Y-130453803D01*
X132789504Y-130477007D01*
X132781446Y-130499529D01*
X132771218Y-130521153D01*
X132758921Y-130541670D01*
X132744671Y-130560883D01*
X132728607Y-130578607D01*
X132710883Y-130594671D01*
X132691670Y-130608921D01*
X132671153Y-130621218D01*
X132649529Y-130631446D01*
X132627007Y-130639504D01*
X132603803Y-130645316D01*
X132580142Y-130648826D01*
X132556250Y-130650000D01*
X131643750Y-130650000D01*
X131619858Y-130648826D01*
X131596197Y-130645316D01*
X131572993Y-130639504D01*
X131550471Y-130631446D01*
X131528847Y-130621218D01*
X131508330Y-130608921D01*
X131489117Y-130594671D01*
X131471393Y-130578607D01*
X131455329Y-130560883D01*
X131441079Y-130541670D01*
X131428782Y-130521153D01*
X131418554Y-130499529D01*
X131410496Y-130477007D01*
X131404684Y-130453803D01*
X131401174Y-130430142D01*
X131400000Y-130406250D01*
X131400000Y-129918750D01*
X131401174Y-129894858D01*
X131404684Y-129871197D01*
X131410496Y-129847993D01*
X131418554Y-129825471D01*
X131428782Y-129803847D01*
X131441079Y-129783330D01*
X131455329Y-129764117D01*
X131471393Y-129746393D01*
X131489117Y-129730329D01*
X131508330Y-129716079D01*
X131528847Y-129703782D01*
X131550471Y-129693554D01*
X131572993Y-129685496D01*
X131596197Y-129679684D01*
X131619858Y-129676174D01*
X131643750Y-129675000D01*
X132556250Y-129675000D01*
X132580142Y-129676174D01*
X132580142Y-129676174D01*
G37*
D11*
X132100000Y-130162500D03*
D10*
G36*
X132580142Y-131551174D02*
G01*
X132603803Y-131554684D01*
X132627007Y-131560496D01*
X132649529Y-131568554D01*
X132671153Y-131578782D01*
X132691670Y-131591079D01*
X132710883Y-131605329D01*
X132728607Y-131621393D01*
X132744671Y-131639117D01*
X132758921Y-131658330D01*
X132771218Y-131678847D01*
X132781446Y-131700471D01*
X132789504Y-131722993D01*
X132795316Y-131746197D01*
X132798826Y-131769858D01*
X132800000Y-131793750D01*
X132800000Y-132281250D01*
X132798826Y-132305142D01*
X132795316Y-132328803D01*
X132789504Y-132352007D01*
X132781446Y-132374529D01*
X132771218Y-132396153D01*
X132758921Y-132416670D01*
X132744671Y-132435883D01*
X132728607Y-132453607D01*
X132710883Y-132469671D01*
X132691670Y-132483921D01*
X132671153Y-132496218D01*
X132649529Y-132506446D01*
X132627007Y-132514504D01*
X132603803Y-132520316D01*
X132580142Y-132523826D01*
X132556250Y-132525000D01*
X131643750Y-132525000D01*
X131619858Y-132523826D01*
X131596197Y-132520316D01*
X131572993Y-132514504D01*
X131550471Y-132506446D01*
X131528847Y-132496218D01*
X131508330Y-132483921D01*
X131489117Y-132469671D01*
X131471393Y-132453607D01*
X131455329Y-132435883D01*
X131441079Y-132416670D01*
X131428782Y-132396153D01*
X131418554Y-132374529D01*
X131410496Y-132352007D01*
X131404684Y-132328803D01*
X131401174Y-132305142D01*
X131400000Y-132281250D01*
X131400000Y-131793750D01*
X131401174Y-131769858D01*
X131404684Y-131746197D01*
X131410496Y-131722993D01*
X131418554Y-131700471D01*
X131428782Y-131678847D01*
X131441079Y-131658330D01*
X131455329Y-131639117D01*
X131471393Y-131621393D01*
X131489117Y-131605329D01*
X131508330Y-131591079D01*
X131528847Y-131578782D01*
X131550471Y-131568554D01*
X131572993Y-131560496D01*
X131596197Y-131554684D01*
X131619858Y-131551174D01*
X131643750Y-131550000D01*
X132556250Y-131550000D01*
X132580142Y-131551174D01*
X132580142Y-131551174D01*
G37*
D11*
X132100000Y-132037500D03*
D10*
G36*
X119574504Y-124751204D02*
G01*
X119598773Y-124754804D01*
X119622571Y-124760765D01*
X119645671Y-124769030D01*
X119667849Y-124779520D01*
X119688893Y-124792133D01*
X119708598Y-124806747D01*
X119726777Y-124823223D01*
X119743253Y-124841402D01*
X119757867Y-124861107D01*
X119770480Y-124882151D01*
X119780970Y-124904329D01*
X119789235Y-124927429D01*
X119795196Y-124951227D01*
X119798796Y-124975496D01*
X119800000Y-125000000D01*
X119800000Y-128000000D01*
X119798796Y-128024504D01*
X119795196Y-128048773D01*
X119789235Y-128072571D01*
X119780970Y-128095671D01*
X119770480Y-128117849D01*
X119757867Y-128138893D01*
X119743253Y-128158598D01*
X119726777Y-128176777D01*
X119708598Y-128193253D01*
X119688893Y-128207867D01*
X119667849Y-128220480D01*
X119645671Y-128230970D01*
X119622571Y-128239235D01*
X119598773Y-128245196D01*
X119574504Y-128248796D01*
X119550000Y-128250000D01*
X118450000Y-128250000D01*
X118425496Y-128248796D01*
X118401227Y-128245196D01*
X118377429Y-128239235D01*
X118354329Y-128230970D01*
X118332151Y-128220480D01*
X118311107Y-128207867D01*
X118291402Y-128193253D01*
X118273223Y-128176777D01*
X118256747Y-128158598D01*
X118242133Y-128138893D01*
X118229520Y-128117849D01*
X118219030Y-128095671D01*
X118210765Y-128072571D01*
X118204804Y-128048773D01*
X118201204Y-128024504D01*
X118200000Y-128000000D01*
X118200000Y-125000000D01*
X118201204Y-124975496D01*
X118204804Y-124951227D01*
X118210765Y-124927429D01*
X118219030Y-124904329D01*
X118229520Y-124882151D01*
X118242133Y-124861107D01*
X118256747Y-124841402D01*
X118273223Y-124823223D01*
X118291402Y-124806747D01*
X118311107Y-124792133D01*
X118332151Y-124779520D01*
X118354329Y-124769030D01*
X118377429Y-124760765D01*
X118401227Y-124754804D01*
X118425496Y-124751204D01*
X118450000Y-124750000D01*
X119550000Y-124750000D01*
X119574504Y-124751204D01*
X119574504Y-124751204D01*
G37*
D18*
X119000000Y-126500000D03*
D10*
G36*
X119574504Y-130151204D02*
G01*
X119598773Y-130154804D01*
X119622571Y-130160765D01*
X119645671Y-130169030D01*
X119667849Y-130179520D01*
X119688893Y-130192133D01*
X119708598Y-130206747D01*
X119726777Y-130223223D01*
X119743253Y-130241402D01*
X119757867Y-130261107D01*
X119770480Y-130282151D01*
X119780970Y-130304329D01*
X119789235Y-130327429D01*
X119795196Y-130351227D01*
X119798796Y-130375496D01*
X119800000Y-130400000D01*
X119800000Y-133400000D01*
X119798796Y-133424504D01*
X119795196Y-133448773D01*
X119789235Y-133472571D01*
X119780970Y-133495671D01*
X119770480Y-133517849D01*
X119757867Y-133538893D01*
X119743253Y-133558598D01*
X119726777Y-133576777D01*
X119708598Y-133593253D01*
X119688893Y-133607867D01*
X119667849Y-133620480D01*
X119645671Y-133630970D01*
X119622571Y-133639235D01*
X119598773Y-133645196D01*
X119574504Y-133648796D01*
X119550000Y-133650000D01*
X118450000Y-133650000D01*
X118425496Y-133648796D01*
X118401227Y-133645196D01*
X118377429Y-133639235D01*
X118354329Y-133630970D01*
X118332151Y-133620480D01*
X118311107Y-133607867D01*
X118291402Y-133593253D01*
X118273223Y-133576777D01*
X118256747Y-133558598D01*
X118242133Y-133538893D01*
X118229520Y-133517849D01*
X118219030Y-133495671D01*
X118210765Y-133472571D01*
X118204804Y-133448773D01*
X118201204Y-133424504D01*
X118200000Y-133400000D01*
X118200000Y-130400000D01*
X118201204Y-130375496D01*
X118204804Y-130351227D01*
X118210765Y-130327429D01*
X118219030Y-130304329D01*
X118229520Y-130282151D01*
X118242133Y-130261107D01*
X118256747Y-130241402D01*
X118273223Y-130223223D01*
X118291402Y-130206747D01*
X118311107Y-130192133D01*
X118332151Y-130179520D01*
X118354329Y-130169030D01*
X118377429Y-130160765D01*
X118401227Y-130154804D01*
X118425496Y-130151204D01*
X118450000Y-130150000D01*
X119550000Y-130150000D01*
X119574504Y-130151204D01*
X119574504Y-130151204D01*
G37*
D18*
X119000000Y-131900000D03*
D19*
X145997200Y-114528600D03*
X145997200Y-111988600D03*
X145997200Y-109448600D03*
X145997200Y-106908600D03*
X145997200Y-104368600D03*
X150497200Y-113258600D03*
X150497200Y-110718600D03*
X150497200Y-108178600D03*
X150497200Y-105638600D03*
X150497200Y-103098600D03*
D10*
G36*
X105516279Y-122716144D02*
G01*
X105539334Y-122719563D01*
X105561943Y-122725227D01*
X105583887Y-122733079D01*
X105604957Y-122743044D01*
X105624948Y-122755026D01*
X105643668Y-122768910D01*
X105660938Y-122784562D01*
X105676590Y-122801832D01*
X105690474Y-122820552D01*
X105702456Y-122840543D01*
X105712421Y-122861613D01*
X105720273Y-122883557D01*
X105725937Y-122906166D01*
X105729356Y-122929221D01*
X105730500Y-122952500D01*
X105730500Y-123427500D01*
X105729356Y-123450779D01*
X105725937Y-123473834D01*
X105720273Y-123496443D01*
X105712421Y-123518387D01*
X105702456Y-123539457D01*
X105690474Y-123559448D01*
X105676590Y-123578168D01*
X105660938Y-123595438D01*
X105643668Y-123611090D01*
X105624948Y-123624974D01*
X105604957Y-123636956D01*
X105583887Y-123646921D01*
X105561943Y-123654773D01*
X105539334Y-123660437D01*
X105516279Y-123663856D01*
X105493000Y-123665000D01*
X104918000Y-123665000D01*
X104894721Y-123663856D01*
X104871666Y-123660437D01*
X104849057Y-123654773D01*
X104827113Y-123646921D01*
X104806043Y-123636956D01*
X104786052Y-123624974D01*
X104767332Y-123611090D01*
X104750062Y-123595438D01*
X104734410Y-123578168D01*
X104720526Y-123559448D01*
X104708544Y-123539457D01*
X104698579Y-123518387D01*
X104690727Y-123496443D01*
X104685063Y-123473834D01*
X104681644Y-123450779D01*
X104680500Y-123427500D01*
X104680500Y-122952500D01*
X104681644Y-122929221D01*
X104685063Y-122906166D01*
X104690727Y-122883557D01*
X104698579Y-122861613D01*
X104708544Y-122840543D01*
X104720526Y-122820552D01*
X104734410Y-122801832D01*
X104750062Y-122784562D01*
X104767332Y-122768910D01*
X104786052Y-122755026D01*
X104806043Y-122743044D01*
X104827113Y-122733079D01*
X104849057Y-122725227D01*
X104871666Y-122719563D01*
X104894721Y-122716144D01*
X104918000Y-122715000D01*
X105493000Y-122715000D01*
X105516279Y-122716144D01*
X105516279Y-122716144D01*
G37*
D20*
X105205500Y-123190000D03*
D10*
G36*
X103766279Y-122716144D02*
G01*
X103789334Y-122719563D01*
X103811943Y-122725227D01*
X103833887Y-122733079D01*
X103854957Y-122743044D01*
X103874948Y-122755026D01*
X103893668Y-122768910D01*
X103910938Y-122784562D01*
X103926590Y-122801832D01*
X103940474Y-122820552D01*
X103952456Y-122840543D01*
X103962421Y-122861613D01*
X103970273Y-122883557D01*
X103975937Y-122906166D01*
X103979356Y-122929221D01*
X103980500Y-122952500D01*
X103980500Y-123427500D01*
X103979356Y-123450779D01*
X103975937Y-123473834D01*
X103970273Y-123496443D01*
X103962421Y-123518387D01*
X103952456Y-123539457D01*
X103940474Y-123559448D01*
X103926590Y-123578168D01*
X103910938Y-123595438D01*
X103893668Y-123611090D01*
X103874948Y-123624974D01*
X103854957Y-123636956D01*
X103833887Y-123646921D01*
X103811943Y-123654773D01*
X103789334Y-123660437D01*
X103766279Y-123663856D01*
X103743000Y-123665000D01*
X103168000Y-123665000D01*
X103144721Y-123663856D01*
X103121666Y-123660437D01*
X103099057Y-123654773D01*
X103077113Y-123646921D01*
X103056043Y-123636956D01*
X103036052Y-123624974D01*
X103017332Y-123611090D01*
X103000062Y-123595438D01*
X102984410Y-123578168D01*
X102970526Y-123559448D01*
X102958544Y-123539457D01*
X102948579Y-123518387D01*
X102940727Y-123496443D01*
X102935063Y-123473834D01*
X102931644Y-123450779D01*
X102930500Y-123427500D01*
X102930500Y-122952500D01*
X102931644Y-122929221D01*
X102935063Y-122906166D01*
X102940727Y-122883557D01*
X102948579Y-122861613D01*
X102958544Y-122840543D01*
X102970526Y-122820552D01*
X102984410Y-122801832D01*
X103000062Y-122784562D01*
X103017332Y-122768910D01*
X103036052Y-122755026D01*
X103056043Y-122743044D01*
X103077113Y-122733079D01*
X103099057Y-122725227D01*
X103121666Y-122719563D01*
X103144721Y-122716144D01*
X103168000Y-122715000D01*
X103743000Y-122715000D01*
X103766279Y-122716144D01*
X103766279Y-122716144D01*
G37*
D20*
X103455500Y-123190000D03*
D10*
G36*
X101086458Y-122807210D02*
G01*
X101100776Y-122809334D01*
X101114817Y-122812851D01*
X101128446Y-122817728D01*
X101141531Y-122823917D01*
X101153947Y-122831358D01*
X101165573Y-122839981D01*
X101176298Y-122849702D01*
X101186019Y-122860427D01*
X101194642Y-122872053D01*
X101202083Y-122884469D01*
X101208272Y-122897554D01*
X101213149Y-122911183D01*
X101216666Y-122925224D01*
X101218790Y-122939542D01*
X101219500Y-122954000D01*
X101219500Y-123299000D01*
X101218790Y-123313458D01*
X101216666Y-123327776D01*
X101213149Y-123341817D01*
X101208272Y-123355446D01*
X101202083Y-123368531D01*
X101194642Y-123380947D01*
X101186019Y-123392573D01*
X101176298Y-123403298D01*
X101165573Y-123413019D01*
X101153947Y-123421642D01*
X101141531Y-123429083D01*
X101128446Y-123435272D01*
X101114817Y-123440149D01*
X101100776Y-123443666D01*
X101086458Y-123445790D01*
X101072000Y-123446500D01*
X100777000Y-123446500D01*
X100762542Y-123445790D01*
X100748224Y-123443666D01*
X100734183Y-123440149D01*
X100720554Y-123435272D01*
X100707469Y-123429083D01*
X100695053Y-123421642D01*
X100683427Y-123413019D01*
X100672702Y-123403298D01*
X100662981Y-123392573D01*
X100654358Y-123380947D01*
X100646917Y-123368531D01*
X100640728Y-123355446D01*
X100635851Y-123341817D01*
X100632334Y-123327776D01*
X100630210Y-123313458D01*
X100629500Y-123299000D01*
X100629500Y-122954000D01*
X100630210Y-122939542D01*
X100632334Y-122925224D01*
X100635851Y-122911183D01*
X100640728Y-122897554D01*
X100646917Y-122884469D01*
X100654358Y-122872053D01*
X100662981Y-122860427D01*
X100672702Y-122849702D01*
X100683427Y-122839981D01*
X100695053Y-122831358D01*
X100707469Y-122823917D01*
X100720554Y-122817728D01*
X100734183Y-122812851D01*
X100748224Y-122809334D01*
X100762542Y-122807210D01*
X100777000Y-122806500D01*
X101072000Y-122806500D01*
X101086458Y-122807210D01*
X101086458Y-122807210D01*
G37*
D21*
X100924500Y-123126500D03*
D10*
G36*
X102056458Y-122807210D02*
G01*
X102070776Y-122809334D01*
X102084817Y-122812851D01*
X102098446Y-122817728D01*
X102111531Y-122823917D01*
X102123947Y-122831358D01*
X102135573Y-122839981D01*
X102146298Y-122849702D01*
X102156019Y-122860427D01*
X102164642Y-122872053D01*
X102172083Y-122884469D01*
X102178272Y-122897554D01*
X102183149Y-122911183D01*
X102186666Y-122925224D01*
X102188790Y-122939542D01*
X102189500Y-122954000D01*
X102189500Y-123299000D01*
X102188790Y-123313458D01*
X102186666Y-123327776D01*
X102183149Y-123341817D01*
X102178272Y-123355446D01*
X102172083Y-123368531D01*
X102164642Y-123380947D01*
X102156019Y-123392573D01*
X102146298Y-123403298D01*
X102135573Y-123413019D01*
X102123947Y-123421642D01*
X102111531Y-123429083D01*
X102098446Y-123435272D01*
X102084817Y-123440149D01*
X102070776Y-123443666D01*
X102056458Y-123445790D01*
X102042000Y-123446500D01*
X101747000Y-123446500D01*
X101732542Y-123445790D01*
X101718224Y-123443666D01*
X101704183Y-123440149D01*
X101690554Y-123435272D01*
X101677469Y-123429083D01*
X101665053Y-123421642D01*
X101653427Y-123413019D01*
X101642702Y-123403298D01*
X101632981Y-123392573D01*
X101624358Y-123380947D01*
X101616917Y-123368531D01*
X101610728Y-123355446D01*
X101605851Y-123341817D01*
X101602334Y-123327776D01*
X101600210Y-123313458D01*
X101599500Y-123299000D01*
X101599500Y-122954000D01*
X101600210Y-122939542D01*
X101602334Y-122925224D01*
X101605851Y-122911183D01*
X101610728Y-122897554D01*
X101616917Y-122884469D01*
X101624358Y-122872053D01*
X101632981Y-122860427D01*
X101642702Y-122849702D01*
X101653427Y-122839981D01*
X101665053Y-122831358D01*
X101677469Y-122823917D01*
X101690554Y-122817728D01*
X101704183Y-122812851D01*
X101718224Y-122809334D01*
X101732542Y-122807210D01*
X101747000Y-122806500D01*
X102042000Y-122806500D01*
X102056458Y-122807210D01*
X102056458Y-122807210D01*
G37*
D21*
X101894500Y-123126500D03*
D22*
X105900000Y-130700000D03*
D23*
X96650000Y-130700000D03*
X96650000Y-126700000D03*
D22*
X105900000Y-126700000D03*
D14*
X139340000Y-125665000D03*
X139340000Y-124445000D03*
X138390000Y-125665000D03*
X138390000Y-124445000D03*
D15*
X137810000Y-126025000D03*
X137810000Y-125385000D03*
X137810000Y-124725000D03*
X137810000Y-124085000D03*
X140690000Y-124085000D03*
X140690000Y-124725000D03*
X140690000Y-125385000D03*
X140690000Y-126025000D03*
D14*
X143710000Y-121690000D03*
X143710000Y-122910000D03*
X144660000Y-121690000D03*
X144660000Y-122910000D03*
D15*
X145240000Y-121330000D03*
X145240000Y-121970000D03*
X145240000Y-122630000D03*
X145240000Y-123270000D03*
X142360000Y-123270000D03*
X142360000Y-122630000D03*
X142360000Y-121970000D03*
X142360000Y-121330000D03*
D14*
X143710000Y-127640000D03*
X143710000Y-128860000D03*
X144660000Y-127640000D03*
X144660000Y-128860000D03*
D15*
X145240000Y-127280000D03*
X145240000Y-127920000D03*
X145240000Y-128580000D03*
X145240000Y-129220000D03*
X142360000Y-129220000D03*
X142360000Y-128580000D03*
X142360000Y-127920000D03*
X142360000Y-127280000D03*
D14*
X139340000Y-137610000D03*
X139340000Y-136390000D03*
X138390000Y-137610000D03*
X138390000Y-136390000D03*
D15*
X137810000Y-137970000D03*
X137810000Y-137330000D03*
X137810000Y-136670000D03*
X137810000Y-136030000D03*
X140690000Y-136030000D03*
X140690000Y-136670000D03*
X140690000Y-137330000D03*
X140690000Y-137970000D03*
D14*
X143710000Y-133640000D03*
X143710000Y-134860000D03*
X144660000Y-133640000D03*
X144660000Y-134860000D03*
D15*
X145240000Y-133280000D03*
X145240000Y-133920000D03*
X145240000Y-134580000D03*
X145240000Y-135220000D03*
X142360000Y-135220000D03*
X142360000Y-134580000D03*
X142360000Y-133920000D03*
X142360000Y-133280000D03*
D10*
G36*
X124980142Y-131551174D02*
G01*
X125003803Y-131554684D01*
X125027007Y-131560496D01*
X125049529Y-131568554D01*
X125071153Y-131578782D01*
X125091670Y-131591079D01*
X125110883Y-131605329D01*
X125128607Y-131621393D01*
X125144671Y-131639117D01*
X125158921Y-131658330D01*
X125171218Y-131678847D01*
X125181446Y-131700471D01*
X125189504Y-131722993D01*
X125195316Y-131746197D01*
X125198826Y-131769858D01*
X125200000Y-131793750D01*
X125200000Y-132281250D01*
X125198826Y-132305142D01*
X125195316Y-132328803D01*
X125189504Y-132352007D01*
X125181446Y-132374529D01*
X125171218Y-132396153D01*
X125158921Y-132416670D01*
X125144671Y-132435883D01*
X125128607Y-132453607D01*
X125110883Y-132469671D01*
X125091670Y-132483921D01*
X125071153Y-132496218D01*
X125049529Y-132506446D01*
X125027007Y-132514504D01*
X125003803Y-132520316D01*
X124980142Y-132523826D01*
X124956250Y-132525000D01*
X124043750Y-132525000D01*
X124019858Y-132523826D01*
X123996197Y-132520316D01*
X123972993Y-132514504D01*
X123950471Y-132506446D01*
X123928847Y-132496218D01*
X123908330Y-132483921D01*
X123889117Y-132469671D01*
X123871393Y-132453607D01*
X123855329Y-132435883D01*
X123841079Y-132416670D01*
X123828782Y-132396153D01*
X123818554Y-132374529D01*
X123810496Y-132352007D01*
X123804684Y-132328803D01*
X123801174Y-132305142D01*
X123800000Y-132281250D01*
X123800000Y-131793750D01*
X123801174Y-131769858D01*
X123804684Y-131746197D01*
X123810496Y-131722993D01*
X123818554Y-131700471D01*
X123828782Y-131678847D01*
X123841079Y-131658330D01*
X123855329Y-131639117D01*
X123871393Y-131621393D01*
X123889117Y-131605329D01*
X123908330Y-131591079D01*
X123928847Y-131578782D01*
X123950471Y-131568554D01*
X123972993Y-131560496D01*
X123996197Y-131554684D01*
X124019858Y-131551174D01*
X124043750Y-131550000D01*
X124956250Y-131550000D01*
X124980142Y-131551174D01*
X124980142Y-131551174D01*
G37*
D11*
X124500000Y-132037500D03*
D10*
G36*
X124980142Y-129676174D02*
G01*
X125003803Y-129679684D01*
X125027007Y-129685496D01*
X125049529Y-129693554D01*
X125071153Y-129703782D01*
X125091670Y-129716079D01*
X125110883Y-129730329D01*
X125128607Y-129746393D01*
X125144671Y-129764117D01*
X125158921Y-129783330D01*
X125171218Y-129803847D01*
X125181446Y-129825471D01*
X125189504Y-129847993D01*
X125195316Y-129871197D01*
X125198826Y-129894858D01*
X125200000Y-129918750D01*
X125200000Y-130406250D01*
X125198826Y-130430142D01*
X125195316Y-130453803D01*
X125189504Y-130477007D01*
X125181446Y-130499529D01*
X125171218Y-130521153D01*
X125158921Y-130541670D01*
X125144671Y-130560883D01*
X125128607Y-130578607D01*
X125110883Y-130594671D01*
X125091670Y-130608921D01*
X125071153Y-130621218D01*
X125049529Y-130631446D01*
X125027007Y-130639504D01*
X125003803Y-130645316D01*
X124980142Y-130648826D01*
X124956250Y-130650000D01*
X124043750Y-130650000D01*
X124019858Y-130648826D01*
X123996197Y-130645316D01*
X123972993Y-130639504D01*
X123950471Y-130631446D01*
X123928847Y-130621218D01*
X123908330Y-130608921D01*
X123889117Y-130594671D01*
X123871393Y-130578607D01*
X123855329Y-130560883D01*
X123841079Y-130541670D01*
X123828782Y-130521153D01*
X123818554Y-130499529D01*
X123810496Y-130477007D01*
X123804684Y-130453803D01*
X123801174Y-130430142D01*
X123800000Y-130406250D01*
X123800000Y-129918750D01*
X123801174Y-129894858D01*
X123804684Y-129871197D01*
X123810496Y-129847993D01*
X123818554Y-129825471D01*
X123828782Y-129803847D01*
X123841079Y-129783330D01*
X123855329Y-129764117D01*
X123871393Y-129746393D01*
X123889117Y-129730329D01*
X123908330Y-129716079D01*
X123928847Y-129703782D01*
X123950471Y-129693554D01*
X123972993Y-129685496D01*
X123996197Y-129679684D01*
X124019858Y-129676174D01*
X124043750Y-129675000D01*
X124956250Y-129675000D01*
X124980142Y-129676174D01*
X124980142Y-129676174D01*
G37*
D11*
X124500000Y-130162500D03*
D10*
G36*
X126880142Y-131551174D02*
G01*
X126903803Y-131554684D01*
X126927007Y-131560496D01*
X126949529Y-131568554D01*
X126971153Y-131578782D01*
X126991670Y-131591079D01*
X127010883Y-131605329D01*
X127028607Y-131621393D01*
X127044671Y-131639117D01*
X127058921Y-131658330D01*
X127071218Y-131678847D01*
X127081446Y-131700471D01*
X127089504Y-131722993D01*
X127095316Y-131746197D01*
X127098826Y-131769858D01*
X127100000Y-131793750D01*
X127100000Y-132281250D01*
X127098826Y-132305142D01*
X127095316Y-132328803D01*
X127089504Y-132352007D01*
X127081446Y-132374529D01*
X127071218Y-132396153D01*
X127058921Y-132416670D01*
X127044671Y-132435883D01*
X127028607Y-132453607D01*
X127010883Y-132469671D01*
X126991670Y-132483921D01*
X126971153Y-132496218D01*
X126949529Y-132506446D01*
X126927007Y-132514504D01*
X126903803Y-132520316D01*
X126880142Y-132523826D01*
X126856250Y-132525000D01*
X125943750Y-132525000D01*
X125919858Y-132523826D01*
X125896197Y-132520316D01*
X125872993Y-132514504D01*
X125850471Y-132506446D01*
X125828847Y-132496218D01*
X125808330Y-132483921D01*
X125789117Y-132469671D01*
X125771393Y-132453607D01*
X125755329Y-132435883D01*
X125741079Y-132416670D01*
X125728782Y-132396153D01*
X125718554Y-132374529D01*
X125710496Y-132352007D01*
X125704684Y-132328803D01*
X125701174Y-132305142D01*
X125700000Y-132281250D01*
X125700000Y-131793750D01*
X125701174Y-131769858D01*
X125704684Y-131746197D01*
X125710496Y-131722993D01*
X125718554Y-131700471D01*
X125728782Y-131678847D01*
X125741079Y-131658330D01*
X125755329Y-131639117D01*
X125771393Y-131621393D01*
X125789117Y-131605329D01*
X125808330Y-131591079D01*
X125828847Y-131578782D01*
X125850471Y-131568554D01*
X125872993Y-131560496D01*
X125896197Y-131554684D01*
X125919858Y-131551174D01*
X125943750Y-131550000D01*
X126856250Y-131550000D01*
X126880142Y-131551174D01*
X126880142Y-131551174D01*
G37*
D11*
X126400000Y-132037500D03*
D10*
G36*
X126880142Y-129676174D02*
G01*
X126903803Y-129679684D01*
X126927007Y-129685496D01*
X126949529Y-129693554D01*
X126971153Y-129703782D01*
X126991670Y-129716079D01*
X127010883Y-129730329D01*
X127028607Y-129746393D01*
X127044671Y-129764117D01*
X127058921Y-129783330D01*
X127071218Y-129803847D01*
X127081446Y-129825471D01*
X127089504Y-129847993D01*
X127095316Y-129871197D01*
X127098826Y-129894858D01*
X127100000Y-129918750D01*
X127100000Y-130406250D01*
X127098826Y-130430142D01*
X127095316Y-130453803D01*
X127089504Y-130477007D01*
X127081446Y-130499529D01*
X127071218Y-130521153D01*
X127058921Y-130541670D01*
X127044671Y-130560883D01*
X127028607Y-130578607D01*
X127010883Y-130594671D01*
X126991670Y-130608921D01*
X126971153Y-130621218D01*
X126949529Y-130631446D01*
X126927007Y-130639504D01*
X126903803Y-130645316D01*
X126880142Y-130648826D01*
X126856250Y-130650000D01*
X125943750Y-130650000D01*
X125919858Y-130648826D01*
X125896197Y-130645316D01*
X125872993Y-130639504D01*
X125850471Y-130631446D01*
X125828847Y-130621218D01*
X125808330Y-130608921D01*
X125789117Y-130594671D01*
X125771393Y-130578607D01*
X125755329Y-130560883D01*
X125741079Y-130541670D01*
X125728782Y-130521153D01*
X125718554Y-130499529D01*
X125710496Y-130477007D01*
X125704684Y-130453803D01*
X125701174Y-130430142D01*
X125700000Y-130406250D01*
X125700000Y-129918750D01*
X125701174Y-129894858D01*
X125704684Y-129871197D01*
X125710496Y-129847993D01*
X125718554Y-129825471D01*
X125728782Y-129803847D01*
X125741079Y-129783330D01*
X125755329Y-129764117D01*
X125771393Y-129746393D01*
X125789117Y-129730329D01*
X125808330Y-129716079D01*
X125828847Y-129703782D01*
X125850471Y-129693554D01*
X125872993Y-129685496D01*
X125896197Y-129679684D01*
X125919858Y-129676174D01*
X125943750Y-129675000D01*
X126856250Y-129675000D01*
X126880142Y-129676174D01*
X126880142Y-129676174D01*
G37*
D11*
X126400000Y-130162500D03*
D10*
G36*
X130680142Y-131551174D02*
G01*
X130703803Y-131554684D01*
X130727007Y-131560496D01*
X130749529Y-131568554D01*
X130771153Y-131578782D01*
X130791670Y-131591079D01*
X130810883Y-131605329D01*
X130828607Y-131621393D01*
X130844671Y-131639117D01*
X130858921Y-131658330D01*
X130871218Y-131678847D01*
X130881446Y-131700471D01*
X130889504Y-131722993D01*
X130895316Y-131746197D01*
X130898826Y-131769858D01*
X130900000Y-131793750D01*
X130900000Y-132281250D01*
X130898826Y-132305142D01*
X130895316Y-132328803D01*
X130889504Y-132352007D01*
X130881446Y-132374529D01*
X130871218Y-132396153D01*
X130858921Y-132416670D01*
X130844671Y-132435883D01*
X130828607Y-132453607D01*
X130810883Y-132469671D01*
X130791670Y-132483921D01*
X130771153Y-132496218D01*
X130749529Y-132506446D01*
X130727007Y-132514504D01*
X130703803Y-132520316D01*
X130680142Y-132523826D01*
X130656250Y-132525000D01*
X129743750Y-132525000D01*
X129719858Y-132523826D01*
X129696197Y-132520316D01*
X129672993Y-132514504D01*
X129650471Y-132506446D01*
X129628847Y-132496218D01*
X129608330Y-132483921D01*
X129589117Y-132469671D01*
X129571393Y-132453607D01*
X129555329Y-132435883D01*
X129541079Y-132416670D01*
X129528782Y-132396153D01*
X129518554Y-132374529D01*
X129510496Y-132352007D01*
X129504684Y-132328803D01*
X129501174Y-132305142D01*
X129500000Y-132281250D01*
X129500000Y-131793750D01*
X129501174Y-131769858D01*
X129504684Y-131746197D01*
X129510496Y-131722993D01*
X129518554Y-131700471D01*
X129528782Y-131678847D01*
X129541079Y-131658330D01*
X129555329Y-131639117D01*
X129571393Y-131621393D01*
X129589117Y-131605329D01*
X129608330Y-131591079D01*
X129628847Y-131578782D01*
X129650471Y-131568554D01*
X129672993Y-131560496D01*
X129696197Y-131554684D01*
X129719858Y-131551174D01*
X129743750Y-131550000D01*
X130656250Y-131550000D01*
X130680142Y-131551174D01*
X130680142Y-131551174D01*
G37*
D11*
X130200000Y-132037500D03*
D10*
G36*
X130680142Y-129676174D02*
G01*
X130703803Y-129679684D01*
X130727007Y-129685496D01*
X130749529Y-129693554D01*
X130771153Y-129703782D01*
X130791670Y-129716079D01*
X130810883Y-129730329D01*
X130828607Y-129746393D01*
X130844671Y-129764117D01*
X130858921Y-129783330D01*
X130871218Y-129803847D01*
X130881446Y-129825471D01*
X130889504Y-129847993D01*
X130895316Y-129871197D01*
X130898826Y-129894858D01*
X130900000Y-129918750D01*
X130900000Y-130406250D01*
X130898826Y-130430142D01*
X130895316Y-130453803D01*
X130889504Y-130477007D01*
X130881446Y-130499529D01*
X130871218Y-130521153D01*
X130858921Y-130541670D01*
X130844671Y-130560883D01*
X130828607Y-130578607D01*
X130810883Y-130594671D01*
X130791670Y-130608921D01*
X130771153Y-130621218D01*
X130749529Y-130631446D01*
X130727007Y-130639504D01*
X130703803Y-130645316D01*
X130680142Y-130648826D01*
X130656250Y-130650000D01*
X129743750Y-130650000D01*
X129719858Y-130648826D01*
X129696197Y-130645316D01*
X129672993Y-130639504D01*
X129650471Y-130631446D01*
X129628847Y-130621218D01*
X129608330Y-130608921D01*
X129589117Y-130594671D01*
X129571393Y-130578607D01*
X129555329Y-130560883D01*
X129541079Y-130541670D01*
X129528782Y-130521153D01*
X129518554Y-130499529D01*
X129510496Y-130477007D01*
X129504684Y-130453803D01*
X129501174Y-130430142D01*
X129500000Y-130406250D01*
X129500000Y-129918750D01*
X129501174Y-129894858D01*
X129504684Y-129871197D01*
X129510496Y-129847993D01*
X129518554Y-129825471D01*
X129528782Y-129803847D01*
X129541079Y-129783330D01*
X129555329Y-129764117D01*
X129571393Y-129746393D01*
X129589117Y-129730329D01*
X129608330Y-129716079D01*
X129628847Y-129703782D01*
X129650471Y-129693554D01*
X129672993Y-129685496D01*
X129696197Y-129679684D01*
X129719858Y-129676174D01*
X129743750Y-129675000D01*
X130656250Y-129675000D01*
X130680142Y-129676174D01*
X130680142Y-129676174D01*
G37*
D11*
X130200000Y-130162500D03*
D10*
G36*
X123757958Y-122618710D02*
G01*
X123772276Y-122620834D01*
X123786317Y-122624351D01*
X123799946Y-122629228D01*
X123813031Y-122635417D01*
X123825447Y-122642858D01*
X123837073Y-122651481D01*
X123847798Y-122661202D01*
X123857519Y-122671927D01*
X123866142Y-122683553D01*
X123873583Y-122695969D01*
X123879772Y-122709054D01*
X123884649Y-122722683D01*
X123888166Y-122736724D01*
X123890290Y-122751042D01*
X123891000Y-122765500D01*
X123891000Y-123060500D01*
X123890290Y-123074958D01*
X123888166Y-123089276D01*
X123884649Y-123103317D01*
X123879772Y-123116946D01*
X123873583Y-123130031D01*
X123866142Y-123142447D01*
X123857519Y-123154073D01*
X123847798Y-123164798D01*
X123837073Y-123174519D01*
X123825447Y-123183142D01*
X123813031Y-123190583D01*
X123799946Y-123196772D01*
X123786317Y-123201649D01*
X123772276Y-123205166D01*
X123757958Y-123207290D01*
X123743500Y-123208000D01*
X123398500Y-123208000D01*
X123384042Y-123207290D01*
X123369724Y-123205166D01*
X123355683Y-123201649D01*
X123342054Y-123196772D01*
X123328969Y-123190583D01*
X123316553Y-123183142D01*
X123304927Y-123174519D01*
X123294202Y-123164798D01*
X123284481Y-123154073D01*
X123275858Y-123142447D01*
X123268417Y-123130031D01*
X123262228Y-123116946D01*
X123257351Y-123103317D01*
X123253834Y-123089276D01*
X123251710Y-123074958D01*
X123251000Y-123060500D01*
X123251000Y-122765500D01*
X123251710Y-122751042D01*
X123253834Y-122736724D01*
X123257351Y-122722683D01*
X123262228Y-122709054D01*
X123268417Y-122695969D01*
X123275858Y-122683553D01*
X123284481Y-122671927D01*
X123294202Y-122661202D01*
X123304927Y-122651481D01*
X123316553Y-122642858D01*
X123328969Y-122635417D01*
X123342054Y-122629228D01*
X123355683Y-122624351D01*
X123369724Y-122620834D01*
X123384042Y-122618710D01*
X123398500Y-122618000D01*
X123743500Y-122618000D01*
X123757958Y-122618710D01*
X123757958Y-122618710D01*
G37*
D21*
X123571000Y-122913000D03*
D10*
G36*
X123757958Y-121648710D02*
G01*
X123772276Y-121650834D01*
X123786317Y-121654351D01*
X123799946Y-121659228D01*
X123813031Y-121665417D01*
X123825447Y-121672858D01*
X123837073Y-121681481D01*
X123847798Y-121691202D01*
X123857519Y-121701927D01*
X123866142Y-121713553D01*
X123873583Y-121725969D01*
X123879772Y-121739054D01*
X123884649Y-121752683D01*
X123888166Y-121766724D01*
X123890290Y-121781042D01*
X123891000Y-121795500D01*
X123891000Y-122090500D01*
X123890290Y-122104958D01*
X123888166Y-122119276D01*
X123884649Y-122133317D01*
X123879772Y-122146946D01*
X123873583Y-122160031D01*
X123866142Y-122172447D01*
X123857519Y-122184073D01*
X123847798Y-122194798D01*
X123837073Y-122204519D01*
X123825447Y-122213142D01*
X123813031Y-122220583D01*
X123799946Y-122226772D01*
X123786317Y-122231649D01*
X123772276Y-122235166D01*
X123757958Y-122237290D01*
X123743500Y-122238000D01*
X123398500Y-122238000D01*
X123384042Y-122237290D01*
X123369724Y-122235166D01*
X123355683Y-122231649D01*
X123342054Y-122226772D01*
X123328969Y-122220583D01*
X123316553Y-122213142D01*
X123304927Y-122204519D01*
X123294202Y-122194798D01*
X123284481Y-122184073D01*
X123275858Y-122172447D01*
X123268417Y-122160031D01*
X123262228Y-122146946D01*
X123257351Y-122133317D01*
X123253834Y-122119276D01*
X123251710Y-122104958D01*
X123251000Y-122090500D01*
X123251000Y-121795500D01*
X123251710Y-121781042D01*
X123253834Y-121766724D01*
X123257351Y-121752683D01*
X123262228Y-121739054D01*
X123268417Y-121725969D01*
X123275858Y-121713553D01*
X123284481Y-121701927D01*
X123294202Y-121691202D01*
X123304927Y-121681481D01*
X123316553Y-121672858D01*
X123328969Y-121665417D01*
X123342054Y-121659228D01*
X123355683Y-121654351D01*
X123369724Y-121650834D01*
X123384042Y-121648710D01*
X123398500Y-121648000D01*
X123743500Y-121648000D01*
X123757958Y-121648710D01*
X123757958Y-121648710D01*
G37*
D21*
X123571000Y-121943000D03*
D17*
X104175000Y-134150000D03*
X102425000Y-134150000D03*
X104175000Y-137650000D03*
X102425000Y-137650000D03*
D10*
G36*
X116486958Y-119820710D02*
G01*
X116501276Y-119822834D01*
X116515317Y-119826351D01*
X116528946Y-119831228D01*
X116542031Y-119837417D01*
X116554447Y-119844858D01*
X116566073Y-119853481D01*
X116576798Y-119863202D01*
X116586519Y-119873927D01*
X116595142Y-119885553D01*
X116602583Y-119897969D01*
X116608772Y-119911054D01*
X116613649Y-119924683D01*
X116617166Y-119938724D01*
X116619290Y-119953042D01*
X116620000Y-119967500D01*
X116620000Y-120262500D01*
X116619290Y-120276958D01*
X116617166Y-120291276D01*
X116613649Y-120305317D01*
X116608772Y-120318946D01*
X116602583Y-120332031D01*
X116595142Y-120344447D01*
X116586519Y-120356073D01*
X116576798Y-120366798D01*
X116566073Y-120376519D01*
X116554447Y-120385142D01*
X116542031Y-120392583D01*
X116528946Y-120398772D01*
X116515317Y-120403649D01*
X116501276Y-120407166D01*
X116486958Y-120409290D01*
X116472500Y-120410000D01*
X116127500Y-120410000D01*
X116113042Y-120409290D01*
X116098724Y-120407166D01*
X116084683Y-120403649D01*
X116071054Y-120398772D01*
X116057969Y-120392583D01*
X116045553Y-120385142D01*
X116033927Y-120376519D01*
X116023202Y-120366798D01*
X116013481Y-120356073D01*
X116004858Y-120344447D01*
X115997417Y-120332031D01*
X115991228Y-120318946D01*
X115986351Y-120305317D01*
X115982834Y-120291276D01*
X115980710Y-120276958D01*
X115980000Y-120262500D01*
X115980000Y-119967500D01*
X115980710Y-119953042D01*
X115982834Y-119938724D01*
X115986351Y-119924683D01*
X115991228Y-119911054D01*
X115997417Y-119897969D01*
X116004858Y-119885553D01*
X116013481Y-119873927D01*
X116023202Y-119863202D01*
X116033927Y-119853481D01*
X116045553Y-119844858D01*
X116057969Y-119837417D01*
X116071054Y-119831228D01*
X116084683Y-119826351D01*
X116098724Y-119822834D01*
X116113042Y-119820710D01*
X116127500Y-119820000D01*
X116472500Y-119820000D01*
X116486958Y-119820710D01*
X116486958Y-119820710D01*
G37*
D21*
X116300000Y-120115000D03*
D10*
G36*
X116486958Y-120790710D02*
G01*
X116501276Y-120792834D01*
X116515317Y-120796351D01*
X116528946Y-120801228D01*
X116542031Y-120807417D01*
X116554447Y-120814858D01*
X116566073Y-120823481D01*
X116576798Y-120833202D01*
X116586519Y-120843927D01*
X116595142Y-120855553D01*
X116602583Y-120867969D01*
X116608772Y-120881054D01*
X116613649Y-120894683D01*
X116617166Y-120908724D01*
X116619290Y-120923042D01*
X116620000Y-120937500D01*
X116620000Y-121232500D01*
X116619290Y-121246958D01*
X116617166Y-121261276D01*
X116613649Y-121275317D01*
X116608772Y-121288946D01*
X116602583Y-121302031D01*
X116595142Y-121314447D01*
X116586519Y-121326073D01*
X116576798Y-121336798D01*
X116566073Y-121346519D01*
X116554447Y-121355142D01*
X116542031Y-121362583D01*
X116528946Y-121368772D01*
X116515317Y-121373649D01*
X116501276Y-121377166D01*
X116486958Y-121379290D01*
X116472500Y-121380000D01*
X116127500Y-121380000D01*
X116113042Y-121379290D01*
X116098724Y-121377166D01*
X116084683Y-121373649D01*
X116071054Y-121368772D01*
X116057969Y-121362583D01*
X116045553Y-121355142D01*
X116033927Y-121346519D01*
X116023202Y-121336798D01*
X116013481Y-121326073D01*
X116004858Y-121314447D01*
X115997417Y-121302031D01*
X115991228Y-121288946D01*
X115986351Y-121275317D01*
X115982834Y-121261276D01*
X115980710Y-121246958D01*
X115980000Y-121232500D01*
X115980000Y-120937500D01*
X115980710Y-120923042D01*
X115982834Y-120908724D01*
X115986351Y-120894683D01*
X115991228Y-120881054D01*
X115997417Y-120867969D01*
X116004858Y-120855553D01*
X116013481Y-120843927D01*
X116023202Y-120833202D01*
X116033927Y-120823481D01*
X116045553Y-120814858D01*
X116057969Y-120807417D01*
X116071054Y-120801228D01*
X116084683Y-120796351D01*
X116098724Y-120792834D01*
X116113042Y-120790710D01*
X116127500Y-120790000D01*
X116472500Y-120790000D01*
X116486958Y-120790710D01*
X116486958Y-120790710D01*
G37*
D21*
X116300000Y-121085000D03*
D24*
X114539999Y-120790000D03*
D25*
X113239999Y-120790000D03*
X112439999Y-120790000D03*
X111639999Y-120790000D03*
X110839999Y-120790000D03*
D24*
X109539999Y-120790000D03*
D26*
X113814999Y-126460000D03*
X110264999Y-126460000D03*
D10*
G36*
X100743958Y-117852710D02*
G01*
X100758276Y-117854834D01*
X100772317Y-117858351D01*
X100785946Y-117863228D01*
X100799031Y-117869417D01*
X100811447Y-117876858D01*
X100823073Y-117885481D01*
X100833798Y-117895202D01*
X100843519Y-117905927D01*
X100852142Y-117917553D01*
X100859583Y-117929969D01*
X100865772Y-117943054D01*
X100870649Y-117956683D01*
X100874166Y-117970724D01*
X100876290Y-117985042D01*
X100877000Y-117999500D01*
X100877000Y-118294500D01*
X100876290Y-118308958D01*
X100874166Y-118323276D01*
X100870649Y-118337317D01*
X100865772Y-118350946D01*
X100859583Y-118364031D01*
X100852142Y-118376447D01*
X100843519Y-118388073D01*
X100833798Y-118398798D01*
X100823073Y-118408519D01*
X100811447Y-118417142D01*
X100799031Y-118424583D01*
X100785946Y-118430772D01*
X100772317Y-118435649D01*
X100758276Y-118439166D01*
X100743958Y-118441290D01*
X100729500Y-118442000D01*
X100384500Y-118442000D01*
X100370042Y-118441290D01*
X100355724Y-118439166D01*
X100341683Y-118435649D01*
X100328054Y-118430772D01*
X100314969Y-118424583D01*
X100302553Y-118417142D01*
X100290927Y-118408519D01*
X100280202Y-118398798D01*
X100270481Y-118388073D01*
X100261858Y-118376447D01*
X100254417Y-118364031D01*
X100248228Y-118350946D01*
X100243351Y-118337317D01*
X100239834Y-118323276D01*
X100237710Y-118308958D01*
X100237000Y-118294500D01*
X100237000Y-117999500D01*
X100237710Y-117985042D01*
X100239834Y-117970724D01*
X100243351Y-117956683D01*
X100248228Y-117943054D01*
X100254417Y-117929969D01*
X100261858Y-117917553D01*
X100270481Y-117905927D01*
X100280202Y-117895202D01*
X100290927Y-117885481D01*
X100302553Y-117876858D01*
X100314969Y-117869417D01*
X100328054Y-117863228D01*
X100341683Y-117858351D01*
X100355724Y-117854834D01*
X100370042Y-117852710D01*
X100384500Y-117852000D01*
X100729500Y-117852000D01*
X100743958Y-117852710D01*
X100743958Y-117852710D01*
G37*
D21*
X100557000Y-118147000D03*
D10*
G36*
X100743958Y-116882710D02*
G01*
X100758276Y-116884834D01*
X100772317Y-116888351D01*
X100785946Y-116893228D01*
X100799031Y-116899417D01*
X100811447Y-116906858D01*
X100823073Y-116915481D01*
X100833798Y-116925202D01*
X100843519Y-116935927D01*
X100852142Y-116947553D01*
X100859583Y-116959969D01*
X100865772Y-116973054D01*
X100870649Y-116986683D01*
X100874166Y-117000724D01*
X100876290Y-117015042D01*
X100877000Y-117029500D01*
X100877000Y-117324500D01*
X100876290Y-117338958D01*
X100874166Y-117353276D01*
X100870649Y-117367317D01*
X100865772Y-117380946D01*
X100859583Y-117394031D01*
X100852142Y-117406447D01*
X100843519Y-117418073D01*
X100833798Y-117428798D01*
X100823073Y-117438519D01*
X100811447Y-117447142D01*
X100799031Y-117454583D01*
X100785946Y-117460772D01*
X100772317Y-117465649D01*
X100758276Y-117469166D01*
X100743958Y-117471290D01*
X100729500Y-117472000D01*
X100384500Y-117472000D01*
X100370042Y-117471290D01*
X100355724Y-117469166D01*
X100341683Y-117465649D01*
X100328054Y-117460772D01*
X100314969Y-117454583D01*
X100302553Y-117447142D01*
X100290927Y-117438519D01*
X100280202Y-117428798D01*
X100270481Y-117418073D01*
X100261858Y-117406447D01*
X100254417Y-117394031D01*
X100248228Y-117380946D01*
X100243351Y-117367317D01*
X100239834Y-117353276D01*
X100237710Y-117338958D01*
X100237000Y-117324500D01*
X100237000Y-117029500D01*
X100237710Y-117015042D01*
X100239834Y-117000724D01*
X100243351Y-116986683D01*
X100248228Y-116973054D01*
X100254417Y-116959969D01*
X100261858Y-116947553D01*
X100270481Y-116935927D01*
X100280202Y-116925202D01*
X100290927Y-116915481D01*
X100302553Y-116906858D01*
X100314969Y-116899417D01*
X100328054Y-116893228D01*
X100341683Y-116888351D01*
X100355724Y-116884834D01*
X100370042Y-116882710D01*
X100384500Y-116882000D01*
X100729500Y-116882000D01*
X100743958Y-116882710D01*
X100743958Y-116882710D01*
G37*
D21*
X100557000Y-117177000D03*
D10*
G36*
X136380142Y-129676174D02*
G01*
X136403803Y-129679684D01*
X136427007Y-129685496D01*
X136449529Y-129693554D01*
X136471153Y-129703782D01*
X136491670Y-129716079D01*
X136510883Y-129730329D01*
X136528607Y-129746393D01*
X136544671Y-129764117D01*
X136558921Y-129783330D01*
X136571218Y-129803847D01*
X136581446Y-129825471D01*
X136589504Y-129847993D01*
X136595316Y-129871197D01*
X136598826Y-129894858D01*
X136600000Y-129918750D01*
X136600000Y-130406250D01*
X136598826Y-130430142D01*
X136595316Y-130453803D01*
X136589504Y-130477007D01*
X136581446Y-130499529D01*
X136571218Y-130521153D01*
X136558921Y-130541670D01*
X136544671Y-130560883D01*
X136528607Y-130578607D01*
X136510883Y-130594671D01*
X136491670Y-130608921D01*
X136471153Y-130621218D01*
X136449529Y-130631446D01*
X136427007Y-130639504D01*
X136403803Y-130645316D01*
X136380142Y-130648826D01*
X136356250Y-130650000D01*
X135443750Y-130650000D01*
X135419858Y-130648826D01*
X135396197Y-130645316D01*
X135372993Y-130639504D01*
X135350471Y-130631446D01*
X135328847Y-130621218D01*
X135308330Y-130608921D01*
X135289117Y-130594671D01*
X135271393Y-130578607D01*
X135255329Y-130560883D01*
X135241079Y-130541670D01*
X135228782Y-130521153D01*
X135218554Y-130499529D01*
X135210496Y-130477007D01*
X135204684Y-130453803D01*
X135201174Y-130430142D01*
X135200000Y-130406250D01*
X135200000Y-129918750D01*
X135201174Y-129894858D01*
X135204684Y-129871197D01*
X135210496Y-129847993D01*
X135218554Y-129825471D01*
X135228782Y-129803847D01*
X135241079Y-129783330D01*
X135255329Y-129764117D01*
X135271393Y-129746393D01*
X135289117Y-129730329D01*
X135308330Y-129716079D01*
X135328847Y-129703782D01*
X135350471Y-129693554D01*
X135372993Y-129685496D01*
X135396197Y-129679684D01*
X135419858Y-129676174D01*
X135443750Y-129675000D01*
X136356250Y-129675000D01*
X136380142Y-129676174D01*
X136380142Y-129676174D01*
G37*
D11*
X135900000Y-130162500D03*
D10*
G36*
X136380142Y-131551174D02*
G01*
X136403803Y-131554684D01*
X136427007Y-131560496D01*
X136449529Y-131568554D01*
X136471153Y-131578782D01*
X136491670Y-131591079D01*
X136510883Y-131605329D01*
X136528607Y-131621393D01*
X136544671Y-131639117D01*
X136558921Y-131658330D01*
X136571218Y-131678847D01*
X136581446Y-131700471D01*
X136589504Y-131722993D01*
X136595316Y-131746197D01*
X136598826Y-131769858D01*
X136600000Y-131793750D01*
X136600000Y-132281250D01*
X136598826Y-132305142D01*
X136595316Y-132328803D01*
X136589504Y-132352007D01*
X136581446Y-132374529D01*
X136571218Y-132396153D01*
X136558921Y-132416670D01*
X136544671Y-132435883D01*
X136528607Y-132453607D01*
X136510883Y-132469671D01*
X136491670Y-132483921D01*
X136471153Y-132496218D01*
X136449529Y-132506446D01*
X136427007Y-132514504D01*
X136403803Y-132520316D01*
X136380142Y-132523826D01*
X136356250Y-132525000D01*
X135443750Y-132525000D01*
X135419858Y-132523826D01*
X135396197Y-132520316D01*
X135372993Y-132514504D01*
X135350471Y-132506446D01*
X135328847Y-132496218D01*
X135308330Y-132483921D01*
X135289117Y-132469671D01*
X135271393Y-132453607D01*
X135255329Y-132435883D01*
X135241079Y-132416670D01*
X135228782Y-132396153D01*
X135218554Y-132374529D01*
X135210496Y-132352007D01*
X135204684Y-132328803D01*
X135201174Y-132305142D01*
X135200000Y-132281250D01*
X135200000Y-131793750D01*
X135201174Y-131769858D01*
X135204684Y-131746197D01*
X135210496Y-131722993D01*
X135218554Y-131700471D01*
X135228782Y-131678847D01*
X135241079Y-131658330D01*
X135255329Y-131639117D01*
X135271393Y-131621393D01*
X135289117Y-131605329D01*
X135308330Y-131591079D01*
X135328847Y-131578782D01*
X135350471Y-131568554D01*
X135372993Y-131560496D01*
X135396197Y-131554684D01*
X135419858Y-131551174D01*
X135443750Y-131550000D01*
X136356250Y-131550000D01*
X136380142Y-131551174D01*
X136380142Y-131551174D01*
G37*
D11*
X135900000Y-132037500D03*
D27*
X141990000Y-111125000D03*
X138680000Y-111125000D03*
M02*
