G04 #@! TF.GenerationSoftware,KiCad,Pcbnew,5.1.3-ffb9f22~84~ubuntu18.04.1*
G04 #@! TF.CreationDate,2019-10-12T08:12:31-07:00*
G04 #@! TF.ProjectId,board,626f6172-642e-46b6-9963-61645f706362,rev?*
G04 #@! TF.SameCoordinates,Original*
G04 #@! TF.FileFunction,Legend,Bot*
G04 #@! TF.FilePolarity,Positive*
%FSLAX46Y46*%
G04 Gerber Fmt 4.6, Leading zero omitted, Abs format (unit mm)*
G04 Created by KiCad (PCBNEW 5.1.3-ffb9f22~84~ubuntu18.04.1) date 2019-10-12 08:12:31*
%MOMM*%
%LPD*%
G04 APERTURE LIST*
%ADD10C,0.250000*%
%ADD11C,0.120000*%
%ADD12C,0.150000*%
%ADD13C,0.152400*%
%ADD14C,0.050000*%
G04 APERTURE END LIST*
D10*
X142390000Y-105536904D02*
X142437619Y-105632142D01*
X142437619Y-105775000D01*
X142390000Y-105917857D01*
X142294761Y-106013095D01*
X142199523Y-106060714D01*
X142009047Y-106108333D01*
X141866190Y-106108333D01*
X141675714Y-106060714D01*
X141580476Y-106013095D01*
X141485238Y-105917857D01*
X141437619Y-105775000D01*
X141437619Y-105679761D01*
X141485238Y-105536904D01*
X141532857Y-105489285D01*
X141866190Y-105489285D01*
X141866190Y-105679761D01*
X141437619Y-105060714D02*
X142437619Y-105060714D01*
X141437619Y-104489285D01*
X142437619Y-104489285D01*
X141437619Y-104013095D02*
X142437619Y-104013095D01*
X142437619Y-103775000D01*
X142390000Y-103632142D01*
X142294761Y-103536904D01*
X142199523Y-103489285D01*
X142009047Y-103441666D01*
X141866190Y-103441666D01*
X141675714Y-103489285D01*
X141580476Y-103536904D01*
X141485238Y-103632142D01*
X141437619Y-103775000D01*
X141437619Y-104013095D01*
X142437619Y-114490476D02*
X142437619Y-114966666D01*
X141961428Y-115014285D01*
X142009047Y-114966666D01*
X142056666Y-114871428D01*
X142056666Y-114633333D01*
X142009047Y-114538095D01*
X141961428Y-114490476D01*
X141866190Y-114442857D01*
X141628095Y-114442857D01*
X141532857Y-114490476D01*
X141485238Y-114538095D01*
X141437619Y-114633333D01*
X141437619Y-114871428D01*
X141485238Y-114966666D01*
X141532857Y-115014285D01*
X142437619Y-114157142D02*
X141437619Y-113823809D01*
X142437619Y-113490476D01*
X139850000Y-114426904D02*
X139897619Y-114522142D01*
X139897619Y-114665000D01*
X139850000Y-114807857D01*
X139754761Y-114903095D01*
X139659523Y-114950714D01*
X139469047Y-114998333D01*
X139326190Y-114998333D01*
X139135714Y-114950714D01*
X139040476Y-114903095D01*
X138945238Y-114807857D01*
X138897619Y-114665000D01*
X138897619Y-114569761D01*
X138945238Y-114426904D01*
X138992857Y-114379285D01*
X139326190Y-114379285D01*
X139326190Y-114569761D01*
X138897619Y-113950714D02*
X139897619Y-113950714D01*
X138897619Y-113379285D01*
X139897619Y-113379285D01*
X138897619Y-112903095D02*
X139897619Y-112903095D01*
X139897619Y-112665000D01*
X139850000Y-112522142D01*
X139754761Y-112426904D01*
X139659523Y-112379285D01*
X139469047Y-112331666D01*
X139326190Y-112331666D01*
X139135714Y-112379285D01*
X139040476Y-112426904D01*
X138945238Y-112522142D01*
X138897619Y-112665000D01*
X138897619Y-112903095D01*
X137357619Y-115141190D02*
X137357619Y-114522142D01*
X136976666Y-114855476D01*
X136976666Y-114712619D01*
X136929047Y-114617380D01*
X136881428Y-114569761D01*
X136786190Y-114522142D01*
X136548095Y-114522142D01*
X136452857Y-114569761D01*
X136405238Y-114617380D01*
X136357619Y-114712619D01*
X136357619Y-114998333D01*
X136405238Y-115093571D01*
X136452857Y-115141190D01*
X136452857Y-114093571D02*
X136405238Y-114045952D01*
X136357619Y-114093571D01*
X136405238Y-114141190D01*
X136452857Y-114093571D01*
X136357619Y-114093571D01*
X137357619Y-113712619D02*
X137357619Y-113093571D01*
X136976666Y-113426904D01*
X136976666Y-113284047D01*
X136929047Y-113188809D01*
X136881428Y-113141190D01*
X136786190Y-113093571D01*
X136548095Y-113093571D01*
X136452857Y-113141190D01*
X136405238Y-113188809D01*
X136357619Y-113284047D01*
X136357619Y-113569761D01*
X136405238Y-113665000D01*
X136452857Y-113712619D01*
X137357619Y-112807857D02*
X136357619Y-112474523D01*
X137357619Y-112141190D01*
X134722380Y-115156904D02*
X134770000Y-115109285D01*
X134817619Y-115014047D01*
X134817619Y-114775952D01*
X134770000Y-114680714D01*
X134722380Y-114633095D01*
X134627142Y-114585476D01*
X134531904Y-114585476D01*
X134389047Y-114633095D01*
X133817619Y-115204523D01*
X133817619Y-114585476D01*
X134484285Y-113728333D02*
X133817619Y-113728333D01*
X134865238Y-113966428D02*
X134150952Y-114204523D01*
X134150952Y-113585476D01*
X132182380Y-115156904D02*
X132230000Y-115109285D01*
X132277619Y-115014047D01*
X132277619Y-114775952D01*
X132230000Y-114680714D01*
X132182380Y-114633095D01*
X132087142Y-114585476D01*
X131991904Y-114585476D01*
X131849047Y-114633095D01*
X131277619Y-115204523D01*
X131277619Y-114585476D01*
X132277619Y-114252142D02*
X132277619Y-113633095D01*
X131896666Y-113966428D01*
X131896666Y-113823571D01*
X131849047Y-113728333D01*
X131801428Y-113680714D01*
X131706190Y-113633095D01*
X131468095Y-113633095D01*
X131372857Y-113680714D01*
X131325238Y-113728333D01*
X131277619Y-113823571D01*
X131277619Y-114109285D01*
X131325238Y-114204523D01*
X131372857Y-114252142D01*
X129642380Y-115156904D02*
X129690000Y-115109285D01*
X129737619Y-115014047D01*
X129737619Y-114775952D01*
X129690000Y-114680714D01*
X129642380Y-114633095D01*
X129547142Y-114585476D01*
X129451904Y-114585476D01*
X129309047Y-114633095D01*
X128737619Y-115204523D01*
X128737619Y-114585476D01*
X129642380Y-114204523D02*
X129690000Y-114156904D01*
X129737619Y-114061666D01*
X129737619Y-113823571D01*
X129690000Y-113728333D01*
X129642380Y-113680714D01*
X129547142Y-113633095D01*
X129451904Y-113633095D01*
X129309047Y-113680714D01*
X128737619Y-114252142D01*
X128737619Y-113633095D01*
X127102380Y-115156904D02*
X127150000Y-115109285D01*
X127197619Y-115014047D01*
X127197619Y-114775952D01*
X127150000Y-114680714D01*
X127102380Y-114633095D01*
X127007142Y-114585476D01*
X126911904Y-114585476D01*
X126769047Y-114633095D01*
X126197619Y-115204523D01*
X126197619Y-114585476D01*
X126197619Y-113633095D02*
X126197619Y-114204523D01*
X126197619Y-113918809D02*
X127197619Y-113918809D01*
X127054761Y-114014047D01*
X126959523Y-114109285D01*
X126911904Y-114204523D01*
X124562380Y-115156904D02*
X124610000Y-115109285D01*
X124657619Y-115014047D01*
X124657619Y-114775952D01*
X124610000Y-114680714D01*
X124562380Y-114633095D01*
X124467142Y-114585476D01*
X124371904Y-114585476D01*
X124229047Y-114633095D01*
X123657619Y-115204523D01*
X123657619Y-114585476D01*
X124657619Y-113966428D02*
X124657619Y-113871190D01*
X124610000Y-113775952D01*
X124562380Y-113728333D01*
X124467142Y-113680714D01*
X124276666Y-113633095D01*
X124038571Y-113633095D01*
X123848095Y-113680714D01*
X123752857Y-113728333D01*
X123705238Y-113775952D01*
X123657619Y-113871190D01*
X123657619Y-113966428D01*
X123705238Y-114061666D01*
X123752857Y-114109285D01*
X123848095Y-114156904D01*
X124038571Y-114204523D01*
X124276666Y-114204523D01*
X124467142Y-114156904D01*
X124562380Y-114109285D01*
X124610000Y-114061666D01*
X124657619Y-113966428D01*
X121117619Y-114585476D02*
X121117619Y-115156904D01*
X121117619Y-114871190D02*
X122117619Y-114871190D01*
X121974761Y-114966428D01*
X121879523Y-115061666D01*
X121831904Y-115156904D01*
X121117619Y-114109285D02*
X121117619Y-113918809D01*
X121165238Y-113823571D01*
X121212857Y-113775952D01*
X121355714Y-113680714D01*
X121546190Y-113633095D01*
X121927142Y-113633095D01*
X122022380Y-113680714D01*
X122070000Y-113728333D01*
X122117619Y-113823571D01*
X122117619Y-114014047D01*
X122070000Y-114109285D01*
X122022380Y-114156904D01*
X121927142Y-114204523D01*
X121689047Y-114204523D01*
X121593809Y-114156904D01*
X121546190Y-114109285D01*
X121498571Y-114014047D01*
X121498571Y-113823571D01*
X121546190Y-113728333D01*
X121593809Y-113680714D01*
X121689047Y-113633095D01*
X118577619Y-114585476D02*
X118577619Y-115156904D01*
X118577619Y-114871190D02*
X119577619Y-114871190D01*
X119434761Y-114966428D01*
X119339523Y-115061666D01*
X119291904Y-115156904D01*
X119149047Y-114014047D02*
X119196666Y-114109285D01*
X119244285Y-114156904D01*
X119339523Y-114204523D01*
X119387142Y-114204523D01*
X119482380Y-114156904D01*
X119530000Y-114109285D01*
X119577619Y-114014047D01*
X119577619Y-113823571D01*
X119530000Y-113728333D01*
X119482380Y-113680714D01*
X119387142Y-113633095D01*
X119339523Y-113633095D01*
X119244285Y-113680714D01*
X119196666Y-113728333D01*
X119149047Y-113823571D01*
X119149047Y-114014047D01*
X119101428Y-114109285D01*
X119053809Y-114156904D01*
X118958571Y-114204523D01*
X118768095Y-114204523D01*
X118672857Y-114156904D01*
X118625238Y-114109285D01*
X118577619Y-114014047D01*
X118577619Y-113823571D01*
X118625238Y-113728333D01*
X118672857Y-113680714D01*
X118768095Y-113633095D01*
X118958571Y-113633095D01*
X119053809Y-113680714D01*
X119101428Y-113728333D01*
X119149047Y-113823571D01*
X116037619Y-114585476D02*
X116037619Y-115156904D01*
X116037619Y-114871190D02*
X117037619Y-114871190D01*
X116894761Y-114966428D01*
X116799523Y-115061666D01*
X116751904Y-115156904D01*
X117037619Y-114252142D02*
X117037619Y-113585476D01*
X116037619Y-114014047D01*
X113497619Y-114585476D02*
X113497619Y-115156904D01*
X113497619Y-114871190D02*
X114497619Y-114871190D01*
X114354761Y-114966428D01*
X114259523Y-115061666D01*
X114211904Y-115156904D01*
X114497619Y-113728333D02*
X114497619Y-113918809D01*
X114450000Y-114014047D01*
X114402380Y-114061666D01*
X114259523Y-114156904D01*
X114069047Y-114204523D01*
X113688095Y-114204523D01*
X113592857Y-114156904D01*
X113545238Y-114109285D01*
X113497619Y-114014047D01*
X113497619Y-113823571D01*
X113545238Y-113728333D01*
X113592857Y-113680714D01*
X113688095Y-113633095D01*
X113926190Y-113633095D01*
X114021428Y-113680714D01*
X114069047Y-113728333D01*
X114116666Y-113823571D01*
X114116666Y-114014047D01*
X114069047Y-114109285D01*
X114021428Y-114156904D01*
X113926190Y-114204523D01*
X110957619Y-114585476D02*
X110957619Y-115156904D01*
X110957619Y-114871190D02*
X111957619Y-114871190D01*
X111814761Y-114966428D01*
X111719523Y-115061666D01*
X111671904Y-115156904D01*
X111957619Y-113680714D02*
X111957619Y-114156904D01*
X111481428Y-114204523D01*
X111529047Y-114156904D01*
X111576666Y-114061666D01*
X111576666Y-113823571D01*
X111529047Y-113728333D01*
X111481428Y-113680714D01*
X111386190Y-113633095D01*
X111148095Y-113633095D01*
X111052857Y-113680714D01*
X111005238Y-113728333D01*
X110957619Y-113823571D01*
X110957619Y-114061666D01*
X111005238Y-114156904D01*
X111052857Y-114204523D01*
X108417619Y-114490476D02*
X108417619Y-115061904D01*
X108417619Y-114776190D02*
X109417619Y-114776190D01*
X109274761Y-114871428D01*
X109179523Y-114966666D01*
X109131904Y-115061904D01*
X109084285Y-113633333D02*
X108417619Y-113633333D01*
X109465238Y-113871428D02*
X108750952Y-114109523D01*
X108750952Y-113490476D01*
X108417619Y-104330476D02*
X108417619Y-104901904D01*
X108417619Y-104616190D02*
X109417619Y-104616190D01*
X109274761Y-104711428D01*
X109179523Y-104806666D01*
X109131904Y-104901904D01*
X109417619Y-103997142D02*
X109417619Y-103378095D01*
X109036666Y-103711428D01*
X109036666Y-103568571D01*
X108989047Y-103473333D01*
X108941428Y-103425714D01*
X108846190Y-103378095D01*
X108608095Y-103378095D01*
X108512857Y-103425714D01*
X108465238Y-103473333D01*
X108417619Y-103568571D01*
X108417619Y-103854285D01*
X108465238Y-103949523D01*
X108512857Y-103997142D01*
X110957619Y-104330476D02*
X110957619Y-104901904D01*
X110957619Y-104616190D02*
X111957619Y-104616190D01*
X111814761Y-104711428D01*
X111719523Y-104806666D01*
X111671904Y-104901904D01*
X111862380Y-103949523D02*
X111910000Y-103901904D01*
X111957619Y-103806666D01*
X111957619Y-103568571D01*
X111910000Y-103473333D01*
X111862380Y-103425714D01*
X111767142Y-103378095D01*
X111671904Y-103378095D01*
X111529047Y-103425714D01*
X110957619Y-103997142D01*
X110957619Y-103378095D01*
X113212619Y-104330476D02*
X113212619Y-104901904D01*
X113212619Y-104616190D02*
X114212619Y-104616190D01*
X114069761Y-104711428D01*
X113974523Y-104806666D01*
X113926904Y-104901904D01*
X113212619Y-103378095D02*
X113212619Y-103949523D01*
X113212619Y-103663809D02*
X114212619Y-103663809D01*
X114069761Y-103759047D01*
X113974523Y-103854285D01*
X113926904Y-103949523D01*
X116037619Y-104330476D02*
X116037619Y-104901904D01*
X116037619Y-104616190D02*
X117037619Y-104616190D01*
X116894761Y-104711428D01*
X116799523Y-104806666D01*
X116751904Y-104901904D01*
X117037619Y-103711428D02*
X117037619Y-103616190D01*
X116990000Y-103520952D01*
X116942380Y-103473333D01*
X116847142Y-103425714D01*
X116656666Y-103378095D01*
X116418571Y-103378095D01*
X116228095Y-103425714D01*
X116132857Y-103473333D01*
X116085238Y-103520952D01*
X116037619Y-103616190D01*
X116037619Y-103711428D01*
X116085238Y-103806666D01*
X116132857Y-103854285D01*
X116228095Y-103901904D01*
X116418571Y-103949523D01*
X116656666Y-103949523D01*
X116847142Y-103901904D01*
X116942380Y-103854285D01*
X116990000Y-103806666D01*
X117037619Y-103711428D01*
X118577619Y-103790476D02*
X118577619Y-103600000D01*
X118625238Y-103504761D01*
X118672857Y-103457142D01*
X118815714Y-103361904D01*
X119006190Y-103314285D01*
X119387142Y-103314285D01*
X119482380Y-103361904D01*
X119530000Y-103409523D01*
X119577619Y-103504761D01*
X119577619Y-103695238D01*
X119530000Y-103790476D01*
X119482380Y-103838095D01*
X119387142Y-103885714D01*
X119149047Y-103885714D01*
X119053809Y-103838095D01*
X119006190Y-103790476D01*
X118958571Y-103695238D01*
X118958571Y-103504761D01*
X119006190Y-103409523D01*
X119053809Y-103361904D01*
X119149047Y-103314285D01*
X121689047Y-103695238D02*
X121736666Y-103790476D01*
X121784285Y-103838095D01*
X121879523Y-103885714D01*
X121927142Y-103885714D01*
X122022380Y-103838095D01*
X122070000Y-103790476D01*
X122117619Y-103695238D01*
X122117619Y-103504761D01*
X122070000Y-103409523D01*
X122022380Y-103361904D01*
X121927142Y-103314285D01*
X121879523Y-103314285D01*
X121784285Y-103361904D01*
X121736666Y-103409523D01*
X121689047Y-103504761D01*
X121689047Y-103695238D01*
X121641428Y-103790476D01*
X121593809Y-103838095D01*
X121498571Y-103885714D01*
X121308095Y-103885714D01*
X121212857Y-103838095D01*
X121165238Y-103790476D01*
X121117619Y-103695238D01*
X121117619Y-103504761D01*
X121165238Y-103409523D01*
X121212857Y-103361904D01*
X121308095Y-103314285D01*
X121498571Y-103314285D01*
X121593809Y-103361904D01*
X121641428Y-103409523D01*
X121689047Y-103504761D01*
X124657619Y-103933333D02*
X124657619Y-103266666D01*
X123657619Y-103695238D01*
X127197619Y-103409523D02*
X127197619Y-103600000D01*
X127150000Y-103695238D01*
X127102380Y-103742857D01*
X126959523Y-103838095D01*
X126769047Y-103885714D01*
X126388095Y-103885714D01*
X126292857Y-103838095D01*
X126245238Y-103790476D01*
X126197619Y-103695238D01*
X126197619Y-103504761D01*
X126245238Y-103409523D01*
X126292857Y-103361904D01*
X126388095Y-103314285D01*
X126626190Y-103314285D01*
X126721428Y-103361904D01*
X126769047Y-103409523D01*
X126816666Y-103504761D01*
X126816666Y-103695238D01*
X126769047Y-103790476D01*
X126721428Y-103838095D01*
X126626190Y-103885714D01*
X129737619Y-103361904D02*
X129737619Y-103838095D01*
X129261428Y-103885714D01*
X129309047Y-103838095D01*
X129356666Y-103742857D01*
X129356666Y-103504761D01*
X129309047Y-103409523D01*
X129261428Y-103361904D01*
X129166190Y-103314285D01*
X128928095Y-103314285D01*
X128832857Y-103361904D01*
X128785238Y-103409523D01*
X128737619Y-103504761D01*
X128737619Y-103742857D01*
X128785238Y-103838095D01*
X128832857Y-103885714D01*
X131944285Y-103409523D02*
X131277619Y-103409523D01*
X132325238Y-103647619D02*
X131610952Y-103885714D01*
X131610952Y-103266666D01*
X134817619Y-103933333D02*
X134817619Y-103314285D01*
X134436666Y-103647619D01*
X134436666Y-103504761D01*
X134389047Y-103409523D01*
X134341428Y-103361904D01*
X134246190Y-103314285D01*
X134008095Y-103314285D01*
X133912857Y-103361904D01*
X133865238Y-103409523D01*
X133817619Y-103504761D01*
X133817619Y-103790476D01*
X133865238Y-103885714D01*
X133912857Y-103933333D01*
X137262380Y-103885714D02*
X137310000Y-103838095D01*
X137357619Y-103742857D01*
X137357619Y-103504761D01*
X137310000Y-103409523D01*
X137262380Y-103361904D01*
X137167142Y-103314285D01*
X137071904Y-103314285D01*
X136929047Y-103361904D01*
X136357619Y-103933333D01*
X136357619Y-103314285D01*
X138897619Y-103314285D02*
X138897619Y-103885714D01*
X138897619Y-103600000D02*
X139897619Y-103600000D01*
X139754761Y-103695238D01*
X139659523Y-103790476D01*
X139611904Y-103885714D01*
D11*
X103303000Y-112018578D02*
X103303000Y-111501422D01*
X104723000Y-112018578D02*
X104723000Y-111501422D01*
X101398000Y-112018578D02*
X101398000Y-111501422D01*
X102818000Y-112018578D02*
X102818000Y-111501422D01*
X134672000Y-121543578D02*
X134672000Y-121026422D01*
X136092000Y-121543578D02*
X136092000Y-121026422D01*
D12*
X122564000Y-119571000D02*
X123089000Y-119571000D01*
X122564000Y-125871000D02*
X123089000Y-125871000D01*
X128864000Y-125871000D02*
X128339000Y-125871000D01*
X128864000Y-119571000D02*
X128339000Y-119571000D01*
X122564000Y-125871000D02*
X122564000Y-125346000D01*
X128864000Y-125871000D02*
X128864000Y-125346000D01*
X122564000Y-119571000D02*
X122564000Y-120096000D01*
D11*
X137917422Y-119178000D02*
X138434578Y-119178000D01*
X137917422Y-120598000D02*
X138434578Y-120598000D01*
D12*
X150121200Y-102033800D02*
X150121200Y-102133800D01*
X145471200Y-102033800D02*
X145471200Y-102233800D01*
X145471200Y-105283800D02*
X145471200Y-105083800D01*
X150121200Y-105283800D02*
X150121200Y-105083800D01*
X150121200Y-102033800D02*
X145471200Y-102033800D01*
X150121200Y-105283800D02*
X145471200Y-105283800D01*
X150121200Y-102133800D02*
X151471200Y-102133800D01*
D13*
X99009200Y-108051600D02*
X99466400Y-108051600D01*
X95554800Y-111404400D02*
X95097600Y-111404400D01*
X95097600Y-111404400D02*
X95097600Y-108051600D01*
X95097600Y-108051600D02*
X95554800Y-108051600D01*
X99466400Y-108051600D02*
X99466400Y-111404400D01*
X99466400Y-111404400D02*
X99009200Y-111404400D01*
D11*
X134541422Y-105910000D02*
X135058578Y-105910000D01*
X134541422Y-104490000D02*
X135058578Y-104490000D01*
D12*
X136000001Y-110299999D02*
X136000001Y-109799999D01*
X132750001Y-107049999D02*
X132750001Y-107549999D01*
X136000001Y-107049999D02*
X136000001Y-107549999D01*
X132750001Y-110299999D02*
X133250001Y-110299999D01*
X132750001Y-107049999D02*
X133250001Y-107049999D01*
X136000001Y-107049999D02*
X135500001Y-107049999D01*
X136000001Y-110299999D02*
X135500001Y-110299999D01*
D11*
X111535000Y-127615000D02*
X111535000Y-129900000D01*
X110065000Y-127615000D02*
X111535000Y-127615000D01*
X110065000Y-129900000D02*
X110065000Y-127615000D01*
D12*
X108150000Y-132700000D02*
X93150000Y-132700000D01*
X108150000Y-124700000D02*
X108150000Y-132700000D01*
X93150000Y-124700000D02*
X108150000Y-124700000D01*
X93150000Y-132700000D02*
X93150000Y-124700000D01*
X96150000Y-124700000D02*
X96150000Y-125300000D01*
X96150000Y-128100000D02*
X96150000Y-129300000D01*
X96150000Y-132700000D02*
X96150000Y-132100000D01*
D11*
X145400000Y-125200000D02*
G75*
G03X145400000Y-125200000I-700000J0D01*
G01*
X147500000Y-125200000D02*
G75*
G03X147500000Y-125200000I-700000J0D01*
G01*
X145300000Y-131200000D02*
G75*
G03X145300000Y-131200000I-700000J0D01*
G01*
X147400000Y-131200000D02*
G75*
G03X147400000Y-131200000I-700000J0D01*
G01*
X145200000Y-137300000D02*
G75*
G03X145200000Y-137300000I-700000J0D01*
G01*
X147300000Y-137300000D02*
G75*
G03X147300000Y-137300000I-700000J0D01*
G01*
X96300000Y-114580000D02*
X97900000Y-114580000D01*
X96300000Y-100620000D02*
X97900000Y-100620000D01*
X102300000Y-114580000D02*
X103900000Y-114580000D01*
X102300000Y-100620000D02*
X103900000Y-100620000D01*
X93600000Y-111400000D02*
X93600000Y-109800000D01*
X106600000Y-111400000D02*
X106600000Y-109800000D01*
X93600000Y-105400000D02*
X93600000Y-103800000D01*
X106600000Y-105400000D02*
X106600000Y-103800000D01*
D14*
X99411921Y-110542229D02*
X99666889Y-110542229D01*
X99696886Y-110557227D01*
X99711884Y-110572226D01*
X99726882Y-110602222D01*
X99726882Y-110662214D01*
X99711884Y-110692211D01*
X99696886Y-110707209D01*
X99666889Y-110722207D01*
X99411921Y-110722207D01*
X99726882Y-111037168D02*
X99726882Y-110857190D01*
X99726882Y-110947179D02*
X99411921Y-110947179D01*
X99456915Y-110917183D01*
X99486912Y-110887187D01*
X99501910Y-110857190D01*
M02*
