G04 #@! TF.GenerationSoftware,KiCad,Pcbnew,5.1.3-ffb9f22~84~ubuntu18.04.1*
G04 #@! TF.CreationDate,2019-10-12T08:12:31-07:00*
G04 #@! TF.ProjectId,board,626f6172-642e-46b6-9963-61645f706362,rev?*
G04 #@! TF.SameCoordinates,Original*
G04 #@! TF.FileFunction,Soldermask,Top*
G04 #@! TF.FilePolarity,Negative*
%FSLAX46Y46*%
G04 Gerber Fmt 4.6, Leading zero omitted, Abs format (unit mm)*
G04 Created by KiCad (PCBNEW 5.1.3-ffb9f22~84~ubuntu18.04.1) date 2019-10-12 08:12:31*
%MOMM*%
%LPD*%
G04 APERTURE LIST*
%ADD10C,0.010000*%
%ADD11C,0.100000*%
G04 APERTURE END LIST*
D10*
G36*
X129366510Y-136659041D02*
G01*
X129379587Y-136662432D01*
X129390891Y-136669561D01*
X129393235Y-136671484D01*
X129412535Y-136693321D01*
X129422462Y-136717798D01*
X129422769Y-136743707D01*
X129413284Y-136769704D01*
X129398855Y-136788798D01*
X129380380Y-136800264D01*
X129355867Y-136805149D01*
X129345071Y-136805499D01*
X129327672Y-136804886D01*
X129315998Y-136801873D01*
X129305637Y-136794697D01*
X129296746Y-136786198D01*
X129280121Y-136763308D01*
X129272779Y-136738373D01*
X129274675Y-136713145D01*
X129285762Y-136689375D01*
X129299702Y-136673890D01*
X129311556Y-136664693D01*
X129322873Y-136659972D01*
X129337973Y-136658308D01*
X129347510Y-136658179D01*
X129366510Y-136659041D01*
X129366510Y-136659041D01*
G37*
X129366510Y-136659041D02*
X129379587Y-136662432D01*
X129390891Y-136669561D01*
X129393235Y-136671484D01*
X129412535Y-136693321D01*
X129422462Y-136717798D01*
X129422769Y-136743707D01*
X129413284Y-136769704D01*
X129398855Y-136788798D01*
X129380380Y-136800264D01*
X129355867Y-136805149D01*
X129345071Y-136805499D01*
X129327672Y-136804886D01*
X129315998Y-136801873D01*
X129305637Y-136794697D01*
X129296746Y-136786198D01*
X129280121Y-136763308D01*
X129272779Y-136738373D01*
X129274675Y-136713145D01*
X129285762Y-136689375D01*
X129299702Y-136673890D01*
X129311556Y-136664693D01*
X129322873Y-136659972D01*
X129337973Y-136658308D01*
X129347510Y-136658179D01*
X129366510Y-136659041D01*
G36*
X127927309Y-136937865D02*
G01*
X127942397Y-136949272D01*
X127944632Y-136951549D01*
X127960840Y-136972015D01*
X127974146Y-136995127D01*
X127984238Y-137019287D01*
X127990804Y-137042899D01*
X127993534Y-137064365D01*
X127992117Y-137082089D01*
X127986240Y-137094474D01*
X127975593Y-137099922D01*
X127973583Y-137100042D01*
X127966162Y-137097629D01*
X127954661Y-137091641D01*
X127952940Y-137090610D01*
X127935942Y-137075847D01*
X127920210Y-137054340D01*
X127906760Y-137028622D01*
X127896607Y-137001228D01*
X127890764Y-136974693D01*
X127890248Y-136951552D01*
X127892846Y-136940534D01*
X127900265Y-136933013D01*
X127912509Y-136932284D01*
X127927309Y-136937865D01*
X127927309Y-136937865D01*
G37*
X127927309Y-136937865D02*
X127942397Y-136949272D01*
X127944632Y-136951549D01*
X127960840Y-136972015D01*
X127974146Y-136995127D01*
X127984238Y-137019287D01*
X127990804Y-137042899D01*
X127993534Y-137064365D01*
X127992117Y-137082089D01*
X127986240Y-137094474D01*
X127975593Y-137099922D01*
X127973583Y-137100042D01*
X127966162Y-137097629D01*
X127954661Y-137091641D01*
X127952940Y-137090610D01*
X127935942Y-137075847D01*
X127920210Y-137054340D01*
X127906760Y-137028622D01*
X127896607Y-137001228D01*
X127890764Y-136974693D01*
X127890248Y-136951552D01*
X127892846Y-136940534D01*
X127900265Y-136933013D01*
X127912509Y-136932284D01*
X127927309Y-136937865D01*
G36*
X128514254Y-133255597D02*
G01*
X128563146Y-133256973D01*
X128604634Y-133259166D01*
X128607091Y-133259343D01*
X128773573Y-133276556D01*
X128937699Y-133303558D01*
X129099106Y-133340175D01*
X129257432Y-133386236D01*
X129412313Y-133441567D01*
X129563388Y-133505995D01*
X129710294Y-133579349D01*
X129852667Y-133661454D01*
X129990147Y-133752138D01*
X130122369Y-133851229D01*
X130248971Y-133958553D01*
X130369591Y-134073938D01*
X130414331Y-134120445D01*
X130525231Y-134245741D01*
X130627695Y-134376619D01*
X130721609Y-134512833D01*
X130806857Y-134654136D01*
X130883328Y-134800283D01*
X130950907Y-134951030D01*
X131009480Y-135106129D01*
X131058933Y-135265335D01*
X131099153Y-135428404D01*
X131130027Y-135595088D01*
X131143870Y-135695519D01*
X131146531Y-135723553D01*
X131148899Y-135760097D01*
X131150950Y-135803504D01*
X131152661Y-135852127D01*
X131154011Y-135904318D01*
X131154974Y-135958432D01*
X131155530Y-136012820D01*
X131155653Y-136065837D01*
X131155322Y-136115836D01*
X131154514Y-136161168D01*
X131153205Y-136200189D01*
X131151372Y-136231250D01*
X131151364Y-136231348D01*
X131133268Y-136395677D01*
X131105366Y-136557886D01*
X131067867Y-136717575D01*
X131020980Y-136874344D01*
X130964911Y-137027792D01*
X130899869Y-137177519D01*
X130826063Y-137323125D01*
X130743701Y-137464210D01*
X130652990Y-137600372D01*
X130554138Y-137731212D01*
X130447355Y-137856330D01*
X130332848Y-137975324D01*
X130210825Y-138087795D01*
X130166670Y-138125304D01*
X130035182Y-138228103D01*
X129898399Y-138322309D01*
X129756663Y-138407783D01*
X129610318Y-138484383D01*
X129459706Y-138551969D01*
X129305171Y-138610401D01*
X129147056Y-138659538D01*
X128985704Y-138699239D01*
X128821458Y-138729364D01*
X128654661Y-138749773D01*
X128639063Y-138751169D01*
X128607448Y-138753360D01*
X128568116Y-138755222D01*
X128523180Y-138756730D01*
X128474752Y-138757855D01*
X128424945Y-138758573D01*
X128375872Y-138758856D01*
X128329645Y-138758679D01*
X128288377Y-138758015D01*
X128254181Y-138756838D01*
X128241537Y-138756126D01*
X128071905Y-138739981D01*
X127905221Y-138714247D01*
X127741751Y-138679038D01*
X127581759Y-138634468D01*
X127425510Y-138580651D01*
X127273270Y-138517702D01*
X127125304Y-138445735D01*
X126981876Y-138364864D01*
X126843251Y-138275204D01*
X126709695Y-138176868D01*
X126581473Y-138069970D01*
X126520112Y-138013975D01*
X126401722Y-137895806D01*
X126291322Y-137771510D01*
X126189084Y-137641449D01*
X126095181Y-137505987D01*
X126009786Y-137365485D01*
X125933072Y-137220308D01*
X125865213Y-137070819D01*
X125806380Y-136917380D01*
X125756747Y-136760355D01*
X125716487Y-136600107D01*
X125685773Y-136436999D01*
X125664778Y-136271393D01*
X125659327Y-136207107D01*
X125657078Y-136166182D01*
X125655649Y-136117723D01*
X125655001Y-136063680D01*
X125655097Y-136006004D01*
X125655688Y-135962219D01*
X127338709Y-135962219D01*
X127338930Y-136022806D01*
X127339643Y-136075194D01*
X127340997Y-136121337D01*
X127343139Y-136163188D01*
X127346219Y-136202702D01*
X127350384Y-136241834D01*
X127355782Y-136282537D01*
X127362562Y-136326766D01*
X127369526Y-136368619D01*
X127394164Y-136493706D01*
X127426015Y-136623723D01*
X127464487Y-136757094D01*
X127508989Y-136892245D01*
X127558928Y-137027599D01*
X127613712Y-137161583D01*
X127672750Y-137292622D01*
X127735448Y-137419140D01*
X127801216Y-137539562D01*
X127824981Y-137580199D01*
X127850693Y-137622089D01*
X127875235Y-137659009D01*
X127900301Y-137693102D01*
X127927582Y-137726516D01*
X127958770Y-137761394D01*
X127995557Y-137799883D01*
X128009080Y-137813607D01*
X128077382Y-137880002D01*
X128142875Y-137938278D01*
X128207023Y-137989533D01*
X128271288Y-138034866D01*
X128337135Y-138075375D01*
X128406026Y-138112159D01*
X128408468Y-138113371D01*
X128475708Y-138144570D01*
X128543366Y-138171530D01*
X128612661Y-138194513D01*
X128684815Y-138213780D01*
X128761051Y-138229592D01*
X128842589Y-138242210D01*
X128930650Y-138251894D01*
X129026457Y-138258907D01*
X129107144Y-138262682D01*
X129121311Y-138262004D01*
X129142017Y-138259544D01*
X129165885Y-138255744D01*
X129179189Y-138253234D01*
X129284969Y-138226908D01*
X129389070Y-138190663D01*
X129491583Y-138144459D01*
X129592602Y-138088255D01*
X129671558Y-138036654D01*
X129707791Y-138010382D01*
X129748699Y-137978987D01*
X129792848Y-137943703D01*
X129838807Y-137905765D01*
X129885142Y-137866406D01*
X129930420Y-137826860D01*
X129973208Y-137788362D01*
X130012073Y-137752146D01*
X130045583Y-137719445D01*
X130072200Y-137691608D01*
X130121921Y-137634510D01*
X130170869Y-137573772D01*
X130218185Y-137510711D01*
X130263011Y-137446641D01*
X130304489Y-137382878D01*
X130341759Y-137320739D01*
X130373963Y-137261539D01*
X130400242Y-137206593D01*
X130418390Y-137161099D01*
X130430009Y-137124622D01*
X130436512Y-137094859D01*
X130438134Y-137069885D01*
X130435109Y-137047777D01*
X130433072Y-137040594D01*
X130424742Y-137007122D01*
X130418017Y-136963789D01*
X130412888Y-136910521D01*
X130411400Y-136888419D01*
X130409757Y-136865224D01*
X130407934Y-136845766D01*
X130406170Y-136832293D01*
X130404891Y-136827218D01*
X130398828Y-136823030D01*
X130386304Y-136816755D01*
X130374056Y-136811433D01*
X130338034Y-136793744D01*
X130307893Y-136772050D01*
X130282898Y-136745272D01*
X130262315Y-136712335D01*
X130245410Y-136672160D01*
X130231449Y-136623672D01*
X130224574Y-136592139D01*
X130215952Y-136537923D01*
X130209715Y-136475238D01*
X130205846Y-136405486D01*
X130204331Y-136330070D01*
X130205153Y-136250392D01*
X130208297Y-136167856D01*
X130213747Y-136083863D01*
X130221487Y-135999817D01*
X130231501Y-135917120D01*
X130232234Y-135911796D01*
X130240526Y-135860560D01*
X130251694Y-135806462D01*
X130266142Y-135747820D01*
X130284279Y-135682951D01*
X130300350Y-135629833D01*
X130310844Y-135594535D01*
X130317592Y-135568162D01*
X130320699Y-135550237D01*
X130320473Y-135540933D01*
X130319835Y-135533756D01*
X130319116Y-135517278D01*
X130318333Y-135492361D01*
X130317505Y-135459865D01*
X130316650Y-135420647D01*
X130315786Y-135375570D01*
X130314930Y-135325492D01*
X130314101Y-135271274D01*
X130313317Y-135213775D01*
X130312867Y-135177359D01*
X130311942Y-135102805D01*
X130311021Y-135037375D01*
X130310052Y-134980033D01*
X130308986Y-134929741D01*
X130307771Y-134885464D01*
X130306357Y-134846167D01*
X130304694Y-134810811D01*
X130302729Y-134778361D01*
X130300413Y-134747782D01*
X130297696Y-134718036D01*
X130294525Y-134688087D01*
X130290852Y-134656900D01*
X130286624Y-134623437D01*
X130285258Y-134612934D01*
X130276293Y-134550472D01*
X130265480Y-134485121D01*
X130253506Y-134420711D01*
X130241059Y-134361070D01*
X130236044Y-134339159D01*
X130230037Y-134313679D01*
X130224702Y-134291017D01*
X130220562Y-134273404D01*
X130218143Y-134263074D01*
X130217942Y-134262212D01*
X130212357Y-134252535D01*
X130199613Y-134238079D01*
X130180902Y-134219851D01*
X130157416Y-134198859D01*
X130130348Y-134176109D01*
X130100890Y-134152610D01*
X130070234Y-134129369D01*
X130039572Y-134107393D01*
X130015743Y-134091337D01*
X129922506Y-134036500D01*
X129823209Y-133989604D01*
X129717728Y-133950604D01*
X129605942Y-133919454D01*
X129487728Y-133896112D01*
X129477263Y-133894468D01*
X129432640Y-133888933D01*
X129380389Y-133884672D01*
X129322966Y-133881728D01*
X129262827Y-133880147D01*
X129202430Y-133879975D01*
X129144232Y-133881255D01*
X129090689Y-133884033D01*
X129058163Y-133886803D01*
X128921148Y-133904815D01*
X128789732Y-133930187D01*
X128664217Y-133962802D01*
X128544908Y-134002546D01*
X128432105Y-134049301D01*
X128326113Y-134102953D01*
X128227234Y-134163386D01*
X128135771Y-134230483D01*
X128115150Y-134247404D01*
X128081961Y-134276423D01*
X128049569Y-134307367D01*
X128016478Y-134341809D01*
X127981192Y-134381317D01*
X127942215Y-134427463D01*
X127933360Y-134438219D01*
X127829749Y-134570671D01*
X127736222Y-134703126D01*
X127652701Y-134835736D01*
X127579111Y-134968655D01*
X127515376Y-135102037D01*
X127461420Y-135236037D01*
X127417167Y-135370806D01*
X127382540Y-135506500D01*
X127367182Y-135583759D01*
X127359705Y-135626903D01*
X127353630Y-135665500D01*
X127348818Y-135701391D01*
X127345130Y-135736416D01*
X127342428Y-135772416D01*
X127340573Y-135811230D01*
X127339428Y-135854701D01*
X127338852Y-135904668D01*
X127338709Y-135962219D01*
X125655688Y-135962219D01*
X125655899Y-135946643D01*
X125657369Y-135887550D01*
X125659467Y-135830674D01*
X125662157Y-135777966D01*
X125665399Y-135731376D01*
X125669157Y-135692854D01*
X125669425Y-135690619D01*
X125694899Y-135521087D01*
X125729571Y-135355865D01*
X125773472Y-135194877D01*
X125826635Y-135038051D01*
X125889092Y-134885313D01*
X125960873Y-134736589D01*
X126042012Y-134591805D01*
X126132540Y-134450887D01*
X126232489Y-134313761D01*
X126300000Y-134229657D01*
X126325097Y-134200673D01*
X126356303Y-134166503D01*
X126392097Y-134128667D01*
X126430959Y-134088686D01*
X126471366Y-134048082D01*
X126511798Y-134008377D01*
X126550733Y-133971090D01*
X126586651Y-133937744D01*
X126618029Y-133909859D01*
X126629641Y-133900016D01*
X126745969Y-133807702D01*
X126862978Y-133724014D01*
X126982829Y-133647525D01*
X127107679Y-133576809D01*
X127160783Y-133549169D01*
X127306044Y-133480456D01*
X127453296Y-133421015D01*
X127603388Y-133370589D01*
X127757167Y-133328923D01*
X127915483Y-133295762D01*
X128079185Y-133270850D01*
X128090603Y-133269441D01*
X128128517Y-133265650D01*
X128174630Y-133262372D01*
X128226991Y-133259644D01*
X128283649Y-133257505D01*
X128342655Y-133255993D01*
X128402058Y-133255145D01*
X128459908Y-133255001D01*
X128514254Y-133255597D01*
X128514254Y-133255597D01*
G37*
X128514254Y-133255597D02*
X128563146Y-133256973D01*
X128604634Y-133259166D01*
X128607091Y-133259343D01*
X128773573Y-133276556D01*
X128937699Y-133303558D01*
X129099106Y-133340175D01*
X129257432Y-133386236D01*
X129412313Y-133441567D01*
X129563388Y-133505995D01*
X129710294Y-133579349D01*
X129852667Y-133661454D01*
X129990147Y-133752138D01*
X130122369Y-133851229D01*
X130248971Y-133958553D01*
X130369591Y-134073938D01*
X130414331Y-134120445D01*
X130525231Y-134245741D01*
X130627695Y-134376619D01*
X130721609Y-134512833D01*
X130806857Y-134654136D01*
X130883328Y-134800283D01*
X130950907Y-134951030D01*
X131009480Y-135106129D01*
X131058933Y-135265335D01*
X131099153Y-135428404D01*
X131130027Y-135595088D01*
X131143870Y-135695519D01*
X131146531Y-135723553D01*
X131148899Y-135760097D01*
X131150950Y-135803504D01*
X131152661Y-135852127D01*
X131154011Y-135904318D01*
X131154974Y-135958432D01*
X131155530Y-136012820D01*
X131155653Y-136065837D01*
X131155322Y-136115836D01*
X131154514Y-136161168D01*
X131153205Y-136200189D01*
X131151372Y-136231250D01*
X131151364Y-136231348D01*
X131133268Y-136395677D01*
X131105366Y-136557886D01*
X131067867Y-136717575D01*
X131020980Y-136874344D01*
X130964911Y-137027792D01*
X130899869Y-137177519D01*
X130826063Y-137323125D01*
X130743701Y-137464210D01*
X130652990Y-137600372D01*
X130554138Y-137731212D01*
X130447355Y-137856330D01*
X130332848Y-137975324D01*
X130210825Y-138087795D01*
X130166670Y-138125304D01*
X130035182Y-138228103D01*
X129898399Y-138322309D01*
X129756663Y-138407783D01*
X129610318Y-138484383D01*
X129459706Y-138551969D01*
X129305171Y-138610401D01*
X129147056Y-138659538D01*
X128985704Y-138699239D01*
X128821458Y-138729364D01*
X128654661Y-138749773D01*
X128639063Y-138751169D01*
X128607448Y-138753360D01*
X128568116Y-138755222D01*
X128523180Y-138756730D01*
X128474752Y-138757855D01*
X128424945Y-138758573D01*
X128375872Y-138758856D01*
X128329645Y-138758679D01*
X128288377Y-138758015D01*
X128254181Y-138756838D01*
X128241537Y-138756126D01*
X128071905Y-138739981D01*
X127905221Y-138714247D01*
X127741751Y-138679038D01*
X127581759Y-138634468D01*
X127425510Y-138580651D01*
X127273270Y-138517702D01*
X127125304Y-138445735D01*
X126981876Y-138364864D01*
X126843251Y-138275204D01*
X126709695Y-138176868D01*
X126581473Y-138069970D01*
X126520112Y-138013975D01*
X126401722Y-137895806D01*
X126291322Y-137771510D01*
X126189084Y-137641449D01*
X126095181Y-137505987D01*
X126009786Y-137365485D01*
X125933072Y-137220308D01*
X125865213Y-137070819D01*
X125806380Y-136917380D01*
X125756747Y-136760355D01*
X125716487Y-136600107D01*
X125685773Y-136436999D01*
X125664778Y-136271393D01*
X125659327Y-136207107D01*
X125657078Y-136166182D01*
X125655649Y-136117723D01*
X125655001Y-136063680D01*
X125655097Y-136006004D01*
X125655688Y-135962219D01*
X127338709Y-135962219D01*
X127338930Y-136022806D01*
X127339643Y-136075194D01*
X127340997Y-136121337D01*
X127343139Y-136163188D01*
X127346219Y-136202702D01*
X127350384Y-136241834D01*
X127355782Y-136282537D01*
X127362562Y-136326766D01*
X127369526Y-136368619D01*
X127394164Y-136493706D01*
X127426015Y-136623723D01*
X127464487Y-136757094D01*
X127508989Y-136892245D01*
X127558928Y-137027599D01*
X127613712Y-137161583D01*
X127672750Y-137292622D01*
X127735448Y-137419140D01*
X127801216Y-137539562D01*
X127824981Y-137580199D01*
X127850693Y-137622089D01*
X127875235Y-137659009D01*
X127900301Y-137693102D01*
X127927582Y-137726516D01*
X127958770Y-137761394D01*
X127995557Y-137799883D01*
X128009080Y-137813607D01*
X128077382Y-137880002D01*
X128142875Y-137938278D01*
X128207023Y-137989533D01*
X128271288Y-138034866D01*
X128337135Y-138075375D01*
X128406026Y-138112159D01*
X128408468Y-138113371D01*
X128475708Y-138144570D01*
X128543366Y-138171530D01*
X128612661Y-138194513D01*
X128684815Y-138213780D01*
X128761051Y-138229592D01*
X128842589Y-138242210D01*
X128930650Y-138251894D01*
X129026457Y-138258907D01*
X129107144Y-138262682D01*
X129121311Y-138262004D01*
X129142017Y-138259544D01*
X129165885Y-138255744D01*
X129179189Y-138253234D01*
X129284969Y-138226908D01*
X129389070Y-138190663D01*
X129491583Y-138144459D01*
X129592602Y-138088255D01*
X129671558Y-138036654D01*
X129707791Y-138010382D01*
X129748699Y-137978987D01*
X129792848Y-137943703D01*
X129838807Y-137905765D01*
X129885142Y-137866406D01*
X129930420Y-137826860D01*
X129973208Y-137788362D01*
X130012073Y-137752146D01*
X130045583Y-137719445D01*
X130072200Y-137691608D01*
X130121921Y-137634510D01*
X130170869Y-137573772D01*
X130218185Y-137510711D01*
X130263011Y-137446641D01*
X130304489Y-137382878D01*
X130341759Y-137320739D01*
X130373963Y-137261539D01*
X130400242Y-137206593D01*
X130418390Y-137161099D01*
X130430009Y-137124622D01*
X130436512Y-137094859D01*
X130438134Y-137069885D01*
X130435109Y-137047777D01*
X130433072Y-137040594D01*
X130424742Y-137007122D01*
X130418017Y-136963789D01*
X130412888Y-136910521D01*
X130411400Y-136888419D01*
X130409757Y-136865224D01*
X130407934Y-136845766D01*
X130406170Y-136832293D01*
X130404891Y-136827218D01*
X130398828Y-136823030D01*
X130386304Y-136816755D01*
X130374056Y-136811433D01*
X130338034Y-136793744D01*
X130307893Y-136772050D01*
X130282898Y-136745272D01*
X130262315Y-136712335D01*
X130245410Y-136672160D01*
X130231449Y-136623672D01*
X130224574Y-136592139D01*
X130215952Y-136537923D01*
X130209715Y-136475238D01*
X130205846Y-136405486D01*
X130204331Y-136330070D01*
X130205153Y-136250392D01*
X130208297Y-136167856D01*
X130213747Y-136083863D01*
X130221487Y-135999817D01*
X130231501Y-135917120D01*
X130232234Y-135911796D01*
X130240526Y-135860560D01*
X130251694Y-135806462D01*
X130266142Y-135747820D01*
X130284279Y-135682951D01*
X130300350Y-135629833D01*
X130310844Y-135594535D01*
X130317592Y-135568162D01*
X130320699Y-135550237D01*
X130320473Y-135540933D01*
X130319835Y-135533756D01*
X130319116Y-135517278D01*
X130318333Y-135492361D01*
X130317505Y-135459865D01*
X130316650Y-135420647D01*
X130315786Y-135375570D01*
X130314930Y-135325492D01*
X130314101Y-135271274D01*
X130313317Y-135213775D01*
X130312867Y-135177359D01*
X130311942Y-135102805D01*
X130311021Y-135037375D01*
X130310052Y-134980033D01*
X130308986Y-134929741D01*
X130307771Y-134885464D01*
X130306357Y-134846167D01*
X130304694Y-134810811D01*
X130302729Y-134778361D01*
X130300413Y-134747782D01*
X130297696Y-134718036D01*
X130294525Y-134688087D01*
X130290852Y-134656900D01*
X130286624Y-134623437D01*
X130285258Y-134612934D01*
X130276293Y-134550472D01*
X130265480Y-134485121D01*
X130253506Y-134420711D01*
X130241059Y-134361070D01*
X130236044Y-134339159D01*
X130230037Y-134313679D01*
X130224702Y-134291017D01*
X130220562Y-134273404D01*
X130218143Y-134263074D01*
X130217942Y-134262212D01*
X130212357Y-134252535D01*
X130199613Y-134238079D01*
X130180902Y-134219851D01*
X130157416Y-134198859D01*
X130130348Y-134176109D01*
X130100890Y-134152610D01*
X130070234Y-134129369D01*
X130039572Y-134107393D01*
X130015743Y-134091337D01*
X129922506Y-134036500D01*
X129823209Y-133989604D01*
X129717728Y-133950604D01*
X129605942Y-133919454D01*
X129487728Y-133896112D01*
X129477263Y-133894468D01*
X129432640Y-133888933D01*
X129380389Y-133884672D01*
X129322966Y-133881728D01*
X129262827Y-133880147D01*
X129202430Y-133879975D01*
X129144232Y-133881255D01*
X129090689Y-133884033D01*
X129058163Y-133886803D01*
X128921148Y-133904815D01*
X128789732Y-133930187D01*
X128664217Y-133962802D01*
X128544908Y-134002546D01*
X128432105Y-134049301D01*
X128326113Y-134102953D01*
X128227234Y-134163386D01*
X128135771Y-134230483D01*
X128115150Y-134247404D01*
X128081961Y-134276423D01*
X128049569Y-134307367D01*
X128016478Y-134341809D01*
X127981192Y-134381317D01*
X127942215Y-134427463D01*
X127933360Y-134438219D01*
X127829749Y-134570671D01*
X127736222Y-134703126D01*
X127652701Y-134835736D01*
X127579111Y-134968655D01*
X127515376Y-135102037D01*
X127461420Y-135236037D01*
X127417167Y-135370806D01*
X127382540Y-135506500D01*
X127367182Y-135583759D01*
X127359705Y-135626903D01*
X127353630Y-135665500D01*
X127348818Y-135701391D01*
X127345130Y-135736416D01*
X127342428Y-135772416D01*
X127340573Y-135811230D01*
X127339428Y-135854701D01*
X127338852Y-135904668D01*
X127338709Y-135962219D01*
X125655688Y-135962219D01*
X125655899Y-135946643D01*
X125657369Y-135887550D01*
X125659467Y-135830674D01*
X125662157Y-135777966D01*
X125665399Y-135731376D01*
X125669157Y-135692854D01*
X125669425Y-135690619D01*
X125694899Y-135521087D01*
X125729571Y-135355865D01*
X125773472Y-135194877D01*
X125826635Y-135038051D01*
X125889092Y-134885313D01*
X125960873Y-134736589D01*
X126042012Y-134591805D01*
X126132540Y-134450887D01*
X126232489Y-134313761D01*
X126300000Y-134229657D01*
X126325097Y-134200673D01*
X126356303Y-134166503D01*
X126392097Y-134128667D01*
X126430959Y-134088686D01*
X126471366Y-134048082D01*
X126511798Y-134008377D01*
X126550733Y-133971090D01*
X126586651Y-133937744D01*
X126618029Y-133909859D01*
X126629641Y-133900016D01*
X126745969Y-133807702D01*
X126862978Y-133724014D01*
X126982829Y-133647525D01*
X127107679Y-133576809D01*
X127160783Y-133549169D01*
X127306044Y-133480456D01*
X127453296Y-133421015D01*
X127603388Y-133370589D01*
X127757167Y-133328923D01*
X127915483Y-133295762D01*
X128079185Y-133270850D01*
X128090603Y-133269441D01*
X128128517Y-133265650D01*
X128174630Y-133262372D01*
X128226991Y-133259644D01*
X128283649Y-133257505D01*
X128342655Y-133255993D01*
X128402058Y-133255145D01*
X128459908Y-133255001D01*
X128514254Y-133255597D01*
D11*
G36*
X96551000Y-138501000D02*
G01*
X95599000Y-138501000D01*
X95599000Y-136799000D01*
X96551000Y-136799000D01*
X96551000Y-138501000D01*
X96551000Y-138501000D01*
G37*
G36*
X102901000Y-138501000D02*
G01*
X101949000Y-138501000D01*
X101949000Y-136799000D01*
X102901000Y-136799000D01*
X102901000Y-138501000D01*
X102901000Y-138501000D01*
G37*
G36*
X104651000Y-138501000D02*
G01*
X103699000Y-138501000D01*
X103699000Y-136799000D01*
X104651000Y-136799000D01*
X104651000Y-138501000D01*
X104651000Y-138501000D01*
G37*
G36*
X100651000Y-138501000D02*
G01*
X99699000Y-138501000D01*
X99699000Y-136799000D01*
X100651000Y-136799000D01*
X100651000Y-138501000D01*
X100651000Y-138501000D01*
G37*
G36*
X94801000Y-138501000D02*
G01*
X93849000Y-138501000D01*
X93849000Y-136799000D01*
X94801000Y-136799000D01*
X94801000Y-138501000D01*
X94801000Y-138501000D01*
G37*
G36*
X98901000Y-138501000D02*
G01*
X97949000Y-138501000D01*
X97949000Y-136799000D01*
X98901000Y-136799000D01*
X98901000Y-138501000D01*
X98901000Y-138501000D01*
G37*
G36*
X139866000Y-138276000D02*
G01*
X137771952Y-138276000D01*
X137763387Y-138273402D01*
X137739001Y-138271000D01*
X137444000Y-138271000D01*
X137444000Y-135729000D01*
X137739001Y-135729000D01*
X137763387Y-135726598D01*
X137771952Y-135724000D01*
X139866000Y-135724000D01*
X139866000Y-138276000D01*
X139866000Y-138276000D01*
G37*
G36*
X141056000Y-138271000D02*
G01*
X140324000Y-138271000D01*
X140324000Y-135729000D01*
X141056000Y-135729000D01*
X141056000Y-138271000D01*
X141056000Y-138271000D01*
G37*
G36*
X108128657Y-134549733D02*
G01*
X108274438Y-134610118D01*
X108274439Y-134610119D01*
X108405640Y-134697784D01*
X108517216Y-134809360D01*
X108517217Y-134809362D01*
X108604882Y-134940562D01*
X108665267Y-135086343D01*
X108696050Y-135241102D01*
X108696050Y-135398898D01*
X108665267Y-135553657D01*
X108604882Y-135699438D01*
X108604881Y-135699439D01*
X108517216Y-135830640D01*
X108405640Y-135942216D01*
X108405637Y-135942218D01*
X108402903Y-135944952D01*
X108389912Y-135955614D01*
X108374367Y-135974556D01*
X108362816Y-135996167D01*
X108355703Y-136019616D01*
X108353301Y-136044002D01*
X108355703Y-136068388D01*
X108362816Y-136091837D01*
X108374367Y-136113447D01*
X108389913Y-136132389D01*
X108408855Y-136147934D01*
X108430466Y-136159485D01*
X108453915Y-136166598D01*
X108478300Y-136169000D01*
X110246000Y-136169000D01*
X110246000Y-138071000D01*
X108344000Y-138071000D01*
X108344000Y-136188143D01*
X108341598Y-136163757D01*
X108334485Y-136140308D01*
X108322934Y-136118697D01*
X108307389Y-136099755D01*
X108288447Y-136084210D01*
X108266836Y-136072659D01*
X108243387Y-136065546D01*
X108219001Y-136063144D01*
X108194615Y-136065546D01*
X108171164Y-136072659D01*
X108128658Y-136090266D01*
X108128657Y-136090266D01*
X108128655Y-136090267D01*
X107973898Y-136121050D01*
X107816102Y-136121050D01*
X107661343Y-136090267D01*
X107515562Y-136029882D01*
X107388455Y-135944952D01*
X107384360Y-135942216D01*
X107272784Y-135830640D01*
X107185119Y-135699439D01*
X107185118Y-135699438D01*
X107124733Y-135553657D01*
X107093950Y-135398898D01*
X107093950Y-135241102D01*
X107124733Y-135086343D01*
X107185118Y-134940562D01*
X107272783Y-134809362D01*
X107272784Y-134809360D01*
X107384360Y-134697784D01*
X107515561Y-134610119D01*
X107515562Y-134610118D01*
X107661343Y-134549733D01*
X107816102Y-134518950D01*
X107973898Y-134518950D01*
X108128657Y-134549733D01*
X108128657Y-134549733D01*
G37*
G36*
X112112395Y-136205546D02*
G01*
X112285466Y-136277234D01*
X112285467Y-136277235D01*
X112441227Y-136381310D01*
X112573690Y-136513773D01*
X112626081Y-136592182D01*
X112677766Y-136669534D01*
X112749454Y-136842605D01*
X112786000Y-137026333D01*
X112786000Y-137213667D01*
X112749454Y-137397395D01*
X112677766Y-137570466D01*
X112677765Y-137570467D01*
X112573690Y-137726227D01*
X112441227Y-137858690D01*
X112362818Y-137911081D01*
X112285466Y-137962766D01*
X112112395Y-138034454D01*
X111928667Y-138071000D01*
X111741333Y-138071000D01*
X111557605Y-138034454D01*
X111384534Y-137962766D01*
X111307182Y-137911081D01*
X111228773Y-137858690D01*
X111096310Y-137726227D01*
X110992235Y-137570467D01*
X110992234Y-137570466D01*
X110920546Y-137397395D01*
X110884000Y-137213667D01*
X110884000Y-137026333D01*
X110920546Y-136842605D01*
X110992234Y-136669534D01*
X111043919Y-136592182D01*
X111096310Y-136513773D01*
X111228773Y-136381310D01*
X111384533Y-136277235D01*
X111384534Y-136277234D01*
X111557605Y-136205546D01*
X111741333Y-136169000D01*
X111928667Y-136169000D01*
X112112395Y-136205546D01*
X112112395Y-136205546D01*
G37*
G36*
X151878600Y-138010200D02*
G01*
X150076600Y-138010200D01*
X150076600Y-136208200D01*
X151878600Y-136208200D01*
X151878600Y-138010200D01*
X151878600Y-138010200D01*
G37*
G36*
X122859670Y-135072189D02*
G01*
X123015734Y-135103232D01*
X123163850Y-135164584D01*
X123216102Y-135186227D01*
X123225203Y-135189997D01*
X123413720Y-135315960D01*
X123574040Y-135476280D01*
X123700003Y-135664797D01*
X123768697Y-135830638D01*
X123786768Y-135874267D01*
X123831000Y-136096635D01*
X123831000Y-136323365D01*
X123819474Y-136381309D01*
X123786768Y-136545734D01*
X123700003Y-136755203D01*
X123574040Y-136943720D01*
X123413720Y-137104040D01*
X123225203Y-137230003D01*
X123015734Y-137316768D01*
X122904549Y-137338884D01*
X122793365Y-137361000D01*
X122566635Y-137361000D01*
X122455451Y-137338884D01*
X122344266Y-137316768D01*
X122134797Y-137230003D01*
X121946280Y-137104040D01*
X121785960Y-136943720D01*
X121659997Y-136755203D01*
X121573232Y-136545734D01*
X121540526Y-136381309D01*
X121529000Y-136323365D01*
X121529000Y-136096635D01*
X121573232Y-135874267D01*
X121591304Y-135830638D01*
X121659997Y-135664797D01*
X121785960Y-135476280D01*
X121946280Y-135315960D01*
X122134797Y-135189997D01*
X122143899Y-135186227D01*
X122196150Y-135164584D01*
X122344266Y-135103232D01*
X122500330Y-135072189D01*
X122566635Y-135059000D01*
X122793365Y-135059000D01*
X122859670Y-135072189D01*
X122859670Y-135072189D01*
G37*
G36*
X113382395Y-133665546D02*
G01*
X113555466Y-133737234D01*
X113555467Y-133737235D01*
X113711227Y-133841310D01*
X113843690Y-133973773D01*
X113843691Y-133973775D01*
X113947766Y-134129534D01*
X114019454Y-134302605D01*
X114056000Y-134486333D01*
X114056000Y-134673667D01*
X114019454Y-134857395D01*
X113947766Y-135030466D01*
X113919886Y-135072191D01*
X113843690Y-135186227D01*
X113711227Y-135318690D01*
X113632818Y-135371081D01*
X113555466Y-135422766D01*
X113382395Y-135494454D01*
X113198667Y-135531000D01*
X113011333Y-135531000D01*
X112827605Y-135494454D01*
X112654534Y-135422766D01*
X112577182Y-135371081D01*
X112498773Y-135318690D01*
X112366310Y-135186227D01*
X112290114Y-135072191D01*
X112262234Y-135030466D01*
X112190546Y-134857395D01*
X112154000Y-134673667D01*
X112154000Y-134486333D01*
X112190546Y-134302605D01*
X112262234Y-134129534D01*
X112366309Y-133973775D01*
X112366310Y-133973773D01*
X112498773Y-133841310D01*
X112654533Y-133737235D01*
X112654534Y-133737234D01*
X112827605Y-133665546D01*
X113011333Y-133629000D01*
X113198667Y-133629000D01*
X113382395Y-133665546D01*
X113382395Y-133665546D01*
G37*
G36*
X110842395Y-133665546D02*
G01*
X111015466Y-133737234D01*
X111015467Y-133737235D01*
X111171227Y-133841310D01*
X111303690Y-133973773D01*
X111303691Y-133973775D01*
X111407766Y-134129534D01*
X111479454Y-134302605D01*
X111516000Y-134486333D01*
X111516000Y-134673667D01*
X111479454Y-134857395D01*
X111407766Y-135030466D01*
X111379886Y-135072191D01*
X111303690Y-135186227D01*
X111171227Y-135318690D01*
X111092818Y-135371081D01*
X111015466Y-135422766D01*
X110842395Y-135494454D01*
X110658667Y-135531000D01*
X110471333Y-135531000D01*
X110287605Y-135494454D01*
X110114534Y-135422766D01*
X110037182Y-135371081D01*
X109958773Y-135318690D01*
X109826310Y-135186227D01*
X109750114Y-135072191D01*
X109722234Y-135030466D01*
X109650546Y-134857395D01*
X109614000Y-134673667D01*
X109614000Y-134486333D01*
X109650546Y-134302605D01*
X109722234Y-134129534D01*
X109826309Y-133973775D01*
X109826310Y-133973773D01*
X109958773Y-133841310D01*
X110114533Y-133737235D01*
X110114534Y-133737234D01*
X110287605Y-133665546D01*
X110471333Y-133629000D01*
X110658667Y-133629000D01*
X110842395Y-133665546D01*
X110842395Y-133665546D01*
G37*
G36*
X145286613Y-132976598D02*
G01*
X145310999Y-132979000D01*
X145606000Y-132979000D01*
X145606000Y-135521000D01*
X145310999Y-135521000D01*
X145286613Y-135523402D01*
X145278048Y-135526000D01*
X143184000Y-135526000D01*
X143184000Y-132974000D01*
X145278048Y-132974000D01*
X145286613Y-132976598D01*
X145286613Y-132976598D01*
G37*
G36*
X142726000Y-135521000D02*
G01*
X141994000Y-135521000D01*
X141994000Y-132979000D01*
X142726000Y-132979000D01*
X142726000Y-135521000D01*
X142726000Y-135521000D01*
G37*
G36*
X151088042Y-133674718D02*
G01*
X151154227Y-133681237D01*
X151324066Y-133732757D01*
X151480591Y-133816422D01*
X151510916Y-133841309D01*
X151617786Y-133929014D01*
X151701048Y-134030471D01*
X151730378Y-134066209D01*
X151814043Y-134222734D01*
X151865563Y-134392573D01*
X151882959Y-134569200D01*
X151865563Y-134745827D01*
X151814043Y-134915666D01*
X151730378Y-135072191D01*
X151704903Y-135103232D01*
X151617786Y-135209386D01*
X151516329Y-135292648D01*
X151480591Y-135321978D01*
X151324066Y-135405643D01*
X151154227Y-135457163D01*
X151088042Y-135463682D01*
X151021860Y-135470200D01*
X150933340Y-135470200D01*
X150867158Y-135463682D01*
X150800973Y-135457163D01*
X150631134Y-135405643D01*
X150474609Y-135321978D01*
X150438871Y-135292648D01*
X150337414Y-135209386D01*
X150250297Y-135103232D01*
X150224822Y-135072191D01*
X150141157Y-134915666D01*
X150089637Y-134745827D01*
X150072241Y-134569200D01*
X150089637Y-134392573D01*
X150141157Y-134222734D01*
X150224822Y-134066209D01*
X150254152Y-134030471D01*
X150337414Y-133929014D01*
X150444284Y-133841309D01*
X150474609Y-133816422D01*
X150631134Y-133732757D01*
X150800973Y-133681237D01*
X150867158Y-133674718D01*
X150933340Y-133668200D01*
X151021860Y-133668200D01*
X151088042Y-133674718D01*
X151088042Y-133674718D01*
G37*
G36*
X98901000Y-135001000D02*
G01*
X97949000Y-135001000D01*
X97949000Y-133299000D01*
X98901000Y-133299000D01*
X98901000Y-135001000D01*
X98901000Y-135001000D01*
G37*
G36*
X104651000Y-135001000D02*
G01*
X103699000Y-135001000D01*
X103699000Y-133299000D01*
X104651000Y-133299000D01*
X104651000Y-135001000D01*
X104651000Y-135001000D01*
G37*
G36*
X100651000Y-135001000D02*
G01*
X99699000Y-135001000D01*
X99699000Y-133299000D01*
X100651000Y-133299000D01*
X100651000Y-135001000D01*
X100651000Y-135001000D01*
G37*
G36*
X94801000Y-135001000D02*
G01*
X93849000Y-135001000D01*
X93849000Y-133299000D01*
X94801000Y-133299000D01*
X94801000Y-135001000D01*
X94801000Y-135001000D01*
G37*
G36*
X102901000Y-135001000D02*
G01*
X101949000Y-135001000D01*
X101949000Y-133299000D01*
X102901000Y-133299000D01*
X102901000Y-135001000D01*
X102901000Y-135001000D01*
G37*
G36*
X96551000Y-135001000D02*
G01*
X95599000Y-135001000D01*
X95599000Y-133299000D01*
X96551000Y-133299000D01*
X96551000Y-135001000D01*
X96551000Y-135001000D01*
G37*
G36*
X119705997Y-130103051D02*
G01*
X119739652Y-130113261D01*
X119770665Y-130129838D01*
X119797851Y-130152149D01*
X119820162Y-130179335D01*
X119836739Y-130210348D01*
X119846949Y-130244003D01*
X119851000Y-130285138D01*
X119851000Y-133514862D01*
X119846949Y-133555997D01*
X119836739Y-133589652D01*
X119820162Y-133620665D01*
X119797851Y-133647851D01*
X119770665Y-133670162D01*
X119739652Y-133686739D01*
X119705997Y-133696949D01*
X119664862Y-133701000D01*
X118335138Y-133701000D01*
X118294003Y-133696949D01*
X118260348Y-133686739D01*
X118229335Y-133670162D01*
X118202149Y-133647851D01*
X118179838Y-133620665D01*
X118163261Y-133589652D01*
X118153051Y-133555997D01*
X118149000Y-133514862D01*
X118149000Y-130285138D01*
X118153051Y-130244003D01*
X118163261Y-130210348D01*
X118179838Y-130179335D01*
X118202149Y-130152149D01*
X118229335Y-130129838D01*
X118260348Y-130113261D01*
X118294003Y-130103051D01*
X118335138Y-130099000D01*
X119664862Y-130099000D01*
X119705997Y-130103051D01*
X119705997Y-130103051D01*
G37*
G36*
X151088042Y-131134718D02*
G01*
X151154227Y-131141237D01*
X151324066Y-131192757D01*
X151480591Y-131276422D01*
X151516329Y-131305752D01*
X151617786Y-131389014D01*
X151701048Y-131490471D01*
X151730378Y-131526209D01*
X151814043Y-131682734D01*
X151865563Y-131852573D01*
X151882959Y-132029200D01*
X151865563Y-132205827D01*
X151814043Y-132375666D01*
X151730378Y-132532191D01*
X151701048Y-132567929D01*
X151617786Y-132669386D01*
X151516329Y-132752648D01*
X151480591Y-132781978D01*
X151324066Y-132865643D01*
X151154227Y-132917163D01*
X151088042Y-132923682D01*
X151021860Y-132930200D01*
X150933340Y-132930200D01*
X150867158Y-132923682D01*
X150800973Y-132917163D01*
X150631134Y-132865643D01*
X150474609Y-132781978D01*
X150438871Y-132752648D01*
X150337414Y-132669386D01*
X150254152Y-132567929D01*
X150224822Y-132532191D01*
X150141157Y-132375666D01*
X150089637Y-132205827D01*
X150072241Y-132029200D01*
X150089637Y-131852573D01*
X150141157Y-131682734D01*
X150224822Y-131526209D01*
X150254152Y-131490471D01*
X150337414Y-131389014D01*
X150438871Y-131305752D01*
X150474609Y-131276422D01*
X150631134Y-131192757D01*
X150800973Y-131141237D01*
X150867158Y-131134718D01*
X150933340Y-131128200D01*
X151021860Y-131128200D01*
X151088042Y-131134718D01*
X151088042Y-131134718D01*
G37*
G36*
X128884468Y-131503565D02*
G01*
X128923138Y-131515296D01*
X128958777Y-131534346D01*
X128990017Y-131559983D01*
X129015654Y-131591223D01*
X129034704Y-131626862D01*
X129046435Y-131665532D01*
X129051000Y-131711888D01*
X129051000Y-132363112D01*
X129046435Y-132409468D01*
X129034704Y-132448138D01*
X129015654Y-132483777D01*
X128990017Y-132515017D01*
X128958777Y-132540654D01*
X128923138Y-132559704D01*
X128884468Y-132571435D01*
X128838112Y-132576000D01*
X127761888Y-132576000D01*
X127715532Y-132571435D01*
X127676862Y-132559704D01*
X127641223Y-132540654D01*
X127609983Y-132515017D01*
X127584346Y-132483777D01*
X127565296Y-132448138D01*
X127553565Y-132409468D01*
X127549000Y-132363112D01*
X127549000Y-131711888D01*
X127553565Y-131665532D01*
X127565296Y-131626862D01*
X127584346Y-131591223D01*
X127609983Y-131559983D01*
X127641223Y-131534346D01*
X127676862Y-131515296D01*
X127715532Y-131503565D01*
X127761888Y-131499000D01*
X128838112Y-131499000D01*
X128884468Y-131503565D01*
X128884468Y-131503565D01*
G37*
G36*
X126984468Y-131503565D02*
G01*
X127023138Y-131515296D01*
X127058777Y-131534346D01*
X127090017Y-131559983D01*
X127115654Y-131591223D01*
X127134704Y-131626862D01*
X127146435Y-131665532D01*
X127151000Y-131711888D01*
X127151000Y-132363112D01*
X127146435Y-132409468D01*
X127134704Y-132448138D01*
X127115654Y-132483777D01*
X127090017Y-132515017D01*
X127058777Y-132540654D01*
X127023138Y-132559704D01*
X126984468Y-132571435D01*
X126938112Y-132576000D01*
X125861888Y-132576000D01*
X125815532Y-132571435D01*
X125776862Y-132559704D01*
X125741223Y-132540654D01*
X125709983Y-132515017D01*
X125684346Y-132483777D01*
X125665296Y-132448138D01*
X125653565Y-132409468D01*
X125649000Y-132363112D01*
X125649000Y-131711888D01*
X125653565Y-131665532D01*
X125665296Y-131626862D01*
X125684346Y-131591223D01*
X125709983Y-131559983D01*
X125741223Y-131534346D01*
X125776862Y-131515296D01*
X125815532Y-131503565D01*
X125861888Y-131499000D01*
X126938112Y-131499000D01*
X126984468Y-131503565D01*
X126984468Y-131503565D01*
G37*
G36*
X125084468Y-131503565D02*
G01*
X125123138Y-131515296D01*
X125158777Y-131534346D01*
X125190017Y-131559983D01*
X125215654Y-131591223D01*
X125234704Y-131626862D01*
X125246435Y-131665532D01*
X125251000Y-131711888D01*
X125251000Y-132363112D01*
X125246435Y-132409468D01*
X125234704Y-132448138D01*
X125215654Y-132483777D01*
X125190017Y-132515017D01*
X125158777Y-132540654D01*
X125123138Y-132559704D01*
X125084468Y-132571435D01*
X125038112Y-132576000D01*
X123961888Y-132576000D01*
X123915532Y-132571435D01*
X123876862Y-132559704D01*
X123841223Y-132540654D01*
X123809983Y-132515017D01*
X123784346Y-132483777D01*
X123765296Y-132448138D01*
X123753565Y-132409468D01*
X123749000Y-132363112D01*
X123749000Y-131711888D01*
X123753565Y-131665532D01*
X123765296Y-131626862D01*
X123784346Y-131591223D01*
X123809983Y-131559983D01*
X123841223Y-131534346D01*
X123876862Y-131515296D01*
X123915532Y-131503565D01*
X123961888Y-131499000D01*
X125038112Y-131499000D01*
X125084468Y-131503565D01*
X125084468Y-131503565D01*
G37*
G36*
X130784468Y-131503565D02*
G01*
X130823138Y-131515296D01*
X130858777Y-131534346D01*
X130890017Y-131559983D01*
X130915654Y-131591223D01*
X130934704Y-131626862D01*
X130946435Y-131665532D01*
X130951000Y-131711888D01*
X130951000Y-132363112D01*
X130946435Y-132409468D01*
X130934704Y-132448138D01*
X130915654Y-132483777D01*
X130890017Y-132515017D01*
X130858777Y-132540654D01*
X130823138Y-132559704D01*
X130784468Y-132571435D01*
X130738112Y-132576000D01*
X129661888Y-132576000D01*
X129615532Y-132571435D01*
X129576862Y-132559704D01*
X129541223Y-132540654D01*
X129509983Y-132515017D01*
X129484346Y-132483777D01*
X129465296Y-132448138D01*
X129453565Y-132409468D01*
X129449000Y-132363112D01*
X129449000Y-131711888D01*
X129453565Y-131665532D01*
X129465296Y-131626862D01*
X129484346Y-131591223D01*
X129509983Y-131559983D01*
X129541223Y-131534346D01*
X129576862Y-131515296D01*
X129615532Y-131503565D01*
X129661888Y-131499000D01*
X130738112Y-131499000D01*
X130784468Y-131503565D01*
X130784468Y-131503565D01*
G37*
G36*
X134584468Y-131503565D02*
G01*
X134623138Y-131515296D01*
X134658777Y-131534346D01*
X134690017Y-131559983D01*
X134715654Y-131591223D01*
X134734704Y-131626862D01*
X134746435Y-131665532D01*
X134751000Y-131711888D01*
X134751000Y-132363112D01*
X134746435Y-132409468D01*
X134734704Y-132448138D01*
X134715654Y-132483777D01*
X134690017Y-132515017D01*
X134658777Y-132540654D01*
X134623138Y-132559704D01*
X134584468Y-132571435D01*
X134538112Y-132576000D01*
X133461888Y-132576000D01*
X133415532Y-132571435D01*
X133376862Y-132559704D01*
X133341223Y-132540654D01*
X133309983Y-132515017D01*
X133284346Y-132483777D01*
X133265296Y-132448138D01*
X133253565Y-132409468D01*
X133249000Y-132363112D01*
X133249000Y-131711888D01*
X133253565Y-131665532D01*
X133265296Y-131626862D01*
X133284346Y-131591223D01*
X133309983Y-131559983D01*
X133341223Y-131534346D01*
X133376862Y-131515296D01*
X133415532Y-131503565D01*
X133461888Y-131499000D01*
X134538112Y-131499000D01*
X134584468Y-131503565D01*
X134584468Y-131503565D01*
G37*
G36*
X132684468Y-131503565D02*
G01*
X132723138Y-131515296D01*
X132758777Y-131534346D01*
X132790017Y-131559983D01*
X132815654Y-131591223D01*
X132834704Y-131626862D01*
X132846435Y-131665532D01*
X132851000Y-131711888D01*
X132851000Y-132363112D01*
X132846435Y-132409468D01*
X132834704Y-132448138D01*
X132815654Y-132483777D01*
X132790017Y-132515017D01*
X132758777Y-132540654D01*
X132723138Y-132559704D01*
X132684468Y-132571435D01*
X132638112Y-132576000D01*
X131561888Y-132576000D01*
X131515532Y-132571435D01*
X131476862Y-132559704D01*
X131441223Y-132540654D01*
X131409983Y-132515017D01*
X131384346Y-132483777D01*
X131365296Y-132448138D01*
X131353565Y-132409468D01*
X131349000Y-132363112D01*
X131349000Y-131711888D01*
X131353565Y-131665532D01*
X131365296Y-131626862D01*
X131384346Y-131591223D01*
X131409983Y-131559983D01*
X131441223Y-131534346D01*
X131476862Y-131515296D01*
X131515532Y-131503565D01*
X131561888Y-131499000D01*
X132638112Y-131499000D01*
X132684468Y-131503565D01*
X132684468Y-131503565D01*
G37*
G36*
X136484468Y-131503565D02*
G01*
X136523138Y-131515296D01*
X136558777Y-131534346D01*
X136590017Y-131559983D01*
X136615654Y-131591223D01*
X136634704Y-131626862D01*
X136646435Y-131665532D01*
X136651000Y-131711888D01*
X136651000Y-132363112D01*
X136646435Y-132409468D01*
X136634704Y-132448138D01*
X136615654Y-132483777D01*
X136590017Y-132515017D01*
X136558777Y-132540654D01*
X136523138Y-132559704D01*
X136484468Y-132571435D01*
X136438112Y-132576000D01*
X135361888Y-132576000D01*
X135315532Y-132571435D01*
X135276862Y-132559704D01*
X135241223Y-132540654D01*
X135209983Y-132515017D01*
X135184346Y-132483777D01*
X135165296Y-132448138D01*
X135153565Y-132409468D01*
X135149000Y-132363112D01*
X135149000Y-131711888D01*
X135153565Y-131665532D01*
X135165296Y-131626862D01*
X135184346Y-131591223D01*
X135209983Y-131559983D01*
X135241223Y-131534346D01*
X135276862Y-131515296D01*
X135315532Y-131503565D01*
X135361888Y-131499000D01*
X136438112Y-131499000D01*
X136484468Y-131503565D01*
X136484468Y-131503565D01*
G37*
G36*
X139866000Y-132326000D02*
G01*
X137771952Y-132326000D01*
X137763387Y-132323402D01*
X137739001Y-132321000D01*
X137444000Y-132321000D01*
X137444000Y-129779000D01*
X137739001Y-129779000D01*
X137763387Y-129776598D01*
X137771952Y-129774000D01*
X139866000Y-129774000D01*
X139866000Y-132326000D01*
X139866000Y-132326000D01*
G37*
G36*
X141056000Y-132321000D02*
G01*
X140324000Y-132321000D01*
X140324000Y-129779000D01*
X141056000Y-129779000D01*
X141056000Y-132321000D01*
X141056000Y-132321000D01*
G37*
G36*
X99701000Y-131751000D02*
G01*
X93599000Y-131751000D01*
X93599000Y-129649000D01*
X99701000Y-129649000D01*
X99701000Y-131751000D01*
X99701000Y-131751000D01*
G37*
G36*
X107701000Y-131751000D02*
G01*
X104099000Y-131751000D01*
X104099000Y-129649000D01*
X107701000Y-129649000D01*
X107701000Y-131751000D01*
X107701000Y-131751000D01*
G37*
G36*
X126984468Y-129628565D02*
G01*
X127023138Y-129640296D01*
X127058777Y-129659346D01*
X127090017Y-129684983D01*
X127115654Y-129716223D01*
X127134704Y-129751862D01*
X127146435Y-129790532D01*
X127151000Y-129836888D01*
X127151000Y-130488112D01*
X127146435Y-130534468D01*
X127134704Y-130573138D01*
X127115654Y-130608777D01*
X127090017Y-130640017D01*
X127058777Y-130665654D01*
X127023138Y-130684704D01*
X126984468Y-130696435D01*
X126938112Y-130701000D01*
X125861888Y-130701000D01*
X125815532Y-130696435D01*
X125776862Y-130684704D01*
X125741223Y-130665654D01*
X125709983Y-130640017D01*
X125684346Y-130608777D01*
X125665296Y-130573138D01*
X125653565Y-130534468D01*
X125649000Y-130488112D01*
X125649000Y-129836888D01*
X125653565Y-129790532D01*
X125665296Y-129751862D01*
X125684346Y-129716223D01*
X125709983Y-129684983D01*
X125741223Y-129659346D01*
X125776862Y-129640296D01*
X125815532Y-129628565D01*
X125861888Y-129624000D01*
X126938112Y-129624000D01*
X126984468Y-129628565D01*
X126984468Y-129628565D01*
G37*
G36*
X132684468Y-129628565D02*
G01*
X132723138Y-129640296D01*
X132758777Y-129659346D01*
X132790017Y-129684983D01*
X132815654Y-129716223D01*
X132834704Y-129751862D01*
X132846435Y-129790532D01*
X132851000Y-129836888D01*
X132851000Y-130488112D01*
X132846435Y-130534468D01*
X132834704Y-130573138D01*
X132815654Y-130608777D01*
X132790017Y-130640017D01*
X132758777Y-130665654D01*
X132723138Y-130684704D01*
X132684468Y-130696435D01*
X132638112Y-130701000D01*
X131561888Y-130701000D01*
X131515532Y-130696435D01*
X131476862Y-130684704D01*
X131441223Y-130665654D01*
X131409983Y-130640017D01*
X131384346Y-130608777D01*
X131365296Y-130573138D01*
X131353565Y-130534468D01*
X131349000Y-130488112D01*
X131349000Y-129836888D01*
X131353565Y-129790532D01*
X131365296Y-129751862D01*
X131384346Y-129716223D01*
X131409983Y-129684983D01*
X131441223Y-129659346D01*
X131476862Y-129640296D01*
X131515532Y-129628565D01*
X131561888Y-129624000D01*
X132638112Y-129624000D01*
X132684468Y-129628565D01*
X132684468Y-129628565D01*
G37*
G36*
X134584468Y-129628565D02*
G01*
X134623138Y-129640296D01*
X134658777Y-129659346D01*
X134690017Y-129684983D01*
X134715654Y-129716223D01*
X134734704Y-129751862D01*
X134746435Y-129790532D01*
X134751000Y-129836888D01*
X134751000Y-130488112D01*
X134746435Y-130534468D01*
X134734704Y-130573138D01*
X134715654Y-130608777D01*
X134690017Y-130640017D01*
X134658777Y-130665654D01*
X134623138Y-130684704D01*
X134584468Y-130696435D01*
X134538112Y-130701000D01*
X133461888Y-130701000D01*
X133415532Y-130696435D01*
X133376862Y-130684704D01*
X133341223Y-130665654D01*
X133309983Y-130640017D01*
X133284346Y-130608777D01*
X133265296Y-130573138D01*
X133253565Y-130534468D01*
X133249000Y-130488112D01*
X133249000Y-129836888D01*
X133253565Y-129790532D01*
X133265296Y-129751862D01*
X133284346Y-129716223D01*
X133309983Y-129684983D01*
X133341223Y-129659346D01*
X133376862Y-129640296D01*
X133415532Y-129628565D01*
X133461888Y-129624000D01*
X134538112Y-129624000D01*
X134584468Y-129628565D01*
X134584468Y-129628565D01*
G37*
G36*
X128884468Y-129628565D02*
G01*
X128923138Y-129640296D01*
X128958777Y-129659346D01*
X128990017Y-129684983D01*
X129015654Y-129716223D01*
X129034704Y-129751862D01*
X129046435Y-129790532D01*
X129051000Y-129836888D01*
X129051000Y-130488112D01*
X129046435Y-130534468D01*
X129034704Y-130573138D01*
X129015654Y-130608777D01*
X128990017Y-130640017D01*
X128958777Y-130665654D01*
X128923138Y-130684704D01*
X128884468Y-130696435D01*
X128838112Y-130701000D01*
X127761888Y-130701000D01*
X127715532Y-130696435D01*
X127676862Y-130684704D01*
X127641223Y-130665654D01*
X127609983Y-130640017D01*
X127584346Y-130608777D01*
X127565296Y-130573138D01*
X127553565Y-130534468D01*
X127549000Y-130488112D01*
X127549000Y-129836888D01*
X127553565Y-129790532D01*
X127565296Y-129751862D01*
X127584346Y-129716223D01*
X127609983Y-129684983D01*
X127641223Y-129659346D01*
X127676862Y-129640296D01*
X127715532Y-129628565D01*
X127761888Y-129624000D01*
X128838112Y-129624000D01*
X128884468Y-129628565D01*
X128884468Y-129628565D01*
G37*
G36*
X130784468Y-129628565D02*
G01*
X130823138Y-129640296D01*
X130858777Y-129659346D01*
X130890017Y-129684983D01*
X130915654Y-129716223D01*
X130934704Y-129751862D01*
X130946435Y-129790532D01*
X130951000Y-129836888D01*
X130951000Y-130488112D01*
X130946435Y-130534468D01*
X130934704Y-130573138D01*
X130915654Y-130608777D01*
X130890017Y-130640017D01*
X130858777Y-130665654D01*
X130823138Y-130684704D01*
X130784468Y-130696435D01*
X130738112Y-130701000D01*
X129661888Y-130701000D01*
X129615532Y-130696435D01*
X129576862Y-130684704D01*
X129541223Y-130665654D01*
X129509983Y-130640017D01*
X129484346Y-130608777D01*
X129465296Y-130573138D01*
X129453565Y-130534468D01*
X129449000Y-130488112D01*
X129449000Y-129836888D01*
X129453565Y-129790532D01*
X129465296Y-129751862D01*
X129484346Y-129716223D01*
X129509983Y-129684983D01*
X129541223Y-129659346D01*
X129576862Y-129640296D01*
X129615532Y-129628565D01*
X129661888Y-129624000D01*
X130738112Y-129624000D01*
X130784468Y-129628565D01*
X130784468Y-129628565D01*
G37*
G36*
X125084468Y-129628565D02*
G01*
X125123138Y-129640296D01*
X125158777Y-129659346D01*
X125190017Y-129684983D01*
X125215654Y-129716223D01*
X125234704Y-129751862D01*
X125246435Y-129790532D01*
X125251000Y-129836888D01*
X125251000Y-130488112D01*
X125246435Y-130534468D01*
X125234704Y-130573138D01*
X125215654Y-130608777D01*
X125190017Y-130640017D01*
X125158777Y-130665654D01*
X125123138Y-130684704D01*
X125084468Y-130696435D01*
X125038112Y-130701000D01*
X123961888Y-130701000D01*
X123915532Y-130696435D01*
X123876862Y-130684704D01*
X123841223Y-130665654D01*
X123809983Y-130640017D01*
X123784346Y-130608777D01*
X123765296Y-130573138D01*
X123753565Y-130534468D01*
X123749000Y-130488112D01*
X123749000Y-129836888D01*
X123753565Y-129790532D01*
X123765296Y-129751862D01*
X123784346Y-129716223D01*
X123809983Y-129684983D01*
X123841223Y-129659346D01*
X123876862Y-129640296D01*
X123915532Y-129628565D01*
X123961888Y-129624000D01*
X125038112Y-129624000D01*
X125084468Y-129628565D01*
X125084468Y-129628565D01*
G37*
G36*
X136484468Y-129628565D02*
G01*
X136523138Y-129640296D01*
X136558777Y-129659346D01*
X136590017Y-129684983D01*
X136615654Y-129716223D01*
X136634704Y-129751862D01*
X136646435Y-129790532D01*
X136651000Y-129836888D01*
X136651000Y-130488112D01*
X136646435Y-130534468D01*
X136634704Y-130573138D01*
X136615654Y-130608777D01*
X136590017Y-130640017D01*
X136558777Y-130665654D01*
X136523138Y-130684704D01*
X136484468Y-130696435D01*
X136438112Y-130701000D01*
X135361888Y-130701000D01*
X135315532Y-130696435D01*
X135276862Y-130684704D01*
X135241223Y-130665654D01*
X135209983Y-130640017D01*
X135184346Y-130608777D01*
X135165296Y-130573138D01*
X135153565Y-130534468D01*
X135149000Y-130488112D01*
X135149000Y-129836888D01*
X135153565Y-129790532D01*
X135165296Y-129751862D01*
X135184346Y-129716223D01*
X135209983Y-129684983D01*
X135241223Y-129659346D01*
X135276862Y-129640296D01*
X135315532Y-129628565D01*
X135361888Y-129624000D01*
X136438112Y-129624000D01*
X136484468Y-129628565D01*
X136484468Y-129628565D01*
G37*
G36*
X151088043Y-128594719D02*
G01*
X151154227Y-128601237D01*
X151324066Y-128652757D01*
X151480591Y-128736422D01*
X151516329Y-128765752D01*
X151617786Y-128849014D01*
X151675221Y-128919000D01*
X151730378Y-128986209D01*
X151814043Y-129142734D01*
X151865563Y-129312573D01*
X151882959Y-129489200D01*
X151865563Y-129665827D01*
X151832749Y-129774000D01*
X151814042Y-129835668D01*
X151783263Y-129893250D01*
X151730378Y-129992191D01*
X151701048Y-130027929D01*
X151617786Y-130129386D01*
X151519132Y-130210348D01*
X151480591Y-130241978D01*
X151324066Y-130325643D01*
X151154227Y-130377163D01*
X151088042Y-130383682D01*
X151021860Y-130390200D01*
X150933340Y-130390200D01*
X150867158Y-130383682D01*
X150800973Y-130377163D01*
X150631134Y-130325643D01*
X150474609Y-130241978D01*
X150436068Y-130210348D01*
X150337414Y-130129386D01*
X150254152Y-130027929D01*
X150224822Y-129992191D01*
X150171937Y-129893250D01*
X150141158Y-129835668D01*
X150122451Y-129774000D01*
X150089637Y-129665827D01*
X150072241Y-129489200D01*
X150089637Y-129312573D01*
X150141157Y-129142734D01*
X150224822Y-128986209D01*
X150279979Y-128919000D01*
X150337414Y-128849014D01*
X150438871Y-128765752D01*
X150474609Y-128736422D01*
X150631134Y-128652757D01*
X150800973Y-128601237D01*
X150867157Y-128594719D01*
X150933340Y-128588200D01*
X151021860Y-128588200D01*
X151088043Y-128594719D01*
X151088043Y-128594719D01*
G37*
G36*
X145286613Y-126976598D02*
G01*
X145310999Y-126979000D01*
X145606000Y-126979000D01*
X145606000Y-129521000D01*
X145310999Y-129521000D01*
X145286613Y-129523402D01*
X145278048Y-129526000D01*
X143184000Y-129526000D01*
X143184000Y-126974000D01*
X145278048Y-126974000D01*
X145286613Y-126976598D01*
X145286613Y-126976598D01*
G37*
G36*
X142726000Y-129521000D02*
G01*
X141994000Y-129521000D01*
X141994000Y-126979000D01*
X142726000Y-126979000D01*
X142726000Y-129521000D01*
X142726000Y-129521000D01*
G37*
G36*
X119705997Y-124703051D02*
G01*
X119739652Y-124713261D01*
X119770665Y-124729838D01*
X119797851Y-124752149D01*
X119820162Y-124779335D01*
X119836739Y-124810348D01*
X119846949Y-124844003D01*
X119851000Y-124885138D01*
X119851000Y-128114862D01*
X119846949Y-128155997D01*
X119836739Y-128189652D01*
X119820162Y-128220665D01*
X119797851Y-128247851D01*
X119770665Y-128270162D01*
X119739652Y-128286739D01*
X119705997Y-128296949D01*
X119664862Y-128301000D01*
X118335138Y-128301000D01*
X118294003Y-128296949D01*
X118260348Y-128286739D01*
X118229335Y-128270162D01*
X118202149Y-128247851D01*
X118179838Y-128220665D01*
X118163261Y-128189652D01*
X118153051Y-128155997D01*
X118149000Y-128114862D01*
X118149000Y-124885138D01*
X118153051Y-124844003D01*
X118163261Y-124810348D01*
X118179838Y-124779335D01*
X118202149Y-124752149D01*
X118229335Y-124729838D01*
X118260348Y-124713261D01*
X118294003Y-124703051D01*
X118335138Y-124699000D01*
X119664862Y-124699000D01*
X119705997Y-124703051D01*
X119705997Y-124703051D01*
G37*
G36*
X115065999Y-128251000D02*
G01*
X112563999Y-128251000D01*
X112563999Y-124669000D01*
X115065999Y-124669000D01*
X115065999Y-128251000D01*
X115065999Y-128251000D01*
G37*
G36*
X111515999Y-128251000D02*
G01*
X109013999Y-128251000D01*
X109013999Y-124669000D01*
X111515999Y-124669000D01*
X111515999Y-128251000D01*
X111515999Y-128251000D01*
G37*
G36*
X151088042Y-126054718D02*
G01*
X151154227Y-126061237D01*
X151324066Y-126112757D01*
X151480591Y-126196422D01*
X151516329Y-126225752D01*
X151617786Y-126309014D01*
X151701048Y-126410471D01*
X151730378Y-126446209D01*
X151814043Y-126602734D01*
X151865563Y-126772573D01*
X151882959Y-126949200D01*
X151865563Y-127125827D01*
X151814043Y-127295666D01*
X151730378Y-127452191D01*
X151701048Y-127487929D01*
X151617786Y-127589386D01*
X151516329Y-127672648D01*
X151480591Y-127701978D01*
X151324066Y-127785643D01*
X151154227Y-127837163D01*
X151088042Y-127843682D01*
X151021860Y-127850200D01*
X150933340Y-127850200D01*
X150867158Y-127843682D01*
X150800973Y-127837163D01*
X150631134Y-127785643D01*
X150474609Y-127701978D01*
X150438871Y-127672648D01*
X150337414Y-127589386D01*
X150254152Y-127487929D01*
X150224822Y-127452191D01*
X150141157Y-127295666D01*
X150089637Y-127125827D01*
X150072241Y-126949200D01*
X150089637Y-126772573D01*
X150141157Y-126602734D01*
X150224822Y-126446209D01*
X150254152Y-126410471D01*
X150337414Y-126309014D01*
X150438871Y-126225752D01*
X150474609Y-126196422D01*
X150631134Y-126112757D01*
X150800973Y-126061237D01*
X150867158Y-126054718D01*
X150933340Y-126048200D01*
X151021860Y-126048200D01*
X151088042Y-126054718D01*
X151088042Y-126054718D01*
G37*
G36*
X107701000Y-127751000D02*
G01*
X104099000Y-127751000D01*
X104099000Y-125649000D01*
X107701000Y-125649000D01*
X107701000Y-127751000D01*
X107701000Y-127751000D01*
G37*
G36*
X99701000Y-127751000D02*
G01*
X93599000Y-127751000D01*
X93599000Y-125649000D01*
X99701000Y-125649000D01*
X99701000Y-127751000D01*
X99701000Y-127751000D01*
G37*
G36*
X139866000Y-126331000D02*
G01*
X137771952Y-126331000D01*
X137763387Y-126328402D01*
X137739001Y-126326000D01*
X137444000Y-126326000D01*
X137444000Y-123784000D01*
X137739001Y-123784000D01*
X137763387Y-123781598D01*
X137771952Y-123779000D01*
X139866000Y-123779000D01*
X139866000Y-126331000D01*
X139866000Y-126331000D01*
G37*
G36*
X141056000Y-126326000D02*
G01*
X140324000Y-126326000D01*
X140324000Y-123784000D01*
X141056000Y-123784000D01*
X141056000Y-126326000D01*
X141056000Y-126326000D01*
G37*
G36*
X151088042Y-123514718D02*
G01*
X151154227Y-123521237D01*
X151324066Y-123572757D01*
X151324068Y-123572758D01*
X151373378Y-123599115D01*
X151480591Y-123656422D01*
X151499179Y-123671677D01*
X151617786Y-123769014D01*
X151701048Y-123870471D01*
X151730378Y-123906209D01*
X151814043Y-124062734D01*
X151865563Y-124232573D01*
X151882959Y-124409200D01*
X151865563Y-124585827D01*
X151814043Y-124755666D01*
X151730378Y-124912191D01*
X151701048Y-124947929D01*
X151617786Y-125049386D01*
X151516329Y-125132648D01*
X151480591Y-125161978D01*
X151324066Y-125245643D01*
X151154227Y-125297163D01*
X151088043Y-125303681D01*
X151021860Y-125310200D01*
X150933340Y-125310200D01*
X150867157Y-125303681D01*
X150800973Y-125297163D01*
X150631134Y-125245643D01*
X150474609Y-125161978D01*
X150438871Y-125132648D01*
X150337414Y-125049386D01*
X150254152Y-124947929D01*
X150224822Y-124912191D01*
X150141157Y-124755666D01*
X150089637Y-124585827D01*
X150072241Y-124409200D01*
X150089637Y-124232573D01*
X150141157Y-124062734D01*
X150224822Y-123906209D01*
X150254152Y-123870471D01*
X150337414Y-123769014D01*
X150456021Y-123671677D01*
X150474609Y-123656422D01*
X150581822Y-123599115D01*
X150631132Y-123572758D01*
X150631134Y-123572757D01*
X150800973Y-123521237D01*
X150867158Y-123514718D01*
X150933340Y-123508200D01*
X151021860Y-123508200D01*
X151088042Y-123514718D01*
X151088042Y-123514718D01*
G37*
G36*
X105619999Y-122668445D02*
G01*
X105657495Y-122679820D01*
X105692054Y-122698292D01*
X105722347Y-122723153D01*
X105747208Y-122753446D01*
X105765680Y-122788005D01*
X105777055Y-122825501D01*
X105781500Y-122870638D01*
X105781500Y-123509362D01*
X105777055Y-123554499D01*
X105765680Y-123591995D01*
X105747209Y-123626553D01*
X105722347Y-123656847D01*
X105692054Y-123681708D01*
X105657495Y-123700180D01*
X105619999Y-123711555D01*
X105574862Y-123716000D01*
X104836138Y-123716000D01*
X104791001Y-123711555D01*
X104753505Y-123700180D01*
X104718946Y-123681708D01*
X104688653Y-123656847D01*
X104663791Y-123626553D01*
X104645320Y-123591995D01*
X104633945Y-123554499D01*
X104629500Y-123509362D01*
X104629500Y-122870638D01*
X104633945Y-122825501D01*
X104645320Y-122788005D01*
X104663792Y-122753446D01*
X104688653Y-122723153D01*
X104718946Y-122698292D01*
X104753505Y-122679820D01*
X104791001Y-122668445D01*
X104836138Y-122664000D01*
X105574862Y-122664000D01*
X105619999Y-122668445D01*
X105619999Y-122668445D01*
G37*
G36*
X103869999Y-122668445D02*
G01*
X103907495Y-122679820D01*
X103942054Y-122698292D01*
X103972347Y-122723153D01*
X103997208Y-122753446D01*
X104015680Y-122788005D01*
X104027055Y-122825501D01*
X104031500Y-122870638D01*
X104031500Y-123509362D01*
X104027055Y-123554499D01*
X104015680Y-123591995D01*
X103997209Y-123626553D01*
X103972347Y-123656847D01*
X103942054Y-123681708D01*
X103907495Y-123700180D01*
X103869999Y-123711555D01*
X103824862Y-123716000D01*
X103086138Y-123716000D01*
X103041001Y-123711555D01*
X103003505Y-123700180D01*
X102968946Y-123681708D01*
X102938653Y-123656847D01*
X102913791Y-123626553D01*
X102895320Y-123591995D01*
X102883945Y-123554499D01*
X102879500Y-123509362D01*
X102879500Y-122870638D01*
X102883945Y-122825501D01*
X102895320Y-122788005D01*
X102913792Y-122753446D01*
X102938653Y-122723153D01*
X102968946Y-122698292D01*
X103003505Y-122679820D01*
X103041001Y-122668445D01*
X103086138Y-122664000D01*
X103824862Y-122664000D01*
X103869999Y-122668445D01*
X103869999Y-122668445D01*
G37*
G36*
X145286613Y-121026598D02*
G01*
X145310999Y-121029000D01*
X145606000Y-121029000D01*
X145606000Y-123571000D01*
X145310999Y-123571000D01*
X145286613Y-123573402D01*
X145278048Y-123576000D01*
X143184000Y-123576000D01*
X143184000Y-121024000D01*
X145278048Y-121024000D01*
X145286613Y-121026598D01*
X145286613Y-121026598D01*
G37*
G36*
X142726000Y-123571000D02*
G01*
X141994000Y-123571000D01*
X141994000Y-121029000D01*
X142726000Y-121029000D01*
X142726000Y-123571000D01*
X142726000Y-123571000D01*
G37*
G36*
X102151438Y-122758216D02*
G01*
X102172057Y-122764471D01*
X102191053Y-122774624D01*
X102207708Y-122788292D01*
X102221376Y-122804947D01*
X102231529Y-122823943D01*
X102237784Y-122844562D01*
X102240500Y-122872140D01*
X102240500Y-123380860D01*
X102237784Y-123408438D01*
X102231529Y-123429057D01*
X102221376Y-123448053D01*
X102207708Y-123464708D01*
X102191053Y-123478376D01*
X102172057Y-123488529D01*
X102151438Y-123494784D01*
X102123860Y-123497500D01*
X101665140Y-123497500D01*
X101637562Y-123494784D01*
X101616943Y-123488529D01*
X101597947Y-123478376D01*
X101581292Y-123464708D01*
X101567624Y-123448053D01*
X101557471Y-123429057D01*
X101551216Y-123408438D01*
X101548500Y-123380860D01*
X101548500Y-122872140D01*
X101551216Y-122844562D01*
X101557471Y-122823943D01*
X101567624Y-122804947D01*
X101581292Y-122788292D01*
X101597947Y-122774624D01*
X101616943Y-122764471D01*
X101637562Y-122758216D01*
X101665140Y-122755500D01*
X102123860Y-122755500D01*
X102151438Y-122758216D01*
X102151438Y-122758216D01*
G37*
G36*
X101181438Y-122758216D02*
G01*
X101202057Y-122764471D01*
X101221053Y-122774624D01*
X101237708Y-122788292D01*
X101251376Y-122804947D01*
X101261529Y-122823943D01*
X101267784Y-122844562D01*
X101270500Y-122872140D01*
X101270500Y-123380860D01*
X101267784Y-123408438D01*
X101261529Y-123429057D01*
X101251376Y-123448053D01*
X101237708Y-123464708D01*
X101221053Y-123478376D01*
X101202057Y-123488529D01*
X101181438Y-123494784D01*
X101153860Y-123497500D01*
X100695140Y-123497500D01*
X100667562Y-123494784D01*
X100646943Y-123488529D01*
X100627947Y-123478376D01*
X100611292Y-123464708D01*
X100597624Y-123448053D01*
X100587471Y-123429057D01*
X100581216Y-123408438D01*
X100578500Y-123380860D01*
X100578500Y-122872140D01*
X100581216Y-122844562D01*
X100587471Y-122823943D01*
X100597624Y-122804947D01*
X100611292Y-122788292D01*
X100627947Y-122774624D01*
X100646943Y-122764471D01*
X100667562Y-122758216D01*
X100695140Y-122755500D01*
X101153860Y-122755500D01*
X101181438Y-122758216D01*
X101181438Y-122758216D01*
G37*
G36*
X123852938Y-122569716D02*
G01*
X123873557Y-122575971D01*
X123892553Y-122586124D01*
X123909208Y-122599792D01*
X123922876Y-122616447D01*
X123933029Y-122635443D01*
X123939284Y-122656062D01*
X123942000Y-122683640D01*
X123942000Y-123142360D01*
X123939284Y-123169938D01*
X123933029Y-123190557D01*
X123922876Y-123209553D01*
X123909208Y-123226208D01*
X123892553Y-123239876D01*
X123873557Y-123250029D01*
X123852938Y-123256284D01*
X123825360Y-123259000D01*
X123316640Y-123259000D01*
X123289062Y-123256284D01*
X123268443Y-123250029D01*
X123249447Y-123239876D01*
X123232792Y-123226208D01*
X123219124Y-123209553D01*
X123208971Y-123190557D01*
X123202716Y-123169938D01*
X123200000Y-123142360D01*
X123200000Y-122683640D01*
X123202716Y-122656062D01*
X123208971Y-122635443D01*
X123219124Y-122616447D01*
X123232792Y-122599792D01*
X123249447Y-122586124D01*
X123268443Y-122575971D01*
X123289062Y-122569716D01*
X123316640Y-122567000D01*
X123825360Y-122567000D01*
X123852938Y-122569716D01*
X123852938Y-122569716D01*
G37*
G36*
X95626742Y-121842904D02*
G01*
X95663837Y-121854157D01*
X95698015Y-121872425D01*
X95727981Y-121897019D01*
X95752575Y-121926985D01*
X95770843Y-121961163D01*
X95782096Y-121998258D01*
X95786500Y-122042974D01*
X95786500Y-122936026D01*
X95782096Y-122980742D01*
X95770843Y-123017837D01*
X95752575Y-123052015D01*
X95727981Y-123081981D01*
X95698015Y-123106575D01*
X95663837Y-123124843D01*
X95626742Y-123136096D01*
X95582026Y-123140500D01*
X94088974Y-123140500D01*
X94044258Y-123136096D01*
X94007163Y-123124843D01*
X93972985Y-123106575D01*
X93943019Y-123081981D01*
X93918425Y-123052015D01*
X93900157Y-123017837D01*
X93888904Y-122980742D01*
X93884500Y-122936026D01*
X93884500Y-122042974D01*
X93888904Y-121998258D01*
X93900157Y-121961163D01*
X93918425Y-121926985D01*
X93943019Y-121897019D01*
X93972985Y-121872425D01*
X94007163Y-121854157D01*
X94044258Y-121842904D01*
X94088974Y-121838500D01*
X95582026Y-121838500D01*
X95626742Y-121842904D01*
X95626742Y-121842904D01*
G37*
G36*
X151088043Y-120974719D02*
G01*
X151154227Y-120981237D01*
X151324066Y-121032757D01*
X151480591Y-121116422D01*
X151494529Y-121127861D01*
X151617786Y-121229014D01*
X151691019Y-121318250D01*
X151730378Y-121366209D01*
X151749425Y-121401844D01*
X151813091Y-121520952D01*
X151814043Y-121522734D01*
X151865563Y-121692573D01*
X151882959Y-121869200D01*
X151865563Y-122045827D01*
X151814043Y-122215666D01*
X151730378Y-122372191D01*
X151701048Y-122407929D01*
X151617786Y-122509386D01*
X151531535Y-122580169D01*
X151480591Y-122621978D01*
X151480589Y-122621979D01*
X151364520Y-122684020D01*
X151324066Y-122705643D01*
X151154227Y-122757163D01*
X151088043Y-122763681D01*
X151021860Y-122770200D01*
X150933340Y-122770200D01*
X150867157Y-122763681D01*
X150800973Y-122757163D01*
X150631134Y-122705643D01*
X150590681Y-122684020D01*
X150474611Y-122621979D01*
X150474609Y-122621978D01*
X150423665Y-122580169D01*
X150337414Y-122509386D01*
X150254152Y-122407929D01*
X150224822Y-122372191D01*
X150141157Y-122215666D01*
X150089637Y-122045827D01*
X150072241Y-121869200D01*
X150089637Y-121692573D01*
X150141157Y-121522734D01*
X150142110Y-121520952D01*
X150205775Y-121401844D01*
X150224822Y-121366209D01*
X150264181Y-121318250D01*
X150337414Y-121229014D01*
X150460671Y-121127861D01*
X150474609Y-121116422D01*
X150631134Y-121032757D01*
X150800973Y-120981237D01*
X150867157Y-120974719D01*
X150933340Y-120968200D01*
X151021860Y-120968200D01*
X151088043Y-120974719D01*
X151088043Y-120974719D01*
G37*
G36*
X123852938Y-121599716D02*
G01*
X123873557Y-121605971D01*
X123892553Y-121616124D01*
X123909208Y-121629792D01*
X123922876Y-121646447D01*
X123933029Y-121665443D01*
X123939284Y-121686062D01*
X123942000Y-121713640D01*
X123942000Y-122172360D01*
X123939284Y-122199938D01*
X123933029Y-122220557D01*
X123922876Y-122239553D01*
X123909208Y-122256208D01*
X123892553Y-122269876D01*
X123873557Y-122280029D01*
X123852938Y-122286284D01*
X123825360Y-122289000D01*
X123316640Y-122289000D01*
X123289062Y-122286284D01*
X123268443Y-122280029D01*
X123249447Y-122269876D01*
X123232792Y-122256208D01*
X123219124Y-122239553D01*
X123208971Y-122220557D01*
X123202716Y-122199938D01*
X123200000Y-122172360D01*
X123200000Y-121713640D01*
X123202716Y-121686062D01*
X123208971Y-121665443D01*
X123219124Y-121646447D01*
X123232792Y-121629792D01*
X123249447Y-121616124D01*
X123268443Y-121605971D01*
X123289062Y-121599716D01*
X123316640Y-121597000D01*
X123825360Y-121597000D01*
X123852938Y-121599716D01*
X123852938Y-121599716D01*
G37*
G36*
X119329468Y-121053565D02*
G01*
X119368138Y-121065296D01*
X119403777Y-121084346D01*
X119435017Y-121109983D01*
X119460654Y-121141223D01*
X119479704Y-121176862D01*
X119491435Y-121215532D01*
X119496000Y-121261888D01*
X119496000Y-121913112D01*
X119491435Y-121959468D01*
X119479704Y-121998138D01*
X119460654Y-122033777D01*
X119435017Y-122065017D01*
X119403777Y-122090654D01*
X119368138Y-122109704D01*
X119329468Y-122121435D01*
X119283112Y-122126000D01*
X118206888Y-122126000D01*
X118160532Y-122121435D01*
X118121862Y-122109704D01*
X118086223Y-122090654D01*
X118054983Y-122065017D01*
X118029346Y-122033777D01*
X118010296Y-121998138D01*
X117998565Y-121959468D01*
X117994000Y-121913112D01*
X117994000Y-121261888D01*
X117998565Y-121215532D01*
X118010296Y-121176862D01*
X118029346Y-121141223D01*
X118054983Y-121109983D01*
X118086223Y-121084346D01*
X118121862Y-121065296D01*
X118160532Y-121053565D01*
X118206888Y-121049000D01*
X119283112Y-121049000D01*
X119329468Y-121053565D01*
X119329468Y-121053565D01*
G37*
G36*
X115340999Y-121641000D02*
G01*
X108738999Y-121641000D01*
X108738999Y-119939000D01*
X115340999Y-119939000D01*
X115340999Y-121641000D01*
X115340999Y-121641000D01*
G37*
G36*
X99445428Y-120841264D02*
G01*
X99466509Y-120847660D01*
X99485945Y-120858048D01*
X99502976Y-120872024D01*
X99516952Y-120889055D01*
X99527340Y-120908491D01*
X99533736Y-120929572D01*
X99536500Y-120957640D01*
X99536500Y-121421360D01*
X99533736Y-121449428D01*
X99527340Y-121470509D01*
X99516952Y-121489945D01*
X99502976Y-121506976D01*
X99485945Y-121520952D01*
X99466509Y-121531340D01*
X99445428Y-121537736D01*
X99417360Y-121540500D01*
X98003640Y-121540500D01*
X97975572Y-121537736D01*
X97954491Y-121531340D01*
X97935055Y-121520952D01*
X97918024Y-121506976D01*
X97904048Y-121489945D01*
X97893660Y-121470509D01*
X97887264Y-121449428D01*
X97884500Y-121421360D01*
X97884500Y-120957640D01*
X97887264Y-120929572D01*
X97893660Y-120908491D01*
X97904048Y-120889055D01*
X97918024Y-120872024D01*
X97935055Y-120858048D01*
X97954491Y-120847660D01*
X97975572Y-120841264D01*
X98003640Y-120838500D01*
X99417360Y-120838500D01*
X99445428Y-120841264D01*
X99445428Y-120841264D01*
G37*
G36*
X116581938Y-120741716D02*
G01*
X116602557Y-120747971D01*
X116621553Y-120758124D01*
X116638208Y-120771792D01*
X116651876Y-120788447D01*
X116662029Y-120807443D01*
X116668284Y-120828062D01*
X116671000Y-120855640D01*
X116671000Y-121314360D01*
X116668284Y-121341938D01*
X116662029Y-121362557D01*
X116651876Y-121381553D01*
X116638208Y-121398208D01*
X116621553Y-121411876D01*
X116602557Y-121422029D01*
X116581938Y-121428284D01*
X116554360Y-121431000D01*
X116045640Y-121431000D01*
X116018062Y-121428284D01*
X115997443Y-121422029D01*
X115978447Y-121411876D01*
X115961792Y-121398208D01*
X115948124Y-121381553D01*
X115937971Y-121362557D01*
X115931716Y-121341938D01*
X115929000Y-121314360D01*
X115929000Y-120855640D01*
X115931716Y-120828062D01*
X115937971Y-120807443D01*
X115948124Y-120788447D01*
X115961792Y-120771792D01*
X115978447Y-120758124D01*
X115997443Y-120747971D01*
X116018062Y-120741716D01*
X116045640Y-120739000D01*
X116554360Y-120739000D01*
X116581938Y-120741716D01*
X116581938Y-120741716D01*
G37*
G36*
X99445428Y-119841264D02*
G01*
X99466509Y-119847660D01*
X99485945Y-119858048D01*
X99502976Y-119872024D01*
X99516952Y-119889055D01*
X99527340Y-119908491D01*
X99533736Y-119929572D01*
X99536500Y-119957640D01*
X99536500Y-120421360D01*
X99533736Y-120449428D01*
X99527340Y-120470509D01*
X99516952Y-120489945D01*
X99502976Y-120506976D01*
X99485945Y-120520952D01*
X99466509Y-120531340D01*
X99445428Y-120537736D01*
X99417360Y-120540500D01*
X98003640Y-120540500D01*
X97975572Y-120537736D01*
X97954491Y-120531340D01*
X97935055Y-120520952D01*
X97918024Y-120506976D01*
X97904048Y-120489945D01*
X97893660Y-120470509D01*
X97887264Y-120449428D01*
X97884500Y-120421360D01*
X97884500Y-119957640D01*
X97887264Y-119929572D01*
X97893660Y-119908491D01*
X97904048Y-119889055D01*
X97918024Y-119872024D01*
X97935055Y-119858048D01*
X97954491Y-119847660D01*
X97975572Y-119841264D01*
X98003640Y-119838500D01*
X99417360Y-119838500D01*
X99445428Y-119841264D01*
X99445428Y-119841264D01*
G37*
G36*
X116581938Y-119771716D02*
G01*
X116602557Y-119777971D01*
X116621553Y-119788124D01*
X116638208Y-119801792D01*
X116651876Y-119818447D01*
X116662029Y-119837443D01*
X116668284Y-119858062D01*
X116671000Y-119885640D01*
X116671000Y-120344360D01*
X116668284Y-120371938D01*
X116662029Y-120392557D01*
X116651876Y-120411553D01*
X116638208Y-120428208D01*
X116621553Y-120441876D01*
X116602557Y-120452029D01*
X116581938Y-120458284D01*
X116554360Y-120461000D01*
X116045640Y-120461000D01*
X116018062Y-120458284D01*
X115997443Y-120452029D01*
X115978447Y-120441876D01*
X115961792Y-120428208D01*
X115948124Y-120411553D01*
X115937971Y-120392557D01*
X115931716Y-120371938D01*
X115929000Y-120344360D01*
X115929000Y-119885640D01*
X115931716Y-119858062D01*
X115937971Y-119837443D01*
X115948124Y-119818447D01*
X115961792Y-119801792D01*
X115978447Y-119788124D01*
X115997443Y-119777971D01*
X116018062Y-119771716D01*
X116045640Y-119769000D01*
X116554360Y-119769000D01*
X116581938Y-119771716D01*
X116581938Y-119771716D01*
G37*
G36*
X119329468Y-119178565D02*
G01*
X119368138Y-119190296D01*
X119403777Y-119209346D01*
X119435017Y-119234983D01*
X119460654Y-119266223D01*
X119479704Y-119301862D01*
X119491435Y-119340532D01*
X119496000Y-119386888D01*
X119496000Y-120038112D01*
X119491435Y-120084468D01*
X119479704Y-120123138D01*
X119460654Y-120158777D01*
X119435017Y-120190017D01*
X119403777Y-120215654D01*
X119368138Y-120234704D01*
X119329468Y-120246435D01*
X119283112Y-120251000D01*
X118206888Y-120251000D01*
X118160532Y-120246435D01*
X118121862Y-120234704D01*
X118086223Y-120215654D01*
X118054983Y-120190017D01*
X118029346Y-120158777D01*
X118010296Y-120123138D01*
X117998565Y-120084468D01*
X117994000Y-120038112D01*
X117994000Y-119386888D01*
X117998565Y-119340532D01*
X118010296Y-119301862D01*
X118029346Y-119266223D01*
X118054983Y-119234983D01*
X118086223Y-119209346D01*
X118121862Y-119190296D01*
X118160532Y-119178565D01*
X118206888Y-119174000D01*
X119283112Y-119174000D01*
X119329468Y-119178565D01*
X119329468Y-119178565D01*
G37*
G36*
X151088043Y-118434719D02*
G01*
X151154227Y-118441237D01*
X151324066Y-118492757D01*
X151480591Y-118576422D01*
X151516329Y-118605752D01*
X151617786Y-118689014D01*
X151701048Y-118790471D01*
X151730378Y-118826209D01*
X151814043Y-118982734D01*
X151865563Y-119152573D01*
X151882959Y-119329200D01*
X151865563Y-119505827D01*
X151814043Y-119675666D01*
X151730378Y-119832191D01*
X151709146Y-119858062D01*
X151617786Y-119969386D01*
X151516329Y-120052648D01*
X151480591Y-120081978D01*
X151324066Y-120165643D01*
X151154227Y-120217163D01*
X151088042Y-120223682D01*
X151021860Y-120230200D01*
X150933340Y-120230200D01*
X150867158Y-120223682D01*
X150800973Y-120217163D01*
X150631134Y-120165643D01*
X150474609Y-120081978D01*
X150438871Y-120052648D01*
X150337414Y-119969386D01*
X150246054Y-119858062D01*
X150224822Y-119832191D01*
X150141157Y-119675666D01*
X150089637Y-119505827D01*
X150072241Y-119329200D01*
X150089637Y-119152573D01*
X150141157Y-118982734D01*
X150224822Y-118826209D01*
X150254152Y-118790471D01*
X150337414Y-118689014D01*
X150438871Y-118605752D01*
X150474609Y-118576422D01*
X150631134Y-118492757D01*
X150800973Y-118441237D01*
X150867157Y-118434719D01*
X150933340Y-118428200D01*
X151021860Y-118428200D01*
X151088043Y-118434719D01*
X151088043Y-118434719D01*
G37*
G36*
X99445428Y-118841264D02*
G01*
X99466509Y-118847660D01*
X99485945Y-118858048D01*
X99502976Y-118872024D01*
X99516952Y-118889055D01*
X99527340Y-118908491D01*
X99533736Y-118929572D01*
X99536500Y-118957640D01*
X99536500Y-119421360D01*
X99533736Y-119449428D01*
X99527340Y-119470509D01*
X99516952Y-119489945D01*
X99502976Y-119506976D01*
X99485945Y-119520952D01*
X99466509Y-119531340D01*
X99445428Y-119537736D01*
X99417360Y-119540500D01*
X98003640Y-119540500D01*
X97975572Y-119537736D01*
X97954491Y-119531340D01*
X97935055Y-119520952D01*
X97918024Y-119506976D01*
X97904048Y-119489945D01*
X97893660Y-119470509D01*
X97887264Y-119449428D01*
X97884500Y-119421360D01*
X97884500Y-118957640D01*
X97887264Y-118929572D01*
X97893660Y-118908491D01*
X97904048Y-118889055D01*
X97918024Y-118872024D01*
X97935055Y-118858048D01*
X97954491Y-118847660D01*
X97975572Y-118841264D01*
X98003640Y-118838500D01*
X99417360Y-118838500D01*
X99445428Y-118841264D01*
X99445428Y-118841264D01*
G37*
G36*
X99445428Y-117841264D02*
G01*
X99466509Y-117847660D01*
X99485945Y-117858048D01*
X99502976Y-117872024D01*
X99516952Y-117889055D01*
X99527340Y-117908491D01*
X99533736Y-117929572D01*
X99536500Y-117957640D01*
X99536500Y-118421360D01*
X99533736Y-118449428D01*
X99527340Y-118470509D01*
X99516952Y-118489945D01*
X99502976Y-118506976D01*
X99485945Y-118520952D01*
X99466509Y-118531340D01*
X99445428Y-118537736D01*
X99417360Y-118540500D01*
X98003640Y-118540500D01*
X97975572Y-118537736D01*
X97954491Y-118531340D01*
X97935055Y-118520952D01*
X97918024Y-118506976D01*
X97904048Y-118489945D01*
X97893660Y-118470509D01*
X97887264Y-118449428D01*
X97884500Y-118421360D01*
X97884500Y-117957640D01*
X97887264Y-117929572D01*
X97893660Y-117908491D01*
X97904048Y-117889055D01*
X97918024Y-117872024D01*
X97935055Y-117858048D01*
X97954491Y-117847660D01*
X97975572Y-117841264D01*
X98003640Y-117838500D01*
X99417360Y-117838500D01*
X99445428Y-117841264D01*
X99445428Y-117841264D01*
G37*
G36*
X100838938Y-117803716D02*
G01*
X100859557Y-117809971D01*
X100878553Y-117820124D01*
X100895208Y-117833792D01*
X100908876Y-117850447D01*
X100919029Y-117869443D01*
X100925284Y-117890062D01*
X100928000Y-117917640D01*
X100928000Y-118376360D01*
X100925284Y-118403938D01*
X100919029Y-118424557D01*
X100908876Y-118443553D01*
X100895208Y-118460208D01*
X100878553Y-118473876D01*
X100859557Y-118484029D01*
X100838938Y-118490284D01*
X100811360Y-118493000D01*
X100302640Y-118493000D01*
X100275062Y-118490284D01*
X100254443Y-118484029D01*
X100235447Y-118473876D01*
X100218792Y-118460208D01*
X100205124Y-118443553D01*
X100194971Y-118424557D01*
X100188716Y-118403938D01*
X100186000Y-118376360D01*
X100186000Y-117917640D01*
X100188716Y-117890062D01*
X100194971Y-117869443D01*
X100205124Y-117850447D01*
X100218792Y-117833792D01*
X100235447Y-117820124D01*
X100254443Y-117809971D01*
X100275062Y-117803716D01*
X100302640Y-117801000D01*
X100811360Y-117801000D01*
X100838938Y-117803716D01*
X100838938Y-117803716D01*
G37*
G36*
X124148442Y-116141518D02*
G01*
X124214627Y-116148037D01*
X124384466Y-116199557D01*
X124540991Y-116283222D01*
X124576729Y-116312552D01*
X124678186Y-116395814D01*
X124731725Y-116461053D01*
X124790778Y-116533009D01*
X124874443Y-116689534D01*
X124925963Y-116859373D01*
X124943359Y-117036000D01*
X124925963Y-117212627D01*
X124874443Y-117382466D01*
X124790778Y-117538991D01*
X124761448Y-117574729D01*
X124678186Y-117676186D01*
X124576729Y-117759448D01*
X124540991Y-117788778D01*
X124384466Y-117872443D01*
X124214627Y-117923963D01*
X124157677Y-117929572D01*
X124082260Y-117937000D01*
X123993740Y-117937000D01*
X123918323Y-117929572D01*
X123861373Y-117923963D01*
X123691534Y-117872443D01*
X123535009Y-117788778D01*
X123499271Y-117759448D01*
X123397814Y-117676186D01*
X123314552Y-117574729D01*
X123285222Y-117538991D01*
X123201557Y-117382466D01*
X123150037Y-117212627D01*
X123132641Y-117036000D01*
X123150037Y-116859373D01*
X123201557Y-116689534D01*
X123285222Y-116533009D01*
X123344275Y-116461053D01*
X123397814Y-116395814D01*
X123499271Y-116312552D01*
X123535009Y-116283222D01*
X123691534Y-116199557D01*
X123861373Y-116148037D01*
X123927558Y-116141518D01*
X123993740Y-116135000D01*
X124082260Y-116135000D01*
X124148442Y-116141518D01*
X124148442Y-116141518D01*
G37*
G36*
X108908442Y-116141518D02*
G01*
X108974627Y-116148037D01*
X109144466Y-116199557D01*
X109300991Y-116283222D01*
X109336729Y-116312552D01*
X109438186Y-116395814D01*
X109491725Y-116461053D01*
X109550778Y-116533009D01*
X109634443Y-116689534D01*
X109685963Y-116859373D01*
X109703359Y-117036000D01*
X109685963Y-117212627D01*
X109634443Y-117382466D01*
X109550778Y-117538991D01*
X109521448Y-117574729D01*
X109438186Y-117676186D01*
X109336729Y-117759448D01*
X109300991Y-117788778D01*
X109144466Y-117872443D01*
X108974627Y-117923963D01*
X108917677Y-117929572D01*
X108842260Y-117937000D01*
X108753740Y-117937000D01*
X108678323Y-117929572D01*
X108621373Y-117923963D01*
X108451534Y-117872443D01*
X108295009Y-117788778D01*
X108259271Y-117759448D01*
X108157814Y-117676186D01*
X108074552Y-117574729D01*
X108045222Y-117538991D01*
X107961557Y-117382466D01*
X107910037Y-117212627D01*
X107892641Y-117036000D01*
X107910037Y-116859373D01*
X107961557Y-116689534D01*
X108045222Y-116533009D01*
X108104275Y-116461053D01*
X108157814Y-116395814D01*
X108259271Y-116312552D01*
X108295009Y-116283222D01*
X108451534Y-116199557D01*
X108621373Y-116148037D01*
X108687558Y-116141518D01*
X108753740Y-116135000D01*
X108842260Y-116135000D01*
X108908442Y-116141518D01*
X108908442Y-116141518D01*
G37*
G36*
X131768442Y-116141518D02*
G01*
X131834627Y-116148037D01*
X132004466Y-116199557D01*
X132160991Y-116283222D01*
X132196729Y-116312552D01*
X132298186Y-116395814D01*
X132351725Y-116461053D01*
X132410778Y-116533009D01*
X132494443Y-116689534D01*
X132545963Y-116859373D01*
X132563359Y-117036000D01*
X132545963Y-117212627D01*
X132494443Y-117382466D01*
X132410778Y-117538991D01*
X132381448Y-117574729D01*
X132298186Y-117676186D01*
X132196729Y-117759448D01*
X132160991Y-117788778D01*
X132004466Y-117872443D01*
X131834627Y-117923963D01*
X131777677Y-117929572D01*
X131702260Y-117937000D01*
X131613740Y-117937000D01*
X131538323Y-117929572D01*
X131481373Y-117923963D01*
X131311534Y-117872443D01*
X131155009Y-117788778D01*
X131119271Y-117759448D01*
X131017814Y-117676186D01*
X130934552Y-117574729D01*
X130905222Y-117538991D01*
X130821557Y-117382466D01*
X130770037Y-117212627D01*
X130752641Y-117036000D01*
X130770037Y-116859373D01*
X130821557Y-116689534D01*
X130905222Y-116533009D01*
X130964275Y-116461053D01*
X131017814Y-116395814D01*
X131119271Y-116312552D01*
X131155009Y-116283222D01*
X131311534Y-116199557D01*
X131481373Y-116148037D01*
X131547558Y-116141518D01*
X131613740Y-116135000D01*
X131702260Y-116135000D01*
X131768442Y-116141518D01*
X131768442Y-116141518D01*
G37*
G36*
X129228442Y-116141518D02*
G01*
X129294627Y-116148037D01*
X129464466Y-116199557D01*
X129620991Y-116283222D01*
X129656729Y-116312552D01*
X129758186Y-116395814D01*
X129811725Y-116461053D01*
X129870778Y-116533009D01*
X129954443Y-116689534D01*
X130005963Y-116859373D01*
X130023359Y-117036000D01*
X130005963Y-117212627D01*
X129954443Y-117382466D01*
X129870778Y-117538991D01*
X129841448Y-117574729D01*
X129758186Y-117676186D01*
X129656729Y-117759448D01*
X129620991Y-117788778D01*
X129464466Y-117872443D01*
X129294627Y-117923963D01*
X129237677Y-117929572D01*
X129162260Y-117937000D01*
X129073740Y-117937000D01*
X128998323Y-117929572D01*
X128941373Y-117923963D01*
X128771534Y-117872443D01*
X128615009Y-117788778D01*
X128579271Y-117759448D01*
X128477814Y-117676186D01*
X128394552Y-117574729D01*
X128365222Y-117538991D01*
X128281557Y-117382466D01*
X128230037Y-117212627D01*
X128212641Y-117036000D01*
X128230037Y-116859373D01*
X128281557Y-116689534D01*
X128365222Y-116533009D01*
X128424275Y-116461053D01*
X128477814Y-116395814D01*
X128579271Y-116312552D01*
X128615009Y-116283222D01*
X128771534Y-116199557D01*
X128941373Y-116148037D01*
X129007558Y-116141518D01*
X129073740Y-116135000D01*
X129162260Y-116135000D01*
X129228442Y-116141518D01*
X129228442Y-116141518D01*
G37*
G36*
X126688442Y-116141518D02*
G01*
X126754627Y-116148037D01*
X126924466Y-116199557D01*
X127080991Y-116283222D01*
X127116729Y-116312552D01*
X127218186Y-116395814D01*
X127271725Y-116461053D01*
X127330778Y-116533009D01*
X127414443Y-116689534D01*
X127465963Y-116859373D01*
X127483359Y-117036000D01*
X127465963Y-117212627D01*
X127414443Y-117382466D01*
X127330778Y-117538991D01*
X127301448Y-117574729D01*
X127218186Y-117676186D01*
X127116729Y-117759448D01*
X127080991Y-117788778D01*
X126924466Y-117872443D01*
X126754627Y-117923963D01*
X126697677Y-117929572D01*
X126622260Y-117937000D01*
X126533740Y-117937000D01*
X126458323Y-117929572D01*
X126401373Y-117923963D01*
X126231534Y-117872443D01*
X126075009Y-117788778D01*
X126039271Y-117759448D01*
X125937814Y-117676186D01*
X125854552Y-117574729D01*
X125825222Y-117538991D01*
X125741557Y-117382466D01*
X125690037Y-117212627D01*
X125672641Y-117036000D01*
X125690037Y-116859373D01*
X125741557Y-116689534D01*
X125825222Y-116533009D01*
X125884275Y-116461053D01*
X125937814Y-116395814D01*
X126039271Y-116312552D01*
X126075009Y-116283222D01*
X126231534Y-116199557D01*
X126401373Y-116148037D01*
X126467558Y-116141518D01*
X126533740Y-116135000D01*
X126622260Y-116135000D01*
X126688442Y-116141518D01*
X126688442Y-116141518D01*
G37*
G36*
X121608442Y-116141518D02*
G01*
X121674627Y-116148037D01*
X121844466Y-116199557D01*
X122000991Y-116283222D01*
X122036729Y-116312552D01*
X122138186Y-116395814D01*
X122191725Y-116461053D01*
X122250778Y-116533009D01*
X122334443Y-116689534D01*
X122385963Y-116859373D01*
X122403359Y-117036000D01*
X122385963Y-117212627D01*
X122334443Y-117382466D01*
X122250778Y-117538991D01*
X122221448Y-117574729D01*
X122138186Y-117676186D01*
X122036729Y-117759448D01*
X122000991Y-117788778D01*
X121844466Y-117872443D01*
X121674627Y-117923963D01*
X121617677Y-117929572D01*
X121542260Y-117937000D01*
X121453740Y-117937000D01*
X121378323Y-117929572D01*
X121321373Y-117923963D01*
X121151534Y-117872443D01*
X120995009Y-117788778D01*
X120959271Y-117759448D01*
X120857814Y-117676186D01*
X120774552Y-117574729D01*
X120745222Y-117538991D01*
X120661557Y-117382466D01*
X120610037Y-117212627D01*
X120592641Y-117036000D01*
X120610037Y-116859373D01*
X120661557Y-116689534D01*
X120745222Y-116533009D01*
X120804275Y-116461053D01*
X120857814Y-116395814D01*
X120959271Y-116312552D01*
X120995009Y-116283222D01*
X121151534Y-116199557D01*
X121321373Y-116148037D01*
X121387558Y-116141518D01*
X121453740Y-116135000D01*
X121542260Y-116135000D01*
X121608442Y-116141518D01*
X121608442Y-116141518D01*
G37*
G36*
X119068442Y-116141518D02*
G01*
X119134627Y-116148037D01*
X119304466Y-116199557D01*
X119460991Y-116283222D01*
X119496729Y-116312552D01*
X119598186Y-116395814D01*
X119651725Y-116461053D01*
X119710778Y-116533009D01*
X119794443Y-116689534D01*
X119845963Y-116859373D01*
X119863359Y-117036000D01*
X119845963Y-117212627D01*
X119794443Y-117382466D01*
X119710778Y-117538991D01*
X119681448Y-117574729D01*
X119598186Y-117676186D01*
X119496729Y-117759448D01*
X119460991Y-117788778D01*
X119304466Y-117872443D01*
X119134627Y-117923963D01*
X119077677Y-117929572D01*
X119002260Y-117937000D01*
X118913740Y-117937000D01*
X118838323Y-117929572D01*
X118781373Y-117923963D01*
X118611534Y-117872443D01*
X118455009Y-117788778D01*
X118419271Y-117759448D01*
X118317814Y-117676186D01*
X118234552Y-117574729D01*
X118205222Y-117538991D01*
X118121557Y-117382466D01*
X118070037Y-117212627D01*
X118052641Y-117036000D01*
X118070037Y-116859373D01*
X118121557Y-116689534D01*
X118205222Y-116533009D01*
X118264275Y-116461053D01*
X118317814Y-116395814D01*
X118419271Y-116312552D01*
X118455009Y-116283222D01*
X118611534Y-116199557D01*
X118781373Y-116148037D01*
X118847558Y-116141518D01*
X118913740Y-116135000D01*
X119002260Y-116135000D01*
X119068442Y-116141518D01*
X119068442Y-116141518D01*
G37*
G36*
X111448442Y-116141518D02*
G01*
X111514627Y-116148037D01*
X111684466Y-116199557D01*
X111840991Y-116283222D01*
X111876729Y-116312552D01*
X111978186Y-116395814D01*
X112031725Y-116461053D01*
X112090778Y-116533009D01*
X112174443Y-116689534D01*
X112225963Y-116859373D01*
X112243359Y-117036000D01*
X112225963Y-117212627D01*
X112174443Y-117382466D01*
X112090778Y-117538991D01*
X112061448Y-117574729D01*
X111978186Y-117676186D01*
X111876729Y-117759448D01*
X111840991Y-117788778D01*
X111684466Y-117872443D01*
X111514627Y-117923963D01*
X111457677Y-117929572D01*
X111382260Y-117937000D01*
X111293740Y-117937000D01*
X111218323Y-117929572D01*
X111161373Y-117923963D01*
X110991534Y-117872443D01*
X110835009Y-117788778D01*
X110799271Y-117759448D01*
X110697814Y-117676186D01*
X110614552Y-117574729D01*
X110585222Y-117538991D01*
X110501557Y-117382466D01*
X110450037Y-117212627D01*
X110432641Y-117036000D01*
X110450037Y-116859373D01*
X110501557Y-116689534D01*
X110585222Y-116533009D01*
X110644275Y-116461053D01*
X110697814Y-116395814D01*
X110799271Y-116312552D01*
X110835009Y-116283222D01*
X110991534Y-116199557D01*
X111161373Y-116148037D01*
X111227558Y-116141518D01*
X111293740Y-116135000D01*
X111382260Y-116135000D01*
X111448442Y-116141518D01*
X111448442Y-116141518D01*
G37*
G36*
X134308442Y-116141518D02*
G01*
X134374627Y-116148037D01*
X134544466Y-116199557D01*
X134700991Y-116283222D01*
X134736729Y-116312552D01*
X134838186Y-116395814D01*
X134891725Y-116461053D01*
X134950778Y-116533009D01*
X135034443Y-116689534D01*
X135085963Y-116859373D01*
X135103359Y-117036000D01*
X135085963Y-117212627D01*
X135034443Y-117382466D01*
X134950778Y-117538991D01*
X134921448Y-117574729D01*
X134838186Y-117676186D01*
X134736729Y-117759448D01*
X134700991Y-117788778D01*
X134544466Y-117872443D01*
X134374627Y-117923963D01*
X134317677Y-117929572D01*
X134242260Y-117937000D01*
X134153740Y-117937000D01*
X134078323Y-117929572D01*
X134021373Y-117923963D01*
X133851534Y-117872443D01*
X133695009Y-117788778D01*
X133659271Y-117759448D01*
X133557814Y-117676186D01*
X133474552Y-117574729D01*
X133445222Y-117538991D01*
X133361557Y-117382466D01*
X133310037Y-117212627D01*
X133292641Y-117036000D01*
X133310037Y-116859373D01*
X133361557Y-116689534D01*
X133445222Y-116533009D01*
X133504275Y-116461053D01*
X133557814Y-116395814D01*
X133659271Y-116312552D01*
X133695009Y-116283222D01*
X133851534Y-116199557D01*
X134021373Y-116148037D01*
X134087558Y-116141518D01*
X134153740Y-116135000D01*
X134242260Y-116135000D01*
X134308442Y-116141518D01*
X134308442Y-116141518D01*
G37*
G36*
X113988442Y-116141518D02*
G01*
X114054627Y-116148037D01*
X114224466Y-116199557D01*
X114380991Y-116283222D01*
X114416729Y-116312552D01*
X114518186Y-116395814D01*
X114571725Y-116461053D01*
X114630778Y-116533009D01*
X114714443Y-116689534D01*
X114765963Y-116859373D01*
X114783359Y-117036000D01*
X114765963Y-117212627D01*
X114714443Y-117382466D01*
X114630778Y-117538991D01*
X114601448Y-117574729D01*
X114518186Y-117676186D01*
X114416729Y-117759448D01*
X114380991Y-117788778D01*
X114224466Y-117872443D01*
X114054627Y-117923963D01*
X113997677Y-117929572D01*
X113922260Y-117937000D01*
X113833740Y-117937000D01*
X113758323Y-117929572D01*
X113701373Y-117923963D01*
X113531534Y-117872443D01*
X113375009Y-117788778D01*
X113339271Y-117759448D01*
X113237814Y-117676186D01*
X113154552Y-117574729D01*
X113125222Y-117538991D01*
X113041557Y-117382466D01*
X112990037Y-117212627D01*
X112972641Y-117036000D01*
X112990037Y-116859373D01*
X113041557Y-116689534D01*
X113125222Y-116533009D01*
X113184275Y-116461053D01*
X113237814Y-116395814D01*
X113339271Y-116312552D01*
X113375009Y-116283222D01*
X113531534Y-116199557D01*
X113701373Y-116148037D01*
X113767558Y-116141518D01*
X113833740Y-116135000D01*
X113922260Y-116135000D01*
X113988442Y-116141518D01*
X113988442Y-116141518D01*
G37*
G36*
X142719000Y-117937000D02*
G01*
X140917000Y-117937000D01*
X140917000Y-116135000D01*
X142719000Y-116135000D01*
X142719000Y-117937000D01*
X142719000Y-117937000D01*
G37*
G36*
X139388442Y-116141518D02*
G01*
X139454627Y-116148037D01*
X139624466Y-116199557D01*
X139780991Y-116283222D01*
X139816729Y-116312552D01*
X139918186Y-116395814D01*
X139971725Y-116461053D01*
X140030778Y-116533009D01*
X140114443Y-116689534D01*
X140165963Y-116859373D01*
X140183359Y-117036000D01*
X140165963Y-117212627D01*
X140114443Y-117382466D01*
X140030778Y-117538991D01*
X140001448Y-117574729D01*
X139918186Y-117676186D01*
X139816729Y-117759448D01*
X139780991Y-117788778D01*
X139624466Y-117872443D01*
X139454627Y-117923963D01*
X139397677Y-117929572D01*
X139322260Y-117937000D01*
X139233740Y-117937000D01*
X139158323Y-117929572D01*
X139101373Y-117923963D01*
X138931534Y-117872443D01*
X138775009Y-117788778D01*
X138739271Y-117759448D01*
X138637814Y-117676186D01*
X138554552Y-117574729D01*
X138525222Y-117538991D01*
X138441557Y-117382466D01*
X138390037Y-117212627D01*
X138372641Y-117036000D01*
X138390037Y-116859373D01*
X138441557Y-116689534D01*
X138525222Y-116533009D01*
X138584275Y-116461053D01*
X138637814Y-116395814D01*
X138739271Y-116312552D01*
X138775009Y-116283222D01*
X138931534Y-116199557D01*
X139101373Y-116148037D01*
X139167558Y-116141518D01*
X139233740Y-116135000D01*
X139322260Y-116135000D01*
X139388442Y-116141518D01*
X139388442Y-116141518D01*
G37*
G36*
X136848442Y-116141518D02*
G01*
X136914627Y-116148037D01*
X137084466Y-116199557D01*
X137240991Y-116283222D01*
X137276729Y-116312552D01*
X137378186Y-116395814D01*
X137431725Y-116461053D01*
X137490778Y-116533009D01*
X137574443Y-116689534D01*
X137625963Y-116859373D01*
X137643359Y-117036000D01*
X137625963Y-117212627D01*
X137574443Y-117382466D01*
X137490778Y-117538991D01*
X137461448Y-117574729D01*
X137378186Y-117676186D01*
X137276729Y-117759448D01*
X137240991Y-117788778D01*
X137084466Y-117872443D01*
X136914627Y-117923963D01*
X136857677Y-117929572D01*
X136782260Y-117937000D01*
X136693740Y-117937000D01*
X136618323Y-117929572D01*
X136561373Y-117923963D01*
X136391534Y-117872443D01*
X136235009Y-117788778D01*
X136199271Y-117759448D01*
X136097814Y-117676186D01*
X136014552Y-117574729D01*
X135985222Y-117538991D01*
X135901557Y-117382466D01*
X135850037Y-117212627D01*
X135832641Y-117036000D01*
X135850037Y-116859373D01*
X135901557Y-116689534D01*
X135985222Y-116533009D01*
X136044275Y-116461053D01*
X136097814Y-116395814D01*
X136199271Y-116312552D01*
X136235009Y-116283222D01*
X136391534Y-116199557D01*
X136561373Y-116148037D01*
X136627558Y-116141518D01*
X136693740Y-116135000D01*
X136782260Y-116135000D01*
X136848442Y-116141518D01*
X136848442Y-116141518D01*
G37*
G36*
X116528442Y-116141518D02*
G01*
X116594627Y-116148037D01*
X116764466Y-116199557D01*
X116920991Y-116283222D01*
X116956729Y-116312552D01*
X117058186Y-116395814D01*
X117111725Y-116461053D01*
X117170778Y-116533009D01*
X117254443Y-116689534D01*
X117305963Y-116859373D01*
X117323359Y-117036000D01*
X117305963Y-117212627D01*
X117254443Y-117382466D01*
X117170778Y-117538991D01*
X117141448Y-117574729D01*
X117058186Y-117676186D01*
X116956729Y-117759448D01*
X116920991Y-117788778D01*
X116764466Y-117872443D01*
X116594627Y-117923963D01*
X116537677Y-117929572D01*
X116462260Y-117937000D01*
X116373740Y-117937000D01*
X116298323Y-117929572D01*
X116241373Y-117923963D01*
X116071534Y-117872443D01*
X115915009Y-117788778D01*
X115879271Y-117759448D01*
X115777814Y-117676186D01*
X115694552Y-117574729D01*
X115665222Y-117538991D01*
X115581557Y-117382466D01*
X115530037Y-117212627D01*
X115512641Y-117036000D01*
X115530037Y-116859373D01*
X115581557Y-116689534D01*
X115665222Y-116533009D01*
X115724275Y-116461053D01*
X115777814Y-116395814D01*
X115879271Y-116312552D01*
X115915009Y-116283222D01*
X116071534Y-116199557D01*
X116241373Y-116148037D01*
X116307558Y-116141518D01*
X116373740Y-116135000D01*
X116462260Y-116135000D01*
X116528442Y-116141518D01*
X116528442Y-116141518D01*
G37*
G36*
X99445428Y-116841264D02*
G01*
X99466509Y-116847660D01*
X99485945Y-116858048D01*
X99502976Y-116872024D01*
X99516952Y-116889055D01*
X99527340Y-116908491D01*
X99533736Y-116929572D01*
X99536500Y-116957640D01*
X99536500Y-117421360D01*
X99533736Y-117449428D01*
X99527340Y-117470509D01*
X99516952Y-117489945D01*
X99502976Y-117506976D01*
X99485945Y-117520952D01*
X99466509Y-117531340D01*
X99445428Y-117537736D01*
X99417360Y-117540500D01*
X98003640Y-117540500D01*
X97975572Y-117537736D01*
X97954491Y-117531340D01*
X97935055Y-117520952D01*
X97918024Y-117506976D01*
X97904048Y-117489945D01*
X97893660Y-117470509D01*
X97887264Y-117449428D01*
X97884500Y-117421360D01*
X97884500Y-116957640D01*
X97887264Y-116929572D01*
X97893660Y-116908491D01*
X97904048Y-116889055D01*
X97918024Y-116872024D01*
X97935055Y-116858048D01*
X97954491Y-116847660D01*
X97975572Y-116841264D01*
X98003640Y-116838500D01*
X99417360Y-116838500D01*
X99445428Y-116841264D01*
X99445428Y-116841264D01*
G37*
G36*
X100838938Y-116833716D02*
G01*
X100859557Y-116839971D01*
X100878553Y-116850124D01*
X100895208Y-116863792D01*
X100908876Y-116880447D01*
X100919029Y-116899443D01*
X100925284Y-116920062D01*
X100928000Y-116947640D01*
X100928000Y-117406360D01*
X100925284Y-117433938D01*
X100919029Y-117454557D01*
X100908876Y-117473553D01*
X100895208Y-117490208D01*
X100878553Y-117503876D01*
X100859557Y-117514029D01*
X100838938Y-117520284D01*
X100811360Y-117523000D01*
X100302640Y-117523000D01*
X100275062Y-117520284D01*
X100254443Y-117514029D01*
X100235447Y-117503876D01*
X100218792Y-117490208D01*
X100205124Y-117473553D01*
X100194971Y-117454557D01*
X100188716Y-117433938D01*
X100186000Y-117406360D01*
X100186000Y-116947640D01*
X100188716Y-116920062D01*
X100194971Y-116899443D01*
X100205124Y-116880447D01*
X100218792Y-116863792D01*
X100235447Y-116850124D01*
X100254443Y-116839971D01*
X100275062Y-116833716D01*
X100302640Y-116831000D01*
X100811360Y-116831000D01*
X100838938Y-116833716D01*
X100838938Y-116833716D01*
G37*
G36*
X95626742Y-115242904D02*
G01*
X95663837Y-115254157D01*
X95698015Y-115272425D01*
X95727981Y-115297019D01*
X95752575Y-115326985D01*
X95770843Y-115361163D01*
X95782096Y-115398258D01*
X95786500Y-115442974D01*
X95786500Y-116336026D01*
X95782096Y-116380742D01*
X95770843Y-116417837D01*
X95752575Y-116452015D01*
X95727981Y-116481981D01*
X95698015Y-116506575D01*
X95663837Y-116524843D01*
X95626742Y-116536096D01*
X95582026Y-116540500D01*
X94088974Y-116540500D01*
X94044258Y-116536096D01*
X94007163Y-116524843D01*
X93972985Y-116506575D01*
X93943019Y-116481981D01*
X93918425Y-116452015D01*
X93900157Y-116417837D01*
X93888904Y-116380742D01*
X93884500Y-116336026D01*
X93884500Y-115442974D01*
X93888904Y-115398258D01*
X93900157Y-115361163D01*
X93918425Y-115326985D01*
X93943019Y-115297019D01*
X93972985Y-115272425D01*
X94007163Y-115254157D01*
X94044258Y-115242904D01*
X94088974Y-115238500D01*
X95582026Y-115238500D01*
X95626742Y-115242904D01*
X95626742Y-115242904D01*
G37*
G36*
X147572200Y-115353600D02*
G01*
X144422200Y-115353600D01*
X144422200Y-113703600D01*
X147572200Y-113703600D01*
X147572200Y-115353600D01*
X147572200Y-115353600D01*
G37*
G36*
X152072200Y-114083600D02*
G01*
X148922200Y-114083600D01*
X148922200Y-112433600D01*
X152072200Y-112433600D01*
X152072200Y-114083600D01*
X152072200Y-114083600D01*
G37*
G36*
X105151000Y-113536000D02*
G01*
X103799000Y-113536000D01*
X103799000Y-112674000D01*
X105151000Y-112674000D01*
X105151000Y-113536000D01*
X105151000Y-113536000D01*
G37*
G36*
X99001000Y-113536000D02*
G01*
X97649000Y-113536000D01*
X97649000Y-112674000D01*
X99001000Y-112674000D01*
X99001000Y-113536000D01*
X99001000Y-113536000D01*
G37*
G36*
X139321000Y-113526000D02*
G01*
X138039000Y-113526000D01*
X138039000Y-108724000D01*
X139321000Y-108724000D01*
X139321000Y-113526000D01*
X139321000Y-113526000D01*
G37*
G36*
X142631000Y-113526000D02*
G01*
X141349000Y-113526000D01*
X141349000Y-108724000D01*
X142631000Y-108724000D01*
X142631000Y-113526000D01*
X142631000Y-113526000D01*
G37*
G36*
X147572200Y-112813600D02*
G01*
X144422200Y-112813600D01*
X144422200Y-111163600D01*
X147572200Y-111163600D01*
X147572200Y-112813600D01*
X147572200Y-112813600D01*
G37*
G36*
X105151000Y-112266000D02*
G01*
X103799000Y-112266000D01*
X103799000Y-111404000D01*
X105151000Y-111404000D01*
X105151000Y-112266000D01*
X105151000Y-112266000D01*
G37*
G36*
X99001000Y-112266000D02*
G01*
X97649000Y-112266000D01*
X97649000Y-111404000D01*
X99001000Y-111404000D01*
X99001000Y-112266000D01*
X99001000Y-112266000D01*
G37*
G36*
X152072200Y-111543600D02*
G01*
X148922200Y-111543600D01*
X148922200Y-109893600D01*
X152072200Y-109893600D01*
X152072200Y-111543600D01*
X152072200Y-111543600D01*
G37*
G36*
X122724549Y-108741116D02*
G01*
X122835734Y-108763232D01*
X123045203Y-108849997D01*
X123233720Y-108975960D01*
X123394040Y-109136280D01*
X123520003Y-109324797D01*
X123606768Y-109534266D01*
X123651000Y-109756636D01*
X123651000Y-109983364D01*
X123606768Y-110205734D01*
X123520003Y-110415203D01*
X123394040Y-110603720D01*
X123233720Y-110764040D01*
X123045203Y-110890003D01*
X122835734Y-110976768D01*
X122739048Y-110996000D01*
X122613365Y-111021000D01*
X122386635Y-111021000D01*
X122260952Y-110996000D01*
X122164266Y-110976768D01*
X121954797Y-110890003D01*
X121766280Y-110764040D01*
X121605960Y-110603720D01*
X121479997Y-110415203D01*
X121393232Y-110205734D01*
X121349000Y-109983364D01*
X121349000Y-109756636D01*
X121393232Y-109534266D01*
X121479997Y-109324797D01*
X121605960Y-109136280D01*
X121766280Y-108975960D01*
X121954797Y-108849997D01*
X122164266Y-108763232D01*
X122275451Y-108741116D01*
X122386635Y-108719000D01*
X122613365Y-108719000D01*
X122724549Y-108741116D01*
X122724549Y-108741116D01*
G37*
G36*
X105151000Y-110996000D02*
G01*
X103799000Y-110996000D01*
X103799000Y-110134000D01*
X105151000Y-110134000D01*
X105151000Y-110996000D01*
X105151000Y-110996000D01*
G37*
G36*
X99001000Y-110996000D02*
G01*
X97649000Y-110996000D01*
X97649000Y-110134000D01*
X99001000Y-110134000D01*
X99001000Y-110996000D01*
X99001000Y-110996000D01*
G37*
G36*
X147572200Y-110273600D02*
G01*
X144422200Y-110273600D01*
X144422200Y-108623600D01*
X147572200Y-108623600D01*
X147572200Y-110273600D01*
X147572200Y-110273600D01*
G37*
G36*
X99001000Y-109726000D02*
G01*
X97649000Y-109726000D01*
X97649000Y-108864000D01*
X99001000Y-108864000D01*
X99001000Y-109726000D01*
X99001000Y-109726000D01*
G37*
G36*
X105151000Y-109726000D02*
G01*
X103799000Y-109726000D01*
X103799000Y-108864000D01*
X105151000Y-108864000D01*
X105151000Y-109726000D01*
X105151000Y-109726000D01*
G37*
G36*
X152072200Y-109003600D02*
G01*
X148922200Y-109003600D01*
X148922200Y-107353600D01*
X152072200Y-107353600D01*
X152072200Y-109003600D01*
X152072200Y-109003600D01*
G37*
G36*
X147572200Y-107733600D02*
G01*
X144422200Y-107733600D01*
X144422200Y-106083600D01*
X147572200Y-106083600D01*
X147572200Y-107733600D01*
X147572200Y-107733600D01*
G37*
G36*
X102657395Y-104885546D02*
G01*
X102830466Y-104957234D01*
X102830467Y-104957235D01*
X102986227Y-105061310D01*
X103118690Y-105193773D01*
X103118691Y-105193775D01*
X103222766Y-105349534D01*
X103294454Y-105522605D01*
X103331000Y-105706333D01*
X103331000Y-105893667D01*
X103294454Y-106077395D01*
X103222766Y-106250466D01*
X103222765Y-106250467D01*
X103118690Y-106406227D01*
X102986227Y-106538690D01*
X102907818Y-106591081D01*
X102830466Y-106642766D01*
X102657395Y-106714454D01*
X102473667Y-106751000D01*
X102286333Y-106751000D01*
X102102605Y-106714454D01*
X101929534Y-106642766D01*
X101852182Y-106591081D01*
X101773773Y-106538690D01*
X101641310Y-106406227D01*
X101537235Y-106250467D01*
X101537234Y-106250466D01*
X101465546Y-106077395D01*
X101429000Y-105893667D01*
X101429000Y-105706333D01*
X101465546Y-105522605D01*
X101537234Y-105349534D01*
X101641309Y-105193775D01*
X101641310Y-105193773D01*
X101773773Y-105061310D01*
X101929533Y-104957235D01*
X101929534Y-104957234D01*
X102102605Y-104885546D01*
X102286333Y-104849000D01*
X102473667Y-104849000D01*
X102657395Y-104885546D01*
X102657395Y-104885546D01*
G37*
G36*
X100117395Y-104885546D02*
G01*
X100290466Y-104957234D01*
X100290467Y-104957235D01*
X100446227Y-105061310D01*
X100578690Y-105193773D01*
X100578691Y-105193775D01*
X100682766Y-105349534D01*
X100754454Y-105522605D01*
X100791000Y-105706333D01*
X100791000Y-105893667D01*
X100754454Y-106077395D01*
X100682766Y-106250466D01*
X100682765Y-106250467D01*
X100578690Y-106406227D01*
X100446227Y-106538690D01*
X100367818Y-106591081D01*
X100290466Y-106642766D01*
X100117395Y-106714454D01*
X99933667Y-106751000D01*
X99746333Y-106751000D01*
X99562605Y-106714454D01*
X99389534Y-106642766D01*
X99312182Y-106591081D01*
X99233773Y-106538690D01*
X99101310Y-106406227D01*
X98997235Y-106250467D01*
X98997234Y-106250466D01*
X98925546Y-106077395D01*
X98889000Y-105893667D01*
X98889000Y-105706333D01*
X98925546Y-105522605D01*
X98997234Y-105349534D01*
X99101309Y-105193775D01*
X99101310Y-105193773D01*
X99233773Y-105061310D01*
X99389533Y-104957235D01*
X99389534Y-104957234D01*
X99562605Y-104885546D01*
X99746333Y-104849000D01*
X99933667Y-104849000D01*
X100117395Y-104885546D01*
X100117395Y-104885546D01*
G37*
G36*
X96133657Y-103229733D02*
G01*
X96279438Y-103290118D01*
X96279439Y-103290119D01*
X96410640Y-103377784D01*
X96522216Y-103489360D01*
X96522217Y-103489362D01*
X96609882Y-103620562D01*
X96670267Y-103766343D01*
X96701050Y-103921102D01*
X96701050Y-104078898D01*
X96670267Y-104233657D01*
X96609882Y-104379438D01*
X96609881Y-104379439D01*
X96522216Y-104510640D01*
X96410640Y-104622216D01*
X96410637Y-104622218D01*
X96407903Y-104624952D01*
X96394912Y-104635614D01*
X96379367Y-104654556D01*
X96367816Y-104676167D01*
X96360703Y-104699616D01*
X96358301Y-104724002D01*
X96360703Y-104748388D01*
X96367816Y-104771837D01*
X96379367Y-104793447D01*
X96394913Y-104812389D01*
X96413855Y-104827934D01*
X96435466Y-104839485D01*
X96458915Y-104846598D01*
X96483300Y-104849000D01*
X98251000Y-104849000D01*
X98251000Y-106751000D01*
X96349000Y-106751000D01*
X96349000Y-104868143D01*
X96346598Y-104843757D01*
X96339485Y-104820308D01*
X96327934Y-104798697D01*
X96312389Y-104779755D01*
X96293447Y-104764210D01*
X96271836Y-104752659D01*
X96248387Y-104745546D01*
X96224001Y-104743144D01*
X96199615Y-104745546D01*
X96176164Y-104752659D01*
X96133658Y-104770266D01*
X96133657Y-104770266D01*
X96133655Y-104770267D01*
X95978898Y-104801050D01*
X95821102Y-104801050D01*
X95666343Y-104770267D01*
X95520562Y-104709882D01*
X95393455Y-104624952D01*
X95389360Y-104622216D01*
X95277784Y-104510640D01*
X95190119Y-104379439D01*
X95190118Y-104379438D01*
X95129733Y-104233657D01*
X95098950Y-104078898D01*
X95098950Y-103921102D01*
X95129733Y-103766343D01*
X95190118Y-103620562D01*
X95277783Y-103489362D01*
X95277784Y-103489360D01*
X95389360Y-103377784D01*
X95520561Y-103290119D01*
X95520562Y-103290118D01*
X95666343Y-103229733D01*
X95821102Y-103198950D01*
X95978898Y-103198950D01*
X96133657Y-103229733D01*
X96133657Y-103229733D01*
G37*
G36*
X152072200Y-106463600D02*
G01*
X148922200Y-106463600D01*
X148922200Y-104813600D01*
X152072200Y-104813600D01*
X152072200Y-106463600D01*
X152072200Y-106463600D01*
G37*
G36*
X147572200Y-105193600D02*
G01*
X144422200Y-105193600D01*
X144422200Y-103543600D01*
X147572200Y-103543600D01*
X147572200Y-105193600D01*
X147572200Y-105193600D01*
G37*
G36*
X98847395Y-102345546D02*
G01*
X99020466Y-102417234D01*
X99020467Y-102417235D01*
X99176227Y-102521310D01*
X99308690Y-102653773D01*
X99308691Y-102653775D01*
X99412766Y-102809534D01*
X99484454Y-102982605D01*
X99521000Y-103166333D01*
X99521000Y-103353667D01*
X99484454Y-103537395D01*
X99412766Y-103710466D01*
X99412765Y-103710467D01*
X99308690Y-103866227D01*
X99176227Y-103998690D01*
X99097818Y-104051081D01*
X99020466Y-104102766D01*
X98847395Y-104174454D01*
X98663667Y-104211000D01*
X98476333Y-104211000D01*
X98292605Y-104174454D01*
X98119534Y-104102766D01*
X98042182Y-104051081D01*
X97963773Y-103998690D01*
X97831310Y-103866227D01*
X97727235Y-103710467D01*
X97727234Y-103710466D01*
X97655546Y-103537395D01*
X97619000Y-103353667D01*
X97619000Y-103166333D01*
X97655546Y-102982605D01*
X97727234Y-102809534D01*
X97831309Y-102653775D01*
X97831310Y-102653773D01*
X97963773Y-102521310D01*
X98119533Y-102417235D01*
X98119534Y-102417234D01*
X98292605Y-102345546D01*
X98476333Y-102309000D01*
X98663667Y-102309000D01*
X98847395Y-102345546D01*
X98847395Y-102345546D01*
G37*
G36*
X101387395Y-102345546D02*
G01*
X101560466Y-102417234D01*
X101560467Y-102417235D01*
X101716227Y-102521310D01*
X101848690Y-102653773D01*
X101848691Y-102653775D01*
X101952766Y-102809534D01*
X102024454Y-102982605D01*
X102061000Y-103166333D01*
X102061000Y-103353667D01*
X102024454Y-103537395D01*
X101952766Y-103710466D01*
X101952765Y-103710467D01*
X101848690Y-103866227D01*
X101716227Y-103998690D01*
X101637818Y-104051081D01*
X101560466Y-104102766D01*
X101387395Y-104174454D01*
X101203667Y-104211000D01*
X101016333Y-104211000D01*
X100832605Y-104174454D01*
X100659534Y-104102766D01*
X100582182Y-104051081D01*
X100503773Y-103998690D01*
X100371310Y-103866227D01*
X100267235Y-103710467D01*
X100267234Y-103710466D01*
X100195546Y-103537395D01*
X100159000Y-103353667D01*
X100159000Y-103166333D01*
X100195546Y-102982605D01*
X100267234Y-102809534D01*
X100371309Y-102653775D01*
X100371310Y-102653773D01*
X100503773Y-102521310D01*
X100659533Y-102417235D01*
X100659534Y-102417234D01*
X100832605Y-102345546D01*
X101016333Y-102309000D01*
X101203667Y-102309000D01*
X101387395Y-102345546D01*
X101387395Y-102345546D01*
G37*
G36*
X103927395Y-102345546D02*
G01*
X104100466Y-102417234D01*
X104100467Y-102417235D01*
X104256227Y-102521310D01*
X104388690Y-102653773D01*
X104388691Y-102653775D01*
X104492766Y-102809534D01*
X104564454Y-102982605D01*
X104601000Y-103166333D01*
X104601000Y-103353667D01*
X104564454Y-103537395D01*
X104492766Y-103710466D01*
X104492765Y-103710467D01*
X104388690Y-103866227D01*
X104256227Y-103998690D01*
X104177818Y-104051081D01*
X104100466Y-104102766D01*
X103927395Y-104174454D01*
X103743667Y-104211000D01*
X103556333Y-104211000D01*
X103372605Y-104174454D01*
X103199534Y-104102766D01*
X103122182Y-104051081D01*
X103043773Y-103998690D01*
X102911310Y-103866227D01*
X102807235Y-103710467D01*
X102807234Y-103710466D01*
X102735546Y-103537395D01*
X102699000Y-103353667D01*
X102699000Y-103166333D01*
X102735546Y-102982605D01*
X102807234Y-102809534D01*
X102911309Y-102653775D01*
X102911310Y-102653773D01*
X103043773Y-102521310D01*
X103199533Y-102417235D01*
X103199534Y-102417234D01*
X103372605Y-102345546D01*
X103556333Y-102309000D01*
X103743667Y-102309000D01*
X103927395Y-102345546D01*
X103927395Y-102345546D01*
G37*
G36*
X152072200Y-103923600D02*
G01*
X148922200Y-103923600D01*
X148922200Y-102273600D01*
X152072200Y-102273600D01*
X152072200Y-103923600D01*
X152072200Y-103923600D01*
G37*
G36*
X113988443Y-100941519D02*
G01*
X114054627Y-100948037D01*
X114224466Y-100999557D01*
X114380991Y-101083222D01*
X114416729Y-101112552D01*
X114518186Y-101195814D01*
X114601448Y-101297271D01*
X114630778Y-101333009D01*
X114714443Y-101489534D01*
X114765963Y-101659373D01*
X114783359Y-101836000D01*
X114765963Y-102012627D01*
X114714443Y-102182466D01*
X114630778Y-102338991D01*
X114601448Y-102374729D01*
X114518186Y-102476186D01*
X114416729Y-102559448D01*
X114380991Y-102588778D01*
X114224466Y-102672443D01*
X114054627Y-102723963D01*
X113988442Y-102730482D01*
X113922260Y-102737000D01*
X113833740Y-102737000D01*
X113767558Y-102730482D01*
X113701373Y-102723963D01*
X113531534Y-102672443D01*
X113375009Y-102588778D01*
X113339271Y-102559448D01*
X113237814Y-102476186D01*
X113154552Y-102374729D01*
X113125222Y-102338991D01*
X113041557Y-102182466D01*
X112990037Y-102012627D01*
X112972641Y-101836000D01*
X112990037Y-101659373D01*
X113041557Y-101489534D01*
X113125222Y-101333009D01*
X113154552Y-101297271D01*
X113237814Y-101195814D01*
X113339271Y-101112552D01*
X113375009Y-101083222D01*
X113531534Y-100999557D01*
X113701373Y-100948037D01*
X113767558Y-100941518D01*
X113833740Y-100935000D01*
X113922260Y-100935000D01*
X113988443Y-100941519D01*
X113988443Y-100941519D01*
G37*
G36*
X116528443Y-100941519D02*
G01*
X116594627Y-100948037D01*
X116764466Y-100999557D01*
X116920991Y-101083222D01*
X116956729Y-101112552D01*
X117058186Y-101195814D01*
X117141448Y-101297271D01*
X117170778Y-101333009D01*
X117254443Y-101489534D01*
X117305963Y-101659373D01*
X117323359Y-101836000D01*
X117305963Y-102012627D01*
X117254443Y-102182466D01*
X117170778Y-102338991D01*
X117141448Y-102374729D01*
X117058186Y-102476186D01*
X116956729Y-102559448D01*
X116920991Y-102588778D01*
X116764466Y-102672443D01*
X116594627Y-102723963D01*
X116528442Y-102730482D01*
X116462260Y-102737000D01*
X116373740Y-102737000D01*
X116307558Y-102730482D01*
X116241373Y-102723963D01*
X116071534Y-102672443D01*
X115915009Y-102588778D01*
X115879271Y-102559448D01*
X115777814Y-102476186D01*
X115694552Y-102374729D01*
X115665222Y-102338991D01*
X115581557Y-102182466D01*
X115530037Y-102012627D01*
X115512641Y-101836000D01*
X115530037Y-101659373D01*
X115581557Y-101489534D01*
X115665222Y-101333009D01*
X115694552Y-101297271D01*
X115777814Y-101195814D01*
X115879271Y-101112552D01*
X115915009Y-101083222D01*
X116071534Y-100999557D01*
X116241373Y-100948037D01*
X116307558Y-100941518D01*
X116373740Y-100935000D01*
X116462260Y-100935000D01*
X116528443Y-100941519D01*
X116528443Y-100941519D01*
G37*
G36*
X142719000Y-102737000D02*
G01*
X140917000Y-102737000D01*
X140917000Y-100935000D01*
X142719000Y-100935000D01*
X142719000Y-102737000D01*
X142719000Y-102737000D01*
G37*
G36*
X139388443Y-100941519D02*
G01*
X139454627Y-100948037D01*
X139624466Y-100999557D01*
X139780991Y-101083222D01*
X139816729Y-101112552D01*
X139918186Y-101195814D01*
X140001448Y-101297271D01*
X140030778Y-101333009D01*
X140114443Y-101489534D01*
X140165963Y-101659373D01*
X140183359Y-101836000D01*
X140165963Y-102012627D01*
X140114443Y-102182466D01*
X140030778Y-102338991D01*
X140001448Y-102374729D01*
X139918186Y-102476186D01*
X139816729Y-102559448D01*
X139780991Y-102588778D01*
X139624466Y-102672443D01*
X139454627Y-102723963D01*
X139388442Y-102730482D01*
X139322260Y-102737000D01*
X139233740Y-102737000D01*
X139167558Y-102730482D01*
X139101373Y-102723963D01*
X138931534Y-102672443D01*
X138775009Y-102588778D01*
X138739271Y-102559448D01*
X138637814Y-102476186D01*
X138554552Y-102374729D01*
X138525222Y-102338991D01*
X138441557Y-102182466D01*
X138390037Y-102012627D01*
X138372641Y-101836000D01*
X138390037Y-101659373D01*
X138441557Y-101489534D01*
X138525222Y-101333009D01*
X138554552Y-101297271D01*
X138637814Y-101195814D01*
X138739271Y-101112552D01*
X138775009Y-101083222D01*
X138931534Y-100999557D01*
X139101373Y-100948037D01*
X139167558Y-100941518D01*
X139233740Y-100935000D01*
X139322260Y-100935000D01*
X139388443Y-100941519D01*
X139388443Y-100941519D01*
G37*
G36*
X136848443Y-100941519D02*
G01*
X136914627Y-100948037D01*
X137084466Y-100999557D01*
X137240991Y-101083222D01*
X137276729Y-101112552D01*
X137378186Y-101195814D01*
X137461448Y-101297271D01*
X137490778Y-101333009D01*
X137574443Y-101489534D01*
X137625963Y-101659373D01*
X137643359Y-101836000D01*
X137625963Y-102012627D01*
X137574443Y-102182466D01*
X137490778Y-102338991D01*
X137461448Y-102374729D01*
X137378186Y-102476186D01*
X137276729Y-102559448D01*
X137240991Y-102588778D01*
X137084466Y-102672443D01*
X136914627Y-102723963D01*
X136848442Y-102730482D01*
X136782260Y-102737000D01*
X136693740Y-102737000D01*
X136627558Y-102730482D01*
X136561373Y-102723963D01*
X136391534Y-102672443D01*
X136235009Y-102588778D01*
X136199271Y-102559448D01*
X136097814Y-102476186D01*
X136014552Y-102374729D01*
X135985222Y-102338991D01*
X135901557Y-102182466D01*
X135850037Y-102012627D01*
X135832641Y-101836000D01*
X135850037Y-101659373D01*
X135901557Y-101489534D01*
X135985222Y-101333009D01*
X136014552Y-101297271D01*
X136097814Y-101195814D01*
X136199271Y-101112552D01*
X136235009Y-101083222D01*
X136391534Y-100999557D01*
X136561373Y-100948037D01*
X136627558Y-100941518D01*
X136693740Y-100935000D01*
X136782260Y-100935000D01*
X136848443Y-100941519D01*
X136848443Y-100941519D01*
G37*
G36*
X134308443Y-100941519D02*
G01*
X134374627Y-100948037D01*
X134544466Y-100999557D01*
X134700991Y-101083222D01*
X134736729Y-101112552D01*
X134838186Y-101195814D01*
X134921448Y-101297271D01*
X134950778Y-101333009D01*
X135034443Y-101489534D01*
X135085963Y-101659373D01*
X135103359Y-101836000D01*
X135085963Y-102012627D01*
X135034443Y-102182466D01*
X134950778Y-102338991D01*
X134921448Y-102374729D01*
X134838186Y-102476186D01*
X134736729Y-102559448D01*
X134700991Y-102588778D01*
X134544466Y-102672443D01*
X134374627Y-102723963D01*
X134308442Y-102730482D01*
X134242260Y-102737000D01*
X134153740Y-102737000D01*
X134087558Y-102730482D01*
X134021373Y-102723963D01*
X133851534Y-102672443D01*
X133695009Y-102588778D01*
X133659271Y-102559448D01*
X133557814Y-102476186D01*
X133474552Y-102374729D01*
X133445222Y-102338991D01*
X133361557Y-102182466D01*
X133310037Y-102012627D01*
X133292641Y-101836000D01*
X133310037Y-101659373D01*
X133361557Y-101489534D01*
X133445222Y-101333009D01*
X133474552Y-101297271D01*
X133557814Y-101195814D01*
X133659271Y-101112552D01*
X133695009Y-101083222D01*
X133851534Y-100999557D01*
X134021373Y-100948037D01*
X134087558Y-100941518D01*
X134153740Y-100935000D01*
X134242260Y-100935000D01*
X134308443Y-100941519D01*
X134308443Y-100941519D01*
G37*
G36*
X131768443Y-100941519D02*
G01*
X131834627Y-100948037D01*
X132004466Y-100999557D01*
X132160991Y-101083222D01*
X132196729Y-101112552D01*
X132298186Y-101195814D01*
X132381448Y-101297271D01*
X132410778Y-101333009D01*
X132494443Y-101489534D01*
X132545963Y-101659373D01*
X132563359Y-101836000D01*
X132545963Y-102012627D01*
X132494443Y-102182466D01*
X132410778Y-102338991D01*
X132381448Y-102374729D01*
X132298186Y-102476186D01*
X132196729Y-102559448D01*
X132160991Y-102588778D01*
X132004466Y-102672443D01*
X131834627Y-102723963D01*
X131768442Y-102730482D01*
X131702260Y-102737000D01*
X131613740Y-102737000D01*
X131547558Y-102730482D01*
X131481373Y-102723963D01*
X131311534Y-102672443D01*
X131155009Y-102588778D01*
X131119271Y-102559448D01*
X131017814Y-102476186D01*
X130934552Y-102374729D01*
X130905222Y-102338991D01*
X130821557Y-102182466D01*
X130770037Y-102012627D01*
X130752641Y-101836000D01*
X130770037Y-101659373D01*
X130821557Y-101489534D01*
X130905222Y-101333009D01*
X130934552Y-101297271D01*
X131017814Y-101195814D01*
X131119271Y-101112552D01*
X131155009Y-101083222D01*
X131311534Y-100999557D01*
X131481373Y-100948037D01*
X131547558Y-100941518D01*
X131613740Y-100935000D01*
X131702260Y-100935000D01*
X131768443Y-100941519D01*
X131768443Y-100941519D01*
G37*
G36*
X129228443Y-100941519D02*
G01*
X129294627Y-100948037D01*
X129464466Y-100999557D01*
X129620991Y-101083222D01*
X129656729Y-101112552D01*
X129758186Y-101195814D01*
X129841448Y-101297271D01*
X129870778Y-101333009D01*
X129954443Y-101489534D01*
X130005963Y-101659373D01*
X130023359Y-101836000D01*
X130005963Y-102012627D01*
X129954443Y-102182466D01*
X129870778Y-102338991D01*
X129841448Y-102374729D01*
X129758186Y-102476186D01*
X129656729Y-102559448D01*
X129620991Y-102588778D01*
X129464466Y-102672443D01*
X129294627Y-102723963D01*
X129228442Y-102730482D01*
X129162260Y-102737000D01*
X129073740Y-102737000D01*
X129007558Y-102730482D01*
X128941373Y-102723963D01*
X128771534Y-102672443D01*
X128615009Y-102588778D01*
X128579271Y-102559448D01*
X128477814Y-102476186D01*
X128394552Y-102374729D01*
X128365222Y-102338991D01*
X128281557Y-102182466D01*
X128230037Y-102012627D01*
X128212641Y-101836000D01*
X128230037Y-101659373D01*
X128281557Y-101489534D01*
X128365222Y-101333009D01*
X128394552Y-101297271D01*
X128477814Y-101195814D01*
X128579271Y-101112552D01*
X128615009Y-101083222D01*
X128771534Y-100999557D01*
X128941373Y-100948037D01*
X129007558Y-100941518D01*
X129073740Y-100935000D01*
X129162260Y-100935000D01*
X129228443Y-100941519D01*
X129228443Y-100941519D01*
G37*
G36*
X126688443Y-100941519D02*
G01*
X126754627Y-100948037D01*
X126924466Y-100999557D01*
X127080991Y-101083222D01*
X127116729Y-101112552D01*
X127218186Y-101195814D01*
X127301448Y-101297271D01*
X127330778Y-101333009D01*
X127414443Y-101489534D01*
X127465963Y-101659373D01*
X127483359Y-101836000D01*
X127465963Y-102012627D01*
X127414443Y-102182466D01*
X127330778Y-102338991D01*
X127301448Y-102374729D01*
X127218186Y-102476186D01*
X127116729Y-102559448D01*
X127080991Y-102588778D01*
X126924466Y-102672443D01*
X126754627Y-102723963D01*
X126688442Y-102730482D01*
X126622260Y-102737000D01*
X126533740Y-102737000D01*
X126467558Y-102730482D01*
X126401373Y-102723963D01*
X126231534Y-102672443D01*
X126075009Y-102588778D01*
X126039271Y-102559448D01*
X125937814Y-102476186D01*
X125854552Y-102374729D01*
X125825222Y-102338991D01*
X125741557Y-102182466D01*
X125690037Y-102012627D01*
X125672641Y-101836000D01*
X125690037Y-101659373D01*
X125741557Y-101489534D01*
X125825222Y-101333009D01*
X125854552Y-101297271D01*
X125937814Y-101195814D01*
X126039271Y-101112552D01*
X126075009Y-101083222D01*
X126231534Y-100999557D01*
X126401373Y-100948037D01*
X126467558Y-100941518D01*
X126533740Y-100935000D01*
X126622260Y-100935000D01*
X126688443Y-100941519D01*
X126688443Y-100941519D01*
G37*
G36*
X124148443Y-100941519D02*
G01*
X124214627Y-100948037D01*
X124384466Y-100999557D01*
X124540991Y-101083222D01*
X124576729Y-101112552D01*
X124678186Y-101195814D01*
X124761448Y-101297271D01*
X124790778Y-101333009D01*
X124874443Y-101489534D01*
X124925963Y-101659373D01*
X124943359Y-101836000D01*
X124925963Y-102012627D01*
X124874443Y-102182466D01*
X124790778Y-102338991D01*
X124761448Y-102374729D01*
X124678186Y-102476186D01*
X124576729Y-102559448D01*
X124540991Y-102588778D01*
X124384466Y-102672443D01*
X124214627Y-102723963D01*
X124148442Y-102730482D01*
X124082260Y-102737000D01*
X123993740Y-102737000D01*
X123927558Y-102730482D01*
X123861373Y-102723963D01*
X123691534Y-102672443D01*
X123535009Y-102588778D01*
X123499271Y-102559448D01*
X123397814Y-102476186D01*
X123314552Y-102374729D01*
X123285222Y-102338991D01*
X123201557Y-102182466D01*
X123150037Y-102012627D01*
X123132641Y-101836000D01*
X123150037Y-101659373D01*
X123201557Y-101489534D01*
X123285222Y-101333009D01*
X123314552Y-101297271D01*
X123397814Y-101195814D01*
X123499271Y-101112552D01*
X123535009Y-101083222D01*
X123691534Y-100999557D01*
X123861373Y-100948037D01*
X123927558Y-100941518D01*
X123993740Y-100935000D01*
X124082260Y-100935000D01*
X124148443Y-100941519D01*
X124148443Y-100941519D01*
G37*
G36*
X121608443Y-100941519D02*
G01*
X121674627Y-100948037D01*
X121844466Y-100999557D01*
X122000991Y-101083222D01*
X122036729Y-101112552D01*
X122138186Y-101195814D01*
X122221448Y-101297271D01*
X122250778Y-101333009D01*
X122334443Y-101489534D01*
X122385963Y-101659373D01*
X122403359Y-101836000D01*
X122385963Y-102012627D01*
X122334443Y-102182466D01*
X122250778Y-102338991D01*
X122221448Y-102374729D01*
X122138186Y-102476186D01*
X122036729Y-102559448D01*
X122000991Y-102588778D01*
X121844466Y-102672443D01*
X121674627Y-102723963D01*
X121608442Y-102730482D01*
X121542260Y-102737000D01*
X121453740Y-102737000D01*
X121387558Y-102730482D01*
X121321373Y-102723963D01*
X121151534Y-102672443D01*
X120995009Y-102588778D01*
X120959271Y-102559448D01*
X120857814Y-102476186D01*
X120774552Y-102374729D01*
X120745222Y-102338991D01*
X120661557Y-102182466D01*
X120610037Y-102012627D01*
X120592641Y-101836000D01*
X120610037Y-101659373D01*
X120661557Y-101489534D01*
X120745222Y-101333009D01*
X120774552Y-101297271D01*
X120857814Y-101195814D01*
X120959271Y-101112552D01*
X120995009Y-101083222D01*
X121151534Y-100999557D01*
X121321373Y-100948037D01*
X121387558Y-100941518D01*
X121453740Y-100935000D01*
X121542260Y-100935000D01*
X121608443Y-100941519D01*
X121608443Y-100941519D01*
G37*
G36*
X119068443Y-100941519D02*
G01*
X119134627Y-100948037D01*
X119304466Y-100999557D01*
X119460991Y-101083222D01*
X119496729Y-101112552D01*
X119598186Y-101195814D01*
X119681448Y-101297271D01*
X119710778Y-101333009D01*
X119794443Y-101489534D01*
X119845963Y-101659373D01*
X119863359Y-101836000D01*
X119845963Y-102012627D01*
X119794443Y-102182466D01*
X119710778Y-102338991D01*
X119681448Y-102374729D01*
X119598186Y-102476186D01*
X119496729Y-102559448D01*
X119460991Y-102588778D01*
X119304466Y-102672443D01*
X119134627Y-102723963D01*
X119068442Y-102730482D01*
X119002260Y-102737000D01*
X118913740Y-102737000D01*
X118847558Y-102730482D01*
X118781373Y-102723963D01*
X118611534Y-102672443D01*
X118455009Y-102588778D01*
X118419271Y-102559448D01*
X118317814Y-102476186D01*
X118234552Y-102374729D01*
X118205222Y-102338991D01*
X118121557Y-102182466D01*
X118070037Y-102012627D01*
X118052641Y-101836000D01*
X118070037Y-101659373D01*
X118121557Y-101489534D01*
X118205222Y-101333009D01*
X118234552Y-101297271D01*
X118317814Y-101195814D01*
X118419271Y-101112552D01*
X118455009Y-101083222D01*
X118611534Y-100999557D01*
X118781373Y-100948037D01*
X118847558Y-100941518D01*
X118913740Y-100935000D01*
X119002260Y-100935000D01*
X119068443Y-100941519D01*
X119068443Y-100941519D01*
G37*
G36*
X108908443Y-100941519D02*
G01*
X108974627Y-100948037D01*
X109144466Y-100999557D01*
X109300991Y-101083222D01*
X109336729Y-101112552D01*
X109438186Y-101195814D01*
X109521448Y-101297271D01*
X109550778Y-101333009D01*
X109634443Y-101489534D01*
X109685963Y-101659373D01*
X109703359Y-101836000D01*
X109685963Y-102012627D01*
X109634443Y-102182466D01*
X109550778Y-102338991D01*
X109521448Y-102374729D01*
X109438186Y-102476186D01*
X109336729Y-102559448D01*
X109300991Y-102588778D01*
X109144466Y-102672443D01*
X108974627Y-102723963D01*
X108908442Y-102730482D01*
X108842260Y-102737000D01*
X108753740Y-102737000D01*
X108687558Y-102730482D01*
X108621373Y-102723963D01*
X108451534Y-102672443D01*
X108295009Y-102588778D01*
X108259271Y-102559448D01*
X108157814Y-102476186D01*
X108074552Y-102374729D01*
X108045222Y-102338991D01*
X107961557Y-102182466D01*
X107910037Y-102012627D01*
X107892641Y-101836000D01*
X107910037Y-101659373D01*
X107961557Y-101489534D01*
X108045222Y-101333009D01*
X108074552Y-101297271D01*
X108157814Y-101195814D01*
X108259271Y-101112552D01*
X108295009Y-101083222D01*
X108451534Y-100999557D01*
X108621373Y-100948037D01*
X108687558Y-100941518D01*
X108753740Y-100935000D01*
X108842260Y-100935000D01*
X108908443Y-100941519D01*
X108908443Y-100941519D01*
G37*
G36*
X111448443Y-100941519D02*
G01*
X111514627Y-100948037D01*
X111684466Y-100999557D01*
X111840991Y-101083222D01*
X111876729Y-101112552D01*
X111978186Y-101195814D01*
X112061448Y-101297271D01*
X112090778Y-101333009D01*
X112174443Y-101489534D01*
X112225963Y-101659373D01*
X112243359Y-101836000D01*
X112225963Y-102012627D01*
X112174443Y-102182466D01*
X112090778Y-102338991D01*
X112061448Y-102374729D01*
X111978186Y-102476186D01*
X111876729Y-102559448D01*
X111840991Y-102588778D01*
X111684466Y-102672443D01*
X111514627Y-102723963D01*
X111448442Y-102730482D01*
X111382260Y-102737000D01*
X111293740Y-102737000D01*
X111227558Y-102730482D01*
X111161373Y-102723963D01*
X110991534Y-102672443D01*
X110835009Y-102588778D01*
X110799271Y-102559448D01*
X110697814Y-102476186D01*
X110614552Y-102374729D01*
X110585222Y-102338991D01*
X110501557Y-102182466D01*
X110450037Y-102012627D01*
X110432641Y-101836000D01*
X110450037Y-101659373D01*
X110501557Y-101489534D01*
X110585222Y-101333009D01*
X110614552Y-101297271D01*
X110697814Y-101195814D01*
X110799271Y-101112552D01*
X110835009Y-101083222D01*
X110991534Y-100999557D01*
X111161373Y-100948037D01*
X111227558Y-100941518D01*
X111293740Y-100935000D01*
X111382260Y-100935000D01*
X111448443Y-100941519D01*
X111448443Y-100941519D01*
G37*
M02*
