G04 #@! TF.GenerationSoftware,KiCad,Pcbnew,5.1.3-ffb9f22~84~ubuntu18.04.1*
G04 #@! TF.CreationDate,2019-10-12T08:12:31-07:00*
G04 #@! TF.ProjectId,board,626f6172-642e-46b6-9963-61645f706362,rev?*
G04 #@! TF.SameCoordinates,Original*
G04 #@! TF.FileFunction,Copper,L3,Inr*
G04 #@! TF.FilePolarity,Positive*
%FSLAX46Y46*%
G04 Gerber Fmt 4.6, Leading zero omitted, Abs format (unit mm)*
G04 Created by KiCad (PCBNEW 5.1.3-ffb9f22~84~ubuntu18.04.1) date 2019-10-12 08:12:31*
%MOMM*%
%LPD*%
G04 APERTURE LIST*
%ADD10O,1.700000X1.700000*%
%ADD11R,1.700000X1.700000*%
%ADD12C,1.800000*%
%ADD13R,1.800000X1.800000*%
%ADD14C,0.800000*%
%ADD15C,0.600000*%
%ADD16C,0.700000*%
%ADD17C,0.152400*%
%ADD18C,0.300000*%
%ADD19C,0.254000*%
G04 APERTURE END LIST*
D10*
X108798000Y-101836000D03*
X111338000Y-101836000D03*
X113878000Y-101836000D03*
X116418000Y-101836000D03*
X118958000Y-101836000D03*
X121498000Y-101836000D03*
X124038000Y-101836000D03*
X126578000Y-101836000D03*
X129118000Y-101836000D03*
X131658000Y-101836000D03*
X134198000Y-101836000D03*
X136738000Y-101836000D03*
X139278000Y-101836000D03*
D11*
X141818000Y-101836000D03*
X141818000Y-117036000D03*
D10*
X139278000Y-117036000D03*
X136738000Y-117036000D03*
X134198000Y-117036000D03*
X131658000Y-117036000D03*
X129118000Y-117036000D03*
X126578000Y-117036000D03*
X124038000Y-117036000D03*
X121498000Y-117036000D03*
X118958000Y-117036000D03*
X116418000Y-117036000D03*
X113878000Y-117036000D03*
X111338000Y-117036000D03*
X108798000Y-117036000D03*
X150977600Y-119329200D03*
X150977600Y-121869200D03*
X150977600Y-124409200D03*
X150977600Y-126949200D03*
X150977600Y-129489200D03*
X150977600Y-132029200D03*
X150977600Y-134569200D03*
D11*
X150977600Y-137109200D03*
D12*
X103650000Y-103260000D03*
X102380000Y-105800000D03*
D13*
X97300000Y-105800000D03*
D12*
X98570000Y-103260000D03*
X99840000Y-105800000D03*
X101110000Y-103260000D03*
D13*
X109295000Y-137120000D03*
D12*
X110565000Y-134580000D03*
X111835000Y-137120000D03*
X113105000Y-134580000D03*
D14*
X115500000Y-128200000D03*
D15*
X121031000Y-121412000D03*
X121920000Y-118745000D03*
D14*
X117300000Y-118900000D03*
X121793000Y-120142000D03*
X115800000Y-119000000D03*
X121793000Y-124396500D03*
X144600000Y-101500000D03*
X148444798Y-102600000D03*
X151300000Y-100577400D03*
X112100000Y-122400000D03*
X102800000Y-116100000D03*
X141595194Y-124100000D03*
D15*
X131800000Y-123000000D03*
D14*
X142547597Y-124100000D03*
D15*
X130492500Y-124079000D03*
D16*
X142500000Y-130000000D03*
D15*
X129159000Y-125984000D03*
D16*
X141547597Y-130000000D03*
D15*
X130683000Y-126619000D03*
D14*
X141595194Y-136000000D03*
D15*
X126052638Y-127947362D03*
D14*
X142547597Y-136000000D03*
D15*
X124992985Y-128707015D03*
D16*
X94869000Y-110871000D03*
X102997000Y-109855000D03*
X99695000Y-112522000D03*
D14*
X133333500Y-119961500D03*
X133079500Y-132153500D03*
X128912000Y-119311000D03*
X141400000Y-121600000D03*
X140500000Y-121600000D03*
X140500000Y-122400000D03*
X141400000Y-120800000D03*
X141400000Y-122400000D03*
X141300000Y-127700000D03*
X140400000Y-127700000D03*
D16*
X140400000Y-128500000D03*
D14*
X140400000Y-126900000D03*
X141300000Y-126900000D03*
D16*
X141300000Y-128500000D03*
D14*
X141300000Y-133700000D03*
X140450000Y-133700000D03*
X140450000Y-134500000D03*
X140450000Y-132900000D03*
X100300000Y-129500000D03*
X101200000Y-129500000D03*
X102100000Y-129500000D03*
X103000000Y-129500000D03*
X100800000Y-130300000D03*
X101700000Y-130300000D03*
X102600000Y-130300000D03*
X103500000Y-130300000D03*
X100400000Y-131100000D03*
X101300000Y-131100000D03*
X102200000Y-131100000D03*
X103100000Y-131100000D03*
X100800000Y-131900000D03*
X101700000Y-131900000D03*
X102600000Y-131900000D03*
X103500000Y-131900000D03*
X141300000Y-132900000D03*
X141300000Y-134500000D03*
X93600000Y-123600000D03*
X121100000Y-122700000D03*
X122555000Y-119507000D03*
X122792500Y-126692500D03*
X152422600Y-104400000D03*
X105900000Y-136502400D03*
X140500000Y-120800000D03*
X129667000Y-124587000D03*
D15*
X99822000Y-110363000D03*
X96520000Y-112522000D03*
D14*
X147000000Y-102400000D03*
X149600000Y-100577400D03*
X148444798Y-103700000D03*
X152422600Y-106800000D03*
X102500000Y-135800000D03*
X94300000Y-135800000D03*
X98300000Y-136100000D03*
X141900000Y-107950000D03*
X143500000Y-124100000D03*
D15*
X131800000Y-123952403D03*
D16*
X143500000Y-130000000D03*
D15*
X130556000Y-125095000D03*
D14*
X143500000Y-136000000D03*
D15*
X126559468Y-128753707D03*
D14*
X150000000Y-116500000D03*
X148600000Y-116500000D03*
X147300000Y-116500000D03*
X146000000Y-116500000D03*
D15*
X101409500Y-107315000D03*
X101876000Y-108760000D03*
X102511000Y-108760000D03*
X102171500Y-107315000D03*
X102933500Y-107315000D03*
X103695500Y-107124500D03*
X104267000Y-106680000D03*
X104838500Y-106108500D03*
X105283000Y-105473500D03*
D14*
X104175000Y-134150000D03*
X137166671Y-109950066D03*
X137100000Y-109000000D03*
X137500000Y-106100000D03*
D16*
X95331000Y-112724000D03*
D14*
X104475000Y-109295000D03*
X100800000Y-127700000D03*
X101700000Y-127700000D03*
X102600000Y-127700000D03*
X103500000Y-127700000D03*
X100400000Y-125300000D03*
X101300000Y-125300000D03*
X102200000Y-125300000D03*
X103100000Y-125300000D03*
X100800000Y-126100000D03*
X101700000Y-126100000D03*
X102600000Y-126100000D03*
X103500000Y-126100000D03*
X100400000Y-126900000D03*
X101300000Y-126900000D03*
X102200000Y-126900000D03*
X103100000Y-126900000D03*
X100400000Y-128500000D03*
X101300000Y-128500000D03*
X102200000Y-128500000D03*
X103100000Y-128500000D03*
D17*
X121487399Y-119177601D02*
X121920000Y-118745000D01*
X120471399Y-119177601D02*
X121487399Y-119177601D01*
X121031000Y-121412000D02*
X120471399Y-120852399D01*
X120471399Y-120852399D02*
X120471399Y-119177601D01*
X113107792Y-136970000D02*
X111835000Y-136970000D01*
X121833410Y-128244382D02*
X113107792Y-136970000D01*
X121833410Y-126786410D02*
X121833410Y-128244382D01*
X121793000Y-126746000D02*
X121793000Y-124333000D01*
X121833410Y-126786410D02*
X121793000Y-126746000D01*
X149898999Y-125870599D02*
X150127601Y-126099201D01*
X149898999Y-123598999D02*
X149898999Y-125870599D01*
X150127601Y-126099201D02*
X150977600Y-126949200D01*
X144414601Y-118114601D02*
X149898999Y-123598999D01*
X140356601Y-118114601D02*
X144414601Y-118114601D01*
X139278000Y-117036000D02*
X140356601Y-118114601D01*
X152022601Y-104000001D02*
X152422600Y-104400000D01*
X149793999Y-101771399D02*
X152022601Y-104000001D01*
X146698271Y-101771399D02*
X149793999Y-101771399D01*
X145859879Y-102609791D02*
X146698271Y-101771399D01*
X144107461Y-102609791D02*
X145859879Y-102609791D01*
X143333670Y-101836000D02*
X144107461Y-102609791D01*
X141818000Y-101836000D02*
X143333670Y-101836000D01*
X139278000Y-118238081D02*
X138898081Y-118618000D01*
X139278000Y-117036000D02*
X139278000Y-118238081D01*
X124968000Y-118618000D02*
X124968000Y-120015000D01*
X138898081Y-118618000D02*
X124968000Y-118618000D01*
X122283000Y-122700000D02*
X121100000Y-122700000D01*
X124968000Y-120015000D02*
X122283000Y-122700000D01*
D18*
X131197599Y-124845045D02*
X131197599Y-122040401D01*
X133079500Y-132153500D02*
X133079500Y-126726946D01*
X133079500Y-126726946D02*
X131197599Y-124845045D01*
X131197599Y-122040401D02*
X133223000Y-120015000D01*
D17*
X139278000Y-101836000D02*
X140356601Y-102914601D01*
X146485399Y-102914601D02*
X147000000Y-102400000D01*
X140356601Y-102914601D02*
X146485399Y-102914601D01*
X141818000Y-116033600D02*
X141818000Y-117036000D01*
X140484400Y-114700000D02*
X141818000Y-116033600D01*
X103455330Y-135800000D02*
X104803601Y-134451729D01*
X104803601Y-118961465D02*
X109065066Y-114700000D01*
X102500000Y-135800000D02*
X103455330Y-135800000D01*
X104803601Y-134451729D02*
X104803601Y-118961465D01*
X109065066Y-114700000D02*
X140484400Y-114700000D01*
X132199999Y-123552404D02*
X131800000Y-123952403D01*
X132281004Y-123471399D02*
X132199999Y-123552404D01*
X142871399Y-123471399D02*
X132281004Y-123471399D01*
X143500000Y-124100000D02*
X142871399Y-123471399D01*
X126959467Y-129153706D02*
X126559468Y-128753707D01*
X134605761Y-136800000D02*
X126959467Y-129153706D01*
X142700000Y-136800000D02*
X134605761Y-136800000D01*
X143500000Y-136000000D02*
X142700000Y-136800000D01*
X104428601Y-133896399D02*
X104175000Y-134150000D01*
X104428601Y-118905399D02*
X104428601Y-133896399D01*
X121498000Y-101836000D02*
X104428601Y-118905399D01*
X118108001Y-117885999D02*
X118958000Y-117036000D01*
X118108001Y-119022329D02*
X118108001Y-117885999D01*
X110565000Y-126565330D02*
X118108001Y-119022329D01*
X110565000Y-134430000D02*
X110565000Y-126565330D01*
X116428601Y-118248682D02*
X116428601Y-119271399D01*
X116418000Y-117036000D02*
X116418000Y-118238081D01*
X116418000Y-118238081D02*
X116428601Y-118248682D01*
X109295000Y-126405000D02*
X109295000Y-136970000D01*
X116428601Y-119271399D02*
X109295000Y-126405000D01*
D19*
G36*
X106773000Y-101026828D02*
G01*
X106773000Y-113773000D01*
X94027334Y-113773000D01*
X94030246Y-112662010D01*
X94701600Y-112662010D01*
X94701600Y-112785990D01*
X94725788Y-112907589D01*
X94773233Y-113022133D01*
X94842113Y-113125219D01*
X94929781Y-113212887D01*
X95032867Y-113281767D01*
X95147411Y-113329212D01*
X95269010Y-113353400D01*
X95392990Y-113353400D01*
X95514589Y-113329212D01*
X95629133Y-113281767D01*
X95732219Y-113212887D01*
X95819887Y-113125219D01*
X95888767Y-113022133D01*
X95936212Y-112907589D01*
X95960400Y-112785990D01*
X95960400Y-112678608D01*
X95962866Y-112691005D01*
X96006543Y-112796449D01*
X96069951Y-112891346D01*
X96150654Y-112972049D01*
X96245551Y-113035457D01*
X96350995Y-113079134D01*
X96462934Y-113101400D01*
X96577066Y-113101400D01*
X96689005Y-113079134D01*
X96794449Y-113035457D01*
X96889346Y-112972049D01*
X96970049Y-112891346D01*
X97033457Y-112796449D01*
X97077134Y-112691005D01*
X97099400Y-112579066D01*
X97099400Y-112464934D01*
X97098421Y-112460010D01*
X99065600Y-112460010D01*
X99065600Y-112583990D01*
X99089788Y-112705589D01*
X99137233Y-112820133D01*
X99206113Y-112923219D01*
X99293781Y-113010887D01*
X99396867Y-113079767D01*
X99511411Y-113127212D01*
X99633010Y-113151400D01*
X99756990Y-113151400D01*
X99878589Y-113127212D01*
X99993133Y-113079767D01*
X100096219Y-113010887D01*
X100183887Y-112923219D01*
X100252767Y-112820133D01*
X100300212Y-112705589D01*
X100324400Y-112583990D01*
X100324400Y-112460010D01*
X100300212Y-112338411D01*
X100252767Y-112223867D01*
X100183887Y-112120781D01*
X100096219Y-112033113D01*
X99993133Y-111964233D01*
X99878589Y-111916788D01*
X99756990Y-111892600D01*
X99633010Y-111892600D01*
X99511411Y-111916788D01*
X99396867Y-111964233D01*
X99293781Y-112033113D01*
X99206113Y-112120781D01*
X99137233Y-112223867D01*
X99089788Y-112338411D01*
X99065600Y-112460010D01*
X97098421Y-112460010D01*
X97077134Y-112352995D01*
X97033457Y-112247551D01*
X96970049Y-112152654D01*
X96889346Y-112071951D01*
X96794449Y-112008543D01*
X96689005Y-111964866D01*
X96577066Y-111942600D01*
X96462934Y-111942600D01*
X96350995Y-111964866D01*
X96245551Y-112008543D01*
X96150654Y-112071951D01*
X96069951Y-112152654D01*
X96006543Y-112247551D01*
X95962866Y-112352995D01*
X95940600Y-112464934D01*
X95940600Y-112562471D01*
X95936212Y-112540411D01*
X95888767Y-112425867D01*
X95819887Y-112322781D01*
X95732219Y-112235113D01*
X95629133Y-112166233D01*
X95514589Y-112118788D01*
X95392990Y-112094600D01*
X95269010Y-112094600D01*
X95147411Y-112118788D01*
X95032867Y-112166233D01*
X94929781Y-112235113D01*
X94842113Y-112322781D01*
X94773233Y-112425867D01*
X94725788Y-112540411D01*
X94701600Y-112662010D01*
X94030246Y-112662010D01*
X94035103Y-110809010D01*
X94239600Y-110809010D01*
X94239600Y-110932990D01*
X94263788Y-111054589D01*
X94311233Y-111169133D01*
X94380113Y-111272219D01*
X94467781Y-111359887D01*
X94570867Y-111428767D01*
X94685411Y-111476212D01*
X94807010Y-111500400D01*
X94930990Y-111500400D01*
X95052589Y-111476212D01*
X95167133Y-111428767D01*
X95270219Y-111359887D01*
X95357887Y-111272219D01*
X95426767Y-111169133D01*
X95474212Y-111054589D01*
X95498400Y-110932990D01*
X95498400Y-110809010D01*
X95474212Y-110687411D01*
X95426767Y-110572867D01*
X95357887Y-110469781D01*
X95270219Y-110382113D01*
X95167133Y-110313233D01*
X95149512Y-110305934D01*
X99242600Y-110305934D01*
X99242600Y-110420066D01*
X99264866Y-110532005D01*
X99308543Y-110637449D01*
X99371951Y-110732346D01*
X99452654Y-110813049D01*
X99547551Y-110876457D01*
X99652995Y-110920134D01*
X99764934Y-110942400D01*
X99879066Y-110942400D01*
X99991005Y-110920134D01*
X100096449Y-110876457D01*
X100191346Y-110813049D01*
X100272049Y-110732346D01*
X100335457Y-110637449D01*
X100379134Y-110532005D01*
X100401400Y-110420066D01*
X100401400Y-110305934D01*
X100379134Y-110193995D01*
X100335457Y-110088551D01*
X100272049Y-109993654D01*
X100191346Y-109912951D01*
X100096449Y-109849543D01*
X99991005Y-109805866D01*
X99926374Y-109793010D01*
X102367600Y-109793010D01*
X102367600Y-109916990D01*
X102391788Y-110038589D01*
X102439233Y-110153133D01*
X102508113Y-110256219D01*
X102595781Y-110343887D01*
X102698867Y-110412767D01*
X102813411Y-110460212D01*
X102935010Y-110484400D01*
X103058990Y-110484400D01*
X103180589Y-110460212D01*
X103295133Y-110412767D01*
X103398219Y-110343887D01*
X103485887Y-110256219D01*
X103554767Y-110153133D01*
X103602212Y-110038589D01*
X103626400Y-109916990D01*
X103626400Y-109793010D01*
X103602212Y-109671411D01*
X103554767Y-109556867D01*
X103485887Y-109453781D01*
X103398219Y-109366113D01*
X103295133Y-109297233D01*
X103180589Y-109249788D01*
X103071483Y-109228085D01*
X103795600Y-109228085D01*
X103795600Y-109361915D01*
X103821709Y-109493174D01*
X103872924Y-109616816D01*
X103947276Y-109728092D01*
X104041908Y-109822724D01*
X104153184Y-109897076D01*
X104276826Y-109948291D01*
X104408085Y-109974400D01*
X104541915Y-109974400D01*
X104673174Y-109948291D01*
X104796816Y-109897076D01*
X104908092Y-109822724D01*
X105002724Y-109728092D01*
X105077076Y-109616816D01*
X105128291Y-109493174D01*
X105154400Y-109361915D01*
X105154400Y-109228085D01*
X105128291Y-109096826D01*
X105077076Y-108973184D01*
X105002724Y-108861908D01*
X104908092Y-108767276D01*
X104796816Y-108692924D01*
X104673174Y-108641709D01*
X104541915Y-108615600D01*
X104408085Y-108615600D01*
X104276826Y-108641709D01*
X104153184Y-108692924D01*
X104041908Y-108767276D01*
X103947276Y-108861908D01*
X103872924Y-108973184D01*
X103821709Y-109096826D01*
X103795600Y-109228085D01*
X103071483Y-109228085D01*
X103058990Y-109225600D01*
X102935010Y-109225600D01*
X102813411Y-109249788D01*
X102698867Y-109297233D01*
X102595781Y-109366113D01*
X102508113Y-109453781D01*
X102439233Y-109556867D01*
X102391788Y-109671411D01*
X102367600Y-109793010D01*
X99926374Y-109793010D01*
X99879066Y-109783600D01*
X99764934Y-109783600D01*
X99652995Y-109805866D01*
X99547551Y-109849543D01*
X99452654Y-109912951D01*
X99371951Y-109993654D01*
X99308543Y-110088551D01*
X99264866Y-110193995D01*
X99242600Y-110305934D01*
X95149512Y-110305934D01*
X95052589Y-110265788D01*
X94930990Y-110241600D01*
X94807010Y-110241600D01*
X94685411Y-110265788D01*
X94570867Y-110313233D01*
X94467781Y-110382113D01*
X94380113Y-110469781D01*
X94311233Y-110572867D01*
X94263788Y-110687411D01*
X94239600Y-110809010D01*
X94035103Y-110809010D01*
X94053218Y-103898608D01*
X94870550Y-103898608D01*
X94870550Y-104101392D01*
X94910111Y-104300279D01*
X94987713Y-104487627D01*
X95100374Y-104656236D01*
X95243764Y-104799626D01*
X95412373Y-104912287D01*
X95599721Y-104989889D01*
X95798608Y-105029450D01*
X96001392Y-105029450D01*
X96119249Y-105006007D01*
X96119249Y-106700000D01*
X96124644Y-106754772D01*
X96140620Y-106807439D01*
X96166564Y-106855977D01*
X96201479Y-106898521D01*
X96244023Y-106933436D01*
X96292561Y-106959380D01*
X96345228Y-106975356D01*
X96400000Y-106980751D01*
X98200000Y-106980751D01*
X98254772Y-106975356D01*
X98307439Y-106959380D01*
X98355977Y-106933436D01*
X98398521Y-106898521D01*
X98433436Y-106855977D01*
X98459380Y-106807439D01*
X98475356Y-106754772D01*
X98480751Y-106700000D01*
X98480751Y-105683839D01*
X98660600Y-105683839D01*
X98660600Y-105916161D01*
X98705923Y-106144018D01*
X98794829Y-106358656D01*
X98923900Y-106551824D01*
X99088176Y-106716100D01*
X99281344Y-106845171D01*
X99495982Y-106934077D01*
X99723839Y-106979400D01*
X99956161Y-106979400D01*
X100184018Y-106934077D01*
X100398656Y-106845171D01*
X100591824Y-106716100D01*
X100634646Y-106673278D01*
X101686327Y-106673278D01*
X101790168Y-106827899D01*
X102002034Y-106923218D01*
X102228426Y-106975373D01*
X102460643Y-106982359D01*
X102689760Y-106943907D01*
X102906973Y-106861497D01*
X102969832Y-106827899D01*
X103073673Y-106673278D01*
X102380000Y-105979605D01*
X101686327Y-106673278D01*
X100634646Y-106673278D01*
X100756100Y-106551824D01*
X100885171Y-106358656D01*
X100974077Y-106144018D01*
X101019400Y-105916161D01*
X101019400Y-105880643D01*
X101197641Y-105880643D01*
X101236093Y-106109760D01*
X101318503Y-106326973D01*
X101352101Y-106389832D01*
X101506722Y-106493673D01*
X102200395Y-105800000D01*
X102559605Y-105800000D01*
X103253278Y-106493673D01*
X103407899Y-106389832D01*
X103503218Y-106177966D01*
X103555373Y-105951574D01*
X103562359Y-105719357D01*
X103523907Y-105490240D01*
X103441497Y-105273027D01*
X103407899Y-105210168D01*
X103253278Y-105106327D01*
X102559605Y-105800000D01*
X102200395Y-105800000D01*
X101506722Y-105106327D01*
X101352101Y-105210168D01*
X101256782Y-105422034D01*
X101204627Y-105648426D01*
X101197641Y-105880643D01*
X101019400Y-105880643D01*
X101019400Y-105683839D01*
X100974077Y-105455982D01*
X100885171Y-105241344D01*
X100756100Y-105048176D01*
X100634646Y-104926722D01*
X101686327Y-104926722D01*
X102380000Y-105620395D01*
X103073673Y-104926722D01*
X102969832Y-104772101D01*
X102757966Y-104676782D01*
X102531574Y-104624627D01*
X102299357Y-104617641D01*
X102070240Y-104656093D01*
X101853027Y-104738503D01*
X101790168Y-104772101D01*
X101686327Y-104926722D01*
X100634646Y-104926722D01*
X100591824Y-104883900D01*
X100398656Y-104754829D01*
X100184018Y-104665923D01*
X99956161Y-104620600D01*
X99723839Y-104620600D01*
X99495982Y-104665923D01*
X99281344Y-104754829D01*
X99088176Y-104883900D01*
X98923900Y-105048176D01*
X98794829Y-105241344D01*
X98705923Y-105455982D01*
X98660600Y-105683839D01*
X98480751Y-105683839D01*
X98480751Y-104900000D01*
X98475356Y-104845228D01*
X98459380Y-104792561D01*
X98433436Y-104744023D01*
X98398521Y-104701479D01*
X98355977Y-104666564D01*
X98307439Y-104640620D01*
X98254772Y-104624644D01*
X98200000Y-104619249D01*
X96724340Y-104619249D01*
X96812287Y-104487627D01*
X96889889Y-104300279D01*
X96929450Y-104101392D01*
X96929450Y-103898608D01*
X96889889Y-103699721D01*
X96812287Y-103512373D01*
X96699626Y-103343764D01*
X96556236Y-103200374D01*
X96471626Y-103143839D01*
X97390600Y-103143839D01*
X97390600Y-103376161D01*
X97435923Y-103604018D01*
X97524829Y-103818656D01*
X97653900Y-104011824D01*
X97818176Y-104176100D01*
X98011344Y-104305171D01*
X98225982Y-104394077D01*
X98453839Y-104439400D01*
X98686161Y-104439400D01*
X98914018Y-104394077D01*
X99128656Y-104305171D01*
X99321824Y-104176100D01*
X99486100Y-104011824D01*
X99615171Y-103818656D01*
X99704077Y-103604018D01*
X99749400Y-103376161D01*
X99749400Y-103143839D01*
X99930600Y-103143839D01*
X99930600Y-103376161D01*
X99975923Y-103604018D01*
X100064829Y-103818656D01*
X100193900Y-104011824D01*
X100358176Y-104176100D01*
X100551344Y-104305171D01*
X100765982Y-104394077D01*
X100993839Y-104439400D01*
X101226161Y-104439400D01*
X101454018Y-104394077D01*
X101668656Y-104305171D01*
X101861824Y-104176100D01*
X102026100Y-104011824D01*
X102155171Y-103818656D01*
X102244077Y-103604018D01*
X102289400Y-103376161D01*
X102289400Y-103143839D01*
X102470600Y-103143839D01*
X102470600Y-103376161D01*
X102515923Y-103604018D01*
X102604829Y-103818656D01*
X102733900Y-104011824D01*
X102898176Y-104176100D01*
X103091344Y-104305171D01*
X103305982Y-104394077D01*
X103533839Y-104439400D01*
X103766161Y-104439400D01*
X103994018Y-104394077D01*
X104208656Y-104305171D01*
X104401824Y-104176100D01*
X104566100Y-104011824D01*
X104695171Y-103818656D01*
X104784077Y-103604018D01*
X104829400Y-103376161D01*
X104829400Y-103143839D01*
X104784077Y-102915982D01*
X104695171Y-102701344D01*
X104566100Y-102508176D01*
X104401824Y-102343900D01*
X104208656Y-102214829D01*
X103994018Y-102125923D01*
X103766161Y-102080600D01*
X103533839Y-102080600D01*
X103305982Y-102125923D01*
X103091344Y-102214829D01*
X102898176Y-102343900D01*
X102733900Y-102508176D01*
X102604829Y-102701344D01*
X102515923Y-102915982D01*
X102470600Y-103143839D01*
X102289400Y-103143839D01*
X102244077Y-102915982D01*
X102155171Y-102701344D01*
X102026100Y-102508176D01*
X101861824Y-102343900D01*
X101668656Y-102214829D01*
X101454018Y-102125923D01*
X101226161Y-102080600D01*
X100993839Y-102080600D01*
X100765982Y-102125923D01*
X100551344Y-102214829D01*
X100358176Y-102343900D01*
X100193900Y-102508176D01*
X100064829Y-102701344D01*
X99975923Y-102915982D01*
X99930600Y-103143839D01*
X99749400Y-103143839D01*
X99704077Y-102915982D01*
X99615171Y-102701344D01*
X99486100Y-102508176D01*
X99321824Y-102343900D01*
X99128656Y-102214829D01*
X98914018Y-102125923D01*
X98686161Y-102080600D01*
X98453839Y-102080600D01*
X98225982Y-102125923D01*
X98011344Y-102214829D01*
X97818176Y-102343900D01*
X97653900Y-102508176D01*
X97524829Y-102701344D01*
X97435923Y-102915982D01*
X97390600Y-103143839D01*
X96471626Y-103143839D01*
X96387627Y-103087713D01*
X96200279Y-103010111D01*
X96001392Y-102970550D01*
X95798608Y-102970550D01*
X95599721Y-103010111D01*
X95412373Y-103087713D01*
X95243764Y-103200374D01*
X95100374Y-103343764D01*
X94987713Y-103512373D01*
X94910111Y-103699721D01*
X94870550Y-103898608D01*
X94053218Y-103898608D01*
X94060792Y-101009547D01*
X106773000Y-101026828D01*
X106773000Y-101026828D01*
G37*
X106773000Y-101026828D02*
X106773000Y-113773000D01*
X94027334Y-113773000D01*
X94030246Y-112662010D01*
X94701600Y-112662010D01*
X94701600Y-112785990D01*
X94725788Y-112907589D01*
X94773233Y-113022133D01*
X94842113Y-113125219D01*
X94929781Y-113212887D01*
X95032867Y-113281767D01*
X95147411Y-113329212D01*
X95269010Y-113353400D01*
X95392990Y-113353400D01*
X95514589Y-113329212D01*
X95629133Y-113281767D01*
X95732219Y-113212887D01*
X95819887Y-113125219D01*
X95888767Y-113022133D01*
X95936212Y-112907589D01*
X95960400Y-112785990D01*
X95960400Y-112678608D01*
X95962866Y-112691005D01*
X96006543Y-112796449D01*
X96069951Y-112891346D01*
X96150654Y-112972049D01*
X96245551Y-113035457D01*
X96350995Y-113079134D01*
X96462934Y-113101400D01*
X96577066Y-113101400D01*
X96689005Y-113079134D01*
X96794449Y-113035457D01*
X96889346Y-112972049D01*
X96970049Y-112891346D01*
X97033457Y-112796449D01*
X97077134Y-112691005D01*
X97099400Y-112579066D01*
X97099400Y-112464934D01*
X97098421Y-112460010D01*
X99065600Y-112460010D01*
X99065600Y-112583990D01*
X99089788Y-112705589D01*
X99137233Y-112820133D01*
X99206113Y-112923219D01*
X99293781Y-113010887D01*
X99396867Y-113079767D01*
X99511411Y-113127212D01*
X99633010Y-113151400D01*
X99756990Y-113151400D01*
X99878589Y-113127212D01*
X99993133Y-113079767D01*
X100096219Y-113010887D01*
X100183887Y-112923219D01*
X100252767Y-112820133D01*
X100300212Y-112705589D01*
X100324400Y-112583990D01*
X100324400Y-112460010D01*
X100300212Y-112338411D01*
X100252767Y-112223867D01*
X100183887Y-112120781D01*
X100096219Y-112033113D01*
X99993133Y-111964233D01*
X99878589Y-111916788D01*
X99756990Y-111892600D01*
X99633010Y-111892600D01*
X99511411Y-111916788D01*
X99396867Y-111964233D01*
X99293781Y-112033113D01*
X99206113Y-112120781D01*
X99137233Y-112223867D01*
X99089788Y-112338411D01*
X99065600Y-112460010D01*
X97098421Y-112460010D01*
X97077134Y-112352995D01*
X97033457Y-112247551D01*
X96970049Y-112152654D01*
X96889346Y-112071951D01*
X96794449Y-112008543D01*
X96689005Y-111964866D01*
X96577066Y-111942600D01*
X96462934Y-111942600D01*
X96350995Y-111964866D01*
X96245551Y-112008543D01*
X96150654Y-112071951D01*
X96069951Y-112152654D01*
X96006543Y-112247551D01*
X95962866Y-112352995D01*
X95940600Y-112464934D01*
X95940600Y-112562471D01*
X95936212Y-112540411D01*
X95888767Y-112425867D01*
X95819887Y-112322781D01*
X95732219Y-112235113D01*
X95629133Y-112166233D01*
X95514589Y-112118788D01*
X95392990Y-112094600D01*
X95269010Y-112094600D01*
X95147411Y-112118788D01*
X95032867Y-112166233D01*
X94929781Y-112235113D01*
X94842113Y-112322781D01*
X94773233Y-112425867D01*
X94725788Y-112540411D01*
X94701600Y-112662010D01*
X94030246Y-112662010D01*
X94035103Y-110809010D01*
X94239600Y-110809010D01*
X94239600Y-110932990D01*
X94263788Y-111054589D01*
X94311233Y-111169133D01*
X94380113Y-111272219D01*
X94467781Y-111359887D01*
X94570867Y-111428767D01*
X94685411Y-111476212D01*
X94807010Y-111500400D01*
X94930990Y-111500400D01*
X95052589Y-111476212D01*
X95167133Y-111428767D01*
X95270219Y-111359887D01*
X95357887Y-111272219D01*
X95426767Y-111169133D01*
X95474212Y-111054589D01*
X95498400Y-110932990D01*
X95498400Y-110809010D01*
X95474212Y-110687411D01*
X95426767Y-110572867D01*
X95357887Y-110469781D01*
X95270219Y-110382113D01*
X95167133Y-110313233D01*
X95149512Y-110305934D01*
X99242600Y-110305934D01*
X99242600Y-110420066D01*
X99264866Y-110532005D01*
X99308543Y-110637449D01*
X99371951Y-110732346D01*
X99452654Y-110813049D01*
X99547551Y-110876457D01*
X99652995Y-110920134D01*
X99764934Y-110942400D01*
X99879066Y-110942400D01*
X99991005Y-110920134D01*
X100096449Y-110876457D01*
X100191346Y-110813049D01*
X100272049Y-110732346D01*
X100335457Y-110637449D01*
X100379134Y-110532005D01*
X100401400Y-110420066D01*
X100401400Y-110305934D01*
X100379134Y-110193995D01*
X100335457Y-110088551D01*
X100272049Y-109993654D01*
X100191346Y-109912951D01*
X100096449Y-109849543D01*
X99991005Y-109805866D01*
X99926374Y-109793010D01*
X102367600Y-109793010D01*
X102367600Y-109916990D01*
X102391788Y-110038589D01*
X102439233Y-110153133D01*
X102508113Y-110256219D01*
X102595781Y-110343887D01*
X102698867Y-110412767D01*
X102813411Y-110460212D01*
X102935010Y-110484400D01*
X103058990Y-110484400D01*
X103180589Y-110460212D01*
X103295133Y-110412767D01*
X103398219Y-110343887D01*
X103485887Y-110256219D01*
X103554767Y-110153133D01*
X103602212Y-110038589D01*
X103626400Y-109916990D01*
X103626400Y-109793010D01*
X103602212Y-109671411D01*
X103554767Y-109556867D01*
X103485887Y-109453781D01*
X103398219Y-109366113D01*
X103295133Y-109297233D01*
X103180589Y-109249788D01*
X103071483Y-109228085D01*
X103795600Y-109228085D01*
X103795600Y-109361915D01*
X103821709Y-109493174D01*
X103872924Y-109616816D01*
X103947276Y-109728092D01*
X104041908Y-109822724D01*
X104153184Y-109897076D01*
X104276826Y-109948291D01*
X104408085Y-109974400D01*
X104541915Y-109974400D01*
X104673174Y-109948291D01*
X104796816Y-109897076D01*
X104908092Y-109822724D01*
X105002724Y-109728092D01*
X105077076Y-109616816D01*
X105128291Y-109493174D01*
X105154400Y-109361915D01*
X105154400Y-109228085D01*
X105128291Y-109096826D01*
X105077076Y-108973184D01*
X105002724Y-108861908D01*
X104908092Y-108767276D01*
X104796816Y-108692924D01*
X104673174Y-108641709D01*
X104541915Y-108615600D01*
X104408085Y-108615600D01*
X104276826Y-108641709D01*
X104153184Y-108692924D01*
X104041908Y-108767276D01*
X103947276Y-108861908D01*
X103872924Y-108973184D01*
X103821709Y-109096826D01*
X103795600Y-109228085D01*
X103071483Y-109228085D01*
X103058990Y-109225600D01*
X102935010Y-109225600D01*
X102813411Y-109249788D01*
X102698867Y-109297233D01*
X102595781Y-109366113D01*
X102508113Y-109453781D01*
X102439233Y-109556867D01*
X102391788Y-109671411D01*
X102367600Y-109793010D01*
X99926374Y-109793010D01*
X99879066Y-109783600D01*
X99764934Y-109783600D01*
X99652995Y-109805866D01*
X99547551Y-109849543D01*
X99452654Y-109912951D01*
X99371951Y-109993654D01*
X99308543Y-110088551D01*
X99264866Y-110193995D01*
X99242600Y-110305934D01*
X95149512Y-110305934D01*
X95052589Y-110265788D01*
X94930990Y-110241600D01*
X94807010Y-110241600D01*
X94685411Y-110265788D01*
X94570867Y-110313233D01*
X94467781Y-110382113D01*
X94380113Y-110469781D01*
X94311233Y-110572867D01*
X94263788Y-110687411D01*
X94239600Y-110809010D01*
X94035103Y-110809010D01*
X94053218Y-103898608D01*
X94870550Y-103898608D01*
X94870550Y-104101392D01*
X94910111Y-104300279D01*
X94987713Y-104487627D01*
X95100374Y-104656236D01*
X95243764Y-104799626D01*
X95412373Y-104912287D01*
X95599721Y-104989889D01*
X95798608Y-105029450D01*
X96001392Y-105029450D01*
X96119249Y-105006007D01*
X96119249Y-106700000D01*
X96124644Y-106754772D01*
X96140620Y-106807439D01*
X96166564Y-106855977D01*
X96201479Y-106898521D01*
X96244023Y-106933436D01*
X96292561Y-106959380D01*
X96345228Y-106975356D01*
X96400000Y-106980751D01*
X98200000Y-106980751D01*
X98254772Y-106975356D01*
X98307439Y-106959380D01*
X98355977Y-106933436D01*
X98398521Y-106898521D01*
X98433436Y-106855977D01*
X98459380Y-106807439D01*
X98475356Y-106754772D01*
X98480751Y-106700000D01*
X98480751Y-105683839D01*
X98660600Y-105683839D01*
X98660600Y-105916161D01*
X98705923Y-106144018D01*
X98794829Y-106358656D01*
X98923900Y-106551824D01*
X99088176Y-106716100D01*
X99281344Y-106845171D01*
X99495982Y-106934077D01*
X99723839Y-106979400D01*
X99956161Y-106979400D01*
X100184018Y-106934077D01*
X100398656Y-106845171D01*
X100591824Y-106716100D01*
X100634646Y-106673278D01*
X101686327Y-106673278D01*
X101790168Y-106827899D01*
X102002034Y-106923218D01*
X102228426Y-106975373D01*
X102460643Y-106982359D01*
X102689760Y-106943907D01*
X102906973Y-106861497D01*
X102969832Y-106827899D01*
X103073673Y-106673278D01*
X102380000Y-105979605D01*
X101686327Y-106673278D01*
X100634646Y-106673278D01*
X100756100Y-106551824D01*
X100885171Y-106358656D01*
X100974077Y-106144018D01*
X101019400Y-105916161D01*
X101019400Y-105880643D01*
X101197641Y-105880643D01*
X101236093Y-106109760D01*
X101318503Y-106326973D01*
X101352101Y-106389832D01*
X101506722Y-106493673D01*
X102200395Y-105800000D01*
X102559605Y-105800000D01*
X103253278Y-106493673D01*
X103407899Y-106389832D01*
X103503218Y-106177966D01*
X103555373Y-105951574D01*
X103562359Y-105719357D01*
X103523907Y-105490240D01*
X103441497Y-105273027D01*
X103407899Y-105210168D01*
X103253278Y-105106327D01*
X102559605Y-105800000D01*
X102200395Y-105800000D01*
X101506722Y-105106327D01*
X101352101Y-105210168D01*
X101256782Y-105422034D01*
X101204627Y-105648426D01*
X101197641Y-105880643D01*
X101019400Y-105880643D01*
X101019400Y-105683839D01*
X100974077Y-105455982D01*
X100885171Y-105241344D01*
X100756100Y-105048176D01*
X100634646Y-104926722D01*
X101686327Y-104926722D01*
X102380000Y-105620395D01*
X103073673Y-104926722D01*
X102969832Y-104772101D01*
X102757966Y-104676782D01*
X102531574Y-104624627D01*
X102299357Y-104617641D01*
X102070240Y-104656093D01*
X101853027Y-104738503D01*
X101790168Y-104772101D01*
X101686327Y-104926722D01*
X100634646Y-104926722D01*
X100591824Y-104883900D01*
X100398656Y-104754829D01*
X100184018Y-104665923D01*
X99956161Y-104620600D01*
X99723839Y-104620600D01*
X99495982Y-104665923D01*
X99281344Y-104754829D01*
X99088176Y-104883900D01*
X98923900Y-105048176D01*
X98794829Y-105241344D01*
X98705923Y-105455982D01*
X98660600Y-105683839D01*
X98480751Y-105683839D01*
X98480751Y-104900000D01*
X98475356Y-104845228D01*
X98459380Y-104792561D01*
X98433436Y-104744023D01*
X98398521Y-104701479D01*
X98355977Y-104666564D01*
X98307439Y-104640620D01*
X98254772Y-104624644D01*
X98200000Y-104619249D01*
X96724340Y-104619249D01*
X96812287Y-104487627D01*
X96889889Y-104300279D01*
X96929450Y-104101392D01*
X96929450Y-103898608D01*
X96889889Y-103699721D01*
X96812287Y-103512373D01*
X96699626Y-103343764D01*
X96556236Y-103200374D01*
X96471626Y-103143839D01*
X97390600Y-103143839D01*
X97390600Y-103376161D01*
X97435923Y-103604018D01*
X97524829Y-103818656D01*
X97653900Y-104011824D01*
X97818176Y-104176100D01*
X98011344Y-104305171D01*
X98225982Y-104394077D01*
X98453839Y-104439400D01*
X98686161Y-104439400D01*
X98914018Y-104394077D01*
X99128656Y-104305171D01*
X99321824Y-104176100D01*
X99486100Y-104011824D01*
X99615171Y-103818656D01*
X99704077Y-103604018D01*
X99749400Y-103376161D01*
X99749400Y-103143839D01*
X99930600Y-103143839D01*
X99930600Y-103376161D01*
X99975923Y-103604018D01*
X100064829Y-103818656D01*
X100193900Y-104011824D01*
X100358176Y-104176100D01*
X100551344Y-104305171D01*
X100765982Y-104394077D01*
X100993839Y-104439400D01*
X101226161Y-104439400D01*
X101454018Y-104394077D01*
X101668656Y-104305171D01*
X101861824Y-104176100D01*
X102026100Y-104011824D01*
X102155171Y-103818656D01*
X102244077Y-103604018D01*
X102289400Y-103376161D01*
X102289400Y-103143839D01*
X102470600Y-103143839D01*
X102470600Y-103376161D01*
X102515923Y-103604018D01*
X102604829Y-103818656D01*
X102733900Y-104011824D01*
X102898176Y-104176100D01*
X103091344Y-104305171D01*
X103305982Y-104394077D01*
X103533839Y-104439400D01*
X103766161Y-104439400D01*
X103994018Y-104394077D01*
X104208656Y-104305171D01*
X104401824Y-104176100D01*
X104566100Y-104011824D01*
X104695171Y-103818656D01*
X104784077Y-103604018D01*
X104829400Y-103376161D01*
X104829400Y-103143839D01*
X104784077Y-102915982D01*
X104695171Y-102701344D01*
X104566100Y-102508176D01*
X104401824Y-102343900D01*
X104208656Y-102214829D01*
X103994018Y-102125923D01*
X103766161Y-102080600D01*
X103533839Y-102080600D01*
X103305982Y-102125923D01*
X103091344Y-102214829D01*
X102898176Y-102343900D01*
X102733900Y-102508176D01*
X102604829Y-102701344D01*
X102515923Y-102915982D01*
X102470600Y-103143839D01*
X102289400Y-103143839D01*
X102244077Y-102915982D01*
X102155171Y-102701344D01*
X102026100Y-102508176D01*
X101861824Y-102343900D01*
X101668656Y-102214829D01*
X101454018Y-102125923D01*
X101226161Y-102080600D01*
X100993839Y-102080600D01*
X100765982Y-102125923D01*
X100551344Y-102214829D01*
X100358176Y-102343900D01*
X100193900Y-102508176D01*
X100064829Y-102701344D01*
X99975923Y-102915982D01*
X99930600Y-103143839D01*
X99749400Y-103143839D01*
X99704077Y-102915982D01*
X99615171Y-102701344D01*
X99486100Y-102508176D01*
X99321824Y-102343900D01*
X99128656Y-102214829D01*
X98914018Y-102125923D01*
X98686161Y-102080600D01*
X98453839Y-102080600D01*
X98225982Y-102125923D01*
X98011344Y-102214829D01*
X97818176Y-102343900D01*
X97653900Y-102508176D01*
X97524829Y-102701344D01*
X97435923Y-102915982D01*
X97390600Y-103143839D01*
X96471626Y-103143839D01*
X96387627Y-103087713D01*
X96200279Y-103010111D01*
X96001392Y-102970550D01*
X95798608Y-102970550D01*
X95599721Y-103010111D01*
X95412373Y-103087713D01*
X95243764Y-103200374D01*
X95100374Y-103343764D01*
X94987713Y-103512373D01*
X94910111Y-103699721D01*
X94870550Y-103898608D01*
X94053218Y-103898608D01*
X94060792Y-101009547D01*
X106773000Y-101026828D01*
M02*
