G04 #@! TF.GenerationSoftware,KiCad,Pcbnew,5.1.3-ffb9f22~84~ubuntu18.04.1*
G04 #@! TF.CreationDate,2019-10-12T08:12:31-07:00*
G04 #@! TF.ProjectId,board,626f6172-642e-46b6-9963-61645f706362,rev?*
G04 #@! TF.SameCoordinates,Original*
G04 #@! TF.FileFunction,Copper,L2,Inr*
G04 #@! TF.FilePolarity,Positive*
%FSLAX46Y46*%
G04 Gerber Fmt 4.6, Leading zero omitted, Abs format (unit mm)*
G04 Created by KiCad (PCBNEW 5.1.3-ffb9f22~84~ubuntu18.04.1) date 2019-10-12 08:12:31*
%MOMM*%
%LPD*%
G04 APERTURE LIST*
%ADD10O,1.700000X1.700000*%
%ADD11R,1.700000X1.700000*%
%ADD12C,1.800000*%
%ADD13R,1.800000X1.800000*%
%ADD14C,0.800000*%
%ADD15C,0.600000*%
%ADD16C,0.700000*%
%ADD17C,0.152400*%
%ADD18C,0.177800*%
G04 APERTURE END LIST*
D10*
X108798000Y-101836000D03*
X111338000Y-101836000D03*
X113878000Y-101836000D03*
X116418000Y-101836000D03*
X118958000Y-101836000D03*
X121498000Y-101836000D03*
X124038000Y-101836000D03*
X126578000Y-101836000D03*
X129118000Y-101836000D03*
X131658000Y-101836000D03*
X134198000Y-101836000D03*
X136738000Y-101836000D03*
X139278000Y-101836000D03*
D11*
X141818000Y-101836000D03*
X141818000Y-117036000D03*
D10*
X139278000Y-117036000D03*
X136738000Y-117036000D03*
X134198000Y-117036000D03*
X131658000Y-117036000D03*
X129118000Y-117036000D03*
X126578000Y-117036000D03*
X124038000Y-117036000D03*
X121498000Y-117036000D03*
X118958000Y-117036000D03*
X116418000Y-117036000D03*
X113878000Y-117036000D03*
X111338000Y-117036000D03*
X108798000Y-117036000D03*
X150977600Y-119329200D03*
X150977600Y-121869200D03*
X150977600Y-124409200D03*
X150977600Y-126949200D03*
X150977600Y-129489200D03*
X150977600Y-132029200D03*
X150977600Y-134569200D03*
D11*
X150977600Y-137109200D03*
D12*
X103650000Y-103260000D03*
X102380000Y-105800000D03*
D13*
X97300000Y-105800000D03*
D12*
X98570000Y-103260000D03*
X99840000Y-105800000D03*
X101110000Y-103260000D03*
D13*
X109295000Y-137120000D03*
D12*
X110565000Y-134580000D03*
X111835000Y-137120000D03*
X113105000Y-134580000D03*
D14*
X115500000Y-128200000D03*
D15*
X121031000Y-121412000D03*
X121920000Y-118745000D03*
D14*
X117300000Y-118900000D03*
X121793000Y-120142000D03*
X115800000Y-119000000D03*
X121793000Y-124396500D03*
X144600000Y-101500000D03*
X148444798Y-102600000D03*
X151300000Y-100577400D03*
X112100000Y-122400000D03*
X102800000Y-116100000D03*
X141595194Y-124100000D03*
D15*
X131800000Y-123000000D03*
D14*
X142547597Y-124100000D03*
D15*
X130492500Y-124079000D03*
D16*
X142500000Y-130000000D03*
D15*
X129159000Y-125984000D03*
D16*
X141547597Y-130000000D03*
D15*
X130683000Y-126619000D03*
D14*
X141595194Y-136000000D03*
D15*
X126052638Y-127947362D03*
D14*
X142547597Y-136000000D03*
D15*
X124992985Y-128707015D03*
D16*
X94869000Y-110871000D03*
X102997000Y-109855000D03*
X99695000Y-112522000D03*
D14*
X133333500Y-119961500D03*
X133079500Y-132153500D03*
X128912000Y-119311000D03*
X141400000Y-121600000D03*
X140500000Y-121600000D03*
X140500000Y-122400000D03*
X141400000Y-120800000D03*
X141400000Y-122400000D03*
X141300000Y-127700000D03*
X140400000Y-127700000D03*
D16*
X140400000Y-128500000D03*
D14*
X140400000Y-126900000D03*
X141300000Y-126900000D03*
D16*
X141300000Y-128500000D03*
D14*
X141300000Y-133700000D03*
X140450000Y-133700000D03*
X140450000Y-134500000D03*
X140450000Y-132900000D03*
X100300000Y-129500000D03*
X101200000Y-129500000D03*
X102100000Y-129500000D03*
X103000000Y-129500000D03*
X100800000Y-130300000D03*
X101700000Y-130300000D03*
X102600000Y-130300000D03*
X103500000Y-130300000D03*
X100400000Y-131100000D03*
X101300000Y-131100000D03*
X102200000Y-131100000D03*
X103100000Y-131100000D03*
X100800000Y-131900000D03*
X101700000Y-131900000D03*
X102600000Y-131900000D03*
X103500000Y-131900000D03*
X141300000Y-132900000D03*
X141300000Y-134500000D03*
X93600000Y-123600000D03*
X121100000Y-122700000D03*
X122555000Y-119507000D03*
X122792500Y-126692500D03*
X152422600Y-104400000D03*
X105900000Y-136502400D03*
X140500000Y-120800000D03*
X129667000Y-124587000D03*
D15*
X99822000Y-110363000D03*
X96520000Y-112522000D03*
D14*
X147000000Y-102400000D03*
X149600000Y-100577400D03*
X148444798Y-103700000D03*
X152422600Y-106800000D03*
X102500000Y-135800000D03*
X94300000Y-135800000D03*
X98300000Y-136100000D03*
X141900000Y-107950000D03*
X143500000Y-124100000D03*
D15*
X131800000Y-123952403D03*
D16*
X143500000Y-130000000D03*
D15*
X130556000Y-125095000D03*
D14*
X143500000Y-136000000D03*
D15*
X126559468Y-128753707D03*
D14*
X150000000Y-116500000D03*
X148600000Y-116500000D03*
X147300000Y-116500000D03*
X146000000Y-116500000D03*
D15*
X101409500Y-107315000D03*
X101876000Y-108760000D03*
X102511000Y-108760000D03*
X102171500Y-107315000D03*
X102933500Y-107315000D03*
X103695500Y-107124500D03*
X104267000Y-106680000D03*
X104838500Y-106108500D03*
X105283000Y-105473500D03*
D14*
X104175000Y-134150000D03*
X137166671Y-109950066D03*
X137100000Y-109000000D03*
X137500000Y-106100000D03*
D16*
X95331000Y-112724000D03*
D14*
X104475000Y-109295000D03*
X100800000Y-127700000D03*
X101700000Y-127700000D03*
X102600000Y-127700000D03*
X103500000Y-127700000D03*
X100400000Y-125300000D03*
X101300000Y-125300000D03*
X102200000Y-125300000D03*
X103100000Y-125300000D03*
X100800000Y-126100000D03*
X101700000Y-126100000D03*
X102600000Y-126100000D03*
X103500000Y-126100000D03*
X100400000Y-126900000D03*
X101300000Y-126900000D03*
X102200000Y-126900000D03*
X103100000Y-126900000D03*
X100400000Y-128500000D03*
X101300000Y-128500000D03*
X102200000Y-128500000D03*
X103100000Y-128500000D03*
D17*
X116600000Y-119800000D02*
X115800000Y-119000000D01*
X112100000Y-122400000D02*
X109100000Y-122400000D01*
X109100000Y-122400000D02*
X102800000Y-116100000D01*
X135888001Y-117885999D02*
X136738000Y-117036000D01*
X135659399Y-118114601D02*
X135888001Y-117885999D01*
X124385399Y-118114601D02*
X124464601Y-118114601D01*
X124464601Y-118114601D02*
X135659399Y-118114601D01*
X121768069Y-118114601D02*
X123566399Y-118114601D01*
X123358528Y-118114601D02*
X123566399Y-118114601D01*
X123566399Y-118114601D02*
X124464601Y-118114601D01*
X121280399Y-118114601D02*
X119595000Y-119800000D01*
X121768069Y-118114601D02*
X121280399Y-118114601D01*
X119595000Y-119800000D02*
X116600000Y-119800000D01*
X121793000Y-120269000D02*
X121920000Y-120142000D01*
X121793000Y-124333000D02*
X121793000Y-120269000D01*
D18*
X141595194Y-124100000D02*
X132900000Y-124100000D01*
X132900000Y-124100000D02*
X131800000Y-123000000D01*
D17*
X131253911Y-124649911D02*
X130556000Y-123952000D01*
X139949911Y-124649911D02*
X131253911Y-124649911D01*
D18*
X140041301Y-124741301D02*
X139949911Y-124649911D01*
X141903019Y-124741301D02*
X140041301Y-124741301D01*
X142547597Y-124100000D02*
X142544320Y-124100000D01*
X142544320Y-124100000D02*
X141903019Y-124741301D01*
X142422723Y-130000000D02*
X142500000Y-130000000D01*
X132143508Y-126682508D02*
X135064508Y-126682508D01*
X135064508Y-126682508D02*
X137790699Y-129408699D01*
X141831422Y-129408699D02*
X142422723Y-130000000D01*
X137790699Y-129408699D02*
X141831422Y-129408699D01*
X131445000Y-125984000D02*
X129159000Y-125984000D01*
X131826000Y-126365000D02*
X131445000Y-125984000D01*
X131826000Y-126365000D02*
X132143508Y-126682508D01*
X131572000Y-126111000D02*
X131826000Y-126365000D01*
X141547597Y-130000000D02*
X137915014Y-130000000D01*
X137915014Y-130000000D02*
X135847007Y-127931993D01*
X135847007Y-127931993D02*
X135668409Y-127753395D01*
X135529507Y-127614493D02*
X135847007Y-127931993D01*
X134927732Y-127012718D02*
X135529507Y-127614493D01*
X132006732Y-127012718D02*
X134927732Y-127012718D01*
X131613014Y-126619000D02*
X132006732Y-127012718D01*
X130683000Y-126619000D02*
X131613014Y-126619000D01*
X126618323Y-127947362D02*
X126052638Y-127947362D01*
X126702249Y-127947362D02*
X126618323Y-127947362D01*
X134754887Y-136000000D02*
X126702249Y-127947362D01*
X141595194Y-136000000D02*
X134754887Y-136000000D01*
X142147598Y-136399999D02*
X142547597Y-136000000D01*
X141906296Y-136641301D02*
X142147598Y-136399999D01*
X133492956Y-136641301D02*
X141906296Y-136641301D01*
X125558670Y-128707015D02*
X133492956Y-136641301D01*
X124992985Y-128707015D02*
X125558670Y-128707015D01*
D17*
X113105000Y-133307208D02*
X111297792Y-131500000D01*
X113105000Y-134580000D02*
X113105000Y-133307208D01*
X111297792Y-131500000D02*
X109900000Y-131500000D01*
X109900000Y-131500000D02*
X108600000Y-130200000D01*
X108600000Y-130200000D02*
X108600000Y-124800000D01*
X107400000Y-123600000D02*
X93600000Y-123600000D01*
X108600000Y-124800000D02*
X107400000Y-123600000D01*
X129667000Y-120066000D02*
X128912000Y-119311000D01*
X129667000Y-124587000D02*
X129667000Y-120066000D01*
X124898000Y-124587000D02*
X122792500Y-126692500D01*
X129667000Y-124587000D02*
X124898000Y-124587000D01*
X94519001Y-111220999D02*
X94869000Y-110871000D01*
X94519001Y-112768331D02*
X94519001Y-111220999D01*
X95129479Y-113378809D02*
X94519001Y-112768331D01*
X98343217Y-113378809D02*
X95129479Y-113378809D01*
X99200026Y-112522000D02*
X98343217Y-113378809D01*
X99695000Y-112522000D02*
X99200026Y-112522000D01*
X150977600Y-121869200D02*
X150127601Y-121019201D01*
X148343749Y-121019201D02*
X142519738Y-115195190D01*
X150127601Y-121019201D02*
X148343749Y-121019201D01*
X132895190Y-115195190D02*
X129422810Y-111722810D01*
X142519738Y-115195190D02*
X132895190Y-115195190D01*
X129422810Y-104071190D02*
X131658000Y-101836000D01*
X129422810Y-111722810D02*
X129422810Y-104071190D01*
X129118000Y-111918000D02*
X129118000Y-101836000D01*
X132700000Y-115500000D02*
X129118000Y-111918000D01*
X142393482Y-115500000D02*
X132700000Y-115500000D01*
X150127601Y-123559201D02*
X150977600Y-124409200D01*
X150127601Y-123234119D02*
X150127601Y-123559201D01*
X142393482Y-115500000D02*
X150127601Y-123234119D01*
X134198000Y-101836000D02*
X132634000Y-103400000D01*
X130600000Y-103400000D02*
X129727620Y-104272380D01*
X132634000Y-103400000D02*
X130600000Y-103400000D01*
X129727620Y-104272380D02*
X129727620Y-111596554D01*
X129727620Y-111596554D02*
X133021446Y-114890380D01*
X133021446Y-114890380D02*
X142645995Y-114890381D01*
X147084814Y-119329200D02*
X150977600Y-119329200D01*
X142645995Y-114890381D02*
X147084814Y-119329200D01*
X108798000Y-103186000D02*
X108798000Y-101836000D01*
X104084810Y-107899190D02*
X108798000Y-103186000D01*
X100761810Y-107899190D02*
X104084810Y-107899190D01*
X99822000Y-108839000D02*
X100761810Y-107899190D01*
X99822000Y-110363000D02*
X99822000Y-108839000D01*
X109336835Y-105018835D02*
X110488001Y-103867669D01*
X107747495Y-105018835D02*
X109336835Y-105018835D01*
X104562330Y-108204000D02*
X107747495Y-105018835D01*
X101473000Y-108204000D02*
X104562330Y-108204000D01*
X96520000Y-112522000D02*
X96520000Y-111633000D01*
X96520000Y-111633000D02*
X97261399Y-110891601D01*
X110488001Y-102685999D02*
X111338000Y-101836000D01*
X97261399Y-110891601D02*
X100075729Y-110891601D01*
X100075729Y-110891601D02*
X100350601Y-110616729D01*
X100350601Y-110616729D02*
X100350601Y-109326399D01*
X110488001Y-103867669D02*
X110488001Y-102685999D01*
X100350601Y-109326399D02*
X101473000Y-108204000D01*
X136738000Y-101836000D02*
X137996600Y-100577400D01*
X137996600Y-100577400D02*
X149600000Y-100577400D01*
X148444798Y-103700000D02*
X149322600Y-103700000D01*
X149322600Y-103700000D02*
X152422600Y-106800000D01*
X138018229Y-129078601D02*
X135304628Y-126365000D01*
X135304628Y-126365000D02*
X132275026Y-126365000D01*
X142578601Y-129078601D02*
X138018229Y-129078601D01*
X143500000Y-130000000D02*
X142578601Y-129078601D01*
X131005026Y-125095000D02*
X130556000Y-125095000D01*
X132275026Y-126365000D02*
X131005026Y-125095000D01*
X103678999Y-109276399D02*
X103697600Y-109295000D01*
X102719271Y-109276399D02*
X103678999Y-109276399D01*
X100711000Y-110687396D02*
X100711000Y-109474000D01*
X103697600Y-109295000D02*
X104475000Y-109295000D01*
X102700670Y-109295000D02*
X102719271Y-109276399D01*
X100201986Y-111196410D02*
X100711000Y-110687396D01*
X98627920Y-111196410D02*
X100201986Y-111196410D01*
X100890000Y-109295000D02*
X102700670Y-109295000D01*
X96750331Y-113073999D02*
X98627920Y-111196410D01*
X95680999Y-113073999D02*
X96750331Y-113073999D01*
X100711000Y-109474000D02*
X100890000Y-109295000D01*
X95331000Y-112724000D02*
X95680999Y-113073999D01*
M02*
