<?xml version="1.0" standalone="no"?>
<!DOCTYPE svg PUBLIC "-//W3C//DTD SVG 1.1//EN"
"http://www.w3.org/Graphics/SVG/1.1/DTD/svg11.dtd">
<svg width="132.85" height="79.937" viewBox="0 0 2767.72 1665.35" version="1.1"
xmlns="http://www.w3.org/2000/svg"
xmlns:xlink="http://www.w3.org/1999/xlink">
<polyline points="1479.89,884.278 1460.16,881.69 1444.31,881.744 1425.66,884.26" style="stroke:rgb(255,0,0);stroke-width:15.748031;fill:none;stroke-opacity:0.5;stroke-linecap:round;stroke-linejoin:round;;fill:none"/>
<polyline points="1479.89,884.278 1460.16,881.69 1444.31,881.744 1425.66,884.26" style="stroke:rgb(0,0,0);stroke-width:1px;fill:none;stroke-opacity:1;stroke-linecap:round;stroke-linejoin:round;;fill:none"/>
<polyline points="1530.6,628.963 1528.35,631.494 1523.62,632.676 1381.89,632.676 1377.16,631.494 1374.92,628.966" style="stroke:rgb(255,0,0);stroke-width:15.748031;fill:none;stroke-opacity:0.5;stroke-linecap:round;stroke-linejoin:round;;fill:none"/>
<polyline points="1530.6,628.963 1528.35,631.494 1523.62,632.676 1381.89,632.676 1377.16,631.494 1374.92,628.966" style="stroke:rgb(0,0,0);stroke-width:1px;fill:none;stroke-opacity:1;stroke-linecap:round;stroke-linejoin:round;;fill:none"/>
<polyline points="623.459,583.846 607.012,581.688 591.164,581.742 575.578,583.846" style="stroke:rgb(255,0,0);stroke-width:15.748031;fill:none;stroke-opacity:0.5;stroke-linecap:round;stroke-linejoin:round;;fill:none"/>
<polyline points="623.459,583.846 607.012,581.688 591.164,581.742 575.578,583.846" style="stroke:rgb(0,0,0);stroke-width:1px;fill:none;stroke-opacity:1;stroke-linecap:round;stroke-linejoin:round;;fill:none"/>
<polyline points="572.509,584.26 591.164,581.742 607.012,581.688 622.86,583.3 625.938,583.919" style="stroke:rgb(255,0,0);stroke-width:15.748031;fill:none;stroke-opacity:0.5;stroke-linecap:round;stroke-linejoin:round;;fill:none"/>
<polyline points="572.509,584.26 591.164,581.742 607.012,581.688 622.86,583.3 625.938,583.919" style="stroke:rgb(0,0,0);stroke-width:1px;fill:none;stroke-opacity:1;stroke-linecap:round;stroke-linejoin:round;;fill:none"/>
<polyline points="1376.41,630.328 1381.89,632.676 1523.62,632.676 1529.1,630.328" style="stroke:rgb(255,0,0);stroke-width:15.748031;fill:none;stroke-opacity:0.5;stroke-linecap:round;stroke-linejoin:round;;fill:none"/>
<polyline points="1376.41,630.328 1381.89,632.676 1523.62,632.676 1529.1,630.328" style="stroke:rgb(0,0,0);stroke-width:1px;fill:none;stroke-opacity:1;stroke-linecap:round;stroke-linejoin:round;;fill:none"/>
<polyline points="1476.61,683.846 1460.16,681.688 1444.31,681.742 1428.73,683.846" style="stroke:rgb(255,0,0);stroke-width:15.748031;fill:none;stroke-opacity:0.5;stroke-linecap:round;stroke-linejoin:round;;fill:none"/>
<polyline points="1476.61,683.846 1460.16,681.688 1444.31,681.742 1428.73,683.846" style="stroke:rgb(0,0,0);stroke-width:1px;fill:none;stroke-opacity:1;stroke-linecap:round;stroke-linejoin:round;;fill:none"/>
<polyline points="625.956,730.246 622.86,730.87 607.012,732.48 591.164,732.426 572.489,729.904" style="stroke:rgb(255,0,0);stroke-width:15.748031;fill:none;stroke-opacity:0.5;stroke-linecap:round;stroke-linejoin:round;;fill:none"/>
<polyline points="625.956,730.246 622.86,730.87 607.012,732.48 591.164,732.426 572.489,729.904" style="stroke:rgb(0,0,0);stroke-width:1px;fill:none;stroke-opacity:1;stroke-linecap:round;stroke-linejoin:round;;fill:none"/>
<polyline points="575.749,783.846 592.198,781.688 608.048,781.742 623.631,783.846" style="stroke:rgb(255,0,0);stroke-width:15.748031;fill:none;stroke-opacity:0.5;stroke-linecap:round;stroke-linejoin:round;;fill:none"/>
<polyline points="575.749,783.846 592.198,781.688 608.048,781.742 623.631,783.846" style="stroke:rgb(0,0,0);stroke-width:1px;fill:none;stroke-opacity:1;stroke-linecap:round;stroke-linejoin:round;;fill:none"/>
<polyline points="1426.41,830.247 1429.5,830.87 1445.35,832.482 1461.19,832.426 1479.87,829.904" style="stroke:rgb(255,0,0);stroke-width:15.748031;fill:none;stroke-opacity:0.5;stroke-linecap:round;stroke-linejoin:round;;fill:none"/>
<polyline points="1426.41,830.247 1429.5,830.87 1445.35,832.482 1461.19,832.426 1479.87,829.904" style="stroke:rgb(0,0,0);stroke-width:1px;fill:none;stroke-opacity:1;stroke-linecap:round;stroke-linejoin:round;;fill:none"/>
<polyline points="1479.85,684.26 1461.19,681.742 1445.35,681.688 1429.5,683.3 1426.43,683.918" style="stroke:rgb(255,0,0);stroke-width:15.748031;fill:none;stroke-opacity:0.5;stroke-linecap:round;stroke-linejoin:round;;fill:none"/>
<polyline points="1479.85,684.26 1461.19,681.742 1445.35,681.688 1429.5,683.3 1426.43,683.918" style="stroke:rgb(0,0,0);stroke-width:1px;fill:none;stroke-opacity:1;stroke-linecap:round;stroke-linejoin:round;;fill:none"/>
<polyline points="623.588,730.328 608.046,732.426 592.198,732.48 575.792,730.328" style="stroke:rgb(255,0,0);stroke-width:15.748031;fill:none;stroke-opacity:0.5;stroke-linecap:round;stroke-linejoin:round;;fill:none"/>
<polyline points="623.588,730.328 608.046,732.426 592.198,732.48 575.792,730.328" style="stroke:rgb(0,0,0);stroke-width:1px;fill:none;stroke-opacity:1;stroke-linecap:round;stroke-linejoin:round;;fill:none"/>
<polyline points="1428.92,883.846 1445.35,881.69 1461.19,881.744 1476.76,883.846" style="stroke:rgb(255,0,0);stroke-width:15.748031;fill:none;stroke-opacity:0.5;stroke-linecap:round;stroke-linejoin:round;;fill:none"/>
<polyline points="1428.92,883.846 1445.35,881.69 1461.19,881.744 1476.76,883.846" style="stroke:rgb(0,0,0);stroke-width:1px;fill:none;stroke-opacity:1;stroke-linecap:round;stroke-linejoin:round;;fill:none"/>
<polyline points="1476.57,830.328 1460.16,832.482 1444.31,832.426 1428.77,830.328" style="stroke:rgb(255,0,0);stroke-width:15.748031;fill:none;stroke-opacity:0.5;stroke-linecap:round;stroke-linejoin:round;;fill:none"/>
<polyline points="1476.57,830.328 1460.16,832.482 1444.31,832.426 1428.77,830.328" style="stroke:rgb(0,0,0);stroke-width:1px;fill:none;stroke-opacity:1;stroke-linecap:round;stroke-linejoin:round;;fill:none"/>
<polyline points="625.938,783.919 622.86,783.3 607.012,781.688 591.164,781.742 572.509,784.26" style="stroke:rgb(255,0,0);stroke-width:15.748031;fill:none;stroke-opacity:0.5;stroke-linecap:round;stroke-linejoin:round;;fill:none"/>
<polyline points="625.938,783.919 622.86,783.3 607.012,781.688 591.164,781.742 572.509,784.26" style="stroke:rgb(0,0,0);stroke-width:1px;fill:none;stroke-opacity:1;stroke-linecap:round;stroke-linejoin:round;;fill:none"/>
</svg>
