<?xml version="1.0" standalone="no"?>
<!DOCTYPE svg PUBLIC "-//W3C//DTD SVG 1.1//EN"
"http://www.w3.org/Graphics/SVG/1.1/DTD/svg11.dtd">
<svg width="132.85" height="79.937" viewBox="0 0 2767.72 1665.35" version="1.1"
xmlns="http://www.w3.org/2000/svg"
xmlns:xlink="http://www.w3.org/1999/xlink">
<g fill-rule="evenodd"><path d="M 194.882,163.386 L 194.194,169.934 L 192.159,176.196 L 188.867,181.899 L 184.461,186.792 L 179.134,190.662 L 173.119,193.34 L 166.678,194.709 L 160.094,194.709 L 153.653,193.34 L 147.638,190.662 L 142.311,186.792 L 137.905,181.899 L 134.613,176.196 L 132.578,169.934 L 131.89,163.386 L 132.578,156.837 L 134.613,150.575 L 137.905,144.873 L 142.311,139.98 L 147.638,136.109 L 153.653,133.431 L 160.094,132.062 L 166.678,132.062 L 173.119,133.431 L 179.134,136.109 L 184.461,139.98 L 188.867,144.873 L 192.159,150.575 L 194.194,156.837 L 194.882,163.386 z " style="fill-opacity:1.000000;fill:rgb(103,198,105);stroke:rgb(0,0,0);stroke-width:2"/></g>
<g fill-rule="evenodd"><path d="M 209.291,486.221 L 209.291,222.733 L 210.053,218.906 L 212.22,215.662 L 217.177,210.977 L 220.782,209.483 L 2548.43,209.291 L 2552.25,210.053 L 2555.5,212.22 L 2556.74,213.736 L 2557.66,215.465 L 2558.43,219.291 L 2558.43,1446.06 L 2557.66,1449.89 L 2556.74,1451.62 L 2553.98,1454.38 L 2552.25,1455.3 L 2548.43,1456.06 L 219.291,1456.06 L 217.212,1455.84 L 215.224,1455.2 L 213.413,1454.15 L 211.201,1451.94 L 209.781,1449.15 L 209.291,1446.06 L 209.291,486.221M 1965.91,1220.02 L 1991.18,1281.03 L 2037.87,1327.72 L 2098.87,1352.99 L 2164.91,1352.99 L 2225.91,1327.72 L 2272.6,1281.03 L 2297.87,1220.02 L 2297.87,1153.99 L 2272.6,1092.99 L 2225.91,1046.29 L 2164.91,1021.02 L 2098.87,1021.02 L 2037.87,1046.29 L 1991.18,1092.99 L 1965.91,1153.99 L 1965.91,1220.02M 1965.91,511.363 L 1991.18,572.369 L 2037.87,619.061 L 2098.87,644.331 L 2164.91,644.331 L 2225.91,619.061 L 2272.6,572.369 L 2297.87,511.363 L 2297.87,445.33 L 2272.6,384.324 L 2225.91,337.632 L 2164.91,312.362 L 2098.87,312.362 L 2037.87,337.632 L 1991.18,384.324 L 1965.91,445.33 L 1965.91,511.363M 1686.57,1119.18 L 1674.65,1124.48 L 1660.16,1127.56 L 1645.35,1127.56 L 1630.86,1124.48 L 1618.95,1119.18 L 1593.3,1144.82 L 1596.59,1154.59 L 1635.37,1168.78 L 1679.66,1166.92 L 1708.84,1154.83 L 1712.21,1144.82 L 1686.57,1119.18M 1714.7,1090.75 L 1740.49,1116.54 L 1750.26,1113.25 L 1764.45,1074.47 L 1762.59,1030.19 L 1750.5,1001.01 L 1740.49,997.634 L 1714.7,1023.42 L 1717.5,1028.26 L 1722.07,1042.35 L 1723.62,1057.09 L 1722.07,1071.82 L 1717.5,1085.91 L 1714.7,1090.75M 337.66,990.749 L 334.867,985.911 L 330.289,971.821 L 328.74,957.087 L 330.289,942.353 L 334.867,928.263 L 337.66,923.425 L 311.869,897.634 L 302.101,900.925 L 287.913,939.705 L 289.772,983.988 L 301.858,1013.17 L 311.869,1016.54 L 337.66,990.749M 633.416,1119.18 L 621.505,1124.48 L 607.014,1127.56 L 592.199,1127.56 L 577.707,1124.48 L 565.796,1119.18 L 540.153,1144.82 L 543.444,1154.59 L 582.224,1168.78 L 626.508,1166.92 L 655.687,1154.83 L 659.059,1144.82 L 633.416,1119.18M 661.552,1090.75 L 687.343,1116.54 L 697.112,1113.25 L 711.3,1074.47 L 709.441,1030.19 L 697.354,1001.01 L 687.343,997.634 L 661.552,1023.42 L 664.346,1028.26 L 668.924,1042.35 L 670.472,1057.09 L 668.924,1071.82 L 664.346,1085.91 L 661.552,1090.75M 537.66,1090.75 L 534.867,1085.91 L 530.289,1071.82 L 528.74,1057.09 L 530.289,1042.35 L 534.867,1028.26 L 542.274,1015.43 L 552.188,1004.42 L 564.173,995.715 L 577.707,989.689 L 592.199,986.609 L 607.014,986.609 L 621.505,989.689 L 633.416,994.992 L 659.059,969.349 L 656.62,961.558 L 656.81,957.828 L 658.355,954.427 L 659.576,953.002 L 662.336,951.146 L 693.781,919.701 L 697.025,917.533 L 698.901,916.964 L 1337.06,916.956 L 1338.89,917.501 L 1342.1,919.583 L 1344.29,922.714 L 1345.14,926.436 L 1344.54,930.208 L 1341.06,939.705 L 1342.92,983.988 L 1355.01,1013.17 L 1365.02,1016.54 L 1390.81,990.749 L 1388.02,985.911 L 1383.44,971.821 L 1381.89,957.087 L 1383.44,942.353 L 1388.02,928.263 L 1395.42,915.433 L 1405.34,904.423 L 1417.32,895.715 L 1430.86,889.689 L 1445.35,886.609 L 1460.16,886.609 L 1474.65,889.689 L 1488.19,895.715 L 1500.17,904.423 L 1510.09,915.433 L 1517.5,928.263 L 1522.07,942.353 L 1523.62,957.087 L 1522.07,971.821 L 1517.5,985.911 L 1510.09,998.741 L 1500.17,1009.75 L 1488.19,1018.46 L 1474.65,1024.48 L 1460.16,1027.56 L 1445.35,1027.56 L 1430.86,1024.48 L 1418.95,1019.18 L 1393.3,1044.82 L 1396.59,1054.59 L 1435.37,1068.78 L 1479.66,1066.92 L 1508.84,1054.83 L 1514.19,1038.95 L 1515.03,1037.1 L 1516.22,1035.46 L 1517.72,1034.1 L 1519.47,1033.06 L 1521.38,1032.4 L 1523.39,1032.14 L 1525.42,1032.29 L 1527.37,1032.85 L 1529.16,1033.79 L 1530.74,1035.07 L 1538.56,1042.89 L 1540.64,1045.94 L 1541.48,1049.54 L 1542.92,1083.99 L 1555.01,1113.17 L 1565.02,1116.54 L 1590.81,1090.75 L 1588.02,1085.91 L 1583.44,1071.82 L 1581.89,1057.09 L 1583.44,1042.35 L 1588.02,1028.26 L 1595.42,1015.43 L 1605.34,1004.42 L 1617.32,995.715 L 1630.86,989.689 L 1645.35,986.609 L 1660.16,986.609 L 1674.65,989.689 L 1686.57,994.992 L 1712.21,969.35 L 1709.77,961.558 L 1709.96,957.828 L 1711.51,954.427 L 1712.73,953.002 L 1715.49,951.146 L 1746.74,919.887 L 1763.62,879.139 L 1763.62,835.034 L 1746.74,794.286 L 1716.62,764.158 L 1714.45,760.914 L 1713.69,757.087 L 1714.45,753.26 L 1716.62,750.016 L 1746.74,719.887 L 1763.62,679.139 L 1763.62,635.034 L 1746.74,594.286 L 1715.56,563.099 L 1674.81,546.221 L 1659.35,546.221 L 1655.52,545.459 L 1652.28,543.292 L 1650.11,540.047 L 1649.54,538.171 L 1649.54,534.27 L 1650.11,532.394 L 1652.28,529.149 L 1678.47,502.963 L 1693.55,466.555 L 1693.55,427.146 L 1678.47,390.738 L 1650.6,362.872 L 1614.19,347.791 L 1574.78,347.791 L 1538.38,362.872 L 1510.51,390.738 L 1495.43,427.147 L 1495.43,435.241 L 1494.67,439.068 L 1492.5,442.312 L 1490.98,443.556 L 1489.26,444.48 L 1485.43,445.241 L 1382.87,445.241 L 1366.28,448.541 L 1353.05,457.383 L 1344.21,470.614 L 1340.91,487.205 L 1340.72,489.353 L 1339.23,492.957 L 1337.98,494.473 L 1334.74,496.64 L 1330.91,497.402 L 640.636,497.21 L 638.76,496.64 L 635.515,494.473 L 633.348,491.228 L 632.586,487.402 L 633.348,483.575 L 640.397,466.555 L 640.397,427.146 L 625.317,390.738 L 597.451,362.872 L 561.042,347.791 L 521.635,347.791 L 485.226,362.872 L 457.36,390.738 L 442.28,427.146 L 442.28,435.241 L 441.518,439.068 L 439.351,442.312 L 436.106,444.48 L 432.28,445.241 L 329.725,445.241 L 313.133,448.541 L 299.902,457.382 L 291.061,470.614 L 287.761,487.205 L 287.761,626.968 L 291.061,643.56 L 299.902,656.791 L 313.338,665.769 L 316.021,666.983 L 317.536,668.226 L 319.704,671.471 L 320.465,675.297 L 319.704,679.124 L 318.78,680.853 L 305.618,694.287 L 288.74,735.034 L 288.74,779.14 L 305.618,819.887 L 336.877,851.146 L 339.637,853.002 L 340.857,854.427 L 342.403,857.828 L 342.592,861.558 L 340.153,869.35 L 365.796,894.992 L 377.707,889.689 L 392.199,886.609 L 407.014,886.609 L 421.505,889.689 L 435.039,895.715 L 447.025,904.423 L 456.938,915.433 L 464.346,928.263 L 468.924,942.353 L 470.472,957.087 L 468.924,971.821 L 464.346,985.911 L 456.938,998.741 L 447.025,1009.75 L 435.039,1018.46 L 421.505,1024.48 L 407.014,1027.56 L 392.199,1027.56 L 377.707,1024.48 L 365.796,1019.18 L 340.153,1044.82 L 343.444,1054.59 L 382.224,1068.78 L 426.508,1066.92 L 455.687,1054.83 L 461.039,1038.95 L 461.878,1037.1 L 463.072,1035.46 L 464.572,1034.1 L 466.317,1033.06 L 468.234,1032.4 L 470.245,1032.14 L 472.267,1032.29 L 474.217,1032.85 L 476.015,1033.79 L 477.587,1035.07 L 485.405,1042.89 L 487.491,1045.94 L 488.325,1049.54 L 489.772,1083.99 L 501.858,1113.17 L 511.869,1116.54 L 537.66,1090.75 z " style="fill-opacity:1.000000;fill:rgb(115,81,255);stroke:rgb(0,0,0);stroke-width:2"/></g>
<g fill-rule="evenodd"><path d="M 470.472,576.772 L 470.472,627.953 L 328.74,627.953 L 328.74,486.221 L 470.472,486.221 L 470.472,537.402 L 1381.89,537.402 L 1381.89,486.221 L 1523.62,486.221 L 1523.62,627.953 L 1381.89,627.953 L 1381.89,576.772 L 470.472,576.772 z " style="fill-opacity:1.000000;fill:rgb(74,236,41);stroke:rgb(0,0,0);stroke-width:2"/></g>
<g fill-rule="evenodd"><path d="M 667.315,676.772 L 664.346,685.911 L 656.938,698.741 L 647.025,709.75 L 635.039,718.459 L 621.505,724.484 L 607.014,727.565 L 592.199,727.565 L 577.707,724.484 L 564.173,718.459 L 552.188,709.75 L 542.274,698.741 L 534.867,685.911 L 530.289,671.821 L 528.74,657.087 L 530.289,642.353 L 534.867,628.263 L 542.274,615.433 L 552.188,604.423 L 564.173,595.715 L 577.707,589.689 L 592.199,586.609 L 607.014,586.609 L 621.505,589.689 L 635.039,595.715 L 647.025,604.423 L 656.938,615.433 L 664.346,628.263 L 667.315,637.402 L 1585.05,637.402 L 1588.02,628.263 L 1595.42,615.433 L 1605.34,604.423 L 1617.32,595.715 L 1630.86,589.689 L 1645.35,586.609 L 1660.16,586.609 L 1674.65,589.689 L 1688.19,595.715 L 1700.17,604.423 L 1710.09,615.433 L 1717.5,628.263 L 1722.07,642.353 L 1723.62,657.087 L 1722.07,671.821 L 1717.5,685.911 L 1710.09,698.741 L 1700.17,709.75 L 1688.19,718.459 L 1674.65,724.484 L 1660.16,727.565 L 1645.35,727.565 L 1630.86,724.484 L 1617.32,718.459 L 1605.34,709.75 L 1595.42,698.741 L 1588.02,685.911 L 1585.05,676.772 L 667.315,676.772 z " style="fill-opacity:1.000000;fill:rgb(205,186,171);stroke:rgb(0,0,0);stroke-width:2"/></g>
<g fill-rule="evenodd"><path d="M 467.315,776.772 L 464.346,785.911 L 456.938,798.741 L 447.025,809.75 L 435.039,818.459 L 421.505,824.484 L 407.014,827.565 L 392.199,827.565 L 377.707,824.484 L 364.173,818.459 L 352.188,809.75 L 342.274,798.741 L 334.867,785.911 L 330.289,771.821 L 328.74,757.087 L 330.289,742.353 L 334.867,728.263 L 342.274,715.433 L 352.188,704.423 L 364.173,695.715 L 377.707,689.689 L 392.199,686.609 L 407.014,686.609 L 421.505,689.689 L 435.039,695.715 L 447.025,704.423 L 456.938,715.433 L 464.346,728.263 L 467.315,737.402 L 1385.05,737.402 L 1388.02,728.263 L 1395.42,715.433 L 1405.34,704.423 L 1417.32,695.715 L 1430.86,689.689 L 1445.35,686.609 L 1460.16,686.609 L 1474.65,689.689 L 1488.19,695.715 L 1500.17,704.423 L 1510.09,715.433 L 1517.5,728.263 L 1522.07,742.353 L 1523.62,757.087 L 1522.07,771.821 L 1517.5,785.911 L 1510.09,798.741 L 1500.17,809.75 L 1488.19,818.459 L 1474.65,824.484 L 1460.16,827.565 L 1445.35,827.565 L 1430.86,824.484 L 1417.32,818.459 L 1405.34,809.75 L 1395.42,798.741 L 1388.02,785.911 L 1385.05,776.772 L 467.315,776.772 z " style="fill-opacity:1.000000;fill:rgb(242,251,227);stroke:rgb(0,0,0);stroke-width:2"/></g>
<g fill-rule="evenodd"><path d="M 667.315,876.772 L 664.346,885.911 L 656.938,898.741 L 647.025,909.75 L 635.039,918.459 L 621.505,924.484 L 607.014,927.565 L 592.199,927.565 L 577.707,924.484 L 564.173,918.459 L 552.188,909.75 L 542.274,898.741 L 534.867,885.911 L 530.289,871.821 L 528.74,857.087 L 530.289,842.353 L 534.867,828.263 L 542.274,815.433 L 552.188,804.423 L 564.173,795.715 L 577.707,789.689 L 592.199,786.609 L 607.014,786.609 L 621.505,789.689 L 635.039,795.715 L 647.025,804.423 L 656.938,815.433 L 664.346,828.263 L 667.315,837.402 L 1585.05,837.402 L 1588.02,828.263 L 1595.42,815.433 L 1605.34,804.423 L 1617.32,795.715 L 1630.86,789.689 L 1645.35,786.609 L 1660.16,786.609 L 1674.65,789.689 L 1688.19,795.715 L 1700.17,804.423 L 1710.09,815.433 L 1717.5,828.263 L 1722.07,842.353 L 1723.62,857.087 L 1722.07,871.821 L 1717.5,885.911 L 1710.09,898.741 L 1700.17,909.75 L 1688.19,918.459 L 1674.65,924.484 L 1660.16,927.565 L 1645.35,927.565 L 1630.86,924.484 L 1617.32,918.459 L 1605.34,909.75 L 1595.42,898.741 L 1588.02,885.911 L 1585.05,876.772 L 667.315,876.772 z " style="fill-opacity:1.000000;fill:rgb(70,124,194);stroke:rgb(0,0,0);stroke-width:2"/></g>
</svg>
