<?xml version="1.0" standalone="no"?>
<!DOCTYPE svg PUBLIC "-//W3C//DTD SVG 1.1//EN"
"http://www.w3.org/Graphics/SVG/1.1/DTD/svg11.dtd">
<svg width="132.85" height="79.937" viewBox="0 0 2767.72 1665.35" version="1.1"
xmlns="http://www.w3.org/2000/svg"
xmlns:xlink="http://www.w3.org/1999/xlink">
<g fill-rule="evenodd"><path d="M -0.000197774,325.278 L 22.4674,317.364 L 60.9176,302.014 L 94.2346,286.663 L 122.418,271.313 L 145.469,255.962 L 163.386,240.612 L 166.678,237.32 L 174.009,229.219 L 179.263,222.732 L 179.341,222.635 L 183.445,217.584 L 183.745,217.213 L 186.19,214.153 L 188.425,211.535 L 191.698,207.953 L 192.455,207.145 L 195.202,204.288 L 196.343,203.146 L 198.461,201.11 L 199.366,200.212 L 203.242,196.24 L 203.979,195.504 L 207.126,192.44 L 208.84,190.857 L 211.939,188.139 L 212.3,187.825 L 216.594,184.133 L 220.779,180.829 L 222.928,179.268 L 229.791,173.685 L 236.374,167.758 L 247.619,156.264 L 258.863,142.027 L 281.35,105.324 L 303.836,57.6477 L 325.938,-0.000208593 L 2767.72,-8.52651e-14 L 2767.72,1665.35 L 1.42109e-13,1665.35 L -0.000197774,325.278M 308.795,754.99 L 308.795,759.181 L 309.571,773.996 L 309.634,774.982 L 310.672,778.193 L 315.804,792.103 L 317.461,795.959 L 323.401,808.004 L 324.269,809.136 L 327.075,812.423 L 337.276,823.173 L 340.329,826.07 L 350.422,834.69 L 351.461,835.417 L 351.719,835.598 L 355.382,838.2 L 356.209,838.803 L 357.75,839.951 L 362.901,844.402 L 365.737,847.215 L 367.006,848.516 L 371.571,853.35 L 374.136,856.21 L 374.883,857.086 L 385.923,857.086 L 392.198,857.086 L 407.014,857.086 L 413.289,857.086 L 428.434,857.086 L 436.02,857.086 L 452.237,857.086 L 463.102,857.086 L 474.37,857.086 L 477.302,862.49 L 477.384,862.632 L 482.441,872.53 L 484.277,876.654 L 488.692,885.335 L 489.263,886.324 L 493.38,894.396 L 495.322,898.758 L 499.251,906.473 L 499.961,907.702 L 503.886,915.408 L 505.833,919.781 L 509.946,927.843 L 510.517,928.832 L 514.934,937.518 L 516.768,941.636 L 521.826,951.538 L 521.909,951.682 L 524.841,957.086 L 536.108,957.086 L 546.973,957.086 L 563.19,957.086 L 570.777,957.086 L 585.923,957.086 L 592.198,957.086 L 607.014,957.086 L 613.289,957.086 L 624.329,957.086 L 625.075,956.21 L 627.64,953.35 L 632.204,948.517 L 633.465,947.224 L 636.299,944.411 L 641.474,939.94 L 643.016,938.791 L 643.828,938.201 L 647.491,935.599 L 647.736,935.426 L 648.782,934.694 L 658.881,926.07 L 661.932,923.174 L 672.135,912.424 L 674.944,909.134 L 678.535,904.454 L 681.364,901.122 L 682.796,899.593 L 684.657,899.028 L 690.989,897.599 L 692.949,897.308 L 698.9,896.868 L 1337.05,896.863 L 1342.89,897.287 L 1344.81,897.565 L 1350.97,898.926 L 1354.79,900.059 L 1364.4,903.988 L 1367.66,905.687 L 1373.1,902.545 L 1378.21,899.934 L 1393.02,893.338 L 1396.35,892.056 L 1411.17,887.243 L 1413.3,886.671 L 1428.11,883.522 L 1429.5,883.301 L 1444.31,881.744 L 1445.35,881.69 L 1460.16,881.69 L 1461.2,881.744 L 1476.01,883.301 L 1477.4,883.522 L 1492.21,886.671 L 1494.34,887.243 L 1509.16,892.056 L 1512.48,893.337 L 1527.3,899.933 L 1532.41,902.546 L 1547.22,911.1 L 1554.9,916.107 L 1558.52,918.731 L 1558.98,919.781 L 1563.1,927.844 L 1563.67,928.837 L 1568.08,937.512 L 1569.92,941.636 L 1574.98,951.538 L 1575.05,951.675 L 1577.99,957.086 L 1589.26,957.086 L 1600.12,957.086 L 1616.34,957.086 L 1623.93,957.086 L 1639.07,957.086 L 1645.35,957.086 L 1660.16,957.086 L 1666.44,957.086 L 1677.48,957.086 L 1678.21,956.227 L 1680.79,953.35 L 1685.35,948.516 L 1686.62,947.215 L 1689.46,944.402 L 1694.61,939.951 L 1696.15,938.803 L 1696.98,938.2 L 1700.64,935.598 L 1700.9,935.417 L 1701.94,934.69 L 1712.03,926.07 L 1715.08,923.174 L 1725.28,912.424 L 1728.09,909.133 L 1728.96,908.004 L 1734.9,895.957 L 1736.56,892.103 L 1741.69,878.193 L 1742.73,874.981 L 1742.79,873.999 L 1743.57,859.184 L 1743.57,854.988 L 1742.79,840.172 L 1742.73,839.191 L 1741.69,835.978 L 1736.56,822.068 L 1734.9,818.214 L 1728.96,806.168 L 1728.09,805.038 L 1725.28,801.748 L 1715.08,790.997 L 1712.03,788.102 L 1701.59,779.182 L 1700.74,778.438 L 1698.4,776.329 L 1697.26,775.338 L 1695.31,773.698 L 1688.03,766.159 L 1686.17,763.83 L 1685.27,762.731 L 1681.37,758.067 L 1680.57,757.086 L 1681.37,756.104 L 1685.27,751.441 L 1686.17,750.342 L 1688.03,748.012 L 1695.31,740.478 L 1697.26,738.833 L 1698.39,737.845 L 1700.74,735.733 L 1701.59,734.988 L 1712.03,726.07 L 1715.08,723.174 L 1725.28,712.424 L 1728.09,709.133 L 1728.96,708.004 L 1734.9,695.957 L 1736.56,692.103 L 1741.69,678.193 L 1742.73,674.981 L 1742.79,673.999 L 1743.57,659.184 L 1743.57,654.988 L 1742.79,640.172 L 1742.73,639.191 L 1741.69,635.978 L 1736.56,622.068 L 1734.9,618.214 L 1728.96,606.168 L 1728.09,605.038 L 1725.28,601.748 L 1715.08,590.997 L 1712.03,588.102 L 1703.64,580.934 L 1700.29,579.058 L 1696.45,577.163 L 1682.83,571.314 L 1678.87,569.852 L 1670.62,567.29 L 1664.41,566.637 L 1660.16,566.414 L 1659.35,566.414 L 1655.37,566.217 L 1651.47,565.833 L 1645.35,564.775 L 1643,564.194 L 1640.47,563.638 L 1638.88,563.334 L 1627.45,559.882 L 1624.24,558.578 L 1623.08,558.114 L 1615.49,555.171 L 1609.15,552.491 L 1606.46,551.26 L 1594.91,545.371 L 1586.61,540.724 L 1586.58,538.17 L 1586.58,534.268 L 1587.97,515.56 L 1588.26,513.6 L 1592.69,494.015 L 1593.87,490.113 L 1595.11,486.22 L 1598.67,475.543 L 1604.51,453.546 L 1604.47,448.837 L 1603.59,445.037 L 1602.05,441.795 L 1599.8,438.899 L 1596.6,436.24 L 1591.9,433.844 L 1584.58,432.021 L 1572.26,431.998 L 1550.17,438.251 L 1539.72,444.033 L 1534.62,447 L 1523.62,453.754 L 1519.87,455.91 L 1515.97,457.995 L 1508.19,461.463 L 1506.23,462.163 L 1501.67,463.547 L 1499.72,464.038 L 1493.37,465.146 L 1489.47,465.531 L 1485.43,465.73 L 1384.89,465.73 L 1381.89,466.025 L 1374.16,467.563 L 1367.61,471.941 L 1363.23,478.491 L 1361.7,486.22 L 1361.31,490.136 L 1361.26,491.188 L 1360.49,497.547 L 1359.71,501.449 L 1357.83,508.221 L 1357.12,510.182 L 1356.45,511.962 L 1351,513.96 L 1347.1,515.144 L 1338.74,516.823 L 1334.84,517.206 L 1330.9,517.4 L 640.628,517.304 L 634.683,516.863 L 632.723,516.573 L 626.391,515.144 L 622.49,513.96 L 612.571,509.805 L 608.669,507.72 L 595.439,498.754 L 591.537,495.55 L 571.677,475.301 L 567.776,470.549 L 552.789,450.206 L 551.958,448.962 L 551.176,448.18 L 550.443,445.038 L 548.901,441.796 L 546.649,438.897 L 543.447,436.24 L 538.753,433.845 L 531.432,432.022 L 519.109,431.999 L 497.019,438.252 L 486.566,444.033 L 481.471,447 L 470.472,453.754 L 466.718,455.91 L 462.817,457.995 L 452.661,462.248 L 448.76,463.431 L 440.22,465.146 L 436.317,465.531 L 432.278,465.73 L 331.742,465.73 L 328.74,466.025 L 321.011,467.563 L 314.459,471.941 L 310.083,478.491 L 308.545,486.22 L 308.25,489.222 L 308.25,624.95 L 308.545,627.952 L 310.083,635.68 L 314.459,642.23 L 323.341,647.76 L 324.535,648.169 L 328.74,649.54 L 329.984,649.965 L 331.945,650.666 L 339.06,653.841 L 342.962,655.926 L 353.233,662.627 L 352.026,665.049 L 351.215,666.614 L 349.81,669.466 L 347.968,673.41 L 344.339,680.036 L 342.08,683.566 L 339.593,687.089 L 338.125,688.974 L 336.945,690.565 L 336.886,690.648 L 333.286,695.064 L 327.038,701.716 L 324.245,705.022 L 323.45,706.069 L 317.461,718.212 L 315.804,722.068 L 310.672,735.979 L 309.634,739.19 L 309.571,740.175 L 308.795,754.99 z " style="fill-opacity:0.200000;fill:rgb(103,198,105);"/></g>
<g fill-rule="evenodd"><path d="M 310.083,635.68 L 308.545,627.952 L 308.25,624.95 L 308.25,489.222 L 308.545,486.22 L 310.083,478.491 L 314.459,471.941 L 321.011,467.563 L 328.74,466.025 L 331.742,465.73 L 432.278,465.73 L 436.317,465.531 L 440.22,465.146 L 448.76,463.431 L 452.661,462.248 L 462.817,457.995 L 466.718,455.91 L 470.472,453.754 L 481.471,447 L 486.566,444.033 L 497.019,438.252 L 519.109,431.999 L 531.432,432.022 L 538.753,433.845 L 543.447,436.24 L 546.649,438.897 L 548.901,441.796 L 550.443,445.038 L 551.176,448.18 L 551.958,448.962 L 552.789,450.206 L 567.776,470.549 L 571.677,475.301 L 591.537,495.55 L 595.439,498.754 L 608.669,507.72 L 612.571,509.805 L 622.49,513.96 L 626.391,515.144 L 632.723,516.573 L 634.683,516.863 L 640.628,517.304 L 1330.9,517.4 L 1334.84,517.206 L 1338.74,516.823 L 1347.1,515.144 L 1351,513.96 L 1356.45,511.962 L 1357.12,510.182 L 1357.83,508.221 L 1359.71,501.449 L 1360.49,497.547 L 1361.26,491.188 L 1361.31,490.136 L 1361.7,486.22 L 1363.23,478.491 L 1367.61,471.941 L 1374.16,467.563 L 1381.89,466.025 L 1384.89,465.73 L 1485.43,465.73 L 1489.47,465.531 L 1493.37,465.146 L 1499.72,464.038 L 1501.67,463.547 L 1506.23,462.163 L 1508.19,461.463 L 1515.97,457.995 L 1519.87,455.91 L 1523.62,453.754 L 1534.62,447 L 1539.72,444.033 L 1550.17,438.251 L 1572.26,431.998 L 1584.58,432.021 L 1591.9,433.844 L 1596.6,436.24 L 1599.8,438.899 L 1602.05,441.795 L 1603.59,445.037 L 1604.47,448.837 L 1604.51,453.546 L 1598.67,475.543 L 1595.11,486.22 L 1593.87,490.113 L 1592.69,494.015 L 1588.26,513.6 L 1587.97,515.56 L 1586.58,534.268 L 1586.58,538.17 L 1586.61,540.724 L 1582.64,547.97 L 1575.09,562.786 L 1570.5,573.058 L 1564.81,587.873 L 1562.1,596.191 L 1561.1,599.92 L 1533.07,627.952 L 1528.35,631.495 L 1523.62,632.676 L 1381.89,632.676 L 1377.17,631.495 L 1372.44,627.952 L 1351.57,607.085 L 687.123,607.085 L 679.261,602.546 L 674.151,599.932 L 659.335,593.336 L 656.008,592.055 L 641.193,587.242 L 639.065,586.67 L 624.25,583.521 L 622.862,583.3 L 608.048,581.743 L 607.014,581.689 L 592.198,581.689 L 591.164,581.743 L 576.348,583.3 L 574.96,583.521 L 560.145,586.67 L 558.017,587.242 L 543.201,592.055 L 539.873,593.337 L 525.059,599.934 L 519.953,602.544 L 505.138,611.097 L 504.923,611.221 L 503.476,618.063 L 501.91,627.952 L 500.942,632.817 L 499.427,639.109 L 494.14,653.451 L 490.303,661.124 L 482.912,673.588 L 481.678,673.218 L 471.877,670.213 L 470.472,669.769 L 457.054,665.41 L 449.442,663.364 L 434.627,660.215 L 427.993,659.161 L 413.179,657.604 L 407.014,657.28 L 392.198,657.28 L 386.034,657.604 L 371.218,659.161 L 364.583,660.215 L 353.233,662.627 L 342.962,655.926 L 339.06,653.841 L 331.945,650.666 L 329.984,649.965 L 328.74,649.54 L 324.535,648.169 L 323.341,647.76 L 314.459,642.23 L 310.083,635.68 z " style="fill-opacity:0.200000;fill:rgb(115,81,255);"/></g>
<g fill-rule="evenodd"><path d="M 490.303,661.124 L 494.14,653.451 L 499.427,639.109 L 500.942,632.817 L 501.91,627.952 L 503.476,618.063 L 504.923,611.221 L 505.138,611.097 L 519.953,602.544 L 525.059,599.934 L 539.873,593.337 L 543.201,592.055 L 558.017,587.242 L 560.145,586.67 L 574.96,583.521 L 576.348,583.3 L 591.164,581.743 L 592.198,581.689 L 607.014,581.689 L 608.048,581.743 L 622.862,583.3 L 624.25,583.521 L 639.065,586.67 L 641.193,587.242 L 656.008,592.055 L 659.335,593.336 L 674.151,599.932 L 679.261,602.546 L 687.123,607.085 L 1351.57,607.085 L 1372.44,627.952 L 1377.17,631.495 L 1381.89,632.676 L 1523.62,632.676 L 1528.35,631.495 L 1533.07,627.952 L 1561.1,599.92 L 1562.1,596.191 L 1564.81,587.873 L 1570.5,573.058 L 1575.09,562.786 L 1582.64,547.97 L 1586.61,540.724 L 1594.91,545.371 L 1606.46,551.26 L 1609.15,552.491 L 1615.49,555.171 L 1623.08,558.114 L 1624.24,558.578 L 1627.45,559.882 L 1638.88,563.334 L 1640.47,563.638 L 1643,564.194 L 1645.35,564.775 L 1651.47,565.833 L 1655.37,566.217 L 1659.35,566.414 L 1660.16,566.414 L 1664.41,566.637 L 1670.62,567.29 L 1678.87,569.852 L 1682.83,571.314 L 1696.45,577.163 L 1700.29,579.058 L 1703.64,580.934 L 1712.03,588.102 L 1715.08,590.997 L 1725.28,601.748 L 1728.09,605.038 L 1728.96,606.168 L 1734.9,618.214 L 1736.56,622.068 L 1741.69,635.978 L 1742.73,639.191 L 1742.79,640.172 L 1743.57,654.988 L 1743.57,659.184 L 1742.79,673.999 L 1742.73,674.981 L 1741.69,678.193 L 1736.56,692.103 L 1734.9,695.957 L 1728.96,708.004 L 1728.09,709.133 L 1725.28,712.424 L 1715.08,723.174 L 1712.03,726.07 L 1701.59,734.988 L 1700.74,735.733 L 1698.39,737.845 L 1697.26,738.833 L 1695.31,740.478 L 1688.03,748.012 L 1686.17,750.342 L 1685.27,751.441 L 1681.37,756.104 L 1680.57,757.086 L 1666.44,757.086 L 1660.16,757.086 L 1645.35,757.086 L 1639.07,757.086 L 1623.93,757.086 L 1616.34,757.086 L 1600.12,757.086 L 1589.26,757.086 L 1577.99,757.086 L 1575.05,751.675 L 1574.98,751.538 L 1569.92,741.636 L 1568.08,737.512 L 1563.67,728.837 L 1563.1,727.844 L 1558.98,719.781 L 1558.51,718.729 L 1554.91,716.106 L 1547.23,711.099 L 1532.41,702.546 L 1527.3,699.932 L 1512.48,693.336 L 1509.16,692.055 L 1494.34,687.242 L 1492.21,686.67 L 1477.4,683.521 L 1476.01,683.3 L 1461.2,681.743 L 1460.16,681.689 L 1445.35,681.689 L 1444.31,681.743 L 1429.5,683.3 L 1428.11,683.521 L 1413.29,686.67 L 1411.17,687.242 L 1396.35,692.055 L 1393.02,693.337 L 1378.21,699.934 L 1373.1,702.544 L 1365.24,707.085 L 687.124,707.085 L 679.26,711.625 L 674.15,714.238 L 659.334,720.835 L 656.008,722.115 L 641.192,726.929 L 639.064,727.501 L 624.249,730.65 L 622.861,730.87 L 608.048,732.427 L 607.014,732.482 L 592.198,732.482 L 591.164,732.428 L 576.348,730.871 L 574.96,730.65 L 560.145,727.501 L 558.017,726.929 L 543.202,722.115 L 539.874,720.834 L 525.06,714.237 L 519.954,711.627 L 505.139,703.074 L 497.456,698.065 L 493.846,695.442 L 493.38,694.396 L 489.263,686.324 L 488.692,685.335 L 484.277,676.654 L 482.912,673.588 L 490.303,661.124 z " style="fill-opacity:0.200000;fill:rgb(74,236,41);"/></g>
<g fill-rule="evenodd"><path d="M 308.795,759.181 L 308.795,754.99 L 309.571,740.175 L 309.634,739.19 L 310.672,735.979 L 315.804,722.068 L 317.461,718.212 L 323.45,706.069 L 324.245,705.022 L 327.038,701.716 L 333.286,695.064 L 336.886,690.648 L 336.945,690.565 L 338.125,688.974 L 339.593,687.089 L 342.08,683.566 L 344.339,680.036 L 347.968,673.41 L 349.81,669.466 L 351.215,666.614 L 352.026,665.049 L 353.233,662.627 L 364.583,660.215 L 371.218,659.161 L 386.034,657.604 L 392.198,657.28 L 407.014,657.28 L 413.179,657.604 L 427.993,659.161 L 434.627,660.215 L 449.442,663.364 L 457.054,665.41 L 470.472,669.769 L 471.877,670.213 L 481.678,673.218 L 482.912,673.588 L 484.277,676.654 L 488.692,685.335 L 489.263,686.324 L 493.38,694.396 L 493.846,695.442 L 497.456,698.065 L 505.139,703.074 L 519.954,711.627 L 525.06,714.237 L 539.874,720.834 L 543.202,722.115 L 558.017,726.929 L 560.145,727.501 L 574.96,730.65 L 576.348,730.871 L 591.164,732.428 L 592.198,732.482 L 607.014,732.482 L 608.048,732.427 L 622.861,730.87 L 624.249,730.65 L 639.064,727.501 L 641.192,726.929 L 656.008,722.115 L 659.334,720.835 L 674.15,714.238 L 679.26,711.625 L 687.124,707.085 L 1365.24,707.085 L 1373.1,702.544 L 1378.21,699.934 L 1393.02,693.337 L 1396.35,692.055 L 1411.17,687.242 L 1413.29,686.67 L 1428.11,683.521 L 1429.5,683.3 L 1444.31,681.743 L 1445.35,681.689 L 1460.16,681.689 L 1461.2,681.743 L 1476.01,683.3 L 1477.4,683.521 L 1492.21,686.67 L 1494.34,687.242 L 1509.16,692.055 L 1512.48,693.336 L 1527.3,699.932 L 1532.41,702.546 L 1547.23,711.099 L 1554.91,716.106 L 1558.51,718.729 L 1558.98,719.781 L 1563.1,727.844 L 1563.67,728.837 L 1568.08,737.512 L 1569.92,741.636 L 1574.98,751.538 L 1575.05,751.675 L 1577.99,757.086 L 1575.05,762.497 L 1574.98,762.633 L 1569.92,772.535 L 1568.08,776.66 L 1563.67,785.335 L 1563.1,786.328 L 1558.98,794.391 L 1558.52,795.441 L 1554.9,798.065 L 1547.22,803.072 L 1532.41,811.625 L 1527.3,814.238 L 1512.48,820.835 L 1509.16,822.115 L 1494.34,826.929 L 1492.21,827.501 L 1477.4,830.65 L 1476.01,830.871 L 1461.2,832.428 L 1460.16,832.482 L 1445.35,832.482 L 1444.31,832.428 L 1429.5,830.871 L 1428.11,830.65 L 1413.3,827.501 L 1411.17,826.929 L 1396.35,822.115 L 1393.02,820.834 L 1378.21,814.237 L 1373.1,811.627 L 1365.24,807.085 L 687.123,807.085 L 679.261,802.546 L 674.151,799.932 L 659.335,793.336 L 656.008,792.055 L 641.193,787.242 L 639.065,786.67 L 624.25,783.521 L 622.862,783.3 L 608.048,781.743 L 607.014,781.689 L 592.198,781.689 L 591.164,781.743 L 576.348,783.3 L 574.96,783.521 L 560.145,786.67 L 558.017,787.242 L 543.201,792.055 L 539.873,793.337 L 525.059,799.934 L 519.953,802.544 L 505.138,811.097 L 497.454,816.106 L 493.847,818.728 L 493.38,819.776 L 489.263,827.847 L 488.692,828.837 L 484.277,837.518 L 482.441,841.641 L 477.384,851.539 L 477.302,851.682 L 474.37,857.086 L 463.102,857.086 L 452.237,857.086 L 436.02,857.086 L 428.434,857.086 L 413.289,857.086 L 407.014,857.086 L 392.198,857.086 L 385.923,857.086 L 374.883,857.086 L 374.136,856.21 L 371.571,853.35 L 367.006,848.516 L 365.737,847.215 L 362.901,844.402 L 357.75,839.951 L 356.209,838.803 L 355.382,838.2 L 351.719,835.598 L 351.461,835.417 L 350.422,834.69 L 340.329,826.07 L 337.276,823.173 L 327.075,812.423 L 324.269,809.136 L 323.401,808.004 L 317.461,795.959 L 315.804,792.103 L 310.672,778.193 L 309.634,774.982 L 309.571,773.996 L 308.795,759.181 z " style="fill-opacity:0.200000;fill:rgb(205,186,171);"/></g>
<g fill-rule="evenodd"><path d="M 477.302,862.49 L 474.37,857.086 L 477.302,851.682 L 477.384,851.539 L 482.441,841.641 L 484.277,837.518 L 488.692,828.837 L 489.263,827.847 L 493.38,819.776 L 493.847,818.728 L 497.454,816.106 L 505.138,811.097 L 519.953,802.544 L 525.059,799.934 L 539.873,793.337 L 543.201,792.055 L 558.017,787.242 L 560.145,786.67 L 574.96,783.521 L 576.348,783.3 L 591.164,781.743 L 592.198,781.689 L 607.014,781.689 L 608.048,781.743 L 622.862,783.3 L 624.25,783.521 L 639.065,786.67 L 641.193,787.242 L 656.008,792.055 L 659.335,793.336 L 674.151,799.932 L 679.261,802.546 L 687.123,807.085 L 1365.24,807.085 L 1373.1,811.627 L 1378.21,814.237 L 1393.02,820.834 L 1396.35,822.115 L 1411.17,826.929 L 1413.3,827.501 L 1428.11,830.65 L 1429.5,830.871 L 1444.31,832.428 L 1445.35,832.482 L 1460.16,832.482 L 1461.2,832.428 L 1476.01,830.871 L 1477.4,830.65 L 1492.21,827.501 L 1494.34,826.929 L 1509.16,822.115 L 1512.48,820.835 L 1527.3,814.238 L 1532.41,811.625 L 1547.22,803.072 L 1554.9,798.065 L 1558.52,795.441 L 1558.98,794.391 L 1563.1,786.328 L 1563.67,785.335 L 1568.08,776.66 L 1569.92,772.535 L 1574.98,762.633 L 1575.05,762.497 L 1577.99,757.086 L 1589.26,757.086 L 1600.12,757.086 L 1616.34,757.086 L 1623.93,757.086 L 1639.07,757.086 L 1645.35,757.086 L 1660.16,757.086 L 1666.44,757.086 L 1680.57,757.086 L 1681.37,758.067 L 1685.27,762.731 L 1686.17,763.83 L 1688.03,766.159 L 1695.31,773.698 L 1697.26,775.338 L 1698.4,776.329 L 1700.74,778.438 L 1701.59,779.182 L 1712.03,788.102 L 1715.08,790.997 L 1725.28,801.748 L 1728.09,805.038 L 1728.96,806.168 L 1734.9,818.214 L 1736.56,822.068 L 1741.69,835.978 L 1742.73,839.191 L 1742.79,840.172 L 1743.57,854.988 L 1743.57,859.184 L 1742.79,873.999 L 1742.73,874.981 L 1741.69,878.193 L 1736.56,892.103 L 1734.9,895.957 L 1728.96,908.004 L 1728.09,909.133 L 1725.28,912.424 L 1715.08,923.174 L 1712.03,926.07 L 1701.94,934.69 L 1700.9,935.417 L 1700.64,935.598 L 1696.98,938.2 L 1696.15,938.803 L 1694.61,939.951 L 1689.46,944.402 L 1686.62,947.215 L 1685.35,948.516 L 1680.79,953.35 L 1678.21,956.227 L 1677.48,957.086 L 1666.44,957.086 L 1660.16,957.086 L 1645.35,957.086 L 1639.07,957.086 L 1623.93,957.086 L 1616.34,957.086 L 1600.12,957.086 L 1589.26,957.086 L 1577.99,957.086 L 1575.05,951.675 L 1574.98,951.538 L 1569.92,941.636 L 1568.08,937.512 L 1563.67,928.837 L 1563.1,927.844 L 1558.98,919.781 L 1558.52,918.731 L 1554.9,916.107 L 1547.22,911.1 L 1532.41,902.546 L 1527.3,899.933 L 1512.48,893.337 L 1509.16,892.056 L 1494.34,887.243 L 1492.21,886.671 L 1477.4,883.522 L 1476.01,883.301 L 1461.2,881.744 L 1460.16,881.69 L 1445.35,881.69 L 1444.31,881.744 L 1429.5,883.301 L 1428.11,883.522 L 1413.3,886.671 L 1411.17,887.243 L 1396.35,892.056 L 1393.02,893.338 L 1378.21,899.934 L 1373.1,902.545 L 1367.66,905.687 L 1364.4,903.988 L 1354.79,900.059 L 1350.97,898.926 L 1344.81,897.565 L 1342.89,897.287 L 1337.05,896.863 L 698.9,896.868 L 692.949,897.308 L 690.989,897.599 L 684.657,899.028 L 682.796,899.593 L 681.364,901.122 L 678.535,904.454 L 674.944,909.134 L 672.135,912.424 L 661.932,923.174 L 658.881,926.07 L 648.782,934.694 L 647.736,935.426 L 647.491,935.599 L 643.828,938.201 L 643.016,938.791 L 641.474,939.94 L 636.299,944.411 L 633.465,947.224 L 632.204,948.517 L 627.64,953.35 L 625.075,956.21 L 624.329,957.086 L 613.289,957.086 L 607.014,957.086 L 592.198,957.086 L 585.923,957.086 L 570.777,957.086 L 563.19,957.086 L 546.973,957.086 L 536.108,957.086 L 524.841,957.086 L 521.909,951.682 L 521.826,951.538 L 516.768,941.636 L 514.934,937.518 L 510.517,928.832 L 509.946,927.843 L 505.833,919.781 L 503.886,915.408 L 499.961,907.702 L 499.251,906.473 L 495.322,898.758 L 493.38,894.396 L 489.263,886.324 L 488.692,885.335 L 484.277,876.654 L 482.441,872.53 L 477.384,862.632 L 477.302,862.49 z " style="fill-opacity:0.200000;fill:rgb(242,251,227);"/></g>
<g fill-rule="evenodd"><path d="M 325.937,0.000146147 L 303.836,57.6477 L 281.35,105.324 L 258.863,142.027 L 247.619,156.264 L 236.374,167.758 L 229.791,173.685 L 222.928,179.268 L 220.779,180.829 L 216.594,184.133 L 212.3,187.825 L 211.939,188.139 L 208.84,190.857 L 207.126,192.44 L 203.979,195.504 L 203.242,196.24 L 199.366,200.212 L 198.461,201.11 L 196.343,203.146 L 195.202,204.288 L 192.455,207.145 L 191.698,207.953 L 188.425,211.535 L 186.19,214.153 L 183.745,217.213 L 183.445,217.584 L 179.341,222.635 L 179.263,222.732 L 174.009,229.219 L 166.678,237.32 L 163.386,240.612 L 145.469,255.962 L 122.418,271.313 L 94.2346,286.663 L 60.9176,302.014 L 22.4674,317.364 L 0.000189896,325.277 L 1.42109e-13,-8.52651e-14 L 325.937,0.000146147 z " style="fill-opacity:0.200000;fill:rgb(70,124,194);"/></g>
<polyline points="201.416,1446.06 201.416,222.732 202.778,215.892 205.672,211.286 214.164,203.702 220.78,201.608 2548.42,201.416 2556.63,203.504 2560.78,206.386 2564.61,211.752 2566.3,219.29 2566.3,1446.06 2563.06,1456.31 2555.96,1462.25 2548.42,1463.94 219.29,1463.94 212.79,1462.69 207.844,1459.72 202.764,1452.73 201.416,1446.06" style="stroke:rgb(103,198,105);stroke-width:15.748031;fill:none;stroke-opacity:0.5;stroke-linecap:round;stroke-linejoin:round;;fill:none"/>
<polyline points="201.416,1446.06 201.416,222.732 202.778,215.892 205.672,211.286 214.164,203.702 220.78,201.608 2548.42,201.416 2556.63,203.504 2560.78,206.386 2564.61,211.752 2566.3,219.29 2566.3,1446.06 2563.06,1456.31 2555.96,1462.25 2548.42,1463.94 219.29,1463.94 212.79,1462.69 207.844,1459.72 202.764,1452.73 201.416,1446.06" style="stroke:rgb(0,0,0);stroke-width:1px;fill:none;stroke-opacity:1;stroke-linecap:round;stroke-linejoin:round;;fill:none"/>
<polyline points="549.174,1146.94 549.698,1148.5 583.458,1160.85 624.782,1159.11 649.366,1148.93 650.038,1146.94 631.674,1128.57 623.938,1131.97 607.014,1135.44 590.56,1135.27 575.274,1131.97 567.536,1128.57 549.174,1146.94" style="stroke:rgb(103,198,105);stroke-width:15.748031;fill:none;stroke-opacity:0.5;stroke-linecap:round;stroke-linejoin:round;;fill:none"/>
<polyline points="549.174,1146.94 549.698,1148.5 583.458,1160.85 624.782,1159.11 649.366,1148.93 650.038,1146.94 631.674,1128.57 623.938,1131.97 607.014,1135.44 590.56,1135.27 575.274,1131.97 567.536,1128.57 549.174,1146.94" style="stroke:rgb(0,0,0);stroke-width:1px;fill:none;stroke-opacity:1;stroke-linecap:round;stroke-linejoin:round;;fill:none"/>
<polyline points="295.844,940.938 297.58,982.264 307.762,1006.85 309.754,1007.52 327.836,989.434 322.8,974.252 320.866,957.086 322.586,940.714 327.856,924.756 309.754,906.654 308.196,907.18 295.844,940.938" style="stroke:rgb(103,198,105);stroke-width:15.748031;fill:none;stroke-opacity:0.5;stroke-linecap:round;stroke-linejoin:round;;fill:none"/>
<polyline points="295.844,940.938 297.58,982.264 307.762,1006.85 309.754,1007.52 327.836,989.434 322.8,974.252 320.866,957.086 322.586,940.714 327.856,924.756 309.754,906.654 308.196,907.18 295.844,940.938" style="stroke:rgb(0,0,0);stroke-width:1px;fill:none;stroke-opacity:1;stroke-linecap:round;stroke-linejoin:round;;fill:none"/>
<polyline points="671.356,1089.42 676.624,1073.46 678.302,1057.91 676.624,1040.71 671.374,1024.74 689.456,1006.65 691.448,1007.32 701.632,1031.91 703.366,1073.23 691.016,1106.99 689.458,1107.52 671.356,1089.42" style="stroke:rgb(103,198,105);stroke-width:15.748031;fill:none;stroke-opacity:0.5;stroke-linecap:round;stroke-linejoin:round;;fill:none"/>
<polyline points="671.356,1089.42 676.624,1073.46 678.302,1057.91 676.624,1040.71 671.374,1024.74 689.456,1006.65 691.448,1007.32 701.632,1031.91 703.366,1073.23 691.016,1106.99 689.458,1107.52 671.356,1089.42" style="stroke:rgb(0,0,0);stroke-width:1px;fill:none;stroke-opacity:1;stroke-linecap:round;stroke-linejoin:round;;fill:none"/>
<polyline points="1973.78,1218.46 1973.78,1155.56 1997.85,1097.44 2042.33,1052.97 2100.44,1028.9 2163.34,1028.9 2221.45,1052.97 2265.93,1097.44 2290,1155.56 2290,1218.46 2265.93,1276.57 2221.45,1321.05 2163.34,1345.12 2100.44,1345.12 2042.33,1321.05 1997.85,1276.57 1973.78,1218.46" style="stroke:rgb(103,198,105);stroke-width:15.748031;fill:none;stroke-opacity:0.5;stroke-linecap:round;stroke-linejoin:round;;fill:none"/>
<polyline points="1973.78,1218.46 1973.78,1155.56 1997.85,1097.44 2042.33,1052.97 2100.44,1028.9 2163.34,1028.9 2221.45,1052.97 2265.93,1097.44 2290,1155.56 2290,1218.46 2265.93,1276.57 2221.45,1321.05 2163.34,1345.12 2100.44,1345.12 2042.33,1321.05 1997.85,1276.57 1973.78,1218.46" style="stroke:rgb(0,0,0);stroke-width:1px;fill:none;stroke-opacity:1;stroke-linecap:round;stroke-linejoin:round;;fill:none"/>
<polyline points="1602.32,1146.94 1602.85,1148.5 1636.61,1160.85 1677.93,1159.11 1702.52,1148.93 1703.19,1146.94 1684.82,1128.57 1677.09,1131.97 1660.16,1135.44 1643.71,1135.27 1628.42,1131.97 1620.69,1128.57 1602.32,1146.94" style="stroke:rgb(103,198,105);stroke-width:15.748031;fill:none;stroke-opacity:0.5;stroke-linecap:round;stroke-linejoin:round;;fill:none"/>
<polyline points="1602.32,1146.94 1602.85,1148.5 1636.61,1160.85 1677.93,1159.11 1702.52,1148.93 1703.19,1146.94 1684.82,1128.57 1677.09,1131.97 1660.16,1135.44 1643.71,1135.27 1628.42,1131.97 1620.69,1128.57 1602.32,1146.94" style="stroke:rgb(0,0,0);stroke-width:1px;fill:none;stroke-opacity:1;stroke-linecap:round;stroke-linejoin:round;;fill:none"/>
<polyline points="1724.52,1089.43 1729.56,1074.25 1731.5,1057.09 1729.56,1039.92 1724.52,1024.74 1742.61,1006.65 1744.6,1007.32 1754.78,1031.91 1756.52,1073.23 1744.16,1106.99 1742.61,1107.52 1724.52,1089.43" style="stroke:rgb(103,198,105);stroke-width:15.748031;fill:none;stroke-opacity:0.5;stroke-linecap:round;stroke-linejoin:round;;fill:none"/>
<polyline points="1724.52,1089.43 1729.56,1074.25 1731.5,1057.09 1729.56,1039.92 1724.52,1024.74 1742.61,1006.65 1744.6,1007.32 1754.78,1031.91 1756.52,1073.23 1744.16,1106.99 1742.61,1107.52 1724.52,1089.43" style="stroke:rgb(0,0,0);stroke-width:1px;fill:none;stroke-opacity:1;stroke-linecap:round;stroke-linejoin:round;;fill:none"/>
<polyline points="1973.78,509.796 1973.78,446.896 1997.85,388.784 2042.33,344.306 2100.44,320.236 2163.34,320.236 2221.45,344.306 2265.93,388.784 2290,446.896 2290,509.796 2265.93,567.908 2221.45,612.384 2163.34,636.456 2100.44,636.456 2042.33,612.386 1997.85,567.908 1973.78,509.796" style="stroke:rgb(103,198,105);stroke-width:15.748031;fill:none;stroke-opacity:0.5;stroke-linecap:round;stroke-linejoin:round;;fill:none"/>
<polyline points="1973.78,509.796 1973.78,446.896 1997.85,388.784 2042.33,344.306 2100.44,320.236 2163.34,320.236 2221.45,344.306 2265.93,388.784 2290,446.896 2290,509.796 2265.93,567.908 2221.45,612.384 2163.34,636.456 2100.44,636.456 2042.33,612.386 1997.85,567.908 1973.78,509.796" style="stroke:rgb(0,0,0);stroke-width:1px;fill:none;stroke-opacity:1;stroke-linecap:round;stroke-linejoin:round;;fill:none"/>
<polyline points="295.634,626.192 295.634,487.98 298.476,473.686 305.578,463.058 316.204,455.958 330.5,453.114 432.278,453.114 439.118,451.754 444.918,447.88 448.792,442.08 450.152,428.712 464.034,395.198 489.686,369.546 523.2,355.664 559.476,355.664 592.99,369.546 618.64,395.198 632.522,428.712 632.522,464.988 626.072,480.56 624.862,488.936 626.072,494.24 629.946,500.04 639.478,504.998 1330.91,505.274 1337.75,503.914 1345.31,497.952 1348.36,491.23 1351.63,473.684 1358.73,463.058 1369.35,455.958 1383.65,453.114 1485.43,453.114 1492.97,451.424 1498.33,447.6 1501.94,442.08 1503.3,428.712 1517.18,395.198 1542.83,369.546 1576.35,355.664 1612.63,355.664 1646.14,369.546 1671.79,395.198 1685.67,428.712 1685.67,464.988 1671.79,498.502 1646.71,523.58 1642.99,529.026 1641.67,534.268 1642.99,543.414 1646.71,548.858 1652.51,552.734 1659.35,554.094 1673.24,554.094 1711.1,569.774 1740.07,598.746 1755.75,636.6 1755.75,677.572 1740.07,715.426 1711.05,744.448 1707.17,750.246 1705.81,757.086 1707.17,763.926 1711.05,769.724 1740.07,798.746 1755.75,836.6 1755.75,877.572 1740.07,915.426 1705.52,949.304 1702.09,957.428 1703.27,967.152 1684.82,985.598 1677.09,982.2 1660.16,978.734 1643.71,978.906 1629.22,981.986 1612.69,989.344 1600.07,998.57 1589.57,1010.16 1580.82,1025.06 1575.61,1041.53 1574.01,1057.09 1575.61,1072.64 1580.99,1089.43 1562.9,1107.52 1560.91,1106.85 1550.73,1082.26 1549.34,1049.21 1547.85,1042.77 1536.3,1029.5 1529.52,1025.28 1520.37,1024.59 1513.71,1027.32 1507.86,1033.84 1502.52,1048.93 1477.93,1059.11 1436.61,1060.85 1402.85,1048.5 1402.32,1046.94 1420.69,1028.57 1428.42,1031.97 1443.71,1035.27 1460.16,1035.44 1477.09,1031.97 1491.39,1025.65 1506.03,1015.02 1516.91,1002.68 1524.98,988.342 1529.9,972.642 1531.5,957.086 1529.9,941.528 1524.69,925.06 1516.91,911.494 1506.03,899.154 1491.39,888.52 1482.68,884.644 1460.16,881.69 1444.31,881.744 1422.83,884.642 1412.69,889.344 1400.71,898.052 1389.57,910.164 1380.82,925.06 1375.61,941.528 1374.01,957.086 1375.61,972.642 1380.99,989.434 1362.9,1007.52 1360.91,1006.85 1350.73,982.264 1348.99,940.938 1352.91,927.678 1351.96,920.95 1347.57,913.922 1338.19,909.162 696.614,909.428 688.212,914.132 652.376,949.304 648.946,957.428 650.12,967.152 631.674,985.596 623.938,982.2 608.65,978.906 590.56,978.906 575.274,982.2 560.97,988.52 546.336,999.154 535.904,1010.8 528.046,1024.33 522.458,1041.53 520.866,1057.09 522.458,1072.64 527.836,1089.43 509.754,1107.52 507.762,1106.85 497.58,1082.26 496.192,1049.21 494.7,1042.77 483.154,1029.5 476.374,1025.28 467.222,1024.59 460.558,1027.32 454.708,1033.84 449.366,1048.93 424.782,1059.11 383.458,1060.85 349.698,1048.5 349.174,1046.94 367.536,1028.57 375.274,1031.97 390.56,1035.27 408.65,1035.27 423.938,1031.97 438.242,1025.65 452.292,1015.6 463.308,1003.37 471.834,988.342 476.754,972.642 478.346,957.086 476.754,941.528 471.538,925.06 463.308,910.804 452.292,898.57 438.242,888.52 423.938,882.2 407.014,878.734 390.56,878.906 375.274,882.2 367.536,885.598 349.092,867.152 350.266,857.428 346.836,849.304 312.292,815.426 296.614,777.572 296.614,736.598 312.308,698.708 325.128,685.51 328.338,675.296 326.978,668.456 323.37,662.938 305.578,651.114 298.478,640.486 295.634,626.192" style="stroke:rgb(103,198,105);stroke-width:15.748031;fill:none;stroke-opacity:0.5;stroke-linecap:round;stroke-linejoin:round;;fill:none"/>
<polyline points="295.634,626.192 295.634,487.98 298.476,473.686 305.578,463.058 316.204,455.958 330.5,453.114 432.278,453.114 439.118,451.754 444.918,447.88 448.792,442.08 450.152,428.712 464.034,395.198 489.686,369.546 523.2,355.664 559.476,355.664 592.99,369.546 618.64,395.198 632.522,428.712 632.522,464.988 626.072,480.56 624.862,488.936 626.072,494.24 629.946,500.04 639.478,504.998 1330.91,505.274 1337.75,503.914 1345.31,497.952 1348.36,491.23 1351.63,473.684 1358.73,463.058 1369.35,455.958 1383.65,453.114 1485.43,453.114 1492.97,451.424 1498.33,447.6 1501.94,442.08 1503.3,428.712 1517.18,395.198 1542.83,369.546 1576.35,355.664 1612.63,355.664 1646.14,369.546 1671.79,395.198 1685.67,428.712 1685.67,464.988 1671.79,498.502 1646.71,523.58 1642.99,529.026 1641.67,534.268 1642.99,543.414 1646.71,548.858 1652.51,552.734 1659.35,554.094 1673.24,554.094 1711.1,569.774 1740.07,598.746 1755.75,636.6 1755.75,677.572 1740.07,715.426 1711.05,744.448 1707.17,750.246 1705.81,757.086 1707.17,763.926 1711.05,769.724 1740.07,798.746 1755.75,836.6 1755.75,877.572 1740.07,915.426 1705.52,949.304 1702.09,957.428 1703.27,967.152 1684.82,985.598 1677.09,982.2 1660.16,978.734 1643.71,978.906 1629.22,981.986 1612.69,989.344 1600.07,998.57 1589.57,1010.16 1580.82,1025.06 1575.61,1041.53 1574.01,1057.09 1575.61,1072.64 1580.99,1089.43 1562.9,1107.52 1560.91,1106.85 1550.73,1082.26 1549.34,1049.21 1547.85,1042.77 1536.3,1029.5 1529.52,1025.28 1520.37,1024.59 1513.71,1027.32 1507.86,1033.84 1502.52,1048.93 1477.93,1059.11 1436.61,1060.85 1402.85,1048.5 1402.32,1046.94 1420.69,1028.57 1428.42,1031.97 1443.71,1035.27 1460.16,1035.44 1477.09,1031.97 1491.39,1025.65 1506.03,1015.02 1516.91,1002.68 1524.98,988.342 1529.9,972.642 1531.5,957.086 1529.9,941.528 1524.69,925.06 1516.91,911.494 1506.03,899.154 1491.39,888.52 1482.68,884.644 1460.16,881.69 1444.31,881.744 1422.83,884.642 1412.69,889.344 1400.71,898.052 1389.57,910.164 1380.82,925.06 1375.61,941.528 1374.01,957.086 1375.61,972.642 1380.99,989.434 1362.9,1007.52 1360.91,1006.85 1350.73,982.264 1348.99,940.938 1352.91,927.678 1351.96,920.95 1347.57,913.922 1338.19,909.162 696.614,909.428 688.212,914.132 652.376,949.304 648.946,957.428 650.12,967.152 631.674,985.596 623.938,982.2 608.65,978.906 590.56,978.906 575.274,982.2 560.97,988.52 546.336,999.154 535.904,1010.8 528.046,1024.33 522.458,1041.53 520.866,1057.09 522.458,1072.64 527.836,1089.43 509.754,1107.52 507.762,1106.85 497.58,1082.26 496.192,1049.21 494.7,1042.77 483.154,1029.5 476.374,1025.28 467.222,1024.59 460.558,1027.32 454.708,1033.84 449.366,1048.93 424.782,1059.11 383.458,1060.85 349.698,1048.5 349.174,1046.94 367.536,1028.57 375.274,1031.97 390.56,1035.27 408.65,1035.27 423.938,1031.97 438.242,1025.65 452.292,1015.6 463.308,1003.37 471.834,988.342 476.754,972.642 478.346,957.086 476.754,941.528 471.538,925.06 463.308,910.804 452.292,898.57 438.242,888.52 423.938,882.2 407.014,878.734 390.56,878.906 375.274,882.2 367.536,885.598 349.092,867.152 350.266,857.428 346.836,849.304 312.292,815.426 296.614,777.572 296.614,736.598 312.308,698.708 325.128,685.51 328.338,675.296 326.978,668.456 323.37,662.938 305.578,651.114 298.478,640.486 295.634,626.192" style="stroke:rgb(0,0,0);stroke-width:1px;fill:none;stroke-opacity:1;stroke-linecap:round;stroke-linejoin:round;;fill:none"/>
<polyline points="320.866,627.952 320.866,486.22 323.172,480.652 327.204,478.498 473.484,478.946 477.018,481.846 478.346,486.22 478.346,529.526 1374.01,529.526 1374.17,484.684 1376.32,480.652 1380.35,478.498 1523.62,478.346 1529.19,480.652 1531.34,484.684 1531.5,627.952 1528.35,631.494 1523.62,632.676 1381.89,632.676 1377.16,631.494 1374.01,627.952 1374.01,584.644 629.542,584.644 607.012,581.688 591.164,581.742 569.666,584.644 478.346,584.644 478.194,629.488 476.04,633.52 472.008,635.674 328.74,635.826 323.172,633.52 320.866,627.952" style="stroke:rgb(115,81,255);stroke-width:15.748031;fill:none;stroke-opacity:0.5;stroke-linecap:round;stroke-linejoin:round;;fill:none"/>
<polyline points="320.866,627.952 320.866,486.22 323.172,480.652 327.204,478.498 473.484,478.946 477.018,481.846 478.346,486.22 478.346,529.526 1374.01,529.526 1374.17,484.684 1376.32,480.652 1380.35,478.498 1523.62,478.346 1529.19,480.652 1531.34,484.684 1531.5,627.952 1528.35,631.494 1523.62,632.676 1381.89,632.676 1377.16,631.494 1374.01,627.952 1374.01,584.644 629.542,584.644 607.012,581.688 591.164,581.742 569.666,584.644 478.346,584.644 478.194,629.488 476.04,633.52 472.008,635.674 328.74,635.826 323.172,633.52 320.866,627.952" style="stroke:rgb(0,0,0);stroke-width:1px;fill:none;stroke-opacity:1;stroke-linecap:round;stroke-linejoin:round;;fill:none"/>
<polyline points="520.908,657.908 522.586,640.714 527.378,625.828 535.904,610.804 546.336,599.154 559.544,589.344 569.682,584.642 591.164,581.742 607.012,581.688 622.86,583.3 629.53,584.642 639.666,589.344 652.292,598.57 662.788,610.164 673.036,629.526 1374.54,629.526 1381.89,632.676 1523.62,632.676 1530.97,629.526 1579.33,629.526 1588.6,611.494 1600.71,598.052 1614.12,588.52 1627.65,582.494 1645.35,578.734 1660.99,578.778 1677.09,582.2 1691.39,588.52 1705.44,598.57 1716.91,611.494 1724.69,625.06 1729.56,639.918 1731.5,657.086 1729.56,674.252 1724.69,689.112 1716.91,702.676 1706.03,715.018 1691.39,725.652 1677.09,731.972 1660.16,735.438 1644.52,735.394 1629.22,732.186 1612.69,724.828 1599.48,715.018 1589.57,704.008 1579.33,684.644 1482.69,684.644 1460.16,681.688 1444.31,681.742 1422.82,684.644 673.036,684.644 662.788,704.008 652.292,715.602 639.666,724.828 629.542,729.524 622.86,730.87 607.012,732.48 591.164,732.426 569.67,729.524 559.544,724.828 546.336,715.018 535.454,702.676 527.672,689.112 522.8,674.252 520.908,657.908" style="stroke:rgb(74,236,41);stroke-width:15.748031;fill:none;stroke-opacity:0.5;stroke-linecap:round;stroke-linejoin:round;;fill:none"/>
<polyline points="520.908,657.908 522.586,640.714 527.378,625.828 535.904,610.804 546.336,599.154 559.544,589.344 569.682,584.642 591.164,581.742 607.012,581.688 622.86,583.3 629.53,584.642 639.666,589.344 652.292,598.57 662.788,610.164 673.036,629.526 1374.54,629.526 1381.89,632.676 1523.62,632.676 1530.97,629.526 1579.33,629.526 1588.6,611.494 1600.71,598.052 1614.12,588.52 1627.65,582.494 1645.35,578.734 1660.99,578.778 1677.09,582.2 1691.39,588.52 1705.44,598.57 1716.91,611.494 1724.69,625.06 1729.56,639.918 1731.5,657.086 1729.56,674.252 1724.69,689.112 1716.91,702.676 1706.03,715.018 1691.39,725.652 1677.09,731.972 1660.16,735.438 1644.52,735.394 1629.22,732.186 1612.69,724.828 1599.48,715.018 1589.57,704.008 1579.33,684.644 1482.69,684.644 1460.16,681.688 1444.31,681.742 1422.82,684.644 673.036,684.644 662.788,704.008 652.292,715.602 639.666,724.828 629.542,729.524 622.86,730.87 607.012,732.48 591.164,732.426 569.67,729.524 559.544,724.828 546.336,715.018 535.454,702.676 527.672,689.112 522.8,674.252 520.908,657.908" style="stroke:rgb(0,0,0);stroke-width:1px;fill:none;stroke-opacity:1;stroke-linecap:round;stroke-linejoin:round;;fill:none"/>
<polyline points="320.866,757.086 322.8,774.252 327.672,789.112 335.454,802.676 346.336,815.018 360.97,825.652 375.274,831.972 392.198,835.438 407.014,835.438 423.142,832.186 439.666,824.828 452.292,815.602 462.788,804.008 473.036,784.644 569.666,784.644 592.198,781.688 608.048,781.742 629.542,784.644 1379.33,784.644 1389.57,804.008 1399.48,815.018 1412.69,824.828 1422.82,829.524 1429.5,830.87 1445.35,832.482 1461.19,832.426 1482.69,829.524 1492.82,824.828 1506.03,815.018 1516.91,802.676 1524.69,789.112 1529.56,774.252 1531.5,757.086 1529.56,739.918 1524.69,725.06 1516.91,711.494 1506.03,699.154 1492.82,689.344 1482.68,684.642 1461.19,681.742 1445.35,681.688 1429.5,683.3 1422.83,684.642 1412.69,689.344 1400.07,698.57 1389.57,710.164 1379.33,729.526 629.528,729.526 608.046,732.426 592.198,732.48 569.68,729.526 473.036,729.526 463.308,710.804 451.652,698.052 438.242,688.52 424.706,682.494 407.014,678.734 390.56,678.906 375.274,682.2 360.97,688.52 346.918,698.57 336.422,710.164 328.046,724.326 322.586,740.714 320.866,757.086" style="stroke:rgb(205,186,171);stroke-width:15.748031;fill:none;stroke-opacity:0.5;stroke-linecap:round;stroke-linejoin:round;;fill:none"/>
<polyline points="320.866,757.086 322.8,774.252 327.672,789.112 335.454,802.676 346.336,815.018 360.97,825.652 375.274,831.972 392.198,835.438 407.014,835.438 423.142,832.186 439.666,824.828 452.292,815.602 462.788,804.008 473.036,784.644 569.666,784.644 592.198,781.688 608.048,781.742 629.542,784.644 1379.33,784.644 1389.57,804.008 1399.48,815.018 1412.69,824.828 1422.82,829.524 1429.5,830.87 1445.35,832.482 1461.19,832.426 1482.69,829.524 1492.82,824.828 1506.03,815.018 1516.91,802.676 1524.69,789.112 1529.56,774.252 1531.5,757.086 1529.56,739.918 1524.69,725.06 1516.91,711.494 1506.03,699.154 1492.82,689.344 1482.68,684.642 1461.19,681.742 1445.35,681.688 1429.5,683.3 1422.83,684.642 1412.69,689.344 1400.07,698.57 1389.57,710.164 1379.33,729.526 629.528,729.526 608.046,732.426 592.198,732.48 569.68,729.526 473.036,729.526 463.308,710.804 451.652,698.052 438.242,688.52 424.706,682.494 407.014,678.734 390.56,678.906 375.274,682.2 360.97,688.52 346.918,698.57 336.422,710.164 328.046,724.326 322.586,740.714 320.866,757.086" style="stroke:rgb(0,0,0);stroke-width:1px;fill:none;stroke-opacity:1;stroke-linecap:round;stroke-linejoin:round;;fill:none"/>
<polyline points="520.866,857.086 522.8,874.252 527.672,889.112 535.454,902.676 546.336,915.018 560.97,925.652 575.274,931.972 592.198,935.438 607.014,935.438 623.142,932.186 639.666,924.828 652.292,915.602 662.788,904.008 673.036,884.646 1422.82,884.646 1445.35,881.69 1461.19,881.744 1482.69,884.646 1579.33,884.646 1589.57,904.008 1599.48,915.018 1612.69,924.828 1629.22,932.186 1643.71,935.266 1660.16,935.438 1677.09,931.972 1691.39,925.652 1706.03,915.018 1716.91,902.676 1724.69,889.112 1729.56,874.252 1731.5,857.086 1729.56,839.918 1724.69,825.06 1716.91,811.494 1706.03,799.154 1692.82,789.344 1677.86,782.494 1660.16,778.734 1643.71,778.906 1629.22,781.986 1612.69,789.344 1600.07,798.57 1589.57,810.164 1579.33,829.526 1482.68,829.526 1460.16,832.482 1444.31,832.426 1422.83,829.526 673.036,829.526 662.788,810.164 652.292,798.57 639.666,789.344 629.53,784.642 622.86,783.3 607.012,781.688 591.164,781.742 569.682,784.642 560.236,788.894 546.336,799.154 535.904,810.804 527.672,825.06 522.8,839.918 520.866,857.086" style="stroke:rgb(242,251,227);stroke-width:15.748031;fill:none;stroke-opacity:0.5;stroke-linecap:round;stroke-linejoin:round;;fill:none"/>
<polyline points="520.866,857.086 522.8,874.252 527.672,889.112 535.454,902.676 546.336,915.018 560.97,925.652 575.274,931.972 592.198,935.438 607.014,935.438 623.142,932.186 639.666,924.828 652.292,915.602 662.788,904.008 673.036,884.646 1422.82,884.646 1445.35,881.69 1461.19,881.744 1482.69,884.646 1579.33,884.646 1589.57,904.008 1599.48,915.018 1612.69,924.828 1629.22,932.186 1643.71,935.266 1660.16,935.438 1677.09,931.972 1691.39,925.652 1706.03,915.018 1716.91,902.676 1724.69,889.112 1729.56,874.252 1731.5,857.086 1729.56,839.918 1724.69,825.06 1716.91,811.494 1706.03,799.154 1692.82,789.344 1677.86,782.494 1660.16,778.734 1643.71,778.906 1629.22,781.986 1612.69,789.344 1600.07,798.57 1589.57,810.164 1579.33,829.526 1482.68,829.526 1460.16,832.482 1444.31,832.426 1422.83,829.526 673.036,829.526 662.788,810.164 652.292,798.57 639.666,789.344 629.53,784.642 622.86,783.3 607.012,781.688 591.164,781.742 569.682,784.642 560.236,788.894 546.336,799.154 535.904,810.804 527.672,825.06 522.8,839.918 520.866,857.086" style="stroke:rgb(0,0,0);stroke-width:1px;fill:none;stroke-opacity:1;stroke-linecap:round;stroke-linejoin:round;;fill:none"/>
<polyline points="155.512,163.386 155.664,196.244 159.012,201.256 163.386,202.582 176.32,200.532 183.07,197.48 190.312,192.06 198.978,180.132 201.894,171.57 202.712,164.208 200.732,158.118 194.882,155.512 161.85,155.664 156.84,159.012 155.512,163.386" style="stroke:rgb(70,124,194);stroke-width:15.748031;fill:none;stroke-opacity:0.5;stroke-linecap:round;stroke-linejoin:round;;fill:none"/>
<polyline points="155.512,163.386 155.664,196.244 159.012,201.256 163.386,202.582 176.32,200.532 183.07,197.48 190.312,192.06 198.978,180.132 201.894,171.57 202.712,164.208 200.732,158.118 194.882,155.512 161.85,155.664 156.84,159.012 155.512,163.386" style="stroke:rgb(0,0,0);stroke-width:1px;fill:none;stroke-opacity:1;stroke-linecap:round;stroke-linejoin:round;;fill:none"/>
<g fill-rule="evenodd"><path d="M 209.291,486.221 L 209.291,222.733 L 210.053,218.906 L 212.22,215.662 L 217.177,210.977 L 220.782,209.483 L 2548.43,209.291 L 2552.25,210.053 L 2555.5,212.22 L 2556.74,213.736 L 2557.66,215.465 L 2558.43,219.291 L 2558.43,1446.06 L 2557.66,1449.89 L 2556.74,1451.62 L 2553.98,1454.38 L 2552.25,1455.3 L 2548.43,1456.06 L 219.291,1456.06 L 217.212,1455.84 L 215.224,1455.2 L 213.413,1454.15 L 211.201,1451.94 L 209.781,1449.15 L 209.291,1446.06 L 209.291,486.221M 1965.91,1220.02 L 1991.18,1281.03 L 2037.87,1327.72 L 2098.87,1352.99 L 2164.91,1352.99 L 2225.91,1327.72 L 2272.6,1281.03 L 2297.87,1220.02 L 2297.87,1153.99 L 2272.6,1092.99 L 2225.91,1046.29 L 2164.91,1021.02 L 2098.87,1021.02 L 2037.87,1046.29 L 1991.18,1092.99 L 1965.91,1153.99 L 1965.91,1220.02M 1965.91,511.363 L 1991.18,572.369 L 2037.87,619.061 L 2098.87,644.331 L 2164.91,644.331 L 2225.91,619.061 L 2272.6,572.369 L 2297.87,511.363 L 2297.87,445.33 L 2272.6,384.324 L 2225.91,337.632 L 2164.91,312.362 L 2098.87,312.362 L 2037.87,337.632 L 1991.18,384.324 L 1965.91,445.33 L 1965.91,511.363M 1686.57,1119.18 L 1674.65,1124.48 L 1660.16,1127.56 L 1645.35,1127.56 L 1630.86,1124.48 L 1618.95,1119.18 L 1593.3,1144.82 L 1596.59,1154.59 L 1635.37,1168.78 L 1679.66,1166.92 L 1708.84,1154.83 L 1712.21,1144.82 L 1686.57,1119.18M 1714.7,1090.75 L 1740.49,1116.54 L 1750.26,1113.25 L 1764.45,1074.47 L 1762.59,1030.19 L 1750.5,1001.01 L 1740.49,997.634 L 1714.7,1023.42 L 1717.5,1028.26 L 1722.07,1042.35 L 1723.62,1057.09 L 1722.07,1071.82 L 1717.5,1085.91 L 1714.7,1090.75M 337.66,990.749 L 334.867,985.911 L 330.289,971.821 L 328.74,957.087 L 330.289,942.353 L 334.867,928.263 L 337.66,923.425 L 311.869,897.634 L 302.101,900.925 L 287.913,939.705 L 289.772,983.988 L 301.858,1013.17 L 311.869,1016.54 L 337.66,990.749M 633.416,1119.18 L 621.505,1124.48 L 607.014,1127.56 L 592.199,1127.56 L 577.707,1124.48 L 565.796,1119.18 L 540.153,1144.82 L 543.444,1154.59 L 582.224,1168.78 L 626.508,1166.92 L 655.687,1154.83 L 659.059,1144.82 L 633.416,1119.18M 661.552,1090.75 L 687.343,1116.54 L 697.112,1113.25 L 711.3,1074.47 L 709.441,1030.19 L 697.354,1001.01 L 687.343,997.634 L 661.552,1023.42 L 664.346,1028.26 L 668.924,1042.35 L 670.472,1057.09 L 668.924,1071.82 L 664.346,1085.91 L 661.552,1090.75M 537.66,1090.75 L 534.867,1085.91 L 530.289,1071.82 L 528.74,1057.09 L 530.289,1042.35 L 534.867,1028.26 L 542.274,1015.43 L 552.188,1004.42 L 564.173,995.715 L 577.707,989.689 L 592.199,986.609 L 607.014,986.609 L 621.505,989.689 L 633.416,994.992 L 659.059,969.349 L 656.62,961.558 L 656.81,957.828 L 658.355,954.427 L 659.576,953.002 L 662.336,951.146 L 693.781,919.701 L 697.025,917.533 L 698.901,916.964 L 1337.06,916.956 L 1338.89,917.501 L 1342.1,919.583 L 1344.29,922.714 L 1345.14,926.436 L 1344.54,930.208 L 1341.06,939.705 L 1342.92,983.988 L 1355.01,1013.17 L 1365.02,1016.54 L 1390.81,990.749 L 1388.02,985.911 L 1383.44,971.821 L 1381.89,957.087 L 1383.44,942.353 L 1388.02,928.263 L 1395.42,915.433 L 1405.34,904.423 L 1417.32,895.715 L 1430.86,889.689 L 1445.35,886.609 L 1460.16,886.609 L 1474.65,889.689 L 1488.19,895.715 L 1500.17,904.423 L 1510.09,915.433 L 1517.5,928.263 L 1522.07,942.353 L 1523.62,957.087 L 1522.07,971.821 L 1517.5,985.911 L 1510.09,998.741 L 1500.17,1009.75 L 1488.19,1018.46 L 1474.65,1024.48 L 1460.16,1027.56 L 1445.35,1027.56 L 1430.86,1024.48 L 1418.95,1019.18 L 1393.3,1044.82 L 1396.59,1054.59 L 1435.37,1068.78 L 1479.66,1066.92 L 1508.84,1054.83 L 1514.19,1038.95 L 1515.03,1037.1 L 1516.22,1035.46 L 1517.72,1034.1 L 1519.47,1033.06 L 1521.38,1032.4 L 1523.39,1032.14 L 1525.42,1032.29 L 1527.37,1032.85 L 1529.16,1033.79 L 1530.74,1035.07 L 1538.56,1042.89 L 1540.64,1045.94 L 1541.48,1049.54 L 1542.92,1083.99 L 1555.01,1113.17 L 1565.02,1116.54 L 1590.81,1090.75 L 1588.02,1085.91 L 1583.44,1071.82 L 1581.89,1057.09 L 1583.44,1042.35 L 1588.02,1028.26 L 1595.42,1015.43 L 1605.34,1004.42 L 1617.32,995.715 L 1630.86,989.689 L 1645.35,986.609 L 1660.16,986.609 L 1674.65,989.689 L 1686.57,994.992 L 1712.21,969.35 L 1709.77,961.558 L 1709.96,957.828 L 1711.51,954.427 L 1712.73,953.002 L 1715.49,951.146 L 1746.74,919.887 L 1763.62,879.139 L 1763.62,835.034 L 1746.74,794.286 L 1716.62,764.158 L 1714.45,760.914 L 1713.69,757.087 L 1714.45,753.26 L 1716.62,750.016 L 1746.74,719.887 L 1763.62,679.139 L 1763.62,635.034 L 1746.74,594.286 L 1715.56,563.099 L 1674.81,546.221 L 1659.35,546.221 L 1655.52,545.459 L 1652.28,543.292 L 1650.11,540.047 L 1649.54,538.171 L 1649.54,534.27 L 1650.11,532.394 L 1652.28,529.149 L 1678.47,502.963 L 1693.55,466.555 L 1693.55,427.146 L 1678.47,390.738 L 1650.6,362.872 L 1614.19,347.791 L 1574.78,347.791 L 1538.38,362.872 L 1510.51,390.738 L 1495.43,427.147 L 1495.43,435.241 L 1494.67,439.068 L 1492.5,442.312 L 1490.98,443.556 L 1489.26,444.48 L 1485.43,445.241 L 1382.87,445.241 L 1366.28,448.541 L 1353.05,457.383 L 1344.21,470.614 L 1340.91,487.205 L 1340.72,489.353 L 1339.23,492.957 L 1337.98,494.473 L 1334.74,496.64 L 1330.91,497.402 L 640.636,497.21 L 638.76,496.64 L 635.515,494.473 L 633.348,491.228 L 632.586,487.402 L 633.348,483.575 L 640.397,466.555 L 640.397,427.146 L 625.317,390.738 L 597.451,362.872 L 561.042,347.791 L 521.635,347.791 L 485.226,362.872 L 457.36,390.738 L 442.28,427.146 L 442.28,435.241 L 441.518,439.068 L 439.351,442.312 L 436.106,444.48 L 432.28,445.241 L 329.725,445.241 L 313.133,448.541 L 299.902,457.382 L 291.061,470.614 L 287.761,487.205 L 287.761,626.968 L 291.061,643.56 L 299.902,656.791 L 313.338,665.769 L 316.021,666.983 L 317.536,668.226 L 319.704,671.471 L 320.465,675.297 L 319.704,679.124 L 318.78,680.853 L 305.618,694.287 L 288.74,735.034 L 288.74,779.14 L 305.618,819.887 L 336.877,851.146 L 339.637,853.002 L 340.857,854.427 L 342.403,857.828 L 342.592,861.558 L 340.153,869.35 L 365.796,894.992 L 377.707,889.689 L 392.199,886.609 L 407.014,886.609 L 421.505,889.689 L 435.039,895.715 L 447.025,904.423 L 456.938,915.433 L 464.346,928.263 L 468.924,942.353 L 470.472,957.087 L 468.924,971.821 L 464.346,985.911 L 456.938,998.741 L 447.025,1009.75 L 435.039,1018.46 L 421.505,1024.48 L 407.014,1027.56 L 392.199,1027.56 L 377.707,1024.48 L 365.796,1019.18 L 340.153,1044.82 L 343.444,1054.59 L 382.224,1068.78 L 426.508,1066.92 L 455.687,1054.83 L 461.039,1038.95 L 461.878,1037.1 L 463.072,1035.46 L 464.572,1034.1 L 466.317,1033.06 L 468.234,1032.4 L 470.245,1032.14 L 472.267,1032.29 L 474.217,1032.85 L 476.015,1033.79 L 477.587,1035.07 L 485.405,1042.89 L 487.491,1045.94 L 488.325,1049.54 L 489.772,1083.99 L 501.858,1113.17 L 511.869,1116.54 L 537.66,1090.75 z " style="fill-opacity:1.000000;fill:rgb(103,198,105);stroke:rgb(0,0,0);stroke-width:2"/></g>
<g fill-rule="evenodd"><path d="M 470.472,576.772 L 470.472,627.953 L 328.74,627.953 L 328.74,486.221 L 470.472,486.221 L 470.472,537.402 L 1381.89,537.402 L 1381.89,486.221 L 1523.62,486.221 L 1523.62,627.953 L 1381.89,627.953 L 1381.89,576.772 L 470.472,576.772 z " style="fill-opacity:1.000000;fill:rgb(115,81,255);stroke:rgb(0,0,0);stroke-width:2"/></g>
<g fill-rule="evenodd"><path d="M 667.315,676.772 L 664.346,685.911 L 656.938,698.741 L 647.025,709.75 L 635.039,718.459 L 621.505,724.484 L 607.014,727.565 L 592.199,727.565 L 577.707,724.484 L 564.173,718.459 L 552.188,709.75 L 542.274,698.741 L 534.867,685.911 L 530.289,671.821 L 528.74,657.087 L 530.289,642.353 L 534.867,628.263 L 542.274,615.433 L 552.188,604.423 L 564.173,595.715 L 577.707,589.689 L 592.199,586.609 L 607.014,586.609 L 621.505,589.689 L 635.039,595.715 L 647.025,604.423 L 656.938,615.433 L 664.346,628.263 L 667.315,637.402 L 1585.05,637.402 L 1588.02,628.263 L 1595.42,615.433 L 1605.34,604.423 L 1617.32,595.715 L 1630.86,589.689 L 1645.35,586.609 L 1660.16,586.609 L 1674.65,589.689 L 1688.19,595.715 L 1700.17,604.423 L 1710.09,615.433 L 1717.5,628.263 L 1722.07,642.353 L 1723.62,657.087 L 1722.07,671.821 L 1717.5,685.911 L 1710.09,698.741 L 1700.17,709.75 L 1688.19,718.459 L 1674.65,724.484 L 1660.16,727.565 L 1645.35,727.565 L 1630.86,724.484 L 1617.32,718.459 L 1605.34,709.75 L 1595.42,698.741 L 1588.02,685.911 L 1585.05,676.772 L 667.315,676.772 z " style="fill-opacity:1.000000;fill:rgb(74,236,41);stroke:rgb(0,0,0);stroke-width:2"/></g>
<g fill-rule="evenodd"><path d="M 467.315,776.772 L 464.346,785.911 L 456.938,798.741 L 447.025,809.75 L 435.039,818.459 L 421.505,824.484 L 407.014,827.565 L 392.199,827.565 L 377.707,824.484 L 364.173,818.459 L 352.188,809.75 L 342.274,798.741 L 334.867,785.911 L 330.289,771.821 L 328.74,757.087 L 330.289,742.353 L 334.867,728.263 L 342.274,715.433 L 352.188,704.423 L 364.173,695.715 L 377.707,689.689 L 392.199,686.609 L 407.014,686.609 L 421.505,689.689 L 435.039,695.715 L 447.025,704.423 L 456.938,715.433 L 464.346,728.263 L 467.315,737.402 L 1385.05,737.402 L 1388.02,728.263 L 1395.42,715.433 L 1405.34,704.423 L 1417.32,695.715 L 1430.86,689.689 L 1445.35,686.609 L 1460.16,686.609 L 1474.65,689.689 L 1488.19,695.715 L 1500.17,704.423 L 1510.09,715.433 L 1517.5,728.263 L 1522.07,742.353 L 1523.62,757.087 L 1522.07,771.821 L 1517.5,785.911 L 1510.09,798.741 L 1500.17,809.75 L 1488.19,818.459 L 1474.65,824.484 L 1460.16,827.565 L 1445.35,827.565 L 1430.86,824.484 L 1417.32,818.459 L 1405.34,809.75 L 1395.42,798.741 L 1388.02,785.911 L 1385.05,776.772 L 467.315,776.772 z " style="fill-opacity:1.000000;fill:rgb(205,186,171);stroke:rgb(0,0,0);stroke-width:2"/></g>
<g fill-rule="evenodd"><path d="M 667.315,876.772 L 664.346,885.911 L 656.938,898.741 L 647.025,909.75 L 635.039,918.459 L 621.505,924.484 L 607.014,927.565 L 592.199,927.565 L 577.707,924.484 L 564.173,918.459 L 552.188,909.75 L 542.274,898.741 L 534.867,885.911 L 530.289,871.821 L 528.74,857.087 L 530.289,842.353 L 534.867,828.263 L 542.274,815.433 L 552.188,804.423 L 564.173,795.715 L 577.707,789.689 L 592.199,786.609 L 607.014,786.609 L 621.505,789.689 L 635.039,795.715 L 647.025,804.423 L 656.938,815.433 L 664.346,828.263 L 667.315,837.402 L 1585.05,837.402 L 1588.02,828.263 L 1595.42,815.433 L 1605.34,804.423 L 1617.32,795.715 L 1630.86,789.689 L 1645.35,786.609 L 1660.16,786.609 L 1674.65,789.689 L 1688.19,795.715 L 1700.17,804.423 L 1710.09,815.433 L 1717.5,828.263 L 1722.07,842.353 L 1723.62,857.087 L 1722.07,871.821 L 1717.5,885.911 L 1710.09,898.741 L 1700.17,909.75 L 1688.19,918.459 L 1674.65,924.484 L 1660.16,927.565 L 1645.35,927.565 L 1630.86,924.484 L 1617.32,918.459 L 1605.34,909.75 L 1595.42,898.741 L 1588.02,885.911 L 1585.05,876.772 L 667.315,876.772 z " style="fill-opacity:1.000000;fill:rgb(242,251,227);stroke:rgb(0,0,0);stroke-width:2"/></g>
<g fill-rule="evenodd"><path d="M 163.386,194.709 L 163.386,163.386 L 194.882,163.386 L 194.194,169.934 L 192.159,176.196 L 188.867,181.899 L 184.461,186.792 L 179.134,190.662 L 173.119,193.34 L 166.678,194.709 L 163.386,194.709 z " style="fill-opacity:1.000000;fill:rgb(70,124,194);stroke:rgb(0,0,0);stroke-width:2"/></g>
</svg>
