<?xml version="1.0" standalone="no"?>
<!DOCTYPE svg PUBLIC "-//W3C//DTD SVG 1.1//EN"
"http://www.w3.org/Graphics/SVG/1.1/DTD/svg11.dtd">
<svg width="132.85" height="79.937" viewBox="0 0 2767.72 1665.35" version="1.1"
xmlns="http://www.w3.org/2000/svg"
xmlns:xlink="http://www.w3.org/1999/xlink">
<g fill-rule="evenodd"><path d="M 1.42109e-13,1665.35 L 1.42109e-13,-8.52651e-14 L 2767.72,-8.52651e-14 L 2767.72,1665.35 L 1.42109e-13,1665.35 z " style="fill-opacity:0.200000;fill:rgb(103,198,105);"/></g>
<polyline points="84.6458,1501.97 84.6458,163.386 86.1598,148.026 90.6398,133.254 97.9158,119.642 107.71,107.71 119.642,97.9158 133.254,90.6398 148.026,86.1598 163.386,84.6458 2604.33,84.6458 2619.69,86.1598 2634.46,90.6398 2648.08,97.9158 2660.01,107.71 2669.8,119.642 2677.08,133.254 2681.56,148.026 2683.07,163.386 2683.07,1501.97 2681.56,1517.33 2677.08,1532.1 2669.8,1545.71 2660.01,1557.65 2648.08,1567.44 2634.46,1574.71 2619.69,1579.19 2604.33,1580.71 163.386,1580.71 148.026,1579.19 133.254,1574.71 119.642,1567.44 107.71,1557.65 97.9158,1545.71 90.6398,1532.1 86.1598,1517.33 84.6458,1501.97" style="stroke:rgb(103,198,105);stroke-width:157.480315;fill:none;stroke-opacity:0.5;stroke-linecap:round;stroke-linejoin:round;;fill:none"/>
<polyline points="84.6458,1501.97 84.6458,163.386 86.1598,148.026 90.6398,133.254 97.9158,119.642 107.71,107.71 119.642,97.9158 133.254,90.6398 148.026,86.1598 163.386,84.6458 2604.33,84.6458 2619.69,86.1598 2634.46,90.6398 2648.08,97.9158 2660.01,107.71 2669.8,119.642 2677.08,133.254 2681.56,148.026 2683.07,163.386 2683.07,1501.97 2681.56,1517.33 2677.08,1532.1 2669.8,1545.71 2660.01,1557.65 2648.08,1567.44 2634.46,1574.71 2619.69,1579.19 2604.33,1580.71 163.386,1580.71 148.026,1579.19 133.254,1574.71 119.642,1567.44 107.71,1557.65 97.9158,1545.71 90.6398,1532.1 86.1598,1517.33 84.6458,1501.97" style="stroke:rgb(0,0,0);stroke-width:1px;fill:none;stroke-opacity:1;stroke-linecap:round;stroke-linejoin:round;;fill:none"/>
<g fill-rule="evenodd"><path d="M 163.386,1501.97 L 163.386,163.386 L 2604.33,163.386 L 2604.33,1501.97 L 163.386,1501.97 z " style="fill-opacity:1.000000;fill:rgb(103,198,105);stroke:rgb(0,0,0);stroke-width:2"/></g>
</svg>
