G04 #@! TF.GenerationSoftware,KiCad,Pcbnew,5.1.2-f72e74a~84~ubuntu18.04.1*
G04 #@! TF.CreationDate,2019-06-30T22:47:52+02:00*
G04 #@! TF.ProjectId,board,626f6172-642e-46b6-9963-61645f706362,rev?*
G04 #@! TF.SameCoordinates,Original*
G04 #@! TF.FileFunction,Legend,Top*
G04 #@! TF.FilePolarity,Positive*
%FSLAX46Y46*%
G04 Gerber Fmt 4.6, Leading zero omitted, Abs format (unit mm)*
G04 Created by KiCad (PCBNEW 5.1.2-f72e74a~84~ubuntu18.04.1) date 2019-06-30 22:47:52*
%MOMM*%
%LPD*%
G04 APERTURE LIST*
%ADD10C,0.120000*%
%ADD11C,0.150000*%
%ADD12C,0.125000*%
G04 APERTURE END LIST*
D10*
X132570000Y-70540000D02*
X132570000Y-76225000D01*
X132570000Y-76225000D02*
X138170000Y-76225000D01*
X138170000Y-66125000D02*
X138170000Y-76225000D01*
X136640000Y-66125000D02*
X138170000Y-66125000D01*
X135370000Y-67400000D02*
X135370000Y-69270000D01*
X135370000Y-69270000D02*
X133500000Y-69270000D01*
X132570000Y-68000000D02*
X132570000Y-66125000D01*
X132570000Y-66125000D02*
X134100000Y-66125000D01*
X153560000Y-77970000D02*
X147875000Y-77970000D01*
X147875000Y-77970000D02*
X147875000Y-83570000D01*
X157975000Y-83570000D02*
X147875000Y-83570000D01*
X157975000Y-82040000D02*
X157975000Y-83570000D01*
X156700000Y-80770000D02*
X154830000Y-80770000D01*
X154830000Y-80770000D02*
X154830000Y-78900000D01*
X156100000Y-77970000D02*
X157975000Y-77970000D01*
X157975000Y-77970000D02*
X157975000Y-79500000D01*
D11*
X142225000Y-65175000D02*
X142225000Y-64650000D01*
X148525000Y-58875000D02*
X148525000Y-59400000D01*
X142225000Y-58875000D02*
X142225000Y-59400000D01*
X148525000Y-65175000D02*
X148000000Y-65175000D01*
X148525000Y-58875000D02*
X148000000Y-58875000D01*
X142225000Y-58875000D02*
X142750000Y-58875000D01*
X142225000Y-65175000D02*
X142750000Y-65175000D01*
X143200000Y-75450000D02*
X146400000Y-75450000D01*
X146400000Y-75450000D02*
X146400000Y-71450000D01*
X146400000Y-71450000D02*
X142400000Y-71450000D01*
X142400000Y-71450000D02*
X142400000Y-74650000D01*
D10*
X140460000Y-79640000D02*
X140080000Y-79640000D01*
X140460000Y-83690000D02*
X140460000Y-83950000D01*
X140460000Y-79640000D02*
X140460000Y-81410000D01*
X132840000Y-79640000D02*
X133220000Y-79640000D01*
X132840000Y-81410000D02*
X132840000Y-79640000D01*
X132840000Y-83950000D02*
X132840000Y-83690000D01*
D11*
X162025000Y-70575000D02*
X162025000Y-71075000D01*
X158775000Y-73825000D02*
X158775000Y-73325000D01*
X162025000Y-73825000D02*
X162025000Y-73325000D01*
X158775000Y-70575000D02*
X159275000Y-70575000D01*
X158775000Y-73825000D02*
X159275000Y-73825000D01*
X162025000Y-73825000D02*
X161525000Y-73825000D01*
X162025000Y-70575000D02*
X161525000Y-70575000D01*
D10*
X162300000Y-46250000D02*
X162300000Y-51450000D01*
X156700000Y-45850000D02*
X156700000Y-52450000D01*
X156700000Y-52450000D02*
X157100000Y-52450000D01*
X156700000Y-60500000D02*
X157100000Y-60500000D01*
X156700000Y-53900000D02*
X156700000Y-60500000D01*
X162300000Y-54300000D02*
X162300000Y-59500000D01*
X165950000Y-52600000D02*
X166350000Y-52600000D01*
X165950000Y-46000000D02*
X165950000Y-52600000D01*
X171550000Y-46400000D02*
X171550000Y-51600000D01*
X171350000Y-54500000D02*
X171350000Y-59700000D01*
X165750000Y-54100000D02*
X165750000Y-60700000D01*
X165750000Y-60700000D02*
X166150000Y-60700000D01*
X180750000Y-46600000D02*
X180750000Y-51800000D01*
X175150000Y-46200000D02*
X175150000Y-52800000D01*
X175150000Y-52800000D02*
X175550000Y-52800000D01*
X175300000Y-60600000D02*
X175700000Y-60600000D01*
X175300000Y-54000000D02*
X175300000Y-60600000D01*
X180900000Y-54400000D02*
X180900000Y-59600000D01*
X146050000Y-81200000D02*
X146050000Y-81000000D01*
X146050000Y-81000000D02*
X142750000Y-81000000D01*
X142750000Y-81000000D02*
X142750000Y-81200000D01*
X146050000Y-83200000D02*
X146050000Y-83400000D01*
X146050000Y-83400000D02*
X142750000Y-83400000D01*
X142750000Y-83400000D02*
X142750000Y-83200000D01*
D11*
X151225000Y-72325000D02*
X151225000Y-72375000D01*
X155375000Y-72325000D02*
X155375000Y-72470000D01*
X155375000Y-77475000D02*
X155375000Y-77330000D01*
X151225000Y-77475000D02*
X151225000Y-77330000D01*
X151225000Y-72325000D02*
X155375000Y-72325000D01*
X151225000Y-77475000D02*
X155375000Y-77475000D01*
X151225000Y-72375000D02*
X149825000Y-72375000D01*
D10*
X164960000Y-77970000D02*
X159275000Y-77970000D01*
X159275000Y-77970000D02*
X159275000Y-83570000D01*
X169375000Y-83570000D02*
X159275000Y-83570000D01*
X169375000Y-82040000D02*
X169375000Y-83570000D01*
X168100000Y-80770000D02*
X166230000Y-80770000D01*
X166230000Y-80770000D02*
X166230000Y-78900000D01*
X167500000Y-77970000D02*
X169375000Y-77970000D01*
X169375000Y-77970000D02*
X169375000Y-79500000D01*
D11*
X135590000Y-44540000D02*
X135590000Y-45140000D01*
X135590000Y-49140000D02*
X135590000Y-47940000D01*
X135590000Y-52540000D02*
X135590000Y-51940000D01*
X132590000Y-44540000D02*
X132590000Y-52540000D01*
X132590000Y-52540000D02*
X147590000Y-52540000D01*
X147590000Y-52540000D02*
X147590000Y-44540000D01*
X147590000Y-44540000D02*
X132590000Y-44540000D01*
D10*
X164340000Y-72602064D02*
X164340000Y-71397936D01*
X167060000Y-72602064D02*
X167060000Y-71397936D01*
X132570000Y-59340000D02*
X132570000Y-65025000D01*
X132570000Y-65025000D02*
X138170000Y-65025000D01*
X138170000Y-54925000D02*
X138170000Y-65025000D01*
X136640000Y-54925000D02*
X138170000Y-54925000D01*
X135370000Y-56200000D02*
X135370000Y-58070000D01*
X135370000Y-58070000D02*
X133500000Y-58070000D01*
X132570000Y-56800000D02*
X132570000Y-54925000D01*
X132570000Y-54925000D02*
X134100000Y-54925000D01*
X142910000Y-54658578D02*
X142910000Y-54141422D01*
X141490000Y-54658578D02*
X141490000Y-54141422D01*
X143390000Y-54658578D02*
X143390000Y-54141422D01*
X144810000Y-54658578D02*
X144810000Y-54141422D01*
X146810000Y-54658578D02*
X146810000Y-54141422D01*
X145390000Y-54658578D02*
X145390000Y-54141422D01*
X147390000Y-54658578D02*
X147390000Y-54141422D01*
X148810000Y-54658578D02*
X148810000Y-54141422D01*
X148690000Y-52210000D02*
X151040000Y-52210000D01*
X155510000Y-52210000D02*
X153160000Y-52210000D01*
X155510000Y-46454437D02*
X155510000Y-52210000D01*
X148690000Y-46454437D02*
X148690000Y-52210000D01*
X149754437Y-45390000D02*
X151040000Y-45390000D01*
X154445563Y-45390000D02*
X153160000Y-45390000D01*
X154445563Y-45390000D02*
X155510000Y-46454437D01*
X149754437Y-45390000D02*
X148690000Y-46454437D01*
X153947500Y-44362500D02*
X153947500Y-45150000D01*
X154341250Y-44756250D02*
X153553750Y-44756250D01*
X150810000Y-54658578D02*
X150810000Y-54141422D01*
X149390000Y-54658578D02*
X149390000Y-54141422D01*
X170258578Y-74690000D02*
X169741422Y-74690000D01*
X170258578Y-76110000D02*
X169741422Y-76110000D01*
X170010000Y-71641422D02*
X170010000Y-72158578D01*
X168590000Y-71641422D02*
X168590000Y-72158578D01*
D11*
X153179166Y-76131880D02*
X153179166Y-76846166D01*
X153131547Y-76989023D01*
X153036309Y-77084261D01*
X152893452Y-77131880D01*
X152798214Y-77131880D01*
X154083928Y-76131880D02*
X153893452Y-76131880D01*
X153798214Y-76179500D01*
X153750595Y-76227119D01*
X153655357Y-76369976D01*
X153607738Y-76560452D01*
X153607738Y-76941404D01*
X153655357Y-77036642D01*
X153702976Y-77084261D01*
X153798214Y-77131880D01*
X153988690Y-77131880D01*
X154083928Y-77084261D01*
X154131547Y-77036642D01*
X154179166Y-76941404D01*
X154179166Y-76703309D01*
X154131547Y-76608071D01*
X154083928Y-76560452D01*
X153988690Y-76512833D01*
X153798214Y-76512833D01*
X153702976Y-76560452D01*
X153655357Y-76608071D01*
X153607738Y-76703309D01*
D12*
X143752380Y-66126190D02*
X143752380Y-65626190D01*
X143871428Y-65626190D01*
X143942857Y-65650000D01*
X143990476Y-65697619D01*
X144014285Y-65745238D01*
X144038095Y-65840476D01*
X144038095Y-65911904D01*
X144014285Y-66007142D01*
X143990476Y-66054761D01*
X143942857Y-66102380D01*
X143871428Y-66126190D01*
X143752380Y-66126190D01*
X144538095Y-66126190D02*
X144371428Y-65888095D01*
X144252380Y-66126190D02*
X144252380Y-65626190D01*
X144442857Y-65626190D01*
X144490476Y-65650000D01*
X144514285Y-65673809D01*
X144538095Y-65721428D01*
X144538095Y-65792857D01*
X144514285Y-65840476D01*
X144490476Y-65864285D01*
X144442857Y-65888095D01*
X144252380Y-65888095D01*
X144680952Y-65626190D02*
X144847619Y-66126190D01*
X145014285Y-65626190D01*
X145252380Y-65840476D02*
X145204761Y-65816666D01*
X145180952Y-65792857D01*
X145157142Y-65745238D01*
X145157142Y-65721428D01*
X145180952Y-65673809D01*
X145204761Y-65650000D01*
X145252380Y-65626190D01*
X145347619Y-65626190D01*
X145395238Y-65650000D01*
X145419047Y-65673809D01*
X145442857Y-65721428D01*
X145442857Y-65745238D01*
X145419047Y-65792857D01*
X145395238Y-65816666D01*
X145347619Y-65840476D01*
X145252380Y-65840476D01*
X145204761Y-65864285D01*
X145180952Y-65888095D01*
X145157142Y-65935714D01*
X145157142Y-66030952D01*
X145180952Y-66078571D01*
X145204761Y-66102380D01*
X145252380Y-66126190D01*
X145347619Y-66126190D01*
X145395238Y-66102380D01*
X145419047Y-66078571D01*
X145442857Y-66030952D01*
X145442857Y-65935714D01*
X145419047Y-65888095D01*
X145395238Y-65864285D01*
X145347619Y-65840476D01*
X145609523Y-65626190D02*
X145919047Y-65626190D01*
X145752380Y-65816666D01*
X145823809Y-65816666D01*
X145871428Y-65840476D01*
X145895238Y-65864285D01*
X145919047Y-65911904D01*
X145919047Y-66030952D01*
X145895238Y-66078571D01*
X145871428Y-66102380D01*
X145823809Y-66126190D01*
X145680952Y-66126190D01*
X145633333Y-66102380D01*
X145609523Y-66078571D01*
X146109523Y-65673809D02*
X146133333Y-65650000D01*
X146180952Y-65626190D01*
X146300000Y-65626190D01*
X146347619Y-65650000D01*
X146371428Y-65673809D01*
X146395238Y-65721428D01*
X146395238Y-65769047D01*
X146371428Y-65840476D01*
X146085714Y-66126190D01*
X146395238Y-66126190D01*
X146561904Y-65626190D02*
X146871428Y-65626190D01*
X146704761Y-65816666D01*
X146776190Y-65816666D01*
X146823809Y-65840476D01*
X146847619Y-65864285D01*
X146871428Y-65911904D01*
X146871428Y-66030952D01*
X146847619Y-66078571D01*
X146823809Y-66102380D01*
X146776190Y-66126190D01*
X146633333Y-66126190D01*
X146585714Y-66102380D01*
X146561904Y-66078571D01*
X147085714Y-66126190D02*
X147085714Y-65626190D01*
X147085714Y-65864285D02*
X147371428Y-65864285D01*
X147371428Y-66126190D02*
X147371428Y-65626190D01*
X147871428Y-66126190D02*
X147585714Y-66126190D01*
X147728571Y-66126190D02*
X147728571Y-65626190D01*
X147680952Y-65697619D01*
X147633333Y-65745238D01*
X147585714Y-65769047D01*
D11*
X164579166Y-76131880D02*
X164579166Y-76846166D01*
X164531547Y-76989023D01*
X164436309Y-77084261D01*
X164293452Y-77131880D01*
X164198214Y-77131880D01*
X165007738Y-76227119D02*
X165055357Y-76179500D01*
X165150595Y-76131880D01*
X165388690Y-76131880D01*
X165483928Y-76179500D01*
X165531547Y-76227119D01*
X165579166Y-76322357D01*
X165579166Y-76417595D01*
X165531547Y-76560452D01*
X164960119Y-77131880D01*
X165579166Y-77131880D01*
X169357142Y-77407142D02*
X169309523Y-77454761D01*
X169166666Y-77502380D01*
X169071428Y-77502380D01*
X168928571Y-77454761D01*
X168833333Y-77359523D01*
X168785714Y-77264285D01*
X168738095Y-77073809D01*
X168738095Y-76930952D01*
X168785714Y-76740476D01*
X168833333Y-76645238D01*
X168928571Y-76550000D01*
X169071428Y-76502380D01*
X169166666Y-76502380D01*
X169309523Y-76550000D01*
X169357142Y-76597619D01*
X170309523Y-77502380D02*
X169738095Y-77502380D01*
X170023809Y-77502380D02*
X170023809Y-76502380D01*
X169928571Y-76645238D01*
X169833333Y-76740476D01*
X169738095Y-76788095D01*
X170642857Y-76502380D02*
X171309523Y-76502380D01*
X170880952Y-77502380D01*
X171307142Y-72542857D02*
X171354761Y-72590476D01*
X171402380Y-72733333D01*
X171402380Y-72828571D01*
X171354761Y-72971428D01*
X171259523Y-73066666D01*
X171164285Y-73114285D01*
X170973809Y-73161904D01*
X170830952Y-73161904D01*
X170640476Y-73114285D01*
X170545238Y-73066666D01*
X170450000Y-72971428D01*
X170402380Y-72828571D01*
X170402380Y-72733333D01*
X170450000Y-72590476D01*
X170497619Y-72542857D01*
X171402380Y-71590476D02*
X171402380Y-72161904D01*
X171402380Y-71876190D02*
X170402380Y-71876190D01*
X170545238Y-71971428D01*
X170640476Y-72066666D01*
X170688095Y-72161904D01*
X170830952Y-71019047D02*
X170783333Y-71114285D01*
X170735714Y-71161904D01*
X170640476Y-71209523D01*
X170592857Y-71209523D01*
X170497619Y-71161904D01*
X170450000Y-71114285D01*
X170402380Y-71019047D01*
X170402380Y-70828571D01*
X170450000Y-70733333D01*
X170497619Y-70685714D01*
X170592857Y-70638095D01*
X170640476Y-70638095D01*
X170735714Y-70685714D01*
X170783333Y-70733333D01*
X170830952Y-70828571D01*
X170830952Y-71019047D01*
X170878571Y-71114285D01*
X170926190Y-71161904D01*
X171021428Y-71209523D01*
X171211904Y-71209523D01*
X171307142Y-71161904D01*
X171354761Y-71114285D01*
X171402380Y-71019047D01*
X171402380Y-70828571D01*
X171354761Y-70733333D01*
X171307142Y-70685714D01*
X171211904Y-70638095D01*
X171021428Y-70638095D01*
X170926190Y-70685714D01*
X170878571Y-70733333D01*
X170830952Y-70828571D01*
M02*
