G04 #@! TF.GenerationSoftware,KiCad,Pcbnew,5.1.2-f72e74a~84~ubuntu18.04.1*
G04 #@! TF.CreationDate,2019-06-30T22:47:52+02:00*
G04 #@! TF.ProjectId,board,626f6172-642e-46b6-9963-61645f706362,rev?*
G04 #@! TF.SameCoordinates,Original*
G04 #@! TF.FileFunction,Legend,Bot*
G04 #@! TF.FilePolarity,Positive*
%FSLAX46Y46*%
G04 Gerber Fmt 4.6, Leading zero omitted, Abs format (unit mm)*
G04 Created by KiCad (PCBNEW 5.1.2-f72e74a~84~ubuntu18.04.1) date 2019-06-30 22:47:52*
%MOMM*%
%LPD*%
G04 APERTURE LIST*
%ADD10C,0.150000*%
%ADD11C,0.200000*%
%ADD12C,0.010000*%
G04 APERTURE END LIST*
D10*
X133223809Y-45947619D02*
X133223809Y-46947619D01*
X133223809Y-46566666D02*
X133319047Y-46614285D01*
X133509523Y-46614285D01*
X133604761Y-46566666D01*
X133652380Y-46519047D01*
X133700000Y-46423809D01*
X133700000Y-46138095D01*
X133652380Y-46042857D01*
X133604761Y-45995238D01*
X133509523Y-45947619D01*
X133319047Y-45947619D01*
X133223809Y-45995238D01*
X134271428Y-45947619D02*
X134176190Y-45995238D01*
X134128571Y-46090476D01*
X134128571Y-46947619D01*
X135080952Y-45947619D02*
X135080952Y-46947619D01*
X135080952Y-45995238D02*
X134985714Y-45947619D01*
X134795238Y-45947619D01*
X134700000Y-45995238D01*
X134652380Y-46042857D01*
X134604761Y-46138095D01*
X134604761Y-46423809D01*
X134652380Y-46519047D01*
X134700000Y-46566666D01*
X134795238Y-46614285D01*
X134985714Y-46614285D01*
X135080952Y-46566666D01*
X135985714Y-45995238D02*
X135890476Y-45947619D01*
X135700000Y-45947619D01*
X135604761Y-45995238D01*
X135557142Y-46042857D01*
X135509523Y-46138095D01*
X135509523Y-46423809D01*
X135557142Y-46519047D01*
X135604761Y-46566666D01*
X135700000Y-46614285D01*
X135890476Y-46614285D01*
X135985714Y-46566666D01*
X136176190Y-45852380D02*
X136938095Y-45852380D01*
X137176190Y-45947619D02*
X137176190Y-46614285D01*
X137176190Y-46519047D02*
X137223809Y-46566666D01*
X137319047Y-46614285D01*
X137461904Y-46614285D01*
X137557142Y-46566666D01*
X137604761Y-46471428D01*
X137604761Y-45947619D01*
X137604761Y-46471428D02*
X137652380Y-46566666D01*
X137747619Y-46614285D01*
X137890476Y-46614285D01*
X137985714Y-46566666D01*
X138033333Y-46471428D01*
X138033333Y-45947619D01*
X138652380Y-45947619D02*
X138557142Y-45995238D01*
X138509523Y-46042857D01*
X138461904Y-46138095D01*
X138461904Y-46423809D01*
X138509523Y-46519047D01*
X138557142Y-46566666D01*
X138652380Y-46614285D01*
X138795238Y-46614285D01*
X138890476Y-46566666D01*
X138938095Y-46519047D01*
X138985714Y-46423809D01*
X138985714Y-46138095D01*
X138938095Y-46042857D01*
X138890476Y-45995238D01*
X138795238Y-45947619D01*
X138652380Y-45947619D01*
X139271428Y-46614285D02*
X139652380Y-46614285D01*
X139414285Y-46947619D02*
X139414285Y-46090476D01*
X139461904Y-45995238D01*
X139557142Y-45947619D01*
X139652380Y-45947619D01*
X140128571Y-45947619D02*
X140033333Y-45995238D01*
X139985714Y-46042857D01*
X139938095Y-46138095D01*
X139938095Y-46423809D01*
X139985714Y-46519047D01*
X140033333Y-46566666D01*
X140128571Y-46614285D01*
X140271428Y-46614285D01*
X140366666Y-46566666D01*
X140414285Y-46519047D01*
X140461904Y-46423809D01*
X140461904Y-46138095D01*
X140414285Y-46042857D01*
X140366666Y-45995238D01*
X140271428Y-45947619D01*
X140128571Y-45947619D01*
X140890476Y-45947619D02*
X140890476Y-46614285D01*
X140890476Y-46423809D02*
X140938095Y-46519047D01*
X140985714Y-46566666D01*
X141080952Y-46614285D01*
X141176190Y-46614285D01*
X141509523Y-45947619D02*
X141509523Y-46947619D01*
X141509523Y-46566666D02*
X141604761Y-46614285D01*
X141795238Y-46614285D01*
X141890476Y-46566666D01*
X141938095Y-46519047D01*
X141985714Y-46423809D01*
X141985714Y-46138095D01*
X141938095Y-46042857D01*
X141890476Y-45995238D01*
X141795238Y-45947619D01*
X141604761Y-45947619D01*
X141509523Y-45995238D01*
X142557142Y-45947619D02*
X142461904Y-45995238D01*
X142414285Y-46042857D01*
X142366666Y-46138095D01*
X142366666Y-46423809D01*
X142414285Y-46519047D01*
X142461904Y-46566666D01*
X142557142Y-46614285D01*
X142700000Y-46614285D01*
X142795238Y-46566666D01*
X142842857Y-46519047D01*
X142890476Y-46423809D01*
X142890476Y-46138095D01*
X142842857Y-46042857D01*
X142795238Y-45995238D01*
X142700000Y-45947619D01*
X142557142Y-45947619D01*
X143747619Y-45947619D02*
X143747619Y-46471428D01*
X143700000Y-46566666D01*
X143604761Y-46614285D01*
X143414285Y-46614285D01*
X143319047Y-46566666D01*
X143747619Y-45995238D02*
X143652380Y-45947619D01*
X143414285Y-45947619D01*
X143319047Y-45995238D01*
X143271428Y-46090476D01*
X143271428Y-46185714D01*
X143319047Y-46280952D01*
X143414285Y-46328571D01*
X143652380Y-46328571D01*
X143747619Y-46376190D01*
X144223809Y-45947619D02*
X144223809Y-46614285D01*
X144223809Y-46423809D02*
X144271428Y-46519047D01*
X144319047Y-46566666D01*
X144414285Y-46614285D01*
X144509523Y-46614285D01*
X145271428Y-45947619D02*
X145271428Y-46947619D01*
X145271428Y-45995238D02*
X145176190Y-45947619D01*
X144985714Y-45947619D01*
X144890476Y-45995238D01*
X144842857Y-46042857D01*
X144795238Y-46138095D01*
X144795238Y-46423809D01*
X144842857Y-46519047D01*
X144890476Y-46566666D01*
X144985714Y-46614285D01*
X145176190Y-46614285D01*
X145271428Y-46566666D01*
X145509523Y-45852380D02*
X146271428Y-45852380D01*
X146414285Y-46614285D02*
X146652380Y-45947619D01*
X146890476Y-46614285D01*
X147461904Y-46947619D02*
X147557142Y-46947619D01*
X147652380Y-46900000D01*
X147700000Y-46852380D01*
X147747619Y-46757142D01*
X147795238Y-46566666D01*
X147795238Y-46328571D01*
X147747619Y-46138095D01*
X147700000Y-46042857D01*
X147652380Y-45995238D01*
X147557142Y-45947619D01*
X147461904Y-45947619D01*
X147366666Y-45995238D01*
X147319047Y-46042857D01*
X147271428Y-46138095D01*
X147223809Y-46328571D01*
X147223809Y-46566666D01*
X147271428Y-46757142D01*
X147319047Y-46852380D01*
X147366666Y-46900000D01*
X147461904Y-46947619D01*
X148223809Y-46042857D02*
X148271428Y-45995238D01*
X148223809Y-45947619D01*
X148176190Y-45995238D01*
X148223809Y-46042857D01*
X148223809Y-45947619D01*
X149223809Y-45947619D02*
X148652380Y-45947619D01*
X148938095Y-45947619D02*
X148938095Y-46947619D01*
X148842857Y-46804761D01*
X148747619Y-46709523D01*
X148652380Y-46661904D01*
D11*
X134057142Y-51550000D02*
X133914285Y-51621428D01*
X133700000Y-51621428D01*
X133485714Y-51550000D01*
X133342857Y-51407142D01*
X133271428Y-51264285D01*
X133200000Y-50978571D01*
X133200000Y-50764285D01*
X133271428Y-50478571D01*
X133342857Y-50335714D01*
X133485714Y-50192857D01*
X133700000Y-50121428D01*
X133842857Y-50121428D01*
X134057142Y-50192857D01*
X134128571Y-50264285D01*
X134128571Y-50764285D01*
X133842857Y-50764285D01*
X134771428Y-50121428D02*
X134771428Y-51621428D01*
X135628571Y-50121428D01*
X135628571Y-51621428D01*
X136342857Y-50121428D02*
X136342857Y-51621428D01*
X136700000Y-51621428D01*
X136914285Y-51550000D01*
X137057142Y-51407142D01*
X137128571Y-51264285D01*
X137200000Y-50978571D01*
X137200000Y-50764285D01*
X137128571Y-50478571D01*
X137057142Y-50335714D01*
X136914285Y-50192857D01*
X136700000Y-50121428D01*
X136342857Y-50121428D01*
X133142857Y-49021428D02*
X134071428Y-49021428D01*
X133571428Y-48450000D01*
X133785714Y-48450000D01*
X133928571Y-48378571D01*
X134000000Y-48307142D01*
X134071428Y-48164285D01*
X134071428Y-47807142D01*
X134000000Y-47664285D01*
X133928571Y-47592857D01*
X133785714Y-47521428D01*
X133357142Y-47521428D01*
X133214285Y-47592857D01*
X133142857Y-47664285D01*
X135357142Y-49021428D02*
X135071428Y-49021428D01*
X134928571Y-48950000D01*
X134857142Y-48878571D01*
X134714285Y-48664285D01*
X134642857Y-48378571D01*
X134642857Y-47807142D01*
X134714285Y-47664285D01*
X134785714Y-47592857D01*
X134928571Y-47521428D01*
X135214285Y-47521428D01*
X135357142Y-47592857D01*
X135428571Y-47664285D01*
X135500000Y-47807142D01*
X135500000Y-48164285D01*
X135428571Y-48307142D01*
X135357142Y-48378571D01*
X135214285Y-48450000D01*
X134928571Y-48450000D01*
X134785714Y-48378571D01*
X134714285Y-48307142D01*
X134642857Y-48164285D01*
X135928571Y-49021428D02*
X136428571Y-47521428D01*
X136928571Y-49021428D01*
D12*
G36*
X149778201Y-54370262D02*
G01*
X149798348Y-54368035D01*
X149815863Y-54364436D01*
X149831188Y-54358692D01*
X149844766Y-54350029D01*
X149857039Y-54337676D01*
X149868450Y-54320860D01*
X149879440Y-54298807D01*
X149890453Y-54270745D01*
X149901931Y-54235901D01*
X149914316Y-54193502D01*
X149928050Y-54142775D01*
X149943577Y-54082948D01*
X149944299Y-54080133D01*
X149961506Y-54007526D01*
X149975540Y-53935724D01*
X149986689Y-53862557D01*
X149995238Y-53785850D01*
X150001474Y-53703431D01*
X150005609Y-53615240D01*
X150006717Y-53581595D01*
X150007222Y-53555475D01*
X150006933Y-53534251D01*
X150005658Y-53515297D01*
X150003208Y-53495986D01*
X149999391Y-53473691D01*
X149994016Y-53445783D01*
X149992872Y-53439980D01*
X149976391Y-53361289D01*
X149958865Y-53286594D01*
X149940546Y-53216661D01*
X149921687Y-53152259D01*
X149902541Y-53094155D01*
X149883359Y-53043118D01*
X149864394Y-52999915D01*
X149845900Y-52965314D01*
X149828657Y-52940707D01*
X149817953Y-52927251D01*
X149803677Y-52908283D01*
X149787975Y-52886689D01*
X149777487Y-52871848D01*
X149751986Y-52837725D01*
X149728222Y-52810799D01*
X149706922Y-52791816D01*
X149689823Y-52781894D01*
X149677848Y-52779302D01*
X149660149Y-52777642D01*
X149645639Y-52777288D01*
X149629049Y-52778134D01*
X149613769Y-52780976D01*
X149596746Y-52786697D01*
X149574929Y-52796182D01*
X149565960Y-52800382D01*
X149543192Y-52812106D01*
X149521706Y-52824819D01*
X149504652Y-52836582D01*
X149498199Y-52842045D01*
X149475298Y-52870290D01*
X149455228Y-52908117D01*
X149437972Y-52955580D01*
X149423507Y-53012731D01*
X149414959Y-53058980D01*
X149412442Y-53076236D01*
X149410422Y-53094413D01*
X149408848Y-53114826D01*
X149407672Y-53138792D01*
X149406843Y-53167625D01*
X149406312Y-53202641D01*
X149406029Y-53245156D01*
X149405945Y-53296484D01*
X149405945Y-53297740D01*
X149406068Y-53354222D01*
X149406514Y-53402569D01*
X149407403Y-53444808D01*
X149408857Y-53482963D01*
X149410997Y-53519058D01*
X149413942Y-53555118D01*
X149417814Y-53593167D01*
X149422734Y-53635231D01*
X149428823Y-53683333D01*
X149429068Y-53685222D01*
X149438126Y-53742246D01*
X149450976Y-53804701D01*
X149467031Y-53870699D01*
X149485706Y-53938352D01*
X149506413Y-54005773D01*
X149528565Y-54071073D01*
X149551577Y-54132365D01*
X149574862Y-54187761D01*
X149597832Y-54235374D01*
X149603030Y-54245063D01*
X149630897Y-54289165D01*
X149661983Y-54326483D01*
X149662588Y-54327104D01*
X149685380Y-54348381D01*
X149706068Y-54362098D01*
X149727763Y-54369417D01*
X149753575Y-54371498D01*
X149778201Y-54370262D01*
X149778201Y-54370262D01*
G37*
X149778201Y-54370262D02*
X149798348Y-54368035D01*
X149815863Y-54364436D01*
X149831188Y-54358692D01*
X149844766Y-54350029D01*
X149857039Y-54337676D01*
X149868450Y-54320860D01*
X149879440Y-54298807D01*
X149890453Y-54270745D01*
X149901931Y-54235901D01*
X149914316Y-54193502D01*
X149928050Y-54142775D01*
X149943577Y-54082948D01*
X149944299Y-54080133D01*
X149961506Y-54007526D01*
X149975540Y-53935724D01*
X149986689Y-53862557D01*
X149995238Y-53785850D01*
X150001474Y-53703431D01*
X150005609Y-53615240D01*
X150006717Y-53581595D01*
X150007222Y-53555475D01*
X150006933Y-53534251D01*
X150005658Y-53515297D01*
X150003208Y-53495986D01*
X149999391Y-53473691D01*
X149994016Y-53445783D01*
X149992872Y-53439980D01*
X149976391Y-53361289D01*
X149958865Y-53286594D01*
X149940546Y-53216661D01*
X149921687Y-53152259D01*
X149902541Y-53094155D01*
X149883359Y-53043118D01*
X149864394Y-52999915D01*
X149845900Y-52965314D01*
X149828657Y-52940707D01*
X149817953Y-52927251D01*
X149803677Y-52908283D01*
X149787975Y-52886689D01*
X149777487Y-52871848D01*
X149751986Y-52837725D01*
X149728222Y-52810799D01*
X149706922Y-52791816D01*
X149689823Y-52781894D01*
X149677848Y-52779302D01*
X149660149Y-52777642D01*
X149645639Y-52777288D01*
X149629049Y-52778134D01*
X149613769Y-52780976D01*
X149596746Y-52786697D01*
X149574929Y-52796182D01*
X149565960Y-52800382D01*
X149543192Y-52812106D01*
X149521706Y-52824819D01*
X149504652Y-52836582D01*
X149498199Y-52842045D01*
X149475298Y-52870290D01*
X149455228Y-52908117D01*
X149437972Y-52955580D01*
X149423507Y-53012731D01*
X149414959Y-53058980D01*
X149412442Y-53076236D01*
X149410422Y-53094413D01*
X149408848Y-53114826D01*
X149407672Y-53138792D01*
X149406843Y-53167625D01*
X149406312Y-53202641D01*
X149406029Y-53245156D01*
X149405945Y-53296484D01*
X149405945Y-53297740D01*
X149406068Y-53354222D01*
X149406514Y-53402569D01*
X149407403Y-53444808D01*
X149408857Y-53482963D01*
X149410997Y-53519058D01*
X149413942Y-53555118D01*
X149417814Y-53593167D01*
X149422734Y-53635231D01*
X149428823Y-53683333D01*
X149429068Y-53685222D01*
X149438126Y-53742246D01*
X149450976Y-53804701D01*
X149467031Y-53870699D01*
X149485706Y-53938352D01*
X149506413Y-54005773D01*
X149528565Y-54071073D01*
X149551577Y-54132365D01*
X149574862Y-54187761D01*
X149597832Y-54235374D01*
X149603030Y-54245063D01*
X149630897Y-54289165D01*
X149661983Y-54326483D01*
X149662588Y-54327104D01*
X149685380Y-54348381D01*
X149706068Y-54362098D01*
X149727763Y-54369417D01*
X149753575Y-54371498D01*
X149778201Y-54370262D01*
G36*
X147711411Y-56352342D02*
G01*
X147760303Y-56350966D01*
X147801791Y-56348773D01*
X147804248Y-56348596D01*
X147970730Y-56331383D01*
X148134856Y-56304381D01*
X148296263Y-56267764D01*
X148454589Y-56221703D01*
X148609470Y-56166372D01*
X148760545Y-56101944D01*
X148907451Y-56028590D01*
X149049824Y-55946485D01*
X149187304Y-55855801D01*
X149319526Y-55756710D01*
X149446128Y-55649386D01*
X149566748Y-55534001D01*
X149611488Y-55487494D01*
X149722388Y-55362198D01*
X149824852Y-55231320D01*
X149918766Y-55095106D01*
X150004014Y-54953803D01*
X150080485Y-54807656D01*
X150148064Y-54656909D01*
X150206637Y-54501810D01*
X150256090Y-54342604D01*
X150296310Y-54179535D01*
X150327184Y-54012851D01*
X150341027Y-53912420D01*
X150343688Y-53884386D01*
X150346056Y-53847842D01*
X150348107Y-53804435D01*
X150349818Y-53755812D01*
X150351168Y-53703621D01*
X150352131Y-53649507D01*
X150352687Y-53595119D01*
X150352810Y-53542102D01*
X150352479Y-53492103D01*
X150351671Y-53446771D01*
X150350362Y-53407750D01*
X150348529Y-53376689D01*
X150348521Y-53376591D01*
X150330425Y-53212262D01*
X150302523Y-53050053D01*
X150265024Y-52890364D01*
X150218137Y-52733595D01*
X150162068Y-52580147D01*
X150097026Y-52430420D01*
X150023220Y-52284814D01*
X149940858Y-52143729D01*
X149850147Y-52007567D01*
X149751295Y-51876727D01*
X149644512Y-51751609D01*
X149530005Y-51632615D01*
X149407982Y-51520144D01*
X149363827Y-51482635D01*
X149232339Y-51379836D01*
X149095556Y-51285630D01*
X148953820Y-51200156D01*
X148807475Y-51123556D01*
X148656863Y-51055970D01*
X148502328Y-50997538D01*
X148344213Y-50948401D01*
X148182861Y-50908700D01*
X148018615Y-50878575D01*
X147851818Y-50858166D01*
X147836220Y-50856770D01*
X147804605Y-50854579D01*
X147765273Y-50852717D01*
X147720337Y-50851209D01*
X147671909Y-50850084D01*
X147622102Y-50849366D01*
X147573029Y-50849083D01*
X147526802Y-50849260D01*
X147485534Y-50849924D01*
X147451338Y-50851101D01*
X147438694Y-50851813D01*
X147269062Y-50867958D01*
X147102378Y-50893692D01*
X146938908Y-50928901D01*
X146778916Y-50973471D01*
X146622667Y-51027288D01*
X146470427Y-51090237D01*
X146322461Y-51162204D01*
X146179033Y-51243075D01*
X146040408Y-51332735D01*
X145906852Y-51431071D01*
X145778630Y-51537969D01*
X145717269Y-51593964D01*
X145598879Y-51712133D01*
X145488479Y-51836429D01*
X145386241Y-51966490D01*
X145292338Y-52101952D01*
X145206943Y-52242454D01*
X145130229Y-52387631D01*
X145062370Y-52537120D01*
X145003537Y-52690559D01*
X144953904Y-52847584D01*
X144913644Y-53007832D01*
X144882930Y-53170940D01*
X144861935Y-53336546D01*
X144856484Y-53400832D01*
X144854235Y-53441757D01*
X144852806Y-53490216D01*
X144852158Y-53544259D01*
X144852254Y-53601935D01*
X144852845Y-53645720D01*
X146535866Y-53645720D01*
X146536087Y-53585133D01*
X146536800Y-53532745D01*
X146538154Y-53486602D01*
X146540296Y-53444751D01*
X146543376Y-53405237D01*
X146547541Y-53366105D01*
X146552939Y-53325402D01*
X146559719Y-53281173D01*
X146566683Y-53239320D01*
X146591321Y-53114233D01*
X146623172Y-52984216D01*
X146661644Y-52850845D01*
X146706146Y-52715694D01*
X146756085Y-52580340D01*
X146810869Y-52446356D01*
X146869907Y-52315317D01*
X146932605Y-52188799D01*
X146998373Y-52068377D01*
X147022138Y-52027740D01*
X147047850Y-51985850D01*
X147072392Y-51948930D01*
X147097458Y-51914837D01*
X147124739Y-51881423D01*
X147155927Y-51846545D01*
X147192714Y-51808056D01*
X147206237Y-51794332D01*
X147274539Y-51727937D01*
X147340032Y-51669661D01*
X147404180Y-51618406D01*
X147468445Y-51573073D01*
X147534292Y-51532564D01*
X147603183Y-51495780D01*
X147605625Y-51494568D01*
X147672865Y-51463369D01*
X147740523Y-51436409D01*
X147809818Y-51413426D01*
X147881972Y-51394159D01*
X147958208Y-51378347D01*
X148039746Y-51365729D01*
X148127807Y-51356045D01*
X148223614Y-51349032D01*
X148304301Y-51345257D01*
X148318468Y-51345935D01*
X148339174Y-51348395D01*
X148363042Y-51352195D01*
X148376346Y-51354705D01*
X148482126Y-51381031D01*
X148586227Y-51417276D01*
X148688740Y-51463480D01*
X148789759Y-51519684D01*
X148868715Y-51571285D01*
X148904948Y-51597557D01*
X148945856Y-51628952D01*
X148990005Y-51664236D01*
X149035964Y-51702174D01*
X149082299Y-51741533D01*
X149127577Y-51781079D01*
X149170365Y-51819577D01*
X149209230Y-51855793D01*
X149242740Y-51888494D01*
X149269357Y-51916331D01*
X149319078Y-51973429D01*
X149368026Y-52034167D01*
X149415342Y-52097228D01*
X149460168Y-52161298D01*
X149501646Y-52225061D01*
X149538916Y-52287200D01*
X149571120Y-52346400D01*
X149597399Y-52401346D01*
X149615547Y-52446840D01*
X149627166Y-52483317D01*
X149633669Y-52513080D01*
X149635291Y-52538054D01*
X149632266Y-52560162D01*
X149630229Y-52567345D01*
X149621899Y-52600817D01*
X149615174Y-52644150D01*
X149610045Y-52697418D01*
X149608557Y-52719520D01*
X149606914Y-52742715D01*
X149605091Y-52762173D01*
X149603327Y-52775646D01*
X149602048Y-52780721D01*
X149595985Y-52784909D01*
X149583461Y-52791184D01*
X149571213Y-52796506D01*
X149535191Y-52814195D01*
X149505050Y-52835889D01*
X149480055Y-52862667D01*
X149459472Y-52895604D01*
X149442567Y-52935779D01*
X149428606Y-52984267D01*
X149421731Y-53015800D01*
X149413109Y-53070016D01*
X149406872Y-53132701D01*
X149403003Y-53202453D01*
X149401488Y-53277869D01*
X149402310Y-53357547D01*
X149405454Y-53440083D01*
X149410904Y-53524076D01*
X149418644Y-53608122D01*
X149428658Y-53690819D01*
X149429391Y-53696143D01*
X149437683Y-53747379D01*
X149448851Y-53801477D01*
X149463299Y-53860119D01*
X149481436Y-53924988D01*
X149497507Y-53978106D01*
X149508001Y-54013404D01*
X149514749Y-54039777D01*
X149517856Y-54057702D01*
X149517630Y-54067006D01*
X149516992Y-54074183D01*
X149516273Y-54090661D01*
X149515490Y-54115578D01*
X149514662Y-54148074D01*
X149513807Y-54187292D01*
X149512943Y-54232369D01*
X149512087Y-54282447D01*
X149511258Y-54336665D01*
X149510474Y-54394164D01*
X149510024Y-54430580D01*
X149509099Y-54505134D01*
X149508178Y-54570564D01*
X149507209Y-54627906D01*
X149506143Y-54678198D01*
X149504928Y-54722475D01*
X149503514Y-54761772D01*
X149501851Y-54797128D01*
X149499886Y-54829578D01*
X149497570Y-54860157D01*
X149494853Y-54889903D01*
X149491682Y-54919852D01*
X149488009Y-54951039D01*
X149483781Y-54984502D01*
X149482415Y-54995005D01*
X149473450Y-55057467D01*
X149462637Y-55122818D01*
X149450663Y-55187228D01*
X149438216Y-55246869D01*
X149433201Y-55268780D01*
X149427194Y-55294260D01*
X149421859Y-55316922D01*
X149417719Y-55334535D01*
X149415300Y-55344865D01*
X149415099Y-55345727D01*
X149409514Y-55355404D01*
X149396770Y-55369860D01*
X149378059Y-55388088D01*
X149354573Y-55409080D01*
X149327505Y-55431830D01*
X149298047Y-55455329D01*
X149267391Y-55478570D01*
X149236729Y-55500546D01*
X149212900Y-55516602D01*
X149119663Y-55571439D01*
X149020366Y-55618335D01*
X148914885Y-55657335D01*
X148803099Y-55688485D01*
X148684885Y-55711827D01*
X148674420Y-55713471D01*
X148629797Y-55719006D01*
X148577546Y-55723267D01*
X148520123Y-55726211D01*
X148459984Y-55727792D01*
X148399587Y-55727964D01*
X148341389Y-55726684D01*
X148287846Y-55723906D01*
X148255320Y-55721136D01*
X148118305Y-55703124D01*
X147986889Y-55677752D01*
X147861374Y-55645137D01*
X147742065Y-55605393D01*
X147629262Y-55558638D01*
X147523270Y-55504986D01*
X147424391Y-55444553D01*
X147332928Y-55377456D01*
X147312307Y-55360535D01*
X147279118Y-55331516D01*
X147246726Y-55300572D01*
X147213635Y-55266130D01*
X147178349Y-55226622D01*
X147139372Y-55180476D01*
X147130517Y-55169720D01*
X147026906Y-55037268D01*
X146933379Y-54904813D01*
X146849858Y-54772203D01*
X146776268Y-54639284D01*
X146712533Y-54505902D01*
X146658577Y-54371902D01*
X146614324Y-54237133D01*
X146579697Y-54101439D01*
X146564339Y-54024180D01*
X146556862Y-53981036D01*
X146550787Y-53942439D01*
X146545975Y-53906548D01*
X146542287Y-53871523D01*
X146539585Y-53835523D01*
X146537730Y-53796709D01*
X146536585Y-53753238D01*
X146536009Y-53703271D01*
X146535866Y-53645720D01*
X144852845Y-53645720D01*
X144853056Y-53661296D01*
X144854526Y-53720389D01*
X144856624Y-53777265D01*
X144859314Y-53829973D01*
X144862556Y-53876563D01*
X144866314Y-53915085D01*
X144866582Y-53917320D01*
X144892056Y-54086852D01*
X144926728Y-54252074D01*
X144970629Y-54413062D01*
X145023792Y-54569888D01*
X145086249Y-54722626D01*
X145158030Y-54871350D01*
X145239169Y-55016134D01*
X145329697Y-55157052D01*
X145429646Y-55294178D01*
X145497157Y-55378282D01*
X145522254Y-55407266D01*
X145553460Y-55441436D01*
X145589254Y-55479272D01*
X145628116Y-55519253D01*
X145668523Y-55559857D01*
X145708955Y-55599562D01*
X145747890Y-55636849D01*
X145783808Y-55670195D01*
X145815186Y-55698080D01*
X145826798Y-55707923D01*
X145943126Y-55800237D01*
X146060135Y-55883925D01*
X146179986Y-55960414D01*
X146304836Y-56031130D01*
X146357940Y-56058770D01*
X146503201Y-56127483D01*
X146650453Y-56186924D01*
X146800545Y-56237350D01*
X146954324Y-56279016D01*
X147112640Y-56312177D01*
X147276342Y-56337089D01*
X147287760Y-56338498D01*
X147325674Y-56342289D01*
X147371787Y-56345567D01*
X147424148Y-56348295D01*
X147480806Y-56350434D01*
X147539812Y-56351946D01*
X147599215Y-56352794D01*
X147657065Y-56352938D01*
X147711411Y-56352342D01*
X147711411Y-56352342D01*
G37*
X147711411Y-56352342D02*
X147760303Y-56350966D01*
X147801791Y-56348773D01*
X147804248Y-56348596D01*
X147970730Y-56331383D01*
X148134856Y-56304381D01*
X148296263Y-56267764D01*
X148454589Y-56221703D01*
X148609470Y-56166372D01*
X148760545Y-56101944D01*
X148907451Y-56028590D01*
X149049824Y-55946485D01*
X149187304Y-55855801D01*
X149319526Y-55756710D01*
X149446128Y-55649386D01*
X149566748Y-55534001D01*
X149611488Y-55487494D01*
X149722388Y-55362198D01*
X149824852Y-55231320D01*
X149918766Y-55095106D01*
X150004014Y-54953803D01*
X150080485Y-54807656D01*
X150148064Y-54656909D01*
X150206637Y-54501810D01*
X150256090Y-54342604D01*
X150296310Y-54179535D01*
X150327184Y-54012851D01*
X150341027Y-53912420D01*
X150343688Y-53884386D01*
X150346056Y-53847842D01*
X150348107Y-53804435D01*
X150349818Y-53755812D01*
X150351168Y-53703621D01*
X150352131Y-53649507D01*
X150352687Y-53595119D01*
X150352810Y-53542102D01*
X150352479Y-53492103D01*
X150351671Y-53446771D01*
X150350362Y-53407750D01*
X150348529Y-53376689D01*
X150348521Y-53376591D01*
X150330425Y-53212262D01*
X150302523Y-53050053D01*
X150265024Y-52890364D01*
X150218137Y-52733595D01*
X150162068Y-52580147D01*
X150097026Y-52430420D01*
X150023220Y-52284814D01*
X149940858Y-52143729D01*
X149850147Y-52007567D01*
X149751295Y-51876727D01*
X149644512Y-51751609D01*
X149530005Y-51632615D01*
X149407982Y-51520144D01*
X149363827Y-51482635D01*
X149232339Y-51379836D01*
X149095556Y-51285630D01*
X148953820Y-51200156D01*
X148807475Y-51123556D01*
X148656863Y-51055970D01*
X148502328Y-50997538D01*
X148344213Y-50948401D01*
X148182861Y-50908700D01*
X148018615Y-50878575D01*
X147851818Y-50858166D01*
X147836220Y-50856770D01*
X147804605Y-50854579D01*
X147765273Y-50852717D01*
X147720337Y-50851209D01*
X147671909Y-50850084D01*
X147622102Y-50849366D01*
X147573029Y-50849083D01*
X147526802Y-50849260D01*
X147485534Y-50849924D01*
X147451338Y-50851101D01*
X147438694Y-50851813D01*
X147269062Y-50867958D01*
X147102378Y-50893692D01*
X146938908Y-50928901D01*
X146778916Y-50973471D01*
X146622667Y-51027288D01*
X146470427Y-51090237D01*
X146322461Y-51162204D01*
X146179033Y-51243075D01*
X146040408Y-51332735D01*
X145906852Y-51431071D01*
X145778630Y-51537969D01*
X145717269Y-51593964D01*
X145598879Y-51712133D01*
X145488479Y-51836429D01*
X145386241Y-51966490D01*
X145292338Y-52101952D01*
X145206943Y-52242454D01*
X145130229Y-52387631D01*
X145062370Y-52537120D01*
X145003537Y-52690559D01*
X144953904Y-52847584D01*
X144913644Y-53007832D01*
X144882930Y-53170940D01*
X144861935Y-53336546D01*
X144856484Y-53400832D01*
X144854235Y-53441757D01*
X144852806Y-53490216D01*
X144852158Y-53544259D01*
X144852254Y-53601935D01*
X144852845Y-53645720D01*
X146535866Y-53645720D01*
X146536087Y-53585133D01*
X146536800Y-53532745D01*
X146538154Y-53486602D01*
X146540296Y-53444751D01*
X146543376Y-53405237D01*
X146547541Y-53366105D01*
X146552939Y-53325402D01*
X146559719Y-53281173D01*
X146566683Y-53239320D01*
X146591321Y-53114233D01*
X146623172Y-52984216D01*
X146661644Y-52850845D01*
X146706146Y-52715694D01*
X146756085Y-52580340D01*
X146810869Y-52446356D01*
X146869907Y-52315317D01*
X146932605Y-52188799D01*
X146998373Y-52068377D01*
X147022138Y-52027740D01*
X147047850Y-51985850D01*
X147072392Y-51948930D01*
X147097458Y-51914837D01*
X147124739Y-51881423D01*
X147155927Y-51846545D01*
X147192714Y-51808056D01*
X147206237Y-51794332D01*
X147274539Y-51727937D01*
X147340032Y-51669661D01*
X147404180Y-51618406D01*
X147468445Y-51573073D01*
X147534292Y-51532564D01*
X147603183Y-51495780D01*
X147605625Y-51494568D01*
X147672865Y-51463369D01*
X147740523Y-51436409D01*
X147809818Y-51413426D01*
X147881972Y-51394159D01*
X147958208Y-51378347D01*
X148039746Y-51365729D01*
X148127807Y-51356045D01*
X148223614Y-51349032D01*
X148304301Y-51345257D01*
X148318468Y-51345935D01*
X148339174Y-51348395D01*
X148363042Y-51352195D01*
X148376346Y-51354705D01*
X148482126Y-51381031D01*
X148586227Y-51417276D01*
X148688740Y-51463480D01*
X148789759Y-51519684D01*
X148868715Y-51571285D01*
X148904948Y-51597557D01*
X148945856Y-51628952D01*
X148990005Y-51664236D01*
X149035964Y-51702174D01*
X149082299Y-51741533D01*
X149127577Y-51781079D01*
X149170365Y-51819577D01*
X149209230Y-51855793D01*
X149242740Y-51888494D01*
X149269357Y-51916331D01*
X149319078Y-51973429D01*
X149368026Y-52034167D01*
X149415342Y-52097228D01*
X149460168Y-52161298D01*
X149501646Y-52225061D01*
X149538916Y-52287200D01*
X149571120Y-52346400D01*
X149597399Y-52401346D01*
X149615547Y-52446840D01*
X149627166Y-52483317D01*
X149633669Y-52513080D01*
X149635291Y-52538054D01*
X149632266Y-52560162D01*
X149630229Y-52567345D01*
X149621899Y-52600817D01*
X149615174Y-52644150D01*
X149610045Y-52697418D01*
X149608557Y-52719520D01*
X149606914Y-52742715D01*
X149605091Y-52762173D01*
X149603327Y-52775646D01*
X149602048Y-52780721D01*
X149595985Y-52784909D01*
X149583461Y-52791184D01*
X149571213Y-52796506D01*
X149535191Y-52814195D01*
X149505050Y-52835889D01*
X149480055Y-52862667D01*
X149459472Y-52895604D01*
X149442567Y-52935779D01*
X149428606Y-52984267D01*
X149421731Y-53015800D01*
X149413109Y-53070016D01*
X149406872Y-53132701D01*
X149403003Y-53202453D01*
X149401488Y-53277869D01*
X149402310Y-53357547D01*
X149405454Y-53440083D01*
X149410904Y-53524076D01*
X149418644Y-53608122D01*
X149428658Y-53690819D01*
X149429391Y-53696143D01*
X149437683Y-53747379D01*
X149448851Y-53801477D01*
X149463299Y-53860119D01*
X149481436Y-53924988D01*
X149497507Y-53978106D01*
X149508001Y-54013404D01*
X149514749Y-54039777D01*
X149517856Y-54057702D01*
X149517630Y-54067006D01*
X149516992Y-54074183D01*
X149516273Y-54090661D01*
X149515490Y-54115578D01*
X149514662Y-54148074D01*
X149513807Y-54187292D01*
X149512943Y-54232369D01*
X149512087Y-54282447D01*
X149511258Y-54336665D01*
X149510474Y-54394164D01*
X149510024Y-54430580D01*
X149509099Y-54505134D01*
X149508178Y-54570564D01*
X149507209Y-54627906D01*
X149506143Y-54678198D01*
X149504928Y-54722475D01*
X149503514Y-54761772D01*
X149501851Y-54797128D01*
X149499886Y-54829578D01*
X149497570Y-54860157D01*
X149494853Y-54889903D01*
X149491682Y-54919852D01*
X149488009Y-54951039D01*
X149483781Y-54984502D01*
X149482415Y-54995005D01*
X149473450Y-55057467D01*
X149462637Y-55122818D01*
X149450663Y-55187228D01*
X149438216Y-55246869D01*
X149433201Y-55268780D01*
X149427194Y-55294260D01*
X149421859Y-55316922D01*
X149417719Y-55334535D01*
X149415300Y-55344865D01*
X149415099Y-55345727D01*
X149409514Y-55355404D01*
X149396770Y-55369860D01*
X149378059Y-55388088D01*
X149354573Y-55409080D01*
X149327505Y-55431830D01*
X149298047Y-55455329D01*
X149267391Y-55478570D01*
X149236729Y-55500546D01*
X149212900Y-55516602D01*
X149119663Y-55571439D01*
X149020366Y-55618335D01*
X148914885Y-55657335D01*
X148803099Y-55688485D01*
X148684885Y-55711827D01*
X148674420Y-55713471D01*
X148629797Y-55719006D01*
X148577546Y-55723267D01*
X148520123Y-55726211D01*
X148459984Y-55727792D01*
X148399587Y-55727964D01*
X148341389Y-55726684D01*
X148287846Y-55723906D01*
X148255320Y-55721136D01*
X148118305Y-55703124D01*
X147986889Y-55677752D01*
X147861374Y-55645137D01*
X147742065Y-55605393D01*
X147629262Y-55558638D01*
X147523270Y-55504986D01*
X147424391Y-55444553D01*
X147332928Y-55377456D01*
X147312307Y-55360535D01*
X147279118Y-55331516D01*
X147246726Y-55300572D01*
X147213635Y-55266130D01*
X147178349Y-55226622D01*
X147139372Y-55180476D01*
X147130517Y-55169720D01*
X147026906Y-55037268D01*
X146933379Y-54904813D01*
X146849858Y-54772203D01*
X146776268Y-54639284D01*
X146712533Y-54505902D01*
X146658577Y-54371902D01*
X146614324Y-54237133D01*
X146579697Y-54101439D01*
X146564339Y-54024180D01*
X146556862Y-53981036D01*
X146550787Y-53942439D01*
X146545975Y-53906548D01*
X146542287Y-53871523D01*
X146539585Y-53835523D01*
X146537730Y-53796709D01*
X146536585Y-53753238D01*
X146536009Y-53703271D01*
X146535866Y-53645720D01*
X144852845Y-53645720D01*
X144853056Y-53661296D01*
X144854526Y-53720389D01*
X144856624Y-53777265D01*
X144859314Y-53829973D01*
X144862556Y-53876563D01*
X144866314Y-53915085D01*
X144866582Y-53917320D01*
X144892056Y-54086852D01*
X144926728Y-54252074D01*
X144970629Y-54413062D01*
X145023792Y-54569888D01*
X145086249Y-54722626D01*
X145158030Y-54871350D01*
X145239169Y-55016134D01*
X145329697Y-55157052D01*
X145429646Y-55294178D01*
X145497157Y-55378282D01*
X145522254Y-55407266D01*
X145553460Y-55441436D01*
X145589254Y-55479272D01*
X145628116Y-55519253D01*
X145668523Y-55559857D01*
X145708955Y-55599562D01*
X145747890Y-55636849D01*
X145783808Y-55670195D01*
X145815186Y-55698080D01*
X145826798Y-55707923D01*
X145943126Y-55800237D01*
X146060135Y-55883925D01*
X146179986Y-55960414D01*
X146304836Y-56031130D01*
X146357940Y-56058770D01*
X146503201Y-56127483D01*
X146650453Y-56186924D01*
X146800545Y-56237350D01*
X146954324Y-56279016D01*
X147112640Y-56312177D01*
X147276342Y-56337089D01*
X147287760Y-56338498D01*
X147325674Y-56342289D01*
X147371787Y-56345567D01*
X147424148Y-56348295D01*
X147480806Y-56350434D01*
X147539812Y-56351946D01*
X147599215Y-56352794D01*
X147657065Y-56352938D01*
X147711411Y-56352342D01*
G36*
X147124466Y-52670074D02*
G01*
X147139554Y-52658667D01*
X147141789Y-52656390D01*
X147157997Y-52635924D01*
X147171303Y-52612812D01*
X147181395Y-52588652D01*
X147187961Y-52565040D01*
X147190691Y-52543574D01*
X147189274Y-52525850D01*
X147183397Y-52513465D01*
X147172750Y-52508017D01*
X147170740Y-52507897D01*
X147163319Y-52510310D01*
X147151818Y-52516298D01*
X147150097Y-52517329D01*
X147133099Y-52532092D01*
X147117367Y-52553599D01*
X147103917Y-52579317D01*
X147093764Y-52606711D01*
X147087921Y-52633246D01*
X147087405Y-52656387D01*
X147090003Y-52667405D01*
X147097422Y-52674926D01*
X147109666Y-52675655D01*
X147124466Y-52670074D01*
X147124466Y-52670074D01*
G37*
X147124466Y-52670074D02*
X147139554Y-52658667D01*
X147141789Y-52656390D01*
X147157997Y-52635924D01*
X147171303Y-52612812D01*
X147181395Y-52588652D01*
X147187961Y-52565040D01*
X147190691Y-52543574D01*
X147189274Y-52525850D01*
X147183397Y-52513465D01*
X147172750Y-52508017D01*
X147170740Y-52507897D01*
X147163319Y-52510310D01*
X147151818Y-52516298D01*
X147150097Y-52517329D01*
X147133099Y-52532092D01*
X147117367Y-52553599D01*
X147103917Y-52579317D01*
X147093764Y-52606711D01*
X147087921Y-52633246D01*
X147087405Y-52656387D01*
X147090003Y-52667405D01*
X147097422Y-52674926D01*
X147109666Y-52675655D01*
X147124466Y-52670074D01*
G36*
X148563667Y-52948898D02*
G01*
X148576744Y-52945507D01*
X148588048Y-52938378D01*
X148590392Y-52936455D01*
X148609692Y-52914618D01*
X148619619Y-52890141D01*
X148619926Y-52864232D01*
X148610441Y-52838235D01*
X148596012Y-52819141D01*
X148577537Y-52807675D01*
X148553024Y-52802790D01*
X148542228Y-52802440D01*
X148524829Y-52803053D01*
X148513155Y-52806066D01*
X148502794Y-52813242D01*
X148493903Y-52821741D01*
X148477278Y-52844631D01*
X148469936Y-52869566D01*
X148471832Y-52894794D01*
X148482919Y-52918564D01*
X148496859Y-52934049D01*
X148508713Y-52943246D01*
X148520030Y-52947967D01*
X148535130Y-52949631D01*
X148544667Y-52949760D01*
X148563667Y-52948898D01*
X148563667Y-52948898D01*
G37*
X148563667Y-52948898D02*
X148576744Y-52945507D01*
X148588048Y-52938378D01*
X148590392Y-52936455D01*
X148609692Y-52914618D01*
X148619619Y-52890141D01*
X148619926Y-52864232D01*
X148610441Y-52838235D01*
X148596012Y-52819141D01*
X148577537Y-52807675D01*
X148553024Y-52802790D01*
X148542228Y-52802440D01*
X148524829Y-52803053D01*
X148513155Y-52806066D01*
X148502794Y-52813242D01*
X148493903Y-52821741D01*
X148477278Y-52844631D01*
X148469936Y-52869566D01*
X148471832Y-52894794D01*
X148482919Y-52918564D01*
X148496859Y-52934049D01*
X148508713Y-52943246D01*
X148520030Y-52947967D01*
X148535130Y-52949631D01*
X148544667Y-52949760D01*
X148563667Y-52948898D01*
D10*
X183500000Y-81000000D02*
X182900000Y-81000000D01*
X178900000Y-81000000D02*
X180100000Y-81000000D01*
X174900000Y-81000000D02*
X176100000Y-81000000D01*
X171500000Y-81000000D02*
X172100000Y-81000000D01*
X183500000Y-84000000D02*
X171500000Y-84000000D01*
X171500000Y-84000000D02*
X171500000Y-69000000D01*
X171500000Y-69000000D02*
X183500000Y-69000000D01*
X183500000Y-69000000D02*
X183500000Y-84000000D01*
M02*
