M48
; DRILL file {KiCad 5.1.2-f72e74a~84~ubuntu18.04.1} date So 30 Jun 2019 22:47:55 CEST
; FORMAT={-:-/ absolute / inch / decimal}
; #@! TF.CreationDate,2019-06-30T22:47:55+02:00
; #@! TF.GenerationSoftware,Kicad,Pcbnew,5.1.2-f72e74a~84~ubuntu18.04.1
; #@! TF.FileFunction,Plated,1,2,PTH
FMAT,2
INCH
T1C0.0157
T2C0.0315
%
G90
G05
T1
X5.3197Y-2.0531
X5.3591Y-1.7736
X5.3591Y-2.0531
X5.3984Y-1.7736
X5.3984Y-2.0531
X5.4134Y-2.2205
X5.4378Y-1.7736
X5.4378Y-2.0531
X5.4469Y-2.9587
X5.4654Y-2.3563
X5.4685Y-2.874
X5.4732Y-2.2854
X5.4772Y-1.7736
X5.4772Y-2.0531
X5.489Y-2.3209
X5.4961Y-3.0984
X5.5047Y-2.3563
X5.5126Y-2.2854
X5.5165Y-1.7736
X5.5165Y-2.0531
X5.5283Y-2.3209
X5.5315Y-3.1693
X5.5433Y-2.8425
X5.5441Y-2.3563
X5.5512Y-3.0709
X5.552Y-2.2854
X5.5551Y-3.0197
X5.5559Y-1.7736
X5.5559Y-2.0531
X5.5604Y-2.5669
X5.5677Y-2.3209
X5.5748Y-2.626
X5.589Y-3.0157
X5.5925Y-2.5472
X5.5953Y-1.7736
X5.5953Y-2.0531
X5.6043Y-2.3228
X5.6142Y-3.0512
X5.622Y-3.1181
X5.6346Y-1.7736
X5.6346Y-2.0531
X5.6378Y-2.5906
X5.6614Y-3.0787
X5.674Y-1.7736
X5.674Y-2.0531
X5.6791Y-2.2756
X5.6927Y-3.0443
X5.6929Y-2.8996
X5.6969Y-3.1614
X5.7008Y-3.0118
X5.7087Y-2.7913
X5.7169Y-2.2831
X5.7727Y-2.7621
X5.7836Y-2.7305
X5.7913Y-2.874
X5.8031Y-3.2362
X5.8127Y-2.75
X5.815Y-2.7008
X5.8307Y-2.6535
X5.8307Y-2.8228
X5.8343Y-2.5909
X5.8346Y-2.7756
X5.8386Y-2.9055
X5.8486Y-2.9884
X5.855Y-2.9506
X5.8642Y-2.2689
X5.8701Y-2.8543
X5.8937Y-2.248
X5.9Y-2.3406
X5.9154Y-2.6969
X5.9433Y-2.3935
X5.9508Y-2.352
X5.9567Y-2.8228
X5.9819Y-2.3941
X5.9921Y-2.6929
X6.0118Y-3.0157
X6.0197Y-2.8858
X6.0364Y-2.8479
X6.0409Y-2.3935
X6.0449Y-2.2492
X6.0591Y-2.811
X6.0618Y-2.7571
X6.0732Y-2.3358
X6.0827Y-2.5709
X6.0846Y-2.3803
X6.0885Y-2.9115
X6.1063Y-2.3504
X6.1142Y-2.5472
X6.126Y-2.5984
X6.1417Y-1.9882
X6.1614Y-2.8228
X6.1689Y-2.6358
X6.1693Y-2.3228
X6.172Y-2.5941
X6.1811Y-1.7717
X6.1878Y-2.676
X6.1892Y-2.3738
X6.1969Y-3.0118
X6.2087Y-2.9291
X6.2126Y-2.1969
X6.2126Y-2.2756
X6.2138Y-2.5949
X6.2205Y-1.7717
X6.2213Y-2.6343
X6.2283Y-2.1575
X6.2283Y-2.2362
X6.2315Y-2.6768
X6.2453Y-2.7555
X6.2498Y-3.0175
X6.252Y-2.1969
X6.252Y-2.2756
X6.2559Y-2.9016
X6.2598Y-1.7717
X6.2614Y-2.5933
X6.2646Y-2.6319
X6.2677Y-2.1575
X6.2677Y-2.2362
X6.2772Y-2.6768
X6.2913Y-2.1969
X6.2913Y-2.2756
X6.2992Y-1.7717
X6.3006Y-3.0482
X6.3071Y-2.1575
X6.3071Y-2.2362
X6.315Y-2.4882
X6.315Y-2.5669
X6.3307Y-2.1969
X6.3307Y-2.2756
X6.3339Y-3.0732
X6.3358Y-2.9386
X6.3386Y-1.7717
X6.3386Y-2.5276
X6.3386Y-2.6063
X6.3386Y-2.7165
X6.3465Y-2.1575
X6.3465Y-2.2362
X6.3543Y-2.4882
X6.3543Y-2.5669
X6.376Y-2.7815
X6.378Y-1.7717
X6.378Y-2.5276
X6.378Y-2.6063
X6.378Y-2.9016
X6.3937Y-2.3024
X6.4Y-2.7382
X6.4362Y-2.128
X6.4591Y-2.9256
X6.4646Y-2.9843
X6.4933Y-1.9701
X6.5028Y-2.0791
X6.5028Y-2.6976
X6.5154Y-2.6594
X6.5213Y-2.6209
X6.5354Y-1.7717
X6.548Y-2.6969
X6.5563Y-2.6559
X6.5669Y-2.2047
X6.5669Y-2.2835
X6.5748Y-1.7717
X6.5748Y-2.9114
X6.5827Y-2.1654
X6.5827Y-2.2441
X6.5878Y-2.7441
X6.5913Y-2.6929
X6.6024Y-2.9803
X6.6063Y-2.2047
X6.6063Y-2.2835
X6.6142Y-1.7717
X6.6146Y-2.8075
X6.622Y-2.1654
X6.622Y-2.2441
X6.6457Y-2.2047
X6.6457Y-2.2835
X6.6535Y-1.7717
X6.6614Y-2.1654
X6.6614Y-2.2441
X6.6614Y-3.0945
X6.6736Y-2.5236
X6.6772Y-3.2717
X6.685Y-2.2047
X6.685Y-2.2835
X6.685Y-3.1299
X6.6929Y-1.7717
X6.6929Y-3.1693
X6.7008Y-2.1654
X6.7008Y-2.2441
X6.7008Y-3.0945
X6.7008Y-3.2362
X6.7283Y-3.2008
X6.7283Y-3.2717
X6.7323Y-1.7717
X6.7323Y-3.1417
X6.7402Y-3.0197
X6.7402Y-3.0945
X6.7461Y-2.6374
X6.7638Y-3.122
X6.7638Y-3.2598
X6.7677Y-3.1693
X6.7677Y-3.2205
X6.776Y-2.1205
X6.7903Y-2.0804
X6.8051Y-2.5118
X6.8094Y-2.1098
X6.835Y-2.661
X6.8535Y-2.7047
X6.872Y-1.9744
X6.8744Y-2.5984
X6.8768Y-2.6535
X6.8898Y-2.7559
X6.8898Y-2.7953
X6.8898Y-2.8346
X6.8898Y-2.874
X6.8898Y-2.9134
X6.8898Y-2.9528
X6.8898Y-3.0512
X6.8898Y-3.0906
X6.8898Y-3.1299
X6.8898Y-3.1693
X6.8898Y-3.2087
X6.8898Y-3.248
X6.9079Y-2.6217
X6.9094Y-1.7717
X6.9157Y-2.6614
X6.9291Y-2.7559
X6.9291Y-2.7953
X6.9291Y-2.8346
X6.9291Y-2.874
X6.9291Y-2.9134
X6.9291Y-3.0512
X6.9291Y-3.0906
X6.9291Y-3.1299
X6.9291Y-3.1693
X6.9291Y-3.2087
X6.9291Y-3.248
X6.937Y-2.2126
X6.937Y-2.2913
X6.9488Y-1.7717
X6.9528Y-2.1732
X6.9528Y-2.252
X6.9764Y-2.2126
X6.9764Y-2.2913
X6.9866Y-2.3524
X6.9882Y-1.7717
X6.9921Y-2.1732
X6.9921Y-2.252
X7.0157Y-2.2126
X7.0157Y-2.2913
X7.0276Y-1.7717
X7.0315Y-2.1732
X7.0315Y-2.252
X7.0315Y-2.4882
X7.0315Y-2.5669
X7.0472Y-3.0512
X7.0472Y-3.0906
X7.0472Y-3.1299
X7.0472Y-3.1693
X7.0472Y-3.2087
X7.0472Y-3.248
X7.0484Y-2.6984
X7.0496Y-2.6614
X7.0512Y-2.752
X7.0512Y-2.7913
X7.0512Y-2.9213
X7.0512Y-2.9606
X7.0512Y-3.0079
X7.0551Y-2.2126
X7.0551Y-2.2913
X7.0551Y-2.6063
X7.0669Y-1.7717
X7.0709Y-2.1732
X7.0709Y-2.252
X7.0709Y-2.5669
X7.0827Y-2.8937
X7.0831Y-2.6917
X7.0866Y-2.752
X7.0866Y-2.9409
X7.0866Y-2.9882
X7.0866Y-3.0512
X7.0866Y-3.0906
X7.0866Y-3.1299
X7.0866Y-3.1693
X7.0866Y-3.2087
X7.0866Y-3.248
X7.0945Y-2.5276
X7.0945Y-2.6063
X7.1465Y-2.1264
T2
X5.2795Y-2.6772
X5.2795Y-2.7772
X5.2795Y-2.8772
X5.3795Y-2.7272
X5.3795Y-2.8272
X5.3795Y-2.9272
X5.2795Y-2.2362
X5.2795Y-2.3362
X5.2795Y-2.4362
X5.3795Y-2.2862
X5.3795Y-2.3862
X5.3795Y-2.4862
X6.3445Y-3.2299
X6.3945Y-3.1299
X6.4445Y-3.2299
X6.4945Y-3.1299
X6.5445Y-3.2299
X6.5945Y-3.1299
X5.8957Y-3.2299
X5.9457Y-3.1299
X5.9957Y-3.2299
X6.0457Y-3.1299
X6.0957Y-3.2299
X6.1457Y-3.1299
T0
M30
