G04 #@! TF.GenerationSoftware,KiCad,Pcbnew,5.1.2-f72e74a~84~ubuntu18.04.1*
G04 #@! TF.CreationDate,2019-06-30T22:47:52+02:00*
G04 #@! TF.ProjectId,board,626f6172-642e-46b6-9963-61645f706362,rev?*
G04 #@! TF.SameCoordinates,Original*
G04 #@! TF.FileFunction,Soldermask,Bot*
G04 #@! TF.FilePolarity,Negative*
%FSLAX46Y46*%
G04 Gerber Fmt 4.6, Leading zero omitted, Abs format (unit mm)*
G04 Created by KiCad (PCBNEW 5.1.2-f72e74a~84~ubuntu18.04.1) date 2019-06-30 22:47:52*
%MOMM*%
%LPD*%
G04 APERTURE LIST*
%ADD10C,0.010000*%
%ADD11C,0.060000*%
%ADD12C,0.100000*%
G04 APERTURE END LIST*
D10*
G36*
X148718423Y-53198223D02*
G01*
X148756263Y-53194934D01*
X148776759Y-53191103D01*
X148828390Y-53174126D01*
X148873060Y-53150346D01*
X148910646Y-53120473D01*
X148941024Y-53085219D01*
X148964071Y-53045297D01*
X148979661Y-53001417D01*
X148987672Y-52954292D01*
X148987980Y-52904634D01*
X148980461Y-52853154D01*
X148964990Y-52800564D01*
X148941445Y-52747576D01*
X148909701Y-52694901D01*
X148871669Y-52645602D01*
X148822024Y-52594494D01*
X148767034Y-52549745D01*
X148707863Y-52511858D01*
X148645678Y-52481334D01*
X148581645Y-52458675D01*
X148516929Y-52444383D01*
X148452695Y-52438959D01*
X148398218Y-52441831D01*
X148343393Y-52452893D01*
X148294297Y-52471964D01*
X148251371Y-52498852D01*
X148232887Y-52514667D01*
X148201140Y-52548564D01*
X148178000Y-52583038D01*
X148162118Y-52620680D01*
X148152141Y-52664084D01*
X148150986Y-52671855D01*
X148148426Y-52726245D01*
X148155286Y-52781309D01*
X148170934Y-52836248D01*
X148184275Y-52866525D01*
X148549164Y-52866525D01*
X148551545Y-52844888D01*
X148564506Y-52800696D01*
X148585689Y-52761343D01*
X148614198Y-52727878D01*
X148649137Y-52701347D01*
X148689610Y-52682796D01*
X148690453Y-52682519D01*
X148710411Y-52678540D01*
X148737461Y-52676848D01*
X148755684Y-52677024D01*
X148779938Y-52678429D01*
X148798324Y-52681366D01*
X148815122Y-52686824D01*
X148832690Y-52694845D01*
X148869679Y-52718212D01*
X148900282Y-52748052D01*
X148923754Y-52782952D01*
X148939349Y-52821496D01*
X148946322Y-52862272D01*
X148943925Y-52903866D01*
X148943670Y-52905278D01*
X148930966Y-52947176D01*
X148909644Y-52985562D01*
X148880985Y-53018785D01*
X148846270Y-53045194D01*
X148827445Y-53055142D01*
X148797518Y-53064650D01*
X148762396Y-53069214D01*
X148725790Y-53068775D01*
X148691413Y-53063276D01*
X148673531Y-53057574D01*
X148638383Y-53038514D01*
X148607691Y-53012056D01*
X148582440Y-52979913D01*
X148563613Y-52943801D01*
X148552193Y-52905433D01*
X148549164Y-52866525D01*
X148184275Y-52866525D01*
X148194736Y-52890264D01*
X148226061Y-52942559D01*
X148264274Y-52992334D01*
X148308745Y-53038793D01*
X148358840Y-53081136D01*
X148413926Y-53118566D01*
X148473370Y-53150284D01*
X148536541Y-53175493D01*
X148554886Y-53181299D01*
X148591263Y-53189762D01*
X148632757Y-53195497D01*
X148676199Y-53198364D01*
X148718423Y-53198223D01*
X148718423Y-53198223D01*
G37*
X148718423Y-53198223D02*
X148756263Y-53194934D01*
X148776759Y-53191103D01*
X148828390Y-53174126D01*
X148873060Y-53150346D01*
X148910646Y-53120473D01*
X148941024Y-53085219D01*
X148964071Y-53045297D01*
X148979661Y-53001417D01*
X148987672Y-52954292D01*
X148987980Y-52904634D01*
X148980461Y-52853154D01*
X148964990Y-52800564D01*
X148941445Y-52747576D01*
X148909701Y-52694901D01*
X148871669Y-52645602D01*
X148822024Y-52594494D01*
X148767034Y-52549745D01*
X148707863Y-52511858D01*
X148645678Y-52481334D01*
X148581645Y-52458675D01*
X148516929Y-52444383D01*
X148452695Y-52438959D01*
X148398218Y-52441831D01*
X148343393Y-52452893D01*
X148294297Y-52471964D01*
X148251371Y-52498852D01*
X148232887Y-52514667D01*
X148201140Y-52548564D01*
X148178000Y-52583038D01*
X148162118Y-52620680D01*
X148152141Y-52664084D01*
X148150986Y-52671855D01*
X148148426Y-52726245D01*
X148155286Y-52781309D01*
X148170934Y-52836248D01*
X148184275Y-52866525D01*
X148549164Y-52866525D01*
X148551545Y-52844888D01*
X148564506Y-52800696D01*
X148585689Y-52761343D01*
X148614198Y-52727878D01*
X148649137Y-52701347D01*
X148689610Y-52682796D01*
X148690453Y-52682519D01*
X148710411Y-52678540D01*
X148737461Y-52676848D01*
X148755684Y-52677024D01*
X148779938Y-52678429D01*
X148798324Y-52681366D01*
X148815122Y-52686824D01*
X148832690Y-52694845D01*
X148869679Y-52718212D01*
X148900282Y-52748052D01*
X148923754Y-52782952D01*
X148939349Y-52821496D01*
X148946322Y-52862272D01*
X148943925Y-52903866D01*
X148943670Y-52905278D01*
X148930966Y-52947176D01*
X148909644Y-52985562D01*
X148880985Y-53018785D01*
X148846270Y-53045194D01*
X148827445Y-53055142D01*
X148797518Y-53064650D01*
X148762396Y-53069214D01*
X148725790Y-53068775D01*
X148691413Y-53063276D01*
X148673531Y-53057574D01*
X148638383Y-53038514D01*
X148607691Y-53012056D01*
X148582440Y-52979913D01*
X148563613Y-52943801D01*
X148552193Y-52905433D01*
X148549164Y-52866525D01*
X148184275Y-52866525D01*
X148194736Y-52890264D01*
X148226061Y-52942559D01*
X148264274Y-52992334D01*
X148308745Y-53038793D01*
X148358840Y-53081136D01*
X148413926Y-53118566D01*
X148473370Y-53150284D01*
X148536541Y-53175493D01*
X148554886Y-53181299D01*
X148591263Y-53189762D01*
X148632757Y-53195497D01*
X148676199Y-53198364D01*
X148718423Y-53198223D01*
G36*
X147093665Y-53007600D02*
G01*
X147111199Y-53005185D01*
X147127879Y-52999924D01*
X147146678Y-52991596D01*
X147196544Y-52963190D01*
X147246028Y-52925974D01*
X147294186Y-52881287D01*
X147340077Y-52830464D01*
X147382757Y-52774842D01*
X147421285Y-52715756D01*
X147454717Y-52654544D01*
X147482112Y-52592541D01*
X147502526Y-52531083D01*
X147515018Y-52471508D01*
X147515381Y-52468871D01*
X147518149Y-52425804D01*
X147514456Y-52387743D01*
X147504593Y-52355573D01*
X147488853Y-52330178D01*
X147467525Y-52312444D01*
X147463187Y-52310168D01*
X147435219Y-52301682D01*
X147403409Y-52300419D01*
X147371189Y-52306512D01*
X147370740Y-52306654D01*
X147327203Y-52324943D01*
X147282270Y-52352158D01*
X147236881Y-52387335D01*
X147191976Y-52429513D01*
X147148495Y-52477728D01*
X147107378Y-52531018D01*
X147069565Y-52588421D01*
X147035996Y-52648974D01*
X147035540Y-52649881D01*
X147010181Y-52704155D01*
X147001711Y-52726426D01*
X147155284Y-52726426D01*
X147155543Y-52698685D01*
X147158121Y-52670689D01*
X147162567Y-52647298D01*
X147172407Y-52617135D01*
X147186999Y-52582844D01*
X147204535Y-52548056D01*
X147223208Y-52516404D01*
X147238382Y-52494978D01*
X147269895Y-52459194D01*
X147301152Y-52431105D01*
X147331506Y-52411000D01*
X147360309Y-52399166D01*
X147386913Y-52395891D01*
X147410670Y-52401462D01*
X147426133Y-52411534D01*
X147440767Y-52428001D01*
X147450019Y-52447997D01*
X147454606Y-52473687D01*
X147455402Y-52499684D01*
X147451584Y-52538915D01*
X147441587Y-52579233D01*
X147426265Y-52619549D01*
X147406466Y-52658772D01*
X147383042Y-52695812D01*
X147356844Y-52729579D01*
X147328723Y-52758982D01*
X147299529Y-52782931D01*
X147270113Y-52800336D01*
X147241326Y-52810106D01*
X147214019Y-52811151D01*
X147212521Y-52810925D01*
X147190226Y-52802390D01*
X147171870Y-52785571D01*
X147161805Y-52768314D01*
X147157365Y-52750705D01*
X147155284Y-52726426D01*
X147001711Y-52726426D01*
X146991505Y-52753258D01*
X146978956Y-52799150D01*
X146971980Y-52843791D01*
X146970024Y-52881180D01*
X146970147Y-52906266D01*
X146971356Y-52924220D01*
X146974108Y-52938050D01*
X146978861Y-52950765D01*
X146981443Y-52956249D01*
X146992212Y-52973579D01*
X147005671Y-52989267D01*
X147011471Y-52994349D01*
X147021774Y-53001392D01*
X147031873Y-53005548D01*
X147044939Y-53007557D01*
X147064145Y-53008162D01*
X147070641Y-53008180D01*
X147093665Y-53007600D01*
X147093665Y-53007600D01*
G37*
X147093665Y-53007600D02*
X147111199Y-53005185D01*
X147127879Y-52999924D01*
X147146678Y-52991596D01*
X147196544Y-52963190D01*
X147246028Y-52925974D01*
X147294186Y-52881287D01*
X147340077Y-52830464D01*
X147382757Y-52774842D01*
X147421285Y-52715756D01*
X147454717Y-52654544D01*
X147482112Y-52592541D01*
X147502526Y-52531083D01*
X147515018Y-52471508D01*
X147515381Y-52468871D01*
X147518149Y-52425804D01*
X147514456Y-52387743D01*
X147504593Y-52355573D01*
X147488853Y-52330178D01*
X147467525Y-52312444D01*
X147463187Y-52310168D01*
X147435219Y-52301682D01*
X147403409Y-52300419D01*
X147371189Y-52306512D01*
X147370740Y-52306654D01*
X147327203Y-52324943D01*
X147282270Y-52352158D01*
X147236881Y-52387335D01*
X147191976Y-52429513D01*
X147148495Y-52477728D01*
X147107378Y-52531018D01*
X147069565Y-52588421D01*
X147035996Y-52648974D01*
X147035540Y-52649881D01*
X147010181Y-52704155D01*
X147001711Y-52726426D01*
X147155284Y-52726426D01*
X147155543Y-52698685D01*
X147158121Y-52670689D01*
X147162567Y-52647298D01*
X147172407Y-52617135D01*
X147186999Y-52582844D01*
X147204535Y-52548056D01*
X147223208Y-52516404D01*
X147238382Y-52494978D01*
X147269895Y-52459194D01*
X147301152Y-52431105D01*
X147331506Y-52411000D01*
X147360309Y-52399166D01*
X147386913Y-52395891D01*
X147410670Y-52401462D01*
X147426133Y-52411534D01*
X147440767Y-52428001D01*
X147450019Y-52447997D01*
X147454606Y-52473687D01*
X147455402Y-52499684D01*
X147451584Y-52538915D01*
X147441587Y-52579233D01*
X147426265Y-52619549D01*
X147406466Y-52658772D01*
X147383042Y-52695812D01*
X147356844Y-52729579D01*
X147328723Y-52758982D01*
X147299529Y-52782931D01*
X147270113Y-52800336D01*
X147241326Y-52810106D01*
X147214019Y-52811151D01*
X147212521Y-52810925D01*
X147190226Y-52802390D01*
X147171870Y-52785571D01*
X147161805Y-52768314D01*
X147157365Y-52750705D01*
X147155284Y-52726426D01*
X147001711Y-52726426D01*
X146991505Y-52753258D01*
X146978956Y-52799150D01*
X146971980Y-52843791D01*
X146970024Y-52881180D01*
X146970147Y-52906266D01*
X146971356Y-52924220D01*
X146974108Y-52938050D01*
X146978861Y-52950765D01*
X146981443Y-52956249D01*
X146992212Y-52973579D01*
X147005671Y-52989267D01*
X147011471Y-52994349D01*
X147021774Y-53001392D01*
X147031873Y-53005548D01*
X147044939Y-53007557D01*
X147064145Y-53008162D01*
X147070641Y-53008180D01*
X147093665Y-53007600D01*
D11*
G36*
X148424692Y-51568170D02*
G01*
X148428884Y-51562762D01*
X148429842Y-51554566D01*
X148425424Y-51549146D01*
X148413375Y-51541290D01*
X148395655Y-51531907D01*
X148374225Y-51521910D01*
X148351046Y-51512209D01*
X148328078Y-51503716D01*
X148307282Y-51497341D01*
X148305917Y-51496987D01*
X148262856Y-51489514D01*
X148214361Y-51487140D01*
X148163785Y-51489862D01*
X148117500Y-51497035D01*
X148090200Y-51502814D01*
X148071309Y-51507027D01*
X148059286Y-51510160D01*
X148052588Y-51512698D01*
X148049673Y-51515124D01*
X148048999Y-51517924D01*
X148048997Y-51518567D01*
X148050026Y-51526273D01*
X148053898Y-51530916D01*
X148062140Y-51532631D01*
X148076276Y-51531551D01*
X148097832Y-51527810D01*
X148114960Y-51524343D01*
X148173922Y-51514891D01*
X148227388Y-51512559D01*
X148277312Y-51517558D01*
X148325646Y-51530099D01*
X148374342Y-51550391D01*
X148379221Y-51552812D01*
X148401207Y-51563242D01*
X148415915Y-51568346D01*
X148424692Y-51568170D01*
X148424692Y-51568170D01*
G37*
X148424692Y-51568170D02*
X148428884Y-51562762D01*
X148429842Y-51554566D01*
X148425424Y-51549146D01*
X148413375Y-51541290D01*
X148395655Y-51531907D01*
X148374225Y-51521910D01*
X148351046Y-51512209D01*
X148328078Y-51503716D01*
X148307282Y-51497341D01*
X148305917Y-51496987D01*
X148262856Y-51489514D01*
X148214361Y-51487140D01*
X148163785Y-51489862D01*
X148117500Y-51497035D01*
X148090200Y-51502814D01*
X148071309Y-51507027D01*
X148059286Y-51510160D01*
X148052588Y-51512698D01*
X148049673Y-51515124D01*
X148048999Y-51517924D01*
X148048997Y-51518567D01*
X148050026Y-51526273D01*
X148053898Y-51530916D01*
X148062140Y-51532631D01*
X148076276Y-51531551D01*
X148097832Y-51527810D01*
X148114960Y-51524343D01*
X148173922Y-51514891D01*
X148227388Y-51512559D01*
X148277312Y-51517558D01*
X148325646Y-51530099D01*
X148374342Y-51550391D01*
X148379221Y-51552812D01*
X148401207Y-51563242D01*
X148415915Y-51568346D01*
X148424692Y-51568170D01*
D12*
G36*
X182551000Y-83551000D02*
G01*
X180449000Y-83551000D01*
X180449000Y-77449000D01*
X182551000Y-77449000D01*
X182551000Y-83551000D01*
X182551000Y-83551000D01*
G37*
G36*
X178551000Y-83551000D02*
G01*
X176449000Y-83551000D01*
X176449000Y-77449000D01*
X178551000Y-77449000D01*
X178551000Y-83551000D01*
X178551000Y-83551000D01*
G37*
G36*
X174551000Y-83551000D02*
G01*
X172449000Y-83551000D01*
X172449000Y-77449000D01*
X174551000Y-77449000D01*
X174551000Y-83551000D01*
X174551000Y-83551000D01*
G37*
G36*
X155107395Y-81125546D02*
G01*
X155280466Y-81197234D01*
X155280467Y-81197235D01*
X155436227Y-81301310D01*
X155568690Y-81433773D01*
X155568691Y-81433775D01*
X155672766Y-81589534D01*
X155744454Y-81762605D01*
X155781000Y-81946333D01*
X155781000Y-82133667D01*
X155744454Y-82317395D01*
X155672766Y-82490466D01*
X155672765Y-82490467D01*
X155568690Y-82646227D01*
X155436227Y-82778690D01*
X155357818Y-82831081D01*
X155280466Y-82882766D01*
X155107395Y-82954454D01*
X154923667Y-82991000D01*
X154736333Y-82991000D01*
X154552605Y-82954454D01*
X154379534Y-82882766D01*
X154302182Y-82831081D01*
X154223773Y-82778690D01*
X154091310Y-82646227D01*
X153987235Y-82490467D01*
X153987234Y-82490466D01*
X153915546Y-82317395D01*
X153879000Y-82133667D01*
X153879000Y-81946333D01*
X153915546Y-81762605D01*
X153987234Y-81589534D01*
X154091309Y-81433775D01*
X154091310Y-81433773D01*
X154223773Y-81301310D01*
X154379533Y-81197235D01*
X154379534Y-81197234D01*
X154552605Y-81125546D01*
X154736333Y-81089000D01*
X154923667Y-81089000D01*
X155107395Y-81125546D01*
X155107395Y-81125546D01*
G37*
G36*
X150027395Y-81125546D02*
G01*
X150200466Y-81197234D01*
X150200467Y-81197235D01*
X150356227Y-81301310D01*
X150488690Y-81433773D01*
X150488691Y-81433775D01*
X150592766Y-81589534D01*
X150664454Y-81762605D01*
X150701000Y-81946333D01*
X150701000Y-82133667D01*
X150664454Y-82317395D01*
X150592766Y-82490466D01*
X150592765Y-82490467D01*
X150488690Y-82646227D01*
X150356227Y-82778690D01*
X150277818Y-82831081D01*
X150200466Y-82882766D01*
X150027395Y-82954454D01*
X149843667Y-82991000D01*
X149656333Y-82991000D01*
X149472605Y-82954454D01*
X149299534Y-82882766D01*
X149222182Y-82831081D01*
X149143773Y-82778690D01*
X149011310Y-82646227D01*
X148907235Y-82490467D01*
X148907234Y-82490466D01*
X148835546Y-82317395D01*
X148799000Y-82133667D01*
X148799000Y-81946333D01*
X148835546Y-81762605D01*
X148907234Y-81589534D01*
X149011309Y-81433775D01*
X149011310Y-81433773D01*
X149143773Y-81301310D01*
X149299533Y-81197235D01*
X149299534Y-81197234D01*
X149472605Y-81125546D01*
X149656333Y-81089000D01*
X149843667Y-81089000D01*
X150027395Y-81125546D01*
X150027395Y-81125546D01*
G37*
G36*
X152567395Y-81125546D02*
G01*
X152740466Y-81197234D01*
X152740467Y-81197235D01*
X152896227Y-81301310D01*
X153028690Y-81433773D01*
X153028691Y-81433775D01*
X153132766Y-81589534D01*
X153204454Y-81762605D01*
X153241000Y-81946333D01*
X153241000Y-82133667D01*
X153204454Y-82317395D01*
X153132766Y-82490466D01*
X153132765Y-82490467D01*
X153028690Y-82646227D01*
X152896227Y-82778690D01*
X152817818Y-82831081D01*
X152740466Y-82882766D01*
X152567395Y-82954454D01*
X152383667Y-82991000D01*
X152196333Y-82991000D01*
X152012605Y-82954454D01*
X151839534Y-82882766D01*
X151762182Y-82831081D01*
X151683773Y-82778690D01*
X151551310Y-82646227D01*
X151447235Y-82490467D01*
X151447234Y-82490466D01*
X151375546Y-82317395D01*
X151339000Y-82133667D01*
X151339000Y-81946333D01*
X151375546Y-81762605D01*
X151447234Y-81589534D01*
X151551309Y-81433775D01*
X151551310Y-81433773D01*
X151683773Y-81301310D01*
X151839533Y-81197235D01*
X151839534Y-81197234D01*
X152012605Y-81125546D01*
X152196333Y-81089000D01*
X152383667Y-81089000D01*
X152567395Y-81125546D01*
X152567395Y-81125546D01*
G37*
G36*
X166507395Y-81125546D02*
G01*
X166680466Y-81197234D01*
X166680467Y-81197235D01*
X166836227Y-81301310D01*
X166968690Y-81433773D01*
X166968691Y-81433775D01*
X167072766Y-81589534D01*
X167144454Y-81762605D01*
X167181000Y-81946333D01*
X167181000Y-82133667D01*
X167144454Y-82317395D01*
X167072766Y-82490466D01*
X167072765Y-82490467D01*
X166968690Y-82646227D01*
X166836227Y-82778690D01*
X166757818Y-82831081D01*
X166680466Y-82882766D01*
X166507395Y-82954454D01*
X166323667Y-82991000D01*
X166136333Y-82991000D01*
X165952605Y-82954454D01*
X165779534Y-82882766D01*
X165702182Y-82831081D01*
X165623773Y-82778690D01*
X165491310Y-82646227D01*
X165387235Y-82490467D01*
X165387234Y-82490466D01*
X165315546Y-82317395D01*
X165279000Y-82133667D01*
X165279000Y-81946333D01*
X165315546Y-81762605D01*
X165387234Y-81589534D01*
X165491309Y-81433775D01*
X165491310Y-81433773D01*
X165623773Y-81301310D01*
X165779533Y-81197235D01*
X165779534Y-81197234D01*
X165952605Y-81125546D01*
X166136333Y-81089000D01*
X166323667Y-81089000D01*
X166507395Y-81125546D01*
X166507395Y-81125546D01*
G37*
G36*
X163967395Y-81125546D02*
G01*
X164140466Y-81197234D01*
X164140467Y-81197235D01*
X164296227Y-81301310D01*
X164428690Y-81433773D01*
X164428691Y-81433775D01*
X164532766Y-81589534D01*
X164604454Y-81762605D01*
X164641000Y-81946333D01*
X164641000Y-82133667D01*
X164604454Y-82317395D01*
X164532766Y-82490466D01*
X164532765Y-82490467D01*
X164428690Y-82646227D01*
X164296227Y-82778690D01*
X164217818Y-82831081D01*
X164140466Y-82882766D01*
X163967395Y-82954454D01*
X163783667Y-82991000D01*
X163596333Y-82991000D01*
X163412605Y-82954454D01*
X163239534Y-82882766D01*
X163162182Y-82831081D01*
X163083773Y-82778690D01*
X162951310Y-82646227D01*
X162847235Y-82490467D01*
X162847234Y-82490466D01*
X162775546Y-82317395D01*
X162739000Y-82133667D01*
X162739000Y-81946333D01*
X162775546Y-81762605D01*
X162847234Y-81589534D01*
X162951309Y-81433775D01*
X162951310Y-81433773D01*
X163083773Y-81301310D01*
X163239533Y-81197235D01*
X163239534Y-81197234D01*
X163412605Y-81125546D01*
X163596333Y-81089000D01*
X163783667Y-81089000D01*
X163967395Y-81125546D01*
X163967395Y-81125546D01*
G37*
G36*
X161427395Y-81125546D02*
G01*
X161600466Y-81197234D01*
X161600467Y-81197235D01*
X161756227Y-81301310D01*
X161888690Y-81433773D01*
X161888691Y-81433775D01*
X161992766Y-81589534D01*
X162064454Y-81762605D01*
X162101000Y-81946333D01*
X162101000Y-82133667D01*
X162064454Y-82317395D01*
X161992766Y-82490466D01*
X161992765Y-82490467D01*
X161888690Y-82646227D01*
X161756227Y-82778690D01*
X161677818Y-82831081D01*
X161600466Y-82882766D01*
X161427395Y-82954454D01*
X161243667Y-82991000D01*
X161056333Y-82991000D01*
X160872605Y-82954454D01*
X160699534Y-82882766D01*
X160622182Y-82831081D01*
X160543773Y-82778690D01*
X160411310Y-82646227D01*
X160307235Y-82490467D01*
X160307234Y-82490466D01*
X160235546Y-82317395D01*
X160199000Y-82133667D01*
X160199000Y-81946333D01*
X160235546Y-81762605D01*
X160307234Y-81589534D01*
X160411309Y-81433775D01*
X160411310Y-81433773D01*
X160543773Y-81301310D01*
X160699533Y-81197235D01*
X160699534Y-81197234D01*
X160872605Y-81125546D01*
X161056333Y-81089000D01*
X161243667Y-81089000D01*
X161427395Y-81125546D01*
X161427395Y-81125546D01*
G37*
G36*
X168451000Y-80431857D02*
G01*
X168453402Y-80456243D01*
X168460515Y-80479692D01*
X168472066Y-80501303D01*
X168487611Y-80520245D01*
X168506553Y-80535790D01*
X168528164Y-80547341D01*
X168551613Y-80554454D01*
X168575999Y-80556856D01*
X168600385Y-80554454D01*
X168623835Y-80547341D01*
X168651722Y-80535790D01*
X168666342Y-80529734D01*
X168666343Y-80529734D01*
X168666345Y-80529733D01*
X168821102Y-80498950D01*
X168978898Y-80498950D01*
X169133657Y-80529733D01*
X169279438Y-80590118D01*
X169279439Y-80590119D01*
X169410640Y-80677784D01*
X169522216Y-80789360D01*
X169522217Y-80789362D01*
X169609882Y-80920562D01*
X169670267Y-81066343D01*
X169701050Y-81221102D01*
X169701050Y-81378898D01*
X169670267Y-81533657D01*
X169609882Y-81679438D01*
X169609881Y-81679439D01*
X169522216Y-81810640D01*
X169410640Y-81922216D01*
X169374546Y-81946333D01*
X169279438Y-82009882D01*
X169133657Y-82070267D01*
X168978898Y-82101050D01*
X168821102Y-82101050D01*
X168666343Y-82070267D01*
X168520562Y-82009882D01*
X168425454Y-81946333D01*
X168389360Y-81922216D01*
X168277784Y-81810640D01*
X168190119Y-81679439D01*
X168190118Y-81679438D01*
X168129733Y-81533657D01*
X168098950Y-81378898D01*
X168098950Y-81221102D01*
X168129733Y-81066343D01*
X168190118Y-80920562D01*
X168277783Y-80789362D01*
X168277784Y-80789360D01*
X168389360Y-80677784D01*
X168389363Y-80677782D01*
X168392097Y-80675048D01*
X168405088Y-80664386D01*
X168420633Y-80645444D01*
X168432184Y-80623833D01*
X168439297Y-80600384D01*
X168441699Y-80575998D01*
X168439297Y-80551612D01*
X168432184Y-80528163D01*
X168420633Y-80506553D01*
X168405087Y-80487611D01*
X168386145Y-80472066D01*
X168364534Y-80460515D01*
X168341085Y-80453402D01*
X168316700Y-80451000D01*
X166549000Y-80451000D01*
X166549000Y-78549000D01*
X168451000Y-78549000D01*
X168451000Y-80431857D01*
X168451000Y-80431857D01*
G37*
G36*
X157051000Y-80431857D02*
G01*
X157053402Y-80456243D01*
X157060515Y-80479692D01*
X157072066Y-80501303D01*
X157087611Y-80520245D01*
X157106553Y-80535790D01*
X157128164Y-80547341D01*
X157151613Y-80554454D01*
X157175999Y-80556856D01*
X157200385Y-80554454D01*
X157223835Y-80547341D01*
X157251722Y-80535790D01*
X157266342Y-80529734D01*
X157266343Y-80529734D01*
X157266345Y-80529733D01*
X157421102Y-80498950D01*
X157578898Y-80498950D01*
X157733657Y-80529733D01*
X157879438Y-80590118D01*
X157879439Y-80590119D01*
X158010640Y-80677784D01*
X158122216Y-80789360D01*
X158122217Y-80789362D01*
X158209882Y-80920562D01*
X158270267Y-81066343D01*
X158301050Y-81221102D01*
X158301050Y-81378898D01*
X158270267Y-81533657D01*
X158209882Y-81679438D01*
X158209881Y-81679439D01*
X158122216Y-81810640D01*
X158010640Y-81922216D01*
X157974546Y-81946333D01*
X157879438Y-82009882D01*
X157733657Y-82070267D01*
X157578898Y-82101050D01*
X157421102Y-82101050D01*
X157266343Y-82070267D01*
X157120562Y-82009882D01*
X157025454Y-81946333D01*
X156989360Y-81922216D01*
X156877784Y-81810640D01*
X156790119Y-81679439D01*
X156790118Y-81679438D01*
X156729733Y-81533657D01*
X156698950Y-81378898D01*
X156698950Y-81221102D01*
X156729733Y-81066343D01*
X156790118Y-80920562D01*
X156877783Y-80789362D01*
X156877784Y-80789360D01*
X156989360Y-80677784D01*
X156989363Y-80677782D01*
X156992097Y-80675048D01*
X157005088Y-80664386D01*
X157020633Y-80645444D01*
X157032184Y-80623833D01*
X157039297Y-80600384D01*
X157041699Y-80575998D01*
X157039297Y-80551612D01*
X157032184Y-80528163D01*
X157020633Y-80506553D01*
X157005087Y-80487611D01*
X156986145Y-80472066D01*
X156964534Y-80460515D01*
X156941085Y-80453402D01*
X156916700Y-80451000D01*
X155149000Y-80451000D01*
X155149000Y-78549000D01*
X157051000Y-78549000D01*
X157051000Y-80431857D01*
X157051000Y-80431857D01*
G37*
G36*
X151297395Y-78585546D02*
G01*
X151470466Y-78657234D01*
X151470467Y-78657235D01*
X151626227Y-78761310D01*
X151758690Y-78893773D01*
X151758691Y-78893775D01*
X151862766Y-79049534D01*
X151934454Y-79222605D01*
X151971000Y-79406333D01*
X151971000Y-79593667D01*
X151934454Y-79777395D01*
X151862766Y-79950466D01*
X151862765Y-79950467D01*
X151758690Y-80106227D01*
X151626227Y-80238690D01*
X151547818Y-80291081D01*
X151470466Y-80342766D01*
X151297395Y-80414454D01*
X151113667Y-80451000D01*
X150926333Y-80451000D01*
X150742605Y-80414454D01*
X150569534Y-80342766D01*
X150492182Y-80291081D01*
X150413773Y-80238690D01*
X150281310Y-80106227D01*
X150177235Y-79950467D01*
X150177234Y-79950466D01*
X150105546Y-79777395D01*
X150069000Y-79593667D01*
X150069000Y-79406333D01*
X150105546Y-79222605D01*
X150177234Y-79049534D01*
X150281309Y-78893775D01*
X150281310Y-78893773D01*
X150413773Y-78761310D01*
X150569533Y-78657235D01*
X150569534Y-78657234D01*
X150742605Y-78585546D01*
X150926333Y-78549000D01*
X151113667Y-78549000D01*
X151297395Y-78585546D01*
X151297395Y-78585546D01*
G37*
G36*
X153837395Y-78585546D02*
G01*
X154010466Y-78657234D01*
X154010467Y-78657235D01*
X154166227Y-78761310D01*
X154298690Y-78893773D01*
X154298691Y-78893775D01*
X154402766Y-79049534D01*
X154474454Y-79222605D01*
X154511000Y-79406333D01*
X154511000Y-79593667D01*
X154474454Y-79777395D01*
X154402766Y-79950466D01*
X154402765Y-79950467D01*
X154298690Y-80106227D01*
X154166227Y-80238690D01*
X154087818Y-80291081D01*
X154010466Y-80342766D01*
X153837395Y-80414454D01*
X153653667Y-80451000D01*
X153466333Y-80451000D01*
X153282605Y-80414454D01*
X153109534Y-80342766D01*
X153032182Y-80291081D01*
X152953773Y-80238690D01*
X152821310Y-80106227D01*
X152717235Y-79950467D01*
X152717234Y-79950466D01*
X152645546Y-79777395D01*
X152609000Y-79593667D01*
X152609000Y-79406333D01*
X152645546Y-79222605D01*
X152717234Y-79049534D01*
X152821309Y-78893775D01*
X152821310Y-78893773D01*
X152953773Y-78761310D01*
X153109533Y-78657235D01*
X153109534Y-78657234D01*
X153282605Y-78585546D01*
X153466333Y-78549000D01*
X153653667Y-78549000D01*
X153837395Y-78585546D01*
X153837395Y-78585546D01*
G37*
G36*
X162697395Y-78585546D02*
G01*
X162870466Y-78657234D01*
X162870467Y-78657235D01*
X163026227Y-78761310D01*
X163158690Y-78893773D01*
X163158691Y-78893775D01*
X163262766Y-79049534D01*
X163334454Y-79222605D01*
X163371000Y-79406333D01*
X163371000Y-79593667D01*
X163334454Y-79777395D01*
X163262766Y-79950466D01*
X163262765Y-79950467D01*
X163158690Y-80106227D01*
X163026227Y-80238690D01*
X162947818Y-80291081D01*
X162870466Y-80342766D01*
X162697395Y-80414454D01*
X162513667Y-80451000D01*
X162326333Y-80451000D01*
X162142605Y-80414454D01*
X161969534Y-80342766D01*
X161892182Y-80291081D01*
X161813773Y-80238690D01*
X161681310Y-80106227D01*
X161577235Y-79950467D01*
X161577234Y-79950466D01*
X161505546Y-79777395D01*
X161469000Y-79593667D01*
X161469000Y-79406333D01*
X161505546Y-79222605D01*
X161577234Y-79049534D01*
X161681309Y-78893775D01*
X161681310Y-78893773D01*
X161813773Y-78761310D01*
X161969533Y-78657235D01*
X161969534Y-78657234D01*
X162142605Y-78585546D01*
X162326333Y-78549000D01*
X162513667Y-78549000D01*
X162697395Y-78585546D01*
X162697395Y-78585546D01*
G37*
G36*
X165237395Y-78585546D02*
G01*
X165410466Y-78657234D01*
X165410467Y-78657235D01*
X165566227Y-78761310D01*
X165698690Y-78893773D01*
X165698691Y-78893775D01*
X165802766Y-79049534D01*
X165874454Y-79222605D01*
X165911000Y-79406333D01*
X165911000Y-79593667D01*
X165874454Y-79777395D01*
X165802766Y-79950466D01*
X165802765Y-79950467D01*
X165698690Y-80106227D01*
X165566227Y-80238690D01*
X165487818Y-80291081D01*
X165410466Y-80342766D01*
X165237395Y-80414454D01*
X165053667Y-80451000D01*
X164866333Y-80451000D01*
X164682605Y-80414454D01*
X164509534Y-80342766D01*
X164432182Y-80291081D01*
X164353773Y-80238690D01*
X164221310Y-80106227D01*
X164117235Y-79950467D01*
X164117234Y-79950466D01*
X164045546Y-79777395D01*
X164009000Y-79593667D01*
X164009000Y-79406333D01*
X164045546Y-79222605D01*
X164117234Y-79049534D01*
X164221309Y-78893775D01*
X164221310Y-78893773D01*
X164353773Y-78761310D01*
X164509533Y-78657235D01*
X164509534Y-78657234D01*
X164682605Y-78585546D01*
X164866333Y-78549000D01*
X165053667Y-78549000D01*
X165237395Y-78585546D01*
X165237395Y-78585546D01*
G37*
G36*
X136917395Y-73435546D02*
G01*
X137090466Y-73507234D01*
X137167818Y-73558919D01*
X137246227Y-73611310D01*
X137378690Y-73743773D01*
X137378691Y-73743775D01*
X137482766Y-73899534D01*
X137554454Y-74072605D01*
X137591000Y-74256333D01*
X137591000Y-74443667D01*
X137554454Y-74627395D01*
X137482766Y-74800466D01*
X137482765Y-74800467D01*
X137378690Y-74956227D01*
X137246227Y-75088690D01*
X137167818Y-75141081D01*
X137090466Y-75192766D01*
X136917395Y-75264454D01*
X136733667Y-75301000D01*
X136546333Y-75301000D01*
X136362605Y-75264454D01*
X136189534Y-75192766D01*
X136112182Y-75141081D01*
X136033773Y-75088690D01*
X135901310Y-74956227D01*
X135797235Y-74800467D01*
X135797234Y-74800466D01*
X135725546Y-74627395D01*
X135689000Y-74443667D01*
X135689000Y-74256333D01*
X135725546Y-74072605D01*
X135797234Y-73899534D01*
X135901309Y-73743775D01*
X135901310Y-73743773D01*
X136033773Y-73611310D01*
X136112182Y-73558919D01*
X136189534Y-73507234D01*
X136362605Y-73435546D01*
X136546333Y-73399000D01*
X136733667Y-73399000D01*
X136917395Y-73435546D01*
X136917395Y-73435546D01*
G37*
G36*
X134377395Y-72165546D02*
G01*
X134550466Y-72237234D01*
X134627818Y-72288919D01*
X134706227Y-72341310D01*
X134838690Y-72473773D01*
X134838691Y-72473775D01*
X134942766Y-72629534D01*
X135014454Y-72802605D01*
X135051000Y-72986333D01*
X135051000Y-73173667D01*
X135014454Y-73357395D01*
X134942766Y-73530466D01*
X134942765Y-73530467D01*
X134838690Y-73686227D01*
X134706227Y-73818690D01*
X134627818Y-73871081D01*
X134550466Y-73922766D01*
X134377395Y-73994454D01*
X134193667Y-74031000D01*
X134006333Y-74031000D01*
X133822605Y-73994454D01*
X133649534Y-73922766D01*
X133572182Y-73871081D01*
X133493773Y-73818690D01*
X133361310Y-73686227D01*
X133257235Y-73530467D01*
X133257234Y-73530466D01*
X133185546Y-73357395D01*
X133149000Y-73173667D01*
X133149000Y-72986333D01*
X133185546Y-72802605D01*
X133257234Y-72629534D01*
X133361309Y-72473775D01*
X133361310Y-72473773D01*
X133493773Y-72341310D01*
X133572182Y-72288919D01*
X133649534Y-72237234D01*
X133822605Y-72165546D01*
X134006333Y-72129000D01*
X134193667Y-72129000D01*
X134377395Y-72165546D01*
X134377395Y-72165546D01*
G37*
G36*
X178551000Y-73051000D02*
G01*
X176449000Y-73051000D01*
X176449000Y-69449000D01*
X178551000Y-69449000D01*
X178551000Y-73051000D01*
X178551000Y-73051000D01*
G37*
G36*
X182551000Y-73051000D02*
G01*
X180449000Y-73051000D01*
X180449000Y-69449000D01*
X182551000Y-69449000D01*
X182551000Y-73051000D01*
X182551000Y-73051000D01*
G37*
G36*
X174551000Y-73051000D02*
G01*
X172449000Y-73051000D01*
X172449000Y-69449000D01*
X174551000Y-69449000D01*
X174551000Y-73051000D01*
X174551000Y-73051000D01*
G37*
G36*
X136917395Y-70895546D02*
G01*
X137090466Y-70967234D01*
X137167818Y-71018919D01*
X137246227Y-71071310D01*
X137378690Y-71203773D01*
X137378691Y-71203775D01*
X137482766Y-71359534D01*
X137554454Y-71532605D01*
X137591000Y-71716333D01*
X137591000Y-71903667D01*
X137554454Y-72087395D01*
X137482766Y-72260466D01*
X137482765Y-72260467D01*
X137378690Y-72416227D01*
X137246227Y-72548690D01*
X137167818Y-72601081D01*
X137090466Y-72652766D01*
X136917395Y-72724454D01*
X136733667Y-72761000D01*
X136546333Y-72761000D01*
X136362605Y-72724454D01*
X136189534Y-72652766D01*
X136112182Y-72601081D01*
X136033773Y-72548690D01*
X135901310Y-72416227D01*
X135797235Y-72260467D01*
X135797234Y-72260466D01*
X135725546Y-72087395D01*
X135689000Y-71903667D01*
X135689000Y-71716333D01*
X135725546Y-71532605D01*
X135797234Y-71359534D01*
X135901309Y-71203775D01*
X135901310Y-71203773D01*
X136033773Y-71071310D01*
X136112182Y-71018919D01*
X136189534Y-70967234D01*
X136362605Y-70895546D01*
X136546333Y-70859000D01*
X136733667Y-70859000D01*
X136917395Y-70895546D01*
X136917395Y-70895546D01*
G37*
G36*
X134377395Y-69625546D02*
G01*
X134550466Y-69697234D01*
X134627818Y-69748919D01*
X134706227Y-69801310D01*
X134838690Y-69933773D01*
X134838691Y-69933775D01*
X134942766Y-70089534D01*
X135014454Y-70262605D01*
X135051000Y-70446333D01*
X135051000Y-70633667D01*
X135014454Y-70817395D01*
X134942766Y-70990466D01*
X134942765Y-70990467D01*
X134838690Y-71146227D01*
X134706227Y-71278690D01*
X134627818Y-71331081D01*
X134550466Y-71382766D01*
X134377395Y-71454454D01*
X134193667Y-71491000D01*
X134006333Y-71491000D01*
X133822605Y-71454454D01*
X133649534Y-71382766D01*
X133572182Y-71331081D01*
X133493773Y-71278690D01*
X133361310Y-71146227D01*
X133257235Y-70990467D01*
X133257234Y-70990466D01*
X133185546Y-70817395D01*
X133149000Y-70633667D01*
X133149000Y-70446333D01*
X133185546Y-70262605D01*
X133257234Y-70089534D01*
X133361309Y-69933775D01*
X133361310Y-69933773D01*
X133493773Y-69801310D01*
X133572182Y-69748919D01*
X133649534Y-69697234D01*
X133822605Y-69625546D01*
X134006333Y-69589000D01*
X134193667Y-69589000D01*
X134377395Y-69625546D01*
X134377395Y-69625546D01*
G37*
G36*
X136917395Y-68355546D02*
G01*
X137090466Y-68427234D01*
X137090467Y-68427235D01*
X137246227Y-68531310D01*
X137378690Y-68663773D01*
X137378691Y-68663775D01*
X137482766Y-68819534D01*
X137554454Y-68992605D01*
X137591000Y-69176333D01*
X137591000Y-69363667D01*
X137554454Y-69547395D01*
X137482766Y-69720466D01*
X137482765Y-69720467D01*
X137378690Y-69876227D01*
X137246227Y-70008690D01*
X137167818Y-70061081D01*
X137090466Y-70112766D01*
X136917395Y-70184454D01*
X136733667Y-70221000D01*
X136546333Y-70221000D01*
X136362605Y-70184454D01*
X136189534Y-70112766D01*
X136112182Y-70061081D01*
X136033773Y-70008690D01*
X135901310Y-69876227D01*
X135797235Y-69720467D01*
X135797234Y-69720466D01*
X135725546Y-69547395D01*
X135689000Y-69363667D01*
X135689000Y-69176333D01*
X135725546Y-68992605D01*
X135797234Y-68819534D01*
X135901309Y-68663775D01*
X135901310Y-68663773D01*
X136033773Y-68531310D01*
X136189533Y-68427235D01*
X136189534Y-68427234D01*
X136362605Y-68355546D01*
X136546333Y-68319000D01*
X136733667Y-68319000D01*
X136917395Y-68355546D01*
X136917395Y-68355546D01*
G37*
G36*
X136133657Y-65829733D02*
G01*
X136279438Y-65890118D01*
X136279439Y-65890119D01*
X136410640Y-65977784D01*
X136522216Y-66089360D01*
X136522217Y-66089362D01*
X136609882Y-66220562D01*
X136670267Y-66366343D01*
X136701050Y-66521102D01*
X136701050Y-66678898D01*
X136670267Y-66833657D01*
X136609882Y-66979438D01*
X136609881Y-66979439D01*
X136522216Y-67110640D01*
X136410640Y-67222216D01*
X136344594Y-67266346D01*
X136279438Y-67309882D01*
X136133657Y-67370267D01*
X135978898Y-67401050D01*
X135821102Y-67401050D01*
X135666343Y-67370267D01*
X135520562Y-67309882D01*
X135455406Y-67266346D01*
X135389360Y-67222216D01*
X135277784Y-67110640D01*
X135277782Y-67110637D01*
X135275048Y-67107903D01*
X135264386Y-67094912D01*
X135245444Y-67079367D01*
X135223833Y-67067816D01*
X135200384Y-67060703D01*
X135175998Y-67058301D01*
X135151612Y-67060703D01*
X135128163Y-67067816D01*
X135106553Y-67079367D01*
X135087611Y-67094913D01*
X135072066Y-67113855D01*
X135060515Y-67135466D01*
X135053402Y-67158915D01*
X135051000Y-67183300D01*
X135051000Y-68951000D01*
X133149000Y-68951000D01*
X133149000Y-67049000D01*
X135031857Y-67049000D01*
X135056243Y-67046598D01*
X135079692Y-67039485D01*
X135101303Y-67027934D01*
X135120245Y-67012389D01*
X135135790Y-66993447D01*
X135147341Y-66971836D01*
X135154454Y-66948387D01*
X135156856Y-66924001D01*
X135154454Y-66899615D01*
X135147341Y-66876165D01*
X135129733Y-66833655D01*
X135098950Y-66678898D01*
X135098950Y-66521102D01*
X135129733Y-66366343D01*
X135190118Y-66220562D01*
X135277783Y-66089362D01*
X135277784Y-66089360D01*
X135389360Y-65977784D01*
X135520561Y-65890119D01*
X135520562Y-65890118D01*
X135666343Y-65829733D01*
X135821102Y-65798950D01*
X135978898Y-65798950D01*
X136133657Y-65829733D01*
X136133657Y-65829733D01*
G37*
G36*
X136917395Y-62235546D02*
G01*
X137090466Y-62307234D01*
X137167818Y-62358919D01*
X137246227Y-62411310D01*
X137378690Y-62543773D01*
X137378691Y-62543775D01*
X137482766Y-62699534D01*
X137554454Y-62872605D01*
X137591000Y-63056333D01*
X137591000Y-63243667D01*
X137554454Y-63427395D01*
X137482766Y-63600466D01*
X137482765Y-63600467D01*
X137378690Y-63756227D01*
X137246227Y-63888690D01*
X137167818Y-63941081D01*
X137090466Y-63992766D01*
X136917395Y-64064454D01*
X136733667Y-64101000D01*
X136546333Y-64101000D01*
X136362605Y-64064454D01*
X136189534Y-63992766D01*
X136112182Y-63941081D01*
X136033773Y-63888690D01*
X135901310Y-63756227D01*
X135797235Y-63600467D01*
X135797234Y-63600466D01*
X135725546Y-63427395D01*
X135689000Y-63243667D01*
X135689000Y-63056333D01*
X135725546Y-62872605D01*
X135797234Y-62699534D01*
X135901309Y-62543775D01*
X135901310Y-62543773D01*
X136033773Y-62411310D01*
X136112182Y-62358919D01*
X136189534Y-62307234D01*
X136362605Y-62235546D01*
X136546333Y-62199000D01*
X136733667Y-62199000D01*
X136917395Y-62235546D01*
X136917395Y-62235546D01*
G37*
G36*
X134377395Y-60965546D02*
G01*
X134550466Y-61037234D01*
X134627818Y-61088919D01*
X134706227Y-61141310D01*
X134838690Y-61273773D01*
X134838691Y-61273775D01*
X134942766Y-61429534D01*
X135014454Y-61602605D01*
X135051000Y-61786333D01*
X135051000Y-61973667D01*
X135014454Y-62157395D01*
X134942766Y-62330466D01*
X134942765Y-62330467D01*
X134838690Y-62486227D01*
X134706227Y-62618690D01*
X134627818Y-62671081D01*
X134550466Y-62722766D01*
X134377395Y-62794454D01*
X134193667Y-62831000D01*
X134006333Y-62831000D01*
X133822605Y-62794454D01*
X133649534Y-62722766D01*
X133572182Y-62671081D01*
X133493773Y-62618690D01*
X133361310Y-62486227D01*
X133257235Y-62330467D01*
X133257234Y-62330466D01*
X133185546Y-62157395D01*
X133149000Y-61973667D01*
X133149000Y-61786333D01*
X133185546Y-61602605D01*
X133257234Y-61429534D01*
X133361309Y-61273775D01*
X133361310Y-61273773D01*
X133493773Y-61141310D01*
X133572182Y-61088919D01*
X133649534Y-61037234D01*
X133822605Y-60965546D01*
X134006333Y-60929000D01*
X134193667Y-60929000D01*
X134377395Y-60965546D01*
X134377395Y-60965546D01*
G37*
G36*
X136917395Y-59695546D02*
G01*
X137090466Y-59767234D01*
X137167818Y-59818919D01*
X137246227Y-59871310D01*
X137378690Y-60003773D01*
X137378691Y-60003775D01*
X137482766Y-60159534D01*
X137554454Y-60332605D01*
X137591000Y-60516333D01*
X137591000Y-60703667D01*
X137554454Y-60887395D01*
X137482766Y-61060466D01*
X137482765Y-61060467D01*
X137378690Y-61216227D01*
X137246227Y-61348690D01*
X137167818Y-61401081D01*
X137090466Y-61452766D01*
X136917395Y-61524454D01*
X136733667Y-61561000D01*
X136546333Y-61561000D01*
X136362605Y-61524454D01*
X136189534Y-61452766D01*
X136112182Y-61401081D01*
X136033773Y-61348690D01*
X135901310Y-61216227D01*
X135797235Y-61060467D01*
X135797234Y-61060466D01*
X135725546Y-60887395D01*
X135689000Y-60703667D01*
X135689000Y-60516333D01*
X135725546Y-60332605D01*
X135797234Y-60159534D01*
X135901309Y-60003775D01*
X135901310Y-60003773D01*
X136033773Y-59871310D01*
X136112182Y-59818919D01*
X136189534Y-59767234D01*
X136362605Y-59695546D01*
X136546333Y-59659000D01*
X136733667Y-59659000D01*
X136917395Y-59695546D01*
X136917395Y-59695546D01*
G37*
G36*
X134377395Y-58425546D02*
G01*
X134550466Y-58497234D01*
X134627818Y-58548919D01*
X134706227Y-58601310D01*
X134838690Y-58733773D01*
X134838691Y-58733775D01*
X134942766Y-58889534D01*
X135014454Y-59062605D01*
X135051000Y-59246333D01*
X135051000Y-59433667D01*
X135014454Y-59617395D01*
X134942766Y-59790466D01*
X134942765Y-59790467D01*
X134838690Y-59946227D01*
X134706227Y-60078690D01*
X134627818Y-60131081D01*
X134550466Y-60182766D01*
X134377395Y-60254454D01*
X134193667Y-60291000D01*
X134006333Y-60291000D01*
X133822605Y-60254454D01*
X133649534Y-60182766D01*
X133572182Y-60131081D01*
X133493773Y-60078690D01*
X133361310Y-59946227D01*
X133257235Y-59790467D01*
X133257234Y-59790466D01*
X133185546Y-59617395D01*
X133149000Y-59433667D01*
X133149000Y-59246333D01*
X133185546Y-59062605D01*
X133257234Y-58889534D01*
X133361309Y-58733775D01*
X133361310Y-58733773D01*
X133493773Y-58601310D01*
X133572182Y-58548919D01*
X133649534Y-58497234D01*
X133822605Y-58425546D01*
X134006333Y-58389000D01*
X134193667Y-58389000D01*
X134377395Y-58425546D01*
X134377395Y-58425546D01*
G37*
G36*
X136917395Y-57155546D02*
G01*
X137090466Y-57227234D01*
X137090467Y-57227235D01*
X137246227Y-57331310D01*
X137378690Y-57463773D01*
X137378691Y-57463775D01*
X137482766Y-57619534D01*
X137554454Y-57792605D01*
X137591000Y-57976333D01*
X137591000Y-58163667D01*
X137554454Y-58347395D01*
X137482766Y-58520466D01*
X137482765Y-58520467D01*
X137378690Y-58676227D01*
X137246227Y-58808690D01*
X137167818Y-58861081D01*
X137090466Y-58912766D01*
X136917395Y-58984454D01*
X136733667Y-59021000D01*
X136546333Y-59021000D01*
X136362605Y-58984454D01*
X136189534Y-58912766D01*
X136112182Y-58861081D01*
X136033773Y-58808690D01*
X135901310Y-58676227D01*
X135797235Y-58520467D01*
X135797234Y-58520466D01*
X135725546Y-58347395D01*
X135689000Y-58163667D01*
X135689000Y-57976333D01*
X135725546Y-57792605D01*
X135797234Y-57619534D01*
X135901309Y-57463775D01*
X135901310Y-57463773D01*
X136033773Y-57331310D01*
X136189533Y-57227235D01*
X136189534Y-57227234D01*
X136362605Y-57155546D01*
X136546333Y-57119000D01*
X136733667Y-57119000D01*
X136917395Y-57155546D01*
X136917395Y-57155546D01*
G37*
G36*
X136133657Y-54629733D02*
G01*
X136279438Y-54690118D01*
X136279439Y-54690119D01*
X136410640Y-54777784D01*
X136522216Y-54889360D01*
X136522217Y-54889362D01*
X136609882Y-55020562D01*
X136670267Y-55166343D01*
X136701050Y-55321102D01*
X136701050Y-55478898D01*
X136670267Y-55633657D01*
X136609882Y-55779438D01*
X136609881Y-55779439D01*
X136522216Y-55910640D01*
X136410640Y-56022216D01*
X136344594Y-56066346D01*
X136279438Y-56109882D01*
X136133657Y-56170267D01*
X135978898Y-56201050D01*
X135821102Y-56201050D01*
X135666343Y-56170267D01*
X135520562Y-56109882D01*
X135455406Y-56066346D01*
X135389360Y-56022216D01*
X135277784Y-55910640D01*
X135277782Y-55910637D01*
X135275048Y-55907903D01*
X135264386Y-55894912D01*
X135245444Y-55879367D01*
X135223833Y-55867816D01*
X135200384Y-55860703D01*
X135175998Y-55858301D01*
X135151612Y-55860703D01*
X135128163Y-55867816D01*
X135106553Y-55879367D01*
X135087611Y-55894913D01*
X135072066Y-55913855D01*
X135060515Y-55935466D01*
X135053402Y-55958915D01*
X135051000Y-55983300D01*
X135051000Y-57751000D01*
X133149000Y-57751000D01*
X133149000Y-55849000D01*
X135031857Y-55849000D01*
X135056243Y-55846598D01*
X135079692Y-55839485D01*
X135101303Y-55827934D01*
X135120245Y-55812389D01*
X135135790Y-55793447D01*
X135147341Y-55771836D01*
X135154454Y-55748387D01*
X135156856Y-55724001D01*
X135154454Y-55699615D01*
X135147341Y-55676165D01*
X135129733Y-55633655D01*
X135098950Y-55478898D01*
X135098950Y-55321102D01*
X135129733Y-55166343D01*
X135190118Y-55020562D01*
X135277783Y-54889362D01*
X135277784Y-54889360D01*
X135389360Y-54777784D01*
X135520561Y-54690119D01*
X135520562Y-54690118D01*
X135666343Y-54629733D01*
X135821102Y-54598950D01*
X135978898Y-54598950D01*
X136133657Y-54629733D01*
X136133657Y-54629733D01*
G37*
M02*
