G04 #@! TF.GenerationSoftware,KiCad,Pcbnew,5.1.5-52549c5~84~ubuntu18.04.1*
G04 #@! TF.CreationDate,2020-04-16T13:53:27+02:00*
G04 #@! TF.ProjectId,board,626f6172-642e-46b6-9963-61645f706362,rev?*
G04 #@! TF.SameCoordinates,Original*
G04 #@! TF.FileFunction,Legend,Bot*
G04 #@! TF.FilePolarity,Positive*
%FSLAX46Y46*%
G04 Gerber Fmt 4.6, Leading zero omitted, Abs format (unit mm)*
G04 Created by KiCad (PCBNEW 5.1.5-52549c5~84~ubuntu18.04.1) date 2020-04-16 13:53:27*
%MOMM*%
%LPD*%
G04 APERTURE LIST*
%ADD10C,0.150000*%
%ADD11C,0.120000*%
G04 APERTURE END LIST*
D10*
X98383961Y-108116138D02*
X98431580Y-108258995D01*
X98431580Y-108497090D01*
X98383961Y-108592328D01*
X98336342Y-108639947D01*
X98241104Y-108687566D01*
X98145866Y-108687566D01*
X98050628Y-108639947D01*
X98003009Y-108592328D01*
X97955390Y-108497090D01*
X97907771Y-108306614D01*
X97860152Y-108211376D01*
X97812533Y-108163757D01*
X97717295Y-108116138D01*
X97622057Y-108116138D01*
X97526819Y-108163757D01*
X97479200Y-108211376D01*
X97431580Y-108306614D01*
X97431580Y-108544709D01*
X97479200Y-108687566D01*
X98431580Y-109116138D02*
X97431580Y-109116138D01*
X97907771Y-109116138D02*
X97907771Y-109687566D01*
X98431580Y-109687566D02*
X97431580Y-109687566D01*
X98431580Y-110163757D02*
X97431580Y-110163757D01*
X97907771Y-110639947D02*
X97907771Y-110973280D01*
X98431580Y-111116138D02*
X98431580Y-110639947D01*
X97431580Y-110639947D01*
X97431580Y-111116138D01*
X98431580Y-112020900D02*
X98431580Y-111544709D01*
X97431580Y-111544709D01*
X98431580Y-112354233D02*
X97431580Y-112354233D01*
X97431580Y-112592328D01*
X97479200Y-112735185D01*
X97574438Y-112830423D01*
X97669676Y-112878042D01*
X97860152Y-112925661D01*
X98003009Y-112925661D01*
X98193485Y-112878042D01*
X98288723Y-112830423D01*
X98383961Y-112735185D01*
X98431580Y-112592328D01*
X98431580Y-112354233D01*
X154738347Y-137643280D02*
X154738347Y-136643280D01*
X154357395Y-136643280D01*
X154262157Y-136690900D01*
X154214538Y-136738519D01*
X154166919Y-136833757D01*
X154166919Y-136976614D01*
X154214538Y-137071852D01*
X154262157Y-137119471D01*
X154357395Y-137167090D01*
X154738347Y-137167090D01*
X153738347Y-137643280D02*
X153738347Y-136643280D01*
X153738347Y-137119471D02*
X153166919Y-137119471D01*
X153166919Y-137643280D02*
X153166919Y-136643280D01*
X152738347Y-137357566D02*
X152262157Y-137357566D01*
X152833585Y-137643280D02*
X152500252Y-136643280D01*
X152166919Y-137643280D01*
X151881204Y-137595661D02*
X151738347Y-137643280D01*
X151500252Y-137643280D01*
X151405014Y-137595661D01*
X151357395Y-137548042D01*
X151309776Y-137452804D01*
X151309776Y-137357566D01*
X151357395Y-137262328D01*
X151405014Y-137214709D01*
X151500252Y-137167090D01*
X151690728Y-137119471D01*
X151785966Y-137071852D01*
X151833585Y-137024233D01*
X151881204Y-136928995D01*
X151881204Y-136833757D01*
X151833585Y-136738519D01*
X151785966Y-136690900D01*
X151690728Y-136643280D01*
X151452633Y-136643280D01*
X151309776Y-136690900D01*
X150881204Y-137119471D02*
X150547871Y-137119471D01*
X150405014Y-137643280D02*
X150881204Y-137643280D01*
X150881204Y-136643280D01*
X150405014Y-136643280D01*
X150071680Y-136643280D02*
X149452633Y-136643280D01*
X149785966Y-137024233D01*
X149643109Y-137024233D01*
X149547871Y-137071852D01*
X149500252Y-137119471D01*
X149452633Y-137214709D01*
X149452633Y-137452804D01*
X149500252Y-137548042D01*
X149547871Y-137595661D01*
X149643109Y-137643280D01*
X149928823Y-137643280D01*
X150024061Y-137595661D01*
X150071680Y-137548042D01*
X154763747Y-135065180D02*
X154763747Y-134065180D01*
X154382795Y-134065180D01*
X154287557Y-134112800D01*
X154239938Y-134160419D01*
X154192319Y-134255657D01*
X154192319Y-134398514D01*
X154239938Y-134493752D01*
X154287557Y-134541371D01*
X154382795Y-134588990D01*
X154763747Y-134588990D01*
X153763747Y-135065180D02*
X153763747Y-134065180D01*
X153763747Y-134541371D02*
X153192319Y-134541371D01*
X153192319Y-135065180D02*
X153192319Y-134065180D01*
X152763747Y-134779466D02*
X152287557Y-134779466D01*
X152858985Y-135065180D02*
X152525652Y-134065180D01*
X152192319Y-135065180D01*
X151906604Y-135017561D02*
X151763747Y-135065180D01*
X151525652Y-135065180D01*
X151430414Y-135017561D01*
X151382795Y-134969942D01*
X151335176Y-134874704D01*
X151335176Y-134779466D01*
X151382795Y-134684228D01*
X151430414Y-134636609D01*
X151525652Y-134588990D01*
X151716128Y-134541371D01*
X151811366Y-134493752D01*
X151858985Y-134446133D01*
X151906604Y-134350895D01*
X151906604Y-134255657D01*
X151858985Y-134160419D01*
X151811366Y-134112800D01*
X151716128Y-134065180D01*
X151478033Y-134065180D01*
X151335176Y-134112800D01*
X150906604Y-134541371D02*
X150573271Y-134541371D01*
X150430414Y-135065180D02*
X150906604Y-135065180D01*
X150906604Y-134065180D01*
X150430414Y-134065180D01*
X150049461Y-134160419D02*
X150001842Y-134112800D01*
X149906604Y-134065180D01*
X149668509Y-134065180D01*
X149573271Y-134112800D01*
X149525652Y-134160419D01*
X149478033Y-134255657D01*
X149478033Y-134350895D01*
X149525652Y-134493752D01*
X150097080Y-135065180D01*
X149478033Y-135065180D01*
X154751047Y-132550580D02*
X154751047Y-131550580D01*
X154370095Y-131550580D01*
X154274857Y-131598200D01*
X154227238Y-131645819D01*
X154179619Y-131741057D01*
X154179619Y-131883914D01*
X154227238Y-131979152D01*
X154274857Y-132026771D01*
X154370095Y-132074390D01*
X154751047Y-132074390D01*
X153751047Y-132550580D02*
X153751047Y-131550580D01*
X153751047Y-132026771D02*
X153179619Y-132026771D01*
X153179619Y-132550580D02*
X153179619Y-131550580D01*
X152751047Y-132264866D02*
X152274857Y-132264866D01*
X152846285Y-132550580D02*
X152512952Y-131550580D01*
X152179619Y-132550580D01*
X151893904Y-132502961D02*
X151751047Y-132550580D01*
X151512952Y-132550580D01*
X151417714Y-132502961D01*
X151370095Y-132455342D01*
X151322476Y-132360104D01*
X151322476Y-132264866D01*
X151370095Y-132169628D01*
X151417714Y-132122009D01*
X151512952Y-132074390D01*
X151703428Y-132026771D01*
X151798666Y-131979152D01*
X151846285Y-131931533D01*
X151893904Y-131836295D01*
X151893904Y-131741057D01*
X151846285Y-131645819D01*
X151798666Y-131598200D01*
X151703428Y-131550580D01*
X151465333Y-131550580D01*
X151322476Y-131598200D01*
X150893904Y-132026771D02*
X150560571Y-132026771D01*
X150417714Y-132550580D02*
X150893904Y-132550580D01*
X150893904Y-131550580D01*
X150417714Y-131550580D01*
X149465333Y-132550580D02*
X150036761Y-132550580D01*
X149751047Y-132550580D02*
X149751047Y-131550580D01*
X149846285Y-131693438D01*
X149941523Y-131788676D01*
X150036761Y-131836295D01*
X154738490Y-129023280D02*
X154119442Y-129023280D01*
X154452776Y-129404233D01*
X154309919Y-129404233D01*
X154214680Y-129451852D01*
X154167061Y-129499471D01*
X154119442Y-129594709D01*
X154119442Y-129832804D01*
X154167061Y-129928042D01*
X154214680Y-129975661D01*
X154309919Y-130023280D01*
X154595633Y-130023280D01*
X154690871Y-129975661D01*
X154738490Y-129928042D01*
X153690871Y-129928042D02*
X153643252Y-129975661D01*
X153690871Y-130023280D01*
X153738490Y-129975661D01*
X153690871Y-129928042D01*
X153690871Y-130023280D01*
X153309919Y-129023280D02*
X152690871Y-129023280D01*
X153024204Y-129404233D01*
X152881347Y-129404233D01*
X152786109Y-129451852D01*
X152738490Y-129499471D01*
X152690871Y-129594709D01*
X152690871Y-129832804D01*
X152738490Y-129928042D01*
X152786109Y-129975661D01*
X152881347Y-130023280D01*
X153167061Y-130023280D01*
X153262300Y-129975661D01*
X153309919Y-129928042D01*
X152405157Y-129023280D02*
X152071823Y-130023280D01*
X151738490Y-129023280D01*
X154189304Y-126569000D02*
X154284542Y-126521380D01*
X154427400Y-126521380D01*
X154570257Y-126569000D01*
X154665495Y-126664238D01*
X154713114Y-126759476D01*
X154760733Y-126949952D01*
X154760733Y-127092809D01*
X154713114Y-127283285D01*
X154665495Y-127378523D01*
X154570257Y-127473761D01*
X154427400Y-127521380D01*
X154332161Y-127521380D01*
X154189304Y-127473761D01*
X154141685Y-127426142D01*
X154141685Y-127092809D01*
X154332161Y-127092809D01*
X153713114Y-127521380D02*
X153713114Y-126521380D01*
X153141685Y-127521380D01*
X153141685Y-126521380D01*
X152665495Y-127521380D02*
X152665495Y-126521380D01*
X152427400Y-126521380D01*
X152284542Y-126569000D01*
X152189304Y-126664238D01*
X152141685Y-126759476D01*
X152094066Y-126949952D01*
X152094066Y-127092809D01*
X152141685Y-127283285D01*
X152189304Y-127378523D01*
X152284542Y-127473761D01*
X152427400Y-127521380D01*
X152665495Y-127521380D01*
X154728900Y-124955980D02*
X154728900Y-123955980D01*
X154728900Y-124432171D02*
X154157471Y-124432171D01*
X154157471Y-124955980D02*
X154157471Y-123955980D01*
X153728900Y-124670266D02*
X153252709Y-124670266D01*
X153824138Y-124955980D02*
X153490804Y-123955980D01*
X153157471Y-124955980D01*
X152347947Y-124955980D02*
X152824138Y-124955980D01*
X152824138Y-123955980D01*
X151538423Y-124955980D02*
X152014614Y-124955980D01*
X152014614Y-123955980D01*
X151300328Y-123955980D02*
X150681280Y-123955980D01*
X151014614Y-124336933D01*
X150871757Y-124336933D01*
X150776519Y-124384552D01*
X150728900Y-124432171D01*
X150681280Y-124527409D01*
X150681280Y-124765504D01*
X150728900Y-124860742D01*
X150776519Y-124908361D01*
X150871757Y-124955980D01*
X151157471Y-124955980D01*
X151252709Y-124908361D01*
X151300328Y-124860742D01*
X154728900Y-122428680D02*
X154728900Y-121428680D01*
X154728900Y-121904871D02*
X154157471Y-121904871D01*
X154157471Y-122428680D02*
X154157471Y-121428680D01*
X153728900Y-122142966D02*
X153252709Y-122142966D01*
X153824138Y-122428680D02*
X153490804Y-121428680D01*
X153157471Y-122428680D01*
X152347947Y-122428680D02*
X152824138Y-122428680D01*
X152824138Y-121428680D01*
X151538423Y-122428680D02*
X152014614Y-122428680D01*
X152014614Y-121428680D01*
X151252709Y-121523919D02*
X151205090Y-121476300D01*
X151109852Y-121428680D01*
X150871757Y-121428680D01*
X150776519Y-121476300D01*
X150728900Y-121523919D01*
X150681280Y-121619157D01*
X150681280Y-121714395D01*
X150728900Y-121857252D01*
X151300328Y-122428680D01*
X150681280Y-122428680D01*
X154716200Y-119850580D02*
X154716200Y-118850580D01*
X154716200Y-119326771D02*
X154144771Y-119326771D01*
X154144771Y-119850580D02*
X154144771Y-118850580D01*
X153716200Y-119564866D02*
X153240009Y-119564866D01*
X153811438Y-119850580D02*
X153478104Y-118850580D01*
X153144771Y-119850580D01*
X152335247Y-119850580D02*
X152811438Y-119850580D01*
X152811438Y-118850580D01*
X151525723Y-119850580D02*
X152001914Y-119850580D01*
X152001914Y-118850580D01*
X150668580Y-119850580D02*
X151240009Y-119850580D01*
X150954295Y-119850580D02*
X150954295Y-118850580D01*
X151049533Y-118993438D01*
X151144771Y-119088676D01*
X151240009Y-119136295D01*
D11*
X103237000Y-107041100D02*
X103237000Y-107917400D01*
X101916200Y-104501100D02*
X101916200Y-107879300D01*
X100697000Y-107041100D02*
X100697000Y-107879300D01*
X99427000Y-104475700D02*
X99427000Y-107841200D01*
X98131600Y-107066500D02*
X98131600Y-107853900D01*
X96861600Y-104501100D02*
X96861600Y-107815800D01*
D10*
X97202861Y-108116138D02*
X97250480Y-108258995D01*
X97250480Y-108497090D01*
X97202861Y-108592328D01*
X97155242Y-108639947D01*
X97060004Y-108687566D01*
X96964766Y-108687566D01*
X96869528Y-108639947D01*
X96821909Y-108592328D01*
X96774290Y-108497090D01*
X96726671Y-108306614D01*
X96679052Y-108211376D01*
X96631433Y-108163757D01*
X96536195Y-108116138D01*
X96440957Y-108116138D01*
X96345719Y-108163757D01*
X96298100Y-108211376D01*
X96250480Y-108306614D01*
X96250480Y-108544709D01*
X96298100Y-108687566D01*
X97250480Y-109116138D02*
X96250480Y-109116138D01*
X96726671Y-109116138D02*
X96726671Y-109687566D01*
X97250480Y-109687566D02*
X96250480Y-109687566D01*
X97250480Y-110163757D02*
X96250480Y-110163757D01*
X96726671Y-110639947D02*
X96726671Y-110973280D01*
X97250480Y-111116138D02*
X97250480Y-110639947D01*
X96250480Y-110639947D01*
X96250480Y-111116138D01*
X97250480Y-112020900D02*
X97250480Y-111544709D01*
X96250480Y-111544709D01*
X97250480Y-112354233D02*
X96250480Y-112354233D01*
X96250480Y-112592328D01*
X96298100Y-112735185D01*
X96393338Y-112830423D01*
X96488576Y-112878042D01*
X96679052Y-112925661D01*
X96821909Y-112925661D01*
X97012385Y-112878042D01*
X97107623Y-112830423D01*
X97202861Y-112735185D01*
X97250480Y-112592328D01*
X97250480Y-112354233D01*
X103676680Y-108335052D02*
X103629061Y-108239814D01*
X103533823Y-108192195D01*
X102676680Y-108192195D01*
X103771919Y-108477909D02*
X103771919Y-109239814D01*
X102676680Y-109335052D02*
X102676680Y-109906480D01*
X103676680Y-109620766D02*
X102676680Y-109620766D01*
X102676680Y-110144576D02*
X103676680Y-110811242D01*
X102676680Y-110811242D02*
X103676680Y-110144576D01*
X102330480Y-108192219D02*
X101330480Y-108192219D01*
X102330480Y-108620790D02*
X101806671Y-108620790D01*
X101711433Y-108573171D01*
X101663814Y-108477933D01*
X101663814Y-108335076D01*
X101711433Y-108239838D01*
X101759052Y-108192219D01*
X102425719Y-108858885D02*
X102425719Y-109620790D01*
X101330480Y-109716028D02*
X101330480Y-110287457D01*
X102330480Y-110001742D02*
X101330480Y-110001742D01*
X101330480Y-110525552D02*
X102330480Y-111192219D01*
X101330480Y-111192219D02*
X102330480Y-110525552D01*
X101085880Y-108292204D02*
X101038261Y-108196966D01*
X100943023Y-108149347D01*
X100085880Y-108149347D01*
X101181119Y-108435061D02*
X101181119Y-109196966D01*
X101085880Y-110006490D02*
X100609690Y-109673157D01*
X101085880Y-109435061D02*
X100085880Y-109435061D01*
X100085880Y-109816014D01*
X100133500Y-109911252D01*
X100181119Y-109958871D01*
X100276357Y-110006490D01*
X100419214Y-110006490D01*
X100514452Y-109958871D01*
X100562071Y-109911252D01*
X100609690Y-109816014D01*
X100609690Y-109435061D01*
X100085880Y-110339823D02*
X101085880Y-111006490D01*
X100085880Y-111006490D02*
X101085880Y-110339823D01*
X99676180Y-108136671D02*
X98676180Y-108136671D01*
X99676180Y-108565242D02*
X99152371Y-108565242D01*
X99057133Y-108517623D01*
X99009514Y-108422385D01*
X99009514Y-108279528D01*
X99057133Y-108184290D01*
X99104752Y-108136671D01*
X99771419Y-108803338D02*
X99771419Y-109565242D01*
X99676180Y-110374766D02*
X99199990Y-110041433D01*
X99676180Y-109803338D02*
X98676180Y-109803338D01*
X98676180Y-110184290D01*
X98723800Y-110279528D01*
X98771419Y-110327147D01*
X98866657Y-110374766D01*
X99009514Y-110374766D01*
X99104752Y-110327147D01*
X99152371Y-110279528D01*
X99199990Y-110184290D01*
X99199990Y-109803338D01*
X98676180Y-110708100D02*
X99676180Y-111374766D01*
X98676180Y-111374766D02*
X99676180Y-110708100D01*
D11*
X109540000Y-106020000D02*
X109540000Y-105620000D01*
X110790000Y-105790000D02*
X110790000Y-103110000D01*
X111990000Y-106020000D02*
X111990000Y-105620000D01*
X113240000Y-105790000D02*
X113240000Y-103110000D01*
D10*
X113674761Y-106275714D02*
X113722380Y-106418571D01*
X113722380Y-106656666D01*
X113674761Y-106751904D01*
X113627142Y-106799523D01*
X113531904Y-106847142D01*
X113436666Y-106847142D01*
X113341428Y-106799523D01*
X113293809Y-106751904D01*
X113246190Y-106656666D01*
X113198571Y-106466190D01*
X113150952Y-106370952D01*
X113103333Y-106323333D01*
X113008095Y-106275714D01*
X112912857Y-106275714D01*
X112817619Y-106323333D01*
X112770000Y-106370952D01*
X112722380Y-106466190D01*
X112722380Y-106704285D01*
X112770000Y-106847142D01*
X113722380Y-107275714D02*
X112722380Y-107275714D01*
X112722380Y-107513809D01*
X112770000Y-107656666D01*
X112865238Y-107751904D01*
X112960476Y-107799523D01*
X113150952Y-107847142D01*
X113293809Y-107847142D01*
X113484285Y-107799523D01*
X113579523Y-107751904D01*
X113674761Y-107656666D01*
X113722380Y-107513809D01*
X113722380Y-107275714D01*
X113436666Y-108228095D02*
X113436666Y-108704285D01*
X113722380Y-108132857D02*
X112722380Y-108466190D01*
X113722380Y-108799523D01*
X112404761Y-106299523D02*
X112452380Y-106442380D01*
X112452380Y-106680476D01*
X112404761Y-106775714D01*
X112357142Y-106823333D01*
X112261904Y-106870952D01*
X112166666Y-106870952D01*
X112071428Y-106823333D01*
X112023809Y-106775714D01*
X111976190Y-106680476D01*
X111928571Y-106490000D01*
X111880952Y-106394761D01*
X111833333Y-106347142D01*
X111738095Y-106299523D01*
X111642857Y-106299523D01*
X111547619Y-106347142D01*
X111500000Y-106394761D01*
X111452380Y-106490000D01*
X111452380Y-106728095D01*
X111500000Y-106870952D01*
X112357142Y-107870952D02*
X112404761Y-107823333D01*
X112452380Y-107680476D01*
X112452380Y-107585238D01*
X112404761Y-107442380D01*
X112309523Y-107347142D01*
X112214285Y-107299523D01*
X112023809Y-107251904D01*
X111880952Y-107251904D01*
X111690476Y-107299523D01*
X111595238Y-107347142D01*
X111500000Y-107442380D01*
X111452380Y-107585238D01*
X111452380Y-107680476D01*
X111500000Y-107823333D01*
X111547619Y-107870952D01*
X112452380Y-108775714D02*
X112452380Y-108299523D01*
X111452380Y-108299523D01*
X110242380Y-106263809D02*
X110242380Y-106882857D01*
X110623333Y-106549523D01*
X110623333Y-106692380D01*
X110670952Y-106787619D01*
X110718571Y-106835238D01*
X110813809Y-106882857D01*
X111051904Y-106882857D01*
X111147142Y-106835238D01*
X111194761Y-106787619D01*
X111242380Y-106692380D01*
X111242380Y-106406666D01*
X111194761Y-106311428D01*
X111147142Y-106263809D01*
X111147142Y-107311428D02*
X111194761Y-107359047D01*
X111242380Y-107311428D01*
X111194761Y-107263809D01*
X111147142Y-107311428D01*
X111242380Y-107311428D01*
X110242380Y-107692380D02*
X110242380Y-108311428D01*
X110623333Y-107978095D01*
X110623333Y-108120952D01*
X110670952Y-108216190D01*
X110718571Y-108263809D01*
X110813809Y-108311428D01*
X111051904Y-108311428D01*
X111147142Y-108263809D01*
X111194761Y-108216190D01*
X111242380Y-108120952D01*
X111242380Y-107835238D01*
X111194761Y-107740000D01*
X111147142Y-107692380D01*
X110242380Y-108597142D02*
X111242380Y-108930476D01*
X110242380Y-109263809D01*
X109110000Y-106748095D02*
X109062380Y-106652857D01*
X109062380Y-106510000D01*
X109110000Y-106367142D01*
X109205238Y-106271904D01*
X109300476Y-106224285D01*
X109490952Y-106176666D01*
X109633809Y-106176666D01*
X109824285Y-106224285D01*
X109919523Y-106271904D01*
X110014761Y-106367142D01*
X110062380Y-106510000D01*
X110062380Y-106605238D01*
X110014761Y-106748095D01*
X109967142Y-106795714D01*
X109633809Y-106795714D01*
X109633809Y-106605238D01*
X110062380Y-107224285D02*
X109062380Y-107224285D01*
X110062380Y-107795714D01*
X109062380Y-107795714D01*
X110062380Y-108271904D02*
X109062380Y-108271904D01*
X109062380Y-108510000D01*
X109110000Y-108652857D01*
X109205238Y-108748095D01*
X109300476Y-108795714D01*
X109490952Y-108843333D01*
X109633809Y-108843333D01*
X109824285Y-108795714D01*
X109919523Y-108748095D01*
X110014761Y-108652857D01*
X110062380Y-108510000D01*
X110062380Y-108271904D01*
X135057142Y-106562380D02*
X135628571Y-106562380D01*
X135342857Y-106562380D02*
X135342857Y-105562380D01*
X135438095Y-105705238D01*
X135533333Y-105800476D01*
X135628571Y-105848095D01*
X134628571Y-106467142D02*
X134580952Y-106514761D01*
X134628571Y-106562380D01*
X134676190Y-106514761D01*
X134628571Y-106467142D01*
X134628571Y-106562380D01*
X134200000Y-105657619D02*
X134152380Y-105610000D01*
X134057142Y-105562380D01*
X133819047Y-105562380D01*
X133723809Y-105610000D01*
X133676190Y-105657619D01*
X133628571Y-105752857D01*
X133628571Y-105848095D01*
X133676190Y-105990952D01*
X134247619Y-106562380D01*
X133628571Y-106562380D01*
X133342857Y-105562380D02*
X133009523Y-106562380D01*
X132676190Y-105562380D01*
X137846190Y-108012380D02*
X137227142Y-108012380D01*
X137560476Y-108393333D01*
X137417619Y-108393333D01*
X137322380Y-108440952D01*
X137274761Y-108488571D01*
X137227142Y-108583809D01*
X137227142Y-108821904D01*
X137274761Y-108917142D01*
X137322380Y-108964761D01*
X137417619Y-109012380D01*
X137703333Y-109012380D01*
X137798571Y-108964761D01*
X137846190Y-108917142D01*
X136798571Y-108917142D02*
X136750952Y-108964761D01*
X136798571Y-109012380D01*
X136846190Y-108964761D01*
X136798571Y-108917142D01*
X136798571Y-109012380D01*
X136417619Y-108012380D02*
X135798571Y-108012380D01*
X136131904Y-108393333D01*
X135989047Y-108393333D01*
X135893809Y-108440952D01*
X135846190Y-108488571D01*
X135798571Y-108583809D01*
X135798571Y-108821904D01*
X135846190Y-108917142D01*
X135893809Y-108964761D01*
X135989047Y-109012380D01*
X136274761Y-109012380D01*
X136370000Y-108964761D01*
X136417619Y-108917142D01*
X135512857Y-108012380D02*
X135179523Y-109012380D01*
X134846190Y-108012380D01*
X144060476Y-105822380D02*
X144536666Y-105822380D01*
X144584285Y-106298571D01*
X144536666Y-106250952D01*
X144441428Y-106203333D01*
X144203333Y-106203333D01*
X144108095Y-106250952D01*
X144060476Y-106298571D01*
X144012857Y-106393809D01*
X144012857Y-106631904D01*
X144060476Y-106727142D01*
X144108095Y-106774761D01*
X144203333Y-106822380D01*
X144441428Y-106822380D01*
X144536666Y-106774761D01*
X144584285Y-106727142D01*
X143727142Y-105822380D02*
X143393809Y-106822380D01*
X143060476Y-105822380D01*
X125016190Y-138412380D02*
X125016190Y-137412380D01*
X125016190Y-137793333D02*
X124920952Y-137745714D01*
X124730476Y-137745714D01*
X124635238Y-137793333D01*
X124587619Y-137840952D01*
X124540000Y-137936190D01*
X124540000Y-138221904D01*
X124587619Y-138317142D01*
X124635238Y-138364761D01*
X124730476Y-138412380D01*
X124920952Y-138412380D01*
X125016190Y-138364761D01*
X123968571Y-138412380D02*
X124063809Y-138364761D01*
X124111428Y-138269523D01*
X124111428Y-137412380D01*
X123159047Y-138412380D02*
X123159047Y-137412380D01*
X123159047Y-138364761D02*
X123254285Y-138412380D01*
X123444761Y-138412380D01*
X123540000Y-138364761D01*
X123587619Y-138317142D01*
X123635238Y-138221904D01*
X123635238Y-137936190D01*
X123587619Y-137840952D01*
X123540000Y-137793333D01*
X123444761Y-137745714D01*
X123254285Y-137745714D01*
X123159047Y-137793333D01*
X122254285Y-138364761D02*
X122349523Y-138412380D01*
X122540000Y-138412380D01*
X122635238Y-138364761D01*
X122682857Y-138317142D01*
X122730476Y-138221904D01*
X122730476Y-137936190D01*
X122682857Y-137840952D01*
X122635238Y-137793333D01*
X122540000Y-137745714D01*
X122349523Y-137745714D01*
X122254285Y-137793333D01*
X122063809Y-138507619D02*
X121301904Y-138507619D01*
X121063809Y-138412380D02*
X121063809Y-137745714D01*
X121063809Y-137840952D02*
X121016190Y-137793333D01*
X120920952Y-137745714D01*
X120778095Y-137745714D01*
X120682857Y-137793333D01*
X120635238Y-137888571D01*
X120635238Y-138412380D01*
X120635238Y-137888571D02*
X120587619Y-137793333D01*
X120492380Y-137745714D01*
X120349523Y-137745714D01*
X120254285Y-137793333D01*
X120206666Y-137888571D01*
X120206666Y-138412380D01*
X119587619Y-138412380D02*
X119682857Y-138364761D01*
X119730476Y-138317142D01*
X119778095Y-138221904D01*
X119778095Y-137936190D01*
X119730476Y-137840952D01*
X119682857Y-137793333D01*
X119587619Y-137745714D01*
X119444761Y-137745714D01*
X119349523Y-137793333D01*
X119301904Y-137840952D01*
X119254285Y-137936190D01*
X119254285Y-138221904D01*
X119301904Y-138317142D01*
X119349523Y-138364761D01*
X119444761Y-138412380D01*
X119587619Y-138412380D01*
X118968571Y-137745714D02*
X118587619Y-137745714D01*
X118825714Y-137412380D02*
X118825714Y-138269523D01*
X118778095Y-138364761D01*
X118682857Y-138412380D01*
X118587619Y-138412380D01*
X118111428Y-138412380D02*
X118206666Y-138364761D01*
X118254285Y-138317142D01*
X118301904Y-138221904D01*
X118301904Y-137936190D01*
X118254285Y-137840952D01*
X118206666Y-137793333D01*
X118111428Y-137745714D01*
X117968571Y-137745714D01*
X117873333Y-137793333D01*
X117825714Y-137840952D01*
X117778095Y-137936190D01*
X117778095Y-138221904D01*
X117825714Y-138317142D01*
X117873333Y-138364761D01*
X117968571Y-138412380D01*
X118111428Y-138412380D01*
X117349523Y-138412380D02*
X117349523Y-137745714D01*
X117349523Y-137936190D02*
X117301904Y-137840952D01*
X117254285Y-137793333D01*
X117159047Y-137745714D01*
X117063809Y-137745714D01*
X116730476Y-138412380D02*
X116730476Y-137412380D01*
X116730476Y-137793333D02*
X116635238Y-137745714D01*
X116444761Y-137745714D01*
X116349523Y-137793333D01*
X116301904Y-137840952D01*
X116254285Y-137936190D01*
X116254285Y-138221904D01*
X116301904Y-138317142D01*
X116349523Y-138364761D01*
X116444761Y-138412380D01*
X116635238Y-138412380D01*
X116730476Y-138364761D01*
X115682857Y-138412380D02*
X115778095Y-138364761D01*
X115825714Y-138317142D01*
X115873333Y-138221904D01*
X115873333Y-137936190D01*
X115825714Y-137840952D01*
X115778095Y-137793333D01*
X115682857Y-137745714D01*
X115540000Y-137745714D01*
X115444761Y-137793333D01*
X115397142Y-137840952D01*
X115349523Y-137936190D01*
X115349523Y-138221904D01*
X115397142Y-138317142D01*
X115444761Y-138364761D01*
X115540000Y-138412380D01*
X115682857Y-138412380D01*
X114492380Y-138412380D02*
X114492380Y-137888571D01*
X114540000Y-137793333D01*
X114635238Y-137745714D01*
X114825714Y-137745714D01*
X114920952Y-137793333D01*
X114492380Y-138364761D02*
X114587619Y-138412380D01*
X114825714Y-138412380D01*
X114920952Y-138364761D01*
X114968571Y-138269523D01*
X114968571Y-138174285D01*
X114920952Y-138079047D01*
X114825714Y-138031428D01*
X114587619Y-138031428D01*
X114492380Y-137983809D01*
X114016190Y-138412380D02*
X114016190Y-137745714D01*
X114016190Y-137936190D02*
X113968571Y-137840952D01*
X113920952Y-137793333D01*
X113825714Y-137745714D01*
X113730476Y-137745714D01*
X112968571Y-138412380D02*
X112968571Y-137412380D01*
X112968571Y-138364761D02*
X113063809Y-138412380D01*
X113254285Y-138412380D01*
X113349523Y-138364761D01*
X113397142Y-138317142D01*
X113444761Y-138221904D01*
X113444761Y-137936190D01*
X113397142Y-137840952D01*
X113349523Y-137793333D01*
X113254285Y-137745714D01*
X113063809Y-137745714D01*
X112968571Y-137793333D01*
X112730476Y-138507619D02*
X111968571Y-138507619D01*
X111825714Y-137745714D02*
X111587619Y-138412380D01*
X111349523Y-137745714D01*
X110778095Y-137412380D02*
X110682857Y-137412380D01*
X110587619Y-137460000D01*
X110540000Y-137507619D01*
X110492380Y-137602857D01*
X110444761Y-137793333D01*
X110444761Y-138031428D01*
X110492380Y-138221904D01*
X110540000Y-138317142D01*
X110587619Y-138364761D01*
X110682857Y-138412380D01*
X110778095Y-138412380D01*
X110873333Y-138364761D01*
X110920952Y-138317142D01*
X110968571Y-138221904D01*
X111016190Y-138031428D01*
X111016190Y-137793333D01*
X110968571Y-137602857D01*
X110920952Y-137507619D01*
X110873333Y-137460000D01*
X110778095Y-137412380D01*
X110016190Y-138317142D02*
X109968571Y-138364761D01*
X110016190Y-138412380D01*
X110063809Y-138364761D01*
X110016190Y-138317142D01*
X110016190Y-138412380D01*
X109397142Y-137840952D02*
X109492380Y-137793333D01*
X109540000Y-137745714D01*
X109587619Y-137650476D01*
X109587619Y-137602857D01*
X109540000Y-137507619D01*
X109492380Y-137460000D01*
X109397142Y-137412380D01*
X109206666Y-137412380D01*
X109111428Y-137460000D01*
X109063809Y-137507619D01*
X109016190Y-137602857D01*
X109016190Y-137650476D01*
X109063809Y-137745714D01*
X109111428Y-137793333D01*
X109206666Y-137840952D01*
X109397142Y-137840952D01*
X109492380Y-137888571D01*
X109540000Y-137936190D01*
X109587619Y-138031428D01*
X109587619Y-138221904D01*
X109540000Y-138317142D01*
X109492380Y-138364761D01*
X109397142Y-138412380D01*
X109206666Y-138412380D01*
X109111428Y-138364761D01*
X109063809Y-138317142D01*
X109016190Y-138221904D01*
X109016190Y-138031428D01*
X109063809Y-137936190D01*
X109111428Y-137888571D01*
X109206666Y-137840952D01*
X108150000Y-138700000D02*
X93150000Y-138700000D01*
X108150000Y-130700000D02*
X108150000Y-138700000D01*
X93150000Y-130700000D02*
X108150000Y-130700000D01*
X93150000Y-138700000D02*
X93150000Y-130700000D01*
X96150000Y-130700000D02*
X96150000Y-131300000D01*
X96150000Y-134100000D02*
X96150000Y-135300000D01*
X96150000Y-138700000D02*
X96150000Y-138100000D01*
D11*
X100670000Y-107460000D02*
X94985000Y-107460000D01*
X94985000Y-107460000D02*
X94985000Y-101860000D01*
X105085000Y-101860000D02*
X94985000Y-101860000D01*
X105085000Y-103390000D02*
X105085000Y-101860000D01*
X103810000Y-104660000D02*
X101940000Y-104660000D01*
X101940000Y-104660000D02*
X101940000Y-106530000D01*
X103210000Y-107460000D02*
X105085000Y-107460000D01*
X105085000Y-107460000D02*
X105085000Y-105930000D01*
X142670000Y-106210000D02*
G75*
G03X142670000Y-106210000I-700000J0D01*
G01*
X134440000Y-108340000D02*
G75*
G03X134440000Y-108340000I-700000J0D01*
G01*
X132330000Y-106020000D02*
G75*
G03X132330000Y-106020000I-700000J0D01*
G01*
M02*
