G04 #@! TF.GenerationSoftware,KiCad,Pcbnew,5.1.5-52549c5~84~ubuntu18.04.1*
G04 #@! TF.CreationDate,2020-04-16T13:53:27+02:00*
G04 #@! TF.ProjectId,board,626f6172-642e-46b6-9963-61645f706362,rev?*
G04 #@! TF.SameCoordinates,Original*
G04 #@! TF.FileFunction,Copper,L3,Inr*
G04 #@! TF.FilePolarity,Positive*
%FSLAX46Y46*%
G04 Gerber Fmt 4.6, Leading zero omitted, Abs format (unit mm)*
G04 Created by KiCad (PCBNEW 5.1.5-52549c5~84~ubuntu18.04.1) date 2020-04-16 13:53:27*
%MOMM*%
%LPD*%
G04 APERTURE LIST*
%ADD10O,1.700000X1.700000*%
%ADD11R,1.700000X1.700000*%
%ADD12C,1.800000*%
%ADD13R,1.800000X1.800000*%
%ADD14C,0.400000*%
%ADD15C,0.290000*%
%ADD16C,0.254000*%
%ADD17C,0.800000*%
%ADD18C,0.152400*%
%ADD19C,0.254000*%
G04 APERTURE END LIST*
D10*
X156000000Y-119329200D03*
X156000000Y-121869200D03*
X156000000Y-124409200D03*
X156000000Y-126949200D03*
X156000000Y-129489200D03*
X156000000Y-132029200D03*
X156000000Y-134569200D03*
D11*
X156000000Y-137109200D03*
D12*
X96860000Y-103390000D03*
X98130000Y-105930000D03*
D13*
X103210000Y-105930000D03*
D12*
X101940000Y-103390000D03*
X100670000Y-105930000D03*
X99400000Y-103390000D03*
D13*
X113325000Y-101930000D03*
D12*
X112055000Y-104470000D03*
X110785000Y-101930000D03*
X109515000Y-104470000D03*
D14*
X129100000Y-127200000D03*
X128500000Y-127800000D03*
X124910000Y-127210000D03*
X126700000Y-127800000D03*
X129100000Y-129000000D03*
X129100000Y-127800000D03*
X128500000Y-127200000D03*
X124900000Y-129000000D03*
X126700000Y-128400000D03*
X126100000Y-127200000D03*
X126100000Y-129000000D03*
X124300000Y-127800000D03*
X126100000Y-128400000D03*
X126700000Y-127200000D03*
X123700000Y-127800000D03*
X126100000Y-127800000D03*
X127900000Y-127200000D03*
X124900000Y-127800000D03*
X127310000Y-127210000D03*
X124300000Y-128400000D03*
X127900000Y-129000000D03*
X127300000Y-127800000D03*
X123700000Y-128400000D03*
X125500000Y-129000000D03*
X125500000Y-127200000D03*
X123700000Y-127200000D03*
X124300000Y-129000000D03*
X127900000Y-127800000D03*
X127300000Y-129000000D03*
X125500000Y-128400000D03*
X128500000Y-128400000D03*
X128500000Y-129000000D03*
X123700000Y-129000000D03*
X124900000Y-128400000D03*
X129100000Y-128400000D03*
X127300000Y-128400000D03*
X127900000Y-128400000D03*
X125500000Y-127800000D03*
X126700000Y-129000000D03*
X124300000Y-127200000D03*
D15*
X141300000Y-102400000D03*
D16*
X141000000Y-120600000D03*
D15*
X117700000Y-124650000D03*
X123600000Y-123900000D03*
X127748000Y-121100000D03*
X129890000Y-118690000D03*
X133750000Y-106885000D03*
X111740000Y-106360000D03*
X115880000Y-106040000D03*
X125700000Y-106510000D03*
X136500000Y-118300000D03*
X133300000Y-118000000D03*
X104200000Y-109800000D03*
X134760000Y-115790000D03*
X130241169Y-110188832D03*
X126057511Y-114137511D03*
X130450000Y-115060000D03*
X128090000Y-108620000D03*
X129200000Y-117696400D03*
D16*
X150110013Y-119267519D03*
D15*
X129655000Y-108965000D03*
X128078831Y-110188831D03*
X147700000Y-100800000D03*
X126000000Y-125850000D03*
X130380000Y-118690000D03*
D16*
X143300000Y-124000000D03*
D15*
X131550000Y-126710000D03*
D16*
X146300000Y-123800000D03*
D15*
X133060000Y-126250000D03*
X137300000Y-124900000D03*
D16*
X146300000Y-130000000D03*
X142200000Y-129300000D03*
D15*
X138000000Y-124100000D03*
X136180000Y-122220000D03*
D16*
X142130025Y-135169975D03*
D15*
X136900000Y-121300000D03*
D16*
X143494805Y-135966469D03*
D14*
X126800000Y-136800000D03*
X128000000Y-136800000D03*
X124400000Y-137400000D03*
X128000000Y-136200000D03*
X126200000Y-136200000D03*
X125000000Y-136200000D03*
X124400000Y-136800000D03*
X128000000Y-137400000D03*
X128600000Y-137400000D03*
X126200000Y-136800000D03*
X125010000Y-135610000D03*
X128600000Y-136800000D03*
X124400000Y-136200000D03*
X127400000Y-136800000D03*
X125600000Y-135600000D03*
X126800000Y-137400000D03*
X125000000Y-136800000D03*
X129200000Y-135600000D03*
X126800000Y-135600000D03*
X126200000Y-137400000D03*
X123800000Y-137400000D03*
X128000000Y-135600000D03*
X128600000Y-135600000D03*
X123800000Y-135600000D03*
X128600000Y-136200000D03*
X126200000Y-135600000D03*
X127410000Y-135610000D03*
X127400000Y-136200000D03*
X129200000Y-136800000D03*
X123800000Y-136800000D03*
X125600000Y-137400000D03*
X125600000Y-136200000D03*
X123800000Y-136200000D03*
X125000000Y-137400000D03*
X127400000Y-137400000D03*
X125600000Y-136800000D03*
X124400000Y-135600000D03*
X126800000Y-136200000D03*
X129200000Y-137400000D03*
X129200000Y-136200000D03*
X129200000Y-138600000D03*
X128600000Y-138000000D03*
X123800000Y-138600000D03*
X124400000Y-138000000D03*
X126800000Y-138000000D03*
X125600000Y-138000000D03*
X128000000Y-138600000D03*
X123800000Y-138000000D03*
X126200000Y-138600000D03*
X126800000Y-138600000D03*
X128600000Y-138600000D03*
X125600000Y-138600000D03*
X125000000Y-138600000D03*
X126200000Y-138000000D03*
X128000000Y-138000000D03*
X125000000Y-138000000D03*
X127400000Y-138600000D03*
X129200000Y-138000000D03*
X127400000Y-138000000D03*
X124400000Y-138600000D03*
X126800000Y-134400000D03*
X128000000Y-134400000D03*
X124400000Y-135000000D03*
X128000000Y-133800000D03*
X126200000Y-133800000D03*
X125000000Y-133800000D03*
X124400000Y-134400000D03*
X128000000Y-135000000D03*
X128600000Y-135000000D03*
X126200000Y-134400000D03*
X125010000Y-133210000D03*
X128600000Y-134400000D03*
X124400000Y-133800000D03*
X127400000Y-134400000D03*
X125600000Y-133200000D03*
X126800000Y-135000000D03*
X125000000Y-134400000D03*
X129200000Y-133200000D03*
X126800000Y-133200000D03*
X126200000Y-135000000D03*
X123800000Y-135000000D03*
X128000000Y-133200000D03*
X128600000Y-133200000D03*
X123800000Y-133200000D03*
X128600000Y-133800000D03*
X126200000Y-133200000D03*
X127410000Y-133210000D03*
X127400000Y-133800000D03*
X129200000Y-134400000D03*
X123800000Y-134400000D03*
X125600000Y-135000000D03*
X125600000Y-133800000D03*
X123800000Y-133800000D03*
X125000000Y-135000000D03*
X127400000Y-135000000D03*
X125600000Y-134400000D03*
X124400000Y-133200000D03*
X126800000Y-133800000D03*
X129200000Y-135000000D03*
X129200000Y-133800000D03*
X146400000Y-127400000D03*
X144600000Y-127400000D03*
X144600000Y-128600000D03*
X144600000Y-128000000D03*
X146400000Y-129200000D03*
X145800000Y-129200000D03*
X145200000Y-126800000D03*
X145800000Y-126800000D03*
X145800000Y-128000000D03*
X145200000Y-129200000D03*
X145200000Y-127400000D03*
X144600000Y-126800000D03*
X145800000Y-127400000D03*
X145800000Y-128600000D03*
X145200000Y-128600000D03*
X145200000Y-128000000D03*
X146400000Y-126800000D03*
X146400000Y-128000000D03*
X144600000Y-129200000D03*
X146400000Y-128600000D03*
X146400000Y-133600000D03*
X144600000Y-133600000D03*
X144600000Y-134800000D03*
X144600000Y-134200000D03*
X145800000Y-135400000D03*
X145200000Y-133000000D03*
X145800000Y-133000000D03*
X145800000Y-134200000D03*
X145200000Y-135400000D03*
X145200000Y-133600000D03*
X144600000Y-133000000D03*
X145800000Y-133600000D03*
X145800000Y-134800000D03*
X145200000Y-134800000D03*
X145200000Y-134200000D03*
X146400000Y-133000000D03*
X146400000Y-134200000D03*
X144600000Y-135400000D03*
X146400000Y-134800000D03*
X144000000Y-128000000D03*
X144000000Y-129200000D03*
X144000000Y-126800000D03*
X144000000Y-128600000D03*
X144000000Y-127400000D03*
X144000000Y-121200000D03*
X144000000Y-122400000D03*
X144000000Y-121800000D03*
X144000000Y-120600000D03*
X144000000Y-123000000D03*
X144000000Y-134800000D03*
X144000000Y-133600000D03*
X144000000Y-135400000D03*
X144000000Y-133000000D03*
X144000000Y-134200000D03*
X146400000Y-121200000D03*
X146400000Y-121800000D03*
X146400000Y-122400000D03*
X146400000Y-123000000D03*
X145800000Y-123000000D03*
X145800000Y-122400000D03*
X145800000Y-121800000D03*
X145800000Y-121200000D03*
X145800000Y-120600000D03*
X145200000Y-120600000D03*
X145200000Y-121200000D03*
X145200000Y-121800000D03*
X145200000Y-122400000D03*
X145200000Y-123000000D03*
X144600000Y-123000000D03*
X144600000Y-120600000D03*
X144600000Y-121800000D03*
X144600000Y-121200000D03*
X144600000Y-122400000D03*
D17*
X100300000Y-135500000D03*
X101200000Y-135500000D03*
X102100000Y-135500000D03*
X103000000Y-135500000D03*
X100800000Y-136300000D03*
X101700000Y-136300000D03*
X102600000Y-136300000D03*
X103500000Y-136300000D03*
X100400000Y-137100000D03*
X101300000Y-137100000D03*
X102200000Y-137100000D03*
X103100000Y-137100000D03*
X100800000Y-137900000D03*
X101700000Y-137900000D03*
X102600000Y-137900000D03*
X103500000Y-137900000D03*
D14*
X146400000Y-120600000D03*
D15*
X133860000Y-102690000D03*
X135200000Y-108500000D03*
X134200000Y-110900000D03*
X135200000Y-112400000D03*
X140700000Y-105400000D03*
X134300000Y-125167399D03*
X132900000Y-128360000D03*
X128290000Y-125350000D03*
X145000000Y-116500000D03*
X126800000Y-117500000D03*
X137812500Y-101400000D03*
X135200000Y-101400000D03*
X107800000Y-117850000D03*
X113700000Y-110800000D03*
X124510000Y-115040000D03*
X121370000Y-117590000D03*
X140680000Y-108090000D03*
X132720000Y-105960000D03*
X129550000Y-111270000D03*
X124740000Y-110340000D03*
D16*
X93610000Y-128920000D03*
D15*
X120320000Y-113980000D03*
X116000000Y-119050000D03*
X126050000Y-108610000D03*
X126480000Y-110710000D03*
X131610000Y-112370000D03*
X130641169Y-112188831D03*
X133330000Y-113390000D03*
X107200000Y-118800000D03*
X107200000Y-120975000D03*
X144200000Y-114800000D03*
X140500000Y-114600000D03*
X135800000Y-104400000D03*
X151600000Y-103300000D03*
X122960000Y-107250000D03*
X106180000Y-124020000D03*
X146500000Y-102700000D03*
X107460000Y-116760000D03*
X144316448Y-113113552D03*
X144400000Y-110600000D03*
D14*
X149100000Y-124700000D03*
X149700000Y-125900000D03*
X149700000Y-124700000D03*
X149100000Y-125900000D03*
X149100000Y-125300000D03*
X149700000Y-125300000D03*
X150300000Y-125300000D03*
X150300000Y-125900000D03*
X150300000Y-124700000D03*
X151000000Y-124700000D03*
X151600000Y-125900000D03*
X151600000Y-124700000D03*
X151000000Y-125900000D03*
X151000000Y-125300000D03*
X151600000Y-125300000D03*
X152200000Y-125300000D03*
X152200000Y-125900000D03*
X152200000Y-124700000D03*
X151600000Y-122900000D03*
X152200000Y-124100000D03*
X152200000Y-122900000D03*
X151600000Y-124100000D03*
X151600000Y-123500000D03*
X152200000Y-123500000D03*
X152800000Y-123500000D03*
X152800000Y-124100000D03*
X152800000Y-122900000D03*
X152200000Y-126500000D03*
X152800000Y-127700000D03*
X152800000Y-126500000D03*
X152200000Y-127700000D03*
X152200000Y-127100000D03*
X152800000Y-127100000D03*
X153400000Y-127100000D03*
X153400000Y-127700000D03*
X153400000Y-126500000D03*
X152800000Y-124700000D03*
X153400000Y-125900000D03*
X153400000Y-124700000D03*
X152800000Y-125900000D03*
X152800000Y-125300000D03*
X153400000Y-125300000D03*
X154000000Y-125300000D03*
X154000000Y-125900000D03*
X154000000Y-124700000D03*
X151600000Y-121100000D03*
X152200000Y-121700000D03*
X152200000Y-122300000D03*
X152200000Y-121100000D03*
X151600000Y-122300000D03*
X152800000Y-122300000D03*
X152800000Y-121100000D03*
X151600000Y-121700000D03*
X152800000Y-121700000D03*
X153400000Y-122900000D03*
X154000000Y-124100000D03*
X153400000Y-124100000D03*
X153400000Y-123500000D03*
X153400000Y-121100000D03*
X153400000Y-122300000D03*
X153400000Y-121700000D03*
X154000000Y-126500000D03*
X154000000Y-127700000D03*
X154000000Y-127100000D03*
X151600000Y-126500000D03*
X152800000Y-128300000D03*
X153400000Y-128300000D03*
X154000000Y-128300000D03*
X152800000Y-128900000D03*
X153400000Y-128900000D03*
X154000000Y-128900000D03*
X154000000Y-129500000D03*
X153400000Y-129500000D03*
X154000000Y-130100000D03*
X153400000Y-130100000D03*
X154000000Y-130700000D03*
X154000000Y-131300000D03*
X144310000Y-124710000D03*
X144900000Y-125900000D03*
X144900000Y-125300000D03*
X145500000Y-124700000D03*
X144300000Y-125900000D03*
X144300000Y-125300000D03*
X145500000Y-125900000D03*
X146100000Y-124700000D03*
X144900000Y-124700000D03*
X146100000Y-125900000D03*
X145500000Y-125300000D03*
X146100000Y-125300000D03*
X146710000Y-124710000D03*
X147300000Y-125900000D03*
X147300000Y-125300000D03*
X147900000Y-124700000D03*
X146700000Y-125900000D03*
X146700000Y-125300000D03*
X147900000Y-125900000D03*
X148500000Y-124700000D03*
X147300000Y-124700000D03*
X148500000Y-125900000D03*
X147900000Y-125300000D03*
X148500000Y-125300000D03*
D15*
X132070000Y-126100000D03*
D16*
X143110000Y-126060000D03*
D14*
X149600000Y-132000000D03*
X150200000Y-130800000D03*
X149600000Y-130800000D03*
X150200000Y-132000000D03*
X149600000Y-131400000D03*
X150200000Y-131400000D03*
X152600000Y-132000000D03*
X152600000Y-131400000D03*
X152000000Y-132000000D03*
X152000000Y-131400000D03*
X152600000Y-130800000D03*
X152000000Y-130800000D03*
X150800000Y-132000000D03*
X151400000Y-130800000D03*
X150800000Y-130800000D03*
X151400000Y-132000000D03*
X150800000Y-131400000D03*
X151400000Y-131400000D03*
X152000000Y-130200000D03*
X152000000Y-129600000D03*
X151400000Y-129000000D03*
X151400000Y-129600000D03*
X151400000Y-130200000D03*
X152600000Y-133200000D03*
X153200000Y-133200000D03*
X152600000Y-132600000D03*
X153200000Y-132600000D03*
X153200000Y-132000000D03*
X152000000Y-132600000D03*
X153800000Y-134400000D03*
X153200000Y-134400000D03*
X153800000Y-133800000D03*
X153200000Y-133800000D03*
X153800000Y-133200000D03*
X143600000Y-132000000D03*
X143600000Y-131400000D03*
X148400000Y-130800000D03*
X148400000Y-132000000D03*
X149000000Y-130800000D03*
X143600000Y-130800000D03*
X149000000Y-132000000D03*
X148400000Y-131400000D03*
X149000000Y-131400000D03*
X143100000Y-131400000D03*
X143100000Y-132000000D03*
D15*
X135548036Y-123532076D03*
D14*
X143110000Y-130810000D03*
X149100000Y-137900000D03*
X150300000Y-137900000D03*
X149100000Y-138500000D03*
X148500000Y-137300000D03*
X149700000Y-138500000D03*
X149700000Y-137300000D03*
X150900000Y-137300000D03*
X151500000Y-138500000D03*
X149100000Y-136700000D03*
X149710000Y-136710000D03*
X151500000Y-137300000D03*
X148500000Y-138500000D03*
X149700000Y-137900000D03*
X148500000Y-137900000D03*
X150300000Y-138500000D03*
X151500000Y-137900000D03*
X150900000Y-136700000D03*
X150900000Y-137900000D03*
X151500000Y-136700000D03*
X150900000Y-138500000D03*
X149100000Y-137300000D03*
X150300000Y-136700000D03*
X148500000Y-136700000D03*
X150300000Y-137300000D03*
X152110000Y-136710000D03*
X153900000Y-137300000D03*
X152100000Y-138500000D03*
X153900000Y-137900000D03*
X153300000Y-136700000D03*
X153300000Y-138500000D03*
X153300000Y-137900000D03*
X153900000Y-136700000D03*
X153300000Y-137300000D03*
X152100000Y-137300000D03*
X152700000Y-138500000D03*
X152700000Y-136700000D03*
X152700000Y-137900000D03*
X152100000Y-137900000D03*
X152700000Y-137300000D03*
X153900000Y-138500000D03*
X153300000Y-136100000D03*
X151500000Y-136100000D03*
X151500000Y-135500000D03*
X152700000Y-135500000D03*
X152110000Y-135510000D03*
X152100000Y-136100000D03*
X152700000Y-136100000D03*
X151500000Y-134900000D03*
X152110000Y-134910000D03*
X151500000Y-134300000D03*
X143610000Y-136710000D03*
X144200000Y-137900000D03*
X144200000Y-137300000D03*
X144800000Y-136700000D03*
X143600000Y-137900000D03*
X143600000Y-137300000D03*
X144800000Y-137900000D03*
X145400000Y-136700000D03*
X144200000Y-136700000D03*
X145400000Y-137900000D03*
X144800000Y-137300000D03*
X145400000Y-137300000D03*
X143600000Y-138500000D03*
X145400000Y-138500000D03*
X144800000Y-138500000D03*
X144200000Y-138500000D03*
X146000000Y-137900000D03*
X147800000Y-137900000D03*
X147800000Y-138500000D03*
X147200000Y-137300000D03*
X147800000Y-136700000D03*
X146600000Y-136700000D03*
X146010000Y-136710000D03*
X147200000Y-138500000D03*
X146000000Y-137300000D03*
X147200000Y-137900000D03*
X146000000Y-138500000D03*
X146600000Y-138500000D03*
X146600000Y-137300000D03*
X147800000Y-137300000D03*
X147200000Y-136700000D03*
X146600000Y-137900000D03*
D15*
X135500000Y-121608700D03*
D14*
X143040000Y-138210000D03*
D15*
X102950000Y-107640000D03*
X102270000Y-107670000D03*
X103690000Y-107560000D03*
X104390000Y-107420000D03*
X104940000Y-106980000D03*
X105300000Y-106350000D03*
X105500000Y-105660000D03*
X145785000Y-112600000D03*
X142817600Y-112590000D03*
X142762409Y-113295191D03*
X146915000Y-113600000D03*
X105820000Y-121420000D03*
X107910000Y-121529400D03*
X146915000Y-111500000D03*
X144500000Y-109300000D03*
X109370000Y-125170000D03*
X130641168Y-111551169D03*
X115450000Y-121670000D03*
X138270000Y-115830000D03*
X110245000Y-120325000D03*
X137660000Y-115820000D03*
X123200000Y-120750000D03*
X130910000Y-118670000D03*
X101500000Y-111900000D03*
X109900000Y-113900000D03*
X114110000Y-112540000D03*
X126300000Y-113500000D03*
X113250000Y-112100000D03*
X124840000Y-112340000D03*
D17*
X100800000Y-133200000D03*
X101700000Y-133200000D03*
X102600000Y-133200000D03*
X103500000Y-133200000D03*
X100400000Y-130800000D03*
X101300000Y-130800000D03*
X102200000Y-130800000D03*
X103100000Y-130800000D03*
X100800000Y-131600000D03*
X101700000Y-131600000D03*
X102600000Y-131600000D03*
X103500000Y-131600000D03*
X100400000Y-132400000D03*
X101300000Y-132400000D03*
X102200000Y-132400000D03*
X103100000Y-132400000D03*
X100400000Y-134000000D03*
X101300000Y-134000000D03*
X102200000Y-134000000D03*
X103100000Y-134000000D03*
D15*
X131450000Y-108470000D03*
X98330000Y-112240000D03*
X104690000Y-119340000D03*
X107830000Y-119540000D03*
X128078831Y-112751168D03*
X126743959Y-113953959D03*
X128478831Y-112751168D03*
X127458552Y-114268552D03*
X128878831Y-112751168D03*
X128260000Y-114540000D03*
X126900000Y-105600000D03*
X131000000Y-104800000D03*
X125400000Y-110000000D03*
X132300000Y-110400000D03*
X118880000Y-108800000D03*
X130170000Y-114630000D03*
X120070000Y-109170000D03*
X129841168Y-112751169D03*
X120670000Y-108810000D03*
X129760000Y-114310000D03*
X118650000Y-115810000D03*
X129841168Y-110188831D03*
X127300000Y-109000000D03*
X116400000Y-108930000D03*
X128878831Y-110188831D03*
X127810000Y-105680000D03*
X97770000Y-112270000D03*
X130641169Y-110188832D03*
X130940000Y-108880000D03*
X99220000Y-112444400D03*
X113400000Y-125500000D03*
X124330000Y-112080000D03*
X112600000Y-125500000D03*
X123600000Y-112024400D03*
X111800000Y-125500000D03*
X128078831Y-111951169D03*
X120530000Y-110710000D03*
X117950000Y-110400000D03*
X128078831Y-110588831D03*
X129441169Y-110188831D03*
X123230000Y-110940000D03*
X123000000Y-113001600D03*
X128478831Y-110188832D03*
X128361807Y-111070000D03*
X125470000Y-108644400D03*
X130641169Y-112588832D03*
X131900000Y-112925599D03*
X150300000Y-100800000D03*
X130241168Y-112751169D03*
X130910000Y-113650000D03*
X130900000Y-117600000D03*
D18*
X129500000Y-118000000D02*
X133300000Y-118000000D01*
X129200000Y-117700000D02*
X129500000Y-118000000D01*
X133750000Y-106885000D02*
X141215000Y-106885000D01*
X141215000Y-106885000D02*
X147300000Y-100800000D01*
X136500000Y-118300000D02*
X137500000Y-119300000D01*
X147300000Y-100800000D02*
X147700000Y-100800000D01*
X125700000Y-106510000D02*
X125040000Y-106510000D01*
X125040000Y-106510000D02*
X124110000Y-105580000D01*
X116340000Y-105580000D02*
X115880000Y-106040000D01*
X124110000Y-105580000D02*
X116340000Y-105580000D01*
X126980000Y-115060000D02*
X130450000Y-115060000D01*
X126057511Y-114137511D02*
X126700000Y-114780000D01*
X126700000Y-114780000D02*
X126980000Y-115060000D01*
X150120000Y-119277506D02*
X150110013Y-119267519D01*
X150120000Y-119300000D02*
X150120000Y-119277506D01*
X137500000Y-119300000D02*
X150120000Y-119300000D01*
X137300000Y-124900000D02*
X137300000Y-125465685D01*
X141834315Y-130000000D02*
X141600000Y-129765685D01*
X137300000Y-125465685D02*
X141600000Y-129765685D01*
X146300000Y-130000000D02*
X141834315Y-130000000D01*
X141600000Y-129765685D02*
X141775616Y-129941301D01*
X138000000Y-125100000D02*
X142200000Y-129300000D01*
X138000000Y-124100000D02*
X138000000Y-125100000D01*
X136180000Y-128780000D02*
X136180000Y-122220000D01*
X136180000Y-128780000D02*
X136180000Y-129219950D01*
X136180000Y-129219950D02*
X142130025Y-135169975D01*
X136900000Y-121300000D02*
X136900000Y-122900000D01*
X136900000Y-122900000D02*
X136510210Y-123289790D01*
X136510210Y-123289790D02*
X136510210Y-128643224D01*
X136510210Y-128643224D02*
X142166986Y-134300000D01*
X143500000Y-136000000D02*
X142771326Y-135271326D01*
X142771326Y-135271326D02*
X142771326Y-134900000D01*
X142166986Y-134300000D02*
X142771326Y-134900000D01*
X131610000Y-112370000D02*
X131809999Y-112569999D01*
X155390800Y-121260000D02*
X156000000Y-121869200D01*
X131809999Y-112569999D02*
X132799999Y-112569999D01*
X133036289Y-112569999D02*
X138936290Y-118470000D01*
X132799999Y-112569999D02*
X133036289Y-112569999D01*
X155150001Y-120897869D02*
X152712132Y-118460000D01*
X152712132Y-118460000D02*
X149400000Y-118460000D01*
X155150001Y-121019201D02*
X155150001Y-120897869D01*
X156000000Y-121869200D02*
X155150001Y-121019201D01*
X138936290Y-118470000D02*
X149400000Y-118460000D01*
X139270000Y-118100000D02*
X154770800Y-118100000D01*
X133111399Y-111941399D02*
X139270000Y-118100000D01*
X155250800Y-118580000D02*
X156000000Y-119329200D01*
X154770800Y-118100000D02*
X155250800Y-118580000D01*
X130888601Y-111941399D02*
X133111399Y-111941399D01*
X130641169Y-112188831D02*
X130888601Y-111941399D01*
X133330000Y-113390000D02*
X138810000Y-118870000D01*
X138810000Y-118870000D02*
X138820000Y-118870000D01*
X138870000Y-118920000D02*
X139410000Y-118920000D01*
X138820000Y-118870000D02*
X138870000Y-118920000D01*
X155165400Y-123574600D02*
X155165400Y-123105400D01*
X155165400Y-123105400D02*
X154750000Y-122690000D01*
X155165400Y-123574600D02*
X156000000Y-124409200D01*
X152731066Y-118910000D02*
X152650000Y-118910000D01*
X154750000Y-120928934D02*
X152731066Y-118910000D01*
X154750000Y-122690000D02*
X154750000Y-120928934D01*
X139410000Y-118920000D02*
X152650000Y-118910000D01*
X143040000Y-137440000D02*
X143040000Y-138210000D01*
X134980000Y-129380000D02*
X143040000Y-137440000D01*
X135246435Y-121863565D02*
X134980000Y-122130000D01*
X135246435Y-121862265D02*
X135246435Y-121863565D01*
X134980000Y-122130000D02*
X134980000Y-129380000D01*
X135500000Y-121608700D02*
X135246435Y-121862265D01*
X142827600Y-112600000D02*
X142817600Y-112590000D01*
X145785000Y-112600000D02*
X142827600Y-112600000D01*
X143067218Y-113600000D02*
X142762409Y-113295191D01*
X146915000Y-113600000D02*
X143067218Y-113600000D01*
X105929400Y-121529400D02*
X105820000Y-121420000D01*
X107910000Y-121529400D02*
X105929400Y-121529400D01*
X146915000Y-111500000D02*
X146700000Y-111500000D01*
X146700000Y-111500000D02*
X144500000Y-109300000D01*
X131167158Y-108470000D02*
X131450000Y-108470000D01*
X129967158Y-107270000D02*
X131167158Y-108470000D01*
X124940000Y-107270000D02*
X129967158Y-107270000D01*
X124138601Y-106468601D02*
X124940000Y-107270000D01*
X113540000Y-106950000D02*
X114021399Y-106468601D01*
X98360000Y-112270000D02*
X98860000Y-112270000D01*
X98330000Y-112240000D02*
X98360000Y-112270000D01*
X114021399Y-106468601D02*
X124138601Y-106468601D01*
X102770000Y-108360000D02*
X105360000Y-108360000D01*
X106771601Y-106948399D02*
X113540000Y-106948399D01*
X113540000Y-106948399D02*
X113540000Y-106950000D01*
X98860000Y-112270000D02*
X102770000Y-108360000D01*
X105360000Y-108360000D02*
X106771601Y-106948399D01*
X104690000Y-119340000D02*
X107630000Y-119340000D01*
X107630000Y-119340000D02*
X107830000Y-119540000D01*
X120070000Y-109170000D02*
X120138601Y-109238601D01*
X129636108Y-112751169D02*
X129841168Y-112751169D01*
X129527638Y-112751169D02*
X129636108Y-112751169D01*
X128136469Y-111360000D02*
X129527638Y-112751169D01*
X122054940Y-111360000D02*
X128136469Y-111360000D01*
X120070000Y-109375060D02*
X122054940Y-111360000D01*
X120070000Y-109170000D02*
X120070000Y-109375060D01*
X114472410Y-108610000D02*
X114892410Y-108190000D01*
X99840000Y-112800000D02*
X103440000Y-109200000D01*
X114892410Y-108190000D02*
X129600000Y-108190000D01*
X107050000Y-109200000D02*
X107640000Y-108610000D01*
X98300000Y-112800000D02*
X99840000Y-112800000D01*
X97770000Y-112270000D02*
X98300000Y-112800000D01*
X103440000Y-109200000D02*
X107050000Y-109200000D01*
X107640000Y-108610000D02*
X114472410Y-108610000D01*
X129600000Y-108190000D02*
X129615670Y-108190000D01*
X130641169Y-109215499D02*
X130641169Y-110188832D01*
X129615670Y-108190000D02*
X130641169Y-109215499D01*
X130940000Y-108880000D02*
X130740001Y-108680001D01*
X107580000Y-107720000D02*
X106560000Y-108740000D01*
X106404810Y-108895190D02*
X107580000Y-107720000D01*
X102769210Y-108895190D02*
X106404810Y-108895190D01*
X99220000Y-112444400D02*
X102769210Y-108895190D01*
X129780000Y-107720000D02*
X130940000Y-108880000D01*
X107580000Y-107720000D02*
X129780000Y-107720000D01*
X113400000Y-118320000D02*
X119260001Y-112459999D01*
X113400000Y-125500000D02*
X113400000Y-118320000D01*
X123950001Y-112459999D02*
X124330000Y-112080000D01*
X123529999Y-112459999D02*
X123950001Y-112459999D01*
X119260001Y-112459999D02*
X123529999Y-112459999D01*
X119100000Y-112040000D02*
X112600000Y-118540000D01*
X112600000Y-118540000D02*
X112600000Y-125500000D01*
X123135600Y-112024400D02*
X123600000Y-112024400D01*
X123120000Y-112040000D02*
X123135600Y-112024400D01*
X123120000Y-112040000D02*
X119100000Y-112040000D01*
X127787662Y-111660000D02*
X128078831Y-111951169D01*
X111830000Y-118870000D02*
X119040000Y-111660000D01*
X111830000Y-122270000D02*
X111830000Y-118870000D01*
X111800000Y-125500000D02*
X111800000Y-125217158D01*
X119040000Y-111660000D02*
X127787662Y-111660000D01*
X111800000Y-125217158D02*
X111830000Y-122270000D01*
X125470000Y-108704330D02*
X125470000Y-108644400D01*
X128182202Y-111070000D02*
X128361807Y-111070000D01*
X128071302Y-111070000D02*
X128182202Y-111070000D01*
X127642835Y-110877165D02*
X127878467Y-110877165D01*
X127878467Y-110877165D02*
X128071302Y-111070000D01*
X127642835Y-110877165D02*
X125470000Y-108704330D01*
X150100001Y-100999999D02*
X150300000Y-100800000D01*
X134476237Y-107189810D02*
X143910190Y-107189810D01*
X130241168Y-111424879D02*
X134476237Y-107189810D01*
X143910190Y-107189810D02*
X150100001Y-100999999D01*
X130241168Y-112751169D02*
X130241168Y-111424879D01*
X131800000Y-114257158D02*
X131192842Y-113650000D01*
X131192842Y-113650000D02*
X130910000Y-113650000D01*
X131800000Y-116700000D02*
X131800000Y-114257158D01*
X130900000Y-117600000D02*
X131800000Y-116700000D01*
D19*
G36*
X106773000Y-101026828D02*
G01*
X106773000Y-106591218D01*
X106771600Y-106591080D01*
X106754147Y-106592799D01*
X106754138Y-106592799D01*
X106701891Y-106597945D01*
X106634861Y-106618278D01*
X106573085Y-106651298D01*
X106573083Y-106651299D01*
X106573084Y-106651299D01*
X106532501Y-106684604D01*
X106532496Y-106684609D01*
X106518938Y-106695736D01*
X106507811Y-106709294D01*
X105212707Y-108004400D01*
X102787455Y-108004400D01*
X102769999Y-108002681D01*
X102752544Y-108004400D01*
X102752537Y-108004400D01*
X102707187Y-108008867D01*
X102700289Y-108009546D01*
X102671102Y-108018400D01*
X102633260Y-108029879D01*
X102571484Y-108062899D01*
X102517337Y-108107337D01*
X102506206Y-108120900D01*
X98712707Y-111914400D01*
X98604592Y-111914400D01*
X98600539Y-111910347D01*
X98531029Y-111863902D01*
X98453793Y-111831910D01*
X98371800Y-111815600D01*
X98288200Y-111815600D01*
X98206207Y-111831910D01*
X98128971Y-111863902D01*
X98059461Y-111910347D01*
X98033898Y-111935910D01*
X97971029Y-111893902D01*
X97893793Y-111861910D01*
X97811800Y-111845600D01*
X97728200Y-111845600D01*
X97646207Y-111861910D01*
X97568971Y-111893902D01*
X97499461Y-111940347D01*
X97440347Y-111999461D01*
X97393902Y-112068971D01*
X97361910Y-112146207D01*
X97345600Y-112228200D01*
X97345600Y-112311800D01*
X97361910Y-112393793D01*
X97393902Y-112471029D01*
X97440347Y-112540539D01*
X97499461Y-112599653D01*
X97568971Y-112646098D01*
X97646207Y-112678090D01*
X97682395Y-112685288D01*
X98036210Y-113039105D01*
X98047337Y-113052663D01*
X98060895Y-113063790D01*
X98060900Y-113063795D01*
X98095078Y-113091844D01*
X98101484Y-113097101D01*
X98163260Y-113130121D01*
X98201102Y-113141600D01*
X98230289Y-113150454D01*
X98237187Y-113151133D01*
X98282537Y-113155600D01*
X98282544Y-113155600D01*
X98299999Y-113157319D01*
X98317454Y-113155600D01*
X99822545Y-113155600D01*
X99840000Y-113157319D01*
X99857455Y-113155600D01*
X99857463Y-113155600D01*
X99909710Y-113150454D01*
X99976740Y-113130121D01*
X100038516Y-113097101D01*
X100092663Y-113052663D01*
X100103799Y-113039094D01*
X101099874Y-112043019D01*
X101123902Y-112101029D01*
X101170347Y-112170539D01*
X101229461Y-112229653D01*
X101298971Y-112276098D01*
X101376207Y-112308090D01*
X101458200Y-112324400D01*
X101541800Y-112324400D01*
X101623793Y-112308090D01*
X101701029Y-112276098D01*
X101770539Y-112229653D01*
X101829653Y-112170539D01*
X101876098Y-112101029D01*
X101908090Y-112023793D01*
X101924400Y-111941800D01*
X101924400Y-111858200D01*
X101908090Y-111776207D01*
X101876098Y-111698971D01*
X101829653Y-111629461D01*
X101770539Y-111570347D01*
X101701029Y-111523902D01*
X101643020Y-111499874D01*
X103587294Y-109555600D01*
X103852882Y-109555600D01*
X103823902Y-109598971D01*
X103791910Y-109676207D01*
X103775600Y-109758200D01*
X103775600Y-109841800D01*
X103791910Y-109923793D01*
X103823902Y-110001029D01*
X103870347Y-110070539D01*
X103929461Y-110129653D01*
X103998971Y-110176098D01*
X104076207Y-110208090D01*
X104158200Y-110224400D01*
X104241800Y-110224400D01*
X104323793Y-110208090D01*
X104401029Y-110176098D01*
X104470539Y-110129653D01*
X104529653Y-110070539D01*
X104576098Y-110001029D01*
X104608090Y-109923793D01*
X104624400Y-109841800D01*
X104624400Y-109758200D01*
X104608090Y-109676207D01*
X104576098Y-109598971D01*
X104547118Y-109555600D01*
X106773000Y-109555600D01*
X106773000Y-113773000D01*
X94027334Y-113773000D01*
X94045603Y-106803278D01*
X97436327Y-106803278D01*
X97540168Y-106957899D01*
X97752034Y-107053218D01*
X97978426Y-107105373D01*
X98210643Y-107112359D01*
X98439760Y-107073907D01*
X98656973Y-106991497D01*
X98719832Y-106957899D01*
X98823673Y-106803278D01*
X98130000Y-106109605D01*
X97436327Y-106803278D01*
X94045603Y-106803278D01*
X94047681Y-106010643D01*
X96947641Y-106010643D01*
X96986093Y-106239760D01*
X97068503Y-106456973D01*
X97102101Y-106519832D01*
X97256722Y-106623673D01*
X97950395Y-105930000D01*
X98309605Y-105930000D01*
X99003278Y-106623673D01*
X99157899Y-106519832D01*
X99253218Y-106307966D01*
X99305373Y-106081574D01*
X99312359Y-105849357D01*
X99306399Y-105813839D01*
X99490600Y-105813839D01*
X99490600Y-106046161D01*
X99535923Y-106274018D01*
X99624829Y-106488656D01*
X99753900Y-106681824D01*
X99918176Y-106846100D01*
X100111344Y-106975171D01*
X100325982Y-107064077D01*
X100553839Y-107109400D01*
X100786161Y-107109400D01*
X101014018Y-107064077D01*
X101228656Y-106975171D01*
X101421824Y-106846100D01*
X101586100Y-106681824D01*
X101715171Y-106488656D01*
X101804077Y-106274018D01*
X101849400Y-106046161D01*
X101849400Y-105813839D01*
X101804077Y-105585982D01*
X101715171Y-105371344D01*
X101586100Y-105178176D01*
X101437924Y-105030000D01*
X102029249Y-105030000D01*
X102029249Y-106830000D01*
X102034644Y-106884772D01*
X102050620Y-106937439D01*
X102076564Y-106985977D01*
X102111479Y-107028521D01*
X102154023Y-107063436D01*
X102202561Y-107089380D01*
X102255228Y-107105356D01*
X102310000Y-107110751D01*
X104110000Y-107110751D01*
X104164772Y-107105356D01*
X104217439Y-107089380D01*
X104265977Y-107063436D01*
X104308521Y-107028521D01*
X104343436Y-106985977D01*
X104369380Y-106937439D01*
X104385356Y-106884772D01*
X104390751Y-106830000D01*
X104390751Y-105184539D01*
X104503920Y-105207050D01*
X104716080Y-105207050D01*
X104924164Y-105165659D01*
X105120174Y-105084469D01*
X105296579Y-104966599D01*
X105446599Y-104816579D01*
X105564469Y-104640174D01*
X105645659Y-104444164D01*
X105687050Y-104236080D01*
X105687050Y-104023920D01*
X105645659Y-103815836D01*
X105564469Y-103619826D01*
X105446599Y-103443421D01*
X105296579Y-103293401D01*
X105120174Y-103175531D01*
X104924164Y-103094341D01*
X104716080Y-103052950D01*
X104503920Y-103052950D01*
X104295836Y-103094341D01*
X104099826Y-103175531D01*
X103923421Y-103293401D01*
X103773401Y-103443421D01*
X103655531Y-103619826D01*
X103574341Y-103815836D01*
X103532950Y-104023920D01*
X103532950Y-104236080D01*
X103574341Y-104444164D01*
X103655531Y-104640174D01*
X103728413Y-104749249D01*
X102310000Y-104749249D01*
X102255228Y-104754644D01*
X102202561Y-104770620D01*
X102154023Y-104796564D01*
X102111479Y-104831479D01*
X102076564Y-104874023D01*
X102050620Y-104922561D01*
X102034644Y-104975228D01*
X102029249Y-105030000D01*
X101437924Y-105030000D01*
X101421824Y-105013900D01*
X101228656Y-104884829D01*
X101014018Y-104795923D01*
X100786161Y-104750600D01*
X100553839Y-104750600D01*
X100325982Y-104795923D01*
X100111344Y-104884829D01*
X99918176Y-105013900D01*
X99753900Y-105178176D01*
X99624829Y-105371344D01*
X99535923Y-105585982D01*
X99490600Y-105813839D01*
X99306399Y-105813839D01*
X99273907Y-105620240D01*
X99191497Y-105403027D01*
X99157899Y-105340168D01*
X99003278Y-105236327D01*
X98309605Y-105930000D01*
X97950395Y-105930000D01*
X97256722Y-105236327D01*
X97102101Y-105340168D01*
X97006782Y-105552034D01*
X96954627Y-105778426D01*
X96947641Y-106010643D01*
X94047681Y-106010643D01*
X94050181Y-105056722D01*
X97436327Y-105056722D01*
X98130000Y-105750395D01*
X98823673Y-105056722D01*
X98719832Y-104902101D01*
X98507966Y-104806782D01*
X98281574Y-104754627D01*
X98049357Y-104747641D01*
X97820240Y-104786093D01*
X97603027Y-104868503D01*
X97540168Y-104902101D01*
X97436327Y-105056722D01*
X94050181Y-105056722D01*
X94054856Y-103273839D01*
X95680600Y-103273839D01*
X95680600Y-103506161D01*
X95725923Y-103734018D01*
X95814829Y-103948656D01*
X95943900Y-104141824D01*
X96108176Y-104306100D01*
X96301344Y-104435171D01*
X96515982Y-104524077D01*
X96743839Y-104569400D01*
X96976161Y-104569400D01*
X97204018Y-104524077D01*
X97418656Y-104435171D01*
X97611824Y-104306100D01*
X97776100Y-104141824D01*
X97905171Y-103948656D01*
X97994077Y-103734018D01*
X98039400Y-103506161D01*
X98039400Y-103273839D01*
X98220600Y-103273839D01*
X98220600Y-103506161D01*
X98265923Y-103734018D01*
X98354829Y-103948656D01*
X98483900Y-104141824D01*
X98648176Y-104306100D01*
X98841344Y-104435171D01*
X99055982Y-104524077D01*
X99283839Y-104569400D01*
X99516161Y-104569400D01*
X99744018Y-104524077D01*
X99958656Y-104435171D01*
X100151824Y-104306100D01*
X100316100Y-104141824D01*
X100445171Y-103948656D01*
X100534077Y-103734018D01*
X100579400Y-103506161D01*
X100579400Y-103273839D01*
X100760600Y-103273839D01*
X100760600Y-103506161D01*
X100805923Y-103734018D01*
X100894829Y-103948656D01*
X101023900Y-104141824D01*
X101188176Y-104306100D01*
X101381344Y-104435171D01*
X101595982Y-104524077D01*
X101823839Y-104569400D01*
X102056161Y-104569400D01*
X102284018Y-104524077D01*
X102498656Y-104435171D01*
X102691824Y-104306100D01*
X102856100Y-104141824D01*
X102985171Y-103948656D01*
X103074077Y-103734018D01*
X103119400Y-103506161D01*
X103119400Y-103273839D01*
X103074077Y-103045982D01*
X102985171Y-102831344D01*
X102856100Y-102638176D01*
X102691824Y-102473900D01*
X102498656Y-102344829D01*
X102284018Y-102255923D01*
X102056161Y-102210600D01*
X101823839Y-102210600D01*
X101595982Y-102255923D01*
X101381344Y-102344829D01*
X101188176Y-102473900D01*
X101023900Y-102638176D01*
X100894829Y-102831344D01*
X100805923Y-103045982D01*
X100760600Y-103273839D01*
X100579400Y-103273839D01*
X100534077Y-103045982D01*
X100445171Y-102831344D01*
X100316100Y-102638176D01*
X100151824Y-102473900D01*
X99958656Y-102344829D01*
X99744018Y-102255923D01*
X99516161Y-102210600D01*
X99283839Y-102210600D01*
X99055982Y-102255923D01*
X98841344Y-102344829D01*
X98648176Y-102473900D01*
X98483900Y-102638176D01*
X98354829Y-102831344D01*
X98265923Y-103045982D01*
X98220600Y-103273839D01*
X98039400Y-103273839D01*
X97994077Y-103045982D01*
X97905171Y-102831344D01*
X97776100Y-102638176D01*
X97611824Y-102473900D01*
X97418656Y-102344829D01*
X97204018Y-102255923D01*
X96976161Y-102210600D01*
X96743839Y-102210600D01*
X96515982Y-102255923D01*
X96301344Y-102344829D01*
X96108176Y-102473900D01*
X95943900Y-102638176D01*
X95814829Y-102831344D01*
X95725923Y-103045982D01*
X95680600Y-103273839D01*
X94054856Y-103273839D01*
X94060792Y-101009547D01*
X106773000Y-101026828D01*
G37*
X106773000Y-101026828D02*
X106773000Y-106591218D01*
X106771600Y-106591080D01*
X106754147Y-106592799D01*
X106754138Y-106592799D01*
X106701891Y-106597945D01*
X106634861Y-106618278D01*
X106573085Y-106651298D01*
X106573083Y-106651299D01*
X106573084Y-106651299D01*
X106532501Y-106684604D01*
X106532496Y-106684609D01*
X106518938Y-106695736D01*
X106507811Y-106709294D01*
X105212707Y-108004400D01*
X102787455Y-108004400D01*
X102769999Y-108002681D01*
X102752544Y-108004400D01*
X102752537Y-108004400D01*
X102707187Y-108008867D01*
X102700289Y-108009546D01*
X102671102Y-108018400D01*
X102633260Y-108029879D01*
X102571484Y-108062899D01*
X102517337Y-108107337D01*
X102506206Y-108120900D01*
X98712707Y-111914400D01*
X98604592Y-111914400D01*
X98600539Y-111910347D01*
X98531029Y-111863902D01*
X98453793Y-111831910D01*
X98371800Y-111815600D01*
X98288200Y-111815600D01*
X98206207Y-111831910D01*
X98128971Y-111863902D01*
X98059461Y-111910347D01*
X98033898Y-111935910D01*
X97971029Y-111893902D01*
X97893793Y-111861910D01*
X97811800Y-111845600D01*
X97728200Y-111845600D01*
X97646207Y-111861910D01*
X97568971Y-111893902D01*
X97499461Y-111940347D01*
X97440347Y-111999461D01*
X97393902Y-112068971D01*
X97361910Y-112146207D01*
X97345600Y-112228200D01*
X97345600Y-112311800D01*
X97361910Y-112393793D01*
X97393902Y-112471029D01*
X97440347Y-112540539D01*
X97499461Y-112599653D01*
X97568971Y-112646098D01*
X97646207Y-112678090D01*
X97682395Y-112685288D01*
X98036210Y-113039105D01*
X98047337Y-113052663D01*
X98060895Y-113063790D01*
X98060900Y-113063795D01*
X98095078Y-113091844D01*
X98101484Y-113097101D01*
X98163260Y-113130121D01*
X98201102Y-113141600D01*
X98230289Y-113150454D01*
X98237187Y-113151133D01*
X98282537Y-113155600D01*
X98282544Y-113155600D01*
X98299999Y-113157319D01*
X98317454Y-113155600D01*
X99822545Y-113155600D01*
X99840000Y-113157319D01*
X99857455Y-113155600D01*
X99857463Y-113155600D01*
X99909710Y-113150454D01*
X99976740Y-113130121D01*
X100038516Y-113097101D01*
X100092663Y-113052663D01*
X100103799Y-113039094D01*
X101099874Y-112043019D01*
X101123902Y-112101029D01*
X101170347Y-112170539D01*
X101229461Y-112229653D01*
X101298971Y-112276098D01*
X101376207Y-112308090D01*
X101458200Y-112324400D01*
X101541800Y-112324400D01*
X101623793Y-112308090D01*
X101701029Y-112276098D01*
X101770539Y-112229653D01*
X101829653Y-112170539D01*
X101876098Y-112101029D01*
X101908090Y-112023793D01*
X101924400Y-111941800D01*
X101924400Y-111858200D01*
X101908090Y-111776207D01*
X101876098Y-111698971D01*
X101829653Y-111629461D01*
X101770539Y-111570347D01*
X101701029Y-111523902D01*
X101643020Y-111499874D01*
X103587294Y-109555600D01*
X103852882Y-109555600D01*
X103823902Y-109598971D01*
X103791910Y-109676207D01*
X103775600Y-109758200D01*
X103775600Y-109841800D01*
X103791910Y-109923793D01*
X103823902Y-110001029D01*
X103870347Y-110070539D01*
X103929461Y-110129653D01*
X103998971Y-110176098D01*
X104076207Y-110208090D01*
X104158200Y-110224400D01*
X104241800Y-110224400D01*
X104323793Y-110208090D01*
X104401029Y-110176098D01*
X104470539Y-110129653D01*
X104529653Y-110070539D01*
X104576098Y-110001029D01*
X104608090Y-109923793D01*
X104624400Y-109841800D01*
X104624400Y-109758200D01*
X104608090Y-109676207D01*
X104576098Y-109598971D01*
X104547118Y-109555600D01*
X106773000Y-109555600D01*
X106773000Y-113773000D01*
X94027334Y-113773000D01*
X94045603Y-106803278D01*
X97436327Y-106803278D01*
X97540168Y-106957899D01*
X97752034Y-107053218D01*
X97978426Y-107105373D01*
X98210643Y-107112359D01*
X98439760Y-107073907D01*
X98656973Y-106991497D01*
X98719832Y-106957899D01*
X98823673Y-106803278D01*
X98130000Y-106109605D01*
X97436327Y-106803278D01*
X94045603Y-106803278D01*
X94047681Y-106010643D01*
X96947641Y-106010643D01*
X96986093Y-106239760D01*
X97068503Y-106456973D01*
X97102101Y-106519832D01*
X97256722Y-106623673D01*
X97950395Y-105930000D01*
X98309605Y-105930000D01*
X99003278Y-106623673D01*
X99157899Y-106519832D01*
X99253218Y-106307966D01*
X99305373Y-106081574D01*
X99312359Y-105849357D01*
X99306399Y-105813839D01*
X99490600Y-105813839D01*
X99490600Y-106046161D01*
X99535923Y-106274018D01*
X99624829Y-106488656D01*
X99753900Y-106681824D01*
X99918176Y-106846100D01*
X100111344Y-106975171D01*
X100325982Y-107064077D01*
X100553839Y-107109400D01*
X100786161Y-107109400D01*
X101014018Y-107064077D01*
X101228656Y-106975171D01*
X101421824Y-106846100D01*
X101586100Y-106681824D01*
X101715171Y-106488656D01*
X101804077Y-106274018D01*
X101849400Y-106046161D01*
X101849400Y-105813839D01*
X101804077Y-105585982D01*
X101715171Y-105371344D01*
X101586100Y-105178176D01*
X101437924Y-105030000D01*
X102029249Y-105030000D01*
X102029249Y-106830000D01*
X102034644Y-106884772D01*
X102050620Y-106937439D01*
X102076564Y-106985977D01*
X102111479Y-107028521D01*
X102154023Y-107063436D01*
X102202561Y-107089380D01*
X102255228Y-107105356D01*
X102310000Y-107110751D01*
X104110000Y-107110751D01*
X104164772Y-107105356D01*
X104217439Y-107089380D01*
X104265977Y-107063436D01*
X104308521Y-107028521D01*
X104343436Y-106985977D01*
X104369380Y-106937439D01*
X104385356Y-106884772D01*
X104390751Y-106830000D01*
X104390751Y-105184539D01*
X104503920Y-105207050D01*
X104716080Y-105207050D01*
X104924164Y-105165659D01*
X105120174Y-105084469D01*
X105296579Y-104966599D01*
X105446599Y-104816579D01*
X105564469Y-104640174D01*
X105645659Y-104444164D01*
X105687050Y-104236080D01*
X105687050Y-104023920D01*
X105645659Y-103815836D01*
X105564469Y-103619826D01*
X105446599Y-103443421D01*
X105296579Y-103293401D01*
X105120174Y-103175531D01*
X104924164Y-103094341D01*
X104716080Y-103052950D01*
X104503920Y-103052950D01*
X104295836Y-103094341D01*
X104099826Y-103175531D01*
X103923421Y-103293401D01*
X103773401Y-103443421D01*
X103655531Y-103619826D01*
X103574341Y-103815836D01*
X103532950Y-104023920D01*
X103532950Y-104236080D01*
X103574341Y-104444164D01*
X103655531Y-104640174D01*
X103728413Y-104749249D01*
X102310000Y-104749249D01*
X102255228Y-104754644D01*
X102202561Y-104770620D01*
X102154023Y-104796564D01*
X102111479Y-104831479D01*
X102076564Y-104874023D01*
X102050620Y-104922561D01*
X102034644Y-104975228D01*
X102029249Y-105030000D01*
X101437924Y-105030000D01*
X101421824Y-105013900D01*
X101228656Y-104884829D01*
X101014018Y-104795923D01*
X100786161Y-104750600D01*
X100553839Y-104750600D01*
X100325982Y-104795923D01*
X100111344Y-104884829D01*
X99918176Y-105013900D01*
X99753900Y-105178176D01*
X99624829Y-105371344D01*
X99535923Y-105585982D01*
X99490600Y-105813839D01*
X99306399Y-105813839D01*
X99273907Y-105620240D01*
X99191497Y-105403027D01*
X99157899Y-105340168D01*
X99003278Y-105236327D01*
X98309605Y-105930000D01*
X97950395Y-105930000D01*
X97256722Y-105236327D01*
X97102101Y-105340168D01*
X97006782Y-105552034D01*
X96954627Y-105778426D01*
X96947641Y-106010643D01*
X94047681Y-106010643D01*
X94050181Y-105056722D01*
X97436327Y-105056722D01*
X98130000Y-105750395D01*
X98823673Y-105056722D01*
X98719832Y-104902101D01*
X98507966Y-104806782D01*
X98281574Y-104754627D01*
X98049357Y-104747641D01*
X97820240Y-104786093D01*
X97603027Y-104868503D01*
X97540168Y-104902101D01*
X97436327Y-105056722D01*
X94050181Y-105056722D01*
X94054856Y-103273839D01*
X95680600Y-103273839D01*
X95680600Y-103506161D01*
X95725923Y-103734018D01*
X95814829Y-103948656D01*
X95943900Y-104141824D01*
X96108176Y-104306100D01*
X96301344Y-104435171D01*
X96515982Y-104524077D01*
X96743839Y-104569400D01*
X96976161Y-104569400D01*
X97204018Y-104524077D01*
X97418656Y-104435171D01*
X97611824Y-104306100D01*
X97776100Y-104141824D01*
X97905171Y-103948656D01*
X97994077Y-103734018D01*
X98039400Y-103506161D01*
X98039400Y-103273839D01*
X98220600Y-103273839D01*
X98220600Y-103506161D01*
X98265923Y-103734018D01*
X98354829Y-103948656D01*
X98483900Y-104141824D01*
X98648176Y-104306100D01*
X98841344Y-104435171D01*
X99055982Y-104524077D01*
X99283839Y-104569400D01*
X99516161Y-104569400D01*
X99744018Y-104524077D01*
X99958656Y-104435171D01*
X100151824Y-104306100D01*
X100316100Y-104141824D01*
X100445171Y-103948656D01*
X100534077Y-103734018D01*
X100579400Y-103506161D01*
X100579400Y-103273839D01*
X100760600Y-103273839D01*
X100760600Y-103506161D01*
X100805923Y-103734018D01*
X100894829Y-103948656D01*
X101023900Y-104141824D01*
X101188176Y-104306100D01*
X101381344Y-104435171D01*
X101595982Y-104524077D01*
X101823839Y-104569400D01*
X102056161Y-104569400D01*
X102284018Y-104524077D01*
X102498656Y-104435171D01*
X102691824Y-104306100D01*
X102856100Y-104141824D01*
X102985171Y-103948656D01*
X103074077Y-103734018D01*
X103119400Y-103506161D01*
X103119400Y-103273839D01*
X103074077Y-103045982D01*
X102985171Y-102831344D01*
X102856100Y-102638176D01*
X102691824Y-102473900D01*
X102498656Y-102344829D01*
X102284018Y-102255923D01*
X102056161Y-102210600D01*
X101823839Y-102210600D01*
X101595982Y-102255923D01*
X101381344Y-102344829D01*
X101188176Y-102473900D01*
X101023900Y-102638176D01*
X100894829Y-102831344D01*
X100805923Y-103045982D01*
X100760600Y-103273839D01*
X100579400Y-103273839D01*
X100534077Y-103045982D01*
X100445171Y-102831344D01*
X100316100Y-102638176D01*
X100151824Y-102473900D01*
X99958656Y-102344829D01*
X99744018Y-102255923D01*
X99516161Y-102210600D01*
X99283839Y-102210600D01*
X99055982Y-102255923D01*
X98841344Y-102344829D01*
X98648176Y-102473900D01*
X98483900Y-102638176D01*
X98354829Y-102831344D01*
X98265923Y-103045982D01*
X98220600Y-103273839D01*
X98039400Y-103273839D01*
X97994077Y-103045982D01*
X97905171Y-102831344D01*
X97776100Y-102638176D01*
X97611824Y-102473900D01*
X97418656Y-102344829D01*
X97204018Y-102255923D01*
X96976161Y-102210600D01*
X96743839Y-102210600D01*
X96515982Y-102255923D01*
X96301344Y-102344829D01*
X96108176Y-102473900D01*
X95943900Y-102638176D01*
X95814829Y-102831344D01*
X95725923Y-103045982D01*
X95680600Y-103273839D01*
X94054856Y-103273839D01*
X94060792Y-101009547D01*
X106773000Y-101026828D01*
G36*
X141357618Y-127954724D02*
G01*
X138355600Y-124952707D01*
X138355600Y-124331706D01*
X138376098Y-124301029D01*
X138408090Y-124223793D01*
X138424400Y-124141800D01*
X138424400Y-124058200D01*
X138408090Y-123976207D01*
X138376098Y-123898971D01*
X138329653Y-123829461D01*
X138270539Y-123770347D01*
X138201029Y-123723902D01*
X138123793Y-123691910D01*
X138041800Y-123675600D01*
X137958200Y-123675600D01*
X137876207Y-123691910D01*
X137798971Y-123723902D01*
X137729461Y-123770347D01*
X137670347Y-123829461D01*
X137623902Y-123898971D01*
X137591910Y-123976207D01*
X137575600Y-124058200D01*
X137575600Y-124141800D01*
X137591910Y-124223793D01*
X137623902Y-124301029D01*
X137644400Y-124331707D01*
X137644401Y-124651532D01*
X137629653Y-124629461D01*
X137570539Y-124570347D01*
X137501029Y-124523902D01*
X137423793Y-124491910D01*
X137341800Y-124475600D01*
X137258200Y-124475600D01*
X137176207Y-124491910D01*
X137098971Y-124523902D01*
X137029461Y-124570347D01*
X136970347Y-124629461D01*
X136923902Y-124698971D01*
X136891910Y-124776207D01*
X136875600Y-124858200D01*
X136875600Y-124941800D01*
X136891910Y-125023793D01*
X136923902Y-125101029D01*
X136944400Y-125131707D01*
X136944401Y-125448220D01*
X136942681Y-125465685D01*
X136949546Y-125535395D01*
X136969880Y-125602426D01*
X136979562Y-125620539D01*
X137002900Y-125664201D01*
X137047338Y-125718348D01*
X137060901Y-125729479D01*
X141360900Y-130029480D01*
X141360911Y-130029489D01*
X141379892Y-130048470D01*
X141411736Y-133041856D01*
X136865810Y-128495931D01*
X136865810Y-123437084D01*
X137139105Y-123163790D01*
X137152663Y-123152663D01*
X137163790Y-123139105D01*
X137163795Y-123139100D01*
X137197100Y-123098517D01*
X137230120Y-123036742D01*
X137230121Y-123036740D01*
X137250454Y-122969710D01*
X137255600Y-122917463D01*
X137255600Y-122917454D01*
X137257319Y-122900001D01*
X137255600Y-122882548D01*
X137255600Y-121531706D01*
X137276098Y-121501029D01*
X137308090Y-121423793D01*
X137324400Y-121341800D01*
X137324400Y-121258200D01*
X137308090Y-121176207D01*
X137276098Y-121098971D01*
X137229653Y-121029461D01*
X137170539Y-120970347D01*
X137101029Y-120923902D01*
X137023793Y-120891910D01*
X136941800Y-120875600D01*
X136858200Y-120875600D01*
X136776207Y-120891910D01*
X136698971Y-120923902D01*
X136629461Y-120970347D01*
X136570347Y-121029461D01*
X136523902Y-121098971D01*
X136491910Y-121176207D01*
X136475600Y-121258200D01*
X136475600Y-121341800D01*
X136491910Y-121423793D01*
X136523902Y-121501029D01*
X136544400Y-121531707D01*
X136544400Y-122001464D01*
X136509653Y-121949461D01*
X136450539Y-121890347D01*
X136381029Y-121843902D01*
X136303793Y-121811910D01*
X136221800Y-121795600D01*
X136138200Y-121795600D01*
X136056207Y-121811910D01*
X135978971Y-121843902D01*
X135909461Y-121890347D01*
X135850347Y-121949461D01*
X135803902Y-122018971D01*
X135771910Y-122096207D01*
X135755600Y-122178200D01*
X135755600Y-122261800D01*
X135771910Y-122343793D01*
X135803902Y-122421029D01*
X135824401Y-122451708D01*
X135824401Y-123208249D01*
X135818575Y-123202423D01*
X135749065Y-123155978D01*
X135671829Y-123123986D01*
X135589836Y-123107676D01*
X135506236Y-123107676D01*
X135424243Y-123123986D01*
X135347007Y-123155978D01*
X135335600Y-123163600D01*
X135335600Y-122277293D01*
X135485538Y-122127355D01*
X135499098Y-122116227D01*
X135510225Y-122102669D01*
X135510230Y-122102664D01*
X135516183Y-122095411D01*
X135587605Y-122023988D01*
X135623793Y-122016790D01*
X135701029Y-121984798D01*
X135770539Y-121938353D01*
X135829653Y-121879239D01*
X135876098Y-121809729D01*
X135908090Y-121732493D01*
X135924400Y-121650500D01*
X135924400Y-121566900D01*
X135908090Y-121484907D01*
X135876098Y-121407671D01*
X135829653Y-121338161D01*
X135770539Y-121279047D01*
X135701029Y-121232602D01*
X135623793Y-121200610D01*
X135541800Y-121184300D01*
X135458200Y-121184300D01*
X135376207Y-121200610D01*
X135298971Y-121232602D01*
X135229461Y-121279047D01*
X135170347Y-121338161D01*
X135123902Y-121407671D01*
X135091910Y-121484907D01*
X135084712Y-121521095D01*
X135007336Y-121598471D01*
X134993772Y-121609603D01*
X134976695Y-121630411D01*
X134740901Y-121866206D01*
X134727337Y-121877338D01*
X134682899Y-121931485D01*
X134649879Y-121993261D01*
X134629546Y-122060291D01*
X134624400Y-122112538D01*
X134624400Y-122112545D01*
X134622681Y-122130000D01*
X134624400Y-122147455D01*
X134624400Y-124891607D01*
X134570539Y-124837746D01*
X134501029Y-124791301D01*
X134423793Y-124759309D01*
X134341800Y-124742999D01*
X134258200Y-124742999D01*
X134176207Y-124759309D01*
X134098971Y-124791301D01*
X134029461Y-124837746D01*
X133970347Y-124896860D01*
X133923902Y-124966370D01*
X133891910Y-125043606D01*
X133875600Y-125125599D01*
X133875600Y-125209199D01*
X133891910Y-125291192D01*
X133923902Y-125368428D01*
X133970347Y-125437938D01*
X134029461Y-125497052D01*
X134098971Y-125543497D01*
X134176207Y-125575489D01*
X134258200Y-125591799D01*
X134341800Y-125591799D01*
X134423793Y-125575489D01*
X134501029Y-125543497D01*
X134570539Y-125497052D01*
X134624400Y-125443191D01*
X134624401Y-129362534D01*
X134622681Y-129380000D01*
X134629546Y-129449710D01*
X134649880Y-129516741D01*
X134650046Y-129517051D01*
X134682900Y-129578516D01*
X134727338Y-129632663D01*
X134740901Y-129643794D01*
X135770107Y-130673000D01*
X123400000Y-130673000D01*
X123375224Y-130675440D01*
X123351399Y-130682667D01*
X123329443Y-130694403D01*
X123317165Y-130703733D01*
X119052882Y-134373000D01*
X112927000Y-134373000D01*
X112927000Y-130185536D01*
X117530629Y-128318200D01*
X132475600Y-128318200D01*
X132475600Y-128401800D01*
X132491910Y-128483793D01*
X132523902Y-128561029D01*
X132570347Y-128630539D01*
X132629461Y-128689653D01*
X132698971Y-128736098D01*
X132776207Y-128768090D01*
X132858200Y-128784400D01*
X132941800Y-128784400D01*
X133023793Y-128768090D01*
X133101029Y-128736098D01*
X133170539Y-128689653D01*
X133229653Y-128630539D01*
X133276098Y-128561029D01*
X133308090Y-128483793D01*
X133324400Y-128401800D01*
X133324400Y-128318200D01*
X133308090Y-128236207D01*
X133276098Y-128158971D01*
X133229653Y-128089461D01*
X133170539Y-128030347D01*
X133101029Y-127983902D01*
X133023793Y-127951910D01*
X132941800Y-127935600D01*
X132858200Y-127935600D01*
X132776207Y-127951910D01*
X132698971Y-127983902D01*
X132629461Y-128030347D01*
X132570347Y-128089461D01*
X132523902Y-128158971D01*
X132491910Y-128236207D01*
X132475600Y-128318200D01*
X117530629Y-128318200D01*
X121598451Y-126668200D01*
X131125600Y-126668200D01*
X131125600Y-126751800D01*
X131141910Y-126833793D01*
X131173902Y-126911029D01*
X131220347Y-126980539D01*
X131279461Y-127039653D01*
X131348971Y-127086098D01*
X131426207Y-127118090D01*
X131508200Y-127134400D01*
X131591800Y-127134400D01*
X131673793Y-127118090D01*
X131751029Y-127086098D01*
X131820539Y-127039653D01*
X131879653Y-126980539D01*
X131926098Y-126911029D01*
X131958090Y-126833793D01*
X131974400Y-126751800D01*
X131974400Y-126668200D01*
X131958090Y-126586207D01*
X131926098Y-126508971D01*
X131917589Y-126496236D01*
X131946207Y-126508090D01*
X132028200Y-126524400D01*
X132111800Y-126524400D01*
X132193793Y-126508090D01*
X132271029Y-126476098D01*
X132340539Y-126429653D01*
X132399653Y-126370539D01*
X132446098Y-126301029D01*
X132478090Y-126223793D01*
X132481191Y-126208200D01*
X132635600Y-126208200D01*
X132635600Y-126291800D01*
X132651910Y-126373793D01*
X132683902Y-126451029D01*
X132730347Y-126520539D01*
X132789461Y-126579653D01*
X132858971Y-126626098D01*
X132936207Y-126658090D01*
X133018200Y-126674400D01*
X133101800Y-126674400D01*
X133183793Y-126658090D01*
X133261029Y-126626098D01*
X133330539Y-126579653D01*
X133389653Y-126520539D01*
X133436098Y-126451029D01*
X133468090Y-126373793D01*
X133484400Y-126291800D01*
X133484400Y-126208200D01*
X133468090Y-126126207D01*
X133436098Y-126048971D01*
X133389653Y-125979461D01*
X133330539Y-125920347D01*
X133261029Y-125873902D01*
X133183793Y-125841910D01*
X133101800Y-125825600D01*
X133018200Y-125825600D01*
X132936207Y-125841910D01*
X132858971Y-125873902D01*
X132789461Y-125920347D01*
X132730347Y-125979461D01*
X132683902Y-126048971D01*
X132651910Y-126126207D01*
X132635600Y-126208200D01*
X132481191Y-126208200D01*
X132494400Y-126141800D01*
X132494400Y-126058200D01*
X132478090Y-125976207D01*
X132446098Y-125898971D01*
X132399653Y-125829461D01*
X132340539Y-125770347D01*
X132271029Y-125723902D01*
X132193793Y-125691910D01*
X132111800Y-125675600D01*
X132028200Y-125675600D01*
X131946207Y-125691910D01*
X131868971Y-125723902D01*
X131799461Y-125770347D01*
X131740347Y-125829461D01*
X131693902Y-125898971D01*
X131661910Y-125976207D01*
X131645600Y-126058200D01*
X131645600Y-126141800D01*
X131661910Y-126223793D01*
X131693902Y-126301029D01*
X131702411Y-126313764D01*
X131673793Y-126301910D01*
X131591800Y-126285600D01*
X131508200Y-126285600D01*
X131426207Y-126301910D01*
X131348971Y-126333902D01*
X131279461Y-126380347D01*
X131220347Y-126439461D01*
X131173902Y-126508971D01*
X131141910Y-126586207D01*
X131125600Y-126668200D01*
X121598451Y-126668200D01*
X123718649Y-125808200D01*
X125575600Y-125808200D01*
X125575600Y-125891800D01*
X125591910Y-125973793D01*
X125623902Y-126051029D01*
X125670347Y-126120539D01*
X125729461Y-126179653D01*
X125798971Y-126226098D01*
X125876207Y-126258090D01*
X125958200Y-126274400D01*
X126041800Y-126274400D01*
X126123793Y-126258090D01*
X126201029Y-126226098D01*
X126270539Y-126179653D01*
X126329653Y-126120539D01*
X126376098Y-126051029D01*
X126408090Y-125973793D01*
X126424400Y-125891800D01*
X126424400Y-125808200D01*
X126408090Y-125726207D01*
X126376098Y-125648971D01*
X126329653Y-125579461D01*
X126270539Y-125520347D01*
X126201029Y-125473902D01*
X126123793Y-125441910D01*
X126041800Y-125425600D01*
X125958200Y-125425600D01*
X125876207Y-125441910D01*
X125798971Y-125473902D01*
X125729461Y-125520347D01*
X125670347Y-125579461D01*
X125623902Y-125648971D01*
X125591910Y-125726207D01*
X125575600Y-125808200D01*
X123718649Y-125808200D01*
X124951322Y-125308200D01*
X127865600Y-125308200D01*
X127865600Y-125391800D01*
X127881910Y-125473793D01*
X127913902Y-125551029D01*
X127960347Y-125620539D01*
X128019461Y-125679653D01*
X128088971Y-125726098D01*
X128166207Y-125758090D01*
X128248200Y-125774400D01*
X128331800Y-125774400D01*
X128413793Y-125758090D01*
X128491029Y-125726098D01*
X128560539Y-125679653D01*
X128619653Y-125620539D01*
X128666098Y-125551029D01*
X128698090Y-125473793D01*
X128714400Y-125391800D01*
X128714400Y-125308200D01*
X128698090Y-125226207D01*
X128666098Y-125148971D01*
X128619653Y-125079461D01*
X128560539Y-125020347D01*
X128491029Y-124973902D01*
X128413793Y-124941910D01*
X128331800Y-124925600D01*
X128248200Y-124925600D01*
X128166207Y-124941910D01*
X128088971Y-124973902D01*
X128019461Y-125020347D01*
X127960347Y-125079461D01*
X127913902Y-125148971D01*
X127881910Y-125226207D01*
X127865600Y-125308200D01*
X124951322Y-125308200D01*
X137724776Y-120127000D01*
X141274344Y-120127000D01*
X141357618Y-127954724D01*
G37*
X141357618Y-127954724D02*
X138355600Y-124952707D01*
X138355600Y-124331706D01*
X138376098Y-124301029D01*
X138408090Y-124223793D01*
X138424400Y-124141800D01*
X138424400Y-124058200D01*
X138408090Y-123976207D01*
X138376098Y-123898971D01*
X138329653Y-123829461D01*
X138270539Y-123770347D01*
X138201029Y-123723902D01*
X138123793Y-123691910D01*
X138041800Y-123675600D01*
X137958200Y-123675600D01*
X137876207Y-123691910D01*
X137798971Y-123723902D01*
X137729461Y-123770347D01*
X137670347Y-123829461D01*
X137623902Y-123898971D01*
X137591910Y-123976207D01*
X137575600Y-124058200D01*
X137575600Y-124141800D01*
X137591910Y-124223793D01*
X137623902Y-124301029D01*
X137644400Y-124331707D01*
X137644401Y-124651532D01*
X137629653Y-124629461D01*
X137570539Y-124570347D01*
X137501029Y-124523902D01*
X137423793Y-124491910D01*
X137341800Y-124475600D01*
X137258200Y-124475600D01*
X137176207Y-124491910D01*
X137098971Y-124523902D01*
X137029461Y-124570347D01*
X136970347Y-124629461D01*
X136923902Y-124698971D01*
X136891910Y-124776207D01*
X136875600Y-124858200D01*
X136875600Y-124941800D01*
X136891910Y-125023793D01*
X136923902Y-125101029D01*
X136944400Y-125131707D01*
X136944401Y-125448220D01*
X136942681Y-125465685D01*
X136949546Y-125535395D01*
X136969880Y-125602426D01*
X136979562Y-125620539D01*
X137002900Y-125664201D01*
X137047338Y-125718348D01*
X137060901Y-125729479D01*
X141360900Y-130029480D01*
X141360911Y-130029489D01*
X141379892Y-130048470D01*
X141411736Y-133041856D01*
X136865810Y-128495931D01*
X136865810Y-123437084D01*
X137139105Y-123163790D01*
X137152663Y-123152663D01*
X137163790Y-123139105D01*
X137163795Y-123139100D01*
X137197100Y-123098517D01*
X137230120Y-123036742D01*
X137230121Y-123036740D01*
X137250454Y-122969710D01*
X137255600Y-122917463D01*
X137255600Y-122917454D01*
X137257319Y-122900001D01*
X137255600Y-122882548D01*
X137255600Y-121531706D01*
X137276098Y-121501029D01*
X137308090Y-121423793D01*
X137324400Y-121341800D01*
X137324400Y-121258200D01*
X137308090Y-121176207D01*
X137276098Y-121098971D01*
X137229653Y-121029461D01*
X137170539Y-120970347D01*
X137101029Y-120923902D01*
X137023793Y-120891910D01*
X136941800Y-120875600D01*
X136858200Y-120875600D01*
X136776207Y-120891910D01*
X136698971Y-120923902D01*
X136629461Y-120970347D01*
X136570347Y-121029461D01*
X136523902Y-121098971D01*
X136491910Y-121176207D01*
X136475600Y-121258200D01*
X136475600Y-121341800D01*
X136491910Y-121423793D01*
X136523902Y-121501029D01*
X136544400Y-121531707D01*
X136544400Y-122001464D01*
X136509653Y-121949461D01*
X136450539Y-121890347D01*
X136381029Y-121843902D01*
X136303793Y-121811910D01*
X136221800Y-121795600D01*
X136138200Y-121795600D01*
X136056207Y-121811910D01*
X135978971Y-121843902D01*
X135909461Y-121890347D01*
X135850347Y-121949461D01*
X135803902Y-122018971D01*
X135771910Y-122096207D01*
X135755600Y-122178200D01*
X135755600Y-122261800D01*
X135771910Y-122343793D01*
X135803902Y-122421029D01*
X135824401Y-122451708D01*
X135824401Y-123208249D01*
X135818575Y-123202423D01*
X135749065Y-123155978D01*
X135671829Y-123123986D01*
X135589836Y-123107676D01*
X135506236Y-123107676D01*
X135424243Y-123123986D01*
X135347007Y-123155978D01*
X135335600Y-123163600D01*
X135335600Y-122277293D01*
X135485538Y-122127355D01*
X135499098Y-122116227D01*
X135510225Y-122102669D01*
X135510230Y-122102664D01*
X135516183Y-122095411D01*
X135587605Y-122023988D01*
X135623793Y-122016790D01*
X135701029Y-121984798D01*
X135770539Y-121938353D01*
X135829653Y-121879239D01*
X135876098Y-121809729D01*
X135908090Y-121732493D01*
X135924400Y-121650500D01*
X135924400Y-121566900D01*
X135908090Y-121484907D01*
X135876098Y-121407671D01*
X135829653Y-121338161D01*
X135770539Y-121279047D01*
X135701029Y-121232602D01*
X135623793Y-121200610D01*
X135541800Y-121184300D01*
X135458200Y-121184300D01*
X135376207Y-121200610D01*
X135298971Y-121232602D01*
X135229461Y-121279047D01*
X135170347Y-121338161D01*
X135123902Y-121407671D01*
X135091910Y-121484907D01*
X135084712Y-121521095D01*
X135007336Y-121598471D01*
X134993772Y-121609603D01*
X134976695Y-121630411D01*
X134740901Y-121866206D01*
X134727337Y-121877338D01*
X134682899Y-121931485D01*
X134649879Y-121993261D01*
X134629546Y-122060291D01*
X134624400Y-122112538D01*
X134624400Y-122112545D01*
X134622681Y-122130000D01*
X134624400Y-122147455D01*
X134624400Y-124891607D01*
X134570539Y-124837746D01*
X134501029Y-124791301D01*
X134423793Y-124759309D01*
X134341800Y-124742999D01*
X134258200Y-124742999D01*
X134176207Y-124759309D01*
X134098971Y-124791301D01*
X134029461Y-124837746D01*
X133970347Y-124896860D01*
X133923902Y-124966370D01*
X133891910Y-125043606D01*
X133875600Y-125125599D01*
X133875600Y-125209199D01*
X133891910Y-125291192D01*
X133923902Y-125368428D01*
X133970347Y-125437938D01*
X134029461Y-125497052D01*
X134098971Y-125543497D01*
X134176207Y-125575489D01*
X134258200Y-125591799D01*
X134341800Y-125591799D01*
X134423793Y-125575489D01*
X134501029Y-125543497D01*
X134570539Y-125497052D01*
X134624400Y-125443191D01*
X134624401Y-129362534D01*
X134622681Y-129380000D01*
X134629546Y-129449710D01*
X134649880Y-129516741D01*
X134650046Y-129517051D01*
X134682900Y-129578516D01*
X134727338Y-129632663D01*
X134740901Y-129643794D01*
X135770107Y-130673000D01*
X123400000Y-130673000D01*
X123375224Y-130675440D01*
X123351399Y-130682667D01*
X123329443Y-130694403D01*
X123317165Y-130703733D01*
X119052882Y-134373000D01*
X112927000Y-134373000D01*
X112927000Y-130185536D01*
X117530629Y-128318200D01*
X132475600Y-128318200D01*
X132475600Y-128401800D01*
X132491910Y-128483793D01*
X132523902Y-128561029D01*
X132570347Y-128630539D01*
X132629461Y-128689653D01*
X132698971Y-128736098D01*
X132776207Y-128768090D01*
X132858200Y-128784400D01*
X132941800Y-128784400D01*
X133023793Y-128768090D01*
X133101029Y-128736098D01*
X133170539Y-128689653D01*
X133229653Y-128630539D01*
X133276098Y-128561029D01*
X133308090Y-128483793D01*
X133324400Y-128401800D01*
X133324400Y-128318200D01*
X133308090Y-128236207D01*
X133276098Y-128158971D01*
X133229653Y-128089461D01*
X133170539Y-128030347D01*
X133101029Y-127983902D01*
X133023793Y-127951910D01*
X132941800Y-127935600D01*
X132858200Y-127935600D01*
X132776207Y-127951910D01*
X132698971Y-127983902D01*
X132629461Y-128030347D01*
X132570347Y-128089461D01*
X132523902Y-128158971D01*
X132491910Y-128236207D01*
X132475600Y-128318200D01*
X117530629Y-128318200D01*
X121598451Y-126668200D01*
X131125600Y-126668200D01*
X131125600Y-126751800D01*
X131141910Y-126833793D01*
X131173902Y-126911029D01*
X131220347Y-126980539D01*
X131279461Y-127039653D01*
X131348971Y-127086098D01*
X131426207Y-127118090D01*
X131508200Y-127134400D01*
X131591800Y-127134400D01*
X131673793Y-127118090D01*
X131751029Y-127086098D01*
X131820539Y-127039653D01*
X131879653Y-126980539D01*
X131926098Y-126911029D01*
X131958090Y-126833793D01*
X131974400Y-126751800D01*
X131974400Y-126668200D01*
X131958090Y-126586207D01*
X131926098Y-126508971D01*
X131917589Y-126496236D01*
X131946207Y-126508090D01*
X132028200Y-126524400D01*
X132111800Y-126524400D01*
X132193793Y-126508090D01*
X132271029Y-126476098D01*
X132340539Y-126429653D01*
X132399653Y-126370539D01*
X132446098Y-126301029D01*
X132478090Y-126223793D01*
X132481191Y-126208200D01*
X132635600Y-126208200D01*
X132635600Y-126291800D01*
X132651910Y-126373793D01*
X132683902Y-126451029D01*
X132730347Y-126520539D01*
X132789461Y-126579653D01*
X132858971Y-126626098D01*
X132936207Y-126658090D01*
X133018200Y-126674400D01*
X133101800Y-126674400D01*
X133183793Y-126658090D01*
X133261029Y-126626098D01*
X133330539Y-126579653D01*
X133389653Y-126520539D01*
X133436098Y-126451029D01*
X133468090Y-126373793D01*
X133484400Y-126291800D01*
X133484400Y-126208200D01*
X133468090Y-126126207D01*
X133436098Y-126048971D01*
X133389653Y-125979461D01*
X133330539Y-125920347D01*
X133261029Y-125873902D01*
X133183793Y-125841910D01*
X133101800Y-125825600D01*
X133018200Y-125825600D01*
X132936207Y-125841910D01*
X132858971Y-125873902D01*
X132789461Y-125920347D01*
X132730347Y-125979461D01*
X132683902Y-126048971D01*
X132651910Y-126126207D01*
X132635600Y-126208200D01*
X132481191Y-126208200D01*
X132494400Y-126141800D01*
X132494400Y-126058200D01*
X132478090Y-125976207D01*
X132446098Y-125898971D01*
X132399653Y-125829461D01*
X132340539Y-125770347D01*
X132271029Y-125723902D01*
X132193793Y-125691910D01*
X132111800Y-125675600D01*
X132028200Y-125675600D01*
X131946207Y-125691910D01*
X131868971Y-125723902D01*
X131799461Y-125770347D01*
X131740347Y-125829461D01*
X131693902Y-125898971D01*
X131661910Y-125976207D01*
X131645600Y-126058200D01*
X131645600Y-126141800D01*
X131661910Y-126223793D01*
X131693902Y-126301029D01*
X131702411Y-126313764D01*
X131673793Y-126301910D01*
X131591800Y-126285600D01*
X131508200Y-126285600D01*
X131426207Y-126301910D01*
X131348971Y-126333902D01*
X131279461Y-126380347D01*
X131220347Y-126439461D01*
X131173902Y-126508971D01*
X131141910Y-126586207D01*
X131125600Y-126668200D01*
X121598451Y-126668200D01*
X123718649Y-125808200D01*
X125575600Y-125808200D01*
X125575600Y-125891800D01*
X125591910Y-125973793D01*
X125623902Y-126051029D01*
X125670347Y-126120539D01*
X125729461Y-126179653D01*
X125798971Y-126226098D01*
X125876207Y-126258090D01*
X125958200Y-126274400D01*
X126041800Y-126274400D01*
X126123793Y-126258090D01*
X126201029Y-126226098D01*
X126270539Y-126179653D01*
X126329653Y-126120539D01*
X126376098Y-126051029D01*
X126408090Y-125973793D01*
X126424400Y-125891800D01*
X126424400Y-125808200D01*
X126408090Y-125726207D01*
X126376098Y-125648971D01*
X126329653Y-125579461D01*
X126270539Y-125520347D01*
X126201029Y-125473902D01*
X126123793Y-125441910D01*
X126041800Y-125425600D01*
X125958200Y-125425600D01*
X125876207Y-125441910D01*
X125798971Y-125473902D01*
X125729461Y-125520347D01*
X125670347Y-125579461D01*
X125623902Y-125648971D01*
X125591910Y-125726207D01*
X125575600Y-125808200D01*
X123718649Y-125808200D01*
X124951322Y-125308200D01*
X127865600Y-125308200D01*
X127865600Y-125391800D01*
X127881910Y-125473793D01*
X127913902Y-125551029D01*
X127960347Y-125620539D01*
X128019461Y-125679653D01*
X128088971Y-125726098D01*
X128166207Y-125758090D01*
X128248200Y-125774400D01*
X128331800Y-125774400D01*
X128413793Y-125758090D01*
X128491029Y-125726098D01*
X128560539Y-125679653D01*
X128619653Y-125620539D01*
X128666098Y-125551029D01*
X128698090Y-125473793D01*
X128714400Y-125391800D01*
X128714400Y-125308200D01*
X128698090Y-125226207D01*
X128666098Y-125148971D01*
X128619653Y-125079461D01*
X128560539Y-125020347D01*
X128491029Y-124973902D01*
X128413793Y-124941910D01*
X128331800Y-124925600D01*
X128248200Y-124925600D01*
X128166207Y-124941910D01*
X128088971Y-124973902D01*
X128019461Y-125020347D01*
X127960347Y-125079461D01*
X127913902Y-125148971D01*
X127881910Y-125226207D01*
X127865600Y-125308200D01*
X124951322Y-125308200D01*
X137724776Y-120127000D01*
X141274344Y-120127000D01*
X141357618Y-127954724D01*
G36*
X154419801Y-121065708D02*
G01*
X154419800Y-122673787D01*
X154418203Y-122690000D01*
X154419800Y-122706213D01*
X154419800Y-122706214D01*
X154424578Y-122754729D01*
X154443460Y-122816972D01*
X154453926Y-122836553D01*
X154474121Y-122874337D01*
X154481541Y-122883378D01*
X154515384Y-122924616D01*
X154527987Y-122934959D01*
X154835201Y-123242174D01*
X154835200Y-123558387D01*
X154833603Y-123574600D01*
X154835200Y-123590813D01*
X154835200Y-123590814D01*
X154839978Y-123639329D01*
X154858860Y-123701572D01*
X154858861Y-123701573D01*
X154873000Y-123728027D01*
X154873000Y-130800000D01*
X154875440Y-130824776D01*
X154882667Y-130848601D01*
X154894403Y-130870557D01*
X154910197Y-130889803D01*
X154929443Y-130905597D01*
X154951399Y-130917333D01*
X154975224Y-130924560D01*
X155000000Y-130927000D01*
X157673000Y-130927000D01*
X157673000Y-133173000D01*
X154776073Y-133173000D01*
X151011971Y-126140072D01*
X150998128Y-126119379D01*
X150980514Y-126101784D01*
X150959806Y-126087963D01*
X150936800Y-126078449D01*
X150900000Y-126073000D01*
X142027000Y-126073000D01*
X142027000Y-124627000D01*
X148200000Y-124627000D01*
X148224776Y-124624560D01*
X148248601Y-124617333D01*
X148270557Y-124605597D01*
X148289803Y-124589803D01*
X148305597Y-124570557D01*
X148317333Y-124548601D01*
X148324560Y-124524776D01*
X148327000Y-124500000D01*
X148327000Y-120127000D01*
X153481093Y-120127000D01*
X154419801Y-121065708D01*
G37*
X154419801Y-121065708D02*
X154419800Y-122673787D01*
X154418203Y-122690000D01*
X154419800Y-122706213D01*
X154419800Y-122706214D01*
X154424578Y-122754729D01*
X154443460Y-122816972D01*
X154453926Y-122836553D01*
X154474121Y-122874337D01*
X154481541Y-122883378D01*
X154515384Y-122924616D01*
X154527987Y-122934959D01*
X154835201Y-123242174D01*
X154835200Y-123558387D01*
X154833603Y-123574600D01*
X154835200Y-123590813D01*
X154835200Y-123590814D01*
X154839978Y-123639329D01*
X154858860Y-123701572D01*
X154858861Y-123701573D01*
X154873000Y-123728027D01*
X154873000Y-130800000D01*
X154875440Y-130824776D01*
X154882667Y-130848601D01*
X154894403Y-130870557D01*
X154910197Y-130889803D01*
X154929443Y-130905597D01*
X154951399Y-130917333D01*
X154975224Y-130924560D01*
X155000000Y-130927000D01*
X157673000Y-130927000D01*
X157673000Y-133173000D01*
X154776073Y-133173000D01*
X151011971Y-126140072D01*
X150998128Y-126119379D01*
X150980514Y-126101784D01*
X150959806Y-126087963D01*
X150936800Y-126078449D01*
X150900000Y-126073000D01*
X142027000Y-126073000D01*
X142027000Y-124627000D01*
X148200000Y-124627000D01*
X148224776Y-124624560D01*
X148248601Y-124617333D01*
X148270557Y-124605597D01*
X148289803Y-124589803D01*
X148305597Y-124570557D01*
X148317333Y-124548601D01*
X148324560Y-124524776D01*
X148327000Y-124500000D01*
X148327000Y-120127000D01*
X153481093Y-120127000D01*
X154419801Y-121065708D01*
G36*
X154488029Y-133559928D02*
G01*
X154501872Y-133580621D01*
X154519486Y-133598216D01*
X154540194Y-133612037D01*
X154563200Y-133621551D01*
X154600000Y-133627000D01*
X157673000Y-133627000D01*
X157673000Y-135673000D01*
X154253686Y-135673000D01*
X150891094Y-132211508D01*
X150872080Y-132195437D01*
X150850296Y-132183384D01*
X150826579Y-132175812D01*
X150800000Y-132173000D01*
X142027000Y-132173000D01*
X142027000Y-130678012D01*
X148198992Y-130726996D01*
X148223787Y-130724752D01*
X148247668Y-130717715D01*
X148269717Y-130706153D01*
X148289087Y-130690512D01*
X148305033Y-130671393D01*
X148316943Y-130649530D01*
X148324359Y-130625764D01*
X148327000Y-130600000D01*
X148327000Y-126527000D01*
X150723927Y-126527000D01*
X154488029Y-133559928D01*
G37*
X154488029Y-133559928D02*
X154501872Y-133580621D01*
X154519486Y-133598216D01*
X154540194Y-133612037D01*
X154563200Y-133621551D01*
X154600000Y-133627000D01*
X157673000Y-133627000D01*
X157673000Y-135673000D01*
X154253686Y-135673000D01*
X150891094Y-132211508D01*
X150872080Y-132195437D01*
X150850296Y-132183384D01*
X150826579Y-132175812D01*
X150800000Y-132173000D01*
X142027000Y-132173000D01*
X142027000Y-130678012D01*
X148198992Y-130726996D01*
X148223787Y-130724752D01*
X148247668Y-130717715D01*
X148269717Y-130706153D01*
X148289087Y-130690512D01*
X148305033Y-130671393D01*
X148316943Y-130649530D01*
X148324359Y-130625764D01*
X148327000Y-130600000D01*
X148327000Y-126527000D01*
X150723927Y-126527000D01*
X154488029Y-133559928D01*
G36*
X154008906Y-136088492D02*
G01*
X154027920Y-136104563D01*
X154049704Y-136116616D01*
X154073421Y-136124188D01*
X154100000Y-136127000D01*
X157673455Y-136127000D01*
X157682544Y-138663000D01*
X142036470Y-138663000D01*
X142027533Y-136527000D01*
X148100000Y-136527000D01*
X148124776Y-136524560D01*
X148148601Y-136517333D01*
X148170557Y-136505597D01*
X148189803Y-136489803D01*
X148205597Y-136470557D01*
X148217333Y-136448601D01*
X148224560Y-136424776D01*
X148227000Y-136400000D01*
X148227000Y-132627000D01*
X150646314Y-132627000D01*
X154008906Y-136088492D01*
G37*
X154008906Y-136088492D02*
X154027920Y-136104563D01*
X154049704Y-136116616D01*
X154073421Y-136124188D01*
X154100000Y-136127000D01*
X157673455Y-136127000D01*
X157682544Y-138663000D01*
X142036470Y-138663000D01*
X142027533Y-136527000D01*
X148100000Y-136527000D01*
X148124776Y-136524560D01*
X148148601Y-136517333D01*
X148170557Y-136505597D01*
X148189803Y-136489803D01*
X148205597Y-136470557D01*
X148217333Y-136448601D01*
X148224560Y-136424776D01*
X148227000Y-136400000D01*
X148227000Y-132627000D01*
X150646314Y-132627000D01*
X154008906Y-136088492D01*
M02*
