999
DXF file: c-215079-4-t-2d.dxf
999
Pro/ENGINEER 2016050 by Parametric Technology Corporation
  0
SECTION
  2
HEADER
  9
$ACADVER
  1
AC1014
  9
$DWGCODEPAGE
  3
ANSI_1252
  9
$EXTMAX
 10
420.0
 20
297.0
 30
0.0
  9
$EXTMIN
 10
0.0
 20
0.0
 30
0.0
  9
$LIMMIN
 10
0.0
 20
0.0
  9
$LIMMAX
 10
420.0
 20
297.0
  9
$VIEWCTR
 10
210.0
 20
148.5
  9
$VIEWSIZE
 40
297.0
  9
$CLAYER
  8
0
  9
$LTSCALE
 40
23.1
  9
$CELTYPE
  6
BYLAYER
  9
$DIMSCALE
 40
1.0
  9
$DIMASZ
 40
4.5
  9
$DIMEXO
 40
1.5
  9
$DIMDLI
 40
15.96
  9
$DIMEXE
 40
3.0
  9
$DIMCEN
 40
3.78
  9
$DIMLFAC
 40
0.125
  9
$DIMBLK
  1
_CLOSED
  9
$DIMALT
 70
0
  9
$DIMALTF
 40
0.0393700787
  9
$DIMTXT
 40
3.0
  9
$DIMTOL
 70
1
  9
$DIMLIM
 70
0
  9
$DIMTFAC
 40
1.0
  9
$DIMTP
 40
0.01
  9
$DIMTM
 40
0.01
  9
$DIMGAP
 40
0.625
  9
$AUNITS
 70
0
  9
$PDMODE
 70
3
  9
$PDSIZE
 40
0.3125
  9
$HANDSEED
  5
4E1
  9
$TILEMODE
 70
1
  9
$MEASUREMENT
 70
1
  0
ENDSEC
  0
SECTION
  2
CLASSES
  0
ENDSEC
  0
SECTION
  2
TABLES
  0
TABLE
  2
VPORT
  5
8
100
AcDbSymbolTable
 70
2
  0
VPORT
  5
1F4
100
AcDbSymbolTableRecord
100
AcDbViewportTableRecord
  2
*ACTIVE
 70
0
 10
0.0
 20
0.0
 11
1.0
 21
1.0
 12
210.0
 22
148.5
 13
0.0
 23
0.0
 14
1.0
 24
1.0
 15
0.0
 25
0.0
 16
0.0
 26
0.0
 36
1.0
 17
0.0
 27
0.0
 37
0.0
 40
297.0
 41
1.4141414141
 42
50.0
 43
0.0
 44
0.0
 50
0.0
 51
0.0
 71
0
 72
100
 73
1
 74
1
 75
0
 76
0
 77
0
 78
0
  0
ENDTAB
  0
TABLE
  2
LTYPE
  5
5
100
AcDbSymbolTable
 70
6
  0
LTYPE
  5
14
100
AcDbSymbolTableRecord
100
AcDbLinetypeTableRecord
  2
BYBLOCK
 70
0
  3

 72
65
 73
0
 40
0.0
  0
LTYPE
  5
15
100
AcDbSymbolTableRecord
100
AcDbLinetypeTableRecord
  2
BYLAYER
 70
0
  3

 72
65
 73
0
 40
0.0
  0
LTYPE
  5
16
100
AcDbSymbolTableRecord
100
AcDbLinetypeTableRecord
  2
CONTINUOUS
 70
64
  3
Solid line
 72
65
 73
0
 40
0.0
  0
LTYPE
  5
1F5
100
AcDbSymbolTableRecord
100
AcDbLinetypeTableRecord
  2
CENTER
 70
64
  3
____ _ ____ _ ____ _ ____ _ ____ _ ____ _ ____
 72
65
 73
4
 40
0.6
 49
0.375
 74
0
 49
-0.075
 74
0
 49
0.075
 74
0
 49
-0.075
 74
0
  0
LTYPE
  5
1F6
100
AcDbSymbolTableRecord
100
AcDbLinetypeTableRecord
  2
HIDDEN
 70
64
  3
- - - - - - - - - - - - - - - - - - - -
 72
65
 73
2
 40
0.2
 49
0.1
 74
0
 49
-0.1
 74
0
  0
LTYPE
  5
1F7
100
AcDbSymbolTableRecord
100
AcDbLinetypeTableRecord
  2
PHANTOM
 70
64
  3
_____ _ _ _____ _ _ _____ _ _ _____
 72
65
 73
6
 40
0.8
 49
0.45
 74
0
 49
-0.05
 74
0
 49
0.1
 74
0
 49
-0.05
 74
0
 49
0.1
 74
0
 49
-0.05
 74
0
  0
LTYPE
  5
1F8
100
AcDbSymbolTableRecord
100
AcDbLinetypeTableRecord
  2
DOT
 70
64
  3
. . . . . . . . . . . . . . . . . . . .
 72
65
 73
2
 40
0.2
 49
0.1
 74
0
 49
-0.1
 74
0
  0
LTYPE
  5
1F9
100
AcDbSymbolTableRecord
100
AcDbLinetypeTableRecord
  2
DASHED
 70
64
  3
- - - - - - - - - - - - - - - - - - - -
 72
65
 73
2
 40
0.2
 49
0.1
 74
0
 49
-0.1
 74
0
  0
ENDTAB
  0
TABLE
  2
LAYER
  5
2
100
AcDbSymbolTable
 70
36
  0
LAYER
  5
10
100
AcDbSymbolTableRecord
100
AcDbLayerTableRecord
  2
0
 70
0
 62
7
  6
CONTINUOUS
  0
LAYER
  5
1FA
100
AcDbSymbolTableRecord
100
AcDbLayerTableRecord
  2
DEFAULT_1
 70
0
 62
7
  6
CENTER
  0
LAYER
  5
1FB
100
AcDbSymbolTableRecord
100
AcDbLayerTableRecord
  2
DEFAULT_2
 70
0
 62
8
  6
HIDDEN
  0
LAYER
  5
1FC
100
AcDbSymbolTableRecord
100
AcDbLayerTableRecord
  2
DEFAULT_3
 70
0
 62
7
  6
PHANTOM
  0
LAYER
  5
1FD
100
AcDbSymbolTableRecord
100
AcDbLayerTableRecord
  2
DRAFT_ENTITY
 70
0
 62
7
  6
CONTINUOUS
  0
LAYER
  5
1FE
100
AcDbSymbolTableRecord
100
AcDbLayerTableRecord
  2
DRAFT_GEOM
 70
0
 62
7
  6
CONTINUOUS
  0
LAYER
  5
1FF
100
AcDbSymbolTableRecord
100
AcDbLayerTableRecord
  2
DRAFT_GRP
 70
0
 62
7
  6
CONTINUOUS
  0
LAYER
  5
200
100
AcDbSymbolTableRecord
100
AcDbLayerTableRecord
  2
DRAFT_OTHER
 70
0
 62
7
  6
CONTINUOUS
  0
LAYER
  5
201
100
AcDbSymbolTableRecord
100
AcDbLayerTableRecord
  2
DTM_ALL
 70
0
 62
7
  6
CONTINUOUS
  0
LAYER
  5
202
100
AcDbSymbolTableRecord
100
AcDbLayerTableRecord
  2
DTM_MAJOR
 70
0
 62
7
  6
CONTINUOUS
  0
LAYER
  5
203
100
AcDbSymbolTableRecord
100
AcDbLayerTableRecord
  2
NOTE
 70
0
 62
7
  6
CONTINUOUS
  0
ENDTAB
  0
TABLE
  2
STYLE
  5
3
100
AcDbSymbolTable
 70
1
  0
STYLE
  5
11
100
AcDbSymbolTableRecord
100
AcDbTextStyleTableRecord
  2
STANDARD
 70
0
 40
0.0
 41
0.95
 50
0.0
 71
0
 42
0.2
  3
txt
  4

  0
STYLE
  5
204
100
AcDbSymbolTableRecord
100
AcDbTextStyleTableRecord
  2
TEXTSTYLE_1
 70
0
 40
0.0
 41
0.8
 50
0.0
 71
0
 42
0.2
  3
gdt
  4

  0
STYLE
  5
205
100
AcDbSymbolTableRecord
100
AcDbTextStyleTableRecord
  2
TEXTSTYLE_2
 70
0
 40
0.0
 41
0.8
 50
0.0
 71
0
 42
0.2
  3
txt
  4

  0
ENDTAB
  0
TABLE
  2
VIEW
  5
6
100
AcDbSymbolTable
 70
0
  0
ENDTAB
  0
TABLE
  2
UCS
  5
7
100
AcDbSymbolTable
 70
0
  0
ENDTAB
  0
TABLE
  2
APPID
  5
9
100
AcDbSymbolTable
 70
1
  0
APPID
  5
206
100
AcDbSymbolTableRecord
100
AcDbRegAppTableRecord
  2
ACAD
 70
0
  0
ENDTAB
  0
TABLE
  2
BLOCK_RECORD
  5
1
100
AcDbSymbolTable
 70
0
  0
BLOCK_RECORD
  5
1F
100
AcDbSymbolTableRecord
100
AcDbBlockTableRecord
  2
*MODEL_SPACE
  0
BLOCK_RECORD
  5
1B
100
AcDbSymbolTableRecord
100
AcDbBlockTableRecord
  2
*PAPER_SPACE
  0
BLOCK_RECORD
  5
207
100
AcDbSymbolTableRecord
100
AcDbBlockTableRecord
  2
TE_CONNECTIVITY_BL0
  0
ENDTAB
  0
TABLE
  2
DIMSTYLE
  5
A
100
AcDbSymbolTable
 70
1
  0
DIMSTYLE
105
208
100
AcDbSymbolTableRecord
100
AcDbDimStyleTableRecord
  2
STANDARD
 70
0
  3

  4

  5
_CLOSED
  6
_CLOSED
  7
_CLOSED
 40
1.0
 41
4.5
 42
1.5
 43
0.38
 44
3.0
 45
0.0
 46
0.0
 47
0.01
 48
0.01
140
3.0
141
0.09
142
0.0
143
25.4
144
1.0
145
0.0
146
1.0
147
0.625
 71
1.0
 72
0.0
 73
1
 74
1
 75
0
 76
0
 77
0
 78
8
170
0
171
2
172
0
173
0
174
0
175
0
176
0
177
0
178
0
270
2
271
2
272
2
273
2
274
2
275
0
280
0
281
0
282
0
283
1
284
8
285
0
286
0
287
3
288
0
340
11
  0
ENDTAB
  0
ENDSEC
  0
SECTION
  2
BLOCKS
  0
BLOCK
  5
20
100
AcDbEntity
  8
0
100
AcDbBlockBegin
  2
*MODEL_SPACE
 70
0
 10
0.0
 20
0.0
 30
0.0
  3
*MODEL_SPACE
  1

  0
ENDBLK
  5
21
100
AcDbEntity
  8
0
100
AcDbBlockEnd
  0
BLOCK
  5
1C
100
AcDbEntity
  8
0
100
AcDbBlockBegin
  2
*PAPER_SPACE
 70
0
 10
0.0
 20
0.0
 30
0.0
  3
*PAPER_SPACE
  1

  0
ENDBLK
  5
1D
100
AcDbEntity
  8
0
100
AcDbBlockEnd
  0
BLOCK
  5
209
100
AcDbEntity
  8
0
100
AcDbBlockBegin
 62
2
  6
CONTINUOUS
  2
TE_CONNECTIVITY_BL0
 70
64
 10
315.0
 20
36.0
  3
TE_CONNECTIVITY_BL0
  1

  0
LINE
  5
20A
100
AcDbEntity
  8
0
100
AcDbLine
 62
2
  6
CONTINUOUS
 10
303.4442621268
 20
31.975
 11
311.2931594095
 21
31.975
  0
LINE
  5
20B
100
AcDbEntity
  8
0
100
AcDbLine
 62
2
  6
CONTINUOUS
 10
316.3319775183
 20
31.975
 11
318.4139164045
 21
31.975
  0
LINE
  5
20C
100
AcDbEntity
  8
0
100
AcDbLine
 62
2
  6
CONTINUOUS
 10
321.4865647769
 20
31.975
 11
327.8504615515
 21
31.975
  0
LINE
  5
20D
100
AcDbEntity
  8
0
100
AcDbLine
 62
2
  6
CONTINUOUS
 10
328.3338139487
 20
33.7788957044
 11
324.0176749741
 21
33.7788957044
  0
LINE
  5
20E
100
AcDbEntity
  8
0
100
AcDbLine
 62
2
  6
CONTINUOUS
 10
311.2931594095
 20
34.2561326711
 11
303.4442621268
 21
34.2561326711
  0
LINE
  5
20F
100
AcDbEntity
  8
0
100
AcDbLine
 62
2
  6
CONTINUOUS
 10
301.1331145522
 20
34.8594322328
 11
308.9820118349
 21
34.8594322328
  0
LINE
  5
210
100
AcDbEntity
  8
0
100
AcDbLine
 62
2
  6
CONTINUOUS
 10
316.0776474878
 20
40.0249971366
 11
315.5942950906
 21
38.2211014322
  0
LINE
  5
211
100
AcDbEntity
  8
0
100
AcDbLine
 62
2
  6
CONTINUOUS
 10
324.4045177413
 20
35.2226125659
 11
328.2576583666
 21
35.2226125659
  0
LINE
  5
212
100
AcDbEntity
  8
0
100
AcDbLine
 62
2
  6
CONTINUOUS
 10
328.6887347141
 20
36.8314113971
 11
324.8355940889
 21
36.8314113971
  0
LINE
  5
213
100
AcDbEntity
  8
0
100
AcDbLine
 62
2
  6
CONTINUOUS
 10
308.9820118349
 20
37.1405649038
 11
301.1331145522
 21
37.1405649038
  0
LINE
  5
214
100
AcDbEntity
  8
0
100
AcDbLine
 62
2
  6
CONTINUOUS
 10
304.9810251894
 20
37.7438644655
 11
312.8299224721
 21
37.7438644655
  0
LINE
  5
215
100
AcDbEntity
  8
0
100
AcDbLine
 62
2
  6
CONTINUOUS
 10
318.0056153529
 20
38.2211014322
 11
316.3319775183
 21
31.975
  0
LINE
  5
216
100
AcDbEntity
  8
0
100
AcDbLine
 62
2
  6
CONTINUOUS
 10
315.5942950906
 20
38.2211014322
 11
318.0056153529
 21
38.2211014322
  0
LINE
  5
217
100
AcDbEntity
  8
0
100
AcDbLine
 62
2
  6
CONTINUOUS
 10
320.0875542391
 20
38.2211014322
 11
322.4988745014
 21
38.2211014322
  0
LINE
  5
218
100
AcDbEntity
  8
0
100
AcDbLine
 62
2
  6
CONTINUOUS
 10
325.2079604115
 20
38.2211014322
 11
329.5240993861
 21
38.2211014322
  0
LINE
  5
219
100
AcDbEntity
  8
0
100
AcDbLine
 62
2
  6
CONTINUOUS
 10
330.0074517833
 20
40.0249971366
 11
323.6435550087
 21
40.0249971366
  0
LINE
  5
21A
100
AcDbEntity
  8
0
100
AcDbLine
 62
2
  6
CONTINUOUS
 10
322.9822268986
 20
40.0249971366
 11
316.0776474878
 21
40.0249971366
  0
LINE
  5
21B
100
AcDbEntity
  8
0
100
AcDbLine
 62
2
  6
CONTINUOUS
 10
312.8299224721
 20
40.0249971366
 11
304.9810251894
 21
40.0249971366
  0
LINE
  5
21C
100
AcDbEntity
  8
0
100
AcDbLine
 62
2
  6
CONTINUOUS
 10
318.4139164045
 20
31.975
 11
320.0875542391
 21
38.2211014322
  0
LINE
  5
21D
100
AcDbEntity
  8
0
100
AcDbLine
 62
2
  6
CONTINUOUS
 10
322.4988745014
 20
38.2211014322
 11
322.9822268986
 21
40.0249971366
  0
LINE
  5
21E
100
AcDbEntity
  8
0
100
AcDbLine
 62
2
  6
CONTINUOUS
 10
323.6435550087
 20
40.0249971366
 11
321.4865647769
 21
31.975
  0
LINE
  5
21F
100
AcDbEntity
  8
0
100
AcDbLine
 62
2
  6
CONTINUOUS
 10
324.0176749741
 20
33.7788957044
 11
324.4045177413
 21
35.2226125659
  0
LINE
  5
220
100
AcDbEntity
  8
0
100
AcDbLine
 62
2
  6
CONTINUOUS
 10
324.8355940889
 20
36.8314113971
 11
325.2079604115
 21
38.2211014322
  0
LINE
  5
221
100
AcDbEntity
  8
0
100
AcDbLine
 62
2
  6
CONTINUOUS
 10
328.2576583666
 20
35.2226125659
 11
328.6887347141
 21
36.8314113971
  0
LINE
  5
222
100
AcDbEntity
  8
0
100
AcDbLine
 62
2
  6
CONTINUOUS
 10
327.8504615515
 20
31.975
 11
328.3338139487
 21
33.7788957044
  0
LINE
  5
223
100
AcDbEntity
  8
0
100
AcDbLine
 62
2
  6
CONTINUOUS
 10
329.5240993861
 20
38.2211014322
 11
330.0074517833
 21
40.0249971366
  0
ARC
  5
224
100
AcDbEntity
  8
0
100
AcDbCircle
 62
2
  6
CONTINUOUS
 10
304.9810251894
 20
38.884430801
 40
1.1405663355
100
AcDbArc
 50
90.0
 51
270.0
  0
ARC
  5
225
100
AcDbEntity
  8
0
100
AcDbCircle
 62
2
  6
CONTINUOUS
 10
312.8299224721
 20
38.884430801
 40
1.1405663355
100
AcDbArc
 50
270.0
 51
90.0
  0
ARC
  5
226
100
AcDbEntity
  8
0
100
AcDbCircle
 62
2
  6
CONTINUOUS
 10
311.2931594095
 20
33.1155663355
 40
1.1405663355
100
AcDbArc
 50
270.0
 51
90.0
  0
ARC
  5
227
100
AcDbEntity
  8
0
100
AcDbCircle
 62
2
  6
CONTINUOUS
 10
303.4442621268
 20
33.1155663355
 40
1.1405663355
100
AcDbArc
 50
90.0
 51
270.0
  0
ARC
  5
228
100
AcDbEntity
  8
0
100
AcDbCircle
 62
2
  6
CONTINUOUS
 10
308.9820118349
 20
35.9999985683
 40
1.1405663355
100
AcDbArc
 50
270.0
 51
90.0
  0
ARC
  5
229
100
AcDbEntity
  8
0
100
AcDbCircle
 62
2
  6
CONTINUOUS
 10
301.1331145522
 20
35.9999985683
 40
1.1405663355
100
AcDbArc
 50
90.0
 51
270.0
  0
LWPOLYLINE
  5
22A
100
AcDbEntity
  8
0
100
AcDbPolyline
 62
2
  6
CONTINUOUS
 90
50
 70
0
 10
304.8321514087
 20
40.0152434035
 10
304.9810251894
 20
40.025
 10
312.8299224721
 20
40.025
 10
312.9787962529
 20
40.0152434035
 10
313.125122762
 20
39.9861346138
 10
313.2663983123
 20
39.9381727309
 10
313.4002056399
 20
39.8721869044
 10
313.5242552644
 20
39.7893041338
 10
313.6364246624
 20
39.6909331688
 10
313.7347945842
 20
39.5787645087
 10
313.8176818934
 20
39.4547140529
 10
313.883668365
 20
39.3209070004
 10
313.9316249522
 20
39.1796295507
 10
313.9607311046
 20
39.0333047528
 10
313.9704888077
 20
38.8844281057
 10
313.9607311046
 20
38.7355595087
 10
313.9316249522
 20
38.5892266607
 10
313.883668365
 20
38.447957261
 10
313.8176818934
 20
38.3141502086
 10
313.7347945842
 20
38.1900997527
 10
313.6364246624
 20
38.0779310926
 10
313.5242552644
 20
37.9795601276
 10
313.4002056399
 20
37.8966693071
 10
313.2663983123
 20
37.8306834805
 10
313.125122762
 20
37.7827296476
 10
312.9787962529
 20
37.7536208579
 10
304.9810251894
 20
37.7438642614
 10
304.8321514087
 20
37.7536208579
 10
304.6858248996
 20
37.7827296476
 10
304.5445493493
 20
37.8306834805
 10
304.4107420217
 20
37.8966693071
 10
304.2866923972
 20
37.9795601276
 10
304.1745229992
 20
38.0779310926
 10
304.0761530773
 20
38.1900997527
 10
303.9932657682
 20
38.3141502086
 10
303.9272792966
 20
38.447957261
 10
303.8793227094
 20
38.5892266607
 10
303.850216557
 20
38.7355595087
 10
303.8404588539
 20
38.8844281057
 10
303.850216557
 20
39.0333047528
 10
303.8793227094
 20
39.1796295507
 10
303.9272792966
 20
39.3209070004
 10
303.9932657682
 20
39.4547140529
 10
304.0761530773
 20
39.5787645087
 10
304.1745229992
 20
39.6909331688
 10
304.2866923972
 20
39.7893041338
 10
304.4107420217
 20
39.8721869044
 10
304.5445493493
 20
39.9381727309
 10
304.6858248996
 20
39.9861346138
 10
304.8321514087
 20
40.0152434035
  0
HATCH
  5
22B
100
AcDbEntity
  8
0
100
AcDbHatch
 62
2
  6
CONTINUOUS
 10
0.0
 20
0.0
 30
0.0
210
0.0
220
0.0
230
1.0
  2
SOLID
 70
1
 71
1
 91
1
 92
1
 93
49
 72
1
 10
304.8321514087
 20
40.0152434035
 11
304.9810251894
 21
40.025
 72
1
 10
304.9810251894
 20
40.025
 11
312.8299224721
 21
40.025
 72
1
 10
312.8299224721
 20
40.025
 11
312.9787962529
 21
40.0152434035
 72
1
 10
312.9787962529
 20
40.0152434035
 11
313.125122762
 21
39.9861346138
 72
1
 10
313.125122762
 20
39.9861346138
 11
313.2663983123
 21
39.9381727309
 72
1
 10
313.2663983123
 20
39.9381727309
 11
313.4002056399
 21
39.8721869044
 72
1
 10
313.4002056399
 20
39.8721869044
 11
313.5242552644
 21
39.7893041338
 72
1
 10
313.5242552644
 20
39.7893041338
 11
313.6364246624
 21
39.6909331688
 72
1
 10
313.6364246624
 20
39.6909331688
 11
313.7347945842
 21
39.5787645087
 72
1
 10
313.7347945842
 20
39.5787645087
 11
313.8176818934
 21
39.4547140529
 72
1
 10
313.8176818934
 20
39.4547140529
 11
313.883668365
 21
39.3209070004
 72
1
 10
313.883668365
 20
39.3209070004
 11
313.9316249522
 21
39.1796295507
 72
1
 10
313.9316249522
 20
39.1796295507
 11
313.9607311046
 21
39.0333047528
 72
1
 10
313.9607311046
 20
39.0333047528
 11
313.9704888077
 21
38.8844281057
 72
1
 10
313.9704888077
 20
38.8844281057
 11
313.9607311046
 21
38.7355595087
 72
1
 10
313.9607311046
 20
38.7355595087
 11
313.9316249522
 21
38.5892266607
 72
1
 10
313.9316249522
 20
38.5892266607
 11
313.883668365
 21
38.447957261
 72
1
 10
313.883668365
 20
38.447957261
 11
313.8176818934
 21
38.3141502086
 72
1
 10
313.8176818934
 20
38.3141502086
 11
313.7347945842
 21
38.1900997527
 72
1
 10
313.7347945842
 20
38.1900997527
 11
313.6364246624
 21
38.0779310926
 72
1
 10
313.6364246624
 20
38.0779310926
 11
313.5242552644
 21
37.9795601276
 72
1
 10
313.5242552644
 20
37.9795601276
 11
313.4002056399
 21
37.8966693071
 72
1
 10
313.4002056399
 20
37.8966693071
 11
313.2663983123
 21
37.8306834805
 72
1
 10
313.2663983123
 20
37.8306834805
 11
313.125122762
 21
37.7827296476
 72
1
 10
313.125122762
 20
37.7827296476
 11
312.9787962529
 21
37.7536208579
 72
1
 10
312.9787962529
 20
37.7536208579
 11
304.9810251894
 21
37.7438642614
 72
1
 10
304.9810251894
 20
37.7438642614
 11
304.8321514087
 21
37.7536208579
 72
1
 10
304.8321514087
 20
37.7536208579
 11
304.6858248996
 21
37.7827296476
 72
1
 10
304.6858248996
 20
37.7827296476
 11
304.5445493493
 21
37.8306834805
 72
1
 10
304.5445493493
 20
37.8306834805
 11
304.4107420217
 21
37.8966693071
 72
1
 10
304.4107420217
 20
37.8966693071
 11
304.2866923972
 21
37.9795601276
 72
1
 10
304.2866923972
 20
37.9795601276
 11
304.1745229992
 21
38.0779310926
 72
1
 10
304.1745229992
 20
38.0779310926
 11
304.0761530773
 21
38.1900997527
 72
1
 10
304.0761530773
 20
38.1900997527
 11
303.9932657682
 21
38.3141502086
 72
1
 10
303.9932657682
 20
38.3141502086
 11
303.9272792966
 21
38.447957261
 72
1
 10
303.9272792966
 20
38.447957261
 11
303.8793227094
 21
38.5892266607
 72
1
 10
303.8793227094
 20
38.5892266607
 11
303.850216557
 21
38.7355595087
 72
1
 10
303.850216557
 20
38.7355595087
 11
303.8404588539
 21
38.8844281057
 72
1
 10
303.8404588539
 20
38.8844281057
 11
303.850216557
 21
39.0333047528
 72
1
 10
303.850216557
 20
39.0333047528
 11
303.8793227094
 21
39.1796295507
 72
1
 10
303.8793227094
 20
39.1796295507
 11
303.9272792966
 21
39.3209070004
 72
1
 10
303.9272792966
 20
39.3209070004
 11
303.9932657682
 21
39.4547140529
 72
1
 10
303.9932657682
 20
39.4547140529
 11
304.0761530773
 21
39.5787645087
 72
1
 10
304.0761530773
 20
39.5787645087
 11
304.1745229992
 21
39.6909331688
 72
1
 10
304.1745229992
 20
39.6909331688
 11
304.2866923972
 21
39.7893041338
 72
1
 10
304.2866923972
 20
39.7893041338
 11
304.4107420217
 21
39.8721869044
 72
1
 10
304.4107420217
 20
39.8721869044
 11
304.5445493493
 21
39.9381727309
 72
1
 10
304.5445493493
 20
39.9381727309
 11
304.6858248996
 21
39.9861346138
 72
1
 10
304.6858248996
 20
39.9861346138
 11
304.8321514087
 21
40.0152434035
 97
1
330
22A
 75
0
 76
1
 98
1
 10
0.0
 20
0.0
  0
LWPOLYLINE
  5
22C
100
AcDbEntity
  8
0
100
AcDbPolyline
 62
2
  6
CONTINUOUS
 90
9
 70
0
 10
315.5942950906
 20
38.2211002917
 10
316.0776474878
 20
40.025
 10
322.9822268986
 20
40.025
 10
322.4988745014
 20
38.2211002917
 10
320.0875542391
 20
38.2211002917
 10
318.4139164045
 20
31.9750028634
 10
316.3319775183
 20
31.9750028634
 10
318.0056153529
 20
38.2211002917
 10
315.5942950906
 20
38.2211002917
  0
HATCH
  5
22D
100
AcDbEntity
  8
0
100
AcDbHatch
 62
2
  6
CONTINUOUS
 10
0.0
 20
0.0
 30
0.0
210
0.0
220
0.0
230
1.0
  2
SOLID
 70
1
 71
1
 91
1
 92
1
 93
8
 72
1
 10
315.5942950906
 20
38.2211002917
 11
316.0776474878
 21
40.025
 72
1
 10
316.0776474878
 20
40.025
 11
322.9822268986
 21
40.025
 72
1
 10
322.9822268986
 20
40.025
 11
322.4988745014
 21
38.2211002917
 72
1
 10
322.4988745014
 20
38.2211002917
 11
320.0875542391
 21
38.2211002917
 72
1
 10
320.0875542391
 20
38.2211002917
 11
318.4139164045
 21
31.9750028634
 72
1
 10
318.4139164045
 20
31.9750028634
 11
316.3319775183
 21
31.9750028634
 72
1
 10
316.3319775183
 20
31.9750028634
 11
318.0056153529
 21
38.2211002917
 72
1
 10
318.0056153529
 20
38.2211002917
 11
315.5942950906
 21
38.2211002917
 97
1
330
22C
 75
0
 76
1
 98
1
 10
0.0
 20
0.0
  0
LWPOLYLINE
  5
22E
100
AcDbEntity
  8
0
100
AcDbPolyline
 62
2
  6
CONTINUOUS
 90
6
 70
0
 10
330.0074517833
 20
40.025
 10
329.5240993861
 20
38.2211002917
 10
325.2079604115
 20
38.2211002917
 10
321.4865647769
 20
31.9750028634
 10
323.6435550087
 20
40.025
 10
330.0074517833
 20
40.025
  0
HATCH
  5
22F
100
AcDbEntity
  8
0
100
AcDbHatch
 62
2
  6
CONTINUOUS
 10
0.0
 20
0.0
 30
0.0
210
0.0
220
0.0
230
1.0
  2
SOLID
 70
1
 71
1
 91
1
 92
1
 93
5
 72
1
 10
330.0074517833
 20
40.025
 11
329.5240993861
 21
38.2211002917
 72
1
 10
329.5240993861
 20
38.2211002917
 11
325.2079604115
 21
38.2211002917
 72
1
 10
325.2079604115
 20
38.2211002917
 11
321.4865647769
 21
31.9750028634
 72
1
 10
321.4865647769
 20
31.9750028634
 11
323.6435550087
 21
40.025
 72
1
 10
323.6435550087
 20
40.025
 11
330.0074517833
 21
40.025
 97
1
330
22E
 75
0
 76
1
 98
1
 10
0.0
 20
0.0
  0
SOLID
  5
230
100
AcDbEntity
  8
0
100
AcDbTrace
 62
2
  6
CONTINUOUS
 10
312.9787962529
 20
37.7536208579
 11
312.8299224721
 21
37.7438642614
 12
304.9810251894
 22
37.7438642614
 13
304.9810251894
 23
37.7438642614
  0
LWPOLYLINE
  5
231
100
AcDbEntity
  8
0
100
AcDbPolyline
 62
2
  6
CONTINUOUS
 90
50
 70
0
 10
300.9842407715
 20
37.1308086795
 10
301.1331145522
 20
37.140565276
 10
308.9820118349
 20
37.140565276
 10
309.1308856156
 20
37.1308086795
 10
309.2772121247
 20
37.1016998898
 10
309.418487675
 20
37.0537460569
 10
309.5522950027
 20
36.9877602304
 10
309.6763446272
 20
36.9048694098
 10
309.7885140251
 20
36.8064984448
 10
309.886883947
 20
36.6943297847
 10
309.9697712562
 20
36.5702793289
 10
310.0357577278
 20
36.4364722765
 10
310.083714315
 20
36.2952028767
 10
310.1128204673
 20
36.1488700288
 10
310.1225781704
 20
36.0000014317
 10
310.1128204673
 20
35.8511247847
 10
310.083714315
 20
35.7047999867
 10
310.0357577278
 20
35.563522537
 10
309.9697712562
 20
35.4297154846
 10
309.886883947
 20
35.3056650287
 10
309.7885140251
 20
35.1934963686
 10
309.6763446272
 20
35.0951254036
 10
309.5522950027
 20
35.0122426331
 10
309.418487675
 20
34.9462487565
 10
309.2772121247
 20
34.8982949236
 10
309.1308856156
 20
34.8691861339
 10
301.1331145522
 20
34.8594295374
 10
300.9842407715
 20
34.8691861339
 10
300.8379142624
 20
34.8982949236
 10
300.6966387121
 20
34.9462487565
 10
300.5628313844
 20
35.0122426331
 10
300.4387817599
 20
35.0951254036
 10
300.326612362
 20
35.1934963686
 10
300.2282424401
 20
35.3056650287
 10
300.1453551309
 20
35.4297154846
 10
300.0793686593
 20
35.563522537
 10
300.0314120721
 20
35.7047999867
 10
300.0023059198
 20
35.8511247847
 10
299.9925482167
 20
36.0000014317
 10
300.0023059198
 20
36.1488700288
 10
300.0314120721
 20
36.2952028767
 10
300.0793686593
 20
36.4364722765
 10
300.1453551309
 20
36.5702793289
 10
300.2282424401
 20
36.6943297847
 10
300.326612362
 20
36.8064984448
 10
300.4387817599
 20
36.9048694098
 10
300.5628313844
 20
36.9877602304
 10
300.6966387121
 20
37.0537460569
 10
300.8379142624
 20
37.1016998898
 10
300.9842407715
 20
37.1308086795
  0
HATCH
  5
232
100
AcDbEntity
  8
0
100
AcDbHatch
 62
2
  6
CONTINUOUS
 10
0.0
 20
0.0
 30
0.0
210
0.0
220
0.0
230
1.0
  2
SOLID
 70
1
 71
1
 91
1
 92
1
 93
49
 72
1
 10
300.9842407715
 20
37.1308086795
 11
301.1331145522
 21
37.140565276
 72
1
 10
301.1331145522
 20
37.140565276
 11
308.9820118349
 21
37.140565276
 72
1
 10
308.9820118349
 20
37.140565276
 11
309.1308856156
 21
37.1308086795
 72
1
 10
309.1308856156
 20
37.1308086795
 11
309.2772121247
 21
37.1016998898
 72
1
 10
309.2772121247
 20
37.1016998898
 11
309.418487675
 21
37.0537460569
 72
1
 10
309.418487675
 20
37.0537460569
 11
309.5522950027
 21
36.9877602304
 72
1
 10
309.5522950027
 20
36.9877602304
 11
309.6763446272
 21
36.9048694098
 72
1
 10
309.6763446272
 20
36.9048694098
 11
309.7885140251
 21
36.8064984448
 72
1
 10
309.7885140251
 20
36.8064984448
 11
309.886883947
 21
36.6943297847
 72
1
 10
309.886883947
 20
36.6943297847
 11
309.9697712562
 21
36.5702793289
 72
1
 10
309.9697712562
 20
36.5702793289
 11
310.0357577278
 21
36.4364722765
 72
1
 10
310.0357577278
 20
36.4364722765
 11
310.083714315
 21
36.2952028767
 72
1
 10
310.083714315
 20
36.2952028767
 11
310.1128204673
 21
36.1488700288
 72
1
 10
310.1128204673
 20
36.1488700288
 11
310.1225781704
 21
36.0000014317
 72
1
 10
310.1225781704
 20
36.0000014317
 11
310.1128204673
 21
35.8511247847
 72
1
 10
310.1128204673
 20
35.8511247847
 11
310.083714315
 21
35.7047999867
 72
1
 10
310.083714315
 20
35.7047999867
 11
310.0357577278
 21
35.563522537
 72
1
 10
310.0357577278
 20
35.563522537
 11
309.9697712562
 21
35.4297154846
 72
1
 10
309.9697712562
 20
35.4297154846
 11
309.886883947
 21
35.3056650287
 72
1
 10
309.886883947
 20
35.3056650287
 11
309.7885140251
 21
35.1934963686
 72
1
 10
309.7885140251
 20
35.1934963686
 11
309.6763446272
 21
35.0951254036
 72
1
 10
309.6763446272
 20
35.0951254036
 11
309.5522950027
 21
35.0122426331
 72
1
 10
309.5522950027
 20
35.0122426331
 11
309.418487675
 21
34.9462487565
 72
1
 10
309.418487675
 20
34.9462487565
 11
309.2772121247
 21
34.8982949236
 72
1
 10
309.2772121247
 20
34.8982949236
 11
309.1308856156
 21
34.8691861339
 72
1
 10
309.1308856156
 20
34.8691861339
 11
301.1331145522
 21
34.8594295374
 72
1
 10
301.1331145522
 20
34.8594295374
 11
300.9842407715
 21
34.8691861339
 72
1
 10
300.9842407715
 20
34.8691861339
 11
300.8379142624
 21
34.8982949236
 72
1
 10
300.8379142624
 20
34.8982949236
 11
300.6966387121
 21
34.9462487565
 72
1
 10
300.6966387121
 20
34.9462487565
 11
300.5628313844
 21
35.0122426331
 72
1
 10
300.5628313844
 20
35.0122426331
 11
300.4387817599
 21
35.0951254036
 72
1
 10
300.4387817599
 20
35.0951254036
 11
300.326612362
 21
35.1934963686
 72
1
 10
300.326612362
 20
35.1934963686
 11
300.2282424401
 21
35.3056650287
 72
1
 10
300.2282424401
 20
35.3056650287
 11
300.1453551309
 21
35.4297154846
 72
1
 10
300.1453551309
 20
35.4297154846
 11
300.0793686593
 21
35.563522537
 72
1
 10
300.0793686593
 20
35.563522537
 11
300.0314120721
 21
35.7047999867
 72
1
 10
300.0314120721
 20
35.7047999867
 11
300.0023059198
 21
35.8511247847
 72
1
 10
300.0023059198
 20
35.8511247847
 11
299.9925482167
 21
36.0000014317
 72
1
 10
299.9925482167
 20
36.0000014317
 11
300.0023059198
 21
36.1488700288
 72
1
 10
300.0023059198
 20
36.1488700288
 11
300.0314120721
 21
36.2952028767
 72
1
 10
300.0314120721
 20
36.2952028767
 11
300.0793686593
 21
36.4364722765
 72
1
 10
300.0793686593
 20
36.4364722765
 11
300.1453551309
 21
36.5702793289
 72
1
 10
300.1453551309
 20
36.5702793289
 11
300.2282424401
 21
36.6943297847
 72
1
 10
300.2282424401
 20
36.6943297847
 11
300.326612362
 21
36.8064984448
 72
1
 10
300.326612362
 20
36.8064984448
 11
300.4387817599
 21
36.9048694098
 72
1
 10
300.4387817599
 20
36.9048694098
 11
300.5628313844
 21
36.9877602304
 72
1
 10
300.5628313844
 20
36.9877602304
 11
300.6966387121
 21
37.0537460569
 72
1
 10
300.6966387121
 20
37.0537460569
 11
300.8379142624
 21
37.1016998898
 72
1
 10
300.8379142624
 20
37.1016998898
 11
300.9842407715
 21
37.1308086795
 97
1
330
231
 75
0
 76
1
 98
1
 10
0.0
 20
0.0
  0
LWPOLYLINE
  5
233
100
AcDbEntity
  8
0
100
AcDbPolyline
 62
2
  6
CONTINUOUS
 90
7
 70
0
 10
328.6887347141
 20
36.831413186
 10
328.2576583666
 20
35.2226132082
 10
324.4045177413
 20
35.2226132082
 10
321.4865647769
 20
31.9750028634
 10
325.2079604115
 20
38.2211002917
 10
324.8355940889
 20
36.831413186
 10
328.6887347141
 20
36.831413186
  0
HATCH
  5
234
100
AcDbEntity
  8
0
100
AcDbHatch
 62
2
  6
CONTINUOUS
 10
0.0
 20
0.0
 30
0.0
210
0.0
220
0.0
230
1.0
  2
SOLID
 70
1
 71
1
 91
1
 92
1
 93
6
 72
1
 10
328.6887347141
 20
36.831413186
 11
328.2576583666
 21
35.2226132082
 72
1
 10
328.2576583666
 20
35.2226132082
 11
324.4045177413
 21
35.2226132082
 72
1
 10
324.4045177413
 20
35.2226132082
 11
321.4865647769
 21
31.9750028634
 72
1
 10
321.4865647769
 20
31.9750028634
 11
325.2079604115
 21
38.2211002917
 72
1
 10
325.2079604115
 20
38.2211002917
 11
324.8355940889
 21
36.831413186
 72
1
 10
324.8355940889
 20
36.831413186
 11
328.6887347141
 21
36.831413186
 97
1
330
233
 75
0
 76
1
 98
1
 10
0.0
 20
0.0
  0
SOLID
  5
235
100
AcDbEntity
  8
0
100
AcDbTrace
 62
2
  6
CONTINUOUS
 10
309.1308856156
 20
34.8691861339
 11
308.9820118349
 21
34.8594295374
 12
301.1331145522
 22
34.8594295374
 13
301.1331145522
 23
34.8594295374
  0
LWPOLYLINE
  5
236
100
AcDbEntity
  8
0
100
AcDbPolyline
 62
2
  6
CONTINUOUS
 90
50
 70
0
 10
303.2953883461
 20
34.2463739555
 10
303.4442621268
 20
34.256130552
 10
311.2931594095
 20
34.256130552
 10
311.4420331903
 20
34.2463739555
 10
311.5883596994
 20
34.2172651658
 10
311.7296352496
 20
34.1693113329
 10
311.8634425773
 20
34.1033255064
 10
311.9874922018
 20
34.0204346859
 10
312.0996615998
 20
33.9220717708
 10
312.1980315216
 20
33.8099031107
 10
312.2809188308
 20
33.6858526549
 10
312.3469053024
 20
33.5520456025
 10
312.3948618896
 20
33.4107681527
 10
312.4239680419
 20
33.2644433548
 10
312.4337257451
 20
33.1155667077
 10
312.4239680419
 20
32.9666900607
 10
312.3948618896
 20
32.8203652627
 10
312.3469053024
 20
32.679087813
 10
312.2809188308
 20
32.5452807606
 10
312.1980315216
 20
32.4212303047
 10
312.0996615998
 20
32.3090616446
 10
311.9874922018
 20
32.2106906796
 10
311.8634425773
 20
32.1278079091
 10
311.7296352496
 20
32.0618220825
 10
311.5883596994
 20
32.0138601996
 10
311.4420331903
 20
31.98475946
 10
303.4442621268
 20
31.9750028634
 10
303.2953883461
 20
31.98475946
 10
303.149061837
 20
32.0138601996
 10
303.0077862867
 20
32.0618220825
 10
302.8739789591
 20
32.1278079091
 10
302.7499293345
 20
32.2106906796
 10
302.6377599366
 20
32.3090616446
 10
302.5393900147
 20
32.4212303047
 10
302.4565027056
 20
32.5452807606
 10
302.390516234
 20
32.679087813
 10
302.3425596467
 20
32.8203652627
 10
302.3134534944
 20
32.9666900607
 10
302.3036957913
 20
33.1155667077
 10
302.3134534944
 20
33.2644433548
 10
302.3425596467
 20
33.4107681527
 10
302.390516234
 20
33.5520456025
 10
302.4565027056
 20
33.6858526549
 10
302.5393900147
 20
33.8099031107
 10
302.6377599366
 20
33.9220717708
 10
302.7499293345
 20
34.0204346859
 10
302.8739789591
 20
34.1033255064
 10
303.0077862867
 20
34.1693113329
 10
303.149061837
 20
34.2172651658
 10
303.2953883461
 20
34.2463739555
  0
HATCH
  5
237
100
AcDbEntity
  8
0
100
AcDbHatch
 62
2
  6
CONTINUOUS
 10
0.0
 20
0.0
 30
0.0
210
0.0
220
0.0
230
1.0
  2
SOLID
 70
1
 71
1
 91
1
 92
1
 93
49
 72
1
 10
303.2953883461
 20
34.2463739555
 11
303.4442621268
 21
34.256130552
 72
1
 10
303.4442621268
 20
34.256130552
 11
311.2931594095
 21
34.256130552
 72
1
 10
311.2931594095
 20
34.256130552
 11
311.4420331903
 21
34.2463739555
 72
1
 10
311.4420331903
 20
34.2463739555
 11
311.5883596994
 21
34.2172651658
 72
1
 10
311.5883596994
 20
34.2172651658
 11
311.7296352496
 21
34.1693113329
 72
1
 10
311.7296352496
 20
34.1693113329
 11
311.8634425773
 21
34.1033255064
 72
1
 10
311.8634425773
 20
34.1033255064
 11
311.9874922018
 21
34.0204346859
 72
1
 10
311.9874922018
 20
34.0204346859
 11
312.0996615998
 21
33.9220717708
 72
1
 10
312.0996615998
 20
33.9220717708
 11
312.1980315216
 21
33.8099031107
 72
1
 10
312.1980315216
 20
33.8099031107
 11
312.2809188308
 21
33.6858526549
 72
1
 10
312.2809188308
 20
33.6858526549
 11
312.3469053024
 21
33.5520456025
 72
1
 10
312.3469053024
 20
33.5520456025
 11
312.3948618896
 21
33.4107681527
 72
1
 10
312.3948618896
 20
33.4107681527
 11
312.4239680419
 21
33.2644433548
 72
1
 10
312.4239680419
 20
33.2644433548
 11
312.4337257451
 21
33.1155667077
 72
1
 10
312.4337257451
 20
33.1155667077
 11
312.4239680419
 21
32.9666900607
 72
1
 10
312.4239680419
 20
32.9666900607
 11
312.3948618896
 21
32.8203652627
 72
1
 10
312.3948618896
 20
32.8203652627
 11
312.3469053024
 21
32.679087813
 72
1
 10
312.3469053024
 20
32.679087813
 11
312.2809188308
 21
32.5452807606
 72
1
 10
312.2809188308
 20
32.5452807606
 11
312.1980315216
 21
32.4212303047
 72
1
 10
312.1980315216
 20
32.4212303047
 11
312.0996615998
 21
32.3090616446
 72
1
 10
312.0996615998
 20
32.3090616446
 11
311.9874922018
 21
32.2106906796
 72
1
 10
311.9874922018
 20
32.2106906796
 11
311.8634425773
 21
32.1278079091
 72
1
 10
311.8634425773
 20
32.1278079091
 11
311.7296352496
 21
32.0618220825
 72
1
 10
311.7296352496
 20
32.0618220825
 11
311.5883596994
 21
32.0138601996
 72
1
 10
311.5883596994
 20
32.0138601996
 11
311.4420331903
 21
31.98475946
 72
1
 10
311.4420331903
 20
31.98475946
 11
303.4442621268
 21
31.9750028634
 72
1
 10
303.4442621268
 20
31.9750028634
 11
303.2953883461
 21
31.98475946
 72
1
 10
303.2953883461
 20
31.98475946
 11
303.149061837
 21
32.0138601996
 72
1
 10
303.149061837
 20
32.0138601996
 11
303.0077862867
 21
32.0618220825
 72
1
 10
303.0077862867
 20
32.0618220825
 11
302.8739789591
 21
32.1278079091
 72
1
 10
302.8739789591
 20
32.1278079091
 11
302.7499293345
 21
32.2106906796
 72
1
 10
302.7499293345
 20
32.2106906796
 11
302.6377599366
 21
32.3090616446
 72
1
 10
302.6377599366
 20
32.3090616446
 11
302.5393900147
 21
32.4212303047
 72
1
 10
302.5393900147
 20
32.4212303047
 11
302.4565027056
 21
32.5452807606
 72
1
 10
302.4565027056
 20
32.5452807606
 11
302.390516234
 21
32.679087813
 72
1
 10
302.390516234
 20
32.679087813
 11
302.3425596467
 21
32.8203652627
 72
1
 10
302.3425596467
 20
32.8203652627
 11
302.3134534944
 21
32.9666900607
 72
1
 10
302.3134534944
 20
32.9666900607
 11
302.3036957913
 21
33.1155667077
 72
1
 10
302.3036957913
 20
33.1155667077
 11
302.3134534944
 21
33.2644433548
 72
1
 10
302.3134534944
 20
33.2644433548
 11
302.3425596467
 21
33.4107681527
 72
1
 10
302.3425596467
 20
33.4107681527
 11
302.390516234
 21
33.5520456025
 72
1
 10
302.390516234
 20
33.5520456025
 11
302.4565027056
 21
33.6858526549
 72
1
 10
302.4565027056
 20
33.6858526549
 11
302.5393900147
 21
33.8099031107
 72
1
 10
302.5393900147
 20
33.8099031107
 11
302.6377599366
 21
33.9220717708
 72
1
 10
302.6377599366
 20
33.9220717708
 11
302.7499293345
 21
34.0204346859
 72
1
 10
302.7499293345
 20
34.0204346859
 11
302.8739789591
 21
34.1033255064
 72
1
 10
302.8739789591
 20
34.1033255064
 11
303.0077862867
 21
34.1693113329
 72
1
 10
303.0077862867
 20
34.1693113329
 11
303.149061837
 21
34.2172651658
 72
1
 10
303.149061837
 20
34.2172651658
 11
303.2953883461
 21
34.2463739555
 97
1
330
236
 75
0
 76
1
 98
1
 10
0.0
 20
0.0
  0
SOLID
  5
238
100
AcDbEntity
  8
0
100
AcDbTrace
 62
2
  6
CONTINUOUS
 10
311.4420331903
 20
31.98475946
 11
311.2931594095
 21
31.9750028634
 12
303.4442621268
 22
31.9750028634
 13
303.4442621268
 23
31.9750028634
  0
LWPOLYLINE
  5
239
100
AcDbEntity
  8
0
100
AcDbPolyline
 62
2
  6
CONTINUOUS
 90
6
 70
0
 10
328.3338139487
 20
33.7788945218
 10
327.8504615515
 20
31.9750028634
 10
321.4865647769
 20
31.9750028634
 10
324.4045177413
 20
35.2226132082
 10
324.0176749741
 20
33.7788945218
 10
328.3338139487
 20
33.7788945218
  0
HATCH
  5
23A
100
AcDbEntity
  8
0
100
AcDbHatch
 62
2
  6
CONTINUOUS
 10
0.0
 20
0.0
 30
0.0
210
0.0
220
0.0
230
1.0
  2
SOLID
 70
1
 71
1
 91
1
 92
1
 93
5
 72
1
 10
328.3338139487
 20
33.7788945218
 11
327.8504615515
 21
31.9750028634
 72
1
 10
327.8504615515
 20
31.9750028634
 11
321.4865647769
 21
31.9750028634
 72
1
 10
321.4865647769
 20
31.9750028634
 11
324.4045177413
 21
35.2226132082
 72
1
 10
324.4045177413
 20
35.2226132082
 11
324.0176749741
 21
33.7788945218
 72
1
 10
324.0176749741
 20
33.7788945218
 11
328.3338139487
 21
33.7788945218
 97
1
330
239
 75
0
 76
1
 98
1
 10
0.0
 20
0.0
  0
ENDBLK
  5
23B
100
AcDbEntity
  8
0
  6
BYBLOCK
 62
0
100
AcDbBlockEnd
  0
ENDSEC
  0
SECTION
  2
ENTITIES
  0
TEXT
  5
23C
100
AcDbEntity
  8
0
100
AcDbText
 62
2
  6
CONTINUOUS
 10
273.9447944556
 20
16.2331743479
  7
STANDARD
 40
1.5200002147
  1
SIZE
 41
0.95
 72
0
100
AcDbText
  0
TEXT
  5
23D
100
AcDbEntity
  8
0
100
AcDbText
 62
2
  6
CONTINUOUS
 10
287.5144966041
 20
16.2331819773
  7
STANDARD
 40
1.5200002147
  1
DRAWING NO
 41
0.95
 72
0
100
AcDbText
  0
TEXT
  5
23E
100
AcDbEntity
  8
0
100
AcDbText
 62
2
  6
CONTINUOUS
 10
354.2964949762
 20
16.2330905319
  7
STANDARD
 40
1.52
  1
VERSION
 41
0.95
 72
0
100
AcDbText
  0
TEXT
  5
23F
100
AcDbEntity
  8
0
100
AcDbText
 62
2
  6
CONTINUOUS
 10
274.4447944556
 20
25.5657549143
  7
STANDARD
 40
1.5200002147
  1
NAME
 41
0.95
 72
0
100
AcDbText
  0
TEXT
  5
240
100
AcDbEntity
  8
0
100
AcDbText
 62
2
  6
CONTINUOUS
 10
276.2800492314
 20
10.3485471083
  7
STANDARD
 40
4.9999998868
  1
A3
 41
0.95
 72
0
100
AcDbText
  0
TEXT
  5
241
100
AcDbEntity
  8
0
100
AcDbText
 62
2
  6
CONTINUOUS
 10
297.3906714731
 20
21.1920805906
  7
TEXTSTYLE_2
 40
3.968
  1
CUSTOMER VIEW MODEL DRAWING
 41
0.8
 72
1
 11
340.2450714731
 21
21.1920805906
100
AcDbText
  0
TEXT
  5
242
100
AcDbEntity
  8
0
100
AcDbText
 62
2
  6
CONTINUOUS
 10
347.0299084682
 20
34.4224093775
  7
TEXTSTYLE_2
 40
2.5
  1
TE Connectivity
 41
0.8
 72
0
100
AcDbText
  0
TEXT
  5
243
100
AcDbEntity
  8
0
100
AcDbText
 62
2
  6
CONTINUOUS
 10
369.5635822821
 20
16.2739597356
  7
STANDARD
 40
1.52
  1
DATE
 41
0.95
 72
0
100
AcDbText
  0
TEXT
  5
244
100
AcDbEntity
  8
0
100
AcDbText
 62
2
  6
CONTINUOUS
 10
174.6476862981
 20
23.8368677885
  7
TEXTSTYLE_2
 40
2.286
  1
THIS IS NOT A CONTROLLED DRAWING.
 41
0.8
 72
0
100
AcDbText
  0
TEXT
  5
245
100
AcDbEntity
  8
0
100
AcDbText
 62
2
  6
CONTINUOUS
 10
174.6476862981
 20
20.4078677885
  7
TEXTSTYLE_2
 40
2.286
  1
THIS IS A REPRESENTATION OF THE CUSTOMER VIEW MODEL.
 41
0.8
 72
0
100
AcDbText
  0
TEXT
  5
246
100
AcDbEntity
  8
0
100
AcDbText
 62
2
  6
CONTINUOUS
 10
174.6476862981
 20
16.9788677885
  7
TEXTSTYLE_2
 40
2.286
  1
    THIS IS NOT THE DOCUMENT OF SALE.
 41
0.8
 72
0
100
AcDbText
  0
TEXT
  5
247
100
AcDbEntity
  8
0
100
AcDbText
 62
2
  6
CONTINUOUS
 10
174.6476862981
 20
13.5498677885
  7
TEXTSTYLE_2
 40
2.286
  1
SEE THE CUSTOMER DRAWING FOR DESIGN PURPOSES.
 41
0.8
 72
0
100
AcDbText
  0
TEXT
  5
248
100
AcDbEntity
  8
0
100
AcDbText
 62
2
  6
CONTINUOUS
 10
22.7512107444
 20
282.4829655254
  7
TEXTSTYLE_2
 40
2.5
  1
c
 41
0.8
 72
0
100
AcDbText
  0
INSERT
  5
249
100
AcDbEntity
  8
0
100
AcDbBlockReference
 62
2
  6
CONTINUOUS
  2
TE_CONNECTIVITY_BL0
 10
315.0
 20
36.0
  0
LINE
  5
24A
100
AcDbEntity
  8
0
100
AcDbLine
 62
2
  6
CONTINUOUS
 10
287.2090159416
 20
18.7593422635
 11
409.2090159416
 21
18.7593422635
  0
LINE
  5
24B
100
AcDbEntity
  8
0
100
AcDbLine
 62
2
  6
CONTINUOUS
 10
287.2090159416
 20
18.7593422635
 11
287.2090159416
 21
9.2342522635
  0
LINE
  5
24C
100
AcDbEntity
  8
0
100
AcDbLine
 62
2
  6
CONTINUOUS
 10
287.2090159416
 20
9.2342522635
 11
409.2090159416
 21
9.2342522635
  0
LINE
  5
24D
100
AcDbEntity
  8
0
100
AcDbLine
 62
2
  6
CONTINUOUS
 10
353.3340159416
 20
18.7593422635
 11
353.3340159416
 21
9.2342522635
  0
LINE
  5
24E
100
AcDbEntity
  8
0
100
AcDbLine
 62
2
  6
CONTINUOUS
 10
367.9590159416
 20
18.7593422635
 11
367.9590159416
 21
9.2342522635
  0
LINE
  5
24F
100
AcDbEntity
  8
0
100
AcDbLine
 62
2
  6
CONTINUOUS
 10
409.2090159416
 20
18.7593422635
 11
409.2090159416
 21
9.2342522635
  0
TEXT
  5
250
100
AcDbEntity
  8
0
100
AcDbText
 62
2
  6
CONTINUOUS
 10
307.5515159416
 20
12.4067972635
  7
TEXTSTYLE_2
 40
3.18
  1
C-215079-4
 41
0.8
 72
1
 11
320.2715159416
 21
12.4067972635
100
AcDbText
  0
TEXT
  5
251
100
AcDbEntity
  8
0
100
AcDbText
 62
2
  6
CONTINUOUS
 10
359.3745159416
 20
12.4067972635
  7
TEXTSTYLE_2
 40
3.18
  1
T
 41
0.8
 72
1
 11
360.6465159416
 21
12.4067972635
100
AcDbText
  0
TEXT
  5
252
100
AcDbEntity
  8
0
100
AcDbText
 62
2
  6
CONTINUOUS
 10
377.1360159416
 20
12.4067972635
  7
TEXTSTYLE_2
 40
3.18
  1
24-Apr-17
 41
0.8
 72
1
 11
388.5840159416
 21
12.4067972635
100
AcDbText
  0
LINE
  5
253
100
AcDbEntity
  8
0
100
AcDbLine
 62
2
  6
CONTINUOUS
 10
17.7838797455
 20
287.0843544705
 11
132.7838797455
 21
287.0843544705
  0
LINE
  5
254
100
AcDbEntity
  8
0
100
AcDbLine
 62
2
  6
CONTINUOUS
 10
17.7838797455
 20
287.0843544705
 11
17.7838797455
 21
272.0843544705
  0
LINE
  5
255
100
AcDbEntity
  8
0
100
AcDbLine
 62
2
  6
CONTINUOUS
 10
17.7838797455
 20
272.0843544705
 11
132.7838797455
 21
272.0843544705
  0
LINE
  5
256
100
AcDbEntity
  8
0
100
AcDbLine
 62
2
  6
CONTINUOUS
 10
132.7838797455
 20
287.0843544705
 11
132.7838797455
 21
272.0843544705
  0
TEXT
  5
257
100
AcDbEntity
  8
0
100
AcDbText
 62
2
  6
CONTINUOUS
 10
17.8463797455
 20
282.0843544705
  7
TEXTSTYLE_2
 40
2.5
  1
  
 41
0.8
 72
0
100
AcDbText
  0
TEXT
  5
258
100
AcDbEntity
  8
0
100
AcDbText
 62
2
  6
CONTINUOUS
 10
21.8463797455
 20
282.0843544705
  7
TEXTSTYLE_1
 40
2.5
  1
e
 41
1.0
 72
0
100
AcDbText
  0
TEXT
  5
259
100
AcDbEntity
  8
0
100
AcDbText
 62
2
  6
CONTINUOUS
 10
26.4297130788
 20
282.0843544705
  7
TEXTSTYLE_2
 40
2.5
  1
Copyright 
 41
0.8
 72
0
100
AcDbText
  0
TEXT
  5
25A
100
AcDbEntity
  8
0
100
AcDbText
 62
2
  6
CONTINUOUS
 10
46.4297130788
 20
282.0843544705
  7
TEXTSTYLE_2
 40
2.5
  1
24-Apr-17
 41
0.8
 72
0
100
AcDbText
  0
TEXT
  5
25B
100
AcDbEntity
  8
0
100
AcDbText
 62
2
  6
CONTINUOUS
 10
64.4297130788
 20
282.0843544705
  7
TEXTSTYLE_2
 40
2.5
  1
 Tyco Electronics Corporation,
 41
0.8
 72
0
100
AcDbText
  0
TEXT
  5
25C
100
AcDbEntity
  8
0
100
AcDbText
 62
2
  6
CONTINUOUS
 10
17.8463797455
 20
278.3343544705
  7
TEXTSTYLE_2
 40
2.5
  1
 
 41
0.8
 72
0
100
AcDbText
  0
TEXT
  5
25D
100
AcDbEntity
  8
0
100
AcDbText
 62
2
  6
CONTINUOUS
 10
17.8463797455
 20
274.5843544705
  7
TEXTSTYLE_2
 40
2.5
  1
  a TE Connectivity Ltd. Company.  All Rights Reserved.
 41
0.8
 72
0
100
AcDbText
  0
LINE
  5
25E
100
AcDbEntity
  8
0
100
AcDbLine
 62
7
  6
CONTINUOUS
 10
0.0
 20
0.0
 11
0.0
 21
297.0
  0
LINE
  5
25F
100
AcDbEntity
  8
0
100
AcDbLine
 62
7
  6
CONTINUOUS
 10
17.7838797455
 20
9.2342568143
 11
17.7838797455
 21
287.0843544705
  0
LINE
  5
260
100
AcDbEntity
  8
0
100
AcDbLine
 62
7
  6
CONTINUOUS
 10
0.0
 20
0.0
 11
420.0
 21
0.0
  0
LINE
  5
261
100
AcDbEntity
  8
0
100
AcDbLine
 62
7
  6
CONTINUOUS
 10
409.2090201263
 20
9.2342568143
 11
17.7838797455
 21
9.2342568143
  0
LINE
  5
262
100
AcDbEntity
  8
0
100
AcDbLine
 62
7
  6
CONTINUOUS
 10
30.4841666107
 20
9.234348367
 11
17.784490097
 21
9.234348367
  0
LINE
  5
263
100
AcDbEntity
  8
0
100
AcDbLine
 62
7
  6
CONTINUOUS
 10
409.2090159416
 20
18.7593422635
 11
273.4388174896
 21
18.7593422635
  0
LINE
  5
264
100
AcDbEntity
  8
DRAFT_ENTITY
100
AcDbLine
 62
7
  6
CONTINUOUS
 10
409.2091421966
 20
28.2845192655
 11
273.4386343841
 21
28.2845192655
  0
LINE
  5
265
100
AcDbEntity
  8
0
100
AcDbLine
 62
7
  6
CONTINUOUS
 10
409.2091421966
 20
44.1593056424
 11
273.4386343841
 21
44.1593056424
  0
LINE
  5
266
100
AcDbEntity
  8
0
100
AcDbLine
 62
7
  6
CONTINUOUS
 10
273.4386343841
 20
44.1593056424
 11
273.4386343841
 21
9.2342568143
  0
LINE
  5
267
100
AcDbEntity
  8
0
100
AcDbLine
 62
7
  6
CONTINUOUS
 10
287.2079097655
 20
18.7593422635
 11
287.2079097655
 21
9.2342568143
  0
LINE
  5
268
100
AcDbEntity
  8
0
100
AcDbLine
 62
7
  6
CONTINUOUS
 10
353.3344447689
 20
18.7593808926
 11
353.3344447689
 21
9.2342954434
  0
LINE
  5
269
100
AcDbEntity
  8
0
100
AcDbLine
 62
7
  6
CONTINUOUS
 10
17.7838797455
 20
287.0843544705
 11
409.208898056
 21
287.0843544705
  0
LINE
  5
26A
100
AcDbEntity
  8
0
100
AcDbLine
 62
7
  6
CONTINUOUS
 10
0.0
 20
297.0
 11
420.0
 21
297.0
  0
LINE
  5
26B
100
AcDbEntity
  8
0
100
AcDbLine
 62
7
  6
CONTINUOUS
 10
367.9586057154
 20
9.2337890544
 11
367.9586057154
 21
18.7587829509
  0
LINE
  5
26C
100
AcDbEntity
  8
0
100
AcDbLine
 62
7
  6
CONTINUOUS
 10
409.208898056
 20
287.0843544705
 11
409.2090201263
 21
9.2342568143
  0
LINE
  5
26D
100
AcDbEntity
  8
0
100
AcDbLine
 62
7
  6
CONTINUOUS
 10
420.0
 20
0.0
 11
420.0
 21
297.0
  0
LINE
  5
26E
100
AcDbEntity
  8
0
100
AcDbLine
 62
7
  6
CONTINUOUS
 10
260.4128636982
 20
221.7497699544
 11
263.5113098732
 21
231.7763547637
  0
LINE
  5
26F
100
AcDbEntity
  8
0
100
AcDbLine
 62
7
  6
CONTINUOUS
 10
272.8290548055
 20
188.4476246677
 11
313.9452217802
 21
188.4476246677
  0
LINE
  5
270
100
AcDbEntity
  8
0
100
AcDbLine
 62
7
  6
CONTINUOUS
 10
272.4417490336
 20
188.7943015152
 11
313.5579160083
 21
188.7943015152
  0
LINE
  5
271
100
AcDbEntity
  8
0
100
AcDbLine
 62
7
  6
CONTINUOUS
 10
272.4417490336
 20
188.7943015152
 11
263.984828151
 21
206.0277042465
  0
LINE
  5
272
100
AcDbEntity
  8
0
100
AcDbLine
 62
7
  6
CONTINUOUS
 10
277.828400441
 20
189.4543964089
 11
279.6705226172
 21
189.4543964089
  0
LINE
  5
273
100
AcDbEntity
  8
0
100
AcDbLine
 62
7
  6
CONTINUOUS
 10
296.544361752
 20
189.4543964089
 11
298.3864839283
 21
189.4543964089
  0
LINE
  5
274
100
AcDbEntity
  8
0
100
AcDbLine
 62
7
  6
CONTINUOUS
 10
286.3897111247
 20
189.9516843134
 11
289.3371066068
 21
189.9516843134
  0
LINE
  5
275
100
AcDbEntity
  8
0
100
AcDbLine
 62
7
  6
CONTINUOUS
 10
305.1056724358
 20
189.9516843134
 11
308.0530679179
 21
189.9516843134
  0
LINE
  5
276
100
AcDbEntity
  8
0
100
AcDbLine
 62
7
  6
CONTINUOUS
 10
276.9829238054
 20
190.0511418943
 11
277.5355604583
 21
190.0511418943
  0
LINE
  5
277
100
AcDbEntity
  8
0
100
AcDbLine
 62
7
  6
CONTINUOUS
 10
279.3776826346
 20
190.0511418943
 11
279.9303192875
 21
190.0511418943
  0
LINE
  5
278
100
AcDbEntity
  8
0
100
AcDbLine
 62
7
  6
CONTINUOUS
 10
295.6988851165
 20
190.0511418943
 11
296.2515217694
 21
190.0511418943
  0
LINE
  5
279
100
AcDbEntity
  8
0
100
AcDbLine
 62
7
  6
CONTINUOUS
 10
298.0936439457
 20
190.0511418943
 11
298.6462805985
 21
190.0511418943
  0
LINE
  5
27A
100
AcDbEntity
  8
0
100
AcDbLine
 62
7
  6
CONTINUOUS
 10
297.8184653302
 20
191.7380530177
 11
297.1778138654
 21
191.7380530177
  0
LINE
  5
27B
100
AcDbEntity
  8
0
100
AcDbLine
 62
7
  6
CONTINUOUS
 10
279.1025040191
 20
191.7380530177
 11
278.4618525543
 21
191.7380530177
  0
LINE
  5
27C
100
AcDbEntity
  8
0
100
AcDbLine
 62
7
  6
CONTINUOUS
 10
297.7189539868
 20
191.9408359314
 11
294.7715585047
 21
191.9408359314
  0
LINE
  5
27D
100
AcDbEntity
  8
0
100
AcDbLine
 62
7
  6
CONTINUOUS
 10
279.0029926757
 20
191.9408359314
 11
276.0555971936
 21
191.9408359314
  0
LINE
  5
27E
100
AcDbEntity
  8
0
100
AcDbLine
 62
7
  6
CONTINUOUS
 10
283.6336512311
 20
192.1894798836
 11
285.2915611897
 21
192.1894798836
  0
LINE
  5
27F
100
AcDbEntity
  8
0
100
AcDbLine
 62
7
  6
CONTINUOUS
 10
288.2389566718
 20
192.1894798836
 11
289.8968666305
 21
192.1894798836
  0
LINE
  5
280
100
AcDbEntity
  8
0
100
AcDbLine
 62
7
  6
CONTINUOUS
 10
302.3496125422
 20
192.1894798836
 11
304.0075225008
 21
192.1894798836
  0
LINE
  5
281
100
AcDbEntity
  8
0
100
AcDbLine
 62
7
  6
CONTINUOUS
 10
306.9549179829
 20
192.1894798836
 11
308.6128279415
 21
192.1894798836
  0
LINE
  5
282
100
AcDbEntity
  8
0
100
AcDbLine
 62
7
  6
CONTINUOUS
 10
269.1509708789
 20
202.6325258781
 11
270.6151707922
 21
199.6487984511
  0
LINE
  5
283
100
AcDbEntity
  8
0
100
AcDbLine
 62
7
  6
CONTINUOUS
 10
260.4128636982
 20
221.7497699544
 11
263.4632801843
 21
215.5336711481
  0
LINE
  5
284
100
AcDbEntity
  8
0
100
AcDbLine
 62
7
  6
CONTINUOUS
 10
269.7107309026
 20
204.8703214483
 11
270.8088808376
 21
202.6325258781
  0
LINE
  5
285
100
AcDbEntity
  8
0
100
AcDbLine
 62
7
  6
CONTINUOUS
 10
272.2730807509
 20
199.6487984511
 11
273.3712306859
 21
197.4110028809
  0
LINE
  5
286
100
AcDbEntity
  8
0
100
AcDbLine
 62
7
  6
CONTINUOUS
 10
276.0555971936
 20
191.9408359314
 11
276.9829238054
 21
190.0511418943
  0
LINE
  5
287
100
AcDbEntity
  8
0
100
AcDbLine
 62
7
  6
CONTINUOUS
 10
277.5355604583
 20
190.0511418943
 11
277.828400441
 21
189.4543964089
  0
LINE
  5
288
100
AcDbEntity
  8
0
100
AcDbLine
 62
7
  6
CONTINUOUS
 10
263.8691705985
 20
208.2253944197
 11
266.570122804
 21
217.7113312103
  0
LINE
  5
289
100
AcDbEntity
  8
0
100
AcDbLine
 62
7
  6
CONTINUOUS
 10
286.7683769161
 20
192.3487695949
 11
288.2881808699
 21
192.3487695949
  0
LINE
  5
28A
100
AcDbEntity
  8
0
100
AcDbLine
 62
7
  6
CONTINUOUS
 10
305.4843382271
 20
192.3487695949
 11
307.0041421809
 21
192.3487695949
  0
LINE
  5
28B
100
AcDbEntity
  8
0
100
AcDbLine
 62
7
  6
CONTINUOUS
 10
286.5945349956
 20
192.703022386
 11
288.3976531604
 21
192.703022386
  0
LINE
  5
28C
100
AcDbEntity
  8
0
100
AcDbLine
 62
7
  6
CONTINUOUS
 10
305.3104963067
 20
192.703022386
 11
307.1136144715
 21
192.703022386
  0
LINE
  5
28D
100
AcDbEntity
  8
0
100
AcDbLine
 62
7
  6
CONTINUOUS
 10
286.4272018581
 20
193.4024145693
 11
288.2693240344
 21
193.4024145693
  0
LINE
  5
28E
100
AcDbEntity
  8
0
100
AcDbLine
 62
7
  6
CONTINUOUS
 10
305.1431631692
 20
193.4024145693
 11
306.9852853455
 21
193.4024145693
  0
LINE
  5
28F
100
AcDbEntity
  8
0
100
AcDbLine
 62
7
  6
CONTINUOUS
 10
307.1486280282
 20
195.1732073106
 11
305.4907180696
 21
195.1732073106
  0
LINE
  5
290
100
AcDbEntity
  8
0
100
AcDbLine
 62
7
  6
CONTINUOUS
 10
302.5433225875
 20
195.1732073106
 11
300.8854126288
 21
195.1732073106
  0
LINE
  5
291
100
AcDbEntity
  8
0
100
AcDbLine
 62
7
  6
CONTINUOUS
 10
288.4326667171
 20
195.1732073106
 11
286.7747567585
 21
195.1732073106
  0
LINE
  5
292
100
AcDbEntity
  8
0
100
AcDbLine
 62
7
  6
CONTINUOUS
 10
283.8273612764
 20
195.1732073106
 11
282.1694513178
 21
195.1732073106
  0
LINE
  5
293
100
AcDbEntity
  8
0
100
AcDbLine
 62
7
  6
CONTINUOUS
 10
286.2814398103
 20
195.2313738653
 11
286.7462127757
 21
195.2313738653
  0
LINE
  5
294
100
AcDbEntity
  8
0
100
AcDbLine
 62
7
  6
CONTINUOUS
 10
304.9974011214
 20
195.2313738653
 11
305.4621740868
 21
195.2313738653
  0
LINE
  5
295
100
AcDbEntity
  8
0
100
AcDbLine
 62
7
  6
CONTINUOUS
 10
273.6522831497
 20
200.0070033242
 11
273.4784412292
 21
200.3612561153
  0
LINE
  5
296
100
AcDbEntity
  8
0
100
AcDbLine
 62
7
  6
CONTINUOUS
 10
271.3857918813
 20
204.625629578
 11
271.2657146208
 21
204.8703214483
  0
LINE
  5
297
100
AcDbEntity
  8
0
100
AcDbLine
 62
7
  6
CONTINUOUS
 10
278.3623412109
 20
191.9408359314
 11
278.4618525543
 21
191.7380530177
  0
LINE
  5
298
100
AcDbEntity
  8
0
100
AcDbLine
 62
7
  6
CONTINUOUS
 10
279.6705226172
 20
189.4543964089
 11
279.3776826346
 21
190.0511418943
  0
LINE
  5
299
100
AcDbEntity
  8
0
100
AcDbLine
 62
7
  6
CONTINUOUS
 10
279.9303192875
 20
190.0511418943
 11
279.0029926757
 21
191.9408359314
  0
LINE
  5
29A
100
AcDbEntity
  8
0
100
AcDbLine
 62
7
  6
CONTINUOUS
 10
276.318626168
 20
197.4110028809
 11
275.220476233
 21
199.6487984511
  0
LINE
  5
29B
100
AcDbEntity
  8
0
100
AcDbLine
 62
7
  6
CONTINUOUS
 10
273.7562763196
 20
202.6325258781
 11
272.6581263847
 21
204.8703214483
  0
LINE
  5
29C
100
AcDbEntity
  8
0
100
AcDbLine
 62
7
  6
CONTINUOUS
 10
275.3942438275
 20
200.2111111153
 11
275.3205634055
 21
200.3612561153
  0
LINE
  5
29D
100
AcDbEntity
  8
0
100
AcDbLine
 62
7
  6
CONTINUOUS
 10
276.8783861916
 20
199.6487984511
 11
275.4141862783
 21
202.6325258781
  0
LINE
  5
29E
100
AcDbEntity
  8
0
100
AcDbLine
 62
7
  6
CONTINUOUS
 10
273.3111080918
 20
201.0606482986
 11
273.1653460439
 21
202.8896075945
  0
LINE
  5
29F
100
AcDbEntity
  8
0
100
AcDbLine
 62
7
  6
CONTINUOUS
 10
284.7923649766
 20
196.7073882131
 11
286.0218905536
 21
196.7073882131
  0
LINE
  5
2A0
100
AcDbEntity
  8
0
100
AcDbLine
 62
7
  6
CONTINUOUS
 10
303.5083262877
 20
196.7073882131
 11
304.7378518647
 21
196.7073882131
  0
LINE
  5
2A1
100
AcDbEntity
  8
0
100
AcDbLine
 62
7
  6
CONTINUOUS
 10
317.056855693
 20
196.8853747294
 11
324.4886901268
 21
196.8853747294
  0
LINE
  5
2A2
100
AcDbEntity
  8
0
100
AcDbLine
 62
7
  6
CONTINUOUS
 10
284.5018856477
 20
196.9673958487
 11
285.8942974115
 21
196.9673958487
  0
LINE
  5
2A3
100
AcDbEntity
  8
0
100
AcDbLine
 62
7
  6
CONTINUOUS
 10
303.2178469587
 20
196.9673958487
 11
304.6102587226
 21
196.9673958487
  0
LINE
  5
2A4
100
AcDbEntity
  8
0
100
AcDbLine
 62
7
  6
CONTINUOUS
 10
284.3280437272
 20
197.3216486399
 11
285.720455491
 21
197.3216486399
  0
LINE
  5
2A5
100
AcDbEntity
  8
0
100
AcDbLine
 62
7
  6
CONTINUOUS
 10
303.0440050383
 20
197.3216486399
 11
304.4364168021
 21
197.3216486399
  0
LINE
  5
2A6
100
AcDbEntity
  8
0
100
AcDbLine
 62
7
  6
CONTINUOUS
 10
304.3925681346
 20
197.4110028809
 11
301.4451726525
 21
197.4110028809
  0
LINE
  5
2A7
100
AcDbEntity
  8
0
100
AcDbLine
 62
7
  6
CONTINUOUS
 10
285.6766068235
 20
197.4110028809
 11
282.7292113414
 21
197.4110028809
  0
LINE
  5
2A8
100
AcDbEntity
  8
0
100
AcDbLine
 62
7
  6
CONTINUOUS
 10
273.3712306859
 20
197.4110028809
 11
276.318626168
 21
197.4110028809
  0
LINE
  5
2A9
100
AcDbEntity
  8
0
100
AcDbLine
 62
7
  6
CONTINUOUS
 10
292.087191997
 20
197.4110028809
 11
295.034587479
 21
197.4110028809
  0
LINE
  5
2AA
100
AcDbEntity
  8
0
100
AcDbLine
 62
7
  6
CONTINUOUS
 10
318.4760029617
 20
198.176700757
 11
317.5085665091
 21
198.176700757
  0
LINE
  5
2AB
100
AcDbEntity
  8
0
100
AcDbLine
 62
7
  6
CONTINUOUS
 10
282.1694513178
 20
195.1732073106
 11
283.6336512311
 21
192.1894798836
  0
LINE
  5
2AC
100
AcDbEntity
  8
0
100
AcDbLine
 62
7
  6
CONTINUOUS
 10
275.153230268
 20
201.0606482986
 11
275.0279567885
 21
202.6325258781
  0
LINE
  5
2AD
100
AcDbEntity
  8
0
100
AcDbLine
 62
7
  6
CONTINUOUS
 10
290.7224458083
 20
241.5300987438
 11
288.1895640012
 21
238.9661681483
  0
LINE
  5
2AE
100
AcDbEntity
  8
0
100
AcDbLine
 62
7
  6
CONTINUOUS
 10
270.6151707922
 20
199.6487984511
 11
272.2730807509
 21
199.6487984511
  0
LINE
  5
2AF
100
AcDbEntity
  8
0
100
AcDbLine
 62
7
  6
CONTINUOUS
 10
275.220476233
 20
199.6487984511
 11
276.8783861916
 21
199.6487984511
  0
LINE
  5
2B0
100
AcDbEntity
  8
0
100
AcDbLine
 62
7
  6
CONTINUOUS
 10
289.3311321033
 20
199.6487984511
 11
290.989042062
 21
199.6487984511
  0
LINE
  5
2B1
100
AcDbEntity
  8
0
100
AcDbLine
 62
7
  6
CONTINUOUS
 10
293.936437544
 20
199.6487984511
 11
295.5943475027
 21
199.6487984511
  0
LINE
  5
2B2
100
AcDbEntity
  8
0
100
AcDbLine
 62
7
  6
CONTINUOUS
 10
294.0471311192
 20
200.0070033242
 11
292.3682444607
 21
200.0070033242
  0
LINE
  5
2B3
100
AcDbEntity
  8
0
100
AcDbLine
 62
7
  6
CONTINUOUS
 10
275.3311698081
 20
200.0070033242
 11
273.6522831497
 21
200.0070033242
  0
LINE
  5
2B4
100
AcDbEntity
  8
0
100
AcDbLine
 62
7
  6
CONTINUOUS
 10
294.0365247166
 20
200.3612561153
 11
292.1944025403
 21
200.3612561153
  0
LINE
  5
2B5
100
AcDbEntity
  8
0
100
AcDbLine
 62
7
  6
CONTINUOUS
 10
275.3205634055
 20
200.3612561153
 11
273.4784412292
 21
200.3612561153
  0
LINE
  5
2B6
100
AcDbEntity
  8
0
100
AcDbLine
 62
7
  6
CONTINUOUS
 10
293.8691915791
 20
201.0606482986
 11
292.0270694028
 21
201.0606482986
  0
LINE
  5
2B7
100
AcDbEntity
  8
0
100
AcDbLine
 62
7
  6
CONTINUOUS
 10
275.153230268
 20
201.0606482986
 11
273.3111080918
 21
201.0606482986
  0
LINE
  5
2B8
100
AcDbEntity
  8
0
100
AcDbLine
 62
7
  6
CONTINUOUS
 10
279.1175182219
 20
204.7708638674
 11
280.0448448337
 21
202.8811698304
  0
LINE
  5
2B9
100
AcDbEntity
  8
0
100
AcDbLine
 62
7
  6
CONTINUOUS
 10
282.7292113414
 20
197.4110028809
 11
283.8273612764
 21
195.1732073106
  0
LINE
  5
2BA
100
AcDbEntity
  8
0
100
AcDbLine
 62
7
  6
CONTINUOUS
 10
285.2915611897
 20
192.1894798836
 11
286.3897111247
 21
189.9516843134
  0
LINE
  5
2BB
100
AcDbEntity
  8
0
100
AcDbLine
 62
7
  6
CONTINUOUS
 10
279.3773148921
 20
205.3676093528
 11
279.6701548748
 21
204.7708638674
  0
LINE
  5
2BC
100
AcDbEntity
  8
0
100
AcDbLine
 62
7
  6
CONTINUOUS
 10
284.3280437272
 20
197.3216486399
 11
284.5018856477
 21
196.9673958487
  0
LINE
  5
2BD
100
AcDbEntity
  8
0
100
AcDbLine
 62
7
  6
CONTINUOUS
 10
286.5945349956
 20
192.703022386
 11
286.7683769161
 21
192.3487695949
  0
LINE
  5
2BE
100
AcDbEntity
  8
0
100
AcDbLine
 62
7
  6
CONTINUOUS
 10
270.8088808376
 20
202.6325258781
 11
271.4106726372
 21
204.579926664
  0
LINE
  5
2BF
100
AcDbEntity
  8
0
100
AcDbLine
 62
7
  6
CONTINUOUS
 10
270.6151707922
 20
199.6487984511
 11
272.0727781414
 21
204.3656219424
  0
LINE
  5
2C0
100
AcDbEntity
  8
0
100
AcDbLine
 62
7
  6
CONTINUOUS
 10
272.2730807509
 20
199.6487984511
 11
273.1877386238
 21
202.6086351616
  0
LINE
  5
2C1
100
AcDbEntity
  8
0
100
AcDbLine
 62
7
  6
CONTINUOUS
 10
289.5428224953
 20
238.1828412101
 11
292.4348451486
 21
241.1103151028
  0
LINE
  5
2C2
100
AcDbEntity
  8
0
100
AcDbLine
 62
7
  6
CONTINUOUS
 10
294.1301475894
 20
202.6325258781
 11
292.4722376307
 21
202.6325258781
  0
LINE
  5
2C3
100
AcDbEntity
  8
0
100
AcDbLine
 62
7
  6
CONTINUOUS
 10
289.5248421487
 20
202.6325258781
 11
287.86693219
 21
202.6325258781
  0
LINE
  5
2C4
100
AcDbEntity
  8
0
100
AcDbLine
 62
7
  6
CONTINUOUS
 10
275.4141862783
 20
202.6325258781
 11
273.7562763196
 21
202.6325258781
  0
LINE
  5
2C5
100
AcDbEntity
  8
0
100
AcDbLine
 62
7
  6
CONTINUOUS
 10
270.8088808376
 20
202.6325258781
 11
269.1509708789
 21
202.6325258781
  0
LINE
  5
2C6
100
AcDbEntity
  8
0
100
AcDbLine
 62
7
  6
CONTINUOUS
 10
280.0448448337
 20
202.8811698304
 11
282.9922403157
 21
202.8811698304
  0
LINE
  5
2C7
100
AcDbEntity
  8
0
100
AcDbLine
 62
7
  6
CONTINUOUS
 10
298.7608061448
 20
202.8811698304
 11
301.7082016268
 21
202.8811698304
  0
LINE
  5
2C8
100
AcDbEntity
  8
0
100
AcDbLine
 62
7
  6
CONTINUOUS
 10
292.3460803204
 20
202.8896075945
 11
291.881307355
 21
202.8896075945
  0
LINE
  5
2C9
100
AcDbEntity
  8
0
100
AcDbLine
 62
7
  6
CONTINUOUS
 10
273.6301190093
 20
202.8896075945
 11
273.1653460439
 21
202.8896075945
  0
LINE
  5
2CA
100
AcDbEntity
  8
0
100
AcDbLine
 62
7
  6
CONTINUOUS
 10
321.4382736407
 20
203.1014735357
 11
316.0592768859
 21
203.1014735357
  0
LINE
  5
2CB
100
AcDbEntity
  8
0
100
AcDbLine
 62
7
  6
CONTINUOUS
 10
281.5122770511
 20
204.7708638674
 11
281.2194370684
 21
205.3676093528
  0
LINE
  5
2CC
100
AcDbEntity
  8
0
100
AcDbLine
 62
7
  6
CONTINUOUS
 10
289.3371066068
 20
189.9516843134
 11
288.2389566718
 21
192.1894798836
  0
LINE
  5
2CD
100
AcDbEntity
  8
0
100
AcDbLine
 62
7
  6
CONTINUOUS
 10
286.7747567585
 20
195.1732073106
 11
285.6766068235
 21
197.4110028809
  0
LINE
  5
2CE
100
AcDbEntity
  8
0
100
AcDbLine
 62
7
  6
CONTINUOUS
 10
282.9922403157
 20
202.8811698304
 11
282.064913704
 21
204.7708638674
  0
LINE
  5
2CF
100
AcDbEntity
  8
0
100
AcDbLine
 62
7
  6
CONTINUOUS
 10
289.8968666305
 20
192.1894798836
 11
288.4326667171
 21
195.1732073106
  0
LINE
  5
2D0
100
AcDbEntity
  8
0
100
AcDbLine
 62
7
  6
CONTINUOUS
 10
273.3712306859
 20
197.4110028809
 11
274.1734547529
 21
200.0070033242
  0
LINE
  5
2D1
100
AcDbEntity
  8
0
100
AcDbLine
 62
7
  6
CONTINUOUS
 10
275.220476233
 20
199.6487984511
 11
275.861090765
 21
201.721829762
  0
LINE
  5
2D2
100
AcDbEntity
  8
0
100
AcDbLine
 62
7
  6
CONTINUOUS
 10
285.8780735188
 20
233.4824856261
 11
285.3508396954
 21
231.7763547637
  0
LINE
  5
2D3
100
AcDbEntity
  8
0
100
AcDbLine
 62
7
  6
CONTINUOUS
 10
290.7629890897
 20
235.6964016876
 11
293.655011743
 21
238.6238755803
  0
LINE
  5
2D4
100
AcDbEntity
  8
0
100
AcDbLine
 62
7
  6
CONTINUOUS
 10
291.6217580983
 20
204.3656219424
 11
290.3922325213
 21
204.3656219424
  0
LINE
  5
2D5
100
AcDbEntity
  8
0
100
AcDbLine
 62
7
  6
CONTINUOUS
 10
272.9057967872
 20
204.3656219424
 11
271.6762712102
 21
204.3656219424
  0
LINE
  5
2D6
100
AcDbEntity
  8
0
100
AcDbLine
 62
7
  6
CONTINUOUS
 10
291.4941649562
 20
204.625629578
 11
290.1017531924
 21
204.625629578
  0
LINE
  5
2D7
100
AcDbEntity
  8
0
100
AcDbLine
 62
7
  6
CONTINUOUS
 10
272.7782036451
 20
204.625629578
 11
271.3857918813
 21
204.625629578
  0
LINE
  5
2D8
100
AcDbEntity
  8
0
100
AcDbLine
 62
7
  6
CONTINUOUS
 10
300.7808750151
 20
204.7708638674
 11
300.2282383622
 21
204.7708638674
  0
LINE
  5
2D9
100
AcDbEntity
  8
0
100
AcDbLine
 62
7
  6
CONTINUOUS
 10
298.3861161859
 20
204.7708638674
 11
297.833479533
 21
204.7708638674
  0
LINE
  5
2DA
100
AcDbEntity
  8
0
100
AcDbLine
 62
7
  6
CONTINUOUS
 10
282.064913704
 20
204.7708638674
 11
281.5122770511
 21
204.7708638674
  0
LINE
  5
2DB
100
AcDbEntity
  8
0
100
AcDbLine
 62
7
  6
CONTINUOUS
 10
279.6701548748
 20
204.7708638674
 11
279.1175182219
 21
204.7708638674
  0
LINE
  5
2DC
100
AcDbEntity
  8
0
100
AcDbLine
 62
7
  6
CONTINUOUS
 10
291.3740876957
 20
204.8703214483
 11
288.4266922137
 21
204.8703214483
  0
LINE
  5
2DD
100
AcDbEntity
  8
0
100
AcDbLine
 62
7
  6
CONTINUOUS
 10
272.6581263847
 20
204.8703214483
 11
269.7107309026
 21
204.8703214483
  0
LINE
  5
2DE
100
AcDbEntity
  8
0
100
AcDbLine
 62
7
  6
CONTINUOUS
 10
299.9353983795
 20
205.3676093528
 11
298.0932762032
 21
205.3676093528
  0
LINE
  5
2DF
100
AcDbEntity
  8
0
100
AcDbLine
 62
7
  6
CONTINUOUS
 10
281.2194370684
 20
205.3676093528
 11
279.3773148921
 21
205.3676093528
  0
LINE
  5
2E0
100
AcDbEntity
  8
0
100
AcDbLine
 62
7
  6
CONTINUOUS
 10
263.984828151
 20
206.0277042465
 11
305.1009951257
 21
206.0277042465
  0
LINE
  5
2E1
100
AcDbEntity
  8
0
100
AcDbLine
 62
7
  6
CONTINUOUS
 10
287.86693219
 20
202.6325258781
 11
289.3311321033
 21
199.6487984511
  0
LINE
  5
2E2
100
AcDbEntity
  8
0
100
AcDbLine
 62
7
  6
CONTINUOUS
 10
286.2814398103
 20
195.2313738653
 11
286.4272018581
 21
193.4024145693
  0
LINE
  5
2E3
100
AcDbEntity
  8
0
100
AcDbLine
 62
7
  6
CONTINUOUS
 10
287.7201956951
 20
233.4824856261
 11
287.1929618716
 21
231.7763547637
  0
LINE
  5
2E4
100
AcDbEntity
  8
0
100
AcDbLine
 62
7
  6
CONTINUOUS
 10
293.4187228919
 20
249.7760798958
 11
291.0157640176
 21
242.0000949067
  0
LINE
  5
2E5
100
AcDbEntity
  8
0
100
AcDbLine
 62
7
  6
CONTINUOUS
 10
279.6701548748
 20
204.7708638674
 11
279.854563006
 21
205.3676093528
  0
LINE
  5
2E6
100
AcDbEntity
  8
0
100
AcDbLine
 62
7
  6
CONTINUOUS
 10
263.8691705985
 20
208.2253944197
 11
304.9853375732
 21
208.2253944197
  0
LINE
  5
2E7
100
AcDbEntity
  8
0
100
AcDbLine
 62
7
  6
CONTINUOUS
 10
288.4266922137
 20
204.8703214483
 11
289.5248421487
 21
202.6325258781
  0
LINE
  5
2E8
100
AcDbEntity
  8
0
100
AcDbLine
 62
7
  6
CONTINUOUS
 10
290.989042062
 20
199.6487984511
 11
292.087191997
 21
197.4110028809
  0
LINE
  5
2E9
100
AcDbEntity
  8
0
100
AcDbLine
 62
7
  6
CONTINUOUS
 10
294.7715585047
 20
191.9408359314
 11
295.6988851165
 21
190.0511418943
  0
LINE
  5
2EA
100
AcDbEntity
  8
0
100
AcDbLine
 62
7
  6
CONTINUOUS
 10
296.2515217694
 20
190.0511418943
 11
296.544361752
 21
189.4543964089
  0
LINE
  5
2EB
100
AcDbEntity
  8
0
100
AcDbLine
 62
7
  6
CONTINUOUS
 10
292.3682444607
 20
200.0070033242
 11
292.1944025403
 21
200.3612561153
  0
LINE
  5
2EC
100
AcDbEntity
  8
0
100
AcDbLine
 62
7
  6
CONTINUOUS
 10
290.1017531924
 20
204.625629578
 11
289.9816759319
 21
204.8703214483
  0
LINE
  5
2ED
100
AcDbEntity
  8
0
100
AcDbLine
 62
7
  6
CONTINUOUS
 10
297.078302522
 20
191.9408359314
 11
297.1778138654
 21
191.7380530177
  0
LINE
  5
2EE
100
AcDbEntity
  8
0
100
AcDbLine
 62
7
  6
CONTINUOUS
 10
298.3864839283
 20
189.4543964089
 11
298.0936439457
 21
190.0511418943
  0
LINE
  5
2EF
100
AcDbEntity
  8
0
100
AcDbLine
 62
7
  6
CONTINUOUS
 10
288.1281976699
 20
195.1732073106
 11
288.2693240344
 21
193.4024145693
  0
LINE
  5
2F0
100
AcDbEntity
  8
0
100
AcDbLine
 62
7
  6
CONTINUOUS
 10
280.0448448337
 20
202.8811698304
 11
280.8132120469
 21
205.3676093528
  0
LINE
  5
2F1
100
AcDbEntity
  8
0
100
AcDbLine
 62
7
  6
CONTINUOUS
 10
289.6985144693
 20
231.7763547637
 11
290.0474113409
 21
232.9053865027
  0
LINE
  5
2F2
100
AcDbEntity
  8
0
100
AcDbLine
 62
7
  6
CONTINUOUS
 10
292.7281633579
 20
241.5803112657
 11
295.2608450682
 21
249.7760798958
  0
LINE
  5
2F3
100
AcDbEntity
  8
0
100
AcDbLine
 62
7
  6
CONTINUOUS
 10
276.9829238054
 20
190.0511418943
 11
277.5668828874
 21
191.9408359314
  0
LINE
  5
2F4
100
AcDbEntity
  8
0
100
AcDbLine
 62
7
  6
CONTINUOUS
 10
277.5355604583
 20
190.0511418943
 11
278.1195195403
 21
191.9408359314
  0
LINE
  5
2F5
100
AcDbEntity
  8
0
100
AcDbLine
 62
7
  6
CONTINUOUS
 10
292.0591124187
 20
237.0084132664
 11
290.6672700282
 21
232.504405457
  0
LINE
  5
2F6
100
AcDbEntity
  8
0
100
AcDbLine
 62
7
  6
CONTINUOUS
 10
277.828400441
 20
189.4543964089
 11
278.5341030525
 21
191.7380530177
  0
LINE
  5
2F7
100
AcDbEntity
  8
0
100
AcDbLine
 62
7
  6
CONTINUOUS
 10
293.9483299523
 20
239.0938717432
 11
296.4810116626
 21
247.2896403733
  0
LINE
  5
2F8
100
AcDbEntity
  8
0
100
AcDbLine
 62
7
  6
CONTINUOUS
 10
324.5367198157
 20
213.128058345
 11
319.157723061
 21
213.128058345
  0
LINE
  5
2F9
100
AcDbEntity
  8
0
100
AcDbLine
 62
7
  6
CONTINUOUS
 10
298.6462805985
 20
190.0511418943
 11
297.7189539868
 21
191.9408359314
  0
LINE
  5
2FA
100
AcDbEntity
  8
0
100
AcDbLine
 62
7
  6
CONTINUOUS
 10
295.034587479
 20
197.4110028809
 11
293.936437544
 21
199.6487984511
  0
LINE
  5
2FB
100
AcDbEntity
  8
0
100
AcDbLine
 62
7
  6
CONTINUOUS
 10
292.4722376307
 20
202.6325258781
 11
291.3740876957
 21
204.8703214483
  0
LINE
  5
2FC
100
AcDbEntity
  8
0
100
AcDbLine
 62
7
  6
CONTINUOUS
 10
294.1102051386
 20
200.2111111153
 11
294.0365247166
 21
200.3612561153
  0
LINE
  5
2FD
100
AcDbEntity
  8
0
100
AcDbLine
 62
7
  6
CONTINUOUS
 10
295.5943475027
 20
199.6487984511
 11
294.1301475894
 21
202.6325258781
  0
LINE
  5
2FE
100
AcDbEntity
  8
0
100
AcDbLine
 62
7
  6
CONTINUOUS
 10
292.0270694028
 20
201.0606482986
 11
291.881307355
 21
202.8896075945
  0
LINE
  5
2FF
100
AcDbEntity
  8
0
100
AcDbLine
 62
7
  6
CONTINUOUS
 10
279.3776826346
 20
190.0511418943
 11
279.5912208119
 21
190.7421523312
  0
LINE
  5
300
100
AcDbEntity
  8
0
100
AcDbLine
 62
7
  6
CONTINUOUS
 10
293.3214773068
 20
234.658527599
 11
292.4308193642
 21
231.7763547637
  0
LINE
  5
301
100
AcDbEntity
  8
0
100
AcDbLine
 62
7
  6
CONTINUOUS
 10
284.3280437272
 20
197.3216486399
 11
284.3556562504
 21
197.4110028809
  0
LINE
  5
302
100
AcDbEntity
  8
0
100
AcDbLine
 62
7
  6
CONTINUOUS
 10
283.8273612764
 20
195.1732073106
 11
284.4282052257
 21
197.1175408487
  0
LINE
  5
303
100
AcDbEntity
  8
0
100
AcDbLine
 62
7
  6
CONTINUOUS
 10
315.3374406685
 20
215.5336711481
 11
309.9584439138
 21
215.5336711481
  0
LINE
  5
304
100
AcDbEntity
  8
0
100
AcDbLine
 62
7
  6
CONTINUOUS
 10
263.4632801843
 20
215.5336711481
 11
265.9500727364
 21
215.5336711481
  0
LINE
  5
305
100
AcDbEntity
  8
0
100
AcDbLine
 62
7
  6
CONTINUOUS
 10
300.8854126288
 20
195.1732073106
 11
302.3496125422
 21
192.1894798836
  0
LINE
  5
306
100
AcDbEntity
  8
0
100
AcDbLine
 62
7
  6
CONTINUOUS
 10
297.833479533
 20
204.7708638674
 11
298.7608061448
 21
202.8811698304
  0
LINE
  5
307
100
AcDbEntity
  8
0
100
AcDbLine
 62
7
  6
CONTINUOUS
 10
301.4451726525
 20
197.4110028809
 11
302.5433225875
 21
195.1732073106
  0
LINE
  5
308
100
AcDbEntity
  8
0
100
AcDbLine
 62
7
  6
CONTINUOUS
 10
304.0075225008
 20
192.1894798836
 11
305.1056724358
 21
189.9516843134
  0
LINE
  5
309
100
AcDbEntity
  8
0
100
AcDbLine
 62
7
  6
CONTINUOUS
 10
293.8691915791
 20
201.0606482986
 11
293.7439180996
 21
202.6325258781
  0
LINE
  5
30A
100
AcDbEntity
  8
0
100
AcDbLine
 62
7
  6
CONTINUOUS
 10
283.6336512311
 20
192.1894798836
 11
285.0297892032
 21
196.7073882131
  0
LINE
  5
30B
100
AcDbEntity
  8
0
100
AcDbLine
 62
7
  6
CONTINUOUS
 10
285.2915611897
 20
192.1894798836
 11
286.2740254841
 21
195.3687384581
  0
LINE
  5
30C
100
AcDbEntity
  8
0
100
AcDbLine
 62
7
  6
CONTINUOUS
 10
310.0422247258
 20
236.327500128
 11
307.2048328159
 21
233.3855631199
  0
LINE
  5
30D
100
AcDbEntity
  8
0
100
AcDbLine
 62
7
  6
CONTINUOUS
 10
266.570122804
 20
217.7113312103
 11
307.6862897787
 21
217.7113312103
  0
LINE
  5
30E
100
AcDbEntity
  8
0
100
AcDbLine
 62
7
  6
CONTINUOUS
 10
298.0932762032
 20
205.3676093528
 11
298.3861161859
 21
204.7708638674
  0
LINE
  5
30F
100
AcDbEntity
  8
0
100
AcDbLine
 62
7
  6
CONTINUOUS
 10
303.0440050383
 20
197.3216486399
 11
303.2178469587
 21
196.9673958487
  0
LINE
  5
310
100
AcDbEntity
  8
0
100
AcDbLine
 62
7
  6
CONTINUOUS
 10
305.3104963067
 20
192.703022386
 11
305.4843382271
 21
192.3487695949
  0
LINE
  5
311
100
AcDbEntity
  8
0
100
AcDbLine
 62
7
  6
CONTINUOUS
 10
300.2282383622
 20
204.7708638674
 11
299.9353983795
 21
205.3676093528
  0
LINE
  5
312
100
AcDbEntity
  8
0
100
AcDbLine
 62
7
  6
CONTINUOUS
 10
308.0530679179
 20
189.9516843134
 11
306.9549179829
 21
192.1894798836
  0
LINE
  5
313
100
AcDbEntity
  8
0
100
AcDbLine
 62
7
  6
CONTINUOUS
 10
305.4907180696
 20
195.1732073106
 11
304.3925681346
 21
197.4110028809
  0
LINE
  5
314
100
AcDbEntity
  8
0
100
AcDbLine
 62
7
  6
CONTINUOUS
 10
301.7082016268
 20
202.8811698304
 11
300.7808750151
 21
204.7708638674
  0
LINE
  5
315
100
AcDbEntity
  8
0
100
AcDbLine
 62
7
  6
CONTINUOUS
 10
287.1244731285
 20
235.5195296201
 11
288.0727274482
 21
232.9555990246
  0
LINE
  5
316
100
AcDbEntity
  8
0
100
AcDbLine
 62
7
  6
CONTINUOUS
 10
289.5248421487
 20
202.6325258781
 11
290.1266339483
 21
204.579926664
  0
LINE
  5
317
100
AcDbEntity
  8
0
100
AcDbLine
 62
7
  6
CONTINUOUS
 10
289.3311321033
 20
199.6487984511
 11
290.7887394525
 21
204.3656219424
  0
LINE
  5
318
100
AcDbEntity
  8
0
100
AcDbLine
 62
7
  6
CONTINUOUS
 10
286.3897111247
 20
189.9516843134
 11
287.1304658147
 21
192.3487695949
  0
LINE
  5
319
100
AcDbEntity
  8
0
100
AcDbLine
 62
7
  6
CONTINUOUS
 10
288.2389566718
 20
192.1894798836
 11
288.8795712039
 21
194.2625111945
  0
LINE
  5
31A
100
AcDbEntity
  8
0
100
AcDbLine
 62
7
  6
CONTINUOUS
 10
290.989042062
 20
199.6487984511
 11
291.9036999349
 21
202.6086351616
  0
LINE
  5
31B
100
AcDbEntity
  8
0
100
AcDbLine
 62
7
  6
CONTINUOUS
 10
308.9211345249
 20
232.9784075606
 11
311.4155292632
 21
235.5647094978
  0
LINE
  5
31C
100
AcDbEntity
  8
0
100
AcDbLine
 62
7
  6
CONTINUOUS
 10
266.4255508633
 20
220.4584439268
 11
307.5417178381
 21
220.4584439268
  0
LINE
  5
31D
100
AcDbEntity
  8
0
100
AcDbLine
 62
7
  6
CONTINUOUS
 10
312.2870241825
 20
221.7497699544
 11
260.4128636982
 21
221.7497699544
  0
LINE
  5
31E
100
AcDbEntity
  8
0
100
AcDbLine
 62
7
  6
CONTINUOUS
 10
288.557442636
 20
231.7763547637
 11
287.7201956951
 21
233.4824856261
  0
LINE
  5
31F
100
AcDbEntity
  8
0
100
AcDbLine
 62
7
  6
CONTINUOUS
 10
308.6128279415
 20
192.1894798836
 11
307.1486280282
 21
195.1732073106
  0
LINE
  5
320
100
AcDbEntity
  8
0
100
AcDbLine
 62
7
  6
CONTINUOUS
 10
290.6014593278
 20
231.7763547637
 11
290.0474113409
 21
232.9053865027
  0
LINE
  5
321
100
AcDbEntity
  8
0
100
AcDbLine
 62
7
  6
CONTINUOUS
 10
290.8292609324
 20
231.7763547637
 11
290.0445724605
 21
233.3753826656
  0
LINE
  5
322
100
AcDbEntity
  8
0
100
AcDbLine
 62
7
  6
CONTINUOUS
 10
290.1820304319
 20
233.8164170358
 11
288.9618638375
 21
236.3028565583
  0
LINE
  5
323
100
AcDbEntity
  8
0
100
AcDbLine
 62
7
  6
CONTINUOUS
 10
290.0445724605
 20
233.3753826656
 11
288.9618638375
 21
236.3028565583
  0
LINE
  5
324
100
AcDbEntity
  8
0
100
AcDbLine
 62
7
  6
CONTINUOUS
 10
290.936535201
 20
231.7763547637
 11
290.1820304319
 21
233.8164170358
  0
LINE
  5
325
100
AcDbEntity
  8
0
100
AcDbLine
 62
7
  6
CONTINUOUS
 10
292.087191997
 20
197.4110028809
 11
292.889416064
 21
200.0070033242
  0
LINE
  5
326
100
AcDbEntity
  8
0
100
AcDbLine
 62
7
  6
CONTINUOUS
 10
293.936437544
 20
199.6487984511
 11
294.5770520761
 21
201.721829762
  0
LINE
  5
327
100
AcDbEntity
  8
0
100
AcDbLine
 62
7
  6
CONTINUOUS
 10
304.5940348299
 20
233.4824856261
 11
304.0668010064
 21
231.7763547637
  0
LINE
  5
328
100
AcDbEntity
  8
0
100
AcDbLine
 62
7
  6
CONTINUOUS
 10
312.6356958577
 20
233.0782699753
 11
311.3800456929
 21
231.7763547637
  0
LINE
  5
329
100
AcDbEntity
  8
0
100
AcDbLine
 62
7
  6
CONTINUOUS
 10
313.5579160083
 20
188.7943015152
 11
305.1009951257
 21
206.0277042465
  0
LINE
  5
32A
100
AcDbEntity
  8
0
100
AcDbLine
 62
7
  6
CONTINUOUS
 10
290.7629890897
 20
235.6964016876
 11
289.5428224953
 21
238.1828412101
  0
LINE
  5
32B
100
AcDbEntity
  8
0
100
AcDbLine
 62
7
  6
CONTINUOUS
 10
293.3214773068
 20
234.658527599
 11
292.1320769064
 21
237.0822721737
  0
LINE
  5
32C
100
AcDbEntity
  8
0
100
AcDbLine
 62
7
  6
CONTINUOUS
 10
304.9974011214
 20
195.2313738653
 11
305.1431631692
 21
193.4024145693
  0
LINE
  5
32D
100
AcDbEntity
  8
0
100
AcDbLine
 62
7
  6
CONTINUOUS
 10
306.4361570061
 20
233.4824856261
 11
305.9089231827
 21
231.7763547637
  0
LINE
  5
32E
100
AcDbEntity
  8
0
100
AcDbLine
 62
7
  6
CONTINUOUS
 10
312.1346842029
 20
249.7760798958
 11
309.590334383
 21
241.5425532139
  0
LINE
  5
32F
100
AcDbEntity
  8
0
100
AcDbLine
 62
7
  6
CONTINUOUS
 10
306.8432386634
 20
232.652939951
 11
306.9329185854
 21
232.9431445544
  0
LINE
  5
330
100
AcDbEntity
  8
0
100
AcDbLine
 62
7
  6
CONTINUOUS
 10
298.3861161859
 20
204.7708638674
 11
298.5705243171
 21
205.3676093528
  0
LINE
  5
331
100
AcDbEntity
  8
0
100
AcDbLine
 62
7
  6
CONTINUOUS
 10
308.1003340506
 20
234.3140595374
 11
308.9751498471
 21
237.1449671215
  0
LINE
  5
332
100
AcDbEntity
  8
0
100
AcDbLine
 62
7
  6
CONTINUOUS
 10
298.7608061448
 20
202.8811698304
 11
299.529173358
 21
205.3676093528
  0
LINE
  5
333
100
AcDbEntity
  8
0
100
AcDbLine
 62
7
  6
CONTINUOUS
 10
293.655011743
 20
238.6238755803
 11
292.4348451486
 21
241.1103151028
  0
LINE
  5
334
100
AcDbEntity
  8
0
100
AcDbLine
 62
7
  6
CONTINUOUS
 10
293.9483299523
 20
239.0938717432
 11
292.7281633579
 21
241.5803112657
  0
LINE
  5
335
100
AcDbEntity
  8
0
100
AcDbLine
 62
7
  6
CONTINUOUS
 10
306.844158981
 20
195.1732073106
 11
306.9852853455
 21
193.4024145693
  0
LINE
  5
336
100
AcDbEntity
  8
0
100
AcDbLine
 62
7
  6
CONTINUOUS
 10
308.6492202944
 20
232.5359889951
 11
308.4144757804
 21
231.7763547637
  0
LINE
  5
337
100
AcDbEntity
  8
0
100
AcDbLine
 62
7
  6
CONTINUOUS
 10
311.5582770265
 20
241.9497087733
 11
313.9768063792
 21
249.7760798958
  0
LINE
  5
338
100
AcDbEntity
  8
0
100
AcDbLine
 62
7
  6
CONTINUOUS
 10
295.6988851165
 20
190.0511418943
 11
296.2828441985
 21
191.9408359314
  0
LINE
  5
339
100
AcDbEntity
  8
0
100
AcDbLine
 62
7
  6
CONTINUOUS
 10
296.2515217694
 20
190.0511418943
 11
296.8354808514
 21
191.9408359314
  0
LINE
  5
33A
100
AcDbEntity
  8
0
100
AcDbLine
 62
7
  6
CONTINUOUS
 10
296.544361752
 20
189.4543964089
 11
297.2500643636
 21
191.7380530177
  0
LINE
  5
33B
100
AcDbEntity
  8
0
100
AcDbLine
 62
7
  6
CONTINUOUS
 10
315.1969729737
 20
247.2896403733
 11
312.7784436209
 21
239.4632692508
  0
LINE
  5
33C
100
AcDbEntity
  8
0
100
AcDbLine
 62
7
  6
CONTINUOUS
 10
298.0936439457
 20
190.0511418943
 11
298.307182123
 21
190.7421523312
  0
LINE
  5
33D
100
AcDbEntity
  8
0
100
AcDbLine
 62
7
  6
CONTINUOUS
 10
304.9853375732
 20
208.2253944197
 11
307.6862897787
 21
217.7113312103
  0
LINE
  5
33E
100
AcDbEntity
  8
0
100
AcDbLine
 62
7
  6
CONTINUOUS
 10
303.0440050383
 20
197.3216486399
 11
303.0716175615
 21
197.4110028809
  0
LINE
  5
33F
100
AcDbEntity
  8
0
100
AcDbLine
 62
7
  6
CONTINUOUS
 10
302.5433225875
 20
195.1732073106
 11
303.1441665367
 21
197.1175408487
  0
LINE
  5
340
100
AcDbEntity
  8
0
100
AcDbLine
 62
7
  6
CONTINUOUS
 10
263.5113098732
 20
231.7763547637
 11
315.3854703575
 21
231.7763547637
  0
LINE
  5
341
100
AcDbEntity
  8
0
100
AcDbLine
 62
7
  6
CONTINUOUS
 10
285.8780735188
 20
233.4824856261
 11
287.7201956951
 21
233.4824856261
  0
LINE
  5
342
100
AcDbEntity
  8
0
100
AcDbLine
 62
7
  6
CONTINUOUS
 10
304.5940348299
 20
233.4824856261
 11
306.4361570061
 21
233.4824856261
  0
LINE
  5
343
100
AcDbEntity
  8
0
100
AcDbLine
 62
7
  6
CONTINUOUS
 10
307.5417178381
 20
220.4584439268
 11
309.9584439138
 21
215.5336711481
  0
LINE
  5
344
100
AcDbEntity
  8
0
100
AcDbLine
 62
7
  6
CONTINUOUS
 10
316.0592768859
 20
203.1014735357
 11
318.4760029617
 21
198.176700757
  0
LINE
  5
345
100
AcDbEntity
  8
0
100
AcDbLine
 62
7
  6
CONTINUOUS
 10
296.4810116626
 20
247.2896403733
 11
295.2608450682
 21
249.7760798958
  0
LINE
  5
346
100
AcDbEntity
  8
0
100
AcDbLine
 62
7
  6
CONTINUOUS
 10
302.3496125422
 20
192.1894798836
 11
303.7457505142
 21
196.7073882131
  0
LINE
  5
347
100
AcDbEntity
  8
0
100
AcDbLine
 62
7
  6
CONTINUOUS
 10
312.2870241825
 20
221.7497699544
 11
315.3854703575
 21
231.7763547637
  0
LINE
  5
348
100
AcDbEntity
  8
0
100
AcDbLine
 62
7
  6
CONTINUOUS
 10
304.0075225008
 20
192.1894798836
 11
304.9900159014
 21
195.3688326461
  0
LINE
  5
349
100
AcDbEntity
  8
0
100
AcDbLine
 62
7
  6
CONTINUOUS
 10
308.9751498471
 20
237.1449671215
 11
310.5706199625
 21
237.1449671215
  0
LINE
  5
34A
100
AcDbEntity
  8
0
100
AcDbLine
 62
7
  6
CONTINUOUS
 10
307.2734039471
 20
231.7763547637
 11
306.4361570061
 21
233.4824856261
  0
LINE
  5
34B
100
AcDbEntity
  8
0
100
AcDbLine
 62
7
  6
CONTINUOUS
 10
324.4886901268
 20
196.8853747294
 11
321.4382736407
 21
203.1014735357
  0
LINE
  5
34C
100
AcDbEntity
  8
0
100
AcDbLine
 62
7
  6
CONTINUOUS
 10
315.3374406685
 20
215.5336711481
 11
312.2870241825
 21
221.7497699544
  0
LINE
  5
34D
100
AcDbEntity
  8
0
100
AcDbLine
 62
7
  6
CONTINUOUS
 10
305.1056724358
 20
189.9516843134
 11
305.8464271258
 21
192.3487695949
  0
LINE
  5
34E
100
AcDbEntity
  8
0
100
AcDbLine
 62
7
  6
CONTINUOUS
 10
306.9549179829
 20
192.1894798836
 11
307.5955325149
 21
194.2625111945
  0
LINE
  5
34F
100
AcDbEntity
  8
0
100
AcDbLine
 62
7
  6
CONTINUOUS
 10
315.3374406685
 20
215.5336711481
 11
318.4358868436
 21
225.5602559574
  0
LINE
  5
350
100
AcDbEntity
  8
0
100
AcDbLine
 62
7
  6
CONTINUOUS
 10
309.0219944177
 20
231.7763547637
 11
308.6492202944
 21
232.5359889951
  0
LINE
  5
351
100
AcDbEntity
  8
0
100
AcDbLine
 62
7
  6
CONTINUOUS
 10
308.9211345249
 20
232.9784075606
 11
309.5110160218
 21
231.7763547637
  0
LINE
  5
352
100
AcDbEntity
  8
0
100
AcDbLine
 62
7
  6
CONTINUOUS
 10
317.3257130137
 20
221.9677287907
 11
320.1259874906
 21
216.2613660979
  0
LINE
  5
353
100
AcDbEntity
  8
0
100
AcDbLine
 62
7
  6
CONTINUOUS
 10
311.4155292632
 20
235.5647094978
 11
312.6356958577
 21
233.0782699753
  0
LINE
  5
354
100
AcDbEntity
  8
0
100
AcDbLine
 62
7
  6
CONTINUOUS
 10
309.5888135131
 20
241.1001346484
 11
310.6079525197
 21
238.1581976404
  0
LINE
  5
355
100
AcDbEntity
  8
0
100
AcDbLine
 62
7
  6
CONTINUOUS
 10
312.4526968855
 20
238.9209882706
 11
311.5567561566
 21
241.5072902078
  0
LINE
  5
356
100
AcDbEntity
  8
0
100
AcDbLine
 62
7
  6
CONTINUOUS
 10
312.7769227511
 20
239.0208506853
 11
313.6728634799
 21
236.4345487481
  0
LINE
  5
357
100
AcDbEntity
  8
0
100
AcDbLine
 62
7
  6
CONTINUOUS
 10
316.0592768859
 20
203.1014735357
 11
320.1259874906
 21
216.2613660979
  0
LINE
  5
358
100
AcDbEntity
  8
0
100
AcDbLine
 62
7
  6
CONTINUOUS
 10
315.3854703575
 20
231.7763547637
 11
318.4358868436
 21
225.5602559574
  0
LINE
  5
359
100
AcDbEntity
  8
0
100
AcDbLine
 62
7
  6
CONTINUOUS
 10
324.5367198157
 20
213.128058345
 11
327.5871363018
 21
206.9119595387
  0
LINE
  5
35A
100
AcDbEntity
  8
0
100
AcDbLine
 62
7
  6
CONTINUOUS
 10
312.4526968855
 20
238.9209882706
 11
313.6728634799
 21
236.4345487481
  0
LINE
  5
35B
100
AcDbEntity
  8
0
100
AcDbLine
 62
7
  6
CONTINUOUS
 10
311.5567561566
 20
241.5072902078
 11
312.7769227511
 21
239.0208506853
  0
LINE
  5
35C
100
AcDbEntity
  8
0
100
AcDbLine
 62
7
  6
CONTINUOUS
 10
311.5582770265
 20
241.9497087733
 11
312.7784436209
 21
239.4632692508
  0
LINE
  5
35D
100
AcDbEntity
  8
0
100
AcDbLine
 62
7
  6
CONTINUOUS
 10
317.401357813
 20
197.914092674
 11
314.4176321273
 21
189.0043879816
  0
LINE
  5
35E
100
AcDbEntity
  8
0
100
AcDbLine
 62
7
  6
CONTINUOUS
 10
313.9768063792
 20
249.7760798958
 11
312.1346842029
 21
249.7760798958
  0
LINE
  5
35F
100
AcDbEntity
  8
0
100
AcDbLine
 62
7
  6
CONTINUOUS
 10
295.2608450682
 20
249.7760798958
 11
293.4187228919
 21
249.7760798958
  0
LINE
  5
360
100
AcDbEntity
  8
0
100
AcDbLine
 62
7
  6
CONTINUOUS
 10
321.4382736407
 20
203.1014735357
 11
324.5367198157
 21
213.128058345
  0
LINE
  5
361
100
AcDbEntity
  8
0
100
AcDbLine
 62
7
  6
CONTINUOUS
 10
313.9768063792
 20
249.7760798958
 11
315.1969729737
 21
247.2896403733
  0
LINE
  5
362
100
AcDbEntity
  8
0
100
AcDbLine
 62
7
  6
CONTINUOUS
 10
324.4886901268
 20
196.8853747294
 11
327.5871363018
 21
206.9119595387
  0
LINE
  5
363
100
AcDbEntity
  8
0
100
AcDbLine
 62
7
  6
CONTINUOUS
 10
87.34
 20
117.3125
 11
87.34
 21
107.3125
  0
LINE
  5
364
100
AcDbEntity
  8
0
100
AcDbLine
 62
7
  6
CONTINUOUS
 10
87.34
 20
87.3125
 11
87.34
 21
77.3125
  0
LINE
  5
365
100
AcDbEntity
  8
0
100
AcDbLine
 62
7
  6
CONTINUOUS
 10
93.18
 20
79.3898898032
 11
93.18
 21
115.2351101968
  0
LINE
  5
366
100
AcDbEntity
  8
0
100
AcDbLine
 62
7
  6
CONTINUOUS
 10
96.98
 20
105.7125
 11
96.98
 21
100.9125
  0
LINE
  5
367
100
AcDbEntity
  8
0
100
AcDbLine
 62
7
  6
CONTINUOUS
 10
87.34
 20
77.3125
 11
143.66
 21
77.3125
  0
LINE
  5
368
100
AcDbEntity
  8
0
100
AcDbLine
 62
7
  6
CONTINUOUS
 10
98.78
 20
109.3125
 11
98.78
 21
105.7125
  0
LINE
  5
369
100
AcDbEntity
  8
0
100
AcDbLine
 62
7
  6
CONTINUOUS
 10
98.78
 20
100.9125
 11
98.78
 21
97.3125
  0
LINE
  5
36A
100
AcDbEntity
  8
0
100
AcDbLine
 62
7
  6
CONTINUOUS
 10
98.78
 20
88.5125
 11
98.78
 21
85.4725
  0
LINE
  5
36B
100
AcDbEntity
  8
0
100
AcDbLine
 62
7
  6
CONTINUOUS
 10
99.38
 20
84.5125
 11
99.38
 21
88.2475861572
  0
LINE
  5
36C
100
AcDbEntity
  8
0
100
AcDbLine
 62
7
  6
CONTINUOUS
 10
99.38
 20
98.8843721461
 11
99.38
 21
102.6724981244
  0
LINE
  5
36D
100
AcDbEntity
  8
0
100
AcDbLine
 62
7
  6
CONTINUOUS
 10
99.38
 20
104.2725018756
 11
99.38
 21
108.0606278539
  0
LINE
  5
36E
100
AcDbEntity
  8
0
100
AcDbLine
 62
7
  6
CONTINUOUS
 10
137.82
 20
79.3898898032
 11
93.18
 21
79.3898898032
  0
LINE
  5
36F
100
AcDbEntity
  8
0
100
AcDbLine
 62
7
  6
CONTINUOUS
 10
137.82
 20
81.38833345
 11
93.18
 21
81.38833345
  0
LINE
  5
370
100
AcDbEntity
  8
0
100
AcDbLine
 62
7
  6
CONTINUOUS
 10
101.38
 20
84.5125
 11
101.38
 21
88.2475861572
  0
LINE
  5
371
100
AcDbEntity
  8
0
100
AcDbLine
 62
7
  6
CONTINUOUS
 10
101.38
 20
98.8843721461
 11
101.38
 21
102.6724981244
  0
LINE
  5
372
100
AcDbEntity
  8
0
100
AcDbLine
 62
7
  6
CONTINUOUS
 10
101.38
 20
104.2725018756
 11
101.38
 21
108.0606278539
  0
LINE
  5
373
100
AcDbEntity
  8
0
100
AcDbLine
 62
7
  6
CONTINUOUS
 10
101.98
 20
85.4725
 11
101.98
 21
88.5125
  0
LINE
  5
374
100
AcDbEntity
  8
0
100
AcDbLine
 62
7
  6
CONTINUOUS
 10
101.98
 20
97.3125
 11
101.98
 21
100.9125
  0
LINE
  5
375
100
AcDbEntity
  8
0
100
AcDbLine
 62
7
  6
CONTINUOUS
 10
101.98
 20
105.7125
 11
101.98
 21
109.3125
  0
LINE
  5
376
100
AcDbEntity
  8
0
100
AcDbLine
 62
7
  6
CONTINUOUS
 10
93.18
 20
81.85183324
 11
137.82
 21
81.85183324
  0
LINE
  5
377
100
AcDbEntity
  8
0
100
AcDbLine
 62
7
  6
CONTINUOUS
 10
93.18
 20
83.4505881575
 11
137.82
 21
83.4505881575
  0
LINE
  5
378
100
AcDbEntity
  8
0
100
AcDbLine
 62
7
  6
CONTINUOUS
 10
103.78
 20
100.9125
 11
103.78
 21
105.7125
  0
LINE
  5
379
100
AcDbEntity
  8
0
100
AcDbLine
 62
7
  6
CONTINUOUS
 10
99.38
 20
84.5125
 11
101.38
 21
84.5125
  0
LINE
  5
37A
100
AcDbEntity
  8
0
100
AcDbLine
 62
7
  6
CONTINUOUS
 10
119.7
 20
84.5125
 11
121.7
 21
84.5125
  0
LINE
  5
37B
100
AcDbEntity
  8
0
100
AcDbLine
 62
7
  6
CONTINUOUS
 10
121.7
 20
84.6578342114
 11
119.7
 21
84.6578342114
  0
LINE
  5
37C
100
AcDbEntity
  8
0
100
AcDbLine
 62
7
  6
CONTINUOUS
 10
101.38
 20
84.6578342114
 11
99.38
 21
84.6578342114
  0
LINE
  5
37D
100
AcDbEntity
  8
0
100
AcDbLine
 62
7
  6
CONTINUOUS
 10
108.94
 20
85.3125
 11
112.14
 21
85.3125
  0
LINE
  5
37E
100
AcDbEntity
  8
0
100
AcDbLine
 62
7
  6
CONTINUOUS
 10
129.26
 20
85.3125
 11
132.46
 21
85.3125
  0
LINE
  5
37F
100
AcDbEntity
  8
0
100
AcDbLine
 62
7
  6
CONTINUOUS
 10
98.78
 20
85.4725
 11
99.38
 21
85.4725
  0
LINE
  5
380
100
AcDbEntity
  8
0
100
AcDbLine
 62
7
  6
CONTINUOUS
 10
101.38
 20
85.4725
 11
101.98
 21
85.4725
  0
LINE
  5
381
100
AcDbEntity
  8
0
100
AcDbLine
 62
7
  6
CONTINUOUS
 10
119.1
 20
85.4725
 11
119.7
 21
85.4725
  0
LINE
  5
382
100
AcDbEntity
  8
0
100
AcDbLine
 62
7
  6
CONTINUOUS
 10
121.7
 20
85.4725
 11
122.3
 21
85.4725
  0
LINE
  5
383
100
AcDbEntity
  8
0
100
AcDbLine
 62
7
  6
CONTINUOUS
 10
109.54
 20
86.5643721461
 11
111.54
 21
86.5643721461
  0
LINE
  5
384
100
AcDbEntity
  8
0
100
AcDbLine
 62
7
  6
CONTINUOUS
 10
129.86
 20
86.5643721461
 11
131.86
 21
86.5643721461
  0
LINE
  5
385
100
AcDbEntity
  8
0
100
AcDbLine
 62
7
  6
CONTINUOUS
 10
109.54
 20
87.1525
 11
111.54
 21
87.1525
  0
LINE
  5
386
100
AcDbEntity
  8
0
100
AcDbLine
 62
7
  6
CONTINUOUS
 10
129.86
 20
87.1525
 11
131.86
 21
87.1525
  0
LINE
  5
387
100
AcDbEntity
  8
0
100
AcDbLine
 62
7
  6
CONTINUOUS
 10
143.66
 20
87.3125
 11
137.82
 21
87.3125
  0
LINE
  5
388
100
AcDbEntity
  8
0
100
AcDbLine
 62
7
  6
CONTINUOUS
 10
87.34
 20
87.3125
 11
93.18
 21
87.3125
  0
LINE
  5
389
100
AcDbEntity
  8
0
100
AcDbLine
 62
7
  6
CONTINUOUS
 10
109.54
 20
87.7223956889
 11
111.54
 21
87.7223956889
  0
LINE
  5
38A
100
AcDbEntity
  8
0
100
AcDbLine
 62
7
  6
CONTINUOUS
 10
129.86
 20
87.7223956889
 11
131.86
 21
87.7223956889
  0
LINE
  5
38B
100
AcDbEntity
  8
0
100
AcDbLine
 62
7
  6
CONTINUOUS
 10
121.7
 20
87.7926451069
 11
119.7
 21
87.7926451069
  0
LINE
  5
38C
100
AcDbEntity
  8
0
100
AcDbLine
 62
7
  6
CONTINUOUS
 10
101.38
 20
87.7926451069
 11
99.38
 21
87.7926451069
  0
LINE
  5
38D
100
AcDbEntity
  8
0
100
AcDbLine
 62
7
  6
CONTINUOUS
 10
121.7
 20
88.2475861572
 11
119.7
 21
88.2475861572
  0
LINE
  5
38E
100
AcDbEntity
  8
0
100
AcDbLine
 62
7
  6
CONTINUOUS
 10
101.38
 20
88.2475861572
 11
99.38
 21
88.2475861572
  0
LINE
  5
38F
100
AcDbEntity
  8
0
100
AcDbLine
 62
7
  6
CONTINUOUS
 10
107.14
 20
93.7125
 11
107.14
 21
88.9125
  0
LINE
  5
390
100
AcDbEntity
  8
0
100
AcDbLine
 62
7
  6
CONTINUOUS
 10
109.54
 20
88.4937408205
 11
111.54
 21
88.4937408205
  0
LINE
  5
391
100
AcDbEntity
  8
0
100
AcDbLine
 62
7
  6
CONTINUOUS
 10
129.86
 20
88.4937408205
 11
131.86
 21
88.4937408205
  0
LINE
  5
392
100
AcDbEntity
  8
0
100
AcDbLine
 62
7
  6
CONTINUOUS
 10
122.3
 20
88.5125
 11
119.1
 21
88.5125
  0
LINE
  5
393
100
AcDbEntity
  8
0
100
AcDbLine
 62
7
  6
CONTINUOUS
 10
101.98
 20
88.5125
 11
98.78
 21
88.5125
  0
LINE
  5
394
100
AcDbEntity
  8
0
100
AcDbLine
 62
7
  6
CONTINUOUS
 10
107.14
 20
88.9125
 11
108.94
 21
88.9125
  0
LINE
  5
395
100
AcDbEntity
  8
0
100
AcDbLine
 62
7
  6
CONTINUOUS
 10
112.14
 20
88.9125
 11
113.94
 21
88.9125
  0
LINE
  5
396
100
AcDbEntity
  8
0
100
AcDbLine
 62
7
  6
CONTINUOUS
 10
127.46
 20
88.9125
 11
129.26
 21
88.9125
  0
LINE
  5
397
100
AcDbEntity
  8
0
100
AcDbLine
 62
7
  6
CONTINUOUS
 10
132.46
 20
88.9125
 11
134.26
 21
88.9125
  0
LINE
  5
398
100
AcDbEntity
  8
0
100
AcDbLine
 62
7
  6
CONTINUOUS
 10
109.54
 20
89.9238451316
 11
111.54
 21
89.9238451316
  0
LINE
  5
399
100
AcDbEntity
  8
0
100
AcDbLine
 62
7
  6
CONTINUOUS
 10
129.86
 20
89.9238451316
 11
131.86
 21
89.9238451316
  0
LINE
  5
39A
100
AcDbEntity
  8
0
100
AcDbLine
 62
7
  6
CONTINUOUS
 10
109.54
 20
90.3525
 11
111.54
 21
90.3525
  0
LINE
  5
39B
100
AcDbEntity
  8
0
100
AcDbLine
 62
7
  6
CONTINUOUS
 10
129.86
 20
90.3525
 11
131.86
 21
90.3525
  0
LINE
  5
39C
100
AcDbEntity
  8
0
100
AcDbLine
 62
7
  6
CONTINUOUS
 10
108.94
 20
109.1525
 11
108.94
 21
106.1125
  0
LINE
  5
39D
100
AcDbEntity
  8
0
100
AcDbLine
 62
7
  6
CONTINUOUS
 10
108.94
 20
97.3125
 11
108.94
 21
93.7125
  0
LINE
  5
39E
100
AcDbEntity
  8
0
100
AcDbLine
 62
7
  6
CONTINUOUS
 10
108.94
 20
88.9125
 11
108.94
 21
85.3125
  0
LINE
  5
39F
100
AcDbEntity
  8
0
100
AcDbLine
 62
7
  6
CONTINUOUS
 10
109.54
 20
86.5643721461
 11
109.54
 21
90.3524999941
  0
LINE
  5
3A0
100
AcDbEntity
  8
0
100
AcDbLine
 62
7
  6
CONTINUOUS
 10
109.54
 20
91.9525000059
 11
109.54
 21
95.7406278539
  0
LINE
  5
3A1
100
AcDbEntity
  8
0
100
AcDbLine
 62
7
  6
CONTINUOUS
 10
109.54
 20
106.3774138428
 11
109.54
 21
110.1125
  0
LINE
  5
3A2
100
AcDbEntity
  8
0
100
AcDbLine
 62
7
  6
CONTINUOUS
 10
109.54
 20
91.9525
 11
111.54
 21
91.9525
  0
LINE
  5
3A3
100
AcDbEntity
  8
0
100
AcDbLine
 62
7
  6
CONTINUOUS
 10
129.86
 20
91.9525
 11
131.86
 21
91.9525
  0
LINE
  5
3A4
100
AcDbEntity
  8
0
100
AcDbLine
 62
7
  6
CONTINUOUS
 10
109.54
 20
92.3811548684
 11
111.54
 21
92.3811548684
  0
LINE
  5
3A5
100
AcDbEntity
  8
0
100
AcDbLine
 62
7
  6
CONTINUOUS
 10
129.86
 20
92.3811548684
 11
131.86
 21
92.3811548684
  0
LINE
  5
3A6
100
AcDbEntity
  8
0
100
AcDbLine
 62
7
  6
CONTINUOUS
 10
111.54
 20
95.7406278539
 11
111.54
 21
91.9525000059
  0
LINE
  5
3A7
100
AcDbEntity
  8
0
100
AcDbLine
 62
7
  6
CONTINUOUS
 10
111.54
 20
90.3524999941
 11
111.54
 21
86.5643721461
  0
LINE
  5
3A8
100
AcDbEntity
  8
0
100
AcDbLine
 62
7
  6
CONTINUOUS
 10
111.54
 20
106.3774138428
 11
111.54
 21
110.1125
  0
LINE
  5
3A9
100
AcDbEntity
  8
0
100
AcDbLine
 62
7
  6
CONTINUOUS
 10
112.14
 20
85.3125
 11
112.14
 21
88.9125
  0
LINE
  5
3AA
100
AcDbEntity
  8
0
100
AcDbLine
 62
7
  6
CONTINUOUS
 10
112.14
 20
93.7125
 11
112.14
 21
97.3125
  0
LINE
  5
3AB
100
AcDbEntity
  8
0
100
AcDbLine
 62
7
  6
CONTINUOUS
 10
112.14
 20
106.1125
 11
112.14
 21
109.1525
  0
LINE
  5
3AC
100
AcDbEntity
  8
0
100
AcDbLine
 62
7
  6
CONTINUOUS
 10
134.26
 20
93.7125
 11
132.46
 21
93.7125
  0
LINE
  5
3AD
100
AcDbEntity
  8
0
100
AcDbLine
 62
7
  6
CONTINUOUS
 10
129.26
 20
93.7125
 11
127.46
 21
93.7125
  0
LINE
  5
3AE
100
AcDbEntity
  8
0
100
AcDbLine
 62
7
  6
CONTINUOUS
 10
113.94
 20
93.7125
 11
112.14
 21
93.7125
  0
LINE
  5
3AF
100
AcDbEntity
  8
0
100
AcDbLine
 62
7
  6
CONTINUOUS
 10
108.94
 20
93.7125
 11
107.14
 21
93.7125
  0
LINE
  5
3B0
100
AcDbEntity
  8
0
100
AcDbLine
 62
7
  6
CONTINUOUS
 10
109.54
 20
93.8112591795
 11
111.54
 21
93.8112591795
  0
LINE
  5
3B1
100
AcDbEntity
  8
0
100
AcDbLine
 62
7
  6
CONTINUOUS
 10
129.86
 20
93.8112591795
 11
131.86
 21
93.8112591795
  0
LINE
  5
3B2
100
AcDbEntity
  8
0
100
AcDbLine
 62
7
  6
CONTINUOUS
 10
109.54
 20
94.5826043111
 11
111.54
 21
94.5826043111
  0
LINE
  5
3B3
100
AcDbEntity
  8
0
100
AcDbLine
 62
7
  6
CONTINUOUS
 10
129.86
 20
94.5826043111
 11
131.86
 21
94.5826043111
  0
LINE
  5
3B4
100
AcDbEntity
  8
0
100
AcDbLine
 62
7
  6
CONTINUOUS
 10
109.54
 20
95.1525
 11
111.54
 21
95.1525
  0
LINE
  5
3B5
100
AcDbEntity
  8
0
100
AcDbLine
 62
7
  6
CONTINUOUS
 10
129.86
 20
95.1525
 11
131.86
 21
95.1525
  0
LINE
  5
3B6
100
AcDbEntity
  8
0
100
AcDbLine
 62
7
  6
CONTINUOUS
 10
113.94
 20
88.9125
 11
113.94
 21
93.7125
  0
LINE
  5
3B7
100
AcDbEntity
  8
0
100
AcDbLine
 62
7
  6
CONTINUOUS
 10
109.54
 20
95.7406278539
 11
111.54
 21
95.7406278539
  0
LINE
  5
3B8
100
AcDbEntity
  8
0
100
AcDbLine
 62
7
  6
CONTINUOUS
 10
129.86
 20
95.7406278539
 11
131.86
 21
95.7406278539
  0
LINE
  5
3B9
100
AcDbEntity
  8
0
100
AcDbLine
 62
7
  6
CONTINUOUS
 10
132.46
 20
97.3125
 11
129.26
 21
97.3125
  0
LINE
  5
3BA
100
AcDbEntity
  8
0
100
AcDbLine
 62
7
  6
CONTINUOUS
 10
112.14
 20
97.3125
 11
108.94
 21
97.3125
  0
LINE
  5
3BB
100
AcDbEntity
  8
0
100
AcDbLine
 62
7
  6
CONTINUOUS
 10
98.78
 20
97.3125
 11
101.98
 21
97.3125
  0
LINE
  5
3BC
100
AcDbEntity
  8
0
100
AcDbLine
 62
7
  6
CONTINUOUS
 10
119.1
 20
97.3125
 11
122.3
 21
97.3125
  0
LINE
  5
3BD
100
AcDbEntity
  8
0
100
AcDbLine
 62
7
  6
CONTINUOUS
 10
117.3
 20
105.7125
 11
117.3
 21
100.9125
  0
LINE
  5
3BE
100
AcDbEntity
  8
0
100
AcDbLine
 62
7
  6
CONTINUOUS
 10
121.7
 20
98.8843721461
 11
119.7
 21
98.8843721461
  0
LINE
  5
3BF
100
AcDbEntity
  8
0
100
AcDbLine
 62
7
  6
CONTINUOUS
 10
101.38
 20
98.8843721461
 11
99.38
 21
98.8843721461
  0
LINE
  5
3C0
100
AcDbEntity
  8
0
100
AcDbLine
 62
7
  6
CONTINUOUS
 10
121.7
 20
99.4725
 11
119.7
 21
99.4725
  0
LINE
  5
3C1
100
AcDbEntity
  8
0
100
AcDbLine
 62
7
  6
CONTINUOUS
 10
101.38
 20
99.4725
 11
99.38
 21
99.4725
  0
LINE
  5
3C2
100
AcDbEntity
  8
0
100
AcDbLine
 62
7
  6
CONTINUOUS
 10
119.1
 20
109.3125
 11
119.1
 21
105.7125
  0
LINE
  5
3C3
100
AcDbEntity
  8
0
100
AcDbLine
 62
7
  6
CONTINUOUS
 10
119.1
 20
100.9125
 11
119.1
 21
97.3125
  0
LINE
  5
3C4
100
AcDbEntity
  8
0
100
AcDbLine
 62
7
  6
CONTINUOUS
 10
119.1
 20
88.5125
 11
119.1
 21
85.4725
  0
LINE
  5
3C5
100
AcDbEntity
  8
0
100
AcDbLine
 62
7
  6
CONTINUOUS
 10
119.7
 20
84.5125
 11
119.7
 21
88.2475861572
  0
LINE
  5
3C6
100
AcDbEntity
  8
0
100
AcDbLine
 62
7
  6
CONTINUOUS
 10
119.7
 20
98.8843721461
 11
119.7
 21
102.6724981244
  0
LINE
  5
3C7
100
AcDbEntity
  8
0
100
AcDbLine
 62
7
  6
CONTINUOUS
 10
119.7
 20
104.2725018756
 11
119.7
 21
108.0606278539
  0
LINE
  5
3C8
100
AcDbEntity
  8
0
100
AcDbLine
 62
7
  6
CONTINUOUS
 10
121.7
 20
100.0423956889
 11
119.7
 21
100.0423956889
  0
LINE
  5
3C9
100
AcDbEntity
  8
0
100
AcDbLine
 62
7
  6
CONTINUOUS
 10
101.38
 20
100.0423956889
 11
99.38
 21
100.0423956889
  0
LINE
  5
3CA
100
AcDbEntity
  8
0
100
AcDbLine
 62
7
  6
CONTINUOUS
 10
121.7
 20
100.8137408205
 11
119.7
 21
100.8137408205
  0
LINE
  5
3CB
100
AcDbEntity
  8
0
100
AcDbLine
 62
7
  6
CONTINUOUS
 10
101.38
 20
100.8137408205
 11
99.38
 21
100.8137408205
  0
LINE
  5
3CC
100
AcDbEntity
  8
0
100
AcDbLine
 62
7
  6
CONTINUOUS
 10
96.98
 20
100.9125
 11
98.78
 21
100.9125
  0
LINE
  5
3CD
100
AcDbEntity
  8
0
100
AcDbLine
 62
7
  6
CONTINUOUS
 10
101.98
 20
100.9125
 11
103.78
 21
100.9125
  0
LINE
  5
3CE
100
AcDbEntity
  8
0
100
AcDbLine
 62
7
  6
CONTINUOUS
 10
117.3
 20
100.9125
 11
119.1
 21
100.9125
  0
LINE
  5
3CF
100
AcDbEntity
  8
0
100
AcDbLine
 62
7
  6
CONTINUOUS
 10
122.3
 20
100.9125
 11
124.1
 21
100.9125
  0
LINE
  5
3D0
100
AcDbEntity
  8
0
100
AcDbLine
 62
7
  6
CONTINUOUS
 10
121.7
 20
84.5125
 11
121.7
 21
88.2475861572
  0
LINE
  5
3D1
100
AcDbEntity
  8
0
100
AcDbLine
 62
7
  6
CONTINUOUS
 10
121.7
 20
98.8843721461
 11
121.7
 21
102.6724981244
  0
LINE
  5
3D2
100
AcDbEntity
  8
0
100
AcDbLine
 62
7
  6
CONTINUOUS
 10
121.7
 20
104.2725018756
 11
121.7
 21
108.0606278539
  0
LINE
  5
3D3
100
AcDbEntity
  8
0
100
AcDbLine
 62
7
  6
CONTINUOUS
 10
122.3
 20
85.4725
 11
122.3
 21
88.5125
  0
LINE
  5
3D4
100
AcDbEntity
  8
0
100
AcDbLine
 62
7
  6
CONTINUOUS
 10
122.3
 20
97.3125
 11
122.3
 21
100.9125
  0
LINE
  5
3D5
100
AcDbEntity
  8
0
100
AcDbLine
 62
7
  6
CONTINUOUS
 10
122.3
 20
105.7125
 11
122.3
 21
109.3125
  0
LINE
  5
3D6
100
AcDbEntity
  8
0
100
AcDbLine
 62
7
  6
CONTINUOUS
 10
121.7
 20
102.2438451316
 11
119.7
 21
102.2438451316
  0
LINE
  5
3D7
100
AcDbEntity
  8
0
100
AcDbLine
 62
7
  6
CONTINUOUS
 10
101.38
 20
102.2438451316
 11
99.38
 21
102.2438451316
  0
LINE
  5
3D8
100
AcDbEntity
  8
0
100
AcDbLine
 62
7
  6
CONTINUOUS
 10
121.7
 20
102.6725
 11
119.7
 21
102.6725
  0
LINE
  5
3D9
100
AcDbEntity
  8
0
100
AcDbLine
 62
7
  6
CONTINUOUS
 10
101.38
 20
102.6725
 11
99.38
 21
102.6725
  0
LINE
  5
3DA
100
AcDbEntity
  8
0
100
AcDbLine
 62
7
  6
CONTINUOUS
 10
121.7
 20
104.2725
 11
119.7
 21
104.2725
  0
LINE
  5
3DB
100
AcDbEntity
  8
0
100
AcDbLine
 62
7
  6
CONTINUOUS
 10
101.38
 20
104.2725
 11
99.38
 21
104.2725
  0
LINE
  5
3DC
100
AcDbEntity
  8
0
100
AcDbLine
 62
7
  6
CONTINUOUS
 10
124.1
 20
100.9125
 11
124.1
 21
105.7125
  0
LINE
  5
3DD
100
AcDbEntity
  8
0
100
AcDbLine
 62
7
  6
CONTINUOUS
 10
121.7
 20
104.7011548684
 11
119.7
 21
104.7011548684
  0
LINE
  5
3DE
100
AcDbEntity
  8
0
100
AcDbLine
 62
7
  6
CONTINUOUS
 10
101.38
 20
104.7011548684
 11
99.38
 21
104.7011548684
  0
LINE
  5
3DF
100
AcDbEntity
  8
0
100
AcDbLine
 62
7
  6
CONTINUOUS
 10
124.1
 20
105.7125
 11
122.3
 21
105.7125
  0
LINE
  5
3E0
100
AcDbEntity
  8
0
100
AcDbLine
 62
7
  6
CONTINUOUS
 10
119.1
 20
105.7125
 11
117.3
 21
105.7125
  0
LINE
  5
3E1
100
AcDbEntity
  8
0
100
AcDbLine
 62
7
  6
CONTINUOUS
 10
103.78
 20
105.7125
 11
101.98
 21
105.7125
  0
LINE
  5
3E2
100
AcDbEntity
  8
0
100
AcDbLine
 62
7
  6
CONTINUOUS
 10
98.78
 20
105.7125
 11
96.98
 21
105.7125
  0
LINE
  5
3E3
100
AcDbEntity
  8
0
100
AcDbLine
 62
7
  6
CONTINUOUS
 10
108.94
 20
106.1125
 11
112.14
 21
106.1125
  0
LINE
  5
3E4
100
AcDbEntity
  8
0
100
AcDbLine
 62
7
  6
CONTINUOUS
 10
129.26
 20
106.1125
 11
132.46
 21
106.1125
  0
LINE
  5
3E5
100
AcDbEntity
  8
0
100
AcDbLine
 62
7
  6
CONTINUOUS
 10
121.7
 20
106.1312591795
 11
119.7
 21
106.1312591795
  0
LINE
  5
3E6
100
AcDbEntity
  8
0
100
AcDbLine
 62
7
  6
CONTINUOUS
 10
101.38
 20
106.1312591795
 11
99.38
 21
106.1312591795
  0
LINE
  5
3E7
100
AcDbEntity
  8
0
100
AcDbLine
 62
7
  6
CONTINUOUS
 10
109.54
 20
106.3774138428
 11
111.54
 21
106.3774138428
  0
LINE
  5
3E8
100
AcDbEntity
  8
0
100
AcDbLine
 62
7
  6
CONTINUOUS
 10
129.86
 20
106.3774138428
 11
131.86
 21
106.3774138428
  0
LINE
  5
3E9
100
AcDbEntity
  8
0
100
AcDbLine
 62
7
  6
CONTINUOUS
 10
109.54
 20
106.8323548931
 11
111.54
 21
106.8323548931
  0
LINE
  5
3EA
100
AcDbEntity
  8
0
100
AcDbLine
 62
7
  6
CONTINUOUS
 10
129.86
 20
106.8323548931
 11
131.86
 21
106.8323548931
  0
LINE
  5
3EB
100
AcDbEntity
  8
0
100
AcDbLine
 62
7
  6
CONTINUOUS
 10
121.7
 20
106.9026043111
 11
119.7
 21
106.9026043111
  0
LINE
  5
3EC
100
AcDbEntity
  8
0
100
AcDbLine
 62
7
  6
CONTINUOUS
 10
101.38
 20
106.9026043111
 11
99.38
 21
106.9026043111
  0
LINE
  5
3ED
100
AcDbEntity
  8
0
100
AcDbLine
 62
7
  6
CONTINUOUS
 10
143.66
 20
107.3125
 11
137.82
 21
107.3125
  0
LINE
  5
3EE
100
AcDbEntity
  8
0
100
AcDbLine
 62
7
  6
CONTINUOUS
 10
87.34
 20
107.3125
 11
93.18
 21
107.3125
  0
LINE
  5
3EF
100
AcDbEntity
  8
0
100
AcDbLine
 62
7
  6
CONTINUOUS
 10
121.7
 20
107.4725
 11
119.7
 21
107.4725
  0
LINE
  5
3F0
100
AcDbEntity
  8
0
100
AcDbLine
 62
7
  6
CONTINUOUS
 10
101.38
 20
107.4725
 11
99.38
 21
107.4725
  0
LINE
  5
3F1
100
AcDbEntity
  8
0
100
AcDbLine
 62
7
  6
CONTINUOUS
 10
121.7
 20
108.0606278539
 11
119.7
 21
108.0606278539
  0
LINE
  5
3F2
100
AcDbEntity
  8
0
100
AcDbLine
 62
7
  6
CONTINUOUS
 10
101.38
 20
108.0606278539
 11
99.38
 21
108.0606278539
  0
LINE
  5
3F3
100
AcDbEntity
  8
0
100
AcDbLine
 62
7
  6
CONTINUOUS
 10
127.46
 20
93.7125
 11
127.46
 21
88.9125
  0
LINE
  5
3F4
100
AcDbEntity
  8
0
100
AcDbLine
 62
7
  6
CONTINUOUS
 10
129.26
 20
109.1525
 11
129.26
 21
106.1125
  0
LINE
  5
3F5
100
AcDbEntity
  8
0
100
AcDbLine
 62
7
  6
CONTINUOUS
 10
129.26
 20
97.3125
 11
129.26
 21
93.7125
  0
LINE
  5
3F6
100
AcDbEntity
  8
0
100
AcDbLine
 62
7
  6
CONTINUOUS
 10
129.26
 20
88.9125
 11
129.26
 21
85.3125
  0
LINE
  5
3F7
100
AcDbEntity
  8
0
100
AcDbLine
 62
7
  6
CONTINUOUS
 10
132.46
 20
109.1525
 11
131.86
 21
109.1525
  0
LINE
  5
3F8
100
AcDbEntity
  8
0
100
AcDbLine
 62
7
  6
CONTINUOUS
 10
129.86
 20
109.1525
 11
129.26
 21
109.1525
  0
LINE
  5
3F9
100
AcDbEntity
  8
0
100
AcDbLine
 62
7
  6
CONTINUOUS
 10
112.14
 20
109.1525
 11
111.54
 21
109.1525
  0
LINE
  5
3FA
100
AcDbEntity
  8
0
100
AcDbLine
 62
7
  6
CONTINUOUS
 10
109.54
 20
109.1525
 11
108.94
 21
109.1525
  0
LINE
  5
3FB
100
AcDbEntity
  8
0
100
AcDbLine
 62
7
  6
CONTINUOUS
 10
122.3
 20
109.3125
 11
119.1
 21
109.3125
  0
LINE
  5
3FC
100
AcDbEntity
  8
0
100
AcDbLine
 62
7
  6
CONTINUOUS
 10
101.98
 20
109.3125
 11
98.78
 21
109.3125
  0
LINE
  5
3FD
100
AcDbEntity
  8
0
100
AcDbLine
 62
7
  6
CONTINUOUS
 10
109.54
 20
110.069424643
 11
111.54
 21
110.069424643
  0
LINE
  5
3FE
100
AcDbEntity
  8
0
100
AcDbLine
 62
7
  6
CONTINUOUS
 10
129.86
 20
110.069424643
 11
131.86
 21
110.069424643
  0
LINE
  5
3FF
100
AcDbEntity
  8
0
100
AcDbLine
 62
7
  6
CONTINUOUS
 10
131.86
 20
110.1125
 11
129.86
 21
110.1125
  0
LINE
  5
400
100
AcDbEntity
  8
0
100
AcDbLine
 62
7
  6
CONTINUOUS
 10
111.54
 20
110.1125
 11
109.54
 21
110.1125
  0
LINE
  5
401
100
AcDbEntity
  8
0
100
AcDbLine
 62
7
  6
CONTINUOUS
 10
93.18
 20
111.1744118425
 11
137.82
 21
111.1744118425
  0
LINE
  5
402
100
AcDbEntity
  8
0
100
AcDbLine
 62
7
  6
CONTINUOUS
 10
129.86
 20
86.5643721461
 11
129.86
 21
90.3524981244
  0
LINE
  5
403
100
AcDbEntity
  8
0
100
AcDbLine
 62
7
  6
CONTINUOUS
 10
129.86
 20
91.9525018756
 11
129.86
 21
95.7406278539
  0
LINE
  5
404
100
AcDbEntity
  8
0
100
AcDbLine
 62
7
  6
CONTINUOUS
 10
129.86
 20
106.3774138428
 11
129.86
 21
110.1125
  0
LINE
  5
405
100
AcDbEntity
  8
0
100
AcDbLine
 62
7
  6
CONTINUOUS
 10
131.86
 20
95.7406278539
 11
131.86
 21
91.9525018756
  0
LINE
  5
406
100
AcDbEntity
  8
0
100
AcDbLine
 62
7
  6
CONTINUOUS
 10
131.86
 20
90.3524981244
 11
131.86
 21
86.5643721461
  0
LINE
  5
407
100
AcDbEntity
  8
0
100
AcDbLine
 62
7
  6
CONTINUOUS
 10
131.86
 20
106.3774138428
 11
131.86
 21
110.1125
  0
LINE
  5
408
100
AcDbEntity
  8
0
100
AcDbLine
 62
7
  6
CONTINUOUS
 10
93.18
 20
112.77316676
 11
137.82
 21
112.77316676
  0
LINE
  5
409
100
AcDbEntity
  8
0
100
AcDbLine
 62
7
  6
CONTINUOUS
 10
93.18
 20
113.23666655
 11
137.82
 21
113.23666655
  0
LINE
  5
40A
100
AcDbEntity
  8
0
100
AcDbLine
 62
7
  6
CONTINUOUS
 10
132.46
 20
85.3125
 11
132.46
 21
88.9125
  0
LINE
  5
40B
100
AcDbEntity
  8
0
100
AcDbLine
 62
7
  6
CONTINUOUS
 10
132.46
 20
93.7125
 11
132.46
 21
97.3125
  0
LINE
  5
40C
100
AcDbEntity
  8
0
100
AcDbLine
 62
7
  6
CONTINUOUS
 10
132.46
 20
106.1125
 11
132.46
 21
109.1525
  0
LINE
  5
40D
100
AcDbEntity
  8
0
100
AcDbLine
 62
7
  6
CONTINUOUS
 10
93.18
 20
115.2351101968
 11
137.82
 21
115.2351101968
  0
LINE
  5
40E
100
AcDbEntity
  8
0
100
AcDbLine
 62
7
  6
CONTINUOUS
 10
134.26
 20
88.9125
 11
134.26
 21
93.7125
  0
LINE
  5
40F
100
AcDbEntity
  8
0
100
AcDbLine
 62
7
  6
CONTINUOUS
 10
143.66
 20
117.3125
 11
87.34
 21
117.3125
  0
LINE
  5
410
100
AcDbEntity
  8
0
100
AcDbLine
 62
7
  6
CONTINUOUS
 10
137.82
 20
79.3898898032
 11
137.82
 21
115.2351101968
  0
LINE
  5
411
100
AcDbEntity
  8
0
100
AcDbLine
 62
7
  6
CONTINUOUS
 10
143.66
 20
77.3125
 11
143.66
 21
87.3125
  0
LINE
  5
412
100
AcDbEntity
  8
0
100
AcDbLine
 62
7
  6
CONTINUOUS
 10
143.66
 20
107.3125
 11
143.66
 21
117.3125
  0
LINE
  5
413
100
AcDbEntity
  8
0
100
AcDbLine
 62
7
  6
CONTINUOUS
 10
87.34
 20
184.7125
 11
87.34
 21
197.5125
  0
LINE
  5
414
100
AcDbEntity
  8
0
100
AcDbLine
 62
7
  6
CONTINUOUS
 10
93.18
 20
169.5125
 11
137.82
 21
169.5125
  0
LINE
  5
415
100
AcDbEntity
  8
0
100
AcDbLine
 62
7
  6
CONTINUOUS
 10
93.18
 20
171.0493912533
 11
137.82
 21
171.0493912533
  0
LINE
  5
416
100
AcDbEntity
  8
0
100
AcDbLine
 62
7
  6
CONTINUOUS
 10
93.18
 20
169.5125
 11
93.18
 21
184.7125
  0
LINE
  5
417
100
AcDbEntity
  8
0
100
AcDbLine
 62
7
  6
CONTINUOUS
 10
93.18
 20
197.5125
 11
93.18
 21
201.5125
  0
LINE
  5
418
100
AcDbEntity
  8
0
100
AcDbLine
 62
7
  6
CONTINUOUS
 10
97.4289710363
 20
212.9125
 11
99.1656406461
 21
215.9205
  0
LINE
  5
419
100
AcDbEntity
  8
0
100
AcDbLine
 62
7
  6
CONTINUOUS
 10
101.1656406461
 20
215.3846016151
 11
99.1610218439
 21
211.9125
  0
LINE
  5
41A
100
AcDbEntity
  8
0
100
AcDbLine
 62
7
  6
CONTINUOUS
 10
96.7
 20
201.5125
 11
96.7
 21
197.5125
  0
LINE
  5
41B
100
AcDbEntity
  8
0
100
AcDbLine
 62
7
  6
CONTINUOUS
 10
99.38
 20
197.5125
 11
99.38
 21
204.7045
  0
LINE
  5
41C
100
AcDbEntity
  8
0
100
AcDbLine
 62
7
  6
CONTINUOUS
 10
99.38
 20
216.7205
 11
99.38
 21
226.7125
  0
LINE
  5
41D
100
AcDbEntity
  8
0
100
AcDbLine
 62
7
  6
CONTINUOUS
 10
101.38
 20
226.7125
 11
101.38
 21
216.1846016151
  0
LINE
  5
41E
100
AcDbEntity
  8
0
100
AcDbLine
 62
7
  6
CONTINUOUS
 10
101.38
 20
197.5125
 11
101.38
 21
205.2403983849
  0
LINE
  5
41F
100
AcDbEntity
  8
0
100
AcDbLine
 62
7
  6
CONTINUOUS
 10
109.3792304845
 20
216.1856296096
 11
107.4894882233
 21
212.9125
  0
LINE
  5
420
100
AcDbEntity
  8
0
100
AcDbLine
 62
7
  6
CONTINUOUS
 10
93.18
 20
182.7913859334
 11
137.82
 21
182.7913859334
  0
LINE
  5
421
100
AcDbEntity
  8
0
100
AcDbLine
 62
7
  6
CONTINUOUS
 10
143.66
 20
184.7125
 11
87.34
 21
184.7125
  0
LINE
  5
422
100
AcDbEntity
  8
0
100
AcDbLine
 62
7
  6
CONTINUOUS
 10
104.06
 20
201.5125
 11
104.06
 21
197.5125
  0
LINE
  5
423
100
AcDbEntity
  8
0
100
AcDbLine
 62
7
  6
CONTINUOUS
 10
109.2215390309
 20
211.9125
 11
111.3792304845
 21
215.6497312247
  0
LINE
  5
424
100
AcDbEntity
  8
0
100
AcDbLine
 62
7
  6
CONTINUOUS
 10
101.38
 20
200.2325
 11
102.66
 21
201.5125
  0
LINE
  5
425
100
AcDbEntity
  8
0
100
AcDbLine
 62
7
  6
CONTINUOUS
 10
99.1656406461
 20
205.5045
 11
97.4289710363
 21
208.5125
  0
LINE
  5
426
100
AcDbEntity
  8
0
100
AcDbLine
 62
7
  6
CONTINUOUS
 10
106.86
 20
201.5125
 11
106.86
 21
197.5125
  0
LINE
  5
427
100
AcDbEntity
  8
0
100
AcDbLine
 62
7
  6
CONTINUOUS
 10
98.1
 20
201.5125
 11
99.38
 21
200.2325
  0
LINE
  5
428
100
AcDbEntity
  8
0
100
AcDbLine
 62
7
  6
CONTINUOUS
 10
99.1610218439
 20
209.5125
 11
101.1656406461
 21
206.0403983849
  0
LINE
  5
429
100
AcDbEntity
  8
0
100
AcDbLine
 62
7
  6
CONTINUOUS
 10
109.54
 20
226.7125
 11
109.54
 21
216.7856296096
  0
LINE
  5
42A
100
AcDbEntity
  8
0
100
AcDbLine
 62
7
  6
CONTINUOUS
 10
109.54
 20
204.6393703904
 11
109.54
 21
197.5125
  0
LINE
  5
42B
100
AcDbEntity
  8
0
100
AcDbLine
 62
7
  6
CONTINUOUS
 10
111.54
 20
197.5125
 11
111.54
 21
205.1752687753
  0
LINE
  5
42C
100
AcDbEntity
  8
0
100
AcDbLine
 62
7
  6
CONTINUOUS
 10
111.54
 20
216.2497312247
 11
111.54
 21
226.7125
  0
LINE
  5
42D
100
AcDbEntity
  8
0
100
AcDbLine
 62
7
  6
CONTINUOUS
 10
111.54
 20
200.2325
 11
112.82
 21
201.5125
  0
LINE
  5
42E
100
AcDbEntity
  8
0
100
AcDbLine
 62
7
  6
CONTINUOUS
 10
108.26
 20
201.5125
 11
109.54
 21
200.2325
  0
LINE
  5
42F
100
AcDbEntity
  8
0
100
AcDbLine
 62
7
  6
CONTINUOUS
 10
114.22
 20
201.5125
 11
114.22
 21
197.5125
  0
LINE
  5
430
100
AcDbEntity
  8
0
100
AcDbLine
 62
7
  6
CONTINUOUS
 10
119.9149615613
 20
206.0414405331
 11
121.9215576581
 21
209.5109367776
  0
LINE
  5
431
100
AcDbEntity
  8
0
100
AcDbLine
 62
7
  6
CONTINUOUS
 10
87.34
 20
197.5125
 11
143.66
 21
197.5125
  0
LINE
  5
432
100
AcDbEntity
  8
0
100
AcDbLine
 62
7
  6
CONTINUOUS
 10
109.54
 20
198.3125
 11
111.54
 21
198.3125
  0
LINE
  5
433
100
AcDbEntity
  8
0
100
AcDbLine
 62
7
  6
CONTINUOUS
 10
129.86
 20
198.3125
 11
131.86
 21
198.3125
  0
LINE
  5
434
100
AcDbEntity
  8
0
100
AcDbLine
 62
7
  6
CONTINUOUS
 10
107.4894882233
 20
208.5125
 11
109.3792304845
 21
205.2393703904
  0
LINE
  5
435
100
AcDbEntity
  8
0
100
AcDbLine
 62
7
  6
CONTINUOUS
 10
111.3792304845
 20
205.7752687753
 11
109.2215390309
 21
209.5125
  0
LINE
  5
436
100
AcDbEntity
  8
0
100
AcDbLine
 62
7
  6
CONTINUOUS
 10
117.02
 20
201.5125
 11
117.02
 21
197.5125
  0
LINE
  5
437
100
AcDbEntity
  8
0
100
AcDbLine
 62
7
  6
CONTINUOUS
 10
123.6528557065
 20
208.5096340923
 11
121.9149615613
 21
205.5047357873
  0
LINE
  5
438
100
AcDbEntity
  8
0
100
AcDbLine
 62
7
  6
CONTINUOUS
 10
121.7
 20
200.2325
 11
122.98
 21
201.5125
  0
LINE
  5
439
100
AcDbEntity
  8
0
100
AcDbLine
 62
7
  6
CONTINUOUS
 10
121.7
 20
198.7125
 11
119.7
 21
198.7125
  0
LINE
  5
43A
100
AcDbEntity
  8
0
100
AcDbLine
 62
7
  6
CONTINUOUS
 10
101.38
 20
198.7125
 11
99.38
 21
198.7125
  0
LINE
  5
43B
100
AcDbEntity
  8
0
100
AcDbLine
 62
7
  6
CONTINUOUS
 10
121.7
 20
199.6580844123
 11
119.7
 21
199.6580844123
  0
LINE
  5
43C
100
AcDbEntity
  8
0
100
AcDbLine
 62
7
  6
CONTINUOUS
 10
101.38
 20
199.6580844123
 11
99.38
 21
199.6580844123
  0
LINE
  5
43D
100
AcDbEntity
  8
0
100
AcDbLine
 62
7
  6
CONTINUOUS
 10
121.7
 20
200.7125
 11
119.7
 21
200.7125
  0
LINE
  5
43E
100
AcDbEntity
  8
0
100
AcDbLine
 62
7
  6
CONTINUOUS
 10
101.38
 20
200.7125
 11
99.38
 21
200.7125
  0
LINE
  5
43F
100
AcDbEntity
  8
0
100
AcDbLine
 62
7
  6
CONTINUOUS
 10
119.7
 20
197.5125
 11
119.7
 21
205.2403983849
  0
LINE
  5
440
100
AcDbEntity
  8
0
100
AcDbLine
 62
7
  6
CONTINUOUS
 10
119.7
 20
216.1846016151
 11
119.7
 21
226.7125
  0
LINE
  5
441
100
AcDbEntity
  8
0
100
AcDbLine
 62
7
  6
CONTINUOUS
 10
93.18
 20
201.5125
 11
98.1
 21
201.5125
  0
LINE
  5
442
100
AcDbEntity
  8
0
100
AcDbLine
 62
7
  6
CONTINUOUS
 10
102.66
 20
201.5125
 11
108.26
 21
201.5125
  0
LINE
  5
443
100
AcDbEntity
  8
0
100
AcDbLine
 62
7
  6
CONTINUOUS
 10
112.82
 20
201.5125
 11
118.42
 21
201.5125
  0
LINE
  5
444
100
AcDbEntity
  8
0
100
AcDbLine
 62
7
  6
CONTINUOUS
 10
122.98
 20
201.5125
 11
128.58
 21
201.5125
  0
LINE
  5
445
100
AcDbEntity
  8
0
100
AcDbLine
 62
7
  6
CONTINUOUS
 10
133.14
 20
201.5125
 11
137.82
 21
201.5125
  0
LINE
  5
446
100
AcDbEntity
  8
0
100
AcDbLine
 62
7
  6
CONTINUOUS
 10
121.7
 20
201.9125
 11
119.7
 21
201.9125
  0
LINE
  5
447
100
AcDbEntity
  8
0
100
AcDbLine
 62
7
  6
CONTINUOUS
 10
101.38
 20
201.9125
 11
99.38
 21
201.9125
  0
LINE
  5
448
100
AcDbEntity
  8
0
100
AcDbLine
 62
7
  6
CONTINUOUS
 10
109.54
 20
201.9125
 11
111.54
 21
201.9125
  0
LINE
  5
449
100
AcDbEntity
  8
0
100
AcDbLine
 62
7
  6
CONTINUOUS
 10
129.86
 20
201.9125
 11
131.86
 21
201.9125
  0
LINE
  5
44A
100
AcDbEntity
  8
0
100
AcDbLine
 62
7
  6
CONTINUOUS
 10
121.7
 20
203.1125
 11
119.7
 21
203.1125
  0
LINE
  5
44B
100
AcDbEntity
  8
0
100
AcDbLine
 62
7
  6
CONTINUOUS
 10
101.38
 20
203.1125
 11
99.38
 21
203.1125
  0
LINE
  5
44C
100
AcDbEntity
  8
0
100
AcDbLine
 62
7
  6
CONTINUOUS
 10
109.54
 20
203.1125
 11
111.54
 21
203.1125
  0
LINE
  5
44D
100
AcDbEntity
  8
0
100
AcDbLine
 62
7
  6
CONTINUOUS
 10
129.86
 20
203.1125
 11
131.86
 21
203.1125
  0
LINE
  5
44E
100
AcDbEntity
  8
0
100
AcDbLine
 62
7
  6
CONTINUOUS
 10
118.42
 20
201.5125
 11
119.7
 21
200.2325
  0
LINE
  5
44F
100
AcDbEntity
  8
0
100
AcDbLine
 62
7
  6
CONTINUOUS
 10
121.7
 20
226.7125
 11
121.7
 21
216.721306361
  0
LINE
  5
450
100
AcDbEntity
  8
0
100
AcDbLine
 62
7
  6
CONTINUOUS
 10
121.7
 20
197.5125
 11
121.7
 21
204.703693639
  0
LINE
  5
451
100
AcDbEntity
  8
0
100
AcDbLine
 62
7
  6
CONTINUOUS
 10
124.38
 20
201.5125
 11
124.38
 21
197.5125
  0
LINE
  5
452
100
AcDbEntity
  8
0
100
AcDbLine
 62
7
  6
CONTINUOUS
 10
132.1003097527
 20
209.543960133
 11
130.0067836195
 21
205.7882652061
  0
LINE
  5
453
100
AcDbEntity
  8
0
100
AcDbLine
 62
7
  6
CONTINUOUS
 10
132.0067836195
 20
205.2684879081
 11
133.8472345466
 21
208.5701769105
  0
LINE
  5
454
100
AcDbEntity
  8
0
100
AcDbLine
 62
7
  6
CONTINUOUS
 10
131.86
 20
200.2325
 11
133.14
 21
201.5125
  0
LINE
  5
455
100
AcDbEntity
  8
0
100
AcDbLine
 62
7
  6
CONTINUOUS
 10
127.18
 20
201.5125
 11
127.18
 21
197.5125
  0
LINE
  5
456
100
AcDbEntity
  8
0
100
AcDbLine
 62
7
  6
CONTINUOUS
 10
128.58
 20
201.5125
 11
129.86
 21
200.2325
  0
LINE
  5
457
100
AcDbEntity
  8
0
100
AcDbLine
 62
7
  6
CONTINUOUS
 10
121.9215576581
 20
211.9140632224
 11
119.9149615613
 21
215.3835594669
  0
LINE
  5
458
100
AcDbEntity
  8
0
100
AcDbLine
 62
7
  6
CONTINUOUS
 10
129.86
 20
226.7125
 11
129.86
 21
216.201529063
  0
LINE
  5
459
100
AcDbEntity
  8
0
100
AcDbLine
 62
7
  6
CONTINUOUS
 10
129.86
 20
197.5125
 11
129.86
 21
205.223470937
  0
LINE
  5
45A
100
AcDbEntity
  8
0
100
AcDbLine
 62
7
  6
CONTINUOUS
 10
131.86
 20
204.703693639
 11
131.86
 21
197.5125
  0
LINE
  5
45B
100
AcDbEntity
  8
0
100
AcDbLine
 62
7
  6
CONTINUOUS
 10
131.86
 20
216.721306361
 11
131.86
 21
226.7125
  0
LINE
  5
45C
100
AcDbEntity
  8
0
100
AcDbLine
 62
7
  6
CONTINUOUS
 10
121.9149615613
 20
215.9202642127
 11
123.6528557065
 21
212.9153659077
  0
LINE
  5
45D
100
AcDbEntity
  8
0
100
AcDbLine
 62
7
  6
CONTINUOUS
 10
134.54
 20
201.5125
 11
134.54
 21
197.5125
  0
LINE
  5
45E
100
AcDbEntity
  8
0
100
AcDbLine
 62
7
  6
CONTINUOUS
 10
130.0067836195
 20
215.6367347939
 11
132.1003097527
 21
211.881039867
  0
LINE
  5
45F
100
AcDbEntity
  8
0
100
AcDbLine
 62
7
  6
CONTINUOUS
 10
137.82
 20
201.5125
 11
137.82
 21
197.5125
  0
LINE
  5
460
100
AcDbEntity
  8
0
100
AcDbLine
 62
7
  6
CONTINUOUS
 10
137.82
 20
169.5125
 11
137.82
 21
184.7125
  0
LINE
  5
461
100
AcDbEntity
  8
0
100
AcDbLine
 62
7
  6
CONTINUOUS
 10
133.8472345466
 20
212.8548230895
 11
132.0067836195
 21
216.1565120919
  0
LINE
  5
462
100
AcDbEntity
  8
0
100
AcDbLine
 62
7
  6
CONTINUOUS
 10
143.66
 20
184.7125
 11
143.66
 21
197.5125
  0
LINE
  5
463
100
AcDbEntity
  8
0
100
AcDbLine
 62
7
  6
CONTINUOUS
 10
131.86
 20
226.7125
 11
129.86
 21
226.7125
  0
LINE
  5
464
100
AcDbEntity
  8
0
100
AcDbLine
 62
7
  6
CONTINUOUS
 10
111.54
 20
226.7125
 11
109.54
 21
226.7125
  0
LINE
  5
465
100
AcDbEntity
  8
0
100
AcDbLine
 62
7
  6
CONTINUOUS
 10
99.38
 20
226.7125
 11
101.38
 21
226.7125
  0
LINE
  5
466
100
AcDbEntity
  8
0
100
AcDbLine
 62
7
  6
CONTINUOUS
 10
119.7
 20
226.7125
 11
121.7
 21
226.7125
  0
LINE
  5
467
100
AcDbEntity
  8
0
100
AcDbLine
 62
7
  6
CONTINUOUS
 10
223.4
 20
83.4505881575
 11
223.4
 21
111.1744118425
  0
LINE
  5
468
100
AcDbEntity
  8
0
100
AcDbLine
 62
7
  6
CONTINUOUS
 10
238.6
 20
77.3125
 11
251.4
 21
77.3125
  0
LINE
  5
469
100
AcDbEntity
  8
0
100
AcDbLine
 62
7
  6
CONTINUOUS
 10
255.8
 20
80.1125
 11
251.8
 21
80.1125
  0
LINE
  5
46A
100
AcDbEntity
  8
0
100
AcDbLine
 62
7
  6
CONTINUOUS
 10
236.6788859334
 20
81.38833345
 11
224.9368912533
 21
81.85183324
  0
LINE
  5
46B
100
AcDbEntity
  8
0
100
AcDbLine
 62
7
  6
CONTINUOUS
 10
238.6
 20
77.3125
 11
238.6
 21
87.3125
  0
LINE
  5
46C
100
AcDbEntity
  8
0
100
AcDbLine
 62
7
  6
CONTINUOUS
 10
238.6
 20
107.3125
 11
238.6
 21
117.3125
  0
LINE
  5
46D
100
AcDbEntity
  8
0
100
AcDbLine
 62
7
  6
CONTINUOUS
 10
251.4
 20
84.3525
 11
252.5871688245
 21
84.3525
  0
LINE
  5
46E
100
AcDbEntity
  8
0
100
AcDbLine
 62
7
  6
CONTINUOUS
 10
280.6
 20
85.1525
 11
257.0
 21
85.1525
  0
LINE
  5
46F
100
AcDbEntity
  8
0
100
AcDbLine
 62
7
  6
CONTINUOUS
 10
238.6
 20
87.3125
 11
255.4
 21
87.3125
  0
LINE
  5
470
100
AcDbEntity
  8
0
100
AcDbLine
 62
7
  6
CONTINUOUS
 10
280.6
 20
89.1525
 11
257.0
 21
89.1525
  0
LINE
  5
471
100
AcDbEntity
  8
0
100
AcDbLine
 62
7
  6
CONTINUOUS
 10
251.4
 20
117.3125
 11
251.4
 21
107.3125
  0
LINE
  5
472
100
AcDbEntity
  8
0
100
AcDbLine
 62
7
  6
CONTINUOUS
 10
251.4
 20
87.3125
 11
251.4
 21
77.3125
  0
LINE
  5
473
100
AcDbEntity
  8
0
100
AcDbLine
 62
7
  6
CONTINUOUS
 10
251.8
 20
80.1125
 11
251.8
 21
82.1125
  0
LINE
  5
474
100
AcDbEntity
  8
0
100
AcDbLine
 62
7
  6
CONTINUOUS
 10
252.2
 20
114.5125
 11
252.2
 21
112.5125
  0
LINE
  5
475
100
AcDbEntity
  8
0
100
AcDbLine
 62
7
  6
CONTINUOUS
 10
255.4
 20
107.3125
 11
255.4
 21
87.3125
  0
LINE
  5
476
100
AcDbEntity
  8
0
100
AcDbLine
 62
7
  6
CONTINUOUS
 10
255.8
 20
93.3125
 11
255.8
 21
90.3525
  0
LINE
  5
477
100
AcDbEntity
  8
0
100
AcDbLine
 62
7
  6
CONTINUOUS
 10
255.8
 20
83.9525
 11
255.8
 21
80.1125
  0
LINE
  5
478
100
AcDbEntity
  8
0
100
AcDbLine
 62
7
  6
CONTINUOUS
 10
255.8
 20
101.3125
 11
255.8
 21
104.2725
  0
LINE
  5
479
100
AcDbEntity
  8
0
100
AcDbLine
 62
7
  6
CONTINUOUS
 10
255.8
 20
110.6725
 11
255.8
 21
114.5125
  0
LINE
  5
47A
100
AcDbEntity
  8
0
100
AcDbLine
 62
7
  6
CONTINUOUS
 10
255.4
 20
99.4458333333
 11
255.8
 21
101.3125
  0
LINE
  5
47B
100
AcDbEntity
  8
0
100
AcDbLine
 62
7
  6
CONTINUOUS
 10
255.4
 20
95.1791666667
 11
255.8
 21
93.3125
  0
LINE
  5
47C
100
AcDbEntity
  8
0
100
AcDbLine
 62
7
  6
CONTINUOUS
 10
258.591193639
 20
85.1525
 11
258.591193639
 21
89.1525
  0
LINE
  5
47D
100
AcDbEntity
  8
0
100
AcDbLine
 62
7
  6
CONTINUOUS
 10
258.591193639
 20
105.4725
 11
258.591193639
 21
109.4725
  0
LINE
  5
47E
100
AcDbEntity
  8
0
100
AcDbLine
 62
7
  6
CONTINUOUS
 10
259.1559879081
 20
109.4725
 11
259.1559879081
 21
105.4725
  0
LINE
  5
47F
100
AcDbEntity
  8
0
100
AcDbLine
 62
7
  6
CONTINUOUS
 10
259.3922357873
 20
85.1525
 11
259.3922357873
 21
89.1525
  0
LINE
  5
480
100
AcDbEntity
  8
0
100
AcDbLine
 62
7
  6
CONTINUOUS
 10
252.5871688245
 20
84.3525
 11
253.5455844123
 21
85.3109155877
  0
LINE
  5
481
100
AcDbEntity
  8
0
100
AcDbLine
 62
7
  6
CONTINUOUS
 10
280.6
 20
105.4725
 11
257.0
 21
105.4725
  0
LINE
  5
482
100
AcDbEntity
  8
0
100
AcDbLine
 62
7
  6
CONTINUOUS
 10
262.3971340923
 20
85.1525
 11
262.3971340923
 21
89.1525
  0
LINE
  5
483
100
AcDbEntity
  8
0
100
AcDbLine
 62
7
  6
CONTINUOUS
 10
262.4576769105
 20
109.4725
 11
262.4576769105
 21
105.4725
  0
LINE
  5
484
100
AcDbEntity
  8
0
100
AcDbLine
 62
7
  6
CONTINUOUS
 10
238.6
 20
107.3125
 11
255.4
 21
107.3125
  0
LINE
  5
485
100
AcDbEntity
  8
0
100
AcDbLine
 62
7
  6
CONTINUOUS
 10
257.0
 20
109.4725
 11
280.6
 21
109.4725
  0
LINE
  5
486
100
AcDbEntity
  8
0
100
AcDbLine
 62
7
  6
CONTINUOUS
 10
266.7423230895
 20
109.4725
 11
266.7423230895
 21
105.4725
  0
LINE
  5
487
100
AcDbEntity
  8
0
100
AcDbLine
 62
7
  6
CONTINUOUS
 10
266.8028659077
 20
85.1525
 11
266.8028659077
 21
89.1525
  0
LINE
  5
488
100
AcDbEntity
  8
0
100
AcDbLine
 62
7
  6
CONTINUOUS
 10
224.9368912533
 20
112.77316676
 11
236.6788859334
 21
113.23666655
  0
LINE
  5
489
100
AcDbEntity
  8
0
100
AcDbLine
 62
7
  6
CONTINUOUS
 10
269.8077642127
 20
85.1525
 11
269.8077642127
 21
89.1525
  0
LINE
  5
48A
100
AcDbEntity
  8
0
100
AcDbLine
 62
7
  6
CONTINUOUS
 10
270.0440120919
 20
109.4725
 11
270.0440120919
 21
105.4725
  0
LINE
  5
48B
100
AcDbEntity
  8
0
100
AcDbLine
 62
7
  6
CONTINUOUS
 10
270.608806361
 20
109.4725
 11
270.608806361
 21
105.4725
  0
LINE
  5
48C
100
AcDbEntity
  8
0
100
AcDbLine
 62
7
  6
CONTINUOUS
 10
270.608806361
 20
85.1525
 11
270.608806361
 21
89.1525
  0
LINE
  5
48D
100
AcDbEntity
  8
0
100
AcDbLine
 62
7
  6
CONTINUOUS
 10
255.8
 20
114.5125
 11
252.2
 21
114.5125
  0
LINE
  5
48E
100
AcDbEntity
  8
0
100
AcDbLine
 62
7
  6
CONTINUOUS
 10
238.6
 20
117.3125
 11
251.4
 21
117.3125
  0
LINE
  5
48F
100
AcDbEntity
  8
0
100
AcDbLine
 62
7
  6
CONTINUOUS
 10
280.6
 20
109.4725
 11
280.6
 21
105.4725
  0
LINE
  5
490
100
AcDbEntity
  8
0
100
AcDbLine
 62
7
  6
CONTINUOUS
 10
280.6
 20
85.1525
 11
280.6
 21
89.1525
  0
ARC
  5
491
100
AcDbEntity
  8
0
100
AcDbCircle
 62
7
  6
CONTINUOUS
 10
119.844
 20
210.7125
 40
4.4
100
AcDbArc
 50
329.9568981527
 51
30.0431018473
  0
ARC
  5
492
100
AcDbEntity
  8
0
100
AcDbCircle
 62
7
  6
CONTINUOUS
 10
130.004
 20
210.7125
 40
4.4
100
AcDbArc
 50
330.8635198645
 51
29.1364801355
  0
ARC
  5
493
100
AcDbEntity
  8
0
100
AcDbCircle
 62
7
  6
CONTINUOUS
 10
101.239482813
 20
210.7125
 40
4.4
100
AcDbArc
 50
150.0
 51
210.0
  0
ARC
  5
494
100
AcDbEntity
  8
0
100
AcDbCircle
 62
7
  6
CONTINUOUS
 10
111.3
 20
210.7125
 40
4.4
100
AcDbArc
 50
150.0
 51
210.0
  0
ARC
  5
495
100
AcDbEntity
  8
0
100
AcDbCircle
 62
7
  6
CONTINUOUS
 10
119.844
 20
210.7125
 40
2.4
100
AcDbArc
 50
329.9568981527
 51
30.0431018473
  0
ARC
  5
496
100
AcDbEntity
  8
0
100
AcDbCircle
 62
7
  6
CONTINUOUS
 10
130.004
 20
210.7125
 40
2.4
100
AcDbArc
 50
330.8635198645
 51
29.1364801355
  0
ARC
  5
497
100
AcDbEntity
  8
0
100
AcDbCircle
 62
7
  6
CONTINUOUS
 10
101.239482813
 20
210.7125
 40
2.4
100
AcDbArc
 50
150.0
 51
210.0
  0
ARC
  5
498
100
AcDbEntity
  8
0
100
AcDbCircle
 62
7
  6
CONTINUOUS
 10
111.3
 20
210.7125
 40
2.4
100
AcDbArc
 50
150.0
 51
210.0
  0
ARC
  5
499
100
AcDbEntity
  8
0
100
AcDbCircle
 62
7
  6
CONTINUOUS
 10
123.3
 20
204.703693639
 40
1.6
100
AcDbArc
 50
149.9568981527
 51
180.0
  0
ARC
  5
49A
100
AcDbEntity
  8
0
100
AcDbCircle
 62
7
  6
CONTINUOUS
 10
123.3
 20
216.721306361
 40
1.6
100
AcDbArc
 50
180.0
 51
210.0431018473
  0
ARC
  5
49B
100
AcDbEntity
  8
0
100
AcDbCircle
 62
7
  6
CONTINUOUS
 10
121.3
 20
216.1846016151
 40
1.6
100
AcDbArc
 50
180.0
 51
210.0431018473
  0
ARC
  5
49C
100
AcDbEntity
  8
0
100
AcDbCircle
 62
7
  6
CONTINUOUS
 10
121.3
 20
205.2403983849
 40
1.6
100
AcDbArc
 50
149.9568981527
 51
180.0
  0
ARC
  5
49D
100
AcDbEntity
  8
0
100
AcDbCircle
 62
7
  6
CONTINUOUS
 10
99.78
 20
205.2403983849
 40
1.6
100
AcDbArc
 50
0.0
 51
30.0
  0
ARC
  5
49E
100
AcDbEntity
  8
0
100
AcDbCircle
 62
7
  6
CONTINUOUS
 10
99.78
 20
216.1846016151
 40
1.6
100
AcDbArc
 50
330.0
 51
360.0
  0
ARC
  5
49F
100
AcDbEntity
  8
0
100
AcDbCircle
 62
7
  6
CONTINUOUS
 10
97.78
 20
216.7205
 40
1.6
100
AcDbArc
 50
330.0
 51
360.0
  0
ARC
  5
4A0
100
AcDbEntity
  8
0
100
AcDbCircle
 62
7
  6
CONTINUOUS
 10
97.78
 20
204.7045
 40
1.6
100
AcDbArc
 50
0.0
 51
30.0
  0
ARC
  5
4A1
100
AcDbEntity
  8
0
100
AcDbCircle
 62
7
  6
CONTINUOUS
 10
110.34
 20
205.1752687753
 40
1.2
100
AcDbArc
 50
0.0
 51
30.0
  0
ARC
  5
4A2
100
AcDbEntity
  8
0
100
AcDbCircle
 62
7
  6
CONTINUOUS
 10
110.34
 20
216.2497312247
 40
1.2
100
AcDbArc
 50
330.0
 51
360.0
  0
ARC
  5
4A3
100
AcDbEntity
  8
0
100
AcDbCircle
 62
7
  6
CONTINUOUS
 10
108.34
 20
216.7856296096
 40
1.2
100
AcDbArc
 50
330.0
 51
360.0
  0
ARC
  5
4A4
100
AcDbEntity
  8
0
100
AcDbCircle
 62
7
  6
CONTINUOUS
 10
108.34
 20
204.6393703904
 40
1.2
100
AcDbArc
 50
0.0
 51
30.0
  0
ARC
  5
4A5
100
AcDbEntity
  8
0
100
AcDbCircle
 62
7
  6
CONTINUOUS
 10
133.02
 20
204.703693639
 40
1.16
100
AcDbArc
 50
150.8635198645
 51
180.0
  0
ARC
  5
4A6
100
AcDbEntity
  8
0
100
AcDbCircle
 62
7
  6
CONTINUOUS
 10
133.02
 20
216.721306361
 40
1.16
100
AcDbArc
 50
180.0
 51
209.1364801355
  0
ARC
  5
4A7
100
AcDbEntity
  8
0
100
AcDbCircle
 62
7
  6
CONTINUOUS
 10
131.02
 20
216.201529063
 40
1.16
100
AcDbArc
 50
180.0
 51
209.1364801355
  0
ARC
  5
4A8
100
AcDbEntity
  8
0
100
AcDbCircle
 62
7
  6
CONTINUOUS
 10
131.02
 20
205.223470937
 40
1.16
100
AcDbArc
 50
150.8635198645
 51
180.0
  0
ARC
  5
4A9
100
AcDbEntity
  8
0
100
AcDbCircle
 62
7
  6
CONTINUOUS
 10
251.0
 20
87.8565
 40
3.6
100
AcDbArc
 50
315.0
 51
351.3069595044
  0
ARC
  5
4AA
100
AcDbEntity
  8
0
100
AcDbCircle
 62
7
  6
CONTINUOUS
 10
236.6
 20
115.2351101968
 40
2.0
100
AcDbArc
 50
272.2605019111
 51
360.0
  0
ARC
  5
4AB
100
AcDbEntity
  8
0
100
AcDbCircle
 62
7
  6
CONTINUOUS
 10
236.6
 20
79.3898898032
 40
2.0
100
AcDbArc
 50
0.0
 51
87.7394980889
  0
ARC
  5
4AC
100
AcDbEntity
  8
0
100
AcDbCircle
 62
7
  6
CONTINUOUS
 10
225.0
 20
111.1744118425
 40
1.6
100
AcDbArc
 50
92.2605019111
 51
180.0
  0
ARC
  5
4AD
100
AcDbEntity
  8
0
100
AcDbCircle
 62
7
  6
CONTINUOUS
 10
225.0
 20
83.4505881575
 40
1.6
100
AcDbArc
 50
180.0
 51
267.7394980889
  0
ARC
  5
4AE
100
AcDbEntity
  8
0
100
AcDbCircle
 62
7
  6
CONTINUOUS
 10
257.0
 20
90.3525
 40
1.2
100
AcDbArc
 50
180.0
 51
270.0
  0
ARC
  5
4AF
100
AcDbEntity
  8
0
100
AcDbCircle
 62
7
  6
CONTINUOUS
 10
250.6
 20
82.1125
 40
1.2
100
AcDbArc
 50
0.0
 51
48.1896851042
  0
ARC
  5
4B0
100
AcDbEntity
  8
0
100
AcDbCircle
 62
7
  6
CONTINUOUS
 10
257.0
 20
83.9525
 40
1.2
100
AcDbArc
 50
90.0
 51
180.0
  0
ARC
  5
4B1
100
AcDbEntity
  8
0
100
AcDbCircle
 62
7
  6
CONTINUOUS
 10
257.0
 20
110.6725
 40
1.2
100
AcDbArc
 50
180.0
 51
270.0
  0
ARC
  5
4B2
100
AcDbEntity
  8
0
100
AcDbCircle
 62
7
  6
CONTINUOUS
 10
251.0
 20
112.5125
 40
1.2
100
AcDbArc
 50
289.4712206345
 51
360.0
  0
ARC
  5
4B3
100
AcDbEntity
  8
0
100
AcDbCircle
 62
7
  6
CONTINUOUS
 10
257.0
 20
104.2725
 40
1.2
100
AcDbArc
 50
90.0
 51
180.0
  0
SPLINE
  5
4B4
100
AcDbEntity
  8
0
100
AcDbSpline
 62
7
  6
CONTINUOUS
 70
0
 71
3
 72
23
 73
19
 74
0
 42
0.0000001
 43
0.0000001
 44
0.0000000001
 40
0.0
 40
0.0
 40
0.0
 40
0.0
 40
0.0492504949
 40
0.1022024529
 40
0.1585773348
 40
0.2180282726
 40
0.2801560222
 40
0.344518509
 40
0.4106405073
 40
0.4780217634
 40
0.5461447017
 40
0.6144817394
 40
0.6825024205
 40
0.7496805609
 40
0.8155012473
 40
0.8794687559
 40
0.9411127734
 40
1.0
 40
1.0
 40
1.0
 40
1.0
 10
263.984828151
 20
206.0277042465
 30
0.0
 10
263.9686282643
 20
206.0607161636
 30
0.0
 10
263.9377524681
 20
206.1305855929
 30
0.0
 10
263.8971200075
 20
206.2418686501
 30
0.0
 10
263.8607834479
 20
206.3625998123
 30
0.0
 10
263.829078391
 20
206.4916836315
 30
0.0
 10
263.8022941885
 20
206.6279549125
 30
0.0
 10
263.7806778309
 20
206.7701762169
 30
0.0
 10
263.7644284613
 20
206.9170541159
 30
0.0
 10
263.7536960989
 20
207.067250782
 30
0.0
 10
263.748579816
 20
207.219397086
 30
0.0
 10
263.7491268797
 20
207.3721055104
 30
0.0
 10
263.7553322042
 20
207.5239832345
 30
0.0
 10
263.7671385742
 20
207.6736453175
 30
0.0
 10
263.7844367602
 20
207.8197274411
 30
0.0
 10
263.8070677212
 20
207.9609003605
 30
0.0
 10
263.8348212475
 20
208.0958757848
 30
0.0
 10
263.8571301148
 20
208.1831073824
 30
0.0
 10
263.8691705985
 20
208.2253944197
 30
0.0
  0
SPLINE
  5
4B5
100
AcDbEntity
  8
0
100
AcDbSpline
 62
7
  6
CONTINUOUS
 70
0
 71
3
 72
17
 73
13
 74
0
 42
0.0000001
 43
0.0000001
 44
0.0000000001
 40
0.0
 40
0.0
 40
0.0
 40
0.0
 40
0.0479138478
 40
0.0962985542
 40
0.1455962198
 40
0.1962289475
 40
0.3028778285
 40
0.4188187382
 40
0.5457396123
 40
0.6846545899
 40
0.836060675
 40
1.0
 40
1.0
 40
1.0
 40
1.0
 10
290.3922060449
 20
204.3656223577
 30
0.0
 10
290.3856682148
 20
204.3656235853
 30
0.0
 10
290.3725176353
 20
204.3663368759
 30
0.0
 10
290.3528739897
 20
204.3695306368
 30
0.0
 10
290.3333090217
 20
204.3748440974
 30
0.0
 10
290.3069339654
 20
204.384900672
 30
0.0
 10
290.27415416
 20
204.4030960434
 30
0.0
 10
290.2365476813
 20
204.432684496
 30
0.0
 10
290.2001559625
 20
204.4701390032
 30
0.0
 10
290.1651826626
 20
204.5151854276
 30
0.0
 10
290.1318319921
 20
204.5675180266
 30
0.0
 10
290.1116078957
 20
204.6055477926
 30
0.0
 10
290.1017531924
 20
204.625629578
 30
0.0
  0
SPLINE
  5
4B6
100
AcDbEntity
  8
0
100
AcDbSpline
 62
7
  6
CONTINUOUS
 70
0
 71
3
 72
17
 73
13
 74
0
 42
0.0000001
 43
0.0000001
 44
0.0000000001
 40
0.0
 40
0.0
 40
0.0
 40
0.0
 40
0.0479138478
 40
0.0962985542
 40
0.1455962198
 40
0.1962289475
 40
0.3028778285
 40
0.4188187382
 40
0.5457396123
 40
0.6846545899
 40
0.836060675
 40
1.0
 40
1.0
 40
1.0
 40
1.0
 10
271.6762447339
 20
204.3656223577
 30
0.0
 10
271.6697069037
 20
204.3656235853
 30
0.0
 10
271.6565563242
 20
204.3663368759
 30
0.0
 10
271.6369126787
 20
204.3695306368
 30
0.0
 10
271.6173477107
 20
204.3748440974
 30
0.0
 10
271.5909726543
 20
204.384900672
 30
0.0
 10
271.5581928489
 20
204.4030960434
 30
0.0
 10
271.5205863702
 20
204.432684496
 30
0.0
 10
271.4841946514
 20
204.4701390032
 30
0.0
 10
271.4492213515
 20
204.5151854276
 30
0.0
 10
271.415870681
 20
204.5675180266
 30
0.0
 10
271.3956465846
 20
204.6055477926
 30
0.0
 10
271.3857918813
 20
204.625629578
 30
0.0
  0
SPLINE
  5
4B7
100
AcDbEntity
  8
0
100
AcDbSpline
 62
7
  6
CONTINUOUS
 70
0
 71
3
 72
22
 73
18
 74
0
 42
0.0000001
 43
0.0000001
 44
0.0000000001
 40
0.0
 40
0.0
 40
0.0
 40
0.0
 40
0.0434484341
 40
0.0875899789
 40
0.1330781677
 40
0.1804964602
 40
0.2303398179
 40
0.2830085622
 40
0.3388132095
 40
0.3979806739
 40
0.4606664923
 40
0.5269637545
 40
0.5969127671
 40
0.6705096164
 40
0.7477077309
 40
0.8284339512
 40
1.0
 40
1.0
 40
1.0
 40
1.0
 10
313.9452197808
 20
188.4476249358
 30
0.0
 10
313.956411446
 20
188.4476248899
 30
0.0
 10
313.9790035088
 20
188.4491966174
 30
0.0
 10
314.0126507648
 20
188.4562394763
 30
0.0
 10
314.0460602707
 20
188.4679308946
 30
0.0
 10
314.0791195747
 20
188.4842137909
 30
0.0
 10
314.1117387071
 20
188.5050202813
 30
0.0
 10
314.1438331188
 20
188.530274735
 30
0.0
 10
314.1753201091
 20
188.5598977812
 30
0.0
 10
314.2061199968
 20
188.5937996029
 30
0.0
 10
314.2361513572
 20
188.6318829147
 30
0.0
 10
314.2653335296
 20
188.6740392814
 30
0.0
 10
314.2935874268
 20
188.7201490255
 30
0.0
 10
314.3208324979
 20
188.770081335
 30
0.0
 10
314.3469949856
 20
188.8236943621
 30
0.0
 10
314.3810225084
 20
188.9014655618
 30
0.0
 10
314.4035986196
 20
188.9624825175
 30
0.0
 10
314.4176321273
 20
189.0043879816
 30
0.0
  0
SPLINE
  5
4B8
100
AcDbEntity
  8
0
100
AcDbSpline
 62
7
  6
CONTINUOUS
 70
0
 71
3
 72
17
 73
13
 74
0
 42
0.0000001
 43
0.0000001
 44
0.0000000001
 40
0.0
 40
0.0
 40
0.0
 40
0.0
 40
0.0479122646
 40
0.0962916562
 40
0.1455884274
 40
0.1962228023
 40
0.3028708352
 40
0.4188106198
 40
0.5457307383
 40
0.6846492519
 40
0.8360534147
 40
1.0
 40
1.0
 40
1.0
 40
1.0
 10
272.8290528061
 20
188.4476249358
 30
0.0
 10
272.8203354554
 20
188.4476249716
 30
0.0
 10
272.8028012814
 20
188.448573033
 30
0.0
 10
272.7766093878
 20
188.4528301725
 30
0.0
 10
272.75052077
 20
188.4599104383
 30
0.0
 10
272.7153507225
 20
188.4733171381
 30
0.0
 10
272.6716391825
 20
188.4975745331
 30
0.0
 10
272.621492431
 20
188.537025441
 30
0.0
 10
272.5729645992
 20
188.5869657755
 30
0.0
 10
272.5263298809
 20
188.6470309865
 30
0.0
 10
272.4818574278
 20
188.7168125554
 30
0.0
 10
272.4548900213
 20
188.7675229823
 30
0.0
 10
272.4417490336
 20
188.7943015152
 30
0.0
  0
SPLINE
  5
4B9
100
AcDbEntity
  8
0
100
AcDbSpline
 62
7
  6
CONTINUOUS
 70
0
 71
3
 72
14
 73
10
 74
0
 42
0.0000001
 43
0.0000001
 44
0.0000000001
 40
0.0
 40
0.0
 40
0.0
 40
0.0
 40
0.2557555759
 40
0.3844071417
 40
0.5123712959
 40
0.6387623652
 40
0.7627144773
 40
0.8833916813
 40
1.0
 40
1.0
 40
1.0
 40
1.0
 10
291.881307355
 20
202.8896075945
 30
0.0
 10
291.8755918685
 20
202.9613230531
 30
0.0
 10
291.8709456408
 20
203.0694764324
 30
0.0
 10
291.8723106999
 20
203.2136163706
 30
0.0
 10
291.8771356538
 20
203.3212712726
 30
0.0
 10
291.8857164018
 20
203.4273637506
 30
0.0
 10
291.8979831508
 20
203.5310324091
 30
0.0
 10
291.9138338852
 20
203.6314285431
 30
0.0
 10
291.9269570692
 20
203.6968980002
 30
0.0
 10
291.9341323002
 20
203.7289049736
 30
0.0
  0
SPLINE
  5
4BA
100
AcDbEntity
  8
0
100
AcDbSpline
 62
7
  6
CONTINUOUS
 70
0
 71
3
 72
15
 73
11
 74
0
 42
0.0000001
 43
0.0000001
 44
0.0000000001
 40
0.0
 40
0.0
 40
0.0
 40
0.0
 40
0.1039899351
 40
0.2151779803
 40
0.3330797174
 40
0.4571146937
 40
0.5866043338
 40
0.7207944874
 40
0.8588833193
 40
1.0
 40
1.0
 40
1.0
 40
1.0
 10
292.1944025403
 20
200.3612561153
 30
0.0
 10
292.1833617972
 20
200.3837547971
 30
0.0
 10
292.1622115381
 20
200.4311531539
 30
0.0
 10
292.1340197442
 20
200.5063553218
 30
0.0
 10
292.1084722424
 20
200.5875732894
 30
0.0
 10
292.0857633671
 20
200.674191474
 30
0.0
 10
292.0660667169
 20
200.7655601341
 30
0.0
 10
292.0495312642
 20
200.860990162
 30
0.0
 10
292.0362854791
 20
200.9597567856
 30
0.0
 10
292.0297712644
 20
201.0267465055
 30
0.0
 10
292.0270694028
 20
201.0606482986
 30
0.0
  0
SPLINE
  5
4BB
100
AcDbEntity
  8
0
100
AcDbSpline
 62
7
  6
CONTINUOUS
 70
0
 71
3
 72
14
 73
10
 74
0
 42
0.0000001
 43
0.0000001
 44
0.0000000001
 40
0.0
 40
0.0
 40
0.0
 40
0.0
 40
0.2557555759
 40
0.3844071417
 40
0.5123712959
 40
0.6387623652
 40
0.7627144773
 40
0.8833916813
 40
1.0
 40
1.0
 40
1.0
 40
1.0
 10
304.9974011214
 20
195.2313738653
 30
0.0
 10
304.9916856349
 20
195.3030893238
 30
0.0
 10
304.9870394072
 20
195.4112427031
 30
0.0
 10
304.9884044663
 20
195.5553826413
 30
0.0
 10
304.9932294202
 20
195.6630375433
 30
0.0
 10
305.0018101682
 20
195.7691300213
 30
0.0
 10
305.0140769172
 20
195.8727986798
 30
0.0
 10
305.0299276516
 20
195.9731948138
 30
0.0
 10
305.0430508356
 20
196.0386642709
 30
0.0
 10
305.0502260666
 20
196.0706712443
 30
0.0
  0
SPLINE
  5
4BC
100
AcDbEntity
  8
0
100
AcDbSpline
 62
7
  6
CONTINUOUS
 70
0
 71
3
 72
13
 73
9
 74
0
 42
0.0000001
 43
0.0000001
 44
0.0000000001
 40
0.0
 40
0.0
 40
0.0
 40
0.0
 40
0.263126578
 40
0.5160336015
 40
0.6393206503
 40
0.7608345565
 40
0.8809306058
 40
1.0
 40
1.0
 40
1.0
 40
1.0
 10
309.590334383
 20
241.5425532139
 30
0.0
 10
309.5786892968
 20
241.5048696662
 30
0.0
 10
309.5607541416
 20
241.4293229335
 30
0.0
 10
309.5526192736
 20
241.3334293387
 30
0.0
 10
309.5553205291
 20
241.2588008253
 30
0.0
 10
309.5617972681
 20
241.2044219995
 30
0.0
 10
309.5727189943
 20
241.1514084541
 30
0.0
 10
309.5829712314
 20
241.1169994968
 30
0.0
 10
309.5888135131
 20
241.1001346484
 30
0.0
  0
SPLINE
  5
4BD
100
AcDbEntity
  8
0
100
AcDbSpline
 62
7
  6
CONTINUOUS
 70
0
 71
3
 72
18
 73
14
 74
0
 42
0.0000001
 43
0.0000001
 44
0.0000000001
 40
0.0
 40
0.0
 40
0.0
 40
0.0
 40
0.0550020102
 40
0.1104809766
 40
0.1666124816
 40
0.2235640884
 40
0.2814787526
 40
0.34047886
 40
0.462027915
 40
0.5887950827
 40
0.7209039516
 40
0.8581395107
 40
1.0
 40
1.0
 40
1.0
 40
1.0
 10
310.6079525197
 20
238.1581976404
 30
0.0
 10
310.6200397666
 20
238.1233055221
 30
0.0
 10
310.6412509881
 20
238.0521142851
 30
0.0
 10
310.6638482525
 20
237.9424304587
 30
0.0
 10
310.6772484502
 20
237.8299251398
 30
0.0
 10
310.6814026081
 20
237.715073712
 30
0.0
 10
310.6762977908
 20
237.5983338385
 30
0.0
 10
310.6570041051
 20
237.4392704101
 30
0.0
 10
310.6091970065
 20
237.2377692416
 30
0.0
 10
310.5167485328
 20
236.9989348085
 30
0.0
 10
310.3902395863
 20
236.7642767339
 30
0.0
 10
310.2317927908
 20
236.5375399621
 30
0.0
 10
310.1083406564
 20
236.3960521326
 30
0.0
 10
310.0422247258
 20
236.327500128
 30
0.0
  0
SPLINE
  5
4BE
100
AcDbEntity
  8
0
100
AcDbSpline
 62
7
  6
CONTINUOUS
 70
0
 71
3
 72
11
 73
7
 74
0
 42
0.0000001
 43
0.0000001
 44
0.0000000001
 40
0.0
 40
0.0
 40
0.0
 40
0.0
 40
0.2636934789
 40
0.5187926899
 40
0.7643610447
 40
1.0
 40
1.0
 40
1.0
 40
1.0
 10
307.2048328159
 20
233.3855631199
 30
0.0
 10
307.1728769509
 20
233.3524298255
 30
0.0
 10
307.1132088136
 20
233.2840455884
 30
0.0
 10
307.0366244145
 20
233.1744495951
 30
0.0
 10
306.9754841416
 20
233.0610541704
 30
0.0
 10
306.9450636011
 20
232.9824458762
 30
0.0
 10
306.9329185854
 20
232.9431445544
 30
0.0
  0
SPLINE
  5
4BF
100
AcDbEntity
  8
0
100
AcDbSpline
 62
7
  6
CONTINUOUS
 70
0
 71
3
 72
13
 73
9
 74
0
 42
0.0000001
 43
0.0000001
 44
0.0000000001
 40
0.0
 40
0.0
 40
0.0
 40
0.0
 40
0.2631301733
 40
0.5160333753
 40
0.6393199732
 40
0.7608314169
 40
0.8809408632
 40
1.0
 40
1.0
 40
1.0
 40
1.0
 10
312.7784436209
 20
239.4632692508
 30
0.0
 10
312.7667983782
 20
239.4255851965
 30
0.0
 10
312.7488626793
 20
239.3500385437
 30
0.0
 10
312.7407296951
 20
239.254144981
 30
0.0
 10
312.7434295537
 20
239.1795174945
 30
0.0
 10
312.749906141
 20
239.1251370031
 30
0.0
 10
312.7608297602
 20
239.0721237868
 30
0.0
 10
312.7710809739
 20
239.0377140771
 30
0.0
 10
312.7769227511
 20
239.0208506853
 30
0.0
  0
SPLINE
  5
4C0
100
AcDbEntity
  8
0
100
AcDbSpline
 62
7
  6
CONTINUOUS
 70
0
 71
3
 72
21
 73
17
 74
0
 42
0.0000001
 43
0.0000001
 44
0.0000000001
 40
0.0
 40
0.0
 40
0.0
 40
0.0
 40
0.0549919617
 40
0.1104586109
 40
0.1665796122
 40
0.2235197674
 40
0.2814229849
 40
0.3404114136
 40
0.4005834345
 40
0.4620132668
 40
0.524750982
 40
0.5888231326
 40
0.7209058471
 40
0.78892243
 40
0.8581682225
 40
1.0
 40
1.0
 40
1.0
 40
1.0
 10
313.6728634799
 20
236.4345487481
 30
0.0
 10
313.6950237762
 20
236.3705788721
 30
0.0
 10
313.7339115604
 20
236.2400623609
 30
0.0
 10
313.7753386733
 20
236.0389748073
 30
0.0
 10
313.7999069127
 20
235.8327167179
 30
0.0
 10
313.807521462
 20
235.6221533615
 30
0.0
 10
313.7981646649
 20
235.408137075
 30
0.0
 10
313.7718871482
 20
235.1915383364
 30
0.0
 10
313.7288068357
 20
234.9732314301
 30
0.0
 10
313.6691101334
 20
234.754098902
 30
0.0
 10
313.5930421308
 20
234.5350109467
 30
0.0
 10
313.4689908234
 20
234.241231953
 30
0.0
 10
313.3142178349
 20
233.9541363377
 30
0.0
 10
313.132342115
 20
233.6767280431
 30
0.0
 10
312.9281581421
 20
233.4002178697
 30
0.0
 10
312.7569078891
 20
233.2039481236
 30
0.0
 10
312.6356958577
 20
233.0782699753
 30
0.0
  0
SPLINE
  5
4C1
100
AcDbEntity
  8
0
100
AcDbSpline
 62
7
  6
CONTINUOUS
 70
0
 71
3
 72
17
 73
13
 74
0
 42
0.0000001
 43
0.0000001
 44
0.0000000001
 40
0.0
 40
0.0
 40
0.0
 40
0.0
 40
0.163939325
 40
0.3153454101
 40
0.4542603877
 40
0.5811812618
 40
0.6971221715
 40
0.8037710525
 40
0.8544037802
 40
0.9037014458
 40
0.9520861522
 40
1.0
 40
1.0
 40
1.0
 40
1.0
 10
303.2178469587
 20
196.9673958487
 30
0.0
 10
303.227701662
 20
196.9473140633
 30
0.0
 10
303.2479257585
 20
196.9092842973
 30
0.0
 10
303.281276429
 20
196.8569516983
 30
0.0
 10
303.3162497288
 20
196.811905274
 30
0.0
 10
303.3526414477
 20
196.7744507667
 30
0.0
 10
303.3902479264
 20
196.7448623141
 30
0.0
 10
303.4230277318
 20
196.7266669427
 30
0.0
 10
303.4494027881
 20
196.7166103681
 30
0.0
 10
303.4689677561
 20
196.7112969075
 30
0.0
 10
303.4886114017
 20
196.7081031466
 30
0.0
 10
303.5017619812
 20
196.707389856
 30
0.0
 10
303.5082998113
 20
196.7073886284
 30
0.0
  0
SPLINE
  5
4C2
100
AcDbEntity
  8
0
100
AcDbSpline
 62
7
  6
CONTINUOUS
 70
0
 71
3
 72
15
 73
11
 74
0
 42
0.0000001
 43
0.0000001
 44
0.0000000001
 40
0.0
 40
0.0
 40
0.0
 40
0.0
 40
0.1411166807
 40
0.2792055126
 40
0.4133956662
 40
0.5428853063
 40
0.6669202826
 40
0.7848220197
 40
0.8960100649
 40
1.0
 40
1.0
 40
1.0
 40
1.0
 10
305.1431631692
 20
193.4024145693
 30
0.0
 10
305.1458650308
 20
193.3685127762
 30
0.0
 10
305.1523792455
 20
193.3015230563
 30
0.0
 10
305.1656250306
 20
193.2027564327
 30
0.0
 10
305.1821604833
 20
193.1073264048
 30
0.0
 10
305.2018571335
 20
193.0159577448
 30
0.0
 10
305.2245660088
 20
192.9293395601
 30
0.0
 10
305.2501135105
 20
192.8481215925
 30
0.0
 10
305.2783053045
 20
192.7729194246
 30
0.0
 10
305.2994555636
 20
192.7255210678
 30
0.0
 10
305.3104963067
 20
192.703022386
 30
0.0
  0
SPLINE
  5
4C3
100
AcDbEntity
  8
0
100
AcDbSpline
 62
7
  6
CONTINUOUS
 70
0
 71
3
 72
14
 73
10
 74
0
 42
0.0000001
 43
0.0000001
 44
0.0000000001
 40
0.0
 40
0.0
 40
0.0
 40
0.0
 40
0.2557555759
 40
0.3844071417
 40
0.5123712959
 40
0.6387623652
 40
0.7627144773
 40
0.8833916813
 40
1.0
 40
1.0
 40
1.0
 40
1.0
 10
273.1653460439
 20
202.8896075945
 30
0.0
 10
273.1596305575
 20
202.9613230531
 30
0.0
 10
273.1549843297
 20
203.0694764324
 30
0.0
 10
273.1563493889
 20
203.2136163706
 30
0.0
 10
273.1611743427
 20
203.3212712726
 30
0.0
 10
273.1697550907
 20
203.4273637506
 30
0.0
 10
273.1820218397
 20
203.5310324091
 30
0.0
 10
273.1978725741
 20
203.6314285431
 30
0.0
 10
273.2109957581
 20
203.6968980002
 30
0.0
 10
273.2181709892
 20
203.7289049736
 30
0.0
  0
SPLINE
  5
4C4
100
AcDbEntity
  8
0
100
AcDbSpline
 62
7
  6
CONTINUOUS
 70
0
 71
3
 72
15
 73
11
 74
0
 42
0.0000001
 43
0.0000001
 44
0.0000000001
 40
0.0
 40
0.0
 40
0.0
 40
0.0
 40
0.1039899351
 40
0.2151779803
 40
0.3330797174
 40
0.4571146937
 40
0.5866043338
 40
0.7207944874
 40
0.8588833193
 40
1.0
 40
1.0
 40
1.0
 40
1.0
 10
273.4784412292
 20
200.3612561153
 30
0.0
 10
273.4674004861
 20
200.3837547971
 30
0.0
 10
273.446250227
 20
200.4311531539
 30
0.0
 10
273.4180584331
 20
200.5063553218
 30
0.0
 10
273.3925109313
 20
200.5875732894
 30
0.0
 10
273.369802056
 20
200.674191474
 30
0.0
 10
273.3501054059
 20
200.7655601341
 30
0.0
 10
273.3335699531
 20
200.860990162
 30
0.0
 10
273.320324168
 20
200.9597567856
 30
0.0
 10
273.3138099533
 20
201.0267465055
 30
0.0
 10
273.3111080918
 20
201.0606482986
 30
0.0
  0
SPLINE
  5
4C5
100
AcDbEntity
  8
0
100
AcDbSpline
 62
7
  6
CONTINUOUS
 70
0
 71
3
 72
22
 73
18
 74
0
 42
0.0000001
 43
0.0000001
 44
0.0000000001
 40
0.0
 40
0.0
 40
0.0
 40
0.0
 40
0.1715653975
 40
0.2522909423
 40
0.3294895929
 40
0.4030862369
 40
0.4730352334
 40
0.5393323925
 40
0.6020185041
 40
0.6611860743
 40
0.7169907189
 40
0.7696599439
 40
0.8195032866
 40
0.8669218098
 40
0.9124101705
 40
0.9565516385
 40
1.0
 40
1.0
 40
1.0
 40
1.0
 10
317.401357813
 20
197.914092674
 30
0.0
 10
317.4188994726
 20
197.9664738321
 30
0.0
 10
317.4471191947
 20
198.0427439408
 30
0.0
 10
317.4896529792
 20
198.1399568811
 30
0.0
 10
317.522355489
 20
198.2069725908
 30
0.0
 10
317.5564116119
 20
198.2693874693
 30
0.0
 10
317.5917280508
 20
198.3270243891
 30
0.0
 10
317.6282056393
 20
198.3797192975
 30
0.0
 10
317.6657438992
 20
198.4273235794
 30
0.0
 10
317.7042431688
 20
198.4697009103
 30
0.0
 10
317.7436017219
 20
198.5067294143
 30
0.0
 10
317.7837184379
 20
198.5382986482
 30
0.0
 10
317.8244923062
 20
198.5643064787
 30
0.0
 10
317.8658155586
 20
198.584661051
 30
0.0
 10
317.9075767542
 20
198.5992766534
 30
0.0
 10
317.9496354222
 20
198.6080799021
 30
0.0
 10
317.9778750447
 20
198.6100466264
 30
0.0
 10
317.9918644764
 20
198.6100467711
 30
0.0
  0
SPLINE
  5
4C6
100
AcDbEntity
  8
0
100
AcDbSpline
 62
7
  6
CONTINUOUS
 70
0
 71
3
 72
23
 73
19
 74
0
 42
0.0000001
 43
0.0000001
 44
0.0000000001
 40
0.0
 40
0.0
 40
0.0
 40
0.0
 40
0.0588873667
 40
0.1205312159
 40
0.1844987682
 40
0.2503194481
 40
0.3174975798
 40
0.3855182614
 40
0.4538553033
 40
0.5219782507
 40
0.5893595108
 40
0.6554815028
 40
0.7198439792
 40
0.7819717139
 40
0.8414226435
 40
0.8977975631
 40
0.9507493871
 40
1.0
 40
1.0
 40
1.0
 40
1.0
 10
266.570122804
 20
217.7113312103
 30
0.0
 10
266.5851734444
 20
217.7641901329
 30
0.0
 10
266.6130595406
 20
217.8732296012
 30
0.0
 10
266.6477513521
 20
218.0419489163
 30
0.0
 10
266.6760400629
 20
218.2184149393
 30
0.0
 10
266.6976628004
 20
218.4010176207
 30
0.0
 10
266.7124207991
 20
218.5880952077
 30
0.0
 10
266.7201775118
 20
218.7779423572
 30
0.0
 10
266.7208613944
 20
218.9688279009
 30
0.0
 10
266.7144660721
 20
219.1590107993
 30
0.0
 10
266.7010505875
 20
219.3467566371
 30
0.0
 10
266.6807388227
 20
219.5303539936
 30
0.0
 10
266.6537183201
 20
219.7081305863
 30
0.0
 10
266.6202380322
 20
219.8784696484
 30
0.0
 10
266.5806067063
 20
220.0398244365
 30
0.0
 10
266.5351860013
 20
220.1907382841
 30
0.0
 10
266.4843955291
 20
220.3298421649
 30
0.0
 10
266.4458007702
 20
220.4171789315
 30
0.0
 10
266.4255508633
 20
220.4584439268
 30
0.0
  0
SPLINE
  5
4C7
100
AcDbEntity
  8
0
100
AcDbSpline
 62
7
  6
CONTINUOUS
 70
0
 71
3
 72
15
 73
11
 74
0
 42
0.0000001
 43
0.0000001
 44
0.0000000001
 40
0.0
 40
0.0
 40
0.0
 40
0.0
 40
0.1411166807
 40
0.2792055126
 40
0.4133956662
 40
0.5428853063
 40
0.6669202826
 40
0.7848220197
 40
0.8960100649
 40
1.0
 40
1.0
 40
1.0
 40
1.0
 10
286.4272018581
 20
193.4024145693
 30
0.0
 10
286.4299037197
 20
193.3685127762
 30
0.0
 10
286.4364179344
 20
193.3015230563
 30
0.0
 10
286.4496637195
 20
193.2027564327
 30
0.0
 10
286.4661991723
 20
193.1073264048
 30
0.0
 10
286.4858958224
 20
193.0159577448
 30
0.0
 10
286.5086046977
 20
192.9293395601
 30
0.0
 10
286.5341521995
 20
192.8481215925
 30
0.0
 10
286.5623439934
 20
192.7729194246
 30
0.0
 10
286.5834942525
 20
192.7255210678
 30
0.0
 10
286.5945349956
 20
192.703022386
 30
0.0
  0
SPLINE
  5
4C8
100
AcDbEntity
  8
0
100
AcDbSpline
 62
7
  6
CONTINUOUS
 70
0
 71
3
 72
17
 73
13
 74
0
 42
0.0000001
 43
0.0000001
 44
0.0000000001
 40
0.0
 40
0.0
 40
0.0
 40
0.0
 40
0.163939325
 40
0.3153454101
 40
0.4542603877
 40
0.5811812618
 40
0.6971221715
 40
0.8037710525
 40
0.8544037802
 40
0.9037014458
 40
0.9520861522
 40
1.0
 40
1.0
 40
1.0
 40
1.0
 10
284.5018856477
 20
196.9673958487
 30
0.0
 10
284.511740351
 20
196.9473140633
 30
0.0
 10
284.5319644474
 20
196.9092842973
 30
0.0
 10
284.5653151179
 20
196.8569516983
 30
0.0
 10
284.6002884178
 20
196.811905274
 30
0.0
 10
284.6366801366
 20
196.7744507667
 30
0.0
 10
284.6742866153
 20
196.7448623141
 30
0.0
 10
284.7070664207
 20
196.7266669427
 30
0.0
 10
284.7334414771
 20
196.7166103681
 30
0.0
 10
284.7530064451
 20
196.7112969075
 30
0.0
 10
284.7726500906
 20
196.7081031466
 30
0.0
 10
284.7858006701
 20
196.707389856
 30
0.0
 10
284.7923385002
 20
196.7073886284
 30
0.0
  0
SPLINE
  5
4C9
100
AcDbEntity
  8
0
100
AcDbSpline
 62
7
  6
CONTINUOUS
 70
0
 71
3
 72
19
 73
15
 74
0
 42
0.0000001
 43
0.0000001
 44
0.0000000001
 40
0.0
 40
0.0
 40
0.0
 40
0.0
 40
0.0548953634
 40
0.1102412743
 40
0.1662266995
 40
0.2230322815
 40
0.2808124541
 40
0.3396994577
 40
0.3997994209
 40
0.4611921028
 40
0.58797205
 40
0.7202465138
 40
0.857773132
 40
1.0
 40
1.0
 40
1.0
 40
1.0
 10
290.1820304319
 20
233.8164170358
 30
0.0
 10
290.1688609788
 20
233.8520251666
 30
0.0
 10
290.1456422748
 20
233.9247736883
 30
0.0
 10
290.1205597082
 20
234.0371117239
 30
0.0
 10
290.1052159117
 20
234.1525259009
 30
0.0
 10
290.0996715336
 20
234.2704999191
 30
0.0
 10
290.1039439252
 20
234.3905288754
 30
0.0
 10
290.1180058361
 20
234.5120929295
 30
0.0
 10
290.141791402
 20
234.6346766585
 30
0.0
 10
290.1867915447
 20
234.8005131762
 30
0.0
 10
290.2674795462
 20
235.0077178306
 30
0.0
 10
290.3992874909
 20
235.249013134
 30
0.0
 10
290.5647984169
 20
235.4817107236
 30
0.0
 10
290.6938605378
 20
235.6264257381
 30
0.0
 10
290.7629890897
 20
235.6964016876
 30
0.0
  0
SPLINE
  5
4CA
100
AcDbEntity
  8
0
100
AcDbSpline
 62
7
  6
CONTINUOUS
 70
0
 71
3
 72
11
 73
7
 74
0
 42
0.0000001
 43
0.0000001
 44
0.0000000001
 40
0.0
 40
0.0
 40
0.0
 40
0.0
 40
0.2639681158
 40
0.5192077443
 40
0.7646994498
 40
1.0
 40
1.0
 40
1.0
 40
1.0
 10
293.655011743
 20
238.6238755803
 30
0.0
 10
293.6895763202
 20
238.65886386
 30
0.0
 10
293.7541074816
 20
238.7312204415
 30
0.0
 10
293.8368621415
 20
238.8475722264
 30
0.0
 10
293.9027642563
 20
238.9682096008
 30
0.0
 10
293.9353860515
 20
239.051985226
 30
0.0
 10
293.9483299523
 20
239.0938717432
 30
0.0
  0
SPLINE
  5
4CB
100
AcDbEntity
  8
0
100
AcDbSpline
 62
7
  6
CONTINUOUS
 70
0
 71
3
 72
11
 73
7
 74
0
 42
0.0000001
 43
0.0000001
 44
0.0000000001
 40
0.0
 40
0.0
 40
0.0
 40
0.0
 40
0.2449886815
 40
0.4925716115
 40
0.7438810913
 40
1.0
 40
1.0
 40
1.0
 40
1.0
 10
288.0727274482
 20
232.9555990246
 30
0.0
 10
288.0805370099
 20
232.9344831976
 30
0.0
 10
288.0939646414
 20
232.8911491263
 30
0.0
 10
288.1072302599
 20
232.8239668507
 30
0.0
 10
288.1136224261
 20
232.7547631053
 30
0.0
 10
288.1132845853
 20
232.7080470436
 30
0.0
 10
288.1120064646
 20
232.6845452226
 30
0.0
  0
SPLINE
  5
4CC
100
AcDbEntity
  8
0
100
AcDbSpline
 62
7
  6
CONTINUOUS
 70
0
 71
3
 72
21
 73
17
 74
0
 42
0.0000001
 43
0.0000001
 44
0.0000000001
 40
0.0
 40
0.0
 40
0.0
 40
0.0
 40
0.1422080454
 40
0.2116185432
 40
0.2797738558
 40
0.4120314218
 40
0.4761360576
 40
0.5388668972
 40
0.6002517218
 40
0.6603439712
 40
0.7192234397
 40
0.7769962647
 40
0.8337944044
 40
0.8897733194
 40
0.945110759
 40
1.0
 40
1.0
 40
1.0
 40
1.0
 10
288.1895640012
 20
238.9661681483
 30
0.0
 10
288.0628288802
 20
238.837879472
 30
0.0
 10
287.8837690725
 20
238.6370998253
 30
0.0
 10
287.6703886373
 20
238.3534723132
 30
0.0
 10
287.4805430777
 20
238.0686442048
 30
0.0
 10
287.3192664522
 20
237.7733633154
 30
0.0
 10
287.1905102515
 20
237.4708785324
 30
0.0
 10
287.1119272253
 20
237.2452984452
 30
0.0
 10
287.0506998421
 20
237.0196678563
 30
0.0
 10
287.007095291
 20
236.7949365662
 30
0.0
 10
286.9813146064
 20
236.5720676599
 30
0.0
 10
286.9734819324
 20
236.3520151501
 30
0.0
 10
286.9836456199
 20
236.1357286003
 30
0.0
 10
287.0117771247
 20
235.9241373062
 30
0.0
 10
287.0577605098
 20
235.7181837473
 30
0.0
 10
287.1003287347
 20
235.5848122649
 30
0.0
 10
287.1244731285
 20
235.5195296201
 30
0.0
  0
SPLINE
  5
4CD
100
AcDbEntity
  8
0
100
AcDbSpline
 62
7
  6
CONTINUOUS
 70
0
 71
3
 72
11
 73
7
 74
0
 42
0.0000001
 43
0.0000001
 44
0.0000000001
 40
0.0
 40
0.0
 40
0.0
 40
0.0
 40
0.2353005502
 40
0.4807922557
 40
0.7360318842
 40
1.0
 40
1.0
 40
1.0
 40
1.0
 10
291.0157640176
 20
242.0000949067
 30
0.0
 10
291.0028201168
 20
241.9582083895
 30
0.0
 10
290.9701983216
 20
241.8744327643
 30
0.0
 10
290.9042962067
 20
241.7537953899
 30
0.0
 10
290.8215415468
 20
241.6374436051
 30
0.0
 10
290.7570103855
 20
241.5650870235
 30
0.0
 10
290.7224458083
 20
241.5300987438
 30
0.0
  0
SPLINE
  5
4CE
100
AcDbEntity
  8
0
100
AcDbSpline
 62
7
  6
CONTINUOUS
 70
0
 71
3
 72
14
 73
10
 74
0
 42
0.0000001
 43
0.0000001
 44
0.0000000001
 40
0.0
 40
0.0
 40
0.0
 40
0.0
 40
0.2557538894
 40
0.3844039284
 40
0.5123676819
 40
0.6387584979
 40
0.7627110981
 40
0.8833895326
 40
1.0
 40
1.0
 40
1.0
 40
1.0
 10
286.2814398103
 20
195.2313738653
 30
0.0
 10
286.2757248399
 20
195.3030828483
 30
0.0
 10
286.2710786333
 20
195.4112262349
 30
0.0
 10
286.2724425508
 20
195.5553530972
 30
0.0
 10
286.2772658019
 20
195.6629984275
 30
0.0
 10
286.2858443014
 20
195.7690820972
 30
0.0
 10
286.2981080751
 20
195.8727427201
 30
0.0
 10
286.3139553699
 20
195.9731318743
 30
0.0
 10
286.3270755329
 20
196.0385972037
 30
0.0
 10
286.334249375
 20
196.0706022941
 30
0.0
  0
SPLINE
  5
4CF
100
AcDbEntity
  8
0
100
AcDbSpline
 62
7
  6
CONTINUOUS
 70
0
 71
3
 72
11
 73
7
 74
0
 42
0.0000001
 43
0.0000001
 44
0.0000000001
 40
0.0
 40
0.0
 40
0.0
 40
0.0
 40
0.2356389553
 40
0.4812073101
 40
0.7363065211
 40
1.0
 40
1.0
 40
1.0
 40
1.0
 10
308.6492202944
 20
232.5359889951
 30
0.0
 10
308.6613653101
 20
232.5752903168
 30
0.0
 10
308.6917858506
 20
232.653898611
 30
0.0
 10
308.7529261235
 20
232.7672940357
 30
0.0
 10
308.8295105226
 20
232.876890029
 30
0.0
 10
308.88917866
 20
232.9452742661
 30
0.0
 10
308.9211345249
 20
232.9784075606
 30
0.0
  0
SPLINE
  5
4D0
100
AcDbEntity
  8
0
100
AcDbSpline
 62
7
  6
CONTINUOUS
 70
0
 71
3
 72
21
 73
17
 74
0
 42
0.0000001
 43
0.0000001
 44
0.0000000001
 40
0.0
 40
0.0
 40
0.0
 40
0.0
 40
0.1418316247
 40
0.211077629
 40
0.2790941351
 40
0.4111768754
 40
0.4752490274
 40
0.5379867464
 40
0.5994165816
 40
0.6595886
 40
0.7185770262
 40
0.7764802568
 40
0.8334203509
 40
0.8895415067
 40
0.9450078361
 40
1.0
 40
1.0
 40
1.0
 40
1.0
 10
311.4155292632
 20
235.5647094978
 30
0.0
 10
311.5367411682
 20
235.6903875149
 30
0.0
 10
311.7079913697
 20
235.8866573987
 30
0.0
 10
311.9121755932
 20
236.1631673766
 30
0.0
 10
312.0940513196
 20
236.4405759199
 30
0.0
 10
312.2488244018
 20
236.7276714198
 30
0.0
 10
312.3728757509
 20
237.0214504524
 30
0.0
 10
312.4489437609
 20
237.240538423
 30
0.0
 10
312.5086404705
 20
237.4596709639
 30
0.0
 10
312.5517207408
 20
237.6779778818
 30
0.0
 10
312.577998282
 20
237.894576639
 30
0.0
 10
312.5873549191
 20
238.1085928717
 30
0.0
 10
312.5797405362
 20
238.3191563789
 30
0.0
 10
312.5551719546
 20
238.5254141512
 30
0.0
 10
312.5137451575
 20
238.7265018161
 30
0.0
 10
312.474857264
 20
238.8570181573
 30
0.0
 10
312.4526968855
 20
238.9209882706
 30
0.0
  0
SPLINE
  5
4D1
100
AcDbEntity
  8
0
100
AcDbSpline
 62
7
  6
CONTINUOUS
 70
0
 71
3
 72
13
 73
9
 74
0
 42
0.0000001
 43
0.0000001
 44
0.0000000001
 40
0.0
 40
0.0
 40
0.0
 40
0.0
 40
0.1190693942
 40
0.2391654435
 40
0.3606793497
 40
0.4839663985
 40
0.736873422
 40
1.0
 40
1.0
 40
1.0
 40
1.0
 10
311.5567561566
 20
241.5072902078
 30
0.0
 10
311.5509138749
 20
241.5241550562
 30
0.0
 10
311.5406616379
 20
241.5585640134
 30
0.0
 10
311.5297399116
 20
241.6115775588
 30
0.0
 10
311.5232631726
 20
241.6659563847
 30
0.0
 10
311.5205619171
 20
241.7405848981
 30
0.0
 10
311.5286967852
 20
241.8364784929
 30
0.0
 10
311.5466319403
 20
241.9120252256
 30
0.0
 10
311.5582770265
 20
241.9497087733
 30
0.0
  0
SPLINE
  5
4D2
100
AcDbEntity
  8
0
100
AcDbSpline
 62
7
  6
CONTINUOUS
 70
0
 71
3
 72
17
 73
13
 74
0
 42
0.0000001
 43
0.0000001
 44
0.0000000001
 40
0.0
 40
0.0
 40
0.0
 40
0.0
 40
0.0479124288
 40
0.0962917192
 40
0.1455886046
 40
0.1962226212
 40
0.3028703054
 40
0.418809924
 40
0.5457295726
 40
0.6846490174
 40
0.8360518209
 40
1.0
 40
1.0
 40
1.0
 40
1.0
 10
317.9918644764
 20
198.6100467711
 30
0.0
 10
318.0027613435
 20
198.6100468838
 30
0.0
 10
318.024679301
 20
198.6088615817
 30
0.0
 10
318.0574200268
 20
198.6035423901
 30
0.0
 10
318.0900309935
 20
198.5946913076
 30
0.0
 10
318.1339948207
 20
198.5779350794
 30
0.0
 10
318.1886350344
 20
198.5476131427
 30
0.0
 10
318.2513196434
 20
198.4982998193
 30
0.0
 10
318.3119807952
 20
198.4358739807
 30
0.0
 10
318.3702748641
 20
198.3607916892
 30
0.0
 10
318.4258667168
 20
198.2735636431
 30
0.0
 10
318.4595763541
 20
198.2101746831
 30
0.0
 10
318.4760029617
 20
198.176700757
 30
0.0
  0
SPLINE
  5
4D3
100
AcDbEntity
  8
0
100
AcDbSpline
 62
7
  6
CONTINUOUS
 70
0
 71
3
 72
23
 73
19
 74
0
 42
0.0000001
 43
0.0000001
 44
0.0000000001
 40
0.0
 40
0.0
 40
0.0
 40
0.0
 40
0.0588872266
 40
0.1205312441
 40
0.1844987527
 40
0.2503194391
 40
0.3174975795
 40
0.3855182606
 40
0.4538552983
 40
0.5219782366
 40
0.5893594927
 40
0.655481491
 40
0.7198439778
 40
0.7819717274
 40
0.8414226652
 40
0.8977975471
 40
0.9507495051
 40
1.0
 40
1.0
 40
1.0
 40
1.0
 10
304.9853375732
 20
208.2253944197
 30
0.0
 10
304.9732970895
 20
208.1831073824
 30
0.0
 10
304.9509882223
 20
208.0958757848
 30
0.0
 10
304.9232346959
 20
207.9609003605
 30
0.0
 10
304.9006037349
 20
207.8197274411
 30
0.0
 10
304.8833055489
 20
207.6736453175
 30
0.0
 10
304.8714991789
 20
207.5239832345
 30
0.0
 10
304.8652938545
 20
207.3721055104
 30
0.0
 10
304.8647467908
 20
207.219397086
 30
0.0
 10
304.8698630736
 20
207.067250782
 30
0.0
 10
304.880595436
 20
206.9170541159
 30
0.0
 10
304.8968448056
 20
206.7701762169
 30
0.0
 10
304.9184611632
 20
206.6279549125
 30
0.0
 10
304.9452453657
 20
206.4916836315
 30
0.0
 10
304.9769504227
 20
206.3625998123
 30
0.0
 10
305.0132869822
 20
206.2418686501
 30
0.0
 10
305.0539194428
 20
206.1305855929
 30
0.0
 10
305.0847952391
 20
206.0607161636
 30
0.0
 10
305.1009951257
 20
206.0277042465
 30
0.0
  0
SPLINE
  5
4D4
100
AcDbEntity
  8
0
100
AcDbSpline
 62
7
  6
CONTINUOUS
 70
0
 71
3
 72
14
 73
10
 74
0
 42
0.0000001
 43
0.0000001
 44
0.0000000001
 40
0.0
 40
0.0
 40
0.0
 40
0.0
 40
0.2747985807
 40
0.4075733501
 40
0.5363644595
 40
0.6605431599
 40
0.7795379803
 40
0.8928322496
 40
1.0
 40
1.0
 40
1.0
 40
1.0
 10
306.9852853455
 20
193.4024145693
 30
0.0
 10
306.990139555
 20
193.3415060432
 30
0.0
 10
307.0001532696
 20
193.251348411
 30
0.0
 10
307.0194491874
 20
193.1336403284
 30
0.0
 10
307.0363886203
 20
193.0495374187
 30
0.0
 10
307.055852306
 20
192.9691312442
 30
0.0
 10
307.0777193867
 20
192.8929194645
 30
0.0
 10
307.1018515281
 20
192.8213741948
 30
0.0
 10
307.1198747489
 20
192.7757569029
 30
0.0
 10
307.1292818127
 20
192.7538635264
 30
0.0
  0
SPLINE
  5
4D5
100
AcDbEntity
  8
0
100
AcDbSpline
 62
7
  6
CONTINUOUS
 70
0
 71
3
 72
17
 73
13
 74
0
 42
0.0000001
 43
0.0000001
 44
0.0000000001
 40
0.0
 40
0.0
 40
0.0
 40
0.0
 40
0.1639465853
 40
0.3153507481
 40
0.4542692617
 40
0.5811893802
 40
0.6971291648
 40
0.8037771977
 40
0.8544115726
 40
0.9037083438
 40
0.9520877354
 40
1.0
 40
1.0
 40
1.0
 40
1.0
 10
313.5579160083
 20
188.7943015152
 30
0.0
 10
313.5710569961
 20
188.7675229823
 30
0.0
 10
313.5980244026
 20
188.7168125554
 30
0.0
 10
313.6424968556
 20
188.6470309865
 30
0.0
 10
313.6891315739
 20
188.5869657755
 30
0.0
 10
313.7376594057
 20
188.537025441
 30
0.0
 10
313.7878061572
 20
188.4975745331
 30
0.0
 10
313.8315176973
 20
188.4733171381
 30
0.0
 10
313.8666877447
 20
188.4599104383
 30
0.0
 10
313.8927763625
 20
188.4528301725
 30
0.0
 10
313.9189682561
 20
188.448573033
 30
0.0
 10
313.9365024301
 20
188.4476249716
 30
0.0
 10
313.9452197808
 20
188.4476249358
 30
0.0
  0
SPLINE
  5
4D6
100
AcDbEntity
  8
0
100
AcDbSpline
 62
7
  6
CONTINUOUS
 70
0
 71
3
 72
23
 73
19
 74
0
 42
0.0000001
 43
0.0000001
 44
0.0000000001
 40
0.0
 40
0.0
 40
0.0
 40
0.0
 40
0.0492506129
 40
0.1022024369
 40
0.1585773565
 40
0.2180282861
 40
0.2801560208
 40
0.3445184972
 40
0.4106404892
 40
0.4780217493
 40
0.5461446967
 40
0.6144817386
 40
0.6825024202
 40
0.7496805519
 40
0.8155012318
 40
0.8794687841
 40
0.9411126333
 40
1.0
 40
1.0
 40
1.0
 40
1.0
 10
307.5417178381
 20
220.4584439268
 30
0.0
 10
307.561967745
 20
220.4171789315
 30
0.0
 10
307.6005625038
 20
220.3298421649
 30
0.0
 10
307.651352976
 20
220.1907382841
 30
0.0
 10
307.696773681
 20
220.0398244365
 30
0.0
 10
307.736405007
 20
219.8784696484
 30
0.0
 10
307.7698852948
 20
219.7081305863
 30
0.0
 10
307.7969057974
 20
219.5303539936
 30
0.0
 10
307.8172175622
 20
219.3467566371
 30
0.0
 10
307.8306330468
 20
219.1590107993
 30
0.0
 10
307.8370283691
 20
218.9688279009
 30
0.0
 10
307.8363444866
 20
218.7779423572
 30
0.0
 10
307.8285877738
 20
218.5880952077
 30
0.0
 10
307.8138297751
 20
218.4010176207
 30
0.0
 10
307.7922070376
 20
218.2184149393
 30
0.0
 10
307.7639183268
 20
218.0419489163
 30
0.0
 10
307.7292265153
 20
217.8732296012
 30
0.0
 10
307.7013404191
 20
217.7641901329
 30
0.0
 10
307.6862897787
 20
217.7113312103
 30
0.0
  0
SPLINE
  5
4D7
100
AcDbEntity
  8
0
100
AcDbSpline
 62
7
  6
CONTINUOUS
 70
0
 71
3
 72
14
 73
10
 74
0
 42
0.0000001
 43
0.0000001
 44
0.0000000001
 40
0.0
 40
0.0
 40
0.0
 40
0.0
 40
0.2747985807
 40
0.4075733501
 40
0.5363644595
 40
0.6605431599
 40
0.7795379803
 40
0.8928322496
 40
1.0
 40
1.0
 40
1.0
 40
1.0
 10
288.2693240344
 20
193.4024145693
 30
0.0
 10
288.2741782439
 20
193.3415060432
 30
0.0
 10
288.2841919585
 20
193.251348411
 30
0.0
 10
288.3034878763
 20
193.1336403284
 30
0.0
 10
288.3204273092
 20
193.0495374187
 30
0.0
 10
288.339890995
 20
192.9691312442
 30
0.0
 10
288.3617580756
 20
192.8929194645
 30
0.0
 10
288.3858902171
 20
192.8213741948
 30
0.0
 10
288.4039134378
 20
192.7757569029
 30
0.0
 10
288.4133205016
 20
192.7538635264
 30
0.0
  0
SPLINE
  5
4D8
100
AcDbEntity
  8
0
100
AcDbSpline
 62
7
  6
CONTINUOUS
 70
0
 71
3
 72
15
 73
11
 74
0
 42
0.0000001
 43
0.0000001
 44
0.0000000001
 40
0.0
 40
0.0
 40
0.0
 40
0.0
 40
0.1039899351
 40
0.2151779803
 40
0.3330797174
 40
0.4571146937
 40
0.5866043338
 40
0.7207944874
 40
0.8588833193
 40
1.0
 40
1.0
 40
1.0
 40
1.0
 10
294.0365247166
 20
200.3612561153
 30
0.0
 10
294.0254839735
 20
200.3837547971
 30
0.0
 10
294.0043337144
 20
200.4311531539
 30
0.0
 10
293.9761419204
 20
200.5063553218
 30
0.0
 10
293.9505944187
 20
200.5875732894
 30
0.0
 10
293.9278855434
 20
200.674191474
 30
0.0
 10
293.9081888932
 20
200.7655601341
 30
0.0
 10
293.8916534405
 20
200.860990162
 30
0.0
 10
293.8784076554
 20
200.9597567856
 30
0.0
 10
293.8718934407
 20
201.0267465055
 30
0.0
 10
293.8691915791
 20
201.0606482986
 30
0.0
  0
SPLINE
  5
4D9
100
AcDbEntity
  8
0
100
AcDbSpline
 62
7
  6
CONTINUOUS
 70
0
 71
3
 72
15
 73
11
 74
0
 42
0.0000001
 43
0.0000001
 44
0.0000000001
 40
0.0
 40
0.0
 40
0.0
 40
0.0
 40
0.1039899351
 40
0.2151779803
 40
0.3330797174
 40
0.4571146937
 40
0.5866043338
 40
0.7207944874
 40
0.8588833193
 40
1.0
 40
1.0
 40
1.0
 40
1.0
 10
275.3205634055
 20
200.3612561153
 30
0.0
 10
275.3095226624
 20
200.3837547971
 30
0.0
 10
275.2883724033
 20
200.4311531539
 30
0.0
 10
275.2601806094
 20
200.5063553218
 30
0.0
 10
275.2346331076
 20
200.5875732894
 30
0.0
 10
275.2119242323
 20
200.674191474
 30
0.0
 10
275.1922275822
 20
200.7655601341
 30
0.0
 10
275.1756921294
 20
200.860990162
 30
0.0
 10
275.1624463443
 20
200.9597567856
 30
0.0
 10
275.1559321296
 20
201.0267465055
 30
0.0
 10
275.153230268
 20
201.0606482986
 30
0.0
  0
SPLINE
  5
4DA
100
AcDbEntity
  8
0
100
AcDbSpline
 62
7
  6
CONTINUOUS
 70
0
 71
3
 72
11
 73
7
 74
0
 42
0.0000001
 43
0.0000001
 44
0.0000000001
 40
0.0
 40
0.0
 40
0.0
 40
0.0
 40
0.2639681158
 40
0.5192077443
 40
0.7646994498
 40
1.0
 40
1.0
 40
1.0
 40
1.0
 10
292.4348451486
 20
241.1103151028
 30
0.0
 10
292.4694097258
 20
241.1453033825
 30
0.0
 10
292.5339408871
 20
241.217659964
 30
0.0
 10
292.616695547
 20
241.3340117489
 30
0.0
 10
292.6825976618
 20
241.4546491233
 30
0.0
 10
292.7152194571
 20
241.5384247485
 30
0.0
 10
292.7281633579
 20
241.5803112657
 30
0.0
  0
SPLINE
  5
4DB
100
AcDbEntity
  8
0
100
AcDbSpline
 62
7
  6
CONTINUOUS
 70
0
 71
3
 72
19
 73
15
 74
0
 42
0.0000001
 43
0.0000001
 44
0.0000000001
 40
0.0
 40
0.0
 40
0.0
 40
0.0
 40
0.0548953634
 40
0.1102412743
 40
0.1662266995
 40
0.2230322815
 40
0.2808124541
 40
0.3396994577
 40
0.3997994209
 40
0.4611921028
 40
0.58797205
 40
0.7202465138
 40
0.857773132
 40
1.0
 40
1.0
 40
1.0
 40
1.0
 10
288.9618638375
 20
236.3028565583
 30
0.0
 10
288.9486943843
 20
236.3384646891
 30
0.0
 10
288.9254756804
 20
236.4112132108
 30
0.0
 10
288.9003931138
 20
236.5235512464
 30
0.0
 10
288.8850493173
 20
236.6389654234
 30
0.0
 10
288.8795049392
 20
236.7569394416
 30
0.0
 10
288.8837773308
 20
236.8769683979
 30
0.0
 10
288.8978392417
 20
236.998532452
 30
0.0
 10
288.9216248076
 20
237.121116181
 30
0.0
 10
288.9666249503
 20
237.2869526986
 30
0.0
 10
289.0473129518
 20
237.4941573531
 30
0.0
 10
289.1791208965
 20
237.7354526565
 30
0.0
 10
289.3446318225
 20
237.9681502461
 30
0.0
 10
289.4736939434
 20
238.1128652606
 30
0.0
 10
289.5428224953
 20
238.1828412101
 30
0.0
  0
SPLINE
  5
4DC
100
AcDbEntity
  8
0
100
AcDbSpline
 62
7
  6
CONTINUOUS
 70
0
 71
3
 72
13
 73
9
 74
0
 42
0.0000001
 43
0.0000001
 44
0.0000000001
 40
0.0
 40
0.0
 40
0.0
 40
0.0
 40
0.2633577495
 40
0.5162178588
 40
0.6394345173
 40
0.7608723527
 40
0.8809342706
 40
1.0
 40
1.0
 40
1.0
 40
1.0
 10
290.0474113409
 20
232.9053865027
 30
0.0
 10
290.0598070768
 20
232.9454991561
 30
0.0
 10
290.0787392066
 20
233.0259292755
 30
0.0
 10
290.0867081126
 20
233.1280178601
 30
0.0
 10
290.0829798899
 20
233.2073261396
 30
0.0
 10
290.0753082136
 20
233.2650366581
 30
0.0
 10
290.0627650563
 20
233.3212048826
 30
0.0
 10
290.0511567179
 20
233.3575798689
 30
0.0
 10
290.0445724605
 20
233.3753826656
 30
0.0
  0
ENDSEC
  0
SECTION
  2
OBJECTS
  0
DICTIONARY
  5
4DD
100
AcDbDictionary
  3
ACAD_GROUP
350
4DE
  3
ACAD_MLINESTYLE
350
4DF
  0
DICTIONARY
  5
4DE
102
{ACAD_REACTORS
330
4DD
102
}
100
AcDbDictionary
  0
DICTIONARY
  5
4DF
102
{ACAD_REACTORS
330
4DD
102
}
100
AcDbDictionary
  3
STANDARD
350
4E0
  0
MLINESTYLE
  5
4E0
102
{ACAD_REACTORS
330
4DF
102
}
100
AcDbMlineStyle
  2
STANDARD
 70
0
  3

 62
256
 51
90.0
 52
90.0
 71
2
 49
0.5
 62
256
  6
BYLAYER
 49
-0.5
 62
256
  6
BYLAYER
  0
ENDSEC
  0
EOF
