<?xml version="1.0" standalone="no"?>
<!DOCTYPE svg PUBLIC "-//W3C//DTD SVG 1.1//EN"
"http://www.w3.org/Graphics/SVG/1.1/DTD/svg11.dtd">
<svg width="170.646" height="91.2756" viewBox="0 0 3555.12 1901.57" version="1.1"
xmlns="http://www.w3.org/2000/svg"
xmlns:xlink="http://www.w3.org/1999/xlink">
<g fill-rule="evenodd"><path d="M 2625.98,1372.05 L 2625.98,1394.09 L 2574.8,1394.09 L 2574.8,1310.63 L 2625.98,1310.63 L 2625.98,1332.68 L 3024.52,1332.68 L 3088.99,1268.21 L 3090.05,1258.13 L 3094.37,1244.82 L 3101.37,1232.71 L 3110.73,1222.31 L 3122.05,1214.08 L 3134.83,1208.39 L 3148.52,1205.48 L 3162.51,1205.48 L 3176.19,1208.39 L 3188.98,1214.08 L 3200.3,1222.31 L 3209.66,1232.71 L 3216.65,1244.82 L 3220.98,1258.13 L 3222.44,1272.05 L 3220.98,1285.96 L 3216.65,1299.27 L 3209.66,1311.39 L 3200.3,1321.79 L 3188.98,1330.01 L 3176.19,1335.7 L 3162.51,1338.61 L 3148.52,1338.61 L 3134.83,1335.7 L 3122.05,1330.01 L 3110.73,1321.79 L 3101.42,1311.45 L 3046.6,1366.28 L 3043.61,1368.73 L 3040.21,1370.55 L 3036.52,1371.67 L 3032.68,1372.05 L 2625.98,1372.05 z " style="fill-opacity:1.000000;fill:rgb(103,198,105);stroke:rgb(0,0,0);stroke-width:2"/></g>
<g fill-rule="evenodd"><path d="M 1180.82,685.433 L 1157.48,685.433 L 1157.48,601.969 L 1208.66,601.969 L 1208.66,657.594 L 1530.99,979.921 L 1753.34,979.921 L 1755.79,972.384 L 1762.78,960.266 L 1772.14,949.868 L 1783.46,941.644 L 1796.25,935.953 L 1809.93,933.044 L 1823.93,933.044 L 1837.61,935.953 L 1850.39,941.644 L 1861.71,949.868 L 1871.08,960.266 L 1878.07,972.384 L 1880.52,979.921 L 2102.87,979.921 L 2425.2,657.594 L 2425.2,601.969 L 2476.38,601.969 L 2476.38,685.433 L 2453.04,685.433 L 2124.94,1013.53 L 2121.96,1015.97 L 2118.56,1017.79 L 2114.86,1018.91 L 2111.02,1019.29 L 1880.52,1019.29 L 1878.07,1026.83 L 1871.08,1038.95 L 1861.71,1049.34 L 1850.39,1057.57 L 1837.61,1063.26 L 1823.93,1066.17 L 1809.93,1066.17 L 1796.25,1063.26 L 1783.46,1057.57 L 1772.14,1049.34 L 1762.78,1038.95 L 1755.79,1026.83 L 1753.34,1019.29 L 1522.83,1019.29 L 1518.99,1018.91 L 1515.3,1017.79 L 1511.9,1015.97 L 1508.92,1013.53 L 1180.82,685.433 z " style="fill-opacity:1.000000;fill:rgb(115,81,255);stroke:rgb(0,0,0);stroke-width:2"/></g>
<g fill-rule="evenodd"><path d="M 1208.66,1198.82 L 1208.66,1220.87 L 1157.48,1220.87 L 1157.48,1137.4 L 1208.66,1137.4 L 1208.66,1159.45 L 1763.52,1159.45 L 1772.14,1149.87 L 1783.46,1141.64 L 1796.25,1135.95 L 1809.93,1133.04 L 1823.93,1133.04 L 1837.61,1135.95 L 1850.39,1141.64 L 1861.71,1149.87 L 1870.34,1159.45 L 2425.2,1159.45 L 2425.2,1137.4 L 2476.38,1137.4 L 2476.38,1220.87 L 2425.2,1220.87 L 2425.2,1198.82 L 1883.78,1198.82 L 1882.4,1213.52 L 1878.07,1226.83 L 1871.08,1238.95 L 1861.71,1249.34 L 1850.39,1257.57 L 1837.61,1263.26 L 1823.93,1266.17 L 1809.93,1266.17 L 1796.25,1263.26 L 1783.46,1257.57 L 1772.14,1249.34 L 1762.78,1238.95 L 1755.79,1226.83 L 1751.46,1213.52 L 1750.08,1198.82 L 1208.66,1198.82 z " style="fill-opacity:1.000000;fill:rgb(74,236,41);stroke:rgb(0,0,0);stroke-width:2"/></g>
<g fill-rule="evenodd"><path d="M 1208.66,1372.05 L 1208.66,1394.09 L 1157.48,1394.09 L 1157.48,1310.63 L 1208.66,1310.63 L 1208.66,1332.68 L 1769.69,1332.68 L 1773.53,1333.06 L 1777.22,1334.18 L 1780.62,1335.99 L 1785.78,1340.61 L 1796.25,1335.95 L 1809.93,1333.04 L 1823.93,1333.04 L 1837.61,1335.95 L 1850.39,1341.64 L 1861.71,1349.87 L 1871.08,1360.27 L 1878.07,1372.38 L 1880.52,1379.92 L 2395.39,1379.92 L 2425.2,1350.11 L 2425.2,1310.63 L 2476.38,1310.63 L 2476.38,1394.09 L 2436.89,1394.09 L 2417.46,1413.53 L 2414.48,1415.97 L 2411.08,1417.79 L 2407.38,1418.91 L 2403.54,1419.29 L 1880.52,1419.29 L 1878.07,1426.83 L 1871.08,1438.95 L 1861.71,1449.34 L 1850.39,1457.57 L 1837.61,1463.26 L 1823.93,1466.17 L 1809.93,1466.17 L 1796.25,1463.26 L 1783.46,1457.57 L 1772.14,1449.34 L 1762.78,1438.95 L 1755.79,1426.83 L 1751.46,1413.52 L 1750,1399.61 L 1751.46,1385.69 L 1755.98,1372.05 L 1208.66,1372.05 z " style="fill-opacity:1.000000;fill:rgb(205,186,171);stroke:rgb(0,0,0);stroke-width:2"/></g>
<g fill-rule="evenodd"><path d="M 1007.87,450.787 L 1007.87,428.74 L 1059.06,428.74 L 1059.06,512.205 L 1007.87,512.205 L 1007.87,490.157 L 968.504,490.157 L 964.664,489.779 L 960.971,488.659 L 957.568,486.84 L 954.585,484.392 L 895.783,425.59 L 437.366,425.59 L 376.457,486.5 L 376.457,578.539 L 447.194,649.276 L 457.664,644.614 L 471.35,641.705 L 485.342,641.705 L 499.029,644.614 L 511.811,650.305 L 523.131,658.53 L 532.493,668.928 L 539.489,681.045 L 543.813,694.352 L 545.276,708.268 L 543.813,722.183 L 539.489,735.49 L 532.493,747.608 L 523.131,758.006 L 511.811,766.23 L 499.029,771.921 L 485.342,774.83 L 471.35,774.83 L 457.664,771.921 L 444.882,766.23 L 433.562,758.006 L 424.2,747.608 L 417.204,735.49 L 412.88,722.183 L 411.417,708.268 L 412.88,694.352 L 417.204,681.045 L 419.43,677.19 L 342.852,600.612 L 340.404,597.629 L 338.585,594.226 L 337.465,590.533 L 337.086,586.693 L 337.086,478.346 L 337.465,474.506 L 338.585,470.813 L 340.404,467.41 L 342.852,464.427 L 415.293,391.986 L 418.276,389.538 L 421.679,387.719 L 425.372,386.599 L 429.213,386.22 L 903.937,386.22 L 907.777,386.599 L 911.47,387.719 L 914.873,389.538 L 917.856,391.986 L 976.658,450.787 L 1007.87,450.787 z " style="fill-opacity:1.000000;fill:rgb(242,251,227);stroke:rgb(0,0,0);stroke-width:2"/></g>
<g fill-rule="evenodd"><path d="M 1208.66,484.366 L 1504.22,779.921 L 1753.34,779.921 L 1755.79,772.384 L 1762.78,760.266 L 1772.14,749.868 L 1783.46,741.644 L 1796.25,735.953 L 1809.93,733.044 L 1823.93,733.044 L 1837.61,735.953 L 1850.39,741.644 L 1861.71,749.868 L 1871.08,760.266 L 1878.07,772.384 L 1880.52,779.921 L 2129.64,779.921 L 2425.2,484.366 L 2425.2,428.74 L 2476.38,428.74 L 2476.38,512.205 L 2453.04,512.205 L 2151.71,813.526 L 2148.73,815.974 L 2145.33,817.793 L 2141.64,818.913 L 2137.8,819.291 L 1880.52,819.292 L 1878.07,826.829 L 1871.08,838.946 L 1861.71,849.344 L 1850.39,857.569 L 1837.61,863.26 L 1823.93,866.169 L 1809.93,866.169 L 1796.25,863.26 L 1783.46,857.569 L 1772.14,849.344 L 1762.78,838.946 L 1755.79,826.829 L 1753.34,819.292 L 1496.06,819.291 L 1492.22,818.913 L 1488.53,817.793 L 1485.13,815.974 L 1482.14,813.526 L 1180.82,512.205 L 1157.48,512.205 L 1157.48,428.74 L 1208.66,428.74 L 1208.66,484.366 z " style="fill-opacity:1.000000;fill:rgb(70,124,194);stroke:rgb(0,0,0);stroke-width:2"/></g>
<g fill-rule="evenodd"><path d="M 2625.98,663.386 L 2625.98,685.433 L 2574.8,685.433 L 2574.8,601.969 L 2625.98,601.969 L 2625.98,624.016 L 3033.46,624.016 L 3037.3,624.394 L 3041,625.514 L 3044.4,627.333 L 3047.38,629.781 L 3169.43,751.829 L 3171.88,754.812 L 3173.7,758.215 L 3174.82,761.908 L 3175.2,765.748 L 3175.2,805.118 L 3222.44,805.118 L 3222.44,938.976 L 3088.58,938.976 L 3088.58,805.118 L 3135.83,805.118 L 3135.83,773.902 L 3025.31,663.386 L 2625.98,663.386 z " style="fill-opacity:1.000000;fill:rgb(84,248,27);stroke:rgb(0,0,0);stroke-width:2"/></g>
<g fill-rule="evenodd"><path d="M 1083.77,1513.78 L 1078.16,1513.75 L 1075.96,1513.08 L 1074.56,1512.05 L 1073.53,1510.66 L 1072.83,1507.87 L 1072.86,1495.48 L 1073.28,1493.8 L 1074.18,1492.32 L 1075.96,1490.85 L 1077.59,1490.27 L 1088.58,1490.16 L 1088.58,1394.09 L 1082.68,1394.09 L 1082.68,1310.63 L 1133.86,1310.63 L 1133.86,1394.09 L 1127.95,1394.09 L 1127.95,1517.12 L 1127.57,1520.96 L 1126.45,1524.66 L 1124.64,1528.06 L 1122.19,1531.04 L 979.863,1673.37 L 976.88,1675.82 L 973.476,1677.64 L 969.784,1678.76 L 965.943,1679.13 L 635.827,1679.13 L 631.986,1678.76 L 628.294,1677.64 L 624.89,1675.82 L 621.907,1673.37 L 306.947,1358.41 L 304.499,1355.42 L 302.68,1352.02 L 301.559,1348.33 L 301.181,1344.49 L 301.181,958.941 L 251.828,909.588 L 249.38,906.605 L 247.561,903.202 L 246.44,899.509 L 246.062,895.669 L 246.062,491.421 L 246.44,487.581 L 247.561,483.888 L 249.38,480.484 L 251.828,477.501 L 422.383,306.947 L 425.366,304.499 L 428.769,302.68 L 432.462,301.559 L 436.302,301.181 L 1631.89,301.181 L 1635.73,301.559 L 1639.42,302.68 L 1642.83,304.499 L 1645.81,306.947 L 1718.78,379.921 L 1750,379.921 L 1750,332.677 L 1883.86,332.677 L 1883.86,379.921 L 1915.07,379.921 L 1988.05,306.947 L 1991.03,304.499 L 1994.44,302.68 L 1998.13,301.559 L 2001.97,301.181 L 2494.09,301.181 L 2498.19,301.611 L 2502.1,302.883 L 2505.66,304.941 L 2508.72,307.694 L 2509.71,309.055 L 2516.9,309.169 L 2518.53,309.752 L 2520.31,311.214 L 2521.4,313.246 L 2521.65,314.961 L 2521.63,327.35 L 2520.66,330.053 L 2519.03,331.682 L 2516.9,332.564 L 2509.71,332.677 L 2508.72,334.038 L 2505.66,336.792 L 2502.61,338.553 L 2539.51,375.451 L 2541.96,378.434 L 2543.78,381.837 L 2544.9,385.53 L 2545.28,389.37 L 2545.28,428.74 L 2551.18,428.74 L 2551.18,512.205 L 2545.28,512.205 L 2545.28,896.262 L 2544.9,900.102 L 2543.78,903.795 L 2541.96,907.198 L 2539.51,910.181 L 2510.71,938.976 L 2517.46,939.231 L 2519.49,940.317 L 2520.96,942.098 L 2521.65,944.882 L 2521.65,956.693 L 2521.2,958.953 L 2519.92,960.869 L 2518.53,961.901 L 2516.33,962.57 L 2513.7,962.598 L 2513.54,965.679 L 2512.47,969.654 L 2510.6,973.32 L 2508.01,976.519 L 2476.77,1007.76 L 2476.77,1021.37 L 2539.51,1084.11 L 2541.96,1087.1 L 2543.78,1090.5 L 2544.9,1094.19 L 2545.28,1098.03 L 2545.28,1137.4 L 2551.18,1137.4 L 2551.18,1220.87 L 2500,1220.87 L 2500,1137.4 L 2505.91,1137.4 L 2505.91,1106.19 L 2443.17,1043.45 L 2440.72,1040.46 L 2438.9,1037.06 L 2437.78,1033.37 L 2437.4,1029.53 L 2437.4,964.766 L 2437.78,960.925 L 2438.9,957.232 L 2440.72,953.829 L 2443.17,950.846 L 2505.91,888.108 L 2505.91,512.205 L 2500,512.205 L 2500,428.74 L 2505.91,428.74 L 2505.91,397.524 L 2448.93,340.551 L 2010.12,340.551 L 1937.15,413.526 L 1934.16,415.974 L 1930.76,417.793 L 1927.07,418.913 L 1923.23,419.291 L 1883.86,419.291 L 1883.86,466.535 L 1836.61,466.535 L 1836.61,535.741 L 1850.39,541.644 L 1861.71,549.868 L 1871.08,560.266 L 1878.07,572.384 L 1882.4,585.691 L 1883.86,599.606 L 1882.4,613.522 L 1878.07,626.829 L 1871.08,638.946 L 1861.71,649.344 L 1850.39,657.569 L 1837.61,663.26 L 1823.93,666.169 L 1809.93,666.169 L 1796.25,663.26 L 1783.46,657.569 L 1772.14,649.344 L 1762.78,638.946 L 1755.79,626.829 L 1751.46,613.522 L 1750,599.606 L 1751.46,585.691 L 1755.79,572.384 L 1762.78,560.266 L 1772.14,549.868 L 1783.46,541.644 L 1797.24,535.741 L 1797.24,466.535 L 1750,466.535 L 1750,419.291 L 1710.63,419.291 L 1706.79,418.913 L 1703.1,417.793 L 1699.69,415.974 L 1696.71,413.526 L 1623.74,340.551 L 1209.73,340.551 L 1127.95,422.327 L 1127.95,601.969 L 1133.86,601.969 L 1133.86,685.433 L 1127.95,685.433 L 1127.95,761.864 L 1129.54,766.438 L 1129.92,770.278 L 1129.92,793.307 L 1129.49,797.4 L 1128.22,801.314 L 1126.16,804.878 L 1123.41,807.936 L 1120.08,810.355 L 1116.32,812.029 L 1112.29,812.884 L 1108.18,812.884 L 1104.15,812.029 L 1100.39,810.355 L 1097.07,807.936 L 1094.53,805.118 L 1088,805.09 L 1086.32,804.669 L 1084.84,803.778 L 1083.67,802.494 L 1082.71,799.791 L 1082.68,787.402 L 1083.13,785.142 L 1084.41,783.226 L 1085.8,782.193 L 1088,781.524 L 1090.55,781.496 L 1090.55,776.723 L 1088.96,772.149 L 1088.58,768.309 L 1088.58,685.433 L 1082.68,685.433 L 1082.68,601.969 L 1088.58,601.969 L 1088.58,414.173 L 1088.96,410.333 L 1090.08,406.64 L 1091.9,403.237 L 1094.35,400.254 L 1154.05,340.551 L 444.456,340.551 L 285.432,499.575 L 285.432,887.515 L 320.866,922.948 L 349.466,894.348 L 352.449,891.9 L 355.853,890.081 L 359.545,888.961 L 363.386,888.583 L 414.755,888.583 L 417.204,881.045 L 424.2,868.928 L 433.562,858.53 L 444.882,850.305 L 457.664,844.614 L 471.35,841.705 L 485.342,841.705 L 499.029,844.614 L 511.811,850.305 L 523.131,858.53 L 532.493,868.928 L 539.489,881.045 L 543.813,894.352 L 545.276,908.268 L 543.813,922.183 L 539.489,935.49 L 532.493,947.608 L 523.131,958.006 L 511.811,966.23 L 499.029,971.921 L 485.342,974.83 L 471.35,974.83 L 457.664,971.921 L 444.882,966.23 L 433.562,958.006 L 424.2,947.608 L 417.204,935.49 L 414.755,927.953 L 371.54,927.953 L 340.551,958.941 L 340.551,1336.33 L 643.981,1639.76 L 957.789,1639.76 L 1083.77,1513.78 z " style="fill-opacity:1.000000;fill:rgb(232,231,141);stroke:rgb(0,0,0);stroke-width:2"/></g>
<g fill-rule="evenodd"><path d="M 545.276,1147.36 L 557.367,1159.45 L 1007.87,1159.45 L 1007.87,1137.4 L 1059.06,1137.4 L 1059.06,1220.87 L 1007.87,1220.87 L 1007.87,1198.82 L 549.213,1198.82 L 545.372,1198.44 L 541.679,1197.32 L 538.276,1195.5 L 535.293,1193.05 L 517.437,1175.2 L 411.417,1175.2 L 411.417,1041.34 L 545.276,1041.34 L 545.276,1147.36 z " style="fill-opacity:1.000000;fill:rgb(118,90,46);stroke:rgb(0,0,0);stroke-width:2"/></g>
<g fill-rule="evenodd"><path d="M 1045.1,1513.78 L 1043.31,1515.08 L 1039.55,1516.75 L 1035.52,1517.61 L 1031.41,1517.61 L 1027.38,1516.75 L 1023.62,1515.08 L 1020.29,1512.66 L 1017.54,1509.6 L 1015.48,1506.04 L 1014.21,1502.12 L 1013.78,1498.03 L 1013.78,1394.09 L 1007.87,1394.09 L 1007.87,1310.63 L 1013.78,1310.63 L 1013.78,1271.26 L 1014.16,1267.42 L 1015.28,1263.73 L 1017.1,1260.32 L 1019.55,1257.34 L 1025.06,1251.83 L 1028.04,1249.38 L 1031.44,1247.56 L 1035.14,1246.44 L 1038.98,1246.06 L 1069.8,1246.06 L 1088.58,1227.28 L 1088.58,885.514 L 1019.55,816.477 L 1017.1,813.494 L 1015.28,810.09 L 1014.16,806.398 L 1013.78,802.557 L 1013.78,685.433 L 1007.87,685.433 L 1007.87,629.807 L 906.019,527.953 L 541.938,527.953 L 539.489,535.49 L 532.493,547.608 L 523.131,558.006 L 511.811,566.23 L 499.029,571.921 L 485.342,574.83 L 471.35,574.83 L 457.664,571.921 L 444.882,566.23 L 433.562,558.006 L 424.2,547.608 L 417.204,535.49 L 412.88,522.183 L 411.417,508.268 L 412.88,494.352 L 417.204,481.045 L 424.2,468.928 L 433.562,458.53 L 444.882,450.305 L 457.664,444.614 L 471.35,441.705 L 485.342,441.705 L 499.029,444.614 L 511.811,450.305 L 523.131,458.53 L 532.493,468.928 L 539.489,481.045 L 541.938,488.583 L 914.173,488.583 L 918.014,488.961 L 921.706,490.081 L 925.11,491.9 L 928.093,494.348 L 1035.71,601.969 L 1059.06,601.969 L 1059.06,685.433 L 1053.15,685.433 L 1053.15,759.563 L 1061.16,767.576 L 1063.75,770.774 L 1065.62,774.441 L 1066.69,778.416 L 1066.85,781.496 L 1070.05,781.61 L 1072.64,782.837 L 1074.11,784.618 L 1074.8,787.402 L 1074.77,799.791 L 1073.81,802.494 L 1072.18,804.123 L 1070.61,804.864 L 1063.86,805.118 L 1122.19,863.441 L 1124.64,866.424 L 1126.45,869.827 L 1127.57,873.52 L 1127.95,877.36 L 1127.95,1235.43 L 1127.57,1239.27 L 1126.45,1242.97 L 1124.64,1246.37 L 1122.19,1249.35 L 1091.87,1279.67 L 1088.89,1282.12 L 1085.49,1283.93 L 1081.79,1285.05 L 1077.95,1285.43 L 1053.15,1285.43 L 1053.15,1310.63 L 1059.06,1310.63 L 1059.06,1394.09 L 1053.15,1394.09 L 1053.15,1490.16 L 1060.21,1490.27 L 1062.34,1491.15 L 1063.97,1492.78 L 1064.93,1495.48 L 1064.96,1507.87 L 1064.71,1509.59 L 1063.97,1511.15 L 1062.34,1512.78 L 1060.77,1513.53 L 1059.06,1513.78 L 1045.1,1513.78 z " style="fill-opacity:1.000000;fill:rgb(99,51,159);stroke:rgb(0,0,0);stroke-width:2"/></g>
<g fill-rule="evenodd"><path d="M 2541.46,962.598 L 2533.72,962.344 L 2531.26,960.869 L 2529.98,958.953 L 2529.53,956.693 L 2529.56,944.303 L 2530.22,942.098 L 2531.69,940.317 L 2533.17,939.426 L 2534.85,939.005 L 2541.41,938.976 L 2544.7,935.489 L 2548.15,933.248 L 2551.99,931.773 L 2556.06,931.129 L 2560.17,931.345 L 2564.14,932.41 L 2567.81,934.278 L 2571.01,936.868 L 2614.31,980.174 L 2616.76,983.157 L 2618.58,986.561 L 2619.7,990.253 L 2620.08,994.094 L 2620.08,1021.37 L 2651.07,1052.36 L 3091.92,1052.36 L 3094.37,1044.82 L 3101.37,1032.71 L 3110.73,1022.31 L 3122.05,1014.08 L 3134.83,1008.39 L 3148.52,1005.48 L 3162.51,1005.48 L 3176.19,1008.39 L 3186.66,1013.06 L 3293.31,906.413 L 3293.31,853.432 L 2930.03,490.157 L 2625.98,490.157 L 2625.98,512.205 L 2574.8,512.205 L 2574.8,428.74 L 2580.71,428.74 L 2580.71,372.326 L 2543.17,334.786 L 2541.46,332.677 L 2534.85,332.649 L 2533.17,332.228 L 2531.69,331.337 L 2530.52,330.053 L 2529.56,327.35 L 2529.56,314.382 L 2530.22,312.177 L 2531.26,310.785 L 2532.65,309.752 L 2534.28,309.169 L 2541.41,309.055 L 2544.7,305.568 L 2548.15,303.327 L 2551.99,301.852 L 2556.06,301.208 L 2560.17,301.423 L 2564.14,302.489 L 2567.81,304.357 L 2571.01,306.947 L 2614.31,350.253 L 2616.76,353.236 L 2618.58,356.639 L 2619.7,360.332 L 2620.08,364.172 L 2620.08,428.74 L 2625.98,428.74 L 2625.98,450.787 L 2938.19,450.787 L 2942.03,451.166 L 2945.72,452.286 L 2949.12,454.105 L 2952.11,456.553 L 3326.91,831.359 L 3329.36,834.342 L 3331.18,837.745 L 3332.3,841.438 L 3332.68,845.279 L 3332.68,914.567 L 3332.3,918.407 L 3331.18,922.1 L 3329.36,925.503 L 3326.91,928.486 L 3214.43,1040.97 L 3216.65,1044.82 L 3220.98,1058.13 L 3222.44,1072.05 L 3220.98,1085.96 L 3216.65,1099.27 L 3209.66,1111.39 L 3200.3,1121.79 L 3188.98,1130.01 L 3176.19,1135.7 L 3162.51,1138.61 L 3148.52,1138.61 L 3134.83,1135.7 L 3122.05,1130.01 L 3110.73,1121.79 L 3101.37,1111.39 L 3094.37,1099.27 L 3091.92,1091.73 L 2642.91,1091.73 L 2639.07,1091.35 L 2635.38,1090.23 L 2631.98,1088.41 L 2628.99,1085.97 L 2620.08,1077.05 L 2620.08,1137.4 L 2625.98,1137.4 L 2625.98,1220.87 L 2574.8,1220.87 L 2574.8,1137.4 L 2580.71,1137.4 L 2580.71,1002.25 L 2543.17,964.707 L 2541.46,962.598 z " style="fill-opacity:1.000000;fill:rgb(201,154,102);stroke:rgb(0,0,0);stroke-width:2"/></g>
</svg>
