<?xml version="1.0" standalone="no"?>
<!DOCTYPE svg PUBLIC "-//W3C//DTD SVG 1.1//EN"
"http://www.w3.org/Graphics/SVG/1.1/DTD/svg11.dtd">
<svg width="170.646" height="91.2756" viewBox="0 0 3555.12 1901.57" version="1.1"
xmlns="http://www.w3.org/2000/svg"
xmlns:xlink="http://www.w3.org/1999/xlink">
<polyline points="2559.05,1394.09 2559.36,1307.56 2563.67,1299.49 2571.73,1295.18 2625.98,1294.88 2632.01,1296.08 2637.12,1299.49 2640.53,1304.6 2641.73,1316.93 3018,1316.93 3073.91,1261.02 3075.07,1253.26 3080.73,1236.95 3088.62,1223.45 3099.02,1211.77 3115.64,1199.7 3131.55,1192.99 3146.87,1189.82 3164.15,1189.82 3179.47,1192.99 3196.85,1200.45 3209.55,1209.57 3223.3,1224.83 3231.63,1239.96 3236.64,1256.48 3238.19,1272.05 3236.64,1287.61 3231.63,1304.14 3221.36,1321.92 3212,1332.32 3198.23,1342.75 3179.47,1351.1 3164.15,1354.27 3146.87,1354.27 3128.42,1350.09 3114.17,1343.65 3101.02,1334.12 3056.59,1378.45 3051.04,1382.62 3041.09,1386.74 3032.68,1387.79 2641.73,1387.79 2641.43,1397.17 2639.08,1402.84 2634.73,1407.19 2625.98,1409.84 2571.73,1409.54 2563.67,1405.23 2560.25,1400.12 2559.05,1394.09 2566.93,1394.09 2566.93,1310.63 2569.23,1305.06 2573.27,1302.91 2629,1303.35 2631.55,1305.06 2633.71,1309.09 2633.86,1324.8 3021.26,1324.8 3081.45,1264.62 3082.34,1256.49 3086.88,1242.39 3094.55,1228.77 3104.88,1217.04 3117.42,1207.71 3133.19,1200.69 3147.69,1197.65 3163.33,1197.65 3177.83,1200.69 3192.18,1206.89 3206.15,1217.04 3216.03,1228.08 3223.47,1240.89 3228.47,1255.7 3230.31,1272.05 3228.47,1288.39 3224.14,1301.7 3216.48,1315.32 3206.15,1327.05 3192.18,1337.2 3177.83,1343.4 3162.51,1346.48 3147.69,1346.44 3133.19,1343.4 3117.42,1336.38 3106.1,1328.15 3101.12,1322.89 3051.59,1372.37 3043.92,1377.49 3037.29,1379.5 2633.86,1379.92 2633.71,1395.63 2631.55,1399.66 2627.52,1401.82 2573.27,1401.82 2569.23,1399.66 2566.93,1394.09" style="stroke:rgb(103,198,105);stroke-width:15.748031;fill:none;stroke-opacity:0.5;stroke-linecap:round;stroke-linejoin:round;;fill:none"/>
<polyline points="2559.05,1394.09 2559.36,1307.56 2563.67,1299.49 2571.73,1295.18 2625.98,1294.88 2632.01,1296.08 2637.12,1299.49 2640.53,1304.6 2641.73,1316.93 3018,1316.93 3073.91,1261.02 3075.07,1253.26 3080.73,1236.95 3088.62,1223.45 3099.02,1211.77 3115.64,1199.7 3131.55,1192.99 3146.87,1189.82 3164.15,1189.82 3179.47,1192.99 3196.85,1200.45 3209.55,1209.57 3223.3,1224.83 3231.63,1239.96 3236.64,1256.48 3238.19,1272.05 3236.64,1287.61 3231.63,1304.14 3221.36,1321.92 3212,1332.32 3198.23,1342.75 3179.47,1351.1 3164.15,1354.27 3146.87,1354.27 3128.42,1350.09 3114.17,1343.65 3101.02,1334.12 3056.59,1378.45 3051.04,1382.62 3041.09,1386.74 3032.68,1387.79 2641.73,1387.79 2641.43,1397.17 2639.08,1402.84 2634.73,1407.19 2625.98,1409.84 2571.73,1409.54 2563.67,1405.23 2560.25,1400.12 2559.05,1394.09 2566.93,1394.09 2566.93,1310.63 2569.23,1305.06 2573.27,1302.91 2629,1303.35 2631.55,1305.06 2633.71,1309.09 2633.86,1324.8 3021.26,1324.8 3081.45,1264.62 3082.34,1256.49 3086.88,1242.39 3094.55,1228.77 3104.88,1217.04 3117.42,1207.71 3133.19,1200.69 3147.69,1197.65 3163.33,1197.65 3177.83,1200.69 3192.18,1206.89 3206.15,1217.04 3216.03,1228.08 3223.47,1240.89 3228.47,1255.7 3230.31,1272.05 3228.47,1288.39 3224.14,1301.7 3216.48,1315.32 3206.15,1327.05 3192.18,1337.2 3177.83,1343.4 3162.51,1346.48 3147.69,1346.44 3133.19,1343.4 3117.42,1336.38 3106.1,1328.15 3101.12,1322.89 3051.59,1372.37 3043.92,1377.49 3037.29,1379.5 2633.86,1379.92 2633.71,1395.63 2631.55,1399.66 2627.52,1401.82 2573.27,1401.82 2569.23,1399.66 2566.93,1394.09" style="stroke:rgb(0,0,0);stroke-width:1px;fill:none;stroke-opacity:1;stroke-linecap:round;stroke-linejoin:round;;fill:none"/>
<polyline points="1145.67,685.432 1145.67,591.656 1151.45,587.418 1157.48,586.22 1208.66,586.22 1217.41,588.874 1221.75,593.218 1224.11,598.896 1224.41,651.07 1537.51,964.172 1742.34,964.172 1751.08,949.728 1760.44,939.33 1774.21,928.902 1791.38,920.974 1809.93,917.294 1825.57,917.382 1840.88,920.548 1858.27,928.004 1873.42,939.33 1883.82,951.01 1891.52,964.172 2096.35,964.172 2409.45,651.07 2409.45,601.968 2410.65,595.942 2414.06,590.832 2419.17,587.418 2425.2,586.22 2479.45,586.522 2485.13,588.874 2489.47,593.218 2491.14,601.968 2491.14,685.432 2490.22,692.778 2487.51,696.568 2479.45,700.878 2459.56,701.18 2131.95,1028.15 2123.13,1032.86 2111.02,1035.04 1891.51,1035.04 1883.82,1048.2 1873.42,1059.88 1859.65,1070.31 1842.48,1078.24 1825.57,1081.83 1806.66,1081.57 1789.84,1077.65 1775.59,1071.21 1760.44,1059.88 1750.04,1048.2 1742.34,1035.04 1522.83,1035.04 1510.73,1032.86 1501.91,1028.15 1174.3,701.18 1154.41,700.878 1148.73,698.526 1145.67,695.744 1145.67,685.432 1149.61,685.432 1149.61,601.968 1150.93,597.594 1153.1,595.42 1157.48,594.094 1208.66,594.094 1214.23,596.4 1216.53,601.968 1216.53,654.332 1534.25,972.046 1747.62,972.046 1755.96,956.328 1767.52,943.498 1778.84,935.272 1793.04,928.758 1809.93,925.168 1823.92,925.168 1839.25,928.25 1855.02,935.272 1867.56,944.598 1876.93,954.996 1886.24,972.046 2099.61,972.046 2417.32,654.332 2417.32,601.968 2419.63,596.4 2425.2,594.094 2476.38,594.094 2480.75,595.42 2482.92,597.594 2484.25,601.968 2484.25,685.432 2481.94,691 2476.38,693.306 2456.3,693.306 2126.95,1022.06 2120.84,1025.33 2111.02,1027.16 1886.24,1027.16 1877.89,1042.88 1866.34,1055.71 1853.6,1064.76 1840.81,1070.45 1823.92,1074.04 1809.93,1074.04 1794.61,1070.96 1778.84,1063.94 1766.29,1054.61 1756.93,1044.21 1747.62,1027.16 1522.83,1027.16 1516.71,1026.45 1508.19,1022.92 1177.56,693.306 1155.94,693.154 1151.91,691 1149.61,685.432" style="stroke:rgb(115,81,255);stroke-width:15.748031;fill:none;stroke-opacity:0.5;stroke-linecap:round;stroke-linejoin:round;;fill:none"/>
<polyline points="1145.67,685.432 1145.67,591.656 1151.45,587.418 1157.48,586.22 1208.66,586.22 1217.41,588.874 1221.75,593.218 1224.11,598.896 1224.41,651.07 1537.51,964.172 1742.34,964.172 1751.08,949.728 1760.44,939.33 1774.21,928.902 1791.38,920.974 1809.93,917.294 1825.57,917.382 1840.88,920.548 1858.27,928.004 1873.42,939.33 1883.82,951.01 1891.52,964.172 2096.35,964.172 2409.45,651.07 2409.45,601.968 2410.65,595.942 2414.06,590.832 2419.17,587.418 2425.2,586.22 2479.45,586.522 2485.13,588.874 2489.47,593.218 2491.14,601.968 2491.14,685.432 2490.22,692.778 2487.51,696.568 2479.45,700.878 2459.56,701.18 2131.95,1028.15 2123.13,1032.86 2111.02,1035.04 1891.51,1035.04 1883.82,1048.2 1873.42,1059.88 1859.65,1070.31 1842.48,1078.24 1825.57,1081.83 1806.66,1081.57 1789.84,1077.65 1775.59,1071.21 1760.44,1059.88 1750.04,1048.2 1742.34,1035.04 1522.83,1035.04 1510.73,1032.86 1501.91,1028.15 1174.3,701.18 1154.41,700.878 1148.73,698.526 1145.67,695.744 1145.67,685.432 1149.61,685.432 1149.61,601.968 1150.93,597.594 1153.1,595.42 1157.48,594.094 1208.66,594.094 1214.23,596.4 1216.53,601.968 1216.53,654.332 1534.25,972.046 1747.62,972.046 1755.96,956.328 1767.52,943.498 1778.84,935.272 1793.04,928.758 1809.93,925.168 1823.92,925.168 1839.25,928.25 1855.02,935.272 1867.56,944.598 1876.93,954.996 1886.24,972.046 2099.61,972.046 2417.32,654.332 2417.32,601.968 2419.63,596.4 2425.2,594.094 2476.38,594.094 2480.75,595.42 2482.92,597.594 2484.25,601.968 2484.25,685.432 2481.94,691 2476.38,693.306 2456.3,693.306 2126.95,1022.06 2120.84,1025.33 2111.02,1027.16 1886.24,1027.16 1877.89,1042.88 1866.34,1055.71 1853.6,1064.76 1840.81,1070.45 1823.92,1074.04 1809.93,1074.04 1794.61,1070.96 1778.84,1063.94 1766.29,1054.61 1756.93,1044.21 1747.62,1027.16 1522.83,1027.16 1516.71,1026.45 1508.19,1022.92 1177.56,693.306 1155.94,693.154 1151.91,691 1149.61,685.432" style="stroke:rgb(0,0,0);stroke-width:1px;fill:none;stroke-opacity:1;stroke-linecap:round;stroke-linejoin:round;;fill:none"/>
<polyline points="1142.71,1220.87 1142.71,1137.4 1143.63,1130.06 1148.73,1124.31 1157.48,1121.65 1208.66,1121.65 1214.69,1122.85 1219.8,1126.27 1223.21,1131.37 1224.41,1143.7 1756.51,1143.7 1762.89,1137.13 1777.06,1127.26 1791.38,1120.97 1809.93,1117.29 1825.57,1117.38 1844.02,1121.57 1859.65,1128.9 1872.25,1138.16 1877.35,1143.7 2409.45,1143.7 2409.75,1134.33 2412.1,1128.65 2416.45,1124.31 2422.12,1121.96 2476.38,1121.65 2482.4,1122.85 2488.19,1127.09 2488.19,1231.18 2482.4,1235.41 2476.38,1236.61 2425.2,1236.61 2419.17,1235.41 2414.06,1232 2410.65,1226.89 2409.45,1214.57 1898.11,1214.57 1891.71,1234.7 1883.82,1248.2 1870.97,1262.08 1858.27,1271.21 1844.02,1277.65 1827.2,1281.57 1809.93,1281.92 1789.84,1277.65 1774.21,1270.31 1761.61,1261.05 1751.08,1249.48 1742.15,1234.7 1735.74,1214.57 1224.41,1214.57 1224.11,1223.94 1221.75,1229.61 1217.41,1233.96 1208.66,1236.61 1154.41,1236.31 1148.73,1233.96 1144.39,1229.61 1142.71,1220.87 1149.61,1220.87 1149.61,1137.4 1151.91,1131.83 1157.48,1129.53 1211.67,1130.13 1214.23,1131.83 1216.38,1135.86 1216.53,1151.57 1760.01,1151.57 1766.88,1144.02 1780.26,1134.45 1793.81,1128.46 1809.93,1125.17 1825.56,1125.34 1840.81,1128.76 1855.02,1135.27 1866.34,1143.5 1873.84,1151.57 2417.32,1151.57 2417.47,1135.86 2419.63,1131.83 2422.18,1130.13 2476.38,1129.53 2481.94,1131.83 2484.25,1137.4 2484.25,1220.87 2481.94,1226.43 2477.91,1228.59 2422.18,1228.14 2419.63,1226.43 2417.47,1222.4 2417.32,1206.69 1890.94,1206.69 1890.11,1215.11 1885.26,1230.03 1877.89,1242.88 1867.56,1254.61 1853.6,1264.76 1840.04,1270.75 1824.75,1274 1809.11,1274 1793.81,1270.75 1780.26,1264.76 1767.52,1255.71 1756.93,1244.21 1748.97,1230.77 1743.75,1215.11 1742.91,1206.69 1216.53,1206.69 1216.38,1222.4 1214.23,1226.43 1210.2,1228.59 1155.94,1228.59 1151.91,1226.43 1149.61,1220.87" style="stroke:rgb(74,236,41);stroke-width:15.748031;fill:none;stroke-opacity:0.5;stroke-linecap:round;stroke-linejoin:round;;fill:none"/>
<polyline points="1142.71,1220.87 1142.71,1137.4 1143.63,1130.06 1148.73,1124.31 1157.48,1121.65 1208.66,1121.65 1214.69,1122.85 1219.8,1126.27 1223.21,1131.37 1224.41,1143.7 1756.51,1143.7 1762.89,1137.13 1777.06,1127.26 1791.38,1120.97 1809.93,1117.29 1825.57,1117.38 1844.02,1121.57 1859.65,1128.9 1872.25,1138.16 1877.35,1143.7 2409.45,1143.7 2409.75,1134.33 2412.1,1128.65 2416.45,1124.31 2422.12,1121.96 2476.38,1121.65 2482.4,1122.85 2488.19,1127.09 2488.19,1231.18 2482.4,1235.41 2476.38,1236.61 2425.2,1236.61 2419.17,1235.41 2414.06,1232 2410.65,1226.89 2409.45,1214.57 1898.11,1214.57 1891.71,1234.7 1883.82,1248.2 1870.97,1262.08 1858.27,1271.21 1844.02,1277.65 1827.2,1281.57 1809.93,1281.92 1789.84,1277.65 1774.21,1270.31 1761.61,1261.05 1751.08,1249.48 1742.15,1234.7 1735.74,1214.57 1224.41,1214.57 1224.11,1223.94 1221.75,1229.61 1217.41,1233.96 1208.66,1236.61 1154.41,1236.31 1148.73,1233.96 1144.39,1229.61 1142.71,1220.87 1149.61,1220.87 1149.61,1137.4 1151.91,1131.83 1157.48,1129.53 1211.67,1130.13 1214.23,1131.83 1216.38,1135.86 1216.53,1151.57 1760.01,1151.57 1766.88,1144.02 1780.26,1134.45 1793.81,1128.46 1809.93,1125.17 1825.56,1125.34 1840.81,1128.76 1855.02,1135.27 1866.34,1143.5 1873.84,1151.57 2417.32,1151.57 2417.47,1135.86 2419.63,1131.83 2422.18,1130.13 2476.38,1129.53 2481.94,1131.83 2484.25,1137.4 2484.25,1220.87 2481.94,1226.43 2477.91,1228.59 2422.18,1228.14 2419.63,1226.43 2417.47,1222.4 2417.32,1206.69 1890.94,1206.69 1890.11,1215.11 1885.26,1230.03 1877.89,1242.88 1867.56,1254.61 1853.6,1264.76 1840.04,1270.75 1824.75,1274 1809.11,1274 1793.81,1270.75 1780.26,1264.76 1767.52,1255.71 1756.93,1244.21 1748.97,1230.77 1743.75,1215.11 1742.91,1206.69 1216.53,1206.69 1216.38,1222.4 1214.23,1226.43 1210.2,1228.59 1155.94,1228.59 1151.91,1226.43 1149.61,1220.87" style="stroke:rgb(0,0,0);stroke-width:1px;fill:none;stroke-opacity:1;stroke-linecap:round;stroke-linejoin:round;;fill:none"/>
<polyline points="1145.67,1394.09 1145.67,1300.32 1151.45,1296.08 1157.48,1294.88 1208.66,1294.88 1214.69,1296.08 1219.8,1299.49 1223.21,1304.6 1224.41,1316.93 1769.68,1316.93 1778.1,1317.98 1788.29,1322.26 1808.29,1317.38 1823.92,1317.29 1840.88,1320.55 1859.65,1328.9 1873.42,1339.33 1882.78,1349.73 1891.52,1364.17 2388.87,1364.17 2409.45,1343.59 2409.75,1307.56 2414.06,1299.49 2419.17,1296.08 2425.2,1294.88 2479.45,1295.18 2485.13,1297.54 2489.47,1301.88 2492.13,1310.63 2492.13,1394.09 2489.47,1402.84 2485.13,1407.19 2479.45,1409.54 2443.42,1409.84 2424.47,1428.15 2411.95,1433.98 2403.54,1435.04 1891.51,1435.04 1883.82,1448.2 1873.42,1459.88 1859.65,1470.31 1844.02,1477.65 1823.92,1481.92 1806.66,1481.57 1789.84,1477.65 1774.21,1470.31 1760.44,1459.88 1749.14,1446.82 1740.81,1431.69 1735.8,1415.17 1734.25,1399.61 1735.41,1387.79 1224.41,1387.79 1223.21,1400.12 1219.8,1405.23 1214.69,1408.64 1208.66,1409.84 1154.41,1409.54 1148.73,1407.19 1145.67,1404.41 1145.67,1394.09 1149.61,1394.09 1149.76,1309.09 1151.91,1305.06 1155.94,1302.91 1210.2,1302.91 1214.23,1305.06 1216.38,1309.09 1216.53,1324.8 1769.68,1324.8 1779.5,1326.64 1787.23,1331.35 1793.81,1328.46 1808.3,1325.34 1824.75,1325.21 1840.81,1328.76 1855.02,1335.27 1866.34,1343.5 1877.89,1356.33 1886.24,1372.05 2392.13,1372.05 2417.32,1346.85 2417.32,1310.63 2418.65,1306.25 2420.82,1304.08 2425.2,1302.76 2476.38,1302.76 2480.75,1304.08 2484.1,1309.09 2484.25,1394.09 2482.92,1398.47 2480.75,1400.64 2476.38,1401.97 2440.15,1401.97 2419.47,1422.06 2409.67,1426.45 1886.24,1427.16 1877.89,1442.88 1866.34,1455.71 1853.6,1464.76 1840.81,1470.45 1824.75,1474 1809.11,1474 1793.04,1470.45 1780.26,1464.76 1767.52,1455.71 1756.93,1444.21 1748.97,1430.77 1743.76,1415.16 1742.13,1399.61 1745.08,1379.92 1216.53,1379.92 1216.38,1395.63 1214.23,1399.66 1210.2,1401.82 1155.94,1401.82 1151.91,1399.66 1149.61,1394.09" style="stroke:rgb(205,186,171);stroke-width:15.748031;fill:none;stroke-opacity:0.5;stroke-linecap:round;stroke-linejoin:round;;fill:none"/>
<polyline points="1145.67,1394.09 1145.67,1300.32 1151.45,1296.08 1157.48,1294.88 1208.66,1294.88 1214.69,1296.08 1219.8,1299.49 1223.21,1304.6 1224.41,1316.93 1769.68,1316.93 1778.1,1317.98 1788.29,1322.26 1808.29,1317.38 1823.92,1317.29 1840.88,1320.55 1859.65,1328.9 1873.42,1339.33 1882.78,1349.73 1891.52,1364.17 2388.87,1364.17 2409.45,1343.59 2409.75,1307.56 2414.06,1299.49 2419.17,1296.08 2425.2,1294.88 2479.45,1295.18 2485.13,1297.54 2489.47,1301.88 2492.13,1310.63 2492.13,1394.09 2489.47,1402.84 2485.13,1407.19 2479.45,1409.54 2443.42,1409.84 2424.47,1428.15 2411.95,1433.98 2403.54,1435.04 1891.51,1435.04 1883.82,1448.2 1873.42,1459.88 1859.65,1470.31 1844.02,1477.65 1823.92,1481.92 1806.66,1481.57 1789.84,1477.65 1774.21,1470.31 1760.44,1459.88 1749.14,1446.82 1740.81,1431.69 1735.8,1415.17 1734.25,1399.61 1735.41,1387.79 1224.41,1387.79 1223.21,1400.12 1219.8,1405.23 1214.69,1408.64 1208.66,1409.84 1154.41,1409.54 1148.73,1407.19 1145.67,1404.41 1145.67,1394.09 1149.61,1394.09 1149.76,1309.09 1151.91,1305.06 1155.94,1302.91 1210.2,1302.91 1214.23,1305.06 1216.38,1309.09 1216.53,1324.8 1769.68,1324.8 1779.5,1326.64 1787.23,1331.35 1793.81,1328.46 1808.3,1325.34 1824.75,1325.21 1840.81,1328.76 1855.02,1335.27 1866.34,1343.5 1877.89,1356.33 1886.24,1372.05 2392.13,1372.05 2417.32,1346.85 2417.32,1310.63 2418.65,1306.25 2420.82,1304.08 2425.2,1302.76 2476.38,1302.76 2480.75,1304.08 2484.1,1309.09 2484.25,1394.09 2482.92,1398.47 2480.75,1400.64 2476.38,1401.97 2440.15,1401.97 2419.47,1422.06 2409.67,1426.45 1886.24,1427.16 1877.89,1442.88 1866.34,1455.71 1853.6,1464.76 1840.81,1470.45 1824.75,1474 1809.11,1474 1793.04,1470.45 1780.26,1464.76 1767.52,1455.71 1756.93,1444.21 1748.97,1430.77 1743.76,1415.16 1742.13,1399.61 1745.08,1379.92 1216.53,1379.92 1216.38,1395.63 1214.23,1399.66 1210.2,1401.82 1155.94,1401.82 1151.91,1399.66 1149.61,1394.09" style="stroke:rgb(0,0,0);stroke-width:1px;fill:none;stroke-opacity:1;stroke-linecap:round;stroke-linejoin:round;;fill:none"/>
<polyline points="321.338,586.692 321.338,485.936 327.766,471.566 337.282,458.856 410.284,385.882 422.432,376.9 436.802,370.472 905.48,370.548 916.04,372.648 927.846,379.812 983.18,435.038 992.126,435.038 992.428,425.668 994.78,419.99 999.124,415.646 1004.8,413.294 1062.13,413.294 1067.8,415.646 1072.92,421.454 1073.82,428.74 1073.82,512.202 1072.9,519.55 1067.8,525.298 1059.05,527.952 1007.87,527.952 1001.85,526.754 996.738,523.34 993.324,518.23 992.126,505.904 966.96,505.828 961.058,505.04 956.762,502.524 949.248,496.97 931.41,480.116 921.62,473.698 889.26,441.338 526.262,441.338 503.07,435.53 485.34,433.646 469.654,433.736 442.464,437.902 427.47,450.142 416.266,461.782 398.94,486.286 392.204,493.022 392.204,572.016 450.676,630.486 468.076,626.3 486.988,626.042 505.434,630.226 521.066,637.564 534.834,647.992 545.232,659.67 554.466,676.178 559.216,691.078 560.936,706.62 559.216,725.456 554.466,740.356 546.13,755.48 532.386,770.746 519.684,779.868 502.302,787.324 485.342,790.578 469.704,790.492 454.39,787.324 437.008,779.868 421.858,768.542 410.56,755.48 403.564,743.364 397.476,725.456 395.754,706.62 397.476,691.078 400.734,680.766 331.716,611.746 326.514,605.052 322.394,595.104 321.338,586.692 329.212,586.692 329.212,478.346 331.64,467.1 337.284,458.858 414.564,382.592 423.086,379.062 429.212,378.346 904.708,378.384 915.182,380.774 922.85,385.898 979.918,442.912 1000,442.912 1000.15,427.204 1002.31,423.172 1006.34,421.016 1059.05,420.866 1062.07,421.464 1065.6,424.364 1066.93,428.74 1066.93,512.204 1064.62,517.772 1059.05,520.078 1006.34,519.926 1002.31,517.772 1000.15,513.74 1000,498.03 967.732,497.992 957.258,495.602 949.016,489.958 892.52,433.464 440.628,433.464 384.33,489.76 384.33,575.276 448.934,639.88 456.026,636.912 471.35,633.83 486.164,633.874 502.23,637.42 515.748,643.486 528.982,653.26 538.862,664.298 546.308,677.108 551.514,692.714 553.148,708.266 551.644,723.006 546.682,738.692 538.344,752.876 527.758,764.376 515.748,773.048 500.664,779.622 486.164,782.66 471.35,782.704 454.46,779.114 440.252,772.6 427.71,763.274 418.348,752.876 410.01,738.692 405.048,723.006 403.542,708.266 405.048,693.528 409.714,678.612 336.764,605.606 331.05,596.51 329.212,586.692" style="stroke:rgb(242,251,227);stroke-width:15.748031;fill:none;stroke-opacity:0.5;stroke-linecap:round;stroke-linejoin:round;;fill:none"/>
<polyline points="321.338,586.692 321.338,485.936 327.766,471.566 337.282,458.856 410.284,385.882 422.432,376.9 436.802,370.472 905.48,370.548 916.04,372.648 927.846,379.812 983.18,435.038 992.126,435.038 992.428,425.668 994.78,419.99 999.124,415.646 1004.8,413.294 1062.13,413.294 1067.8,415.646 1072.92,421.454 1073.82,428.74 1073.82,512.202 1072.9,519.55 1067.8,525.298 1059.05,527.952 1007.87,527.952 1001.85,526.754 996.738,523.34 993.324,518.23 992.126,505.904 966.96,505.828 961.058,505.04 956.762,502.524 949.248,496.97 931.41,480.116 921.62,473.698 889.26,441.338 526.262,441.338 503.07,435.53 485.34,433.646 469.654,433.736 442.464,437.902 427.47,450.142 416.266,461.782 398.94,486.286 392.204,493.022 392.204,572.016 450.676,630.486 468.076,626.3 486.988,626.042 505.434,630.226 521.066,637.564 534.834,647.992 545.232,659.67 554.466,676.178 559.216,691.078 560.936,706.62 559.216,725.456 554.466,740.356 546.13,755.48 532.386,770.746 519.684,779.868 502.302,787.324 485.342,790.578 469.704,790.492 454.39,787.324 437.008,779.868 421.858,768.542 410.56,755.48 403.564,743.364 397.476,725.456 395.754,706.62 397.476,691.078 400.734,680.766 331.716,611.746 326.514,605.052 322.394,595.104 321.338,586.692 329.212,586.692 329.212,478.346 331.64,467.1 337.284,458.858 414.564,382.592 423.086,379.062 429.212,378.346 904.708,378.384 915.182,380.774 922.85,385.898 979.918,442.912 1000,442.912 1000.15,427.204 1002.31,423.172 1006.34,421.016 1059.05,420.866 1062.07,421.464 1065.6,424.364 1066.93,428.74 1066.93,512.204 1064.62,517.772 1059.05,520.078 1006.34,519.926 1002.31,517.772 1000.15,513.74 1000,498.03 967.732,497.992 957.258,495.602 949.016,489.958 892.52,433.464 440.628,433.464 384.33,489.76 384.33,575.276 448.934,639.88 456.026,636.912 471.35,633.83 486.164,633.874 502.23,637.42 515.748,643.486 528.982,653.26 538.862,664.298 546.308,677.108 551.514,692.714 553.148,708.266 551.644,723.006 546.682,738.692 538.344,752.876 527.758,764.376 515.748,773.048 500.664,779.622 486.164,782.66 471.35,782.704 454.46,779.114 440.252,772.6 427.71,763.274 418.348,752.876 410.01,738.692 405.048,723.006 403.542,708.266 405.048,693.528 409.714,678.612 336.764,605.606 331.05,596.51 329.212,586.692" style="stroke:rgb(0,0,0);stroke-width:1px;fill:none;stroke-opacity:1;stroke-linecap:round;stroke-linejoin:round;;fill:none"/>
<polyline points="1142.71,512.202 1142.72,428.442 1148.6,419.648 1159.56,412.992 1208.66,412.992 1217.41,415.646 1221.75,419.99 1224.11,425.668 1224.41,477.842 1510.74,764.172 1742.34,764.172 1751.08,749.728 1760.44,739.33 1774.21,728.902 1791.38,720.974 1809.93,717.294 1825.57,717.382 1840.88,720.548 1858.27,728.004 1873.42,739.33 1883.82,751.01 1891.52,764.172 2123.12,764.172 2409.45,477.842 2409.45,428.74 2410.65,422.712 2414.06,417.604 2419.17,414.19 2425.2,412.992 2476.38,412.992 2482.4,414.19 2488.19,418.426 2488.19,522.516 2485.13,525.298 2479.45,527.65 2459.56,527.952 2158.72,828.146 2149.9,832.862 2137.79,835.038 1891.51,835.038 1883.82,848.202 1873.42,859.882 1859.65,870.308 1842.48,878.236 1825.57,881.83 1806.66,881.572 1789.84,877.646 1775.59,871.206 1760.44,859.882 1750.04,848.202 1742.34,835.038 1496.06,835.038 1483.96,832.862 1475.14,828.146 1174.3,527.952 1154.41,527.65 1148.73,525.298 1144.39,520.954 1142.71,512.202 1149.61,512.204 1149.61,428.74 1150.93,424.364 1154.47,421.464 1157.48,420.866 1208.66,420.866 1214.23,423.172 1216.53,428.74 1216.53,481.104 1507.48,772.046 1747.62,772.046 1755.96,756.328 1767.52,743.498 1778.84,735.272 1793.04,728.758 1809.93,725.168 1823.92,725.168 1839.25,728.25 1855.02,735.272 1867.56,744.598 1876.93,754.996 1886.24,772.046 2126.38,772.046 2417.32,481.104 2417.32,428.74 2419.63,423.172 2425.2,420.866 2476.38,420.866 2479.39,421.464 2482.92,424.364 2484.25,428.74 2484.25,512.204 2481.94,517.772 2476.38,520.078 2456.3,520.078 2153.73,822.06 2147.61,825.328 2137.79,827.164 1886.24,827.164 1877.89,842.882 1866.34,855.714 1853.6,864.762 1840.81,870.452 1823.92,874.042 1809.93,874.042 1794.61,870.96 1778.84,863.938 1766.29,854.612 1756.93,844.214 1747.62,827.164 1496.06,827.164 1489.94,826.448 1481.41,822.918 1177.56,520.078 1155.94,519.926 1151.91,517.772 1149.61,512.204" style="stroke:rgb(70,124,194);stroke-width:15.748031;fill:none;stroke-opacity:0.5;stroke-linecap:round;stroke-linejoin:round;;fill:none"/>
<polyline points="1142.71,512.202 1142.72,428.442 1148.6,419.648 1159.56,412.992 1208.66,412.992 1217.41,415.646 1221.75,419.99 1224.11,425.668 1224.41,477.842 1510.74,764.172 1742.34,764.172 1751.08,749.728 1760.44,739.33 1774.21,728.902 1791.38,720.974 1809.93,717.294 1825.57,717.382 1840.88,720.548 1858.27,728.004 1873.42,739.33 1883.82,751.01 1891.52,764.172 2123.12,764.172 2409.45,477.842 2409.45,428.74 2410.65,422.712 2414.06,417.604 2419.17,414.19 2425.2,412.992 2476.38,412.992 2482.4,414.19 2488.19,418.426 2488.19,522.516 2485.13,525.298 2479.45,527.65 2459.56,527.952 2158.72,828.146 2149.9,832.862 2137.79,835.038 1891.51,835.038 1883.82,848.202 1873.42,859.882 1859.65,870.308 1842.48,878.236 1825.57,881.83 1806.66,881.572 1789.84,877.646 1775.59,871.206 1760.44,859.882 1750.04,848.202 1742.34,835.038 1496.06,835.038 1483.96,832.862 1475.14,828.146 1174.3,527.952 1154.41,527.65 1148.73,525.298 1144.39,520.954 1142.71,512.202 1149.61,512.204 1149.61,428.74 1150.93,424.364 1154.47,421.464 1157.48,420.866 1208.66,420.866 1214.23,423.172 1216.53,428.74 1216.53,481.104 1507.48,772.046 1747.62,772.046 1755.96,756.328 1767.52,743.498 1778.84,735.272 1793.04,728.758 1809.93,725.168 1823.92,725.168 1839.25,728.25 1855.02,735.272 1867.56,744.598 1876.93,754.996 1886.24,772.046 2126.38,772.046 2417.32,481.104 2417.32,428.74 2419.63,423.172 2425.2,420.866 2476.38,420.866 2479.39,421.464 2482.92,424.364 2484.25,428.74 2484.25,512.204 2481.94,517.772 2476.38,520.078 2456.3,520.078 2153.73,822.06 2147.61,825.328 2137.79,827.164 1886.24,827.164 1877.89,842.882 1866.34,855.714 1853.6,864.762 1840.81,870.452 1823.92,874.042 1809.93,874.042 1794.61,870.96 1778.84,863.938 1766.29,854.612 1756.93,844.214 1747.62,827.164 1496.06,827.164 1489.94,826.448 1481.41,822.918 1177.56,520.078 1155.94,519.926 1151.91,517.772 1149.61,512.204" style="stroke:rgb(0,0,0);stroke-width:1px;fill:none;stroke-opacity:1;stroke-linecap:round;stroke-linejoin:round;;fill:none"/>
<polyline points="2560.04,685.432 2560.04,601.968 2561.71,593.218 2566.05,588.874 2571.73,586.522 2625.98,586.22 2632.01,587.418 2637.12,590.832 2640.53,595.942 2641.73,608.268 3025.87,608.266 3040.24,614.698 3052.39,623.676 3175.53,746.818 3184.51,758.964 3190.94,773.342 3190.94,789.37 3206.97,789.37 3222.44,795.776 3228.08,799.478 3231.78,805.118 3238.19,820.586 3238.17,939.182 3232.01,948.55 3222.44,954.724 3088.58,954.724 3082.56,953.524 3077.45,950.112 3074.03,945.002 3072.83,938.976 3073.14,802.044 3077.45,793.982 3085.51,789.672 3120.08,789.37 3120.08,780.424 3018.79,679.134 2641.73,679.134 2641.43,688.504 2639.08,694.182 2634.73,698.526 2629.06,700.878 2571.73,700.878 2566.05,698.526 2560.95,692.772 2560.04,685.432 2566.93,685.432 2567.08,600.432 2569.23,596.4 2573.27,594.244 2629,594.694 2631.55,596.4 2633.71,600.432 2633.86,616.142 3033.46,616.14 3043.28,617.978 3052.95,624.212 3177.97,749.816 3182.65,761.136 3183.07,797.244 3222.44,797.244 3226.17,798.224 3229.34,801.396 3230.31,805.118 3230.31,938.976 3228.99,943.35 3226.81,945.522 3222.44,946.85 3088.58,946.85 3085.57,946.25 3082.03,943.35 3080.71,938.976 3080.86,803.582 3083.01,799.55 3087.05,797.394 3127.95,797.244 3127.95,777.162 3022.05,671.26 2633.86,671.26 2633.71,686.968 2631.55,691 2627.52,693.154 2573.27,693.154 2569.23,691 2566.93,685.432" style="stroke:rgb(84,248,27);stroke-width:15.748031;fill:none;stroke-opacity:0.5;stroke-linecap:round;stroke-linejoin:round;;fill:none"/>
<polyline points="2560.04,685.432 2560.04,601.968 2561.71,593.218 2566.05,588.874 2571.73,586.522 2625.98,586.22 2632.01,587.418 2637.12,590.832 2640.53,595.942 2641.73,608.268 3025.87,608.266 3040.24,614.698 3052.39,623.676 3175.53,746.818 3184.51,758.964 3190.94,773.342 3190.94,789.37 3206.97,789.37 3222.44,795.776 3228.08,799.478 3231.78,805.118 3238.19,820.586 3238.17,939.182 3232.01,948.55 3222.44,954.724 3088.58,954.724 3082.56,953.524 3077.45,950.112 3074.03,945.002 3072.83,938.976 3073.14,802.044 3077.45,793.982 3085.51,789.672 3120.08,789.37 3120.08,780.424 3018.79,679.134 2641.73,679.134 2641.43,688.504 2639.08,694.182 2634.73,698.526 2629.06,700.878 2571.73,700.878 2566.05,698.526 2560.95,692.772 2560.04,685.432 2566.93,685.432 2567.08,600.432 2569.23,596.4 2573.27,594.244 2629,594.694 2631.55,596.4 2633.71,600.432 2633.86,616.142 3033.46,616.14 3043.28,617.978 3052.95,624.212 3177.97,749.816 3182.65,761.136 3183.07,797.244 3222.44,797.244 3226.17,798.224 3229.34,801.396 3230.31,805.118 3230.31,938.976 3228.99,943.35 3226.81,945.522 3222.44,946.85 3088.58,946.85 3085.57,946.25 3082.03,943.35 3080.71,938.976 3080.86,803.582 3083.01,799.55 3087.05,797.394 3127.95,797.244 3127.95,777.162 3022.05,671.26 2633.86,671.26 2633.71,686.968 2631.55,691 2627.52,693.154 2573.27,693.154 2569.23,691 2566.93,685.432" style="stroke:rgb(0,0,0);stroke-width:1px;fill:none;stroke-opacity:1;stroke-linecap:round;stroke-linejoin:round;;fill:none"/>
<polyline points="230.314,895.668 230.314,491.42 232.49,479.316 235.49,473.06 240.692,466.366 411.246,295.81 417.942,290.61 427.89,286.488 436.302,285.432 1633.43,285.508 1643.99,287.608 1655.8,294.772 1725.31,364.172 1734.25,364.172 1734.25,332.676 1735.45,326.65 1741.25,319.582 1750,316.928 1886.93,317.23 1894.99,321.54 1899.3,329.604 1899.61,364.172 1908.55,364.172 1978.06,294.772 1987.01,288.79 1996.58,285.886 2494.09,285.432 2506.97,287.904 2516.39,293.41 2525.59,295.726 2525.64,343.018 2534.54,348.314 2552.19,366.08 2557.66,374.412 2559.97,380.958 2561.02,389.37 2561.02,416.542 2562.99,418.426 2562.99,522.518 2561.02,524.4 2561.02,594.416 2560.04,601.968 2560.04,685.432 2561.02,692.982 2560.57,901.644 2555.28,915.464 2525.59,935.28 2526.5,976.802 2519.15,987.654 2492.52,1014.28 2551.68,1074.12 2555.85,1079.67 2559.97,1089.62 2561.02,1098.03 2561.02,1125.2 2562.99,1127.09 2562.99,1231.18 2557.21,1235.41 2551.18,1236.61 2500,1236.61 2493.97,1235.41 2488.19,1231.18 2488.19,1127.09 2490.16,1125.2 2490.16,1112.71 2430.99,1053.44 2425.01,1044.48 2422.11,1034.91 2421.65,964.764 2422.71,956.352 2425.01,949.808 2432.03,939.71 2490.16,881.584 2491.14,601.968 2490.16,594.424 2490.16,524.4 2488.19,522.516 2488.19,418.426 2490.16,416.542 2490.16,404.046 2442.41,356.298 2016.64,356.298 1944.15,428.146 1935.33,432.862 1928.61,434.584 1899.61,435.038 1899.3,469.606 1896.95,475.284 1892.61,479.628 1883.86,482.282 1852.36,482.282 1852.36,525.354 1859.65,528.902 1873.42,539.33 1883.82,551.01 1891.71,564.508 1898.06,584.044 1899.61,599.606 1898.06,615.166 1891.71,634.702 1883.82,648.202 1873.42,659.882 1859.65,670.308 1844.02,677.646 1823.92,681.916 1808.29,681.83 1791.38,678.236 1777.06,671.954 1762.89,662.084 1749.14,646.82 1740.81,631.694 1736.06,616.796 1734.25,599.606 1735.8,584.044 1741.4,565.978 1749.14,552.392 1760.44,539.33 1774.21,528.902 1781.5,525.354 1781.5,482.282 1750,482.282 1741.25,479.628 1736.91,475.284 1734.55,469.606 1734.25,435.038 1705.25,434.584 1698.52,432.862 1689.7,428.146 1617.21,356.298 1216.25,356.298 1159.56,412.99 1148.6,419.648 1142.72,428.442 1143.7,589.772 1145.67,591.654 1145.67,695.746 1143.7,697.628 1143.7,759.202 1145.59,768.734 1145.58,794.952 1142.61,807.718 1135.11,818.472 1126.48,824.74 1112.29,828.632 1109.65,828.632 1101.48,824.582 1078.7,808.776 1078.79,774.414 1072.83,757.038 1072.83,697.63 1070.86,695.744 1070.86,591.656 1072.83,589.77 1073.29,408.788 1075.01,402.068 1079.73,393.246 1116.03,356.298 450.978,356.298 436.808,370.468 422.432,376.9 413.148,383.288 336.748,459.418 327.766,471.566 321.336,485.94 301.18,506.098 301.18,880.99 320.866,900.676 339.476,882.174 348.428,876.192 361.842,872.91 403.758,872.834 412.496,858.39 421.858,847.992 438.476,835.918 452.796,829.636 468.076,826.3 486.988,826.042 505.434,830.226 519.684,836.666 532.386,845.788 544.196,858.39 553.126,873.17 558.79,889.486 560.936,909.914 559.216,925.456 554.466,940.356 544.196,958.144 533.668,969.708 521.066,978.97 503.894,986.898 486.988,990.492 471.35,990.578 451.258,986.306 437.008,979.868 424.304,970.746 412.496,958.144 403.758,943.7 378.062,943.7 356.298,965.464 356.298,1329.81 650.502,1624.01 951.266,1624.02 1043.28,1532 1049.26,1528.07 1062.1,1522.55 1068.82,1517.52 1068.84,1476.87 1072.83,1475.3 1072.83,1406.29 1070.86,1404.4 1070.86,1300.8 1097.99,1294.88 1133.86,1294.88 1142.61,1297.54 1145.67,1300.32 1145.67,1404.41 1143.7,1406.29 1143.7,1517.12 1142.64,1525.54 1140.34,1532.08 1133.32,1542.18 990.998,1684.5 984.302,1689.7 974.354,1693.82 965.942,1694.88 635.826,1694.88 627.414,1693.82 620.87,1691.52 610.77,1684.5 295.81,1369.54 290.61,1362.85 287.608,1356.59 285.432,1344.49 285.432,965.464 237.206,916.594 232.49,907.772 230.39,897.212 230.314,895.668 238.188,895.668 238.604,486.808 240.616,480.176 246.26,471.932 417.386,300.86 426.482,295.144 436.302,293.306 1632.66,293.344 1643.13,295.734 1650.8,300.86 1722.04,372.046 1742.13,372.046 1742.28,331.14 1744.43,327.108 1750,324.802 1885.39,324.954 1889.43,327.108 1891.58,331.14 1891.73,372.046 1911.81,372.046 1983.05,300.86 1990.72,295.734 2001.2,293.344 2494.09,293.306 2505.3,295.688 2513.32,301.236 2519.55,301.754 2525.56,305.382 2525.55,336.294 2522.04,338.956 2515.65,340.458 2545.08,369.882 2550.72,378.124 2553.11,388.598 2553.15,421.148 2557.73,424.364 2559.05,428.74 2559.05,512.204 2557.73,516.578 2553.15,519.796 2553.11,897.032 2551.31,906.08 2548.04,912.192 2525.54,935.282 2525.59,966.33 2520.67,969.48 2517.62,976.894 2513.58,982.086 2484.64,1011.02 2484.64,1018.11 2545.08,1078.54 2551.31,1088.21 2553.15,1098.03 2553.15,1129.81 2557.73,1133.03 2559.05,1137.4 2559.05,1220.87 2556.75,1226.43 2551.18,1228.74 2500,1228.74 2495.62,1227.41 2493.45,1225.24 2492.13,1220.87 2492.13,1137.4 2493.45,1133.03 2498.03,1129.81 2498.03,1109.45 2437.08,1048.44 2431.95,1040.77 2429.94,1034.14 2429.53,964.764 2431.95,953.52 2437.6,945.278 2498.03,884.846 2498.03,519.796 2493.45,516.578 2492.13,512.204 2492.13,428.74 2493.45,424.364 2498.03,421.148 2498.03,400.784 2445.67,348.424 2013.38,348.424 1937.88,422.918 1929.35,426.448 1924,427.126 1891.73,427.164 1891.73,466.534 1890.4,470.91 1888.23,473.082 1883.86,474.408 1844.49,474.408 1844.49,530.548 1854.28,534.796 1866.34,543.498 1877.89,556.328 1885.56,569.95 1889.88,583.256 1891.69,600.428 1890.1,615.158 1885.56,629.262 1877.89,642.882 1867.56,654.612 1853.6,664.762 1840.04,670.748 1823.92,674.042 1808.3,673.87 1793.81,670.748 1780.26,664.762 1767.52,655.714 1755.96,642.882 1748.3,629.262 1743.76,615.158 1742.13,599.606 1743.63,584.868 1748.97,568.446 1756.93,554.996 1766.88,544.016 1779.58,534.796 1789.37,530.548 1789.37,474.408 1750,474.408 1745.62,473.082 1742.72,469.548 1742.13,466.534 1742.13,427.164 1709.86,427.126 1700.81,425.328 1695.98,422.918 1620.47,348.424 1212.99,348.424 1135.83,425.588 1135.83,594.376 1140.4,597.594 1141.73,601.968 1141.73,685.432 1140.4,689.806 1135.83,693.024 1135.83,760.534 1137.76,769.506 1137.75,794.13 1135.41,804.516 1129.26,813.204 1123.28,817.548 1112.29,820.758 1101.72,819.516 1091.01,812.976 1083.31,811.942 1078.7,808.734 1078.7,777.804 1081.77,775.458 1080.71,768.308 1080.71,693.024 1076.13,689.806 1074.8,685.432 1074.8,601.968 1076.13,597.594 1080.71,594.376 1080.71,414.172 1082.55,404.354 1088.26,395.258 1135.04,348.424 447.716,348.424 293.306,502.836 293.306,884.252 320.866,911.812 343.898,888.78 352.14,883.136 363.384,880.708 409.032,880.708 418.348,863.658 428.292,852.678 440.252,843.934 456.026,836.912 470.526,833.874 486.164,833.874 502.23,837.42 515.748,843.486 527.758,852.158 538.344,863.658 546.978,878.612 551.514,892.714 553.106,909.09 551.644,923.006 546.978,937.922 538.344,952.876 528.398,963.856 516.438,972.6 500.664,979.622 486.164,982.66 470.526,982.66 456.026,979.622 441.678,973.422 428.934,964.376 418.348,952.876 409.032,935.826 374.8,935.826 348.424,962.202 348.424,1333.07 647.242,1631.89 954.526,1631.89 1068.9,1517.51 1068.86,1486.54 1074.93,1482.86 1080.71,1482.36 1080.71,1401.69 1076.13,1398.47 1074.8,1394.09 1074.8,1310.63 1076.13,1306.25 1079.66,1303.35 1082.68,1302.76 1133.86,1302.76 1138.23,1304.08 1140.4,1306.25 1141.73,1310.63 1141.73,1394.09 1140.4,1398.47 1135.83,1401.69 1135.83,1517.12 1133.4,1528.37 1127.75,1536.61 985.43,1678.94 980.59,1682.76 972.068,1686.29 635.826,1687.01 624.582,1684.58 616.338,1678.94 301.378,1363.97 295.734,1355.73 293.306,1344.49 293.306,962.202 245.74,914.582 240.024,905.486 238.188,895.668" style="stroke:rgb(232,231,141);stroke-width:15.748031;fill:none;stroke-opacity:0.5;stroke-linecap:round;stroke-linejoin:round;;fill:none"/>
<polyline points="230.314,895.668 230.314,491.42 232.49,479.316 235.49,473.06 240.692,466.366 411.246,295.81 417.942,290.61 427.89,286.488 436.302,285.432 1633.43,285.508 1643.99,287.608 1655.8,294.772 1725.31,364.172 1734.25,364.172 1734.25,332.676 1735.45,326.65 1741.25,319.582 1750,316.928 1886.93,317.23 1894.99,321.54 1899.3,329.604 1899.61,364.172 1908.55,364.172 1978.06,294.772 1987.01,288.79 1996.58,285.886 2494.09,285.432 2506.97,287.904 2516.39,293.41 2525.59,295.726 2525.64,343.018 2534.54,348.314 2552.19,366.08 2557.66,374.412 2559.97,380.958 2561.02,389.37 2561.02,416.542 2562.99,418.426 2562.99,522.518 2561.02,524.4 2561.02,594.416 2560.04,601.968 2560.04,685.432 2561.02,692.982 2560.57,901.644 2555.28,915.464 2525.59,935.28 2526.5,976.802 2519.15,987.654 2492.52,1014.28 2551.68,1074.12 2555.85,1079.67 2559.97,1089.62 2561.02,1098.03 2561.02,1125.2 2562.99,1127.09 2562.99,1231.18 2557.21,1235.41 2551.18,1236.61 2500,1236.61 2493.97,1235.41 2488.19,1231.18 2488.19,1127.09 2490.16,1125.2 2490.16,1112.71 2430.99,1053.44 2425.01,1044.48 2422.11,1034.91 2421.65,964.764 2422.71,956.352 2425.01,949.808 2432.03,939.71 2490.16,881.584 2491.14,601.968 2490.16,594.424 2490.16,524.4 2488.19,522.516 2488.19,418.426 2490.16,416.542 2490.16,404.046 2442.41,356.298 2016.64,356.298 1944.15,428.146 1935.33,432.862 1928.61,434.584 1899.61,435.038 1899.3,469.606 1896.95,475.284 1892.61,479.628 1883.86,482.282 1852.36,482.282 1852.36,525.354 1859.65,528.902 1873.42,539.33 1883.82,551.01 1891.71,564.508 1898.06,584.044 1899.61,599.606 1898.06,615.166 1891.71,634.702 1883.82,648.202 1873.42,659.882 1859.65,670.308 1844.02,677.646 1823.92,681.916 1808.29,681.83 1791.38,678.236 1777.06,671.954 1762.89,662.084 1749.14,646.82 1740.81,631.694 1736.06,616.796 1734.25,599.606 1735.8,584.044 1741.4,565.978 1749.14,552.392 1760.44,539.33 1774.21,528.902 1781.5,525.354 1781.5,482.282 1750,482.282 1741.25,479.628 1736.91,475.284 1734.55,469.606 1734.25,435.038 1705.25,434.584 1698.52,432.862 1689.7,428.146 1617.21,356.298 1216.25,356.298 1159.56,412.99 1148.6,419.648 1142.72,428.442 1143.7,589.772 1145.67,591.654 1145.67,695.746 1143.7,697.628 1143.7,759.202 1145.59,768.734 1145.58,794.952 1142.61,807.718 1135.11,818.472 1126.48,824.74 1112.29,828.632 1109.65,828.632 1101.48,824.582 1078.7,808.776 1078.79,774.414 1072.83,757.038 1072.83,697.63 1070.86,695.744 1070.86,591.656 1072.83,589.77 1073.29,408.788 1075.01,402.068 1079.73,393.246 1116.03,356.298 450.978,356.298 436.808,370.468 422.432,376.9 413.148,383.288 336.748,459.418 327.766,471.566 321.336,485.94 301.18,506.098 301.18,880.99 320.866,900.676 339.476,882.174 348.428,876.192 361.842,872.91 403.758,872.834 412.496,858.39 421.858,847.992 438.476,835.918 452.796,829.636 468.076,826.3 486.988,826.042 505.434,830.226 519.684,836.666 532.386,845.788 544.196,858.39 553.126,873.17 558.79,889.486 560.936,909.914 559.216,925.456 554.466,940.356 544.196,958.144 533.668,969.708 521.066,978.97 503.894,986.898 486.988,990.492 471.35,990.578 451.258,986.306 437.008,979.868 424.304,970.746 412.496,958.144 403.758,943.7 378.062,943.7 356.298,965.464 356.298,1329.81 650.502,1624.01 951.266,1624.02 1043.28,1532 1049.26,1528.07 1062.1,1522.55 1068.82,1517.52 1068.84,1476.87 1072.83,1475.3 1072.83,1406.29 1070.86,1404.4 1070.86,1300.8 1097.99,1294.88 1133.86,1294.88 1142.61,1297.54 1145.67,1300.32 1145.67,1404.41 1143.7,1406.29 1143.7,1517.12 1142.64,1525.54 1140.34,1532.08 1133.32,1542.18 990.998,1684.5 984.302,1689.7 974.354,1693.82 965.942,1694.88 635.826,1694.88 627.414,1693.82 620.87,1691.52 610.77,1684.5 295.81,1369.54 290.61,1362.85 287.608,1356.59 285.432,1344.49 285.432,965.464 237.206,916.594 232.49,907.772 230.39,897.212 230.314,895.668 238.188,895.668 238.604,486.808 240.616,480.176 246.26,471.932 417.386,300.86 426.482,295.144 436.302,293.306 1632.66,293.344 1643.13,295.734 1650.8,300.86 1722.04,372.046 1742.13,372.046 1742.28,331.14 1744.43,327.108 1750,324.802 1885.39,324.954 1889.43,327.108 1891.58,331.14 1891.73,372.046 1911.81,372.046 1983.05,300.86 1990.72,295.734 2001.2,293.344 2494.09,293.306 2505.3,295.688 2513.32,301.236 2519.55,301.754 2525.56,305.382 2525.55,336.294 2522.04,338.956 2515.65,340.458 2545.08,369.882 2550.72,378.124 2553.11,388.598 2553.15,421.148 2557.73,424.364 2559.05,428.74 2559.05,512.204 2557.73,516.578 2553.15,519.796 2553.11,897.032 2551.31,906.08 2548.04,912.192 2525.54,935.282 2525.59,966.33 2520.67,969.48 2517.62,976.894 2513.58,982.086 2484.64,1011.02 2484.64,1018.11 2545.08,1078.54 2551.31,1088.21 2553.15,1098.03 2553.15,1129.81 2557.73,1133.03 2559.05,1137.4 2559.05,1220.87 2556.75,1226.43 2551.18,1228.74 2500,1228.74 2495.62,1227.41 2493.45,1225.24 2492.13,1220.87 2492.13,1137.4 2493.45,1133.03 2498.03,1129.81 2498.03,1109.45 2437.08,1048.44 2431.95,1040.77 2429.94,1034.14 2429.53,964.764 2431.95,953.52 2437.6,945.278 2498.03,884.846 2498.03,519.796 2493.45,516.578 2492.13,512.204 2492.13,428.74 2493.45,424.364 2498.03,421.148 2498.03,400.784 2445.67,348.424 2013.38,348.424 1937.88,422.918 1929.35,426.448 1924,427.126 1891.73,427.164 1891.73,466.534 1890.4,470.91 1888.23,473.082 1883.86,474.408 1844.49,474.408 1844.49,530.548 1854.28,534.796 1866.34,543.498 1877.89,556.328 1885.56,569.95 1889.88,583.256 1891.69,600.428 1890.1,615.158 1885.56,629.262 1877.89,642.882 1867.56,654.612 1853.6,664.762 1840.04,670.748 1823.92,674.042 1808.3,673.87 1793.81,670.748 1780.26,664.762 1767.52,655.714 1755.96,642.882 1748.3,629.262 1743.76,615.158 1742.13,599.606 1743.63,584.868 1748.97,568.446 1756.93,554.996 1766.88,544.016 1779.58,534.796 1789.37,530.548 1789.37,474.408 1750,474.408 1745.62,473.082 1742.72,469.548 1742.13,466.534 1742.13,427.164 1709.86,427.126 1700.81,425.328 1695.98,422.918 1620.47,348.424 1212.99,348.424 1135.83,425.588 1135.83,594.376 1140.4,597.594 1141.73,601.968 1141.73,685.432 1140.4,689.806 1135.83,693.024 1135.83,760.534 1137.76,769.506 1137.75,794.13 1135.41,804.516 1129.26,813.204 1123.28,817.548 1112.29,820.758 1101.72,819.516 1091.01,812.976 1083.31,811.942 1078.7,808.734 1078.7,777.804 1081.77,775.458 1080.71,768.308 1080.71,693.024 1076.13,689.806 1074.8,685.432 1074.8,601.968 1076.13,597.594 1080.71,594.376 1080.71,414.172 1082.55,404.354 1088.26,395.258 1135.04,348.424 447.716,348.424 293.306,502.836 293.306,884.252 320.866,911.812 343.898,888.78 352.14,883.136 363.384,880.708 409.032,880.708 418.348,863.658 428.292,852.678 440.252,843.934 456.026,836.912 470.526,833.874 486.164,833.874 502.23,837.42 515.748,843.486 527.758,852.158 538.344,863.658 546.978,878.612 551.514,892.714 553.106,909.09 551.644,923.006 546.978,937.922 538.344,952.876 528.398,963.856 516.438,972.6 500.664,979.622 486.164,982.66 470.526,982.66 456.026,979.622 441.678,973.422 428.934,964.376 418.348,952.876 409.032,935.826 374.8,935.826 348.424,962.202 348.424,1333.07 647.242,1631.89 954.526,1631.89 1068.9,1517.51 1068.86,1486.54 1074.93,1482.86 1080.71,1482.36 1080.71,1401.69 1076.13,1398.47 1074.8,1394.09 1074.8,1310.63 1076.13,1306.25 1079.66,1303.35 1082.68,1302.76 1133.86,1302.76 1138.23,1304.08 1140.4,1306.25 1141.73,1310.63 1141.73,1394.09 1140.4,1398.47 1135.83,1401.69 1135.83,1517.12 1133.4,1528.37 1127.75,1536.61 985.43,1678.94 980.59,1682.76 972.068,1686.29 635.826,1687.01 624.582,1684.58 616.338,1678.94 301.378,1363.97 295.734,1355.73 293.306,1344.49 293.306,962.202 245.74,914.582 240.024,905.486 238.188,895.668" style="stroke:rgb(0,0,0);stroke-width:1px;fill:none;stroke-opacity:1;stroke-linecap:round;stroke-linejoin:round;;fill:none"/>
<polyline points="395.668,1175.2 395.668,1041.34 396.868,1035.31 400.28,1030.2 405.39,1026.79 411.416,1025.59 545.274,1025.59 551.302,1026.79 556.41,1030.2 560.72,1038.27 561.022,1140.83 563.888,1143.7 992.126,1143.7 993.324,1131.37 996.738,1126.27 1001.85,1122.85 1007.87,1121.65 1062.13,1121.96 1067.8,1124.31 1072.15,1128.65 1073.82,1137.4 1073.82,1221.16 1069.86,1227.82 1064.35,1232.91 1033.88,1233.68 1018.93,1236.61 1007.87,1236.61 999.124,1233.96 994.78,1229.61 992.428,1223.94 992.126,1214.57 547.668,1214.49 540.8,1213.51 530.852,1209.39 510.912,1190.94 411.416,1190.94 405.39,1189.75 400.28,1186.33 396.868,1181.22 395.668,1175.2 403.542,1175.2 403.542,1041.34 405.848,1035.77 411.416,1033.46 545.274,1033.46 549.65,1034.79 552.998,1039.8 553.148,1144.1 560.628,1151.57 1000,1151.57 1000.15,1135.86 1002.31,1131.83 1004.86,1130.13 1060.59,1129.68 1064.62,1131.83 1066.93,1137.4 1066.33,1223.88 1063.43,1227.41 1059.05,1228.74 1006.34,1228.59 1002.31,1226.43 1000.15,1222.4 1000,1206.69 548.44,1206.65 539.392,1204.85 533.28,1201.59 514.174,1183.07 411.416,1183.07 405.848,1180.76 403.542,1175.2" style="stroke:rgb(118,90,46);stroke-width:15.748031;fill:none;stroke-opacity:0.5;stroke-linecap:round;stroke-linejoin:round;;fill:none"/>
<polyline points="395.668,1175.2 395.668,1041.34 396.868,1035.31 400.28,1030.2 405.39,1026.79 411.416,1025.59 545.274,1025.59 551.302,1026.79 556.41,1030.2 560.72,1038.27 561.022,1140.83 563.888,1143.7 992.126,1143.7 993.324,1131.37 996.738,1126.27 1001.85,1122.85 1007.87,1121.65 1062.13,1121.96 1067.8,1124.31 1072.15,1128.65 1073.82,1137.4 1073.82,1221.16 1069.86,1227.82 1064.35,1232.91 1033.88,1233.68 1018.93,1236.61 1007.87,1236.61 999.124,1233.96 994.78,1229.61 992.428,1223.94 992.126,1214.57 547.668,1214.49 540.8,1213.51 530.852,1209.39 510.912,1190.94 411.416,1190.94 405.39,1189.75 400.28,1186.33 396.868,1181.22 395.668,1175.2 403.542,1175.2 403.542,1041.34 405.848,1035.77 411.416,1033.46 545.274,1033.46 549.65,1034.79 552.998,1039.8 553.148,1144.1 560.628,1151.57 1000,1151.57 1000.15,1135.86 1002.31,1131.83 1004.86,1130.13 1060.59,1129.68 1064.62,1131.83 1066.93,1137.4 1066.33,1223.88 1063.43,1227.41 1059.05,1228.74 1006.34,1228.59 1002.31,1226.43 1000.15,1222.4 1000,1206.69 548.44,1206.65 539.392,1204.85 533.28,1201.59 514.174,1183.07 411.416,1183.07 405.848,1180.76 403.542,1175.2" style="stroke:rgb(0,0,0);stroke-width:1px;fill:none;stroke-opacity:1;stroke-linecap:round;stroke-linejoin:round;;fill:none"/>
<polyline points="395.754,509.914 397.902,527.048 402.816,541.894 411.458,556.864 421.858,568.542 438.476,580.616 454.39,587.324 469.704,590.492 488.616,590.234 505.434,586.306 519.684,579.868 534.834,568.542 545.232,556.864 552.932,543.7 899.496,543.7 992.126,636.33 992.126,685.432 993.324,691.458 998.03,697.63 998.03,802.556 1000.21,814.66 1003.21,820.916 1008.41,827.612 1072.83,892.036 1073.82,1221.16 1069.86,1227.82 1064.35,1232.91 1033.88,1233.68 1018.94,1236.61 1004.92,1250.33 999.088,1262.85 998.03,1271.26 998.03,1298.43 993.324,1304.6 992.126,1310.63 992.126,1394.09 993.324,1400.12 998.03,1406.29 998.116,1499.68 1000.5,1510.9 1004.8,1518.86 1014.36,1527.82 1024.11,1532.16 1031.41,1533.36 1042.82,1532.16 1064.38,1521.18 1068.82,1517.52 1068.88,1516.07 1068.9,1406.29 1070.86,1404.41 1070.86,1300.8 1077.95,1298.47 1096.04,1295.48 1101.86,1291.84 1136.81,1256.36 1141.52,1247.54 1143.7,1235.43 1142.71,1220.87 1142.71,1137.4 1143.7,1129.85 1143.25,871.976 1140.34,862.402 1136.81,856.432 1109.65,828.632 1099.19,823.178 1078.7,808.776 1078.79,774.414 1072.83,757.034 1068.9,753.038 1068.9,697.628 1070.86,695.746 1070.86,591.654 1067.8,588.874 1062.13,586.522 1042.24,586.22 961.054,505.04 949.248,496.97 931.41,480.116 919.556,473.288 552.932,472.834 544.196,458.39 534.834,447.992 526.258,441.336 501.028,435.206 471.348,433.646 442.464,437.902 438.142,441.026 425.902,451.63 414.8,463.5 398.942,486.282 397.218,492.706 395.754,509.914 403.586,509.09 405.178,492.714 409.714,478.612 417.38,464.99 427.71,453.26 440.944,443.486 454.46,437.42 471.35,433.83 486.164,433.874 500.664,436.912 515.748,443.486 527.758,452.158 538.344,463.658 547.658,480.708 918.784,481.124 925.418,483.136 933.66,488.78 1038.97,594.094 1060.59,594.244 1065.6,597.594 1066.93,601.968 1066.93,685.432 1065.6,689.806 1061.02,693.024 1061.02,756.3 1070.36,766.484 1073.84,774.692 1078.7,777.806 1078.66,808.776 1128.27,858.444 1133.4,866.114 1135.41,872.748 1135.83,1235.43 1133.99,1245.25 1130.72,1251.36 1093.88,1288.2 1082.56,1292.89 1061.02,1293.31 1061.02,1303.04 1065.6,1306.25 1066.93,1310.63 1066.93,1394.09 1065.6,1398.47 1061.02,1401.69 1061.02,1482.47 1068.86,1486.54 1068.82,1517.43 1061.92,1521.31 1047.58,1521.65 1041.18,1524.45 1031.41,1525.48 1024.18,1523.95 1015.02,1518.51 1008.66,1509.97 1006.38,1502.95 1005.9,1401.69 1001.33,1398.47 1000,1394.09 1000,1310.63 1001.33,1306.25 1005.9,1303.04 1006.62,1265.13 1010.15,1256.61 1013.98,1251.77 1023.04,1243.29 1032.85,1238.91 1066.54,1238.19 1080.71,1224.02 1080.71,888.776 1013.98,822.044 1007.74,812.376 1005.9,802.556 1005.9,693.024 1002.31,691 1000.15,686.968 1000,633.068 902.756,535.826 547.658,535.826 538.344,552.876 528.398,563.856 516.438,572.6 500.664,579.622 485.342,582.704 470.526,582.66 455.23,579.408 441.678,573.422 427.71,563.274 417.38,551.544 409.714,537.922 405.178,523.82 403.586,509.09" style="stroke:rgb(99,51,159);stroke-width:15.748031;fill:none;stroke-opacity:0.5;stroke-linecap:round;stroke-linejoin:round;;fill:none"/>
<polyline points="395.754,509.914 397.902,527.048 402.816,541.894 411.458,556.864 421.858,568.542 438.476,580.616 454.39,587.324 469.704,590.492 488.616,590.234 505.434,586.306 519.684,579.868 534.834,568.542 545.232,556.864 552.932,543.7 899.496,543.7 992.126,636.33 992.126,685.432 993.324,691.458 998.03,697.63 998.03,802.556 1000.21,814.66 1003.21,820.916 1008.41,827.612 1072.83,892.036 1073.82,1221.16 1069.86,1227.82 1064.35,1232.91 1033.88,1233.68 1018.94,1236.61 1004.92,1250.33 999.088,1262.85 998.03,1271.26 998.03,1298.43 993.324,1304.6 992.126,1310.63 992.126,1394.09 993.324,1400.12 998.03,1406.29 998.116,1499.68 1000.5,1510.9 1004.8,1518.86 1014.36,1527.82 1024.11,1532.16 1031.41,1533.36 1042.82,1532.16 1064.38,1521.18 1068.82,1517.52 1068.88,1516.07 1068.9,1406.29 1070.86,1404.41 1070.86,1300.8 1077.95,1298.47 1096.04,1295.48 1101.86,1291.84 1136.81,1256.36 1141.52,1247.54 1143.7,1235.43 1142.71,1220.87 1142.71,1137.4 1143.7,1129.85 1143.25,871.976 1140.34,862.402 1136.81,856.432 1109.65,828.632 1099.19,823.178 1078.7,808.776 1078.79,774.414 1072.83,757.034 1068.9,753.038 1068.9,697.628 1070.86,695.746 1070.86,591.654 1067.8,588.874 1062.13,586.522 1042.24,586.22 961.054,505.04 949.248,496.97 931.41,480.116 919.556,473.288 552.932,472.834 544.196,458.39 534.834,447.992 526.258,441.336 501.028,435.206 471.348,433.646 442.464,437.902 438.142,441.026 425.902,451.63 414.8,463.5 398.942,486.282 397.218,492.706 395.754,509.914 403.586,509.09 405.178,492.714 409.714,478.612 417.38,464.99 427.71,453.26 440.944,443.486 454.46,437.42 471.35,433.83 486.164,433.874 500.664,436.912 515.748,443.486 527.758,452.158 538.344,463.658 547.658,480.708 918.784,481.124 925.418,483.136 933.66,488.78 1038.97,594.094 1060.59,594.244 1065.6,597.594 1066.93,601.968 1066.93,685.432 1065.6,689.806 1061.02,693.024 1061.02,756.3 1070.36,766.484 1073.84,774.692 1078.7,777.806 1078.66,808.776 1128.27,858.444 1133.4,866.114 1135.41,872.748 1135.83,1235.43 1133.99,1245.25 1130.72,1251.36 1093.88,1288.2 1082.56,1292.89 1061.02,1293.31 1061.02,1303.04 1065.6,1306.25 1066.93,1310.63 1066.93,1394.09 1065.6,1398.47 1061.02,1401.69 1061.02,1482.47 1068.86,1486.54 1068.82,1517.43 1061.92,1521.31 1047.58,1521.65 1041.18,1524.45 1031.41,1525.48 1024.18,1523.95 1015.02,1518.51 1008.66,1509.97 1006.38,1502.95 1005.9,1401.69 1001.33,1398.47 1000,1394.09 1000,1310.63 1001.33,1306.25 1005.9,1303.04 1006.62,1265.13 1010.15,1256.61 1013.98,1251.77 1023.04,1243.29 1032.85,1238.91 1066.54,1238.19 1080.71,1224.02 1080.71,888.776 1013.98,822.044 1007.74,812.376 1005.9,802.556 1005.9,693.024 1002.31,691 1000.15,686.968 1000,633.068 902.756,535.826 547.658,535.826 538.344,552.876 528.398,563.856 516.438,572.6 500.664,579.622 485.342,582.704 470.526,582.66 455.23,579.408 441.678,573.422 427.71,563.274 417.38,551.544 409.714,537.922 405.178,523.82 403.586,509.09" style="stroke:rgb(0,0,0);stroke-width:1px;fill:none;stroke-opacity:1;stroke-linecap:round;stroke-linejoin:round;;fill:none"/>
<polyline points="2525.53,943.082 2525.59,966.314 2530.86,969.682 2537.68,970.352 2572.83,1005.51 2572.83,1129.81 2568.26,1133.03 2566.93,1137.4 2567.53,1223.88 2570.43,1227.41 2574.8,1228.74 2627.52,1228.59 2631.55,1226.43 2633.86,1220.87 2633.86,1137.4 2632.53,1133.03 2627.95,1129.81 2627.95,1095.15 2636.79,1098.89 2642.91,1099.61 3086.2,1099.61 3094.99,1116.01 3104.88,1127.05 3117.42,1136.38 3131.63,1142.89 3147.69,1146.44 3163.33,1146.44 3177.83,1143.4 3192.18,1137.2 3204.92,1128.15 3215.51,1116.66 3224.14,1101.7 3228.81,1086.78 3230.31,1072.05 3228.81,1057.31 3224.14,1042.39 3332.48,934.054 3338.12,925.812 3340.55,914.566 3340.13,840.666 3338.12,834.032 3332.48,825.79 2954.12,448.018 2948,444.75 2938.19,442.912 2633.86,442.912 2633.71,427.204 2631.55,423.172 2627.95,421.148 2627.95,364.172 2625.52,352.926 2619.88,344.684 2575.96,300.826 2566.96,295.136 2554.82,293.43 2545.33,295.974 2537.96,301.234 2531.63,301.754 2525.56,305.364 2525.55,336.292 2530.16,339.502 2537.78,340.534 2572.83,375.588 2572.83,421.148 2568.26,424.364 2566.93,428.74 2566.93,512.204 2569.23,517.772 2574.8,520.078 2629,519.478 2631.55,517.772 2633.71,513.74 2633.86,498.03 2926.77,498.03 3285.43,856.694 3285.43,903.15 3184.92,1003.66 3177.83,1000.69 3162.51,997.61 3147.69,997.654 3131.63,1001.2 3117.42,1007.71 3104.88,1017.04 3094.99,1028.08 3086.2,1044.49 2654.33,1044.49 2627.95,1018.11 2627.54,989.48 2622.85,978.162 2572.76,928.158 2561.4,923.566 2549.17,924.422 2543.86,926.644 2538,931.116 2531.26,931.788 2526.75,934.204 2525.59,935.334 2525.53,943.082" style="stroke:rgb(201,154,102);stroke-width:15.748031;fill:none;stroke-opacity:0.5;stroke-linecap:round;stroke-linejoin:round;;fill:none"/>
<polyline points="2525.53,943.082 2525.59,966.314 2530.86,969.682 2537.68,970.352 2572.83,1005.51 2572.83,1129.81 2568.26,1133.03 2566.93,1137.4 2567.53,1223.88 2570.43,1227.41 2574.8,1228.74 2627.52,1228.59 2631.55,1226.43 2633.86,1220.87 2633.86,1137.4 2632.53,1133.03 2627.95,1129.81 2627.95,1095.15 2636.79,1098.89 2642.91,1099.61 3086.2,1099.61 3094.99,1116.01 3104.88,1127.05 3117.42,1136.38 3131.63,1142.89 3147.69,1146.44 3163.33,1146.44 3177.83,1143.4 3192.18,1137.2 3204.92,1128.15 3215.51,1116.66 3224.14,1101.7 3228.81,1086.78 3230.31,1072.05 3228.81,1057.31 3224.14,1042.39 3332.48,934.054 3338.12,925.812 3340.55,914.566 3340.13,840.666 3338.12,834.032 3332.48,825.79 2954.12,448.018 2948,444.75 2938.19,442.912 2633.86,442.912 2633.71,427.204 2631.55,423.172 2627.95,421.148 2627.95,364.172 2625.52,352.926 2619.88,344.684 2575.96,300.826 2566.96,295.136 2554.82,293.43 2545.33,295.974 2537.96,301.234 2531.63,301.754 2525.56,305.364 2525.55,336.292 2530.16,339.502 2537.78,340.534 2572.83,375.588 2572.83,421.148 2568.26,424.364 2566.93,428.74 2566.93,512.204 2569.23,517.772 2574.8,520.078 2629,519.478 2631.55,517.772 2633.71,513.74 2633.86,498.03 2926.77,498.03 3285.43,856.694 3285.43,903.15 3184.92,1003.66 3177.83,1000.69 3162.51,997.61 3147.69,997.654 3131.63,1001.2 3117.42,1007.71 3104.88,1017.04 3094.99,1028.08 3086.2,1044.49 2654.33,1044.49 2627.95,1018.11 2627.54,989.48 2622.85,978.162 2572.76,928.158 2561.4,923.566 2549.17,924.422 2543.86,926.644 2538,931.116 2531.26,931.788 2526.75,934.204 2525.59,935.334 2525.53,943.082" style="stroke:rgb(0,0,0);stroke-width:1px;fill:none;stroke-opacity:1;stroke-linecap:round;stroke-linejoin:round;;fill:none"/>
<polyline points="2525.53,303.062 2525.64,343.018 2534.54,348.314 2564.96,378.848 2564.96,416.542 2562.99,418.428 2562.99,522.514 2566.05,525.298 2574.8,527.952 2629.06,527.65 2634.73,525.298 2639.08,520.954 2641.43,515.276 2641.73,505.904 2923.51,505.904 3025.87,608.264 3040.24,614.698 3052.39,623.676 3175,746.258 3184.51,758.964 3190.94,773.34 3206.97,789.368 3222.44,795.776 3228.08,799.478 3231.78,805.118 3238.19,820.584 3277.56,859.954 3277.56,899.89 3237.98,939.466 3232.01,948.55 3222.93,954.518 3183.18,994.266 3162.51,989.736 3146.87,989.822 3128.42,994.006 3112.79,1001.34 3101.47,1009.57 3088.62,1023.45 3080.92,1036.61 2657.59,1036.61 2635.83,1014.85 2634.77,985.682 2632.47,979.136 2626.49,970.184 2577.72,922.038 2568.22,917.198 2555.39,915.402 2525.59,935.28 2525.63,970.244 2526.66,976.358 2534.31,978.12 2564.96,1008.77 2564.96,1125.2 2562.99,1127.09 2563.67,1232 2568.78,1235.41 2574.8,1236.61 2625.98,1236.61 2634.73,1233.96 2639.08,1229.61 2641.73,1220.87 2641.73,1137.4 2640.53,1131.37 2635.83,1125.2 2635.83,1106.69 3080.92,1107.48 3088.62,1120.64 3099.02,1132.32 3112.79,1142.75 3131.55,1151.1 3148.51,1154.36 3164.15,1154.27 3179.47,1151.1 3196.85,1143.65 3209.55,1134.52 3223.3,1119.26 3231.63,1104.14 3235.95,1090.83 3238.1,1070.4 3236.64,1056.48 3233.12,1044.55 3338.05,939.622 3343.25,932.926 3346.25,926.67 3348.42,914.566 3348.35,843.734 3346.25,833.174 3339.08,821.368 2963.24,445.416 2956.55,440.216 2946.6,436.094 2938.19,435.038 2641.73,435.038 2640.53,422.712 2635.83,416.542 2635.37,358.788 2632.47,349.214 2626.49,340.262 2582.14,295.81 2569.78,287.786 2556.88,285.48 2546.35,287.148 2534.7,293.412 2525.59,295.702 2525.53,303.062" style="stroke:rgb(201,154,102);stroke-width:15.748031;fill:none;stroke-opacity:0.5;stroke-linecap:round;stroke-linejoin:round;;fill:none"/>
<polyline points="2525.53,303.062 2525.64,343.018 2534.54,348.314 2564.96,378.848 2564.96,416.542 2562.99,418.428 2562.99,522.514 2566.05,525.298 2574.8,527.952 2629.06,527.65 2634.73,525.298 2639.08,520.954 2641.43,515.276 2641.73,505.904 2923.51,505.904 3025.87,608.264 3040.24,614.698 3052.39,623.676 3175,746.258 3184.51,758.964 3190.94,773.34 3206.97,789.368 3222.44,795.776 3228.08,799.478 3231.78,805.118 3238.19,820.584 3277.56,859.954 3277.56,899.89 3237.98,939.466 3232.01,948.55 3222.93,954.518 3183.18,994.266 3162.51,989.736 3146.87,989.822 3128.42,994.006 3112.79,1001.34 3101.47,1009.57 3088.62,1023.45 3080.92,1036.61 2657.59,1036.61 2635.83,1014.85 2634.77,985.682 2632.47,979.136 2626.49,970.184 2577.72,922.038 2568.22,917.198 2555.39,915.402 2525.59,935.28 2525.63,970.244 2526.66,976.358 2534.31,978.12 2564.96,1008.77 2564.96,1125.2 2562.99,1127.09 2563.67,1232 2568.78,1235.41 2574.8,1236.61 2625.98,1236.61 2634.73,1233.96 2639.08,1229.61 2641.73,1220.87 2641.73,1137.4 2640.53,1131.37 2635.83,1125.2 2635.83,1106.69 3080.92,1107.48 3088.62,1120.64 3099.02,1132.32 3112.79,1142.75 3131.55,1151.1 3148.51,1154.36 3164.15,1154.27 3179.47,1151.1 3196.85,1143.65 3209.55,1134.52 3223.3,1119.26 3231.63,1104.14 3235.95,1090.83 3238.1,1070.4 3236.64,1056.48 3233.12,1044.55 3338.05,939.622 3343.25,932.926 3346.25,926.67 3348.42,914.566 3348.35,843.734 3346.25,833.174 3339.08,821.368 2963.24,445.416 2956.55,440.216 2946.6,436.094 2938.19,435.038 2641.73,435.038 2640.53,422.712 2635.83,416.542 2635.37,358.788 2632.47,349.214 2626.49,340.262 2582.14,295.81 2569.78,287.786 2556.88,285.48 2546.35,287.148 2534.7,293.412 2525.59,295.702 2525.53,303.062" style="stroke:rgb(0,0,0);stroke-width:1px;fill:none;stroke-opacity:1;stroke-linecap:round;stroke-linejoin:round;;fill:none"/>
</svg>
