<?xml version="1.0" standalone="no"?>
<!DOCTYPE svg PUBLIC "-//W3C//DTD SVG 1.1//EN"
"http://www.w3.org/Graphics/SVG/1.1/DTD/svg11.dtd">
<svg width="170.646" height="91.2756" viewBox="0 0 3555.12 1901.57" version="1.1"
xmlns="http://www.w3.org/2000/svg"
xmlns:xlink="http://www.w3.org/1999/xlink">
<polyline points="84.6458,1738.19 84.6458,163.386 86.1598,148.026 90.6398,133.254 97.9158,119.642 107.71,107.71 119.642,97.9158 133.254,90.6398 148.026,86.1598 163.386,84.6458 3391.73,84.6458 3407.09,86.1598 3421.86,90.6398 3435.48,97.9158 3447.41,107.71 3457.2,119.642 3464.48,133.254 3468.96,148.026 3470.47,163.386 3470.47,1738.19 3468.96,1753.55 3464.48,1768.32 3457.2,1781.93 3447.41,1793.87 3435.48,1803.66 3421.86,1810.93 3407.09,1815.42 3391.73,1816.93 163.386,1816.93 148.026,1815.42 133.254,1810.93 119.642,1803.66 107.71,1793.87 97.9158,1781.93 90.6398,1768.32 86.1598,1753.55 84.6458,1738.19" style="stroke:rgb(103,198,105);stroke-width:157.480315;fill:none;stroke-opacity:0.5;stroke-linecap:round;stroke-linejoin:round;;fill:none"/>
<polyline points="84.6458,1738.19 84.6458,163.386 86.1598,148.026 90.6398,133.254 97.9158,119.642 107.71,107.71 119.642,97.9158 133.254,90.6398 148.026,86.1598 163.386,84.6458 3391.73,84.6458 3407.09,86.1598 3421.86,90.6398 3435.48,97.9158 3447.41,107.71 3457.2,119.642 3464.48,133.254 3468.96,148.026 3470.47,163.386 3470.47,1738.19 3468.96,1753.55 3464.48,1768.32 3457.2,1781.93 3447.41,1793.87 3435.48,1803.66 3421.86,1810.93 3407.09,1815.42 3391.73,1816.93 163.386,1816.93 148.026,1815.42 133.254,1810.93 119.642,1803.66 107.71,1793.87 97.9158,1781.93 90.6398,1768.32 86.1598,1753.55 84.6458,1738.19" style="stroke:rgb(0,0,0);stroke-width:1px;fill:none;stroke-opacity:1;stroke-linecap:round;stroke-linejoin:round;;fill:none"/>
</svg>
