M48
; DRILL file {KiCad 5.1.5-52549c5~84~ubuntu18.04.1} date Thu 09 Apr 2020 12:26:50 PM CEST
; FORMAT={-:-/ absolute / inch / decimal}
; #@! TF.CreationDate,2020-04-09T12:26:50+02:00
; #@! TF.GenerationSoftware,Kicad,Pcbnew,5.1.5-52549c5~84~ubuntu18.04.1
; #@! TF.FileFunction,Plated,1,4,PTH
FMAT,2
INCH
T1C0.0079
T2C0.0118
T3C0.0157
T4C0.0315
T5C0.0394
%
G90
G05
T1
X3.8492Y-4.4201
X3.8921Y-4.4201
X3.9142Y-4.4224
X3.9961Y-4.4055
X4.1024Y-4.3228
X4.1803Y-4.8827
X4.2205Y-4.6772
X4.2205Y-4.7628
X4.2244Y-4.5937
X4.2441Y-4.6398
X4.3059Y-4.928
X4.3268Y-4.4843
X4.3406Y-4.7374
X4.3992Y-4.1874
X4.4016Y-4.9409
X4.4331Y-4.9409
X4.4587Y-4.4134
X4.4646Y-4.9409
X4.4764Y-4.3622
X4.4925Y-4.4307
X4.5453Y-4.7902
X4.5622Y-4.1748
X4.5827Y-4.2886
X4.6339Y-4.9075
X4.6417Y-4.8051
X4.6437Y-4.3465
X4.6713Y-4.5594
X4.6803Y-4.2835
X4.7272Y-4.298
X4.7453Y-4.3587
X4.7508Y-4.2839
X4.7783Y-4.6295
X4.8409Y-4.2224
X4.8425Y-4.4489
X4.848Y-4.3756
X4.8504Y-4.7539
X4.8661Y-4.878
X4.8665Y-4.3961
X4.8701Y-5.0079
X4.8701Y-5.0315
X4.8701Y-5.0551
X4.8701Y-5.0787
X4.874Y-5.2441
X4.874Y-5.2677
X4.874Y-5.2913
X4.874Y-5.315
X4.874Y-5.3386
X4.874Y-5.3622
X4.874Y-5.3858
X4.874Y-5.4094
X4.874Y-5.4331
X4.874Y-5.4567
X4.8878Y-4.4197
X4.8937Y-5.0079
X4.8937Y-5.0315
X4.8937Y-5.0551
X4.8937Y-5.0787
X4.8976Y-5.2441
X4.8976Y-5.2677
X4.8976Y-5.2913
X4.8976Y-5.315
X4.8976Y-5.3386
X4.8976Y-5.3622
X4.8976Y-5.3858
X4.8976Y-5.4094
X4.8976Y-5.4331
X4.8976Y-5.4567
X4.902Y-4.5291
X4.9134Y-4.311
X4.915Y-4.4228
X4.9173Y-5.0315
X4.9173Y-5.0551
X4.9173Y-5.0787
X4.9177Y-5.0083
X4.9213Y-5.2677
X4.9213Y-5.2913
X4.9213Y-5.315
X4.9213Y-5.3622
X4.9213Y-5.3858
X4.9213Y-5.4094
X4.9213Y-5.4331
X4.9213Y-5.4567
X4.9217Y-5.2445
X4.9217Y-5.339
X4.937Y-4.3307
X4.9409Y-5.0079
X4.9409Y-5.0315
X4.9409Y-5.0551
X4.9409Y-5.0787
X4.9449Y-5.2441
X4.9449Y-5.2677
X4.9449Y-5.2913
X4.9449Y-5.315
X4.9449Y-5.3386
X4.9449Y-5.3622
X4.9449Y-5.3858
X4.9449Y-5.4094
X4.9449Y-5.4331
X4.9449Y-5.4567
X4.9488Y-4.1933
X4.9606Y-4.2756
X4.9606Y-4.9547
X4.9646Y-5.0079
X4.9646Y-5.0315
X4.9646Y-5.0551
X4.9646Y-5.0787
X4.9685Y-5.2441
X4.9685Y-5.2677
X4.9685Y-5.2913
X4.9685Y-5.315
X4.9685Y-5.3386
X4.9685Y-5.3622
X4.9685Y-5.3858
X4.9685Y-5.4094
X4.9685Y-5.4331
X4.9685Y-5.4567
X4.9705Y-4.5106
X4.9724Y-4.3701
X4.9724Y-4.4685
X4.9882Y-5.0079
X4.9882Y-5.0315
X4.9882Y-5.0551
X4.9882Y-5.0787
X4.9921Y-4.626
X4.9921Y-5.2441
X4.9921Y-5.2677
X4.9921Y-5.2913
X4.9921Y-5.315
X4.9921Y-5.3386
X4.9921Y-5.3622
X4.9921Y-5.3858
X4.9921Y-5.4094
X4.9921Y-5.4331
X4.9921Y-5.4567
X4.9929Y-4.313
X4.9961Y-4.1575
X4.9997Y-4.3468
X5.0118Y-4.2913
X5.0118Y-5.0315
X5.0118Y-5.0551
X5.0118Y-5.0787
X5.0122Y-5.0083
X5.0157Y-5.2677
X5.0157Y-5.2913
X5.0157Y-5.315
X5.0157Y-5.3622
X5.0157Y-5.3858
X5.0157Y-5.4094
X5.0157Y-5.4331
X5.0157Y-5.4567
X5.0161Y-5.2445
X5.0161Y-5.339
X5.0276Y-4.2402
X5.0294Y-4.7677
X5.0354Y-5.0079
X5.0354Y-5.0315
X5.0354Y-5.0551
X5.0354Y-5.0787
X5.0394Y-5.2441
X5.0394Y-5.2677
X5.0394Y-5.2913
X5.0394Y-5.315
X5.0394Y-5.3386
X5.0394Y-5.3622
X5.0394Y-5.3858
X5.0394Y-5.4094
X5.0394Y-5.4331
X5.0394Y-5.4567
X5.0453Y-4.2894
X5.0508Y-4.935
X5.0591Y-5.0079
X5.0591Y-5.0315
X5.0591Y-5.0551
X5.0591Y-5.0787
X5.063Y-5.2441
X5.063Y-5.2677
X5.063Y-5.2913
X5.063Y-5.315
X5.063Y-5.3386
X5.063Y-5.3622
X5.063Y-5.3858
X5.063Y-5.4094
X5.063Y-5.4331
X5.063Y-5.4567
X5.0827Y-5.0079
X5.0827Y-5.0315
X5.0827Y-5.0551
X5.0827Y-5.0787
X5.0866Y-4.6339
X5.0866Y-5.2441
X5.0866Y-5.2677
X5.0866Y-5.2913
X5.0866Y-5.315
X5.0866Y-5.3386
X5.0866Y-5.3622
X5.0866Y-5.3858
X5.0866Y-5.4094
X5.0866Y-5.4331
X5.0866Y-5.4567
X5.0929Y-4.2839
X5.0941Y-4.672
X5.1008Y-4.3807
X5.1075Y-4.5071
X5.1122Y-4.3016
X5.1138Y-4.6728
X5.1331Y-4.6728
X5.1343Y-4.5335
X5.1386Y-4.2181
X5.1402Y-4.2992
X5.1508Y-4.5169
X5.1535Y-4.6299
X5.1539Y-4.4744
X5.1539Y-4.672
X5.1551Y-4.2866
X5.1575Y-4.126
X5.1622Y-4.4917
X5.1752Y-4.2705
X5.1795Y-4.3744
X5.1815Y-4.424
X5.189Y-4.3465
X5.1996Y-4.9646
X5.2252Y-4.1717
X5.2323Y-5.0535
X5.248Y-4.6457
X5.2488Y-4.466
X5.2492Y-4.4157
X5.2657Y-4.2081
X5.2835Y-4.3661
X5.2874Y-4.9279
X5.3055Y-4.5587
X5.3228Y-3.9921
X5.3228Y-4.2717
X5.3228Y-4.4252
X5.3346Y-4.7877
X5.3365Y-4.8635
X5.3465Y-4.1102
X5.374Y-4.6575
X5.4197Y-4.5598
X5.4257Y-3.9921
X5.4331Y-4.437
X5.4437Y-4.5602
X5.5315Y-4.5118
X5.5386Y-4.2555
X5.5394Y-4.1496
X5.6315Y-5.4413
X5.6339Y-5.1732
X5.6339Y-5.1969
X5.6343Y-4.963
X5.6343Y-5.15
X5.6535Y-5.1496
X5.6535Y-5.1732
X5.6535Y-5.1969
X5.6535Y-5.4055
X5.6535Y-5.4291
X5.6535Y-5.4528
X5.6539Y-5.3823
X5.6693Y-4.748
X5.6693Y-4.7717
X5.6693Y-4.7953
X5.6693Y-4.8189
X5.6693Y-4.8425
X5.6693Y-4.9921
X5.6693Y-5.0157
X5.6693Y-5.0394
X5.6693Y-5.063
X5.6693Y-5.0866
X5.6693Y-5.2362
X5.6693Y-5.2598
X5.6693Y-5.2835
X5.6693Y-5.3071
X5.6693Y-5.3307
X5.6772Y-4.5197
X5.6772Y-5.3819
X5.6772Y-5.4055
X5.6772Y-5.4291
X5.6772Y-5.4528
X5.6811Y-4.4528
X5.6811Y-4.9331
X5.6811Y-4.9567
X5.6815Y-4.9098
X5.685Y-4.3543
X5.6929Y-4.748
X5.6929Y-4.7717
X5.6929Y-4.7953
X5.6929Y-4.8189
X5.6929Y-4.8425
X5.6929Y-4.9921
X5.6929Y-5.0157
X5.6929Y-5.0394
X5.6929Y-5.063
X5.6929Y-5.0866
X5.6929Y-5.2362
X5.6929Y-5.2598
X5.6929Y-5.2835
X5.6929Y-5.3071
X5.6929Y-5.3307
X5.7008Y-5.3819
X5.7008Y-5.4055
X5.7008Y-5.4291
X5.7008Y-5.4528
X5.7047Y-4.9094
X5.7047Y-4.9331
X5.7047Y-4.9567
X5.7087Y-4.5866
X5.7165Y-4.748
X5.7165Y-4.7717
X5.7165Y-4.7953
X5.7165Y-4.8189
X5.7165Y-4.8425
X5.7165Y-4.9921
X5.7165Y-5.0157
X5.7165Y-5.0394
X5.7165Y-5.063
X5.7165Y-5.0866
X5.7165Y-5.2362
X5.7165Y-5.2598
X5.7165Y-5.2835
X5.7165Y-5.3071
X5.7165Y-5.3307
X5.7244Y-5.3819
X5.7244Y-5.4055
X5.7244Y-5.4291
X5.7244Y-5.4528
X5.7283Y-4.9094
X5.7283Y-4.9331
X5.7283Y-4.9567
X5.7402Y-4.748
X5.7402Y-4.7717
X5.7402Y-4.7953
X5.7402Y-4.8189
X5.7402Y-4.8425
X5.7402Y-4.9921
X5.7402Y-5.0157
X5.7402Y-5.0394
X5.7402Y-5.063
X5.7402Y-5.0866
X5.7402Y-5.2362
X5.7402Y-5.2598
X5.7402Y-5.2835
X5.7402Y-5.3071
X5.7402Y-5.3307
X5.748Y-5.4055
X5.748Y-5.4291
X5.748Y-5.4528
X5.7484Y-5.3823
X5.752Y-4.9094
X5.752Y-4.9331
X5.752Y-4.9567
X5.7638Y-4.748
X5.7638Y-4.7717
X5.7638Y-4.7953
X5.7638Y-4.8189
X5.7638Y-4.8425
X5.7638Y-4.9921
X5.7638Y-5.0157
X5.7638Y-5.0394
X5.7638Y-5.063
X5.7638Y-5.0866
X5.7638Y-5.2362
X5.7638Y-5.2598
X5.7638Y-5.2835
X5.7638Y-5.3071
X5.7677Y-4.0433
X5.7717Y-5.3819
X5.7717Y-5.4055
X5.7717Y-5.4291
X5.7717Y-5.4528
X5.7756Y-4.9331
X5.7756Y-4.9567
X5.776Y-4.9098
X5.7953Y-5.3819
X5.7953Y-5.4055
X5.7953Y-5.4291
X5.7953Y-5.4528
X5.7992Y-4.9094
X5.7992Y-4.9331
X5.7992Y-4.9567
X5.815Y-3.9685
X5.8189Y-5.3819
X5.8189Y-5.4055
X5.8189Y-5.4291
X5.8189Y-5.4528
X5.8228Y-4.9094
X5.8228Y-4.9331
X5.8228Y-4.9567
X5.8425Y-5.1496
X5.8425Y-5.1732
X5.8425Y-5.1969
X5.8465Y-4.9094
X5.8465Y-4.9331
X5.8465Y-4.9567
X5.8465Y-5.3819
X5.8465Y-5.4055
X5.8465Y-5.4291
X5.8465Y-5.4528
X5.8661Y-5.1496
X5.8661Y-5.1732
X5.8661Y-5.1969
X5.8701Y-4.9094
X5.8701Y-4.9331
X5.8701Y-4.9567
X5.8701Y-5.3819
X5.8701Y-5.4055
X5.8701Y-5.4291
X5.8701Y-5.4528
X5.8898Y-5.1496
X5.8898Y-5.1732
X5.8898Y-5.1969
X5.8937Y-4.9094
X5.8937Y-4.9331
X5.8937Y-4.9567
X5.8937Y-5.4055
X5.8937Y-5.4291
X5.8937Y-5.4528
X5.8941Y-5.3823
X5.9134Y-5.1496
X5.9134Y-5.1732
X5.9134Y-5.1969
X5.9173Y-3.9685
X5.9173Y-4.9094
X5.9173Y-4.9331
X5.9173Y-4.9567
X5.9173Y-5.3819
X5.9173Y-5.4055
X5.9173Y-5.4291
X5.9173Y-5.4528
X5.937Y-5.1496
X5.937Y-5.1732
X5.937Y-5.1969
X5.9409Y-5.3819
X5.9409Y-5.4055
X5.9409Y-5.4291
X5.9409Y-5.4528
X5.9449Y-4.9094
X5.9449Y-4.9331
X5.9449Y-4.9567
X5.9606Y-5.0787
X5.9606Y-5.1024
X5.9606Y-5.126
X5.9606Y-5.1496
X5.9606Y-5.1732
X5.9606Y-5.1969
X5.9646Y-5.2874
X5.9646Y-5.311
X5.9646Y-5.3346
X5.9646Y-5.3583
X5.9646Y-5.3819
X5.9646Y-5.4055
X5.9646Y-5.4291
X5.9646Y-5.4528
X5.9685Y-4.0669
X5.9685Y-4.7677
X5.9685Y-4.7913
X5.9685Y-4.815
X5.9685Y-4.8386
X5.9685Y-4.8622
X5.9685Y-4.8858
X5.9685Y-4.9094
X5.9685Y-4.9331
X5.9685Y-4.9567
X5.9685Y-4.9803
X5.9843Y-5.1024
X5.9843Y-5.126
X5.9843Y-5.1496
X5.9843Y-5.1732
X5.9843Y-5.1969
X5.9843Y-5.2205
X5.9882Y-5.3583
X5.9882Y-5.4055
X5.9882Y-5.4291
X5.9882Y-5.4528
X5.9886Y-5.3114
X5.9886Y-5.335
X5.9886Y-5.3823
X5.9921Y-4.7677
X5.9921Y-4.7913
X5.9921Y-4.815
X5.9921Y-4.8386
X5.9921Y-4.8622
X5.9921Y-4.8858
X5.9921Y-4.9094
X5.9921Y-4.9331
X5.9921Y-4.9567
X5.9921Y-4.9803
X5.9921Y-5.0039
X5.9921Y-5.0276
X6.0079Y-5.1496
X6.0079Y-5.1732
X6.0079Y-5.1969
X6.0079Y-5.2205
X6.0079Y-5.2441
X6.0118Y-5.3346
X6.0118Y-5.3583
X6.0118Y-5.3819
X6.0118Y-5.4055
X6.0118Y-5.4291
X6.0118Y-5.4528
X6.0157Y-4.7677
X6.0157Y-4.7913
X6.0157Y-4.815
X6.0157Y-4.8386
X6.0157Y-4.8622
X6.0157Y-4.8858
X6.0157Y-4.9094
X6.0157Y-4.9331
X6.0157Y-4.9567
X6.0157Y-4.9803
X6.0157Y-5.0039
X6.0157Y-5.0276
X6.0157Y-5.0512
X6.0157Y-5.0748
X6.0315Y-5.1969
X6.0315Y-5.2205
X6.0315Y-5.2441
X6.0315Y-5.2677
X6.0315Y-5.2913
X6.0354Y-5.3583
X6.0354Y-5.3819
X6.0354Y-5.4055
X6.0354Y-5.4291
X6.0354Y-5.4528
X6.0394Y-4.7677
X6.0394Y-4.7913
X6.0394Y-4.815
X6.0394Y-4.8386
X6.0394Y-4.8622
X6.0394Y-4.8858
X6.0394Y-4.9094
X6.0394Y-4.9331
X6.0394Y-4.9567
X6.0394Y-4.9803
X6.0394Y-5.0039
X6.0394Y-5.0276
X6.0394Y-5.0512
X6.0394Y-5.0748
X6.0394Y-5.0984
X6.0394Y-5.122
X6.0551Y-5.2441
X6.0551Y-5.2677
X6.0551Y-5.2913
X6.0591Y-5.3819
X6.0591Y-5.4055
X6.0591Y-5.4291
X6.0591Y-5.4528
X6.063Y-4.8858
X6.063Y-4.9094
X6.063Y-4.9331
X6.063Y-4.9567
X6.063Y-4.9803
X6.063Y-5.0039
X6.063Y-5.0276
X6.063Y-5.0512
X6.063Y-5.0748
X6.063Y-5.0984
X6.063Y-5.122
X6.063Y-5.1457
X6.063Y-5.1693
T2
X4.0264Y-4.239
X4.0531Y-4.2378
X4.0823Y-4.2346
X4.1098Y-4.2291
X4.1315Y-4.2118
X4.1457Y-4.187
X4.1535Y-4.1598
T3
X3.9488Y-5.3346
X3.9528Y-5.1496
X3.9528Y-5.2126
X3.9528Y-5.2756
X3.9528Y-5.3976
X3.9685Y-5.1811
X3.9685Y-5.2441
X3.9685Y-5.3661
X3.9685Y-5.4291
X3.9843Y-5.3346
X3.9882Y-5.1496
X3.9882Y-5.2126
X3.9882Y-5.2756
X3.9882Y-5.3976
X4.0039Y-5.1811
X4.0039Y-5.2441
X4.0039Y-5.3661
X4.0039Y-5.4291
X4.0197Y-5.3346
X4.0236Y-5.1496
X4.0236Y-5.2126
X4.0236Y-5.2756
X4.0236Y-5.3976
X4.0394Y-5.1811
X4.0394Y-5.2441
X4.0394Y-5.3661
X4.0394Y-5.4291
X4.0551Y-5.3346
X4.0591Y-5.1496
X4.0591Y-5.2126
X4.0591Y-5.2756
X4.0591Y-5.3976
X4.0748Y-5.1811
X4.0748Y-5.2441
X4.0748Y-5.3661
X4.0748Y-5.4291
X5.1791Y-4.9886
X5.2386Y-4.9705
X5.2701Y-4.0429
X5.3614Y-4.8118
X5.3898Y-4.7756
X5.4055Y-4.9173
X5.4331Y-4.8858
X5.5512Y-4.748
X5.563Y-4.0315
X5.5957Y-5.3217
X5.5984Y-5.0906
X5.6417Y-4.8819
X5.6494Y-5.353
X5.7598Y-4.874
X5.7598Y-5.1181
T4
X4.3116Y-4.113
X4.3616Y-4.013
X4.4116Y-4.113
X4.4616Y-4.013
X3.8134Y-4.0705
X3.8634Y-4.1705
X3.9134Y-4.0705
X3.9634Y-4.1705
X4.0134Y-4.0705
X4.0634Y-4.1705
T5
X6.1417Y-4.698
X6.1417Y-4.798
X6.1417Y-4.898
X6.1417Y-4.998
X6.1417Y-5.098
X6.1417Y-5.198
X6.1417Y-5.298
X6.1417Y-5.398
T0
M30
