G04 #@! TF.GenerationSoftware,KiCad,Pcbnew,5.1.5-52549c5~84~ubuntu18.04.1*
G04 #@! TF.CreationDate,2020-04-15T19:59:59+02:00*
G04 #@! TF.ProjectId,board,626f6172-642e-46b6-9963-61645f706362,rev?*
G04 #@! TF.SameCoordinates,Original*
G04 #@! TF.FileFunction,Copper,L3,Inr*
G04 #@! TF.FilePolarity,Positive*
%FSLAX46Y46*%
G04 Gerber Fmt 4.6, Leading zero omitted, Abs format (unit mm)*
G04 Created by KiCad (PCBNEW 5.1.5-52549c5~84~ubuntu18.04.1) date 2020-04-15 19:59:59*
%MOMM*%
%LPD*%
G04 APERTURE LIST*
%ADD10O,1.700000X1.700000*%
%ADD11R,1.700000X1.700000*%
%ADD12C,1.800000*%
%ADD13R,1.800000X1.800000*%
%ADD14C,0.400000*%
%ADD15C,0.254000*%
%ADD16C,0.800000*%
%ADD17C,0.152400*%
%ADD18C,0.254000*%
G04 APERTURE END LIST*
D10*
X156000000Y-119329200D03*
X156000000Y-121869200D03*
X156000000Y-124409200D03*
X156000000Y-126949200D03*
X156000000Y-129489200D03*
X156000000Y-132029200D03*
X156000000Y-134569200D03*
D11*
X156000000Y-137109200D03*
D12*
X96860000Y-103390000D03*
X98130000Y-105930000D03*
D13*
X103210000Y-105930000D03*
D12*
X101940000Y-103390000D03*
X100670000Y-105930000D03*
X99400000Y-103390000D03*
D13*
X113325000Y-101930000D03*
D12*
X112055000Y-104470000D03*
X110785000Y-101930000D03*
X109515000Y-104470000D03*
D14*
X129100000Y-127200000D03*
X128500000Y-127800000D03*
X124910000Y-127210000D03*
X126700000Y-127800000D03*
X129100000Y-129000000D03*
X129100000Y-127800000D03*
X128500000Y-127200000D03*
X124900000Y-129000000D03*
X126700000Y-128400000D03*
X126100000Y-127200000D03*
X126100000Y-129000000D03*
X124300000Y-127800000D03*
X126100000Y-128400000D03*
X126700000Y-127200000D03*
X123700000Y-127800000D03*
X126100000Y-127800000D03*
X127900000Y-127200000D03*
X124900000Y-127800000D03*
X127310000Y-127210000D03*
X124300000Y-128400000D03*
X127900000Y-129000000D03*
X127300000Y-127800000D03*
X123700000Y-128400000D03*
X125500000Y-129000000D03*
X125500000Y-127200000D03*
X123700000Y-127200000D03*
X124300000Y-129000000D03*
X127900000Y-127800000D03*
X127300000Y-129000000D03*
X125500000Y-128400000D03*
X128500000Y-128400000D03*
X128500000Y-129000000D03*
X123700000Y-129000000D03*
X124900000Y-128400000D03*
X129100000Y-128400000D03*
X127300000Y-128400000D03*
X127900000Y-128400000D03*
X125500000Y-127800000D03*
X126700000Y-129000000D03*
X124300000Y-127200000D03*
D15*
X141300000Y-102400000D03*
X141000000Y-120600000D03*
X117700000Y-124650000D03*
X123600000Y-123900000D03*
X127748000Y-121100000D03*
X129890000Y-118690000D03*
X133750000Y-106885000D03*
X111740000Y-106360000D03*
X115880000Y-106040000D03*
X125700000Y-106510000D03*
X136500000Y-118300000D03*
X133300000Y-118000000D03*
X104200000Y-109800000D03*
X134760000Y-115790000D03*
X130241169Y-110188832D03*
X126057511Y-114137511D03*
X130450000Y-115060000D03*
X128090000Y-108620000D03*
X129200000Y-117696400D03*
X150110013Y-119267519D03*
X129655000Y-108965000D03*
X128078831Y-110188831D03*
X147700000Y-100800000D03*
X126000000Y-125850000D03*
X130380000Y-118690000D03*
X143300000Y-124000000D03*
X131550000Y-126710000D03*
X146300000Y-123800000D03*
X133060000Y-126250000D03*
X137300000Y-124900000D03*
X146300000Y-130000000D03*
X142200000Y-129300000D03*
X138000000Y-124100000D03*
X136180000Y-122220000D03*
X142130025Y-135169975D03*
X136900000Y-121300000D03*
X143494805Y-135966469D03*
D14*
X126800000Y-136800000D03*
X128000000Y-136800000D03*
X124400000Y-137400000D03*
X128000000Y-136200000D03*
X126200000Y-136200000D03*
X125000000Y-136200000D03*
X124400000Y-136800000D03*
X128000000Y-137400000D03*
X128600000Y-137400000D03*
X126200000Y-136800000D03*
X125010000Y-135610000D03*
X128600000Y-136800000D03*
X124400000Y-136200000D03*
X127400000Y-136800000D03*
X125600000Y-135600000D03*
X126800000Y-137400000D03*
X125000000Y-136800000D03*
X129200000Y-135600000D03*
X126800000Y-135600000D03*
X126200000Y-137400000D03*
X123800000Y-137400000D03*
X128000000Y-135600000D03*
X128600000Y-135600000D03*
X123800000Y-135600000D03*
X128600000Y-136200000D03*
X126200000Y-135600000D03*
X127410000Y-135610000D03*
X127400000Y-136200000D03*
X129200000Y-136800000D03*
X123800000Y-136800000D03*
X125600000Y-137400000D03*
X125600000Y-136200000D03*
X123800000Y-136200000D03*
X125000000Y-137400000D03*
X127400000Y-137400000D03*
X125600000Y-136800000D03*
X124400000Y-135600000D03*
X126800000Y-136200000D03*
X129200000Y-137400000D03*
X129200000Y-136200000D03*
X129200000Y-138600000D03*
X128600000Y-138000000D03*
X123800000Y-138600000D03*
X124400000Y-138000000D03*
X126800000Y-138000000D03*
X125600000Y-138000000D03*
X128000000Y-138600000D03*
X123800000Y-138000000D03*
X126200000Y-138600000D03*
X126800000Y-138600000D03*
X128600000Y-138600000D03*
X125600000Y-138600000D03*
X125000000Y-138600000D03*
X126200000Y-138000000D03*
X128000000Y-138000000D03*
X125000000Y-138000000D03*
X127400000Y-138600000D03*
X129200000Y-138000000D03*
X127400000Y-138000000D03*
X124400000Y-138600000D03*
X126800000Y-134400000D03*
X128000000Y-134400000D03*
X124400000Y-135000000D03*
X128000000Y-133800000D03*
X126200000Y-133800000D03*
X125000000Y-133800000D03*
X124400000Y-134400000D03*
X128000000Y-135000000D03*
X128600000Y-135000000D03*
X126200000Y-134400000D03*
X125010000Y-133210000D03*
X128600000Y-134400000D03*
X124400000Y-133800000D03*
X127400000Y-134400000D03*
X125600000Y-133200000D03*
X126800000Y-135000000D03*
X125000000Y-134400000D03*
X129200000Y-133200000D03*
X126800000Y-133200000D03*
X126200000Y-135000000D03*
X123800000Y-135000000D03*
X128000000Y-133200000D03*
X128600000Y-133200000D03*
X123800000Y-133200000D03*
X128600000Y-133800000D03*
X126200000Y-133200000D03*
X127410000Y-133210000D03*
X127400000Y-133800000D03*
X129200000Y-134400000D03*
X123800000Y-134400000D03*
X125600000Y-135000000D03*
X125600000Y-133800000D03*
X123800000Y-133800000D03*
X125000000Y-135000000D03*
X127400000Y-135000000D03*
X125600000Y-134400000D03*
X124400000Y-133200000D03*
X126800000Y-133800000D03*
X129200000Y-135000000D03*
X129200000Y-133800000D03*
X146400000Y-127400000D03*
X144600000Y-127400000D03*
X144600000Y-128600000D03*
X144600000Y-128000000D03*
X146400000Y-129200000D03*
X145800000Y-129200000D03*
X145200000Y-126800000D03*
X145800000Y-126800000D03*
X145800000Y-128000000D03*
X145200000Y-129200000D03*
X145200000Y-127400000D03*
X144600000Y-126800000D03*
X145800000Y-127400000D03*
X145800000Y-128600000D03*
X145200000Y-128600000D03*
X145200000Y-128000000D03*
X146400000Y-126800000D03*
X146400000Y-128000000D03*
X144600000Y-129200000D03*
X146400000Y-128600000D03*
X146400000Y-133600000D03*
X144600000Y-133600000D03*
X144600000Y-134800000D03*
X144600000Y-134200000D03*
X145800000Y-135400000D03*
X145200000Y-133000000D03*
X145800000Y-133000000D03*
X145800000Y-134200000D03*
X145200000Y-135400000D03*
X145200000Y-133600000D03*
X144600000Y-133000000D03*
X145800000Y-133600000D03*
X145800000Y-134800000D03*
X145200000Y-134800000D03*
X145200000Y-134200000D03*
X146400000Y-133000000D03*
X146400000Y-134200000D03*
X144600000Y-135400000D03*
X146400000Y-134800000D03*
X144000000Y-128000000D03*
X144000000Y-129200000D03*
X144000000Y-126800000D03*
X144000000Y-128600000D03*
X144000000Y-127400000D03*
X144000000Y-121200000D03*
X144000000Y-122400000D03*
X144000000Y-121800000D03*
X144000000Y-120600000D03*
X144000000Y-123000000D03*
X144000000Y-134800000D03*
X144000000Y-133600000D03*
X144000000Y-135400000D03*
X144000000Y-133000000D03*
X144000000Y-134200000D03*
X146400000Y-121200000D03*
X146400000Y-121800000D03*
X146400000Y-122400000D03*
X146400000Y-123000000D03*
X145800000Y-123000000D03*
X145800000Y-122400000D03*
X145800000Y-121800000D03*
X145800000Y-121200000D03*
X145800000Y-120600000D03*
X145200000Y-120600000D03*
X145200000Y-121200000D03*
X145200000Y-121800000D03*
X145200000Y-122400000D03*
X145200000Y-123000000D03*
X144600000Y-123000000D03*
X144600000Y-120600000D03*
X144600000Y-121800000D03*
X144600000Y-121200000D03*
X144600000Y-122400000D03*
D16*
X100300000Y-135500000D03*
X101200000Y-135500000D03*
X102100000Y-135500000D03*
X103000000Y-135500000D03*
X100800000Y-136300000D03*
X101700000Y-136300000D03*
X102600000Y-136300000D03*
X103500000Y-136300000D03*
X100400000Y-137100000D03*
X101300000Y-137100000D03*
X102200000Y-137100000D03*
X103100000Y-137100000D03*
X100800000Y-137900000D03*
X101700000Y-137900000D03*
X102600000Y-137900000D03*
X103500000Y-137900000D03*
D14*
X146400000Y-120600000D03*
D15*
X133860000Y-102690000D03*
X135200000Y-108500000D03*
X134200000Y-110900000D03*
X135200000Y-112400000D03*
X140700000Y-105400000D03*
X134300000Y-125167399D03*
X132900000Y-128360000D03*
X128290000Y-125350000D03*
X145000000Y-116500000D03*
X126800000Y-117500000D03*
X137812500Y-101400000D03*
X135200000Y-101400000D03*
X107800000Y-117850000D03*
X113700000Y-110800000D03*
X124510000Y-115040000D03*
X121370000Y-117590000D03*
X140680000Y-108090000D03*
X132720000Y-105960000D03*
X129550000Y-111270000D03*
X124740000Y-110340000D03*
X126300000Y-110984399D03*
X93610000Y-128920000D03*
X120320000Y-113980000D03*
X116000000Y-119050000D03*
X126050000Y-108610000D03*
X131610000Y-112370000D03*
X130641169Y-112188831D03*
X133330000Y-113390000D03*
X107200000Y-118800000D03*
X107200000Y-120975000D03*
X144200000Y-114800000D03*
X140500000Y-114600000D03*
X135800000Y-104400000D03*
X151600000Y-103300000D03*
X122960000Y-107250000D03*
X106180000Y-124020000D03*
X146500000Y-102700000D03*
X107460000Y-116760000D03*
X144316448Y-113113552D03*
X144400000Y-110600000D03*
D14*
X149100000Y-124700000D03*
X149700000Y-125900000D03*
X149700000Y-124700000D03*
X149100000Y-125900000D03*
X149100000Y-125300000D03*
X149700000Y-125300000D03*
X150300000Y-125300000D03*
X150300000Y-125900000D03*
X150300000Y-124700000D03*
X151000000Y-124700000D03*
X151600000Y-125900000D03*
X151600000Y-124700000D03*
X151000000Y-125900000D03*
X151000000Y-125300000D03*
X151600000Y-125300000D03*
X152200000Y-125300000D03*
X152200000Y-125900000D03*
X152200000Y-124700000D03*
X151600000Y-122900000D03*
X152200000Y-124100000D03*
X152200000Y-122900000D03*
X151600000Y-124100000D03*
X151600000Y-123500000D03*
X152200000Y-123500000D03*
X152800000Y-123500000D03*
X152800000Y-124100000D03*
X152800000Y-122900000D03*
X152200000Y-126500000D03*
X152800000Y-127700000D03*
X152800000Y-126500000D03*
X152200000Y-127700000D03*
X152200000Y-127100000D03*
X152800000Y-127100000D03*
X153400000Y-127100000D03*
X153400000Y-127700000D03*
X153400000Y-126500000D03*
X152800000Y-124700000D03*
X153400000Y-125900000D03*
X153400000Y-124700000D03*
X152800000Y-125900000D03*
X152800000Y-125300000D03*
X153400000Y-125300000D03*
X154000000Y-125300000D03*
X154000000Y-125900000D03*
X154000000Y-124700000D03*
X151600000Y-121100000D03*
X152200000Y-121700000D03*
X152200000Y-122300000D03*
X152200000Y-121100000D03*
X151600000Y-122300000D03*
X152800000Y-122300000D03*
X152800000Y-121100000D03*
X151600000Y-121700000D03*
X152800000Y-121700000D03*
X153400000Y-122900000D03*
X154000000Y-124100000D03*
X153400000Y-124100000D03*
X153400000Y-123500000D03*
X153400000Y-121100000D03*
X153400000Y-122300000D03*
X153400000Y-121700000D03*
X154000000Y-126500000D03*
X154000000Y-127700000D03*
X154000000Y-127100000D03*
X151600000Y-126500000D03*
X152800000Y-128300000D03*
X153400000Y-128300000D03*
X154000000Y-128300000D03*
X152800000Y-128900000D03*
X153400000Y-128900000D03*
X154000000Y-128900000D03*
X154000000Y-129500000D03*
X153400000Y-129500000D03*
X154000000Y-130100000D03*
X153400000Y-130100000D03*
X154000000Y-130700000D03*
X154000000Y-131300000D03*
X144310000Y-124710000D03*
X144900000Y-125900000D03*
X144900000Y-125300000D03*
X145500000Y-124700000D03*
X144300000Y-125900000D03*
X144300000Y-125300000D03*
X145500000Y-125900000D03*
X146100000Y-124700000D03*
X144900000Y-124700000D03*
X146100000Y-125900000D03*
X145500000Y-125300000D03*
X146100000Y-125300000D03*
X146710000Y-124710000D03*
X147300000Y-125900000D03*
X147300000Y-125300000D03*
X147900000Y-124700000D03*
X146700000Y-125900000D03*
X146700000Y-125300000D03*
X147900000Y-125900000D03*
X148500000Y-124700000D03*
X147300000Y-124700000D03*
X148500000Y-125900000D03*
X147900000Y-125300000D03*
X148500000Y-125300000D03*
D15*
X132070000Y-126100000D03*
X143110000Y-126060000D03*
D14*
X149600000Y-132000000D03*
X150200000Y-130800000D03*
X149600000Y-130800000D03*
X150200000Y-132000000D03*
X149600000Y-131400000D03*
X150200000Y-131400000D03*
X152600000Y-132000000D03*
X152600000Y-131400000D03*
X152000000Y-132000000D03*
X152000000Y-131400000D03*
X152600000Y-130800000D03*
X152000000Y-130800000D03*
X150800000Y-132000000D03*
X151400000Y-130800000D03*
X150800000Y-130800000D03*
X151400000Y-132000000D03*
X150800000Y-131400000D03*
X151400000Y-131400000D03*
X152000000Y-130200000D03*
X152000000Y-129600000D03*
X151400000Y-129000000D03*
X151400000Y-129600000D03*
X151400000Y-130200000D03*
X152600000Y-133200000D03*
X153200000Y-133200000D03*
X152600000Y-132600000D03*
X153200000Y-132600000D03*
X153200000Y-132000000D03*
X152000000Y-132600000D03*
X153800000Y-134400000D03*
X153200000Y-134400000D03*
X153800000Y-133800000D03*
X153200000Y-133800000D03*
X153800000Y-133200000D03*
X143600000Y-132000000D03*
X143600000Y-131400000D03*
X148400000Y-130800000D03*
X148400000Y-132000000D03*
X149000000Y-130800000D03*
X143600000Y-130800000D03*
X149000000Y-132000000D03*
X148400000Y-131400000D03*
X149000000Y-131400000D03*
X143100000Y-131400000D03*
X143100000Y-132000000D03*
D15*
X135548036Y-123532076D03*
D14*
X143110000Y-130810000D03*
X149100000Y-137900000D03*
X150300000Y-137900000D03*
X149100000Y-138500000D03*
X148500000Y-137300000D03*
X149700000Y-138500000D03*
X149700000Y-137300000D03*
X150900000Y-137300000D03*
X151500000Y-138500000D03*
X149100000Y-136700000D03*
X149710000Y-136710000D03*
X151500000Y-137300000D03*
X148500000Y-138500000D03*
X149700000Y-137900000D03*
X148500000Y-137900000D03*
X150300000Y-138500000D03*
X151500000Y-137900000D03*
X150900000Y-136700000D03*
X150900000Y-137900000D03*
X151500000Y-136700000D03*
X150900000Y-138500000D03*
X149100000Y-137300000D03*
X150300000Y-136700000D03*
X148500000Y-136700000D03*
X150300000Y-137300000D03*
X152110000Y-136710000D03*
X153900000Y-137300000D03*
X152100000Y-138500000D03*
X153900000Y-137900000D03*
X153300000Y-136700000D03*
X153300000Y-138500000D03*
X153300000Y-137900000D03*
X153900000Y-136700000D03*
X153300000Y-137300000D03*
X152100000Y-137300000D03*
X152700000Y-138500000D03*
X152700000Y-136700000D03*
X152700000Y-137900000D03*
X152100000Y-137900000D03*
X152700000Y-137300000D03*
X153900000Y-138500000D03*
X153300000Y-136100000D03*
X151500000Y-136100000D03*
X151500000Y-135500000D03*
X152700000Y-135500000D03*
X152110000Y-135510000D03*
X152100000Y-136100000D03*
X152700000Y-136100000D03*
X151500000Y-134900000D03*
X152110000Y-134910000D03*
X151500000Y-134300000D03*
X143610000Y-136710000D03*
X144200000Y-137900000D03*
X144200000Y-137300000D03*
X144800000Y-136700000D03*
X143600000Y-137900000D03*
X143600000Y-137300000D03*
X144800000Y-137900000D03*
X145400000Y-136700000D03*
X144200000Y-136700000D03*
X145400000Y-137900000D03*
X144800000Y-137300000D03*
X145400000Y-137300000D03*
X143600000Y-138500000D03*
X145400000Y-138500000D03*
X144800000Y-138500000D03*
X144200000Y-138500000D03*
X146000000Y-137900000D03*
X147800000Y-137900000D03*
X147800000Y-138500000D03*
X147200000Y-137300000D03*
X147800000Y-136700000D03*
X146600000Y-136700000D03*
X146010000Y-136710000D03*
X147200000Y-138500000D03*
X146000000Y-137300000D03*
X147200000Y-137900000D03*
X146000000Y-138500000D03*
X146600000Y-138500000D03*
X146600000Y-137300000D03*
X147800000Y-137300000D03*
X147200000Y-136700000D03*
X146600000Y-137900000D03*
D15*
X135500000Y-121608700D03*
D14*
X143040000Y-138210000D03*
D15*
X102950000Y-107640000D03*
X102270000Y-107670000D03*
X103690000Y-107560000D03*
X104390000Y-107420000D03*
X104940000Y-106980000D03*
X105300000Y-106350000D03*
X105500000Y-105660000D03*
X145785000Y-112600000D03*
X142817600Y-112590000D03*
X142762409Y-113295191D03*
X146915000Y-113600000D03*
X105820000Y-121420000D03*
X107910000Y-121529400D03*
X146915000Y-111500000D03*
X144500000Y-109300000D03*
X109370000Y-125170000D03*
X130641168Y-111551169D03*
X115450000Y-121670000D03*
X138270000Y-115830000D03*
X110245000Y-120325000D03*
X137660000Y-115820000D03*
X123200000Y-120750000D03*
X130910000Y-118670000D03*
X101500000Y-111900000D03*
X109900000Y-113900000D03*
X114110000Y-112540000D03*
X126300000Y-113500000D03*
X113250000Y-112100000D03*
X124840000Y-112340000D03*
D16*
X100800000Y-133200000D03*
X101700000Y-133200000D03*
X102600000Y-133200000D03*
X103500000Y-133200000D03*
X100400000Y-130800000D03*
X101300000Y-130800000D03*
X102200000Y-130800000D03*
X103100000Y-130800000D03*
X100800000Y-131600000D03*
X101700000Y-131600000D03*
X102600000Y-131600000D03*
X103500000Y-131600000D03*
X100400000Y-132400000D03*
X101300000Y-132400000D03*
X102200000Y-132400000D03*
X103100000Y-132400000D03*
X100400000Y-134000000D03*
X101300000Y-134000000D03*
X102200000Y-134000000D03*
X103100000Y-134000000D03*
D15*
X131450000Y-108470000D03*
X98330000Y-112240000D03*
X104690000Y-119340000D03*
X107830000Y-119540000D03*
X128078831Y-112751168D03*
X126743959Y-113953959D03*
X128478831Y-112751168D03*
X127458552Y-114268552D03*
X128878831Y-112751168D03*
X128260000Y-114540000D03*
X126900000Y-105600000D03*
X131000000Y-104800000D03*
X125400000Y-110000000D03*
X132300000Y-110400000D03*
X118880000Y-108800000D03*
X130170000Y-114630000D03*
X120070000Y-109170000D03*
X129841168Y-112751169D03*
X120670000Y-108810000D03*
X129760000Y-114310000D03*
X118650000Y-115810000D03*
X129841168Y-110188831D03*
X127300000Y-109000000D03*
X116400000Y-108930000D03*
X128878831Y-110188831D03*
X127810000Y-105680000D03*
X97770000Y-112270000D03*
X130641169Y-110188832D03*
X130940000Y-108880000D03*
X99220000Y-112444400D03*
X113400000Y-125500000D03*
X124150000Y-112260000D03*
X112600000Y-125500000D03*
X123600000Y-112024400D03*
X111800000Y-125500000D03*
X128078831Y-111951169D03*
X120530000Y-110710000D03*
X117950000Y-110400000D03*
X128078831Y-110588831D03*
X129441169Y-110188831D03*
X123230000Y-110940000D03*
X123000000Y-113001600D03*
X128478831Y-110188832D03*
X128361807Y-110959400D03*
X125470000Y-108644400D03*
X130641169Y-112588832D03*
X131900000Y-112925599D03*
X150300000Y-100800000D03*
X130241168Y-112751169D03*
X130910000Y-113650000D03*
X130900000Y-117600000D03*
D17*
X129500000Y-118000000D02*
X133300000Y-118000000D01*
X129200000Y-117700000D02*
X129500000Y-118000000D01*
X133750000Y-106885000D02*
X141215000Y-106885000D01*
X141215000Y-106885000D02*
X147300000Y-100800000D01*
X136500000Y-118300000D02*
X137500000Y-119300000D01*
X147300000Y-100800000D02*
X147700000Y-100800000D01*
X125700000Y-106510000D02*
X125040000Y-106510000D01*
X125040000Y-106510000D02*
X124110000Y-105580000D01*
X116340000Y-105580000D02*
X115880000Y-106040000D01*
X124110000Y-105580000D02*
X116340000Y-105580000D01*
X126980000Y-115060000D02*
X130450000Y-115060000D01*
X126057511Y-114137511D02*
X126700000Y-114780000D01*
X126700000Y-114780000D02*
X126980000Y-115060000D01*
X150120000Y-119277506D02*
X150110013Y-119267519D01*
X150120000Y-119300000D02*
X150120000Y-119277506D01*
X137500000Y-119300000D02*
X150120000Y-119300000D01*
X137300000Y-124900000D02*
X137300000Y-125465685D01*
X141834315Y-130000000D02*
X141600000Y-129765685D01*
X137300000Y-125465685D02*
X141600000Y-129765685D01*
X146300000Y-130000000D02*
X141834315Y-130000000D01*
X141600000Y-129765685D02*
X141775616Y-129941301D01*
X138000000Y-125100000D02*
X142200000Y-129300000D01*
X138000000Y-124100000D02*
X138000000Y-125100000D01*
X136180000Y-128780000D02*
X136180000Y-122220000D01*
X136180000Y-128780000D02*
X136180000Y-129219950D01*
X136180000Y-129219950D02*
X142130025Y-135169975D01*
X136900000Y-121300000D02*
X136900000Y-122900000D01*
X136900000Y-122900000D02*
X136510210Y-123289790D01*
X136510210Y-123289790D02*
X136510210Y-128643224D01*
X136510210Y-128643224D02*
X142166986Y-134300000D01*
X143500000Y-136000000D02*
X142771326Y-135271326D01*
X142771326Y-135271326D02*
X142771326Y-134900000D01*
X142166986Y-134300000D02*
X142771326Y-134900000D01*
X131610000Y-112370000D02*
X131809999Y-112569999D01*
X155390800Y-121260000D02*
X156000000Y-121869200D01*
X131809999Y-112569999D02*
X132799999Y-112569999D01*
X133036289Y-112569999D02*
X138936290Y-118470000D01*
X132799999Y-112569999D02*
X133036289Y-112569999D01*
X155150001Y-120897869D02*
X152712132Y-118460000D01*
X152712132Y-118460000D02*
X149400000Y-118460000D01*
X155150001Y-121019201D02*
X155150001Y-120897869D01*
X156000000Y-121869200D02*
X155150001Y-121019201D01*
X138936290Y-118470000D02*
X149400000Y-118460000D01*
X139270000Y-118100000D02*
X154770800Y-118100000D01*
X133111399Y-111941399D02*
X139270000Y-118100000D01*
X155250800Y-118580000D02*
X156000000Y-119329200D01*
X154770800Y-118100000D02*
X155250800Y-118580000D01*
X130888601Y-111941399D02*
X133111399Y-111941399D01*
X130641169Y-112188831D02*
X130888601Y-111941399D01*
X133330000Y-113390000D02*
X138810000Y-118870000D01*
X138810000Y-118870000D02*
X138820000Y-118870000D01*
X138870000Y-118920000D02*
X139410000Y-118920000D01*
X138820000Y-118870000D02*
X138870000Y-118920000D01*
X155165400Y-123574600D02*
X155165400Y-123105400D01*
X155165400Y-123105400D02*
X154750000Y-122690000D01*
X155165400Y-123574600D02*
X156000000Y-124409200D01*
X152731066Y-118910000D02*
X152650000Y-118910000D01*
X154750000Y-120928934D02*
X152731066Y-118910000D01*
X154750000Y-122690000D02*
X154750000Y-120928934D01*
X139410000Y-118920000D02*
X152650000Y-118910000D01*
X143040000Y-137440000D02*
X143040000Y-138210000D01*
X134980000Y-129380000D02*
X143040000Y-137440000D01*
X135246435Y-121863565D02*
X134980000Y-122130000D01*
X135246435Y-121862265D02*
X135246435Y-121863565D01*
X134980000Y-122130000D02*
X134980000Y-129380000D01*
X135500000Y-121608700D02*
X135246435Y-121862265D01*
X142827600Y-112600000D02*
X142817600Y-112590000D01*
X145785000Y-112600000D02*
X142827600Y-112600000D01*
X143067218Y-113600000D02*
X142762409Y-113295191D01*
X146915000Y-113600000D02*
X143067218Y-113600000D01*
X105929400Y-121529400D02*
X105820000Y-121420000D01*
X107910000Y-121529400D02*
X105929400Y-121529400D01*
X146915000Y-111500000D02*
X146700000Y-111500000D01*
X146700000Y-111500000D02*
X144500000Y-109300000D01*
X131167158Y-108470000D02*
X131450000Y-108470000D01*
X129967158Y-107270000D02*
X131167158Y-108470000D01*
X124940000Y-107270000D02*
X129967158Y-107270000D01*
X124138601Y-106468601D02*
X124940000Y-107270000D01*
X113540000Y-106950000D02*
X114021399Y-106468601D01*
X98360000Y-112270000D02*
X98860000Y-112270000D01*
X98330000Y-112240000D02*
X98360000Y-112270000D01*
X114021399Y-106468601D02*
X124138601Y-106468601D01*
X102770000Y-108360000D02*
X105360000Y-108360000D01*
X106771601Y-106948399D02*
X113540000Y-106948399D01*
X113540000Y-106948399D02*
X113540000Y-106950000D01*
X98860000Y-112270000D02*
X102770000Y-108360000D01*
X105360000Y-108360000D02*
X106771601Y-106948399D01*
X104690000Y-119340000D02*
X107630000Y-119340000D01*
X107630000Y-119340000D02*
X107830000Y-119540000D01*
X120070000Y-109170000D02*
X120138601Y-109238601D01*
X122250000Y-111350000D02*
X120070000Y-109170000D01*
X125910000Y-111350000D02*
X122250000Y-111350000D01*
X129841168Y-112751169D02*
X128445189Y-111355190D01*
X128445189Y-111355190D02*
X125910000Y-111350000D01*
X114472410Y-108610000D02*
X114892410Y-108190000D01*
X99840000Y-112800000D02*
X103440000Y-109200000D01*
X114892410Y-108190000D02*
X129600000Y-108190000D01*
X107050000Y-109200000D02*
X107640000Y-108610000D01*
X98300000Y-112800000D02*
X99840000Y-112800000D01*
X97770000Y-112270000D02*
X98300000Y-112800000D01*
X103440000Y-109200000D02*
X107050000Y-109200000D01*
X107640000Y-108610000D02*
X114472410Y-108610000D01*
X129600000Y-108190000D02*
X129615670Y-108190000D01*
X130641169Y-109215499D02*
X130641169Y-110188832D01*
X129615670Y-108190000D02*
X130641169Y-109215499D01*
X130940000Y-108880000D02*
X130740001Y-108680001D01*
X107580000Y-107720000D02*
X106560000Y-108740000D01*
X106404810Y-108895190D02*
X107580000Y-107720000D01*
X102769210Y-108895190D02*
X106404810Y-108895190D01*
X99220000Y-112444400D02*
X102769210Y-108895190D01*
X129780000Y-107720000D02*
X130940000Y-108880000D01*
X107580000Y-107720000D02*
X129780000Y-107720000D01*
X123950001Y-112459999D02*
X124150000Y-112260000D01*
X113400000Y-118320000D02*
X119260001Y-112459999D01*
X119260001Y-112459999D02*
X123950001Y-112459999D01*
X113400000Y-125500000D02*
X113400000Y-118320000D01*
X119100000Y-112040000D02*
X112600000Y-118540000D01*
X112600000Y-118540000D02*
X112600000Y-125500000D01*
X123135600Y-112024400D02*
X123600000Y-112024400D01*
X123120000Y-112040000D02*
X123135600Y-112024400D01*
X123120000Y-112040000D02*
X119100000Y-112040000D01*
X127787662Y-111660000D02*
X128078831Y-111951169D01*
X111830000Y-118870000D02*
X119040000Y-111660000D01*
X111830000Y-122270000D02*
X111830000Y-118870000D01*
X111800000Y-125500000D02*
X111800000Y-125217158D01*
X119040000Y-111660000D02*
X127787662Y-111660000D01*
X111800000Y-125217158D02*
X111830000Y-122270000D01*
X125470000Y-108704330D02*
X125470000Y-108644400D01*
X128361807Y-110959400D02*
X127725070Y-110959400D01*
X127725070Y-110959400D02*
X125470000Y-108704330D01*
X150100001Y-100999999D02*
X150300000Y-100800000D01*
X134476237Y-107189810D02*
X143910190Y-107189810D01*
X130241168Y-111424879D02*
X134476237Y-107189810D01*
X143910190Y-107189810D02*
X150100001Y-100999999D01*
X130241168Y-112751169D02*
X130241168Y-111424879D01*
X131800000Y-114257158D02*
X131192842Y-113650000D01*
X131192842Y-113650000D02*
X130910000Y-113650000D01*
X131800000Y-116700000D02*
X131800000Y-114257158D01*
X130900000Y-117600000D02*
X131800000Y-116700000D01*
D18*
G36*
X106773000Y-101026828D02*
G01*
X106773000Y-106591218D01*
X106771600Y-106591080D01*
X106754147Y-106592799D01*
X106754138Y-106592799D01*
X106701891Y-106597945D01*
X106634861Y-106618278D01*
X106573085Y-106651298D01*
X106573083Y-106651299D01*
X106573084Y-106651299D01*
X106532501Y-106684604D01*
X106532496Y-106684609D01*
X106518938Y-106695736D01*
X106507811Y-106709294D01*
X105212707Y-108004400D01*
X102787455Y-108004400D01*
X102769999Y-108002681D01*
X102752544Y-108004400D01*
X102752537Y-108004400D01*
X102707187Y-108008867D01*
X102700289Y-108009546D01*
X102671102Y-108018400D01*
X102633260Y-108029879D01*
X102571484Y-108062899D01*
X102517337Y-108107337D01*
X102506206Y-108120900D01*
X98712707Y-111914400D01*
X98574205Y-111914400D01*
X98522502Y-111879853D01*
X98448542Y-111849218D01*
X98370027Y-111833600D01*
X98289973Y-111833600D01*
X98211458Y-111849218D01*
X98137498Y-111879853D01*
X98070935Y-111924329D01*
X98035000Y-111960264D01*
X98029065Y-111954329D01*
X97962502Y-111909853D01*
X97888542Y-111879218D01*
X97810027Y-111863600D01*
X97729973Y-111863600D01*
X97651458Y-111879218D01*
X97577498Y-111909853D01*
X97510935Y-111954329D01*
X97454329Y-112010935D01*
X97409853Y-112077498D01*
X97379218Y-112151458D01*
X97363600Y-112229973D01*
X97363600Y-112310027D01*
X97379218Y-112388542D01*
X97409853Y-112462502D01*
X97454329Y-112529065D01*
X97510935Y-112585671D01*
X97577498Y-112630147D01*
X97651458Y-112660782D01*
X97659485Y-112662379D01*
X98036210Y-113039105D01*
X98047337Y-113052663D01*
X98060895Y-113063790D01*
X98060900Y-113063795D01*
X98095078Y-113091844D01*
X98101484Y-113097101D01*
X98163260Y-113130121D01*
X98201102Y-113141600D01*
X98230289Y-113150454D01*
X98237187Y-113151133D01*
X98282537Y-113155600D01*
X98282544Y-113155600D01*
X98299999Y-113157319D01*
X98317454Y-113155600D01*
X99822545Y-113155600D01*
X99840000Y-113157319D01*
X99857455Y-113155600D01*
X99857463Y-113155600D01*
X99909710Y-113150454D01*
X99976740Y-113130121D01*
X100038516Y-113097101D01*
X100092663Y-113052663D01*
X100103799Y-113039094D01*
X101113650Y-112029243D01*
X101139853Y-112092502D01*
X101184329Y-112159065D01*
X101240935Y-112215671D01*
X101307498Y-112260147D01*
X101381458Y-112290782D01*
X101459973Y-112306400D01*
X101540027Y-112306400D01*
X101618542Y-112290782D01*
X101692502Y-112260147D01*
X101759065Y-112215671D01*
X101815671Y-112159065D01*
X101860147Y-112092502D01*
X101890782Y-112018542D01*
X101906400Y-111940027D01*
X101906400Y-111859973D01*
X101890782Y-111781458D01*
X101860147Y-111707498D01*
X101815671Y-111640935D01*
X101759065Y-111584329D01*
X101692502Y-111539853D01*
X101629243Y-111513650D01*
X103587294Y-109555600D01*
X103874530Y-109555600D01*
X103839853Y-109607498D01*
X103809218Y-109681458D01*
X103793600Y-109759973D01*
X103793600Y-109840027D01*
X103809218Y-109918542D01*
X103839853Y-109992502D01*
X103884329Y-110059065D01*
X103940935Y-110115671D01*
X104007498Y-110160147D01*
X104081458Y-110190782D01*
X104159973Y-110206400D01*
X104240027Y-110206400D01*
X104318542Y-110190782D01*
X104392502Y-110160147D01*
X104459065Y-110115671D01*
X104515671Y-110059065D01*
X104560147Y-109992502D01*
X104590782Y-109918542D01*
X104606400Y-109840027D01*
X104606400Y-109759973D01*
X104590782Y-109681458D01*
X104560147Y-109607498D01*
X104525470Y-109555600D01*
X106773000Y-109555600D01*
X106773000Y-113773000D01*
X94027334Y-113773000D01*
X94045603Y-106803278D01*
X97436327Y-106803278D01*
X97540168Y-106957899D01*
X97752034Y-107053218D01*
X97978426Y-107105373D01*
X98210643Y-107112359D01*
X98439760Y-107073907D01*
X98656973Y-106991497D01*
X98719832Y-106957899D01*
X98823673Y-106803278D01*
X98130000Y-106109605D01*
X97436327Y-106803278D01*
X94045603Y-106803278D01*
X94047681Y-106010643D01*
X96947641Y-106010643D01*
X96986093Y-106239760D01*
X97068503Y-106456973D01*
X97102101Y-106519832D01*
X97256722Y-106623673D01*
X97950395Y-105930000D01*
X98309605Y-105930000D01*
X99003278Y-106623673D01*
X99157899Y-106519832D01*
X99253218Y-106307966D01*
X99305373Y-106081574D01*
X99312359Y-105849357D01*
X99306399Y-105813839D01*
X99490600Y-105813839D01*
X99490600Y-106046161D01*
X99535923Y-106274018D01*
X99624829Y-106488656D01*
X99753900Y-106681824D01*
X99918176Y-106846100D01*
X100111344Y-106975171D01*
X100325982Y-107064077D01*
X100553839Y-107109400D01*
X100786161Y-107109400D01*
X101014018Y-107064077D01*
X101228656Y-106975171D01*
X101421824Y-106846100D01*
X101586100Y-106681824D01*
X101715171Y-106488656D01*
X101804077Y-106274018D01*
X101849400Y-106046161D01*
X101849400Y-105813839D01*
X101804077Y-105585982D01*
X101715171Y-105371344D01*
X101586100Y-105178176D01*
X101437924Y-105030000D01*
X102029249Y-105030000D01*
X102029249Y-106830000D01*
X102034644Y-106884772D01*
X102050620Y-106937439D01*
X102076564Y-106985977D01*
X102111479Y-107028521D01*
X102154023Y-107063436D01*
X102202561Y-107089380D01*
X102255228Y-107105356D01*
X102310000Y-107110751D01*
X104110000Y-107110751D01*
X104164772Y-107105356D01*
X104217439Y-107089380D01*
X104265977Y-107063436D01*
X104308521Y-107028521D01*
X104343436Y-106985977D01*
X104369380Y-106937439D01*
X104385356Y-106884772D01*
X104390751Y-106830000D01*
X104390751Y-105136007D01*
X104508608Y-105159450D01*
X104711392Y-105159450D01*
X104910279Y-105119889D01*
X105097627Y-105042287D01*
X105266236Y-104929626D01*
X105409626Y-104786236D01*
X105522287Y-104617627D01*
X105599889Y-104430279D01*
X105639450Y-104231392D01*
X105639450Y-104028608D01*
X105599889Y-103829721D01*
X105522287Y-103642373D01*
X105409626Y-103473764D01*
X105266236Y-103330374D01*
X105097627Y-103217713D01*
X104910279Y-103140111D01*
X104711392Y-103100550D01*
X104508608Y-103100550D01*
X104309721Y-103140111D01*
X104122373Y-103217713D01*
X103953764Y-103330374D01*
X103810374Y-103473764D01*
X103697713Y-103642373D01*
X103620111Y-103829721D01*
X103580550Y-104028608D01*
X103580550Y-104231392D01*
X103620111Y-104430279D01*
X103697713Y-104617627D01*
X103785660Y-104749249D01*
X102310000Y-104749249D01*
X102255228Y-104754644D01*
X102202561Y-104770620D01*
X102154023Y-104796564D01*
X102111479Y-104831479D01*
X102076564Y-104874023D01*
X102050620Y-104922561D01*
X102034644Y-104975228D01*
X102029249Y-105030000D01*
X101437924Y-105030000D01*
X101421824Y-105013900D01*
X101228656Y-104884829D01*
X101014018Y-104795923D01*
X100786161Y-104750600D01*
X100553839Y-104750600D01*
X100325982Y-104795923D01*
X100111344Y-104884829D01*
X99918176Y-105013900D01*
X99753900Y-105178176D01*
X99624829Y-105371344D01*
X99535923Y-105585982D01*
X99490600Y-105813839D01*
X99306399Y-105813839D01*
X99273907Y-105620240D01*
X99191497Y-105403027D01*
X99157899Y-105340168D01*
X99003278Y-105236327D01*
X98309605Y-105930000D01*
X97950395Y-105930000D01*
X97256722Y-105236327D01*
X97102101Y-105340168D01*
X97006782Y-105552034D01*
X96954627Y-105778426D01*
X96947641Y-106010643D01*
X94047681Y-106010643D01*
X94050181Y-105056722D01*
X97436327Y-105056722D01*
X98130000Y-105750395D01*
X98823673Y-105056722D01*
X98719832Y-104902101D01*
X98507966Y-104806782D01*
X98281574Y-104754627D01*
X98049357Y-104747641D01*
X97820240Y-104786093D01*
X97603027Y-104868503D01*
X97540168Y-104902101D01*
X97436327Y-105056722D01*
X94050181Y-105056722D01*
X94054856Y-103273839D01*
X95680600Y-103273839D01*
X95680600Y-103506161D01*
X95725923Y-103734018D01*
X95814829Y-103948656D01*
X95943900Y-104141824D01*
X96108176Y-104306100D01*
X96301344Y-104435171D01*
X96515982Y-104524077D01*
X96743839Y-104569400D01*
X96976161Y-104569400D01*
X97204018Y-104524077D01*
X97418656Y-104435171D01*
X97611824Y-104306100D01*
X97776100Y-104141824D01*
X97905171Y-103948656D01*
X97994077Y-103734018D01*
X98039400Y-103506161D01*
X98039400Y-103273839D01*
X98220600Y-103273839D01*
X98220600Y-103506161D01*
X98265923Y-103734018D01*
X98354829Y-103948656D01*
X98483900Y-104141824D01*
X98648176Y-104306100D01*
X98841344Y-104435171D01*
X99055982Y-104524077D01*
X99283839Y-104569400D01*
X99516161Y-104569400D01*
X99744018Y-104524077D01*
X99958656Y-104435171D01*
X100151824Y-104306100D01*
X100316100Y-104141824D01*
X100445171Y-103948656D01*
X100534077Y-103734018D01*
X100579400Y-103506161D01*
X100579400Y-103273839D01*
X100760600Y-103273839D01*
X100760600Y-103506161D01*
X100805923Y-103734018D01*
X100894829Y-103948656D01*
X101023900Y-104141824D01*
X101188176Y-104306100D01*
X101381344Y-104435171D01*
X101595982Y-104524077D01*
X101823839Y-104569400D01*
X102056161Y-104569400D01*
X102284018Y-104524077D01*
X102498656Y-104435171D01*
X102691824Y-104306100D01*
X102856100Y-104141824D01*
X102985171Y-103948656D01*
X103074077Y-103734018D01*
X103119400Y-103506161D01*
X103119400Y-103273839D01*
X103074077Y-103045982D01*
X102985171Y-102831344D01*
X102856100Y-102638176D01*
X102691824Y-102473900D01*
X102498656Y-102344829D01*
X102284018Y-102255923D01*
X102056161Y-102210600D01*
X101823839Y-102210600D01*
X101595982Y-102255923D01*
X101381344Y-102344829D01*
X101188176Y-102473900D01*
X101023900Y-102638176D01*
X100894829Y-102831344D01*
X100805923Y-103045982D01*
X100760600Y-103273839D01*
X100579400Y-103273839D01*
X100534077Y-103045982D01*
X100445171Y-102831344D01*
X100316100Y-102638176D01*
X100151824Y-102473900D01*
X99958656Y-102344829D01*
X99744018Y-102255923D01*
X99516161Y-102210600D01*
X99283839Y-102210600D01*
X99055982Y-102255923D01*
X98841344Y-102344829D01*
X98648176Y-102473900D01*
X98483900Y-102638176D01*
X98354829Y-102831344D01*
X98265923Y-103045982D01*
X98220600Y-103273839D01*
X98039400Y-103273839D01*
X97994077Y-103045982D01*
X97905171Y-102831344D01*
X97776100Y-102638176D01*
X97611824Y-102473900D01*
X97418656Y-102344829D01*
X97204018Y-102255923D01*
X96976161Y-102210600D01*
X96743839Y-102210600D01*
X96515982Y-102255923D01*
X96301344Y-102344829D01*
X96108176Y-102473900D01*
X95943900Y-102638176D01*
X95814829Y-102831344D01*
X95725923Y-103045982D01*
X95680600Y-103273839D01*
X94054856Y-103273839D01*
X94060792Y-101009547D01*
X106773000Y-101026828D01*
G37*
X106773000Y-101026828D02*
X106773000Y-106591218D01*
X106771600Y-106591080D01*
X106754147Y-106592799D01*
X106754138Y-106592799D01*
X106701891Y-106597945D01*
X106634861Y-106618278D01*
X106573085Y-106651298D01*
X106573083Y-106651299D01*
X106573084Y-106651299D01*
X106532501Y-106684604D01*
X106532496Y-106684609D01*
X106518938Y-106695736D01*
X106507811Y-106709294D01*
X105212707Y-108004400D01*
X102787455Y-108004400D01*
X102769999Y-108002681D01*
X102752544Y-108004400D01*
X102752537Y-108004400D01*
X102707187Y-108008867D01*
X102700289Y-108009546D01*
X102671102Y-108018400D01*
X102633260Y-108029879D01*
X102571484Y-108062899D01*
X102517337Y-108107337D01*
X102506206Y-108120900D01*
X98712707Y-111914400D01*
X98574205Y-111914400D01*
X98522502Y-111879853D01*
X98448542Y-111849218D01*
X98370027Y-111833600D01*
X98289973Y-111833600D01*
X98211458Y-111849218D01*
X98137498Y-111879853D01*
X98070935Y-111924329D01*
X98035000Y-111960264D01*
X98029065Y-111954329D01*
X97962502Y-111909853D01*
X97888542Y-111879218D01*
X97810027Y-111863600D01*
X97729973Y-111863600D01*
X97651458Y-111879218D01*
X97577498Y-111909853D01*
X97510935Y-111954329D01*
X97454329Y-112010935D01*
X97409853Y-112077498D01*
X97379218Y-112151458D01*
X97363600Y-112229973D01*
X97363600Y-112310027D01*
X97379218Y-112388542D01*
X97409853Y-112462502D01*
X97454329Y-112529065D01*
X97510935Y-112585671D01*
X97577498Y-112630147D01*
X97651458Y-112660782D01*
X97659485Y-112662379D01*
X98036210Y-113039105D01*
X98047337Y-113052663D01*
X98060895Y-113063790D01*
X98060900Y-113063795D01*
X98095078Y-113091844D01*
X98101484Y-113097101D01*
X98163260Y-113130121D01*
X98201102Y-113141600D01*
X98230289Y-113150454D01*
X98237187Y-113151133D01*
X98282537Y-113155600D01*
X98282544Y-113155600D01*
X98299999Y-113157319D01*
X98317454Y-113155600D01*
X99822545Y-113155600D01*
X99840000Y-113157319D01*
X99857455Y-113155600D01*
X99857463Y-113155600D01*
X99909710Y-113150454D01*
X99976740Y-113130121D01*
X100038516Y-113097101D01*
X100092663Y-113052663D01*
X100103799Y-113039094D01*
X101113650Y-112029243D01*
X101139853Y-112092502D01*
X101184329Y-112159065D01*
X101240935Y-112215671D01*
X101307498Y-112260147D01*
X101381458Y-112290782D01*
X101459973Y-112306400D01*
X101540027Y-112306400D01*
X101618542Y-112290782D01*
X101692502Y-112260147D01*
X101759065Y-112215671D01*
X101815671Y-112159065D01*
X101860147Y-112092502D01*
X101890782Y-112018542D01*
X101906400Y-111940027D01*
X101906400Y-111859973D01*
X101890782Y-111781458D01*
X101860147Y-111707498D01*
X101815671Y-111640935D01*
X101759065Y-111584329D01*
X101692502Y-111539853D01*
X101629243Y-111513650D01*
X103587294Y-109555600D01*
X103874530Y-109555600D01*
X103839853Y-109607498D01*
X103809218Y-109681458D01*
X103793600Y-109759973D01*
X103793600Y-109840027D01*
X103809218Y-109918542D01*
X103839853Y-109992502D01*
X103884329Y-110059065D01*
X103940935Y-110115671D01*
X104007498Y-110160147D01*
X104081458Y-110190782D01*
X104159973Y-110206400D01*
X104240027Y-110206400D01*
X104318542Y-110190782D01*
X104392502Y-110160147D01*
X104459065Y-110115671D01*
X104515671Y-110059065D01*
X104560147Y-109992502D01*
X104590782Y-109918542D01*
X104606400Y-109840027D01*
X104606400Y-109759973D01*
X104590782Y-109681458D01*
X104560147Y-109607498D01*
X104525470Y-109555600D01*
X106773000Y-109555600D01*
X106773000Y-113773000D01*
X94027334Y-113773000D01*
X94045603Y-106803278D01*
X97436327Y-106803278D01*
X97540168Y-106957899D01*
X97752034Y-107053218D01*
X97978426Y-107105373D01*
X98210643Y-107112359D01*
X98439760Y-107073907D01*
X98656973Y-106991497D01*
X98719832Y-106957899D01*
X98823673Y-106803278D01*
X98130000Y-106109605D01*
X97436327Y-106803278D01*
X94045603Y-106803278D01*
X94047681Y-106010643D01*
X96947641Y-106010643D01*
X96986093Y-106239760D01*
X97068503Y-106456973D01*
X97102101Y-106519832D01*
X97256722Y-106623673D01*
X97950395Y-105930000D01*
X98309605Y-105930000D01*
X99003278Y-106623673D01*
X99157899Y-106519832D01*
X99253218Y-106307966D01*
X99305373Y-106081574D01*
X99312359Y-105849357D01*
X99306399Y-105813839D01*
X99490600Y-105813839D01*
X99490600Y-106046161D01*
X99535923Y-106274018D01*
X99624829Y-106488656D01*
X99753900Y-106681824D01*
X99918176Y-106846100D01*
X100111344Y-106975171D01*
X100325982Y-107064077D01*
X100553839Y-107109400D01*
X100786161Y-107109400D01*
X101014018Y-107064077D01*
X101228656Y-106975171D01*
X101421824Y-106846100D01*
X101586100Y-106681824D01*
X101715171Y-106488656D01*
X101804077Y-106274018D01*
X101849400Y-106046161D01*
X101849400Y-105813839D01*
X101804077Y-105585982D01*
X101715171Y-105371344D01*
X101586100Y-105178176D01*
X101437924Y-105030000D01*
X102029249Y-105030000D01*
X102029249Y-106830000D01*
X102034644Y-106884772D01*
X102050620Y-106937439D01*
X102076564Y-106985977D01*
X102111479Y-107028521D01*
X102154023Y-107063436D01*
X102202561Y-107089380D01*
X102255228Y-107105356D01*
X102310000Y-107110751D01*
X104110000Y-107110751D01*
X104164772Y-107105356D01*
X104217439Y-107089380D01*
X104265977Y-107063436D01*
X104308521Y-107028521D01*
X104343436Y-106985977D01*
X104369380Y-106937439D01*
X104385356Y-106884772D01*
X104390751Y-106830000D01*
X104390751Y-105136007D01*
X104508608Y-105159450D01*
X104711392Y-105159450D01*
X104910279Y-105119889D01*
X105097627Y-105042287D01*
X105266236Y-104929626D01*
X105409626Y-104786236D01*
X105522287Y-104617627D01*
X105599889Y-104430279D01*
X105639450Y-104231392D01*
X105639450Y-104028608D01*
X105599889Y-103829721D01*
X105522287Y-103642373D01*
X105409626Y-103473764D01*
X105266236Y-103330374D01*
X105097627Y-103217713D01*
X104910279Y-103140111D01*
X104711392Y-103100550D01*
X104508608Y-103100550D01*
X104309721Y-103140111D01*
X104122373Y-103217713D01*
X103953764Y-103330374D01*
X103810374Y-103473764D01*
X103697713Y-103642373D01*
X103620111Y-103829721D01*
X103580550Y-104028608D01*
X103580550Y-104231392D01*
X103620111Y-104430279D01*
X103697713Y-104617627D01*
X103785660Y-104749249D01*
X102310000Y-104749249D01*
X102255228Y-104754644D01*
X102202561Y-104770620D01*
X102154023Y-104796564D01*
X102111479Y-104831479D01*
X102076564Y-104874023D01*
X102050620Y-104922561D01*
X102034644Y-104975228D01*
X102029249Y-105030000D01*
X101437924Y-105030000D01*
X101421824Y-105013900D01*
X101228656Y-104884829D01*
X101014018Y-104795923D01*
X100786161Y-104750600D01*
X100553839Y-104750600D01*
X100325982Y-104795923D01*
X100111344Y-104884829D01*
X99918176Y-105013900D01*
X99753900Y-105178176D01*
X99624829Y-105371344D01*
X99535923Y-105585982D01*
X99490600Y-105813839D01*
X99306399Y-105813839D01*
X99273907Y-105620240D01*
X99191497Y-105403027D01*
X99157899Y-105340168D01*
X99003278Y-105236327D01*
X98309605Y-105930000D01*
X97950395Y-105930000D01*
X97256722Y-105236327D01*
X97102101Y-105340168D01*
X97006782Y-105552034D01*
X96954627Y-105778426D01*
X96947641Y-106010643D01*
X94047681Y-106010643D01*
X94050181Y-105056722D01*
X97436327Y-105056722D01*
X98130000Y-105750395D01*
X98823673Y-105056722D01*
X98719832Y-104902101D01*
X98507966Y-104806782D01*
X98281574Y-104754627D01*
X98049357Y-104747641D01*
X97820240Y-104786093D01*
X97603027Y-104868503D01*
X97540168Y-104902101D01*
X97436327Y-105056722D01*
X94050181Y-105056722D01*
X94054856Y-103273839D01*
X95680600Y-103273839D01*
X95680600Y-103506161D01*
X95725923Y-103734018D01*
X95814829Y-103948656D01*
X95943900Y-104141824D01*
X96108176Y-104306100D01*
X96301344Y-104435171D01*
X96515982Y-104524077D01*
X96743839Y-104569400D01*
X96976161Y-104569400D01*
X97204018Y-104524077D01*
X97418656Y-104435171D01*
X97611824Y-104306100D01*
X97776100Y-104141824D01*
X97905171Y-103948656D01*
X97994077Y-103734018D01*
X98039400Y-103506161D01*
X98039400Y-103273839D01*
X98220600Y-103273839D01*
X98220600Y-103506161D01*
X98265923Y-103734018D01*
X98354829Y-103948656D01*
X98483900Y-104141824D01*
X98648176Y-104306100D01*
X98841344Y-104435171D01*
X99055982Y-104524077D01*
X99283839Y-104569400D01*
X99516161Y-104569400D01*
X99744018Y-104524077D01*
X99958656Y-104435171D01*
X100151824Y-104306100D01*
X100316100Y-104141824D01*
X100445171Y-103948656D01*
X100534077Y-103734018D01*
X100579400Y-103506161D01*
X100579400Y-103273839D01*
X100760600Y-103273839D01*
X100760600Y-103506161D01*
X100805923Y-103734018D01*
X100894829Y-103948656D01*
X101023900Y-104141824D01*
X101188176Y-104306100D01*
X101381344Y-104435171D01*
X101595982Y-104524077D01*
X101823839Y-104569400D01*
X102056161Y-104569400D01*
X102284018Y-104524077D01*
X102498656Y-104435171D01*
X102691824Y-104306100D01*
X102856100Y-104141824D01*
X102985171Y-103948656D01*
X103074077Y-103734018D01*
X103119400Y-103506161D01*
X103119400Y-103273839D01*
X103074077Y-103045982D01*
X102985171Y-102831344D01*
X102856100Y-102638176D01*
X102691824Y-102473900D01*
X102498656Y-102344829D01*
X102284018Y-102255923D01*
X102056161Y-102210600D01*
X101823839Y-102210600D01*
X101595982Y-102255923D01*
X101381344Y-102344829D01*
X101188176Y-102473900D01*
X101023900Y-102638176D01*
X100894829Y-102831344D01*
X100805923Y-103045982D01*
X100760600Y-103273839D01*
X100579400Y-103273839D01*
X100534077Y-103045982D01*
X100445171Y-102831344D01*
X100316100Y-102638176D01*
X100151824Y-102473900D01*
X99958656Y-102344829D01*
X99744018Y-102255923D01*
X99516161Y-102210600D01*
X99283839Y-102210600D01*
X99055982Y-102255923D01*
X98841344Y-102344829D01*
X98648176Y-102473900D01*
X98483900Y-102638176D01*
X98354829Y-102831344D01*
X98265923Y-103045982D01*
X98220600Y-103273839D01*
X98039400Y-103273839D01*
X97994077Y-103045982D01*
X97905171Y-102831344D01*
X97776100Y-102638176D01*
X97611824Y-102473900D01*
X97418656Y-102344829D01*
X97204018Y-102255923D01*
X96976161Y-102210600D01*
X96743839Y-102210600D01*
X96515982Y-102255923D01*
X96301344Y-102344829D01*
X96108176Y-102473900D01*
X95943900Y-102638176D01*
X95814829Y-102831344D01*
X95725923Y-103045982D01*
X95680600Y-103273839D01*
X94054856Y-103273839D01*
X94060792Y-101009547D01*
X106773000Y-101026828D01*
G36*
X141357618Y-127954724D02*
G01*
X138355600Y-124952707D01*
X138355600Y-124299307D01*
X138360147Y-124292502D01*
X138390782Y-124218542D01*
X138406400Y-124140027D01*
X138406400Y-124059973D01*
X138390782Y-123981458D01*
X138360147Y-123907498D01*
X138315671Y-123840935D01*
X138259065Y-123784329D01*
X138192502Y-123739853D01*
X138118542Y-123709218D01*
X138040027Y-123693600D01*
X137959973Y-123693600D01*
X137881458Y-123709218D01*
X137807498Y-123739853D01*
X137740935Y-123784329D01*
X137684329Y-123840935D01*
X137639853Y-123907498D01*
X137609218Y-123981458D01*
X137593600Y-124059973D01*
X137593600Y-124140027D01*
X137609218Y-124218542D01*
X137639853Y-124292502D01*
X137644400Y-124299307D01*
X137644401Y-124683932D01*
X137615671Y-124640935D01*
X137559065Y-124584329D01*
X137492502Y-124539853D01*
X137418542Y-124509218D01*
X137340027Y-124493600D01*
X137259973Y-124493600D01*
X137181458Y-124509218D01*
X137107498Y-124539853D01*
X137040935Y-124584329D01*
X136984329Y-124640935D01*
X136939853Y-124707498D01*
X136909218Y-124781458D01*
X136893600Y-124859973D01*
X136893600Y-124940027D01*
X136909218Y-125018542D01*
X136939853Y-125092502D01*
X136944400Y-125099308D01*
X136944401Y-125448220D01*
X136942681Y-125465685D01*
X136949546Y-125535395D01*
X136969880Y-125602426D01*
X136986390Y-125633313D01*
X137002900Y-125664201D01*
X137047338Y-125718348D01*
X137060901Y-125729479D01*
X141360900Y-130029480D01*
X141360911Y-130029489D01*
X141379892Y-130048470D01*
X141411736Y-133041856D01*
X136865810Y-128495931D01*
X136865810Y-123437084D01*
X137139105Y-123163790D01*
X137152663Y-123152663D01*
X137163790Y-123139105D01*
X137163795Y-123139100D01*
X137197100Y-123098517D01*
X137230120Y-123036742D01*
X137230121Y-123036740D01*
X137250454Y-122969710D01*
X137255600Y-122917463D01*
X137255600Y-122917454D01*
X137257319Y-122900001D01*
X137255600Y-122882548D01*
X137255600Y-121499307D01*
X137260147Y-121492502D01*
X137290782Y-121418542D01*
X137306400Y-121340027D01*
X137306400Y-121259973D01*
X137290782Y-121181458D01*
X137260147Y-121107498D01*
X137215671Y-121040935D01*
X137159065Y-120984329D01*
X137092502Y-120939853D01*
X137018542Y-120909218D01*
X136940027Y-120893600D01*
X136859973Y-120893600D01*
X136781458Y-120909218D01*
X136707498Y-120939853D01*
X136640935Y-120984329D01*
X136584329Y-121040935D01*
X136539853Y-121107498D01*
X136509218Y-121181458D01*
X136493600Y-121259973D01*
X136493600Y-121340027D01*
X136509218Y-121418542D01*
X136539853Y-121492502D01*
X136544400Y-121499307D01*
X136544400Y-122037767D01*
X136540147Y-122027498D01*
X136495671Y-121960935D01*
X136439065Y-121904329D01*
X136372502Y-121859853D01*
X136298542Y-121829218D01*
X136220027Y-121813600D01*
X136139973Y-121813600D01*
X136061458Y-121829218D01*
X135987498Y-121859853D01*
X135920935Y-121904329D01*
X135864329Y-121960935D01*
X135819853Y-122027498D01*
X135789218Y-122101458D01*
X135773600Y-122179973D01*
X135773600Y-122260027D01*
X135789218Y-122338542D01*
X135819853Y-122412502D01*
X135824401Y-122419309D01*
X135824401Y-123233705D01*
X135807101Y-123216405D01*
X135740538Y-123171929D01*
X135666578Y-123141294D01*
X135588063Y-123125676D01*
X135508009Y-123125676D01*
X135429494Y-123141294D01*
X135355534Y-123171929D01*
X135335600Y-123185248D01*
X135335600Y-122277293D01*
X135485538Y-122127355D01*
X135499098Y-122116227D01*
X135510225Y-122102669D01*
X135510230Y-122102664D01*
X135516183Y-122095411D01*
X135610515Y-122001079D01*
X135618542Y-121999482D01*
X135692502Y-121968847D01*
X135759065Y-121924371D01*
X135815671Y-121867765D01*
X135860147Y-121801202D01*
X135890782Y-121727242D01*
X135906400Y-121648727D01*
X135906400Y-121568673D01*
X135890782Y-121490158D01*
X135860147Y-121416198D01*
X135815671Y-121349635D01*
X135759065Y-121293029D01*
X135692502Y-121248553D01*
X135618542Y-121217918D01*
X135540027Y-121202300D01*
X135459973Y-121202300D01*
X135381458Y-121217918D01*
X135307498Y-121248553D01*
X135240935Y-121293029D01*
X135184329Y-121349635D01*
X135139853Y-121416198D01*
X135109218Y-121490158D01*
X135107621Y-121498185D01*
X135007336Y-121598471D01*
X134993772Y-121609603D01*
X134976695Y-121630411D01*
X134740901Y-121866206D01*
X134727337Y-121877338D01*
X134682899Y-121931485D01*
X134649879Y-121993261D01*
X134629546Y-122060291D01*
X134624400Y-122112538D01*
X134624400Y-122112545D01*
X134622681Y-122130000D01*
X134624400Y-122147455D01*
X134624400Y-124921398D01*
X134615671Y-124908334D01*
X134559065Y-124851728D01*
X134492502Y-124807252D01*
X134418542Y-124776617D01*
X134340027Y-124760999D01*
X134259973Y-124760999D01*
X134181458Y-124776617D01*
X134107498Y-124807252D01*
X134040935Y-124851728D01*
X133984329Y-124908334D01*
X133939853Y-124974897D01*
X133909218Y-125048857D01*
X133893600Y-125127372D01*
X133893600Y-125207426D01*
X133909218Y-125285941D01*
X133939853Y-125359901D01*
X133984329Y-125426464D01*
X134040935Y-125483070D01*
X134107498Y-125527546D01*
X134181458Y-125558181D01*
X134259973Y-125573799D01*
X134340027Y-125573799D01*
X134418542Y-125558181D01*
X134492502Y-125527546D01*
X134559065Y-125483070D01*
X134615671Y-125426464D01*
X134624400Y-125413399D01*
X134624401Y-129362534D01*
X134622681Y-129380000D01*
X134629546Y-129449710D01*
X134649880Y-129516741D01*
X134650046Y-129517051D01*
X134682900Y-129578516D01*
X134727338Y-129632663D01*
X134740901Y-129643794D01*
X135770107Y-130673000D01*
X123400000Y-130673000D01*
X123375224Y-130675440D01*
X123351399Y-130682667D01*
X123329443Y-130694403D01*
X123317165Y-130703733D01*
X119052882Y-134373000D01*
X112927000Y-134373000D01*
X112927000Y-130185536D01*
X117526258Y-128319973D01*
X132493600Y-128319973D01*
X132493600Y-128400027D01*
X132509218Y-128478542D01*
X132539853Y-128552502D01*
X132584329Y-128619065D01*
X132640935Y-128675671D01*
X132707498Y-128720147D01*
X132781458Y-128750782D01*
X132859973Y-128766400D01*
X132940027Y-128766400D01*
X133018542Y-128750782D01*
X133092502Y-128720147D01*
X133159065Y-128675671D01*
X133215671Y-128619065D01*
X133260147Y-128552502D01*
X133290782Y-128478542D01*
X133306400Y-128400027D01*
X133306400Y-128319973D01*
X133290782Y-128241458D01*
X133260147Y-128167498D01*
X133215671Y-128100935D01*
X133159065Y-128044329D01*
X133092502Y-127999853D01*
X133018542Y-127969218D01*
X132940027Y-127953600D01*
X132859973Y-127953600D01*
X132781458Y-127969218D01*
X132707498Y-127999853D01*
X132640935Y-128044329D01*
X132584329Y-128100935D01*
X132539853Y-128167498D01*
X132509218Y-128241458D01*
X132493600Y-128319973D01*
X117526258Y-128319973D01*
X121594080Y-126669973D01*
X131143600Y-126669973D01*
X131143600Y-126750027D01*
X131159218Y-126828542D01*
X131189853Y-126902502D01*
X131234329Y-126969065D01*
X131290935Y-127025671D01*
X131357498Y-127070147D01*
X131431458Y-127100782D01*
X131509973Y-127116400D01*
X131590027Y-127116400D01*
X131668542Y-127100782D01*
X131742502Y-127070147D01*
X131809065Y-127025671D01*
X131865671Y-126969065D01*
X131910147Y-126902502D01*
X131940782Y-126828542D01*
X131956400Y-126750027D01*
X131956400Y-126669973D01*
X131940782Y-126591458D01*
X131910147Y-126517498D01*
X131867252Y-126453301D01*
X131877498Y-126460147D01*
X131951458Y-126490782D01*
X132029973Y-126506400D01*
X132110027Y-126506400D01*
X132188542Y-126490782D01*
X132262502Y-126460147D01*
X132329065Y-126415671D01*
X132385671Y-126359065D01*
X132430147Y-126292502D01*
X132460782Y-126218542D01*
X132462486Y-126209973D01*
X132653600Y-126209973D01*
X132653600Y-126290027D01*
X132669218Y-126368542D01*
X132699853Y-126442502D01*
X132744329Y-126509065D01*
X132800935Y-126565671D01*
X132867498Y-126610147D01*
X132941458Y-126640782D01*
X133019973Y-126656400D01*
X133100027Y-126656400D01*
X133178542Y-126640782D01*
X133252502Y-126610147D01*
X133319065Y-126565671D01*
X133375671Y-126509065D01*
X133420147Y-126442502D01*
X133450782Y-126368542D01*
X133466400Y-126290027D01*
X133466400Y-126209973D01*
X133450782Y-126131458D01*
X133420147Y-126057498D01*
X133375671Y-125990935D01*
X133319065Y-125934329D01*
X133252502Y-125889853D01*
X133178542Y-125859218D01*
X133100027Y-125843600D01*
X133019973Y-125843600D01*
X132941458Y-125859218D01*
X132867498Y-125889853D01*
X132800935Y-125934329D01*
X132744329Y-125990935D01*
X132699853Y-126057498D01*
X132669218Y-126131458D01*
X132653600Y-126209973D01*
X132462486Y-126209973D01*
X132476400Y-126140027D01*
X132476400Y-126059973D01*
X132460782Y-125981458D01*
X132430147Y-125907498D01*
X132385671Y-125840935D01*
X132329065Y-125784329D01*
X132262502Y-125739853D01*
X132188542Y-125709218D01*
X132110027Y-125693600D01*
X132029973Y-125693600D01*
X131951458Y-125709218D01*
X131877498Y-125739853D01*
X131810935Y-125784329D01*
X131754329Y-125840935D01*
X131709853Y-125907498D01*
X131679218Y-125981458D01*
X131663600Y-126059973D01*
X131663600Y-126140027D01*
X131679218Y-126218542D01*
X131709853Y-126292502D01*
X131752748Y-126356699D01*
X131742502Y-126349853D01*
X131668542Y-126319218D01*
X131590027Y-126303600D01*
X131509973Y-126303600D01*
X131431458Y-126319218D01*
X131357498Y-126349853D01*
X131290935Y-126394329D01*
X131234329Y-126450935D01*
X131189853Y-126517498D01*
X131159218Y-126591458D01*
X131143600Y-126669973D01*
X121594080Y-126669973D01*
X123714278Y-125809973D01*
X125593600Y-125809973D01*
X125593600Y-125890027D01*
X125609218Y-125968542D01*
X125639853Y-126042502D01*
X125684329Y-126109065D01*
X125740935Y-126165671D01*
X125807498Y-126210147D01*
X125881458Y-126240782D01*
X125959973Y-126256400D01*
X126040027Y-126256400D01*
X126118542Y-126240782D01*
X126192502Y-126210147D01*
X126259065Y-126165671D01*
X126315671Y-126109065D01*
X126360147Y-126042502D01*
X126390782Y-125968542D01*
X126406400Y-125890027D01*
X126406400Y-125809973D01*
X126390782Y-125731458D01*
X126360147Y-125657498D01*
X126315671Y-125590935D01*
X126259065Y-125534329D01*
X126192502Y-125489853D01*
X126118542Y-125459218D01*
X126040027Y-125443600D01*
X125959973Y-125443600D01*
X125881458Y-125459218D01*
X125807498Y-125489853D01*
X125740935Y-125534329D01*
X125684329Y-125590935D01*
X125639853Y-125657498D01*
X125609218Y-125731458D01*
X125593600Y-125809973D01*
X123714278Y-125809973D01*
X124946951Y-125309973D01*
X127883600Y-125309973D01*
X127883600Y-125390027D01*
X127899218Y-125468542D01*
X127929853Y-125542502D01*
X127974329Y-125609065D01*
X128030935Y-125665671D01*
X128097498Y-125710147D01*
X128171458Y-125740782D01*
X128249973Y-125756400D01*
X128330027Y-125756400D01*
X128408542Y-125740782D01*
X128482502Y-125710147D01*
X128549065Y-125665671D01*
X128605671Y-125609065D01*
X128650147Y-125542502D01*
X128680782Y-125468542D01*
X128696400Y-125390027D01*
X128696400Y-125309973D01*
X128680782Y-125231458D01*
X128650147Y-125157498D01*
X128605671Y-125090935D01*
X128549065Y-125034329D01*
X128482502Y-124989853D01*
X128408542Y-124959218D01*
X128330027Y-124943600D01*
X128249973Y-124943600D01*
X128171458Y-124959218D01*
X128097498Y-124989853D01*
X128030935Y-125034329D01*
X127974329Y-125090935D01*
X127929853Y-125157498D01*
X127899218Y-125231458D01*
X127883600Y-125309973D01*
X124946951Y-125309973D01*
X137724776Y-120127000D01*
X141274344Y-120127000D01*
X141357618Y-127954724D01*
G37*
X141357618Y-127954724D02*
X138355600Y-124952707D01*
X138355600Y-124299307D01*
X138360147Y-124292502D01*
X138390782Y-124218542D01*
X138406400Y-124140027D01*
X138406400Y-124059973D01*
X138390782Y-123981458D01*
X138360147Y-123907498D01*
X138315671Y-123840935D01*
X138259065Y-123784329D01*
X138192502Y-123739853D01*
X138118542Y-123709218D01*
X138040027Y-123693600D01*
X137959973Y-123693600D01*
X137881458Y-123709218D01*
X137807498Y-123739853D01*
X137740935Y-123784329D01*
X137684329Y-123840935D01*
X137639853Y-123907498D01*
X137609218Y-123981458D01*
X137593600Y-124059973D01*
X137593600Y-124140027D01*
X137609218Y-124218542D01*
X137639853Y-124292502D01*
X137644400Y-124299307D01*
X137644401Y-124683932D01*
X137615671Y-124640935D01*
X137559065Y-124584329D01*
X137492502Y-124539853D01*
X137418542Y-124509218D01*
X137340027Y-124493600D01*
X137259973Y-124493600D01*
X137181458Y-124509218D01*
X137107498Y-124539853D01*
X137040935Y-124584329D01*
X136984329Y-124640935D01*
X136939853Y-124707498D01*
X136909218Y-124781458D01*
X136893600Y-124859973D01*
X136893600Y-124940027D01*
X136909218Y-125018542D01*
X136939853Y-125092502D01*
X136944400Y-125099308D01*
X136944401Y-125448220D01*
X136942681Y-125465685D01*
X136949546Y-125535395D01*
X136969880Y-125602426D01*
X136986390Y-125633313D01*
X137002900Y-125664201D01*
X137047338Y-125718348D01*
X137060901Y-125729479D01*
X141360900Y-130029480D01*
X141360911Y-130029489D01*
X141379892Y-130048470D01*
X141411736Y-133041856D01*
X136865810Y-128495931D01*
X136865810Y-123437084D01*
X137139105Y-123163790D01*
X137152663Y-123152663D01*
X137163790Y-123139105D01*
X137163795Y-123139100D01*
X137197100Y-123098517D01*
X137230120Y-123036742D01*
X137230121Y-123036740D01*
X137250454Y-122969710D01*
X137255600Y-122917463D01*
X137255600Y-122917454D01*
X137257319Y-122900001D01*
X137255600Y-122882548D01*
X137255600Y-121499307D01*
X137260147Y-121492502D01*
X137290782Y-121418542D01*
X137306400Y-121340027D01*
X137306400Y-121259973D01*
X137290782Y-121181458D01*
X137260147Y-121107498D01*
X137215671Y-121040935D01*
X137159065Y-120984329D01*
X137092502Y-120939853D01*
X137018542Y-120909218D01*
X136940027Y-120893600D01*
X136859973Y-120893600D01*
X136781458Y-120909218D01*
X136707498Y-120939853D01*
X136640935Y-120984329D01*
X136584329Y-121040935D01*
X136539853Y-121107498D01*
X136509218Y-121181458D01*
X136493600Y-121259973D01*
X136493600Y-121340027D01*
X136509218Y-121418542D01*
X136539853Y-121492502D01*
X136544400Y-121499307D01*
X136544400Y-122037767D01*
X136540147Y-122027498D01*
X136495671Y-121960935D01*
X136439065Y-121904329D01*
X136372502Y-121859853D01*
X136298542Y-121829218D01*
X136220027Y-121813600D01*
X136139973Y-121813600D01*
X136061458Y-121829218D01*
X135987498Y-121859853D01*
X135920935Y-121904329D01*
X135864329Y-121960935D01*
X135819853Y-122027498D01*
X135789218Y-122101458D01*
X135773600Y-122179973D01*
X135773600Y-122260027D01*
X135789218Y-122338542D01*
X135819853Y-122412502D01*
X135824401Y-122419309D01*
X135824401Y-123233705D01*
X135807101Y-123216405D01*
X135740538Y-123171929D01*
X135666578Y-123141294D01*
X135588063Y-123125676D01*
X135508009Y-123125676D01*
X135429494Y-123141294D01*
X135355534Y-123171929D01*
X135335600Y-123185248D01*
X135335600Y-122277293D01*
X135485538Y-122127355D01*
X135499098Y-122116227D01*
X135510225Y-122102669D01*
X135510230Y-122102664D01*
X135516183Y-122095411D01*
X135610515Y-122001079D01*
X135618542Y-121999482D01*
X135692502Y-121968847D01*
X135759065Y-121924371D01*
X135815671Y-121867765D01*
X135860147Y-121801202D01*
X135890782Y-121727242D01*
X135906400Y-121648727D01*
X135906400Y-121568673D01*
X135890782Y-121490158D01*
X135860147Y-121416198D01*
X135815671Y-121349635D01*
X135759065Y-121293029D01*
X135692502Y-121248553D01*
X135618542Y-121217918D01*
X135540027Y-121202300D01*
X135459973Y-121202300D01*
X135381458Y-121217918D01*
X135307498Y-121248553D01*
X135240935Y-121293029D01*
X135184329Y-121349635D01*
X135139853Y-121416198D01*
X135109218Y-121490158D01*
X135107621Y-121498185D01*
X135007336Y-121598471D01*
X134993772Y-121609603D01*
X134976695Y-121630411D01*
X134740901Y-121866206D01*
X134727337Y-121877338D01*
X134682899Y-121931485D01*
X134649879Y-121993261D01*
X134629546Y-122060291D01*
X134624400Y-122112538D01*
X134624400Y-122112545D01*
X134622681Y-122130000D01*
X134624400Y-122147455D01*
X134624400Y-124921398D01*
X134615671Y-124908334D01*
X134559065Y-124851728D01*
X134492502Y-124807252D01*
X134418542Y-124776617D01*
X134340027Y-124760999D01*
X134259973Y-124760999D01*
X134181458Y-124776617D01*
X134107498Y-124807252D01*
X134040935Y-124851728D01*
X133984329Y-124908334D01*
X133939853Y-124974897D01*
X133909218Y-125048857D01*
X133893600Y-125127372D01*
X133893600Y-125207426D01*
X133909218Y-125285941D01*
X133939853Y-125359901D01*
X133984329Y-125426464D01*
X134040935Y-125483070D01*
X134107498Y-125527546D01*
X134181458Y-125558181D01*
X134259973Y-125573799D01*
X134340027Y-125573799D01*
X134418542Y-125558181D01*
X134492502Y-125527546D01*
X134559065Y-125483070D01*
X134615671Y-125426464D01*
X134624400Y-125413399D01*
X134624401Y-129362534D01*
X134622681Y-129380000D01*
X134629546Y-129449710D01*
X134649880Y-129516741D01*
X134650046Y-129517051D01*
X134682900Y-129578516D01*
X134727338Y-129632663D01*
X134740901Y-129643794D01*
X135770107Y-130673000D01*
X123400000Y-130673000D01*
X123375224Y-130675440D01*
X123351399Y-130682667D01*
X123329443Y-130694403D01*
X123317165Y-130703733D01*
X119052882Y-134373000D01*
X112927000Y-134373000D01*
X112927000Y-130185536D01*
X117526258Y-128319973D01*
X132493600Y-128319973D01*
X132493600Y-128400027D01*
X132509218Y-128478542D01*
X132539853Y-128552502D01*
X132584329Y-128619065D01*
X132640935Y-128675671D01*
X132707498Y-128720147D01*
X132781458Y-128750782D01*
X132859973Y-128766400D01*
X132940027Y-128766400D01*
X133018542Y-128750782D01*
X133092502Y-128720147D01*
X133159065Y-128675671D01*
X133215671Y-128619065D01*
X133260147Y-128552502D01*
X133290782Y-128478542D01*
X133306400Y-128400027D01*
X133306400Y-128319973D01*
X133290782Y-128241458D01*
X133260147Y-128167498D01*
X133215671Y-128100935D01*
X133159065Y-128044329D01*
X133092502Y-127999853D01*
X133018542Y-127969218D01*
X132940027Y-127953600D01*
X132859973Y-127953600D01*
X132781458Y-127969218D01*
X132707498Y-127999853D01*
X132640935Y-128044329D01*
X132584329Y-128100935D01*
X132539853Y-128167498D01*
X132509218Y-128241458D01*
X132493600Y-128319973D01*
X117526258Y-128319973D01*
X121594080Y-126669973D01*
X131143600Y-126669973D01*
X131143600Y-126750027D01*
X131159218Y-126828542D01*
X131189853Y-126902502D01*
X131234329Y-126969065D01*
X131290935Y-127025671D01*
X131357498Y-127070147D01*
X131431458Y-127100782D01*
X131509973Y-127116400D01*
X131590027Y-127116400D01*
X131668542Y-127100782D01*
X131742502Y-127070147D01*
X131809065Y-127025671D01*
X131865671Y-126969065D01*
X131910147Y-126902502D01*
X131940782Y-126828542D01*
X131956400Y-126750027D01*
X131956400Y-126669973D01*
X131940782Y-126591458D01*
X131910147Y-126517498D01*
X131867252Y-126453301D01*
X131877498Y-126460147D01*
X131951458Y-126490782D01*
X132029973Y-126506400D01*
X132110027Y-126506400D01*
X132188542Y-126490782D01*
X132262502Y-126460147D01*
X132329065Y-126415671D01*
X132385671Y-126359065D01*
X132430147Y-126292502D01*
X132460782Y-126218542D01*
X132462486Y-126209973D01*
X132653600Y-126209973D01*
X132653600Y-126290027D01*
X132669218Y-126368542D01*
X132699853Y-126442502D01*
X132744329Y-126509065D01*
X132800935Y-126565671D01*
X132867498Y-126610147D01*
X132941458Y-126640782D01*
X133019973Y-126656400D01*
X133100027Y-126656400D01*
X133178542Y-126640782D01*
X133252502Y-126610147D01*
X133319065Y-126565671D01*
X133375671Y-126509065D01*
X133420147Y-126442502D01*
X133450782Y-126368542D01*
X133466400Y-126290027D01*
X133466400Y-126209973D01*
X133450782Y-126131458D01*
X133420147Y-126057498D01*
X133375671Y-125990935D01*
X133319065Y-125934329D01*
X133252502Y-125889853D01*
X133178542Y-125859218D01*
X133100027Y-125843600D01*
X133019973Y-125843600D01*
X132941458Y-125859218D01*
X132867498Y-125889853D01*
X132800935Y-125934329D01*
X132744329Y-125990935D01*
X132699853Y-126057498D01*
X132669218Y-126131458D01*
X132653600Y-126209973D01*
X132462486Y-126209973D01*
X132476400Y-126140027D01*
X132476400Y-126059973D01*
X132460782Y-125981458D01*
X132430147Y-125907498D01*
X132385671Y-125840935D01*
X132329065Y-125784329D01*
X132262502Y-125739853D01*
X132188542Y-125709218D01*
X132110027Y-125693600D01*
X132029973Y-125693600D01*
X131951458Y-125709218D01*
X131877498Y-125739853D01*
X131810935Y-125784329D01*
X131754329Y-125840935D01*
X131709853Y-125907498D01*
X131679218Y-125981458D01*
X131663600Y-126059973D01*
X131663600Y-126140027D01*
X131679218Y-126218542D01*
X131709853Y-126292502D01*
X131752748Y-126356699D01*
X131742502Y-126349853D01*
X131668542Y-126319218D01*
X131590027Y-126303600D01*
X131509973Y-126303600D01*
X131431458Y-126319218D01*
X131357498Y-126349853D01*
X131290935Y-126394329D01*
X131234329Y-126450935D01*
X131189853Y-126517498D01*
X131159218Y-126591458D01*
X131143600Y-126669973D01*
X121594080Y-126669973D01*
X123714278Y-125809973D01*
X125593600Y-125809973D01*
X125593600Y-125890027D01*
X125609218Y-125968542D01*
X125639853Y-126042502D01*
X125684329Y-126109065D01*
X125740935Y-126165671D01*
X125807498Y-126210147D01*
X125881458Y-126240782D01*
X125959973Y-126256400D01*
X126040027Y-126256400D01*
X126118542Y-126240782D01*
X126192502Y-126210147D01*
X126259065Y-126165671D01*
X126315671Y-126109065D01*
X126360147Y-126042502D01*
X126390782Y-125968542D01*
X126406400Y-125890027D01*
X126406400Y-125809973D01*
X126390782Y-125731458D01*
X126360147Y-125657498D01*
X126315671Y-125590935D01*
X126259065Y-125534329D01*
X126192502Y-125489853D01*
X126118542Y-125459218D01*
X126040027Y-125443600D01*
X125959973Y-125443600D01*
X125881458Y-125459218D01*
X125807498Y-125489853D01*
X125740935Y-125534329D01*
X125684329Y-125590935D01*
X125639853Y-125657498D01*
X125609218Y-125731458D01*
X125593600Y-125809973D01*
X123714278Y-125809973D01*
X124946951Y-125309973D01*
X127883600Y-125309973D01*
X127883600Y-125390027D01*
X127899218Y-125468542D01*
X127929853Y-125542502D01*
X127974329Y-125609065D01*
X128030935Y-125665671D01*
X128097498Y-125710147D01*
X128171458Y-125740782D01*
X128249973Y-125756400D01*
X128330027Y-125756400D01*
X128408542Y-125740782D01*
X128482502Y-125710147D01*
X128549065Y-125665671D01*
X128605671Y-125609065D01*
X128650147Y-125542502D01*
X128680782Y-125468542D01*
X128696400Y-125390027D01*
X128696400Y-125309973D01*
X128680782Y-125231458D01*
X128650147Y-125157498D01*
X128605671Y-125090935D01*
X128549065Y-125034329D01*
X128482502Y-124989853D01*
X128408542Y-124959218D01*
X128330027Y-124943600D01*
X128249973Y-124943600D01*
X128171458Y-124959218D01*
X128097498Y-124989853D01*
X128030935Y-125034329D01*
X127974329Y-125090935D01*
X127929853Y-125157498D01*
X127899218Y-125231458D01*
X127883600Y-125309973D01*
X124946951Y-125309973D01*
X137724776Y-120127000D01*
X141274344Y-120127000D01*
X141357618Y-127954724D01*
G36*
X154419801Y-121065708D02*
G01*
X154419800Y-122673787D01*
X154418203Y-122690000D01*
X154419800Y-122706213D01*
X154419800Y-122706214D01*
X154424578Y-122754729D01*
X154443460Y-122816972D01*
X154453926Y-122836553D01*
X154474121Y-122874337D01*
X154481541Y-122883378D01*
X154515384Y-122924616D01*
X154527987Y-122934959D01*
X154835201Y-123242174D01*
X154835200Y-123558387D01*
X154833603Y-123574600D01*
X154835200Y-123590813D01*
X154835200Y-123590814D01*
X154839978Y-123639329D01*
X154858860Y-123701572D01*
X154858861Y-123701573D01*
X154873000Y-123728027D01*
X154873000Y-130800000D01*
X154875440Y-130824776D01*
X154882667Y-130848601D01*
X154894403Y-130870557D01*
X154910197Y-130889803D01*
X154929443Y-130905597D01*
X154951399Y-130917333D01*
X154975224Y-130924560D01*
X155000000Y-130927000D01*
X157673000Y-130927000D01*
X157673000Y-133173000D01*
X154776073Y-133173000D01*
X151011971Y-126140072D01*
X150998128Y-126119379D01*
X150980514Y-126101784D01*
X150959806Y-126087963D01*
X150936800Y-126078449D01*
X150900000Y-126073000D01*
X142027000Y-126073000D01*
X142027000Y-124627000D01*
X148200000Y-124627000D01*
X148224776Y-124624560D01*
X148248601Y-124617333D01*
X148270557Y-124605597D01*
X148289803Y-124589803D01*
X148305597Y-124570557D01*
X148317333Y-124548601D01*
X148324560Y-124524776D01*
X148327000Y-124500000D01*
X148327000Y-120127000D01*
X153481093Y-120127000D01*
X154419801Y-121065708D01*
G37*
X154419801Y-121065708D02*
X154419800Y-122673787D01*
X154418203Y-122690000D01*
X154419800Y-122706213D01*
X154419800Y-122706214D01*
X154424578Y-122754729D01*
X154443460Y-122816972D01*
X154453926Y-122836553D01*
X154474121Y-122874337D01*
X154481541Y-122883378D01*
X154515384Y-122924616D01*
X154527987Y-122934959D01*
X154835201Y-123242174D01*
X154835200Y-123558387D01*
X154833603Y-123574600D01*
X154835200Y-123590813D01*
X154835200Y-123590814D01*
X154839978Y-123639329D01*
X154858860Y-123701572D01*
X154858861Y-123701573D01*
X154873000Y-123728027D01*
X154873000Y-130800000D01*
X154875440Y-130824776D01*
X154882667Y-130848601D01*
X154894403Y-130870557D01*
X154910197Y-130889803D01*
X154929443Y-130905597D01*
X154951399Y-130917333D01*
X154975224Y-130924560D01*
X155000000Y-130927000D01*
X157673000Y-130927000D01*
X157673000Y-133173000D01*
X154776073Y-133173000D01*
X151011971Y-126140072D01*
X150998128Y-126119379D01*
X150980514Y-126101784D01*
X150959806Y-126087963D01*
X150936800Y-126078449D01*
X150900000Y-126073000D01*
X142027000Y-126073000D01*
X142027000Y-124627000D01*
X148200000Y-124627000D01*
X148224776Y-124624560D01*
X148248601Y-124617333D01*
X148270557Y-124605597D01*
X148289803Y-124589803D01*
X148305597Y-124570557D01*
X148317333Y-124548601D01*
X148324560Y-124524776D01*
X148327000Y-124500000D01*
X148327000Y-120127000D01*
X153481093Y-120127000D01*
X154419801Y-121065708D01*
G36*
X154488029Y-133559928D02*
G01*
X154501872Y-133580621D01*
X154519486Y-133598216D01*
X154540194Y-133612037D01*
X154563200Y-133621551D01*
X154600000Y-133627000D01*
X157673000Y-133627000D01*
X157673000Y-135673000D01*
X154253686Y-135673000D01*
X150891094Y-132211508D01*
X150872080Y-132195437D01*
X150850296Y-132183384D01*
X150826579Y-132175812D01*
X150800000Y-132173000D01*
X142027000Y-132173000D01*
X142027000Y-130678012D01*
X148198992Y-130726996D01*
X148223787Y-130724752D01*
X148247668Y-130717715D01*
X148269717Y-130706153D01*
X148289087Y-130690512D01*
X148305033Y-130671393D01*
X148316943Y-130649530D01*
X148324359Y-130625764D01*
X148327000Y-130600000D01*
X148327000Y-126527000D01*
X150723927Y-126527000D01*
X154488029Y-133559928D01*
G37*
X154488029Y-133559928D02*
X154501872Y-133580621D01*
X154519486Y-133598216D01*
X154540194Y-133612037D01*
X154563200Y-133621551D01*
X154600000Y-133627000D01*
X157673000Y-133627000D01*
X157673000Y-135673000D01*
X154253686Y-135673000D01*
X150891094Y-132211508D01*
X150872080Y-132195437D01*
X150850296Y-132183384D01*
X150826579Y-132175812D01*
X150800000Y-132173000D01*
X142027000Y-132173000D01*
X142027000Y-130678012D01*
X148198992Y-130726996D01*
X148223787Y-130724752D01*
X148247668Y-130717715D01*
X148269717Y-130706153D01*
X148289087Y-130690512D01*
X148305033Y-130671393D01*
X148316943Y-130649530D01*
X148324359Y-130625764D01*
X148327000Y-130600000D01*
X148327000Y-126527000D01*
X150723927Y-126527000D01*
X154488029Y-133559928D01*
G36*
X154008906Y-136088492D02*
G01*
X154027920Y-136104563D01*
X154049704Y-136116616D01*
X154073421Y-136124188D01*
X154100000Y-136127000D01*
X157673455Y-136127000D01*
X157682544Y-138663000D01*
X142036470Y-138663000D01*
X142027533Y-136527000D01*
X148100000Y-136527000D01*
X148124776Y-136524560D01*
X148148601Y-136517333D01*
X148170557Y-136505597D01*
X148189803Y-136489803D01*
X148205597Y-136470557D01*
X148217333Y-136448601D01*
X148224560Y-136424776D01*
X148227000Y-136400000D01*
X148227000Y-132627000D01*
X150646314Y-132627000D01*
X154008906Y-136088492D01*
G37*
X154008906Y-136088492D02*
X154027920Y-136104563D01*
X154049704Y-136116616D01*
X154073421Y-136124188D01*
X154100000Y-136127000D01*
X157673455Y-136127000D01*
X157682544Y-138663000D01*
X142036470Y-138663000D01*
X142027533Y-136527000D01*
X148100000Y-136527000D01*
X148124776Y-136524560D01*
X148148601Y-136517333D01*
X148170557Y-136505597D01*
X148189803Y-136489803D01*
X148205597Y-136470557D01*
X148217333Y-136448601D01*
X148224560Y-136424776D01*
X148227000Y-136400000D01*
X148227000Y-132627000D01*
X150646314Y-132627000D01*
X154008906Y-136088492D01*
M02*
