G04 #@! TF.GenerationSoftware,KiCad,Pcbnew,5.0.2-bee76a0~70~ubuntu18.04.1*
G04 #@! TF.CreationDate,2020-02-26T15:26:05+01:00*
G04 #@! TF.ProjectId,output.rs485_usb_adapter_panel,6f757470-7574-42e7-9273-3438355f7573,rev?*
G04 #@! TF.SameCoordinates,Original*
G04 #@! TF.FileFunction,Copper,L2,Bot*
G04 #@! TF.FilePolarity,Positive*
%FSLAX46Y46*%
G04 Gerber Fmt 4.6, Leading zero omitted, Abs format (unit mm)*
G04 Created by KiCad (PCBNEW 5.0.2-bee76a0~70~ubuntu18.04.1) date Wed 26 Feb 2020 03:26:05 PM CET*
%MOMM*%
%LPD*%
G01*
G04 APERTURE LIST*
G04 #@! TA.AperFunction,SMDPad,CuDef*
%ADD10C,0.500000*%
G04 #@! TD*
G04 #@! TA.AperFunction,Conductor*
%ADD11C,0.100000*%
G04 #@! TD*
G04 #@! TA.AperFunction,ComponentPad*
%ADD12C,1.800000*%
G04 #@! TD*
G04 #@! TA.AperFunction,ComponentPad*
%ADD13R,1.800000X1.800000*%
G04 #@! TD*
G04 #@! TA.AperFunction,ComponentPad*
%ADD14C,4.400000*%
G04 #@! TD*
G04 #@! TA.AperFunction,ViaPad*
%ADD15C,0.800000*%
G04 #@! TD*
G04 #@! TA.AperFunction,Conductor*
%ADD16C,0.250000*%
G04 #@! TD*
G04 #@! TA.AperFunction,Conductor*
%ADD17C,0.400000*%
G04 #@! TD*
G04 #@! TA.AperFunction,Conductor*
%ADD18C,0.254000*%
G04 #@! TD*
G04 APERTURE END LIST*
D10*
G04 #@! TO.P,JP1,2*
G04 #@! TO.N,GND*
X166900000Y-99550000D03*
D11*
G04 #@! TD*
G04 #@! TO.N,GND*
G04 #@! TO.C,JP1*
G36*
X166150602Y-99550000D02*
X166150602Y-99525466D01*
X166155412Y-99476635D01*
X166164984Y-99428510D01*
X166179228Y-99381555D01*
X166198005Y-99336222D01*
X166221136Y-99292949D01*
X166248396Y-99252150D01*
X166279524Y-99214221D01*
X166314221Y-99179524D01*
X166352150Y-99148396D01*
X166392949Y-99121136D01*
X166436222Y-99098005D01*
X166481555Y-99079228D01*
X166528510Y-99064984D01*
X166576635Y-99055412D01*
X166625466Y-99050602D01*
X166650000Y-99050602D01*
X166650000Y-99050000D01*
X167150000Y-99050000D01*
X167150000Y-99050602D01*
X167174534Y-99050602D01*
X167223365Y-99055412D01*
X167271490Y-99064984D01*
X167318445Y-99079228D01*
X167363778Y-99098005D01*
X167407051Y-99121136D01*
X167447850Y-99148396D01*
X167485779Y-99179524D01*
X167520476Y-99214221D01*
X167551604Y-99252150D01*
X167578864Y-99292949D01*
X167601995Y-99336222D01*
X167620772Y-99381555D01*
X167635016Y-99428510D01*
X167644588Y-99476635D01*
X167649398Y-99525466D01*
X167649398Y-99550000D01*
X167650000Y-99550000D01*
X167650000Y-100050000D01*
X166150000Y-100050000D01*
X166150000Y-99550000D01*
X166150602Y-99550000D01*
X166150602Y-99550000D01*
G37*
D10*
G04 #@! TO.P,JP1,1*
G04 #@! TO.N,/term_te*
X166900000Y-100850000D03*
D11*
G04 #@! TD*
G04 #@! TO.N,/term_te*
G04 #@! TO.C,JP1*
G36*
X167650000Y-100350000D02*
X167650000Y-100850000D01*
X167649398Y-100850000D01*
X167649398Y-100874534D01*
X167644588Y-100923365D01*
X167635016Y-100971490D01*
X167620772Y-101018445D01*
X167601995Y-101063778D01*
X167578864Y-101107051D01*
X167551604Y-101147850D01*
X167520476Y-101185779D01*
X167485779Y-101220476D01*
X167447850Y-101251604D01*
X167407051Y-101278864D01*
X167363778Y-101301995D01*
X167318445Y-101320772D01*
X167271490Y-101335016D01*
X167223365Y-101344588D01*
X167174534Y-101349398D01*
X167150000Y-101349398D01*
X167150000Y-101350000D01*
X166650000Y-101350000D01*
X166650000Y-101349398D01*
X166625466Y-101349398D01*
X166576635Y-101344588D01*
X166528510Y-101335016D01*
X166481555Y-101320772D01*
X166436222Y-101301995D01*
X166392949Y-101278864D01*
X166352150Y-101251604D01*
X166314221Y-101220476D01*
X166279524Y-101185779D01*
X166248396Y-101147850D01*
X166221136Y-101107051D01*
X166198005Y-101063778D01*
X166179228Y-101018445D01*
X166164984Y-100971490D01*
X166155412Y-100923365D01*
X166150602Y-100874534D01*
X166150602Y-100850000D01*
X166150000Y-100850000D01*
X166150000Y-100350000D01*
X167650000Y-100350000D01*
X167650000Y-100350000D01*
G37*
D10*
G04 #@! TO.P,JP1,2*
G04 #@! TO.N,GND*
X125900000Y-99550000D03*
D11*
G04 #@! TD*
G04 #@! TO.N,GND*
G04 #@! TO.C,JP1*
G36*
X125150602Y-99550000D02*
X125150602Y-99525466D01*
X125155412Y-99476635D01*
X125164984Y-99428510D01*
X125179228Y-99381555D01*
X125198005Y-99336222D01*
X125221136Y-99292949D01*
X125248396Y-99252150D01*
X125279524Y-99214221D01*
X125314221Y-99179524D01*
X125352150Y-99148396D01*
X125392949Y-99121136D01*
X125436222Y-99098005D01*
X125481555Y-99079228D01*
X125528510Y-99064984D01*
X125576635Y-99055412D01*
X125625466Y-99050602D01*
X125650000Y-99050602D01*
X125650000Y-99050000D01*
X126150000Y-99050000D01*
X126150000Y-99050602D01*
X126174534Y-99050602D01*
X126223365Y-99055412D01*
X126271490Y-99064984D01*
X126318445Y-99079228D01*
X126363778Y-99098005D01*
X126407051Y-99121136D01*
X126447850Y-99148396D01*
X126485779Y-99179524D01*
X126520476Y-99214221D01*
X126551604Y-99252150D01*
X126578864Y-99292949D01*
X126601995Y-99336222D01*
X126620772Y-99381555D01*
X126635016Y-99428510D01*
X126644588Y-99476635D01*
X126649398Y-99525466D01*
X126649398Y-99550000D01*
X126650000Y-99550000D01*
X126650000Y-100050000D01*
X125150000Y-100050000D01*
X125150000Y-99550000D01*
X125150602Y-99550000D01*
X125150602Y-99550000D01*
G37*
D10*
G04 #@! TO.P,JP1,1*
G04 #@! TO.N,/term_te*
X125900000Y-100850000D03*
D11*
G04 #@! TD*
G04 #@! TO.N,/term_te*
G04 #@! TO.C,JP1*
G36*
X126650000Y-100350000D02*
X126650000Y-100850000D01*
X126649398Y-100850000D01*
X126649398Y-100874534D01*
X126644588Y-100923365D01*
X126635016Y-100971490D01*
X126620772Y-101018445D01*
X126601995Y-101063778D01*
X126578864Y-101107051D01*
X126551604Y-101147850D01*
X126520476Y-101185779D01*
X126485779Y-101220476D01*
X126447850Y-101251604D01*
X126407051Y-101278864D01*
X126363778Y-101301995D01*
X126318445Y-101320772D01*
X126271490Y-101335016D01*
X126223365Y-101344588D01*
X126174534Y-101349398D01*
X126150000Y-101349398D01*
X126150000Y-101350000D01*
X125650000Y-101350000D01*
X125650000Y-101349398D01*
X125625466Y-101349398D01*
X125576635Y-101344588D01*
X125528510Y-101335016D01*
X125481555Y-101320772D01*
X125436222Y-101301995D01*
X125392949Y-101278864D01*
X125352150Y-101251604D01*
X125314221Y-101220476D01*
X125279524Y-101185779D01*
X125248396Y-101147850D01*
X125221136Y-101107051D01*
X125198005Y-101063778D01*
X125179228Y-101018445D01*
X125164984Y-100971490D01*
X125155412Y-100923365D01*
X125150602Y-100874534D01*
X125150602Y-100850000D01*
X125150000Y-100850000D01*
X125150000Y-100350000D01*
X126650000Y-100350000D01*
X126650000Y-100350000D01*
G37*
D10*
G04 #@! TO.P,JP1,2*
G04 #@! TO.N,GND*
X166900000Y-78550000D03*
D11*
G04 #@! TD*
G04 #@! TO.N,GND*
G04 #@! TO.C,JP1*
G36*
X166150602Y-78550000D02*
X166150602Y-78525466D01*
X166155412Y-78476635D01*
X166164984Y-78428510D01*
X166179228Y-78381555D01*
X166198005Y-78336222D01*
X166221136Y-78292949D01*
X166248396Y-78252150D01*
X166279524Y-78214221D01*
X166314221Y-78179524D01*
X166352150Y-78148396D01*
X166392949Y-78121136D01*
X166436222Y-78098005D01*
X166481555Y-78079228D01*
X166528510Y-78064984D01*
X166576635Y-78055412D01*
X166625466Y-78050602D01*
X166650000Y-78050602D01*
X166650000Y-78050000D01*
X167150000Y-78050000D01*
X167150000Y-78050602D01*
X167174534Y-78050602D01*
X167223365Y-78055412D01*
X167271490Y-78064984D01*
X167318445Y-78079228D01*
X167363778Y-78098005D01*
X167407051Y-78121136D01*
X167447850Y-78148396D01*
X167485779Y-78179524D01*
X167520476Y-78214221D01*
X167551604Y-78252150D01*
X167578864Y-78292949D01*
X167601995Y-78336222D01*
X167620772Y-78381555D01*
X167635016Y-78428510D01*
X167644588Y-78476635D01*
X167649398Y-78525466D01*
X167649398Y-78550000D01*
X167650000Y-78550000D01*
X167650000Y-79050000D01*
X166150000Y-79050000D01*
X166150000Y-78550000D01*
X166150602Y-78550000D01*
X166150602Y-78550000D01*
G37*
D10*
G04 #@! TO.P,JP1,1*
G04 #@! TO.N,/term_te*
X166900000Y-79850000D03*
D11*
G04 #@! TD*
G04 #@! TO.N,/term_te*
G04 #@! TO.C,JP1*
G36*
X167650000Y-79350000D02*
X167650000Y-79850000D01*
X167649398Y-79850000D01*
X167649398Y-79874534D01*
X167644588Y-79923365D01*
X167635016Y-79971490D01*
X167620772Y-80018445D01*
X167601995Y-80063778D01*
X167578864Y-80107051D01*
X167551604Y-80147850D01*
X167520476Y-80185779D01*
X167485779Y-80220476D01*
X167447850Y-80251604D01*
X167407051Y-80278864D01*
X167363778Y-80301995D01*
X167318445Y-80320772D01*
X167271490Y-80335016D01*
X167223365Y-80344588D01*
X167174534Y-80349398D01*
X167150000Y-80349398D01*
X167150000Y-80350000D01*
X166650000Y-80350000D01*
X166650000Y-80349398D01*
X166625466Y-80349398D01*
X166576635Y-80344588D01*
X166528510Y-80335016D01*
X166481555Y-80320772D01*
X166436222Y-80301995D01*
X166392949Y-80278864D01*
X166352150Y-80251604D01*
X166314221Y-80220476D01*
X166279524Y-80185779D01*
X166248396Y-80147850D01*
X166221136Y-80107051D01*
X166198005Y-80063778D01*
X166179228Y-80018445D01*
X166164984Y-79971490D01*
X166155412Y-79923365D01*
X166150602Y-79874534D01*
X166150602Y-79850000D01*
X166150000Y-79850000D01*
X166150000Y-79350000D01*
X167650000Y-79350000D01*
X167650000Y-79350000D01*
G37*
D10*
G04 #@! TO.P,JP1,2*
G04 #@! TO.N,GND*
X125900000Y-78550000D03*
D11*
G04 #@! TD*
G04 #@! TO.N,GND*
G04 #@! TO.C,JP1*
G36*
X125150602Y-78550000D02*
X125150602Y-78525466D01*
X125155412Y-78476635D01*
X125164984Y-78428510D01*
X125179228Y-78381555D01*
X125198005Y-78336222D01*
X125221136Y-78292949D01*
X125248396Y-78252150D01*
X125279524Y-78214221D01*
X125314221Y-78179524D01*
X125352150Y-78148396D01*
X125392949Y-78121136D01*
X125436222Y-78098005D01*
X125481555Y-78079228D01*
X125528510Y-78064984D01*
X125576635Y-78055412D01*
X125625466Y-78050602D01*
X125650000Y-78050602D01*
X125650000Y-78050000D01*
X126150000Y-78050000D01*
X126150000Y-78050602D01*
X126174534Y-78050602D01*
X126223365Y-78055412D01*
X126271490Y-78064984D01*
X126318445Y-78079228D01*
X126363778Y-78098005D01*
X126407051Y-78121136D01*
X126447850Y-78148396D01*
X126485779Y-78179524D01*
X126520476Y-78214221D01*
X126551604Y-78252150D01*
X126578864Y-78292949D01*
X126601995Y-78336222D01*
X126620772Y-78381555D01*
X126635016Y-78428510D01*
X126644588Y-78476635D01*
X126649398Y-78525466D01*
X126649398Y-78550000D01*
X126650000Y-78550000D01*
X126650000Y-79050000D01*
X125150000Y-79050000D01*
X125150000Y-78550000D01*
X125150602Y-78550000D01*
X125150602Y-78550000D01*
G37*
D10*
G04 #@! TO.P,JP1,1*
G04 #@! TO.N,/term_te*
X125900000Y-79850000D03*
D11*
G04 #@! TD*
G04 #@! TO.N,/term_te*
G04 #@! TO.C,JP1*
G36*
X126650000Y-79350000D02*
X126650000Y-79850000D01*
X126649398Y-79850000D01*
X126649398Y-79874534D01*
X126644588Y-79923365D01*
X126635016Y-79971490D01*
X126620772Y-80018445D01*
X126601995Y-80063778D01*
X126578864Y-80107051D01*
X126551604Y-80147850D01*
X126520476Y-80185779D01*
X126485779Y-80220476D01*
X126447850Y-80251604D01*
X126407051Y-80278864D01*
X126363778Y-80301995D01*
X126318445Y-80320772D01*
X126271490Y-80335016D01*
X126223365Y-80344588D01*
X126174534Y-80349398D01*
X126150000Y-80349398D01*
X126150000Y-80350000D01*
X125650000Y-80350000D01*
X125650000Y-80349398D01*
X125625466Y-80349398D01*
X125576635Y-80344588D01*
X125528510Y-80335016D01*
X125481555Y-80320772D01*
X125436222Y-80301995D01*
X125392949Y-80278864D01*
X125352150Y-80251604D01*
X125314221Y-80220476D01*
X125279524Y-80185779D01*
X125248396Y-80147850D01*
X125221136Y-80107051D01*
X125198005Y-80063778D01*
X125179228Y-80018445D01*
X125164984Y-79971490D01*
X125155412Y-79923365D01*
X125150602Y-79874534D01*
X125150602Y-79850000D01*
X125150000Y-79850000D01*
X125150000Y-79350000D01*
X126650000Y-79350000D01*
X126650000Y-79350000D01*
G37*
D10*
G04 #@! TO.P,JP1,2*
G04 #@! TO.N,GND*
X166900000Y-57550000D03*
D11*
G04 #@! TD*
G04 #@! TO.N,GND*
G04 #@! TO.C,JP1*
G36*
X166150602Y-57550000D02*
X166150602Y-57525466D01*
X166155412Y-57476635D01*
X166164984Y-57428510D01*
X166179228Y-57381555D01*
X166198005Y-57336222D01*
X166221136Y-57292949D01*
X166248396Y-57252150D01*
X166279524Y-57214221D01*
X166314221Y-57179524D01*
X166352150Y-57148396D01*
X166392949Y-57121136D01*
X166436222Y-57098005D01*
X166481555Y-57079228D01*
X166528510Y-57064984D01*
X166576635Y-57055412D01*
X166625466Y-57050602D01*
X166650000Y-57050602D01*
X166650000Y-57050000D01*
X167150000Y-57050000D01*
X167150000Y-57050602D01*
X167174534Y-57050602D01*
X167223365Y-57055412D01*
X167271490Y-57064984D01*
X167318445Y-57079228D01*
X167363778Y-57098005D01*
X167407051Y-57121136D01*
X167447850Y-57148396D01*
X167485779Y-57179524D01*
X167520476Y-57214221D01*
X167551604Y-57252150D01*
X167578864Y-57292949D01*
X167601995Y-57336222D01*
X167620772Y-57381555D01*
X167635016Y-57428510D01*
X167644588Y-57476635D01*
X167649398Y-57525466D01*
X167649398Y-57550000D01*
X167650000Y-57550000D01*
X167650000Y-58050000D01*
X166150000Y-58050000D01*
X166150000Y-57550000D01*
X166150602Y-57550000D01*
X166150602Y-57550000D01*
G37*
D10*
G04 #@! TO.P,JP1,1*
G04 #@! TO.N,/term_te*
X166900000Y-58850000D03*
D11*
G04 #@! TD*
G04 #@! TO.N,/term_te*
G04 #@! TO.C,JP1*
G36*
X167650000Y-58350000D02*
X167650000Y-58850000D01*
X167649398Y-58850000D01*
X167649398Y-58874534D01*
X167644588Y-58923365D01*
X167635016Y-58971490D01*
X167620772Y-59018445D01*
X167601995Y-59063778D01*
X167578864Y-59107051D01*
X167551604Y-59147850D01*
X167520476Y-59185779D01*
X167485779Y-59220476D01*
X167447850Y-59251604D01*
X167407051Y-59278864D01*
X167363778Y-59301995D01*
X167318445Y-59320772D01*
X167271490Y-59335016D01*
X167223365Y-59344588D01*
X167174534Y-59349398D01*
X167150000Y-59349398D01*
X167150000Y-59350000D01*
X166650000Y-59350000D01*
X166650000Y-59349398D01*
X166625466Y-59349398D01*
X166576635Y-59344588D01*
X166528510Y-59335016D01*
X166481555Y-59320772D01*
X166436222Y-59301995D01*
X166392949Y-59278864D01*
X166352150Y-59251604D01*
X166314221Y-59220476D01*
X166279524Y-59185779D01*
X166248396Y-59147850D01*
X166221136Y-59107051D01*
X166198005Y-59063778D01*
X166179228Y-59018445D01*
X166164984Y-58971490D01*
X166155412Y-58923365D01*
X166150602Y-58874534D01*
X166150602Y-58850000D01*
X166150000Y-58850000D01*
X166150000Y-58350000D01*
X167650000Y-58350000D01*
X167650000Y-58350000D01*
G37*
D12*
G04 #@! TO.P,J3,4*
G04 #@! TO.N,/TX_iso*
X157005000Y-100330000D03*
G04 #@! TO.P,J3,3*
G04 #@! TO.N,/RX_iso*
X155735000Y-102870000D03*
G04 #@! TO.P,J3,2*
G04 #@! TO.N,+5V*
X154465000Y-100330000D03*
D13*
G04 #@! TO.P,J3,1*
G04 #@! TO.N,GND*
X153195000Y-102870000D03*
G04 #@! TD*
D12*
G04 #@! TO.P,J3,4*
G04 #@! TO.N,/TX_iso*
X116005000Y-100330000D03*
G04 #@! TO.P,J3,3*
G04 #@! TO.N,/RX_iso*
X114735000Y-102870000D03*
G04 #@! TO.P,J3,2*
G04 #@! TO.N,+5V*
X113465000Y-100330000D03*
D13*
G04 #@! TO.P,J3,1*
G04 #@! TO.N,GND*
X112195000Y-102870000D03*
G04 #@! TD*
D12*
G04 #@! TO.P,J3,4*
G04 #@! TO.N,/TX_iso*
X157005000Y-79330000D03*
G04 #@! TO.P,J3,3*
G04 #@! TO.N,/RX_iso*
X155735000Y-81870000D03*
G04 #@! TO.P,J3,2*
G04 #@! TO.N,+5V*
X154465000Y-79330000D03*
D13*
G04 #@! TO.P,J3,1*
G04 #@! TO.N,GND*
X153195000Y-81870000D03*
G04 #@! TD*
D12*
G04 #@! TO.P,J3,4*
G04 #@! TO.N,/TX_iso*
X116005000Y-79330000D03*
G04 #@! TO.P,J3,3*
G04 #@! TO.N,/RX_iso*
X114735000Y-81870000D03*
G04 #@! TO.P,J3,2*
G04 #@! TO.N,+5V*
X113465000Y-79330000D03*
D13*
G04 #@! TO.P,J3,1*
G04 #@! TO.N,GND*
X112195000Y-81870000D03*
G04 #@! TD*
D12*
G04 #@! TO.P,J3,4*
G04 #@! TO.N,/TX_iso*
X157005000Y-58330000D03*
G04 #@! TO.P,J3,3*
G04 #@! TO.N,/RX_iso*
X155735000Y-60870000D03*
G04 #@! TO.P,J3,2*
G04 #@! TO.N,+5V*
X154465000Y-58330000D03*
D13*
G04 #@! TO.P,J3,1*
G04 #@! TO.N,GND*
X153195000Y-60870000D03*
G04 #@! TD*
D12*
G04 #@! TO.P,J4,4*
G04 #@! TO.N,/h_Tx*
X180340000Y-99610000D03*
G04 #@! TO.P,J4,3*
G04 #@! TO.N,/l_Tx*
X177800000Y-98340000D03*
G04 #@! TO.P,J4,2*
G04 #@! TO.N,/h_Rx*
X180340000Y-97070000D03*
D13*
G04 #@! TO.P,J4,1*
G04 #@! TO.N,/l_Rx*
X177800000Y-95800000D03*
D12*
G04 #@! TO.P,J4,5*
G04 #@! TO.N,SHIELD*
X177800000Y-100880000D03*
G04 #@! TO.P,J4,6*
X180340000Y-102150000D03*
G04 #@! TD*
G04 #@! TO.P,J4,4*
G04 #@! TO.N,/h_Tx*
X139340000Y-99610000D03*
G04 #@! TO.P,J4,3*
G04 #@! TO.N,/l_Tx*
X136800000Y-98340000D03*
G04 #@! TO.P,J4,2*
G04 #@! TO.N,/h_Rx*
X139340000Y-97070000D03*
D13*
G04 #@! TO.P,J4,1*
G04 #@! TO.N,/l_Rx*
X136800000Y-95800000D03*
D12*
G04 #@! TO.P,J4,5*
G04 #@! TO.N,SHIELD*
X136800000Y-100880000D03*
G04 #@! TO.P,J4,6*
X139340000Y-102150000D03*
G04 #@! TD*
G04 #@! TO.P,J4,4*
G04 #@! TO.N,/h_Tx*
X180340000Y-78610000D03*
G04 #@! TO.P,J4,3*
G04 #@! TO.N,/l_Tx*
X177800000Y-77340000D03*
G04 #@! TO.P,J4,2*
G04 #@! TO.N,/h_Rx*
X180340000Y-76070000D03*
D13*
G04 #@! TO.P,J4,1*
G04 #@! TO.N,/l_Rx*
X177800000Y-74800000D03*
D12*
G04 #@! TO.P,J4,5*
G04 #@! TO.N,SHIELD*
X177800000Y-79880000D03*
G04 #@! TO.P,J4,6*
X180340000Y-81150000D03*
G04 #@! TD*
G04 #@! TO.P,J4,4*
G04 #@! TO.N,/h_Tx*
X139340000Y-78610000D03*
G04 #@! TO.P,J4,3*
G04 #@! TO.N,/l_Tx*
X136800000Y-77340000D03*
G04 #@! TO.P,J4,2*
G04 #@! TO.N,/h_Rx*
X139340000Y-76070000D03*
D13*
G04 #@! TO.P,J4,1*
G04 #@! TO.N,/l_Rx*
X136800000Y-74800000D03*
D12*
G04 #@! TO.P,J4,5*
G04 #@! TO.N,SHIELD*
X136800000Y-79880000D03*
G04 #@! TO.P,J4,6*
X139340000Y-81150000D03*
G04 #@! TD*
G04 #@! TO.P,J4,4*
G04 #@! TO.N,/h_Tx*
X180340000Y-57610000D03*
G04 #@! TO.P,J4,3*
G04 #@! TO.N,/l_Tx*
X177800000Y-56340000D03*
G04 #@! TO.P,J4,2*
G04 #@! TO.N,/h_Rx*
X180340000Y-55070000D03*
D13*
G04 #@! TO.P,J4,1*
G04 #@! TO.N,/l_Rx*
X177800000Y-53800000D03*
D12*
G04 #@! TO.P,J4,5*
G04 #@! TO.N,SHIELD*
X177800000Y-58880000D03*
G04 #@! TO.P,J4,6*
X180340000Y-60150000D03*
G04 #@! TD*
D14*
G04 #@! TO.P,H1,1*
G04 #@! TO.N,GND*
X147500000Y-102400000D03*
G04 #@! TD*
G04 #@! TO.P,H1,1*
G04 #@! TO.N,GND*
X106500000Y-102400000D03*
G04 #@! TD*
G04 #@! TO.P,H1,1*
G04 #@! TO.N,GND*
X147500000Y-81400000D03*
G04 #@! TD*
G04 #@! TO.P,H1,1*
G04 #@! TO.N,GND*
X106500000Y-81400000D03*
G04 #@! TD*
G04 #@! TO.P,H1,1*
G04 #@! TO.N,GND*
X147500000Y-60400000D03*
G04 #@! TD*
G04 #@! TO.P,H2,1*
G04 #@! TO.N,GND*
X179000000Y-90500000D03*
G04 #@! TD*
G04 #@! TO.P,H2,1*
G04 #@! TO.N,GND*
X138000000Y-90500000D03*
G04 #@! TD*
G04 #@! TO.P,H2,1*
G04 #@! TO.N,GND*
X179000000Y-69500000D03*
G04 #@! TD*
G04 #@! TO.P,H2,1*
G04 #@! TO.N,GND*
X138000000Y-69500000D03*
G04 #@! TD*
G04 #@! TO.P,H2,1*
G04 #@! TO.N,GND*
X179000000Y-48500000D03*
G04 #@! TD*
G04 #@! TO.P,H1,1*
G04 #@! TO.N,GND*
X106500000Y-60400000D03*
G04 #@! TD*
G04 #@! TO.P,H2,1*
G04 #@! TO.N,GND*
X138000000Y-48500000D03*
G04 #@! TD*
D12*
G04 #@! TO.P,J4,6*
G04 #@! TO.N,SHIELD*
X139340000Y-60150000D03*
G04 #@! TO.P,J4,5*
X136800000Y-58880000D03*
D13*
G04 #@! TO.P,J4,1*
G04 #@! TO.N,/l_Rx*
X136800000Y-53800000D03*
D12*
G04 #@! TO.P,J4,2*
G04 #@! TO.N,/h_Rx*
X139340000Y-55070000D03*
G04 #@! TO.P,J4,3*
G04 #@! TO.N,/l_Tx*
X136800000Y-56340000D03*
G04 #@! TO.P,J4,4*
G04 #@! TO.N,/h_Tx*
X139340000Y-57610000D03*
G04 #@! TD*
D10*
G04 #@! TO.P,JP1,1*
G04 #@! TO.N,/term_te*
X125900000Y-58850000D03*
D11*
G04 #@! TD*
G04 #@! TO.N,/term_te*
G04 #@! TO.C,JP1*
G36*
X126650000Y-58350000D02*
X126650000Y-58850000D01*
X126649398Y-58850000D01*
X126649398Y-58874534D01*
X126644588Y-58923365D01*
X126635016Y-58971490D01*
X126620772Y-59018445D01*
X126601995Y-59063778D01*
X126578864Y-59107051D01*
X126551604Y-59147850D01*
X126520476Y-59185779D01*
X126485779Y-59220476D01*
X126447850Y-59251604D01*
X126407051Y-59278864D01*
X126363778Y-59301995D01*
X126318445Y-59320772D01*
X126271490Y-59335016D01*
X126223365Y-59344588D01*
X126174534Y-59349398D01*
X126150000Y-59349398D01*
X126150000Y-59350000D01*
X125650000Y-59350000D01*
X125650000Y-59349398D01*
X125625466Y-59349398D01*
X125576635Y-59344588D01*
X125528510Y-59335016D01*
X125481555Y-59320772D01*
X125436222Y-59301995D01*
X125392949Y-59278864D01*
X125352150Y-59251604D01*
X125314221Y-59220476D01*
X125279524Y-59185779D01*
X125248396Y-59147850D01*
X125221136Y-59107051D01*
X125198005Y-59063778D01*
X125179228Y-59018445D01*
X125164984Y-58971490D01*
X125155412Y-58923365D01*
X125150602Y-58874534D01*
X125150602Y-58850000D01*
X125150000Y-58850000D01*
X125150000Y-58350000D01*
X126650000Y-58350000D01*
X126650000Y-58350000D01*
G37*
D10*
G04 #@! TO.P,JP1,2*
G04 #@! TO.N,GND*
X125900000Y-57550000D03*
D11*
G04 #@! TD*
G04 #@! TO.N,GND*
G04 #@! TO.C,JP1*
G36*
X125150602Y-57550000D02*
X125150602Y-57525466D01*
X125155412Y-57476635D01*
X125164984Y-57428510D01*
X125179228Y-57381555D01*
X125198005Y-57336222D01*
X125221136Y-57292949D01*
X125248396Y-57252150D01*
X125279524Y-57214221D01*
X125314221Y-57179524D01*
X125352150Y-57148396D01*
X125392949Y-57121136D01*
X125436222Y-57098005D01*
X125481555Y-57079228D01*
X125528510Y-57064984D01*
X125576635Y-57055412D01*
X125625466Y-57050602D01*
X125650000Y-57050602D01*
X125650000Y-57050000D01*
X126150000Y-57050000D01*
X126150000Y-57050602D01*
X126174534Y-57050602D01*
X126223365Y-57055412D01*
X126271490Y-57064984D01*
X126318445Y-57079228D01*
X126363778Y-57098005D01*
X126407051Y-57121136D01*
X126447850Y-57148396D01*
X126485779Y-57179524D01*
X126520476Y-57214221D01*
X126551604Y-57252150D01*
X126578864Y-57292949D01*
X126601995Y-57336222D01*
X126620772Y-57381555D01*
X126635016Y-57428510D01*
X126644588Y-57476635D01*
X126649398Y-57525466D01*
X126649398Y-57550000D01*
X126650000Y-57550000D01*
X126650000Y-58050000D01*
X125150000Y-58050000D01*
X125150000Y-57550000D01*
X125150602Y-57550000D01*
X125150602Y-57550000D01*
G37*
D13*
G04 #@! TO.P,J3,1*
G04 #@! TO.N,GND*
X112195000Y-60870000D03*
D12*
G04 #@! TO.P,J3,2*
G04 #@! TO.N,+5V*
X113465000Y-58330000D03*
G04 #@! TO.P,J3,3*
G04 #@! TO.N,/RX_iso*
X114735000Y-60870000D03*
G04 #@! TO.P,J3,4*
G04 #@! TO.N,/TX_iso*
X116005000Y-58330000D03*
G04 #@! TD*
D15*
G04 #@! TO.N,+3V3*
X114300000Y-53073002D03*
X129400000Y-50800000D03*
X124300000Y-59800000D03*
X112100000Y-56600000D03*
X107500000Y-55600000D03*
X155300000Y-53073002D03*
X114300000Y-74073002D03*
X155300000Y-74073002D03*
X114300000Y-95073002D03*
X155300000Y-95073002D03*
X170400000Y-50800000D03*
X129400000Y-71800000D03*
X170400000Y-71800000D03*
X129400000Y-92800000D03*
X170400000Y-92800000D03*
X165300000Y-59800000D03*
X124300000Y-80800000D03*
X165300000Y-80800000D03*
X124300000Y-101800000D03*
X165300000Y-101800000D03*
X153100000Y-56600000D03*
X112100000Y-77600000D03*
X153100000Y-77600000D03*
X112100000Y-98600000D03*
X153100000Y-98600000D03*
X148500000Y-55600000D03*
X107500000Y-76600000D03*
X148500000Y-76600000D03*
X107500000Y-97600000D03*
X148500000Y-97600000D03*
G04 #@! TO.N,SHIELD*
X121600000Y-55700000D03*
X121600000Y-54800000D03*
X121600000Y-53900000D03*
X121500000Y-59200000D03*
X121500000Y-60300000D03*
X121500000Y-61300000D03*
X122500000Y-61400000D03*
X123500000Y-61400000D03*
X126800000Y-61400000D03*
X127800000Y-61400000D03*
X128800000Y-61400000D03*
X131900000Y-61400000D03*
X133100000Y-61400000D03*
X134100000Y-61100000D03*
X134100000Y-60100000D03*
X134100000Y-59100000D03*
X134100000Y-56200000D03*
X134100000Y-55100000D03*
X134100000Y-54100000D03*
X134100000Y-53100000D03*
X134100000Y-49900000D03*
X134100000Y-48800000D03*
X133400000Y-47900000D03*
X132400000Y-47900000D03*
X129400000Y-47900000D03*
X128400000Y-47900000D03*
X121600000Y-49000000D03*
X121800000Y-47870000D03*
X122875000Y-47870000D03*
X123900000Y-47900000D03*
X126300000Y-47870000D03*
X127300000Y-47870000D03*
X130400000Y-47900000D03*
X131400000Y-47900000D03*
X130900000Y-61400000D03*
X129800000Y-61400000D03*
X162600000Y-55700000D03*
X121600000Y-76700000D03*
X162600000Y-76700000D03*
X121600000Y-97700000D03*
X162600000Y-97700000D03*
X163500000Y-61400000D03*
X122500000Y-82400000D03*
X163500000Y-82400000D03*
X122500000Y-103400000D03*
X163500000Y-103400000D03*
X164500000Y-61400000D03*
X123500000Y-82400000D03*
X164500000Y-82400000D03*
X123500000Y-103400000D03*
X164500000Y-103400000D03*
X167800000Y-61400000D03*
X126800000Y-82400000D03*
X167800000Y-82400000D03*
X126800000Y-103400000D03*
X167800000Y-103400000D03*
X168800000Y-61400000D03*
X127800000Y-82400000D03*
X168800000Y-82400000D03*
X127800000Y-103400000D03*
X168800000Y-103400000D03*
X169800000Y-61400000D03*
X128800000Y-82400000D03*
X169800000Y-82400000D03*
X128800000Y-103400000D03*
X169800000Y-103400000D03*
X172900000Y-61400000D03*
X131900000Y-82400000D03*
X172900000Y-82400000D03*
X131900000Y-103400000D03*
X172900000Y-103400000D03*
X174100000Y-61400000D03*
X133100000Y-82400000D03*
X174100000Y-82400000D03*
X133100000Y-103400000D03*
X174100000Y-103400000D03*
X175100000Y-61100000D03*
X134100000Y-82100000D03*
X175100000Y-82100000D03*
X134100000Y-103100000D03*
X175100000Y-103100000D03*
X175100000Y-60100000D03*
X134100000Y-81100000D03*
X175100000Y-81100000D03*
X134100000Y-102100000D03*
X175100000Y-102100000D03*
X175100000Y-59100000D03*
X134100000Y-80100000D03*
X175100000Y-80100000D03*
X134100000Y-101100000D03*
X175100000Y-101100000D03*
X175100000Y-56200000D03*
X134100000Y-77200000D03*
X175100000Y-77200000D03*
X134100000Y-98200000D03*
X175100000Y-98200000D03*
X175100000Y-55100000D03*
X134100000Y-76100000D03*
X175100000Y-76100000D03*
X134100000Y-97100000D03*
X175100000Y-97100000D03*
X175100000Y-54100000D03*
X134100000Y-75100000D03*
X175100000Y-75100000D03*
X134100000Y-96100000D03*
X175100000Y-96100000D03*
X175100000Y-53100000D03*
X134100000Y-74100000D03*
X175100000Y-74100000D03*
X134100000Y-95100000D03*
X175100000Y-95100000D03*
X175100000Y-49900000D03*
X134100000Y-70900000D03*
X175100000Y-70900000D03*
X134100000Y-91900000D03*
X175100000Y-91900000D03*
X175100000Y-48800000D03*
X134100000Y-69800000D03*
X175100000Y-69800000D03*
X134100000Y-90800000D03*
X175100000Y-90800000D03*
X174400000Y-47900000D03*
X133400000Y-68900000D03*
X174400000Y-68900000D03*
X133400000Y-89900000D03*
X174400000Y-89900000D03*
X173400000Y-47900000D03*
X132400000Y-68900000D03*
X173400000Y-68900000D03*
X132400000Y-89900000D03*
X173400000Y-89900000D03*
X170400000Y-47900000D03*
X129400000Y-68900000D03*
X170400000Y-68900000D03*
X129400000Y-89900000D03*
X170400000Y-89900000D03*
X169400000Y-47900000D03*
X128400000Y-68900000D03*
X169400000Y-68900000D03*
X128400000Y-89900000D03*
X169400000Y-89900000D03*
X162600000Y-49000000D03*
X121600000Y-70000000D03*
X162600000Y-70000000D03*
X121600000Y-91000000D03*
X162600000Y-91000000D03*
X162800000Y-47870000D03*
X121800000Y-68870000D03*
X162800000Y-68870000D03*
X121800000Y-89870000D03*
X162800000Y-89870000D03*
X163875000Y-47870000D03*
X122875000Y-68870000D03*
X163875000Y-68870000D03*
X122875000Y-89870000D03*
X163875000Y-89870000D03*
X164900000Y-47900000D03*
X123900000Y-68900000D03*
X164900000Y-68900000D03*
X123900000Y-89900000D03*
X164900000Y-89900000D03*
X167300000Y-47870000D03*
X126300000Y-68870000D03*
X167300000Y-68870000D03*
X126300000Y-89870000D03*
X167300000Y-89870000D03*
X168300000Y-47870000D03*
X127300000Y-68870000D03*
X168300000Y-68870000D03*
X127300000Y-89870000D03*
X168300000Y-89870000D03*
X171400000Y-47900000D03*
X130400000Y-68900000D03*
X171400000Y-68900000D03*
X130400000Y-89900000D03*
X171400000Y-89900000D03*
X172400000Y-47900000D03*
X131400000Y-68900000D03*
X172400000Y-68900000D03*
X131400000Y-89900000D03*
X172400000Y-89900000D03*
X171900000Y-61400000D03*
X130900000Y-82400000D03*
X171900000Y-82400000D03*
X130900000Y-103400000D03*
X171900000Y-103400000D03*
X170800000Y-61400000D03*
X129800000Y-82400000D03*
X170800000Y-82400000D03*
X129800000Y-103400000D03*
X170800000Y-103400000D03*
X162600000Y-53900000D03*
X121600000Y-74900000D03*
X162600000Y-74900000D03*
X121600000Y-95900000D03*
X162600000Y-95900000D03*
X162500000Y-59200000D03*
X121500000Y-80200000D03*
X162500000Y-80200000D03*
X121500000Y-101200000D03*
X162500000Y-101200000D03*
X162600000Y-54800000D03*
X121600000Y-75800000D03*
X162600000Y-75800000D03*
X121600000Y-96800000D03*
X162600000Y-96800000D03*
X162500000Y-61300000D03*
X121500000Y-82300000D03*
X162500000Y-82300000D03*
X121500000Y-103300000D03*
X162500000Y-103300000D03*
X162500000Y-60300000D03*
X121500000Y-81300000D03*
X162500000Y-81300000D03*
X121500000Y-102300000D03*
X162500000Y-102300000D03*
G04 #@! TO.N,/TX_iso*
X123400000Y-54200000D03*
X164400000Y-54200000D03*
X123400000Y-75200000D03*
X164400000Y-75200000D03*
X123400000Y-96200000D03*
X164400000Y-96200000D03*
G04 #@! TO.N,/RX_iso*
X124900000Y-51900000D03*
X116800000Y-49500000D03*
X118700000Y-50375000D03*
X165900000Y-51900000D03*
X124900000Y-72900000D03*
X165900000Y-72900000D03*
X124900000Y-93900000D03*
X165900000Y-93900000D03*
X157800000Y-49500000D03*
X116800000Y-70500000D03*
X157800000Y-70500000D03*
X116800000Y-91500000D03*
X157800000Y-91500000D03*
X159700000Y-50375000D03*
X118700000Y-71375000D03*
X159700000Y-71375000D03*
X118700000Y-92375000D03*
X159700000Y-92375000D03*
G04 #@! TO.N,/DE*
X123712653Y-51787347D03*
X111600000Y-49400000D03*
X164712653Y-51787347D03*
X123712653Y-72787347D03*
X164712653Y-72787347D03*
X123712653Y-93787347D03*
X164712653Y-93787347D03*
X152600000Y-49400000D03*
X111600000Y-70400000D03*
X152600000Y-70400000D03*
X111600000Y-91400000D03*
X152600000Y-91400000D03*
G04 #@! TO.N,/term_te*
X125300000Y-59900000D03*
X166300000Y-59900000D03*
X125300000Y-80900000D03*
X166300000Y-80900000D03*
X125300000Y-101900000D03*
X166300000Y-101900000D03*
G04 #@! TO.N,Net-(C3-Pad1)*
X109900000Y-50200000D03*
X109000000Y-55600000D03*
X150900000Y-50200000D03*
X109900000Y-71200000D03*
X150900000Y-71200000D03*
X109900000Y-92200000D03*
X150900000Y-92200000D03*
X150000000Y-55600000D03*
X109000000Y-76600000D03*
X150000000Y-76600000D03*
X109000000Y-97600000D03*
X150000000Y-97600000D03*
G04 #@! TO.N,+5V*
X108600000Y-58600000D03*
X149600000Y-58600000D03*
X108600000Y-79600000D03*
X149600000Y-79600000D03*
X108600000Y-100600000D03*
X149600000Y-100600000D03*
G04 #@! TO.N,GND*
X115500000Y-49500000D03*
X117700000Y-53798002D03*
X118200000Y-61400000D03*
X118100000Y-57400000D03*
X127000000Y-56900000D03*
X156500000Y-49500000D03*
X115500000Y-70500000D03*
X156500000Y-70500000D03*
X115500000Y-91500000D03*
X156500000Y-91500000D03*
X158700000Y-53798002D03*
X117700000Y-74798002D03*
X158700000Y-74798002D03*
X117700000Y-95798002D03*
X158700000Y-95798002D03*
X159200000Y-61400000D03*
X118200000Y-82400000D03*
X159200000Y-82400000D03*
X118200000Y-103400000D03*
X159200000Y-103400000D03*
X159100000Y-57400000D03*
X118100000Y-78400000D03*
X159100000Y-78400000D03*
X118100000Y-99400000D03*
X159100000Y-99400000D03*
X168000000Y-56900000D03*
X127000000Y-77900000D03*
X168000000Y-77900000D03*
X127000000Y-98900000D03*
X168000000Y-98900000D03*
G04 #@! TD*
D16*
G04 #@! TO.N,+3V3*
X127126998Y-53073002D02*
X129400000Y-50800000D01*
X124400000Y-59700000D02*
X124300000Y-59800000D01*
X124400000Y-53073002D02*
X124400000Y-59700000D01*
X124400000Y-53073002D02*
X127126998Y-53073002D01*
X114300000Y-53073002D02*
X124400000Y-53073002D01*
X112100000Y-56600000D02*
X108500000Y-56600000D01*
X108500000Y-56600000D02*
X107500000Y-55600000D01*
X168126998Y-53073002D02*
X170400000Y-50800000D01*
X127126998Y-74073002D02*
X129400000Y-71800000D01*
X168126998Y-74073002D02*
X170400000Y-71800000D01*
X127126998Y-95073002D02*
X129400000Y-92800000D01*
X168126998Y-95073002D02*
X170400000Y-92800000D01*
X165400000Y-59700000D02*
X165300000Y-59800000D01*
X124400000Y-80700000D02*
X124300000Y-80800000D01*
X165400000Y-80700000D02*
X165300000Y-80800000D01*
X124400000Y-101700000D02*
X124300000Y-101800000D01*
X165400000Y-101700000D02*
X165300000Y-101800000D01*
X165400000Y-53073002D02*
X165400000Y-59700000D01*
X124400000Y-74073002D02*
X124400000Y-80700000D01*
X165400000Y-74073002D02*
X165400000Y-80700000D01*
X124400000Y-95073002D02*
X124400000Y-101700000D01*
X165400000Y-95073002D02*
X165400000Y-101700000D01*
X165400000Y-53073002D02*
X168126998Y-53073002D01*
X124400000Y-74073002D02*
X127126998Y-74073002D01*
X165400000Y-74073002D02*
X168126998Y-74073002D01*
X124400000Y-95073002D02*
X127126998Y-95073002D01*
X165400000Y-95073002D02*
X168126998Y-95073002D01*
X155300000Y-53073002D02*
X165400000Y-53073002D01*
X114300000Y-74073002D02*
X124400000Y-74073002D01*
X155300000Y-74073002D02*
X165400000Y-74073002D01*
X114300000Y-95073002D02*
X124400000Y-95073002D01*
X155300000Y-95073002D02*
X165400000Y-95073002D01*
X153100000Y-56600000D02*
X149500000Y-56600000D01*
X112100000Y-77600000D02*
X108500000Y-77600000D01*
X153100000Y-77600000D02*
X149500000Y-77600000D01*
X112100000Y-98600000D02*
X108500000Y-98600000D01*
X153100000Y-98600000D02*
X149500000Y-98600000D01*
X149500000Y-56600000D02*
X148500000Y-55600000D01*
X108500000Y-77600000D02*
X107500000Y-76600000D01*
X149500000Y-77600000D02*
X148500000Y-76600000D01*
X108500000Y-98600000D02*
X107500000Y-97600000D01*
X149500000Y-98600000D02*
X148500000Y-97600000D01*
G04 #@! TO.N,/TX_iso*
X123400000Y-54200000D02*
X123400000Y-55900000D01*
X123400000Y-55900000D02*
X120970000Y-58330000D01*
X120970000Y-58330000D02*
X119100000Y-58330000D01*
X119100000Y-58330000D02*
X116005000Y-58330000D01*
X164400000Y-54200000D02*
X164400000Y-55900000D01*
X123400000Y-75200000D02*
X123400000Y-76900000D01*
X164400000Y-75200000D02*
X164400000Y-76900000D01*
X123400000Y-96200000D02*
X123400000Y-97900000D01*
X164400000Y-96200000D02*
X164400000Y-97900000D01*
X164400000Y-55900000D02*
X161970000Y-58330000D01*
X123400000Y-76900000D02*
X120970000Y-79330000D01*
X164400000Y-76900000D02*
X161970000Y-79330000D01*
X123400000Y-97900000D02*
X120970000Y-100330000D01*
X164400000Y-97900000D02*
X161970000Y-100330000D01*
X161970000Y-58330000D02*
X160100000Y-58330000D01*
X120970000Y-79330000D02*
X119100000Y-79330000D01*
X161970000Y-79330000D02*
X160100000Y-79330000D01*
X120970000Y-100330000D02*
X119100000Y-100330000D01*
X161970000Y-100330000D02*
X160100000Y-100330000D01*
X160100000Y-58330000D02*
X157005000Y-58330000D01*
X119100000Y-79330000D02*
X116005000Y-79330000D01*
X160100000Y-79330000D02*
X157005000Y-79330000D01*
X119100000Y-100330000D02*
X116005000Y-100330000D01*
X160100000Y-100330000D02*
X157005000Y-100330000D01*
G04 #@! TO.N,/RX_iso*
X124900000Y-51900000D02*
X123600000Y-50600000D01*
X117900000Y-50600000D02*
X116800000Y-49500000D01*
X118700000Y-50600000D02*
X117900000Y-50600000D01*
X118700000Y-50600000D02*
X118700000Y-50375000D01*
X123600000Y-50600000D02*
X118700000Y-50600000D01*
X165900000Y-51900000D02*
X164600000Y-50600000D01*
X124900000Y-72900000D02*
X123600000Y-71600000D01*
X165900000Y-72900000D02*
X164600000Y-71600000D01*
X124900000Y-93900000D02*
X123600000Y-92600000D01*
X165900000Y-93900000D02*
X164600000Y-92600000D01*
X158900000Y-50600000D02*
X157800000Y-49500000D01*
X117900000Y-71600000D02*
X116800000Y-70500000D01*
X158900000Y-71600000D02*
X157800000Y-70500000D01*
X117900000Y-92600000D02*
X116800000Y-91500000D01*
X158900000Y-92600000D02*
X157800000Y-91500000D01*
X159700000Y-50600000D02*
X158900000Y-50600000D01*
X118700000Y-71600000D02*
X117900000Y-71600000D01*
X159700000Y-71600000D02*
X158900000Y-71600000D01*
X118700000Y-92600000D02*
X117900000Y-92600000D01*
X159700000Y-92600000D02*
X158900000Y-92600000D01*
X159700000Y-50600000D02*
X159700000Y-50375000D01*
X118700000Y-71600000D02*
X118700000Y-71375000D01*
X159700000Y-71600000D02*
X159700000Y-71375000D01*
X118700000Y-92600000D02*
X118700000Y-92375000D01*
X159700000Y-92600000D02*
X159700000Y-92375000D01*
X164600000Y-50600000D02*
X159700000Y-50600000D01*
X123600000Y-71600000D02*
X118700000Y-71600000D01*
X164600000Y-71600000D02*
X159700000Y-71600000D01*
X123600000Y-92600000D02*
X118700000Y-92600000D01*
X164600000Y-92600000D02*
X159700000Y-92600000D01*
G04 #@! TO.N,/DE*
X123146968Y-51787347D02*
X122459621Y-51100000D01*
X123712653Y-51787347D02*
X123146968Y-51787347D01*
X122459621Y-51100000D02*
X113300000Y-51100000D01*
X113300000Y-51100000D02*
X111600000Y-49400000D01*
X164146968Y-51787347D02*
X163459621Y-51100000D01*
X123146968Y-72787347D02*
X122459621Y-72100000D01*
X164146968Y-72787347D02*
X163459621Y-72100000D01*
X123146968Y-93787347D02*
X122459621Y-93100000D01*
X164146968Y-93787347D02*
X163459621Y-93100000D01*
X164712653Y-51787347D02*
X164146968Y-51787347D01*
X123712653Y-72787347D02*
X123146968Y-72787347D01*
X164712653Y-72787347D02*
X164146968Y-72787347D01*
X123712653Y-93787347D02*
X123146968Y-93787347D01*
X164712653Y-93787347D02*
X164146968Y-93787347D01*
X163459621Y-51100000D02*
X154300000Y-51100000D01*
X122459621Y-72100000D02*
X113300000Y-72100000D01*
X163459621Y-72100000D02*
X154300000Y-72100000D01*
X122459621Y-93100000D02*
X113300000Y-93100000D01*
X163459621Y-93100000D02*
X154300000Y-93100000D01*
X154300000Y-51100000D02*
X152600000Y-49400000D01*
X113300000Y-72100000D02*
X111600000Y-70400000D01*
X154300000Y-72100000D02*
X152600000Y-70400000D01*
X113300000Y-93100000D02*
X111600000Y-91400000D01*
X154300000Y-93100000D02*
X152600000Y-91400000D01*
G04 #@! TO.N,/term_te*
X125300000Y-59450000D02*
X125900000Y-58850000D01*
X125300000Y-59900000D02*
X125300000Y-59450000D01*
X166300000Y-59450000D02*
X166900000Y-58850000D01*
X125300000Y-80450000D02*
X125900000Y-79850000D01*
X166300000Y-80450000D02*
X166900000Y-79850000D01*
X125300000Y-101450000D02*
X125900000Y-100850000D01*
X166300000Y-101450000D02*
X166900000Y-100850000D01*
X166300000Y-59900000D02*
X166300000Y-59450000D01*
X125300000Y-80900000D02*
X125300000Y-80450000D01*
X166300000Y-80900000D02*
X166300000Y-80450000D01*
X125300000Y-101900000D02*
X125300000Y-101450000D01*
X166300000Y-101900000D02*
X166300000Y-101450000D01*
D17*
G04 #@! TO.N,Net-(C3-Pad1)*
X109000000Y-53300000D02*
X109900000Y-52400000D01*
X109000000Y-55600000D02*
X109000000Y-53300000D01*
X109900000Y-50200000D02*
X109900000Y-52400000D01*
X150000000Y-53300000D02*
X150900000Y-52400000D01*
X109000000Y-74300000D02*
X109900000Y-73400000D01*
X150000000Y-74300000D02*
X150900000Y-73400000D01*
X109000000Y-95300000D02*
X109900000Y-94400000D01*
X150000000Y-95300000D02*
X150900000Y-94400000D01*
X150000000Y-55600000D02*
X150000000Y-53300000D01*
X109000000Y-76600000D02*
X109000000Y-74300000D01*
X150000000Y-76600000D02*
X150000000Y-74300000D01*
X109000000Y-97600000D02*
X109000000Y-95300000D01*
X150000000Y-97600000D02*
X150000000Y-95300000D01*
X150900000Y-50200000D02*
X150900000Y-52400000D01*
X109900000Y-71200000D02*
X109900000Y-73400000D01*
X150900000Y-71200000D02*
X150900000Y-73400000D01*
X109900000Y-92200000D02*
X109900000Y-94400000D01*
X150900000Y-92200000D02*
X150900000Y-94400000D01*
G04 #@! TO.N,+5V*
X112565001Y-57430001D02*
X113465000Y-58330000D01*
X110335684Y-57430001D02*
X112565001Y-57430001D01*
X109165685Y-58600000D02*
X110335684Y-57430001D01*
X108600000Y-58600000D02*
X109165685Y-58600000D01*
X153565001Y-57430001D02*
X154465000Y-58330000D01*
X112565001Y-78430001D02*
X113465000Y-79330000D01*
X153565001Y-78430001D02*
X154465000Y-79330000D01*
X112565001Y-99430001D02*
X113465000Y-100330000D01*
X153565001Y-99430001D02*
X154465000Y-100330000D01*
X151335684Y-57430001D02*
X153565001Y-57430001D01*
X110335684Y-78430001D02*
X112565001Y-78430001D01*
X151335684Y-78430001D02*
X153565001Y-78430001D01*
X110335684Y-99430001D02*
X112565001Y-99430001D01*
X151335684Y-99430001D02*
X153565001Y-99430001D01*
X150165685Y-58600000D02*
X151335684Y-57430001D01*
X109165685Y-79600000D02*
X110335684Y-78430001D01*
X150165685Y-79600000D02*
X151335684Y-78430001D01*
X109165685Y-100600000D02*
X110335684Y-99430001D01*
X150165685Y-100600000D02*
X151335684Y-99430001D01*
X149600000Y-58600000D02*
X150165685Y-58600000D01*
X108600000Y-79600000D02*
X109165685Y-79600000D01*
X149600000Y-79600000D02*
X150165685Y-79600000D01*
X108600000Y-100600000D02*
X109165685Y-100600000D01*
X149600000Y-100600000D02*
X150165685Y-100600000D01*
D16*
G04 #@! TO.N,GND*
X118099999Y-54198001D02*
X117700000Y-53798002D01*
X118100000Y-57400000D02*
X118099999Y-54198001D01*
X126975010Y-59297992D02*
X123973002Y-62300000D01*
X126975010Y-57777418D02*
X126975010Y-59297992D01*
X125900000Y-57550000D02*
X126747592Y-57550000D01*
X126747592Y-57550000D02*
X126975010Y-57777418D01*
X119100000Y-62300000D02*
X118200000Y-61400000D01*
X123973002Y-62300000D02*
X119100000Y-62300000D01*
X127000000Y-57752428D02*
X126975010Y-57777418D01*
X127000000Y-56900000D02*
X127000000Y-57752428D01*
X117504999Y-62095001D02*
X117800001Y-61799999D01*
X111306270Y-62095001D02*
X117504999Y-62095001D01*
X109611269Y-60400000D02*
X111306270Y-62095001D01*
X117800001Y-61799999D02*
X118200000Y-61400000D01*
X106500000Y-60400000D02*
X109611269Y-60400000D01*
X159099999Y-54198001D02*
X158700000Y-53798002D01*
X118099999Y-75198001D02*
X117700000Y-74798002D01*
X159099999Y-75198001D02*
X158700000Y-74798002D01*
X118099999Y-96198001D02*
X117700000Y-95798002D01*
X159099999Y-96198001D02*
X158700000Y-95798002D01*
X159100000Y-57400000D02*
X159099999Y-54198001D01*
X118100000Y-78400000D02*
X118099999Y-75198001D01*
X159100000Y-78400000D02*
X159099999Y-75198001D01*
X118100000Y-99400000D02*
X118099999Y-96198001D01*
X159100000Y-99400000D02*
X159099999Y-96198001D01*
X167975010Y-59297992D02*
X164973002Y-62300000D01*
X126975010Y-80297992D02*
X123973002Y-83300000D01*
X167975010Y-80297992D02*
X164973002Y-83300000D01*
X126975010Y-101297992D02*
X123973002Y-104300000D01*
X167975010Y-101297992D02*
X164973002Y-104300000D01*
X167975010Y-57777418D02*
X167975010Y-59297992D01*
X126975010Y-78777418D02*
X126975010Y-80297992D01*
X167975010Y-78777418D02*
X167975010Y-80297992D01*
X126975010Y-99777418D02*
X126975010Y-101297992D01*
X167975010Y-99777418D02*
X167975010Y-101297992D01*
X166900000Y-57550000D02*
X167747592Y-57550000D01*
X125900000Y-78550000D02*
X126747592Y-78550000D01*
X166900000Y-78550000D02*
X167747592Y-78550000D01*
X125900000Y-99550000D02*
X126747592Y-99550000D01*
X166900000Y-99550000D02*
X167747592Y-99550000D01*
X167747592Y-57550000D02*
X167975010Y-57777418D01*
X126747592Y-78550000D02*
X126975010Y-78777418D01*
X167747592Y-78550000D02*
X167975010Y-78777418D01*
X126747592Y-99550000D02*
X126975010Y-99777418D01*
X167747592Y-99550000D02*
X167975010Y-99777418D01*
X160100000Y-62300000D02*
X159200000Y-61400000D01*
X119100000Y-83300000D02*
X118200000Y-82400000D01*
X160100000Y-83300000D02*
X159200000Y-82400000D01*
X119100000Y-104300000D02*
X118200000Y-103400000D01*
X160100000Y-104300000D02*
X159200000Y-103400000D01*
X164973002Y-62300000D02*
X160100000Y-62300000D01*
X123973002Y-83300000D02*
X119100000Y-83300000D01*
X164973002Y-83300000D02*
X160100000Y-83300000D01*
X123973002Y-104300000D02*
X119100000Y-104300000D01*
X164973002Y-104300000D02*
X160100000Y-104300000D01*
X168000000Y-57752428D02*
X167975010Y-57777418D01*
X127000000Y-78752428D02*
X126975010Y-78777418D01*
X168000000Y-78752428D02*
X167975010Y-78777418D01*
X127000000Y-99752428D02*
X126975010Y-99777418D01*
X168000000Y-99752428D02*
X167975010Y-99777418D01*
X168000000Y-56900000D02*
X168000000Y-57752428D01*
X127000000Y-77900000D02*
X127000000Y-78752428D01*
X168000000Y-77900000D02*
X168000000Y-78752428D01*
X127000000Y-98900000D02*
X127000000Y-99752428D01*
X168000000Y-98900000D02*
X168000000Y-99752428D01*
X158504999Y-62095001D02*
X158800001Y-61799999D01*
X117504999Y-83095001D02*
X117800001Y-82799999D01*
X158504999Y-83095001D02*
X158800001Y-82799999D01*
X117504999Y-104095001D02*
X117800001Y-103799999D01*
X158504999Y-104095001D02*
X158800001Y-103799999D01*
X152306270Y-62095001D02*
X158504999Y-62095001D01*
X111306270Y-83095001D02*
X117504999Y-83095001D01*
X152306270Y-83095001D02*
X158504999Y-83095001D01*
X111306270Y-104095001D02*
X117504999Y-104095001D01*
X152306270Y-104095001D02*
X158504999Y-104095001D01*
X150611269Y-60400000D02*
X152306270Y-62095001D01*
X109611269Y-81400000D02*
X111306270Y-83095001D01*
X150611269Y-81400000D02*
X152306270Y-83095001D01*
X109611269Y-102400000D02*
X111306270Y-104095001D01*
X150611269Y-102400000D02*
X152306270Y-104095001D01*
X158800001Y-61799999D02*
X159200000Y-61400000D01*
X117800001Y-82799999D02*
X118200000Y-82400000D01*
X158800001Y-82799999D02*
X159200000Y-82400000D01*
X117800001Y-103799999D02*
X118200000Y-103400000D01*
X158800001Y-103799999D02*
X159200000Y-103400000D01*
X147500000Y-60400000D02*
X150611269Y-60400000D01*
X106500000Y-81400000D02*
X109611269Y-81400000D01*
X147500000Y-81400000D02*
X150611269Y-81400000D01*
X106500000Y-102400000D02*
X109611269Y-102400000D01*
X147500000Y-102400000D02*
X150611269Y-102400000D01*
G04 #@! TD*
D18*
G04 #@! TO.N,GND*
G36*
X120073000Y-62115000D02*
X119885518Y-62115000D01*
X119845831Y-62131439D01*
X119806143Y-62115000D01*
X119493851Y-62115000D01*
X119252429Y-62215000D01*
X115499030Y-62215000D01*
X115604507Y-62171310D01*
X116036310Y-61739507D01*
X116270000Y-61175330D01*
X116270000Y-60564670D01*
X116036310Y-60000493D01*
X115900817Y-59865000D01*
X116310330Y-59865000D01*
X116874507Y-59631310D01*
X117306310Y-59199507D01*
X117351669Y-59090000D01*
X120073000Y-59090000D01*
X120073000Y-62115000D01*
X120073000Y-62115000D01*
G37*
X120073000Y-62115000D02*
X119885518Y-62115000D01*
X119845831Y-62131439D01*
X119806143Y-62115000D01*
X119493851Y-62115000D01*
X119252429Y-62215000D01*
X115499030Y-62215000D01*
X115604507Y-62171310D01*
X116036310Y-61739507D01*
X116270000Y-61175330D01*
X116270000Y-60564670D01*
X116036310Y-60000493D01*
X115900817Y-59865000D01*
X116310330Y-59865000D01*
X116874507Y-59631310D01*
X117306310Y-59199507D01*
X117351669Y-59090000D01*
X120073000Y-59090000D01*
X120073000Y-62115000D01*
G36*
X119493835Y-46685000D02*
X119806127Y-46685000D01*
X119845815Y-46668561D01*
X119885502Y-46685000D01*
X120147907Y-46685000D01*
X120110197Y-46710197D01*
X120082667Y-46751399D01*
X120073000Y-46800000D01*
X120073000Y-49840000D01*
X119598672Y-49840000D01*
X119577431Y-49788720D01*
X119286280Y-49497569D01*
X118905874Y-49340000D01*
X118494126Y-49340000D01*
X118113720Y-49497569D01*
X117993045Y-49618244D01*
X117835000Y-49460199D01*
X117835000Y-49294126D01*
X117677431Y-48913720D01*
X117386280Y-48622569D01*
X117005874Y-48465000D01*
X116594126Y-48465000D01*
X116213720Y-48622569D01*
X115922569Y-48913720D01*
X115765000Y-49294126D01*
X115765000Y-49705874D01*
X115922569Y-50086280D01*
X116176289Y-50340000D01*
X113614802Y-50340000D01*
X112635000Y-49360199D01*
X112635000Y-49194126D01*
X112477431Y-48813720D01*
X112186280Y-48522569D01*
X111805874Y-48365000D01*
X111394126Y-48365000D01*
X111013720Y-48522569D01*
X110722569Y-48813720D01*
X110565000Y-49194126D01*
X110565000Y-49401289D01*
X110486280Y-49322569D01*
X110105874Y-49165000D01*
X109694126Y-49165000D01*
X109313720Y-49322569D01*
X109022569Y-49613720D01*
X108865000Y-49994126D01*
X108865000Y-50405874D01*
X109022569Y-50786280D01*
X109065000Y-50828711D01*
X109065001Y-52054131D01*
X108467718Y-52651415D01*
X108398000Y-52697999D01*
X108351416Y-52767717D01*
X108213448Y-52974200D01*
X108148643Y-53300000D01*
X108165001Y-53382238D01*
X108165000Y-54801289D01*
X108086280Y-54722569D01*
X107705874Y-54565000D01*
X107294126Y-54565000D01*
X106913720Y-54722569D01*
X106622569Y-55013720D01*
X106465000Y-55394126D01*
X106465000Y-55805874D01*
X106622569Y-56186280D01*
X106913720Y-56477431D01*
X107294126Y-56635000D01*
X107460199Y-56635000D01*
X107909671Y-57084473D01*
X107952071Y-57147929D01*
X108203463Y-57315904D01*
X108425148Y-57360000D01*
X108425152Y-57360000D01*
X108500000Y-57374888D01*
X108574848Y-57360000D01*
X109224817Y-57360000D01*
X108957155Y-57627662D01*
X108805874Y-57565000D01*
X108394126Y-57565000D01*
X108013720Y-57722569D01*
X107722569Y-58013720D01*
X107565000Y-58394126D01*
X107565000Y-58805874D01*
X107722569Y-59186280D01*
X108013720Y-59477431D01*
X108394126Y-59635000D01*
X108805874Y-59635000D01*
X109186280Y-59477431D01*
X109223942Y-59439769D01*
X109247918Y-59435000D01*
X109247922Y-59435000D01*
X109431865Y-59398411D01*
X109620811Y-59854568D01*
X110010432Y-60244189D01*
X110519496Y-60455050D01*
X111070504Y-60455050D01*
X111579568Y-60244189D01*
X111969189Y-59854568D01*
X112180050Y-59345504D01*
X112180050Y-59215867D01*
X112595493Y-59631310D01*
X113159670Y-59865000D01*
X113569183Y-59865000D01*
X113433690Y-60000493D01*
X113200000Y-60564670D01*
X113200000Y-61175330D01*
X113433690Y-61739507D01*
X113865493Y-62171310D01*
X113970970Y-62215000D01*
X104785000Y-62215000D01*
X104785000Y-56747579D01*
X104885000Y-56506157D01*
X104885000Y-56193865D01*
X104868561Y-56154177D01*
X104885000Y-56114489D01*
X104885000Y-55802197D01*
X104868561Y-55762509D01*
X104885000Y-55722821D01*
X104885000Y-55410529D01*
X104868561Y-55370841D01*
X104885000Y-55331153D01*
X104885000Y-55018861D01*
X104868561Y-54979173D01*
X104885000Y-54939485D01*
X104885000Y-54627193D01*
X104868561Y-54587505D01*
X104885000Y-54547817D01*
X104885000Y-54235525D01*
X104868561Y-54195837D01*
X104885000Y-54156149D01*
X104885000Y-53843857D01*
X104868561Y-53804169D01*
X104885000Y-53764481D01*
X104885000Y-53452189D01*
X104868561Y-53412501D01*
X104885000Y-53372813D01*
X104885000Y-53060521D01*
X104868561Y-53020833D01*
X104885000Y-52981145D01*
X104885000Y-52668853D01*
X104868561Y-52629165D01*
X104885000Y-52589477D01*
X104885000Y-52277185D01*
X104868561Y-52237497D01*
X104885000Y-52197809D01*
X104885000Y-51885517D01*
X104868561Y-51845829D01*
X104885000Y-51806141D01*
X104885000Y-51493849D01*
X104785000Y-51252427D01*
X104785000Y-46585000D01*
X119252413Y-46585000D01*
X119493835Y-46685000D01*
X119493835Y-46685000D01*
G37*
X119493835Y-46685000D02*
X119806127Y-46685000D01*
X119845815Y-46668561D01*
X119885502Y-46685000D01*
X120147907Y-46685000D01*
X120110197Y-46710197D01*
X120082667Y-46751399D01*
X120073000Y-46800000D01*
X120073000Y-49840000D01*
X119598672Y-49840000D01*
X119577431Y-49788720D01*
X119286280Y-49497569D01*
X118905874Y-49340000D01*
X118494126Y-49340000D01*
X118113720Y-49497569D01*
X117993045Y-49618244D01*
X117835000Y-49460199D01*
X117835000Y-49294126D01*
X117677431Y-48913720D01*
X117386280Y-48622569D01*
X117005874Y-48465000D01*
X116594126Y-48465000D01*
X116213720Y-48622569D01*
X115922569Y-48913720D01*
X115765000Y-49294126D01*
X115765000Y-49705874D01*
X115922569Y-50086280D01*
X116176289Y-50340000D01*
X113614802Y-50340000D01*
X112635000Y-49360199D01*
X112635000Y-49194126D01*
X112477431Y-48813720D01*
X112186280Y-48522569D01*
X111805874Y-48365000D01*
X111394126Y-48365000D01*
X111013720Y-48522569D01*
X110722569Y-48813720D01*
X110565000Y-49194126D01*
X110565000Y-49401289D01*
X110486280Y-49322569D01*
X110105874Y-49165000D01*
X109694126Y-49165000D01*
X109313720Y-49322569D01*
X109022569Y-49613720D01*
X108865000Y-49994126D01*
X108865000Y-50405874D01*
X109022569Y-50786280D01*
X109065000Y-50828711D01*
X109065001Y-52054131D01*
X108467718Y-52651415D01*
X108398000Y-52697999D01*
X108351416Y-52767717D01*
X108213448Y-52974200D01*
X108148643Y-53300000D01*
X108165001Y-53382238D01*
X108165000Y-54801289D01*
X108086280Y-54722569D01*
X107705874Y-54565000D01*
X107294126Y-54565000D01*
X106913720Y-54722569D01*
X106622569Y-55013720D01*
X106465000Y-55394126D01*
X106465000Y-55805874D01*
X106622569Y-56186280D01*
X106913720Y-56477431D01*
X107294126Y-56635000D01*
X107460199Y-56635000D01*
X107909671Y-57084473D01*
X107952071Y-57147929D01*
X108203463Y-57315904D01*
X108425148Y-57360000D01*
X108425152Y-57360000D01*
X108500000Y-57374888D01*
X108574848Y-57360000D01*
X109224817Y-57360000D01*
X108957155Y-57627662D01*
X108805874Y-57565000D01*
X108394126Y-57565000D01*
X108013720Y-57722569D01*
X107722569Y-58013720D01*
X107565000Y-58394126D01*
X107565000Y-58805874D01*
X107722569Y-59186280D01*
X108013720Y-59477431D01*
X108394126Y-59635000D01*
X108805874Y-59635000D01*
X109186280Y-59477431D01*
X109223942Y-59439769D01*
X109247918Y-59435000D01*
X109247922Y-59435000D01*
X109431865Y-59398411D01*
X109620811Y-59854568D01*
X110010432Y-60244189D01*
X110519496Y-60455050D01*
X111070504Y-60455050D01*
X111579568Y-60244189D01*
X111969189Y-59854568D01*
X112180050Y-59345504D01*
X112180050Y-59215867D01*
X112595493Y-59631310D01*
X113159670Y-59865000D01*
X113569183Y-59865000D01*
X113433690Y-60000493D01*
X113200000Y-60564670D01*
X113200000Y-61175330D01*
X113433690Y-61739507D01*
X113865493Y-62171310D01*
X113970970Y-62215000D01*
X104785000Y-62215000D01*
X104785000Y-56747579D01*
X104885000Y-56506157D01*
X104885000Y-56193865D01*
X104868561Y-56154177D01*
X104885000Y-56114489D01*
X104885000Y-55802197D01*
X104868561Y-55762509D01*
X104885000Y-55722821D01*
X104885000Y-55410529D01*
X104868561Y-55370841D01*
X104885000Y-55331153D01*
X104885000Y-55018861D01*
X104868561Y-54979173D01*
X104885000Y-54939485D01*
X104885000Y-54627193D01*
X104868561Y-54587505D01*
X104885000Y-54547817D01*
X104885000Y-54235525D01*
X104868561Y-54195837D01*
X104885000Y-54156149D01*
X104885000Y-53843857D01*
X104868561Y-53804169D01*
X104885000Y-53764481D01*
X104885000Y-53452189D01*
X104868561Y-53412501D01*
X104885000Y-53372813D01*
X104885000Y-53060521D01*
X104868561Y-53020833D01*
X104885000Y-52981145D01*
X104885000Y-52668853D01*
X104868561Y-52629165D01*
X104885000Y-52589477D01*
X104885000Y-52277185D01*
X104868561Y-52237497D01*
X104885000Y-52197809D01*
X104885000Y-51885517D01*
X104868561Y-51845829D01*
X104885000Y-51806141D01*
X104885000Y-51493849D01*
X104785000Y-51252427D01*
X104785000Y-46585000D01*
X119252413Y-46585000D01*
X119493835Y-46685000D01*
G36*
X111013720Y-50277431D02*
X111394126Y-50435000D01*
X111560199Y-50435000D01*
X112709670Y-51584472D01*
X112752071Y-51647929D01*
X113003463Y-51815904D01*
X113225148Y-51860000D01*
X113225152Y-51860000D01*
X113299999Y-51874888D01*
X113374846Y-51860000D01*
X120073000Y-51860000D01*
X120073000Y-52313002D01*
X115003711Y-52313002D01*
X114886280Y-52195571D01*
X114505874Y-52038002D01*
X114094126Y-52038002D01*
X113713720Y-52195571D01*
X113422569Y-52486722D01*
X113265000Y-52867128D01*
X113265000Y-53278876D01*
X113422569Y-53659282D01*
X113713720Y-53950433D01*
X114094126Y-54108002D01*
X114505874Y-54108002D01*
X114886280Y-53950433D01*
X115003711Y-53833002D01*
X120073000Y-53833002D01*
X120073000Y-57570000D01*
X117351669Y-57570000D01*
X117306310Y-57460493D01*
X116874507Y-57028690D01*
X116310330Y-56795000D01*
X115699670Y-56795000D01*
X115135493Y-57028690D01*
X114735000Y-57429183D01*
X114334507Y-57028690D01*
X113770330Y-56795000D01*
X113159670Y-56795000D01*
X113135000Y-56805219D01*
X113135000Y-56394126D01*
X112977431Y-56013720D01*
X112686280Y-55722569D01*
X112305874Y-55565000D01*
X111894126Y-55565000D01*
X111513720Y-55722569D01*
X111396289Y-55840000D01*
X110020865Y-55840000D01*
X110035000Y-55805874D01*
X110035000Y-55394126D01*
X109877431Y-55013720D01*
X109835000Y-54971289D01*
X109835000Y-53645867D01*
X110432282Y-53048586D01*
X110502001Y-53002001D01*
X110686552Y-52725801D01*
X110735000Y-52482237D01*
X110735000Y-52482234D01*
X110751357Y-52400001D01*
X110735000Y-52317768D01*
X110735000Y-50828711D01*
X110777431Y-50786280D01*
X110935000Y-50405874D01*
X110935000Y-50198711D01*
X111013720Y-50277431D01*
X111013720Y-50277431D01*
G37*
X111013720Y-50277431D02*
X111394126Y-50435000D01*
X111560199Y-50435000D01*
X112709670Y-51584472D01*
X112752071Y-51647929D01*
X113003463Y-51815904D01*
X113225148Y-51860000D01*
X113225152Y-51860000D01*
X113299999Y-51874888D01*
X113374846Y-51860000D01*
X120073000Y-51860000D01*
X120073000Y-52313002D01*
X115003711Y-52313002D01*
X114886280Y-52195571D01*
X114505874Y-52038002D01*
X114094126Y-52038002D01*
X113713720Y-52195571D01*
X113422569Y-52486722D01*
X113265000Y-52867128D01*
X113265000Y-53278876D01*
X113422569Y-53659282D01*
X113713720Y-53950433D01*
X114094126Y-54108002D01*
X114505874Y-54108002D01*
X114886280Y-53950433D01*
X115003711Y-53833002D01*
X120073000Y-53833002D01*
X120073000Y-57570000D01*
X117351669Y-57570000D01*
X117306310Y-57460493D01*
X116874507Y-57028690D01*
X116310330Y-56795000D01*
X115699670Y-56795000D01*
X115135493Y-57028690D01*
X114735000Y-57429183D01*
X114334507Y-57028690D01*
X113770330Y-56795000D01*
X113159670Y-56795000D01*
X113135000Y-56805219D01*
X113135000Y-56394126D01*
X112977431Y-56013720D01*
X112686280Y-55722569D01*
X112305874Y-55565000D01*
X111894126Y-55565000D01*
X111513720Y-55722569D01*
X111396289Y-55840000D01*
X110020865Y-55840000D01*
X110035000Y-55805874D01*
X110035000Y-55394126D01*
X109877431Y-55013720D01*
X109835000Y-54971289D01*
X109835000Y-53645867D01*
X110432282Y-53048586D01*
X110502001Y-53002001D01*
X110686552Y-52725801D01*
X110735000Y-52482237D01*
X110735000Y-52482234D01*
X110751357Y-52400001D01*
X110735000Y-52317768D01*
X110735000Y-50828711D01*
X110777431Y-50786280D01*
X110935000Y-50405874D01*
X110935000Y-50198711D01*
X111013720Y-50277431D01*
G36*
X140490000Y-51173000D02*
X139257071Y-51173000D01*
X138875504Y-51014950D01*
X138324496Y-51014950D01*
X137942929Y-51173000D01*
X135727000Y-51173000D01*
X135727000Y-46800000D01*
X135717333Y-46751399D01*
X135689803Y-46710197D01*
X135648601Y-46682667D01*
X135600000Y-46673000D01*
X124535102Y-46673000D01*
X124747553Y-46585000D01*
X140490000Y-46585000D01*
X140490000Y-51173000D01*
X140490000Y-51173000D01*
G37*
X140490000Y-51173000D02*
X139257071Y-51173000D01*
X138875504Y-51014950D01*
X138324496Y-51014950D01*
X137942929Y-51173000D01*
X135727000Y-51173000D01*
X135727000Y-46800000D01*
X135717333Y-46751399D01*
X135689803Y-46710197D01*
X135648601Y-46682667D01*
X135600000Y-46673000D01*
X124535102Y-46673000D01*
X124747553Y-46585000D01*
X140490000Y-46585000D01*
X140490000Y-51173000D01*
G04 #@! TO.N,SHIELD*
G36*
X134473000Y-52000000D02*
X134482667Y-52048601D01*
X134510197Y-52089803D01*
X134551399Y-52117333D01*
X134600000Y-52127000D01*
X137214950Y-52127000D01*
X137214950Y-52252560D01*
X135900000Y-52252560D01*
X135652235Y-52301843D01*
X135442191Y-52442191D01*
X135301843Y-52652235D01*
X135252560Y-52900000D01*
X135252560Y-54700000D01*
X135301843Y-54947765D01*
X135442191Y-55157809D01*
X135652235Y-55298157D01*
X135667908Y-55301275D01*
X135498690Y-55470493D01*
X135265000Y-56034670D01*
X135265000Y-56645330D01*
X135498690Y-57209507D01*
X135930493Y-57641310D01*
X136494670Y-57875000D01*
X137105330Y-57875000D01*
X137669507Y-57641310D01*
X137805000Y-57505817D01*
X137805000Y-57915330D01*
X138038690Y-58479507D01*
X138470493Y-58911310D01*
X139034670Y-59145000D01*
X139645330Y-59145000D01*
X140209507Y-58911310D01*
X140490001Y-58630816D01*
X140490001Y-62215000D01*
X125132803Y-62215000D01*
X127459486Y-59888319D01*
X127522939Y-59845921D01*
X127565337Y-59782468D01*
X127565339Y-59782466D01*
X127690913Y-59594530D01*
X127690914Y-59594529D01*
X127735010Y-59372844D01*
X127735010Y-59372840D01*
X127749898Y-59297993D01*
X127735010Y-59223146D01*
X127735010Y-57952913D01*
X127760000Y-57827280D01*
X127760000Y-57827276D01*
X127774888Y-57752429D01*
X127760000Y-57677582D01*
X127760000Y-57603711D01*
X127877431Y-57486280D01*
X128035000Y-57105874D01*
X128035000Y-56694126D01*
X127877431Y-56313720D01*
X127586280Y-56022569D01*
X127205874Y-55865000D01*
X126794126Y-55865000D01*
X126413720Y-56022569D01*
X126122569Y-56313720D01*
X126085770Y-56402560D01*
X125650000Y-56402560D01*
X125637894Y-56404968D01*
X125600991Y-56404968D01*
X125474682Y-56417408D01*
X125378549Y-56436530D01*
X125257096Y-56473372D01*
X125166540Y-56510881D01*
X125160000Y-56514377D01*
X125160000Y-53833002D01*
X127052151Y-53833002D01*
X127126998Y-53847890D01*
X127201845Y-53833002D01*
X127201850Y-53833002D01*
X127423535Y-53788906D01*
X127674927Y-53620931D01*
X127717329Y-53557472D01*
X129439802Y-51835000D01*
X129605874Y-51835000D01*
X129986280Y-51677431D01*
X130277431Y-51386280D01*
X130435000Y-51005874D01*
X130435000Y-50594126D01*
X130277431Y-50213720D01*
X129986280Y-49922569D01*
X129605874Y-49765000D01*
X129194126Y-49765000D01*
X128813720Y-49922569D01*
X128522569Y-50213720D01*
X128365000Y-50594126D01*
X128365000Y-50760198D01*
X126812197Y-52313002D01*
X125849205Y-52313002D01*
X125935000Y-52105874D01*
X125935000Y-51694126D01*
X125777431Y-51313720D01*
X125486280Y-51022569D01*
X125105874Y-50865000D01*
X124939802Y-50865000D01*
X124190331Y-50115530D01*
X124147929Y-50052071D01*
X123896537Y-49884096D01*
X123674852Y-49840000D01*
X123674847Y-49840000D01*
X123600000Y-49825112D01*
X123525153Y-49840000D01*
X121219053Y-49840000D01*
X121226587Y-47527000D01*
X134473000Y-47527000D01*
X134473000Y-52000000D01*
X134473000Y-52000000D01*
G37*
X134473000Y-52000000D02*
X134482667Y-52048601D01*
X134510197Y-52089803D01*
X134551399Y-52117333D01*
X134600000Y-52127000D01*
X137214950Y-52127000D01*
X137214950Y-52252560D01*
X135900000Y-52252560D01*
X135652235Y-52301843D01*
X135442191Y-52442191D01*
X135301843Y-52652235D01*
X135252560Y-52900000D01*
X135252560Y-54700000D01*
X135301843Y-54947765D01*
X135442191Y-55157809D01*
X135652235Y-55298157D01*
X135667908Y-55301275D01*
X135498690Y-55470493D01*
X135265000Y-56034670D01*
X135265000Y-56645330D01*
X135498690Y-57209507D01*
X135930493Y-57641310D01*
X136494670Y-57875000D01*
X137105330Y-57875000D01*
X137669507Y-57641310D01*
X137805000Y-57505817D01*
X137805000Y-57915330D01*
X138038690Y-58479507D01*
X138470493Y-58911310D01*
X139034670Y-59145000D01*
X139645330Y-59145000D01*
X140209507Y-58911310D01*
X140490001Y-58630816D01*
X140490001Y-62215000D01*
X125132803Y-62215000D01*
X127459486Y-59888319D01*
X127522939Y-59845921D01*
X127565337Y-59782468D01*
X127565339Y-59782466D01*
X127690913Y-59594530D01*
X127690914Y-59594529D01*
X127735010Y-59372844D01*
X127735010Y-59372840D01*
X127749898Y-59297993D01*
X127735010Y-59223146D01*
X127735010Y-57952913D01*
X127760000Y-57827280D01*
X127760000Y-57827276D01*
X127774888Y-57752429D01*
X127760000Y-57677582D01*
X127760000Y-57603711D01*
X127877431Y-57486280D01*
X128035000Y-57105874D01*
X128035000Y-56694126D01*
X127877431Y-56313720D01*
X127586280Y-56022569D01*
X127205874Y-55865000D01*
X126794126Y-55865000D01*
X126413720Y-56022569D01*
X126122569Y-56313720D01*
X126085770Y-56402560D01*
X125650000Y-56402560D01*
X125637894Y-56404968D01*
X125600991Y-56404968D01*
X125474682Y-56417408D01*
X125378549Y-56436530D01*
X125257096Y-56473372D01*
X125166540Y-56510881D01*
X125160000Y-56514377D01*
X125160000Y-53833002D01*
X127052151Y-53833002D01*
X127126998Y-53847890D01*
X127201845Y-53833002D01*
X127201850Y-53833002D01*
X127423535Y-53788906D01*
X127674927Y-53620931D01*
X127717329Y-53557472D01*
X129439802Y-51835000D01*
X129605874Y-51835000D01*
X129986280Y-51677431D01*
X130277431Y-51386280D01*
X130435000Y-51005874D01*
X130435000Y-50594126D01*
X130277431Y-50213720D01*
X129986280Y-49922569D01*
X129605874Y-49765000D01*
X129194126Y-49765000D01*
X128813720Y-49922569D01*
X128522569Y-50213720D01*
X128365000Y-50594126D01*
X128365000Y-50760198D01*
X126812197Y-52313002D01*
X125849205Y-52313002D01*
X125935000Y-52105874D01*
X125935000Y-51694126D01*
X125777431Y-51313720D01*
X125486280Y-51022569D01*
X125105874Y-50865000D01*
X124939802Y-50865000D01*
X124190331Y-50115530D01*
X124147929Y-50052071D01*
X123896537Y-49884096D01*
X123674852Y-49840000D01*
X123674847Y-49840000D01*
X123600000Y-49825112D01*
X123525153Y-49840000D01*
X121219053Y-49840000D01*
X121226587Y-47527000D01*
X134473000Y-47527000D01*
X134473000Y-52000000D01*
G36*
X123640001Y-58996288D02*
X123422569Y-59213720D01*
X123265000Y-59594126D01*
X123265000Y-60005874D01*
X123422569Y-60386280D01*
X123713720Y-60677431D01*
X124094126Y-60835000D01*
X124363200Y-60835000D01*
X123658201Y-61540000D01*
X121180942Y-61540000D01*
X121189016Y-59061324D01*
X121266537Y-59045904D01*
X121517929Y-58877929D01*
X121560331Y-58814470D01*
X123640001Y-56734801D01*
X123640001Y-58996288D01*
X123640001Y-58996288D01*
G37*
X123640001Y-58996288D02*
X123422569Y-59213720D01*
X123265000Y-59594126D01*
X123265000Y-60005874D01*
X123422569Y-60386280D01*
X123713720Y-60677431D01*
X124094126Y-60835000D01*
X124363200Y-60835000D01*
X123658201Y-61540000D01*
X121180942Y-61540000D01*
X121189016Y-59061324D01*
X121266537Y-59045904D01*
X121517929Y-58877929D01*
X121560331Y-58814470D01*
X123640001Y-56734801D01*
X123640001Y-58996288D01*
G36*
X122365000Y-53994126D02*
X122365000Y-54405874D01*
X122522569Y-54786280D01*
X122640000Y-54903711D01*
X122640001Y-55585197D01*
X121195634Y-57029565D01*
X121206046Y-53833002D01*
X122431740Y-53833002D01*
X122365000Y-53994126D01*
X122365000Y-53994126D01*
G37*
X122365000Y-53994126D02*
X122365000Y-54405874D01*
X122522569Y-54786280D01*
X122640000Y-54903711D01*
X122640001Y-55585197D01*
X121195634Y-57029565D01*
X121206046Y-53833002D01*
X122431740Y-53833002D01*
X122365000Y-53994126D01*
G36*
X175473000Y-52000000D02*
X175482667Y-52048601D01*
X175510197Y-52089803D01*
X175551399Y-52117333D01*
X175600000Y-52127000D01*
X178214950Y-52127000D01*
X178214950Y-52252560D01*
X176900000Y-52252560D01*
X176652235Y-52301843D01*
X176442191Y-52442191D01*
X176301843Y-52652235D01*
X176252560Y-52900000D01*
X176252560Y-54700000D01*
X176301843Y-54947765D01*
X176442191Y-55157809D01*
X176652235Y-55298157D01*
X176667908Y-55301275D01*
X176498690Y-55470493D01*
X176265000Y-56034670D01*
X176265000Y-56645330D01*
X176498690Y-57209507D01*
X176930493Y-57641310D01*
X177494670Y-57875000D01*
X178105330Y-57875000D01*
X178669507Y-57641310D01*
X178805000Y-57505817D01*
X178805000Y-57915330D01*
X179038690Y-58479507D01*
X179470493Y-58911310D01*
X180034670Y-59145000D01*
X180645330Y-59145000D01*
X181209507Y-58911310D01*
X181515000Y-58605817D01*
X181515001Y-62215000D01*
X166747562Y-62215000D01*
X166506140Y-62115000D01*
X166232803Y-62115000D01*
X168459486Y-59888319D01*
X168522939Y-59845921D01*
X168565337Y-59782468D01*
X168565339Y-59782466D01*
X168690913Y-59594530D01*
X168690914Y-59594529D01*
X168735010Y-59372844D01*
X168735010Y-59372840D01*
X168749898Y-59297993D01*
X168735010Y-59223146D01*
X168735010Y-57952913D01*
X168760000Y-57827280D01*
X168760000Y-57827276D01*
X168774888Y-57752429D01*
X168760000Y-57677582D01*
X168760000Y-57603711D01*
X168877431Y-57486280D01*
X169035000Y-57105874D01*
X169035000Y-56694126D01*
X168877431Y-56313720D01*
X168586280Y-56022569D01*
X168205874Y-55865000D01*
X167794126Y-55865000D01*
X167413720Y-56022569D01*
X167122569Y-56313720D01*
X167085770Y-56402560D01*
X166650000Y-56402560D01*
X166637894Y-56404968D01*
X166600991Y-56404968D01*
X166474682Y-56417408D01*
X166378549Y-56436530D01*
X166257096Y-56473372D01*
X166166540Y-56510881D01*
X166160000Y-56514377D01*
X166160000Y-53833002D01*
X168052151Y-53833002D01*
X168126998Y-53847890D01*
X168201845Y-53833002D01*
X168201850Y-53833002D01*
X168423535Y-53788906D01*
X168674927Y-53620931D01*
X168717329Y-53557472D01*
X170439802Y-51835000D01*
X170605874Y-51835000D01*
X170986280Y-51677431D01*
X171277431Y-51386280D01*
X171435000Y-51005874D01*
X171435000Y-50594126D01*
X171277431Y-50213720D01*
X170986280Y-49922569D01*
X170605874Y-49765000D01*
X170194126Y-49765000D01*
X169813720Y-49922569D01*
X169522569Y-50213720D01*
X169365000Y-50594126D01*
X169365000Y-50760198D01*
X167812197Y-52313002D01*
X166849205Y-52313002D01*
X166935000Y-52105874D01*
X166935000Y-51694126D01*
X166777431Y-51313720D01*
X166486280Y-51022569D01*
X166105874Y-50865000D01*
X165939802Y-50865000D01*
X165190331Y-50115530D01*
X165147929Y-50052071D01*
X164896537Y-49884096D01*
X164674852Y-49840000D01*
X164674847Y-49840000D01*
X164600000Y-49825112D01*
X164525153Y-49840000D01*
X162219053Y-49840000D01*
X162226587Y-47527000D01*
X175473000Y-47527000D01*
X175473000Y-52000000D01*
X175473000Y-52000000D01*
G37*
X175473000Y-52000000D02*
X175482667Y-52048601D01*
X175510197Y-52089803D01*
X175551399Y-52117333D01*
X175600000Y-52127000D01*
X178214950Y-52127000D01*
X178214950Y-52252560D01*
X176900000Y-52252560D01*
X176652235Y-52301843D01*
X176442191Y-52442191D01*
X176301843Y-52652235D01*
X176252560Y-52900000D01*
X176252560Y-54700000D01*
X176301843Y-54947765D01*
X176442191Y-55157809D01*
X176652235Y-55298157D01*
X176667908Y-55301275D01*
X176498690Y-55470493D01*
X176265000Y-56034670D01*
X176265000Y-56645330D01*
X176498690Y-57209507D01*
X176930493Y-57641310D01*
X177494670Y-57875000D01*
X178105330Y-57875000D01*
X178669507Y-57641310D01*
X178805000Y-57505817D01*
X178805000Y-57915330D01*
X179038690Y-58479507D01*
X179470493Y-58911310D01*
X180034670Y-59145000D01*
X180645330Y-59145000D01*
X181209507Y-58911310D01*
X181515000Y-58605817D01*
X181515001Y-62215000D01*
X166747562Y-62215000D01*
X166506140Y-62115000D01*
X166232803Y-62115000D01*
X168459486Y-59888319D01*
X168522939Y-59845921D01*
X168565337Y-59782468D01*
X168565339Y-59782466D01*
X168690913Y-59594530D01*
X168690914Y-59594529D01*
X168735010Y-59372844D01*
X168735010Y-59372840D01*
X168749898Y-59297993D01*
X168735010Y-59223146D01*
X168735010Y-57952913D01*
X168760000Y-57827280D01*
X168760000Y-57827276D01*
X168774888Y-57752429D01*
X168760000Y-57677582D01*
X168760000Y-57603711D01*
X168877431Y-57486280D01*
X169035000Y-57105874D01*
X169035000Y-56694126D01*
X168877431Y-56313720D01*
X168586280Y-56022569D01*
X168205874Y-55865000D01*
X167794126Y-55865000D01*
X167413720Y-56022569D01*
X167122569Y-56313720D01*
X167085770Y-56402560D01*
X166650000Y-56402560D01*
X166637894Y-56404968D01*
X166600991Y-56404968D01*
X166474682Y-56417408D01*
X166378549Y-56436530D01*
X166257096Y-56473372D01*
X166166540Y-56510881D01*
X166160000Y-56514377D01*
X166160000Y-53833002D01*
X168052151Y-53833002D01*
X168126998Y-53847890D01*
X168201845Y-53833002D01*
X168201850Y-53833002D01*
X168423535Y-53788906D01*
X168674927Y-53620931D01*
X168717329Y-53557472D01*
X170439802Y-51835000D01*
X170605874Y-51835000D01*
X170986280Y-51677431D01*
X171277431Y-51386280D01*
X171435000Y-51005874D01*
X171435000Y-50594126D01*
X171277431Y-50213720D01*
X170986280Y-49922569D01*
X170605874Y-49765000D01*
X170194126Y-49765000D01*
X169813720Y-49922569D01*
X169522569Y-50213720D01*
X169365000Y-50594126D01*
X169365000Y-50760198D01*
X167812197Y-52313002D01*
X166849205Y-52313002D01*
X166935000Y-52105874D01*
X166935000Y-51694126D01*
X166777431Y-51313720D01*
X166486280Y-51022569D01*
X166105874Y-50865000D01*
X165939802Y-50865000D01*
X165190331Y-50115530D01*
X165147929Y-50052071D01*
X164896537Y-49884096D01*
X164674852Y-49840000D01*
X164674847Y-49840000D01*
X164600000Y-49825112D01*
X164525153Y-49840000D01*
X162219053Y-49840000D01*
X162226587Y-47527000D01*
X175473000Y-47527000D01*
X175473000Y-52000000D01*
G36*
X164640001Y-58996288D02*
X164422569Y-59213720D01*
X164265000Y-59594126D01*
X164265000Y-60005874D01*
X164422569Y-60386280D01*
X164713720Y-60677431D01*
X165094126Y-60835000D01*
X165363200Y-60835000D01*
X164658201Y-61540000D01*
X162180942Y-61540000D01*
X162189016Y-59061324D01*
X162266537Y-59045904D01*
X162517929Y-58877929D01*
X162560331Y-58814470D01*
X164640001Y-56734801D01*
X164640001Y-58996288D01*
X164640001Y-58996288D01*
G37*
X164640001Y-58996288D02*
X164422569Y-59213720D01*
X164265000Y-59594126D01*
X164265000Y-60005874D01*
X164422569Y-60386280D01*
X164713720Y-60677431D01*
X165094126Y-60835000D01*
X165363200Y-60835000D01*
X164658201Y-61540000D01*
X162180942Y-61540000D01*
X162189016Y-59061324D01*
X162266537Y-59045904D01*
X162517929Y-58877929D01*
X162560331Y-58814470D01*
X164640001Y-56734801D01*
X164640001Y-58996288D01*
G36*
X163365000Y-53994126D02*
X163365000Y-54405874D01*
X163522569Y-54786280D01*
X163640000Y-54903711D01*
X163640001Y-55585197D01*
X162195634Y-57029565D01*
X162206046Y-53833002D01*
X163431740Y-53833002D01*
X163365000Y-53994126D01*
X163365000Y-53994126D01*
G37*
X163365000Y-53994126D02*
X163365000Y-54405874D01*
X163522569Y-54786280D01*
X163640000Y-54903711D01*
X163640001Y-55585197D01*
X162195634Y-57029565D01*
X162206046Y-53833002D01*
X163431740Y-53833002D01*
X163365000Y-53994126D01*
G36*
X134473000Y-73000000D02*
X134482667Y-73048601D01*
X134510197Y-73089803D01*
X134551399Y-73117333D01*
X134600000Y-73127000D01*
X137214950Y-73127000D01*
X137214950Y-73252560D01*
X135900000Y-73252560D01*
X135652235Y-73301843D01*
X135442191Y-73442191D01*
X135301843Y-73652235D01*
X135252560Y-73900000D01*
X135252560Y-75700000D01*
X135301843Y-75947765D01*
X135442191Y-76157809D01*
X135652235Y-76298157D01*
X135667908Y-76301275D01*
X135498690Y-76470493D01*
X135265000Y-77034670D01*
X135265000Y-77645330D01*
X135498690Y-78209507D01*
X135930493Y-78641310D01*
X136494670Y-78875000D01*
X137105330Y-78875000D01*
X137669507Y-78641310D01*
X137805000Y-78505817D01*
X137805000Y-78915330D01*
X138038690Y-79479507D01*
X138470493Y-79911310D01*
X139034670Y-80145000D01*
X139645330Y-80145000D01*
X140209507Y-79911310D01*
X140490001Y-79630816D01*
X140490001Y-83215000D01*
X125132803Y-83215000D01*
X127459486Y-80888319D01*
X127522939Y-80845921D01*
X127565337Y-80782468D01*
X127565339Y-80782466D01*
X127690913Y-80594530D01*
X127690914Y-80594529D01*
X127735010Y-80372844D01*
X127735010Y-80372840D01*
X127749898Y-80297993D01*
X127735010Y-80223146D01*
X127735010Y-78952913D01*
X127760000Y-78827280D01*
X127760000Y-78827276D01*
X127774888Y-78752429D01*
X127760000Y-78677582D01*
X127760000Y-78603711D01*
X127877431Y-78486280D01*
X128035000Y-78105874D01*
X128035000Y-77694126D01*
X127877431Y-77313720D01*
X127586280Y-77022569D01*
X127205874Y-76865000D01*
X126794126Y-76865000D01*
X126413720Y-77022569D01*
X126122569Y-77313720D01*
X126085770Y-77402560D01*
X125650000Y-77402560D01*
X125637894Y-77404968D01*
X125600991Y-77404968D01*
X125474682Y-77417408D01*
X125378549Y-77436530D01*
X125257096Y-77473372D01*
X125166540Y-77510881D01*
X125160000Y-77514377D01*
X125160000Y-74833002D01*
X127052151Y-74833002D01*
X127126998Y-74847890D01*
X127201845Y-74833002D01*
X127201850Y-74833002D01*
X127423535Y-74788906D01*
X127674927Y-74620931D01*
X127717329Y-74557472D01*
X129439802Y-72835000D01*
X129605874Y-72835000D01*
X129986280Y-72677431D01*
X130277431Y-72386280D01*
X130435000Y-72005874D01*
X130435000Y-71594126D01*
X130277431Y-71213720D01*
X129986280Y-70922569D01*
X129605874Y-70765000D01*
X129194126Y-70765000D01*
X128813720Y-70922569D01*
X128522569Y-71213720D01*
X128365000Y-71594126D01*
X128365000Y-71760198D01*
X126812197Y-73313002D01*
X125849205Y-73313002D01*
X125935000Y-73105874D01*
X125935000Y-72694126D01*
X125777431Y-72313720D01*
X125486280Y-72022569D01*
X125105874Y-71865000D01*
X124939802Y-71865000D01*
X124190331Y-71115530D01*
X124147929Y-71052071D01*
X123896537Y-70884096D01*
X123674852Y-70840000D01*
X123674847Y-70840000D01*
X123600000Y-70825112D01*
X123525153Y-70840000D01*
X121219053Y-70840000D01*
X121226587Y-68527000D01*
X134473000Y-68527000D01*
X134473000Y-73000000D01*
X134473000Y-73000000D01*
G37*
X134473000Y-73000000D02*
X134482667Y-73048601D01*
X134510197Y-73089803D01*
X134551399Y-73117333D01*
X134600000Y-73127000D01*
X137214950Y-73127000D01*
X137214950Y-73252560D01*
X135900000Y-73252560D01*
X135652235Y-73301843D01*
X135442191Y-73442191D01*
X135301843Y-73652235D01*
X135252560Y-73900000D01*
X135252560Y-75700000D01*
X135301843Y-75947765D01*
X135442191Y-76157809D01*
X135652235Y-76298157D01*
X135667908Y-76301275D01*
X135498690Y-76470493D01*
X135265000Y-77034670D01*
X135265000Y-77645330D01*
X135498690Y-78209507D01*
X135930493Y-78641310D01*
X136494670Y-78875000D01*
X137105330Y-78875000D01*
X137669507Y-78641310D01*
X137805000Y-78505817D01*
X137805000Y-78915330D01*
X138038690Y-79479507D01*
X138470493Y-79911310D01*
X139034670Y-80145000D01*
X139645330Y-80145000D01*
X140209507Y-79911310D01*
X140490001Y-79630816D01*
X140490001Y-83215000D01*
X125132803Y-83215000D01*
X127459486Y-80888319D01*
X127522939Y-80845921D01*
X127565337Y-80782468D01*
X127565339Y-80782466D01*
X127690913Y-80594530D01*
X127690914Y-80594529D01*
X127735010Y-80372844D01*
X127735010Y-80372840D01*
X127749898Y-80297993D01*
X127735010Y-80223146D01*
X127735010Y-78952913D01*
X127760000Y-78827280D01*
X127760000Y-78827276D01*
X127774888Y-78752429D01*
X127760000Y-78677582D01*
X127760000Y-78603711D01*
X127877431Y-78486280D01*
X128035000Y-78105874D01*
X128035000Y-77694126D01*
X127877431Y-77313720D01*
X127586280Y-77022569D01*
X127205874Y-76865000D01*
X126794126Y-76865000D01*
X126413720Y-77022569D01*
X126122569Y-77313720D01*
X126085770Y-77402560D01*
X125650000Y-77402560D01*
X125637894Y-77404968D01*
X125600991Y-77404968D01*
X125474682Y-77417408D01*
X125378549Y-77436530D01*
X125257096Y-77473372D01*
X125166540Y-77510881D01*
X125160000Y-77514377D01*
X125160000Y-74833002D01*
X127052151Y-74833002D01*
X127126998Y-74847890D01*
X127201845Y-74833002D01*
X127201850Y-74833002D01*
X127423535Y-74788906D01*
X127674927Y-74620931D01*
X127717329Y-74557472D01*
X129439802Y-72835000D01*
X129605874Y-72835000D01*
X129986280Y-72677431D01*
X130277431Y-72386280D01*
X130435000Y-72005874D01*
X130435000Y-71594126D01*
X130277431Y-71213720D01*
X129986280Y-70922569D01*
X129605874Y-70765000D01*
X129194126Y-70765000D01*
X128813720Y-70922569D01*
X128522569Y-71213720D01*
X128365000Y-71594126D01*
X128365000Y-71760198D01*
X126812197Y-73313002D01*
X125849205Y-73313002D01*
X125935000Y-73105874D01*
X125935000Y-72694126D01*
X125777431Y-72313720D01*
X125486280Y-72022569D01*
X125105874Y-71865000D01*
X124939802Y-71865000D01*
X124190331Y-71115530D01*
X124147929Y-71052071D01*
X123896537Y-70884096D01*
X123674852Y-70840000D01*
X123674847Y-70840000D01*
X123600000Y-70825112D01*
X123525153Y-70840000D01*
X121219053Y-70840000D01*
X121226587Y-68527000D01*
X134473000Y-68527000D01*
X134473000Y-73000000D01*
G36*
X123640001Y-79996288D02*
X123422569Y-80213720D01*
X123265000Y-80594126D01*
X123265000Y-81005874D01*
X123422569Y-81386280D01*
X123713720Y-81677431D01*
X124094126Y-81835000D01*
X124363200Y-81835000D01*
X123658201Y-82540000D01*
X121180942Y-82540000D01*
X121189016Y-80061324D01*
X121266537Y-80045904D01*
X121517929Y-79877929D01*
X121560331Y-79814470D01*
X123640001Y-77734801D01*
X123640001Y-79996288D01*
X123640001Y-79996288D01*
G37*
X123640001Y-79996288D02*
X123422569Y-80213720D01*
X123265000Y-80594126D01*
X123265000Y-81005874D01*
X123422569Y-81386280D01*
X123713720Y-81677431D01*
X124094126Y-81835000D01*
X124363200Y-81835000D01*
X123658201Y-82540000D01*
X121180942Y-82540000D01*
X121189016Y-80061324D01*
X121266537Y-80045904D01*
X121517929Y-79877929D01*
X121560331Y-79814470D01*
X123640001Y-77734801D01*
X123640001Y-79996288D01*
G36*
X122365000Y-74994126D02*
X122365000Y-75405874D01*
X122522569Y-75786280D01*
X122640000Y-75903711D01*
X122640001Y-76585197D01*
X121195634Y-78029565D01*
X121206046Y-74833002D01*
X122431740Y-74833002D01*
X122365000Y-74994126D01*
X122365000Y-74994126D01*
G37*
X122365000Y-74994126D02*
X122365000Y-75405874D01*
X122522569Y-75786280D01*
X122640000Y-75903711D01*
X122640001Y-76585197D01*
X121195634Y-78029565D01*
X121206046Y-74833002D01*
X122431740Y-74833002D01*
X122365000Y-74994126D01*
G36*
X175473000Y-73000000D02*
X175482667Y-73048601D01*
X175510197Y-73089803D01*
X175551399Y-73117333D01*
X175600000Y-73127000D01*
X178214950Y-73127000D01*
X178214950Y-73252560D01*
X176900000Y-73252560D01*
X176652235Y-73301843D01*
X176442191Y-73442191D01*
X176301843Y-73652235D01*
X176252560Y-73900000D01*
X176252560Y-75700000D01*
X176301843Y-75947765D01*
X176442191Y-76157809D01*
X176652235Y-76298157D01*
X176667908Y-76301275D01*
X176498690Y-76470493D01*
X176265000Y-77034670D01*
X176265000Y-77645330D01*
X176498690Y-78209507D01*
X176930493Y-78641310D01*
X177494670Y-78875000D01*
X178105330Y-78875000D01*
X178669507Y-78641310D01*
X178805000Y-78505817D01*
X178805000Y-78915330D01*
X179038690Y-79479507D01*
X179470493Y-79911310D01*
X180034670Y-80145000D01*
X180645330Y-80145000D01*
X181209507Y-79911310D01*
X181515000Y-79605817D01*
X181515001Y-83215000D01*
X166747562Y-83215000D01*
X166506140Y-83115000D01*
X166232803Y-83115000D01*
X168459486Y-80888319D01*
X168522939Y-80845921D01*
X168565337Y-80782468D01*
X168565339Y-80782466D01*
X168690913Y-80594530D01*
X168690914Y-80594529D01*
X168735010Y-80372844D01*
X168735010Y-80372840D01*
X168749898Y-80297993D01*
X168735010Y-80223146D01*
X168735010Y-78952913D01*
X168760000Y-78827280D01*
X168760000Y-78827276D01*
X168774888Y-78752429D01*
X168760000Y-78677582D01*
X168760000Y-78603711D01*
X168877431Y-78486280D01*
X169035000Y-78105874D01*
X169035000Y-77694126D01*
X168877431Y-77313720D01*
X168586280Y-77022569D01*
X168205874Y-76865000D01*
X167794126Y-76865000D01*
X167413720Y-77022569D01*
X167122569Y-77313720D01*
X167085770Y-77402560D01*
X166650000Y-77402560D01*
X166637894Y-77404968D01*
X166600991Y-77404968D01*
X166474682Y-77417408D01*
X166378549Y-77436530D01*
X166257096Y-77473372D01*
X166166540Y-77510881D01*
X166160000Y-77514377D01*
X166160000Y-74833002D01*
X168052151Y-74833002D01*
X168126998Y-74847890D01*
X168201845Y-74833002D01*
X168201850Y-74833002D01*
X168423535Y-74788906D01*
X168674927Y-74620931D01*
X168717329Y-74557472D01*
X170439802Y-72835000D01*
X170605874Y-72835000D01*
X170986280Y-72677431D01*
X171277431Y-72386280D01*
X171435000Y-72005874D01*
X171435000Y-71594126D01*
X171277431Y-71213720D01*
X170986280Y-70922569D01*
X170605874Y-70765000D01*
X170194126Y-70765000D01*
X169813720Y-70922569D01*
X169522569Y-71213720D01*
X169365000Y-71594126D01*
X169365000Y-71760198D01*
X167812197Y-73313002D01*
X166849205Y-73313002D01*
X166935000Y-73105874D01*
X166935000Y-72694126D01*
X166777431Y-72313720D01*
X166486280Y-72022569D01*
X166105874Y-71865000D01*
X165939802Y-71865000D01*
X165190331Y-71115530D01*
X165147929Y-71052071D01*
X164896537Y-70884096D01*
X164674852Y-70840000D01*
X164674847Y-70840000D01*
X164600000Y-70825112D01*
X164525153Y-70840000D01*
X162219053Y-70840000D01*
X162226587Y-68527000D01*
X175473000Y-68527000D01*
X175473000Y-73000000D01*
X175473000Y-73000000D01*
G37*
X175473000Y-73000000D02*
X175482667Y-73048601D01*
X175510197Y-73089803D01*
X175551399Y-73117333D01*
X175600000Y-73127000D01*
X178214950Y-73127000D01*
X178214950Y-73252560D01*
X176900000Y-73252560D01*
X176652235Y-73301843D01*
X176442191Y-73442191D01*
X176301843Y-73652235D01*
X176252560Y-73900000D01*
X176252560Y-75700000D01*
X176301843Y-75947765D01*
X176442191Y-76157809D01*
X176652235Y-76298157D01*
X176667908Y-76301275D01*
X176498690Y-76470493D01*
X176265000Y-77034670D01*
X176265000Y-77645330D01*
X176498690Y-78209507D01*
X176930493Y-78641310D01*
X177494670Y-78875000D01*
X178105330Y-78875000D01*
X178669507Y-78641310D01*
X178805000Y-78505817D01*
X178805000Y-78915330D01*
X179038690Y-79479507D01*
X179470493Y-79911310D01*
X180034670Y-80145000D01*
X180645330Y-80145000D01*
X181209507Y-79911310D01*
X181515000Y-79605817D01*
X181515001Y-83215000D01*
X166747562Y-83215000D01*
X166506140Y-83115000D01*
X166232803Y-83115000D01*
X168459486Y-80888319D01*
X168522939Y-80845921D01*
X168565337Y-80782468D01*
X168565339Y-80782466D01*
X168690913Y-80594530D01*
X168690914Y-80594529D01*
X168735010Y-80372844D01*
X168735010Y-80372840D01*
X168749898Y-80297993D01*
X168735010Y-80223146D01*
X168735010Y-78952913D01*
X168760000Y-78827280D01*
X168760000Y-78827276D01*
X168774888Y-78752429D01*
X168760000Y-78677582D01*
X168760000Y-78603711D01*
X168877431Y-78486280D01*
X169035000Y-78105874D01*
X169035000Y-77694126D01*
X168877431Y-77313720D01*
X168586280Y-77022569D01*
X168205874Y-76865000D01*
X167794126Y-76865000D01*
X167413720Y-77022569D01*
X167122569Y-77313720D01*
X167085770Y-77402560D01*
X166650000Y-77402560D01*
X166637894Y-77404968D01*
X166600991Y-77404968D01*
X166474682Y-77417408D01*
X166378549Y-77436530D01*
X166257096Y-77473372D01*
X166166540Y-77510881D01*
X166160000Y-77514377D01*
X166160000Y-74833002D01*
X168052151Y-74833002D01*
X168126998Y-74847890D01*
X168201845Y-74833002D01*
X168201850Y-74833002D01*
X168423535Y-74788906D01*
X168674927Y-74620931D01*
X168717329Y-74557472D01*
X170439802Y-72835000D01*
X170605874Y-72835000D01*
X170986280Y-72677431D01*
X171277431Y-72386280D01*
X171435000Y-72005874D01*
X171435000Y-71594126D01*
X171277431Y-71213720D01*
X170986280Y-70922569D01*
X170605874Y-70765000D01*
X170194126Y-70765000D01*
X169813720Y-70922569D01*
X169522569Y-71213720D01*
X169365000Y-71594126D01*
X169365000Y-71760198D01*
X167812197Y-73313002D01*
X166849205Y-73313002D01*
X166935000Y-73105874D01*
X166935000Y-72694126D01*
X166777431Y-72313720D01*
X166486280Y-72022569D01*
X166105874Y-71865000D01*
X165939802Y-71865000D01*
X165190331Y-71115530D01*
X165147929Y-71052071D01*
X164896537Y-70884096D01*
X164674852Y-70840000D01*
X164674847Y-70840000D01*
X164600000Y-70825112D01*
X164525153Y-70840000D01*
X162219053Y-70840000D01*
X162226587Y-68527000D01*
X175473000Y-68527000D01*
X175473000Y-73000000D01*
G36*
X164640001Y-79996288D02*
X164422569Y-80213720D01*
X164265000Y-80594126D01*
X164265000Y-81005874D01*
X164422569Y-81386280D01*
X164713720Y-81677431D01*
X165094126Y-81835000D01*
X165363200Y-81835000D01*
X164658201Y-82540000D01*
X162180942Y-82540000D01*
X162189016Y-80061324D01*
X162266537Y-80045904D01*
X162517929Y-79877929D01*
X162560331Y-79814470D01*
X164640001Y-77734801D01*
X164640001Y-79996288D01*
X164640001Y-79996288D01*
G37*
X164640001Y-79996288D02*
X164422569Y-80213720D01*
X164265000Y-80594126D01*
X164265000Y-81005874D01*
X164422569Y-81386280D01*
X164713720Y-81677431D01*
X165094126Y-81835000D01*
X165363200Y-81835000D01*
X164658201Y-82540000D01*
X162180942Y-82540000D01*
X162189016Y-80061324D01*
X162266537Y-80045904D01*
X162517929Y-79877929D01*
X162560331Y-79814470D01*
X164640001Y-77734801D01*
X164640001Y-79996288D01*
G36*
X163365000Y-74994126D02*
X163365000Y-75405874D01*
X163522569Y-75786280D01*
X163640000Y-75903711D01*
X163640001Y-76585197D01*
X162195634Y-78029565D01*
X162206046Y-74833002D01*
X163431740Y-74833002D01*
X163365000Y-74994126D01*
X163365000Y-74994126D01*
G37*
X163365000Y-74994126D02*
X163365000Y-75405874D01*
X163522569Y-75786280D01*
X163640000Y-75903711D01*
X163640001Y-76585197D01*
X162195634Y-78029565D01*
X162206046Y-74833002D01*
X163431740Y-74833002D01*
X163365000Y-74994126D01*
G36*
X134473000Y-94000000D02*
X134482667Y-94048601D01*
X134510197Y-94089803D01*
X134551399Y-94117333D01*
X134600000Y-94127000D01*
X137214950Y-94127000D01*
X137214950Y-94252560D01*
X135900000Y-94252560D01*
X135652235Y-94301843D01*
X135442191Y-94442191D01*
X135301843Y-94652235D01*
X135252560Y-94900000D01*
X135252560Y-96700000D01*
X135301843Y-96947765D01*
X135442191Y-97157809D01*
X135652235Y-97298157D01*
X135667908Y-97301275D01*
X135498690Y-97470493D01*
X135265000Y-98034670D01*
X135265000Y-98645330D01*
X135498690Y-99209507D01*
X135930493Y-99641310D01*
X136494670Y-99875000D01*
X137105330Y-99875000D01*
X137669507Y-99641310D01*
X137805000Y-99505817D01*
X137805000Y-99915330D01*
X138038690Y-100479507D01*
X138470493Y-100911310D01*
X139034670Y-101145000D01*
X139645330Y-101145000D01*
X140209507Y-100911310D01*
X140490001Y-100630816D01*
X140490001Y-104215000D01*
X125132803Y-104215000D01*
X127459486Y-101888319D01*
X127522939Y-101845921D01*
X127565337Y-101782468D01*
X127565339Y-101782466D01*
X127690913Y-101594530D01*
X127690914Y-101594529D01*
X127735010Y-101372844D01*
X127735010Y-101372840D01*
X127749898Y-101297993D01*
X127735010Y-101223146D01*
X127735010Y-99952913D01*
X127760000Y-99827280D01*
X127760000Y-99827276D01*
X127774888Y-99752429D01*
X127760000Y-99677582D01*
X127760000Y-99603711D01*
X127877431Y-99486280D01*
X128035000Y-99105874D01*
X128035000Y-98694126D01*
X127877431Y-98313720D01*
X127586280Y-98022569D01*
X127205874Y-97865000D01*
X126794126Y-97865000D01*
X126413720Y-98022569D01*
X126122569Y-98313720D01*
X126085770Y-98402560D01*
X125650000Y-98402560D01*
X125637894Y-98404968D01*
X125600991Y-98404968D01*
X125474682Y-98417408D01*
X125378549Y-98436530D01*
X125257096Y-98473372D01*
X125166540Y-98510881D01*
X125160000Y-98514377D01*
X125160000Y-95833002D01*
X127052151Y-95833002D01*
X127126998Y-95847890D01*
X127201845Y-95833002D01*
X127201850Y-95833002D01*
X127423535Y-95788906D01*
X127674927Y-95620931D01*
X127717329Y-95557472D01*
X129439802Y-93835000D01*
X129605874Y-93835000D01*
X129986280Y-93677431D01*
X130277431Y-93386280D01*
X130435000Y-93005874D01*
X130435000Y-92594126D01*
X130277431Y-92213720D01*
X129986280Y-91922569D01*
X129605874Y-91765000D01*
X129194126Y-91765000D01*
X128813720Y-91922569D01*
X128522569Y-92213720D01*
X128365000Y-92594126D01*
X128365000Y-92760198D01*
X126812197Y-94313002D01*
X125849205Y-94313002D01*
X125935000Y-94105874D01*
X125935000Y-93694126D01*
X125777431Y-93313720D01*
X125486280Y-93022569D01*
X125105874Y-92865000D01*
X124939802Y-92865000D01*
X124190331Y-92115530D01*
X124147929Y-92052071D01*
X123896537Y-91884096D01*
X123674852Y-91840000D01*
X123674847Y-91840000D01*
X123600000Y-91825112D01*
X123525153Y-91840000D01*
X121219053Y-91840000D01*
X121226587Y-89527000D01*
X134473000Y-89527000D01*
X134473000Y-94000000D01*
X134473000Y-94000000D01*
G37*
X134473000Y-94000000D02*
X134482667Y-94048601D01*
X134510197Y-94089803D01*
X134551399Y-94117333D01*
X134600000Y-94127000D01*
X137214950Y-94127000D01*
X137214950Y-94252560D01*
X135900000Y-94252560D01*
X135652235Y-94301843D01*
X135442191Y-94442191D01*
X135301843Y-94652235D01*
X135252560Y-94900000D01*
X135252560Y-96700000D01*
X135301843Y-96947765D01*
X135442191Y-97157809D01*
X135652235Y-97298157D01*
X135667908Y-97301275D01*
X135498690Y-97470493D01*
X135265000Y-98034670D01*
X135265000Y-98645330D01*
X135498690Y-99209507D01*
X135930493Y-99641310D01*
X136494670Y-99875000D01*
X137105330Y-99875000D01*
X137669507Y-99641310D01*
X137805000Y-99505817D01*
X137805000Y-99915330D01*
X138038690Y-100479507D01*
X138470493Y-100911310D01*
X139034670Y-101145000D01*
X139645330Y-101145000D01*
X140209507Y-100911310D01*
X140490001Y-100630816D01*
X140490001Y-104215000D01*
X125132803Y-104215000D01*
X127459486Y-101888319D01*
X127522939Y-101845921D01*
X127565337Y-101782468D01*
X127565339Y-101782466D01*
X127690913Y-101594530D01*
X127690914Y-101594529D01*
X127735010Y-101372844D01*
X127735010Y-101372840D01*
X127749898Y-101297993D01*
X127735010Y-101223146D01*
X127735010Y-99952913D01*
X127760000Y-99827280D01*
X127760000Y-99827276D01*
X127774888Y-99752429D01*
X127760000Y-99677582D01*
X127760000Y-99603711D01*
X127877431Y-99486280D01*
X128035000Y-99105874D01*
X128035000Y-98694126D01*
X127877431Y-98313720D01*
X127586280Y-98022569D01*
X127205874Y-97865000D01*
X126794126Y-97865000D01*
X126413720Y-98022569D01*
X126122569Y-98313720D01*
X126085770Y-98402560D01*
X125650000Y-98402560D01*
X125637894Y-98404968D01*
X125600991Y-98404968D01*
X125474682Y-98417408D01*
X125378549Y-98436530D01*
X125257096Y-98473372D01*
X125166540Y-98510881D01*
X125160000Y-98514377D01*
X125160000Y-95833002D01*
X127052151Y-95833002D01*
X127126998Y-95847890D01*
X127201845Y-95833002D01*
X127201850Y-95833002D01*
X127423535Y-95788906D01*
X127674927Y-95620931D01*
X127717329Y-95557472D01*
X129439802Y-93835000D01*
X129605874Y-93835000D01*
X129986280Y-93677431D01*
X130277431Y-93386280D01*
X130435000Y-93005874D01*
X130435000Y-92594126D01*
X130277431Y-92213720D01*
X129986280Y-91922569D01*
X129605874Y-91765000D01*
X129194126Y-91765000D01*
X128813720Y-91922569D01*
X128522569Y-92213720D01*
X128365000Y-92594126D01*
X128365000Y-92760198D01*
X126812197Y-94313002D01*
X125849205Y-94313002D01*
X125935000Y-94105874D01*
X125935000Y-93694126D01*
X125777431Y-93313720D01*
X125486280Y-93022569D01*
X125105874Y-92865000D01*
X124939802Y-92865000D01*
X124190331Y-92115530D01*
X124147929Y-92052071D01*
X123896537Y-91884096D01*
X123674852Y-91840000D01*
X123674847Y-91840000D01*
X123600000Y-91825112D01*
X123525153Y-91840000D01*
X121219053Y-91840000D01*
X121226587Y-89527000D01*
X134473000Y-89527000D01*
X134473000Y-94000000D01*
G36*
X123640001Y-100996288D02*
X123422569Y-101213720D01*
X123265000Y-101594126D01*
X123265000Y-102005874D01*
X123422569Y-102386280D01*
X123713720Y-102677431D01*
X124094126Y-102835000D01*
X124363200Y-102835000D01*
X123658201Y-103540000D01*
X121180942Y-103540000D01*
X121189016Y-101061324D01*
X121266537Y-101045904D01*
X121517929Y-100877929D01*
X121560331Y-100814470D01*
X123640001Y-98734801D01*
X123640001Y-100996288D01*
X123640001Y-100996288D01*
G37*
X123640001Y-100996288D02*
X123422569Y-101213720D01*
X123265000Y-101594126D01*
X123265000Y-102005874D01*
X123422569Y-102386280D01*
X123713720Y-102677431D01*
X124094126Y-102835000D01*
X124363200Y-102835000D01*
X123658201Y-103540000D01*
X121180942Y-103540000D01*
X121189016Y-101061324D01*
X121266537Y-101045904D01*
X121517929Y-100877929D01*
X121560331Y-100814470D01*
X123640001Y-98734801D01*
X123640001Y-100996288D01*
G36*
X122365000Y-95994126D02*
X122365000Y-96405874D01*
X122522569Y-96786280D01*
X122640000Y-96903711D01*
X122640001Y-97585197D01*
X121195634Y-99029565D01*
X121206046Y-95833002D01*
X122431740Y-95833002D01*
X122365000Y-95994126D01*
X122365000Y-95994126D01*
G37*
X122365000Y-95994126D02*
X122365000Y-96405874D01*
X122522569Y-96786280D01*
X122640000Y-96903711D01*
X122640001Y-97585197D01*
X121195634Y-99029565D01*
X121206046Y-95833002D01*
X122431740Y-95833002D01*
X122365000Y-95994126D01*
G36*
X175473000Y-94000000D02*
X175482667Y-94048601D01*
X175510197Y-94089803D01*
X175551399Y-94117333D01*
X175600000Y-94127000D01*
X178214950Y-94127000D01*
X178214950Y-94252560D01*
X176900000Y-94252560D01*
X176652235Y-94301843D01*
X176442191Y-94442191D01*
X176301843Y-94652235D01*
X176252560Y-94900000D01*
X176252560Y-96700000D01*
X176301843Y-96947765D01*
X176442191Y-97157809D01*
X176652235Y-97298157D01*
X176667908Y-97301275D01*
X176498690Y-97470493D01*
X176265000Y-98034670D01*
X176265000Y-98645330D01*
X176498690Y-99209507D01*
X176930493Y-99641310D01*
X177494670Y-99875000D01*
X178105330Y-99875000D01*
X178669507Y-99641310D01*
X178805000Y-99505817D01*
X178805000Y-99915330D01*
X179038690Y-100479507D01*
X179470493Y-100911310D01*
X180034670Y-101145000D01*
X180645330Y-101145000D01*
X181209507Y-100911310D01*
X181515000Y-100605817D01*
X181515001Y-104215000D01*
X166747562Y-104215000D01*
X166506140Y-104115000D01*
X166232803Y-104115000D01*
X168459486Y-101888319D01*
X168522939Y-101845921D01*
X168565337Y-101782468D01*
X168565339Y-101782466D01*
X168690913Y-101594530D01*
X168690914Y-101594529D01*
X168735010Y-101372844D01*
X168735010Y-101372840D01*
X168749898Y-101297993D01*
X168735010Y-101223146D01*
X168735010Y-99952913D01*
X168760000Y-99827280D01*
X168760000Y-99827276D01*
X168774888Y-99752429D01*
X168760000Y-99677582D01*
X168760000Y-99603711D01*
X168877431Y-99486280D01*
X169035000Y-99105874D01*
X169035000Y-98694126D01*
X168877431Y-98313720D01*
X168586280Y-98022569D01*
X168205874Y-97865000D01*
X167794126Y-97865000D01*
X167413720Y-98022569D01*
X167122569Y-98313720D01*
X167085770Y-98402560D01*
X166650000Y-98402560D01*
X166637894Y-98404968D01*
X166600991Y-98404968D01*
X166474682Y-98417408D01*
X166378549Y-98436530D01*
X166257096Y-98473372D01*
X166166540Y-98510881D01*
X166160000Y-98514377D01*
X166160000Y-95833002D01*
X168052151Y-95833002D01*
X168126998Y-95847890D01*
X168201845Y-95833002D01*
X168201850Y-95833002D01*
X168423535Y-95788906D01*
X168674927Y-95620931D01*
X168717329Y-95557472D01*
X170439802Y-93835000D01*
X170605874Y-93835000D01*
X170986280Y-93677431D01*
X171277431Y-93386280D01*
X171435000Y-93005874D01*
X171435000Y-92594126D01*
X171277431Y-92213720D01*
X170986280Y-91922569D01*
X170605874Y-91765000D01*
X170194126Y-91765000D01*
X169813720Y-91922569D01*
X169522569Y-92213720D01*
X169365000Y-92594126D01*
X169365000Y-92760198D01*
X167812197Y-94313002D01*
X166849205Y-94313002D01*
X166935000Y-94105874D01*
X166935000Y-93694126D01*
X166777431Y-93313720D01*
X166486280Y-93022569D01*
X166105874Y-92865000D01*
X165939802Y-92865000D01*
X165190331Y-92115530D01*
X165147929Y-92052071D01*
X164896537Y-91884096D01*
X164674852Y-91840000D01*
X164674847Y-91840000D01*
X164600000Y-91825112D01*
X164525153Y-91840000D01*
X162219053Y-91840000D01*
X162226587Y-89527000D01*
X175473000Y-89527000D01*
X175473000Y-94000000D01*
X175473000Y-94000000D01*
G37*
X175473000Y-94000000D02*
X175482667Y-94048601D01*
X175510197Y-94089803D01*
X175551399Y-94117333D01*
X175600000Y-94127000D01*
X178214950Y-94127000D01*
X178214950Y-94252560D01*
X176900000Y-94252560D01*
X176652235Y-94301843D01*
X176442191Y-94442191D01*
X176301843Y-94652235D01*
X176252560Y-94900000D01*
X176252560Y-96700000D01*
X176301843Y-96947765D01*
X176442191Y-97157809D01*
X176652235Y-97298157D01*
X176667908Y-97301275D01*
X176498690Y-97470493D01*
X176265000Y-98034670D01*
X176265000Y-98645330D01*
X176498690Y-99209507D01*
X176930493Y-99641310D01*
X177494670Y-99875000D01*
X178105330Y-99875000D01*
X178669507Y-99641310D01*
X178805000Y-99505817D01*
X178805000Y-99915330D01*
X179038690Y-100479507D01*
X179470493Y-100911310D01*
X180034670Y-101145000D01*
X180645330Y-101145000D01*
X181209507Y-100911310D01*
X181515000Y-100605817D01*
X181515001Y-104215000D01*
X166747562Y-104215000D01*
X166506140Y-104115000D01*
X166232803Y-104115000D01*
X168459486Y-101888319D01*
X168522939Y-101845921D01*
X168565337Y-101782468D01*
X168565339Y-101782466D01*
X168690913Y-101594530D01*
X168690914Y-101594529D01*
X168735010Y-101372844D01*
X168735010Y-101372840D01*
X168749898Y-101297993D01*
X168735010Y-101223146D01*
X168735010Y-99952913D01*
X168760000Y-99827280D01*
X168760000Y-99827276D01*
X168774888Y-99752429D01*
X168760000Y-99677582D01*
X168760000Y-99603711D01*
X168877431Y-99486280D01*
X169035000Y-99105874D01*
X169035000Y-98694126D01*
X168877431Y-98313720D01*
X168586280Y-98022569D01*
X168205874Y-97865000D01*
X167794126Y-97865000D01*
X167413720Y-98022569D01*
X167122569Y-98313720D01*
X167085770Y-98402560D01*
X166650000Y-98402560D01*
X166637894Y-98404968D01*
X166600991Y-98404968D01*
X166474682Y-98417408D01*
X166378549Y-98436530D01*
X166257096Y-98473372D01*
X166166540Y-98510881D01*
X166160000Y-98514377D01*
X166160000Y-95833002D01*
X168052151Y-95833002D01*
X168126998Y-95847890D01*
X168201845Y-95833002D01*
X168201850Y-95833002D01*
X168423535Y-95788906D01*
X168674927Y-95620931D01*
X168717329Y-95557472D01*
X170439802Y-93835000D01*
X170605874Y-93835000D01*
X170986280Y-93677431D01*
X171277431Y-93386280D01*
X171435000Y-93005874D01*
X171435000Y-92594126D01*
X171277431Y-92213720D01*
X170986280Y-91922569D01*
X170605874Y-91765000D01*
X170194126Y-91765000D01*
X169813720Y-91922569D01*
X169522569Y-92213720D01*
X169365000Y-92594126D01*
X169365000Y-92760198D01*
X167812197Y-94313002D01*
X166849205Y-94313002D01*
X166935000Y-94105874D01*
X166935000Y-93694126D01*
X166777431Y-93313720D01*
X166486280Y-93022569D01*
X166105874Y-92865000D01*
X165939802Y-92865000D01*
X165190331Y-92115530D01*
X165147929Y-92052071D01*
X164896537Y-91884096D01*
X164674852Y-91840000D01*
X164674847Y-91840000D01*
X164600000Y-91825112D01*
X164525153Y-91840000D01*
X162219053Y-91840000D01*
X162226587Y-89527000D01*
X175473000Y-89527000D01*
X175473000Y-94000000D01*
G36*
X164640001Y-100996288D02*
X164422569Y-101213720D01*
X164265000Y-101594126D01*
X164265000Y-102005874D01*
X164422569Y-102386280D01*
X164713720Y-102677431D01*
X165094126Y-102835000D01*
X165363200Y-102835000D01*
X164658201Y-103540000D01*
X162180942Y-103540000D01*
X162189016Y-101061324D01*
X162266537Y-101045904D01*
X162517929Y-100877929D01*
X162560331Y-100814470D01*
X164640001Y-98734801D01*
X164640001Y-100996288D01*
X164640001Y-100996288D01*
G37*
X164640001Y-100996288D02*
X164422569Y-101213720D01*
X164265000Y-101594126D01*
X164265000Y-102005874D01*
X164422569Y-102386280D01*
X164713720Y-102677431D01*
X165094126Y-102835000D01*
X165363200Y-102835000D01*
X164658201Y-103540000D01*
X162180942Y-103540000D01*
X162189016Y-101061324D01*
X162266537Y-101045904D01*
X162517929Y-100877929D01*
X162560331Y-100814470D01*
X164640001Y-98734801D01*
X164640001Y-100996288D01*
G36*
X163365000Y-95994126D02*
X163365000Y-96405874D01*
X163522569Y-96786280D01*
X163640000Y-96903711D01*
X163640001Y-97585197D01*
X162195634Y-99029565D01*
X162206046Y-95833002D01*
X163431740Y-95833002D01*
X163365000Y-95994126D01*
X163365000Y-95994126D01*
G37*
X163365000Y-95994126D02*
X163365000Y-96405874D01*
X163522569Y-96786280D01*
X163640000Y-96903711D01*
X163640001Y-97585197D01*
X162195634Y-99029565D01*
X162206046Y-95833002D01*
X163431740Y-95833002D01*
X163365000Y-95994126D01*
G04 #@! TO.N,GND*
G36*
X161073000Y-62215000D02*
X156499030Y-62215000D01*
X156604507Y-62171310D01*
X157036310Y-61739507D01*
X157270000Y-61175330D01*
X157270000Y-60564670D01*
X157036310Y-60000493D01*
X156900817Y-59865000D01*
X157310330Y-59865000D01*
X157874507Y-59631310D01*
X158306310Y-59199507D01*
X158351669Y-59090000D01*
X161073000Y-59090000D01*
X161073000Y-62215000D01*
X161073000Y-62215000D01*
G37*
X161073000Y-62215000D02*
X156499030Y-62215000D01*
X156604507Y-62171310D01*
X157036310Y-61739507D01*
X157270000Y-61175330D01*
X157270000Y-60564670D01*
X157036310Y-60000493D01*
X156900817Y-59865000D01*
X157310330Y-59865000D01*
X157874507Y-59631310D01*
X158306310Y-59199507D01*
X158351669Y-59090000D01*
X161073000Y-59090000D01*
X161073000Y-62215000D01*
G36*
X161464889Y-46673000D02*
X161200000Y-46673000D01*
X161151399Y-46682667D01*
X161110197Y-46710197D01*
X161082667Y-46751399D01*
X161073000Y-46800000D01*
X161073000Y-49840000D01*
X160598672Y-49840000D01*
X160577431Y-49788720D01*
X160286280Y-49497569D01*
X159905874Y-49340000D01*
X159494126Y-49340000D01*
X159113720Y-49497569D01*
X158993045Y-49618244D01*
X158835000Y-49460199D01*
X158835000Y-49294126D01*
X158677431Y-48913720D01*
X158386280Y-48622569D01*
X158005874Y-48465000D01*
X157594126Y-48465000D01*
X157213720Y-48622569D01*
X156922569Y-48913720D01*
X156765000Y-49294126D01*
X156765000Y-49705874D01*
X156922569Y-50086280D01*
X157176289Y-50340000D01*
X154614802Y-50340000D01*
X153635000Y-49360199D01*
X153635000Y-49194126D01*
X153477431Y-48813720D01*
X153186280Y-48522569D01*
X152805874Y-48365000D01*
X152394126Y-48365000D01*
X152013720Y-48522569D01*
X151722569Y-48813720D01*
X151565000Y-49194126D01*
X151565000Y-49401289D01*
X151486280Y-49322569D01*
X151105874Y-49165000D01*
X150694126Y-49165000D01*
X150313720Y-49322569D01*
X150022569Y-49613720D01*
X149865000Y-49994126D01*
X149865000Y-50405874D01*
X150022569Y-50786280D01*
X150065000Y-50828711D01*
X150065001Y-52054131D01*
X149467718Y-52651415D01*
X149398000Y-52697999D01*
X149351416Y-52767717D01*
X149213448Y-52974200D01*
X149148643Y-53300000D01*
X149165001Y-53382238D01*
X149165000Y-54801289D01*
X149086280Y-54722569D01*
X148705874Y-54565000D01*
X148294126Y-54565000D01*
X147913720Y-54722569D01*
X147622569Y-55013720D01*
X147465000Y-55394126D01*
X147465000Y-55805874D01*
X147622569Y-56186280D01*
X147913720Y-56477431D01*
X148294126Y-56635000D01*
X148460199Y-56635000D01*
X148909671Y-57084473D01*
X148952071Y-57147929D01*
X149203463Y-57315904D01*
X149425148Y-57360000D01*
X149425152Y-57360000D01*
X149500000Y-57374888D01*
X149574848Y-57360000D01*
X150224817Y-57360000D01*
X149957155Y-57627662D01*
X149805874Y-57565000D01*
X149394126Y-57565000D01*
X149013720Y-57722569D01*
X148722569Y-58013720D01*
X148565000Y-58394126D01*
X148565000Y-58805874D01*
X148722569Y-59186280D01*
X149013720Y-59477431D01*
X149394126Y-59635000D01*
X149805874Y-59635000D01*
X150186280Y-59477431D01*
X150223942Y-59439769D01*
X150247918Y-59435000D01*
X150247922Y-59435000D01*
X150431865Y-59398411D01*
X150620811Y-59854568D01*
X151010432Y-60244189D01*
X151519496Y-60455050D01*
X152070504Y-60455050D01*
X152579568Y-60244189D01*
X152969189Y-59854568D01*
X153180050Y-59345504D01*
X153180050Y-59215867D01*
X153595493Y-59631310D01*
X154159670Y-59865000D01*
X154569183Y-59865000D01*
X154433690Y-60000493D01*
X154200000Y-60564670D01*
X154200000Y-61175330D01*
X154433690Y-61739507D01*
X154865493Y-62171310D01*
X154970970Y-62215000D01*
X145810000Y-62215000D01*
X145810000Y-46585000D01*
X161252438Y-46585000D01*
X161464889Y-46673000D01*
X161464889Y-46673000D01*
G37*
X161464889Y-46673000D02*
X161200000Y-46673000D01*
X161151399Y-46682667D01*
X161110197Y-46710197D01*
X161082667Y-46751399D01*
X161073000Y-46800000D01*
X161073000Y-49840000D01*
X160598672Y-49840000D01*
X160577431Y-49788720D01*
X160286280Y-49497569D01*
X159905874Y-49340000D01*
X159494126Y-49340000D01*
X159113720Y-49497569D01*
X158993045Y-49618244D01*
X158835000Y-49460199D01*
X158835000Y-49294126D01*
X158677431Y-48913720D01*
X158386280Y-48622569D01*
X158005874Y-48465000D01*
X157594126Y-48465000D01*
X157213720Y-48622569D01*
X156922569Y-48913720D01*
X156765000Y-49294126D01*
X156765000Y-49705874D01*
X156922569Y-50086280D01*
X157176289Y-50340000D01*
X154614802Y-50340000D01*
X153635000Y-49360199D01*
X153635000Y-49194126D01*
X153477431Y-48813720D01*
X153186280Y-48522569D01*
X152805874Y-48365000D01*
X152394126Y-48365000D01*
X152013720Y-48522569D01*
X151722569Y-48813720D01*
X151565000Y-49194126D01*
X151565000Y-49401289D01*
X151486280Y-49322569D01*
X151105874Y-49165000D01*
X150694126Y-49165000D01*
X150313720Y-49322569D01*
X150022569Y-49613720D01*
X149865000Y-49994126D01*
X149865000Y-50405874D01*
X150022569Y-50786280D01*
X150065000Y-50828711D01*
X150065001Y-52054131D01*
X149467718Y-52651415D01*
X149398000Y-52697999D01*
X149351416Y-52767717D01*
X149213448Y-52974200D01*
X149148643Y-53300000D01*
X149165001Y-53382238D01*
X149165000Y-54801289D01*
X149086280Y-54722569D01*
X148705874Y-54565000D01*
X148294126Y-54565000D01*
X147913720Y-54722569D01*
X147622569Y-55013720D01*
X147465000Y-55394126D01*
X147465000Y-55805874D01*
X147622569Y-56186280D01*
X147913720Y-56477431D01*
X148294126Y-56635000D01*
X148460199Y-56635000D01*
X148909671Y-57084473D01*
X148952071Y-57147929D01*
X149203463Y-57315904D01*
X149425148Y-57360000D01*
X149425152Y-57360000D01*
X149500000Y-57374888D01*
X149574848Y-57360000D01*
X150224817Y-57360000D01*
X149957155Y-57627662D01*
X149805874Y-57565000D01*
X149394126Y-57565000D01*
X149013720Y-57722569D01*
X148722569Y-58013720D01*
X148565000Y-58394126D01*
X148565000Y-58805874D01*
X148722569Y-59186280D01*
X149013720Y-59477431D01*
X149394126Y-59635000D01*
X149805874Y-59635000D01*
X150186280Y-59477431D01*
X150223942Y-59439769D01*
X150247918Y-59435000D01*
X150247922Y-59435000D01*
X150431865Y-59398411D01*
X150620811Y-59854568D01*
X151010432Y-60244189D01*
X151519496Y-60455050D01*
X152070504Y-60455050D01*
X152579568Y-60244189D01*
X152969189Y-59854568D01*
X153180050Y-59345504D01*
X153180050Y-59215867D01*
X153595493Y-59631310D01*
X154159670Y-59865000D01*
X154569183Y-59865000D01*
X154433690Y-60000493D01*
X154200000Y-60564670D01*
X154200000Y-61175330D01*
X154433690Y-61739507D01*
X154865493Y-62171310D01*
X154970970Y-62215000D01*
X145810000Y-62215000D01*
X145810000Y-46585000D01*
X161252438Y-46585000D01*
X161464889Y-46673000D01*
G36*
X152013720Y-50277431D02*
X152394126Y-50435000D01*
X152560199Y-50435000D01*
X153709670Y-51584472D01*
X153752071Y-51647929D01*
X154003463Y-51815904D01*
X154225148Y-51860000D01*
X154225152Y-51860000D01*
X154299999Y-51874888D01*
X154374846Y-51860000D01*
X161073000Y-51860000D01*
X161073000Y-52313002D01*
X156003711Y-52313002D01*
X155886280Y-52195571D01*
X155505874Y-52038002D01*
X155094126Y-52038002D01*
X154713720Y-52195571D01*
X154422569Y-52486722D01*
X154265000Y-52867128D01*
X154265000Y-53278876D01*
X154422569Y-53659282D01*
X154713720Y-53950433D01*
X155094126Y-54108002D01*
X155505874Y-54108002D01*
X155886280Y-53950433D01*
X156003711Y-53833002D01*
X161073000Y-53833002D01*
X161073000Y-57570000D01*
X158351669Y-57570000D01*
X158306310Y-57460493D01*
X157874507Y-57028690D01*
X157310330Y-56795000D01*
X156699670Y-56795000D01*
X156135493Y-57028690D01*
X155735000Y-57429183D01*
X155334507Y-57028690D01*
X154770330Y-56795000D01*
X154159670Y-56795000D01*
X154135000Y-56805219D01*
X154135000Y-56394126D01*
X153977431Y-56013720D01*
X153686280Y-55722569D01*
X153305874Y-55565000D01*
X152894126Y-55565000D01*
X152513720Y-55722569D01*
X152396289Y-55840000D01*
X151020865Y-55840000D01*
X151035000Y-55805874D01*
X151035000Y-55394126D01*
X150877431Y-55013720D01*
X150835000Y-54971289D01*
X150835000Y-53645867D01*
X151432282Y-53048586D01*
X151502001Y-53002001D01*
X151686552Y-52725801D01*
X151735000Y-52482237D01*
X151735000Y-52482234D01*
X151751357Y-52400001D01*
X151735000Y-52317768D01*
X151735000Y-50828711D01*
X151777431Y-50786280D01*
X151935000Y-50405874D01*
X151935000Y-50198711D01*
X152013720Y-50277431D01*
X152013720Y-50277431D01*
G37*
X152013720Y-50277431D02*
X152394126Y-50435000D01*
X152560199Y-50435000D01*
X153709670Y-51584472D01*
X153752071Y-51647929D01*
X154003463Y-51815904D01*
X154225148Y-51860000D01*
X154225152Y-51860000D01*
X154299999Y-51874888D01*
X154374846Y-51860000D01*
X161073000Y-51860000D01*
X161073000Y-52313002D01*
X156003711Y-52313002D01*
X155886280Y-52195571D01*
X155505874Y-52038002D01*
X155094126Y-52038002D01*
X154713720Y-52195571D01*
X154422569Y-52486722D01*
X154265000Y-52867128D01*
X154265000Y-53278876D01*
X154422569Y-53659282D01*
X154713720Y-53950433D01*
X155094126Y-54108002D01*
X155505874Y-54108002D01*
X155886280Y-53950433D01*
X156003711Y-53833002D01*
X161073000Y-53833002D01*
X161073000Y-57570000D01*
X158351669Y-57570000D01*
X158306310Y-57460493D01*
X157874507Y-57028690D01*
X157310330Y-56795000D01*
X156699670Y-56795000D01*
X156135493Y-57028690D01*
X155735000Y-57429183D01*
X155334507Y-57028690D01*
X154770330Y-56795000D01*
X154159670Y-56795000D01*
X154135000Y-56805219D01*
X154135000Y-56394126D01*
X153977431Y-56013720D01*
X153686280Y-55722569D01*
X153305874Y-55565000D01*
X152894126Y-55565000D01*
X152513720Y-55722569D01*
X152396289Y-55840000D01*
X151020865Y-55840000D01*
X151035000Y-55805874D01*
X151035000Y-55394126D01*
X150877431Y-55013720D01*
X150835000Y-54971289D01*
X150835000Y-53645867D01*
X151432282Y-53048586D01*
X151502001Y-53002001D01*
X151686552Y-52725801D01*
X151735000Y-52482237D01*
X151735000Y-52482234D01*
X151751357Y-52400001D01*
X151735000Y-52317768D01*
X151735000Y-50828711D01*
X151777431Y-50786280D01*
X151935000Y-50405874D01*
X151935000Y-50198711D01*
X152013720Y-50277431D01*
G36*
X181515000Y-51173000D02*
X180257071Y-51173000D01*
X179875504Y-51014950D01*
X179324496Y-51014950D01*
X178942929Y-51173000D01*
X176727000Y-51173000D01*
X176727000Y-46800000D01*
X176717333Y-46751399D01*
X176689803Y-46710197D01*
X176648601Y-46682667D01*
X176600000Y-46673000D01*
X166535115Y-46673000D01*
X166747566Y-46585000D01*
X181515001Y-46585000D01*
X181515000Y-51173000D01*
X181515000Y-51173000D01*
G37*
X181515000Y-51173000D02*
X180257071Y-51173000D01*
X179875504Y-51014950D01*
X179324496Y-51014950D01*
X178942929Y-51173000D01*
X176727000Y-51173000D01*
X176727000Y-46800000D01*
X176717333Y-46751399D01*
X176689803Y-46710197D01*
X176648601Y-46682667D01*
X176600000Y-46673000D01*
X166535115Y-46673000D01*
X166747566Y-46585000D01*
X181515001Y-46585000D01*
X181515000Y-51173000D01*
G36*
X120073000Y-83115000D02*
X119885518Y-83115000D01*
X119845831Y-83131439D01*
X119806143Y-83115000D01*
X119493851Y-83115000D01*
X119252429Y-83215000D01*
X115499030Y-83215000D01*
X115604507Y-83171310D01*
X116036310Y-82739507D01*
X116270000Y-82175330D01*
X116270000Y-81564670D01*
X116036310Y-81000493D01*
X115900817Y-80865000D01*
X116310330Y-80865000D01*
X116874507Y-80631310D01*
X117306310Y-80199507D01*
X117351669Y-80090000D01*
X120073000Y-80090000D01*
X120073000Y-83115000D01*
X120073000Y-83115000D01*
G37*
X120073000Y-83115000D02*
X119885518Y-83115000D01*
X119845831Y-83131439D01*
X119806143Y-83115000D01*
X119493851Y-83115000D01*
X119252429Y-83215000D01*
X115499030Y-83215000D01*
X115604507Y-83171310D01*
X116036310Y-82739507D01*
X116270000Y-82175330D01*
X116270000Y-81564670D01*
X116036310Y-81000493D01*
X115900817Y-80865000D01*
X116310330Y-80865000D01*
X116874507Y-80631310D01*
X117306310Y-80199507D01*
X117351669Y-80090000D01*
X120073000Y-80090000D01*
X120073000Y-83115000D01*
G36*
X119493835Y-67685000D02*
X119806127Y-67685000D01*
X119845815Y-67668561D01*
X119885502Y-67685000D01*
X120147907Y-67685000D01*
X120110197Y-67710197D01*
X120082667Y-67751399D01*
X120073000Y-67800000D01*
X120073000Y-70840000D01*
X119598672Y-70840000D01*
X119577431Y-70788720D01*
X119286280Y-70497569D01*
X118905874Y-70340000D01*
X118494126Y-70340000D01*
X118113720Y-70497569D01*
X117993045Y-70618244D01*
X117835000Y-70460199D01*
X117835000Y-70294126D01*
X117677431Y-69913720D01*
X117386280Y-69622569D01*
X117005874Y-69465000D01*
X116594126Y-69465000D01*
X116213720Y-69622569D01*
X115922569Y-69913720D01*
X115765000Y-70294126D01*
X115765000Y-70705874D01*
X115922569Y-71086280D01*
X116176289Y-71340000D01*
X113614802Y-71340000D01*
X112635000Y-70360199D01*
X112635000Y-70194126D01*
X112477431Y-69813720D01*
X112186280Y-69522569D01*
X111805874Y-69365000D01*
X111394126Y-69365000D01*
X111013720Y-69522569D01*
X110722569Y-69813720D01*
X110565000Y-70194126D01*
X110565000Y-70401289D01*
X110486280Y-70322569D01*
X110105874Y-70165000D01*
X109694126Y-70165000D01*
X109313720Y-70322569D01*
X109022569Y-70613720D01*
X108865000Y-70994126D01*
X108865000Y-71405874D01*
X109022569Y-71786280D01*
X109065000Y-71828711D01*
X109065001Y-73054131D01*
X108467718Y-73651415D01*
X108398000Y-73697999D01*
X108336983Y-73789317D01*
X108213448Y-73974200D01*
X108148643Y-74300000D01*
X108165001Y-74382238D01*
X108165000Y-75801289D01*
X108086280Y-75722569D01*
X107705874Y-75565000D01*
X107294126Y-75565000D01*
X106913720Y-75722569D01*
X106622569Y-76013720D01*
X106465000Y-76394126D01*
X106465000Y-76805874D01*
X106622569Y-77186280D01*
X106913720Y-77477431D01*
X107294126Y-77635000D01*
X107460199Y-77635000D01*
X107909671Y-78084473D01*
X107952071Y-78147929D01*
X108203463Y-78315904D01*
X108425148Y-78360000D01*
X108425152Y-78360000D01*
X108500000Y-78374888D01*
X108574848Y-78360000D01*
X109224817Y-78360000D01*
X108957155Y-78627662D01*
X108805874Y-78565000D01*
X108394126Y-78565000D01*
X108013720Y-78722569D01*
X107722569Y-79013720D01*
X107565000Y-79394126D01*
X107565000Y-79805874D01*
X107722569Y-80186280D01*
X108013720Y-80477431D01*
X108394126Y-80635000D01*
X108805874Y-80635000D01*
X109186280Y-80477431D01*
X109223942Y-80439769D01*
X109247918Y-80435000D01*
X109247922Y-80435000D01*
X109431865Y-80398411D01*
X109620811Y-80854568D01*
X110010432Y-81244189D01*
X110519496Y-81455050D01*
X111070504Y-81455050D01*
X111579568Y-81244189D01*
X111969189Y-80854568D01*
X112180050Y-80345504D01*
X112180050Y-80215867D01*
X112595493Y-80631310D01*
X113159670Y-80865000D01*
X113569183Y-80865000D01*
X113433690Y-81000493D01*
X113200000Y-81564670D01*
X113200000Y-82175330D01*
X113433690Y-82739507D01*
X113865493Y-83171310D01*
X113970970Y-83215000D01*
X104785000Y-83215000D01*
X104785000Y-78747562D01*
X104885000Y-78506140D01*
X104885000Y-78193848D01*
X104868561Y-78154161D01*
X104885000Y-78114474D01*
X104885000Y-77802182D01*
X104868561Y-77762495D01*
X104885000Y-77722808D01*
X104885000Y-77410516D01*
X104868561Y-77370829D01*
X104885000Y-77331142D01*
X104885000Y-77018850D01*
X104868561Y-76979163D01*
X104885000Y-76939476D01*
X104885000Y-76627184D01*
X104868561Y-76587497D01*
X104885000Y-76547810D01*
X104885000Y-76235518D01*
X104868561Y-76195831D01*
X104885000Y-76156144D01*
X104885000Y-75843852D01*
X104868561Y-75804165D01*
X104885000Y-75764478D01*
X104885000Y-75452186D01*
X104868561Y-75412499D01*
X104885000Y-75372812D01*
X104885000Y-75060520D01*
X104868561Y-75020833D01*
X104885000Y-74981146D01*
X104885000Y-74668854D01*
X104868561Y-74629167D01*
X104885000Y-74589480D01*
X104885000Y-74277188D01*
X104868561Y-74237501D01*
X104885000Y-74197814D01*
X104885000Y-73885522D01*
X104868561Y-73845835D01*
X104885000Y-73806148D01*
X104885000Y-73493856D01*
X104785000Y-73252434D01*
X104785000Y-67585000D01*
X119252413Y-67585000D01*
X119493835Y-67685000D01*
X119493835Y-67685000D01*
G37*
X119493835Y-67685000D02*
X119806127Y-67685000D01*
X119845815Y-67668561D01*
X119885502Y-67685000D01*
X120147907Y-67685000D01*
X120110197Y-67710197D01*
X120082667Y-67751399D01*
X120073000Y-67800000D01*
X120073000Y-70840000D01*
X119598672Y-70840000D01*
X119577431Y-70788720D01*
X119286280Y-70497569D01*
X118905874Y-70340000D01*
X118494126Y-70340000D01*
X118113720Y-70497569D01*
X117993045Y-70618244D01*
X117835000Y-70460199D01*
X117835000Y-70294126D01*
X117677431Y-69913720D01*
X117386280Y-69622569D01*
X117005874Y-69465000D01*
X116594126Y-69465000D01*
X116213720Y-69622569D01*
X115922569Y-69913720D01*
X115765000Y-70294126D01*
X115765000Y-70705874D01*
X115922569Y-71086280D01*
X116176289Y-71340000D01*
X113614802Y-71340000D01*
X112635000Y-70360199D01*
X112635000Y-70194126D01*
X112477431Y-69813720D01*
X112186280Y-69522569D01*
X111805874Y-69365000D01*
X111394126Y-69365000D01*
X111013720Y-69522569D01*
X110722569Y-69813720D01*
X110565000Y-70194126D01*
X110565000Y-70401289D01*
X110486280Y-70322569D01*
X110105874Y-70165000D01*
X109694126Y-70165000D01*
X109313720Y-70322569D01*
X109022569Y-70613720D01*
X108865000Y-70994126D01*
X108865000Y-71405874D01*
X109022569Y-71786280D01*
X109065000Y-71828711D01*
X109065001Y-73054131D01*
X108467718Y-73651415D01*
X108398000Y-73697999D01*
X108336983Y-73789317D01*
X108213448Y-73974200D01*
X108148643Y-74300000D01*
X108165001Y-74382238D01*
X108165000Y-75801289D01*
X108086280Y-75722569D01*
X107705874Y-75565000D01*
X107294126Y-75565000D01*
X106913720Y-75722569D01*
X106622569Y-76013720D01*
X106465000Y-76394126D01*
X106465000Y-76805874D01*
X106622569Y-77186280D01*
X106913720Y-77477431D01*
X107294126Y-77635000D01*
X107460199Y-77635000D01*
X107909671Y-78084473D01*
X107952071Y-78147929D01*
X108203463Y-78315904D01*
X108425148Y-78360000D01*
X108425152Y-78360000D01*
X108500000Y-78374888D01*
X108574848Y-78360000D01*
X109224817Y-78360000D01*
X108957155Y-78627662D01*
X108805874Y-78565000D01*
X108394126Y-78565000D01*
X108013720Y-78722569D01*
X107722569Y-79013720D01*
X107565000Y-79394126D01*
X107565000Y-79805874D01*
X107722569Y-80186280D01*
X108013720Y-80477431D01*
X108394126Y-80635000D01*
X108805874Y-80635000D01*
X109186280Y-80477431D01*
X109223942Y-80439769D01*
X109247918Y-80435000D01*
X109247922Y-80435000D01*
X109431865Y-80398411D01*
X109620811Y-80854568D01*
X110010432Y-81244189D01*
X110519496Y-81455050D01*
X111070504Y-81455050D01*
X111579568Y-81244189D01*
X111969189Y-80854568D01*
X112180050Y-80345504D01*
X112180050Y-80215867D01*
X112595493Y-80631310D01*
X113159670Y-80865000D01*
X113569183Y-80865000D01*
X113433690Y-81000493D01*
X113200000Y-81564670D01*
X113200000Y-82175330D01*
X113433690Y-82739507D01*
X113865493Y-83171310D01*
X113970970Y-83215000D01*
X104785000Y-83215000D01*
X104785000Y-78747562D01*
X104885000Y-78506140D01*
X104885000Y-78193848D01*
X104868561Y-78154161D01*
X104885000Y-78114474D01*
X104885000Y-77802182D01*
X104868561Y-77762495D01*
X104885000Y-77722808D01*
X104885000Y-77410516D01*
X104868561Y-77370829D01*
X104885000Y-77331142D01*
X104885000Y-77018850D01*
X104868561Y-76979163D01*
X104885000Y-76939476D01*
X104885000Y-76627184D01*
X104868561Y-76587497D01*
X104885000Y-76547810D01*
X104885000Y-76235518D01*
X104868561Y-76195831D01*
X104885000Y-76156144D01*
X104885000Y-75843852D01*
X104868561Y-75804165D01*
X104885000Y-75764478D01*
X104885000Y-75452186D01*
X104868561Y-75412499D01*
X104885000Y-75372812D01*
X104885000Y-75060520D01*
X104868561Y-75020833D01*
X104885000Y-74981146D01*
X104885000Y-74668854D01*
X104868561Y-74629167D01*
X104885000Y-74589480D01*
X104885000Y-74277188D01*
X104868561Y-74237501D01*
X104885000Y-74197814D01*
X104885000Y-73885522D01*
X104868561Y-73845835D01*
X104885000Y-73806148D01*
X104885000Y-73493856D01*
X104785000Y-73252434D01*
X104785000Y-67585000D01*
X119252413Y-67585000D01*
X119493835Y-67685000D01*
G36*
X111013720Y-71277431D02*
X111394126Y-71435000D01*
X111560199Y-71435000D01*
X112709670Y-72584472D01*
X112752071Y-72647929D01*
X113003463Y-72815904D01*
X113225148Y-72860000D01*
X113225152Y-72860000D01*
X113299999Y-72874888D01*
X113374846Y-72860000D01*
X120073000Y-72860000D01*
X120073000Y-73313002D01*
X115003711Y-73313002D01*
X114886280Y-73195571D01*
X114505874Y-73038002D01*
X114094126Y-73038002D01*
X113713720Y-73195571D01*
X113422569Y-73486722D01*
X113265000Y-73867128D01*
X113265000Y-74278876D01*
X113422569Y-74659282D01*
X113713720Y-74950433D01*
X114094126Y-75108002D01*
X114505874Y-75108002D01*
X114886280Y-74950433D01*
X115003711Y-74833002D01*
X120073000Y-74833002D01*
X120073000Y-78570000D01*
X117351669Y-78570000D01*
X117306310Y-78460493D01*
X116874507Y-78028690D01*
X116310330Y-77795000D01*
X115699670Y-77795000D01*
X115135493Y-78028690D01*
X114735000Y-78429183D01*
X114334507Y-78028690D01*
X113770330Y-77795000D01*
X113159670Y-77795000D01*
X113135000Y-77805219D01*
X113135000Y-77394126D01*
X112977431Y-77013720D01*
X112686280Y-76722569D01*
X112305874Y-76565000D01*
X111894126Y-76565000D01*
X111513720Y-76722569D01*
X111396289Y-76840000D01*
X110020865Y-76840000D01*
X110035000Y-76805874D01*
X110035000Y-76394126D01*
X109877431Y-76013720D01*
X109835000Y-75971289D01*
X109835000Y-74645867D01*
X110432282Y-74048586D01*
X110502001Y-74002001D01*
X110686552Y-73725801D01*
X110735000Y-73482237D01*
X110735000Y-73482234D01*
X110751357Y-73400001D01*
X110735000Y-73317768D01*
X110735000Y-71828711D01*
X110777431Y-71786280D01*
X110935000Y-71405874D01*
X110935000Y-71198711D01*
X111013720Y-71277431D01*
X111013720Y-71277431D01*
G37*
X111013720Y-71277431D02*
X111394126Y-71435000D01*
X111560199Y-71435000D01*
X112709670Y-72584472D01*
X112752071Y-72647929D01*
X113003463Y-72815904D01*
X113225148Y-72860000D01*
X113225152Y-72860000D01*
X113299999Y-72874888D01*
X113374846Y-72860000D01*
X120073000Y-72860000D01*
X120073000Y-73313002D01*
X115003711Y-73313002D01*
X114886280Y-73195571D01*
X114505874Y-73038002D01*
X114094126Y-73038002D01*
X113713720Y-73195571D01*
X113422569Y-73486722D01*
X113265000Y-73867128D01*
X113265000Y-74278876D01*
X113422569Y-74659282D01*
X113713720Y-74950433D01*
X114094126Y-75108002D01*
X114505874Y-75108002D01*
X114886280Y-74950433D01*
X115003711Y-74833002D01*
X120073000Y-74833002D01*
X120073000Y-78570000D01*
X117351669Y-78570000D01*
X117306310Y-78460493D01*
X116874507Y-78028690D01*
X116310330Y-77795000D01*
X115699670Y-77795000D01*
X115135493Y-78028690D01*
X114735000Y-78429183D01*
X114334507Y-78028690D01*
X113770330Y-77795000D01*
X113159670Y-77795000D01*
X113135000Y-77805219D01*
X113135000Y-77394126D01*
X112977431Y-77013720D01*
X112686280Y-76722569D01*
X112305874Y-76565000D01*
X111894126Y-76565000D01*
X111513720Y-76722569D01*
X111396289Y-76840000D01*
X110020865Y-76840000D01*
X110035000Y-76805874D01*
X110035000Y-76394126D01*
X109877431Y-76013720D01*
X109835000Y-75971289D01*
X109835000Y-74645867D01*
X110432282Y-74048586D01*
X110502001Y-74002001D01*
X110686552Y-73725801D01*
X110735000Y-73482237D01*
X110735000Y-73482234D01*
X110751357Y-73400001D01*
X110735000Y-73317768D01*
X110735000Y-71828711D01*
X110777431Y-71786280D01*
X110935000Y-71405874D01*
X110935000Y-71198711D01*
X111013720Y-71277431D01*
G36*
X140490000Y-72173000D02*
X139257071Y-72173000D01*
X138875504Y-72014950D01*
X138324496Y-72014950D01*
X137942929Y-72173000D01*
X135727000Y-72173000D01*
X135727000Y-67800000D01*
X135717333Y-67751399D01*
X135689803Y-67710197D01*
X135648601Y-67682667D01*
X135600000Y-67673000D01*
X124535102Y-67673000D01*
X124747553Y-67585000D01*
X140490000Y-67585000D01*
X140490000Y-72173000D01*
X140490000Y-72173000D01*
G37*
X140490000Y-72173000D02*
X139257071Y-72173000D01*
X138875504Y-72014950D01*
X138324496Y-72014950D01*
X137942929Y-72173000D01*
X135727000Y-72173000D01*
X135727000Y-67800000D01*
X135717333Y-67751399D01*
X135689803Y-67710197D01*
X135648601Y-67682667D01*
X135600000Y-67673000D01*
X124535102Y-67673000D01*
X124747553Y-67585000D01*
X140490000Y-67585000D01*
X140490000Y-72173000D01*
G36*
X161464889Y-67673000D02*
X161200000Y-67673000D01*
X161151399Y-67682667D01*
X161110197Y-67710197D01*
X161082667Y-67751399D01*
X161073000Y-67800000D01*
X161073000Y-70840000D01*
X160598672Y-70840000D01*
X160577431Y-70788720D01*
X160286280Y-70497569D01*
X159905874Y-70340000D01*
X159494126Y-70340000D01*
X159113720Y-70497569D01*
X158993045Y-70618244D01*
X158835000Y-70460199D01*
X158835000Y-70294126D01*
X158677431Y-69913720D01*
X158386280Y-69622569D01*
X158005874Y-69465000D01*
X157594126Y-69465000D01*
X157213720Y-69622569D01*
X156922569Y-69913720D01*
X156765000Y-70294126D01*
X156765000Y-70705874D01*
X156922569Y-71086280D01*
X157176289Y-71340000D01*
X154614802Y-71340000D01*
X153635000Y-70360199D01*
X153635000Y-70194126D01*
X153477431Y-69813720D01*
X153186280Y-69522569D01*
X152805874Y-69365000D01*
X152394126Y-69365000D01*
X152013720Y-69522569D01*
X151722569Y-69813720D01*
X151565000Y-70194126D01*
X151565000Y-70401289D01*
X151486280Y-70322569D01*
X151105874Y-70165000D01*
X150694126Y-70165000D01*
X150313720Y-70322569D01*
X150022569Y-70613720D01*
X149865000Y-70994126D01*
X149865000Y-71405874D01*
X150022569Y-71786280D01*
X150065000Y-71828711D01*
X150065001Y-73054131D01*
X149467718Y-73651415D01*
X149398000Y-73697999D01*
X149336983Y-73789317D01*
X149213448Y-73974200D01*
X149148643Y-74300000D01*
X149165001Y-74382238D01*
X149165000Y-75801289D01*
X149086280Y-75722569D01*
X148705874Y-75565000D01*
X148294126Y-75565000D01*
X147913720Y-75722569D01*
X147622569Y-76013720D01*
X147465000Y-76394126D01*
X147465000Y-76805874D01*
X147622569Y-77186280D01*
X147913720Y-77477431D01*
X148294126Y-77635000D01*
X148460199Y-77635000D01*
X148909671Y-78084473D01*
X148952071Y-78147929D01*
X149203463Y-78315904D01*
X149425148Y-78360000D01*
X149425152Y-78360000D01*
X149500000Y-78374888D01*
X149574848Y-78360000D01*
X150224817Y-78360000D01*
X149957155Y-78627662D01*
X149805874Y-78565000D01*
X149394126Y-78565000D01*
X149013720Y-78722569D01*
X148722569Y-79013720D01*
X148565000Y-79394126D01*
X148565000Y-79805874D01*
X148722569Y-80186280D01*
X149013720Y-80477431D01*
X149394126Y-80635000D01*
X149805874Y-80635000D01*
X150186280Y-80477431D01*
X150223942Y-80439769D01*
X150247918Y-80435000D01*
X150247922Y-80435000D01*
X150431865Y-80398411D01*
X150620811Y-80854568D01*
X151010432Y-81244189D01*
X151519496Y-81455050D01*
X152070504Y-81455050D01*
X152579568Y-81244189D01*
X152969189Y-80854568D01*
X153180050Y-80345504D01*
X153180050Y-80215867D01*
X153595493Y-80631310D01*
X154159670Y-80865000D01*
X154569183Y-80865000D01*
X154433690Y-81000493D01*
X154200000Y-81564670D01*
X154200000Y-82175330D01*
X154433690Y-82739507D01*
X154865493Y-83171310D01*
X154970970Y-83215000D01*
X145810000Y-83215000D01*
X145810000Y-67585000D01*
X161252438Y-67585000D01*
X161464889Y-67673000D01*
X161464889Y-67673000D01*
G37*
X161464889Y-67673000D02*
X161200000Y-67673000D01*
X161151399Y-67682667D01*
X161110197Y-67710197D01*
X161082667Y-67751399D01*
X161073000Y-67800000D01*
X161073000Y-70840000D01*
X160598672Y-70840000D01*
X160577431Y-70788720D01*
X160286280Y-70497569D01*
X159905874Y-70340000D01*
X159494126Y-70340000D01*
X159113720Y-70497569D01*
X158993045Y-70618244D01*
X158835000Y-70460199D01*
X158835000Y-70294126D01*
X158677431Y-69913720D01*
X158386280Y-69622569D01*
X158005874Y-69465000D01*
X157594126Y-69465000D01*
X157213720Y-69622569D01*
X156922569Y-69913720D01*
X156765000Y-70294126D01*
X156765000Y-70705874D01*
X156922569Y-71086280D01*
X157176289Y-71340000D01*
X154614802Y-71340000D01*
X153635000Y-70360199D01*
X153635000Y-70194126D01*
X153477431Y-69813720D01*
X153186280Y-69522569D01*
X152805874Y-69365000D01*
X152394126Y-69365000D01*
X152013720Y-69522569D01*
X151722569Y-69813720D01*
X151565000Y-70194126D01*
X151565000Y-70401289D01*
X151486280Y-70322569D01*
X151105874Y-70165000D01*
X150694126Y-70165000D01*
X150313720Y-70322569D01*
X150022569Y-70613720D01*
X149865000Y-70994126D01*
X149865000Y-71405874D01*
X150022569Y-71786280D01*
X150065000Y-71828711D01*
X150065001Y-73054131D01*
X149467718Y-73651415D01*
X149398000Y-73697999D01*
X149336983Y-73789317D01*
X149213448Y-73974200D01*
X149148643Y-74300000D01*
X149165001Y-74382238D01*
X149165000Y-75801289D01*
X149086280Y-75722569D01*
X148705874Y-75565000D01*
X148294126Y-75565000D01*
X147913720Y-75722569D01*
X147622569Y-76013720D01*
X147465000Y-76394126D01*
X147465000Y-76805874D01*
X147622569Y-77186280D01*
X147913720Y-77477431D01*
X148294126Y-77635000D01*
X148460199Y-77635000D01*
X148909671Y-78084473D01*
X148952071Y-78147929D01*
X149203463Y-78315904D01*
X149425148Y-78360000D01*
X149425152Y-78360000D01*
X149500000Y-78374888D01*
X149574848Y-78360000D01*
X150224817Y-78360000D01*
X149957155Y-78627662D01*
X149805874Y-78565000D01*
X149394126Y-78565000D01*
X149013720Y-78722569D01*
X148722569Y-79013720D01*
X148565000Y-79394126D01*
X148565000Y-79805874D01*
X148722569Y-80186280D01*
X149013720Y-80477431D01*
X149394126Y-80635000D01*
X149805874Y-80635000D01*
X150186280Y-80477431D01*
X150223942Y-80439769D01*
X150247918Y-80435000D01*
X150247922Y-80435000D01*
X150431865Y-80398411D01*
X150620811Y-80854568D01*
X151010432Y-81244189D01*
X151519496Y-81455050D01*
X152070504Y-81455050D01*
X152579568Y-81244189D01*
X152969189Y-80854568D01*
X153180050Y-80345504D01*
X153180050Y-80215867D01*
X153595493Y-80631310D01*
X154159670Y-80865000D01*
X154569183Y-80865000D01*
X154433690Y-81000493D01*
X154200000Y-81564670D01*
X154200000Y-82175330D01*
X154433690Y-82739507D01*
X154865493Y-83171310D01*
X154970970Y-83215000D01*
X145810000Y-83215000D01*
X145810000Y-67585000D01*
X161252438Y-67585000D01*
X161464889Y-67673000D01*
G36*
X161073000Y-83215000D02*
X156499030Y-83215000D01*
X156604507Y-83171310D01*
X157036310Y-82739507D01*
X157270000Y-82175330D01*
X157270000Y-81564670D01*
X157036310Y-81000493D01*
X156900817Y-80865000D01*
X157310330Y-80865000D01*
X157874507Y-80631310D01*
X158306310Y-80199507D01*
X158351669Y-80090000D01*
X161073000Y-80090000D01*
X161073000Y-83215000D01*
X161073000Y-83215000D01*
G37*
X161073000Y-83215000D02*
X156499030Y-83215000D01*
X156604507Y-83171310D01*
X157036310Y-82739507D01*
X157270000Y-82175330D01*
X157270000Y-81564670D01*
X157036310Y-81000493D01*
X156900817Y-80865000D01*
X157310330Y-80865000D01*
X157874507Y-80631310D01*
X158306310Y-80199507D01*
X158351669Y-80090000D01*
X161073000Y-80090000D01*
X161073000Y-83215000D01*
G36*
X152013720Y-71277431D02*
X152394126Y-71435000D01*
X152560199Y-71435000D01*
X153709670Y-72584472D01*
X153752071Y-72647929D01*
X154003463Y-72815904D01*
X154225148Y-72860000D01*
X154225152Y-72860000D01*
X154299999Y-72874888D01*
X154374846Y-72860000D01*
X161073000Y-72860000D01*
X161073000Y-73313002D01*
X156003711Y-73313002D01*
X155886280Y-73195571D01*
X155505874Y-73038002D01*
X155094126Y-73038002D01*
X154713720Y-73195571D01*
X154422569Y-73486722D01*
X154265000Y-73867128D01*
X154265000Y-74278876D01*
X154422569Y-74659282D01*
X154713720Y-74950433D01*
X155094126Y-75108002D01*
X155505874Y-75108002D01*
X155886280Y-74950433D01*
X156003711Y-74833002D01*
X161073000Y-74833002D01*
X161073000Y-78570000D01*
X158351669Y-78570000D01*
X158306310Y-78460493D01*
X157874507Y-78028690D01*
X157310330Y-77795000D01*
X156699670Y-77795000D01*
X156135493Y-78028690D01*
X155735000Y-78429183D01*
X155334507Y-78028690D01*
X154770330Y-77795000D01*
X154159670Y-77795000D01*
X154135000Y-77805219D01*
X154135000Y-77394126D01*
X153977431Y-77013720D01*
X153686280Y-76722569D01*
X153305874Y-76565000D01*
X152894126Y-76565000D01*
X152513720Y-76722569D01*
X152396289Y-76840000D01*
X151020865Y-76840000D01*
X151035000Y-76805874D01*
X151035000Y-76394126D01*
X150877431Y-76013720D01*
X150835000Y-75971289D01*
X150835000Y-74645867D01*
X151432282Y-74048586D01*
X151502001Y-74002001D01*
X151686552Y-73725801D01*
X151735000Y-73482237D01*
X151735000Y-73482234D01*
X151751357Y-73400001D01*
X151735000Y-73317768D01*
X151735000Y-71828711D01*
X151777431Y-71786280D01*
X151935000Y-71405874D01*
X151935000Y-71198711D01*
X152013720Y-71277431D01*
X152013720Y-71277431D01*
G37*
X152013720Y-71277431D02*
X152394126Y-71435000D01*
X152560199Y-71435000D01*
X153709670Y-72584472D01*
X153752071Y-72647929D01*
X154003463Y-72815904D01*
X154225148Y-72860000D01*
X154225152Y-72860000D01*
X154299999Y-72874888D01*
X154374846Y-72860000D01*
X161073000Y-72860000D01*
X161073000Y-73313002D01*
X156003711Y-73313002D01*
X155886280Y-73195571D01*
X155505874Y-73038002D01*
X155094126Y-73038002D01*
X154713720Y-73195571D01*
X154422569Y-73486722D01*
X154265000Y-73867128D01*
X154265000Y-74278876D01*
X154422569Y-74659282D01*
X154713720Y-74950433D01*
X155094126Y-75108002D01*
X155505874Y-75108002D01*
X155886280Y-74950433D01*
X156003711Y-74833002D01*
X161073000Y-74833002D01*
X161073000Y-78570000D01*
X158351669Y-78570000D01*
X158306310Y-78460493D01*
X157874507Y-78028690D01*
X157310330Y-77795000D01*
X156699670Y-77795000D01*
X156135493Y-78028690D01*
X155735000Y-78429183D01*
X155334507Y-78028690D01*
X154770330Y-77795000D01*
X154159670Y-77795000D01*
X154135000Y-77805219D01*
X154135000Y-77394126D01*
X153977431Y-77013720D01*
X153686280Y-76722569D01*
X153305874Y-76565000D01*
X152894126Y-76565000D01*
X152513720Y-76722569D01*
X152396289Y-76840000D01*
X151020865Y-76840000D01*
X151035000Y-76805874D01*
X151035000Y-76394126D01*
X150877431Y-76013720D01*
X150835000Y-75971289D01*
X150835000Y-74645867D01*
X151432282Y-74048586D01*
X151502001Y-74002001D01*
X151686552Y-73725801D01*
X151735000Y-73482237D01*
X151735000Y-73482234D01*
X151751357Y-73400001D01*
X151735000Y-73317768D01*
X151735000Y-71828711D01*
X151777431Y-71786280D01*
X151935000Y-71405874D01*
X151935000Y-71198711D01*
X152013720Y-71277431D01*
G36*
X181515000Y-72173000D02*
X180257071Y-72173000D01*
X179875504Y-72014950D01*
X179324496Y-72014950D01*
X178942929Y-72173000D01*
X176727000Y-72173000D01*
X176727000Y-67800000D01*
X176717333Y-67751399D01*
X176689803Y-67710197D01*
X176648601Y-67682667D01*
X176600000Y-67673000D01*
X166535115Y-67673000D01*
X166747566Y-67585000D01*
X181515001Y-67585000D01*
X181515000Y-72173000D01*
X181515000Y-72173000D01*
G37*
X181515000Y-72173000D02*
X180257071Y-72173000D01*
X179875504Y-72014950D01*
X179324496Y-72014950D01*
X178942929Y-72173000D01*
X176727000Y-72173000D01*
X176727000Y-67800000D01*
X176717333Y-67751399D01*
X176689803Y-67710197D01*
X176648601Y-67682667D01*
X176600000Y-67673000D01*
X166535115Y-67673000D01*
X166747566Y-67585000D01*
X181515001Y-67585000D01*
X181515000Y-72173000D01*
G36*
X120073000Y-104115000D02*
X119885518Y-104115000D01*
X119845830Y-104131439D01*
X119806143Y-104115000D01*
X119493851Y-104115000D01*
X119252429Y-104215000D01*
X115499030Y-104215000D01*
X115604507Y-104171310D01*
X116036310Y-103739507D01*
X116270000Y-103175330D01*
X116270000Y-102564670D01*
X116036310Y-102000493D01*
X115900817Y-101865000D01*
X116310330Y-101865000D01*
X116874507Y-101631310D01*
X117306310Y-101199507D01*
X117351669Y-101090000D01*
X120073000Y-101090000D01*
X120073000Y-104115000D01*
X120073000Y-104115000D01*
G37*
X120073000Y-104115000D02*
X119885518Y-104115000D01*
X119845830Y-104131439D01*
X119806143Y-104115000D01*
X119493851Y-104115000D01*
X119252429Y-104215000D01*
X115499030Y-104215000D01*
X115604507Y-104171310D01*
X116036310Y-103739507D01*
X116270000Y-103175330D01*
X116270000Y-102564670D01*
X116036310Y-102000493D01*
X115900817Y-101865000D01*
X116310330Y-101865000D01*
X116874507Y-101631310D01*
X117306310Y-101199507D01*
X117351669Y-101090000D01*
X120073000Y-101090000D01*
X120073000Y-104115000D01*
G36*
X119493835Y-88685000D02*
X119806127Y-88685000D01*
X119845814Y-88668561D01*
X119885502Y-88685000D01*
X120147907Y-88685000D01*
X120110197Y-88710197D01*
X120082667Y-88751399D01*
X120073000Y-88800000D01*
X120073000Y-91840000D01*
X119598672Y-91840000D01*
X119577431Y-91788720D01*
X119286280Y-91497569D01*
X118905874Y-91340000D01*
X118494126Y-91340000D01*
X118113720Y-91497569D01*
X117993045Y-91618244D01*
X117835000Y-91460199D01*
X117835000Y-91294126D01*
X117677431Y-90913720D01*
X117386280Y-90622569D01*
X117005874Y-90465000D01*
X116594126Y-90465000D01*
X116213720Y-90622569D01*
X115922569Y-90913720D01*
X115765000Y-91294126D01*
X115765000Y-91705874D01*
X115922569Y-92086280D01*
X116176289Y-92340000D01*
X113614802Y-92340000D01*
X112635000Y-91360199D01*
X112635000Y-91194126D01*
X112477431Y-90813720D01*
X112186280Y-90522569D01*
X111805874Y-90365000D01*
X111394126Y-90365000D01*
X111013720Y-90522569D01*
X110722569Y-90813720D01*
X110565000Y-91194126D01*
X110565000Y-91401289D01*
X110486280Y-91322569D01*
X110105874Y-91165000D01*
X109694126Y-91165000D01*
X109313720Y-91322569D01*
X109022569Y-91613720D01*
X108865000Y-91994126D01*
X108865000Y-92405874D01*
X109022569Y-92786280D01*
X109065000Y-92828711D01*
X109065001Y-94054131D01*
X108467718Y-94651415D01*
X108398000Y-94697999D01*
X108351416Y-94767717D01*
X108213448Y-94974200D01*
X108148643Y-95300000D01*
X108165001Y-95382238D01*
X108165000Y-96801289D01*
X108086280Y-96722569D01*
X107705874Y-96565000D01*
X107294126Y-96565000D01*
X106913720Y-96722569D01*
X106622569Y-97013720D01*
X106465000Y-97394126D01*
X106465000Y-97805874D01*
X106622569Y-98186280D01*
X106913720Y-98477431D01*
X107294126Y-98635000D01*
X107460199Y-98635000D01*
X107909671Y-99084473D01*
X107952071Y-99147929D01*
X108203463Y-99315904D01*
X108425148Y-99360000D01*
X108425152Y-99360000D01*
X108500000Y-99374888D01*
X108574848Y-99360000D01*
X109224817Y-99360000D01*
X108957155Y-99627662D01*
X108805874Y-99565000D01*
X108394126Y-99565000D01*
X108013720Y-99722569D01*
X107722569Y-100013720D01*
X107565000Y-100394126D01*
X107565000Y-100805874D01*
X107722569Y-101186280D01*
X108013720Y-101477431D01*
X108394126Y-101635000D01*
X108805874Y-101635000D01*
X109186280Y-101477431D01*
X109223942Y-101439769D01*
X109247918Y-101435000D01*
X109247922Y-101435000D01*
X109431865Y-101398411D01*
X109620811Y-101854568D01*
X110010432Y-102244189D01*
X110519496Y-102455050D01*
X111070504Y-102455050D01*
X111579568Y-102244189D01*
X111969189Y-101854568D01*
X112180050Y-101345504D01*
X112180050Y-101215867D01*
X112595493Y-101631310D01*
X113159670Y-101865000D01*
X113569183Y-101865000D01*
X113433690Y-102000493D01*
X113200000Y-102564670D01*
X113200000Y-103175330D01*
X113433690Y-103739507D01*
X113865493Y-104171310D01*
X113970970Y-104215000D01*
X104785000Y-104215000D01*
X104785000Y-99747562D01*
X104885000Y-99506140D01*
X104885000Y-99193848D01*
X104868561Y-99154161D01*
X104885000Y-99114474D01*
X104885000Y-98802182D01*
X104868561Y-98762495D01*
X104885000Y-98722808D01*
X104885000Y-98410516D01*
X104868561Y-98370829D01*
X104885000Y-98331142D01*
X104885000Y-98018850D01*
X104868561Y-97979163D01*
X104885000Y-97939476D01*
X104885000Y-97627184D01*
X104868561Y-97587497D01*
X104885000Y-97547810D01*
X104885000Y-97235518D01*
X104868561Y-97195831D01*
X104885000Y-97156144D01*
X104885000Y-96843852D01*
X104868561Y-96804165D01*
X104885000Y-96764478D01*
X104885000Y-96452186D01*
X104868561Y-96412499D01*
X104885000Y-96372812D01*
X104885000Y-96060520D01*
X104868561Y-96020833D01*
X104885000Y-95981146D01*
X104885000Y-95668854D01*
X104868561Y-95629167D01*
X104885000Y-95589480D01*
X104885000Y-95277188D01*
X104868561Y-95237501D01*
X104885000Y-95197814D01*
X104885000Y-94885522D01*
X104868561Y-94845835D01*
X104885000Y-94806148D01*
X104885000Y-94493856D01*
X104785000Y-94252434D01*
X104785000Y-88585000D01*
X119252413Y-88585000D01*
X119493835Y-88685000D01*
X119493835Y-88685000D01*
G37*
X119493835Y-88685000D02*
X119806127Y-88685000D01*
X119845814Y-88668561D01*
X119885502Y-88685000D01*
X120147907Y-88685000D01*
X120110197Y-88710197D01*
X120082667Y-88751399D01*
X120073000Y-88800000D01*
X120073000Y-91840000D01*
X119598672Y-91840000D01*
X119577431Y-91788720D01*
X119286280Y-91497569D01*
X118905874Y-91340000D01*
X118494126Y-91340000D01*
X118113720Y-91497569D01*
X117993045Y-91618244D01*
X117835000Y-91460199D01*
X117835000Y-91294126D01*
X117677431Y-90913720D01*
X117386280Y-90622569D01*
X117005874Y-90465000D01*
X116594126Y-90465000D01*
X116213720Y-90622569D01*
X115922569Y-90913720D01*
X115765000Y-91294126D01*
X115765000Y-91705874D01*
X115922569Y-92086280D01*
X116176289Y-92340000D01*
X113614802Y-92340000D01*
X112635000Y-91360199D01*
X112635000Y-91194126D01*
X112477431Y-90813720D01*
X112186280Y-90522569D01*
X111805874Y-90365000D01*
X111394126Y-90365000D01*
X111013720Y-90522569D01*
X110722569Y-90813720D01*
X110565000Y-91194126D01*
X110565000Y-91401289D01*
X110486280Y-91322569D01*
X110105874Y-91165000D01*
X109694126Y-91165000D01*
X109313720Y-91322569D01*
X109022569Y-91613720D01*
X108865000Y-91994126D01*
X108865000Y-92405874D01*
X109022569Y-92786280D01*
X109065000Y-92828711D01*
X109065001Y-94054131D01*
X108467718Y-94651415D01*
X108398000Y-94697999D01*
X108351416Y-94767717D01*
X108213448Y-94974200D01*
X108148643Y-95300000D01*
X108165001Y-95382238D01*
X108165000Y-96801289D01*
X108086280Y-96722569D01*
X107705874Y-96565000D01*
X107294126Y-96565000D01*
X106913720Y-96722569D01*
X106622569Y-97013720D01*
X106465000Y-97394126D01*
X106465000Y-97805874D01*
X106622569Y-98186280D01*
X106913720Y-98477431D01*
X107294126Y-98635000D01*
X107460199Y-98635000D01*
X107909671Y-99084473D01*
X107952071Y-99147929D01*
X108203463Y-99315904D01*
X108425148Y-99360000D01*
X108425152Y-99360000D01*
X108500000Y-99374888D01*
X108574848Y-99360000D01*
X109224817Y-99360000D01*
X108957155Y-99627662D01*
X108805874Y-99565000D01*
X108394126Y-99565000D01*
X108013720Y-99722569D01*
X107722569Y-100013720D01*
X107565000Y-100394126D01*
X107565000Y-100805874D01*
X107722569Y-101186280D01*
X108013720Y-101477431D01*
X108394126Y-101635000D01*
X108805874Y-101635000D01*
X109186280Y-101477431D01*
X109223942Y-101439769D01*
X109247918Y-101435000D01*
X109247922Y-101435000D01*
X109431865Y-101398411D01*
X109620811Y-101854568D01*
X110010432Y-102244189D01*
X110519496Y-102455050D01*
X111070504Y-102455050D01*
X111579568Y-102244189D01*
X111969189Y-101854568D01*
X112180050Y-101345504D01*
X112180050Y-101215867D01*
X112595493Y-101631310D01*
X113159670Y-101865000D01*
X113569183Y-101865000D01*
X113433690Y-102000493D01*
X113200000Y-102564670D01*
X113200000Y-103175330D01*
X113433690Y-103739507D01*
X113865493Y-104171310D01*
X113970970Y-104215000D01*
X104785000Y-104215000D01*
X104785000Y-99747562D01*
X104885000Y-99506140D01*
X104885000Y-99193848D01*
X104868561Y-99154161D01*
X104885000Y-99114474D01*
X104885000Y-98802182D01*
X104868561Y-98762495D01*
X104885000Y-98722808D01*
X104885000Y-98410516D01*
X104868561Y-98370829D01*
X104885000Y-98331142D01*
X104885000Y-98018850D01*
X104868561Y-97979163D01*
X104885000Y-97939476D01*
X104885000Y-97627184D01*
X104868561Y-97587497D01*
X104885000Y-97547810D01*
X104885000Y-97235518D01*
X104868561Y-97195831D01*
X104885000Y-97156144D01*
X104885000Y-96843852D01*
X104868561Y-96804165D01*
X104885000Y-96764478D01*
X104885000Y-96452186D01*
X104868561Y-96412499D01*
X104885000Y-96372812D01*
X104885000Y-96060520D01*
X104868561Y-96020833D01*
X104885000Y-95981146D01*
X104885000Y-95668854D01*
X104868561Y-95629167D01*
X104885000Y-95589480D01*
X104885000Y-95277188D01*
X104868561Y-95237501D01*
X104885000Y-95197814D01*
X104885000Y-94885522D01*
X104868561Y-94845835D01*
X104885000Y-94806148D01*
X104885000Y-94493856D01*
X104785000Y-94252434D01*
X104785000Y-88585000D01*
X119252413Y-88585000D01*
X119493835Y-88685000D01*
G36*
X111013720Y-92277431D02*
X111394126Y-92435000D01*
X111560199Y-92435000D01*
X112709670Y-93584472D01*
X112752071Y-93647929D01*
X113003463Y-93815904D01*
X113225148Y-93860000D01*
X113225152Y-93860000D01*
X113299999Y-93874888D01*
X113374846Y-93860000D01*
X120073000Y-93860000D01*
X120073000Y-94313002D01*
X115003711Y-94313002D01*
X114886280Y-94195571D01*
X114505874Y-94038002D01*
X114094126Y-94038002D01*
X113713720Y-94195571D01*
X113422569Y-94486722D01*
X113265000Y-94867128D01*
X113265000Y-95278876D01*
X113422569Y-95659282D01*
X113713720Y-95950433D01*
X114094126Y-96108002D01*
X114505874Y-96108002D01*
X114886280Y-95950433D01*
X115003711Y-95833002D01*
X120073000Y-95833002D01*
X120073000Y-99570000D01*
X117351669Y-99570000D01*
X117306310Y-99460493D01*
X116874507Y-99028690D01*
X116310330Y-98795000D01*
X115699670Y-98795000D01*
X115135493Y-99028690D01*
X114735000Y-99429183D01*
X114334507Y-99028690D01*
X113770330Y-98795000D01*
X113159670Y-98795000D01*
X113135000Y-98805219D01*
X113135000Y-98394126D01*
X112977431Y-98013720D01*
X112686280Y-97722569D01*
X112305874Y-97565000D01*
X111894126Y-97565000D01*
X111513720Y-97722569D01*
X111396289Y-97840000D01*
X110020865Y-97840000D01*
X110035000Y-97805874D01*
X110035000Y-97394126D01*
X109877431Y-97013720D01*
X109835000Y-96971289D01*
X109835000Y-95645867D01*
X110432282Y-95048586D01*
X110502001Y-95002001D01*
X110686552Y-94725801D01*
X110735000Y-94482237D01*
X110735000Y-94482234D01*
X110751357Y-94400001D01*
X110735000Y-94317768D01*
X110735000Y-92828711D01*
X110777431Y-92786280D01*
X110935000Y-92405874D01*
X110935000Y-92198711D01*
X111013720Y-92277431D01*
X111013720Y-92277431D01*
G37*
X111013720Y-92277431D02*
X111394126Y-92435000D01*
X111560199Y-92435000D01*
X112709670Y-93584472D01*
X112752071Y-93647929D01*
X113003463Y-93815904D01*
X113225148Y-93860000D01*
X113225152Y-93860000D01*
X113299999Y-93874888D01*
X113374846Y-93860000D01*
X120073000Y-93860000D01*
X120073000Y-94313002D01*
X115003711Y-94313002D01*
X114886280Y-94195571D01*
X114505874Y-94038002D01*
X114094126Y-94038002D01*
X113713720Y-94195571D01*
X113422569Y-94486722D01*
X113265000Y-94867128D01*
X113265000Y-95278876D01*
X113422569Y-95659282D01*
X113713720Y-95950433D01*
X114094126Y-96108002D01*
X114505874Y-96108002D01*
X114886280Y-95950433D01*
X115003711Y-95833002D01*
X120073000Y-95833002D01*
X120073000Y-99570000D01*
X117351669Y-99570000D01*
X117306310Y-99460493D01*
X116874507Y-99028690D01*
X116310330Y-98795000D01*
X115699670Y-98795000D01*
X115135493Y-99028690D01*
X114735000Y-99429183D01*
X114334507Y-99028690D01*
X113770330Y-98795000D01*
X113159670Y-98795000D01*
X113135000Y-98805219D01*
X113135000Y-98394126D01*
X112977431Y-98013720D01*
X112686280Y-97722569D01*
X112305874Y-97565000D01*
X111894126Y-97565000D01*
X111513720Y-97722569D01*
X111396289Y-97840000D01*
X110020865Y-97840000D01*
X110035000Y-97805874D01*
X110035000Y-97394126D01*
X109877431Y-97013720D01*
X109835000Y-96971289D01*
X109835000Y-95645867D01*
X110432282Y-95048586D01*
X110502001Y-95002001D01*
X110686552Y-94725801D01*
X110735000Y-94482237D01*
X110735000Y-94482234D01*
X110751357Y-94400001D01*
X110735000Y-94317768D01*
X110735000Y-92828711D01*
X110777431Y-92786280D01*
X110935000Y-92405874D01*
X110935000Y-92198711D01*
X111013720Y-92277431D01*
G36*
X140490000Y-93173000D02*
X139257071Y-93173000D01*
X138875504Y-93014950D01*
X138324496Y-93014950D01*
X137942929Y-93173000D01*
X135727000Y-93173000D01*
X135727000Y-88800000D01*
X135717333Y-88751399D01*
X135689803Y-88710197D01*
X135648601Y-88682667D01*
X135600000Y-88673000D01*
X124535102Y-88673000D01*
X124747553Y-88585000D01*
X140490000Y-88585000D01*
X140490000Y-93173000D01*
X140490000Y-93173000D01*
G37*
X140490000Y-93173000D02*
X139257071Y-93173000D01*
X138875504Y-93014950D01*
X138324496Y-93014950D01*
X137942929Y-93173000D01*
X135727000Y-93173000D01*
X135727000Y-88800000D01*
X135717333Y-88751399D01*
X135689803Y-88710197D01*
X135648601Y-88682667D01*
X135600000Y-88673000D01*
X124535102Y-88673000D01*
X124747553Y-88585000D01*
X140490000Y-88585000D01*
X140490000Y-93173000D01*
G36*
X161464889Y-88673000D02*
X161200000Y-88673000D01*
X161151399Y-88682667D01*
X161110197Y-88710197D01*
X161082667Y-88751399D01*
X161073000Y-88800000D01*
X161073000Y-91840000D01*
X160598672Y-91840000D01*
X160577431Y-91788720D01*
X160286280Y-91497569D01*
X159905874Y-91340000D01*
X159494126Y-91340000D01*
X159113720Y-91497569D01*
X158993045Y-91618244D01*
X158835000Y-91460199D01*
X158835000Y-91294126D01*
X158677431Y-90913720D01*
X158386280Y-90622569D01*
X158005874Y-90465000D01*
X157594126Y-90465000D01*
X157213720Y-90622569D01*
X156922569Y-90913720D01*
X156765000Y-91294126D01*
X156765000Y-91705874D01*
X156922569Y-92086280D01*
X157176289Y-92340000D01*
X154614802Y-92340000D01*
X153635000Y-91360199D01*
X153635000Y-91194126D01*
X153477431Y-90813720D01*
X153186280Y-90522569D01*
X152805874Y-90365000D01*
X152394126Y-90365000D01*
X152013720Y-90522569D01*
X151722569Y-90813720D01*
X151565000Y-91194126D01*
X151565000Y-91401289D01*
X151486280Y-91322569D01*
X151105874Y-91165000D01*
X150694126Y-91165000D01*
X150313720Y-91322569D01*
X150022569Y-91613720D01*
X149865000Y-91994126D01*
X149865000Y-92405874D01*
X150022569Y-92786280D01*
X150065000Y-92828711D01*
X150065001Y-94054131D01*
X149467718Y-94651415D01*
X149398000Y-94697999D01*
X149351416Y-94767717D01*
X149213448Y-94974200D01*
X149148643Y-95300000D01*
X149165001Y-95382238D01*
X149165000Y-96801289D01*
X149086280Y-96722569D01*
X148705874Y-96565000D01*
X148294126Y-96565000D01*
X147913720Y-96722569D01*
X147622569Y-97013720D01*
X147465000Y-97394126D01*
X147465000Y-97805874D01*
X147622569Y-98186280D01*
X147913720Y-98477431D01*
X148294126Y-98635000D01*
X148460199Y-98635000D01*
X148909671Y-99084473D01*
X148952071Y-99147929D01*
X149203463Y-99315904D01*
X149425148Y-99360000D01*
X149425152Y-99360000D01*
X149500000Y-99374888D01*
X149574848Y-99360000D01*
X150224817Y-99360000D01*
X149957155Y-99627662D01*
X149805874Y-99565000D01*
X149394126Y-99565000D01*
X149013720Y-99722569D01*
X148722569Y-100013720D01*
X148565000Y-100394126D01*
X148565000Y-100805874D01*
X148722569Y-101186280D01*
X149013720Y-101477431D01*
X149394126Y-101635000D01*
X149805874Y-101635000D01*
X150186280Y-101477431D01*
X150223942Y-101439769D01*
X150247918Y-101435000D01*
X150247922Y-101435000D01*
X150431865Y-101398411D01*
X150620811Y-101854568D01*
X151010432Y-102244189D01*
X151519496Y-102455050D01*
X152070504Y-102455050D01*
X152579568Y-102244189D01*
X152969189Y-101854568D01*
X153180050Y-101345504D01*
X153180050Y-101215867D01*
X153595493Y-101631310D01*
X154159670Y-101865000D01*
X154569183Y-101865000D01*
X154433690Y-102000493D01*
X154200000Y-102564670D01*
X154200000Y-103175330D01*
X154433690Y-103739507D01*
X154865493Y-104171310D01*
X154970970Y-104215000D01*
X145810000Y-104215000D01*
X145810000Y-88585000D01*
X161252438Y-88585000D01*
X161464889Y-88673000D01*
X161464889Y-88673000D01*
G37*
X161464889Y-88673000D02*
X161200000Y-88673000D01*
X161151399Y-88682667D01*
X161110197Y-88710197D01*
X161082667Y-88751399D01*
X161073000Y-88800000D01*
X161073000Y-91840000D01*
X160598672Y-91840000D01*
X160577431Y-91788720D01*
X160286280Y-91497569D01*
X159905874Y-91340000D01*
X159494126Y-91340000D01*
X159113720Y-91497569D01*
X158993045Y-91618244D01*
X158835000Y-91460199D01*
X158835000Y-91294126D01*
X158677431Y-90913720D01*
X158386280Y-90622569D01*
X158005874Y-90465000D01*
X157594126Y-90465000D01*
X157213720Y-90622569D01*
X156922569Y-90913720D01*
X156765000Y-91294126D01*
X156765000Y-91705874D01*
X156922569Y-92086280D01*
X157176289Y-92340000D01*
X154614802Y-92340000D01*
X153635000Y-91360199D01*
X153635000Y-91194126D01*
X153477431Y-90813720D01*
X153186280Y-90522569D01*
X152805874Y-90365000D01*
X152394126Y-90365000D01*
X152013720Y-90522569D01*
X151722569Y-90813720D01*
X151565000Y-91194126D01*
X151565000Y-91401289D01*
X151486280Y-91322569D01*
X151105874Y-91165000D01*
X150694126Y-91165000D01*
X150313720Y-91322569D01*
X150022569Y-91613720D01*
X149865000Y-91994126D01*
X149865000Y-92405874D01*
X150022569Y-92786280D01*
X150065000Y-92828711D01*
X150065001Y-94054131D01*
X149467718Y-94651415D01*
X149398000Y-94697999D01*
X149351416Y-94767717D01*
X149213448Y-94974200D01*
X149148643Y-95300000D01*
X149165001Y-95382238D01*
X149165000Y-96801289D01*
X149086280Y-96722569D01*
X148705874Y-96565000D01*
X148294126Y-96565000D01*
X147913720Y-96722569D01*
X147622569Y-97013720D01*
X147465000Y-97394126D01*
X147465000Y-97805874D01*
X147622569Y-98186280D01*
X147913720Y-98477431D01*
X148294126Y-98635000D01*
X148460199Y-98635000D01*
X148909671Y-99084473D01*
X148952071Y-99147929D01*
X149203463Y-99315904D01*
X149425148Y-99360000D01*
X149425152Y-99360000D01*
X149500000Y-99374888D01*
X149574848Y-99360000D01*
X150224817Y-99360000D01*
X149957155Y-99627662D01*
X149805874Y-99565000D01*
X149394126Y-99565000D01*
X149013720Y-99722569D01*
X148722569Y-100013720D01*
X148565000Y-100394126D01*
X148565000Y-100805874D01*
X148722569Y-101186280D01*
X149013720Y-101477431D01*
X149394126Y-101635000D01*
X149805874Y-101635000D01*
X150186280Y-101477431D01*
X150223942Y-101439769D01*
X150247918Y-101435000D01*
X150247922Y-101435000D01*
X150431865Y-101398411D01*
X150620811Y-101854568D01*
X151010432Y-102244189D01*
X151519496Y-102455050D01*
X152070504Y-102455050D01*
X152579568Y-102244189D01*
X152969189Y-101854568D01*
X153180050Y-101345504D01*
X153180050Y-101215867D01*
X153595493Y-101631310D01*
X154159670Y-101865000D01*
X154569183Y-101865000D01*
X154433690Y-102000493D01*
X154200000Y-102564670D01*
X154200000Y-103175330D01*
X154433690Y-103739507D01*
X154865493Y-104171310D01*
X154970970Y-104215000D01*
X145810000Y-104215000D01*
X145810000Y-88585000D01*
X161252438Y-88585000D01*
X161464889Y-88673000D01*
G36*
X161073000Y-104215000D02*
X156499030Y-104215000D01*
X156604507Y-104171310D01*
X157036310Y-103739507D01*
X157270000Y-103175330D01*
X157270000Y-102564670D01*
X157036310Y-102000493D01*
X156900817Y-101865000D01*
X157310330Y-101865000D01*
X157874507Y-101631310D01*
X158306310Y-101199507D01*
X158351669Y-101090000D01*
X161073000Y-101090000D01*
X161073000Y-104215000D01*
X161073000Y-104215000D01*
G37*
X161073000Y-104215000D02*
X156499030Y-104215000D01*
X156604507Y-104171310D01*
X157036310Y-103739507D01*
X157270000Y-103175330D01*
X157270000Y-102564670D01*
X157036310Y-102000493D01*
X156900817Y-101865000D01*
X157310330Y-101865000D01*
X157874507Y-101631310D01*
X158306310Y-101199507D01*
X158351669Y-101090000D01*
X161073000Y-101090000D01*
X161073000Y-104215000D01*
G36*
X152013720Y-92277431D02*
X152394126Y-92435000D01*
X152560199Y-92435000D01*
X153709670Y-93584472D01*
X153752071Y-93647929D01*
X154003463Y-93815904D01*
X154225148Y-93860000D01*
X154225152Y-93860000D01*
X154299999Y-93874888D01*
X154374846Y-93860000D01*
X161073000Y-93860000D01*
X161073000Y-94313002D01*
X156003711Y-94313002D01*
X155886280Y-94195571D01*
X155505874Y-94038002D01*
X155094126Y-94038002D01*
X154713720Y-94195571D01*
X154422569Y-94486722D01*
X154265000Y-94867128D01*
X154265000Y-95278876D01*
X154422569Y-95659282D01*
X154713720Y-95950433D01*
X155094126Y-96108002D01*
X155505874Y-96108002D01*
X155886280Y-95950433D01*
X156003711Y-95833002D01*
X161073000Y-95833002D01*
X161073000Y-99570000D01*
X158351669Y-99570000D01*
X158306310Y-99460493D01*
X157874507Y-99028690D01*
X157310330Y-98795000D01*
X156699670Y-98795000D01*
X156135493Y-99028690D01*
X155735000Y-99429183D01*
X155334507Y-99028690D01*
X154770330Y-98795000D01*
X154159670Y-98795000D01*
X154135000Y-98805219D01*
X154135000Y-98394126D01*
X153977431Y-98013720D01*
X153686280Y-97722569D01*
X153305874Y-97565000D01*
X152894126Y-97565000D01*
X152513720Y-97722569D01*
X152396289Y-97840000D01*
X151020865Y-97840000D01*
X151035000Y-97805874D01*
X151035000Y-97394126D01*
X150877431Y-97013720D01*
X150835000Y-96971289D01*
X150835000Y-95645867D01*
X151432282Y-95048586D01*
X151502001Y-95002001D01*
X151686552Y-94725801D01*
X151735000Y-94482237D01*
X151735000Y-94482234D01*
X151751357Y-94400001D01*
X151735000Y-94317768D01*
X151735000Y-92828711D01*
X151777431Y-92786280D01*
X151935000Y-92405874D01*
X151935000Y-92198711D01*
X152013720Y-92277431D01*
X152013720Y-92277431D01*
G37*
X152013720Y-92277431D02*
X152394126Y-92435000D01*
X152560199Y-92435000D01*
X153709670Y-93584472D01*
X153752071Y-93647929D01*
X154003463Y-93815904D01*
X154225148Y-93860000D01*
X154225152Y-93860000D01*
X154299999Y-93874888D01*
X154374846Y-93860000D01*
X161073000Y-93860000D01*
X161073000Y-94313002D01*
X156003711Y-94313002D01*
X155886280Y-94195571D01*
X155505874Y-94038002D01*
X155094126Y-94038002D01*
X154713720Y-94195571D01*
X154422569Y-94486722D01*
X154265000Y-94867128D01*
X154265000Y-95278876D01*
X154422569Y-95659282D01*
X154713720Y-95950433D01*
X155094126Y-96108002D01*
X155505874Y-96108002D01*
X155886280Y-95950433D01*
X156003711Y-95833002D01*
X161073000Y-95833002D01*
X161073000Y-99570000D01*
X158351669Y-99570000D01*
X158306310Y-99460493D01*
X157874507Y-99028690D01*
X157310330Y-98795000D01*
X156699670Y-98795000D01*
X156135493Y-99028690D01*
X155735000Y-99429183D01*
X155334507Y-99028690D01*
X154770330Y-98795000D01*
X154159670Y-98795000D01*
X154135000Y-98805219D01*
X154135000Y-98394126D01*
X153977431Y-98013720D01*
X153686280Y-97722569D01*
X153305874Y-97565000D01*
X152894126Y-97565000D01*
X152513720Y-97722569D01*
X152396289Y-97840000D01*
X151020865Y-97840000D01*
X151035000Y-97805874D01*
X151035000Y-97394126D01*
X150877431Y-97013720D01*
X150835000Y-96971289D01*
X150835000Y-95645867D01*
X151432282Y-95048586D01*
X151502001Y-95002001D01*
X151686552Y-94725801D01*
X151735000Y-94482237D01*
X151735000Y-94482234D01*
X151751357Y-94400001D01*
X151735000Y-94317768D01*
X151735000Y-92828711D01*
X151777431Y-92786280D01*
X151935000Y-92405874D01*
X151935000Y-92198711D01*
X152013720Y-92277431D01*
G36*
X181515000Y-93173000D02*
X180257071Y-93173000D01*
X179875504Y-93014950D01*
X179324496Y-93014950D01*
X178942929Y-93173000D01*
X176727000Y-93173000D01*
X176727000Y-88800000D01*
X176717333Y-88751399D01*
X176689803Y-88710197D01*
X176648601Y-88682667D01*
X176600000Y-88673000D01*
X166535115Y-88673000D01*
X166747566Y-88585000D01*
X181515001Y-88585000D01*
X181515000Y-93173000D01*
X181515000Y-93173000D01*
G37*
X181515000Y-93173000D02*
X180257071Y-93173000D01*
X179875504Y-93014950D01*
X179324496Y-93014950D01*
X178942929Y-93173000D01*
X176727000Y-93173000D01*
X176727000Y-88800000D01*
X176717333Y-88751399D01*
X176689803Y-88710197D01*
X176648601Y-88682667D01*
X176600000Y-88673000D01*
X166535115Y-88673000D01*
X166747566Y-88585000D01*
X181515001Y-88585000D01*
X181515000Y-93173000D01*
G04 #@! TD*
M02*
