M48
;DRILL file {KiCad 5.0.2-bee76a0~70~ubuntu18.04.1} date Wed 26 Feb 2020 03:26:07 PM CET
;FORMAT={-:-/ absolute / inch / decimal}
FMAT,2
INCH,TZ
T1C0.0118
T2C0.0591
%
G90
G05
T1
X7.1732Y-2.8602
X7.1732Y-2.8757
X7.1732Y-2.8911
X7.1732Y-2.9065
X7.1732Y-2.9219
X7.1732Y-2.9373
X7.1732Y-2.9528
X7.1732Y-2.9682
X7.1732Y-2.9836
X7.1732Y-2.999
X7.1732Y-3.0144
X7.1732Y-3.0299
X7.1732Y-3.0453
X4.7106Y-1.8071
X4.726Y-1.8071
X4.7415Y-1.8071
X4.7569Y-1.8071
X4.7723Y-1.8071
X4.7877Y-1.8071
X4.8031Y-1.8071
X4.8186Y-1.8071
X4.834Y-1.8071
X4.8494Y-1.8071
X4.8648Y-1.8071
X4.8802Y-1.8071
X4.8957Y-1.8071
X7.1732Y-3.7264
X7.1732Y-3.7418
X7.1732Y-3.7572
X7.1732Y-3.7726
X7.1732Y-3.7881
X7.1732Y-3.8035
X7.1732Y-3.8189
X7.1732Y-3.8343
X7.1732Y-3.8497
X7.1732Y-3.8652
X7.1732Y-3.8806
X7.1732Y-3.896
X7.1732Y-3.9114
X4.7106Y-2.6339
X4.726Y-2.6339
X4.7415Y-2.6339
X4.7569Y-2.6339
X4.7723Y-2.6339
X4.7877Y-2.6339
X4.8031Y-2.6339
X4.8186Y-2.6339
X4.834Y-2.6339
X4.8494Y-2.6339
X4.8648Y-2.6339
X4.8802Y-2.6339
X4.8957Y-2.6339
X4.7106Y-3.4606
X4.726Y-3.4606
X4.7415Y-3.4606
X4.7569Y-3.4606
X4.7723Y-3.4606
X4.7877Y-3.4606
X4.8031Y-3.4606
X4.8186Y-3.4606
X4.834Y-3.4606
X4.8494Y-3.4606
X4.8648Y-3.4606
X4.8802Y-3.4606
X4.8957Y-3.4606
X3.8976Y-1.7717
X3.9134Y-1.7717
X3.9291Y-1.7717
X3.9449Y-1.7717
X3.9606Y-1.7717
X3.9764Y-1.7717
X6.3642Y-3.3031
X6.3796Y-3.3031
X6.395Y-3.3031
X6.4104Y-3.3031
X6.4259Y-3.3031
X6.4413Y-3.3031
X6.4567Y-3.3031
X6.4721Y-3.3031
X6.4875Y-3.3031
X6.503Y-3.3031
X6.5184Y-3.3031
X6.5338Y-3.3031
X6.5492Y-3.3031
X7.1732Y-2.0335
X7.1732Y-2.0489
X7.1732Y-2.0643
X7.1732Y-2.0797
X7.1732Y-2.0951
X7.1732Y-2.1106
X7.1732Y-2.126
X7.1732Y-2.1414
X7.1732Y-2.1568
X7.1732Y-2.1722
X7.1732Y-2.1877
X7.1732Y-2.2031
X7.1732Y-2.2185
X4.7106Y-2.4764
X4.726Y-2.4764
X4.7415Y-2.4764
X4.7569Y-2.4764
X4.7723Y-2.4764
X4.7877Y-2.4764
X4.8031Y-2.4764
X4.8186Y-2.4764
X4.834Y-2.4764
X4.8494Y-2.4764
X4.8648Y-2.4764
X4.8802Y-2.4764
X4.8957Y-2.4764
X7.2835Y-1.7717
X7.2992Y-1.7717
X7.315Y-1.7717
X7.3307Y-1.7717
X7.3465Y-1.7717
X7.3622Y-1.7717
X7.2835Y-4.1732
X7.2992Y-4.1732
X7.315Y-4.1732
X7.3307Y-4.1732
X7.3465Y-4.1732
X7.3622Y-4.1732
X4.7106Y-4.1299
X4.726Y-4.1299
X4.7415Y-4.1299
X4.7569Y-4.1299
X4.7723Y-4.1299
X4.7877Y-4.1299
X4.8031Y-4.1299
X4.8186Y-4.1299
X4.834Y-4.1299
X4.8494Y-4.1299
X4.8648Y-4.1299
X4.8802Y-4.1299
X4.8957Y-4.1299
X4.0984Y-3.7264
X4.0984Y-3.7418
X4.0984Y-3.7572
X4.0984Y-3.7726
X4.0984Y-3.7881
X4.0984Y-3.8035
X4.0984Y-3.8189
X4.0984Y-3.8343
X4.0984Y-3.8497
X4.0984Y-3.8652
X4.0984Y-3.8806
X4.0984Y-3.896
X4.0984Y-3.9114
X6.3642Y-3.4606
X6.3796Y-3.4606
X6.395Y-3.4606
X6.4104Y-3.4606
X6.4259Y-3.4606
X6.4413Y-3.4606
X6.4567Y-3.4606
X6.4721Y-3.4606
X6.4875Y-3.4606
X6.503Y-3.4606
X6.5184Y-3.4606
X6.5338Y-3.4606
X6.5492Y-3.4606
X4.0984Y-2.8996
X4.0984Y-2.915
X4.0984Y-2.9304
X4.0984Y-2.9459
X4.0984Y-2.9613
X4.0984Y-2.9767
X4.0984Y-2.9921
X4.0984Y-3.0075
X4.0984Y-3.023
X4.0984Y-3.0384
X4.0984Y-3.0538
X4.0984Y-3.0692
X4.0984Y-3.0846
X6.3642Y-2.4764
X6.3796Y-2.4764
X6.395Y-2.4764
X6.4104Y-2.4764
X6.4259Y-2.4764
X6.4413Y-2.4764
X6.4567Y-2.4764
X6.4721Y-2.4764
X6.4875Y-2.4764
X6.503Y-2.4764
X6.5184Y-2.4764
X6.5338Y-2.4764
X6.5492Y-2.4764
X4.0984Y-2.0335
X4.0984Y-2.0489
X4.0984Y-2.0643
X4.0984Y-2.0797
X4.0984Y-2.0951
X4.0984Y-2.1106
X4.0984Y-2.126
X4.0984Y-2.1414
X4.0984Y-2.1568
X4.0984Y-2.1722
X4.0984Y-2.1877
X4.0984Y-2.2031
X4.0984Y-2.2185
X6.3642Y-2.6339
X6.3796Y-2.6339
X6.395Y-2.6339
X6.4104Y-2.6339
X6.4259Y-2.6339
X6.4413Y-2.6339
X6.4567Y-2.6339
X6.4721Y-2.6339
X6.4875Y-2.6339
X6.503Y-2.6339
X6.5184Y-2.6339
X6.5338Y-2.6339
X6.5492Y-2.6339
X4.7106Y-3.3031
X4.726Y-3.3031
X4.7415Y-3.3031
X4.7569Y-3.3031
X4.7723Y-3.3031
X4.7877Y-3.3031
X4.8031Y-3.3031
X4.8186Y-3.3031
X4.834Y-3.3031
X4.8494Y-3.3031
X4.8648Y-3.3031
X4.8802Y-3.3031
X4.8957Y-3.3031
X6.3642Y-4.1299
X6.3796Y-4.1299
X6.395Y-4.1299
X6.4104Y-4.1299
X6.4259Y-4.1299
X6.4413Y-4.1299
X6.4567Y-4.1299
X6.4721Y-4.1299
X6.4875Y-4.1299
X6.503Y-4.1299
X6.5184Y-4.1299
X6.5338Y-4.1299
X6.5492Y-4.1299
X6.3642Y-1.8071
X6.3796Y-1.8071
X6.395Y-1.8071
X6.4104Y-1.8071
X6.4259Y-1.8071
X6.4413Y-1.8071
X6.4567Y-1.8071
X6.4721Y-1.8071
X6.4875Y-1.8071
X6.503Y-1.8071
X6.5184Y-1.8071
X6.5338Y-1.8071
X6.5492Y-1.8071
X3.8976Y-4.1732
X3.9134Y-4.1732
X3.9291Y-4.1732
X3.9449Y-4.1732
X3.9606Y-4.1732
X3.9764Y-4.1732
T2
X7.0709Y-2.8898
X4.362Y-2.3256
X4.362Y-3.1524
X5.4567Y-3.7165
X4.362Y-3.9791
X5.9762Y-3.9791
X5.9762Y-3.1524
X5.4567Y-2.8898
X5.9762Y-2.3256
X7.0709Y-3.7165
X5.4567Y-2.063
X7.0709Y-2.063
T0
M30
