M48
;DRILL file {KiCad 5.0.2-bee76a0~70~ubuntu18.04.1} date Wed 26 Feb 2020 03:26:07 PM CET
;FORMAT={-:-/ absolute / inch / decimal}
FMAT,2
INCH,TZ
T1C0.0157
T2C0.0315
T3C0.0866
%
G90
G05
T1
X4.2323Y-2.189
X4.2323Y-3.0157
X4.2323Y-3.8425
X4.2756Y-2.3071
X4.2756Y-3.1339
X4.2756Y-3.9606
X4.2913Y-2.189
X4.2913Y-3.0157
X4.2913Y-3.8425
X4.3268Y-1.9764
X4.3268Y-2.8031
X4.3268Y-3.6299
X4.3937Y-1.9449
X4.3937Y-2.7717
X4.3937Y-3.5984
X4.4134Y-2.2283
X4.4134Y-3.0551
X4.4134Y-3.8819
X4.5Y-2.0895
X4.5Y-2.9163
X4.5Y-3.743
X4.5472Y-1.9488
X4.5472Y-2.7756
X4.5472Y-3.6024
X4.5984Y-1.9488
X4.5984Y-2.7756
X4.5984Y-3.6024
X4.6339Y-2.118
X4.6339Y-2.9448
X4.6339Y-3.7716
X4.6496Y-2.2598
X4.6496Y-3.0866
X4.6496Y-3.9134
X4.6535Y-2.4173
X4.6535Y-3.2441
X4.6535Y-4.0709
X4.6732Y-1.9833
X4.6732Y-2.81
X4.6732Y-3.6368
X4.7835Y-2.3307
X4.7835Y-2.374
X4.7835Y-2.4134
X4.7835Y-3.1575
X4.7835Y-3.2008
X4.7835Y-3.2402
X4.7835Y-3.9843
X4.7835Y-4.0276
X4.7835Y-4.0669
X4.7874Y-1.9291
X4.7874Y-2.122
X4.7874Y-2.1575
X4.7874Y-2.1929
X4.7874Y-2.7559
X4.7874Y-2.9488
X4.7874Y-2.9843
X4.7874Y-3.0197
X4.7874Y-3.5827
X4.7874Y-3.7756
X4.7874Y-3.811
X4.7874Y-3.8465
X4.7953Y-1.8846
X4.7953Y-2.7114
X4.7953Y-3.5382
X4.8228Y-2.4173
X4.8228Y-3.2441
X4.8228Y-4.0709
X4.8376Y-1.8846
X4.8376Y-2.7114
X4.8376Y-3.5382
X4.8583Y-2.1339
X4.8583Y-2.9606
X4.8583Y-3.7874
X4.8622Y-2.4173
X4.8622Y-3.2441
X4.8622Y-4.0709
X4.8706Y-2.0389
X4.8706Y-2.8656
X4.8706Y-3.6924
X4.878Y-1.8858
X4.878Y-2.7126
X4.878Y-3.5394
X4.8937Y-2.3543
X4.8937Y-3.1811
X4.8937Y-4.0079
X4.9173Y-2.0433
X4.9173Y-2.8701
X4.9173Y-3.6969
X4.9331Y-2.3583
X4.9331Y-3.185
X4.9331Y-4.0118
X4.9724Y-1.8846
X4.9724Y-2.7114
X4.9724Y-3.5382
X4.9921Y-2.4173
X4.9921Y-3.2441
X4.9921Y-4.0709
X5.Y-2.2402
X5.Y-3.0669
X5.Y-3.8937
X5.0118Y-1.8846
X5.0118Y-2.7114
X5.0118Y-3.5382
X5.0315Y-2.4173
X5.0315Y-3.2441
X5.0315Y-4.0709
X5.0551Y-1.8858
X5.0551Y-2.7126
X5.0551Y-3.5394
X5.0709Y-2.4173
X5.0709Y-3.2441
X5.0709Y-4.0709
X5.0945Y-1.8858
X5.0945Y-2.
X5.0945Y-2.7126
X5.0945Y-2.8268
X5.0945Y-3.5394
X5.0945Y-3.6535
X5.1102Y-2.4173
X5.1102Y-3.2441
X5.1102Y-4.0709
X5.1339Y-1.8858
X5.1339Y-2.7126
X5.1339Y-3.5394
X5.1535Y-2.4173
X5.1535Y-3.2441
X5.1535Y-4.0709
X5.1732Y-1.8858
X5.1732Y-2.7126
X5.1732Y-3.5394
X5.1929Y-2.4173
X5.1929Y-3.2441
X5.1929Y-4.0709
X5.2126Y-1.8858
X5.2126Y-2.7126
X5.2126Y-3.5394
X5.2402Y-2.4173
X5.2402Y-3.2441
X5.2402Y-4.0709
X5.252Y-1.8858
X5.252Y-2.7126
X5.252Y-3.5394
X5.2795Y-1.9213
X5.2795Y-1.9646
X5.2795Y-2.0906
X5.2795Y-2.1299
X5.2795Y-2.1693
X5.2795Y-2.2126
X5.2795Y-2.3268
X5.2795Y-2.3661
X5.2795Y-2.4055
X5.2795Y-2.748
X5.2795Y-2.7913
X5.2795Y-2.9173
X5.2795Y-2.9567
X5.2795Y-2.9961
X5.2795Y-3.0394
X5.2795Y-3.1535
X5.2795Y-3.1929
X5.2795Y-3.2323
X5.2795Y-3.5748
X5.2795Y-3.6181
X5.2795Y-3.7441
X5.2795Y-3.7835
X5.2795Y-3.8228
X5.2795Y-3.8661
X5.2795Y-3.9803
X5.2795Y-4.0197
X5.2795Y-4.0591
X5.8465Y-2.189
X5.8465Y-3.0157
X5.8465Y-3.8425
X5.8898Y-2.3071
X5.8898Y-3.1339
X5.8898Y-3.9606
X5.9055Y-2.189
X5.9055Y-3.0157
X5.9055Y-3.8425
X5.9409Y-1.9764
X5.9409Y-2.8031
X5.9409Y-3.6299
X6.0079Y-1.9449
X6.0079Y-2.7717
X6.0079Y-3.5984
X6.0276Y-2.2283
X6.0276Y-3.0551
X6.0276Y-3.8819
X6.1142Y-2.0895
X6.1142Y-2.9163
X6.1142Y-3.743
X6.1614Y-1.9488
X6.1614Y-2.7756
X6.1614Y-3.6024
X6.2126Y-1.9488
X6.2126Y-2.7756
X6.2126Y-3.6024
X6.248Y-2.118
X6.248Y-2.9448
X6.248Y-3.7716
X6.2638Y-2.2598
X6.2638Y-3.0866
X6.2638Y-3.9134
X6.2677Y-2.4173
X6.2677Y-3.2441
X6.2677Y-4.0709
X6.2874Y-1.9833
X6.2874Y-2.81
X6.2874Y-3.6368
X6.3976Y-2.3307
X6.3976Y-2.374
X6.3976Y-2.4134
X6.3976Y-3.1575
X6.3976Y-3.2008
X6.3976Y-3.2402
X6.3976Y-3.9843
X6.3976Y-4.0276
X6.3976Y-4.0669
X6.4016Y-1.9291
X6.4016Y-2.122
X6.4016Y-2.1575
X6.4016Y-2.1929
X6.4016Y-2.7559
X6.4016Y-2.9488
X6.4016Y-2.9843
X6.4016Y-3.0197
X6.4016Y-3.5827
X6.4016Y-3.7756
X6.4016Y-3.811
X6.4016Y-3.8465
X6.4094Y-1.8846
X6.4094Y-2.7114
X6.4094Y-3.5382
X6.437Y-2.4173
X6.437Y-3.2441
X6.437Y-4.0709
X6.4518Y-1.8846
X6.4518Y-2.7114
X6.4518Y-3.5382
X6.4724Y-2.1339
X6.4724Y-2.9606
X6.4724Y-3.7874
X6.4764Y-2.4173
X6.4764Y-3.2441
X6.4764Y-4.0709
X6.4848Y-2.0389
X6.4848Y-2.8656
X6.4848Y-3.6924
X6.4921Y-1.8858
X6.4921Y-2.7126
X6.4921Y-3.5394
X6.5079Y-2.3543
X6.5079Y-3.1811
X6.5079Y-4.0079
X6.5315Y-2.0433
X6.5315Y-2.8701
X6.5315Y-3.6969
X6.5472Y-2.3583
X6.5472Y-3.185
X6.5472Y-4.0118
X6.5866Y-1.8846
X6.5866Y-2.7114
X6.5866Y-3.5382
X6.6063Y-2.4173
X6.6063Y-3.2441
X6.6063Y-4.0709
X6.6142Y-2.2402
X6.6142Y-3.0669
X6.6142Y-3.8937
X6.626Y-1.8846
X6.626Y-2.7114
X6.626Y-3.5382
X6.6457Y-2.4173
X6.6457Y-3.2441
X6.6457Y-4.0709
X6.6693Y-1.8858
X6.6693Y-2.7126
X6.6693Y-3.5394
X6.685Y-2.4173
X6.685Y-3.2441
X6.685Y-4.0709
X6.7087Y-1.8858
X6.7087Y-2.
X6.7087Y-2.7126
X6.7087Y-2.8268
X6.7087Y-3.5394
X6.7087Y-3.6535
X6.7244Y-2.4173
X6.7244Y-3.2441
X6.7244Y-4.0709
X6.748Y-1.8858
X6.748Y-2.7126
X6.748Y-3.5394
X6.7677Y-2.4173
X6.7677Y-3.2441
X6.7677Y-4.0709
X6.7874Y-1.8858
X6.7874Y-2.7126
X6.7874Y-3.5394
X6.8071Y-2.4173
X6.8071Y-3.2441
X6.8071Y-4.0709
X6.8268Y-1.8858
X6.8268Y-2.7126
X6.8268Y-3.5394
X6.8543Y-2.4173
X6.8543Y-3.2441
X6.8543Y-4.0709
X6.8661Y-1.8858
X6.8661Y-2.7126
X6.8661Y-3.5394
X6.8937Y-1.9213
X6.8937Y-1.9646
X6.8937Y-2.0906
X6.8937Y-2.1299
X6.8937Y-2.1693
X6.8937Y-2.2126
X6.8937Y-2.3268
X6.8937Y-2.3661
X6.8937Y-2.4055
X6.8937Y-2.748
X6.8937Y-2.7913
X6.8937Y-2.9173
X6.8937Y-2.9567
X6.8937Y-2.9961
X6.8937Y-3.0394
X6.8937Y-3.1535
X6.8937Y-3.1929
X6.8937Y-3.2323
X6.8937Y-3.5748
X6.8937Y-3.6181
X6.8937Y-3.7441
X6.8937Y-3.7835
X6.8937Y-3.8228
X6.8937Y-3.8661
X6.8937Y-3.9803
X6.8937Y-4.0197
X6.8937Y-4.0591
T2
X4.4171Y-3.2232
X4.4671Y-3.1232
X4.5171Y-3.2232
X4.5671Y-3.1232
X5.3858Y-3.7717
X5.3858Y-3.8717
X5.3858Y-3.9717
X5.4858Y-3.8217
X5.4858Y-3.9217
X5.4858Y-4.0217
X4.4171Y-4.05
X4.4671Y-3.95
X4.5171Y-4.05
X4.5671Y-3.95
X6.0313Y-4.05
X6.0813Y-3.95
X6.1313Y-4.05
X6.1813Y-3.95
X6.0313Y-3.2232
X6.0813Y-3.1232
X6.1313Y-3.2232
X6.1813Y-3.1232
X5.3858Y-2.9449
X5.3858Y-3.0449
X5.3858Y-3.1449
X5.4858Y-2.9949
X5.4858Y-3.0949
X5.4858Y-3.1949
X6.0313Y-2.3965
X6.0813Y-2.2965
X6.1313Y-2.3965
X6.1813Y-2.2965
X7.Y-3.7717
X7.Y-3.8717
X7.Y-3.9717
X7.1Y-3.8217
X7.1Y-3.9217
X7.1Y-4.0217
X5.3858Y-2.1181
X5.3858Y-2.2181
X5.3858Y-2.3181
X5.4858Y-2.1681
X5.4858Y-2.2681
X5.4858Y-2.3681
X7.Y-2.1181
X7.Y-2.2181
X7.Y-2.3181
X7.1Y-2.1681
X7.1Y-2.2681
X7.1Y-2.3681
X7.Y-2.9449
X7.Y-3.0449
X7.Y-3.1449
X7.1Y-2.9949
X7.1Y-3.0949
X7.1Y-3.1949
X4.4171Y-2.3965
X4.4671Y-2.2965
X4.5171Y-2.3965
X4.5671Y-2.2965
T3
X4.1929Y-2.378
X7.0472Y-1.9094
X7.0472Y-2.7362
X5.4331Y-1.9094
X7.0472Y-3.563
X4.1929Y-3.2047
X5.4331Y-2.7362
X4.1929Y-4.0315
X5.4331Y-3.563
X5.8071Y-2.378
X5.8071Y-4.0315
X5.8071Y-3.2047
T0
M30
