G04 #@! TF.GenerationSoftware,KiCad,Pcbnew,5.0.2-bee76a0~70~ubuntu18.04.1*
G04 #@! TF.CreationDate,2020-02-26T15:26:05+01:00*
G04 #@! TF.ProjectId,output.rs485_usb_adapter_panel,6f757470-7574-42e7-9273-3438355f7573,rev?*
G04 #@! TF.SameCoordinates,Original*
G04 #@! TF.FileFunction,Profile,NP*
%FSLAX46Y46*%
G04 Gerber Fmt 4.6, Leading zero omitted, Abs format (unit mm)*
G04 Created by KiCad (PCBNEW 5.0.2-bee76a0~70~ubuntu18.04.1) date Wed 26 Feb 2020 03:26:05 PM CET*
%MOMM*%
%LPD*%
G01*
G04 APERTURE LIST*
%ADD10C,0.150000*%
%ADD11C,0.100000*%
G04 APERTURE END LIST*
D10*
X99000000Y-110000000D02*
X99000000Y-41000000D01*
X187000000Y-110000000D02*
X99000000Y-110000000D01*
X187000000Y-41000000D02*
X187000000Y-110000000D01*
X99000000Y-41000000D02*
X187000000Y-41000000D01*
X145100000Y-104900000D02*
X145100000Y-87900000D01*
X145100000Y-83900000D02*
X145100000Y-66900000D01*
X145100000Y-62900000D02*
X145100000Y-45900000D01*
X141200000Y-87900000D02*
X141200000Y-104900000D01*
X141200000Y-66900000D02*
X141200000Y-83900000D01*
X141200000Y-45900000D02*
X141200000Y-62900000D01*
D11*
X166499998Y-62900000D02*
X182200000Y-62900000D01*
X161500002Y-62900000D02*
X145100000Y-62900000D01*
X161500002Y-66900000D02*
X145100000Y-66900000D01*
X166499998Y-66900000D02*
X182200000Y-66900000D01*
X161500002Y-66900000D02*
X161599706Y-66892313D01*
X161500002Y-62900000D02*
X161599706Y-62907687D01*
X161599706Y-66892313D02*
X161698524Y-66876985D01*
X161599706Y-62907687D02*
X161698524Y-62923015D01*
X161698524Y-66876985D02*
X161795871Y-66854107D01*
X161698524Y-62923015D02*
X161795871Y-62945893D01*
X161795871Y-66854107D02*
X161891171Y-66823814D01*
X161795871Y-62945893D02*
X161891171Y-62976186D01*
X161891171Y-66823814D02*
X161983861Y-66786285D01*
X161891171Y-62976186D02*
X161983861Y-63013715D01*
X161983861Y-66786285D02*
X162073392Y-66741742D01*
X161983861Y-63013715D02*
X162073392Y-63058258D01*
X162073392Y-66741742D02*
X162159234Y-66690449D01*
X162073392Y-63058258D02*
X162159234Y-63109551D01*
X162159234Y-66690449D02*
X162240879Y-66632709D01*
X162159234Y-63109551D02*
X162240879Y-63167291D01*
X162240879Y-66632709D02*
X162317844Y-66568864D01*
X162240879Y-63167291D02*
X162317844Y-63231136D01*
X162317844Y-66568864D02*
X162389674Y-66499292D01*
X162317844Y-63231136D02*
X162389674Y-63300708D01*
X162389674Y-66499292D02*
X162455944Y-66424405D01*
X162389674Y-63300708D02*
X162455944Y-63375595D01*
X162455944Y-66424405D02*
X162516262Y-66344646D01*
X162455944Y-63375595D02*
X162516262Y-63455354D01*
X162516262Y-66344646D02*
X162570271Y-66260487D01*
X162516262Y-63455354D02*
X162570271Y-63539513D01*
X162570271Y-66260487D02*
X162617651Y-66172426D01*
X162570271Y-63539513D02*
X162617651Y-63627574D01*
X162617651Y-66172426D02*
X162658122Y-66080984D01*
X162617651Y-63627574D02*
X162658122Y-63719016D01*
X162658122Y-66080984D02*
X162691444Y-65986702D01*
X162658122Y-63719016D02*
X162691444Y-63813298D01*
X162691444Y-65986702D02*
X162717420Y-65890138D01*
X162691444Y-63813298D02*
X162717420Y-63909862D01*
X162717420Y-65890138D02*
X162735897Y-65791863D01*
X162717420Y-63909862D02*
X162735897Y-64008137D01*
X162735897Y-65791863D02*
X162746765Y-65692458D01*
X162735897Y-64008137D02*
X162746765Y-64107542D01*
X162746765Y-65692458D02*
X162749960Y-65592512D01*
X162746765Y-64107542D02*
X162749960Y-64207488D01*
X162749960Y-64207488D02*
X162749960Y-65592512D01*
X166499998Y-66900000D02*
X166400294Y-66892313D01*
X166499998Y-62900000D02*
X166400294Y-62907687D01*
X166400294Y-66892313D02*
X166301476Y-66876985D01*
X166400294Y-62907687D02*
X166301476Y-62923015D01*
X166301476Y-66876985D02*
X166204129Y-66854107D01*
X166301476Y-62923015D02*
X166204129Y-62945893D01*
X166204129Y-66854107D02*
X166108829Y-66823814D01*
X166204129Y-62945893D02*
X166108829Y-62976186D01*
X166108829Y-66823814D02*
X166016139Y-66786285D01*
X166108829Y-62976186D02*
X166016139Y-63013715D01*
X166016139Y-66786285D02*
X165926608Y-66741742D01*
X166016139Y-63013715D02*
X165926608Y-63058258D01*
X165926608Y-66741742D02*
X165840766Y-66690449D01*
X165926608Y-63058258D02*
X165840766Y-63109551D01*
X165840766Y-66690449D02*
X165759121Y-66632709D01*
X165840766Y-63109551D02*
X165759121Y-63167291D01*
X165759121Y-66632709D02*
X165682156Y-66568864D01*
X165759121Y-63167291D02*
X165682156Y-63231136D01*
X165682156Y-66568864D02*
X165610326Y-66499292D01*
X165682156Y-63231136D02*
X165610326Y-63300708D01*
X165610326Y-66499292D02*
X165544056Y-66424405D01*
X165610326Y-63300708D02*
X165544056Y-63375595D01*
X165544056Y-66424405D02*
X165483738Y-66344646D01*
X165544056Y-63375595D02*
X165483738Y-63455354D01*
X165483738Y-66344646D02*
X165429729Y-66260487D01*
X165483738Y-63455354D02*
X165429729Y-63539513D01*
X165429729Y-66260487D02*
X165382349Y-66172426D01*
X165429729Y-63539513D02*
X165382349Y-63627574D01*
X165382349Y-66172426D02*
X165341878Y-66080984D01*
X165382349Y-63627574D02*
X165341878Y-63719016D01*
X165341878Y-66080984D02*
X165308556Y-65986702D01*
X165341878Y-63719016D02*
X165308556Y-63813298D01*
X165308556Y-65986702D02*
X165282580Y-65890138D01*
X165308556Y-63813298D02*
X165282580Y-63909862D01*
X165282580Y-65890138D02*
X165264103Y-65791863D01*
X165282580Y-63909862D02*
X165264103Y-64008137D01*
X165264103Y-65791863D02*
X165253235Y-65692458D01*
X165264103Y-64008137D02*
X165253235Y-64107542D01*
X165253235Y-65692458D02*
X165250040Y-65592512D01*
X165253235Y-64107542D02*
X165250040Y-64207488D01*
X165250040Y-64207488D02*
X165250040Y-65592512D01*
X124499985Y-104900000D02*
X141200000Y-104900000D01*
X119499997Y-104900000D02*
X104100000Y-104900000D01*
X119500002Y-108000000D02*
X101000000Y-108000000D01*
X119500002Y-108000000D02*
X119599706Y-107992313D01*
X119499997Y-104900000D02*
X119599701Y-104907687D01*
X119599706Y-107992313D02*
X119698524Y-107976985D01*
X119599701Y-104907687D02*
X119698519Y-104923015D01*
X119698524Y-107976985D02*
X119795871Y-107954107D01*
X119698519Y-104923015D02*
X119795866Y-104945893D01*
X119795871Y-107954107D02*
X119891171Y-107923814D01*
X119795866Y-104945893D02*
X119891166Y-104976186D01*
X119891171Y-107923814D02*
X119983861Y-107886285D01*
X119891166Y-104976186D02*
X119983856Y-105013715D01*
X119983861Y-107886285D02*
X120073392Y-107841742D01*
X119983856Y-105013715D02*
X120073387Y-105058258D01*
X120073392Y-107841742D02*
X120159234Y-107790449D01*
X120073387Y-105058258D02*
X120159229Y-105109551D01*
X120159234Y-107790449D02*
X120240879Y-107732709D01*
X120159229Y-105109551D02*
X120240874Y-105167291D01*
X120240879Y-107732709D02*
X120317844Y-107668864D01*
X120240874Y-105167291D02*
X120317839Y-105231136D01*
X120317844Y-107668864D02*
X120389674Y-107599292D01*
X120317839Y-105231136D02*
X120389669Y-105300708D01*
X120389674Y-107599292D02*
X120455944Y-107524405D01*
X120389669Y-105300708D02*
X120455939Y-105375595D01*
X120455944Y-107524405D02*
X120516262Y-107444646D01*
X120455939Y-105375595D02*
X120516257Y-105455354D01*
X120516262Y-107444646D02*
X120570271Y-107360487D01*
X120516257Y-105455354D02*
X120570266Y-105539513D01*
X120570271Y-107360487D02*
X120617651Y-107272426D01*
X120570266Y-105539513D02*
X120617646Y-105627574D01*
X120617651Y-107272426D02*
X120658122Y-107180984D01*
X120617646Y-105627574D02*
X120658117Y-105719016D01*
X120658122Y-107180984D02*
X120691444Y-107086702D01*
X120658117Y-105719016D02*
X120691439Y-105813298D01*
X120691444Y-107086702D02*
X120717420Y-106990138D01*
X120691439Y-105813298D02*
X120717415Y-105909862D01*
X120717420Y-106990138D02*
X120735897Y-106891863D01*
X120717415Y-105909862D02*
X120735892Y-106008137D01*
X120735897Y-106891863D02*
X120746765Y-106792458D01*
X120735892Y-106008137D02*
X120746760Y-106107542D01*
X120746765Y-106792458D02*
X120749960Y-106692512D01*
X120746760Y-106107542D02*
X120749955Y-106207488D01*
X120749955Y-106207488D02*
X120749960Y-106692512D01*
X124499985Y-104900000D02*
X124400281Y-104907687D01*
X124499998Y-108000000D02*
X124400294Y-107992313D01*
X124400281Y-104907687D02*
X124301463Y-104923015D01*
X124400294Y-107992313D02*
X124301476Y-107976985D01*
X124301463Y-104923015D02*
X124204116Y-104945893D01*
X124301476Y-107976985D02*
X124204129Y-107954107D01*
X124204116Y-104945893D02*
X124108816Y-104976186D01*
X124204129Y-107954107D02*
X124108829Y-107923814D01*
X124108816Y-104976186D02*
X124016126Y-105013715D01*
X124108829Y-107923814D02*
X124016139Y-107886285D01*
X124016126Y-105013715D02*
X123926595Y-105058258D01*
X124016139Y-107886285D02*
X123926608Y-107841742D01*
X123926595Y-105058258D02*
X123840753Y-105109551D01*
X123926608Y-107841742D02*
X123840766Y-107790449D01*
X123840753Y-105109551D02*
X123759108Y-105167291D01*
X123840766Y-107790449D02*
X123759121Y-107732709D01*
X123759108Y-105167291D02*
X123682143Y-105231136D01*
X123759121Y-107732709D02*
X123682156Y-107668864D01*
X123682143Y-105231136D02*
X123610313Y-105300708D01*
X123682156Y-107668864D02*
X123610326Y-107599292D01*
X123610313Y-105300708D02*
X123544043Y-105375595D01*
X123610326Y-107599292D02*
X123544056Y-107524405D01*
X123544043Y-105375595D02*
X123483725Y-105455354D01*
X123544056Y-107524405D02*
X123483738Y-107444646D01*
X123483725Y-105455354D02*
X123429716Y-105539513D01*
X123483738Y-107444646D02*
X123429729Y-107360487D01*
X123429716Y-105539513D02*
X123382336Y-105627574D01*
X123429729Y-107360487D02*
X123382349Y-107272426D01*
X123382336Y-105627574D02*
X123341865Y-105719016D01*
X123382349Y-107272426D02*
X123341878Y-107180984D01*
X123341865Y-105719016D02*
X123308543Y-105813298D01*
X123341878Y-107180984D02*
X123308556Y-107086702D01*
X123308543Y-105813298D02*
X123282567Y-105909862D01*
X123308556Y-107086702D02*
X123282580Y-106990138D01*
X123282567Y-105909862D02*
X123264090Y-106008137D01*
X123282580Y-106990138D02*
X123264103Y-106891863D01*
X123264090Y-106008137D02*
X123253222Y-106107542D01*
X123264103Y-106891863D02*
X123253235Y-106792458D01*
X123253222Y-106107542D02*
X123250027Y-106207488D01*
X123253235Y-106792458D02*
X123250040Y-106692512D01*
X123250027Y-106207488D02*
X123250040Y-106692512D01*
X166499998Y-104900000D02*
X182200000Y-104900000D01*
X161500002Y-104900000D02*
X145100000Y-104900000D01*
X161500045Y-108000000D02*
X124499998Y-108000000D01*
X166499998Y-108000000D02*
X185000000Y-108000000D01*
X161500045Y-108000000D02*
X161599749Y-107992313D01*
X161500002Y-104900000D02*
X161599706Y-104907687D01*
X161599749Y-107992313D02*
X161698567Y-107976985D01*
X161599706Y-104907687D02*
X161698524Y-104923015D01*
X161698567Y-107976985D02*
X161795914Y-107954107D01*
X161698524Y-104923015D02*
X161795871Y-104945893D01*
X161795914Y-107954107D02*
X161891214Y-107923814D01*
X161795871Y-104945893D02*
X161891171Y-104976186D01*
X161891214Y-107923814D02*
X161983904Y-107886285D01*
X161891171Y-104976186D02*
X161983861Y-105013715D01*
X161983904Y-107886285D02*
X162073435Y-107841742D01*
X161983861Y-105013715D02*
X162073392Y-105058258D01*
X162073435Y-107841742D02*
X162159277Y-107790449D01*
X162073392Y-105058258D02*
X162159234Y-105109551D01*
X162159277Y-107790449D02*
X162240922Y-107732709D01*
X162159234Y-105109551D02*
X162240879Y-105167291D01*
X162240922Y-107732709D02*
X162317887Y-107668864D01*
X162240879Y-105167291D02*
X162317844Y-105231136D01*
X162317887Y-107668864D02*
X162389717Y-107599292D01*
X162317844Y-105231136D02*
X162389674Y-105300708D01*
X162389717Y-107599292D02*
X162455987Y-107524405D01*
X162389674Y-105300708D02*
X162455944Y-105375595D01*
X162455987Y-107524405D02*
X162516305Y-107444646D01*
X162455944Y-105375595D02*
X162516262Y-105455354D01*
X162516305Y-107444646D02*
X162570314Y-107360487D01*
X162516262Y-105455354D02*
X162570271Y-105539513D01*
X162570314Y-107360487D02*
X162617694Y-107272426D01*
X162570271Y-105539513D02*
X162617651Y-105627574D01*
X162617694Y-107272426D02*
X162658165Y-107180984D01*
X162617651Y-105627574D02*
X162658122Y-105719016D01*
X162658165Y-107180984D02*
X162691487Y-107086702D01*
X162658122Y-105719016D02*
X162691444Y-105813298D01*
X162691487Y-107086702D02*
X162717463Y-106990138D01*
X162691444Y-105813298D02*
X162717420Y-105909862D01*
X162717463Y-106990138D02*
X162735940Y-106891863D01*
X162717420Y-105909862D02*
X162735897Y-106008137D01*
X162735940Y-106891863D02*
X162746808Y-106792458D01*
X162735897Y-106008137D02*
X162746765Y-106107542D01*
X162746808Y-106792458D02*
X162750003Y-106692512D01*
X162746765Y-106107542D02*
X162749960Y-106207488D01*
X162749960Y-106207488D02*
X162750003Y-106692512D01*
X166499998Y-108000000D02*
X166400294Y-107992313D01*
X166499998Y-104900000D02*
X166400294Y-104907687D01*
X166400294Y-107992313D02*
X166301476Y-107976985D01*
X166400294Y-104907687D02*
X166301476Y-104923015D01*
X166301476Y-107976985D02*
X166204129Y-107954107D01*
X166301476Y-104923015D02*
X166204129Y-104945893D01*
X166204129Y-107954107D02*
X166108829Y-107923814D01*
X166204129Y-104945893D02*
X166108829Y-104976186D01*
X166108829Y-107923814D02*
X166016139Y-107886285D01*
X166108829Y-104976186D02*
X166016139Y-105013715D01*
X166016139Y-107886285D02*
X165926608Y-107841742D01*
X166016139Y-105013715D02*
X165926608Y-105058258D01*
X165926608Y-107841742D02*
X165840766Y-107790449D01*
X165926608Y-105058258D02*
X165840766Y-105109551D01*
X165840766Y-107790449D02*
X165759121Y-107732709D01*
X165840766Y-105109551D02*
X165759121Y-105167291D01*
X165759121Y-107732709D02*
X165682156Y-107668864D01*
X165759121Y-105167291D02*
X165682156Y-105231136D01*
X165682156Y-107668864D02*
X165610326Y-107599292D01*
X165682156Y-105231136D02*
X165610326Y-105300708D01*
X165610326Y-107599292D02*
X165544056Y-107524405D01*
X165610326Y-105300708D02*
X165544056Y-105375595D01*
X165544056Y-107524405D02*
X165483738Y-107444646D01*
X165544056Y-105375595D02*
X165483738Y-105455354D01*
X165483738Y-107444646D02*
X165429729Y-107360487D01*
X165483738Y-105455354D02*
X165429729Y-105539513D01*
X165429729Y-107360487D02*
X165382349Y-107272426D01*
X165429729Y-105539513D02*
X165382349Y-105627574D01*
X165382349Y-107272426D02*
X165341878Y-107180984D01*
X165382349Y-105627574D02*
X165341878Y-105719016D01*
X165341878Y-107180984D02*
X165308556Y-107086702D01*
X165341878Y-105719016D02*
X165308556Y-105813298D01*
X165308556Y-107086702D02*
X165282580Y-106990138D01*
X165308556Y-105813298D02*
X165282580Y-105909862D01*
X165282580Y-106990138D02*
X165264103Y-106891863D01*
X165282580Y-105909862D02*
X165264103Y-106008137D01*
X165264103Y-106891863D02*
X165253235Y-106792458D01*
X165264103Y-106008137D02*
X165253235Y-106107542D01*
X165253235Y-106792458D02*
X165250040Y-106692512D01*
X165253235Y-106107542D02*
X165250040Y-106207488D01*
X165250040Y-106207488D02*
X165250040Y-106692512D01*
X161500002Y-87900000D02*
X145100000Y-87900000D01*
X166499998Y-87900000D02*
X182200000Y-87900000D01*
X166499998Y-83900000D02*
X182200000Y-83900000D01*
X161500002Y-83900000D02*
X145100000Y-83900000D01*
X166499998Y-83900000D02*
X166400294Y-83907687D01*
X166499998Y-87900000D02*
X166400294Y-87892313D01*
X166400294Y-83907687D02*
X166301476Y-83923015D01*
X166400294Y-87892313D02*
X166301476Y-87876985D01*
X166301476Y-83923015D02*
X166204129Y-83945893D01*
X166301476Y-87876985D02*
X166204129Y-87854107D01*
X166204129Y-83945893D02*
X166108829Y-83976186D01*
X166204129Y-87854107D02*
X166108829Y-87823814D01*
X166108829Y-83976186D02*
X166016139Y-84013715D01*
X166108829Y-87823814D02*
X166016139Y-87786285D01*
X166016139Y-84013715D02*
X165926608Y-84058258D01*
X166016139Y-87786285D02*
X165926608Y-87741742D01*
X165926608Y-84058258D02*
X165840766Y-84109551D01*
X165926608Y-87741742D02*
X165840766Y-87690449D01*
X165840766Y-84109551D02*
X165759121Y-84167291D01*
X165840766Y-87690449D02*
X165759121Y-87632709D01*
X165759121Y-84167291D02*
X165682156Y-84231136D01*
X165759121Y-87632709D02*
X165682156Y-87568864D01*
X165682156Y-84231136D02*
X165610326Y-84300708D01*
X165682156Y-87568864D02*
X165610326Y-87499292D01*
X165610326Y-84300708D02*
X165544056Y-84375595D01*
X165610326Y-87499292D02*
X165544056Y-87424405D01*
X165544056Y-84375595D02*
X165483738Y-84455354D01*
X165544056Y-87424405D02*
X165483738Y-87344646D01*
X165483738Y-84455354D02*
X165429729Y-84539513D01*
X165483738Y-87344646D02*
X165429729Y-87260487D01*
X165429729Y-84539513D02*
X165382349Y-84627574D01*
X165429729Y-87260487D02*
X165382349Y-87172426D01*
X165382349Y-84627574D02*
X165341878Y-84719016D01*
X165382349Y-87172426D02*
X165341878Y-87080984D01*
X165341878Y-84719016D02*
X165308556Y-84813298D01*
X165341878Y-87080984D02*
X165308556Y-86986702D01*
X165308556Y-84813298D02*
X165282580Y-84909862D01*
X165308556Y-86986702D02*
X165282580Y-86890138D01*
X165282580Y-84909862D02*
X165264103Y-85008137D01*
X165282580Y-86890138D02*
X165264103Y-86791863D01*
X165264103Y-85008137D02*
X165253235Y-85107542D01*
X165264103Y-86791863D02*
X165253235Y-86692458D01*
X165253235Y-85107542D02*
X165250040Y-85207488D01*
X165253235Y-86692458D02*
X165250040Y-86592512D01*
X165250040Y-86592512D02*
X165250040Y-85207488D01*
X161500002Y-83900000D02*
X161599706Y-83907687D01*
X161500002Y-87900000D02*
X161599706Y-87892313D01*
X161599706Y-83907687D02*
X161698524Y-83923015D01*
X161599706Y-87892313D02*
X161698524Y-87876985D01*
X161698524Y-83923015D02*
X161795871Y-83945893D01*
X161698524Y-87876985D02*
X161795871Y-87854107D01*
X161795871Y-83945893D02*
X161891171Y-83976186D01*
X161795871Y-87854107D02*
X161891171Y-87823814D01*
X161891171Y-83976186D02*
X161983861Y-84013715D01*
X161891171Y-87823814D02*
X161983861Y-87786285D01*
X161983861Y-84013715D02*
X162073392Y-84058258D01*
X161983861Y-87786285D02*
X162073392Y-87741742D01*
X162073392Y-84058258D02*
X162159234Y-84109551D01*
X162073392Y-87741742D02*
X162159234Y-87690449D01*
X162159234Y-84109551D02*
X162240879Y-84167291D01*
X162159234Y-87690449D02*
X162240879Y-87632709D01*
X162240879Y-84167291D02*
X162317844Y-84231136D01*
X162240879Y-87632709D02*
X162317844Y-87568864D01*
X162317844Y-84231136D02*
X162389674Y-84300708D01*
X162317844Y-87568864D02*
X162389674Y-87499292D01*
X162389674Y-84300708D02*
X162455944Y-84375595D01*
X162389674Y-87499292D02*
X162455944Y-87424405D01*
X162455944Y-84375595D02*
X162516262Y-84455354D01*
X162455944Y-87424405D02*
X162516262Y-87344646D01*
X162516262Y-84455354D02*
X162570271Y-84539513D01*
X162516262Y-87344646D02*
X162570271Y-87260487D01*
X162570271Y-84539513D02*
X162617651Y-84627574D01*
X162570271Y-87260487D02*
X162617651Y-87172426D01*
X162617651Y-84627574D02*
X162658122Y-84719016D01*
X162617651Y-87172426D02*
X162658122Y-87080984D01*
X162658122Y-84719016D02*
X162691444Y-84813298D01*
X162658122Y-87080984D02*
X162691444Y-86986702D01*
X162691444Y-84813298D02*
X162717420Y-84909862D01*
X162691444Y-86986702D02*
X162717420Y-86890138D01*
X162717420Y-84909862D02*
X162735897Y-85008137D01*
X162717420Y-86890138D02*
X162735897Y-86791863D01*
X162735897Y-85008137D02*
X162746765Y-85107542D01*
X162735897Y-86791863D02*
X162746765Y-86692458D01*
X162746765Y-85107542D02*
X162749960Y-85207488D01*
X162746765Y-86692458D02*
X162749960Y-86592512D01*
X162749960Y-86592512D02*
X162749960Y-85207488D01*
X124499985Y-83900000D02*
X141200000Y-83900000D01*
X119499997Y-83900000D02*
X104100000Y-83900000D01*
X119499997Y-87900000D02*
X104100000Y-87900000D01*
X124499985Y-87900000D02*
X141200000Y-87900000D01*
X119499997Y-87900000D02*
X119599701Y-87892313D01*
X119499997Y-83900000D02*
X119599701Y-83907687D01*
X119599701Y-87892313D02*
X119698519Y-87876985D01*
X119599701Y-83907687D02*
X119698519Y-83923015D01*
X119698519Y-87876985D02*
X119795866Y-87854107D01*
X119698519Y-83923015D02*
X119795866Y-83945893D01*
X119795866Y-87854107D02*
X119891166Y-87823814D01*
X119795866Y-83945893D02*
X119891166Y-83976186D01*
X119891166Y-87823814D02*
X119983856Y-87786285D01*
X119891166Y-83976186D02*
X119983856Y-84013715D01*
X119983856Y-87786285D02*
X120073387Y-87741742D01*
X119983856Y-84013715D02*
X120073387Y-84058258D01*
X120073387Y-87741742D02*
X120159229Y-87690449D01*
X120073387Y-84058258D02*
X120159229Y-84109551D01*
X120159229Y-87690449D02*
X120240874Y-87632709D01*
X120159229Y-84109551D02*
X120240874Y-84167291D01*
X120240874Y-87632709D02*
X120317839Y-87568864D01*
X120240874Y-84167291D02*
X120317839Y-84231136D01*
X120317839Y-87568864D02*
X120389669Y-87499292D01*
X120317839Y-84231136D02*
X120389669Y-84300708D01*
X120389669Y-87499292D02*
X120455939Y-87424405D01*
X120389669Y-84300708D02*
X120455939Y-84375595D01*
X120455939Y-87424405D02*
X120516257Y-87344646D01*
X120455939Y-84375595D02*
X120516257Y-84455354D01*
X120516257Y-87344646D02*
X120570266Y-87260487D01*
X120516257Y-84455354D02*
X120570266Y-84539513D01*
X120570266Y-87260487D02*
X120617646Y-87172426D01*
X120570266Y-84539513D02*
X120617646Y-84627574D01*
X120617646Y-87172426D02*
X120658117Y-87080984D01*
X120617646Y-84627574D02*
X120658117Y-84719016D01*
X120658117Y-87080984D02*
X120691439Y-86986702D01*
X120658117Y-84719016D02*
X120691439Y-84813298D01*
X120691439Y-86986702D02*
X120717415Y-86890138D01*
X120691439Y-84813298D02*
X120717415Y-84909862D01*
X120717415Y-86890138D02*
X120735892Y-86791863D01*
X120717415Y-84909862D02*
X120735892Y-85008137D01*
X120735892Y-86791863D02*
X120746760Y-86692458D01*
X120735892Y-85008137D02*
X120746760Y-85107542D01*
X120746760Y-86692458D02*
X120749955Y-86592512D01*
X120746760Y-85107542D02*
X120749955Y-85207488D01*
X120749955Y-85207488D02*
X120749955Y-86592512D01*
X124499985Y-87900000D02*
X124400281Y-87892313D01*
X124499985Y-83900000D02*
X124400281Y-83907687D01*
X124400281Y-87892313D02*
X124301463Y-87876985D01*
X124400281Y-83907687D02*
X124301463Y-83923015D01*
X124301463Y-87876985D02*
X124204116Y-87854107D01*
X124301463Y-83923015D02*
X124204116Y-83945893D01*
X124204116Y-87854107D02*
X124108816Y-87823814D01*
X124204116Y-83945893D02*
X124108816Y-83976186D01*
X124108816Y-87823814D02*
X124016126Y-87786285D01*
X124108816Y-83976186D02*
X124016126Y-84013715D01*
X124016126Y-87786285D02*
X123926595Y-87741742D01*
X124016126Y-84013715D02*
X123926595Y-84058258D01*
X123926595Y-87741742D02*
X123840753Y-87690449D01*
X123926595Y-84058258D02*
X123840753Y-84109551D01*
X123840753Y-87690449D02*
X123759108Y-87632709D01*
X123840753Y-84109551D02*
X123759108Y-84167291D01*
X123759108Y-87632709D02*
X123682143Y-87568864D01*
X123759108Y-84167291D02*
X123682143Y-84231136D01*
X123682143Y-87568864D02*
X123610313Y-87499292D01*
X123682143Y-84231136D02*
X123610313Y-84300708D01*
X123610313Y-87499292D02*
X123544043Y-87424405D01*
X123610313Y-84300708D02*
X123544043Y-84375595D01*
X123544043Y-87424405D02*
X123483725Y-87344646D01*
X123544043Y-84375595D02*
X123483725Y-84455354D01*
X123483725Y-87344646D02*
X123429716Y-87260487D01*
X123483725Y-84455354D02*
X123429716Y-84539513D01*
X123429716Y-87260487D02*
X123382336Y-87172426D01*
X123429716Y-84539513D02*
X123382336Y-84627574D01*
X123382336Y-87172426D02*
X123341865Y-87080984D01*
X123382336Y-84627574D02*
X123341865Y-84719016D01*
X123341865Y-87080984D02*
X123308543Y-86986702D01*
X123341865Y-84719016D02*
X123308543Y-84813298D01*
X123308543Y-86986702D02*
X123282567Y-86890138D01*
X123308543Y-84813298D02*
X123282567Y-84909862D01*
X123282567Y-86890138D02*
X123264090Y-86791863D01*
X123282567Y-84909862D02*
X123264090Y-85008137D01*
X123264090Y-86791863D02*
X123253222Y-86692458D01*
X123264090Y-85008137D02*
X123253222Y-85107542D01*
X123253222Y-86692458D02*
X123250027Y-86592512D01*
X123253222Y-85107542D02*
X123250027Y-85207488D01*
X123250027Y-85207488D02*
X123250027Y-86592512D01*
X124499985Y-62900000D02*
X141200000Y-62900000D01*
X119499997Y-62900000D02*
X104100000Y-62900000D01*
X119499997Y-66900000D02*
X104100000Y-66900000D01*
X124499985Y-66900000D02*
X141200000Y-66900000D01*
X119499997Y-66900000D02*
X119599701Y-66892313D01*
X119499997Y-62900000D02*
X119599701Y-62907687D01*
X119599701Y-66892313D02*
X119698519Y-66876985D01*
X119599701Y-62907687D02*
X119698519Y-62923015D01*
X119698519Y-66876985D02*
X119795866Y-66854107D01*
X119698519Y-62923015D02*
X119795866Y-62945893D01*
X119795866Y-66854107D02*
X119891166Y-66823814D01*
X119795866Y-62945893D02*
X119891166Y-62976186D01*
X119891166Y-66823814D02*
X119983856Y-66786285D01*
X119891166Y-62976186D02*
X119983856Y-63013715D01*
X119983856Y-66786285D02*
X120073387Y-66741742D01*
X119983856Y-63013715D02*
X120073387Y-63058258D01*
X120073387Y-66741742D02*
X120159229Y-66690449D01*
X120073387Y-63058258D02*
X120159229Y-63109551D01*
X120159229Y-66690449D02*
X120240874Y-66632709D01*
X120159229Y-63109551D02*
X120240874Y-63167291D01*
X120240874Y-66632709D02*
X120317839Y-66568864D01*
X120240874Y-63167291D02*
X120317839Y-63231136D01*
X120317839Y-66568864D02*
X120389669Y-66499292D01*
X120317839Y-63231136D02*
X120389669Y-63300708D01*
X120389669Y-66499292D02*
X120455939Y-66424405D01*
X120389669Y-63300708D02*
X120455939Y-63375595D01*
X120455939Y-66424405D02*
X120516257Y-66344646D01*
X120455939Y-63375595D02*
X120516257Y-63455354D01*
X120516257Y-66344646D02*
X120570266Y-66260487D01*
X120516257Y-63455354D02*
X120570266Y-63539513D01*
X120570266Y-66260487D02*
X120617646Y-66172426D01*
X120570266Y-63539513D02*
X120617646Y-63627574D01*
X120617646Y-66172426D02*
X120658117Y-66080984D01*
X120617646Y-63627574D02*
X120658117Y-63719016D01*
X120658117Y-66080984D02*
X120691439Y-65986702D01*
X120658117Y-63719016D02*
X120691439Y-63813298D01*
X120691439Y-65986702D02*
X120717415Y-65890138D01*
X120691439Y-63813298D02*
X120717415Y-63909862D01*
X120717415Y-65890138D02*
X120735892Y-65791863D01*
X120717415Y-63909862D02*
X120735892Y-64008137D01*
X120735892Y-65791863D02*
X120746760Y-65692458D01*
X120735892Y-64008137D02*
X120746760Y-64107542D01*
X120746760Y-65692458D02*
X120749955Y-65592512D01*
X120746760Y-64107542D02*
X120749955Y-64207488D01*
X120749955Y-64207488D02*
X120749955Y-65592512D01*
X124499985Y-66900000D02*
X124400281Y-66892313D01*
X124499985Y-62900000D02*
X124400281Y-62907687D01*
X124400281Y-66892313D02*
X124301463Y-66876985D01*
X124400281Y-62907687D02*
X124301463Y-62923015D01*
X124301463Y-66876985D02*
X124204116Y-66854107D01*
X124301463Y-62923015D02*
X124204116Y-62945893D01*
X124204116Y-66854107D02*
X124108816Y-66823814D01*
X124204116Y-62945893D02*
X124108816Y-62976186D01*
X124108816Y-66823814D02*
X124016126Y-66786285D01*
X124108816Y-62976186D02*
X124016126Y-63013715D01*
X124016126Y-66786285D02*
X123926595Y-66741742D01*
X124016126Y-63013715D02*
X123926595Y-63058258D01*
X123926595Y-66741742D02*
X123840753Y-66690449D01*
X123926595Y-63058258D02*
X123840753Y-63109551D01*
X123840753Y-66690449D02*
X123759108Y-66632709D01*
X123840753Y-63109551D02*
X123759108Y-63167291D01*
X123759108Y-66632709D02*
X123682143Y-66568864D01*
X123759108Y-63167291D02*
X123682143Y-63231136D01*
X123682143Y-66568864D02*
X123610313Y-66499292D01*
X123682143Y-63231136D02*
X123610313Y-63300708D01*
X123610313Y-66499292D02*
X123544043Y-66424405D01*
X123610313Y-63300708D02*
X123544043Y-63375595D01*
X123544043Y-66424405D02*
X123483725Y-66344646D01*
X123544043Y-63375595D02*
X123483725Y-63455354D01*
X123483725Y-66344646D02*
X123429716Y-66260487D01*
X123483725Y-63455354D02*
X123429716Y-63539513D01*
X123429716Y-66260487D02*
X123382336Y-66172426D01*
X123429716Y-63539513D02*
X123382336Y-63627574D01*
X123382336Y-66172426D02*
X123341865Y-66080984D01*
X123382336Y-63627574D02*
X123341865Y-63719016D01*
X123341865Y-66080984D02*
X123308543Y-65986702D01*
X123341865Y-63719016D02*
X123308543Y-63813298D01*
X123308543Y-65986702D02*
X123282567Y-65890138D01*
X123308543Y-63813298D02*
X123282567Y-63909862D01*
X123282567Y-65890138D02*
X123264090Y-65791863D01*
X123282567Y-63909862D02*
X123264090Y-64008137D01*
X123264090Y-65791863D02*
X123253222Y-65692458D01*
X123264090Y-64008137D02*
X123253222Y-64107542D01*
X123253222Y-65692458D02*
X123250027Y-65592512D01*
X123253222Y-64107542D02*
X123250027Y-64207488D01*
X123250027Y-64207488D02*
X123250027Y-65592512D01*
X104100000Y-56500010D02*
X104100000Y-62900000D01*
X104100000Y-51499995D02*
X104100000Y-45900000D01*
X101000000Y-51500002D02*
X101000000Y-43000000D01*
X101000000Y-51500002D02*
X101007687Y-51599706D01*
X104100000Y-51499995D02*
X104092313Y-51599699D01*
X101007687Y-51599706D02*
X101023015Y-51698524D01*
X104092313Y-51599699D02*
X104076985Y-51698517D01*
X101023015Y-51698524D02*
X101045893Y-51795871D01*
X104076985Y-51698517D02*
X104054107Y-51795864D01*
X101045893Y-51795871D02*
X101076186Y-51891171D01*
X104054107Y-51795864D02*
X104023814Y-51891164D01*
X101076186Y-51891171D02*
X101113715Y-51983861D01*
X104023814Y-51891164D02*
X103986285Y-51983854D01*
X101113715Y-51983861D02*
X101158258Y-52073392D01*
X103986285Y-51983854D02*
X103941742Y-52073385D01*
X101158258Y-52073392D02*
X101209551Y-52159234D01*
X103941742Y-52073385D02*
X103890449Y-52159227D01*
X101209551Y-52159234D02*
X101267291Y-52240879D01*
X103890449Y-52159227D02*
X103832709Y-52240872D01*
X101267291Y-52240879D02*
X101331136Y-52317844D01*
X103832709Y-52240872D02*
X103768864Y-52317837D01*
X101331136Y-52317844D02*
X101400708Y-52389674D01*
X103768864Y-52317837D02*
X103699292Y-52389667D01*
X101400708Y-52389674D02*
X101475595Y-52455944D01*
X103699292Y-52389667D02*
X103624405Y-52455937D01*
X101475595Y-52455944D02*
X101555354Y-52516262D01*
X103624405Y-52455937D02*
X103544646Y-52516255D01*
X101555354Y-52516262D02*
X101639513Y-52570271D01*
X103544646Y-52516255D02*
X103460487Y-52570264D01*
X101639513Y-52570271D02*
X101727574Y-52617651D01*
X103460487Y-52570264D02*
X103372426Y-52617644D01*
X101727574Y-52617651D02*
X101819016Y-52658122D01*
X103372426Y-52617644D02*
X103280984Y-52658115D01*
X101819016Y-52658122D02*
X101913298Y-52691444D01*
X103280984Y-52658115D02*
X103186702Y-52691437D01*
X101913298Y-52691444D02*
X102009862Y-52717420D01*
X103186702Y-52691437D02*
X103090138Y-52717413D01*
X102009862Y-52717420D02*
X102108137Y-52735897D01*
X103090138Y-52717413D02*
X102991863Y-52735890D01*
X102108137Y-52735897D02*
X102207542Y-52746765D01*
X102991863Y-52735890D02*
X102892458Y-52746758D01*
X102207542Y-52746765D02*
X102307488Y-52749960D01*
X102892458Y-52746758D02*
X102792512Y-52749953D01*
X102792512Y-52749953D02*
X102307488Y-52749960D01*
X104100000Y-56500010D02*
X104092313Y-56400306D01*
X101000000Y-56500065D02*
X101007687Y-56400361D01*
X104092313Y-56400306D02*
X104076985Y-56301488D01*
X101007687Y-56400361D02*
X101023015Y-56301543D01*
X104076985Y-56301488D02*
X104054107Y-56204141D01*
X101023015Y-56301543D02*
X101045893Y-56204196D01*
X104054107Y-56204141D02*
X104023814Y-56108841D01*
X101045893Y-56204196D02*
X101076186Y-56108896D01*
X104023814Y-56108841D02*
X103986285Y-56016151D01*
X101076186Y-56108896D02*
X101113715Y-56016206D01*
X103986285Y-56016151D02*
X103941742Y-55926620D01*
X101113715Y-56016206D02*
X101158258Y-55926675D01*
X103941742Y-55926620D02*
X103890449Y-55840778D01*
X101158258Y-55926675D02*
X101209551Y-55840833D01*
X103890449Y-55840778D02*
X103832709Y-55759133D01*
X101209551Y-55840833D02*
X101267291Y-55759188D01*
X103832709Y-55759133D02*
X103768864Y-55682168D01*
X101267291Y-55759188D02*
X101331136Y-55682223D01*
X103768864Y-55682168D02*
X103699292Y-55610338D01*
X101331136Y-55682223D02*
X101400708Y-55610393D01*
X103699292Y-55610338D02*
X103624405Y-55544068D01*
X101400708Y-55610393D02*
X101475595Y-55544123D01*
X103624405Y-55544068D02*
X103544646Y-55483750D01*
X101475595Y-55544123D02*
X101555354Y-55483805D01*
X103544646Y-55483750D02*
X103460487Y-55429741D01*
X101555354Y-55483805D02*
X101639513Y-55429796D01*
X103460487Y-55429741D02*
X103372426Y-55382361D01*
X101639513Y-55429796D02*
X101727574Y-55382416D01*
X103372426Y-55382361D02*
X103280984Y-55341890D01*
X101727574Y-55382416D02*
X101819016Y-55341945D01*
X103280984Y-55341890D02*
X103186702Y-55308568D01*
X101819016Y-55341945D02*
X101913298Y-55308623D01*
X103186702Y-55308568D02*
X103090138Y-55282592D01*
X101913298Y-55308623D02*
X102009862Y-55282647D01*
X103090138Y-55282592D02*
X102991863Y-55264115D01*
X102009862Y-55282647D02*
X102108137Y-55264170D01*
X102991863Y-55264115D02*
X102892458Y-55253247D01*
X102108137Y-55264170D02*
X102207542Y-55253302D01*
X102892458Y-55253247D02*
X102792512Y-55250052D01*
X102207542Y-55253302D02*
X102307488Y-55250107D01*
X102792512Y-55250052D02*
X102307488Y-55250107D01*
X104100000Y-78499995D02*
X104100000Y-83900000D01*
X104100000Y-73500002D02*
X104100000Y-66900000D01*
X101000000Y-73500010D02*
X101000000Y-56500065D01*
X101000000Y-73500010D02*
X101007687Y-73599714D01*
X104100000Y-73500002D02*
X104092313Y-73599706D01*
X101007687Y-73599714D02*
X101023015Y-73698532D01*
X104092313Y-73599706D02*
X104076985Y-73698524D01*
X101023015Y-73698532D02*
X101045893Y-73795879D01*
X104076985Y-73698524D02*
X104054107Y-73795871D01*
X101045893Y-73795879D02*
X101076186Y-73891179D01*
X104054107Y-73795871D02*
X104023814Y-73891171D01*
X101076186Y-73891179D02*
X101113715Y-73983869D01*
X104023814Y-73891171D02*
X103986285Y-73983861D01*
X101113715Y-73983869D02*
X101158258Y-74073400D01*
X103986285Y-73983861D02*
X103941742Y-74073392D01*
X101158258Y-74073400D02*
X101209551Y-74159242D01*
X103941742Y-74073392D02*
X103890449Y-74159234D01*
X101209551Y-74159242D02*
X101267291Y-74240887D01*
X103890449Y-74159234D02*
X103832709Y-74240879D01*
X101267291Y-74240887D02*
X101331136Y-74317852D01*
X103832709Y-74240879D02*
X103768864Y-74317844D01*
X101331136Y-74317852D02*
X101400708Y-74389682D01*
X103768864Y-74317844D02*
X103699292Y-74389674D01*
X101400708Y-74389682D02*
X101475595Y-74455952D01*
X103699292Y-74389674D02*
X103624405Y-74455944D01*
X101475595Y-74455952D02*
X101555354Y-74516270D01*
X103624405Y-74455944D02*
X103544646Y-74516262D01*
X101555354Y-74516270D02*
X101639513Y-74570279D01*
X103544646Y-74516262D02*
X103460487Y-74570271D01*
X101639513Y-74570279D02*
X101727574Y-74617659D01*
X103460487Y-74570271D02*
X103372426Y-74617651D01*
X101727574Y-74617659D02*
X101819016Y-74658130D01*
X103372426Y-74617651D02*
X103280984Y-74658122D01*
X101819016Y-74658130D02*
X101913298Y-74691452D01*
X103280984Y-74658122D02*
X103186702Y-74691444D01*
X101913298Y-74691452D02*
X102009862Y-74717428D01*
X103186702Y-74691444D02*
X103090138Y-74717420D01*
X102009862Y-74717428D02*
X102108137Y-74735905D01*
X103090138Y-74717420D02*
X102991863Y-74735897D01*
X102108137Y-74735905D02*
X102207542Y-74746773D01*
X102991863Y-74735897D02*
X102892458Y-74746765D01*
X102207542Y-74746773D02*
X102307488Y-74749968D01*
X102892458Y-74746765D02*
X102792512Y-74749960D01*
X102792512Y-74749960D02*
X102307488Y-74749968D01*
X104100000Y-78499995D02*
X104092313Y-78400291D01*
X101000000Y-78500000D02*
X101007687Y-78400296D01*
X104092313Y-78400291D02*
X104076985Y-78301473D01*
X101007687Y-78400296D02*
X101023015Y-78301478D01*
X104076985Y-78301473D02*
X104054107Y-78204126D01*
X101023015Y-78301478D02*
X101045893Y-78204131D01*
X104054107Y-78204126D02*
X104023814Y-78108826D01*
X101045893Y-78204131D02*
X101076186Y-78108831D01*
X104023814Y-78108826D02*
X103986285Y-78016136D01*
X101076186Y-78108831D02*
X101113715Y-78016141D01*
X103986285Y-78016136D02*
X103941742Y-77926605D01*
X101113715Y-78016141D02*
X101158258Y-77926610D01*
X103941742Y-77926605D02*
X103890449Y-77840763D01*
X101158258Y-77926610D02*
X101209551Y-77840768D01*
X103890449Y-77840763D02*
X103832709Y-77759118D01*
X101209551Y-77840768D02*
X101267291Y-77759123D01*
X103832709Y-77759118D02*
X103768864Y-77682153D01*
X101267291Y-77759123D02*
X101331136Y-77682158D01*
X103768864Y-77682153D02*
X103699292Y-77610323D01*
X101331136Y-77682158D02*
X101400708Y-77610328D01*
X103699292Y-77610323D02*
X103624405Y-77544053D01*
X101400708Y-77610328D02*
X101475595Y-77544058D01*
X103624405Y-77544053D02*
X103544646Y-77483735D01*
X101475595Y-77544058D02*
X101555354Y-77483740D01*
X103544646Y-77483735D02*
X103460487Y-77429726D01*
X101555354Y-77483740D02*
X101639513Y-77429731D01*
X103460487Y-77429726D02*
X103372426Y-77382346D01*
X101639513Y-77429731D02*
X101727574Y-77382351D01*
X103372426Y-77382346D02*
X103280984Y-77341875D01*
X101727574Y-77382351D02*
X101819016Y-77341880D01*
X103280984Y-77341875D02*
X103186702Y-77308553D01*
X101819016Y-77341880D02*
X101913298Y-77308558D01*
X103186702Y-77308553D02*
X103090138Y-77282577D01*
X101913298Y-77308558D02*
X102009862Y-77282582D01*
X103090138Y-77282577D02*
X102991863Y-77264100D01*
X102009862Y-77282582D02*
X102108137Y-77264105D01*
X102991863Y-77264100D02*
X102892458Y-77253232D01*
X102108137Y-77264105D02*
X102207542Y-77253237D01*
X102892458Y-77253232D02*
X102792512Y-77250037D01*
X102207542Y-77253237D02*
X102307488Y-77250042D01*
X102792512Y-77250037D02*
X102307488Y-77250042D01*
X104100000Y-99499995D02*
X104100000Y-104900000D01*
X104100000Y-94500002D02*
X104100000Y-87900000D01*
X101000000Y-94500002D02*
X101000000Y-78500000D01*
X101000000Y-99499998D02*
X101000000Y-108000000D01*
X101000000Y-94500002D02*
X101007687Y-94599706D01*
X104100000Y-94500002D02*
X104092313Y-94599706D01*
X101007687Y-94599706D02*
X101023015Y-94698524D01*
X104092313Y-94599706D02*
X104076985Y-94698524D01*
X101023015Y-94698524D02*
X101045893Y-94795871D01*
X104076985Y-94698524D02*
X104054107Y-94795871D01*
X101045893Y-94795871D02*
X101076186Y-94891171D01*
X104054107Y-94795871D02*
X104023814Y-94891171D01*
X101076186Y-94891171D02*
X101113715Y-94983861D01*
X104023814Y-94891171D02*
X103986285Y-94983861D01*
X101113715Y-94983861D02*
X101158258Y-95073392D01*
X103986285Y-94983861D02*
X103941742Y-95073392D01*
X101158258Y-95073392D02*
X101209551Y-95159234D01*
X103941742Y-95073392D02*
X103890449Y-95159234D01*
X101209551Y-95159234D02*
X101267291Y-95240879D01*
X103890449Y-95159234D02*
X103832709Y-95240879D01*
X101267291Y-95240879D02*
X101331136Y-95317844D01*
X103832709Y-95240879D02*
X103768864Y-95317844D01*
X101331136Y-95317844D02*
X101400708Y-95389674D01*
X103768864Y-95317844D02*
X103699292Y-95389674D01*
X101400708Y-95389674D02*
X101475595Y-95455944D01*
X103699292Y-95389674D02*
X103624405Y-95455944D01*
X101475595Y-95455944D02*
X101555354Y-95516262D01*
X103624405Y-95455944D02*
X103544646Y-95516262D01*
X101555354Y-95516262D02*
X101639513Y-95570271D01*
X103544646Y-95516262D02*
X103460487Y-95570271D01*
X101639513Y-95570271D02*
X101727574Y-95617651D01*
X103460487Y-95570271D02*
X103372426Y-95617651D01*
X101727574Y-95617651D02*
X101819016Y-95658122D01*
X103372426Y-95617651D02*
X103280984Y-95658122D01*
X101819016Y-95658122D02*
X101913298Y-95691444D01*
X103280984Y-95658122D02*
X103186702Y-95691444D01*
X101913298Y-95691444D02*
X102009862Y-95717420D01*
X103186702Y-95691444D02*
X103090138Y-95717420D01*
X102009862Y-95717420D02*
X102108137Y-95735897D01*
X103090138Y-95717420D02*
X102991863Y-95735897D01*
X102108137Y-95735897D02*
X102207542Y-95746765D01*
X102991863Y-95735897D02*
X102892458Y-95746765D01*
X102207542Y-95746765D02*
X102307488Y-95749960D01*
X102892458Y-95746765D02*
X102792512Y-95749960D01*
X102792512Y-95749960D02*
X102307488Y-95749960D01*
X104100000Y-99499995D02*
X104092313Y-99400291D01*
X101000000Y-99499998D02*
X101007687Y-99400294D01*
X104092313Y-99400291D02*
X104076985Y-99301473D01*
X101007687Y-99400294D02*
X101023015Y-99301476D01*
X104076985Y-99301473D02*
X104054107Y-99204126D01*
X101023015Y-99301476D02*
X101045893Y-99204129D01*
X104054107Y-99204126D02*
X104023814Y-99108826D01*
X101045893Y-99204129D02*
X101076186Y-99108829D01*
X104023814Y-99108826D02*
X103986285Y-99016136D01*
X101076186Y-99108829D02*
X101113715Y-99016139D01*
X103986285Y-99016136D02*
X103941742Y-98926605D01*
X101113715Y-99016139D02*
X101158258Y-98926608D01*
X103941742Y-98926605D02*
X103890449Y-98840763D01*
X101158258Y-98926608D02*
X101209551Y-98840766D01*
X103890449Y-98840763D02*
X103832709Y-98759118D01*
X101209551Y-98840766D02*
X101267291Y-98759121D01*
X103832709Y-98759118D02*
X103768864Y-98682153D01*
X101267291Y-98759121D02*
X101331136Y-98682156D01*
X103768864Y-98682153D02*
X103699292Y-98610323D01*
X101331136Y-98682156D02*
X101400708Y-98610326D01*
X103699292Y-98610323D02*
X103624405Y-98544053D01*
X101400708Y-98610326D02*
X101475595Y-98544056D01*
X103624405Y-98544053D02*
X103544646Y-98483735D01*
X101475595Y-98544056D02*
X101555354Y-98483738D01*
X103544646Y-98483735D02*
X103460487Y-98429726D01*
X101555354Y-98483738D02*
X101639513Y-98429729D01*
X103460487Y-98429726D02*
X103372426Y-98382346D01*
X101639513Y-98429729D02*
X101727574Y-98382349D01*
X103372426Y-98382346D02*
X103280984Y-98341875D01*
X101727574Y-98382349D02*
X101819016Y-98341878D01*
X103280984Y-98341875D02*
X103186702Y-98308553D01*
X101819016Y-98341878D02*
X101913298Y-98308556D01*
X103186702Y-98308553D02*
X103090138Y-98282577D01*
X101913298Y-98308556D02*
X102009862Y-98282580D01*
X103090138Y-98282577D02*
X102991863Y-98264100D01*
X102009862Y-98282580D02*
X102108137Y-98264103D01*
X102991863Y-98264100D02*
X102892458Y-98253232D01*
X102108137Y-98264103D02*
X102207542Y-98253235D01*
X102892458Y-98253232D02*
X102792512Y-98250037D01*
X102207542Y-98253235D02*
X102307488Y-98250040D01*
X102792512Y-98250037D02*
X102307488Y-98250040D01*
X182200000Y-94500002D02*
X182200000Y-87900000D01*
X182200000Y-99499995D02*
X182200000Y-104900000D01*
X185000000Y-99499998D02*
X185000000Y-108000000D01*
X182200000Y-99499995D02*
X182207687Y-99400291D01*
X185000000Y-99499998D02*
X184992313Y-99400294D01*
X182207687Y-99400291D02*
X182223015Y-99301473D01*
X184992313Y-99400294D02*
X184976985Y-99301476D01*
X182223015Y-99301473D02*
X182245893Y-99204126D01*
X184976985Y-99301476D02*
X184954107Y-99204129D01*
X182245893Y-99204126D02*
X182276186Y-99108826D01*
X184954107Y-99204129D02*
X184923814Y-99108829D01*
X182276186Y-99108826D02*
X182313715Y-99016136D01*
X184923814Y-99108829D02*
X184886285Y-99016139D01*
X182313715Y-99016136D02*
X182358258Y-98926605D01*
X184886285Y-99016139D02*
X184841742Y-98926608D01*
X182358258Y-98926605D02*
X182409551Y-98840763D01*
X184841742Y-98926608D02*
X184790449Y-98840766D01*
X182409551Y-98840763D02*
X182467291Y-98759118D01*
X184790449Y-98840766D02*
X184732709Y-98759121D01*
X182467291Y-98759118D02*
X182531136Y-98682153D01*
X184732709Y-98759121D02*
X184668864Y-98682156D01*
X182531136Y-98682153D02*
X182600708Y-98610323D01*
X184668864Y-98682156D02*
X184599292Y-98610326D01*
X182600708Y-98610323D02*
X182675595Y-98544053D01*
X184599292Y-98610326D02*
X184524405Y-98544056D01*
X182675595Y-98544053D02*
X182755354Y-98483735D01*
X184524405Y-98544056D02*
X184444646Y-98483738D01*
X182755354Y-98483735D02*
X182839513Y-98429726D01*
X184444646Y-98483738D02*
X184360487Y-98429729D01*
X182839513Y-98429726D02*
X182927574Y-98382346D01*
X184360487Y-98429729D02*
X184272426Y-98382349D01*
X182927574Y-98382346D02*
X183019016Y-98341875D01*
X184272426Y-98382349D02*
X184180984Y-98341878D01*
X183019016Y-98341875D02*
X183113298Y-98308553D01*
X184180984Y-98341878D02*
X184086702Y-98308556D01*
X183113298Y-98308553D02*
X183209862Y-98282577D01*
X184086702Y-98308556D02*
X183990138Y-98282580D01*
X183209862Y-98282577D02*
X183308137Y-98264100D01*
X183990138Y-98282580D02*
X183891863Y-98264103D01*
X183308137Y-98264100D02*
X183407542Y-98253232D01*
X183891863Y-98264103D02*
X183792458Y-98253235D01*
X183407542Y-98253232D02*
X183507488Y-98250037D01*
X183792458Y-98253235D02*
X183692512Y-98250040D01*
X183507488Y-98250037D02*
X183692512Y-98250040D01*
X182200000Y-94500002D02*
X182207687Y-94599706D01*
X185000000Y-94499935D02*
X184992313Y-94599639D01*
X182207687Y-94599706D02*
X182223015Y-94698524D01*
X184992313Y-94599639D02*
X184976985Y-94698457D01*
X182223015Y-94698524D02*
X182245893Y-94795871D01*
X184976985Y-94698457D02*
X184954107Y-94795804D01*
X182245893Y-94795871D02*
X182276186Y-94891171D01*
X184954107Y-94795804D02*
X184923814Y-94891104D01*
X182276186Y-94891171D02*
X182313715Y-94983861D01*
X184923814Y-94891104D02*
X184886285Y-94983794D01*
X182313715Y-94983861D02*
X182358258Y-95073392D01*
X184886285Y-94983794D02*
X184841742Y-95073325D01*
X182358258Y-95073392D02*
X182409551Y-95159234D01*
X184841742Y-95073325D02*
X184790449Y-95159167D01*
X182409551Y-95159234D02*
X182467291Y-95240879D01*
X184790449Y-95159167D02*
X184732709Y-95240812D01*
X182467291Y-95240879D02*
X182531136Y-95317844D01*
X184732709Y-95240812D02*
X184668864Y-95317777D01*
X182531136Y-95317844D02*
X182600708Y-95389674D01*
X184668864Y-95317777D02*
X184599292Y-95389607D01*
X182600708Y-95389674D02*
X182675595Y-95455944D01*
X184599292Y-95389607D02*
X184524405Y-95455877D01*
X182675595Y-95455944D02*
X182755354Y-95516262D01*
X184524405Y-95455877D02*
X184444646Y-95516195D01*
X182755354Y-95516262D02*
X182839513Y-95570271D01*
X184444646Y-95516195D02*
X184360487Y-95570204D01*
X182839513Y-95570271D02*
X182927574Y-95617651D01*
X184360487Y-95570204D02*
X184272426Y-95617584D01*
X182927574Y-95617651D02*
X183019016Y-95658122D01*
X184272426Y-95617584D02*
X184180984Y-95658055D01*
X183019016Y-95658122D02*
X183113298Y-95691444D01*
X184180984Y-95658055D02*
X184086702Y-95691377D01*
X183113298Y-95691444D02*
X183209862Y-95717420D01*
X184086702Y-95691377D02*
X183990138Y-95717353D01*
X183209862Y-95717420D02*
X183308137Y-95735897D01*
X183990138Y-95717353D02*
X183891863Y-95735830D01*
X183308137Y-95735897D02*
X183407542Y-95746765D01*
X183891863Y-95735830D02*
X183792458Y-95746698D01*
X183407542Y-95746765D02*
X183507488Y-95749960D01*
X183792458Y-95746698D02*
X183692512Y-95749893D01*
X183507488Y-95749960D02*
X183692512Y-95749893D01*
X182200000Y-72499995D02*
X182200000Y-66900000D01*
X182200000Y-77500010D02*
X182200000Y-83900000D01*
X185000000Y-77499990D02*
X185000000Y-94499935D01*
X185000000Y-77499990D02*
X184992313Y-77400286D01*
X182200000Y-77500010D02*
X182207687Y-77400306D01*
X184992313Y-77400286D02*
X184976985Y-77301468D01*
X182207687Y-77400306D02*
X182223015Y-77301488D01*
X184976985Y-77301468D02*
X184954107Y-77204121D01*
X182223015Y-77301488D02*
X182245893Y-77204141D01*
X184954107Y-77204121D02*
X184923814Y-77108821D01*
X182245893Y-77204141D02*
X182276186Y-77108841D01*
X184923814Y-77108821D02*
X184886285Y-77016131D01*
X182276186Y-77108841D02*
X182313715Y-77016151D01*
X184886285Y-77016131D02*
X184841742Y-76926600D01*
X182313715Y-77016151D02*
X182358258Y-76926620D01*
X184841742Y-76926600D02*
X184790449Y-76840758D01*
X182358258Y-76926620D02*
X182409551Y-76840778D01*
X184790449Y-76840758D02*
X184732709Y-76759113D01*
X182409551Y-76840778D02*
X182467291Y-76759133D01*
X184732709Y-76759113D02*
X184668864Y-76682148D01*
X182467291Y-76759133D02*
X182531136Y-76682168D01*
X184668864Y-76682148D02*
X184599292Y-76610318D01*
X182531136Y-76682168D02*
X182600708Y-76610338D01*
X184599292Y-76610318D02*
X184524405Y-76544048D01*
X182600708Y-76610338D02*
X182675595Y-76544068D01*
X184524405Y-76544048D02*
X184444646Y-76483730D01*
X182675595Y-76544068D02*
X182755354Y-76483750D01*
X184444646Y-76483730D02*
X184360487Y-76429721D01*
X182755354Y-76483750D02*
X182839513Y-76429741D01*
X184360487Y-76429721D02*
X184272426Y-76382341D01*
X182839513Y-76429741D02*
X182927574Y-76382361D01*
X184272426Y-76382341D02*
X184180984Y-76341870D01*
X182927574Y-76382361D02*
X183019016Y-76341890D01*
X184180984Y-76341870D02*
X184086702Y-76308548D01*
X183019016Y-76341890D02*
X183113298Y-76308568D01*
X184086702Y-76308548D02*
X183990138Y-76282572D01*
X183113298Y-76308568D02*
X183209862Y-76282592D01*
X183990138Y-76282572D02*
X183891863Y-76264095D01*
X183209862Y-76282592D02*
X183308137Y-76264115D01*
X183891863Y-76264095D02*
X183792458Y-76253227D01*
X183308137Y-76264115D02*
X183407542Y-76253247D01*
X183792458Y-76253227D02*
X183692512Y-76250032D01*
X183407542Y-76253247D02*
X183507488Y-76250052D01*
X183507488Y-76250052D02*
X183692512Y-76250032D01*
X185000000Y-72500000D02*
X184992313Y-72599704D01*
X182200000Y-72499995D02*
X182207687Y-72599699D01*
X184992313Y-72599704D02*
X184976985Y-72698522D01*
X182207687Y-72599699D02*
X182223015Y-72698517D01*
X184976985Y-72698522D02*
X184954107Y-72795869D01*
X182223015Y-72698517D02*
X182245893Y-72795864D01*
X184954107Y-72795869D02*
X184923814Y-72891169D01*
X182245893Y-72795864D02*
X182276186Y-72891164D01*
X184923814Y-72891169D02*
X184886285Y-72983859D01*
X182276186Y-72891164D02*
X182313715Y-72983854D01*
X184886285Y-72983859D02*
X184841742Y-73073390D01*
X182313715Y-72983854D02*
X182358258Y-73073385D01*
X184841742Y-73073390D02*
X184790449Y-73159232D01*
X182358258Y-73073385D02*
X182409551Y-73159227D01*
X184790449Y-73159232D02*
X184732709Y-73240877D01*
X182409551Y-73159227D02*
X182467291Y-73240872D01*
X184732709Y-73240877D02*
X184668864Y-73317842D01*
X182467291Y-73240872D02*
X182531136Y-73317837D01*
X184668864Y-73317842D02*
X184599292Y-73389672D01*
X182531136Y-73317837D02*
X182600708Y-73389667D01*
X184599292Y-73389672D02*
X184524405Y-73455942D01*
X182600708Y-73389667D02*
X182675595Y-73455937D01*
X184524405Y-73455942D02*
X184444646Y-73516260D01*
X182675595Y-73455937D02*
X182755354Y-73516255D01*
X184444646Y-73516260D02*
X184360487Y-73570269D01*
X182755354Y-73516255D02*
X182839513Y-73570264D01*
X184360487Y-73570269D02*
X184272426Y-73617649D01*
X182839513Y-73570264D02*
X182927574Y-73617644D01*
X184272426Y-73617649D02*
X184180984Y-73658120D01*
X182927574Y-73617644D02*
X183019016Y-73658115D01*
X184180984Y-73658120D02*
X184086702Y-73691442D01*
X183019016Y-73658115D02*
X183113298Y-73691437D01*
X184086702Y-73691442D02*
X183990138Y-73717418D01*
X183113298Y-73691437D02*
X183209862Y-73717413D01*
X183990138Y-73717418D02*
X183891863Y-73735895D01*
X183209862Y-73717413D02*
X183308137Y-73735890D01*
X183891863Y-73735895D02*
X183792458Y-73746763D01*
X183308137Y-73735890D02*
X183407542Y-73746758D01*
X183792458Y-73746763D02*
X183692512Y-73749958D01*
X183407542Y-73746758D02*
X183507488Y-73749953D01*
X183507488Y-73749953D02*
X183692512Y-73749958D01*
X182200000Y-51499995D02*
X182200000Y-45900000D01*
X182200000Y-56500010D02*
X182200000Y-62900000D01*
X185000000Y-56499998D02*
X185000000Y-72500000D01*
X185000000Y-51500002D02*
X185000000Y-43000000D01*
X185000000Y-56499998D02*
X184992313Y-56400294D01*
X182200000Y-56500010D02*
X182207687Y-56400306D01*
X184992313Y-56400294D02*
X184976985Y-56301476D01*
X182207687Y-56400306D02*
X182223015Y-56301488D01*
X184976985Y-56301476D02*
X184954107Y-56204129D01*
X182223015Y-56301488D02*
X182245893Y-56204141D01*
X184954107Y-56204129D02*
X184923814Y-56108829D01*
X182245893Y-56204141D02*
X182276186Y-56108841D01*
X184923814Y-56108829D02*
X184886285Y-56016139D01*
X182276186Y-56108841D02*
X182313715Y-56016151D01*
X184886285Y-56016139D02*
X184841742Y-55926608D01*
X182313715Y-56016151D02*
X182358258Y-55926620D01*
X184841742Y-55926608D02*
X184790449Y-55840766D01*
X182358258Y-55926620D02*
X182409551Y-55840778D01*
X184790449Y-55840766D02*
X184732709Y-55759121D01*
X182409551Y-55840778D02*
X182467291Y-55759133D01*
X184732709Y-55759121D02*
X184668864Y-55682156D01*
X182467291Y-55759133D02*
X182531136Y-55682168D01*
X184668864Y-55682156D02*
X184599292Y-55610326D01*
X182531136Y-55682168D02*
X182600708Y-55610338D01*
X184599292Y-55610326D02*
X184524405Y-55544056D01*
X182600708Y-55610338D02*
X182675595Y-55544068D01*
X184524405Y-55544056D02*
X184444646Y-55483738D01*
X182675595Y-55544068D02*
X182755354Y-55483750D01*
X184444646Y-55483738D02*
X184360487Y-55429729D01*
X182755354Y-55483750D02*
X182839513Y-55429741D01*
X184360487Y-55429729D02*
X184272426Y-55382349D01*
X182839513Y-55429741D02*
X182927574Y-55382361D01*
X184272426Y-55382349D02*
X184180984Y-55341878D01*
X182927574Y-55382361D02*
X183019016Y-55341890D01*
X184180984Y-55341878D02*
X184086702Y-55308556D01*
X183019016Y-55341890D02*
X183113298Y-55308568D01*
X184086702Y-55308556D02*
X183990138Y-55282580D01*
X183113298Y-55308568D02*
X183209862Y-55282592D01*
X183990138Y-55282580D02*
X183891863Y-55264103D01*
X183209862Y-55282592D02*
X183308137Y-55264115D01*
X183891863Y-55264103D02*
X183792458Y-55253235D01*
X183308137Y-55264115D02*
X183407542Y-55253247D01*
X183792458Y-55253235D02*
X183692512Y-55250040D01*
X183407542Y-55253247D02*
X183507488Y-55250052D01*
X183507488Y-55250052D02*
X183692512Y-55250040D01*
X185000000Y-51500002D02*
X184992313Y-51599706D01*
X182200000Y-51499995D02*
X182207687Y-51599699D01*
X184992313Y-51599706D02*
X184976985Y-51698524D01*
X182207687Y-51599699D02*
X182223015Y-51698517D01*
X184976985Y-51698524D02*
X184954107Y-51795871D01*
X182223015Y-51698517D02*
X182245893Y-51795864D01*
X184954107Y-51795871D02*
X184923814Y-51891171D01*
X182245893Y-51795864D02*
X182276186Y-51891164D01*
X184923814Y-51891171D02*
X184886285Y-51983861D01*
X182276186Y-51891164D02*
X182313715Y-51983854D01*
X184886285Y-51983861D02*
X184841742Y-52073392D01*
X182313715Y-51983854D02*
X182358258Y-52073385D01*
X184841742Y-52073392D02*
X184790449Y-52159234D01*
X182358258Y-52073385D02*
X182409551Y-52159227D01*
X184790449Y-52159234D02*
X184732709Y-52240879D01*
X182409551Y-52159227D02*
X182467291Y-52240872D01*
X184732709Y-52240879D02*
X184668864Y-52317844D01*
X182467291Y-52240872D02*
X182531136Y-52317837D01*
X184668864Y-52317844D02*
X184599292Y-52389674D01*
X182531136Y-52317837D02*
X182600708Y-52389667D01*
X184599292Y-52389674D02*
X184524405Y-52455944D01*
X182600708Y-52389667D02*
X182675595Y-52455937D01*
X184524405Y-52455944D02*
X184444646Y-52516262D01*
X182675595Y-52455937D02*
X182755354Y-52516255D01*
X184444646Y-52516262D02*
X184360487Y-52570271D01*
X182755354Y-52516255D02*
X182839513Y-52570264D01*
X184360487Y-52570271D02*
X184272426Y-52617651D01*
X182839513Y-52570264D02*
X182927574Y-52617644D01*
X184272426Y-52617651D02*
X184180984Y-52658122D01*
X182927574Y-52617644D02*
X183019016Y-52658115D01*
X184180984Y-52658122D02*
X184086702Y-52691444D01*
X183019016Y-52658115D02*
X183113298Y-52691437D01*
X184086702Y-52691444D02*
X183990138Y-52717420D01*
X183113298Y-52691437D02*
X183209862Y-52717413D01*
X183990138Y-52717420D02*
X183891863Y-52735897D01*
X183209862Y-52717413D02*
X183308137Y-52735890D01*
X183891863Y-52735897D02*
X183792458Y-52746765D01*
X183308137Y-52735890D02*
X183407542Y-52746758D01*
X183792458Y-52746765D02*
X183692512Y-52749960D01*
X183407542Y-52746758D02*
X183507488Y-52749953D01*
X183507488Y-52749953D02*
X183692512Y-52749960D01*
X166499998Y-43000000D02*
X185000000Y-43000000D01*
X161500002Y-45900000D02*
X145100000Y-45900000D01*
X166499998Y-45900000D02*
X182200000Y-45900000D01*
X161500002Y-45900000D02*
X161599706Y-45892313D01*
X161500002Y-43000000D02*
X161599706Y-43007687D01*
X161599706Y-45892313D02*
X161698524Y-45876985D01*
X161599706Y-43007687D02*
X161698524Y-43023015D01*
X161698524Y-45876985D02*
X161795871Y-45854107D01*
X161698524Y-43023015D02*
X161795871Y-43045893D01*
X161795871Y-45854107D02*
X161891171Y-45823814D01*
X161795871Y-43045893D02*
X161891171Y-43076186D01*
X161891171Y-45823814D02*
X161983861Y-45786285D01*
X161891171Y-43076186D02*
X161983861Y-43113715D01*
X161983861Y-45786285D02*
X162073392Y-45741742D01*
X161983861Y-43113715D02*
X162073392Y-43158258D01*
X162073392Y-45741742D02*
X162159234Y-45690449D01*
X162073392Y-43158258D02*
X162159234Y-43209551D01*
X162159234Y-45690449D02*
X162240879Y-45632709D01*
X162159234Y-43209551D02*
X162240879Y-43267291D01*
X162240879Y-45632709D02*
X162317844Y-45568864D01*
X162240879Y-43267291D02*
X162317844Y-43331136D01*
X162317844Y-45568864D02*
X162389674Y-45499292D01*
X162317844Y-43331136D02*
X162389674Y-43400708D01*
X162389674Y-45499292D02*
X162455944Y-45424405D01*
X162389674Y-43400708D02*
X162455944Y-43475595D01*
X162455944Y-45424405D02*
X162516262Y-45344646D01*
X162455944Y-43475595D02*
X162516262Y-43555354D01*
X162516262Y-45344646D02*
X162570271Y-45260487D01*
X162516262Y-43555354D02*
X162570271Y-43639513D01*
X162570271Y-45260487D02*
X162617651Y-45172426D01*
X162570271Y-43639513D02*
X162617651Y-43727574D01*
X162617651Y-45172426D02*
X162658122Y-45080984D01*
X162617651Y-43727574D02*
X162658122Y-43819016D01*
X162658122Y-45080984D02*
X162691444Y-44986702D01*
X162658122Y-43819016D02*
X162691444Y-43913298D01*
X162691444Y-44986702D02*
X162717420Y-44890138D01*
X162691444Y-43913298D02*
X162717420Y-44009862D01*
X162717420Y-44890138D02*
X162735897Y-44791863D01*
X162717420Y-44009862D02*
X162735897Y-44108137D01*
X162735897Y-44791863D02*
X162746765Y-44692458D01*
X162735897Y-44108137D02*
X162746765Y-44207542D01*
X162746765Y-44692458D02*
X162749960Y-44592512D01*
X162746765Y-44207542D02*
X162749960Y-44307488D01*
X162749960Y-44307488D02*
X162749960Y-44592512D01*
X166499998Y-45900000D02*
X166400294Y-45892313D01*
X166499998Y-43000000D02*
X166400294Y-43007687D01*
X166400294Y-45892313D02*
X166301476Y-45876985D01*
X166400294Y-43007687D02*
X166301476Y-43023015D01*
X166301476Y-45876985D02*
X166204129Y-45854107D01*
X166301476Y-43023015D02*
X166204129Y-43045893D01*
X166204129Y-45854107D02*
X166108829Y-45823814D01*
X166204129Y-43045893D02*
X166108829Y-43076186D01*
X166108829Y-45823814D02*
X166016139Y-45786285D01*
X166108829Y-43076186D02*
X166016139Y-43113715D01*
X166016139Y-45786285D02*
X165926608Y-45741742D01*
X166016139Y-43113715D02*
X165926608Y-43158258D01*
X165926608Y-45741742D02*
X165840766Y-45690449D01*
X165926608Y-43158258D02*
X165840766Y-43209551D01*
X165840766Y-45690449D02*
X165759121Y-45632709D01*
X165840766Y-43209551D02*
X165759121Y-43267291D01*
X165759121Y-45632709D02*
X165682156Y-45568864D01*
X165759121Y-43267291D02*
X165682156Y-43331136D01*
X165682156Y-45568864D02*
X165610326Y-45499292D01*
X165682156Y-43331136D02*
X165610326Y-43400708D01*
X165610326Y-45499292D02*
X165544056Y-45424405D01*
X165610326Y-43400708D02*
X165544056Y-43475595D01*
X165544056Y-45424405D02*
X165483738Y-45344646D01*
X165544056Y-43475595D02*
X165483738Y-43555354D01*
X165483738Y-45344646D02*
X165429729Y-45260487D01*
X165483738Y-43555354D02*
X165429729Y-43639513D01*
X165429729Y-45260487D02*
X165382349Y-45172426D01*
X165429729Y-43639513D02*
X165382349Y-43727574D01*
X165382349Y-45172426D02*
X165341878Y-45080984D01*
X165382349Y-43727574D02*
X165341878Y-43819016D01*
X165341878Y-45080984D02*
X165308556Y-44986702D01*
X165341878Y-43819016D02*
X165308556Y-43913298D01*
X165308556Y-44986702D02*
X165282580Y-44890138D01*
X165308556Y-43913298D02*
X165282580Y-44009862D01*
X165282580Y-44890138D02*
X165264103Y-44791863D01*
X165282580Y-44009862D02*
X165264103Y-44108137D01*
X165264103Y-44791863D02*
X165253235Y-44692458D01*
X165264103Y-44108137D02*
X165253235Y-44207542D01*
X165253235Y-44692458D02*
X165250040Y-44592512D01*
X165253235Y-44207542D02*
X165250040Y-44307488D01*
X165250040Y-44307488D02*
X165250040Y-44592512D01*
X119499997Y-45900000D02*
X104100000Y-45900000D01*
X124499985Y-45900000D02*
X141200000Y-45900000D01*
X124499955Y-43000000D02*
X161500002Y-43000000D01*
X119500002Y-43000000D02*
X101000000Y-43000000D01*
X124499955Y-43000000D02*
X124400251Y-43007687D01*
X124499985Y-45900000D02*
X124400281Y-45892313D01*
X124400251Y-43007687D02*
X124301433Y-43023015D01*
X124400281Y-45892313D02*
X124301463Y-45876985D01*
X124301433Y-43023015D02*
X124204086Y-43045893D01*
X124301463Y-45876985D02*
X124204116Y-45854107D01*
X124204086Y-43045893D02*
X124108786Y-43076186D01*
X124204116Y-45854107D02*
X124108816Y-45823814D01*
X124108786Y-43076186D02*
X124016096Y-43113715D01*
X124108816Y-45823814D02*
X124016126Y-45786285D01*
X124016096Y-43113715D02*
X123926565Y-43158258D01*
X124016126Y-45786285D02*
X123926595Y-45741742D01*
X123926565Y-43158258D02*
X123840723Y-43209551D01*
X123926595Y-45741742D02*
X123840753Y-45690449D01*
X123840723Y-43209551D02*
X123759078Y-43267291D01*
X123840753Y-45690449D02*
X123759108Y-45632709D01*
X123759078Y-43267291D02*
X123682113Y-43331136D01*
X123759108Y-45632709D02*
X123682143Y-45568864D01*
X123682113Y-43331136D02*
X123610283Y-43400708D01*
X123682143Y-45568864D02*
X123610313Y-45499292D01*
X123610283Y-43400708D02*
X123544013Y-43475595D01*
X123610313Y-45499292D02*
X123544043Y-45424405D01*
X123544013Y-43475595D02*
X123483695Y-43555354D01*
X123544043Y-45424405D02*
X123483725Y-45344646D01*
X123483695Y-43555354D02*
X123429686Y-43639513D01*
X123483725Y-45344646D02*
X123429716Y-45260487D01*
X123429686Y-43639513D02*
X123382306Y-43727574D01*
X123429716Y-45260487D02*
X123382336Y-45172426D01*
X123382306Y-43727574D02*
X123341835Y-43819016D01*
X123382336Y-45172426D02*
X123341865Y-45080984D01*
X123341835Y-43819016D02*
X123308513Y-43913298D01*
X123341865Y-45080984D02*
X123308543Y-44986702D01*
X123308513Y-43913298D02*
X123282537Y-44009862D01*
X123308543Y-44986702D02*
X123282567Y-44890138D01*
X123282537Y-44009862D02*
X123264060Y-44108137D01*
X123282567Y-44890138D02*
X123264090Y-44791863D01*
X123264060Y-44108137D02*
X123253192Y-44207542D01*
X123264090Y-44791863D02*
X123253222Y-44692458D01*
X123253192Y-44207542D02*
X123249997Y-44307488D01*
X123253222Y-44692458D02*
X123250027Y-44592512D01*
X123250027Y-44592512D02*
X123249997Y-44307488D01*
X119500002Y-43000000D02*
X119599706Y-43007687D01*
X119499997Y-45900000D02*
X119599701Y-45892313D01*
X119599706Y-43007687D02*
X119698524Y-43023015D01*
X119599701Y-45892313D02*
X119698519Y-45876985D01*
X119698524Y-43023015D02*
X119795871Y-43045893D01*
X119698519Y-45876985D02*
X119795866Y-45854107D01*
X119795871Y-43045893D02*
X119891171Y-43076186D01*
X119795866Y-45854107D02*
X119891166Y-45823814D01*
X119891171Y-43076186D02*
X119983861Y-43113715D01*
X119891166Y-45823814D02*
X119983856Y-45786285D01*
X119983861Y-43113715D02*
X120073392Y-43158258D01*
X119983856Y-45786285D02*
X120073387Y-45741742D01*
X120073392Y-43158258D02*
X120159234Y-43209551D01*
X120073387Y-45741742D02*
X120159229Y-45690449D01*
X120159234Y-43209551D02*
X120240879Y-43267291D01*
X120159229Y-45690449D02*
X120240874Y-45632709D01*
X120240879Y-43267291D02*
X120317844Y-43331136D01*
X120240874Y-45632709D02*
X120317839Y-45568864D01*
X120317844Y-43331136D02*
X120389674Y-43400708D01*
X120317839Y-45568864D02*
X120389669Y-45499292D01*
X120389674Y-43400708D02*
X120455944Y-43475595D01*
X120389669Y-45499292D02*
X120455939Y-45424405D01*
X120455944Y-43475595D02*
X120516262Y-43555354D01*
X120455939Y-45424405D02*
X120516257Y-45344646D01*
X120516262Y-43555354D02*
X120570271Y-43639513D01*
X120516257Y-45344646D02*
X120570266Y-45260487D01*
X120570271Y-43639513D02*
X120617651Y-43727574D01*
X120570266Y-45260487D02*
X120617646Y-45172426D01*
X120617651Y-43727574D02*
X120658122Y-43819016D01*
X120617646Y-45172426D02*
X120658117Y-45080984D01*
X120658122Y-43819016D02*
X120691444Y-43913298D01*
X120658117Y-45080984D02*
X120691439Y-44986702D01*
X120691444Y-43913298D02*
X120717420Y-44009862D01*
X120691439Y-44986702D02*
X120717415Y-44890138D01*
X120717420Y-44009862D02*
X120735897Y-44108137D01*
X120717415Y-44890138D02*
X120735892Y-44791863D01*
X120735897Y-44108137D02*
X120746765Y-44207542D01*
X120735892Y-44791863D02*
X120746760Y-44692458D01*
X120746765Y-44207542D02*
X120749960Y-44307488D01*
X120746760Y-44692458D02*
X120749955Y-44592512D01*
X120749955Y-44592512D02*
X120749960Y-44307488D01*
M02*
