G04 #@! TF.GenerationSoftware,KiCad,Pcbnew,5.0.2-bee76a0~70~ubuntu18.04.1*
G04 #@! TF.CreationDate,2019-12-23T19:02:59+01:00*
G04 #@! TF.ProjectId,board,626f6172-642e-46b6-9963-61645f706362,rev?*
G04 #@! TF.SameCoordinates,Original*
G04 #@! TF.FileFunction,Soldermask,Bot*
G04 #@! TF.FilePolarity,Negative*
%FSLAX46Y46*%
G04 Gerber Fmt 4.6, Leading zero omitted, Abs format (unit mm)*
G04 Created by KiCad (PCBNEW 5.0.2-bee76a0~70~ubuntu18.04.1) date Mon 23 Dec 2019 07:02:59 PM CET*
%MOMM*%
%LPD*%
G01*
G04 APERTURE LIST*
%ADD10C,0.100000*%
G04 APERTURE END LIST*
D10*
G36*
X156901000Y-138010200D02*
X155099000Y-138010200D01*
X155099000Y-136208200D01*
X156901000Y-136208200D01*
X156901000Y-138010200D01*
X156901000Y-138010200D01*
G37*
G36*
X107701000Y-137751000D02*
X104099000Y-137751000D01*
X104099000Y-135649000D01*
X107701000Y-135649000D01*
X107701000Y-137751000D01*
X107701000Y-137751000D01*
G37*
G36*
X99701000Y-137751000D02*
X93599000Y-137751000D01*
X93599000Y-135649000D01*
X99701000Y-135649000D01*
X99701000Y-137751000D01*
X99701000Y-137751000D01*
G37*
G36*
X156110442Y-133674718D02*
X156176627Y-133681237D01*
X156289853Y-133715584D01*
X156346467Y-133732757D01*
X156485087Y-133806852D01*
X156502991Y-133816422D01*
X156538729Y-133845752D01*
X156640186Y-133929014D01*
X156723448Y-134030471D01*
X156752778Y-134066209D01*
X156752779Y-134066211D01*
X156836443Y-134222733D01*
X156836443Y-134222734D01*
X156887963Y-134392573D01*
X156905359Y-134569200D01*
X156887963Y-134745827D01*
X156853616Y-134859053D01*
X156836443Y-134915667D01*
X156762348Y-135054287D01*
X156752778Y-135072191D01*
X156723448Y-135107929D01*
X156640186Y-135209386D01*
X156538729Y-135292648D01*
X156502991Y-135321978D01*
X156502989Y-135321979D01*
X156346467Y-135405643D01*
X156289853Y-135422816D01*
X156176627Y-135457163D01*
X156110442Y-135463682D01*
X156044260Y-135470200D01*
X155955740Y-135470200D01*
X155889558Y-135463682D01*
X155823373Y-135457163D01*
X155710147Y-135422816D01*
X155653533Y-135405643D01*
X155497011Y-135321979D01*
X155497009Y-135321978D01*
X155461271Y-135292648D01*
X155359814Y-135209386D01*
X155276552Y-135107929D01*
X155247222Y-135072191D01*
X155237652Y-135054287D01*
X155163557Y-134915667D01*
X155146384Y-134859053D01*
X155112037Y-134745827D01*
X155094641Y-134569200D01*
X155112037Y-134392573D01*
X155163557Y-134222734D01*
X155163557Y-134222733D01*
X155247221Y-134066211D01*
X155247222Y-134066209D01*
X155276552Y-134030471D01*
X155359814Y-133929014D01*
X155461271Y-133845752D01*
X155497009Y-133816422D01*
X155514913Y-133806852D01*
X155653533Y-133732757D01*
X155710147Y-133715584D01*
X155823373Y-133681237D01*
X155889558Y-133674718D01*
X155955740Y-133668200D01*
X156044260Y-133668200D01*
X156110442Y-133674718D01*
X156110442Y-133674718D01*
G37*
G36*
X99701000Y-133751000D02*
X93599000Y-133751000D01*
X93599000Y-131649000D01*
X99701000Y-131649000D01*
X99701000Y-133751000D01*
X99701000Y-133751000D01*
G37*
G36*
X107701000Y-133751000D02*
X104099000Y-133751000D01*
X104099000Y-131649000D01*
X107701000Y-131649000D01*
X107701000Y-133751000D01*
X107701000Y-133751000D01*
G37*
G36*
X156110442Y-131134718D02*
X156176627Y-131141237D01*
X156289853Y-131175584D01*
X156346467Y-131192757D01*
X156485087Y-131266852D01*
X156502991Y-131276422D01*
X156538729Y-131305752D01*
X156640186Y-131389014D01*
X156723448Y-131490471D01*
X156752778Y-131526209D01*
X156752779Y-131526211D01*
X156836443Y-131682733D01*
X156836443Y-131682734D01*
X156887963Y-131852573D01*
X156905359Y-132029200D01*
X156887963Y-132205827D01*
X156853616Y-132319053D01*
X156836443Y-132375667D01*
X156762348Y-132514287D01*
X156752778Y-132532191D01*
X156723448Y-132567929D01*
X156640186Y-132669386D01*
X156538729Y-132752648D01*
X156502991Y-132781978D01*
X156502989Y-132781979D01*
X156346467Y-132865643D01*
X156289853Y-132882816D01*
X156176627Y-132917163D01*
X156110442Y-132923682D01*
X156044260Y-132930200D01*
X155955740Y-132930200D01*
X155889558Y-132923682D01*
X155823373Y-132917163D01*
X155710147Y-132882816D01*
X155653533Y-132865643D01*
X155497011Y-132781979D01*
X155497009Y-132781978D01*
X155461271Y-132752648D01*
X155359814Y-132669386D01*
X155276552Y-132567929D01*
X155247222Y-132532191D01*
X155237652Y-132514287D01*
X155163557Y-132375667D01*
X155146384Y-132319053D01*
X155112037Y-132205827D01*
X155094641Y-132029200D01*
X155112037Y-131852573D01*
X155163557Y-131682734D01*
X155163557Y-131682733D01*
X155247221Y-131526211D01*
X155247222Y-131526209D01*
X155276552Y-131490471D01*
X155359814Y-131389014D01*
X155461271Y-131305752D01*
X155497009Y-131276422D01*
X155514913Y-131266852D01*
X155653533Y-131192757D01*
X155710147Y-131175584D01*
X155823373Y-131141237D01*
X155889558Y-131134718D01*
X155955740Y-131128200D01*
X156044260Y-131128200D01*
X156110442Y-131134718D01*
X156110442Y-131134718D01*
G37*
G36*
X156110443Y-128594719D02*
X156176627Y-128601237D01*
X156289853Y-128635584D01*
X156346467Y-128652757D01*
X156485087Y-128726852D01*
X156502991Y-128736422D01*
X156538729Y-128765752D01*
X156640186Y-128849014D01*
X156723448Y-128950471D01*
X156752778Y-128986209D01*
X156752779Y-128986211D01*
X156836443Y-129142733D01*
X156836443Y-129142734D01*
X156887963Y-129312573D01*
X156905359Y-129489200D01*
X156887963Y-129665827D01*
X156853616Y-129779053D01*
X156836443Y-129835667D01*
X156762348Y-129974287D01*
X156752778Y-129992191D01*
X156723448Y-130027929D01*
X156640186Y-130129386D01*
X156538729Y-130212648D01*
X156502991Y-130241978D01*
X156502989Y-130241979D01*
X156346467Y-130325643D01*
X156289853Y-130342816D01*
X156176627Y-130377163D01*
X156110442Y-130383682D01*
X156044260Y-130390200D01*
X155955740Y-130390200D01*
X155889558Y-130383682D01*
X155823373Y-130377163D01*
X155710147Y-130342816D01*
X155653533Y-130325643D01*
X155497011Y-130241979D01*
X155497009Y-130241978D01*
X155461271Y-130212648D01*
X155359814Y-130129386D01*
X155276552Y-130027929D01*
X155247222Y-129992191D01*
X155237652Y-129974287D01*
X155163557Y-129835667D01*
X155146384Y-129779053D01*
X155112037Y-129665827D01*
X155094641Y-129489200D01*
X155112037Y-129312573D01*
X155163557Y-129142734D01*
X155163557Y-129142733D01*
X155247221Y-128986211D01*
X155247222Y-128986209D01*
X155276552Y-128950471D01*
X155359814Y-128849014D01*
X155461271Y-128765752D01*
X155497009Y-128736422D01*
X155514913Y-128726852D01*
X155653533Y-128652757D01*
X155710147Y-128635584D01*
X155823373Y-128601237D01*
X155889557Y-128594719D01*
X155955740Y-128588200D01*
X156044260Y-128588200D01*
X156110443Y-128594719D01*
X156110443Y-128594719D01*
G37*
G36*
X103405734Y-126393232D02*
X103615202Y-126479996D01*
X103803723Y-126605962D01*
X103964038Y-126766277D01*
X104090004Y-126954798D01*
X104176768Y-127164266D01*
X104221000Y-127386635D01*
X104221000Y-127613365D01*
X104176768Y-127835734D01*
X104090004Y-128045202D01*
X103964038Y-128233723D01*
X103803723Y-128394038D01*
X103615202Y-128520004D01*
X103405734Y-128606768D01*
X103183365Y-128651000D01*
X102956635Y-128651000D01*
X102734266Y-128606768D01*
X102524798Y-128520004D01*
X102336277Y-128394038D01*
X102175962Y-128233723D01*
X102049996Y-128045202D01*
X101963232Y-127835734D01*
X101919000Y-127613365D01*
X101919000Y-127386635D01*
X101963232Y-127164266D01*
X102049996Y-126954798D01*
X102175962Y-126766277D01*
X102336277Y-126605962D01*
X102524798Y-126479996D01*
X102734266Y-126393232D01*
X102956635Y-126349000D01*
X103183365Y-126349000D01*
X103405734Y-126393232D01*
X103405734Y-126393232D01*
G37*
G36*
X156110442Y-126054718D02*
X156176627Y-126061237D01*
X156289853Y-126095584D01*
X156346467Y-126112757D01*
X156485087Y-126186852D01*
X156502991Y-126196422D01*
X156538729Y-126225752D01*
X156640186Y-126309014D01*
X156709301Y-126393232D01*
X156752778Y-126446209D01*
X156752779Y-126446211D01*
X156836443Y-126602733D01*
X156836443Y-126602734D01*
X156887963Y-126772573D01*
X156905359Y-126949200D01*
X156887963Y-127125827D01*
X156853616Y-127239053D01*
X156836443Y-127295667D01*
X156787819Y-127386635D01*
X156752778Y-127452191D01*
X156723448Y-127487929D01*
X156640186Y-127589386D01*
X156538729Y-127672648D01*
X156502991Y-127701978D01*
X156502989Y-127701979D01*
X156346467Y-127785643D01*
X156289853Y-127802816D01*
X156176627Y-127837163D01*
X156110442Y-127843682D01*
X156044260Y-127850200D01*
X155955740Y-127850200D01*
X155889558Y-127843682D01*
X155823373Y-127837163D01*
X155710147Y-127802816D01*
X155653533Y-127785643D01*
X155497011Y-127701979D01*
X155497009Y-127701978D01*
X155461271Y-127672648D01*
X155359814Y-127589386D01*
X155276552Y-127487929D01*
X155247222Y-127452191D01*
X155212181Y-127386635D01*
X155163557Y-127295667D01*
X155146384Y-127239053D01*
X155112037Y-127125827D01*
X155094641Y-126949200D01*
X155112037Y-126772573D01*
X155163557Y-126602734D01*
X155163557Y-126602733D01*
X155247221Y-126446211D01*
X155247222Y-126446209D01*
X155290699Y-126393232D01*
X155359814Y-126309014D01*
X155461271Y-126225752D01*
X155497009Y-126196422D01*
X155514913Y-126186852D01*
X155653533Y-126112757D01*
X155710147Y-126095584D01*
X155823373Y-126061237D01*
X155889558Y-126054718D01*
X155955740Y-126048200D01*
X156044260Y-126048200D01*
X156110442Y-126054718D01*
X156110442Y-126054718D01*
G37*
G36*
X156110442Y-123514718D02*
X156176627Y-123521237D01*
X156289853Y-123555584D01*
X156346467Y-123572757D01*
X156485087Y-123646852D01*
X156502991Y-123656422D01*
X156538729Y-123685752D01*
X156640186Y-123769014D01*
X156723448Y-123870471D01*
X156752778Y-123906209D01*
X156752779Y-123906211D01*
X156836443Y-124062733D01*
X156836443Y-124062734D01*
X156887963Y-124232573D01*
X156905359Y-124409200D01*
X156887963Y-124585827D01*
X156853616Y-124699053D01*
X156836443Y-124755667D01*
X156762348Y-124894287D01*
X156752778Y-124912191D01*
X156723448Y-124947929D01*
X156640186Y-125049386D01*
X156538729Y-125132648D01*
X156502991Y-125161978D01*
X156502989Y-125161979D01*
X156346467Y-125245643D01*
X156289853Y-125262816D01*
X156176627Y-125297163D01*
X156110443Y-125303681D01*
X156044260Y-125310200D01*
X155955740Y-125310200D01*
X155889557Y-125303681D01*
X155823373Y-125297163D01*
X155710147Y-125262816D01*
X155653533Y-125245643D01*
X155497011Y-125161979D01*
X155497009Y-125161978D01*
X155461271Y-125132648D01*
X155359814Y-125049386D01*
X155276552Y-124947929D01*
X155247222Y-124912191D01*
X155237652Y-124894287D01*
X155163557Y-124755667D01*
X155146384Y-124699053D01*
X155112037Y-124585827D01*
X155094641Y-124409200D01*
X155112037Y-124232573D01*
X155163557Y-124062734D01*
X155163557Y-124062733D01*
X155247221Y-123906211D01*
X155247222Y-123906209D01*
X155276552Y-123870471D01*
X155359814Y-123769014D01*
X155461271Y-123685752D01*
X155497009Y-123656422D01*
X155514913Y-123646852D01*
X155653533Y-123572757D01*
X155710147Y-123555584D01*
X155823373Y-123521237D01*
X155889558Y-123514718D01*
X155955740Y-123508200D01*
X156044260Y-123508200D01*
X156110442Y-123514718D01*
X156110442Y-123514718D01*
G37*
G36*
X156110443Y-120974719D02*
X156176627Y-120981237D01*
X156289853Y-121015584D01*
X156346467Y-121032757D01*
X156485087Y-121106852D01*
X156502991Y-121116422D01*
X156538729Y-121145752D01*
X156640186Y-121229014D01*
X156723448Y-121330471D01*
X156752778Y-121366209D01*
X156752779Y-121366211D01*
X156836443Y-121522733D01*
X156836443Y-121522734D01*
X156887963Y-121692573D01*
X156905359Y-121869200D01*
X156887963Y-122045827D01*
X156853616Y-122159053D01*
X156836443Y-122215667D01*
X156762348Y-122354287D01*
X156752778Y-122372191D01*
X156723448Y-122407929D01*
X156640186Y-122509386D01*
X156538729Y-122592648D01*
X156502991Y-122621978D01*
X156502989Y-122621979D01*
X156346467Y-122705643D01*
X156289853Y-122722816D01*
X156176627Y-122757163D01*
X156110443Y-122763681D01*
X156044260Y-122770200D01*
X155955740Y-122770200D01*
X155889557Y-122763681D01*
X155823373Y-122757163D01*
X155710147Y-122722816D01*
X155653533Y-122705643D01*
X155497011Y-122621979D01*
X155497009Y-122621978D01*
X155461271Y-122592648D01*
X155359814Y-122509386D01*
X155276552Y-122407929D01*
X155247222Y-122372191D01*
X155237652Y-122354287D01*
X155163557Y-122215667D01*
X155146384Y-122159053D01*
X155112037Y-122045827D01*
X155094641Y-121869200D01*
X155112037Y-121692573D01*
X155163557Y-121522734D01*
X155163557Y-121522733D01*
X155247221Y-121366211D01*
X155247222Y-121366209D01*
X155276552Y-121330471D01*
X155359814Y-121229014D01*
X155461271Y-121145752D01*
X155497009Y-121116422D01*
X155514913Y-121106852D01*
X155653533Y-121032757D01*
X155710147Y-121015584D01*
X155823373Y-120981237D01*
X155889557Y-120974719D01*
X155955740Y-120968200D01*
X156044260Y-120968200D01*
X156110443Y-120974719D01*
X156110443Y-120974719D01*
G37*
G36*
X156110443Y-118434719D02*
X156176627Y-118441237D01*
X156289853Y-118475584D01*
X156346467Y-118492757D01*
X156485087Y-118566852D01*
X156502991Y-118576422D01*
X156538729Y-118605752D01*
X156640186Y-118689014D01*
X156723448Y-118790471D01*
X156752778Y-118826209D01*
X156752779Y-118826211D01*
X156836443Y-118982733D01*
X156836443Y-118982734D01*
X156887963Y-119152573D01*
X156905359Y-119329200D01*
X156887963Y-119505827D01*
X156853616Y-119619053D01*
X156836443Y-119675667D01*
X156762348Y-119814287D01*
X156752778Y-119832191D01*
X156723448Y-119867929D01*
X156640186Y-119969386D01*
X156538729Y-120052648D01*
X156502991Y-120081978D01*
X156502989Y-120081979D01*
X156346467Y-120165643D01*
X156289853Y-120182816D01*
X156176627Y-120217163D01*
X156110442Y-120223682D01*
X156044260Y-120230200D01*
X155955740Y-120230200D01*
X155889558Y-120223682D01*
X155823373Y-120217163D01*
X155710147Y-120182816D01*
X155653533Y-120165643D01*
X155497011Y-120081979D01*
X155497009Y-120081978D01*
X155461271Y-120052648D01*
X155359814Y-119969386D01*
X155276552Y-119867929D01*
X155247222Y-119832191D01*
X155237652Y-119814287D01*
X155163557Y-119675667D01*
X155146384Y-119619053D01*
X155112037Y-119505827D01*
X155094641Y-119329200D01*
X155112037Y-119152573D01*
X155163557Y-118982734D01*
X155163557Y-118982733D01*
X155247221Y-118826211D01*
X155247222Y-118826209D01*
X155276552Y-118790471D01*
X155359814Y-118689014D01*
X155461271Y-118605752D01*
X155497009Y-118576422D01*
X155514913Y-118566852D01*
X155653533Y-118492757D01*
X155710147Y-118475584D01*
X155823373Y-118441237D01*
X155889557Y-118434719D01*
X155955740Y-118428200D01*
X156044260Y-118428200D01*
X156110443Y-118434719D01*
X156110443Y-118434719D01*
G37*
G36*
X122960532Y-114503541D02*
X123050707Y-114540893D01*
X123131863Y-114595120D01*
X123200880Y-114664137D01*
X123255107Y-114745293D01*
X123292459Y-114835468D01*
X123311500Y-114931197D01*
X123311500Y-115028803D01*
X123292459Y-115124532D01*
X123255107Y-115214707D01*
X123200880Y-115295863D01*
X123131863Y-115364880D01*
X123050707Y-115419107D01*
X122960532Y-115456459D01*
X122864803Y-115475500D01*
X122767197Y-115475500D01*
X122671468Y-115456459D01*
X122581293Y-115419107D01*
X122500137Y-115364880D01*
X122431120Y-115295863D01*
X122376893Y-115214707D01*
X122339541Y-115124532D01*
X122320500Y-115028803D01*
X122320500Y-114931197D01*
X122339541Y-114835468D01*
X122376893Y-114745293D01*
X122431120Y-114664137D01*
X122500137Y-114595120D01*
X122581293Y-114540893D01*
X122671468Y-114503541D01*
X122767197Y-114484500D01*
X122864803Y-114484500D01*
X122960532Y-114503541D01*
X122960532Y-114503541D01*
G37*
G36*
X120928532Y-114503541D02*
X121018707Y-114540893D01*
X121099863Y-114595120D01*
X121168880Y-114664137D01*
X121223107Y-114745293D01*
X121260459Y-114835468D01*
X121279500Y-114931197D01*
X121279500Y-115028803D01*
X121260459Y-115124532D01*
X121223107Y-115214707D01*
X121168880Y-115295863D01*
X121099863Y-115364880D01*
X121018707Y-115419107D01*
X120928532Y-115456459D01*
X120832803Y-115475500D01*
X120735197Y-115475500D01*
X120639468Y-115456459D01*
X120549293Y-115419107D01*
X120468137Y-115364880D01*
X120399120Y-115295863D01*
X120344893Y-115214707D01*
X120307541Y-115124532D01*
X120288500Y-115028803D01*
X120288500Y-114931197D01*
X120307541Y-114835468D01*
X120344893Y-114745293D01*
X120399120Y-114664137D01*
X120468137Y-114595120D01*
X120549293Y-114540893D01*
X120639468Y-114503541D01*
X120735197Y-114484500D01*
X120832803Y-114484500D01*
X120928532Y-114503541D01*
X120928532Y-114503541D01*
G37*
G36*
X121944532Y-109423541D02*
X122034707Y-109460893D01*
X122115863Y-109515120D01*
X122184880Y-109584137D01*
X122239107Y-109665293D01*
X122276459Y-109755468D01*
X122295500Y-109851197D01*
X122295500Y-109948803D01*
X122276459Y-110044532D01*
X122239107Y-110134707D01*
X122184880Y-110215863D01*
X122115863Y-110284880D01*
X122034707Y-110339107D01*
X121944532Y-110376459D01*
X121848803Y-110395500D01*
X121751197Y-110395500D01*
X121655468Y-110376459D01*
X121565293Y-110339107D01*
X121484137Y-110284880D01*
X121415120Y-110215863D01*
X121360893Y-110134707D01*
X121323541Y-110044532D01*
X121304500Y-109948803D01*
X121304500Y-109851197D01*
X121323541Y-109755468D01*
X121360893Y-109665293D01*
X121415120Y-109584137D01*
X121484137Y-109515120D01*
X121565293Y-109460893D01*
X121655468Y-109423541D01*
X121751197Y-109404500D01*
X121848803Y-109404500D01*
X121944532Y-109423541D01*
X121944532Y-109423541D01*
G37*
G36*
X133900721Y-107810174D02*
X134000995Y-107851709D01*
X134091245Y-107912012D01*
X134167988Y-107988755D01*
X134228291Y-108079005D01*
X134269826Y-108179279D01*
X134291000Y-108285730D01*
X134291000Y-108394270D01*
X134269826Y-108500721D01*
X134228291Y-108600995D01*
X134167988Y-108691245D01*
X134091245Y-108767988D01*
X134000995Y-108828291D01*
X133900721Y-108869826D01*
X133794270Y-108891000D01*
X133685730Y-108891000D01*
X133579279Y-108869826D01*
X133479005Y-108828291D01*
X133388755Y-108767988D01*
X133312012Y-108691245D01*
X133251709Y-108600995D01*
X133210174Y-108500721D01*
X133189000Y-108394270D01*
X133189000Y-108285730D01*
X133210174Y-108179279D01*
X133251709Y-108079005D01*
X133312012Y-107988755D01*
X133388755Y-107912012D01*
X133479005Y-107851709D01*
X133579279Y-107810174D01*
X133685730Y-107789000D01*
X133794270Y-107789000D01*
X133900721Y-107810174D01*
X133900721Y-107810174D01*
G37*
G36*
X147935734Y-106593232D02*
X148145202Y-106679996D01*
X148333723Y-106805962D01*
X148494038Y-106966277D01*
X148620004Y-107154798D01*
X148706768Y-107364266D01*
X148751000Y-107586635D01*
X148751000Y-107813365D01*
X148706768Y-108035734D01*
X148620004Y-108245202D01*
X148494038Y-108433723D01*
X148333723Y-108594038D01*
X148145202Y-108720004D01*
X147935734Y-108806768D01*
X147713365Y-108851000D01*
X147486635Y-108851000D01*
X147264266Y-108806768D01*
X147054798Y-108720004D01*
X146866277Y-108594038D01*
X146705962Y-108433723D01*
X146579996Y-108245202D01*
X146493232Y-108035734D01*
X146449000Y-107813365D01*
X146449000Y-107586635D01*
X146493232Y-107364266D01*
X146579996Y-107154798D01*
X146705962Y-106966277D01*
X146866277Y-106805962D01*
X147054798Y-106679996D01*
X147264266Y-106593232D01*
X147486635Y-106549000D01*
X147713365Y-106549000D01*
X147935734Y-106593232D01*
X147935734Y-106593232D01*
G37*
G36*
X100947396Y-105015546D02*
X101120466Y-105087234D01*
X101276230Y-105191312D01*
X101408688Y-105323770D01*
X101512766Y-105479534D01*
X101584454Y-105652604D01*
X101621000Y-105836333D01*
X101621000Y-106023667D01*
X101584454Y-106207396D01*
X101512766Y-106380466D01*
X101408688Y-106536230D01*
X101276230Y-106668688D01*
X101120466Y-106772766D01*
X100947396Y-106844454D01*
X100763667Y-106881000D01*
X100576333Y-106881000D01*
X100392604Y-106844454D01*
X100219534Y-106772766D01*
X100063770Y-106668688D01*
X99931312Y-106536230D01*
X99827234Y-106380466D01*
X99755546Y-106207396D01*
X99719000Y-106023667D01*
X99719000Y-105836333D01*
X99755546Y-105652604D01*
X99827234Y-105479534D01*
X99931312Y-105323770D01*
X100063770Y-105191312D01*
X100219534Y-105087234D01*
X100392604Y-105015546D01*
X100576333Y-104979000D01*
X100763667Y-104979000D01*
X100947396Y-105015546D01*
X100947396Y-105015546D01*
G37*
G36*
X104843655Y-103359733D02*
X104843657Y-103359734D01*
X104843658Y-103359734D01*
X104897509Y-103382040D01*
X104989440Y-103420119D01*
X105120643Y-103507786D01*
X105232214Y-103619357D01*
X105319881Y-103750560D01*
X105380267Y-103896345D01*
X105411050Y-104051102D01*
X105411050Y-104208898D01*
X105380267Y-104363655D01*
X105319881Y-104509440D01*
X105232214Y-104640643D01*
X105120643Y-104752214D01*
X104989440Y-104839881D01*
X104909133Y-104873145D01*
X104843658Y-104900266D01*
X104843657Y-104900266D01*
X104843655Y-104900267D01*
X104688898Y-104931050D01*
X104531102Y-104931050D01*
X104376342Y-104900267D01*
X104333835Y-104882660D01*
X104310386Y-104875547D01*
X104286000Y-104873145D01*
X104261613Y-104875547D01*
X104238164Y-104882660D01*
X104216553Y-104894212D01*
X104197611Y-104909757D01*
X104182066Y-104928699D01*
X104170515Y-104950310D01*
X104163402Y-104973759D01*
X104161000Y-104998145D01*
X104161000Y-106881000D01*
X102259000Y-106881000D01*
X102259000Y-104979000D01*
X104026696Y-104979000D01*
X104051082Y-104976598D01*
X104074531Y-104969485D01*
X104096142Y-104957934D01*
X104115084Y-104942388D01*
X104130630Y-104923446D01*
X104142181Y-104901835D01*
X104149294Y-104878386D01*
X104151696Y-104854000D01*
X104149294Y-104829614D01*
X104142181Y-104806165D01*
X104130630Y-104784554D01*
X104115084Y-104765612D01*
X104102094Y-104754951D01*
X103987786Y-104640643D01*
X103900119Y-104509440D01*
X103839733Y-104363655D01*
X103808950Y-104208898D01*
X103808950Y-104051102D01*
X103839733Y-103896345D01*
X103900119Y-103750560D01*
X103987786Y-103619357D01*
X104099357Y-103507786D01*
X104230560Y-103420119D01*
X104322491Y-103382040D01*
X104376342Y-103359734D01*
X104376343Y-103359734D01*
X104376345Y-103359733D01*
X104531102Y-103328950D01*
X104688898Y-103328950D01*
X104843655Y-103359733D01*
X104843655Y-103359733D01*
G37*
G36*
X98407396Y-105015546D02*
X98580466Y-105087234D01*
X98736230Y-105191312D01*
X98868688Y-105323770D01*
X98972766Y-105479534D01*
X99044454Y-105652604D01*
X99081000Y-105836333D01*
X99081000Y-106023667D01*
X99044454Y-106207396D01*
X98972766Y-106380466D01*
X98868688Y-106536230D01*
X98736230Y-106668688D01*
X98580466Y-106772766D01*
X98407396Y-106844454D01*
X98223667Y-106881000D01*
X98036333Y-106881000D01*
X97852604Y-106844454D01*
X97679534Y-106772766D01*
X97523770Y-106668688D01*
X97391312Y-106536230D01*
X97287234Y-106380466D01*
X97215546Y-106207396D01*
X97179000Y-106023667D01*
X97179000Y-105836333D01*
X97215546Y-105652604D01*
X97287234Y-105479534D01*
X97391312Y-105323770D01*
X97523770Y-105191312D01*
X97679534Y-105087234D01*
X97852604Y-105015546D01*
X98036333Y-104979000D01*
X98223667Y-104979000D01*
X98407396Y-105015546D01*
X98407396Y-105015546D01*
G37*
G36*
X142130721Y-105680174D02*
X142230995Y-105721709D01*
X142321245Y-105782012D01*
X142397988Y-105858755D01*
X142458291Y-105949005D01*
X142499826Y-106049279D01*
X142521000Y-106155730D01*
X142521000Y-106264270D01*
X142499826Y-106370721D01*
X142458291Y-106470995D01*
X142397988Y-106561245D01*
X142321245Y-106637988D01*
X142230995Y-106698291D01*
X142130721Y-106739826D01*
X142024270Y-106761000D01*
X141915730Y-106761000D01*
X141809279Y-106739826D01*
X141709005Y-106698291D01*
X141618755Y-106637988D01*
X141542012Y-106561245D01*
X141481709Y-106470995D01*
X141440174Y-106370721D01*
X141419000Y-106264270D01*
X141419000Y-106155730D01*
X141440174Y-106049279D01*
X141481709Y-105949005D01*
X141542012Y-105858755D01*
X141618755Y-105782012D01*
X141709005Y-105721709D01*
X141809279Y-105680174D01*
X141915730Y-105659000D01*
X142024270Y-105659000D01*
X142130721Y-105680174D01*
X142130721Y-105680174D01*
G37*
G36*
X131790721Y-105490174D02*
X131890995Y-105531709D01*
X131981245Y-105592012D01*
X132057988Y-105668755D01*
X132118291Y-105759005D01*
X132159826Y-105859279D01*
X132181000Y-105965730D01*
X132181000Y-106074270D01*
X132159826Y-106180721D01*
X132118291Y-106280995D01*
X132057988Y-106371245D01*
X131981245Y-106447988D01*
X131890995Y-106508291D01*
X131790721Y-106549826D01*
X131684270Y-106571000D01*
X131575730Y-106571000D01*
X131469279Y-106549826D01*
X131369005Y-106508291D01*
X131278755Y-106447988D01*
X131202012Y-106371245D01*
X131141709Y-106280995D01*
X131100174Y-106180721D01*
X131079000Y-106074270D01*
X131079000Y-105965730D01*
X131100174Y-105859279D01*
X131141709Y-105759005D01*
X131202012Y-105668755D01*
X131278755Y-105592012D01*
X131369005Y-105531709D01*
X131469279Y-105490174D01*
X131575730Y-105469000D01*
X131684270Y-105469000D01*
X131790721Y-105490174D01*
X131790721Y-105490174D01*
G37*
G36*
X112012396Y-103485546D02*
X112185466Y-103557234D01*
X112341230Y-103661312D01*
X112473688Y-103793770D01*
X112577766Y-103949534D01*
X112649454Y-104122604D01*
X112686000Y-104306333D01*
X112686000Y-104493667D01*
X112649454Y-104677396D01*
X112577766Y-104850466D01*
X112473688Y-105006230D01*
X112341230Y-105138688D01*
X112185466Y-105242766D01*
X112012396Y-105314454D01*
X111828667Y-105351000D01*
X111641333Y-105351000D01*
X111457604Y-105314454D01*
X111284534Y-105242766D01*
X111128770Y-105138688D01*
X110996312Y-105006230D01*
X110892234Y-104850466D01*
X110820546Y-104677396D01*
X110784000Y-104493667D01*
X110784000Y-104306333D01*
X110820546Y-104122604D01*
X110892234Y-103949534D01*
X110996312Y-103793770D01*
X111128770Y-103661312D01*
X111284534Y-103557234D01*
X111457604Y-103485546D01*
X111641333Y-103449000D01*
X111828667Y-103449000D01*
X112012396Y-103485546D01*
X112012396Y-103485546D01*
G37*
G36*
X109472396Y-103485546D02*
X109645466Y-103557234D01*
X109801230Y-103661312D01*
X109933688Y-103793770D01*
X110037766Y-103949534D01*
X110109454Y-104122604D01*
X110146000Y-104306333D01*
X110146000Y-104493667D01*
X110109454Y-104677396D01*
X110037766Y-104850466D01*
X109933688Y-105006230D01*
X109801230Y-105138688D01*
X109645466Y-105242766D01*
X109472396Y-105314454D01*
X109288667Y-105351000D01*
X109101333Y-105351000D01*
X108917604Y-105314454D01*
X108744534Y-105242766D01*
X108588770Y-105138688D01*
X108456312Y-105006230D01*
X108352234Y-104850466D01*
X108280546Y-104677396D01*
X108244000Y-104493667D01*
X108244000Y-104306333D01*
X108280546Y-104122604D01*
X108352234Y-103949534D01*
X108456312Y-103793770D01*
X108588770Y-103661312D01*
X108744534Y-103557234D01*
X108917604Y-103485546D01*
X109101333Y-103449000D01*
X109288667Y-103449000D01*
X109472396Y-103485546D01*
X109472396Y-103485546D01*
G37*
G36*
X113956000Y-102791855D02*
X113958402Y-102816241D01*
X113965515Y-102839690D01*
X113977066Y-102861301D01*
X113992612Y-102880243D01*
X114011554Y-102895789D01*
X114033165Y-102907340D01*
X114056614Y-102914453D01*
X114081000Y-102916855D01*
X114105386Y-102914453D01*
X114128835Y-102907340D01*
X114171342Y-102889733D01*
X114326102Y-102858950D01*
X114483898Y-102858950D01*
X114638655Y-102889733D01*
X114638657Y-102889734D01*
X114638658Y-102889734D01*
X114653276Y-102895789D01*
X114784440Y-102950119D01*
X114915643Y-103037786D01*
X115027214Y-103149357D01*
X115114881Y-103280560D01*
X115175267Y-103426345D01*
X115206050Y-103581102D01*
X115206050Y-103738898D01*
X115175267Y-103893655D01*
X115114881Y-104039440D01*
X115027214Y-104170643D01*
X114915643Y-104282214D01*
X114784440Y-104369881D01*
X114692509Y-104407960D01*
X114638658Y-104430266D01*
X114638657Y-104430266D01*
X114638655Y-104430267D01*
X114483898Y-104461050D01*
X114326102Y-104461050D01*
X114171345Y-104430267D01*
X114171343Y-104430266D01*
X114171342Y-104430266D01*
X114117491Y-104407960D01*
X114025560Y-104369881D01*
X113894357Y-104282214D01*
X113782786Y-104170643D01*
X113695119Y-104039440D01*
X113634733Y-103893655D01*
X113603950Y-103738898D01*
X113603950Y-103581102D01*
X113634733Y-103426345D01*
X113695119Y-103280560D01*
X113782786Y-103149357D01*
X113897093Y-103035050D01*
X113910085Y-103024388D01*
X113925630Y-103005446D01*
X113937181Y-102983835D01*
X113944294Y-102960386D01*
X113946696Y-102935999D01*
X113944294Y-102911613D01*
X113937181Y-102888164D01*
X113925629Y-102866553D01*
X113910084Y-102847611D01*
X113891142Y-102832066D01*
X113869531Y-102820515D01*
X113846082Y-102813402D01*
X113821696Y-102811000D01*
X112054000Y-102811000D01*
X112054000Y-100909000D01*
X113956000Y-100909000D01*
X113956000Y-102791855D01*
X113956000Y-102791855D01*
G37*
G36*
X97137396Y-102475546D02*
X97310466Y-102547234D01*
X97466230Y-102651312D01*
X97598688Y-102783770D01*
X97702766Y-102939534D01*
X97774454Y-103112604D01*
X97811000Y-103296333D01*
X97811000Y-103483667D01*
X97774454Y-103667396D01*
X97702766Y-103840466D01*
X97598688Y-103996230D01*
X97466230Y-104128688D01*
X97310466Y-104232766D01*
X97137396Y-104304454D01*
X96953667Y-104341000D01*
X96766333Y-104341000D01*
X96582604Y-104304454D01*
X96409534Y-104232766D01*
X96253770Y-104128688D01*
X96121312Y-103996230D01*
X96017234Y-103840466D01*
X95945546Y-103667396D01*
X95909000Y-103483667D01*
X95909000Y-103296333D01*
X95945546Y-103112604D01*
X96017234Y-102939534D01*
X96121312Y-102783770D01*
X96253770Y-102651312D01*
X96409534Y-102547234D01*
X96582604Y-102475546D01*
X96766333Y-102439000D01*
X96953667Y-102439000D01*
X97137396Y-102475546D01*
X97137396Y-102475546D01*
G37*
G36*
X99677396Y-102475546D02*
X99850466Y-102547234D01*
X100006230Y-102651312D01*
X100138688Y-102783770D01*
X100242766Y-102939534D01*
X100314454Y-103112604D01*
X100351000Y-103296333D01*
X100351000Y-103483667D01*
X100314454Y-103667396D01*
X100242766Y-103840466D01*
X100138688Y-103996230D01*
X100006230Y-104128688D01*
X99850466Y-104232766D01*
X99677396Y-104304454D01*
X99493667Y-104341000D01*
X99306333Y-104341000D01*
X99122604Y-104304454D01*
X98949534Y-104232766D01*
X98793770Y-104128688D01*
X98661312Y-103996230D01*
X98557234Y-103840466D01*
X98485546Y-103667396D01*
X98449000Y-103483667D01*
X98449000Y-103296333D01*
X98485546Y-103112604D01*
X98557234Y-102939534D01*
X98661312Y-102783770D01*
X98793770Y-102651312D01*
X98949534Y-102547234D01*
X99122604Y-102475546D01*
X99306333Y-102439000D01*
X99493667Y-102439000D01*
X99677396Y-102475546D01*
X99677396Y-102475546D01*
G37*
G36*
X102217396Y-102475546D02*
X102390466Y-102547234D01*
X102546230Y-102651312D01*
X102678688Y-102783770D01*
X102782766Y-102939534D01*
X102854454Y-103112604D01*
X102891000Y-103296333D01*
X102891000Y-103483667D01*
X102854454Y-103667396D01*
X102782766Y-103840466D01*
X102678688Y-103996230D01*
X102546230Y-104128688D01*
X102390466Y-104232766D01*
X102217396Y-104304454D01*
X102033667Y-104341000D01*
X101846333Y-104341000D01*
X101662604Y-104304454D01*
X101489534Y-104232766D01*
X101333770Y-104128688D01*
X101201312Y-103996230D01*
X101097234Y-103840466D01*
X101025546Y-103667396D01*
X100989000Y-103483667D01*
X100989000Y-103296333D01*
X101025546Y-103112604D01*
X101097234Y-102939534D01*
X101201312Y-102783770D01*
X101333770Y-102651312D01*
X101489534Y-102547234D01*
X101662604Y-102475546D01*
X101846333Y-102439000D01*
X102033667Y-102439000D01*
X102217396Y-102475546D01*
X102217396Y-102475546D01*
G37*
G36*
X110742396Y-100945546D02*
X110915466Y-101017234D01*
X111071230Y-101121312D01*
X111203688Y-101253770D01*
X111307766Y-101409534D01*
X111379454Y-101582604D01*
X111416000Y-101766333D01*
X111416000Y-101953667D01*
X111379454Y-102137396D01*
X111307766Y-102310466D01*
X111203688Y-102466230D01*
X111071230Y-102598688D01*
X110915466Y-102702766D01*
X110742396Y-102774454D01*
X110558667Y-102811000D01*
X110371333Y-102811000D01*
X110187604Y-102774454D01*
X110014534Y-102702766D01*
X109858770Y-102598688D01*
X109726312Y-102466230D01*
X109622234Y-102310466D01*
X109550546Y-102137396D01*
X109514000Y-101953667D01*
X109514000Y-101766333D01*
X109550546Y-101582604D01*
X109622234Y-101409534D01*
X109726312Y-101253770D01*
X109858770Y-101121312D01*
X110014534Y-101017234D01*
X110187604Y-100945546D01*
X110371333Y-100909000D01*
X110558667Y-100909000D01*
X110742396Y-100945546D01*
X110742396Y-100945546D01*
G37*
M02*
