G04 #@! TF.GenerationSoftware,KiCad,Pcbnew,5.0.2-bee76a0~70~ubuntu18.04.1*
G04 #@! TF.CreationDate,2019-12-23T19:02:59+01:00*
G04 #@! TF.ProjectId,board,626f6172-642e-46b6-9963-61645f706362,rev?*
G04 #@! TF.SameCoordinates,Original*
G04 #@! TF.FileFunction,Legend,Bot*
G04 #@! TF.FilePolarity,Positive*
%FSLAX46Y46*%
G04 Gerber Fmt 4.6, Leading zero omitted, Abs format (unit mm)*
G04 Created by KiCad (PCBNEW 5.0.2-bee76a0~70~ubuntu18.04.1) date Mon 23 Dec 2019 07:02:59 PM CET*
%MOMM*%
%LPD*%
G01*
G04 APERTURE LIST*
%ADD10C,0.150000*%
%ADD11C,0.120000*%
G04 APERTURE END LIST*
D10*
X123176190Y-138352380D02*
X123176190Y-137352380D01*
X123176190Y-137733333D02*
X123080952Y-137685714D01*
X122890476Y-137685714D01*
X122795238Y-137733333D01*
X122747619Y-137780952D01*
X122700000Y-137876190D01*
X122700000Y-138161904D01*
X122747619Y-138257142D01*
X122795238Y-138304761D01*
X122890476Y-138352380D01*
X123080952Y-138352380D01*
X123176190Y-138304761D01*
X122128571Y-138352380D02*
X122223809Y-138304761D01*
X122271428Y-138209523D01*
X122271428Y-137352380D01*
X121319047Y-138352380D02*
X121319047Y-137352380D01*
X121319047Y-138304761D02*
X121414285Y-138352380D01*
X121604761Y-138352380D01*
X121700000Y-138304761D01*
X121747619Y-138257142D01*
X121795238Y-138161904D01*
X121795238Y-137876190D01*
X121747619Y-137780952D01*
X121700000Y-137733333D01*
X121604761Y-137685714D01*
X121414285Y-137685714D01*
X121319047Y-137733333D01*
X120414285Y-138304761D02*
X120509523Y-138352380D01*
X120700000Y-138352380D01*
X120795238Y-138304761D01*
X120842857Y-138257142D01*
X120890476Y-138161904D01*
X120890476Y-137876190D01*
X120842857Y-137780952D01*
X120795238Y-137733333D01*
X120700000Y-137685714D01*
X120509523Y-137685714D01*
X120414285Y-137733333D01*
X120223809Y-138447619D02*
X119461904Y-138447619D01*
X119223809Y-138352380D02*
X119223809Y-137685714D01*
X119223809Y-137780952D02*
X119176190Y-137733333D01*
X119080952Y-137685714D01*
X118938095Y-137685714D01*
X118842857Y-137733333D01*
X118795238Y-137828571D01*
X118795238Y-138352380D01*
X118795238Y-137828571D02*
X118747619Y-137733333D01*
X118652380Y-137685714D01*
X118509523Y-137685714D01*
X118414285Y-137733333D01*
X118366666Y-137828571D01*
X118366666Y-138352380D01*
X117747619Y-138352380D02*
X117842857Y-138304761D01*
X117890476Y-138257142D01*
X117938095Y-138161904D01*
X117938095Y-137876190D01*
X117890476Y-137780952D01*
X117842857Y-137733333D01*
X117747619Y-137685714D01*
X117604761Y-137685714D01*
X117509523Y-137733333D01*
X117461904Y-137780952D01*
X117414285Y-137876190D01*
X117414285Y-138161904D01*
X117461904Y-138257142D01*
X117509523Y-138304761D01*
X117604761Y-138352380D01*
X117747619Y-138352380D01*
X117128571Y-137685714D02*
X116747619Y-137685714D01*
X116985714Y-137352380D02*
X116985714Y-138209523D01*
X116938095Y-138304761D01*
X116842857Y-138352380D01*
X116747619Y-138352380D01*
X116271428Y-138352380D02*
X116366666Y-138304761D01*
X116414285Y-138257142D01*
X116461904Y-138161904D01*
X116461904Y-137876190D01*
X116414285Y-137780952D01*
X116366666Y-137733333D01*
X116271428Y-137685714D01*
X116128571Y-137685714D01*
X116033333Y-137733333D01*
X115985714Y-137780952D01*
X115938095Y-137876190D01*
X115938095Y-138161904D01*
X115985714Y-138257142D01*
X116033333Y-138304761D01*
X116128571Y-138352380D01*
X116271428Y-138352380D01*
X115509523Y-138352380D02*
X115509523Y-137685714D01*
X115509523Y-137876190D02*
X115461904Y-137780952D01*
X115414285Y-137733333D01*
X115319047Y-137685714D01*
X115223809Y-137685714D01*
X114890476Y-138352380D02*
X114890476Y-137352380D01*
X114890476Y-137733333D02*
X114795238Y-137685714D01*
X114604761Y-137685714D01*
X114509523Y-137733333D01*
X114461904Y-137780952D01*
X114414285Y-137876190D01*
X114414285Y-138161904D01*
X114461904Y-138257142D01*
X114509523Y-138304761D01*
X114604761Y-138352380D01*
X114795238Y-138352380D01*
X114890476Y-138304761D01*
X113842857Y-138352380D02*
X113938095Y-138304761D01*
X113985714Y-138257142D01*
X114033333Y-138161904D01*
X114033333Y-137876190D01*
X113985714Y-137780952D01*
X113938095Y-137733333D01*
X113842857Y-137685714D01*
X113700000Y-137685714D01*
X113604761Y-137733333D01*
X113557142Y-137780952D01*
X113509523Y-137876190D01*
X113509523Y-138161904D01*
X113557142Y-138257142D01*
X113604761Y-138304761D01*
X113700000Y-138352380D01*
X113842857Y-138352380D01*
X112652380Y-138352380D02*
X112652380Y-137828571D01*
X112700000Y-137733333D01*
X112795238Y-137685714D01*
X112985714Y-137685714D01*
X113080952Y-137733333D01*
X112652380Y-138304761D02*
X112747619Y-138352380D01*
X112985714Y-138352380D01*
X113080952Y-138304761D01*
X113128571Y-138209523D01*
X113128571Y-138114285D01*
X113080952Y-138019047D01*
X112985714Y-137971428D01*
X112747619Y-137971428D01*
X112652380Y-137923809D01*
X112176190Y-138352380D02*
X112176190Y-137685714D01*
X112176190Y-137876190D02*
X112128571Y-137780952D01*
X112080952Y-137733333D01*
X111985714Y-137685714D01*
X111890476Y-137685714D01*
X111128571Y-138352380D02*
X111128571Y-137352380D01*
X111128571Y-138304761D02*
X111223809Y-138352380D01*
X111414285Y-138352380D01*
X111509523Y-138304761D01*
X111557142Y-138257142D01*
X111604761Y-138161904D01*
X111604761Y-137876190D01*
X111557142Y-137780952D01*
X111509523Y-137733333D01*
X111414285Y-137685714D01*
X111223809Y-137685714D01*
X111128571Y-137733333D01*
X110890476Y-138447619D02*
X110128571Y-138447619D01*
X109985714Y-137685714D02*
X109747619Y-138352380D01*
X109509523Y-137685714D01*
X108938095Y-137352380D02*
X108842857Y-137352380D01*
X108747619Y-137400000D01*
X108700000Y-137447619D01*
X108652380Y-137542857D01*
X108604761Y-137733333D01*
X108604761Y-137971428D01*
X108652380Y-138161904D01*
X108700000Y-138257142D01*
X108747619Y-138304761D01*
X108842857Y-138352380D01*
X108938095Y-138352380D01*
X109033333Y-138304761D01*
X109080952Y-138257142D01*
X109128571Y-138161904D01*
X109176190Y-137971428D01*
X109176190Y-137733333D01*
X109128571Y-137542857D01*
X109080952Y-137447619D01*
X109033333Y-137400000D01*
X108938095Y-137352380D01*
X108176190Y-138257142D02*
X108128571Y-138304761D01*
X108176190Y-138352380D01*
X108223809Y-138304761D01*
X108176190Y-138257142D01*
X108176190Y-138352380D01*
X107795238Y-137352380D02*
X107128571Y-137352380D01*
X107557142Y-138352380D01*
G04 #@! TO.C,J8*
X108150000Y-138700000D02*
X93150000Y-138700000D01*
X108150000Y-130700000D02*
X108150000Y-138700000D01*
X93150000Y-130700000D02*
X108150000Y-130700000D01*
X93150000Y-138700000D02*
X93150000Y-130700000D01*
X96150000Y-130700000D02*
X96150000Y-131300000D01*
X96150000Y-134100000D02*
X96150000Y-135300000D01*
X96150000Y-138700000D02*
X96150000Y-138100000D01*
D11*
G04 #@! TO.C,J5*
X100670000Y-107460000D02*
X94985000Y-107460000D01*
X94985000Y-107460000D02*
X94985000Y-101860000D01*
X105085000Y-101860000D02*
X94985000Y-101860000D01*
X105085000Y-103390000D02*
X105085000Y-101860000D01*
X103810000Y-104660000D02*
X101940000Y-104660000D01*
X101940000Y-104660000D02*
X101940000Y-106530000D01*
X103210000Y-107460000D02*
X105085000Y-107460000D01*
X105085000Y-107460000D02*
X105085000Y-105930000D01*
G04 #@! TO.C,TP8*
X142670000Y-106210000D02*
G75*
G03X142670000Y-106210000I-700000J0D01*
G01*
G04 #@! TO.C,TP9*
X134440000Y-108340000D02*
G75*
G03X134440000Y-108340000I-700000J0D01*
G01*
G04 #@! TO.C,TP10*
X132330000Y-106020000D02*
G75*
G03X132330000Y-106020000I-700000J0D01*
G01*
G04 #@! TD*
M02*
