G04 #@! TF.GenerationSoftware,KiCad,Pcbnew,5.1.5-52549c5~84~ubuntu18.04.1*
G04 #@! TF.CreationDate,2020-05-04T21:01:36+02:00*
G04 #@! TF.ProjectId,rs485_adapter,72733438-355f-4616-9461-707465722e6b,rev?*
G04 #@! TF.SameCoordinates,Original*
G04 #@! TF.FileFunction,Soldermask,Bot*
G04 #@! TF.FilePolarity,Negative*
%FSLAX46Y46*%
G04 Gerber Fmt 4.6, Leading zero omitted, Abs format (unit mm)*
G04 Created by KiCad (PCBNEW 5.1.5-52549c5~84~ubuntu18.04.1) date 2020-05-04 21:01:36*
%MOMM*%
%LPD*%
G04 APERTURE LIST*
%ADD10C,0.100000*%
G04 APERTURE END LIST*
D10*
G36*
X120650880Y-108909776D02*
G01*
X121031593Y-108985504D01*
X121441249Y-109155189D01*
X121809929Y-109401534D01*
X122123466Y-109715071D01*
X122369811Y-110083751D01*
X122539496Y-110493407D01*
X122626000Y-110928296D01*
X122626000Y-111371704D01*
X122539496Y-111806593D01*
X122369811Y-112216249D01*
X122123466Y-112584929D01*
X121809929Y-112898466D01*
X121441249Y-113144811D01*
X121031593Y-113314496D01*
X120650880Y-113390224D01*
X120596705Y-113401000D01*
X120153295Y-113401000D01*
X120099120Y-113390224D01*
X119718407Y-113314496D01*
X119308751Y-113144811D01*
X118940071Y-112898466D01*
X118626534Y-112584929D01*
X118380189Y-112216249D01*
X118210504Y-111806593D01*
X118124000Y-111371704D01*
X118124000Y-110928296D01*
X118210504Y-110493407D01*
X118380189Y-110083751D01*
X118626534Y-109715071D01*
X118940071Y-109401534D01*
X119308751Y-109155189D01*
X119718407Y-108985504D01*
X120099120Y-108909776D01*
X120153295Y-108899000D01*
X120596705Y-108899000D01*
X120650880Y-108909776D01*
G37*
G36*
X133591000Y-110506700D02*
G01*
X133593402Y-110531086D01*
X133600515Y-110554535D01*
X133612066Y-110576146D01*
X133627611Y-110595088D01*
X133646553Y-110610633D01*
X133668164Y-110622184D01*
X133691613Y-110629297D01*
X133715999Y-110631699D01*
X133740385Y-110629297D01*
X133763834Y-110622184D01*
X133785445Y-110610633D01*
X133804387Y-110595088D01*
X133815049Y-110582096D01*
X133817783Y-110579362D01*
X133817784Y-110579360D01*
X133929360Y-110467784D01*
X134060561Y-110380119D01*
X134060562Y-110380118D01*
X134206343Y-110319733D01*
X134361102Y-110288950D01*
X134518898Y-110288950D01*
X134673657Y-110319733D01*
X134819438Y-110380118D01*
X134819439Y-110380119D01*
X134950640Y-110467784D01*
X135062216Y-110579360D01*
X135103402Y-110641000D01*
X135149882Y-110710562D01*
X135210267Y-110856343D01*
X135241050Y-111011102D01*
X135241050Y-111168898D01*
X135210267Y-111323657D01*
X135149882Y-111469438D01*
X135129461Y-111500000D01*
X135062216Y-111600640D01*
X134950640Y-111712216D01*
X134884594Y-111756346D01*
X134819438Y-111799882D01*
X134673657Y-111860267D01*
X134518898Y-111891050D01*
X134361102Y-111891050D01*
X134206343Y-111860267D01*
X134060562Y-111799882D01*
X133995406Y-111756346D01*
X133929360Y-111712216D01*
X133817784Y-111600640D01*
X133750539Y-111500000D01*
X133730118Y-111469438D01*
X133669733Y-111323657D01*
X133638950Y-111168898D01*
X133638950Y-111011102D01*
X133669733Y-110856345D01*
X133687341Y-110813835D01*
X133694454Y-110790386D01*
X133696856Y-110766000D01*
X133694454Y-110741614D01*
X133687341Y-110718165D01*
X133675790Y-110696554D01*
X133660245Y-110677612D01*
X133641303Y-110662067D01*
X133619693Y-110650515D01*
X133596244Y-110643402D01*
X133571857Y-110641000D01*
X131689000Y-110641000D01*
X131689000Y-108739000D01*
X133591000Y-108739000D01*
X133591000Y-110506700D01*
G37*
G36*
X128379999Y-109949737D02*
G01*
X128389608Y-109952652D01*
X128398472Y-109957390D01*
X128406237Y-109963763D01*
X128416448Y-109976206D01*
X128423378Y-109986575D01*
X128440705Y-110003902D01*
X128461080Y-110017515D01*
X128483720Y-110026891D01*
X128507753Y-110031671D01*
X128532257Y-110031670D01*
X128556290Y-110026888D01*
X128578929Y-110017510D01*
X128599302Y-110003895D01*
X128616629Y-109986568D01*
X128623558Y-109976198D01*
X128633763Y-109963763D01*
X128641528Y-109957390D01*
X128650392Y-109952652D01*
X128660001Y-109949737D01*
X128676140Y-109948148D01*
X129163861Y-109948148D01*
X129182199Y-109949954D01*
X129194450Y-109950556D01*
X129212869Y-109950556D01*
X129235149Y-109952750D01*
X129319233Y-109969476D01*
X129340660Y-109975976D01*
X129419858Y-110008780D01*
X129425303Y-110011691D01*
X129425309Y-110011693D01*
X129434169Y-110016429D01*
X129434173Y-110016432D01*
X129439614Y-110019340D01*
X129510899Y-110066971D01*
X129528204Y-110081172D01*
X129588828Y-110141796D01*
X129603029Y-110159101D01*
X129650660Y-110230386D01*
X129653568Y-110235827D01*
X129653571Y-110235831D01*
X129658307Y-110244691D01*
X129658309Y-110244697D01*
X129661220Y-110250142D01*
X129694024Y-110329340D01*
X129700524Y-110350767D01*
X129717250Y-110434851D01*
X129719444Y-110457131D01*
X129719444Y-110475550D01*
X129720046Y-110487801D01*
X129721852Y-110506139D01*
X129721852Y-110993862D01*
X129720046Y-111012199D01*
X129719444Y-111024450D01*
X129719444Y-111042869D01*
X129717250Y-111065149D01*
X129700524Y-111149233D01*
X129694024Y-111170660D01*
X129661220Y-111249858D01*
X129658309Y-111255303D01*
X129658307Y-111255309D01*
X129653571Y-111264169D01*
X129653568Y-111264173D01*
X129650660Y-111269614D01*
X129603029Y-111340899D01*
X129588828Y-111358204D01*
X129528204Y-111418828D01*
X129510899Y-111433029D01*
X129439614Y-111480660D01*
X129434173Y-111483568D01*
X129434169Y-111483571D01*
X129425309Y-111488307D01*
X129425303Y-111488309D01*
X129419858Y-111491220D01*
X129340660Y-111524024D01*
X129319233Y-111530524D01*
X129235149Y-111547250D01*
X129212869Y-111549444D01*
X129194450Y-111549444D01*
X129182199Y-111550046D01*
X129163862Y-111551852D01*
X128676140Y-111551852D01*
X128660001Y-111550263D01*
X128650392Y-111547348D01*
X128641528Y-111542610D01*
X128633763Y-111536237D01*
X128623552Y-111523794D01*
X128616622Y-111513425D01*
X128599295Y-111496098D01*
X128578920Y-111482485D01*
X128556280Y-111473109D01*
X128532247Y-111468329D01*
X128507743Y-111468330D01*
X128483710Y-111473112D01*
X128461071Y-111482490D01*
X128440698Y-111496105D01*
X128423371Y-111513432D01*
X128416442Y-111523802D01*
X128406237Y-111536237D01*
X128398472Y-111542610D01*
X128389608Y-111547348D01*
X128379999Y-111550263D01*
X128363860Y-111551852D01*
X127876138Y-111551852D01*
X127857801Y-111550046D01*
X127845550Y-111549444D01*
X127827131Y-111549444D01*
X127804851Y-111547250D01*
X127720767Y-111530524D01*
X127699340Y-111524024D01*
X127620142Y-111491220D01*
X127614697Y-111488309D01*
X127614691Y-111488307D01*
X127605831Y-111483571D01*
X127605827Y-111483568D01*
X127600386Y-111480660D01*
X127529101Y-111433029D01*
X127511796Y-111418828D01*
X127451172Y-111358204D01*
X127436971Y-111340899D01*
X127389340Y-111269614D01*
X127386432Y-111264173D01*
X127386429Y-111264169D01*
X127381693Y-111255309D01*
X127381691Y-111255303D01*
X127378780Y-111249858D01*
X127345976Y-111170660D01*
X127339476Y-111149233D01*
X127322750Y-111065149D01*
X127320556Y-111042869D01*
X127320556Y-111024450D01*
X127319954Y-111012199D01*
X127318148Y-110993862D01*
X127318148Y-110506139D01*
X127319954Y-110487801D01*
X127320556Y-110475550D01*
X127320556Y-110457131D01*
X127322750Y-110434851D01*
X127339476Y-110350767D01*
X127345976Y-110329340D01*
X127378780Y-110250142D01*
X127381691Y-110244697D01*
X127381693Y-110244691D01*
X127386429Y-110235831D01*
X127386432Y-110235827D01*
X127389340Y-110230386D01*
X127436971Y-110159101D01*
X127451172Y-110141796D01*
X127511796Y-110081172D01*
X127529101Y-110066971D01*
X127600386Y-110019340D01*
X127605827Y-110016432D01*
X127605831Y-110016429D01*
X127614691Y-110011693D01*
X127614697Y-110011691D01*
X127620142Y-110008780D01*
X127699340Y-109975976D01*
X127720767Y-109969476D01*
X127804851Y-109952750D01*
X127827131Y-109950556D01*
X127845550Y-109950556D01*
X127857801Y-109949954D01*
X127876139Y-109948148D01*
X128363860Y-109948148D01*
X128379999Y-109949737D01*
G37*
G36*
X135457395Y-107505546D02*
G01*
X135630466Y-107577234D01*
X135707818Y-107628919D01*
X135786227Y-107681310D01*
X135918690Y-107813773D01*
X135918691Y-107813775D01*
X136022766Y-107969534D01*
X136094454Y-108142605D01*
X136131000Y-108326333D01*
X136131000Y-108513667D01*
X136094454Y-108697395D01*
X136022766Y-108870466D01*
X136022765Y-108870467D01*
X135918690Y-109026227D01*
X135786227Y-109158690D01*
X135707818Y-109211081D01*
X135630466Y-109262766D01*
X135457395Y-109334454D01*
X135273667Y-109371000D01*
X135086333Y-109371000D01*
X134902605Y-109334454D01*
X134729534Y-109262766D01*
X134652182Y-109211081D01*
X134573773Y-109158690D01*
X134441310Y-109026227D01*
X134337235Y-108870467D01*
X134337234Y-108870466D01*
X134265546Y-108697395D01*
X134229000Y-108513667D01*
X134229000Y-108326333D01*
X134265546Y-108142605D01*
X134337234Y-107969534D01*
X134441309Y-107813775D01*
X134441310Y-107813773D01*
X134573773Y-107681310D01*
X134652182Y-107628919D01*
X134729534Y-107577234D01*
X134902605Y-107505546D01*
X135086333Y-107469000D01*
X135273667Y-107469000D01*
X135457395Y-107505546D01*
G37*
G36*
X132917395Y-106235546D02*
G01*
X133090466Y-106307234D01*
X133167818Y-106358919D01*
X133246227Y-106411310D01*
X133378690Y-106543773D01*
X133378691Y-106543775D01*
X133482766Y-106699534D01*
X133554454Y-106872605D01*
X133591000Y-107056333D01*
X133591000Y-107243667D01*
X133554454Y-107427395D01*
X133482766Y-107600466D01*
X133482765Y-107600467D01*
X133378690Y-107756227D01*
X133246227Y-107888690D01*
X133167818Y-107941081D01*
X133090466Y-107992766D01*
X132917395Y-108064454D01*
X132733667Y-108101000D01*
X132546333Y-108101000D01*
X132362605Y-108064454D01*
X132189534Y-107992766D01*
X132112182Y-107941081D01*
X132033773Y-107888690D01*
X131901310Y-107756227D01*
X131797235Y-107600467D01*
X131797234Y-107600466D01*
X131725546Y-107427395D01*
X131689000Y-107243667D01*
X131689000Y-107056333D01*
X131725546Y-106872605D01*
X131797234Y-106699534D01*
X131901309Y-106543775D01*
X131901310Y-106543773D01*
X132033773Y-106411310D01*
X132112182Y-106358919D01*
X132189534Y-106307234D01*
X132362605Y-106235546D01*
X132546333Y-106199000D01*
X132733667Y-106199000D01*
X132917395Y-106235546D01*
G37*
G36*
X135457395Y-104965546D02*
G01*
X135630466Y-105037234D01*
X135707818Y-105088919D01*
X135786227Y-105141310D01*
X135918690Y-105273773D01*
X135918691Y-105273775D01*
X136022766Y-105429534D01*
X136094454Y-105602605D01*
X136131000Y-105786333D01*
X136131000Y-105973667D01*
X136094454Y-106157395D01*
X136022766Y-106330466D01*
X136022765Y-106330467D01*
X135918690Y-106486227D01*
X135786227Y-106618690D01*
X135707818Y-106671081D01*
X135630466Y-106722766D01*
X135457395Y-106794454D01*
X135273667Y-106831000D01*
X135086333Y-106831000D01*
X134902605Y-106794454D01*
X134729534Y-106722766D01*
X134652182Y-106671081D01*
X134573773Y-106618690D01*
X134441310Y-106486227D01*
X134337235Y-106330467D01*
X134337234Y-106330466D01*
X134265546Y-106157395D01*
X134229000Y-105973667D01*
X134229000Y-105786333D01*
X134265546Y-105602605D01*
X134337234Y-105429534D01*
X134441309Y-105273775D01*
X134441310Y-105273773D01*
X134573773Y-105141310D01*
X134652182Y-105088919D01*
X134729534Y-105037234D01*
X134902605Y-104965546D01*
X135086333Y-104929000D01*
X135273667Y-104929000D01*
X135457395Y-104965546D01*
G37*
G36*
X122417395Y-104935546D02*
G01*
X122590466Y-105007234D01*
X122667818Y-105058919D01*
X122746227Y-105111310D01*
X122878690Y-105243773D01*
X122928748Y-105318690D01*
X122982766Y-105399534D01*
X123054454Y-105572605D01*
X123091000Y-105756333D01*
X123091000Y-105943667D01*
X123054454Y-106127395D01*
X122982766Y-106300466D01*
X122962720Y-106330467D01*
X122878690Y-106456227D01*
X122746227Y-106588690D01*
X122701327Y-106618691D01*
X122590466Y-106692766D01*
X122417395Y-106764454D01*
X122233667Y-106801000D01*
X122046333Y-106801000D01*
X121862605Y-106764454D01*
X121689534Y-106692766D01*
X121578673Y-106618691D01*
X121533773Y-106588690D01*
X121401310Y-106456227D01*
X121317280Y-106330467D01*
X121297234Y-106300466D01*
X121225546Y-106127395D01*
X121189000Y-105943667D01*
X121189000Y-105756333D01*
X121225546Y-105572605D01*
X121297234Y-105399534D01*
X121351252Y-105318690D01*
X121401310Y-105243773D01*
X121533773Y-105111310D01*
X121612182Y-105058919D01*
X121689534Y-105007234D01*
X121862605Y-104935546D01*
X122046333Y-104899000D01*
X122233667Y-104899000D01*
X122417395Y-104935546D01*
G37*
G36*
X132917395Y-103695546D02*
G01*
X133090466Y-103767234D01*
X133167818Y-103818919D01*
X133246227Y-103871310D01*
X133378690Y-104003773D01*
X133378691Y-104003775D01*
X133482766Y-104159534D01*
X133554454Y-104332605D01*
X133591000Y-104516333D01*
X133591000Y-104703667D01*
X133554454Y-104887395D01*
X133482766Y-105060466D01*
X133482765Y-105060467D01*
X133378690Y-105216227D01*
X133246227Y-105348690D01*
X133170135Y-105399533D01*
X133090466Y-105452766D01*
X132917395Y-105524454D01*
X132733667Y-105561000D01*
X132546333Y-105561000D01*
X132362605Y-105524454D01*
X132189534Y-105452766D01*
X132109865Y-105399533D01*
X132033773Y-105348690D01*
X131901310Y-105216227D01*
X131797235Y-105060467D01*
X131797234Y-105060466D01*
X131725546Y-104887395D01*
X131689000Y-104703667D01*
X131689000Y-104516333D01*
X131725546Y-104332605D01*
X131797234Y-104159534D01*
X131901309Y-104003775D01*
X131901310Y-104003773D01*
X132033773Y-103871310D01*
X132112182Y-103818919D01*
X132189534Y-103767234D01*
X132362605Y-103695546D01*
X132546333Y-103659000D01*
X132733667Y-103659000D01*
X132917395Y-103695546D01*
G37*
G36*
X119877395Y-103665546D02*
G01*
X120050466Y-103737234D01*
X120127818Y-103788919D01*
X120206227Y-103841310D01*
X120338690Y-103973773D01*
X120388748Y-104048690D01*
X120442766Y-104129534D01*
X120514454Y-104302605D01*
X120551000Y-104486333D01*
X120551000Y-104673667D01*
X120514454Y-104857395D01*
X120442766Y-105030466D01*
X120422720Y-105060467D01*
X120338690Y-105186227D01*
X120206227Y-105318690D01*
X120161327Y-105348691D01*
X120050466Y-105422766D01*
X119877395Y-105494454D01*
X119693667Y-105531000D01*
X119506333Y-105531000D01*
X119322605Y-105494454D01*
X119149534Y-105422766D01*
X119038673Y-105348691D01*
X118993773Y-105318690D01*
X118861310Y-105186227D01*
X118777280Y-105060467D01*
X118757234Y-105030466D01*
X118685546Y-104857395D01*
X118649000Y-104673667D01*
X118649000Y-104486333D01*
X118685546Y-104302605D01*
X118757234Y-104129534D01*
X118811252Y-104048690D01*
X118861310Y-103973773D01*
X118993773Y-103841310D01*
X119072182Y-103788919D01*
X119149534Y-103737234D01*
X119322605Y-103665546D01*
X119506333Y-103629000D01*
X119693667Y-103629000D01*
X119877395Y-103665546D01*
G37*
G36*
X135457395Y-102425546D02*
G01*
X135630466Y-102497234D01*
X135630467Y-102497235D01*
X135786227Y-102601310D01*
X135918690Y-102733773D01*
X135918691Y-102733775D01*
X136022766Y-102889534D01*
X136094454Y-103062605D01*
X136131000Y-103246333D01*
X136131000Y-103433667D01*
X136094454Y-103617395D01*
X136022766Y-103790466D01*
X136022765Y-103790467D01*
X135918690Y-103946227D01*
X135786227Y-104078690D01*
X135710135Y-104129533D01*
X135630466Y-104182766D01*
X135457395Y-104254454D01*
X135273667Y-104291000D01*
X135086333Y-104291000D01*
X134902605Y-104254454D01*
X134729534Y-104182766D01*
X134649865Y-104129533D01*
X134573773Y-104078690D01*
X134441310Y-103946227D01*
X134337235Y-103790467D01*
X134337234Y-103790466D01*
X134265546Y-103617395D01*
X134229000Y-103433667D01*
X134229000Y-103246333D01*
X134265546Y-103062605D01*
X134337234Y-102889534D01*
X134441309Y-102733775D01*
X134441310Y-102733773D01*
X134573773Y-102601310D01*
X134729533Y-102497235D01*
X134729534Y-102497234D01*
X134902605Y-102425546D01*
X135086333Y-102389000D01*
X135273667Y-102389000D01*
X135457395Y-102425546D01*
G37*
G36*
X122417395Y-102395546D02*
G01*
X122590466Y-102467234D01*
X122667818Y-102518919D01*
X122746227Y-102571310D01*
X122878690Y-102703773D01*
X122928748Y-102778690D01*
X122982766Y-102859534D01*
X123054454Y-103032605D01*
X123091000Y-103216333D01*
X123091000Y-103403667D01*
X123054454Y-103587395D01*
X122982766Y-103760466D01*
X122962720Y-103790467D01*
X122878690Y-103916227D01*
X122746227Y-104048690D01*
X122701327Y-104078691D01*
X122590466Y-104152766D01*
X122417395Y-104224454D01*
X122233667Y-104261000D01*
X122046333Y-104261000D01*
X121862605Y-104224454D01*
X121689534Y-104152766D01*
X121578673Y-104078691D01*
X121533773Y-104048690D01*
X121401310Y-103916227D01*
X121317280Y-103790467D01*
X121297234Y-103760466D01*
X121225546Y-103587395D01*
X121189000Y-103403667D01*
X121189000Y-103216333D01*
X121225546Y-103032605D01*
X121297234Y-102859534D01*
X121351252Y-102778690D01*
X121401310Y-102703773D01*
X121533773Y-102571310D01*
X121612182Y-102518919D01*
X121689534Y-102467234D01*
X121862605Y-102395546D01*
X122046333Y-102359000D01*
X122233667Y-102359000D01*
X122417395Y-102395546D01*
G37*
G36*
X119877395Y-101125546D02*
G01*
X120050466Y-101197234D01*
X120127818Y-101248919D01*
X120206227Y-101301310D01*
X120338690Y-101433773D01*
X120338691Y-101433775D01*
X120442766Y-101589534D01*
X120514454Y-101762605D01*
X120551000Y-101946333D01*
X120551000Y-102133667D01*
X120514454Y-102317395D01*
X120442766Y-102490466D01*
X120438243Y-102497235D01*
X120338690Y-102646227D01*
X120206227Y-102778690D01*
X120127818Y-102831081D01*
X120050466Y-102882766D01*
X119877395Y-102954454D01*
X119693667Y-102991000D01*
X119506333Y-102991000D01*
X119322605Y-102954454D01*
X119149534Y-102882766D01*
X119072182Y-102831081D01*
X118993773Y-102778690D01*
X118861310Y-102646227D01*
X118761757Y-102497235D01*
X118757234Y-102490466D01*
X118685546Y-102317395D01*
X118649000Y-102133667D01*
X118649000Y-101946333D01*
X118685546Y-101762605D01*
X118757234Y-101589534D01*
X118861309Y-101433775D01*
X118861310Y-101433773D01*
X118993773Y-101301310D01*
X119072182Y-101248919D01*
X119149534Y-101197234D01*
X119322605Y-101125546D01*
X119506333Y-101089000D01*
X119693667Y-101089000D01*
X119877395Y-101125546D01*
G37*
G36*
X141750880Y-97434776D02*
G01*
X142131593Y-97510504D01*
X142541249Y-97680189D01*
X142909929Y-97926534D01*
X143223466Y-98240071D01*
X143469811Y-98608751D01*
X143639496Y-99018407D01*
X143726000Y-99453296D01*
X143726000Y-99896704D01*
X143639496Y-100331593D01*
X143469811Y-100741249D01*
X143223466Y-101109929D01*
X142909929Y-101423466D01*
X142541249Y-101669811D01*
X142131593Y-101839496D01*
X141750880Y-101915224D01*
X141696705Y-101926000D01*
X141253295Y-101926000D01*
X141199120Y-101915224D01*
X140818407Y-101839496D01*
X140408751Y-101669811D01*
X140040071Y-101423466D01*
X139726534Y-101109929D01*
X139480189Y-100741249D01*
X139310504Y-100331593D01*
X139224000Y-99896704D01*
X139224000Y-99453296D01*
X139310504Y-99018407D01*
X139480189Y-98608751D01*
X139726534Y-98240071D01*
X140040071Y-97926534D01*
X140408751Y-97680189D01*
X140818407Y-97510504D01*
X141199120Y-97434776D01*
X141253295Y-97424000D01*
X141696705Y-97424000D01*
X141750880Y-97434776D01*
G37*
G36*
X122417395Y-99855546D02*
G01*
X122590466Y-99927234D01*
X122590467Y-99927235D01*
X122746227Y-100031310D01*
X122878690Y-100163773D01*
X122878691Y-100163775D01*
X122982766Y-100319534D01*
X123054454Y-100492605D01*
X123091000Y-100676333D01*
X123091000Y-100863667D01*
X123054454Y-101047395D01*
X122982766Y-101220466D01*
X122982765Y-101220467D01*
X122878690Y-101376227D01*
X122746227Y-101508690D01*
X122667818Y-101561081D01*
X122590466Y-101612766D01*
X122417395Y-101684454D01*
X122233667Y-101721000D01*
X122046333Y-101721000D01*
X121862605Y-101684454D01*
X121689534Y-101612766D01*
X121612182Y-101561081D01*
X121533773Y-101508690D01*
X121401310Y-101376227D01*
X121297235Y-101220467D01*
X121297234Y-101220466D01*
X121225546Y-101047395D01*
X121189000Y-100863667D01*
X121189000Y-100676333D01*
X121225546Y-100492605D01*
X121297234Y-100319534D01*
X121401309Y-100163775D01*
X121401310Y-100163773D01*
X121533773Y-100031310D01*
X121689533Y-99927235D01*
X121689534Y-99927234D01*
X121862605Y-99855546D01*
X122046333Y-99819000D01*
X122233667Y-99819000D01*
X122417395Y-99855546D01*
G37*
G36*
X121633657Y-97329733D02*
G01*
X121779438Y-97390118D01*
X121779439Y-97390119D01*
X121910640Y-97477784D01*
X122022216Y-97589360D01*
X122022217Y-97589362D01*
X122109882Y-97720562D01*
X122170267Y-97866343D01*
X122201050Y-98021102D01*
X122201050Y-98178898D01*
X122170267Y-98333657D01*
X122109882Y-98479438D01*
X122109881Y-98479439D01*
X122022216Y-98610640D01*
X121910640Y-98722216D01*
X121844594Y-98766346D01*
X121779438Y-98809882D01*
X121633657Y-98870267D01*
X121478898Y-98901050D01*
X121321102Y-98901050D01*
X121166343Y-98870267D01*
X121020562Y-98809882D01*
X120955406Y-98766346D01*
X120889360Y-98722216D01*
X120777784Y-98610640D01*
X120777782Y-98610637D01*
X120775048Y-98607903D01*
X120764386Y-98594912D01*
X120745444Y-98579367D01*
X120723833Y-98567816D01*
X120700384Y-98560703D01*
X120675998Y-98558301D01*
X120651612Y-98560703D01*
X120628163Y-98567816D01*
X120606553Y-98579367D01*
X120587611Y-98594913D01*
X120572066Y-98613855D01*
X120560515Y-98635466D01*
X120553402Y-98658915D01*
X120551000Y-98683300D01*
X120551000Y-100451000D01*
X118649000Y-100451000D01*
X118649000Y-98549000D01*
X120531857Y-98549000D01*
X120556243Y-98546598D01*
X120579692Y-98539485D01*
X120601303Y-98527934D01*
X120620245Y-98512389D01*
X120635790Y-98493447D01*
X120647341Y-98471836D01*
X120654454Y-98448387D01*
X120656856Y-98424001D01*
X120654454Y-98399615D01*
X120647341Y-98376165D01*
X120629733Y-98333655D01*
X120598950Y-98178898D01*
X120598950Y-98021102D01*
X120629733Y-97866343D01*
X120690118Y-97720562D01*
X120777783Y-97589362D01*
X120777784Y-97589360D01*
X120889360Y-97477784D01*
X121020561Y-97390119D01*
X121020562Y-97390118D01*
X121166343Y-97329733D01*
X121321102Y-97298950D01*
X121478898Y-97298950D01*
X121633657Y-97329733D01*
G37*
M02*
