M48
; DRILL file {KiCad 5.1.5-52549c5~84~ubuntu18.04.1} date Mo 04 Mai 2020 21:01:38 CEST
; FORMAT={-:-/ absolute / inch / decimal}
; #@! TF.CreationDate,2020-05-04T21:01:38+02:00
; #@! TF.GenerationSoftware,Kicad,Pcbnew,5.1.5-52549c5~84~ubuntu18.04.1
; #@! TF.FileFunction,Plated,1,2,PTH
FMAT,2
INCH
T1C0.0157
T2C0.0315
T3C0.0866
%
G90
G05
T1
X4.9163Y-3.9132
X4.9173Y-3.9528
X4.9173Y-3.9921
X4.9173Y-4.122
X4.9173Y-4.1575
X4.9173Y-4.1969
X4.9173Y-4.2323
X4.9173Y-4.2717
X4.9173Y-4.374
X4.9173Y-4.4094
X4.9203Y-4.4447
X4.9528Y-3.9132
X4.9567Y-4.4447
X4.9669Y-4.0406
X4.9724Y-4.2346
X4.9752Y-3.8535
X4.9911Y-3.9132
X4.9951Y-4.4447
X5.0276Y-3.9132
X5.0299Y-4.2618
X5.0315Y-4.4447
X5.0343Y-4.3602
X5.0699Y-4.4447
X5.0744Y-4.2594
X5.087Y-4.3535
X5.1024Y-3.9132
X5.1063Y-4.4447
X5.1407Y-3.9132
X5.1447Y-4.4447
X5.1622Y-3.9967
X5.1772Y-3.9132
X5.1811Y-4.4447
X5.1915Y-4.0569
X5.2195Y-4.4447
X5.2205Y-3.8504
X5.252Y-3.9132
X5.2559Y-4.4447
X5.2904Y-3.9132
X5.2943Y-4.4447
X5.3268Y-3.9132
X5.3307Y-4.4447
X5.3652Y-3.9132
X5.3691Y-4.4447
X5.4016Y-3.9132
X5.4055Y-4.4447
X5.4085Y-4.374
X5.4094Y-3.9488
X5.4094Y-3.9882
X5.4094Y-4.122
X5.4094Y-4.1575
X5.4094Y-4.1969
X5.4094Y-4.2323
X5.4094Y-4.4094
T2
X4.7087Y-3.9173
X4.7087Y-4.0173
X4.7087Y-4.1173
X4.8087Y-3.9673
X4.8087Y-4.0673
X4.8087Y-4.1673
X5.222Y-4.1185
X5.222Y-4.2185
X5.222Y-4.3185
X5.322Y-4.0685
X5.322Y-4.1685
X5.322Y-4.2685
T3
X4.7392Y-4.376
X5.5699Y-3.9242
T0
M30
