G04 #@! TF.GenerationSoftware,KiCad,Pcbnew,5.1.5-52549c5~84~ubuntu18.04.1*
G04 #@! TF.CreationDate,2020-05-04T21:01:36+02:00*
G04 #@! TF.ProjectId,rs485_adapter,72733438-355f-4616-9461-707465722e6b,rev?*
G04 #@! TF.SameCoordinates,Original*
G04 #@! TF.FileFunction,Paste,Top*
G04 #@! TF.FilePolarity,Positive*
%FSLAX46Y46*%
G04 Gerber Fmt 4.6, Leading zero omitted, Abs format (unit mm)*
G04 Created by KiCad (PCBNEW 5.1.5-52549c5~84~ubuntu18.04.1) date 2020-05-04 21:01:36*
%MOMM*%
%LPD*%
G04 APERTURE LIST*
%ADD10C,0.025400*%
%ADD11R,1.000000X1.000000*%
%ADD12R,1.650000X1.000000*%
%ADD13R,3.800000X1.000000*%
%ADD14R,1.000000X2.130000*%
%ADD15R,1.000000X3.800000*%
%ADD16C,0.100000*%
%ADD17R,0.304800X0.812800*%
%ADD18R,3.403600X1.803400*%
G04 APERTURE END LIST*
D10*
G36*
X126798200Y-106121700D02*
G01*
X128300000Y-106121700D01*
X128300000Y-104518300D01*
X126798200Y-104518300D01*
X126798200Y-106121700D01*
G37*
X126798200Y-106121700D02*
X128300000Y-106121700D01*
X128300000Y-104518300D01*
X126798200Y-104518300D01*
X126798200Y-106121700D01*
G36*
X128500000Y-106121700D02*
G01*
X130001800Y-106121700D01*
X130001800Y-104518300D01*
X128500000Y-104518300D01*
X128500000Y-106121700D01*
G37*
X128500000Y-106121700D02*
X130001800Y-106121700D01*
X130001800Y-104518300D01*
X128500000Y-104518300D01*
X128500000Y-106121700D01*
D11*
X124875001Y-99395001D03*
X137375001Y-99395001D03*
X137375001Y-112855001D03*
X124875001Y-112855001D03*
D12*
X126200001Y-99395001D03*
X126200001Y-112855001D03*
D13*
X131125001Y-99395001D03*
X131125001Y-112855001D03*
D12*
X136050001Y-99395001D03*
X136050001Y-112855001D03*
D14*
X124875001Y-100960001D03*
X137375001Y-100960001D03*
D15*
X124875001Y-106125001D03*
X137375001Y-106125001D03*
D14*
X124875001Y-111290001D03*
X137375001Y-111290001D03*
D16*
G36*
X127336958Y-101480710D02*
G01*
X127351276Y-101482834D01*
X127365317Y-101486351D01*
X127378946Y-101491228D01*
X127392031Y-101497417D01*
X127404447Y-101504858D01*
X127416073Y-101513481D01*
X127426798Y-101523202D01*
X127436519Y-101533927D01*
X127445142Y-101545553D01*
X127452583Y-101557969D01*
X127458772Y-101571054D01*
X127463649Y-101584683D01*
X127467166Y-101598724D01*
X127469290Y-101613042D01*
X127470000Y-101627500D01*
X127470000Y-101972500D01*
X127469290Y-101986958D01*
X127467166Y-102001276D01*
X127463649Y-102015317D01*
X127458772Y-102028946D01*
X127452583Y-102042031D01*
X127445142Y-102054447D01*
X127436519Y-102066073D01*
X127426798Y-102076798D01*
X127416073Y-102086519D01*
X127404447Y-102095142D01*
X127392031Y-102102583D01*
X127378946Y-102108772D01*
X127365317Y-102113649D01*
X127351276Y-102117166D01*
X127336958Y-102119290D01*
X127322500Y-102120000D01*
X127027500Y-102120000D01*
X127013042Y-102119290D01*
X126998724Y-102117166D01*
X126984683Y-102113649D01*
X126971054Y-102108772D01*
X126957969Y-102102583D01*
X126945553Y-102095142D01*
X126933927Y-102086519D01*
X126923202Y-102076798D01*
X126913481Y-102066073D01*
X126904858Y-102054447D01*
X126897417Y-102042031D01*
X126891228Y-102028946D01*
X126886351Y-102015317D01*
X126882834Y-102001276D01*
X126880710Y-101986958D01*
X126880000Y-101972500D01*
X126880000Y-101627500D01*
X126880710Y-101613042D01*
X126882834Y-101598724D01*
X126886351Y-101584683D01*
X126891228Y-101571054D01*
X126897417Y-101557969D01*
X126904858Y-101545553D01*
X126913481Y-101533927D01*
X126923202Y-101523202D01*
X126933927Y-101513481D01*
X126945553Y-101504858D01*
X126957969Y-101497417D01*
X126971054Y-101491228D01*
X126984683Y-101486351D01*
X126998724Y-101482834D01*
X127013042Y-101480710D01*
X127027500Y-101480000D01*
X127322500Y-101480000D01*
X127336958Y-101480710D01*
G37*
G36*
X126366958Y-101480710D02*
G01*
X126381276Y-101482834D01*
X126395317Y-101486351D01*
X126408946Y-101491228D01*
X126422031Y-101497417D01*
X126434447Y-101504858D01*
X126446073Y-101513481D01*
X126456798Y-101523202D01*
X126466519Y-101533927D01*
X126475142Y-101545553D01*
X126482583Y-101557969D01*
X126488772Y-101571054D01*
X126493649Y-101584683D01*
X126497166Y-101598724D01*
X126499290Y-101613042D01*
X126500000Y-101627500D01*
X126500000Y-101972500D01*
X126499290Y-101986958D01*
X126497166Y-102001276D01*
X126493649Y-102015317D01*
X126488772Y-102028946D01*
X126482583Y-102042031D01*
X126475142Y-102054447D01*
X126466519Y-102066073D01*
X126456798Y-102076798D01*
X126446073Y-102086519D01*
X126434447Y-102095142D01*
X126422031Y-102102583D01*
X126408946Y-102108772D01*
X126395317Y-102113649D01*
X126381276Y-102117166D01*
X126366958Y-102119290D01*
X126352500Y-102120000D01*
X126057500Y-102120000D01*
X126043042Y-102119290D01*
X126028724Y-102117166D01*
X126014683Y-102113649D01*
X126001054Y-102108772D01*
X125987969Y-102102583D01*
X125975553Y-102095142D01*
X125963927Y-102086519D01*
X125953202Y-102076798D01*
X125943481Y-102066073D01*
X125934858Y-102054447D01*
X125927417Y-102042031D01*
X125921228Y-102028946D01*
X125916351Y-102015317D01*
X125912834Y-102001276D01*
X125910710Y-101986958D01*
X125910000Y-101972500D01*
X125910000Y-101627500D01*
X125910710Y-101613042D01*
X125912834Y-101598724D01*
X125916351Y-101584683D01*
X125921228Y-101571054D01*
X125927417Y-101557969D01*
X125934858Y-101545553D01*
X125943481Y-101533927D01*
X125953202Y-101523202D01*
X125963927Y-101513481D01*
X125975553Y-101504858D01*
X125987969Y-101497417D01*
X126001054Y-101491228D01*
X126014683Y-101486351D01*
X126028724Y-101482834D01*
X126043042Y-101480710D01*
X126057500Y-101480000D01*
X126352500Y-101480000D01*
X126366958Y-101480710D01*
G37*
G36*
X126366958Y-100405710D02*
G01*
X126381276Y-100407834D01*
X126395317Y-100411351D01*
X126408946Y-100416228D01*
X126422031Y-100422417D01*
X126434447Y-100429858D01*
X126446073Y-100438481D01*
X126456798Y-100448202D01*
X126466519Y-100458927D01*
X126475142Y-100470553D01*
X126482583Y-100482969D01*
X126488772Y-100496054D01*
X126493649Y-100509683D01*
X126497166Y-100523724D01*
X126499290Y-100538042D01*
X126500000Y-100552500D01*
X126500000Y-100897500D01*
X126499290Y-100911958D01*
X126497166Y-100926276D01*
X126493649Y-100940317D01*
X126488772Y-100953946D01*
X126482583Y-100967031D01*
X126475142Y-100979447D01*
X126466519Y-100991073D01*
X126456798Y-101001798D01*
X126446073Y-101011519D01*
X126434447Y-101020142D01*
X126422031Y-101027583D01*
X126408946Y-101033772D01*
X126395317Y-101038649D01*
X126381276Y-101042166D01*
X126366958Y-101044290D01*
X126352500Y-101045000D01*
X126057500Y-101045000D01*
X126043042Y-101044290D01*
X126028724Y-101042166D01*
X126014683Y-101038649D01*
X126001054Y-101033772D01*
X125987969Y-101027583D01*
X125975553Y-101020142D01*
X125963927Y-101011519D01*
X125953202Y-101001798D01*
X125943481Y-100991073D01*
X125934858Y-100979447D01*
X125927417Y-100967031D01*
X125921228Y-100953946D01*
X125916351Y-100940317D01*
X125912834Y-100926276D01*
X125910710Y-100911958D01*
X125910000Y-100897500D01*
X125910000Y-100552500D01*
X125910710Y-100538042D01*
X125912834Y-100523724D01*
X125916351Y-100509683D01*
X125921228Y-100496054D01*
X125927417Y-100482969D01*
X125934858Y-100470553D01*
X125943481Y-100458927D01*
X125953202Y-100448202D01*
X125963927Y-100438481D01*
X125975553Y-100429858D01*
X125987969Y-100422417D01*
X126001054Y-100416228D01*
X126014683Y-100411351D01*
X126028724Y-100407834D01*
X126043042Y-100405710D01*
X126057500Y-100405000D01*
X126352500Y-100405000D01*
X126366958Y-100405710D01*
G37*
G36*
X127336958Y-100405710D02*
G01*
X127351276Y-100407834D01*
X127365317Y-100411351D01*
X127378946Y-100416228D01*
X127392031Y-100422417D01*
X127404447Y-100429858D01*
X127416073Y-100438481D01*
X127426798Y-100448202D01*
X127436519Y-100458927D01*
X127445142Y-100470553D01*
X127452583Y-100482969D01*
X127458772Y-100496054D01*
X127463649Y-100509683D01*
X127467166Y-100523724D01*
X127469290Y-100538042D01*
X127470000Y-100552500D01*
X127470000Y-100897500D01*
X127469290Y-100911958D01*
X127467166Y-100926276D01*
X127463649Y-100940317D01*
X127458772Y-100953946D01*
X127452583Y-100967031D01*
X127445142Y-100979447D01*
X127436519Y-100991073D01*
X127426798Y-101001798D01*
X127416073Y-101011519D01*
X127404447Y-101020142D01*
X127392031Y-101027583D01*
X127378946Y-101033772D01*
X127365317Y-101038649D01*
X127351276Y-101042166D01*
X127336958Y-101044290D01*
X127322500Y-101045000D01*
X127027500Y-101045000D01*
X127013042Y-101044290D01*
X126998724Y-101042166D01*
X126984683Y-101038649D01*
X126971054Y-101033772D01*
X126957969Y-101027583D01*
X126945553Y-101020142D01*
X126933927Y-101011519D01*
X126923202Y-101001798D01*
X126913481Y-100991073D01*
X126904858Y-100979447D01*
X126897417Y-100967031D01*
X126891228Y-100953946D01*
X126886351Y-100940317D01*
X126882834Y-100926276D01*
X126880710Y-100911958D01*
X126880000Y-100897500D01*
X126880000Y-100552500D01*
X126880710Y-100538042D01*
X126882834Y-100523724D01*
X126886351Y-100509683D01*
X126891228Y-100496054D01*
X126897417Y-100482969D01*
X126904858Y-100470553D01*
X126913481Y-100458927D01*
X126923202Y-100448202D01*
X126933927Y-100438481D01*
X126945553Y-100429858D01*
X126957969Y-100422417D01*
X126971054Y-100416228D01*
X126984683Y-100411351D01*
X126998724Y-100407834D01*
X127013042Y-100405710D01*
X127027500Y-100405000D01*
X127322500Y-100405000D01*
X127336958Y-100405710D01*
G37*
G36*
X126426958Y-111010710D02*
G01*
X126441276Y-111012834D01*
X126455317Y-111016351D01*
X126468946Y-111021228D01*
X126482031Y-111027417D01*
X126494447Y-111034858D01*
X126506073Y-111043481D01*
X126516798Y-111053202D01*
X126526519Y-111063927D01*
X126535142Y-111075553D01*
X126542583Y-111087969D01*
X126548772Y-111101054D01*
X126553649Y-111114683D01*
X126557166Y-111128724D01*
X126559290Y-111143042D01*
X126560000Y-111157500D01*
X126560000Y-111452500D01*
X126559290Y-111466958D01*
X126557166Y-111481276D01*
X126553649Y-111495317D01*
X126548772Y-111508946D01*
X126542583Y-111522031D01*
X126535142Y-111534447D01*
X126526519Y-111546073D01*
X126516798Y-111556798D01*
X126506073Y-111566519D01*
X126494447Y-111575142D01*
X126482031Y-111582583D01*
X126468946Y-111588772D01*
X126455317Y-111593649D01*
X126441276Y-111597166D01*
X126426958Y-111599290D01*
X126412500Y-111600000D01*
X126067500Y-111600000D01*
X126053042Y-111599290D01*
X126038724Y-111597166D01*
X126024683Y-111593649D01*
X126011054Y-111588772D01*
X125997969Y-111582583D01*
X125985553Y-111575142D01*
X125973927Y-111566519D01*
X125963202Y-111556798D01*
X125953481Y-111546073D01*
X125944858Y-111534447D01*
X125937417Y-111522031D01*
X125931228Y-111508946D01*
X125926351Y-111495317D01*
X125922834Y-111481276D01*
X125920710Y-111466958D01*
X125920000Y-111452500D01*
X125920000Y-111157500D01*
X125920710Y-111143042D01*
X125922834Y-111128724D01*
X125926351Y-111114683D01*
X125931228Y-111101054D01*
X125937417Y-111087969D01*
X125944858Y-111075553D01*
X125953481Y-111063927D01*
X125963202Y-111053202D01*
X125973927Y-111043481D01*
X125985553Y-111034858D01*
X125997969Y-111027417D01*
X126011054Y-111021228D01*
X126024683Y-111016351D01*
X126038724Y-111012834D01*
X126053042Y-111010710D01*
X126067500Y-111010000D01*
X126412500Y-111010000D01*
X126426958Y-111010710D01*
G37*
G36*
X126426958Y-110040710D02*
G01*
X126441276Y-110042834D01*
X126455317Y-110046351D01*
X126468946Y-110051228D01*
X126482031Y-110057417D01*
X126494447Y-110064858D01*
X126506073Y-110073481D01*
X126516798Y-110083202D01*
X126526519Y-110093927D01*
X126535142Y-110105553D01*
X126542583Y-110117969D01*
X126548772Y-110131054D01*
X126553649Y-110144683D01*
X126557166Y-110158724D01*
X126559290Y-110173042D01*
X126560000Y-110187500D01*
X126560000Y-110482500D01*
X126559290Y-110496958D01*
X126557166Y-110511276D01*
X126553649Y-110525317D01*
X126548772Y-110538946D01*
X126542583Y-110552031D01*
X126535142Y-110564447D01*
X126526519Y-110576073D01*
X126516798Y-110586798D01*
X126506073Y-110596519D01*
X126494447Y-110605142D01*
X126482031Y-110612583D01*
X126468946Y-110618772D01*
X126455317Y-110623649D01*
X126441276Y-110627166D01*
X126426958Y-110629290D01*
X126412500Y-110630000D01*
X126067500Y-110630000D01*
X126053042Y-110629290D01*
X126038724Y-110627166D01*
X126024683Y-110623649D01*
X126011054Y-110618772D01*
X125997969Y-110612583D01*
X125985553Y-110605142D01*
X125973927Y-110596519D01*
X125963202Y-110586798D01*
X125953481Y-110576073D01*
X125944858Y-110564447D01*
X125937417Y-110552031D01*
X125931228Y-110538946D01*
X125926351Y-110525317D01*
X125922834Y-110511276D01*
X125920710Y-110496958D01*
X125920000Y-110482500D01*
X125920000Y-110187500D01*
X125920710Y-110173042D01*
X125922834Y-110158724D01*
X125926351Y-110144683D01*
X125931228Y-110131054D01*
X125937417Y-110117969D01*
X125944858Y-110105553D01*
X125953481Y-110093927D01*
X125963202Y-110083202D01*
X125973927Y-110073481D01*
X125985553Y-110064858D01*
X125997969Y-110057417D01*
X126011054Y-110051228D01*
X126024683Y-110046351D01*
X126038724Y-110042834D01*
X126053042Y-110040710D01*
X126067500Y-110040000D01*
X126412500Y-110040000D01*
X126426958Y-110040710D01*
G37*
D17*
X127150000Y-106767800D03*
X127650000Y-106767800D03*
X128150000Y-106767800D03*
X128650000Y-106767800D03*
X129150000Y-106767800D03*
X129650000Y-106767800D03*
X129650000Y-103872200D03*
X129150000Y-103872200D03*
X128650000Y-103872200D03*
X128150000Y-103872200D03*
X127650000Y-103872200D03*
X127150000Y-103872200D03*
D18*
X128400000Y-105320000D03*
D16*
G36*
X137046958Y-97480710D02*
G01*
X137061276Y-97482834D01*
X137075317Y-97486351D01*
X137088946Y-97491228D01*
X137102031Y-97497417D01*
X137114447Y-97504858D01*
X137126073Y-97513481D01*
X137136798Y-97523202D01*
X137146519Y-97533927D01*
X137155142Y-97545553D01*
X137162583Y-97557969D01*
X137168772Y-97571054D01*
X137173649Y-97584683D01*
X137177166Y-97598724D01*
X137179290Y-97613042D01*
X137180000Y-97627500D01*
X137180000Y-97972500D01*
X137179290Y-97986958D01*
X137177166Y-98001276D01*
X137173649Y-98015317D01*
X137168772Y-98028946D01*
X137162583Y-98042031D01*
X137155142Y-98054447D01*
X137146519Y-98066073D01*
X137136798Y-98076798D01*
X137126073Y-98086519D01*
X137114447Y-98095142D01*
X137102031Y-98102583D01*
X137088946Y-98108772D01*
X137075317Y-98113649D01*
X137061276Y-98117166D01*
X137046958Y-98119290D01*
X137032500Y-98120000D01*
X136737500Y-98120000D01*
X136723042Y-98119290D01*
X136708724Y-98117166D01*
X136694683Y-98113649D01*
X136681054Y-98108772D01*
X136667969Y-98102583D01*
X136655553Y-98095142D01*
X136643927Y-98086519D01*
X136633202Y-98076798D01*
X136623481Y-98066073D01*
X136614858Y-98054447D01*
X136607417Y-98042031D01*
X136601228Y-98028946D01*
X136596351Y-98015317D01*
X136592834Y-98001276D01*
X136590710Y-97986958D01*
X136590000Y-97972500D01*
X136590000Y-97627500D01*
X136590710Y-97613042D01*
X136592834Y-97598724D01*
X136596351Y-97584683D01*
X136601228Y-97571054D01*
X136607417Y-97557969D01*
X136614858Y-97545553D01*
X136623481Y-97533927D01*
X136633202Y-97523202D01*
X136643927Y-97513481D01*
X136655553Y-97504858D01*
X136667969Y-97497417D01*
X136681054Y-97491228D01*
X136694683Y-97486351D01*
X136708724Y-97482834D01*
X136723042Y-97480710D01*
X136737500Y-97480000D01*
X137032500Y-97480000D01*
X137046958Y-97480710D01*
G37*
G36*
X136076958Y-97480710D02*
G01*
X136091276Y-97482834D01*
X136105317Y-97486351D01*
X136118946Y-97491228D01*
X136132031Y-97497417D01*
X136144447Y-97504858D01*
X136156073Y-97513481D01*
X136166798Y-97523202D01*
X136176519Y-97533927D01*
X136185142Y-97545553D01*
X136192583Y-97557969D01*
X136198772Y-97571054D01*
X136203649Y-97584683D01*
X136207166Y-97598724D01*
X136209290Y-97613042D01*
X136210000Y-97627500D01*
X136210000Y-97972500D01*
X136209290Y-97986958D01*
X136207166Y-98001276D01*
X136203649Y-98015317D01*
X136198772Y-98028946D01*
X136192583Y-98042031D01*
X136185142Y-98054447D01*
X136176519Y-98066073D01*
X136166798Y-98076798D01*
X136156073Y-98086519D01*
X136144447Y-98095142D01*
X136132031Y-98102583D01*
X136118946Y-98108772D01*
X136105317Y-98113649D01*
X136091276Y-98117166D01*
X136076958Y-98119290D01*
X136062500Y-98120000D01*
X135767500Y-98120000D01*
X135753042Y-98119290D01*
X135738724Y-98117166D01*
X135724683Y-98113649D01*
X135711054Y-98108772D01*
X135697969Y-98102583D01*
X135685553Y-98095142D01*
X135673927Y-98086519D01*
X135663202Y-98076798D01*
X135653481Y-98066073D01*
X135644858Y-98054447D01*
X135637417Y-98042031D01*
X135631228Y-98028946D01*
X135626351Y-98015317D01*
X135622834Y-98001276D01*
X135620710Y-97986958D01*
X135620000Y-97972500D01*
X135620000Y-97627500D01*
X135620710Y-97613042D01*
X135622834Y-97598724D01*
X135626351Y-97584683D01*
X135631228Y-97571054D01*
X135637417Y-97557969D01*
X135644858Y-97545553D01*
X135653481Y-97533927D01*
X135663202Y-97523202D01*
X135673927Y-97513481D01*
X135685553Y-97504858D01*
X135697969Y-97497417D01*
X135711054Y-97491228D01*
X135724683Y-97486351D01*
X135738724Y-97482834D01*
X135753042Y-97480710D01*
X135767500Y-97480000D01*
X136062500Y-97480000D01*
X136076958Y-97480710D01*
G37*
G36*
X130676958Y-97480710D02*
G01*
X130691276Y-97482834D01*
X130705317Y-97486351D01*
X130718946Y-97491228D01*
X130732031Y-97497417D01*
X130744447Y-97504858D01*
X130756073Y-97513481D01*
X130766798Y-97523202D01*
X130776519Y-97533927D01*
X130785142Y-97545553D01*
X130792583Y-97557969D01*
X130798772Y-97571054D01*
X130803649Y-97584683D01*
X130807166Y-97598724D01*
X130809290Y-97613042D01*
X130810000Y-97627500D01*
X130810000Y-97972500D01*
X130809290Y-97986958D01*
X130807166Y-98001276D01*
X130803649Y-98015317D01*
X130798772Y-98028946D01*
X130792583Y-98042031D01*
X130785142Y-98054447D01*
X130776519Y-98066073D01*
X130766798Y-98076798D01*
X130756073Y-98086519D01*
X130744447Y-98095142D01*
X130732031Y-98102583D01*
X130718946Y-98108772D01*
X130705317Y-98113649D01*
X130691276Y-98117166D01*
X130676958Y-98119290D01*
X130662500Y-98120000D01*
X130367500Y-98120000D01*
X130353042Y-98119290D01*
X130338724Y-98117166D01*
X130324683Y-98113649D01*
X130311054Y-98108772D01*
X130297969Y-98102583D01*
X130285553Y-98095142D01*
X130273927Y-98086519D01*
X130263202Y-98076798D01*
X130253481Y-98066073D01*
X130244858Y-98054447D01*
X130237417Y-98042031D01*
X130231228Y-98028946D01*
X130226351Y-98015317D01*
X130222834Y-98001276D01*
X130220710Y-97986958D01*
X130220000Y-97972500D01*
X130220000Y-97627500D01*
X130220710Y-97613042D01*
X130222834Y-97598724D01*
X130226351Y-97584683D01*
X130231228Y-97571054D01*
X130237417Y-97557969D01*
X130244858Y-97545553D01*
X130253481Y-97533927D01*
X130263202Y-97523202D01*
X130273927Y-97513481D01*
X130285553Y-97504858D01*
X130297969Y-97497417D01*
X130311054Y-97491228D01*
X130324683Y-97486351D01*
X130338724Y-97482834D01*
X130353042Y-97480710D01*
X130367500Y-97480000D01*
X130662500Y-97480000D01*
X130676958Y-97480710D01*
G37*
G36*
X131646958Y-97480710D02*
G01*
X131661276Y-97482834D01*
X131675317Y-97486351D01*
X131688946Y-97491228D01*
X131702031Y-97497417D01*
X131714447Y-97504858D01*
X131726073Y-97513481D01*
X131736798Y-97523202D01*
X131746519Y-97533927D01*
X131755142Y-97545553D01*
X131762583Y-97557969D01*
X131768772Y-97571054D01*
X131773649Y-97584683D01*
X131777166Y-97598724D01*
X131779290Y-97613042D01*
X131780000Y-97627500D01*
X131780000Y-97972500D01*
X131779290Y-97986958D01*
X131777166Y-98001276D01*
X131773649Y-98015317D01*
X131768772Y-98028946D01*
X131762583Y-98042031D01*
X131755142Y-98054447D01*
X131746519Y-98066073D01*
X131736798Y-98076798D01*
X131726073Y-98086519D01*
X131714447Y-98095142D01*
X131702031Y-98102583D01*
X131688946Y-98108772D01*
X131675317Y-98113649D01*
X131661276Y-98117166D01*
X131646958Y-98119290D01*
X131632500Y-98120000D01*
X131337500Y-98120000D01*
X131323042Y-98119290D01*
X131308724Y-98117166D01*
X131294683Y-98113649D01*
X131281054Y-98108772D01*
X131267969Y-98102583D01*
X131255553Y-98095142D01*
X131243927Y-98086519D01*
X131233202Y-98076798D01*
X131223481Y-98066073D01*
X131214858Y-98054447D01*
X131207417Y-98042031D01*
X131201228Y-98028946D01*
X131196351Y-98015317D01*
X131192834Y-98001276D01*
X131190710Y-97986958D01*
X131190000Y-97972500D01*
X131190000Y-97627500D01*
X131190710Y-97613042D01*
X131192834Y-97598724D01*
X131196351Y-97584683D01*
X131201228Y-97571054D01*
X131207417Y-97557969D01*
X131214858Y-97545553D01*
X131223481Y-97533927D01*
X131233202Y-97523202D01*
X131243927Y-97513481D01*
X131255553Y-97504858D01*
X131267969Y-97497417D01*
X131281054Y-97491228D01*
X131294683Y-97486351D01*
X131308724Y-97482834D01*
X131323042Y-97480710D01*
X131337500Y-97480000D01*
X131632500Y-97480000D01*
X131646958Y-97480710D01*
G37*
G36*
X134646958Y-97480710D02*
G01*
X134661276Y-97482834D01*
X134675317Y-97486351D01*
X134688946Y-97491228D01*
X134702031Y-97497417D01*
X134714447Y-97504858D01*
X134726073Y-97513481D01*
X134736798Y-97523202D01*
X134746519Y-97533927D01*
X134755142Y-97545553D01*
X134762583Y-97557969D01*
X134768772Y-97571054D01*
X134773649Y-97584683D01*
X134777166Y-97598724D01*
X134779290Y-97613042D01*
X134780000Y-97627500D01*
X134780000Y-97972500D01*
X134779290Y-97986958D01*
X134777166Y-98001276D01*
X134773649Y-98015317D01*
X134768772Y-98028946D01*
X134762583Y-98042031D01*
X134755142Y-98054447D01*
X134746519Y-98066073D01*
X134736798Y-98076798D01*
X134726073Y-98086519D01*
X134714447Y-98095142D01*
X134702031Y-98102583D01*
X134688946Y-98108772D01*
X134675317Y-98113649D01*
X134661276Y-98117166D01*
X134646958Y-98119290D01*
X134632500Y-98120000D01*
X134337500Y-98120000D01*
X134323042Y-98119290D01*
X134308724Y-98117166D01*
X134294683Y-98113649D01*
X134281054Y-98108772D01*
X134267969Y-98102583D01*
X134255553Y-98095142D01*
X134243927Y-98086519D01*
X134233202Y-98076798D01*
X134223481Y-98066073D01*
X134214858Y-98054447D01*
X134207417Y-98042031D01*
X134201228Y-98028946D01*
X134196351Y-98015317D01*
X134192834Y-98001276D01*
X134190710Y-97986958D01*
X134190000Y-97972500D01*
X134190000Y-97627500D01*
X134190710Y-97613042D01*
X134192834Y-97598724D01*
X134196351Y-97584683D01*
X134201228Y-97571054D01*
X134207417Y-97557969D01*
X134214858Y-97545553D01*
X134223481Y-97533927D01*
X134233202Y-97523202D01*
X134243927Y-97513481D01*
X134255553Y-97504858D01*
X134267969Y-97497417D01*
X134281054Y-97491228D01*
X134294683Y-97486351D01*
X134308724Y-97482834D01*
X134323042Y-97480710D01*
X134337500Y-97480000D01*
X134632500Y-97480000D01*
X134646958Y-97480710D01*
G37*
G36*
X133676958Y-97480710D02*
G01*
X133691276Y-97482834D01*
X133705317Y-97486351D01*
X133718946Y-97491228D01*
X133732031Y-97497417D01*
X133744447Y-97504858D01*
X133756073Y-97513481D01*
X133766798Y-97523202D01*
X133776519Y-97533927D01*
X133785142Y-97545553D01*
X133792583Y-97557969D01*
X133798772Y-97571054D01*
X133803649Y-97584683D01*
X133807166Y-97598724D01*
X133809290Y-97613042D01*
X133810000Y-97627500D01*
X133810000Y-97972500D01*
X133809290Y-97986958D01*
X133807166Y-98001276D01*
X133803649Y-98015317D01*
X133798772Y-98028946D01*
X133792583Y-98042031D01*
X133785142Y-98054447D01*
X133776519Y-98066073D01*
X133766798Y-98076798D01*
X133756073Y-98086519D01*
X133744447Y-98095142D01*
X133732031Y-98102583D01*
X133718946Y-98108772D01*
X133705317Y-98113649D01*
X133691276Y-98117166D01*
X133676958Y-98119290D01*
X133662500Y-98120000D01*
X133367500Y-98120000D01*
X133353042Y-98119290D01*
X133338724Y-98117166D01*
X133324683Y-98113649D01*
X133311054Y-98108772D01*
X133297969Y-98102583D01*
X133285553Y-98095142D01*
X133273927Y-98086519D01*
X133263202Y-98076798D01*
X133253481Y-98066073D01*
X133244858Y-98054447D01*
X133237417Y-98042031D01*
X133231228Y-98028946D01*
X133226351Y-98015317D01*
X133222834Y-98001276D01*
X133220710Y-97986958D01*
X133220000Y-97972500D01*
X133220000Y-97627500D01*
X133220710Y-97613042D01*
X133222834Y-97598724D01*
X133226351Y-97584683D01*
X133231228Y-97571054D01*
X133237417Y-97557969D01*
X133244858Y-97545553D01*
X133253481Y-97533927D01*
X133263202Y-97523202D01*
X133273927Y-97513481D01*
X133285553Y-97504858D01*
X133297969Y-97497417D01*
X133311054Y-97491228D01*
X133324683Y-97486351D01*
X133338724Y-97482834D01*
X133353042Y-97480710D01*
X133367500Y-97480000D01*
X133662500Y-97480000D01*
X133676958Y-97480710D01*
G37*
G36*
X128176958Y-97480710D02*
G01*
X128191276Y-97482834D01*
X128205317Y-97486351D01*
X128218946Y-97491228D01*
X128232031Y-97497417D01*
X128244447Y-97504858D01*
X128256073Y-97513481D01*
X128266798Y-97523202D01*
X128276519Y-97533927D01*
X128285142Y-97545553D01*
X128292583Y-97557969D01*
X128298772Y-97571054D01*
X128303649Y-97584683D01*
X128307166Y-97598724D01*
X128309290Y-97613042D01*
X128310000Y-97627500D01*
X128310000Y-97972500D01*
X128309290Y-97986958D01*
X128307166Y-98001276D01*
X128303649Y-98015317D01*
X128298772Y-98028946D01*
X128292583Y-98042031D01*
X128285142Y-98054447D01*
X128276519Y-98066073D01*
X128266798Y-98076798D01*
X128256073Y-98086519D01*
X128244447Y-98095142D01*
X128232031Y-98102583D01*
X128218946Y-98108772D01*
X128205317Y-98113649D01*
X128191276Y-98117166D01*
X128176958Y-98119290D01*
X128162500Y-98120000D01*
X127867500Y-98120000D01*
X127853042Y-98119290D01*
X127838724Y-98117166D01*
X127824683Y-98113649D01*
X127811054Y-98108772D01*
X127797969Y-98102583D01*
X127785553Y-98095142D01*
X127773927Y-98086519D01*
X127763202Y-98076798D01*
X127753481Y-98066073D01*
X127744858Y-98054447D01*
X127737417Y-98042031D01*
X127731228Y-98028946D01*
X127726351Y-98015317D01*
X127722834Y-98001276D01*
X127720710Y-97986958D01*
X127720000Y-97972500D01*
X127720000Y-97627500D01*
X127720710Y-97613042D01*
X127722834Y-97598724D01*
X127726351Y-97584683D01*
X127731228Y-97571054D01*
X127737417Y-97557969D01*
X127744858Y-97545553D01*
X127753481Y-97533927D01*
X127763202Y-97523202D01*
X127773927Y-97513481D01*
X127785553Y-97504858D01*
X127797969Y-97497417D01*
X127811054Y-97491228D01*
X127824683Y-97486351D01*
X127838724Y-97482834D01*
X127853042Y-97480710D01*
X127867500Y-97480000D01*
X128162500Y-97480000D01*
X128176958Y-97480710D01*
G37*
G36*
X129146958Y-97480710D02*
G01*
X129161276Y-97482834D01*
X129175317Y-97486351D01*
X129188946Y-97491228D01*
X129202031Y-97497417D01*
X129214447Y-97504858D01*
X129226073Y-97513481D01*
X129236798Y-97523202D01*
X129246519Y-97533927D01*
X129255142Y-97545553D01*
X129262583Y-97557969D01*
X129268772Y-97571054D01*
X129273649Y-97584683D01*
X129277166Y-97598724D01*
X129279290Y-97613042D01*
X129280000Y-97627500D01*
X129280000Y-97972500D01*
X129279290Y-97986958D01*
X129277166Y-98001276D01*
X129273649Y-98015317D01*
X129268772Y-98028946D01*
X129262583Y-98042031D01*
X129255142Y-98054447D01*
X129246519Y-98066073D01*
X129236798Y-98076798D01*
X129226073Y-98086519D01*
X129214447Y-98095142D01*
X129202031Y-98102583D01*
X129188946Y-98108772D01*
X129175317Y-98113649D01*
X129161276Y-98117166D01*
X129146958Y-98119290D01*
X129132500Y-98120000D01*
X128837500Y-98120000D01*
X128823042Y-98119290D01*
X128808724Y-98117166D01*
X128794683Y-98113649D01*
X128781054Y-98108772D01*
X128767969Y-98102583D01*
X128755553Y-98095142D01*
X128743927Y-98086519D01*
X128733202Y-98076798D01*
X128723481Y-98066073D01*
X128714858Y-98054447D01*
X128707417Y-98042031D01*
X128701228Y-98028946D01*
X128696351Y-98015317D01*
X128692834Y-98001276D01*
X128690710Y-97986958D01*
X128690000Y-97972500D01*
X128690000Y-97627500D01*
X128690710Y-97613042D01*
X128692834Y-97598724D01*
X128696351Y-97584683D01*
X128701228Y-97571054D01*
X128707417Y-97557969D01*
X128714858Y-97545553D01*
X128723481Y-97533927D01*
X128733202Y-97523202D01*
X128743927Y-97513481D01*
X128755553Y-97504858D01*
X128767969Y-97497417D01*
X128781054Y-97491228D01*
X128794683Y-97486351D01*
X128808724Y-97482834D01*
X128823042Y-97480710D01*
X128837500Y-97480000D01*
X129132500Y-97480000D01*
X129146958Y-97480710D01*
G37*
M02*
