G04 #@! TF.GenerationSoftware,KiCad,Pcbnew,5.1.3-ffb9f22~84~ubuntu18.04.1*
G04 #@! TF.CreationDate,2019-08-04T04:56:57-07:00*
G04 #@! TF.ProjectId,board,626f6172-642e-46b6-9963-61645f706362,rev?*
G04 #@! TF.SameCoordinates,Original*
G04 #@! TF.FileFunction,Copper,L2,Bot*
G04 #@! TF.FilePolarity,Positive*
%FSLAX46Y46*%
G04 Gerber Fmt 4.6, Leading zero omitted, Abs format (unit mm)*
G04 Created by KiCad (PCBNEW 5.1.3-ffb9f22~84~ubuntu18.04.1) date 2019-08-04 04:56:57*
%MOMM*%
%LPD*%
G04 APERTURE LIST*
%ADD10C,5.000000*%
%ADD11C,1.800000*%
%ADD12R,1.800000X1.800000*%
%ADD13O,1.700000X1.700000*%
%ADD14R,1.700000X1.700000*%
%ADD15C,0.800000*%
%ADD16C,0.100000*%
%ADD17C,0.250000*%
%ADD18C,1.000000*%
%ADD19C,0.025400*%
%ADD20C,0.254000*%
G04 APERTURE END LIST*
D10*
X135790000Y-47280000D03*
D11*
X201440000Y-54810000D03*
X198900000Y-53540000D03*
X201440000Y-52270000D03*
D12*
X198900000Y-51000000D03*
D11*
X198900000Y-56080000D03*
X201440000Y-57350000D03*
X138540000Y-72350000D03*
X136000000Y-71080000D03*
D12*
X136000000Y-66000000D03*
D11*
X138540000Y-67270000D03*
X136000000Y-68540000D03*
X138540000Y-69810000D03*
X138540000Y-84350000D03*
X136000000Y-83080000D03*
D12*
X136000000Y-78000000D03*
D11*
X138540000Y-79270000D03*
X136000000Y-80540000D03*
X138540000Y-81810000D03*
D13*
X144000000Y-86020000D03*
X144000000Y-83480000D03*
X144000000Y-80940000D03*
X144000000Y-78400000D03*
X144000000Y-75860000D03*
X144000000Y-73320000D03*
X144000000Y-70780000D03*
X144000000Y-68240000D03*
X144000000Y-65700000D03*
X144000000Y-63160000D03*
X144000000Y-60620000D03*
X144000000Y-58080000D03*
X144000000Y-55540000D03*
D14*
X144000000Y-53000000D03*
X159200000Y-53000000D03*
D13*
X159200000Y-55540000D03*
X159200000Y-58080000D03*
X159200000Y-60620000D03*
X159200000Y-63160000D03*
X159200000Y-65700000D03*
X159200000Y-68240000D03*
X159200000Y-70780000D03*
X159200000Y-73320000D03*
X159200000Y-75860000D03*
X159200000Y-78400000D03*
X159200000Y-80940000D03*
X159200000Y-83480000D03*
X159200000Y-86020000D03*
D15*
X184530000Y-66770000D03*
X184640000Y-81070000D03*
X185580000Y-81090000D03*
X183000000Y-59000000D03*
X184000000Y-59000000D03*
X185000000Y-59000000D03*
X186000000Y-59000000D03*
X185540000Y-66790000D03*
X184000000Y-66000000D03*
X185000000Y-66000000D03*
X186000000Y-66000000D03*
X171500000Y-84000000D03*
X172500000Y-84000000D03*
X173500000Y-84000000D03*
X174500000Y-84000000D03*
X171000000Y-85000000D03*
X172000000Y-85000000D03*
X173000000Y-85000000D03*
X174000000Y-85000000D03*
X170500000Y-86000000D03*
X171500000Y-86000000D03*
X172500000Y-86000000D03*
X173500000Y-86000000D03*
X171000000Y-87000000D03*
X172000000Y-87000000D03*
X173000000Y-87000000D03*
X174000000Y-87000000D03*
X186000000Y-80310000D03*
X185100000Y-80280000D03*
X183740000Y-81050000D03*
X184200000Y-80280000D03*
X183310000Y-80270000D03*
X182800000Y-81030000D03*
X163500000Y-50000000D03*
X167005429Y-47043438D03*
X181300000Y-73400000D03*
X174899990Y-63200000D03*
X175524990Y-69700000D03*
X178300000Y-69925002D03*
X187200000Y-81000000D03*
X176100000Y-87200000D03*
X173300000Y-74900000D03*
X176000000Y-46500000D03*
X175000000Y-46500000D03*
X174000000Y-46500000D03*
X174500000Y-47500000D03*
X175500000Y-47500000D03*
X172200000Y-66000000D03*
X175700000Y-74650000D03*
X175700000Y-75450000D03*
X175700000Y-76250000D03*
X175700000Y-77050000D03*
X175700000Y-77950000D03*
X175700000Y-78850000D03*
X177300000Y-82600000D03*
X177300000Y-61500000D03*
X178200000Y-61500000D03*
X177700000Y-60700000D03*
X177200000Y-54600000D03*
X178200000Y-54600000D03*
X179100000Y-54600000D03*
X171000000Y-56800000D03*
X171900000Y-56800000D03*
X171500000Y-57600000D03*
X172400000Y-57600000D03*
X173500000Y-65800000D03*
X168700000Y-46200000D03*
X167800000Y-46200000D03*
X166900000Y-46200000D03*
X166000000Y-46200000D03*
X165000000Y-46200000D03*
X163700000Y-56200000D03*
X162700000Y-49300000D03*
X180720000Y-67590000D03*
X181470000Y-67140000D03*
X180700000Y-66690000D03*
X179700000Y-66680000D03*
X171300000Y-48700000D03*
X171300000Y-69700000D03*
X171200000Y-77000000D03*
X171200000Y-49600000D03*
X171300000Y-70550003D03*
X171200000Y-77900000D03*
X172678554Y-70371446D03*
X171200000Y-78800000D03*
X171200000Y-79900000D03*
X171200000Y-71500000D03*
X171200000Y-72500000D03*
X171200000Y-50500000D03*
X171439441Y-51360559D03*
D16*
X163500000Y-53780000D02*
X159200000Y-58080000D01*
X163500000Y-50000000D02*
X163500000Y-53780000D01*
X164048867Y-50000000D02*
X163500000Y-50000000D01*
X167005429Y-47043438D02*
X164048867Y-50000000D01*
D17*
X174899990Y-63399990D02*
X174899990Y-63200000D01*
X181300000Y-73400000D02*
X181300000Y-69800000D01*
X181300000Y-69800000D02*
X174899990Y-63399990D01*
X175524990Y-69700000D02*
X178074998Y-69700000D01*
X178074998Y-69700000D02*
X178300000Y-69925002D01*
X187200000Y-81000000D02*
X187200000Y-87100000D01*
X187200000Y-87100000D02*
X187100000Y-87200000D01*
X187100000Y-87200000D02*
X176100000Y-87200000D01*
D18*
X176100000Y-81400000D02*
X176100000Y-79000000D01*
X177300000Y-82600000D02*
X176100000Y-81400000D01*
D16*
X180850213Y-66550001D02*
X180700000Y-66700214D01*
X181540000Y-66950000D02*
X181140001Y-66550001D01*
X181140001Y-66550001D02*
X180850213Y-66550001D01*
X171300000Y-69700000D02*
X172500000Y-70900000D01*
X172500000Y-75700000D02*
X171200000Y-77000000D01*
X172500000Y-70900000D02*
X172500000Y-75700000D01*
X167680000Y-73320000D02*
X159200000Y-73320000D01*
X171300000Y-69700000D02*
X167680000Y-73320000D01*
X171699999Y-49099999D02*
X171300000Y-48700000D01*
X171939442Y-51600560D02*
X171939442Y-49339442D01*
X171939442Y-49339442D02*
X171699999Y-49099999D01*
X170000000Y-53540002D02*
X171939442Y-51600560D01*
X170000000Y-68400000D02*
X170000000Y-53540002D01*
X171300000Y-69700000D02*
X170000000Y-68400000D01*
X170699999Y-77399999D02*
X170800001Y-77500001D01*
X170800001Y-77500001D02*
X171200000Y-77900000D01*
X170699999Y-76759999D02*
X170699999Y-77399999D01*
X171700001Y-75759997D02*
X170699999Y-76759999D01*
X171700001Y-70950004D02*
X171700001Y-75759997D01*
X171300000Y-70550003D02*
X171700001Y-70950004D01*
X165990003Y-75860000D02*
X171300000Y-70550003D01*
X159200000Y-75860000D02*
X165990003Y-75860000D01*
X172900001Y-70149999D02*
X172678554Y-70371446D01*
X170799999Y-49199999D02*
X170799999Y-48459999D01*
X171059999Y-48199999D02*
X171540001Y-48199999D01*
X171200000Y-49600000D02*
X170799999Y-49199999D01*
X171540001Y-48199999D02*
X172900001Y-49559999D01*
X170799999Y-48459999D02*
X171059999Y-48199999D01*
X172900001Y-49559999D02*
X172900001Y-70149999D01*
X166520000Y-83480000D02*
X159200000Y-83480000D01*
X171200000Y-78800000D02*
X166520000Y-83480000D01*
X165080000Y-86020000D02*
X171200000Y-79900000D01*
X159200000Y-86020000D02*
X165080000Y-86020000D01*
X160402081Y-78400000D02*
X160802081Y-78000000D01*
X159200000Y-78400000D02*
X160402081Y-78400000D01*
X165487854Y-78000000D02*
X168500000Y-74987854D01*
X160802081Y-78000000D02*
X165487854Y-78000000D01*
X168500000Y-74200000D02*
X171200000Y-71500000D01*
X168500000Y-74987854D02*
X168500000Y-74200000D01*
X169000000Y-74700000D02*
X169000000Y-79000000D01*
X171200000Y-72500000D02*
X169000000Y-74700000D01*
X167060000Y-80940000D02*
X159200000Y-80940000D01*
X169000000Y-79000000D02*
X167060000Y-80940000D01*
X170800001Y-50899999D02*
X171200000Y-50500000D01*
X163000000Y-58700000D02*
X170800001Y-50899999D01*
X163000000Y-64440000D02*
X163000000Y-58700000D01*
X159200000Y-68240000D02*
X163000000Y-64440000D01*
X170639441Y-51360559D02*
X171439441Y-51360559D01*
X165500000Y-56500000D02*
X170639441Y-51360559D01*
X159200000Y-70780000D02*
X165500000Y-64480000D01*
X165500000Y-64480000D02*
X165500000Y-56500000D01*
X144000000Y-65700000D02*
X145500000Y-64200000D01*
X145500000Y-64200000D02*
X145500000Y-50000000D01*
X198541998Y-54810000D02*
X200167208Y-54810000D01*
X188731998Y-45000000D02*
X198541998Y-54810000D01*
X150500000Y-45000000D02*
X188731998Y-45000000D01*
X200167208Y-54810000D02*
X201440000Y-54810000D01*
X145500000Y-50000000D02*
X150500000Y-45000000D01*
X198900000Y-53540000D02*
X190085010Y-44725010D01*
X190085010Y-44725010D02*
X150274990Y-44725010D01*
X144849999Y-62310001D02*
X144000000Y-63160000D01*
X145050001Y-62109999D02*
X144849999Y-62310001D01*
X145050001Y-49949999D02*
X145050001Y-62109999D01*
X150274990Y-44725010D02*
X145050001Y-49949999D01*
X188070010Y-45250010D02*
X198900000Y-56080000D01*
X144000000Y-68240000D02*
X145050001Y-67189999D01*
X145050001Y-67189999D02*
X145050001Y-65003565D01*
X150749990Y-45250010D02*
X188070010Y-45250010D01*
X145050001Y-65003565D02*
X145853566Y-64200000D01*
X145853566Y-64200000D02*
X145853566Y-50146434D01*
X145853566Y-50146434D02*
X150749990Y-45250010D01*
D19*
G36*
X186487300Y-80017709D02*
G01*
X186426949Y-80058034D01*
X186258034Y-80226949D01*
X186125319Y-80425571D01*
X186033903Y-80646268D01*
X185987300Y-80880559D01*
X185987300Y-81119441D01*
X186033903Y-81353732D01*
X186125319Y-81574429D01*
X186258034Y-81773051D01*
X186262300Y-81777317D01*
X186262301Y-86262300D01*
X176877317Y-86262300D01*
X176873051Y-86258034D01*
X176674429Y-86125319D01*
X176453732Y-86033903D01*
X176219441Y-85987300D01*
X175980559Y-85987300D01*
X175746268Y-86033903D01*
X175525571Y-86125319D01*
X175326949Y-86258034D01*
X175158034Y-86426949D01*
X175025319Y-86625571D01*
X174933903Y-86846268D01*
X174887300Y-87080559D01*
X174887300Y-87162300D01*
X166012700Y-87162300D01*
X166012700Y-86307341D01*
X171207342Y-81112700D01*
X171319441Y-81112700D01*
X171553732Y-81066097D01*
X171774429Y-80974681D01*
X171973051Y-80841966D01*
X172141966Y-80673051D01*
X172249109Y-80512700D01*
X174787300Y-80512700D01*
X174787300Y-81335519D01*
X174780949Y-81400000D01*
X174787300Y-81464481D01*
X174787300Y-81464482D01*
X174806294Y-81657333D01*
X174881356Y-81904778D01*
X175003249Y-82132824D01*
X175167290Y-82332710D01*
X175217384Y-82373821D01*
X176417377Y-83573815D01*
X176567174Y-83696750D01*
X176795221Y-83818643D01*
X177042665Y-83893705D01*
X177299999Y-83919050D01*
X177557334Y-83893705D01*
X177804778Y-83818643D01*
X178032825Y-83696750D01*
X178232709Y-83532709D01*
X178396750Y-83332825D01*
X178518643Y-83104778D01*
X178593705Y-82857334D01*
X178619050Y-82599999D01*
X178593705Y-82342665D01*
X178518643Y-82095221D01*
X178396750Y-81867174D01*
X178273815Y-81717377D01*
X177412700Y-80856263D01*
X177412700Y-80512700D01*
X182500000Y-80512700D01*
X182502478Y-80512456D01*
X182504860Y-80511733D01*
X182507056Y-80510560D01*
X182508980Y-80508980D01*
X182510560Y-80507056D01*
X182511733Y-80504860D01*
X182512456Y-80502478D01*
X182512700Y-80500000D01*
X182512700Y-67762292D01*
X182544681Y-67714429D01*
X182636097Y-67493732D01*
X182682700Y-67259441D01*
X182682700Y-67020559D01*
X182636097Y-66786268D01*
X182544681Y-66565571D01*
X182512700Y-66517708D01*
X182512700Y-53512700D01*
X186487300Y-53512700D01*
X186487300Y-80017709D01*
X186487300Y-80017709D01*
G37*
X186487300Y-80017709D02*
X186426949Y-80058034D01*
X186258034Y-80226949D01*
X186125319Y-80425571D01*
X186033903Y-80646268D01*
X185987300Y-80880559D01*
X185987300Y-81119441D01*
X186033903Y-81353732D01*
X186125319Y-81574429D01*
X186258034Y-81773051D01*
X186262300Y-81777317D01*
X186262301Y-86262300D01*
X176877317Y-86262300D01*
X176873051Y-86258034D01*
X176674429Y-86125319D01*
X176453732Y-86033903D01*
X176219441Y-85987300D01*
X175980559Y-85987300D01*
X175746268Y-86033903D01*
X175525571Y-86125319D01*
X175326949Y-86258034D01*
X175158034Y-86426949D01*
X175025319Y-86625571D01*
X174933903Y-86846268D01*
X174887300Y-87080559D01*
X174887300Y-87162300D01*
X166012700Y-87162300D01*
X166012700Y-86307341D01*
X171207342Y-81112700D01*
X171319441Y-81112700D01*
X171553732Y-81066097D01*
X171774429Y-80974681D01*
X171973051Y-80841966D01*
X172141966Y-80673051D01*
X172249109Y-80512700D01*
X174787300Y-80512700D01*
X174787300Y-81335519D01*
X174780949Y-81400000D01*
X174787300Y-81464481D01*
X174787300Y-81464482D01*
X174806294Y-81657333D01*
X174881356Y-81904778D01*
X175003249Y-82132824D01*
X175167290Y-82332710D01*
X175217384Y-82373821D01*
X176417377Y-83573815D01*
X176567174Y-83696750D01*
X176795221Y-83818643D01*
X177042665Y-83893705D01*
X177299999Y-83919050D01*
X177557334Y-83893705D01*
X177804778Y-83818643D01*
X178032825Y-83696750D01*
X178232709Y-83532709D01*
X178396750Y-83332825D01*
X178518643Y-83104778D01*
X178593705Y-82857334D01*
X178619050Y-82599999D01*
X178593705Y-82342665D01*
X178518643Y-82095221D01*
X178396750Y-81867174D01*
X178273815Y-81717377D01*
X177412700Y-80856263D01*
X177412700Y-80512700D01*
X182500000Y-80512700D01*
X182502478Y-80512456D01*
X182504860Y-80511733D01*
X182507056Y-80510560D01*
X182508980Y-80508980D01*
X182510560Y-80507056D01*
X182511733Y-80504860D01*
X182512456Y-80502478D01*
X182512700Y-80500000D01*
X182512700Y-67762292D01*
X182544681Y-67714429D01*
X182636097Y-67493732D01*
X182682700Y-67259441D01*
X182682700Y-67020559D01*
X182636097Y-66786268D01*
X182544681Y-66565571D01*
X182512700Y-66517708D01*
X182512700Y-53512700D01*
X186487300Y-53512700D01*
X186487300Y-80017709D01*
D20*
G36*
X144662039Y-49521960D02*
G01*
X144640027Y-49540025D01*
X144567922Y-49627885D01*
X144514344Y-49728124D01*
X144505139Y-49758470D01*
X144481350Y-49836888D01*
X144476426Y-49886888D01*
X144473145Y-49920210D01*
X144470211Y-49949999D01*
X144473001Y-49978330D01*
X144473001Y-51513981D01*
X144285750Y-51515000D01*
X144127000Y-51673750D01*
X144127000Y-52873000D01*
X144147000Y-52873000D01*
X144147000Y-53127000D01*
X144127000Y-53127000D01*
X144127000Y-53147000D01*
X143873000Y-53147000D01*
X143873000Y-53127000D01*
X142673750Y-53127000D01*
X142515000Y-53285750D01*
X142511928Y-53850000D01*
X142524188Y-53974482D01*
X142560498Y-54094180D01*
X142619463Y-54204494D01*
X142698815Y-54301185D01*
X142795506Y-54380537D01*
X142905820Y-54439502D01*
X143025518Y-54475812D01*
X143115358Y-54484660D01*
X143021603Y-54561603D01*
X142849527Y-54771279D01*
X142721663Y-55010495D01*
X142642925Y-55270061D01*
X142616338Y-55540000D01*
X142642925Y-55809939D01*
X142721663Y-56069505D01*
X142849527Y-56308721D01*
X143021603Y-56518397D01*
X143231279Y-56690473D01*
X143454898Y-56810000D01*
X143231279Y-56929527D01*
X143021603Y-57101603D01*
X142849527Y-57311279D01*
X142721663Y-57550495D01*
X142642925Y-57810061D01*
X142616338Y-58080000D01*
X142642925Y-58349939D01*
X142721663Y-58609505D01*
X142849527Y-58848721D01*
X143021603Y-59058397D01*
X143231279Y-59230473D01*
X143454898Y-59350000D01*
X143231279Y-59469527D01*
X143021603Y-59641603D01*
X142849527Y-59851279D01*
X142721663Y-60090495D01*
X142642925Y-60350061D01*
X142616338Y-60620000D01*
X142642925Y-60889939D01*
X142721663Y-61149505D01*
X142849527Y-61388721D01*
X143021603Y-61598397D01*
X143231279Y-61770473D01*
X143454898Y-61890000D01*
X143231279Y-62009527D01*
X143021603Y-62181603D01*
X142849527Y-62391279D01*
X142721663Y-62630495D01*
X142642925Y-62890061D01*
X142616338Y-63160000D01*
X142642925Y-63429939D01*
X142721663Y-63689505D01*
X142849527Y-63928721D01*
X143021603Y-64138397D01*
X143231279Y-64310473D01*
X143454898Y-64430000D01*
X143231279Y-64549527D01*
X143021603Y-64721603D01*
X142849527Y-64931279D01*
X142721663Y-65170495D01*
X142642925Y-65430061D01*
X142616338Y-65700000D01*
X142642925Y-65969939D01*
X142721663Y-66229505D01*
X142849527Y-66468721D01*
X143021603Y-66678397D01*
X143231279Y-66850473D01*
X143454898Y-66970000D01*
X143231279Y-67089527D01*
X143021603Y-67261603D01*
X142849527Y-67471279D01*
X142721663Y-67710495D01*
X142642925Y-67970061D01*
X142616338Y-68240000D01*
X142642925Y-68509939D01*
X142721663Y-68769505D01*
X142849527Y-69008721D01*
X143021603Y-69218397D01*
X143231279Y-69390473D01*
X143454898Y-69510000D01*
X143231279Y-69629527D01*
X143021603Y-69801603D01*
X142849527Y-70011279D01*
X142721663Y-70250495D01*
X142642925Y-70510061D01*
X142616338Y-70780000D01*
X142642925Y-71049939D01*
X142721663Y-71309505D01*
X142849527Y-71548721D01*
X143021603Y-71758397D01*
X143231279Y-71930473D01*
X143454898Y-72050000D01*
X143231279Y-72169527D01*
X143021603Y-72341603D01*
X142849527Y-72551279D01*
X142721663Y-72790495D01*
X142642925Y-73050061D01*
X142616338Y-73320000D01*
X142642925Y-73589939D01*
X142721663Y-73849505D01*
X142849527Y-74088721D01*
X143021603Y-74298397D01*
X143231279Y-74470473D01*
X143454898Y-74590000D01*
X143231279Y-74709527D01*
X143021603Y-74881603D01*
X142849527Y-75091279D01*
X142721663Y-75330495D01*
X142642925Y-75590061D01*
X142616338Y-75860000D01*
X142642925Y-76129939D01*
X142721663Y-76389505D01*
X142849527Y-76628721D01*
X143021603Y-76838397D01*
X143231279Y-77010473D01*
X143454898Y-77130000D01*
X143231279Y-77249527D01*
X143021603Y-77421603D01*
X142849527Y-77631279D01*
X142721663Y-77870495D01*
X142642925Y-78130061D01*
X142616338Y-78400000D01*
X142642925Y-78669939D01*
X142721663Y-78929505D01*
X142849527Y-79168721D01*
X143021603Y-79378397D01*
X143231279Y-79550473D01*
X143454898Y-79670000D01*
X143231279Y-79789527D01*
X143021603Y-79961603D01*
X142849527Y-80171279D01*
X142721663Y-80410495D01*
X142642925Y-80670061D01*
X142616338Y-80940000D01*
X142642925Y-81209939D01*
X142721663Y-81469505D01*
X142849527Y-81708721D01*
X143021603Y-81918397D01*
X143231279Y-82090473D01*
X143454898Y-82210000D01*
X143231279Y-82329527D01*
X143021603Y-82501603D01*
X142849527Y-82711279D01*
X142721663Y-82950495D01*
X142642925Y-83210061D01*
X142616338Y-83480000D01*
X142642925Y-83749939D01*
X142721663Y-84009505D01*
X142849527Y-84248721D01*
X143021603Y-84458397D01*
X143231279Y-84630473D01*
X143454898Y-84750000D01*
X143231279Y-84869527D01*
X143021603Y-85041603D01*
X142849527Y-85251279D01*
X142721663Y-85490495D01*
X142642925Y-85750061D01*
X142616338Y-86020000D01*
X142642925Y-86289939D01*
X142721663Y-86549505D01*
X142849527Y-86788721D01*
X143021603Y-86998397D01*
X143231279Y-87170473D01*
X143470495Y-87298337D01*
X143716627Y-87373000D01*
X133627000Y-87373000D01*
X133627000Y-84144080D01*
X135115525Y-84144080D01*
X135199208Y-84398261D01*
X135471775Y-84529158D01*
X135764642Y-84604365D01*
X136066553Y-84620991D01*
X136365907Y-84578397D01*
X136651199Y-84478222D01*
X136800792Y-84398261D01*
X136884475Y-84144080D01*
X136000000Y-83259605D01*
X135115525Y-84144080D01*
X133627000Y-84144080D01*
X133627000Y-83146553D01*
X134459009Y-83146553D01*
X134501603Y-83445907D01*
X134601778Y-83731199D01*
X134681739Y-83880792D01*
X134935920Y-83964475D01*
X135820395Y-83080000D01*
X134935920Y-82195525D01*
X134681739Y-82279208D01*
X134550842Y-82551775D01*
X134475635Y-82844642D01*
X134459009Y-83146553D01*
X133627000Y-83146553D01*
X133627000Y-77100000D01*
X134570451Y-77100000D01*
X134570451Y-78900000D01*
X134580626Y-79003310D01*
X134610761Y-79102650D01*
X134659696Y-79194202D01*
X134725552Y-79274448D01*
X134805798Y-79340304D01*
X134897350Y-79389239D01*
X134996690Y-79419374D01*
X135094225Y-79428980D01*
X135090340Y-79431576D01*
X134891576Y-79630340D01*
X134735409Y-79864062D01*
X134627838Y-80123759D01*
X134573000Y-80399453D01*
X134573000Y-80680547D01*
X134627838Y-80956241D01*
X134735409Y-81215938D01*
X134891576Y-81449660D01*
X135090340Y-81648424D01*
X135232942Y-81743707D01*
X135199208Y-81761739D01*
X135115525Y-82015920D01*
X136000000Y-82900395D01*
X136884475Y-82015920D01*
X136800792Y-81761739D01*
X136765463Y-81744773D01*
X136909660Y-81648424D01*
X137108424Y-81449660D01*
X137203823Y-81306884D01*
X137167838Y-81393759D01*
X137113000Y-81669453D01*
X137113000Y-81950547D01*
X137167838Y-82226241D01*
X137169490Y-82230229D01*
X137064080Y-82195525D01*
X136179605Y-83080000D01*
X137064080Y-83964475D01*
X137169490Y-83929771D01*
X137167838Y-83933759D01*
X137113000Y-84209453D01*
X137113000Y-84490547D01*
X137167838Y-84766241D01*
X137275409Y-85025938D01*
X137431576Y-85259660D01*
X137630340Y-85458424D01*
X137864062Y-85614591D01*
X138123759Y-85722162D01*
X138399453Y-85777000D01*
X138680547Y-85777000D01*
X138956241Y-85722162D01*
X139215938Y-85614591D01*
X139449660Y-85458424D01*
X139648424Y-85259660D01*
X139804591Y-85025938D01*
X139912162Y-84766241D01*
X139967000Y-84490547D01*
X139967000Y-84209453D01*
X139912162Y-83933759D01*
X139804591Y-83674062D01*
X139648424Y-83440340D01*
X139449660Y-83241576D01*
X139215938Y-83085409D01*
X139202880Y-83080000D01*
X139215938Y-83074591D01*
X139449660Y-82918424D01*
X139648424Y-82719660D01*
X139804591Y-82485938D01*
X139912162Y-82226241D01*
X139967000Y-81950547D01*
X139967000Y-81669453D01*
X139912162Y-81393759D01*
X139804591Y-81134062D01*
X139648424Y-80900340D01*
X139449660Y-80701576D01*
X139215938Y-80545409D01*
X139202880Y-80540000D01*
X139215938Y-80534591D01*
X139449660Y-80378424D01*
X139648424Y-80179660D01*
X139804591Y-79945938D01*
X139912162Y-79686241D01*
X139967000Y-79410547D01*
X139967000Y-79129453D01*
X139912162Y-78853759D01*
X139804591Y-78594062D01*
X139648424Y-78360340D01*
X139449660Y-78161576D01*
X139215938Y-78005409D01*
X138956241Y-77897838D01*
X138680547Y-77843000D01*
X138399453Y-77843000D01*
X138123759Y-77897838D01*
X137864062Y-78005409D01*
X137630340Y-78161576D01*
X137431576Y-78360340D01*
X137429549Y-78363374D01*
X137429549Y-77828382D01*
X137674222Y-77877050D01*
X137925778Y-77877050D01*
X138172502Y-77827974D01*
X138404910Y-77731707D01*
X138614072Y-77591949D01*
X138791949Y-77414072D01*
X138931707Y-77204910D01*
X139027974Y-76972502D01*
X139077050Y-76725778D01*
X139077050Y-76474222D01*
X139027974Y-76227498D01*
X138931707Y-75995090D01*
X138791949Y-75785928D01*
X138614072Y-75608051D01*
X138404910Y-75468293D01*
X138172502Y-75372026D01*
X137925778Y-75322950D01*
X137674222Y-75322950D01*
X137427498Y-75372026D01*
X137195090Y-75468293D01*
X136985928Y-75608051D01*
X136808051Y-75785928D01*
X136668293Y-75995090D01*
X136572026Y-76227498D01*
X136522950Y-76474222D01*
X136522950Y-76570451D01*
X135100000Y-76570451D01*
X134996690Y-76580626D01*
X134897350Y-76610761D01*
X134805798Y-76659696D01*
X134725552Y-76725552D01*
X134659696Y-76805798D01*
X134610761Y-76897350D01*
X134580626Y-76996690D01*
X134570451Y-77100000D01*
X133627000Y-77100000D01*
X133627000Y-66900000D01*
X134461928Y-66900000D01*
X134474188Y-67024482D01*
X134510498Y-67144180D01*
X134569463Y-67254494D01*
X134648815Y-67351185D01*
X134745506Y-67430537D01*
X134855820Y-67489502D01*
X134975518Y-67525812D01*
X134994258Y-67527658D01*
X134891576Y-67630340D01*
X134735409Y-67864062D01*
X134627838Y-68123759D01*
X134573000Y-68399453D01*
X134573000Y-68680547D01*
X134627838Y-68956241D01*
X134735409Y-69215938D01*
X134891576Y-69449660D01*
X135090340Y-69648424D01*
X135324062Y-69804591D01*
X135337120Y-69810000D01*
X135324062Y-69815409D01*
X135090340Y-69971576D01*
X134891576Y-70170340D01*
X134735409Y-70404062D01*
X134627838Y-70663759D01*
X134573000Y-70939453D01*
X134573000Y-71220547D01*
X134627838Y-71496241D01*
X134735409Y-71755938D01*
X134891576Y-71989660D01*
X135090340Y-72188424D01*
X135324062Y-72344591D01*
X135583759Y-72452162D01*
X135859453Y-72507000D01*
X136140547Y-72507000D01*
X136416241Y-72452162D01*
X136675938Y-72344591D01*
X136909660Y-72188424D01*
X137108424Y-71989660D01*
X137203823Y-71846884D01*
X137167838Y-71933759D01*
X137113000Y-72209453D01*
X137113000Y-72490547D01*
X137167838Y-72766241D01*
X137275409Y-73025938D01*
X137431576Y-73259660D01*
X137630340Y-73458424D01*
X137864062Y-73614591D01*
X138123759Y-73722162D01*
X138399453Y-73777000D01*
X138680547Y-73777000D01*
X138956241Y-73722162D01*
X139215938Y-73614591D01*
X139449660Y-73458424D01*
X139648424Y-73259660D01*
X139804591Y-73025938D01*
X139912162Y-72766241D01*
X139967000Y-72490547D01*
X139967000Y-72209453D01*
X139912162Y-71933759D01*
X139804591Y-71674062D01*
X139648424Y-71440340D01*
X139449660Y-71241576D01*
X139215938Y-71085409D01*
X139202880Y-71080000D01*
X139215938Y-71074591D01*
X139449660Y-70918424D01*
X139648424Y-70719660D01*
X139804591Y-70485938D01*
X139912162Y-70226241D01*
X139967000Y-69950547D01*
X139967000Y-69669453D01*
X139912162Y-69393759D01*
X139804591Y-69134062D01*
X139648424Y-68900340D01*
X139449660Y-68701576D01*
X139215938Y-68545409D01*
X139202880Y-68540000D01*
X139215938Y-68534591D01*
X139449660Y-68378424D01*
X139648424Y-68179660D01*
X139804591Y-67945938D01*
X139912162Y-67686241D01*
X139967000Y-67410547D01*
X139967000Y-67129453D01*
X139912162Y-66853759D01*
X139804591Y-66594062D01*
X139648424Y-66360340D01*
X139449660Y-66161576D01*
X139215938Y-66005409D01*
X138956241Y-65897838D01*
X138680547Y-65843000D01*
X138399453Y-65843000D01*
X138123759Y-65897838D01*
X137864062Y-66005409D01*
X137630340Y-66161576D01*
X137520583Y-66271333D01*
X137376250Y-66127000D01*
X136127000Y-66127000D01*
X136127000Y-66147000D01*
X135873000Y-66147000D01*
X135873000Y-66127000D01*
X134623750Y-66127000D01*
X134465000Y-66285750D01*
X134461928Y-66900000D01*
X133627000Y-66900000D01*
X133627000Y-65100000D01*
X134461928Y-65100000D01*
X134465000Y-65714250D01*
X134623750Y-65873000D01*
X135873000Y-65873000D01*
X135873000Y-64623750D01*
X136127000Y-64623750D01*
X136127000Y-65873000D01*
X137376250Y-65873000D01*
X137423098Y-65826152D01*
X137427498Y-65827974D01*
X137674222Y-65877050D01*
X137925778Y-65877050D01*
X138172502Y-65827974D01*
X138404910Y-65731707D01*
X138614072Y-65591949D01*
X138791949Y-65414072D01*
X138931707Y-65204910D01*
X139027974Y-64972502D01*
X139077050Y-64725778D01*
X139077050Y-64474222D01*
X139027974Y-64227498D01*
X138931707Y-63995090D01*
X138791949Y-63785928D01*
X138614072Y-63608051D01*
X138404910Y-63468293D01*
X138172502Y-63372026D01*
X137925778Y-63322950D01*
X137674222Y-63322950D01*
X137427498Y-63372026D01*
X137195090Y-63468293D01*
X136985928Y-63608051D01*
X136808051Y-63785928D01*
X136668293Y-63995090D01*
X136572026Y-64227498D01*
X136525022Y-64463803D01*
X136285750Y-64465000D01*
X136127000Y-64623750D01*
X135873000Y-64623750D01*
X135714250Y-64465000D01*
X135100000Y-64461928D01*
X134975518Y-64474188D01*
X134855820Y-64510498D01*
X134745506Y-64569463D01*
X134648815Y-64648815D01*
X134569463Y-64745506D01*
X134510498Y-64855820D01*
X134474188Y-64975518D01*
X134461928Y-65100000D01*
X133627000Y-65100000D01*
X133627000Y-52150000D01*
X142511928Y-52150000D01*
X142515000Y-52714250D01*
X142673750Y-52873000D01*
X143873000Y-52873000D01*
X143873000Y-51673750D01*
X143714250Y-51515000D01*
X143150000Y-51511928D01*
X143025518Y-51524188D01*
X142905820Y-51560498D01*
X142795506Y-51619463D01*
X142698815Y-51698815D01*
X142619463Y-51795506D01*
X142560498Y-51905820D01*
X142524188Y-52025518D01*
X142511928Y-52150000D01*
X133627000Y-52150000D01*
X133627000Y-49571142D01*
X133652733Y-49596875D01*
X133766458Y-49483150D01*
X134042627Y-49901118D01*
X134587557Y-50191649D01*
X135178696Y-50370287D01*
X135793328Y-50430168D01*
X136407831Y-50368990D01*
X136998592Y-50189103D01*
X137537373Y-49901118D01*
X137813543Y-49483148D01*
X135790000Y-47459605D01*
X135775858Y-47473748D01*
X135596253Y-47294143D01*
X135610395Y-47280000D01*
X135596253Y-47265858D01*
X135775858Y-47086253D01*
X135790000Y-47100395D01*
X135804143Y-47086253D01*
X135983748Y-47265858D01*
X135969605Y-47280000D01*
X137993148Y-49303543D01*
X138411118Y-49027373D01*
X138701649Y-48482443D01*
X138880287Y-47891304D01*
X138940168Y-47276672D01*
X138878990Y-46662169D01*
X138699103Y-46071408D01*
X138411118Y-45532627D01*
X137993150Y-45256458D01*
X138106875Y-45142733D01*
X138091142Y-45127000D01*
X149056999Y-45127000D01*
X144662039Y-49521960D01*
X144662039Y-49521960D01*
G37*
X144662039Y-49521960D02*
X144640027Y-49540025D01*
X144567922Y-49627885D01*
X144514344Y-49728124D01*
X144505139Y-49758470D01*
X144481350Y-49836888D01*
X144476426Y-49886888D01*
X144473145Y-49920210D01*
X144470211Y-49949999D01*
X144473001Y-49978330D01*
X144473001Y-51513981D01*
X144285750Y-51515000D01*
X144127000Y-51673750D01*
X144127000Y-52873000D01*
X144147000Y-52873000D01*
X144147000Y-53127000D01*
X144127000Y-53127000D01*
X144127000Y-53147000D01*
X143873000Y-53147000D01*
X143873000Y-53127000D01*
X142673750Y-53127000D01*
X142515000Y-53285750D01*
X142511928Y-53850000D01*
X142524188Y-53974482D01*
X142560498Y-54094180D01*
X142619463Y-54204494D01*
X142698815Y-54301185D01*
X142795506Y-54380537D01*
X142905820Y-54439502D01*
X143025518Y-54475812D01*
X143115358Y-54484660D01*
X143021603Y-54561603D01*
X142849527Y-54771279D01*
X142721663Y-55010495D01*
X142642925Y-55270061D01*
X142616338Y-55540000D01*
X142642925Y-55809939D01*
X142721663Y-56069505D01*
X142849527Y-56308721D01*
X143021603Y-56518397D01*
X143231279Y-56690473D01*
X143454898Y-56810000D01*
X143231279Y-56929527D01*
X143021603Y-57101603D01*
X142849527Y-57311279D01*
X142721663Y-57550495D01*
X142642925Y-57810061D01*
X142616338Y-58080000D01*
X142642925Y-58349939D01*
X142721663Y-58609505D01*
X142849527Y-58848721D01*
X143021603Y-59058397D01*
X143231279Y-59230473D01*
X143454898Y-59350000D01*
X143231279Y-59469527D01*
X143021603Y-59641603D01*
X142849527Y-59851279D01*
X142721663Y-60090495D01*
X142642925Y-60350061D01*
X142616338Y-60620000D01*
X142642925Y-60889939D01*
X142721663Y-61149505D01*
X142849527Y-61388721D01*
X143021603Y-61598397D01*
X143231279Y-61770473D01*
X143454898Y-61890000D01*
X143231279Y-62009527D01*
X143021603Y-62181603D01*
X142849527Y-62391279D01*
X142721663Y-62630495D01*
X142642925Y-62890061D01*
X142616338Y-63160000D01*
X142642925Y-63429939D01*
X142721663Y-63689505D01*
X142849527Y-63928721D01*
X143021603Y-64138397D01*
X143231279Y-64310473D01*
X143454898Y-64430000D01*
X143231279Y-64549527D01*
X143021603Y-64721603D01*
X142849527Y-64931279D01*
X142721663Y-65170495D01*
X142642925Y-65430061D01*
X142616338Y-65700000D01*
X142642925Y-65969939D01*
X142721663Y-66229505D01*
X142849527Y-66468721D01*
X143021603Y-66678397D01*
X143231279Y-66850473D01*
X143454898Y-66970000D01*
X143231279Y-67089527D01*
X143021603Y-67261603D01*
X142849527Y-67471279D01*
X142721663Y-67710495D01*
X142642925Y-67970061D01*
X142616338Y-68240000D01*
X142642925Y-68509939D01*
X142721663Y-68769505D01*
X142849527Y-69008721D01*
X143021603Y-69218397D01*
X143231279Y-69390473D01*
X143454898Y-69510000D01*
X143231279Y-69629527D01*
X143021603Y-69801603D01*
X142849527Y-70011279D01*
X142721663Y-70250495D01*
X142642925Y-70510061D01*
X142616338Y-70780000D01*
X142642925Y-71049939D01*
X142721663Y-71309505D01*
X142849527Y-71548721D01*
X143021603Y-71758397D01*
X143231279Y-71930473D01*
X143454898Y-72050000D01*
X143231279Y-72169527D01*
X143021603Y-72341603D01*
X142849527Y-72551279D01*
X142721663Y-72790495D01*
X142642925Y-73050061D01*
X142616338Y-73320000D01*
X142642925Y-73589939D01*
X142721663Y-73849505D01*
X142849527Y-74088721D01*
X143021603Y-74298397D01*
X143231279Y-74470473D01*
X143454898Y-74590000D01*
X143231279Y-74709527D01*
X143021603Y-74881603D01*
X142849527Y-75091279D01*
X142721663Y-75330495D01*
X142642925Y-75590061D01*
X142616338Y-75860000D01*
X142642925Y-76129939D01*
X142721663Y-76389505D01*
X142849527Y-76628721D01*
X143021603Y-76838397D01*
X143231279Y-77010473D01*
X143454898Y-77130000D01*
X143231279Y-77249527D01*
X143021603Y-77421603D01*
X142849527Y-77631279D01*
X142721663Y-77870495D01*
X142642925Y-78130061D01*
X142616338Y-78400000D01*
X142642925Y-78669939D01*
X142721663Y-78929505D01*
X142849527Y-79168721D01*
X143021603Y-79378397D01*
X143231279Y-79550473D01*
X143454898Y-79670000D01*
X143231279Y-79789527D01*
X143021603Y-79961603D01*
X142849527Y-80171279D01*
X142721663Y-80410495D01*
X142642925Y-80670061D01*
X142616338Y-80940000D01*
X142642925Y-81209939D01*
X142721663Y-81469505D01*
X142849527Y-81708721D01*
X143021603Y-81918397D01*
X143231279Y-82090473D01*
X143454898Y-82210000D01*
X143231279Y-82329527D01*
X143021603Y-82501603D01*
X142849527Y-82711279D01*
X142721663Y-82950495D01*
X142642925Y-83210061D01*
X142616338Y-83480000D01*
X142642925Y-83749939D01*
X142721663Y-84009505D01*
X142849527Y-84248721D01*
X143021603Y-84458397D01*
X143231279Y-84630473D01*
X143454898Y-84750000D01*
X143231279Y-84869527D01*
X143021603Y-85041603D01*
X142849527Y-85251279D01*
X142721663Y-85490495D01*
X142642925Y-85750061D01*
X142616338Y-86020000D01*
X142642925Y-86289939D01*
X142721663Y-86549505D01*
X142849527Y-86788721D01*
X143021603Y-86998397D01*
X143231279Y-87170473D01*
X143470495Y-87298337D01*
X143716627Y-87373000D01*
X133627000Y-87373000D01*
X133627000Y-84144080D01*
X135115525Y-84144080D01*
X135199208Y-84398261D01*
X135471775Y-84529158D01*
X135764642Y-84604365D01*
X136066553Y-84620991D01*
X136365907Y-84578397D01*
X136651199Y-84478222D01*
X136800792Y-84398261D01*
X136884475Y-84144080D01*
X136000000Y-83259605D01*
X135115525Y-84144080D01*
X133627000Y-84144080D01*
X133627000Y-83146553D01*
X134459009Y-83146553D01*
X134501603Y-83445907D01*
X134601778Y-83731199D01*
X134681739Y-83880792D01*
X134935920Y-83964475D01*
X135820395Y-83080000D01*
X134935920Y-82195525D01*
X134681739Y-82279208D01*
X134550842Y-82551775D01*
X134475635Y-82844642D01*
X134459009Y-83146553D01*
X133627000Y-83146553D01*
X133627000Y-77100000D01*
X134570451Y-77100000D01*
X134570451Y-78900000D01*
X134580626Y-79003310D01*
X134610761Y-79102650D01*
X134659696Y-79194202D01*
X134725552Y-79274448D01*
X134805798Y-79340304D01*
X134897350Y-79389239D01*
X134996690Y-79419374D01*
X135094225Y-79428980D01*
X135090340Y-79431576D01*
X134891576Y-79630340D01*
X134735409Y-79864062D01*
X134627838Y-80123759D01*
X134573000Y-80399453D01*
X134573000Y-80680547D01*
X134627838Y-80956241D01*
X134735409Y-81215938D01*
X134891576Y-81449660D01*
X135090340Y-81648424D01*
X135232942Y-81743707D01*
X135199208Y-81761739D01*
X135115525Y-82015920D01*
X136000000Y-82900395D01*
X136884475Y-82015920D01*
X136800792Y-81761739D01*
X136765463Y-81744773D01*
X136909660Y-81648424D01*
X137108424Y-81449660D01*
X137203823Y-81306884D01*
X137167838Y-81393759D01*
X137113000Y-81669453D01*
X137113000Y-81950547D01*
X137167838Y-82226241D01*
X137169490Y-82230229D01*
X137064080Y-82195525D01*
X136179605Y-83080000D01*
X137064080Y-83964475D01*
X137169490Y-83929771D01*
X137167838Y-83933759D01*
X137113000Y-84209453D01*
X137113000Y-84490547D01*
X137167838Y-84766241D01*
X137275409Y-85025938D01*
X137431576Y-85259660D01*
X137630340Y-85458424D01*
X137864062Y-85614591D01*
X138123759Y-85722162D01*
X138399453Y-85777000D01*
X138680547Y-85777000D01*
X138956241Y-85722162D01*
X139215938Y-85614591D01*
X139449660Y-85458424D01*
X139648424Y-85259660D01*
X139804591Y-85025938D01*
X139912162Y-84766241D01*
X139967000Y-84490547D01*
X139967000Y-84209453D01*
X139912162Y-83933759D01*
X139804591Y-83674062D01*
X139648424Y-83440340D01*
X139449660Y-83241576D01*
X139215938Y-83085409D01*
X139202880Y-83080000D01*
X139215938Y-83074591D01*
X139449660Y-82918424D01*
X139648424Y-82719660D01*
X139804591Y-82485938D01*
X139912162Y-82226241D01*
X139967000Y-81950547D01*
X139967000Y-81669453D01*
X139912162Y-81393759D01*
X139804591Y-81134062D01*
X139648424Y-80900340D01*
X139449660Y-80701576D01*
X139215938Y-80545409D01*
X139202880Y-80540000D01*
X139215938Y-80534591D01*
X139449660Y-80378424D01*
X139648424Y-80179660D01*
X139804591Y-79945938D01*
X139912162Y-79686241D01*
X139967000Y-79410547D01*
X139967000Y-79129453D01*
X139912162Y-78853759D01*
X139804591Y-78594062D01*
X139648424Y-78360340D01*
X139449660Y-78161576D01*
X139215938Y-78005409D01*
X138956241Y-77897838D01*
X138680547Y-77843000D01*
X138399453Y-77843000D01*
X138123759Y-77897838D01*
X137864062Y-78005409D01*
X137630340Y-78161576D01*
X137431576Y-78360340D01*
X137429549Y-78363374D01*
X137429549Y-77828382D01*
X137674222Y-77877050D01*
X137925778Y-77877050D01*
X138172502Y-77827974D01*
X138404910Y-77731707D01*
X138614072Y-77591949D01*
X138791949Y-77414072D01*
X138931707Y-77204910D01*
X139027974Y-76972502D01*
X139077050Y-76725778D01*
X139077050Y-76474222D01*
X139027974Y-76227498D01*
X138931707Y-75995090D01*
X138791949Y-75785928D01*
X138614072Y-75608051D01*
X138404910Y-75468293D01*
X138172502Y-75372026D01*
X137925778Y-75322950D01*
X137674222Y-75322950D01*
X137427498Y-75372026D01*
X137195090Y-75468293D01*
X136985928Y-75608051D01*
X136808051Y-75785928D01*
X136668293Y-75995090D01*
X136572026Y-76227498D01*
X136522950Y-76474222D01*
X136522950Y-76570451D01*
X135100000Y-76570451D01*
X134996690Y-76580626D01*
X134897350Y-76610761D01*
X134805798Y-76659696D01*
X134725552Y-76725552D01*
X134659696Y-76805798D01*
X134610761Y-76897350D01*
X134580626Y-76996690D01*
X134570451Y-77100000D01*
X133627000Y-77100000D01*
X133627000Y-66900000D01*
X134461928Y-66900000D01*
X134474188Y-67024482D01*
X134510498Y-67144180D01*
X134569463Y-67254494D01*
X134648815Y-67351185D01*
X134745506Y-67430537D01*
X134855820Y-67489502D01*
X134975518Y-67525812D01*
X134994258Y-67527658D01*
X134891576Y-67630340D01*
X134735409Y-67864062D01*
X134627838Y-68123759D01*
X134573000Y-68399453D01*
X134573000Y-68680547D01*
X134627838Y-68956241D01*
X134735409Y-69215938D01*
X134891576Y-69449660D01*
X135090340Y-69648424D01*
X135324062Y-69804591D01*
X135337120Y-69810000D01*
X135324062Y-69815409D01*
X135090340Y-69971576D01*
X134891576Y-70170340D01*
X134735409Y-70404062D01*
X134627838Y-70663759D01*
X134573000Y-70939453D01*
X134573000Y-71220547D01*
X134627838Y-71496241D01*
X134735409Y-71755938D01*
X134891576Y-71989660D01*
X135090340Y-72188424D01*
X135324062Y-72344591D01*
X135583759Y-72452162D01*
X135859453Y-72507000D01*
X136140547Y-72507000D01*
X136416241Y-72452162D01*
X136675938Y-72344591D01*
X136909660Y-72188424D01*
X137108424Y-71989660D01*
X137203823Y-71846884D01*
X137167838Y-71933759D01*
X137113000Y-72209453D01*
X137113000Y-72490547D01*
X137167838Y-72766241D01*
X137275409Y-73025938D01*
X137431576Y-73259660D01*
X137630340Y-73458424D01*
X137864062Y-73614591D01*
X138123759Y-73722162D01*
X138399453Y-73777000D01*
X138680547Y-73777000D01*
X138956241Y-73722162D01*
X139215938Y-73614591D01*
X139449660Y-73458424D01*
X139648424Y-73259660D01*
X139804591Y-73025938D01*
X139912162Y-72766241D01*
X139967000Y-72490547D01*
X139967000Y-72209453D01*
X139912162Y-71933759D01*
X139804591Y-71674062D01*
X139648424Y-71440340D01*
X139449660Y-71241576D01*
X139215938Y-71085409D01*
X139202880Y-71080000D01*
X139215938Y-71074591D01*
X139449660Y-70918424D01*
X139648424Y-70719660D01*
X139804591Y-70485938D01*
X139912162Y-70226241D01*
X139967000Y-69950547D01*
X139967000Y-69669453D01*
X139912162Y-69393759D01*
X139804591Y-69134062D01*
X139648424Y-68900340D01*
X139449660Y-68701576D01*
X139215938Y-68545409D01*
X139202880Y-68540000D01*
X139215938Y-68534591D01*
X139449660Y-68378424D01*
X139648424Y-68179660D01*
X139804591Y-67945938D01*
X139912162Y-67686241D01*
X139967000Y-67410547D01*
X139967000Y-67129453D01*
X139912162Y-66853759D01*
X139804591Y-66594062D01*
X139648424Y-66360340D01*
X139449660Y-66161576D01*
X139215938Y-66005409D01*
X138956241Y-65897838D01*
X138680547Y-65843000D01*
X138399453Y-65843000D01*
X138123759Y-65897838D01*
X137864062Y-66005409D01*
X137630340Y-66161576D01*
X137520583Y-66271333D01*
X137376250Y-66127000D01*
X136127000Y-66127000D01*
X136127000Y-66147000D01*
X135873000Y-66147000D01*
X135873000Y-66127000D01*
X134623750Y-66127000D01*
X134465000Y-66285750D01*
X134461928Y-66900000D01*
X133627000Y-66900000D01*
X133627000Y-65100000D01*
X134461928Y-65100000D01*
X134465000Y-65714250D01*
X134623750Y-65873000D01*
X135873000Y-65873000D01*
X135873000Y-64623750D01*
X136127000Y-64623750D01*
X136127000Y-65873000D01*
X137376250Y-65873000D01*
X137423098Y-65826152D01*
X137427498Y-65827974D01*
X137674222Y-65877050D01*
X137925778Y-65877050D01*
X138172502Y-65827974D01*
X138404910Y-65731707D01*
X138614072Y-65591949D01*
X138791949Y-65414072D01*
X138931707Y-65204910D01*
X139027974Y-64972502D01*
X139077050Y-64725778D01*
X139077050Y-64474222D01*
X139027974Y-64227498D01*
X138931707Y-63995090D01*
X138791949Y-63785928D01*
X138614072Y-63608051D01*
X138404910Y-63468293D01*
X138172502Y-63372026D01*
X137925778Y-63322950D01*
X137674222Y-63322950D01*
X137427498Y-63372026D01*
X137195090Y-63468293D01*
X136985928Y-63608051D01*
X136808051Y-63785928D01*
X136668293Y-63995090D01*
X136572026Y-64227498D01*
X136525022Y-64463803D01*
X136285750Y-64465000D01*
X136127000Y-64623750D01*
X135873000Y-64623750D01*
X135714250Y-64465000D01*
X135100000Y-64461928D01*
X134975518Y-64474188D01*
X134855820Y-64510498D01*
X134745506Y-64569463D01*
X134648815Y-64648815D01*
X134569463Y-64745506D01*
X134510498Y-64855820D01*
X134474188Y-64975518D01*
X134461928Y-65100000D01*
X133627000Y-65100000D01*
X133627000Y-52150000D01*
X142511928Y-52150000D01*
X142515000Y-52714250D01*
X142673750Y-52873000D01*
X143873000Y-52873000D01*
X143873000Y-51673750D01*
X143714250Y-51515000D01*
X143150000Y-51511928D01*
X143025518Y-51524188D01*
X142905820Y-51560498D01*
X142795506Y-51619463D01*
X142698815Y-51698815D01*
X142619463Y-51795506D01*
X142560498Y-51905820D01*
X142524188Y-52025518D01*
X142511928Y-52150000D01*
X133627000Y-52150000D01*
X133627000Y-49571142D01*
X133652733Y-49596875D01*
X133766458Y-49483150D01*
X134042627Y-49901118D01*
X134587557Y-50191649D01*
X135178696Y-50370287D01*
X135793328Y-50430168D01*
X136407831Y-50368990D01*
X136998592Y-50189103D01*
X137537373Y-49901118D01*
X137813543Y-49483148D01*
X135790000Y-47459605D01*
X135775858Y-47473748D01*
X135596253Y-47294143D01*
X135610395Y-47280000D01*
X135596253Y-47265858D01*
X135775858Y-47086253D01*
X135790000Y-47100395D01*
X135804143Y-47086253D01*
X135983748Y-47265858D01*
X135969605Y-47280000D01*
X137993148Y-49303543D01*
X138411118Y-49027373D01*
X138701649Y-48482443D01*
X138880287Y-47891304D01*
X138940168Y-47276672D01*
X138878990Y-46662169D01*
X138699103Y-46071408D01*
X138411118Y-45532627D01*
X137993150Y-45256458D01*
X138106875Y-45142733D01*
X138091142Y-45127000D01*
X149056999Y-45127000D01*
X144662039Y-49521960D01*
G36*
X181873000Y-69488885D02*
G01*
X181844741Y-69436016D01*
X181763264Y-69336736D01*
X181738387Y-69316320D01*
X175808139Y-63386073D01*
X175826990Y-63291301D01*
X175826990Y-63108699D01*
X175791366Y-62929604D01*
X175721486Y-62760901D01*
X175620038Y-62609072D01*
X175490918Y-62479952D01*
X175339089Y-62378504D01*
X175170386Y-62308624D01*
X174991291Y-62273000D01*
X174808689Y-62273000D01*
X174629594Y-62308624D01*
X174460891Y-62378504D01*
X174309062Y-62479952D01*
X174179942Y-62609072D01*
X174078494Y-62760901D01*
X174008614Y-62929604D01*
X173972990Y-63108699D01*
X173972990Y-63291301D01*
X174008614Y-63470396D01*
X174078494Y-63639099D01*
X174179942Y-63790928D01*
X174309062Y-63920048D01*
X174460891Y-64021496D01*
X174629594Y-64091376D01*
X174679171Y-64101238D01*
X180648001Y-70070068D01*
X180648000Y-72741024D01*
X180579952Y-72809072D01*
X180478504Y-72960901D01*
X180408624Y-73129604D01*
X180373000Y-73308699D01*
X180373000Y-73491301D01*
X180408624Y-73670396D01*
X180478504Y-73839099D01*
X180579952Y-73990928D01*
X180709072Y-74120048D01*
X180860901Y-74221496D01*
X181029604Y-74291376D01*
X181208699Y-74327000D01*
X181391301Y-74327000D01*
X181570396Y-74291376D01*
X181739099Y-74221496D01*
X181873000Y-74132027D01*
X181873000Y-79873000D01*
X172127000Y-79873000D01*
X172127000Y-76889001D01*
X172887962Y-76128039D01*
X172909974Y-76109974D01*
X172982079Y-76022115D01*
X173035657Y-75921876D01*
X173054427Y-75860000D01*
X173068651Y-75813112D01*
X173079791Y-75700000D01*
X173077000Y-75671661D01*
X173077000Y-71209781D01*
X173117653Y-71192942D01*
X173269482Y-71091494D01*
X173398602Y-70962374D01*
X173500050Y-70810545D01*
X173569930Y-70641842D01*
X173605554Y-70462747D01*
X173605554Y-70280145D01*
X173569930Y-70101050D01*
X173500050Y-69932347D01*
X173477001Y-69897851D01*
X173477001Y-69608699D01*
X174597990Y-69608699D01*
X174597990Y-69791301D01*
X174633614Y-69970396D01*
X174703494Y-70139099D01*
X174804942Y-70290928D01*
X174934062Y-70420048D01*
X175085891Y-70521496D01*
X175254594Y-70591376D01*
X175433689Y-70627000D01*
X175616291Y-70627000D01*
X175795386Y-70591376D01*
X175964089Y-70521496D01*
X176115918Y-70420048D01*
X176183966Y-70352000D01*
X177473492Y-70352000D01*
X177478504Y-70364101D01*
X177579952Y-70515930D01*
X177709072Y-70645050D01*
X177860901Y-70746498D01*
X178029604Y-70816378D01*
X178208699Y-70852002D01*
X178391301Y-70852002D01*
X178570396Y-70816378D01*
X178739099Y-70746498D01*
X178890928Y-70645050D01*
X179020048Y-70515930D01*
X179121496Y-70364101D01*
X179191376Y-70195398D01*
X179227000Y-70016303D01*
X179227000Y-69833701D01*
X179191376Y-69654606D01*
X179121496Y-69485903D01*
X179020048Y-69334074D01*
X178890928Y-69204954D01*
X178739099Y-69103506D01*
X178570396Y-69033626D01*
X178391301Y-68998002D01*
X178208699Y-68998002D01*
X178029604Y-69033626D01*
X177994903Y-69048000D01*
X176183966Y-69048000D01*
X176115918Y-68979952D01*
X175964089Y-68878504D01*
X175795386Y-68808624D01*
X175616291Y-68773000D01*
X175433689Y-68773000D01*
X175254594Y-68808624D01*
X175085891Y-68878504D01*
X174934062Y-68979952D01*
X174804942Y-69109072D01*
X174703494Y-69260901D01*
X174633614Y-69429604D01*
X174597990Y-69608699D01*
X173477001Y-69608699D01*
X173477001Y-49588327D01*
X173479791Y-49559998D01*
X173477001Y-49531669D01*
X173477001Y-49531663D01*
X173468651Y-49446887D01*
X173435658Y-49338123D01*
X173382080Y-49237884D01*
X173309975Y-49150025D01*
X173287964Y-49131961D01*
X171968040Y-47812037D01*
X171949975Y-47790025D01*
X171862116Y-47717920D01*
X171761877Y-47664342D01*
X171697771Y-47644896D01*
X171653112Y-47631348D01*
X171598046Y-47625925D01*
X171568337Y-47622999D01*
X171568332Y-47622999D01*
X171540001Y-47620209D01*
X171511670Y-47622999D01*
X171088338Y-47622999D01*
X171059999Y-47620208D01*
X170946887Y-47631348D01*
X170838122Y-47664342D01*
X170817543Y-47675342D01*
X170737884Y-47717920D01*
X170650025Y-47790025D01*
X170631956Y-47812042D01*
X170412033Y-48031964D01*
X170390026Y-48050025D01*
X170371965Y-48072032D01*
X170371962Y-48072035D01*
X170359773Y-48086888D01*
X170317921Y-48137884D01*
X170264343Y-48238123D01*
X170231348Y-48346888D01*
X170220209Y-48459999D01*
X170222999Y-48488330D01*
X170222999Y-49171668D01*
X170220209Y-49199999D01*
X170231348Y-49313110D01*
X170248669Y-49370208D01*
X170264342Y-49421874D01*
X170283238Y-49457227D01*
X170273000Y-49508699D01*
X170273000Y-49691301D01*
X170308624Y-49870396D01*
X170378504Y-50039099D01*
X170385788Y-50050000D01*
X170378504Y-50060901D01*
X170308624Y-50229604D01*
X170273000Y-50408699D01*
X170273000Y-50591301D01*
X170276268Y-50607730D01*
X165510999Y-55373000D01*
X165500000Y-55373000D01*
X165475224Y-55375440D01*
X165451399Y-55382667D01*
X165429443Y-55394403D01*
X165410197Y-55410197D01*
X165394403Y-55429443D01*
X165382667Y-55451399D01*
X165375440Y-55475224D01*
X165373000Y-55500000D01*
X165373000Y-55510999D01*
X162612034Y-58271965D01*
X162590027Y-58290026D01*
X162571966Y-58312033D01*
X162571963Y-58312036D01*
X162548840Y-58340212D01*
X162517922Y-58377885D01*
X162504972Y-58402114D01*
X162464344Y-58478124D01*
X162431349Y-58586889D01*
X162420210Y-58700000D01*
X162423001Y-58728341D01*
X162423000Y-64200999D01*
X160514845Y-66109154D01*
X160557075Y-65969939D01*
X160583662Y-65700000D01*
X160557075Y-65430061D01*
X160478337Y-65170495D01*
X160350473Y-64931279D01*
X160178397Y-64721603D01*
X159968721Y-64549527D01*
X159745102Y-64430000D01*
X159968721Y-64310473D01*
X160178397Y-64138397D01*
X160350473Y-63928721D01*
X160478337Y-63689505D01*
X160557075Y-63429939D01*
X160583662Y-63160000D01*
X160557075Y-62890061D01*
X160478337Y-62630495D01*
X160350473Y-62391279D01*
X160178397Y-62181603D01*
X159968721Y-62009527D01*
X159745102Y-61890000D01*
X159968721Y-61770473D01*
X160178397Y-61598397D01*
X160350473Y-61388721D01*
X160478337Y-61149505D01*
X160557075Y-60889939D01*
X160583662Y-60620000D01*
X160557075Y-60350061D01*
X160478337Y-60090495D01*
X160350473Y-59851279D01*
X160178397Y-59641603D01*
X159968721Y-59469527D01*
X159745102Y-59350000D01*
X159968721Y-59230473D01*
X160178397Y-59058397D01*
X160350473Y-58848721D01*
X160478337Y-58609505D01*
X160557075Y-58349939D01*
X160583662Y-58080000D01*
X160557075Y-57810061D01*
X160493970Y-57602031D01*
X163887962Y-54208039D01*
X163909974Y-54189974D01*
X163982079Y-54102115D01*
X164035657Y-54001876D01*
X164068650Y-53893112D01*
X164077000Y-53808336D01*
X164077000Y-53808330D01*
X164079790Y-53780001D01*
X164077000Y-53751672D01*
X164077000Y-50729354D01*
X164090928Y-50720048D01*
X164220048Y-50590928D01*
X164253479Y-50540894D01*
X164270743Y-50535657D01*
X164370982Y-50482079D01*
X164458841Y-50409974D01*
X164476906Y-50387962D01*
X166897699Y-47967170D01*
X166914128Y-47970438D01*
X167096730Y-47970438D01*
X167275825Y-47934814D01*
X167444528Y-47864934D01*
X167596357Y-47763486D01*
X167725477Y-47634366D01*
X167826925Y-47482537D01*
X167896805Y-47313834D01*
X167932429Y-47134739D01*
X167932429Y-46952137D01*
X167896805Y-46773042D01*
X167826925Y-46604339D01*
X167725477Y-46452510D01*
X167596357Y-46323390D01*
X167444528Y-46221942D01*
X167275825Y-46152062D01*
X167096730Y-46116438D01*
X166914128Y-46116438D01*
X166735033Y-46152062D01*
X166566330Y-46221942D01*
X166414501Y-46323390D01*
X166285381Y-46452510D01*
X166183933Y-46604339D01*
X166114053Y-46773042D01*
X166078429Y-46952137D01*
X166078429Y-47134739D01*
X166081697Y-47151168D01*
X164008194Y-49224672D01*
X163939099Y-49178504D01*
X163770396Y-49108624D01*
X163591301Y-49073000D01*
X163408699Y-49073000D01*
X163229604Y-49108624D01*
X163060901Y-49178504D01*
X162909072Y-49279952D01*
X162779952Y-49409072D01*
X162678504Y-49560901D01*
X162608624Y-49729604D01*
X162573000Y-49908699D01*
X162573000Y-50091301D01*
X162608624Y-50270396D01*
X162678504Y-50439099D01*
X162779952Y-50590928D01*
X162909072Y-50720048D01*
X162923000Y-50729354D01*
X162923001Y-53540998D01*
X160615787Y-55848212D01*
X160520155Y-55667000D01*
X159327000Y-55667000D01*
X159327000Y-55687000D01*
X159073000Y-55687000D01*
X159073000Y-55667000D01*
X157879845Y-55667000D01*
X157758524Y-55896890D01*
X157803175Y-56044099D01*
X157928359Y-56306920D01*
X158102412Y-56540269D01*
X158318645Y-56735178D01*
X158543877Y-56869342D01*
X158431279Y-56929527D01*
X158221603Y-57101603D01*
X158049527Y-57311279D01*
X157921663Y-57550495D01*
X157842925Y-57810061D01*
X157816338Y-58080000D01*
X157842925Y-58349939D01*
X157921663Y-58609505D01*
X158049527Y-58848721D01*
X158221603Y-59058397D01*
X158431279Y-59230473D01*
X158654898Y-59350000D01*
X158431279Y-59469527D01*
X158221603Y-59641603D01*
X158049527Y-59851279D01*
X157921663Y-60090495D01*
X157842925Y-60350061D01*
X157816338Y-60620000D01*
X157842925Y-60889939D01*
X157921663Y-61149505D01*
X158049527Y-61388721D01*
X158221603Y-61598397D01*
X158431279Y-61770473D01*
X158654898Y-61890000D01*
X158431279Y-62009527D01*
X158221603Y-62181603D01*
X158049527Y-62391279D01*
X157921663Y-62630495D01*
X157842925Y-62890061D01*
X157816338Y-63160000D01*
X157842925Y-63429939D01*
X157921663Y-63689505D01*
X158049527Y-63928721D01*
X158221603Y-64138397D01*
X158431279Y-64310473D01*
X158654898Y-64430000D01*
X158431279Y-64549527D01*
X158221603Y-64721603D01*
X158049527Y-64931279D01*
X157921663Y-65170495D01*
X157842925Y-65430061D01*
X157816338Y-65700000D01*
X157842925Y-65969939D01*
X157921663Y-66229505D01*
X158049527Y-66468721D01*
X158221603Y-66678397D01*
X158431279Y-66850473D01*
X158654898Y-66970000D01*
X158431279Y-67089527D01*
X158221603Y-67261603D01*
X158049527Y-67471279D01*
X157921663Y-67710495D01*
X157842925Y-67970061D01*
X157816338Y-68240000D01*
X157842925Y-68509939D01*
X157921663Y-68769505D01*
X158049527Y-69008721D01*
X158221603Y-69218397D01*
X158431279Y-69390473D01*
X158654898Y-69510000D01*
X158431279Y-69629527D01*
X158221603Y-69801603D01*
X158049527Y-70011279D01*
X157921663Y-70250495D01*
X157842925Y-70510061D01*
X157816338Y-70780000D01*
X157842925Y-71049939D01*
X157921663Y-71309505D01*
X158049527Y-71548721D01*
X158221603Y-71758397D01*
X158431279Y-71930473D01*
X158654898Y-72050000D01*
X158431279Y-72169527D01*
X158221603Y-72341603D01*
X158049527Y-72551279D01*
X157921663Y-72790495D01*
X157842925Y-73050061D01*
X157816338Y-73320000D01*
X157842925Y-73589939D01*
X157921663Y-73849505D01*
X158049527Y-74088721D01*
X158221603Y-74298397D01*
X158431279Y-74470473D01*
X158654898Y-74590000D01*
X158431279Y-74709527D01*
X158221603Y-74881603D01*
X158049527Y-75091279D01*
X157921663Y-75330495D01*
X157842925Y-75590061D01*
X157816338Y-75860000D01*
X157842925Y-76129939D01*
X157921663Y-76389505D01*
X158049527Y-76628721D01*
X158221603Y-76838397D01*
X158431279Y-77010473D01*
X158654898Y-77130000D01*
X158431279Y-77249527D01*
X158221603Y-77421603D01*
X158049527Y-77631279D01*
X157921663Y-77870495D01*
X157842925Y-78130061D01*
X157816338Y-78400000D01*
X157842925Y-78669939D01*
X157921663Y-78929505D01*
X158049527Y-79168721D01*
X158221603Y-79378397D01*
X158431279Y-79550473D01*
X158654898Y-79670000D01*
X158431279Y-79789527D01*
X158221603Y-79961603D01*
X158049527Y-80171279D01*
X157921663Y-80410495D01*
X157842925Y-80670061D01*
X157816338Y-80940000D01*
X157842925Y-81209939D01*
X157921663Y-81469505D01*
X158049527Y-81708721D01*
X158221603Y-81918397D01*
X158431279Y-82090473D01*
X158654898Y-82210000D01*
X158431279Y-82329527D01*
X158221603Y-82501603D01*
X158049527Y-82711279D01*
X157921663Y-82950495D01*
X157842925Y-83210061D01*
X157816338Y-83480000D01*
X157842925Y-83749939D01*
X157921663Y-84009505D01*
X158049527Y-84248721D01*
X158221603Y-84458397D01*
X158431279Y-84630473D01*
X158654898Y-84750000D01*
X158431279Y-84869527D01*
X158221603Y-85041603D01*
X158049527Y-85251279D01*
X157921663Y-85490495D01*
X157842925Y-85750061D01*
X157816338Y-86020000D01*
X157842925Y-86289939D01*
X157921663Y-86549505D01*
X158049527Y-86788721D01*
X158221603Y-86998397D01*
X158431279Y-87170473D01*
X158670495Y-87298337D01*
X158916627Y-87373000D01*
X144283373Y-87373000D01*
X144529505Y-87298337D01*
X144768721Y-87170473D01*
X144978397Y-86998397D01*
X145150473Y-86788721D01*
X145278337Y-86549505D01*
X145357075Y-86289939D01*
X145383662Y-86020000D01*
X145357075Y-85750061D01*
X145278337Y-85490495D01*
X145150473Y-85251279D01*
X144978397Y-85041603D01*
X144768721Y-84869527D01*
X144545102Y-84750000D01*
X144768721Y-84630473D01*
X144978397Y-84458397D01*
X145150473Y-84248721D01*
X145278337Y-84009505D01*
X145357075Y-83749939D01*
X145383662Y-83480000D01*
X145357075Y-83210061D01*
X145278337Y-82950495D01*
X145150473Y-82711279D01*
X144978397Y-82501603D01*
X144768721Y-82329527D01*
X144545102Y-82210000D01*
X144768721Y-82090473D01*
X144978397Y-81918397D01*
X145150473Y-81708721D01*
X145278337Y-81469505D01*
X145357075Y-81209939D01*
X145383662Y-80940000D01*
X145357075Y-80670061D01*
X145278337Y-80410495D01*
X145150473Y-80171279D01*
X144978397Y-79961603D01*
X144768721Y-79789527D01*
X144545102Y-79670000D01*
X144768721Y-79550473D01*
X144978397Y-79378397D01*
X145150473Y-79168721D01*
X145278337Y-78929505D01*
X145357075Y-78669939D01*
X145383662Y-78400000D01*
X145357075Y-78130061D01*
X145278337Y-77870495D01*
X145150473Y-77631279D01*
X144978397Y-77421603D01*
X144768721Y-77249527D01*
X144545102Y-77130000D01*
X144768721Y-77010473D01*
X144978397Y-76838397D01*
X145150473Y-76628721D01*
X145278337Y-76389505D01*
X145357075Y-76129939D01*
X145383662Y-75860000D01*
X145357075Y-75590061D01*
X145278337Y-75330495D01*
X145150473Y-75091279D01*
X144978397Y-74881603D01*
X144768721Y-74709527D01*
X144545102Y-74590000D01*
X144768721Y-74470473D01*
X144978397Y-74298397D01*
X145150473Y-74088721D01*
X145278337Y-73849505D01*
X145357075Y-73589939D01*
X145383662Y-73320000D01*
X145357075Y-73050061D01*
X145278337Y-72790495D01*
X145150473Y-72551279D01*
X144978397Y-72341603D01*
X144768721Y-72169527D01*
X144545102Y-72050000D01*
X144768721Y-71930473D01*
X144978397Y-71758397D01*
X145150473Y-71548721D01*
X145278337Y-71309505D01*
X145357075Y-71049939D01*
X145383662Y-70780000D01*
X145357075Y-70510061D01*
X145278337Y-70250495D01*
X145150473Y-70011279D01*
X144978397Y-69801603D01*
X144768721Y-69629527D01*
X144545102Y-69510000D01*
X144768721Y-69390473D01*
X144978397Y-69218397D01*
X145150473Y-69008721D01*
X145278337Y-68769505D01*
X145357075Y-68509939D01*
X145383662Y-68240000D01*
X145357075Y-67970061D01*
X145293970Y-67762031D01*
X145437964Y-67618037D01*
X145459975Y-67599973D01*
X145532080Y-67512114D01*
X145585658Y-67411875D01*
X145604068Y-67351185D01*
X145618652Y-67303111D01*
X145629792Y-67189999D01*
X145627001Y-67161660D01*
X145627001Y-65242566D01*
X146241529Y-64628038D01*
X146263540Y-64609974D01*
X146335645Y-64522115D01*
X146388209Y-64423774D01*
X146389223Y-64421877D01*
X146422217Y-64313112D01*
X146433357Y-64200000D01*
X146430566Y-64171661D01*
X146430566Y-55183110D01*
X157758524Y-55183110D01*
X157879845Y-55413000D01*
X159073000Y-55413000D01*
X159073000Y-55393000D01*
X159327000Y-55393000D01*
X159327000Y-55413000D01*
X160520155Y-55413000D01*
X160641476Y-55183110D01*
X160596825Y-55035901D01*
X160471641Y-54773080D01*
X160297588Y-54539731D01*
X160112998Y-54373344D01*
X160153310Y-54369374D01*
X160252650Y-54339239D01*
X160344202Y-54290304D01*
X160424448Y-54224448D01*
X160490304Y-54144202D01*
X160539239Y-54052650D01*
X160569374Y-53953310D01*
X160579549Y-53850000D01*
X160579549Y-52150000D01*
X160569374Y-52046690D01*
X160539239Y-51947350D01*
X160490304Y-51855798D01*
X160424448Y-51775552D01*
X160344202Y-51709696D01*
X160252650Y-51660761D01*
X160153310Y-51630626D01*
X160050000Y-51620451D01*
X158350000Y-51620451D01*
X158246690Y-51630626D01*
X158147350Y-51660761D01*
X158055798Y-51709696D01*
X157975552Y-51775552D01*
X157909696Y-51855798D01*
X157860761Y-51947350D01*
X157830626Y-52046690D01*
X157820451Y-52150000D01*
X157820451Y-53850000D01*
X157830626Y-53953310D01*
X157860761Y-54052650D01*
X157909696Y-54144202D01*
X157975552Y-54224448D01*
X158055798Y-54290304D01*
X158147350Y-54339239D01*
X158246690Y-54369374D01*
X158287002Y-54373344D01*
X158102412Y-54539731D01*
X157928359Y-54773080D01*
X157803175Y-55035901D01*
X157758524Y-55183110D01*
X146430566Y-55183110D01*
X146430566Y-50385435D01*
X150988992Y-45827010D01*
X181873000Y-45827010D01*
X181873000Y-69488885D01*
X181873000Y-69488885D01*
G37*
X181873000Y-69488885D02*
X181844741Y-69436016D01*
X181763264Y-69336736D01*
X181738387Y-69316320D01*
X175808139Y-63386073D01*
X175826990Y-63291301D01*
X175826990Y-63108699D01*
X175791366Y-62929604D01*
X175721486Y-62760901D01*
X175620038Y-62609072D01*
X175490918Y-62479952D01*
X175339089Y-62378504D01*
X175170386Y-62308624D01*
X174991291Y-62273000D01*
X174808689Y-62273000D01*
X174629594Y-62308624D01*
X174460891Y-62378504D01*
X174309062Y-62479952D01*
X174179942Y-62609072D01*
X174078494Y-62760901D01*
X174008614Y-62929604D01*
X173972990Y-63108699D01*
X173972990Y-63291301D01*
X174008614Y-63470396D01*
X174078494Y-63639099D01*
X174179942Y-63790928D01*
X174309062Y-63920048D01*
X174460891Y-64021496D01*
X174629594Y-64091376D01*
X174679171Y-64101238D01*
X180648001Y-70070068D01*
X180648000Y-72741024D01*
X180579952Y-72809072D01*
X180478504Y-72960901D01*
X180408624Y-73129604D01*
X180373000Y-73308699D01*
X180373000Y-73491301D01*
X180408624Y-73670396D01*
X180478504Y-73839099D01*
X180579952Y-73990928D01*
X180709072Y-74120048D01*
X180860901Y-74221496D01*
X181029604Y-74291376D01*
X181208699Y-74327000D01*
X181391301Y-74327000D01*
X181570396Y-74291376D01*
X181739099Y-74221496D01*
X181873000Y-74132027D01*
X181873000Y-79873000D01*
X172127000Y-79873000D01*
X172127000Y-76889001D01*
X172887962Y-76128039D01*
X172909974Y-76109974D01*
X172982079Y-76022115D01*
X173035657Y-75921876D01*
X173054427Y-75860000D01*
X173068651Y-75813112D01*
X173079791Y-75700000D01*
X173077000Y-75671661D01*
X173077000Y-71209781D01*
X173117653Y-71192942D01*
X173269482Y-71091494D01*
X173398602Y-70962374D01*
X173500050Y-70810545D01*
X173569930Y-70641842D01*
X173605554Y-70462747D01*
X173605554Y-70280145D01*
X173569930Y-70101050D01*
X173500050Y-69932347D01*
X173477001Y-69897851D01*
X173477001Y-69608699D01*
X174597990Y-69608699D01*
X174597990Y-69791301D01*
X174633614Y-69970396D01*
X174703494Y-70139099D01*
X174804942Y-70290928D01*
X174934062Y-70420048D01*
X175085891Y-70521496D01*
X175254594Y-70591376D01*
X175433689Y-70627000D01*
X175616291Y-70627000D01*
X175795386Y-70591376D01*
X175964089Y-70521496D01*
X176115918Y-70420048D01*
X176183966Y-70352000D01*
X177473492Y-70352000D01*
X177478504Y-70364101D01*
X177579952Y-70515930D01*
X177709072Y-70645050D01*
X177860901Y-70746498D01*
X178029604Y-70816378D01*
X178208699Y-70852002D01*
X178391301Y-70852002D01*
X178570396Y-70816378D01*
X178739099Y-70746498D01*
X178890928Y-70645050D01*
X179020048Y-70515930D01*
X179121496Y-70364101D01*
X179191376Y-70195398D01*
X179227000Y-70016303D01*
X179227000Y-69833701D01*
X179191376Y-69654606D01*
X179121496Y-69485903D01*
X179020048Y-69334074D01*
X178890928Y-69204954D01*
X178739099Y-69103506D01*
X178570396Y-69033626D01*
X178391301Y-68998002D01*
X178208699Y-68998002D01*
X178029604Y-69033626D01*
X177994903Y-69048000D01*
X176183966Y-69048000D01*
X176115918Y-68979952D01*
X175964089Y-68878504D01*
X175795386Y-68808624D01*
X175616291Y-68773000D01*
X175433689Y-68773000D01*
X175254594Y-68808624D01*
X175085891Y-68878504D01*
X174934062Y-68979952D01*
X174804942Y-69109072D01*
X174703494Y-69260901D01*
X174633614Y-69429604D01*
X174597990Y-69608699D01*
X173477001Y-69608699D01*
X173477001Y-49588327D01*
X173479791Y-49559998D01*
X173477001Y-49531669D01*
X173477001Y-49531663D01*
X173468651Y-49446887D01*
X173435658Y-49338123D01*
X173382080Y-49237884D01*
X173309975Y-49150025D01*
X173287964Y-49131961D01*
X171968040Y-47812037D01*
X171949975Y-47790025D01*
X171862116Y-47717920D01*
X171761877Y-47664342D01*
X171697771Y-47644896D01*
X171653112Y-47631348D01*
X171598046Y-47625925D01*
X171568337Y-47622999D01*
X171568332Y-47622999D01*
X171540001Y-47620209D01*
X171511670Y-47622999D01*
X171088338Y-47622999D01*
X171059999Y-47620208D01*
X170946887Y-47631348D01*
X170838122Y-47664342D01*
X170817543Y-47675342D01*
X170737884Y-47717920D01*
X170650025Y-47790025D01*
X170631956Y-47812042D01*
X170412033Y-48031964D01*
X170390026Y-48050025D01*
X170371965Y-48072032D01*
X170371962Y-48072035D01*
X170359773Y-48086888D01*
X170317921Y-48137884D01*
X170264343Y-48238123D01*
X170231348Y-48346888D01*
X170220209Y-48459999D01*
X170222999Y-48488330D01*
X170222999Y-49171668D01*
X170220209Y-49199999D01*
X170231348Y-49313110D01*
X170248669Y-49370208D01*
X170264342Y-49421874D01*
X170283238Y-49457227D01*
X170273000Y-49508699D01*
X170273000Y-49691301D01*
X170308624Y-49870396D01*
X170378504Y-50039099D01*
X170385788Y-50050000D01*
X170378504Y-50060901D01*
X170308624Y-50229604D01*
X170273000Y-50408699D01*
X170273000Y-50591301D01*
X170276268Y-50607730D01*
X165510999Y-55373000D01*
X165500000Y-55373000D01*
X165475224Y-55375440D01*
X165451399Y-55382667D01*
X165429443Y-55394403D01*
X165410197Y-55410197D01*
X165394403Y-55429443D01*
X165382667Y-55451399D01*
X165375440Y-55475224D01*
X165373000Y-55500000D01*
X165373000Y-55510999D01*
X162612034Y-58271965D01*
X162590027Y-58290026D01*
X162571966Y-58312033D01*
X162571963Y-58312036D01*
X162548840Y-58340212D01*
X162517922Y-58377885D01*
X162504972Y-58402114D01*
X162464344Y-58478124D01*
X162431349Y-58586889D01*
X162420210Y-58700000D01*
X162423001Y-58728341D01*
X162423000Y-64200999D01*
X160514845Y-66109154D01*
X160557075Y-65969939D01*
X160583662Y-65700000D01*
X160557075Y-65430061D01*
X160478337Y-65170495D01*
X160350473Y-64931279D01*
X160178397Y-64721603D01*
X159968721Y-64549527D01*
X159745102Y-64430000D01*
X159968721Y-64310473D01*
X160178397Y-64138397D01*
X160350473Y-63928721D01*
X160478337Y-63689505D01*
X160557075Y-63429939D01*
X160583662Y-63160000D01*
X160557075Y-62890061D01*
X160478337Y-62630495D01*
X160350473Y-62391279D01*
X160178397Y-62181603D01*
X159968721Y-62009527D01*
X159745102Y-61890000D01*
X159968721Y-61770473D01*
X160178397Y-61598397D01*
X160350473Y-61388721D01*
X160478337Y-61149505D01*
X160557075Y-60889939D01*
X160583662Y-60620000D01*
X160557075Y-60350061D01*
X160478337Y-60090495D01*
X160350473Y-59851279D01*
X160178397Y-59641603D01*
X159968721Y-59469527D01*
X159745102Y-59350000D01*
X159968721Y-59230473D01*
X160178397Y-59058397D01*
X160350473Y-58848721D01*
X160478337Y-58609505D01*
X160557075Y-58349939D01*
X160583662Y-58080000D01*
X160557075Y-57810061D01*
X160493970Y-57602031D01*
X163887962Y-54208039D01*
X163909974Y-54189974D01*
X163982079Y-54102115D01*
X164035657Y-54001876D01*
X164068650Y-53893112D01*
X164077000Y-53808336D01*
X164077000Y-53808330D01*
X164079790Y-53780001D01*
X164077000Y-53751672D01*
X164077000Y-50729354D01*
X164090928Y-50720048D01*
X164220048Y-50590928D01*
X164253479Y-50540894D01*
X164270743Y-50535657D01*
X164370982Y-50482079D01*
X164458841Y-50409974D01*
X164476906Y-50387962D01*
X166897699Y-47967170D01*
X166914128Y-47970438D01*
X167096730Y-47970438D01*
X167275825Y-47934814D01*
X167444528Y-47864934D01*
X167596357Y-47763486D01*
X167725477Y-47634366D01*
X167826925Y-47482537D01*
X167896805Y-47313834D01*
X167932429Y-47134739D01*
X167932429Y-46952137D01*
X167896805Y-46773042D01*
X167826925Y-46604339D01*
X167725477Y-46452510D01*
X167596357Y-46323390D01*
X167444528Y-46221942D01*
X167275825Y-46152062D01*
X167096730Y-46116438D01*
X166914128Y-46116438D01*
X166735033Y-46152062D01*
X166566330Y-46221942D01*
X166414501Y-46323390D01*
X166285381Y-46452510D01*
X166183933Y-46604339D01*
X166114053Y-46773042D01*
X166078429Y-46952137D01*
X166078429Y-47134739D01*
X166081697Y-47151168D01*
X164008194Y-49224672D01*
X163939099Y-49178504D01*
X163770396Y-49108624D01*
X163591301Y-49073000D01*
X163408699Y-49073000D01*
X163229604Y-49108624D01*
X163060901Y-49178504D01*
X162909072Y-49279952D01*
X162779952Y-49409072D01*
X162678504Y-49560901D01*
X162608624Y-49729604D01*
X162573000Y-49908699D01*
X162573000Y-50091301D01*
X162608624Y-50270396D01*
X162678504Y-50439099D01*
X162779952Y-50590928D01*
X162909072Y-50720048D01*
X162923000Y-50729354D01*
X162923001Y-53540998D01*
X160615787Y-55848212D01*
X160520155Y-55667000D01*
X159327000Y-55667000D01*
X159327000Y-55687000D01*
X159073000Y-55687000D01*
X159073000Y-55667000D01*
X157879845Y-55667000D01*
X157758524Y-55896890D01*
X157803175Y-56044099D01*
X157928359Y-56306920D01*
X158102412Y-56540269D01*
X158318645Y-56735178D01*
X158543877Y-56869342D01*
X158431279Y-56929527D01*
X158221603Y-57101603D01*
X158049527Y-57311279D01*
X157921663Y-57550495D01*
X157842925Y-57810061D01*
X157816338Y-58080000D01*
X157842925Y-58349939D01*
X157921663Y-58609505D01*
X158049527Y-58848721D01*
X158221603Y-59058397D01*
X158431279Y-59230473D01*
X158654898Y-59350000D01*
X158431279Y-59469527D01*
X158221603Y-59641603D01*
X158049527Y-59851279D01*
X157921663Y-60090495D01*
X157842925Y-60350061D01*
X157816338Y-60620000D01*
X157842925Y-60889939D01*
X157921663Y-61149505D01*
X158049527Y-61388721D01*
X158221603Y-61598397D01*
X158431279Y-61770473D01*
X158654898Y-61890000D01*
X158431279Y-62009527D01*
X158221603Y-62181603D01*
X158049527Y-62391279D01*
X157921663Y-62630495D01*
X157842925Y-62890061D01*
X157816338Y-63160000D01*
X157842925Y-63429939D01*
X157921663Y-63689505D01*
X158049527Y-63928721D01*
X158221603Y-64138397D01*
X158431279Y-64310473D01*
X158654898Y-64430000D01*
X158431279Y-64549527D01*
X158221603Y-64721603D01*
X158049527Y-64931279D01*
X157921663Y-65170495D01*
X157842925Y-65430061D01*
X157816338Y-65700000D01*
X157842925Y-65969939D01*
X157921663Y-66229505D01*
X158049527Y-66468721D01*
X158221603Y-66678397D01*
X158431279Y-66850473D01*
X158654898Y-66970000D01*
X158431279Y-67089527D01*
X158221603Y-67261603D01*
X158049527Y-67471279D01*
X157921663Y-67710495D01*
X157842925Y-67970061D01*
X157816338Y-68240000D01*
X157842925Y-68509939D01*
X157921663Y-68769505D01*
X158049527Y-69008721D01*
X158221603Y-69218397D01*
X158431279Y-69390473D01*
X158654898Y-69510000D01*
X158431279Y-69629527D01*
X158221603Y-69801603D01*
X158049527Y-70011279D01*
X157921663Y-70250495D01*
X157842925Y-70510061D01*
X157816338Y-70780000D01*
X157842925Y-71049939D01*
X157921663Y-71309505D01*
X158049527Y-71548721D01*
X158221603Y-71758397D01*
X158431279Y-71930473D01*
X158654898Y-72050000D01*
X158431279Y-72169527D01*
X158221603Y-72341603D01*
X158049527Y-72551279D01*
X157921663Y-72790495D01*
X157842925Y-73050061D01*
X157816338Y-73320000D01*
X157842925Y-73589939D01*
X157921663Y-73849505D01*
X158049527Y-74088721D01*
X158221603Y-74298397D01*
X158431279Y-74470473D01*
X158654898Y-74590000D01*
X158431279Y-74709527D01*
X158221603Y-74881603D01*
X158049527Y-75091279D01*
X157921663Y-75330495D01*
X157842925Y-75590061D01*
X157816338Y-75860000D01*
X157842925Y-76129939D01*
X157921663Y-76389505D01*
X158049527Y-76628721D01*
X158221603Y-76838397D01*
X158431279Y-77010473D01*
X158654898Y-77130000D01*
X158431279Y-77249527D01*
X158221603Y-77421603D01*
X158049527Y-77631279D01*
X157921663Y-77870495D01*
X157842925Y-78130061D01*
X157816338Y-78400000D01*
X157842925Y-78669939D01*
X157921663Y-78929505D01*
X158049527Y-79168721D01*
X158221603Y-79378397D01*
X158431279Y-79550473D01*
X158654898Y-79670000D01*
X158431279Y-79789527D01*
X158221603Y-79961603D01*
X158049527Y-80171279D01*
X157921663Y-80410495D01*
X157842925Y-80670061D01*
X157816338Y-80940000D01*
X157842925Y-81209939D01*
X157921663Y-81469505D01*
X158049527Y-81708721D01*
X158221603Y-81918397D01*
X158431279Y-82090473D01*
X158654898Y-82210000D01*
X158431279Y-82329527D01*
X158221603Y-82501603D01*
X158049527Y-82711279D01*
X157921663Y-82950495D01*
X157842925Y-83210061D01*
X157816338Y-83480000D01*
X157842925Y-83749939D01*
X157921663Y-84009505D01*
X158049527Y-84248721D01*
X158221603Y-84458397D01*
X158431279Y-84630473D01*
X158654898Y-84750000D01*
X158431279Y-84869527D01*
X158221603Y-85041603D01*
X158049527Y-85251279D01*
X157921663Y-85490495D01*
X157842925Y-85750061D01*
X157816338Y-86020000D01*
X157842925Y-86289939D01*
X157921663Y-86549505D01*
X158049527Y-86788721D01*
X158221603Y-86998397D01*
X158431279Y-87170473D01*
X158670495Y-87298337D01*
X158916627Y-87373000D01*
X144283373Y-87373000D01*
X144529505Y-87298337D01*
X144768721Y-87170473D01*
X144978397Y-86998397D01*
X145150473Y-86788721D01*
X145278337Y-86549505D01*
X145357075Y-86289939D01*
X145383662Y-86020000D01*
X145357075Y-85750061D01*
X145278337Y-85490495D01*
X145150473Y-85251279D01*
X144978397Y-85041603D01*
X144768721Y-84869527D01*
X144545102Y-84750000D01*
X144768721Y-84630473D01*
X144978397Y-84458397D01*
X145150473Y-84248721D01*
X145278337Y-84009505D01*
X145357075Y-83749939D01*
X145383662Y-83480000D01*
X145357075Y-83210061D01*
X145278337Y-82950495D01*
X145150473Y-82711279D01*
X144978397Y-82501603D01*
X144768721Y-82329527D01*
X144545102Y-82210000D01*
X144768721Y-82090473D01*
X144978397Y-81918397D01*
X145150473Y-81708721D01*
X145278337Y-81469505D01*
X145357075Y-81209939D01*
X145383662Y-80940000D01*
X145357075Y-80670061D01*
X145278337Y-80410495D01*
X145150473Y-80171279D01*
X144978397Y-79961603D01*
X144768721Y-79789527D01*
X144545102Y-79670000D01*
X144768721Y-79550473D01*
X144978397Y-79378397D01*
X145150473Y-79168721D01*
X145278337Y-78929505D01*
X145357075Y-78669939D01*
X145383662Y-78400000D01*
X145357075Y-78130061D01*
X145278337Y-77870495D01*
X145150473Y-77631279D01*
X144978397Y-77421603D01*
X144768721Y-77249527D01*
X144545102Y-77130000D01*
X144768721Y-77010473D01*
X144978397Y-76838397D01*
X145150473Y-76628721D01*
X145278337Y-76389505D01*
X145357075Y-76129939D01*
X145383662Y-75860000D01*
X145357075Y-75590061D01*
X145278337Y-75330495D01*
X145150473Y-75091279D01*
X144978397Y-74881603D01*
X144768721Y-74709527D01*
X144545102Y-74590000D01*
X144768721Y-74470473D01*
X144978397Y-74298397D01*
X145150473Y-74088721D01*
X145278337Y-73849505D01*
X145357075Y-73589939D01*
X145383662Y-73320000D01*
X145357075Y-73050061D01*
X145278337Y-72790495D01*
X145150473Y-72551279D01*
X144978397Y-72341603D01*
X144768721Y-72169527D01*
X144545102Y-72050000D01*
X144768721Y-71930473D01*
X144978397Y-71758397D01*
X145150473Y-71548721D01*
X145278337Y-71309505D01*
X145357075Y-71049939D01*
X145383662Y-70780000D01*
X145357075Y-70510061D01*
X145278337Y-70250495D01*
X145150473Y-70011279D01*
X144978397Y-69801603D01*
X144768721Y-69629527D01*
X144545102Y-69510000D01*
X144768721Y-69390473D01*
X144978397Y-69218397D01*
X145150473Y-69008721D01*
X145278337Y-68769505D01*
X145357075Y-68509939D01*
X145383662Y-68240000D01*
X145357075Y-67970061D01*
X145293970Y-67762031D01*
X145437964Y-67618037D01*
X145459975Y-67599973D01*
X145532080Y-67512114D01*
X145585658Y-67411875D01*
X145604068Y-67351185D01*
X145618652Y-67303111D01*
X145629792Y-67189999D01*
X145627001Y-67161660D01*
X145627001Y-65242566D01*
X146241529Y-64628038D01*
X146263540Y-64609974D01*
X146335645Y-64522115D01*
X146388209Y-64423774D01*
X146389223Y-64421877D01*
X146422217Y-64313112D01*
X146433357Y-64200000D01*
X146430566Y-64171661D01*
X146430566Y-55183110D01*
X157758524Y-55183110D01*
X157879845Y-55413000D01*
X159073000Y-55413000D01*
X159073000Y-55393000D01*
X159327000Y-55393000D01*
X159327000Y-55413000D01*
X160520155Y-55413000D01*
X160641476Y-55183110D01*
X160596825Y-55035901D01*
X160471641Y-54773080D01*
X160297588Y-54539731D01*
X160112998Y-54373344D01*
X160153310Y-54369374D01*
X160252650Y-54339239D01*
X160344202Y-54290304D01*
X160424448Y-54224448D01*
X160490304Y-54144202D01*
X160539239Y-54052650D01*
X160569374Y-53953310D01*
X160579549Y-53850000D01*
X160579549Y-52150000D01*
X160569374Y-52046690D01*
X160539239Y-51947350D01*
X160490304Y-51855798D01*
X160424448Y-51775552D01*
X160344202Y-51709696D01*
X160252650Y-51660761D01*
X160153310Y-51630626D01*
X160050000Y-51620451D01*
X158350000Y-51620451D01*
X158246690Y-51630626D01*
X158147350Y-51660761D01*
X158055798Y-51709696D01*
X157975552Y-51775552D01*
X157909696Y-51855798D01*
X157860761Y-51947350D01*
X157830626Y-52046690D01*
X157820451Y-52150000D01*
X157820451Y-53850000D01*
X157830626Y-53953310D01*
X157860761Y-54052650D01*
X157909696Y-54144202D01*
X157975552Y-54224448D01*
X158055798Y-54290304D01*
X158147350Y-54339239D01*
X158246690Y-54369374D01*
X158287002Y-54373344D01*
X158102412Y-54539731D01*
X157928359Y-54773080D01*
X157803175Y-55035901D01*
X157758524Y-55183110D01*
X146430566Y-55183110D01*
X146430566Y-50385435D01*
X150988992Y-45827010D01*
X181873000Y-45827010D01*
X181873000Y-69488885D01*
G36*
X172323002Y-69515343D02*
G01*
X172239455Y-69549950D01*
X172218146Y-69564188D01*
X172191376Y-69429604D01*
X172127000Y-69274189D01*
X172127000Y-67750000D01*
X172123355Y-67719791D01*
X170577000Y-61405508D01*
X170577000Y-53779003D01*
X172323001Y-52033003D01*
X172323002Y-69515343D01*
X172323002Y-69515343D01*
G37*
X172323002Y-69515343D02*
X172239455Y-69549950D01*
X172218146Y-69564188D01*
X172191376Y-69429604D01*
X172127000Y-69274189D01*
X172127000Y-67750000D01*
X172123355Y-67719791D01*
X170577000Y-61405508D01*
X170577000Y-53779003D01*
X172323001Y-52033003D01*
X172323002Y-69515343D01*
M02*
