G04 #@! TF.GenerationSoftware,KiCad,Pcbnew,5.1.3-ffb9f22~84~ubuntu18.04.1*
G04 #@! TF.CreationDate,2019-08-04T04:56:57-07:00*
G04 #@! TF.ProjectId,board,626f6172-642e-46b6-9963-61645f706362,rev?*
G04 #@! TF.SameCoordinates,Original*
G04 #@! TF.FileFunction,Legend,Bot*
G04 #@! TF.FilePolarity,Positive*
%FSLAX46Y46*%
G04 Gerber Fmt 4.6, Leading zero omitted, Abs format (unit mm)*
G04 Created by KiCad (PCBNEW 5.1.3-ffb9f22~84~ubuntu18.04.1) date 2019-08-04 04:56:57*
%MOMM*%
%LPD*%
G04 APERTURE LIST*
%ADD10C,0.250000*%
%ADD11C,0.200000*%
G04 APERTURE END LIST*
D10*
X196652380Y-52526190D02*
X195652380Y-52526190D01*
X196128571Y-52526190D02*
X196128571Y-53097619D01*
X196652380Y-53097619D02*
X195652380Y-53097619D01*
X196366666Y-53526190D02*
X196366666Y-54002380D01*
X196652380Y-53430952D02*
X195652380Y-53764285D01*
X196652380Y-54097619D01*
X196652380Y-54907142D02*
X196652380Y-54430952D01*
X195652380Y-54430952D01*
X196652380Y-55716666D02*
X196652380Y-55240476D01*
X195652380Y-55240476D01*
X141754761Y-80226190D02*
X141802380Y-80369047D01*
X141802380Y-80607142D01*
X141754761Y-80702380D01*
X141707142Y-80750000D01*
X141611904Y-80797619D01*
X141516666Y-80797619D01*
X141421428Y-80750000D01*
X141373809Y-80702380D01*
X141326190Y-80607142D01*
X141278571Y-80416666D01*
X141230952Y-80321428D01*
X141183333Y-80273809D01*
X141088095Y-80226190D01*
X140992857Y-80226190D01*
X140897619Y-80273809D01*
X140850000Y-80321428D01*
X140802380Y-80416666D01*
X140802380Y-80654761D01*
X140850000Y-80797619D01*
X141802380Y-81226190D02*
X140802380Y-81226190D01*
X140802380Y-81607142D01*
X140850000Y-81702380D01*
X140897619Y-81750000D01*
X140992857Y-81797619D01*
X141135714Y-81797619D01*
X141230952Y-81750000D01*
X141278571Y-81702380D01*
X141326190Y-81607142D01*
X141326190Y-81226190D01*
X141802380Y-82226190D02*
X140802380Y-82226190D01*
X141228571Y-66485714D02*
X141228571Y-66819047D01*
X141752380Y-66961904D02*
X141752380Y-66485714D01*
X140752380Y-66485714D01*
X140752380Y-66961904D01*
X141752380Y-67390476D02*
X140752380Y-67390476D01*
X141752380Y-67961904D01*
X140752380Y-67961904D01*
X141657142Y-69009523D02*
X141704761Y-68961904D01*
X141752380Y-68819047D01*
X141752380Y-68723809D01*
X141704761Y-68580952D01*
X141609523Y-68485714D01*
X141514285Y-68438095D01*
X141323809Y-68390476D01*
X141180952Y-68390476D01*
X140990476Y-68438095D01*
X140895238Y-68485714D01*
X140800000Y-68580952D01*
X140752380Y-68723809D01*
X140752380Y-68819047D01*
X140800000Y-68961904D01*
X140847619Y-69009523D01*
X140752380Y-69628571D02*
X140752380Y-69819047D01*
X140800000Y-69914285D01*
X140895238Y-70009523D01*
X141085714Y-70057142D01*
X141419047Y-70057142D01*
X141609523Y-70009523D01*
X141704761Y-69914285D01*
X141752380Y-69819047D01*
X141752380Y-69628571D01*
X141704761Y-69533333D01*
X141609523Y-69438095D01*
X141419047Y-69390476D01*
X141085714Y-69390476D01*
X140895238Y-69438095D01*
X140800000Y-69533333D01*
X140752380Y-69628571D01*
X141752380Y-70485714D02*
X140752380Y-70485714D01*
X140752380Y-70723809D01*
X140800000Y-70866666D01*
X140895238Y-70961904D01*
X140990476Y-71009523D01*
X141180952Y-71057142D01*
X141323809Y-71057142D01*
X141514285Y-71009523D01*
X141609523Y-70961904D01*
X141704761Y-70866666D01*
X141752380Y-70723809D01*
X141752380Y-70485714D01*
X141228571Y-71485714D02*
X141228571Y-71819047D01*
X141752380Y-71961904D02*
X141752380Y-71485714D01*
X140752380Y-71485714D01*
X140752380Y-71961904D01*
X141752380Y-72961904D02*
X141276190Y-72628571D01*
X141752380Y-72390476D02*
X140752380Y-72390476D01*
X140752380Y-72771428D01*
X140800000Y-72866666D01*
X140847619Y-72914285D01*
X140942857Y-72961904D01*
X141085714Y-72961904D01*
X141180952Y-72914285D01*
X141228571Y-72866666D01*
X141276190Y-72771428D01*
X141276190Y-72390476D01*
X202669047Y-63052380D02*
X202669047Y-62052380D01*
X202288095Y-62052380D01*
X202192857Y-62100000D01*
X202145238Y-62147619D01*
X202097619Y-62242857D01*
X202097619Y-62385714D01*
X202145238Y-62480952D01*
X202192857Y-62528571D01*
X202288095Y-62576190D01*
X202669047Y-62576190D01*
X201669047Y-63052380D02*
X201669047Y-62052380D01*
X201669047Y-62528571D02*
X201097619Y-62528571D01*
X201097619Y-63052380D02*
X201097619Y-62052380D01*
X200669047Y-62766666D02*
X200192857Y-62766666D01*
X200764285Y-63052380D02*
X200430952Y-62052380D01*
X200097619Y-63052380D01*
X199811904Y-63004761D02*
X199669047Y-63052380D01*
X199430952Y-63052380D01*
X199335714Y-63004761D01*
X199288095Y-62957142D01*
X199240476Y-62861904D01*
X199240476Y-62766666D01*
X199288095Y-62671428D01*
X199335714Y-62623809D01*
X199430952Y-62576190D01*
X199621428Y-62528571D01*
X199716666Y-62480952D01*
X199764285Y-62433333D01*
X199811904Y-62338095D01*
X199811904Y-62242857D01*
X199764285Y-62147619D01*
X199716666Y-62100000D01*
X199621428Y-62052380D01*
X199383333Y-62052380D01*
X199240476Y-62100000D01*
X198811904Y-62528571D02*
X198478571Y-62528571D01*
X198335714Y-63052380D02*
X198811904Y-63052380D01*
X198811904Y-62052380D01*
X198335714Y-62052380D01*
X198002380Y-62052380D02*
X197383333Y-62052380D01*
X197716666Y-62433333D01*
X197573809Y-62433333D01*
X197478571Y-62480952D01*
X197430952Y-62528571D01*
X197383333Y-62623809D01*
X197383333Y-62861904D01*
X197430952Y-62957142D01*
X197478571Y-63004761D01*
X197573809Y-63052380D01*
X197859523Y-63052380D01*
X197954761Y-63004761D01*
X198002380Y-62957142D01*
X202719047Y-67052380D02*
X202719047Y-66052380D01*
X202338095Y-66052380D01*
X202242857Y-66100000D01*
X202195238Y-66147619D01*
X202147619Y-66242857D01*
X202147619Y-66385714D01*
X202195238Y-66480952D01*
X202242857Y-66528571D01*
X202338095Y-66576190D01*
X202719047Y-66576190D01*
X201719047Y-67052380D02*
X201719047Y-66052380D01*
X201719047Y-66528571D02*
X201147619Y-66528571D01*
X201147619Y-67052380D02*
X201147619Y-66052380D01*
X200719047Y-66766666D02*
X200242857Y-66766666D01*
X200814285Y-67052380D02*
X200480952Y-66052380D01*
X200147619Y-67052380D01*
X199861904Y-67004761D02*
X199719047Y-67052380D01*
X199480952Y-67052380D01*
X199385714Y-67004761D01*
X199338095Y-66957142D01*
X199290476Y-66861904D01*
X199290476Y-66766666D01*
X199338095Y-66671428D01*
X199385714Y-66623809D01*
X199480952Y-66576190D01*
X199671428Y-66528571D01*
X199766666Y-66480952D01*
X199814285Y-66433333D01*
X199861904Y-66338095D01*
X199861904Y-66242857D01*
X199814285Y-66147619D01*
X199766666Y-66100000D01*
X199671428Y-66052380D01*
X199433333Y-66052380D01*
X199290476Y-66100000D01*
X198861904Y-66528571D02*
X198528571Y-66528571D01*
X198385714Y-67052380D02*
X198861904Y-67052380D01*
X198861904Y-66052380D01*
X198385714Y-66052380D01*
X198004761Y-66147619D02*
X197957142Y-66100000D01*
X197861904Y-66052380D01*
X197623809Y-66052380D01*
X197528571Y-66100000D01*
X197480952Y-66147619D01*
X197433333Y-66242857D01*
X197433333Y-66338095D01*
X197480952Y-66480952D01*
X198052380Y-67052380D01*
X197433333Y-67052380D01*
X202719047Y-71002380D02*
X202719047Y-70002380D01*
X202338095Y-70002380D01*
X202242857Y-70050000D01*
X202195238Y-70097619D01*
X202147619Y-70192857D01*
X202147619Y-70335714D01*
X202195238Y-70430952D01*
X202242857Y-70478571D01*
X202338095Y-70526190D01*
X202719047Y-70526190D01*
X201719047Y-71002380D02*
X201719047Y-70002380D01*
X201719047Y-70478571D02*
X201147619Y-70478571D01*
X201147619Y-71002380D02*
X201147619Y-70002380D01*
X200719047Y-70716666D02*
X200242857Y-70716666D01*
X200814285Y-71002380D02*
X200480952Y-70002380D01*
X200147619Y-71002380D01*
X199861904Y-70954761D02*
X199719047Y-71002380D01*
X199480952Y-71002380D01*
X199385714Y-70954761D01*
X199338095Y-70907142D01*
X199290476Y-70811904D01*
X199290476Y-70716666D01*
X199338095Y-70621428D01*
X199385714Y-70573809D01*
X199480952Y-70526190D01*
X199671428Y-70478571D01*
X199766666Y-70430952D01*
X199814285Y-70383333D01*
X199861904Y-70288095D01*
X199861904Y-70192857D01*
X199814285Y-70097619D01*
X199766666Y-70050000D01*
X199671428Y-70002380D01*
X199433333Y-70002380D01*
X199290476Y-70050000D01*
X198861904Y-70478571D02*
X198528571Y-70478571D01*
X198385714Y-71002380D02*
X198861904Y-71002380D01*
X198861904Y-70002380D01*
X198385714Y-70002380D01*
X197433333Y-71002380D02*
X198004761Y-71002380D01*
X197719047Y-71002380D02*
X197719047Y-70002380D01*
X197814285Y-70145238D01*
X197909523Y-70240476D01*
X198004761Y-70288095D01*
D11*
X164750000Y-85142857D02*
X164821428Y-85285714D01*
X164821428Y-85500000D01*
X164750000Y-85714285D01*
X164607142Y-85857142D01*
X164464285Y-85928571D01*
X164178571Y-86000000D01*
X163964285Y-86000000D01*
X163678571Y-85928571D01*
X163535714Y-85857142D01*
X163392857Y-85714285D01*
X163321428Y-85500000D01*
X163321428Y-85357142D01*
X163392857Y-85142857D01*
X163464285Y-85071428D01*
X163964285Y-85071428D01*
X163964285Y-85357142D01*
X163321428Y-84428571D02*
X164821428Y-84428571D01*
X163321428Y-83571428D01*
X164821428Y-83571428D01*
X163321428Y-82857142D02*
X164821428Y-82857142D01*
X164821428Y-82500000D01*
X164750000Y-82285714D01*
X164607142Y-82142857D01*
X164464285Y-82071428D01*
X164178571Y-82000000D01*
X163964285Y-82000000D01*
X163678571Y-82071428D01*
X163535714Y-82142857D01*
X163392857Y-82285714D01*
X163321428Y-82500000D01*
X163321428Y-82857142D01*
X168821428Y-85857142D02*
X168821428Y-84928571D01*
X168250000Y-85428571D01*
X168250000Y-85214285D01*
X168178571Y-85071428D01*
X168107142Y-85000000D01*
X167964285Y-84928571D01*
X167607142Y-84928571D01*
X167464285Y-85000000D01*
X167392857Y-85071428D01*
X167321428Y-85214285D01*
X167321428Y-85642857D01*
X167392857Y-85785714D01*
X167464285Y-85857142D01*
X168821428Y-83642857D02*
X168821428Y-83928571D01*
X168750000Y-84071428D01*
X168678571Y-84142857D01*
X168464285Y-84285714D01*
X168178571Y-84357142D01*
X167607142Y-84357142D01*
X167464285Y-84285714D01*
X167392857Y-84214285D01*
X167321428Y-84071428D01*
X167321428Y-83785714D01*
X167392857Y-83642857D01*
X167464285Y-83571428D01*
X167607142Y-83500000D01*
X167964285Y-83500000D01*
X168107142Y-83571428D01*
X168178571Y-83642857D01*
X168250000Y-83785714D01*
X168250000Y-84071428D01*
X168178571Y-84214285D01*
X168107142Y-84285714D01*
X167964285Y-84357142D01*
X168821428Y-83071428D02*
X167321428Y-82571428D01*
X168821428Y-82071428D01*
M02*
