M48
; DRILL file {KiCad 5.1.3-ffb9f22~84~ubuntu18.04.1} date Sun 04 Aug 2019 04:57:00 AM PDT
; FORMAT={-:-/ absolute / inch / decimal}
; #@! TF.CreationDate,2019-08-04T04:57:00-07:00
; #@! TF.GenerationSoftware,Kicad,Pcbnew,5.1.3-ffb9f22~84~ubuntu18.04.1
; #@! TF.FileFunction,Plated,1,2,PTH
FMAT,2
INCH
T1C0.0157
T2C0.0315
T3C0.0394
T4C0.0984
%
G90
G05
T1
X6.4055Y-1.9409
X6.437Y-1.9685
X6.4449Y-2.2126
X6.4961Y-1.8189
X6.5354Y-1.8189
X6.5709Y-1.8189
X6.575Y-1.8521
X6.6063Y-1.8189
X6.6417Y-1.8189
X6.7126Y-3.3858
X6.7323Y-2.2362
X6.7323Y-3.3465
X6.7323Y-3.4252
X6.7402Y-1.9528
X6.7402Y-1.9882
X6.7402Y-2.815
X6.7402Y-2.8543
X6.7402Y-3.0315
X6.7402Y-3.0669
X6.7402Y-3.1024
X6.7402Y-3.1457
X6.7441Y-1.9173
X6.7441Y-2.7441
X6.7441Y-2.7776
X6.7496Y-2.0221
X6.752Y-2.2677
X6.752Y-3.3071
X6.752Y-3.3858
X6.7677Y-2.2362
X6.7717Y-3.3465
X6.7717Y-3.4252
X6.7795Y-2.5984
X6.7874Y-2.2677
X6.7913Y-3.3071
X6.7913Y-3.3858
X6.7984Y-2.7705
X6.811Y-3.3465
X6.811Y-3.4252
X6.8228Y-2.9488
X6.8307Y-2.5906
X6.8307Y-3.3071
X6.8307Y-3.3858
X6.8504Y-1.8307
X6.8504Y-3.3465
X6.8504Y-3.4252
X6.8701Y-1.8701
X6.8701Y-3.3071
X6.8858Y-2.4882
X6.8898Y-1.8307
X6.9094Y-1.8701
X6.9104Y-2.7441
X6.9173Y-2.939
X6.9173Y-2.9705
X6.9173Y-3.002
X6.9173Y-3.0335
X6.9173Y-3.0689
X6.9173Y-3.1043
X6.9291Y-1.8307
X6.9331Y-3.4331
X6.9764Y-2.1496
X6.9803Y-2.4213
X6.9803Y-3.252
X6.9961Y-2.3898
X7.0157Y-2.1496
X7.0157Y-2.4213
X7.0197Y-2.753
X7.0512Y-2.1496
X7.0748Y-2.6252
X7.1142Y-2.6256
X7.115Y-2.661
X7.1378Y-2.8898
X7.1445Y-2.6433
X7.1969Y-3.1902
X7.2047Y-2.3228
X7.2169Y-3.1602
X7.2339Y-3.1909
X7.2441Y-2.3228
X7.2441Y-2.5984
X7.252Y-3.1606
X7.265Y-2.6287
X7.2693Y-3.1917
X7.2835Y-2.3228
X7.2835Y-2.5984
X7.2874Y-3.1606
X7.3047Y-2.6295
X7.3063Y-3.1925
X7.3228Y-2.3228
X7.3228Y-2.5984
X7.3228Y-3.1618
X7.3701Y-3.189
T2
X5.3543Y-3.0709
X5.3543Y-3.1709
X5.3543Y-3.2709
X5.4543Y-3.1209
X5.4543Y-3.2209
X5.4543Y-3.3209
X5.3543Y-2.5984
X5.3543Y-2.6984
X5.3543Y-2.7984
X5.4543Y-2.6484
X5.4543Y-2.7484
X5.4543Y-2.8484
X7.8307Y-2.0079
X7.8307Y-2.1079
X7.8307Y-2.2079
X7.9307Y-2.0579
X7.9307Y-2.1579
X7.9307Y-2.2579
T3
X6.2677Y-2.0866
X6.2677Y-2.1866
X6.2677Y-2.2866
X6.2677Y-2.3866
X6.2677Y-2.4866
X6.2677Y-2.5866
X6.2677Y-2.6866
X6.2677Y-2.7866
X6.2677Y-2.8866
X6.2677Y-2.9866
X6.2677Y-3.0866
X6.2677Y-3.1866
X6.2677Y-3.2866
X6.2677Y-3.3866
X5.6693Y-2.0866
X5.6693Y-2.1866
X5.6693Y-2.2866
X5.6693Y-2.3866
X5.6693Y-2.4866
X5.6693Y-2.5866
X5.6693Y-2.6866
X5.6693Y-2.7866
X5.6693Y-2.8866
X5.6693Y-2.9866
X5.6693Y-3.0866
X5.6693Y-3.1866
X5.6693Y-3.2866
X5.6693Y-3.3866
T4
X5.3461Y-1.8614
T0
M30
