G04 #@! TF.GenerationSoftware,KiCad,Pcbnew,5.1.3-ffb9f22~84~ubuntu18.04.1*
G04 #@! TF.CreationDate,2019-08-04T04:56:57-07:00*
G04 #@! TF.ProjectId,board,626f6172-642e-46b6-9963-61645f706362,rev?*
G04 #@! TF.SameCoordinates,Original*
G04 #@! TF.FileFunction,Legend,Top*
G04 #@! TF.FilePolarity,Positive*
%FSLAX46Y46*%
G04 Gerber Fmt 4.6, Leading zero omitted, Abs format (unit mm)*
G04 Created by KiCad (PCBNEW 5.1.3-ffb9f22~84~ubuntu18.04.1) date 2019-08-04 04:56:57*
%MOMM*%
%LPD*%
G04 APERTURE LIST*
%ADD10C,0.250000*%
%ADD11C,0.150000*%
%ADD12C,0.010000*%
%ADD13C,0.120000*%
%ADD14C,0.125000*%
G04 APERTURE END LIST*
D10*
X151102380Y-75109523D02*
X151102380Y-74538095D01*
X152102380Y-74823809D02*
X151102380Y-74823809D01*
X152102380Y-74204761D02*
X151435714Y-74204761D01*
X151102380Y-74204761D02*
X151150000Y-74252380D01*
X151197619Y-74204761D01*
X151150000Y-74157142D01*
X151102380Y-74204761D01*
X151197619Y-74204761D01*
X151435714Y-73728571D02*
X152102380Y-73728571D01*
X151530952Y-73728571D02*
X151483333Y-73680952D01*
X151435714Y-73585714D01*
X151435714Y-73442857D01*
X151483333Y-73347619D01*
X151578571Y-73300000D01*
X152102380Y-73300000D01*
X151435714Y-72919047D02*
X152102380Y-72680952D01*
X151435714Y-72442857D02*
X152102380Y-72680952D01*
X152340476Y-72776190D01*
X152388095Y-72823809D01*
X152435714Y-72919047D01*
X151578571Y-71728571D02*
X151578571Y-72061904D01*
X152102380Y-72061904D02*
X151102380Y-72061904D01*
X151102380Y-71585714D01*
X152102380Y-71204761D02*
X151102380Y-71204761D01*
X151102380Y-70823809D01*
X151150000Y-70728571D01*
X151197619Y-70680952D01*
X151292857Y-70633333D01*
X151435714Y-70633333D01*
X151530952Y-70680952D01*
X151578571Y-70728571D01*
X151626190Y-70823809D01*
X151626190Y-71204761D01*
X151150000Y-69680952D02*
X151102380Y-69776190D01*
X151102380Y-69919047D01*
X151150000Y-70061904D01*
X151245238Y-70157142D01*
X151340476Y-70204761D01*
X151530952Y-70252380D01*
X151673809Y-70252380D01*
X151864285Y-70204761D01*
X151959523Y-70157142D01*
X152054761Y-70061904D01*
X152102380Y-69919047D01*
X152102380Y-69823809D01*
X152054761Y-69680952D01*
X152007142Y-69633333D01*
X151673809Y-69633333D01*
X151673809Y-69823809D01*
X151816666Y-69252380D02*
X151816666Y-68776190D01*
X152102380Y-69347619D02*
X151102380Y-69014285D01*
X152102380Y-68680952D01*
X151721428Y-68347619D02*
X151721428Y-67585714D01*
X151578571Y-66776190D02*
X151626190Y-66633333D01*
X151673809Y-66585714D01*
X151769047Y-66538095D01*
X151911904Y-66538095D01*
X152007142Y-66585714D01*
X152054761Y-66633333D01*
X152102380Y-66728571D01*
X152102380Y-67109523D01*
X151102380Y-67109523D01*
X151102380Y-66776190D01*
X151150000Y-66680952D01*
X151197619Y-66633333D01*
X151292857Y-66585714D01*
X151388095Y-66585714D01*
X151483333Y-66633333D01*
X151530952Y-66680952D01*
X151578571Y-66776190D01*
X151578571Y-67109523D01*
X151102380Y-66204761D02*
X152102380Y-65538095D01*
X151102380Y-65538095D02*
X152102380Y-66204761D01*
D11*
X142873809Y-48052380D02*
X142873809Y-47052380D01*
X142873809Y-47433333D02*
X142969047Y-47385714D01*
X143159523Y-47385714D01*
X143254761Y-47433333D01*
X143302380Y-47480952D01*
X143350000Y-47576190D01*
X143350000Y-47861904D01*
X143302380Y-47957142D01*
X143254761Y-48004761D01*
X143159523Y-48052380D01*
X142969047Y-48052380D01*
X142873809Y-48004761D01*
X143921428Y-48052380D02*
X143826190Y-48004761D01*
X143778571Y-47909523D01*
X143778571Y-47052380D01*
X144730952Y-48052380D02*
X144730952Y-47052380D01*
X144730952Y-48004761D02*
X144635714Y-48052380D01*
X144445238Y-48052380D01*
X144350000Y-48004761D01*
X144302380Y-47957142D01*
X144254761Y-47861904D01*
X144254761Y-47576190D01*
X144302380Y-47480952D01*
X144350000Y-47433333D01*
X144445238Y-47385714D01*
X144635714Y-47385714D01*
X144730952Y-47433333D01*
X145635714Y-48004761D02*
X145540476Y-48052380D01*
X145350000Y-48052380D01*
X145254761Y-48004761D01*
X145207142Y-47957142D01*
X145159523Y-47861904D01*
X145159523Y-47576190D01*
X145207142Y-47480952D01*
X145254761Y-47433333D01*
X145350000Y-47385714D01*
X145540476Y-47385714D01*
X145635714Y-47433333D01*
X145826190Y-48147619D02*
X146588095Y-48147619D01*
X146826190Y-48052380D02*
X146826190Y-47385714D01*
X146826190Y-47480952D02*
X146873809Y-47433333D01*
X146969047Y-47385714D01*
X147111904Y-47385714D01*
X147207142Y-47433333D01*
X147254761Y-47528571D01*
X147254761Y-48052380D01*
X147254761Y-47528571D02*
X147302380Y-47433333D01*
X147397619Y-47385714D01*
X147540476Y-47385714D01*
X147635714Y-47433333D01*
X147683333Y-47528571D01*
X147683333Y-48052380D01*
X148302380Y-48052380D02*
X148207142Y-48004761D01*
X148159523Y-47957142D01*
X148111904Y-47861904D01*
X148111904Y-47576190D01*
X148159523Y-47480952D01*
X148207142Y-47433333D01*
X148302380Y-47385714D01*
X148445238Y-47385714D01*
X148540476Y-47433333D01*
X148588095Y-47480952D01*
X148635714Y-47576190D01*
X148635714Y-47861904D01*
X148588095Y-47957142D01*
X148540476Y-48004761D01*
X148445238Y-48052380D01*
X148302380Y-48052380D01*
X148921428Y-47385714D02*
X149302380Y-47385714D01*
X149064285Y-47052380D02*
X149064285Y-47909523D01*
X149111904Y-48004761D01*
X149207142Y-48052380D01*
X149302380Y-48052380D01*
X149778571Y-48052380D02*
X149683333Y-48004761D01*
X149635714Y-47957142D01*
X149588095Y-47861904D01*
X149588095Y-47576190D01*
X149635714Y-47480952D01*
X149683333Y-47433333D01*
X149778571Y-47385714D01*
X149921428Y-47385714D01*
X150016666Y-47433333D01*
X150064285Y-47480952D01*
X150111904Y-47576190D01*
X150111904Y-47861904D01*
X150064285Y-47957142D01*
X150016666Y-48004761D01*
X149921428Y-48052380D01*
X149778571Y-48052380D01*
X150540476Y-48052380D02*
X150540476Y-47385714D01*
X150540476Y-47576190D02*
X150588095Y-47480952D01*
X150635714Y-47433333D01*
X150730952Y-47385714D01*
X150826190Y-47385714D01*
X151159523Y-48052380D02*
X151159523Y-47052380D01*
X151159523Y-47433333D02*
X151254761Y-47385714D01*
X151445238Y-47385714D01*
X151540476Y-47433333D01*
X151588095Y-47480952D01*
X151635714Y-47576190D01*
X151635714Y-47861904D01*
X151588095Y-47957142D01*
X151540476Y-48004761D01*
X151445238Y-48052380D01*
X151254761Y-48052380D01*
X151159523Y-48004761D01*
X152207142Y-48052380D02*
X152111904Y-48004761D01*
X152064285Y-47957142D01*
X152016666Y-47861904D01*
X152016666Y-47576190D01*
X152064285Y-47480952D01*
X152111904Y-47433333D01*
X152207142Y-47385714D01*
X152350000Y-47385714D01*
X152445238Y-47433333D01*
X152492857Y-47480952D01*
X152540476Y-47576190D01*
X152540476Y-47861904D01*
X152492857Y-47957142D01*
X152445238Y-48004761D01*
X152350000Y-48052380D01*
X152207142Y-48052380D01*
X153397619Y-48052380D02*
X153397619Y-47528571D01*
X153350000Y-47433333D01*
X153254761Y-47385714D01*
X153064285Y-47385714D01*
X152969047Y-47433333D01*
X153397619Y-48004761D02*
X153302380Y-48052380D01*
X153064285Y-48052380D01*
X152969047Y-48004761D01*
X152921428Y-47909523D01*
X152921428Y-47814285D01*
X152969047Y-47719047D01*
X153064285Y-47671428D01*
X153302380Y-47671428D01*
X153397619Y-47623809D01*
X153873809Y-48052380D02*
X153873809Y-47385714D01*
X153873809Y-47576190D02*
X153921428Y-47480952D01*
X153969047Y-47433333D01*
X154064285Y-47385714D01*
X154159523Y-47385714D01*
X154921428Y-48052380D02*
X154921428Y-47052380D01*
X154921428Y-48004761D02*
X154826190Y-48052380D01*
X154635714Y-48052380D01*
X154540476Y-48004761D01*
X154492857Y-47957142D01*
X154445238Y-47861904D01*
X154445238Y-47576190D01*
X154492857Y-47480952D01*
X154540476Y-47433333D01*
X154635714Y-47385714D01*
X154826190Y-47385714D01*
X154921428Y-47433333D01*
X155159523Y-48147619D02*
X155921428Y-48147619D01*
X156064285Y-47385714D02*
X156302380Y-48052380D01*
X156540476Y-47385714D01*
X157111904Y-47052380D02*
X157207142Y-47052380D01*
X157302380Y-47100000D01*
X157350000Y-47147619D01*
X157397619Y-47242857D01*
X157445238Y-47433333D01*
X157445238Y-47671428D01*
X157397619Y-47861904D01*
X157350000Y-47957142D01*
X157302380Y-48004761D01*
X157207142Y-48052380D01*
X157111904Y-48052380D01*
X157016666Y-48004761D01*
X156969047Y-47957142D01*
X156921428Y-47861904D01*
X156873809Y-47671428D01*
X156873809Y-47433333D01*
X156921428Y-47242857D01*
X156969047Y-47147619D01*
X157016666Y-47100000D01*
X157111904Y-47052380D01*
X157873809Y-47957142D02*
X157921428Y-48004761D01*
X157873809Y-48052380D01*
X157826190Y-48004761D01*
X157873809Y-47957142D01*
X157873809Y-48052380D01*
X158302380Y-47147619D02*
X158350000Y-47100000D01*
X158445238Y-47052380D01*
X158683333Y-47052380D01*
X158778571Y-47100000D01*
X158826190Y-47147619D01*
X158873809Y-47242857D01*
X158873809Y-47338095D01*
X158826190Y-47480952D01*
X158254761Y-48052380D01*
X158873809Y-48052380D01*
D12*
G36*
X138168423Y-56001777D02*
G01*
X138206263Y-56005066D01*
X138226759Y-56008897D01*
X138278390Y-56025874D01*
X138323060Y-56049654D01*
X138360646Y-56079527D01*
X138391024Y-56114781D01*
X138414071Y-56154703D01*
X138429661Y-56198583D01*
X138437672Y-56245708D01*
X138437980Y-56295366D01*
X138430461Y-56346846D01*
X138414990Y-56399436D01*
X138391445Y-56452424D01*
X138359701Y-56505099D01*
X138321669Y-56554398D01*
X138272024Y-56605506D01*
X138217034Y-56650255D01*
X138157863Y-56688142D01*
X138095678Y-56718666D01*
X138031645Y-56741325D01*
X137966929Y-56755617D01*
X137902695Y-56761041D01*
X137848218Y-56758169D01*
X137793393Y-56747107D01*
X137744297Y-56728036D01*
X137701371Y-56701148D01*
X137682887Y-56685333D01*
X137651140Y-56651436D01*
X137628000Y-56616962D01*
X137612118Y-56579320D01*
X137602141Y-56535916D01*
X137600986Y-56528145D01*
X137598426Y-56473755D01*
X137605286Y-56418691D01*
X137620934Y-56363752D01*
X137634275Y-56333475D01*
X137999164Y-56333475D01*
X138001545Y-56355112D01*
X138014506Y-56399304D01*
X138035689Y-56438657D01*
X138064198Y-56472122D01*
X138099137Y-56498653D01*
X138139610Y-56517204D01*
X138140453Y-56517481D01*
X138160411Y-56521460D01*
X138187461Y-56523152D01*
X138205684Y-56522976D01*
X138229938Y-56521571D01*
X138248324Y-56518634D01*
X138265122Y-56513176D01*
X138282690Y-56505155D01*
X138319679Y-56481788D01*
X138350282Y-56451948D01*
X138373754Y-56417048D01*
X138389349Y-56378504D01*
X138396322Y-56337728D01*
X138393925Y-56296134D01*
X138393670Y-56294722D01*
X138380966Y-56252824D01*
X138359644Y-56214438D01*
X138330985Y-56181215D01*
X138296270Y-56154806D01*
X138277445Y-56144858D01*
X138247518Y-56135350D01*
X138212396Y-56130786D01*
X138175790Y-56131225D01*
X138141413Y-56136724D01*
X138123531Y-56142426D01*
X138088383Y-56161486D01*
X138057691Y-56187944D01*
X138032440Y-56220087D01*
X138013613Y-56256199D01*
X138002193Y-56294567D01*
X137999164Y-56333475D01*
X137634275Y-56333475D01*
X137644736Y-56309736D01*
X137676061Y-56257441D01*
X137714274Y-56207666D01*
X137758745Y-56161207D01*
X137808840Y-56118864D01*
X137863926Y-56081434D01*
X137923370Y-56049716D01*
X137986541Y-56024507D01*
X138004886Y-56018701D01*
X138041263Y-56010238D01*
X138082757Y-56004503D01*
X138126199Y-56001636D01*
X138168423Y-56001777D01*
X138168423Y-56001777D01*
G37*
X138168423Y-56001777D02*
X138206263Y-56005066D01*
X138226759Y-56008897D01*
X138278390Y-56025874D01*
X138323060Y-56049654D01*
X138360646Y-56079527D01*
X138391024Y-56114781D01*
X138414071Y-56154703D01*
X138429661Y-56198583D01*
X138437672Y-56245708D01*
X138437980Y-56295366D01*
X138430461Y-56346846D01*
X138414990Y-56399436D01*
X138391445Y-56452424D01*
X138359701Y-56505099D01*
X138321669Y-56554398D01*
X138272024Y-56605506D01*
X138217034Y-56650255D01*
X138157863Y-56688142D01*
X138095678Y-56718666D01*
X138031645Y-56741325D01*
X137966929Y-56755617D01*
X137902695Y-56761041D01*
X137848218Y-56758169D01*
X137793393Y-56747107D01*
X137744297Y-56728036D01*
X137701371Y-56701148D01*
X137682887Y-56685333D01*
X137651140Y-56651436D01*
X137628000Y-56616962D01*
X137612118Y-56579320D01*
X137602141Y-56535916D01*
X137600986Y-56528145D01*
X137598426Y-56473755D01*
X137605286Y-56418691D01*
X137620934Y-56363752D01*
X137634275Y-56333475D01*
X137999164Y-56333475D01*
X138001545Y-56355112D01*
X138014506Y-56399304D01*
X138035689Y-56438657D01*
X138064198Y-56472122D01*
X138099137Y-56498653D01*
X138139610Y-56517204D01*
X138140453Y-56517481D01*
X138160411Y-56521460D01*
X138187461Y-56523152D01*
X138205684Y-56522976D01*
X138229938Y-56521571D01*
X138248324Y-56518634D01*
X138265122Y-56513176D01*
X138282690Y-56505155D01*
X138319679Y-56481788D01*
X138350282Y-56451948D01*
X138373754Y-56417048D01*
X138389349Y-56378504D01*
X138396322Y-56337728D01*
X138393925Y-56296134D01*
X138393670Y-56294722D01*
X138380966Y-56252824D01*
X138359644Y-56214438D01*
X138330985Y-56181215D01*
X138296270Y-56154806D01*
X138277445Y-56144858D01*
X138247518Y-56135350D01*
X138212396Y-56130786D01*
X138175790Y-56131225D01*
X138141413Y-56136724D01*
X138123531Y-56142426D01*
X138088383Y-56161486D01*
X138057691Y-56187944D01*
X138032440Y-56220087D01*
X138013613Y-56256199D01*
X138002193Y-56294567D01*
X137999164Y-56333475D01*
X137634275Y-56333475D01*
X137644736Y-56309736D01*
X137676061Y-56257441D01*
X137714274Y-56207666D01*
X137758745Y-56161207D01*
X137808840Y-56118864D01*
X137863926Y-56081434D01*
X137923370Y-56049716D01*
X137986541Y-56024507D01*
X138004886Y-56018701D01*
X138041263Y-56010238D01*
X138082757Y-56004503D01*
X138126199Y-56001636D01*
X138168423Y-56001777D01*
G36*
X136543665Y-56192400D02*
G01*
X136561199Y-56194815D01*
X136577879Y-56200076D01*
X136596678Y-56208404D01*
X136646544Y-56236810D01*
X136696028Y-56274026D01*
X136744186Y-56318713D01*
X136790077Y-56369536D01*
X136832757Y-56425158D01*
X136871285Y-56484244D01*
X136904717Y-56545456D01*
X136932112Y-56607459D01*
X136952526Y-56668917D01*
X136965018Y-56728492D01*
X136965381Y-56731129D01*
X136968149Y-56774196D01*
X136964456Y-56812257D01*
X136954593Y-56844427D01*
X136938853Y-56869822D01*
X136917525Y-56887556D01*
X136913187Y-56889832D01*
X136885219Y-56898318D01*
X136853409Y-56899581D01*
X136821189Y-56893488D01*
X136820740Y-56893346D01*
X136777203Y-56875057D01*
X136732270Y-56847842D01*
X136686881Y-56812665D01*
X136641976Y-56770487D01*
X136598495Y-56722272D01*
X136557378Y-56668982D01*
X136519565Y-56611579D01*
X136485996Y-56551026D01*
X136485540Y-56550119D01*
X136460181Y-56495845D01*
X136451711Y-56473574D01*
X136605284Y-56473574D01*
X136605543Y-56501315D01*
X136608121Y-56529311D01*
X136612567Y-56552702D01*
X136622407Y-56582865D01*
X136636999Y-56617156D01*
X136654535Y-56651944D01*
X136673208Y-56683596D01*
X136688382Y-56705022D01*
X136719895Y-56740806D01*
X136751152Y-56768895D01*
X136781506Y-56789000D01*
X136810309Y-56800834D01*
X136836913Y-56804109D01*
X136860670Y-56798538D01*
X136876133Y-56788466D01*
X136890767Y-56771999D01*
X136900019Y-56752003D01*
X136904606Y-56726313D01*
X136905402Y-56700316D01*
X136901584Y-56661085D01*
X136891587Y-56620767D01*
X136876265Y-56580451D01*
X136856466Y-56541228D01*
X136833042Y-56504188D01*
X136806844Y-56470421D01*
X136778723Y-56441018D01*
X136749529Y-56417069D01*
X136720113Y-56399664D01*
X136691326Y-56389894D01*
X136664019Y-56388849D01*
X136662521Y-56389075D01*
X136640226Y-56397610D01*
X136621870Y-56414429D01*
X136611805Y-56431686D01*
X136607365Y-56449295D01*
X136605284Y-56473574D01*
X136451711Y-56473574D01*
X136441505Y-56446742D01*
X136428956Y-56400850D01*
X136421980Y-56356209D01*
X136420024Y-56318820D01*
X136420147Y-56293734D01*
X136421356Y-56275780D01*
X136424108Y-56261950D01*
X136428861Y-56249235D01*
X136431443Y-56243751D01*
X136442212Y-56226421D01*
X136455671Y-56210733D01*
X136461471Y-56205651D01*
X136471774Y-56198608D01*
X136481873Y-56194452D01*
X136494939Y-56192443D01*
X136514145Y-56191838D01*
X136520641Y-56191820D01*
X136543665Y-56192400D01*
X136543665Y-56192400D01*
G37*
X136543665Y-56192400D02*
X136561199Y-56194815D01*
X136577879Y-56200076D01*
X136596678Y-56208404D01*
X136646544Y-56236810D01*
X136696028Y-56274026D01*
X136744186Y-56318713D01*
X136790077Y-56369536D01*
X136832757Y-56425158D01*
X136871285Y-56484244D01*
X136904717Y-56545456D01*
X136932112Y-56607459D01*
X136952526Y-56668917D01*
X136965018Y-56728492D01*
X136965381Y-56731129D01*
X136968149Y-56774196D01*
X136964456Y-56812257D01*
X136954593Y-56844427D01*
X136938853Y-56869822D01*
X136917525Y-56887556D01*
X136913187Y-56889832D01*
X136885219Y-56898318D01*
X136853409Y-56899581D01*
X136821189Y-56893488D01*
X136820740Y-56893346D01*
X136777203Y-56875057D01*
X136732270Y-56847842D01*
X136686881Y-56812665D01*
X136641976Y-56770487D01*
X136598495Y-56722272D01*
X136557378Y-56668982D01*
X136519565Y-56611579D01*
X136485996Y-56551026D01*
X136485540Y-56550119D01*
X136460181Y-56495845D01*
X136451711Y-56473574D01*
X136605284Y-56473574D01*
X136605543Y-56501315D01*
X136608121Y-56529311D01*
X136612567Y-56552702D01*
X136622407Y-56582865D01*
X136636999Y-56617156D01*
X136654535Y-56651944D01*
X136673208Y-56683596D01*
X136688382Y-56705022D01*
X136719895Y-56740806D01*
X136751152Y-56768895D01*
X136781506Y-56789000D01*
X136810309Y-56800834D01*
X136836913Y-56804109D01*
X136860670Y-56798538D01*
X136876133Y-56788466D01*
X136890767Y-56771999D01*
X136900019Y-56752003D01*
X136904606Y-56726313D01*
X136905402Y-56700316D01*
X136901584Y-56661085D01*
X136891587Y-56620767D01*
X136876265Y-56580451D01*
X136856466Y-56541228D01*
X136833042Y-56504188D01*
X136806844Y-56470421D01*
X136778723Y-56441018D01*
X136749529Y-56417069D01*
X136720113Y-56399664D01*
X136691326Y-56389894D01*
X136664019Y-56388849D01*
X136662521Y-56389075D01*
X136640226Y-56397610D01*
X136621870Y-56414429D01*
X136611805Y-56431686D01*
X136607365Y-56449295D01*
X136605284Y-56473574D01*
X136451711Y-56473574D01*
X136441505Y-56446742D01*
X136428956Y-56400850D01*
X136421980Y-56356209D01*
X136420024Y-56318820D01*
X136420147Y-56293734D01*
X136421356Y-56275780D01*
X136424108Y-56261950D01*
X136428861Y-56249235D01*
X136431443Y-56243751D01*
X136442212Y-56226421D01*
X136455671Y-56210733D01*
X136461471Y-56205651D01*
X136471774Y-56198608D01*
X136481873Y-56194452D01*
X136494939Y-56192443D01*
X136514145Y-56191838D01*
X136520641Y-56191820D01*
X136543665Y-56192400D01*
G36*
X139428201Y-54829738D02*
G01*
X139448348Y-54831965D01*
X139465863Y-54835564D01*
X139481188Y-54841308D01*
X139494766Y-54849971D01*
X139507039Y-54862324D01*
X139518450Y-54879140D01*
X139529440Y-54901193D01*
X139540453Y-54929255D01*
X139551931Y-54964099D01*
X139564316Y-55006498D01*
X139578050Y-55057225D01*
X139593577Y-55117052D01*
X139594299Y-55119867D01*
X139611506Y-55192474D01*
X139625540Y-55264276D01*
X139636689Y-55337443D01*
X139645238Y-55414150D01*
X139651474Y-55496569D01*
X139655609Y-55584760D01*
X139656717Y-55618405D01*
X139657222Y-55644525D01*
X139656933Y-55665749D01*
X139655658Y-55684703D01*
X139653208Y-55704014D01*
X139649391Y-55726309D01*
X139644016Y-55754217D01*
X139642872Y-55760020D01*
X139626391Y-55838711D01*
X139608865Y-55913406D01*
X139590546Y-55983339D01*
X139571687Y-56047741D01*
X139552541Y-56105845D01*
X139533359Y-56156882D01*
X139514394Y-56200085D01*
X139495900Y-56234686D01*
X139478657Y-56259293D01*
X139467953Y-56272749D01*
X139453677Y-56291717D01*
X139437975Y-56313311D01*
X139427487Y-56328152D01*
X139401986Y-56362275D01*
X139378222Y-56389201D01*
X139356922Y-56408184D01*
X139339823Y-56418106D01*
X139327848Y-56420698D01*
X139310149Y-56422358D01*
X139295639Y-56422712D01*
X139279049Y-56421866D01*
X139263769Y-56419024D01*
X139246746Y-56413303D01*
X139224929Y-56403818D01*
X139215960Y-56399618D01*
X139193192Y-56387894D01*
X139171706Y-56375181D01*
X139154652Y-56363418D01*
X139148199Y-56357955D01*
X139125298Y-56329710D01*
X139105228Y-56291883D01*
X139087972Y-56244420D01*
X139073507Y-56187269D01*
X139064959Y-56141020D01*
X139062442Y-56123764D01*
X139060422Y-56105587D01*
X139058848Y-56085174D01*
X139057672Y-56061208D01*
X139056843Y-56032375D01*
X139056312Y-55997359D01*
X139056029Y-55954844D01*
X139055945Y-55903516D01*
X139055945Y-55902260D01*
X139056068Y-55845778D01*
X139056514Y-55797431D01*
X139057403Y-55755192D01*
X139058857Y-55717037D01*
X139060997Y-55680942D01*
X139063942Y-55644882D01*
X139067814Y-55606833D01*
X139072734Y-55564769D01*
X139078823Y-55516667D01*
X139079068Y-55514778D01*
X139088126Y-55457754D01*
X139100976Y-55395299D01*
X139117031Y-55329301D01*
X139135706Y-55261648D01*
X139156413Y-55194227D01*
X139178565Y-55128927D01*
X139201577Y-55067635D01*
X139224862Y-55012239D01*
X139247832Y-54964626D01*
X139253030Y-54954937D01*
X139280897Y-54910835D01*
X139311983Y-54873517D01*
X139312588Y-54872896D01*
X139335380Y-54851619D01*
X139356068Y-54837902D01*
X139377763Y-54830583D01*
X139403575Y-54828502D01*
X139428201Y-54829738D01*
X139428201Y-54829738D01*
G37*
X139428201Y-54829738D02*
X139448348Y-54831965D01*
X139465863Y-54835564D01*
X139481188Y-54841308D01*
X139494766Y-54849971D01*
X139507039Y-54862324D01*
X139518450Y-54879140D01*
X139529440Y-54901193D01*
X139540453Y-54929255D01*
X139551931Y-54964099D01*
X139564316Y-55006498D01*
X139578050Y-55057225D01*
X139593577Y-55117052D01*
X139594299Y-55119867D01*
X139611506Y-55192474D01*
X139625540Y-55264276D01*
X139636689Y-55337443D01*
X139645238Y-55414150D01*
X139651474Y-55496569D01*
X139655609Y-55584760D01*
X139656717Y-55618405D01*
X139657222Y-55644525D01*
X139656933Y-55665749D01*
X139655658Y-55684703D01*
X139653208Y-55704014D01*
X139649391Y-55726309D01*
X139644016Y-55754217D01*
X139642872Y-55760020D01*
X139626391Y-55838711D01*
X139608865Y-55913406D01*
X139590546Y-55983339D01*
X139571687Y-56047741D01*
X139552541Y-56105845D01*
X139533359Y-56156882D01*
X139514394Y-56200085D01*
X139495900Y-56234686D01*
X139478657Y-56259293D01*
X139467953Y-56272749D01*
X139453677Y-56291717D01*
X139437975Y-56313311D01*
X139427487Y-56328152D01*
X139401986Y-56362275D01*
X139378222Y-56389201D01*
X139356922Y-56408184D01*
X139339823Y-56418106D01*
X139327848Y-56420698D01*
X139310149Y-56422358D01*
X139295639Y-56422712D01*
X139279049Y-56421866D01*
X139263769Y-56419024D01*
X139246746Y-56413303D01*
X139224929Y-56403818D01*
X139215960Y-56399618D01*
X139193192Y-56387894D01*
X139171706Y-56375181D01*
X139154652Y-56363418D01*
X139148199Y-56357955D01*
X139125298Y-56329710D01*
X139105228Y-56291883D01*
X139087972Y-56244420D01*
X139073507Y-56187269D01*
X139064959Y-56141020D01*
X139062442Y-56123764D01*
X139060422Y-56105587D01*
X139058848Y-56085174D01*
X139057672Y-56061208D01*
X139056843Y-56032375D01*
X139056312Y-55997359D01*
X139056029Y-55954844D01*
X139055945Y-55903516D01*
X139055945Y-55902260D01*
X139056068Y-55845778D01*
X139056514Y-55797431D01*
X139057403Y-55755192D01*
X139058857Y-55717037D01*
X139060997Y-55680942D01*
X139063942Y-55644882D01*
X139067814Y-55606833D01*
X139072734Y-55564769D01*
X139078823Y-55516667D01*
X139079068Y-55514778D01*
X139088126Y-55457754D01*
X139100976Y-55395299D01*
X139117031Y-55329301D01*
X139135706Y-55261648D01*
X139156413Y-55194227D01*
X139178565Y-55128927D01*
X139201577Y-55067635D01*
X139224862Y-55012239D01*
X139247832Y-54964626D01*
X139253030Y-54954937D01*
X139280897Y-54910835D01*
X139311983Y-54873517D01*
X139312588Y-54872896D01*
X139335380Y-54851619D01*
X139356068Y-54837902D01*
X139377763Y-54830583D01*
X139403575Y-54828502D01*
X139428201Y-54829738D01*
D11*
X163625000Y-50025000D02*
X164150000Y-50025000D01*
X169925000Y-56325000D02*
X169400000Y-56325000D01*
X169925000Y-50025000D02*
X169400000Y-50025000D01*
X163625000Y-56325000D02*
X163625000Y-55800000D01*
X169925000Y-56325000D02*
X169925000Y-55800000D01*
X169925000Y-50025000D02*
X169925000Y-50550000D01*
X163625000Y-50025000D02*
X163625000Y-50550000D01*
X200500000Y-72500000D02*
X200500000Y-71900000D01*
X200500000Y-67900000D02*
X200500000Y-69100000D01*
X200500000Y-63900000D02*
X200500000Y-65100000D01*
X200500000Y-60500000D02*
X200500000Y-61100000D01*
X203500000Y-72500000D02*
X203500000Y-60500000D01*
X203500000Y-60500000D02*
X188500000Y-60500000D01*
X188500000Y-60500000D02*
X188500000Y-72500000D01*
X188500000Y-72500000D02*
X203500000Y-72500000D01*
D13*
X181900000Y-81200000D02*
X187100000Y-81200000D01*
X181500000Y-86800000D02*
X188100000Y-86800000D01*
X188100000Y-86800000D02*
X188100000Y-86400000D01*
X180900000Y-74200000D02*
X180900000Y-74600000D01*
X187500000Y-74200000D02*
X180900000Y-74200000D01*
X187100000Y-79800000D02*
X181900000Y-79800000D01*
X188100000Y-65800000D02*
X188100000Y-65400000D01*
X181500000Y-65800000D02*
X188100000Y-65800000D01*
X181900000Y-60200000D02*
X187100000Y-60200000D01*
X187100000Y-72800000D02*
X181900000Y-72800000D01*
X187500000Y-67200000D02*
X180900000Y-67200000D01*
X180900000Y-67200000D02*
X180900000Y-67600000D01*
X181900000Y-53200000D02*
X187100000Y-53200000D01*
X181500000Y-58800000D02*
X188100000Y-58800000D01*
X188100000Y-58800000D02*
X188100000Y-58400000D01*
X180900000Y-46200000D02*
X180900000Y-46600000D01*
X187500000Y-46200000D02*
X180900000Y-46200000D01*
X187100000Y-51800000D02*
X181900000Y-51800000D01*
D11*
X162000000Y-84600000D02*
X162600000Y-84600000D01*
X166600000Y-84600000D02*
X165400000Y-84600000D01*
X170000000Y-84600000D02*
X169400000Y-84600000D01*
X162000000Y-87600000D02*
X170000000Y-87600000D01*
X170000000Y-87600000D02*
X170000000Y-72600000D01*
X170000000Y-72600000D02*
X162000000Y-72600000D01*
X162000000Y-72600000D02*
X162000000Y-87600000D01*
D13*
X178758578Y-64290000D02*
X178241422Y-64290000D01*
X178758578Y-65710000D02*
X178241422Y-65710000D01*
X178758578Y-58710000D02*
X178241422Y-58710000D01*
X178758578Y-57290000D02*
X178241422Y-57290000D01*
X178758578Y-85290000D02*
X178241422Y-85290000D01*
X178758578Y-86710000D02*
X178241422Y-86710000D01*
X178758578Y-63710000D02*
X178241422Y-63710000D01*
X178758578Y-62290000D02*
X178241422Y-62290000D01*
X162590000Y-65090000D02*
X162590000Y-67440000D01*
X162590000Y-71910000D02*
X162590000Y-69560000D01*
X168345563Y-71910000D02*
X162590000Y-71910000D01*
X168345563Y-65090000D02*
X162590000Y-65090000D01*
X169410000Y-66154437D02*
X169410000Y-67440000D01*
X169410000Y-70845563D02*
X169410000Y-69560000D01*
X169410000Y-70845563D02*
X168345563Y-71910000D01*
X169410000Y-66154437D02*
X168345563Y-65090000D01*
X170437500Y-70347500D02*
X169650000Y-70347500D01*
X170043750Y-70741250D02*
X170043750Y-69953750D01*
X178758578Y-55290000D02*
X178241422Y-55290000D01*
X178758578Y-56710000D02*
X178241422Y-56710000D01*
X197370000Y-49125000D02*
X198900000Y-49125000D01*
X197370000Y-51000000D02*
X197370000Y-49125000D01*
X200170000Y-52270000D02*
X198300000Y-52270000D01*
X200170000Y-50400000D02*
X200170000Y-52270000D01*
X201440000Y-49125000D02*
X202970000Y-49125000D01*
X202970000Y-49125000D02*
X202970000Y-59225000D01*
X197370000Y-59225000D02*
X202970000Y-59225000D01*
X197370000Y-53540000D02*
X197370000Y-59225000D01*
X134470000Y-68540000D02*
X134470000Y-74225000D01*
X134470000Y-74225000D02*
X140070000Y-74225000D01*
X140070000Y-64125000D02*
X140070000Y-74225000D01*
X138540000Y-64125000D02*
X140070000Y-64125000D01*
X137270000Y-65400000D02*
X137270000Y-67270000D01*
X137270000Y-67270000D02*
X135400000Y-67270000D01*
X134470000Y-66000000D02*
X134470000Y-64125000D01*
X134470000Y-64125000D02*
X136000000Y-64125000D01*
X134470000Y-80540000D02*
X134470000Y-86225000D01*
X134470000Y-86225000D02*
X140070000Y-86225000D01*
X140070000Y-76125000D02*
X140070000Y-86225000D01*
X138540000Y-76125000D02*
X140070000Y-76125000D01*
X137270000Y-77400000D02*
X137270000Y-79270000D01*
X137270000Y-79270000D02*
X135400000Y-79270000D01*
X134470000Y-78000000D02*
X134470000Y-76125000D01*
X134470000Y-76125000D02*
X136000000Y-76125000D01*
X144000000Y-51670000D02*
X145330000Y-51670000D01*
X145330000Y-51670000D02*
X145330000Y-53000000D01*
X145330000Y-54270000D02*
X145330000Y-87350000D01*
X142670000Y-87350000D02*
X145330000Y-87350000D01*
X142670000Y-54270000D02*
X142670000Y-87350000D01*
X142670000Y-54270000D02*
X145330000Y-54270000D01*
X157870000Y-54270000D02*
X160530000Y-54270000D01*
X157870000Y-54270000D02*
X157870000Y-87350000D01*
X157870000Y-87350000D02*
X160530000Y-87350000D01*
X160530000Y-54270000D02*
X160530000Y-87350000D01*
X160530000Y-51670000D02*
X160530000Y-53000000D01*
X159200000Y-51670000D02*
X160530000Y-51670000D01*
X178758578Y-84710000D02*
X178241422Y-84710000D01*
X178758578Y-83290000D02*
X178241422Y-83290000D01*
D14*
X163126190Y-55647619D02*
X162626190Y-55647619D01*
X162626190Y-55528571D01*
X162650000Y-55457142D01*
X162697619Y-55409523D01*
X162745238Y-55385714D01*
X162840476Y-55361904D01*
X162911904Y-55361904D01*
X163007142Y-55385714D01*
X163054761Y-55409523D01*
X163102380Y-55457142D01*
X163126190Y-55528571D01*
X163126190Y-55647619D01*
X163126190Y-54861904D02*
X162888095Y-55028571D01*
X163126190Y-55147619D02*
X162626190Y-55147619D01*
X162626190Y-54957142D01*
X162650000Y-54909523D01*
X162673809Y-54885714D01*
X162721428Y-54861904D01*
X162792857Y-54861904D01*
X162840476Y-54885714D01*
X162864285Y-54909523D01*
X162888095Y-54957142D01*
X162888095Y-55147619D01*
X162626190Y-54719047D02*
X163126190Y-54552380D01*
X162626190Y-54385714D01*
X162840476Y-54147619D02*
X162816666Y-54195238D01*
X162792857Y-54219047D01*
X162745238Y-54242857D01*
X162721428Y-54242857D01*
X162673809Y-54219047D01*
X162650000Y-54195238D01*
X162626190Y-54147619D01*
X162626190Y-54052380D01*
X162650000Y-54004761D01*
X162673809Y-53980952D01*
X162721428Y-53957142D01*
X162745238Y-53957142D01*
X162792857Y-53980952D01*
X162816666Y-54004761D01*
X162840476Y-54052380D01*
X162840476Y-54147619D01*
X162864285Y-54195238D01*
X162888095Y-54219047D01*
X162935714Y-54242857D01*
X163030952Y-54242857D01*
X163078571Y-54219047D01*
X163102380Y-54195238D01*
X163126190Y-54147619D01*
X163126190Y-54052380D01*
X163102380Y-54004761D01*
X163078571Y-53980952D01*
X163030952Y-53957142D01*
X162935714Y-53957142D01*
X162888095Y-53980952D01*
X162864285Y-54004761D01*
X162840476Y-54052380D01*
X162626190Y-53790476D02*
X162626190Y-53480952D01*
X162816666Y-53647619D01*
X162816666Y-53576190D01*
X162840476Y-53528571D01*
X162864285Y-53504761D01*
X162911904Y-53480952D01*
X163030952Y-53480952D01*
X163078571Y-53504761D01*
X163102380Y-53528571D01*
X163126190Y-53576190D01*
X163126190Y-53719047D01*
X163102380Y-53766666D01*
X163078571Y-53790476D01*
X162673809Y-53290476D02*
X162650000Y-53266666D01*
X162626190Y-53219047D01*
X162626190Y-53100000D01*
X162650000Y-53052380D01*
X162673809Y-53028571D01*
X162721428Y-53004761D01*
X162769047Y-53004761D01*
X162840476Y-53028571D01*
X163126190Y-53314285D01*
X163126190Y-53004761D01*
X162626190Y-52838095D02*
X162626190Y-52528571D01*
X162816666Y-52695238D01*
X162816666Y-52623809D01*
X162840476Y-52576190D01*
X162864285Y-52552380D01*
X162911904Y-52528571D01*
X163030952Y-52528571D01*
X163078571Y-52552380D01*
X163102380Y-52576190D01*
X163126190Y-52623809D01*
X163126190Y-52766666D01*
X163102380Y-52814285D01*
X163078571Y-52838095D01*
X163126190Y-52314285D02*
X162626190Y-52314285D01*
X162864285Y-52314285D02*
X162864285Y-52028571D01*
X163126190Y-52028571D02*
X162626190Y-52028571D01*
X163126190Y-51528571D02*
X163126190Y-51814285D01*
X163126190Y-51671428D02*
X162626190Y-51671428D01*
X162697619Y-51719047D01*
X162745238Y-51766666D01*
X162769047Y-51814285D01*
D11*
X178333333Y-86007142D02*
X178285714Y-86054761D01*
X178142857Y-86102380D01*
X178047619Y-86102380D01*
X177904761Y-86054761D01*
X177809523Y-85959523D01*
X177761904Y-85864285D01*
X177714285Y-85673809D01*
X177714285Y-85530952D01*
X177761904Y-85340476D01*
X177809523Y-85245238D01*
X177904761Y-85150000D01*
X178047619Y-85102380D01*
X178142857Y-85102380D01*
X178285714Y-85150000D01*
X178333333Y-85197619D01*
X178666666Y-85102380D02*
X179333333Y-85102380D01*
X178904761Y-86102380D01*
M02*
