G04 #@! TF.GenerationSoftware,KiCad,Pcbnew,5.1.5-52549c5~84~ubuntu18.04.1*
G04 #@! TF.CreationDate,2020-05-04T20:07:59+02:00*
G04 #@! TF.ProjectId,rs485_usb_adapter,72733438-355f-4757-9362-5f6164617074,rev?*
G04 #@! TF.SameCoordinates,Original*
G04 #@! TF.FileFunction,Soldermask,Top*
G04 #@! TF.FilePolarity,Negative*
%FSLAX46Y46*%
G04 Gerber Fmt 4.6, Leading zero omitted, Abs format (unit mm)*
G04 Created by KiCad (PCBNEW 5.1.5-52549c5~84~ubuntu18.04.1) date 2020-05-04 20:07:59*
%MOMM*%
%LPD*%
G04 APERTURE LIST*
%ADD10C,0.010000*%
%ADD11C,0.100000*%
G04 APERTURE END LIST*
D10*
G36*
X180003667Y-97291102D02*
G01*
X180016744Y-97294493D01*
X180028048Y-97301622D01*
X180030392Y-97303545D01*
X180049692Y-97325382D01*
X180059619Y-97349859D01*
X180059926Y-97375768D01*
X180050441Y-97401765D01*
X180036012Y-97420859D01*
X180017537Y-97432325D01*
X179993024Y-97437210D01*
X179982228Y-97437560D01*
X179964829Y-97436947D01*
X179953155Y-97433934D01*
X179942794Y-97426758D01*
X179933903Y-97418259D01*
X179917278Y-97395369D01*
X179909936Y-97370434D01*
X179911832Y-97345206D01*
X179922919Y-97321436D01*
X179936859Y-97305951D01*
X179948713Y-97296754D01*
X179960030Y-97292033D01*
X179975130Y-97290369D01*
X179984667Y-97290240D01*
X180003667Y-97291102D01*
G37*
X180003667Y-97291102D02*
X180016744Y-97294493D01*
X180028048Y-97301622D01*
X180030392Y-97303545D01*
X180049692Y-97325382D01*
X180059619Y-97349859D01*
X180059926Y-97375768D01*
X180050441Y-97401765D01*
X180036012Y-97420859D01*
X180017537Y-97432325D01*
X179993024Y-97437210D01*
X179982228Y-97437560D01*
X179964829Y-97436947D01*
X179953155Y-97433934D01*
X179942794Y-97426758D01*
X179933903Y-97418259D01*
X179917278Y-97395369D01*
X179909936Y-97370434D01*
X179911832Y-97345206D01*
X179922919Y-97321436D01*
X179936859Y-97305951D01*
X179948713Y-97296754D01*
X179960030Y-97292033D01*
X179975130Y-97290369D01*
X179984667Y-97290240D01*
X180003667Y-97291102D01*
G36*
X178564466Y-97569926D02*
G01*
X178579554Y-97581333D01*
X178581789Y-97583610D01*
X178597997Y-97604076D01*
X178611303Y-97627188D01*
X178621395Y-97651348D01*
X178627961Y-97674960D01*
X178630691Y-97696426D01*
X178629274Y-97714150D01*
X178623397Y-97726535D01*
X178612750Y-97731983D01*
X178610740Y-97732103D01*
X178603319Y-97729690D01*
X178591818Y-97723702D01*
X178590097Y-97722671D01*
X178573099Y-97707908D01*
X178557367Y-97686401D01*
X178543917Y-97660683D01*
X178533764Y-97633289D01*
X178527921Y-97606754D01*
X178527405Y-97583613D01*
X178530003Y-97572595D01*
X178537422Y-97565074D01*
X178549666Y-97564345D01*
X178564466Y-97569926D01*
G37*
X178564466Y-97569926D02*
X178579554Y-97581333D01*
X178581789Y-97583610D01*
X178597997Y-97604076D01*
X178611303Y-97627188D01*
X178621395Y-97651348D01*
X178627961Y-97674960D01*
X178630691Y-97696426D01*
X178629274Y-97714150D01*
X178623397Y-97726535D01*
X178612750Y-97731983D01*
X178610740Y-97732103D01*
X178603319Y-97729690D01*
X178591818Y-97723702D01*
X178590097Y-97722671D01*
X178573099Y-97707908D01*
X178557367Y-97686401D01*
X178543917Y-97660683D01*
X178533764Y-97633289D01*
X178527921Y-97606754D01*
X178527405Y-97583613D01*
X178530003Y-97572595D01*
X178537422Y-97565074D01*
X178549666Y-97564345D01*
X178564466Y-97569926D01*
G36*
X179151411Y-93887658D02*
G01*
X179200303Y-93889034D01*
X179241791Y-93891227D01*
X179244248Y-93891404D01*
X179410730Y-93908617D01*
X179574856Y-93935619D01*
X179736263Y-93972236D01*
X179894589Y-94018297D01*
X180049470Y-94073628D01*
X180200545Y-94138056D01*
X180347451Y-94211410D01*
X180489824Y-94293515D01*
X180627304Y-94384199D01*
X180759526Y-94483290D01*
X180886128Y-94590614D01*
X181006748Y-94705999D01*
X181051488Y-94752506D01*
X181162388Y-94877802D01*
X181264852Y-95008680D01*
X181358766Y-95144894D01*
X181444014Y-95286197D01*
X181520485Y-95432344D01*
X181588064Y-95583091D01*
X181646637Y-95738190D01*
X181696090Y-95897396D01*
X181736310Y-96060465D01*
X181767184Y-96227149D01*
X181781027Y-96327580D01*
X181783688Y-96355614D01*
X181786056Y-96392158D01*
X181788107Y-96435565D01*
X181789818Y-96484188D01*
X181791168Y-96536379D01*
X181792131Y-96590493D01*
X181792687Y-96644881D01*
X181792810Y-96697898D01*
X181792479Y-96747897D01*
X181791671Y-96793229D01*
X181790362Y-96832250D01*
X181788529Y-96863311D01*
X181788521Y-96863409D01*
X181770425Y-97027738D01*
X181742523Y-97189947D01*
X181705024Y-97349636D01*
X181658137Y-97506405D01*
X181602068Y-97659853D01*
X181537026Y-97809580D01*
X181463220Y-97955186D01*
X181380858Y-98096271D01*
X181290147Y-98232433D01*
X181191295Y-98363273D01*
X181084512Y-98488391D01*
X180970005Y-98607385D01*
X180847982Y-98719856D01*
X180803827Y-98757365D01*
X180672339Y-98860164D01*
X180535556Y-98954370D01*
X180393820Y-99039844D01*
X180247475Y-99116444D01*
X180096863Y-99184030D01*
X179942328Y-99242462D01*
X179784213Y-99291599D01*
X179622861Y-99331300D01*
X179458615Y-99361425D01*
X179291818Y-99381834D01*
X179276220Y-99383230D01*
X179244605Y-99385421D01*
X179205273Y-99387283D01*
X179160337Y-99388791D01*
X179111909Y-99389916D01*
X179062102Y-99390634D01*
X179013029Y-99390917D01*
X178966802Y-99390740D01*
X178925534Y-99390076D01*
X178891338Y-99388899D01*
X178878694Y-99388187D01*
X178709062Y-99372042D01*
X178542378Y-99346308D01*
X178378908Y-99311099D01*
X178218916Y-99266529D01*
X178062667Y-99212712D01*
X177910427Y-99149763D01*
X177762461Y-99077796D01*
X177619033Y-98996925D01*
X177480408Y-98907265D01*
X177346852Y-98808929D01*
X177218630Y-98702031D01*
X177157269Y-98646036D01*
X177038879Y-98527867D01*
X176928479Y-98403571D01*
X176826241Y-98273510D01*
X176732338Y-98138048D01*
X176646943Y-97997546D01*
X176570229Y-97852369D01*
X176502370Y-97702880D01*
X176443537Y-97549441D01*
X176393904Y-97392416D01*
X176353644Y-97232168D01*
X176322930Y-97069060D01*
X176301935Y-96903454D01*
X176296484Y-96839168D01*
X176294235Y-96798243D01*
X176292806Y-96749784D01*
X176292158Y-96695741D01*
X176292254Y-96638065D01*
X176292845Y-96594280D01*
X177975866Y-96594280D01*
X177976087Y-96654867D01*
X177976800Y-96707255D01*
X177978154Y-96753398D01*
X177980296Y-96795249D01*
X177983376Y-96834763D01*
X177987541Y-96873895D01*
X177992939Y-96914598D01*
X177999719Y-96958827D01*
X178006683Y-97000680D01*
X178031321Y-97125767D01*
X178063172Y-97255784D01*
X178101644Y-97389155D01*
X178146146Y-97524306D01*
X178196085Y-97659660D01*
X178250869Y-97793644D01*
X178309907Y-97924683D01*
X178372605Y-98051201D01*
X178438373Y-98171623D01*
X178462138Y-98212260D01*
X178487850Y-98254150D01*
X178512392Y-98291070D01*
X178537458Y-98325163D01*
X178564739Y-98358577D01*
X178595927Y-98393455D01*
X178632714Y-98431944D01*
X178646237Y-98445668D01*
X178714539Y-98512063D01*
X178780032Y-98570339D01*
X178844180Y-98621594D01*
X178908445Y-98666927D01*
X178974292Y-98707436D01*
X179043183Y-98744220D01*
X179045625Y-98745432D01*
X179112865Y-98776631D01*
X179180523Y-98803591D01*
X179249818Y-98826574D01*
X179321972Y-98845841D01*
X179398208Y-98861653D01*
X179479746Y-98874271D01*
X179567807Y-98883955D01*
X179663614Y-98890968D01*
X179744301Y-98894743D01*
X179758468Y-98894065D01*
X179779174Y-98891605D01*
X179803042Y-98887805D01*
X179816346Y-98885295D01*
X179922126Y-98858969D01*
X180026227Y-98822724D01*
X180128740Y-98776520D01*
X180229759Y-98720316D01*
X180308715Y-98668715D01*
X180344948Y-98642443D01*
X180385856Y-98611048D01*
X180430005Y-98575764D01*
X180475964Y-98537826D01*
X180522299Y-98498467D01*
X180567577Y-98458921D01*
X180610365Y-98420423D01*
X180649230Y-98384207D01*
X180682740Y-98351506D01*
X180709357Y-98323669D01*
X180759078Y-98266571D01*
X180808026Y-98205833D01*
X180855342Y-98142772D01*
X180900168Y-98078702D01*
X180941646Y-98014939D01*
X180978916Y-97952800D01*
X181011120Y-97893600D01*
X181037399Y-97838654D01*
X181055547Y-97793160D01*
X181067166Y-97756683D01*
X181073669Y-97726920D01*
X181075291Y-97701946D01*
X181072266Y-97679838D01*
X181070229Y-97672655D01*
X181061899Y-97639183D01*
X181055174Y-97595850D01*
X181050045Y-97542582D01*
X181048557Y-97520480D01*
X181046914Y-97497285D01*
X181045091Y-97477827D01*
X181043327Y-97464354D01*
X181042048Y-97459279D01*
X181035985Y-97455091D01*
X181023461Y-97448816D01*
X181011213Y-97443494D01*
X180975191Y-97425805D01*
X180945050Y-97404111D01*
X180920055Y-97377333D01*
X180899472Y-97344396D01*
X180882567Y-97304221D01*
X180868606Y-97255733D01*
X180861731Y-97224200D01*
X180853109Y-97169984D01*
X180846872Y-97107299D01*
X180843003Y-97037547D01*
X180841488Y-96962131D01*
X180842310Y-96882453D01*
X180845454Y-96799917D01*
X180850904Y-96715924D01*
X180858644Y-96631878D01*
X180868658Y-96549181D01*
X180869391Y-96543857D01*
X180877683Y-96492621D01*
X180888851Y-96438523D01*
X180903299Y-96379881D01*
X180921436Y-96315012D01*
X180937507Y-96261894D01*
X180948001Y-96226596D01*
X180954749Y-96200223D01*
X180957856Y-96182298D01*
X180957630Y-96172994D01*
X180956992Y-96165817D01*
X180956273Y-96149339D01*
X180955490Y-96124422D01*
X180954662Y-96091926D01*
X180953807Y-96052708D01*
X180952943Y-96007631D01*
X180952087Y-95957553D01*
X180951258Y-95903335D01*
X180950474Y-95845836D01*
X180950024Y-95809420D01*
X180949099Y-95734866D01*
X180948178Y-95669436D01*
X180947209Y-95612094D01*
X180946143Y-95561802D01*
X180944928Y-95517525D01*
X180943514Y-95478228D01*
X180941851Y-95442872D01*
X180939886Y-95410422D01*
X180937570Y-95379843D01*
X180934853Y-95350097D01*
X180931682Y-95320148D01*
X180928009Y-95288961D01*
X180923781Y-95255498D01*
X180922415Y-95244995D01*
X180913450Y-95182533D01*
X180902637Y-95117182D01*
X180890663Y-95052772D01*
X180878216Y-94993131D01*
X180873201Y-94971220D01*
X180867194Y-94945740D01*
X180861859Y-94923078D01*
X180857719Y-94905465D01*
X180855300Y-94895135D01*
X180855099Y-94894273D01*
X180849514Y-94884596D01*
X180836770Y-94870140D01*
X180818059Y-94851912D01*
X180794573Y-94830920D01*
X180767505Y-94808170D01*
X180738047Y-94784671D01*
X180707391Y-94761430D01*
X180676729Y-94739454D01*
X180652900Y-94723398D01*
X180559663Y-94668561D01*
X180460366Y-94621665D01*
X180354885Y-94582665D01*
X180243099Y-94551515D01*
X180124885Y-94528173D01*
X180114420Y-94526529D01*
X180069797Y-94520994D01*
X180017546Y-94516733D01*
X179960123Y-94513789D01*
X179899984Y-94512208D01*
X179839587Y-94512036D01*
X179781389Y-94513316D01*
X179727846Y-94516094D01*
X179695320Y-94518864D01*
X179558305Y-94536876D01*
X179426889Y-94562248D01*
X179301374Y-94594863D01*
X179182065Y-94634607D01*
X179069262Y-94681362D01*
X178963270Y-94735014D01*
X178864391Y-94795447D01*
X178772928Y-94862544D01*
X178752307Y-94879465D01*
X178719118Y-94908484D01*
X178686726Y-94939428D01*
X178653635Y-94973870D01*
X178618349Y-95013378D01*
X178579372Y-95059524D01*
X178570517Y-95070280D01*
X178466906Y-95202732D01*
X178373379Y-95335187D01*
X178289858Y-95467797D01*
X178216268Y-95600716D01*
X178152533Y-95734098D01*
X178098577Y-95868098D01*
X178054324Y-96002867D01*
X178019697Y-96138561D01*
X178004339Y-96215820D01*
X177996862Y-96258964D01*
X177990787Y-96297561D01*
X177985975Y-96333452D01*
X177982287Y-96368477D01*
X177979585Y-96404477D01*
X177977730Y-96443291D01*
X177976585Y-96486762D01*
X177976009Y-96536729D01*
X177975866Y-96594280D01*
X176292845Y-96594280D01*
X176293056Y-96578704D01*
X176294526Y-96519611D01*
X176296624Y-96462735D01*
X176299314Y-96410027D01*
X176302556Y-96363437D01*
X176306314Y-96324915D01*
X176306582Y-96322680D01*
X176332056Y-96153148D01*
X176366728Y-95987926D01*
X176410629Y-95826938D01*
X176463792Y-95670112D01*
X176526249Y-95517374D01*
X176598030Y-95368650D01*
X176679169Y-95223866D01*
X176769697Y-95082948D01*
X176869646Y-94945822D01*
X176937157Y-94861718D01*
X176962254Y-94832734D01*
X176993460Y-94798564D01*
X177029254Y-94760728D01*
X177068116Y-94720747D01*
X177108523Y-94680143D01*
X177148955Y-94640438D01*
X177187890Y-94603151D01*
X177223808Y-94569805D01*
X177255186Y-94541920D01*
X177266798Y-94532077D01*
X177383126Y-94439763D01*
X177500135Y-94356075D01*
X177619986Y-94279586D01*
X177744836Y-94208870D01*
X177797940Y-94181230D01*
X177943201Y-94112517D01*
X178090453Y-94053076D01*
X178240545Y-94002650D01*
X178394324Y-93960984D01*
X178552640Y-93927823D01*
X178716342Y-93902911D01*
X178727760Y-93901502D01*
X178765674Y-93897711D01*
X178811787Y-93894433D01*
X178864148Y-93891705D01*
X178920806Y-93889566D01*
X178979812Y-93888054D01*
X179039215Y-93887206D01*
X179097065Y-93887062D01*
X179151411Y-93887658D01*
G37*
X179151411Y-93887658D02*
X179200303Y-93889034D01*
X179241791Y-93891227D01*
X179244248Y-93891404D01*
X179410730Y-93908617D01*
X179574856Y-93935619D01*
X179736263Y-93972236D01*
X179894589Y-94018297D01*
X180049470Y-94073628D01*
X180200545Y-94138056D01*
X180347451Y-94211410D01*
X180489824Y-94293515D01*
X180627304Y-94384199D01*
X180759526Y-94483290D01*
X180886128Y-94590614D01*
X181006748Y-94705999D01*
X181051488Y-94752506D01*
X181162388Y-94877802D01*
X181264852Y-95008680D01*
X181358766Y-95144894D01*
X181444014Y-95286197D01*
X181520485Y-95432344D01*
X181588064Y-95583091D01*
X181646637Y-95738190D01*
X181696090Y-95897396D01*
X181736310Y-96060465D01*
X181767184Y-96227149D01*
X181781027Y-96327580D01*
X181783688Y-96355614D01*
X181786056Y-96392158D01*
X181788107Y-96435565D01*
X181789818Y-96484188D01*
X181791168Y-96536379D01*
X181792131Y-96590493D01*
X181792687Y-96644881D01*
X181792810Y-96697898D01*
X181792479Y-96747897D01*
X181791671Y-96793229D01*
X181790362Y-96832250D01*
X181788529Y-96863311D01*
X181788521Y-96863409D01*
X181770425Y-97027738D01*
X181742523Y-97189947D01*
X181705024Y-97349636D01*
X181658137Y-97506405D01*
X181602068Y-97659853D01*
X181537026Y-97809580D01*
X181463220Y-97955186D01*
X181380858Y-98096271D01*
X181290147Y-98232433D01*
X181191295Y-98363273D01*
X181084512Y-98488391D01*
X180970005Y-98607385D01*
X180847982Y-98719856D01*
X180803827Y-98757365D01*
X180672339Y-98860164D01*
X180535556Y-98954370D01*
X180393820Y-99039844D01*
X180247475Y-99116444D01*
X180096863Y-99184030D01*
X179942328Y-99242462D01*
X179784213Y-99291599D01*
X179622861Y-99331300D01*
X179458615Y-99361425D01*
X179291818Y-99381834D01*
X179276220Y-99383230D01*
X179244605Y-99385421D01*
X179205273Y-99387283D01*
X179160337Y-99388791D01*
X179111909Y-99389916D01*
X179062102Y-99390634D01*
X179013029Y-99390917D01*
X178966802Y-99390740D01*
X178925534Y-99390076D01*
X178891338Y-99388899D01*
X178878694Y-99388187D01*
X178709062Y-99372042D01*
X178542378Y-99346308D01*
X178378908Y-99311099D01*
X178218916Y-99266529D01*
X178062667Y-99212712D01*
X177910427Y-99149763D01*
X177762461Y-99077796D01*
X177619033Y-98996925D01*
X177480408Y-98907265D01*
X177346852Y-98808929D01*
X177218630Y-98702031D01*
X177157269Y-98646036D01*
X177038879Y-98527867D01*
X176928479Y-98403571D01*
X176826241Y-98273510D01*
X176732338Y-98138048D01*
X176646943Y-97997546D01*
X176570229Y-97852369D01*
X176502370Y-97702880D01*
X176443537Y-97549441D01*
X176393904Y-97392416D01*
X176353644Y-97232168D01*
X176322930Y-97069060D01*
X176301935Y-96903454D01*
X176296484Y-96839168D01*
X176294235Y-96798243D01*
X176292806Y-96749784D01*
X176292158Y-96695741D01*
X176292254Y-96638065D01*
X176292845Y-96594280D01*
X177975866Y-96594280D01*
X177976087Y-96654867D01*
X177976800Y-96707255D01*
X177978154Y-96753398D01*
X177980296Y-96795249D01*
X177983376Y-96834763D01*
X177987541Y-96873895D01*
X177992939Y-96914598D01*
X177999719Y-96958827D01*
X178006683Y-97000680D01*
X178031321Y-97125767D01*
X178063172Y-97255784D01*
X178101644Y-97389155D01*
X178146146Y-97524306D01*
X178196085Y-97659660D01*
X178250869Y-97793644D01*
X178309907Y-97924683D01*
X178372605Y-98051201D01*
X178438373Y-98171623D01*
X178462138Y-98212260D01*
X178487850Y-98254150D01*
X178512392Y-98291070D01*
X178537458Y-98325163D01*
X178564739Y-98358577D01*
X178595927Y-98393455D01*
X178632714Y-98431944D01*
X178646237Y-98445668D01*
X178714539Y-98512063D01*
X178780032Y-98570339D01*
X178844180Y-98621594D01*
X178908445Y-98666927D01*
X178974292Y-98707436D01*
X179043183Y-98744220D01*
X179045625Y-98745432D01*
X179112865Y-98776631D01*
X179180523Y-98803591D01*
X179249818Y-98826574D01*
X179321972Y-98845841D01*
X179398208Y-98861653D01*
X179479746Y-98874271D01*
X179567807Y-98883955D01*
X179663614Y-98890968D01*
X179744301Y-98894743D01*
X179758468Y-98894065D01*
X179779174Y-98891605D01*
X179803042Y-98887805D01*
X179816346Y-98885295D01*
X179922126Y-98858969D01*
X180026227Y-98822724D01*
X180128740Y-98776520D01*
X180229759Y-98720316D01*
X180308715Y-98668715D01*
X180344948Y-98642443D01*
X180385856Y-98611048D01*
X180430005Y-98575764D01*
X180475964Y-98537826D01*
X180522299Y-98498467D01*
X180567577Y-98458921D01*
X180610365Y-98420423D01*
X180649230Y-98384207D01*
X180682740Y-98351506D01*
X180709357Y-98323669D01*
X180759078Y-98266571D01*
X180808026Y-98205833D01*
X180855342Y-98142772D01*
X180900168Y-98078702D01*
X180941646Y-98014939D01*
X180978916Y-97952800D01*
X181011120Y-97893600D01*
X181037399Y-97838654D01*
X181055547Y-97793160D01*
X181067166Y-97756683D01*
X181073669Y-97726920D01*
X181075291Y-97701946D01*
X181072266Y-97679838D01*
X181070229Y-97672655D01*
X181061899Y-97639183D01*
X181055174Y-97595850D01*
X181050045Y-97542582D01*
X181048557Y-97520480D01*
X181046914Y-97497285D01*
X181045091Y-97477827D01*
X181043327Y-97464354D01*
X181042048Y-97459279D01*
X181035985Y-97455091D01*
X181023461Y-97448816D01*
X181011213Y-97443494D01*
X180975191Y-97425805D01*
X180945050Y-97404111D01*
X180920055Y-97377333D01*
X180899472Y-97344396D01*
X180882567Y-97304221D01*
X180868606Y-97255733D01*
X180861731Y-97224200D01*
X180853109Y-97169984D01*
X180846872Y-97107299D01*
X180843003Y-97037547D01*
X180841488Y-96962131D01*
X180842310Y-96882453D01*
X180845454Y-96799917D01*
X180850904Y-96715924D01*
X180858644Y-96631878D01*
X180868658Y-96549181D01*
X180869391Y-96543857D01*
X180877683Y-96492621D01*
X180888851Y-96438523D01*
X180903299Y-96379881D01*
X180921436Y-96315012D01*
X180937507Y-96261894D01*
X180948001Y-96226596D01*
X180954749Y-96200223D01*
X180957856Y-96182298D01*
X180957630Y-96172994D01*
X180956992Y-96165817D01*
X180956273Y-96149339D01*
X180955490Y-96124422D01*
X180954662Y-96091926D01*
X180953807Y-96052708D01*
X180952943Y-96007631D01*
X180952087Y-95957553D01*
X180951258Y-95903335D01*
X180950474Y-95845836D01*
X180950024Y-95809420D01*
X180949099Y-95734866D01*
X180948178Y-95669436D01*
X180947209Y-95612094D01*
X180946143Y-95561802D01*
X180944928Y-95517525D01*
X180943514Y-95478228D01*
X180941851Y-95442872D01*
X180939886Y-95410422D01*
X180937570Y-95379843D01*
X180934853Y-95350097D01*
X180931682Y-95320148D01*
X180928009Y-95288961D01*
X180923781Y-95255498D01*
X180922415Y-95244995D01*
X180913450Y-95182533D01*
X180902637Y-95117182D01*
X180890663Y-95052772D01*
X180878216Y-94993131D01*
X180873201Y-94971220D01*
X180867194Y-94945740D01*
X180861859Y-94923078D01*
X180857719Y-94905465D01*
X180855300Y-94895135D01*
X180855099Y-94894273D01*
X180849514Y-94884596D01*
X180836770Y-94870140D01*
X180818059Y-94851912D01*
X180794573Y-94830920D01*
X180767505Y-94808170D01*
X180738047Y-94784671D01*
X180707391Y-94761430D01*
X180676729Y-94739454D01*
X180652900Y-94723398D01*
X180559663Y-94668561D01*
X180460366Y-94621665D01*
X180354885Y-94582665D01*
X180243099Y-94551515D01*
X180124885Y-94528173D01*
X180114420Y-94526529D01*
X180069797Y-94520994D01*
X180017546Y-94516733D01*
X179960123Y-94513789D01*
X179899984Y-94512208D01*
X179839587Y-94512036D01*
X179781389Y-94513316D01*
X179727846Y-94516094D01*
X179695320Y-94518864D01*
X179558305Y-94536876D01*
X179426889Y-94562248D01*
X179301374Y-94594863D01*
X179182065Y-94634607D01*
X179069262Y-94681362D01*
X178963270Y-94735014D01*
X178864391Y-94795447D01*
X178772928Y-94862544D01*
X178752307Y-94879465D01*
X178719118Y-94908484D01*
X178686726Y-94939428D01*
X178653635Y-94973870D01*
X178618349Y-95013378D01*
X178579372Y-95059524D01*
X178570517Y-95070280D01*
X178466906Y-95202732D01*
X178373379Y-95335187D01*
X178289858Y-95467797D01*
X178216268Y-95600716D01*
X178152533Y-95734098D01*
X178098577Y-95868098D01*
X178054324Y-96002867D01*
X178019697Y-96138561D01*
X178004339Y-96215820D01*
X177996862Y-96258964D01*
X177990787Y-96297561D01*
X177985975Y-96333452D01*
X177982287Y-96368477D01*
X177979585Y-96404477D01*
X177977730Y-96443291D01*
X177976585Y-96486762D01*
X177976009Y-96536729D01*
X177975866Y-96594280D01*
X176292845Y-96594280D01*
X176293056Y-96578704D01*
X176294526Y-96519611D01*
X176296624Y-96462735D01*
X176299314Y-96410027D01*
X176302556Y-96363437D01*
X176306314Y-96324915D01*
X176306582Y-96322680D01*
X176332056Y-96153148D01*
X176366728Y-95987926D01*
X176410629Y-95826938D01*
X176463792Y-95670112D01*
X176526249Y-95517374D01*
X176598030Y-95368650D01*
X176679169Y-95223866D01*
X176769697Y-95082948D01*
X176869646Y-94945822D01*
X176937157Y-94861718D01*
X176962254Y-94832734D01*
X176993460Y-94798564D01*
X177029254Y-94760728D01*
X177068116Y-94720747D01*
X177108523Y-94680143D01*
X177148955Y-94640438D01*
X177187890Y-94603151D01*
X177223808Y-94569805D01*
X177255186Y-94541920D01*
X177266798Y-94532077D01*
X177383126Y-94439763D01*
X177500135Y-94356075D01*
X177619986Y-94279586D01*
X177744836Y-94208870D01*
X177797940Y-94181230D01*
X177943201Y-94112517D01*
X178090453Y-94053076D01*
X178240545Y-94002650D01*
X178394324Y-93960984D01*
X178552640Y-93927823D01*
X178716342Y-93902911D01*
X178727760Y-93901502D01*
X178765674Y-93897711D01*
X178811787Y-93894433D01*
X178864148Y-93891705D01*
X178920806Y-93889566D01*
X178979812Y-93888054D01*
X179039215Y-93887206D01*
X179097065Y-93887062D01*
X179151411Y-93887658D01*
D11*
G36*
X147775880Y-95159776D02*
G01*
X148156593Y-95235504D01*
X148566249Y-95405189D01*
X148934929Y-95651534D01*
X149248466Y-95965071D01*
X149494811Y-96333751D01*
X149664496Y-96743407D01*
X149751000Y-97178296D01*
X149751000Y-97621704D01*
X149664496Y-98056593D01*
X149494811Y-98466249D01*
X149248466Y-98834929D01*
X148934929Y-99148466D01*
X148566249Y-99394811D01*
X148156593Y-99564496D01*
X147775880Y-99640224D01*
X147721705Y-99651000D01*
X147278295Y-99651000D01*
X147224120Y-99640224D01*
X146843407Y-99564496D01*
X146433751Y-99394811D01*
X146065071Y-99148466D01*
X145751534Y-98834929D01*
X145505189Y-98466249D01*
X145335504Y-98056593D01*
X145249000Y-97621704D01*
X145249000Y-97178296D01*
X145335504Y-96743407D01*
X145505189Y-96333751D01*
X145751534Y-95965071D01*
X146065071Y-95651534D01*
X146433751Y-95405189D01*
X146843407Y-95235504D01*
X147224120Y-95159776D01*
X147278295Y-95149000D01*
X147721705Y-95149000D01*
X147775880Y-95159776D01*
G37*
G36*
X175601000Y-98881000D02*
G01*
X172849000Y-98881000D01*
X172849000Y-97779000D01*
X174374001Y-97779000D01*
X174398387Y-97776598D01*
X174421836Y-97769485D01*
X174443447Y-97757934D01*
X174462389Y-97742389D01*
X174477934Y-97723447D01*
X174489485Y-97701836D01*
X174496598Y-97678387D01*
X174499000Y-97654001D01*
X174499000Y-95649000D01*
X175601000Y-95649000D01*
X175601000Y-98881000D01*
G37*
G36*
X163101000Y-97654001D02*
G01*
X163103402Y-97678387D01*
X163110515Y-97701836D01*
X163122066Y-97723447D01*
X163137611Y-97742389D01*
X163156553Y-97757934D01*
X163178164Y-97769485D01*
X163201613Y-97776598D01*
X163225999Y-97779000D01*
X164751000Y-97779000D01*
X164751000Y-98881000D01*
X161999000Y-98881000D01*
X161999000Y-95649000D01*
X163101000Y-95649000D01*
X163101000Y-97654001D01*
G37*
G36*
X170751000Y-98881000D02*
G01*
X166849000Y-98881000D01*
X166849000Y-97779000D01*
X170751000Y-97779000D01*
X170751000Y-98881000D01*
G37*
G36*
X152028657Y-95299733D02*
G01*
X152174438Y-95360118D01*
X152188829Y-95369734D01*
X152305640Y-95447784D01*
X152417216Y-95559360D01*
X152443034Y-95598000D01*
X152504882Y-95690562D01*
X152565267Y-95836343D01*
X152596050Y-95991102D01*
X152596050Y-96148898D01*
X152565267Y-96303657D01*
X152504882Y-96449438D01*
X152478817Y-96488447D01*
X152417216Y-96580640D01*
X152305640Y-96692216D01*
X152305637Y-96692218D01*
X152302903Y-96694952D01*
X152289912Y-96705614D01*
X152274367Y-96724556D01*
X152262816Y-96746167D01*
X152255703Y-96769616D01*
X152253301Y-96794002D01*
X152255703Y-96818388D01*
X152262816Y-96841837D01*
X152274367Y-96863447D01*
X152289913Y-96882389D01*
X152308855Y-96897934D01*
X152330466Y-96909485D01*
X152353915Y-96916598D01*
X152378300Y-96919000D01*
X154146000Y-96919000D01*
X154146000Y-98821000D01*
X152244000Y-98821000D01*
X152244000Y-96938143D01*
X152241598Y-96913757D01*
X152234485Y-96890308D01*
X152222934Y-96868697D01*
X152207389Y-96849755D01*
X152188447Y-96834210D01*
X152166836Y-96822659D01*
X152143387Y-96815546D01*
X152119001Y-96813144D01*
X152094615Y-96815546D01*
X152071164Y-96822659D01*
X152028658Y-96840266D01*
X152028657Y-96840266D01*
X152028655Y-96840267D01*
X151873898Y-96871050D01*
X151716102Y-96871050D01*
X151561343Y-96840267D01*
X151415562Y-96779882D01*
X151288455Y-96694952D01*
X151284360Y-96692216D01*
X151172784Y-96580640D01*
X151111183Y-96488447D01*
X151085118Y-96449438D01*
X151024733Y-96303657D01*
X150993950Y-96148898D01*
X150993950Y-95991102D01*
X151024733Y-95836343D01*
X151085118Y-95690562D01*
X151146966Y-95598000D01*
X151172784Y-95559360D01*
X151284360Y-95447784D01*
X151401171Y-95369734D01*
X151415562Y-95360118D01*
X151561343Y-95299733D01*
X151716102Y-95268950D01*
X151873898Y-95268950D01*
X152028657Y-95299733D01*
G37*
G36*
X156012395Y-96955546D02*
G01*
X156185466Y-97027234D01*
X156250966Y-97071000D01*
X156341227Y-97131310D01*
X156473690Y-97263773D01*
X156473691Y-97263775D01*
X156577766Y-97419534D01*
X156649454Y-97592605D01*
X156686000Y-97776333D01*
X156686000Y-97963667D01*
X156649454Y-98147395D01*
X156577766Y-98320466D01*
X156556778Y-98351876D01*
X156473690Y-98476227D01*
X156341227Y-98608690D01*
X156262818Y-98661081D01*
X156185466Y-98712766D01*
X156012395Y-98784454D01*
X155828667Y-98821000D01*
X155641333Y-98821000D01*
X155457605Y-98784454D01*
X155284534Y-98712766D01*
X155207182Y-98661081D01*
X155128773Y-98608690D01*
X154996310Y-98476227D01*
X154913222Y-98351876D01*
X154892234Y-98320466D01*
X154820546Y-98147395D01*
X154784000Y-97963667D01*
X154784000Y-97776333D01*
X154820546Y-97592605D01*
X154892234Y-97419534D01*
X154996309Y-97263775D01*
X154996310Y-97263773D01*
X155128773Y-97131310D01*
X155219034Y-97071000D01*
X155284534Y-97027234D01*
X155457605Y-96955546D01*
X155641333Y-96919000D01*
X155828667Y-96919000D01*
X156012395Y-96955546D01*
G37*
G36*
X160371938Y-97631716D02*
G01*
X160392557Y-97637971D01*
X160411553Y-97648124D01*
X160428208Y-97661792D01*
X160441876Y-97678447D01*
X160452029Y-97697443D01*
X160458284Y-97718062D01*
X160461000Y-97745640D01*
X160461000Y-98254360D01*
X160458284Y-98281938D01*
X160452029Y-98302557D01*
X160441876Y-98321553D01*
X160428208Y-98338208D01*
X160411553Y-98351876D01*
X160392557Y-98362029D01*
X160371938Y-98368284D01*
X160344360Y-98371000D01*
X159885640Y-98371000D01*
X159858062Y-98368284D01*
X159837443Y-98362029D01*
X159818447Y-98351876D01*
X159801792Y-98338208D01*
X159788124Y-98321553D01*
X159777971Y-98302557D01*
X159771716Y-98281938D01*
X159769000Y-98254360D01*
X159769000Y-97745640D01*
X159771716Y-97718062D01*
X159777971Y-97697443D01*
X159788124Y-97678447D01*
X159801792Y-97661792D01*
X159818447Y-97648124D01*
X159837443Y-97637971D01*
X159858062Y-97631716D01*
X159885640Y-97629000D01*
X160344360Y-97629000D01*
X160371938Y-97631716D01*
G37*
G36*
X161341938Y-97631716D02*
G01*
X161362557Y-97637971D01*
X161381553Y-97648124D01*
X161398208Y-97661792D01*
X161411876Y-97678447D01*
X161422029Y-97697443D01*
X161428284Y-97718062D01*
X161431000Y-97745640D01*
X161431000Y-98254360D01*
X161428284Y-98281938D01*
X161422029Y-98302557D01*
X161411876Y-98321553D01*
X161398208Y-98338208D01*
X161381553Y-98351876D01*
X161362557Y-98362029D01*
X161341938Y-98368284D01*
X161314360Y-98371000D01*
X160855640Y-98371000D01*
X160828062Y-98368284D01*
X160807443Y-98362029D01*
X160788447Y-98351876D01*
X160771792Y-98338208D01*
X160758124Y-98321553D01*
X160747971Y-98302557D01*
X160741716Y-98281938D01*
X160739000Y-98254360D01*
X160739000Y-97745640D01*
X160741716Y-97718062D01*
X160747971Y-97697443D01*
X160758124Y-97678447D01*
X160771792Y-97661792D01*
X160788447Y-97648124D01*
X160807443Y-97637971D01*
X160828062Y-97631716D01*
X160855640Y-97629000D01*
X161314360Y-97629000D01*
X161341938Y-97631716D01*
G37*
G36*
X164481938Y-96441716D02*
G01*
X164502557Y-96447971D01*
X164521553Y-96458124D01*
X164538208Y-96471792D01*
X164551876Y-96488447D01*
X164562029Y-96507443D01*
X164568284Y-96528062D01*
X164571000Y-96555640D01*
X164571000Y-97014360D01*
X164568284Y-97041938D01*
X164562029Y-97062557D01*
X164551876Y-97081553D01*
X164538208Y-97098208D01*
X164521553Y-97111876D01*
X164502557Y-97122029D01*
X164481938Y-97128284D01*
X164454360Y-97131000D01*
X163945640Y-97131000D01*
X163918062Y-97128284D01*
X163897443Y-97122029D01*
X163878447Y-97111876D01*
X163861792Y-97098208D01*
X163848124Y-97081553D01*
X163837971Y-97062557D01*
X163831716Y-97041938D01*
X163829000Y-97014360D01*
X163829000Y-96555640D01*
X163831716Y-96528062D01*
X163837971Y-96507443D01*
X163848124Y-96488447D01*
X163861792Y-96471792D01*
X163878447Y-96458124D01*
X163897443Y-96447971D01*
X163918062Y-96441716D01*
X163945640Y-96439000D01*
X164454360Y-96439000D01*
X164481938Y-96441716D01*
G37*
G36*
X161341938Y-96331716D02*
G01*
X161362557Y-96337971D01*
X161381553Y-96348124D01*
X161398208Y-96361792D01*
X161411876Y-96378447D01*
X161422029Y-96397443D01*
X161428284Y-96418062D01*
X161431000Y-96445640D01*
X161431000Y-96954360D01*
X161428284Y-96981938D01*
X161422029Y-97002557D01*
X161411876Y-97021553D01*
X161398208Y-97038208D01*
X161381553Y-97051876D01*
X161362557Y-97062029D01*
X161341938Y-97068284D01*
X161314360Y-97071000D01*
X160855640Y-97071000D01*
X160828062Y-97068284D01*
X160807443Y-97062029D01*
X160788447Y-97051876D01*
X160771792Y-97038208D01*
X160758124Y-97021553D01*
X160747971Y-97002557D01*
X160741716Y-96981938D01*
X160739000Y-96954360D01*
X160739000Y-96445640D01*
X160741716Y-96418062D01*
X160747971Y-96397443D01*
X160758124Y-96378447D01*
X160771792Y-96361792D01*
X160788447Y-96348124D01*
X160807443Y-96337971D01*
X160828062Y-96331716D01*
X160855640Y-96329000D01*
X161314360Y-96329000D01*
X161341938Y-96331716D01*
G37*
G36*
X160371938Y-96331716D02*
G01*
X160392557Y-96337971D01*
X160411553Y-96348124D01*
X160428208Y-96361792D01*
X160441876Y-96378447D01*
X160452029Y-96397443D01*
X160458284Y-96418062D01*
X160461000Y-96445640D01*
X160461000Y-96954360D01*
X160458284Y-96981938D01*
X160452029Y-97002557D01*
X160441876Y-97021553D01*
X160428208Y-97038208D01*
X160411553Y-97051876D01*
X160392557Y-97062029D01*
X160371938Y-97068284D01*
X160344360Y-97071000D01*
X159885640Y-97071000D01*
X159858062Y-97068284D01*
X159837443Y-97062029D01*
X159818447Y-97051876D01*
X159801792Y-97038208D01*
X159788124Y-97021553D01*
X159777971Y-97002557D01*
X159771716Y-96981938D01*
X159769000Y-96954360D01*
X159769000Y-96445640D01*
X159771716Y-96418062D01*
X159777971Y-96397443D01*
X159788124Y-96378447D01*
X159801792Y-96361792D01*
X159818447Y-96348124D01*
X159837443Y-96337971D01*
X159858062Y-96331716D01*
X159885640Y-96329000D01*
X160344360Y-96329000D01*
X160371938Y-96331716D01*
G37*
G36*
X171621000Y-95556700D02*
G01*
X171623402Y-95581086D01*
X171630515Y-95604535D01*
X171642066Y-95626146D01*
X171657611Y-95645088D01*
X171676553Y-95660633D01*
X171698164Y-95672184D01*
X171721613Y-95679297D01*
X171745999Y-95681699D01*
X171770385Y-95679297D01*
X171793834Y-95672184D01*
X171815445Y-95660633D01*
X171834387Y-95645088D01*
X171845049Y-95632096D01*
X171847783Y-95629362D01*
X171847784Y-95629360D01*
X171959360Y-95517784D01*
X172064123Y-95447784D01*
X172090562Y-95430118D01*
X172236343Y-95369733D01*
X172391102Y-95338950D01*
X172548898Y-95338950D01*
X172703657Y-95369733D01*
X172849438Y-95430118D01*
X172875877Y-95447784D01*
X172980640Y-95517784D01*
X173092216Y-95629360D01*
X173127347Y-95681938D01*
X173179882Y-95760562D01*
X173240267Y-95906343D01*
X173271050Y-96061102D01*
X173271050Y-96218898D01*
X173240267Y-96373657D01*
X173179882Y-96519438D01*
X173140586Y-96578249D01*
X173092216Y-96650640D01*
X172980640Y-96762216D01*
X172914594Y-96806346D01*
X172849438Y-96849882D01*
X172703657Y-96910267D01*
X172548898Y-96941050D01*
X172391102Y-96941050D01*
X172236343Y-96910267D01*
X172090562Y-96849882D01*
X172025406Y-96806346D01*
X171959360Y-96762216D01*
X171847784Y-96650640D01*
X171799414Y-96578249D01*
X171760118Y-96519438D01*
X171699733Y-96373657D01*
X171668950Y-96218898D01*
X171668950Y-96061102D01*
X171699733Y-95906345D01*
X171717341Y-95863835D01*
X171724454Y-95840386D01*
X171726856Y-95816000D01*
X171724454Y-95791614D01*
X171717341Y-95768165D01*
X171705790Y-95746554D01*
X171690245Y-95727612D01*
X171671303Y-95712067D01*
X171649693Y-95700515D01*
X171626244Y-95693402D01*
X171601857Y-95691000D01*
X169719000Y-95691000D01*
X169719000Y-93789000D01*
X171621000Y-93789000D01*
X171621000Y-95556700D01*
G37*
G36*
X157282395Y-94415546D02*
G01*
X157455466Y-94487234D01*
X157478398Y-94502557D01*
X157611227Y-94591310D01*
X157743690Y-94723773D01*
X157789111Y-94791751D01*
X157847766Y-94879534D01*
X157919454Y-95052605D01*
X157956000Y-95236333D01*
X157956000Y-95423667D01*
X157919454Y-95607395D01*
X157847766Y-95780466D01*
X157847765Y-95780467D01*
X157743690Y-95936227D01*
X157611227Y-96068690D01*
X157547078Y-96111553D01*
X157455466Y-96172766D01*
X157282395Y-96244454D01*
X157098667Y-96281000D01*
X156911333Y-96281000D01*
X156727605Y-96244454D01*
X156554534Y-96172766D01*
X156462922Y-96111553D01*
X156398773Y-96068690D01*
X156266310Y-95936227D01*
X156162235Y-95780467D01*
X156162234Y-95780466D01*
X156090546Y-95607395D01*
X156054000Y-95423667D01*
X156054000Y-95236333D01*
X156090546Y-95052605D01*
X156162234Y-94879534D01*
X156220889Y-94791751D01*
X156266310Y-94723773D01*
X156398773Y-94591310D01*
X156531602Y-94502557D01*
X156554534Y-94487234D01*
X156727605Y-94415546D01*
X156911333Y-94379000D01*
X157098667Y-94379000D01*
X157282395Y-94415546D01*
G37*
G36*
X154742395Y-94415546D02*
G01*
X154915466Y-94487234D01*
X154938398Y-94502557D01*
X155071227Y-94591310D01*
X155203690Y-94723773D01*
X155249111Y-94791751D01*
X155307766Y-94879534D01*
X155379454Y-95052605D01*
X155416000Y-95236333D01*
X155416000Y-95423667D01*
X155379454Y-95607395D01*
X155307766Y-95780466D01*
X155307765Y-95780467D01*
X155203690Y-95936227D01*
X155071227Y-96068690D01*
X155007078Y-96111553D01*
X154915466Y-96172766D01*
X154742395Y-96244454D01*
X154558667Y-96281000D01*
X154371333Y-96281000D01*
X154187605Y-96244454D01*
X154014534Y-96172766D01*
X153922922Y-96111553D01*
X153858773Y-96068690D01*
X153726310Y-95936227D01*
X153622235Y-95780467D01*
X153622234Y-95780466D01*
X153550546Y-95607395D01*
X153514000Y-95423667D01*
X153514000Y-95236333D01*
X153550546Y-95052605D01*
X153622234Y-94879534D01*
X153680889Y-94791751D01*
X153726310Y-94723773D01*
X153858773Y-94591310D01*
X153991602Y-94502557D01*
X154014534Y-94487234D01*
X154187605Y-94415546D01*
X154371333Y-94379000D01*
X154558667Y-94379000D01*
X154742395Y-94415546D01*
G37*
G36*
X164481938Y-95471716D02*
G01*
X164502557Y-95477971D01*
X164521553Y-95488124D01*
X164538208Y-95501792D01*
X164551876Y-95518447D01*
X164562029Y-95537443D01*
X164568284Y-95558062D01*
X164571000Y-95585640D01*
X164571000Y-96044360D01*
X164568284Y-96071938D01*
X164562029Y-96092557D01*
X164551876Y-96111553D01*
X164538208Y-96128208D01*
X164521553Y-96141876D01*
X164502557Y-96152029D01*
X164481938Y-96158284D01*
X164454360Y-96161000D01*
X163945640Y-96161000D01*
X163918062Y-96158284D01*
X163897443Y-96152029D01*
X163878447Y-96141876D01*
X163861792Y-96128208D01*
X163848124Y-96111553D01*
X163837971Y-96092557D01*
X163831716Y-96071938D01*
X163829000Y-96044360D01*
X163829000Y-95585640D01*
X163831716Y-95558062D01*
X163837971Y-95537443D01*
X163848124Y-95518447D01*
X163861792Y-95501792D01*
X163878447Y-95488124D01*
X163897443Y-95477971D01*
X163918062Y-95471716D01*
X163945640Y-95469000D01*
X164454360Y-95469000D01*
X164481938Y-95471716D01*
G37*
G36*
X160371938Y-95031716D02*
G01*
X160392557Y-95037971D01*
X160411553Y-95048124D01*
X160428208Y-95061792D01*
X160441876Y-95078447D01*
X160452029Y-95097443D01*
X160458284Y-95118062D01*
X160461000Y-95145640D01*
X160461000Y-95654360D01*
X160458284Y-95681938D01*
X160452029Y-95702557D01*
X160441876Y-95721553D01*
X160428208Y-95738208D01*
X160411553Y-95751876D01*
X160392557Y-95762029D01*
X160371938Y-95768284D01*
X160344360Y-95771000D01*
X159885640Y-95771000D01*
X159858062Y-95768284D01*
X159837443Y-95762029D01*
X159818447Y-95751876D01*
X159801792Y-95738208D01*
X159788124Y-95721553D01*
X159777971Y-95702557D01*
X159771716Y-95681938D01*
X159769000Y-95654360D01*
X159769000Y-95145640D01*
X159771716Y-95118062D01*
X159777971Y-95097443D01*
X159788124Y-95078447D01*
X159801792Y-95061792D01*
X159818447Y-95048124D01*
X159837443Y-95037971D01*
X159858062Y-95031716D01*
X159885640Y-95029000D01*
X160344360Y-95029000D01*
X160371938Y-95031716D01*
G37*
G36*
X161341938Y-95031716D02*
G01*
X161362557Y-95037971D01*
X161381553Y-95048124D01*
X161398208Y-95061792D01*
X161411876Y-95078447D01*
X161422029Y-95097443D01*
X161428284Y-95118062D01*
X161431000Y-95145640D01*
X161431000Y-95654360D01*
X161428284Y-95681938D01*
X161422029Y-95702557D01*
X161411876Y-95721553D01*
X161398208Y-95738208D01*
X161381553Y-95751876D01*
X161362557Y-95762029D01*
X161341938Y-95768284D01*
X161314360Y-95771000D01*
X160855640Y-95771000D01*
X160828062Y-95768284D01*
X160807443Y-95762029D01*
X160788447Y-95751876D01*
X160771792Y-95738208D01*
X160758124Y-95721553D01*
X160747971Y-95702557D01*
X160741716Y-95681938D01*
X160739000Y-95654360D01*
X160739000Y-95145640D01*
X160741716Y-95118062D01*
X160747971Y-95097443D01*
X160758124Y-95078447D01*
X160771792Y-95061792D01*
X160788447Y-95048124D01*
X160807443Y-95037971D01*
X160828062Y-95031716D01*
X160855640Y-95029000D01*
X161314360Y-95029000D01*
X161341938Y-95031716D01*
G37*
G36*
X149181938Y-94241716D02*
G01*
X149202557Y-94247971D01*
X149221553Y-94258124D01*
X149238208Y-94271792D01*
X149251876Y-94288447D01*
X149262029Y-94307443D01*
X149268284Y-94328062D01*
X149271000Y-94355640D01*
X149271000Y-94814360D01*
X149268284Y-94841938D01*
X149262029Y-94862557D01*
X149251876Y-94881553D01*
X149238208Y-94898208D01*
X149221553Y-94911876D01*
X149202557Y-94922029D01*
X149181938Y-94928284D01*
X149154360Y-94931000D01*
X148645640Y-94931000D01*
X148618062Y-94928284D01*
X148597443Y-94922029D01*
X148578447Y-94911876D01*
X148561792Y-94898208D01*
X148548124Y-94881553D01*
X148537971Y-94862557D01*
X148531716Y-94841938D01*
X148529000Y-94814360D01*
X148529000Y-94355640D01*
X148531716Y-94328062D01*
X148537971Y-94307443D01*
X148548124Y-94288447D01*
X148561792Y-94271792D01*
X148578447Y-94258124D01*
X148597443Y-94247971D01*
X148618062Y-94241716D01*
X148645640Y-94239000D01*
X149154360Y-94239000D01*
X149181938Y-94241716D01*
G37*
G36*
X150281938Y-94241716D02*
G01*
X150302557Y-94247971D01*
X150321553Y-94258124D01*
X150338208Y-94271792D01*
X150351876Y-94288447D01*
X150362029Y-94307443D01*
X150368284Y-94328062D01*
X150371000Y-94355640D01*
X150371000Y-94814360D01*
X150368284Y-94841938D01*
X150362029Y-94862557D01*
X150351876Y-94881553D01*
X150338208Y-94898208D01*
X150321553Y-94911876D01*
X150302557Y-94922029D01*
X150281938Y-94928284D01*
X150254360Y-94931000D01*
X149745640Y-94931000D01*
X149718062Y-94928284D01*
X149697443Y-94922029D01*
X149678447Y-94911876D01*
X149661792Y-94898208D01*
X149648124Y-94881553D01*
X149637971Y-94862557D01*
X149631716Y-94841938D01*
X149629000Y-94814360D01*
X149629000Y-94355640D01*
X149631716Y-94328062D01*
X149637971Y-94307443D01*
X149648124Y-94288447D01*
X149661792Y-94271792D01*
X149678447Y-94258124D01*
X149697443Y-94247971D01*
X149718062Y-94241716D01*
X149745640Y-94239000D01*
X150254360Y-94239000D01*
X150281938Y-94241716D01*
G37*
G36*
X160371938Y-93831716D02*
G01*
X160392557Y-93837971D01*
X160411553Y-93848124D01*
X160428208Y-93861792D01*
X160441876Y-93878447D01*
X160452029Y-93897443D01*
X160458284Y-93918062D01*
X160461000Y-93945640D01*
X160461000Y-94454360D01*
X160458284Y-94481938D01*
X160452029Y-94502557D01*
X160441876Y-94521553D01*
X160428208Y-94538208D01*
X160411553Y-94551876D01*
X160392557Y-94562029D01*
X160371938Y-94568284D01*
X160344360Y-94571000D01*
X159885640Y-94571000D01*
X159858062Y-94568284D01*
X159837443Y-94562029D01*
X159818447Y-94551876D01*
X159801792Y-94538208D01*
X159788124Y-94521553D01*
X159777971Y-94502557D01*
X159771716Y-94481938D01*
X159769000Y-94454360D01*
X159769000Y-93945640D01*
X159771716Y-93918062D01*
X159777971Y-93897443D01*
X159788124Y-93878447D01*
X159801792Y-93861792D01*
X159818447Y-93848124D01*
X159837443Y-93837971D01*
X159858062Y-93831716D01*
X159885640Y-93829000D01*
X160344360Y-93829000D01*
X160371938Y-93831716D01*
G37*
G36*
X161341938Y-93831716D02*
G01*
X161362557Y-93837971D01*
X161381553Y-93848124D01*
X161398208Y-93861792D01*
X161411876Y-93878447D01*
X161422029Y-93897443D01*
X161428284Y-93918062D01*
X161431000Y-93945640D01*
X161431000Y-94454360D01*
X161428284Y-94481938D01*
X161422029Y-94502557D01*
X161411876Y-94521553D01*
X161398208Y-94538208D01*
X161381553Y-94551876D01*
X161362557Y-94562029D01*
X161341938Y-94568284D01*
X161314360Y-94571000D01*
X160855640Y-94571000D01*
X160828062Y-94568284D01*
X160807443Y-94562029D01*
X160788447Y-94551876D01*
X160771792Y-94538208D01*
X160758124Y-94521553D01*
X160747971Y-94502557D01*
X160741716Y-94481938D01*
X160739000Y-94454360D01*
X160739000Y-93945640D01*
X160741716Y-93918062D01*
X160747971Y-93897443D01*
X160758124Y-93878447D01*
X160771792Y-93861792D01*
X160788447Y-93848124D01*
X160807443Y-93837971D01*
X160828062Y-93831716D01*
X160855640Y-93829000D01*
X161314360Y-93829000D01*
X161341938Y-93831716D01*
G37*
G36*
X173487395Y-92555546D02*
G01*
X173660466Y-92627234D01*
X173737818Y-92678919D01*
X173816227Y-92731310D01*
X173948690Y-92863773D01*
X173998748Y-92938690D01*
X174052766Y-93019534D01*
X174124454Y-93192605D01*
X174161000Y-93376333D01*
X174161000Y-93563667D01*
X174124454Y-93747395D01*
X174052766Y-93920466D01*
X174045163Y-93931844D01*
X173948690Y-94076227D01*
X173816227Y-94208690D01*
X173751156Y-94252169D01*
X173660466Y-94312766D01*
X173487395Y-94384454D01*
X173303667Y-94421000D01*
X173116333Y-94421000D01*
X172932605Y-94384454D01*
X172759534Y-94312766D01*
X172668844Y-94252169D01*
X172603773Y-94208690D01*
X172471310Y-94076227D01*
X172374837Y-93931844D01*
X172367234Y-93920466D01*
X172295546Y-93747395D01*
X172259000Y-93563667D01*
X172259000Y-93376333D01*
X172295546Y-93192605D01*
X172367234Y-93019534D01*
X172421252Y-92938690D01*
X172471310Y-92863773D01*
X172603773Y-92731310D01*
X172682182Y-92678919D01*
X172759534Y-92627234D01*
X172932605Y-92555546D01*
X173116333Y-92519000D01*
X173303667Y-92519000D01*
X173487395Y-92555546D01*
G37*
G36*
X147941938Y-93331716D02*
G01*
X147962557Y-93337971D01*
X147981553Y-93348124D01*
X147998208Y-93361792D01*
X148011876Y-93378447D01*
X148022029Y-93397443D01*
X148028284Y-93418062D01*
X148031000Y-93445640D01*
X148031000Y-93954360D01*
X148028284Y-93981938D01*
X148022029Y-94002557D01*
X148011876Y-94021553D01*
X147998208Y-94038208D01*
X147981553Y-94051876D01*
X147962557Y-94062029D01*
X147941938Y-94068284D01*
X147914360Y-94071000D01*
X147455640Y-94071000D01*
X147428062Y-94068284D01*
X147407443Y-94062029D01*
X147388447Y-94051876D01*
X147371792Y-94038208D01*
X147358124Y-94021553D01*
X147347971Y-94002557D01*
X147341716Y-93981938D01*
X147339000Y-93954360D01*
X147339000Y-93445640D01*
X147341716Y-93418062D01*
X147347971Y-93397443D01*
X147358124Y-93378447D01*
X147371792Y-93361792D01*
X147388447Y-93348124D01*
X147407443Y-93337971D01*
X147428062Y-93331716D01*
X147455640Y-93329000D01*
X147914360Y-93329000D01*
X147941938Y-93331716D01*
G37*
G36*
X146971938Y-93331716D02*
G01*
X146992557Y-93337971D01*
X147011553Y-93348124D01*
X147028208Y-93361792D01*
X147041876Y-93378447D01*
X147052029Y-93397443D01*
X147058284Y-93418062D01*
X147061000Y-93445640D01*
X147061000Y-93954360D01*
X147058284Y-93981938D01*
X147052029Y-94002557D01*
X147041876Y-94021553D01*
X147028208Y-94038208D01*
X147011553Y-94051876D01*
X146992557Y-94062029D01*
X146971938Y-94068284D01*
X146944360Y-94071000D01*
X146485640Y-94071000D01*
X146458062Y-94068284D01*
X146437443Y-94062029D01*
X146418447Y-94051876D01*
X146401792Y-94038208D01*
X146388124Y-94021553D01*
X146377971Y-94002557D01*
X146371716Y-93981938D01*
X146369000Y-93954360D01*
X146369000Y-93445640D01*
X146371716Y-93418062D01*
X146377971Y-93397443D01*
X146388124Y-93378447D01*
X146401792Y-93361792D01*
X146418447Y-93348124D01*
X146437443Y-93337971D01*
X146458062Y-93331716D01*
X146485640Y-93329000D01*
X146944360Y-93329000D01*
X146971938Y-93331716D01*
G37*
G36*
X149181938Y-93271716D02*
G01*
X149202557Y-93277971D01*
X149221553Y-93288124D01*
X149238208Y-93301792D01*
X149251876Y-93318447D01*
X149262029Y-93337443D01*
X149268284Y-93358062D01*
X149271000Y-93385640D01*
X149271000Y-93844360D01*
X149268284Y-93871938D01*
X149262029Y-93892557D01*
X149251876Y-93911553D01*
X149238208Y-93928208D01*
X149221553Y-93941876D01*
X149202557Y-93952029D01*
X149181938Y-93958284D01*
X149154360Y-93961000D01*
X148645640Y-93961000D01*
X148618062Y-93958284D01*
X148597443Y-93952029D01*
X148578447Y-93941876D01*
X148561792Y-93928208D01*
X148548124Y-93911553D01*
X148537971Y-93892557D01*
X148531716Y-93871938D01*
X148529000Y-93844360D01*
X148529000Y-93385640D01*
X148531716Y-93358062D01*
X148537971Y-93337443D01*
X148548124Y-93318447D01*
X148561792Y-93301792D01*
X148578447Y-93288124D01*
X148597443Y-93277971D01*
X148618062Y-93271716D01*
X148645640Y-93269000D01*
X149154360Y-93269000D01*
X149181938Y-93271716D01*
G37*
G36*
X150281938Y-93271716D02*
G01*
X150302557Y-93277971D01*
X150321553Y-93288124D01*
X150338208Y-93301792D01*
X150351876Y-93318447D01*
X150362029Y-93337443D01*
X150368284Y-93358062D01*
X150371000Y-93385640D01*
X150371000Y-93844360D01*
X150368284Y-93871938D01*
X150362029Y-93892557D01*
X150351876Y-93911553D01*
X150338208Y-93928208D01*
X150321553Y-93941876D01*
X150302557Y-93952029D01*
X150281938Y-93958284D01*
X150254360Y-93961000D01*
X149745640Y-93961000D01*
X149718062Y-93958284D01*
X149697443Y-93952029D01*
X149678447Y-93941876D01*
X149661792Y-93928208D01*
X149648124Y-93911553D01*
X149637971Y-93892557D01*
X149631716Y-93871938D01*
X149629000Y-93844360D01*
X149629000Y-93385640D01*
X149631716Y-93358062D01*
X149637971Y-93337443D01*
X149648124Y-93318447D01*
X149661792Y-93301792D01*
X149678447Y-93288124D01*
X149697443Y-93277971D01*
X149718062Y-93271716D01*
X149745640Y-93269000D01*
X150254360Y-93269000D01*
X150281938Y-93271716D01*
G37*
G36*
X175601000Y-93551000D02*
G01*
X174499000Y-93551000D01*
X174499000Y-89649000D01*
X175601000Y-89649000D01*
X175601000Y-93551000D01*
G37*
G36*
X163101000Y-93551000D02*
G01*
X161999000Y-93551000D01*
X161999000Y-89649000D01*
X163101000Y-89649000D01*
X163101000Y-93551000D01*
G37*
G36*
X178711938Y-92721716D02*
G01*
X178732557Y-92727971D01*
X178751553Y-92738124D01*
X178768208Y-92751792D01*
X178781876Y-92768447D01*
X178792029Y-92787443D01*
X178798284Y-92808062D01*
X178801000Y-92835640D01*
X178801000Y-93344360D01*
X178798284Y-93371938D01*
X178792029Y-93392557D01*
X178781876Y-93411553D01*
X178768208Y-93428208D01*
X178751553Y-93441876D01*
X178732557Y-93452029D01*
X178711938Y-93458284D01*
X178684360Y-93461000D01*
X178225640Y-93461000D01*
X178198062Y-93458284D01*
X178177443Y-93452029D01*
X178158447Y-93441876D01*
X178141792Y-93428208D01*
X178128124Y-93411553D01*
X178117971Y-93392557D01*
X178111716Y-93371938D01*
X178109000Y-93344360D01*
X178109000Y-92835640D01*
X178111716Y-92808062D01*
X178117971Y-92787443D01*
X178128124Y-92768447D01*
X178141792Y-92751792D01*
X178158447Y-92738124D01*
X178177443Y-92727971D01*
X178198062Y-92721716D01*
X178225640Y-92719000D01*
X178684360Y-92719000D01*
X178711938Y-92721716D01*
G37*
G36*
X177741938Y-92721716D02*
G01*
X177762557Y-92727971D01*
X177781553Y-92738124D01*
X177798208Y-92751792D01*
X177811876Y-92768447D01*
X177822029Y-92787443D01*
X177828284Y-92808062D01*
X177831000Y-92835640D01*
X177831000Y-93344360D01*
X177828284Y-93371938D01*
X177822029Y-93392557D01*
X177811876Y-93411553D01*
X177798208Y-93428208D01*
X177781553Y-93441876D01*
X177762557Y-93452029D01*
X177741938Y-93458284D01*
X177714360Y-93461000D01*
X177255640Y-93461000D01*
X177228062Y-93458284D01*
X177207443Y-93452029D01*
X177188447Y-93441876D01*
X177171792Y-93428208D01*
X177158124Y-93411553D01*
X177147971Y-93392557D01*
X177141716Y-93371938D01*
X177139000Y-93344360D01*
X177139000Y-92835640D01*
X177141716Y-92808062D01*
X177147971Y-92787443D01*
X177158124Y-92768447D01*
X177171792Y-92751792D01*
X177188447Y-92738124D01*
X177207443Y-92727971D01*
X177228062Y-92721716D01*
X177255640Y-92719000D01*
X177714360Y-92719000D01*
X177741938Y-92721716D01*
G37*
G36*
X170947395Y-91285546D02*
G01*
X171120466Y-91357234D01*
X171197818Y-91408919D01*
X171276227Y-91461310D01*
X171408690Y-91593773D01*
X171408691Y-91593775D01*
X171512766Y-91749534D01*
X171584454Y-91922605D01*
X171621000Y-92106333D01*
X171621000Y-92293667D01*
X171584454Y-92477395D01*
X171512766Y-92650466D01*
X171512765Y-92650467D01*
X171408690Y-92806227D01*
X171276227Y-92938690D01*
X171197818Y-92991081D01*
X171120466Y-93042766D01*
X170947395Y-93114454D01*
X170763667Y-93151000D01*
X170576333Y-93151000D01*
X170392605Y-93114454D01*
X170219534Y-93042766D01*
X170142182Y-92991081D01*
X170063773Y-92938690D01*
X169931310Y-92806227D01*
X169827235Y-92650467D01*
X169827234Y-92650466D01*
X169755546Y-92477395D01*
X169719000Y-92293667D01*
X169719000Y-92106333D01*
X169755546Y-91922605D01*
X169827234Y-91749534D01*
X169931309Y-91593775D01*
X169931310Y-91593773D01*
X170063773Y-91461310D01*
X170142182Y-91408919D01*
X170219534Y-91357234D01*
X170392605Y-91285546D01*
X170576333Y-91249000D01*
X170763667Y-91249000D01*
X170947395Y-91285546D01*
G37*
G36*
X160701000Y-93026000D02*
G01*
X151699000Y-93026000D01*
X151699000Y-91174000D01*
X160701000Y-91174000D01*
X160701000Y-93026000D01*
G37*
G36*
X167863400Y-89832301D02*
G01*
X167865802Y-89856687D01*
X167872915Y-89880136D01*
X167884466Y-89901747D01*
X167900011Y-89920689D01*
X167918953Y-89936234D01*
X167940564Y-89947785D01*
X167964013Y-89954898D01*
X167988399Y-89957300D01*
X168162800Y-89957300D01*
X168162800Y-91862700D01*
X167988399Y-91862700D01*
X167964013Y-91865102D01*
X167940564Y-91872215D01*
X167918953Y-91883766D01*
X167900011Y-91899311D01*
X167884466Y-91918253D01*
X167872915Y-91939864D01*
X167865802Y-91963313D01*
X167863400Y-91987699D01*
X167863400Y-92815200D01*
X164956600Y-92815200D01*
X164956600Y-91987699D01*
X164954198Y-91963313D01*
X164947085Y-91939864D01*
X164935534Y-91918253D01*
X164919989Y-91899311D01*
X164901047Y-91883766D01*
X164879436Y-91872215D01*
X164855987Y-91865102D01*
X164831601Y-91862700D01*
X164657200Y-91862700D01*
X164657200Y-89957300D01*
X164831601Y-89957300D01*
X164855987Y-89954898D01*
X164879436Y-89947785D01*
X164901047Y-89936234D01*
X164919989Y-89920689D01*
X164935534Y-89901747D01*
X164947085Y-89880136D01*
X164954198Y-89856687D01*
X164956600Y-89832301D01*
X164956600Y-89004800D01*
X167863400Y-89004800D01*
X167863400Y-89832301D01*
G37*
G36*
X147701000Y-85024001D02*
G01*
X147703402Y-85048387D01*
X147710515Y-85071836D01*
X147722066Y-85093447D01*
X147737611Y-85112389D01*
X147756553Y-85127934D01*
X147778164Y-85139485D01*
X147801613Y-85146598D01*
X147825999Y-85149000D01*
X150101000Y-85149000D01*
X150101000Y-91651000D01*
X147825999Y-91651000D01*
X147801613Y-91653402D01*
X147778164Y-91660515D01*
X147756553Y-91672066D01*
X147737611Y-91687611D01*
X147722066Y-91706553D01*
X147710515Y-91728164D01*
X147703402Y-91751613D01*
X147701000Y-91775999D01*
X147701000Y-92548500D01*
X145699000Y-92548500D01*
X145699000Y-88601500D01*
X147701000Y-88601500D01*
X147701000Y-89949001D01*
X147703402Y-89973387D01*
X147710515Y-89996836D01*
X147722066Y-90018447D01*
X147737611Y-90037389D01*
X147756553Y-90052934D01*
X147778164Y-90064485D01*
X147801613Y-90071598D01*
X147825999Y-90074000D01*
X148494001Y-90074000D01*
X148518387Y-90071598D01*
X148541836Y-90064485D01*
X148563447Y-90052934D01*
X148582389Y-90037389D01*
X148597934Y-90018447D01*
X148609485Y-89996836D01*
X148616598Y-89973387D01*
X148619000Y-89949001D01*
X148619000Y-86850999D01*
X148616598Y-86826613D01*
X148609485Y-86803164D01*
X148597934Y-86781553D01*
X148582389Y-86762611D01*
X148563447Y-86747066D01*
X148541836Y-86735515D01*
X148518387Y-86728402D01*
X148494001Y-86726000D01*
X147825999Y-86726000D01*
X147801613Y-86728402D01*
X147778164Y-86735515D01*
X147756553Y-86747066D01*
X147737611Y-86762611D01*
X147722066Y-86781553D01*
X147710515Y-86803164D01*
X147703402Y-86826613D01*
X147701000Y-86850999D01*
X147701000Y-88198500D01*
X145699000Y-88198500D01*
X145699000Y-84251500D01*
X147701000Y-84251500D01*
X147701000Y-85024001D01*
G37*
G36*
X178681938Y-91541716D02*
G01*
X178702557Y-91547971D01*
X178721553Y-91558124D01*
X178738208Y-91571792D01*
X178751876Y-91588447D01*
X178762029Y-91607443D01*
X178768284Y-91628062D01*
X178771000Y-91655640D01*
X178771000Y-92164360D01*
X178768284Y-92191938D01*
X178762029Y-92212557D01*
X178751876Y-92231553D01*
X178738208Y-92248208D01*
X178721553Y-92261876D01*
X178702557Y-92272029D01*
X178681938Y-92278284D01*
X178654360Y-92281000D01*
X178195640Y-92281000D01*
X178168062Y-92278284D01*
X178147443Y-92272029D01*
X178128447Y-92261876D01*
X178111792Y-92248208D01*
X178098124Y-92231553D01*
X178087971Y-92212557D01*
X178081716Y-92191938D01*
X178079000Y-92164360D01*
X178079000Y-91655640D01*
X178081716Y-91628062D01*
X178087971Y-91607443D01*
X178098124Y-91588447D01*
X178111792Y-91571792D01*
X178128447Y-91558124D01*
X178147443Y-91547971D01*
X178168062Y-91541716D01*
X178195640Y-91539000D01*
X178654360Y-91539000D01*
X178681938Y-91541716D01*
G37*
G36*
X177711938Y-91541716D02*
G01*
X177732557Y-91547971D01*
X177751553Y-91558124D01*
X177768208Y-91571792D01*
X177781876Y-91588447D01*
X177792029Y-91607443D01*
X177798284Y-91628062D01*
X177801000Y-91655640D01*
X177801000Y-92164360D01*
X177798284Y-92191938D01*
X177792029Y-92212557D01*
X177781876Y-92231553D01*
X177768208Y-92248208D01*
X177751553Y-92261876D01*
X177732557Y-92272029D01*
X177711938Y-92278284D01*
X177684360Y-92281000D01*
X177225640Y-92281000D01*
X177198062Y-92278284D01*
X177177443Y-92272029D01*
X177158447Y-92261876D01*
X177141792Y-92248208D01*
X177128124Y-92231553D01*
X177117971Y-92212557D01*
X177111716Y-92191938D01*
X177109000Y-92164360D01*
X177109000Y-91655640D01*
X177111716Y-91628062D01*
X177117971Y-91607443D01*
X177128124Y-91588447D01*
X177141792Y-91571792D01*
X177158447Y-91558124D01*
X177177443Y-91547971D01*
X177198062Y-91541716D01*
X177225640Y-91539000D01*
X177684360Y-91539000D01*
X177711938Y-91541716D01*
G37*
G36*
X173487395Y-90015546D02*
G01*
X173660466Y-90087234D01*
X173737818Y-90138919D01*
X173816227Y-90191310D01*
X173948690Y-90323773D01*
X173980775Y-90371792D01*
X174052766Y-90479534D01*
X174124454Y-90652605D01*
X174161000Y-90836333D01*
X174161000Y-91023667D01*
X174124454Y-91207395D01*
X174052766Y-91380466D01*
X174052765Y-91380467D01*
X173948690Y-91536227D01*
X173816227Y-91668690D01*
X173759561Y-91706553D01*
X173660466Y-91772766D01*
X173487395Y-91844454D01*
X173303667Y-91881000D01*
X173116333Y-91881000D01*
X172932605Y-91844454D01*
X172759534Y-91772766D01*
X172660439Y-91706553D01*
X172603773Y-91668690D01*
X172471310Y-91536227D01*
X172367235Y-91380467D01*
X172367234Y-91380466D01*
X172295546Y-91207395D01*
X172259000Y-91023667D01*
X172259000Y-90836333D01*
X172295546Y-90652605D01*
X172367234Y-90479534D01*
X172439225Y-90371792D01*
X172471310Y-90323773D01*
X172603773Y-90191310D01*
X172682182Y-90138919D01*
X172759534Y-90087234D01*
X172932605Y-90015546D01*
X173116333Y-89979000D01*
X173303667Y-89979000D01*
X173487395Y-90015546D01*
G37*
G36*
X178711938Y-90341716D02*
G01*
X178732557Y-90347971D01*
X178751553Y-90358124D01*
X178768208Y-90371792D01*
X178781876Y-90388447D01*
X178792029Y-90407443D01*
X178798284Y-90428062D01*
X178801000Y-90455640D01*
X178801000Y-90964360D01*
X178798284Y-90991938D01*
X178792029Y-91012557D01*
X178781876Y-91031553D01*
X178768208Y-91048208D01*
X178751553Y-91061876D01*
X178732557Y-91072029D01*
X178711938Y-91078284D01*
X178684360Y-91081000D01*
X178225640Y-91081000D01*
X178198062Y-91078284D01*
X178177443Y-91072029D01*
X178158447Y-91061876D01*
X178141792Y-91048208D01*
X178128124Y-91031553D01*
X178117971Y-91012557D01*
X178111716Y-90991938D01*
X178109000Y-90964360D01*
X178109000Y-90455640D01*
X178111716Y-90428062D01*
X178117971Y-90407443D01*
X178128124Y-90388447D01*
X178141792Y-90371792D01*
X178158447Y-90358124D01*
X178177443Y-90347971D01*
X178198062Y-90341716D01*
X178225640Y-90339000D01*
X178684360Y-90339000D01*
X178711938Y-90341716D01*
G37*
G36*
X177741938Y-90341716D02*
G01*
X177762557Y-90347971D01*
X177781553Y-90358124D01*
X177798208Y-90371792D01*
X177811876Y-90388447D01*
X177822029Y-90407443D01*
X177828284Y-90428062D01*
X177831000Y-90455640D01*
X177831000Y-90964360D01*
X177828284Y-90991938D01*
X177822029Y-91012557D01*
X177811876Y-91031553D01*
X177798208Y-91048208D01*
X177781553Y-91061876D01*
X177762557Y-91072029D01*
X177741938Y-91078284D01*
X177714360Y-91081000D01*
X177255640Y-91081000D01*
X177228062Y-91078284D01*
X177207443Y-91072029D01*
X177188447Y-91061876D01*
X177171792Y-91048208D01*
X177158124Y-91031553D01*
X177147971Y-91012557D01*
X177141716Y-90991938D01*
X177139000Y-90964360D01*
X177139000Y-90455640D01*
X177141716Y-90428062D01*
X177147971Y-90407443D01*
X177158124Y-90388447D01*
X177171792Y-90371792D01*
X177188447Y-90358124D01*
X177207443Y-90347971D01*
X177228062Y-90341716D01*
X177255640Y-90339000D01*
X177714360Y-90339000D01*
X177741938Y-90341716D01*
G37*
G36*
X170947395Y-88745546D02*
G01*
X171120466Y-88817234D01*
X171197818Y-88868919D01*
X171276227Y-88921310D01*
X171408690Y-89053773D01*
X171408691Y-89053775D01*
X171512766Y-89209534D01*
X171584454Y-89382605D01*
X171621000Y-89566333D01*
X171621000Y-89753667D01*
X171584454Y-89937395D01*
X171512766Y-90110466D01*
X171512765Y-90110467D01*
X171408690Y-90266227D01*
X171276227Y-90398690D01*
X171197818Y-90451081D01*
X171120466Y-90502766D01*
X170947395Y-90574454D01*
X170763667Y-90611000D01*
X170576333Y-90611000D01*
X170392605Y-90574454D01*
X170219534Y-90502766D01*
X170142182Y-90451081D01*
X170063773Y-90398690D01*
X169931310Y-90266227D01*
X169827235Y-90110467D01*
X169827234Y-90110466D01*
X169755546Y-89937395D01*
X169719000Y-89753667D01*
X169719000Y-89566333D01*
X169755546Y-89382605D01*
X169827234Y-89209534D01*
X169931309Y-89053775D01*
X169931310Y-89053773D01*
X170063773Y-88921310D01*
X170142182Y-88868919D01*
X170219534Y-88817234D01*
X170392605Y-88745546D01*
X170576333Y-88709000D01*
X170763667Y-88709000D01*
X170947395Y-88745546D01*
G37*
G36*
X177701938Y-89201716D02*
G01*
X177722557Y-89207971D01*
X177741553Y-89218124D01*
X177758208Y-89231792D01*
X177771876Y-89248447D01*
X177782029Y-89267443D01*
X177788284Y-89288062D01*
X177791000Y-89315640D01*
X177791000Y-89824360D01*
X177788284Y-89851938D01*
X177782029Y-89872557D01*
X177771876Y-89891553D01*
X177758208Y-89908208D01*
X177741553Y-89921876D01*
X177722557Y-89932029D01*
X177701938Y-89938284D01*
X177674360Y-89941000D01*
X177215640Y-89941000D01*
X177188062Y-89938284D01*
X177167443Y-89932029D01*
X177148447Y-89921876D01*
X177131792Y-89908208D01*
X177118124Y-89891553D01*
X177107971Y-89872557D01*
X177101716Y-89851938D01*
X177099000Y-89824360D01*
X177099000Y-89315640D01*
X177101716Y-89288062D01*
X177107971Y-89267443D01*
X177118124Y-89248447D01*
X177131792Y-89231792D01*
X177148447Y-89218124D01*
X177167443Y-89207971D01*
X177188062Y-89201716D01*
X177215640Y-89199000D01*
X177674360Y-89199000D01*
X177701938Y-89201716D01*
G37*
G36*
X178671938Y-89201716D02*
G01*
X178692557Y-89207971D01*
X178711553Y-89218124D01*
X178728208Y-89231792D01*
X178741876Y-89248447D01*
X178752029Y-89267443D01*
X178758284Y-89288062D01*
X178761000Y-89315640D01*
X178761000Y-89824360D01*
X178758284Y-89851938D01*
X178752029Y-89872557D01*
X178741876Y-89891553D01*
X178728208Y-89908208D01*
X178711553Y-89921876D01*
X178692557Y-89932029D01*
X178671938Y-89938284D01*
X178644360Y-89941000D01*
X178185640Y-89941000D01*
X178158062Y-89938284D01*
X178137443Y-89932029D01*
X178118447Y-89921876D01*
X178101792Y-89908208D01*
X178088124Y-89891553D01*
X178077971Y-89872557D01*
X178071716Y-89851938D01*
X178069000Y-89824360D01*
X178069000Y-89315640D01*
X178071716Y-89288062D01*
X178077971Y-89267443D01*
X178088124Y-89248447D01*
X178101792Y-89231792D01*
X178118447Y-89218124D01*
X178137443Y-89207971D01*
X178158062Y-89201716D01*
X178185640Y-89199000D01*
X178644360Y-89199000D01*
X178671938Y-89201716D01*
G37*
G36*
X173487395Y-87475546D02*
G01*
X173660466Y-87547234D01*
X173660467Y-87547235D01*
X173816227Y-87651310D01*
X173948690Y-87783773D01*
X173948691Y-87783775D01*
X174052766Y-87939534D01*
X174124454Y-88112605D01*
X174161000Y-88296333D01*
X174161000Y-88483667D01*
X174124454Y-88667395D01*
X174052766Y-88840466D01*
X174052765Y-88840467D01*
X173948690Y-88996227D01*
X173816227Y-89128690D01*
X173737818Y-89181081D01*
X173660466Y-89232766D01*
X173487395Y-89304454D01*
X173303667Y-89341000D01*
X173116333Y-89341000D01*
X172932605Y-89304454D01*
X172759534Y-89232766D01*
X172682182Y-89181081D01*
X172603773Y-89128690D01*
X172471310Y-88996227D01*
X172367235Y-88840467D01*
X172367234Y-88840466D01*
X172295546Y-88667395D01*
X172259000Y-88483667D01*
X172259000Y-88296333D01*
X172295546Y-88112605D01*
X172367234Y-87939534D01*
X172471309Y-87783775D01*
X172471310Y-87783773D01*
X172603773Y-87651310D01*
X172759533Y-87547235D01*
X172759534Y-87547234D01*
X172932605Y-87475546D01*
X173116333Y-87439000D01*
X173303667Y-87439000D01*
X173487395Y-87475546D01*
G37*
G36*
X179275880Y-83259776D02*
G01*
X179656593Y-83335504D01*
X180066249Y-83505189D01*
X180434929Y-83751534D01*
X180748466Y-84065071D01*
X180994811Y-84433751D01*
X181164496Y-84843407D01*
X181251000Y-85278296D01*
X181251000Y-85721704D01*
X181164496Y-86156593D01*
X180994811Y-86566249D01*
X180748466Y-86934929D01*
X180434929Y-87248466D01*
X180066249Y-87494811D01*
X179656593Y-87664496D01*
X179275880Y-87740224D01*
X179221705Y-87751000D01*
X178778295Y-87751000D01*
X178724120Y-87740224D01*
X178343407Y-87664496D01*
X177933751Y-87494811D01*
X177565071Y-87248466D01*
X177251534Y-86934929D01*
X177005189Y-86566249D01*
X176835504Y-86156593D01*
X176749000Y-85721704D01*
X176749000Y-85278296D01*
X176835504Y-84843407D01*
X177005189Y-84433751D01*
X177251534Y-84065071D01*
X177565071Y-83751534D01*
X177933751Y-83505189D01*
X178343407Y-83335504D01*
X178724120Y-83259776D01*
X178778295Y-83249000D01*
X179221705Y-83249000D01*
X179275880Y-83259776D01*
G37*
G36*
X175601000Y-87551000D02*
G01*
X174499000Y-87551000D01*
X174499000Y-85545999D01*
X174496598Y-85521613D01*
X174489485Y-85498164D01*
X174477934Y-85476553D01*
X174462389Y-85457611D01*
X174443447Y-85442066D01*
X174421836Y-85430515D01*
X174398387Y-85423402D01*
X174374001Y-85421000D01*
X172849000Y-85421000D01*
X172849000Y-84319000D01*
X175601000Y-84319000D01*
X175601000Y-87551000D01*
G37*
G36*
X164751000Y-85421000D02*
G01*
X163225999Y-85421000D01*
X163201613Y-85423402D01*
X163178164Y-85430515D01*
X163156553Y-85442066D01*
X163137611Y-85457611D01*
X163122066Y-85476553D01*
X163110515Y-85498164D01*
X163103402Y-85521613D01*
X163101000Y-85545999D01*
X163101000Y-87551000D01*
X161999000Y-87551000D01*
X161999000Y-84319000D01*
X164751000Y-84319000D01*
X164751000Y-85421000D01*
G37*
G36*
X164231938Y-86851716D02*
G01*
X164252557Y-86857971D01*
X164271553Y-86868124D01*
X164288208Y-86881792D01*
X164301876Y-86898447D01*
X164312029Y-86917443D01*
X164318284Y-86938062D01*
X164321000Y-86965640D01*
X164321000Y-87424360D01*
X164318284Y-87451938D01*
X164312029Y-87472557D01*
X164301876Y-87491553D01*
X164288208Y-87508208D01*
X164271553Y-87521876D01*
X164252557Y-87532029D01*
X164231938Y-87538284D01*
X164204360Y-87541000D01*
X163695640Y-87541000D01*
X163668062Y-87538284D01*
X163647443Y-87532029D01*
X163628447Y-87521876D01*
X163611792Y-87508208D01*
X163598124Y-87491553D01*
X163587971Y-87472557D01*
X163581716Y-87451938D01*
X163579000Y-87424360D01*
X163579000Y-86965640D01*
X163581716Y-86938062D01*
X163587971Y-86917443D01*
X163598124Y-86898447D01*
X163611792Y-86881792D01*
X163628447Y-86868124D01*
X163647443Y-86857971D01*
X163668062Y-86851716D01*
X163695640Y-86849000D01*
X164204360Y-86849000D01*
X164231938Y-86851716D01*
G37*
G36*
X165321938Y-86841716D02*
G01*
X165342557Y-86847971D01*
X165361553Y-86858124D01*
X165378208Y-86871792D01*
X165391876Y-86888447D01*
X165402029Y-86907443D01*
X165408284Y-86928062D01*
X165411000Y-86955640D01*
X165411000Y-87414360D01*
X165408284Y-87441938D01*
X165402029Y-87462557D01*
X165391876Y-87481553D01*
X165378208Y-87498208D01*
X165361553Y-87511876D01*
X165342557Y-87522029D01*
X165321938Y-87528284D01*
X165294360Y-87531000D01*
X164785640Y-87531000D01*
X164758062Y-87528284D01*
X164737443Y-87522029D01*
X164718447Y-87511876D01*
X164701792Y-87498208D01*
X164688124Y-87481553D01*
X164677971Y-87462557D01*
X164671716Y-87441938D01*
X164669000Y-87414360D01*
X164669000Y-86955640D01*
X164671716Y-86928062D01*
X164677971Y-86907443D01*
X164688124Y-86888447D01*
X164701792Y-86871792D01*
X164718447Y-86858124D01*
X164737443Y-86847971D01*
X164758062Y-86841716D01*
X164785640Y-86839000D01*
X165294360Y-86839000D01*
X165321938Y-86841716D01*
G37*
G36*
X164231938Y-85881716D02*
G01*
X164252557Y-85887971D01*
X164271553Y-85898124D01*
X164288208Y-85911792D01*
X164301876Y-85928447D01*
X164312029Y-85947443D01*
X164318284Y-85968062D01*
X164321000Y-85995640D01*
X164321000Y-86454360D01*
X164318284Y-86481938D01*
X164312029Y-86502557D01*
X164301876Y-86521553D01*
X164288208Y-86538208D01*
X164271553Y-86551876D01*
X164252557Y-86562029D01*
X164231938Y-86568284D01*
X164204360Y-86571000D01*
X163695640Y-86571000D01*
X163668062Y-86568284D01*
X163647443Y-86562029D01*
X163628447Y-86551876D01*
X163611792Y-86538208D01*
X163598124Y-86521553D01*
X163587971Y-86502557D01*
X163581716Y-86481938D01*
X163579000Y-86454360D01*
X163579000Y-85995640D01*
X163581716Y-85968062D01*
X163587971Y-85947443D01*
X163598124Y-85928447D01*
X163611792Y-85911792D01*
X163628447Y-85898124D01*
X163647443Y-85887971D01*
X163668062Y-85881716D01*
X163695640Y-85879000D01*
X164204360Y-85879000D01*
X164231938Y-85881716D01*
G37*
G36*
X165321938Y-85871716D02*
G01*
X165342557Y-85877971D01*
X165361553Y-85888124D01*
X165378208Y-85901792D01*
X165391876Y-85918447D01*
X165402029Y-85937443D01*
X165408284Y-85958062D01*
X165411000Y-85985640D01*
X165411000Y-86444360D01*
X165408284Y-86471938D01*
X165402029Y-86492557D01*
X165391876Y-86511553D01*
X165378208Y-86528208D01*
X165361553Y-86541876D01*
X165342557Y-86552029D01*
X165321938Y-86558284D01*
X165294360Y-86561000D01*
X164785640Y-86561000D01*
X164758062Y-86558284D01*
X164737443Y-86552029D01*
X164718447Y-86541876D01*
X164701792Y-86528208D01*
X164688124Y-86511553D01*
X164677971Y-86492557D01*
X164671716Y-86471938D01*
X164669000Y-86444360D01*
X164669000Y-85985640D01*
X164671716Y-85958062D01*
X164677971Y-85937443D01*
X164688124Y-85918447D01*
X164701792Y-85901792D01*
X164718447Y-85888124D01*
X164737443Y-85877971D01*
X164758062Y-85871716D01*
X164785640Y-85869000D01*
X165294360Y-85869000D01*
X165321938Y-85871716D01*
G37*
G36*
X160701000Y-85826000D02*
G01*
X151699000Y-85826000D01*
X151699000Y-83974000D01*
X160701000Y-83974000D01*
X160701000Y-85826000D01*
G37*
G36*
X170751000Y-85421000D02*
G01*
X166849000Y-85421000D01*
X166849000Y-84319000D01*
X170751000Y-84319000D01*
X170751000Y-85421000D01*
G37*
M02*
