G04 #@! TF.GenerationSoftware,KiCad,Pcbnew,5.1.5-52549c5~84~ubuntu18.04.1*
G04 #@! TF.CreationDate,2020-05-04T20:07:59+02:00*
G04 #@! TF.ProjectId,rs485_usb_adapter,72733438-355f-4757-9362-5f6164617074,rev?*
G04 #@! TF.SameCoordinates,Original*
G04 #@! TF.FileFunction,Copper,L1,Top*
G04 #@! TF.FilePolarity,Positive*
%FSLAX46Y46*%
G04 Gerber Fmt 4.6, Leading zero omitted, Abs format (unit mm)*
G04 Created by KiCad (PCBNEW 5.1.5-52549c5~84~ubuntu18.04.1) date 2020-05-04 20:07:59*
%MOMM*%
%LPD*%
G04 APERTURE LIST*
%ADD10C,0.100000*%
%ADD11C,4.400000*%
%ADD12R,1.380000X0.450000*%
%ADD13R,2.100000X1.475000*%
%ADD14R,1.900000X2.375000*%
%ADD15R,1.900000X1.175000*%
%ADD16R,1.000000X1.000000*%
%ADD17R,1.650000X1.000000*%
%ADD18R,3.800000X1.000000*%
%ADD19R,1.000000X2.130000*%
%ADD20R,1.000000X3.800000*%
%ADD21C,1.800000*%
%ADD22R,1.800000X1.800000*%
%ADD23R,0.304800X0.812800*%
%ADD24R,3.403600X1.803400*%
%ADD25R,0.450000X1.750000*%
%ADD26C,0.800000*%
%ADD27C,0.250000*%
%ADD28C,0.400000*%
%ADD29C,0.254000*%
G04 APERTURE END LIST*
G04 #@! TA.AperFunction,SMDPad,CuDef*
D10*
G36*
X165226958Y-86890710D02*
G01*
X165241276Y-86892834D01*
X165255317Y-86896351D01*
X165268946Y-86901228D01*
X165282031Y-86907417D01*
X165294447Y-86914858D01*
X165306073Y-86923481D01*
X165316798Y-86933202D01*
X165326519Y-86943927D01*
X165335142Y-86955553D01*
X165342583Y-86967969D01*
X165348772Y-86981054D01*
X165353649Y-86994683D01*
X165357166Y-87008724D01*
X165359290Y-87023042D01*
X165360000Y-87037500D01*
X165360000Y-87332500D01*
X165359290Y-87346958D01*
X165357166Y-87361276D01*
X165353649Y-87375317D01*
X165348772Y-87388946D01*
X165342583Y-87402031D01*
X165335142Y-87414447D01*
X165326519Y-87426073D01*
X165316798Y-87436798D01*
X165306073Y-87446519D01*
X165294447Y-87455142D01*
X165282031Y-87462583D01*
X165268946Y-87468772D01*
X165255317Y-87473649D01*
X165241276Y-87477166D01*
X165226958Y-87479290D01*
X165212500Y-87480000D01*
X164867500Y-87480000D01*
X164853042Y-87479290D01*
X164838724Y-87477166D01*
X164824683Y-87473649D01*
X164811054Y-87468772D01*
X164797969Y-87462583D01*
X164785553Y-87455142D01*
X164773927Y-87446519D01*
X164763202Y-87436798D01*
X164753481Y-87426073D01*
X164744858Y-87414447D01*
X164737417Y-87402031D01*
X164731228Y-87388946D01*
X164726351Y-87375317D01*
X164722834Y-87361276D01*
X164720710Y-87346958D01*
X164720000Y-87332500D01*
X164720000Y-87037500D01*
X164720710Y-87023042D01*
X164722834Y-87008724D01*
X164726351Y-86994683D01*
X164731228Y-86981054D01*
X164737417Y-86967969D01*
X164744858Y-86955553D01*
X164753481Y-86943927D01*
X164763202Y-86933202D01*
X164773927Y-86923481D01*
X164785553Y-86914858D01*
X164797969Y-86907417D01*
X164811054Y-86901228D01*
X164824683Y-86896351D01*
X164838724Y-86892834D01*
X164853042Y-86890710D01*
X164867500Y-86890000D01*
X165212500Y-86890000D01*
X165226958Y-86890710D01*
G37*
G04 #@! TD.AperFunction*
G04 #@! TA.AperFunction,SMDPad,CuDef*
G36*
X165226958Y-85920710D02*
G01*
X165241276Y-85922834D01*
X165255317Y-85926351D01*
X165268946Y-85931228D01*
X165282031Y-85937417D01*
X165294447Y-85944858D01*
X165306073Y-85953481D01*
X165316798Y-85963202D01*
X165326519Y-85973927D01*
X165335142Y-85985553D01*
X165342583Y-85997969D01*
X165348772Y-86011054D01*
X165353649Y-86024683D01*
X165357166Y-86038724D01*
X165359290Y-86053042D01*
X165360000Y-86067500D01*
X165360000Y-86362500D01*
X165359290Y-86376958D01*
X165357166Y-86391276D01*
X165353649Y-86405317D01*
X165348772Y-86418946D01*
X165342583Y-86432031D01*
X165335142Y-86444447D01*
X165326519Y-86456073D01*
X165316798Y-86466798D01*
X165306073Y-86476519D01*
X165294447Y-86485142D01*
X165282031Y-86492583D01*
X165268946Y-86498772D01*
X165255317Y-86503649D01*
X165241276Y-86507166D01*
X165226958Y-86509290D01*
X165212500Y-86510000D01*
X164867500Y-86510000D01*
X164853042Y-86509290D01*
X164838724Y-86507166D01*
X164824683Y-86503649D01*
X164811054Y-86498772D01*
X164797969Y-86492583D01*
X164785553Y-86485142D01*
X164773927Y-86476519D01*
X164763202Y-86466798D01*
X164753481Y-86456073D01*
X164744858Y-86444447D01*
X164737417Y-86432031D01*
X164731228Y-86418946D01*
X164726351Y-86405317D01*
X164722834Y-86391276D01*
X164720710Y-86376958D01*
X164720000Y-86362500D01*
X164720000Y-86067500D01*
X164720710Y-86053042D01*
X164722834Y-86038724D01*
X164726351Y-86024683D01*
X164731228Y-86011054D01*
X164737417Y-85997969D01*
X164744858Y-85985553D01*
X164753481Y-85973927D01*
X164763202Y-85963202D01*
X164773927Y-85953481D01*
X164785553Y-85944858D01*
X164797969Y-85937417D01*
X164811054Y-85931228D01*
X164824683Y-85926351D01*
X164838724Y-85922834D01*
X164853042Y-85920710D01*
X164867500Y-85920000D01*
X165212500Y-85920000D01*
X165226958Y-85920710D01*
G37*
G04 #@! TD.AperFunction*
G04 #@! TA.AperFunction,SMDPad,CuDef*
G36*
X164136958Y-85930710D02*
G01*
X164151276Y-85932834D01*
X164165317Y-85936351D01*
X164178946Y-85941228D01*
X164192031Y-85947417D01*
X164204447Y-85954858D01*
X164216073Y-85963481D01*
X164226798Y-85973202D01*
X164236519Y-85983927D01*
X164245142Y-85995553D01*
X164252583Y-86007969D01*
X164258772Y-86021054D01*
X164263649Y-86034683D01*
X164267166Y-86048724D01*
X164269290Y-86063042D01*
X164270000Y-86077500D01*
X164270000Y-86372500D01*
X164269290Y-86386958D01*
X164267166Y-86401276D01*
X164263649Y-86415317D01*
X164258772Y-86428946D01*
X164252583Y-86442031D01*
X164245142Y-86454447D01*
X164236519Y-86466073D01*
X164226798Y-86476798D01*
X164216073Y-86486519D01*
X164204447Y-86495142D01*
X164192031Y-86502583D01*
X164178946Y-86508772D01*
X164165317Y-86513649D01*
X164151276Y-86517166D01*
X164136958Y-86519290D01*
X164122500Y-86520000D01*
X163777500Y-86520000D01*
X163763042Y-86519290D01*
X163748724Y-86517166D01*
X163734683Y-86513649D01*
X163721054Y-86508772D01*
X163707969Y-86502583D01*
X163695553Y-86495142D01*
X163683927Y-86486519D01*
X163673202Y-86476798D01*
X163663481Y-86466073D01*
X163654858Y-86454447D01*
X163647417Y-86442031D01*
X163641228Y-86428946D01*
X163636351Y-86415317D01*
X163632834Y-86401276D01*
X163630710Y-86386958D01*
X163630000Y-86372500D01*
X163630000Y-86077500D01*
X163630710Y-86063042D01*
X163632834Y-86048724D01*
X163636351Y-86034683D01*
X163641228Y-86021054D01*
X163647417Y-86007969D01*
X163654858Y-85995553D01*
X163663481Y-85983927D01*
X163673202Y-85973202D01*
X163683927Y-85963481D01*
X163695553Y-85954858D01*
X163707969Y-85947417D01*
X163721054Y-85941228D01*
X163734683Y-85936351D01*
X163748724Y-85932834D01*
X163763042Y-85930710D01*
X163777500Y-85930000D01*
X164122500Y-85930000D01*
X164136958Y-85930710D01*
G37*
G04 #@! TD.AperFunction*
G04 #@! TA.AperFunction,SMDPad,CuDef*
G36*
X164136958Y-86900710D02*
G01*
X164151276Y-86902834D01*
X164165317Y-86906351D01*
X164178946Y-86911228D01*
X164192031Y-86917417D01*
X164204447Y-86924858D01*
X164216073Y-86933481D01*
X164226798Y-86943202D01*
X164236519Y-86953927D01*
X164245142Y-86965553D01*
X164252583Y-86977969D01*
X164258772Y-86991054D01*
X164263649Y-87004683D01*
X164267166Y-87018724D01*
X164269290Y-87033042D01*
X164270000Y-87047500D01*
X164270000Y-87342500D01*
X164269290Y-87356958D01*
X164267166Y-87371276D01*
X164263649Y-87385317D01*
X164258772Y-87398946D01*
X164252583Y-87412031D01*
X164245142Y-87424447D01*
X164236519Y-87436073D01*
X164226798Y-87446798D01*
X164216073Y-87456519D01*
X164204447Y-87465142D01*
X164192031Y-87472583D01*
X164178946Y-87478772D01*
X164165317Y-87483649D01*
X164151276Y-87487166D01*
X164136958Y-87489290D01*
X164122500Y-87490000D01*
X163777500Y-87490000D01*
X163763042Y-87489290D01*
X163748724Y-87487166D01*
X163734683Y-87483649D01*
X163721054Y-87478772D01*
X163707969Y-87472583D01*
X163695553Y-87465142D01*
X163683927Y-87456519D01*
X163673202Y-87446798D01*
X163663481Y-87436073D01*
X163654858Y-87424447D01*
X163647417Y-87412031D01*
X163641228Y-87398946D01*
X163636351Y-87385317D01*
X163632834Y-87371276D01*
X163630710Y-87356958D01*
X163630000Y-87342500D01*
X163630000Y-87047500D01*
X163630710Y-87033042D01*
X163632834Y-87018724D01*
X163636351Y-87004683D01*
X163641228Y-86991054D01*
X163647417Y-86977969D01*
X163654858Y-86965553D01*
X163663481Y-86953927D01*
X163673202Y-86943202D01*
X163683927Y-86933481D01*
X163695553Y-86924858D01*
X163707969Y-86917417D01*
X163721054Y-86911228D01*
X163734683Y-86906351D01*
X163748724Y-86902834D01*
X163763042Y-86900710D01*
X163777500Y-86900000D01*
X164122500Y-86900000D01*
X164136958Y-86900710D01*
G37*
G04 #@! TD.AperFunction*
D11*
X147500000Y-97400000D03*
X179000000Y-85500000D03*
D12*
X149360000Y-87100000D03*
X149360000Y-87750000D03*
X149360000Y-88400000D03*
X149360000Y-89050000D03*
X149360000Y-89700000D03*
D13*
X149000000Y-85937500D03*
X149000000Y-90862500D03*
D14*
X146700000Y-85490000D03*
X146700000Y-91310000D03*
D15*
X146700000Y-87560000D03*
X146700000Y-89240000D03*
D16*
X162550000Y-84870000D03*
X175050000Y-84870000D03*
X175050000Y-98330000D03*
X162550000Y-98330000D03*
D17*
X163875000Y-84870000D03*
X163875000Y-98330000D03*
D18*
X168800000Y-84870000D03*
X168800000Y-98330000D03*
D17*
X173725000Y-84870000D03*
X173725000Y-98330000D03*
D19*
X162550000Y-86435000D03*
X175050000Y-86435000D03*
D20*
X162550000Y-91600000D03*
X175050000Y-91600000D03*
D19*
X162550000Y-96765000D03*
X175050000Y-96765000D03*
D21*
X173210000Y-88390000D03*
X170670000Y-89660000D03*
D22*
X170670000Y-94740000D03*
D21*
X173210000Y-93470000D03*
X170670000Y-92200000D03*
X173210000Y-90930000D03*
G04 #@! TA.AperFunction,SMDPad,CuDef*
D10*
G36*
X164386958Y-95520710D02*
G01*
X164401276Y-95522834D01*
X164415317Y-95526351D01*
X164428946Y-95531228D01*
X164442031Y-95537417D01*
X164454447Y-95544858D01*
X164466073Y-95553481D01*
X164476798Y-95563202D01*
X164486519Y-95573927D01*
X164495142Y-95585553D01*
X164502583Y-95597969D01*
X164508772Y-95611054D01*
X164513649Y-95624683D01*
X164517166Y-95638724D01*
X164519290Y-95653042D01*
X164520000Y-95667500D01*
X164520000Y-95962500D01*
X164519290Y-95976958D01*
X164517166Y-95991276D01*
X164513649Y-96005317D01*
X164508772Y-96018946D01*
X164502583Y-96032031D01*
X164495142Y-96044447D01*
X164486519Y-96056073D01*
X164476798Y-96066798D01*
X164466073Y-96076519D01*
X164454447Y-96085142D01*
X164442031Y-96092583D01*
X164428946Y-96098772D01*
X164415317Y-96103649D01*
X164401276Y-96107166D01*
X164386958Y-96109290D01*
X164372500Y-96110000D01*
X164027500Y-96110000D01*
X164013042Y-96109290D01*
X163998724Y-96107166D01*
X163984683Y-96103649D01*
X163971054Y-96098772D01*
X163957969Y-96092583D01*
X163945553Y-96085142D01*
X163933927Y-96076519D01*
X163923202Y-96066798D01*
X163913481Y-96056073D01*
X163904858Y-96044447D01*
X163897417Y-96032031D01*
X163891228Y-96018946D01*
X163886351Y-96005317D01*
X163882834Y-95991276D01*
X163880710Y-95976958D01*
X163880000Y-95962500D01*
X163880000Y-95667500D01*
X163880710Y-95653042D01*
X163882834Y-95638724D01*
X163886351Y-95624683D01*
X163891228Y-95611054D01*
X163897417Y-95597969D01*
X163904858Y-95585553D01*
X163913481Y-95573927D01*
X163923202Y-95563202D01*
X163933927Y-95553481D01*
X163945553Y-95544858D01*
X163957969Y-95537417D01*
X163971054Y-95531228D01*
X163984683Y-95526351D01*
X163998724Y-95522834D01*
X164013042Y-95520710D01*
X164027500Y-95520000D01*
X164372500Y-95520000D01*
X164386958Y-95520710D01*
G37*
G04 #@! TD.AperFunction*
G04 #@! TA.AperFunction,SMDPad,CuDef*
G36*
X164386958Y-96490710D02*
G01*
X164401276Y-96492834D01*
X164415317Y-96496351D01*
X164428946Y-96501228D01*
X164442031Y-96507417D01*
X164454447Y-96514858D01*
X164466073Y-96523481D01*
X164476798Y-96533202D01*
X164486519Y-96543927D01*
X164495142Y-96555553D01*
X164502583Y-96567969D01*
X164508772Y-96581054D01*
X164513649Y-96594683D01*
X164517166Y-96608724D01*
X164519290Y-96623042D01*
X164520000Y-96637500D01*
X164520000Y-96932500D01*
X164519290Y-96946958D01*
X164517166Y-96961276D01*
X164513649Y-96975317D01*
X164508772Y-96988946D01*
X164502583Y-97002031D01*
X164495142Y-97014447D01*
X164486519Y-97026073D01*
X164476798Y-97036798D01*
X164466073Y-97046519D01*
X164454447Y-97055142D01*
X164442031Y-97062583D01*
X164428946Y-97068772D01*
X164415317Y-97073649D01*
X164401276Y-97077166D01*
X164386958Y-97079290D01*
X164372500Y-97080000D01*
X164027500Y-97080000D01*
X164013042Y-97079290D01*
X163998724Y-97077166D01*
X163984683Y-97073649D01*
X163971054Y-97068772D01*
X163957969Y-97062583D01*
X163945553Y-97055142D01*
X163933927Y-97046519D01*
X163923202Y-97036798D01*
X163913481Y-97026073D01*
X163904858Y-97014447D01*
X163897417Y-97002031D01*
X163891228Y-96988946D01*
X163886351Y-96975317D01*
X163882834Y-96961276D01*
X163880710Y-96946958D01*
X163880000Y-96932500D01*
X163880000Y-96637500D01*
X163880710Y-96623042D01*
X163882834Y-96608724D01*
X163886351Y-96594683D01*
X163891228Y-96581054D01*
X163897417Y-96567969D01*
X163904858Y-96555553D01*
X163913481Y-96543927D01*
X163923202Y-96533202D01*
X163933927Y-96523481D01*
X163945553Y-96514858D01*
X163957969Y-96507417D01*
X163971054Y-96501228D01*
X163984683Y-96496351D01*
X163998724Y-96492834D01*
X164013042Y-96490710D01*
X164027500Y-96490000D01*
X164372500Y-96490000D01*
X164386958Y-96490710D01*
G37*
G04 #@! TD.AperFunction*
G04 #@! TA.AperFunction,SMDPad,CuDef*
G36*
X160276958Y-95080710D02*
G01*
X160291276Y-95082834D01*
X160305317Y-95086351D01*
X160318946Y-95091228D01*
X160332031Y-95097417D01*
X160344447Y-95104858D01*
X160356073Y-95113481D01*
X160366798Y-95123202D01*
X160376519Y-95133927D01*
X160385142Y-95145553D01*
X160392583Y-95157969D01*
X160398772Y-95171054D01*
X160403649Y-95184683D01*
X160407166Y-95198724D01*
X160409290Y-95213042D01*
X160410000Y-95227500D01*
X160410000Y-95572500D01*
X160409290Y-95586958D01*
X160407166Y-95601276D01*
X160403649Y-95615317D01*
X160398772Y-95628946D01*
X160392583Y-95642031D01*
X160385142Y-95654447D01*
X160376519Y-95666073D01*
X160366798Y-95676798D01*
X160356073Y-95686519D01*
X160344447Y-95695142D01*
X160332031Y-95702583D01*
X160318946Y-95708772D01*
X160305317Y-95713649D01*
X160291276Y-95717166D01*
X160276958Y-95719290D01*
X160262500Y-95720000D01*
X159967500Y-95720000D01*
X159953042Y-95719290D01*
X159938724Y-95717166D01*
X159924683Y-95713649D01*
X159911054Y-95708772D01*
X159897969Y-95702583D01*
X159885553Y-95695142D01*
X159873927Y-95686519D01*
X159863202Y-95676798D01*
X159853481Y-95666073D01*
X159844858Y-95654447D01*
X159837417Y-95642031D01*
X159831228Y-95628946D01*
X159826351Y-95615317D01*
X159822834Y-95601276D01*
X159820710Y-95586958D01*
X159820000Y-95572500D01*
X159820000Y-95227500D01*
X159820710Y-95213042D01*
X159822834Y-95198724D01*
X159826351Y-95184683D01*
X159831228Y-95171054D01*
X159837417Y-95157969D01*
X159844858Y-95145553D01*
X159853481Y-95133927D01*
X159863202Y-95123202D01*
X159873927Y-95113481D01*
X159885553Y-95104858D01*
X159897969Y-95097417D01*
X159911054Y-95091228D01*
X159924683Y-95086351D01*
X159938724Y-95082834D01*
X159953042Y-95080710D01*
X159967500Y-95080000D01*
X160262500Y-95080000D01*
X160276958Y-95080710D01*
G37*
G04 #@! TD.AperFunction*
G04 #@! TA.AperFunction,SMDPad,CuDef*
G36*
X161246958Y-95080710D02*
G01*
X161261276Y-95082834D01*
X161275317Y-95086351D01*
X161288946Y-95091228D01*
X161302031Y-95097417D01*
X161314447Y-95104858D01*
X161326073Y-95113481D01*
X161336798Y-95123202D01*
X161346519Y-95133927D01*
X161355142Y-95145553D01*
X161362583Y-95157969D01*
X161368772Y-95171054D01*
X161373649Y-95184683D01*
X161377166Y-95198724D01*
X161379290Y-95213042D01*
X161380000Y-95227500D01*
X161380000Y-95572500D01*
X161379290Y-95586958D01*
X161377166Y-95601276D01*
X161373649Y-95615317D01*
X161368772Y-95628946D01*
X161362583Y-95642031D01*
X161355142Y-95654447D01*
X161346519Y-95666073D01*
X161336798Y-95676798D01*
X161326073Y-95686519D01*
X161314447Y-95695142D01*
X161302031Y-95702583D01*
X161288946Y-95708772D01*
X161275317Y-95713649D01*
X161261276Y-95717166D01*
X161246958Y-95719290D01*
X161232500Y-95720000D01*
X160937500Y-95720000D01*
X160923042Y-95719290D01*
X160908724Y-95717166D01*
X160894683Y-95713649D01*
X160881054Y-95708772D01*
X160867969Y-95702583D01*
X160855553Y-95695142D01*
X160843927Y-95686519D01*
X160833202Y-95676798D01*
X160823481Y-95666073D01*
X160814858Y-95654447D01*
X160807417Y-95642031D01*
X160801228Y-95628946D01*
X160796351Y-95615317D01*
X160792834Y-95601276D01*
X160790710Y-95586958D01*
X160790000Y-95572500D01*
X160790000Y-95227500D01*
X160790710Y-95213042D01*
X160792834Y-95198724D01*
X160796351Y-95184683D01*
X160801228Y-95171054D01*
X160807417Y-95157969D01*
X160814858Y-95145553D01*
X160823481Y-95133927D01*
X160833202Y-95123202D01*
X160843927Y-95113481D01*
X160855553Y-95104858D01*
X160867969Y-95097417D01*
X160881054Y-95091228D01*
X160894683Y-95086351D01*
X160908724Y-95082834D01*
X160923042Y-95080710D01*
X160937500Y-95080000D01*
X161232500Y-95080000D01*
X161246958Y-95080710D01*
G37*
G04 #@! TD.AperFunction*
G04 #@! TA.AperFunction,SMDPad,CuDef*
G36*
X160276958Y-97680710D02*
G01*
X160291276Y-97682834D01*
X160305317Y-97686351D01*
X160318946Y-97691228D01*
X160332031Y-97697417D01*
X160344447Y-97704858D01*
X160356073Y-97713481D01*
X160366798Y-97723202D01*
X160376519Y-97733927D01*
X160385142Y-97745553D01*
X160392583Y-97757969D01*
X160398772Y-97771054D01*
X160403649Y-97784683D01*
X160407166Y-97798724D01*
X160409290Y-97813042D01*
X160410000Y-97827500D01*
X160410000Y-98172500D01*
X160409290Y-98186958D01*
X160407166Y-98201276D01*
X160403649Y-98215317D01*
X160398772Y-98228946D01*
X160392583Y-98242031D01*
X160385142Y-98254447D01*
X160376519Y-98266073D01*
X160366798Y-98276798D01*
X160356073Y-98286519D01*
X160344447Y-98295142D01*
X160332031Y-98302583D01*
X160318946Y-98308772D01*
X160305317Y-98313649D01*
X160291276Y-98317166D01*
X160276958Y-98319290D01*
X160262500Y-98320000D01*
X159967500Y-98320000D01*
X159953042Y-98319290D01*
X159938724Y-98317166D01*
X159924683Y-98313649D01*
X159911054Y-98308772D01*
X159897969Y-98302583D01*
X159885553Y-98295142D01*
X159873927Y-98286519D01*
X159863202Y-98276798D01*
X159853481Y-98266073D01*
X159844858Y-98254447D01*
X159837417Y-98242031D01*
X159831228Y-98228946D01*
X159826351Y-98215317D01*
X159822834Y-98201276D01*
X159820710Y-98186958D01*
X159820000Y-98172500D01*
X159820000Y-97827500D01*
X159820710Y-97813042D01*
X159822834Y-97798724D01*
X159826351Y-97784683D01*
X159831228Y-97771054D01*
X159837417Y-97757969D01*
X159844858Y-97745553D01*
X159853481Y-97733927D01*
X159863202Y-97723202D01*
X159873927Y-97713481D01*
X159885553Y-97704858D01*
X159897969Y-97697417D01*
X159911054Y-97691228D01*
X159924683Y-97686351D01*
X159938724Y-97682834D01*
X159953042Y-97680710D01*
X159967500Y-97680000D01*
X160262500Y-97680000D01*
X160276958Y-97680710D01*
G37*
G04 #@! TD.AperFunction*
G04 #@! TA.AperFunction,SMDPad,CuDef*
G36*
X161246958Y-97680710D02*
G01*
X161261276Y-97682834D01*
X161275317Y-97686351D01*
X161288946Y-97691228D01*
X161302031Y-97697417D01*
X161314447Y-97704858D01*
X161326073Y-97713481D01*
X161336798Y-97723202D01*
X161346519Y-97733927D01*
X161355142Y-97745553D01*
X161362583Y-97757969D01*
X161368772Y-97771054D01*
X161373649Y-97784683D01*
X161377166Y-97798724D01*
X161379290Y-97813042D01*
X161380000Y-97827500D01*
X161380000Y-98172500D01*
X161379290Y-98186958D01*
X161377166Y-98201276D01*
X161373649Y-98215317D01*
X161368772Y-98228946D01*
X161362583Y-98242031D01*
X161355142Y-98254447D01*
X161346519Y-98266073D01*
X161336798Y-98276798D01*
X161326073Y-98286519D01*
X161314447Y-98295142D01*
X161302031Y-98302583D01*
X161288946Y-98308772D01*
X161275317Y-98313649D01*
X161261276Y-98317166D01*
X161246958Y-98319290D01*
X161232500Y-98320000D01*
X160937500Y-98320000D01*
X160923042Y-98319290D01*
X160908724Y-98317166D01*
X160894683Y-98313649D01*
X160881054Y-98308772D01*
X160867969Y-98302583D01*
X160855553Y-98295142D01*
X160843927Y-98286519D01*
X160833202Y-98276798D01*
X160823481Y-98266073D01*
X160814858Y-98254447D01*
X160807417Y-98242031D01*
X160801228Y-98228946D01*
X160796351Y-98215317D01*
X160792834Y-98201276D01*
X160790710Y-98186958D01*
X160790000Y-98172500D01*
X160790000Y-97827500D01*
X160790710Y-97813042D01*
X160792834Y-97798724D01*
X160796351Y-97784683D01*
X160801228Y-97771054D01*
X160807417Y-97757969D01*
X160814858Y-97745553D01*
X160823481Y-97733927D01*
X160833202Y-97723202D01*
X160843927Y-97713481D01*
X160855553Y-97704858D01*
X160867969Y-97697417D01*
X160881054Y-97691228D01*
X160894683Y-97686351D01*
X160908724Y-97682834D01*
X160923042Y-97680710D01*
X160937500Y-97680000D01*
X161232500Y-97680000D01*
X161246958Y-97680710D01*
G37*
G04 #@! TD.AperFunction*
D23*
X165160000Y-92357800D03*
X165660000Y-92357800D03*
X166160000Y-92357800D03*
X166660000Y-92357800D03*
X167160000Y-92357800D03*
X167660000Y-92357800D03*
X167660000Y-89462200D03*
X167160000Y-89462200D03*
X166660000Y-89462200D03*
X166160000Y-89462200D03*
X165660000Y-89462200D03*
X165160000Y-89462200D03*
D24*
X166410000Y-90910000D03*
D25*
X160425000Y-84900000D03*
X159775000Y-84900000D03*
X159125000Y-84900000D03*
X158475000Y-84900000D03*
X157825000Y-84900000D03*
X157175000Y-84900000D03*
X156525000Y-84900000D03*
X155875000Y-84900000D03*
X155225000Y-84900000D03*
X154575000Y-84900000D03*
X153925000Y-84900000D03*
X153275000Y-84900000D03*
X152625000Y-84900000D03*
X151975000Y-84900000D03*
X151975000Y-92100000D03*
X152625000Y-92100000D03*
X153275000Y-92100000D03*
X153925000Y-92100000D03*
X154575000Y-92100000D03*
X155225000Y-92100000D03*
X155875000Y-92100000D03*
X156525000Y-92100000D03*
X157175000Y-92100000D03*
X157825000Y-92100000D03*
X158475000Y-92100000D03*
X159125000Y-92100000D03*
X159775000Y-92100000D03*
X160425000Y-92100000D03*
G04 #@! TA.AperFunction,SMDPad,CuDef*
D10*
G36*
X150186958Y-93320710D02*
G01*
X150201276Y-93322834D01*
X150215317Y-93326351D01*
X150228946Y-93331228D01*
X150242031Y-93337417D01*
X150254447Y-93344858D01*
X150266073Y-93353481D01*
X150276798Y-93363202D01*
X150286519Y-93373927D01*
X150295142Y-93385553D01*
X150302583Y-93397969D01*
X150308772Y-93411054D01*
X150313649Y-93424683D01*
X150317166Y-93438724D01*
X150319290Y-93453042D01*
X150320000Y-93467500D01*
X150320000Y-93762500D01*
X150319290Y-93776958D01*
X150317166Y-93791276D01*
X150313649Y-93805317D01*
X150308772Y-93818946D01*
X150302583Y-93832031D01*
X150295142Y-93844447D01*
X150286519Y-93856073D01*
X150276798Y-93866798D01*
X150266073Y-93876519D01*
X150254447Y-93885142D01*
X150242031Y-93892583D01*
X150228946Y-93898772D01*
X150215317Y-93903649D01*
X150201276Y-93907166D01*
X150186958Y-93909290D01*
X150172500Y-93910000D01*
X149827500Y-93910000D01*
X149813042Y-93909290D01*
X149798724Y-93907166D01*
X149784683Y-93903649D01*
X149771054Y-93898772D01*
X149757969Y-93892583D01*
X149745553Y-93885142D01*
X149733927Y-93876519D01*
X149723202Y-93866798D01*
X149713481Y-93856073D01*
X149704858Y-93844447D01*
X149697417Y-93832031D01*
X149691228Y-93818946D01*
X149686351Y-93805317D01*
X149682834Y-93791276D01*
X149680710Y-93776958D01*
X149680000Y-93762500D01*
X149680000Y-93467500D01*
X149680710Y-93453042D01*
X149682834Y-93438724D01*
X149686351Y-93424683D01*
X149691228Y-93411054D01*
X149697417Y-93397969D01*
X149704858Y-93385553D01*
X149713481Y-93373927D01*
X149723202Y-93363202D01*
X149733927Y-93353481D01*
X149745553Y-93344858D01*
X149757969Y-93337417D01*
X149771054Y-93331228D01*
X149784683Y-93326351D01*
X149798724Y-93322834D01*
X149813042Y-93320710D01*
X149827500Y-93320000D01*
X150172500Y-93320000D01*
X150186958Y-93320710D01*
G37*
G04 #@! TD.AperFunction*
G04 #@! TA.AperFunction,SMDPad,CuDef*
G36*
X150186958Y-94290710D02*
G01*
X150201276Y-94292834D01*
X150215317Y-94296351D01*
X150228946Y-94301228D01*
X150242031Y-94307417D01*
X150254447Y-94314858D01*
X150266073Y-94323481D01*
X150276798Y-94333202D01*
X150286519Y-94343927D01*
X150295142Y-94355553D01*
X150302583Y-94367969D01*
X150308772Y-94381054D01*
X150313649Y-94394683D01*
X150317166Y-94408724D01*
X150319290Y-94423042D01*
X150320000Y-94437500D01*
X150320000Y-94732500D01*
X150319290Y-94746958D01*
X150317166Y-94761276D01*
X150313649Y-94775317D01*
X150308772Y-94788946D01*
X150302583Y-94802031D01*
X150295142Y-94814447D01*
X150286519Y-94826073D01*
X150276798Y-94836798D01*
X150266073Y-94846519D01*
X150254447Y-94855142D01*
X150242031Y-94862583D01*
X150228946Y-94868772D01*
X150215317Y-94873649D01*
X150201276Y-94877166D01*
X150186958Y-94879290D01*
X150172500Y-94880000D01*
X149827500Y-94880000D01*
X149813042Y-94879290D01*
X149798724Y-94877166D01*
X149784683Y-94873649D01*
X149771054Y-94868772D01*
X149757969Y-94862583D01*
X149745553Y-94855142D01*
X149733927Y-94846519D01*
X149723202Y-94836798D01*
X149713481Y-94826073D01*
X149704858Y-94814447D01*
X149697417Y-94802031D01*
X149691228Y-94788946D01*
X149686351Y-94775317D01*
X149682834Y-94761276D01*
X149680710Y-94746958D01*
X149680000Y-94732500D01*
X149680000Y-94437500D01*
X149680710Y-94423042D01*
X149682834Y-94408724D01*
X149686351Y-94394683D01*
X149691228Y-94381054D01*
X149697417Y-94367969D01*
X149704858Y-94355553D01*
X149713481Y-94343927D01*
X149723202Y-94333202D01*
X149733927Y-94323481D01*
X149745553Y-94314858D01*
X149757969Y-94307417D01*
X149771054Y-94301228D01*
X149784683Y-94296351D01*
X149798724Y-94292834D01*
X149813042Y-94290710D01*
X149827500Y-94290000D01*
X150172500Y-94290000D01*
X150186958Y-94290710D01*
G37*
G04 #@! TD.AperFunction*
G04 #@! TA.AperFunction,SMDPad,CuDef*
G36*
X146876958Y-93380710D02*
G01*
X146891276Y-93382834D01*
X146905317Y-93386351D01*
X146918946Y-93391228D01*
X146932031Y-93397417D01*
X146944447Y-93404858D01*
X146956073Y-93413481D01*
X146966798Y-93423202D01*
X146976519Y-93433927D01*
X146985142Y-93445553D01*
X146992583Y-93457969D01*
X146998772Y-93471054D01*
X147003649Y-93484683D01*
X147007166Y-93498724D01*
X147009290Y-93513042D01*
X147010000Y-93527500D01*
X147010000Y-93872500D01*
X147009290Y-93886958D01*
X147007166Y-93901276D01*
X147003649Y-93915317D01*
X146998772Y-93928946D01*
X146992583Y-93942031D01*
X146985142Y-93954447D01*
X146976519Y-93966073D01*
X146966798Y-93976798D01*
X146956073Y-93986519D01*
X146944447Y-93995142D01*
X146932031Y-94002583D01*
X146918946Y-94008772D01*
X146905317Y-94013649D01*
X146891276Y-94017166D01*
X146876958Y-94019290D01*
X146862500Y-94020000D01*
X146567500Y-94020000D01*
X146553042Y-94019290D01*
X146538724Y-94017166D01*
X146524683Y-94013649D01*
X146511054Y-94008772D01*
X146497969Y-94002583D01*
X146485553Y-93995142D01*
X146473927Y-93986519D01*
X146463202Y-93976798D01*
X146453481Y-93966073D01*
X146444858Y-93954447D01*
X146437417Y-93942031D01*
X146431228Y-93928946D01*
X146426351Y-93915317D01*
X146422834Y-93901276D01*
X146420710Y-93886958D01*
X146420000Y-93872500D01*
X146420000Y-93527500D01*
X146420710Y-93513042D01*
X146422834Y-93498724D01*
X146426351Y-93484683D01*
X146431228Y-93471054D01*
X146437417Y-93457969D01*
X146444858Y-93445553D01*
X146453481Y-93433927D01*
X146463202Y-93423202D01*
X146473927Y-93413481D01*
X146485553Y-93404858D01*
X146497969Y-93397417D01*
X146511054Y-93391228D01*
X146524683Y-93386351D01*
X146538724Y-93382834D01*
X146553042Y-93380710D01*
X146567500Y-93380000D01*
X146862500Y-93380000D01*
X146876958Y-93380710D01*
G37*
G04 #@! TD.AperFunction*
G04 #@! TA.AperFunction,SMDPad,CuDef*
G36*
X147846958Y-93380710D02*
G01*
X147861276Y-93382834D01*
X147875317Y-93386351D01*
X147888946Y-93391228D01*
X147902031Y-93397417D01*
X147914447Y-93404858D01*
X147926073Y-93413481D01*
X147936798Y-93423202D01*
X147946519Y-93433927D01*
X147955142Y-93445553D01*
X147962583Y-93457969D01*
X147968772Y-93471054D01*
X147973649Y-93484683D01*
X147977166Y-93498724D01*
X147979290Y-93513042D01*
X147980000Y-93527500D01*
X147980000Y-93872500D01*
X147979290Y-93886958D01*
X147977166Y-93901276D01*
X147973649Y-93915317D01*
X147968772Y-93928946D01*
X147962583Y-93942031D01*
X147955142Y-93954447D01*
X147946519Y-93966073D01*
X147936798Y-93976798D01*
X147926073Y-93986519D01*
X147914447Y-93995142D01*
X147902031Y-94002583D01*
X147888946Y-94008772D01*
X147875317Y-94013649D01*
X147861276Y-94017166D01*
X147846958Y-94019290D01*
X147832500Y-94020000D01*
X147537500Y-94020000D01*
X147523042Y-94019290D01*
X147508724Y-94017166D01*
X147494683Y-94013649D01*
X147481054Y-94008772D01*
X147467969Y-94002583D01*
X147455553Y-93995142D01*
X147443927Y-93986519D01*
X147433202Y-93976798D01*
X147423481Y-93966073D01*
X147414858Y-93954447D01*
X147407417Y-93942031D01*
X147401228Y-93928946D01*
X147396351Y-93915317D01*
X147392834Y-93901276D01*
X147390710Y-93886958D01*
X147390000Y-93872500D01*
X147390000Y-93527500D01*
X147390710Y-93513042D01*
X147392834Y-93498724D01*
X147396351Y-93484683D01*
X147401228Y-93471054D01*
X147407417Y-93457969D01*
X147414858Y-93445553D01*
X147423481Y-93433927D01*
X147433202Y-93423202D01*
X147443927Y-93413481D01*
X147455553Y-93404858D01*
X147467969Y-93397417D01*
X147481054Y-93391228D01*
X147494683Y-93386351D01*
X147508724Y-93382834D01*
X147523042Y-93380710D01*
X147537500Y-93380000D01*
X147832500Y-93380000D01*
X147846958Y-93380710D01*
G37*
G04 #@! TD.AperFunction*
G04 #@! TA.AperFunction,SMDPad,CuDef*
G36*
X149086958Y-94290710D02*
G01*
X149101276Y-94292834D01*
X149115317Y-94296351D01*
X149128946Y-94301228D01*
X149142031Y-94307417D01*
X149154447Y-94314858D01*
X149166073Y-94323481D01*
X149176798Y-94333202D01*
X149186519Y-94343927D01*
X149195142Y-94355553D01*
X149202583Y-94367969D01*
X149208772Y-94381054D01*
X149213649Y-94394683D01*
X149217166Y-94408724D01*
X149219290Y-94423042D01*
X149220000Y-94437500D01*
X149220000Y-94732500D01*
X149219290Y-94746958D01*
X149217166Y-94761276D01*
X149213649Y-94775317D01*
X149208772Y-94788946D01*
X149202583Y-94802031D01*
X149195142Y-94814447D01*
X149186519Y-94826073D01*
X149176798Y-94836798D01*
X149166073Y-94846519D01*
X149154447Y-94855142D01*
X149142031Y-94862583D01*
X149128946Y-94868772D01*
X149115317Y-94873649D01*
X149101276Y-94877166D01*
X149086958Y-94879290D01*
X149072500Y-94880000D01*
X148727500Y-94880000D01*
X148713042Y-94879290D01*
X148698724Y-94877166D01*
X148684683Y-94873649D01*
X148671054Y-94868772D01*
X148657969Y-94862583D01*
X148645553Y-94855142D01*
X148633927Y-94846519D01*
X148623202Y-94836798D01*
X148613481Y-94826073D01*
X148604858Y-94814447D01*
X148597417Y-94802031D01*
X148591228Y-94788946D01*
X148586351Y-94775317D01*
X148582834Y-94761276D01*
X148580710Y-94746958D01*
X148580000Y-94732500D01*
X148580000Y-94437500D01*
X148580710Y-94423042D01*
X148582834Y-94408724D01*
X148586351Y-94394683D01*
X148591228Y-94381054D01*
X148597417Y-94367969D01*
X148604858Y-94355553D01*
X148613481Y-94343927D01*
X148623202Y-94333202D01*
X148633927Y-94323481D01*
X148645553Y-94314858D01*
X148657969Y-94307417D01*
X148671054Y-94301228D01*
X148684683Y-94296351D01*
X148698724Y-94292834D01*
X148713042Y-94290710D01*
X148727500Y-94290000D01*
X149072500Y-94290000D01*
X149086958Y-94290710D01*
G37*
G04 #@! TD.AperFunction*
G04 #@! TA.AperFunction,SMDPad,CuDef*
G36*
X149086958Y-93320710D02*
G01*
X149101276Y-93322834D01*
X149115317Y-93326351D01*
X149128946Y-93331228D01*
X149142031Y-93337417D01*
X149154447Y-93344858D01*
X149166073Y-93353481D01*
X149176798Y-93363202D01*
X149186519Y-93373927D01*
X149195142Y-93385553D01*
X149202583Y-93397969D01*
X149208772Y-93411054D01*
X149213649Y-93424683D01*
X149217166Y-93438724D01*
X149219290Y-93453042D01*
X149220000Y-93467500D01*
X149220000Y-93762500D01*
X149219290Y-93776958D01*
X149217166Y-93791276D01*
X149213649Y-93805317D01*
X149208772Y-93818946D01*
X149202583Y-93832031D01*
X149195142Y-93844447D01*
X149186519Y-93856073D01*
X149176798Y-93866798D01*
X149166073Y-93876519D01*
X149154447Y-93885142D01*
X149142031Y-93892583D01*
X149128946Y-93898772D01*
X149115317Y-93903649D01*
X149101276Y-93907166D01*
X149086958Y-93909290D01*
X149072500Y-93910000D01*
X148727500Y-93910000D01*
X148713042Y-93909290D01*
X148698724Y-93907166D01*
X148684683Y-93903649D01*
X148671054Y-93898772D01*
X148657969Y-93892583D01*
X148645553Y-93885142D01*
X148633927Y-93876519D01*
X148623202Y-93866798D01*
X148613481Y-93856073D01*
X148604858Y-93844447D01*
X148597417Y-93832031D01*
X148591228Y-93818946D01*
X148586351Y-93805317D01*
X148582834Y-93791276D01*
X148580710Y-93776958D01*
X148580000Y-93762500D01*
X148580000Y-93467500D01*
X148580710Y-93453042D01*
X148582834Y-93438724D01*
X148586351Y-93424683D01*
X148591228Y-93411054D01*
X148597417Y-93397969D01*
X148604858Y-93385553D01*
X148613481Y-93373927D01*
X148623202Y-93363202D01*
X148633927Y-93353481D01*
X148645553Y-93344858D01*
X148657969Y-93337417D01*
X148671054Y-93331228D01*
X148684683Y-93326351D01*
X148698724Y-93322834D01*
X148713042Y-93320710D01*
X148727500Y-93320000D01*
X149072500Y-93320000D01*
X149086958Y-93320710D01*
G37*
G04 #@! TD.AperFunction*
D22*
X153195000Y-97870000D03*
D21*
X154465000Y-95330000D03*
X155735000Y-97870000D03*
X157005000Y-95330000D03*
G04 #@! TA.AperFunction,SMDPad,CuDef*
D10*
G36*
X160276958Y-93880710D02*
G01*
X160291276Y-93882834D01*
X160305317Y-93886351D01*
X160318946Y-93891228D01*
X160332031Y-93897417D01*
X160344447Y-93904858D01*
X160356073Y-93913481D01*
X160366798Y-93923202D01*
X160376519Y-93933927D01*
X160385142Y-93945553D01*
X160392583Y-93957969D01*
X160398772Y-93971054D01*
X160403649Y-93984683D01*
X160407166Y-93998724D01*
X160409290Y-94013042D01*
X160410000Y-94027500D01*
X160410000Y-94372500D01*
X160409290Y-94386958D01*
X160407166Y-94401276D01*
X160403649Y-94415317D01*
X160398772Y-94428946D01*
X160392583Y-94442031D01*
X160385142Y-94454447D01*
X160376519Y-94466073D01*
X160366798Y-94476798D01*
X160356073Y-94486519D01*
X160344447Y-94495142D01*
X160332031Y-94502583D01*
X160318946Y-94508772D01*
X160305317Y-94513649D01*
X160291276Y-94517166D01*
X160276958Y-94519290D01*
X160262500Y-94520000D01*
X159967500Y-94520000D01*
X159953042Y-94519290D01*
X159938724Y-94517166D01*
X159924683Y-94513649D01*
X159911054Y-94508772D01*
X159897969Y-94502583D01*
X159885553Y-94495142D01*
X159873927Y-94486519D01*
X159863202Y-94476798D01*
X159853481Y-94466073D01*
X159844858Y-94454447D01*
X159837417Y-94442031D01*
X159831228Y-94428946D01*
X159826351Y-94415317D01*
X159822834Y-94401276D01*
X159820710Y-94386958D01*
X159820000Y-94372500D01*
X159820000Y-94027500D01*
X159820710Y-94013042D01*
X159822834Y-93998724D01*
X159826351Y-93984683D01*
X159831228Y-93971054D01*
X159837417Y-93957969D01*
X159844858Y-93945553D01*
X159853481Y-93933927D01*
X159863202Y-93923202D01*
X159873927Y-93913481D01*
X159885553Y-93904858D01*
X159897969Y-93897417D01*
X159911054Y-93891228D01*
X159924683Y-93886351D01*
X159938724Y-93882834D01*
X159953042Y-93880710D01*
X159967500Y-93880000D01*
X160262500Y-93880000D01*
X160276958Y-93880710D01*
G37*
G04 #@! TD.AperFunction*
G04 #@! TA.AperFunction,SMDPad,CuDef*
G36*
X161246958Y-93880710D02*
G01*
X161261276Y-93882834D01*
X161275317Y-93886351D01*
X161288946Y-93891228D01*
X161302031Y-93897417D01*
X161314447Y-93904858D01*
X161326073Y-93913481D01*
X161336798Y-93923202D01*
X161346519Y-93933927D01*
X161355142Y-93945553D01*
X161362583Y-93957969D01*
X161368772Y-93971054D01*
X161373649Y-93984683D01*
X161377166Y-93998724D01*
X161379290Y-94013042D01*
X161380000Y-94027500D01*
X161380000Y-94372500D01*
X161379290Y-94386958D01*
X161377166Y-94401276D01*
X161373649Y-94415317D01*
X161368772Y-94428946D01*
X161362583Y-94442031D01*
X161355142Y-94454447D01*
X161346519Y-94466073D01*
X161336798Y-94476798D01*
X161326073Y-94486519D01*
X161314447Y-94495142D01*
X161302031Y-94502583D01*
X161288946Y-94508772D01*
X161275317Y-94513649D01*
X161261276Y-94517166D01*
X161246958Y-94519290D01*
X161232500Y-94520000D01*
X160937500Y-94520000D01*
X160923042Y-94519290D01*
X160908724Y-94517166D01*
X160894683Y-94513649D01*
X160881054Y-94508772D01*
X160867969Y-94502583D01*
X160855553Y-94495142D01*
X160843927Y-94486519D01*
X160833202Y-94476798D01*
X160823481Y-94466073D01*
X160814858Y-94454447D01*
X160807417Y-94442031D01*
X160801228Y-94428946D01*
X160796351Y-94415317D01*
X160792834Y-94401276D01*
X160790710Y-94386958D01*
X160790000Y-94372500D01*
X160790000Y-94027500D01*
X160790710Y-94013042D01*
X160792834Y-93998724D01*
X160796351Y-93984683D01*
X160801228Y-93971054D01*
X160807417Y-93957969D01*
X160814858Y-93945553D01*
X160823481Y-93933927D01*
X160833202Y-93923202D01*
X160843927Y-93913481D01*
X160855553Y-93904858D01*
X160867969Y-93897417D01*
X160881054Y-93891228D01*
X160894683Y-93886351D01*
X160908724Y-93882834D01*
X160923042Y-93880710D01*
X160937500Y-93880000D01*
X161232500Y-93880000D01*
X161246958Y-93880710D01*
G37*
G04 #@! TD.AperFunction*
G04 #@! TA.AperFunction,SMDPad,CuDef*
G36*
X161246958Y-96380710D02*
G01*
X161261276Y-96382834D01*
X161275317Y-96386351D01*
X161288946Y-96391228D01*
X161302031Y-96397417D01*
X161314447Y-96404858D01*
X161326073Y-96413481D01*
X161336798Y-96423202D01*
X161346519Y-96433927D01*
X161355142Y-96445553D01*
X161362583Y-96457969D01*
X161368772Y-96471054D01*
X161373649Y-96484683D01*
X161377166Y-96498724D01*
X161379290Y-96513042D01*
X161380000Y-96527500D01*
X161380000Y-96872500D01*
X161379290Y-96886958D01*
X161377166Y-96901276D01*
X161373649Y-96915317D01*
X161368772Y-96928946D01*
X161362583Y-96942031D01*
X161355142Y-96954447D01*
X161346519Y-96966073D01*
X161336798Y-96976798D01*
X161326073Y-96986519D01*
X161314447Y-96995142D01*
X161302031Y-97002583D01*
X161288946Y-97008772D01*
X161275317Y-97013649D01*
X161261276Y-97017166D01*
X161246958Y-97019290D01*
X161232500Y-97020000D01*
X160937500Y-97020000D01*
X160923042Y-97019290D01*
X160908724Y-97017166D01*
X160894683Y-97013649D01*
X160881054Y-97008772D01*
X160867969Y-97002583D01*
X160855553Y-96995142D01*
X160843927Y-96986519D01*
X160833202Y-96976798D01*
X160823481Y-96966073D01*
X160814858Y-96954447D01*
X160807417Y-96942031D01*
X160801228Y-96928946D01*
X160796351Y-96915317D01*
X160792834Y-96901276D01*
X160790710Y-96886958D01*
X160790000Y-96872500D01*
X160790000Y-96527500D01*
X160790710Y-96513042D01*
X160792834Y-96498724D01*
X160796351Y-96484683D01*
X160801228Y-96471054D01*
X160807417Y-96457969D01*
X160814858Y-96445553D01*
X160823481Y-96433927D01*
X160833202Y-96423202D01*
X160843927Y-96413481D01*
X160855553Y-96404858D01*
X160867969Y-96397417D01*
X160881054Y-96391228D01*
X160894683Y-96386351D01*
X160908724Y-96382834D01*
X160923042Y-96380710D01*
X160937500Y-96380000D01*
X161232500Y-96380000D01*
X161246958Y-96380710D01*
G37*
G04 #@! TD.AperFunction*
G04 #@! TA.AperFunction,SMDPad,CuDef*
G36*
X160276958Y-96380710D02*
G01*
X160291276Y-96382834D01*
X160305317Y-96386351D01*
X160318946Y-96391228D01*
X160332031Y-96397417D01*
X160344447Y-96404858D01*
X160356073Y-96413481D01*
X160366798Y-96423202D01*
X160376519Y-96433927D01*
X160385142Y-96445553D01*
X160392583Y-96457969D01*
X160398772Y-96471054D01*
X160403649Y-96484683D01*
X160407166Y-96498724D01*
X160409290Y-96513042D01*
X160410000Y-96527500D01*
X160410000Y-96872500D01*
X160409290Y-96886958D01*
X160407166Y-96901276D01*
X160403649Y-96915317D01*
X160398772Y-96928946D01*
X160392583Y-96942031D01*
X160385142Y-96954447D01*
X160376519Y-96966073D01*
X160366798Y-96976798D01*
X160356073Y-96986519D01*
X160344447Y-96995142D01*
X160332031Y-97002583D01*
X160318946Y-97008772D01*
X160305317Y-97013649D01*
X160291276Y-97017166D01*
X160276958Y-97019290D01*
X160262500Y-97020000D01*
X159967500Y-97020000D01*
X159953042Y-97019290D01*
X159938724Y-97017166D01*
X159924683Y-97013649D01*
X159911054Y-97008772D01*
X159897969Y-97002583D01*
X159885553Y-96995142D01*
X159873927Y-96986519D01*
X159863202Y-96976798D01*
X159853481Y-96966073D01*
X159844858Y-96954447D01*
X159837417Y-96942031D01*
X159831228Y-96928946D01*
X159826351Y-96915317D01*
X159822834Y-96901276D01*
X159820710Y-96886958D01*
X159820000Y-96872500D01*
X159820000Y-96527500D01*
X159820710Y-96513042D01*
X159822834Y-96498724D01*
X159826351Y-96484683D01*
X159831228Y-96471054D01*
X159837417Y-96457969D01*
X159844858Y-96445553D01*
X159853481Y-96433927D01*
X159863202Y-96423202D01*
X159873927Y-96413481D01*
X159885553Y-96404858D01*
X159897969Y-96397417D01*
X159911054Y-96391228D01*
X159924683Y-96386351D01*
X159938724Y-96382834D01*
X159953042Y-96380710D01*
X159967500Y-96380000D01*
X160262500Y-96380000D01*
X160276958Y-96380710D01*
G37*
G04 #@! TD.AperFunction*
G04 #@! TA.AperFunction,SMDPad,CuDef*
G36*
X178576958Y-89250710D02*
G01*
X178591276Y-89252834D01*
X178605317Y-89256351D01*
X178618946Y-89261228D01*
X178632031Y-89267417D01*
X178644447Y-89274858D01*
X178656073Y-89283481D01*
X178666798Y-89293202D01*
X178676519Y-89303927D01*
X178685142Y-89315553D01*
X178692583Y-89327969D01*
X178698772Y-89341054D01*
X178703649Y-89354683D01*
X178707166Y-89368724D01*
X178709290Y-89383042D01*
X178710000Y-89397500D01*
X178710000Y-89742500D01*
X178709290Y-89756958D01*
X178707166Y-89771276D01*
X178703649Y-89785317D01*
X178698772Y-89798946D01*
X178692583Y-89812031D01*
X178685142Y-89824447D01*
X178676519Y-89836073D01*
X178666798Y-89846798D01*
X178656073Y-89856519D01*
X178644447Y-89865142D01*
X178632031Y-89872583D01*
X178618946Y-89878772D01*
X178605317Y-89883649D01*
X178591276Y-89887166D01*
X178576958Y-89889290D01*
X178562500Y-89890000D01*
X178267500Y-89890000D01*
X178253042Y-89889290D01*
X178238724Y-89887166D01*
X178224683Y-89883649D01*
X178211054Y-89878772D01*
X178197969Y-89872583D01*
X178185553Y-89865142D01*
X178173927Y-89856519D01*
X178163202Y-89846798D01*
X178153481Y-89836073D01*
X178144858Y-89824447D01*
X178137417Y-89812031D01*
X178131228Y-89798946D01*
X178126351Y-89785317D01*
X178122834Y-89771276D01*
X178120710Y-89756958D01*
X178120000Y-89742500D01*
X178120000Y-89397500D01*
X178120710Y-89383042D01*
X178122834Y-89368724D01*
X178126351Y-89354683D01*
X178131228Y-89341054D01*
X178137417Y-89327969D01*
X178144858Y-89315553D01*
X178153481Y-89303927D01*
X178163202Y-89293202D01*
X178173927Y-89283481D01*
X178185553Y-89274858D01*
X178197969Y-89267417D01*
X178211054Y-89261228D01*
X178224683Y-89256351D01*
X178238724Y-89252834D01*
X178253042Y-89250710D01*
X178267500Y-89250000D01*
X178562500Y-89250000D01*
X178576958Y-89250710D01*
G37*
G04 #@! TD.AperFunction*
G04 #@! TA.AperFunction,SMDPad,CuDef*
G36*
X177606958Y-89250710D02*
G01*
X177621276Y-89252834D01*
X177635317Y-89256351D01*
X177648946Y-89261228D01*
X177662031Y-89267417D01*
X177674447Y-89274858D01*
X177686073Y-89283481D01*
X177696798Y-89293202D01*
X177706519Y-89303927D01*
X177715142Y-89315553D01*
X177722583Y-89327969D01*
X177728772Y-89341054D01*
X177733649Y-89354683D01*
X177737166Y-89368724D01*
X177739290Y-89383042D01*
X177740000Y-89397500D01*
X177740000Y-89742500D01*
X177739290Y-89756958D01*
X177737166Y-89771276D01*
X177733649Y-89785317D01*
X177728772Y-89798946D01*
X177722583Y-89812031D01*
X177715142Y-89824447D01*
X177706519Y-89836073D01*
X177696798Y-89846798D01*
X177686073Y-89856519D01*
X177674447Y-89865142D01*
X177662031Y-89872583D01*
X177648946Y-89878772D01*
X177635317Y-89883649D01*
X177621276Y-89887166D01*
X177606958Y-89889290D01*
X177592500Y-89890000D01*
X177297500Y-89890000D01*
X177283042Y-89889290D01*
X177268724Y-89887166D01*
X177254683Y-89883649D01*
X177241054Y-89878772D01*
X177227969Y-89872583D01*
X177215553Y-89865142D01*
X177203927Y-89856519D01*
X177193202Y-89846798D01*
X177183481Y-89836073D01*
X177174858Y-89824447D01*
X177167417Y-89812031D01*
X177161228Y-89798946D01*
X177156351Y-89785317D01*
X177152834Y-89771276D01*
X177150710Y-89756958D01*
X177150000Y-89742500D01*
X177150000Y-89397500D01*
X177150710Y-89383042D01*
X177152834Y-89368724D01*
X177156351Y-89354683D01*
X177161228Y-89341054D01*
X177167417Y-89327969D01*
X177174858Y-89315553D01*
X177183481Y-89303927D01*
X177193202Y-89293202D01*
X177203927Y-89283481D01*
X177215553Y-89274858D01*
X177227969Y-89267417D01*
X177241054Y-89261228D01*
X177254683Y-89256351D01*
X177268724Y-89252834D01*
X177283042Y-89250710D01*
X177297500Y-89250000D01*
X177592500Y-89250000D01*
X177606958Y-89250710D01*
G37*
G04 #@! TD.AperFunction*
G04 #@! TA.AperFunction,SMDPad,CuDef*
G36*
X177646958Y-92770710D02*
G01*
X177661276Y-92772834D01*
X177675317Y-92776351D01*
X177688946Y-92781228D01*
X177702031Y-92787417D01*
X177714447Y-92794858D01*
X177726073Y-92803481D01*
X177736798Y-92813202D01*
X177746519Y-92823927D01*
X177755142Y-92835553D01*
X177762583Y-92847969D01*
X177768772Y-92861054D01*
X177773649Y-92874683D01*
X177777166Y-92888724D01*
X177779290Y-92903042D01*
X177780000Y-92917500D01*
X177780000Y-93262500D01*
X177779290Y-93276958D01*
X177777166Y-93291276D01*
X177773649Y-93305317D01*
X177768772Y-93318946D01*
X177762583Y-93332031D01*
X177755142Y-93344447D01*
X177746519Y-93356073D01*
X177736798Y-93366798D01*
X177726073Y-93376519D01*
X177714447Y-93385142D01*
X177702031Y-93392583D01*
X177688946Y-93398772D01*
X177675317Y-93403649D01*
X177661276Y-93407166D01*
X177646958Y-93409290D01*
X177632500Y-93410000D01*
X177337500Y-93410000D01*
X177323042Y-93409290D01*
X177308724Y-93407166D01*
X177294683Y-93403649D01*
X177281054Y-93398772D01*
X177267969Y-93392583D01*
X177255553Y-93385142D01*
X177243927Y-93376519D01*
X177233202Y-93366798D01*
X177223481Y-93356073D01*
X177214858Y-93344447D01*
X177207417Y-93332031D01*
X177201228Y-93318946D01*
X177196351Y-93305317D01*
X177192834Y-93291276D01*
X177190710Y-93276958D01*
X177190000Y-93262500D01*
X177190000Y-92917500D01*
X177190710Y-92903042D01*
X177192834Y-92888724D01*
X177196351Y-92874683D01*
X177201228Y-92861054D01*
X177207417Y-92847969D01*
X177214858Y-92835553D01*
X177223481Y-92823927D01*
X177233202Y-92813202D01*
X177243927Y-92803481D01*
X177255553Y-92794858D01*
X177267969Y-92787417D01*
X177281054Y-92781228D01*
X177294683Y-92776351D01*
X177308724Y-92772834D01*
X177323042Y-92770710D01*
X177337500Y-92770000D01*
X177632500Y-92770000D01*
X177646958Y-92770710D01*
G37*
G04 #@! TD.AperFunction*
G04 #@! TA.AperFunction,SMDPad,CuDef*
G36*
X178616958Y-92770710D02*
G01*
X178631276Y-92772834D01*
X178645317Y-92776351D01*
X178658946Y-92781228D01*
X178672031Y-92787417D01*
X178684447Y-92794858D01*
X178696073Y-92803481D01*
X178706798Y-92813202D01*
X178716519Y-92823927D01*
X178725142Y-92835553D01*
X178732583Y-92847969D01*
X178738772Y-92861054D01*
X178743649Y-92874683D01*
X178747166Y-92888724D01*
X178749290Y-92903042D01*
X178750000Y-92917500D01*
X178750000Y-93262500D01*
X178749290Y-93276958D01*
X178747166Y-93291276D01*
X178743649Y-93305317D01*
X178738772Y-93318946D01*
X178732583Y-93332031D01*
X178725142Y-93344447D01*
X178716519Y-93356073D01*
X178706798Y-93366798D01*
X178696073Y-93376519D01*
X178684447Y-93385142D01*
X178672031Y-93392583D01*
X178658946Y-93398772D01*
X178645317Y-93403649D01*
X178631276Y-93407166D01*
X178616958Y-93409290D01*
X178602500Y-93410000D01*
X178307500Y-93410000D01*
X178293042Y-93409290D01*
X178278724Y-93407166D01*
X178264683Y-93403649D01*
X178251054Y-93398772D01*
X178237969Y-93392583D01*
X178225553Y-93385142D01*
X178213927Y-93376519D01*
X178203202Y-93366798D01*
X178193481Y-93356073D01*
X178184858Y-93344447D01*
X178177417Y-93332031D01*
X178171228Y-93318946D01*
X178166351Y-93305317D01*
X178162834Y-93291276D01*
X178160710Y-93276958D01*
X178160000Y-93262500D01*
X178160000Y-92917500D01*
X178160710Y-92903042D01*
X178162834Y-92888724D01*
X178166351Y-92874683D01*
X178171228Y-92861054D01*
X178177417Y-92847969D01*
X178184858Y-92835553D01*
X178193481Y-92823927D01*
X178203202Y-92813202D01*
X178213927Y-92803481D01*
X178225553Y-92794858D01*
X178237969Y-92787417D01*
X178251054Y-92781228D01*
X178264683Y-92776351D01*
X178278724Y-92772834D01*
X178293042Y-92770710D01*
X178307500Y-92770000D01*
X178602500Y-92770000D01*
X178616958Y-92770710D01*
G37*
G04 #@! TD.AperFunction*
G04 #@! TA.AperFunction,SMDPad,CuDef*
G36*
X178616958Y-90390710D02*
G01*
X178631276Y-90392834D01*
X178645317Y-90396351D01*
X178658946Y-90401228D01*
X178672031Y-90407417D01*
X178684447Y-90414858D01*
X178696073Y-90423481D01*
X178706798Y-90433202D01*
X178716519Y-90443927D01*
X178725142Y-90455553D01*
X178732583Y-90467969D01*
X178738772Y-90481054D01*
X178743649Y-90494683D01*
X178747166Y-90508724D01*
X178749290Y-90523042D01*
X178750000Y-90537500D01*
X178750000Y-90882500D01*
X178749290Y-90896958D01*
X178747166Y-90911276D01*
X178743649Y-90925317D01*
X178738772Y-90938946D01*
X178732583Y-90952031D01*
X178725142Y-90964447D01*
X178716519Y-90976073D01*
X178706798Y-90986798D01*
X178696073Y-90996519D01*
X178684447Y-91005142D01*
X178672031Y-91012583D01*
X178658946Y-91018772D01*
X178645317Y-91023649D01*
X178631276Y-91027166D01*
X178616958Y-91029290D01*
X178602500Y-91030000D01*
X178307500Y-91030000D01*
X178293042Y-91029290D01*
X178278724Y-91027166D01*
X178264683Y-91023649D01*
X178251054Y-91018772D01*
X178237969Y-91012583D01*
X178225553Y-91005142D01*
X178213927Y-90996519D01*
X178203202Y-90986798D01*
X178193481Y-90976073D01*
X178184858Y-90964447D01*
X178177417Y-90952031D01*
X178171228Y-90938946D01*
X178166351Y-90925317D01*
X178162834Y-90911276D01*
X178160710Y-90896958D01*
X178160000Y-90882500D01*
X178160000Y-90537500D01*
X178160710Y-90523042D01*
X178162834Y-90508724D01*
X178166351Y-90494683D01*
X178171228Y-90481054D01*
X178177417Y-90467969D01*
X178184858Y-90455553D01*
X178193481Y-90443927D01*
X178203202Y-90433202D01*
X178213927Y-90423481D01*
X178225553Y-90414858D01*
X178237969Y-90407417D01*
X178251054Y-90401228D01*
X178264683Y-90396351D01*
X178278724Y-90392834D01*
X178293042Y-90390710D01*
X178307500Y-90390000D01*
X178602500Y-90390000D01*
X178616958Y-90390710D01*
G37*
G04 #@! TD.AperFunction*
G04 #@! TA.AperFunction,SMDPad,CuDef*
G36*
X177646958Y-90390710D02*
G01*
X177661276Y-90392834D01*
X177675317Y-90396351D01*
X177688946Y-90401228D01*
X177702031Y-90407417D01*
X177714447Y-90414858D01*
X177726073Y-90423481D01*
X177736798Y-90433202D01*
X177746519Y-90443927D01*
X177755142Y-90455553D01*
X177762583Y-90467969D01*
X177768772Y-90481054D01*
X177773649Y-90494683D01*
X177777166Y-90508724D01*
X177779290Y-90523042D01*
X177780000Y-90537500D01*
X177780000Y-90882500D01*
X177779290Y-90896958D01*
X177777166Y-90911276D01*
X177773649Y-90925317D01*
X177768772Y-90938946D01*
X177762583Y-90952031D01*
X177755142Y-90964447D01*
X177746519Y-90976073D01*
X177736798Y-90986798D01*
X177726073Y-90996519D01*
X177714447Y-91005142D01*
X177702031Y-91012583D01*
X177688946Y-91018772D01*
X177675317Y-91023649D01*
X177661276Y-91027166D01*
X177646958Y-91029290D01*
X177632500Y-91030000D01*
X177337500Y-91030000D01*
X177323042Y-91029290D01*
X177308724Y-91027166D01*
X177294683Y-91023649D01*
X177281054Y-91018772D01*
X177267969Y-91012583D01*
X177255553Y-91005142D01*
X177243927Y-90996519D01*
X177233202Y-90986798D01*
X177223481Y-90976073D01*
X177214858Y-90964447D01*
X177207417Y-90952031D01*
X177201228Y-90938946D01*
X177196351Y-90925317D01*
X177192834Y-90911276D01*
X177190710Y-90896958D01*
X177190000Y-90882500D01*
X177190000Y-90537500D01*
X177190710Y-90523042D01*
X177192834Y-90508724D01*
X177196351Y-90494683D01*
X177201228Y-90481054D01*
X177207417Y-90467969D01*
X177214858Y-90455553D01*
X177223481Y-90443927D01*
X177233202Y-90433202D01*
X177243927Y-90423481D01*
X177255553Y-90414858D01*
X177267969Y-90407417D01*
X177281054Y-90401228D01*
X177294683Y-90396351D01*
X177308724Y-90392834D01*
X177323042Y-90390710D01*
X177337500Y-90390000D01*
X177632500Y-90390000D01*
X177646958Y-90390710D01*
G37*
G04 #@! TD.AperFunction*
G04 #@! TA.AperFunction,SMDPad,CuDef*
G36*
X177616958Y-91590710D02*
G01*
X177631276Y-91592834D01*
X177645317Y-91596351D01*
X177658946Y-91601228D01*
X177672031Y-91607417D01*
X177684447Y-91614858D01*
X177696073Y-91623481D01*
X177706798Y-91633202D01*
X177716519Y-91643927D01*
X177725142Y-91655553D01*
X177732583Y-91667969D01*
X177738772Y-91681054D01*
X177743649Y-91694683D01*
X177747166Y-91708724D01*
X177749290Y-91723042D01*
X177750000Y-91737500D01*
X177750000Y-92082500D01*
X177749290Y-92096958D01*
X177747166Y-92111276D01*
X177743649Y-92125317D01*
X177738772Y-92138946D01*
X177732583Y-92152031D01*
X177725142Y-92164447D01*
X177716519Y-92176073D01*
X177706798Y-92186798D01*
X177696073Y-92196519D01*
X177684447Y-92205142D01*
X177672031Y-92212583D01*
X177658946Y-92218772D01*
X177645317Y-92223649D01*
X177631276Y-92227166D01*
X177616958Y-92229290D01*
X177602500Y-92230000D01*
X177307500Y-92230000D01*
X177293042Y-92229290D01*
X177278724Y-92227166D01*
X177264683Y-92223649D01*
X177251054Y-92218772D01*
X177237969Y-92212583D01*
X177225553Y-92205142D01*
X177213927Y-92196519D01*
X177203202Y-92186798D01*
X177193481Y-92176073D01*
X177184858Y-92164447D01*
X177177417Y-92152031D01*
X177171228Y-92138946D01*
X177166351Y-92125317D01*
X177162834Y-92111276D01*
X177160710Y-92096958D01*
X177160000Y-92082500D01*
X177160000Y-91737500D01*
X177160710Y-91723042D01*
X177162834Y-91708724D01*
X177166351Y-91694683D01*
X177171228Y-91681054D01*
X177177417Y-91667969D01*
X177184858Y-91655553D01*
X177193481Y-91643927D01*
X177203202Y-91633202D01*
X177213927Y-91623481D01*
X177225553Y-91614858D01*
X177237969Y-91607417D01*
X177251054Y-91601228D01*
X177264683Y-91596351D01*
X177278724Y-91592834D01*
X177293042Y-91590710D01*
X177307500Y-91590000D01*
X177602500Y-91590000D01*
X177616958Y-91590710D01*
G37*
G04 #@! TD.AperFunction*
G04 #@! TA.AperFunction,SMDPad,CuDef*
G36*
X178586958Y-91590710D02*
G01*
X178601276Y-91592834D01*
X178615317Y-91596351D01*
X178628946Y-91601228D01*
X178642031Y-91607417D01*
X178654447Y-91614858D01*
X178666073Y-91623481D01*
X178676798Y-91633202D01*
X178686519Y-91643927D01*
X178695142Y-91655553D01*
X178702583Y-91667969D01*
X178708772Y-91681054D01*
X178713649Y-91694683D01*
X178717166Y-91708724D01*
X178719290Y-91723042D01*
X178720000Y-91737500D01*
X178720000Y-92082500D01*
X178719290Y-92096958D01*
X178717166Y-92111276D01*
X178713649Y-92125317D01*
X178708772Y-92138946D01*
X178702583Y-92152031D01*
X178695142Y-92164447D01*
X178686519Y-92176073D01*
X178676798Y-92186798D01*
X178666073Y-92196519D01*
X178654447Y-92205142D01*
X178642031Y-92212583D01*
X178628946Y-92218772D01*
X178615317Y-92223649D01*
X178601276Y-92227166D01*
X178586958Y-92229290D01*
X178572500Y-92230000D01*
X178277500Y-92230000D01*
X178263042Y-92229290D01*
X178248724Y-92227166D01*
X178234683Y-92223649D01*
X178221054Y-92218772D01*
X178207969Y-92212583D01*
X178195553Y-92205142D01*
X178183927Y-92196519D01*
X178173202Y-92186798D01*
X178163481Y-92176073D01*
X178154858Y-92164447D01*
X178147417Y-92152031D01*
X178141228Y-92138946D01*
X178136351Y-92125317D01*
X178132834Y-92111276D01*
X178130710Y-92096958D01*
X178130000Y-92082500D01*
X178130000Y-91737500D01*
X178130710Y-91723042D01*
X178132834Y-91708724D01*
X178136351Y-91694683D01*
X178141228Y-91681054D01*
X178147417Y-91667969D01*
X178154858Y-91655553D01*
X178163481Y-91643927D01*
X178173202Y-91633202D01*
X178183927Y-91623481D01*
X178195553Y-91614858D01*
X178207969Y-91607417D01*
X178221054Y-91601228D01*
X178234683Y-91596351D01*
X178248724Y-91592834D01*
X178263042Y-91590710D01*
X178277500Y-91590000D01*
X178572500Y-91590000D01*
X178586958Y-91590710D01*
G37*
G04 #@! TD.AperFunction*
D26*
X175040000Y-93010000D03*
X153100000Y-93600000D03*
X148500000Y-92600000D03*
X165300000Y-96800000D03*
X159220000Y-86820000D03*
X155300000Y-90073002D03*
X164930000Y-88440000D03*
X162600000Y-92700000D03*
X162600000Y-91800000D03*
X162600000Y-90900000D03*
X162500000Y-96200000D03*
X162500000Y-97300000D03*
X162500000Y-98300000D03*
X163500000Y-98400000D03*
X164500000Y-98400000D03*
X167800000Y-98400000D03*
X168800000Y-98400000D03*
X169800000Y-98400000D03*
X172900000Y-98400000D03*
X174100000Y-98400000D03*
X175100000Y-98100000D03*
X175100000Y-97100000D03*
X175100000Y-96100000D03*
X175100000Y-86900000D03*
X175100000Y-85800000D03*
X174400000Y-84900000D03*
X173400000Y-84900000D03*
X170400000Y-84900000D03*
X169400000Y-84900000D03*
X162600000Y-86000000D03*
X162800000Y-84870000D03*
X163875000Y-84870000D03*
X164900000Y-84900000D03*
X167300000Y-84870000D03*
X168300000Y-84870000D03*
X171400000Y-84900000D03*
X171900000Y-98400000D03*
X170800000Y-98400000D03*
X175020000Y-92050000D03*
X160320000Y-86620000D03*
X157800000Y-86500000D03*
X165700000Y-93970000D03*
X152309847Y-86609847D03*
X176300000Y-92000000D03*
X171730000Y-86400000D03*
X176340000Y-90730000D03*
X169000000Y-87360000D03*
X176280000Y-89570000D03*
X176080000Y-95110000D03*
X166300000Y-96900000D03*
X150900000Y-87200000D03*
X150000000Y-92600000D03*
X150165685Y-95600000D03*
X156500000Y-86500000D03*
X158700000Y-90798002D03*
X159200000Y-98400000D03*
X166520000Y-90790000D03*
X165930000Y-86300000D03*
X168430000Y-94970000D03*
X159070000Y-94560000D03*
X164680000Y-93550000D03*
X164120000Y-92370000D03*
D27*
X153275000Y-90975000D02*
X153275000Y-92100000D01*
X153350001Y-90899999D02*
X153275000Y-90975000D01*
X154473003Y-90899999D02*
X153350001Y-90899999D01*
X158475000Y-84900000D02*
X158475000Y-86101998D01*
X155300000Y-90073002D02*
X154473003Y-90899999D01*
X153275000Y-92100000D02*
X153275000Y-93425000D01*
X153275000Y-93425000D02*
X153100000Y-93600000D01*
X148500000Y-92885000D02*
X147685000Y-93700000D01*
X148500000Y-92600000D02*
X148500000Y-92885000D01*
X165300000Y-96800000D02*
X164215000Y-96800000D01*
X164215000Y-96800000D02*
X164200000Y-96785000D01*
X165030000Y-87195000D02*
X165040000Y-87185000D01*
X163950000Y-87195000D02*
X165030000Y-87195000D01*
X165040000Y-89342200D02*
X165041795Y-89343995D01*
X163950000Y-87490000D02*
X163950000Y-87195000D01*
X163090000Y-88350000D02*
X163950000Y-87490000D01*
X160723002Y-88350000D02*
X163090000Y-88350000D01*
X159261501Y-86888499D02*
X159261501Y-86861501D01*
X159261501Y-86861501D02*
X159220000Y-86820000D01*
X159261501Y-86888499D02*
X160723002Y-88350000D01*
X158475000Y-86101998D02*
X159261501Y-86888499D01*
X164960000Y-88410000D02*
X164930000Y-88440000D01*
X165040000Y-88410000D02*
X164960000Y-88410000D01*
X165040000Y-88410000D02*
X165040000Y-89342200D01*
X165040000Y-87185000D02*
X165040000Y-88410000D01*
X164930000Y-88440000D02*
X163410000Y-89960000D01*
X163880000Y-96785000D02*
X164200000Y-96785000D01*
X163394999Y-96299999D02*
X163880000Y-96785000D01*
X163410000Y-92006998D02*
X163394999Y-92021999D01*
X163394999Y-92021999D02*
X163394999Y-96299999D01*
X163410000Y-89960000D02*
X163410000Y-92006998D01*
X147147500Y-90862500D02*
X146700000Y-91310000D01*
X149000000Y-90862500D02*
X147147500Y-90862500D01*
X147147500Y-85937500D02*
X146700000Y-85490000D01*
X149000000Y-85937500D02*
X147147500Y-85937500D01*
X146700000Y-85490000D02*
X146700000Y-91310000D01*
X162800000Y-84870000D02*
X162800000Y-84870000D01*
X146700000Y-84052500D02*
X147452490Y-83300010D01*
X146700000Y-85490000D02*
X146700000Y-84052500D01*
X165080010Y-83300010D02*
X166650000Y-84870000D01*
X166650000Y-84870000D02*
X167300000Y-84870000D01*
X147452490Y-83300010D02*
X165080010Y-83300010D01*
X162800000Y-84870000D02*
X163875000Y-84870000D01*
X163875000Y-84870000D02*
X163875000Y-84870000D01*
X167300000Y-84870000D02*
X168300000Y-84870000D01*
X168300000Y-84870000D02*
X168800000Y-84870000D01*
X162550000Y-98250000D02*
X162500000Y-98300000D01*
X162550000Y-96765000D02*
X162550000Y-98250000D01*
X164400000Y-98300000D02*
X164500000Y-98400000D01*
X162500000Y-98300000D02*
X164400000Y-98300000D01*
X164500000Y-98400000D02*
X170800000Y-98400000D01*
X162550000Y-96150000D02*
X162500000Y-96200000D01*
X162550000Y-91600000D02*
X162550000Y-96150000D01*
X175020000Y-84900000D02*
X175050000Y-84870000D01*
X174400000Y-84900000D02*
X175020000Y-84900000D01*
X163875000Y-84870000D02*
X167300000Y-84870000D01*
X170400000Y-84900000D02*
X173400000Y-84900000D01*
X175050000Y-87750000D02*
X175050000Y-91600000D01*
X175050000Y-86435000D02*
X175050000Y-87750000D01*
X175050000Y-91600000D02*
X175050000Y-92020000D01*
X175050000Y-92020000D02*
X175020000Y-92050000D01*
X160425000Y-84900000D02*
X160425000Y-86515000D01*
X160425000Y-86515000D02*
X160320000Y-86620000D01*
X161085000Y-94200000D02*
X161085000Y-95400000D01*
X161085000Y-96700000D02*
X161085000Y-98000000D01*
X157800000Y-84925000D02*
X157825000Y-84900000D01*
X157800000Y-86500000D02*
X157800000Y-84925000D01*
X157800000Y-86500000D02*
X161724999Y-90424999D01*
X156990001Y-99125001D02*
X155735000Y-97870000D01*
X161705010Y-96414990D02*
X161705010Y-98368222D01*
X161724999Y-90424999D02*
X161724999Y-96395001D01*
X161724999Y-96395001D02*
X161705010Y-96414990D01*
X161705010Y-98368222D02*
X160948231Y-99125001D01*
X160948231Y-99125001D02*
X156990001Y-99125001D01*
X166160000Y-92357800D02*
X166160000Y-93510000D01*
X166160000Y-93510000D02*
X165700000Y-93970000D01*
X152625000Y-84900000D02*
X152625000Y-86294694D01*
X152625000Y-86294694D02*
X152309847Y-86609847D01*
X166160000Y-89462200D02*
X166160000Y-87936410D01*
X166160000Y-87936410D02*
X167496400Y-86600010D01*
X172310001Y-90030001D02*
X173210000Y-90930000D01*
X169423012Y-86600010D02*
X172310001Y-89486999D01*
X172310001Y-89486999D02*
X172310001Y-90030001D01*
X167496400Y-86600010D02*
X169423012Y-86600010D01*
X177365000Y-92000000D02*
X177455000Y-91910000D01*
X176300000Y-92000000D02*
X177365000Y-92000000D01*
X165660000Y-89462200D02*
X165660000Y-87800000D01*
X165660000Y-87800000D02*
X167310000Y-86150000D01*
X167310000Y-86150000D02*
X171480000Y-86150000D01*
X171480000Y-86150000D02*
X171730000Y-86400000D01*
X177465000Y-90730000D02*
X177485000Y-90710000D01*
X176340000Y-90730000D02*
X177465000Y-90730000D01*
X172800000Y-93060000D02*
X173210000Y-93470000D01*
X172800000Y-92480000D02*
X172800000Y-93060000D01*
X172520000Y-92236998D02*
X172556998Y-92236998D01*
X167160000Y-89462200D02*
X167160000Y-88805800D01*
X167160000Y-88805800D02*
X167235001Y-88730799D01*
X167235001Y-88730799D02*
X167990799Y-88730799D01*
X170234999Y-90974999D02*
X171258001Y-90974999D01*
X172556998Y-92236998D02*
X172800000Y-92480000D01*
X167990799Y-88730799D02*
X170234999Y-90974999D01*
X171258001Y-90974999D02*
X172520000Y-92236998D01*
X177485000Y-93410000D02*
X177485000Y-93090000D01*
X176525001Y-94369999D02*
X177485000Y-93410000D01*
X174109999Y-94369999D02*
X176525001Y-94369999D01*
X173210000Y-93470000D02*
X174109999Y-94369999D01*
X166660000Y-89462200D02*
X166660000Y-88072820D01*
X166660000Y-88072820D02*
X167372820Y-87360000D01*
X167372820Y-87360000D02*
X169000000Y-87360000D01*
X176280000Y-89570000D02*
X177445000Y-89570000D01*
X175790009Y-94820009D02*
X176080000Y-95110000D01*
X171900009Y-94820009D02*
X175790009Y-94820009D01*
X170670000Y-94740000D02*
X171820000Y-94740000D01*
X171820000Y-94740000D02*
X171900009Y-94820009D01*
X166300000Y-96726998D02*
X166300000Y-96900000D01*
X164200000Y-95815000D02*
X165388002Y-95815000D01*
X165388002Y-95815000D02*
X166300000Y-96726998D01*
X167160000Y-96040000D02*
X166300000Y-96900000D01*
X167160000Y-92357800D02*
X167160000Y-96040000D01*
X150300000Y-88400000D02*
X149360000Y-88400000D01*
X151975000Y-90075000D02*
X150300000Y-88400000D01*
X151975000Y-92100000D02*
X151975000Y-90075000D01*
X152525001Y-92000001D02*
X152625000Y-92100000D01*
X150300000Y-87750000D02*
X152525001Y-89975001D01*
X152525001Y-89975001D02*
X152525001Y-92000001D01*
X149360000Y-87750000D02*
X150300000Y-87750000D01*
D28*
X149360000Y-87100000D02*
X150800000Y-87100000D01*
X150800000Y-87100000D02*
X150900000Y-87200000D01*
X150000000Y-93615000D02*
X148900000Y-93615000D01*
X150000000Y-93615000D02*
X150000000Y-92600000D01*
D27*
X157175000Y-93225000D02*
X157550000Y-93600000D01*
X157175000Y-92100000D02*
X157175000Y-93225000D01*
X159515000Y-93600000D02*
X160115000Y-94200000D01*
X157550000Y-93600000D02*
X159515000Y-93600000D01*
X157404999Y-94104999D02*
X157519999Y-94104999D01*
X156525000Y-93225000D02*
X157404999Y-94104999D01*
X156525000Y-92100000D02*
X156525000Y-93225000D01*
X158487500Y-95072500D02*
X158487500Y-96297500D01*
X157519999Y-94104999D02*
X158487500Y-95072500D01*
X159790000Y-96670000D02*
X158900000Y-96670000D01*
X159820000Y-96700000D02*
X159790000Y-96670000D01*
X160115000Y-96700000D02*
X159820000Y-96700000D01*
X158487500Y-96297500D02*
X158900000Y-96670000D01*
D28*
X148900000Y-94585000D02*
X148900000Y-94900000D01*
X155225000Y-94570000D02*
X154465000Y-95330000D01*
X155225000Y-92100000D02*
X155225000Y-94570000D01*
X148900000Y-94585000D02*
X149915000Y-95600000D01*
X149915000Y-95600000D02*
X150165685Y-95600000D01*
X153164999Y-96539999D02*
X153195000Y-96570000D01*
X151349999Y-90599999D02*
X151349999Y-93295001D01*
X153195000Y-96570000D02*
X153195000Y-97870000D01*
X153164999Y-95110001D02*
X153164999Y-96539999D01*
X150450000Y-89700000D02*
X151349999Y-90599999D01*
X149360000Y-89700000D02*
X150450000Y-89700000D01*
X151349999Y-93295001D02*
X152300000Y-94245002D01*
X152300000Y-94245002D02*
X153164999Y-95110001D01*
X151960002Y-94585000D02*
X150000000Y-94585000D01*
X152300000Y-94245002D02*
X151960002Y-94585000D01*
D27*
X153164999Y-94608003D02*
X153164999Y-95110001D01*
X153925000Y-93848002D02*
X153164999Y-94608003D01*
X153925000Y-92100000D02*
X153925000Y-93848002D01*
X155875000Y-93225000D02*
X155875000Y-92100000D01*
X155779999Y-93320001D02*
X155875000Y-93225000D01*
X155008002Y-96600000D02*
X155779999Y-95828003D01*
X153225000Y-96600000D02*
X155008002Y-96600000D01*
X153164999Y-96539999D02*
X153225000Y-96600000D01*
X155779999Y-93800000D02*
X155779999Y-93320001D01*
X155779999Y-95828003D02*
X155779999Y-93800000D01*
X156525000Y-84900000D02*
X156525000Y-86475000D01*
X156525000Y-86475000D02*
X156500000Y-86500000D01*
X146715000Y-96615000D02*
X147500000Y-97400000D01*
X146715000Y-93700000D02*
X146715000Y-96615000D01*
X156051998Y-90798002D02*
X158700000Y-90798002D01*
X155875000Y-92100000D02*
X155875000Y-90975000D01*
X155875000Y-90975000D02*
X156051998Y-90798002D01*
X158475000Y-91023002D02*
X158700000Y-90798002D01*
X158475000Y-92100000D02*
X158475000Y-91023002D01*
X159125000Y-92100000D02*
X158475000Y-92100000D01*
X160115000Y-98000000D02*
X159600000Y-98000000D01*
X159600000Y-98000000D02*
X159200000Y-98400000D01*
X160115000Y-95400000D02*
X160100000Y-95400000D01*
X165030000Y-86225000D02*
X165040000Y-86215000D01*
X163950000Y-86225000D02*
X165030000Y-86225000D01*
X166410000Y-90910000D02*
X166410000Y-90900000D01*
X166410000Y-90900000D02*
X166520000Y-90790000D01*
X165125000Y-86300000D02*
X165040000Y-86215000D01*
X165930000Y-86300000D02*
X165125000Y-86300000D01*
X165660000Y-91650000D02*
X165660000Y-92357800D01*
X166520000Y-90790000D02*
X165660000Y-91650000D01*
X167660000Y-91713998D02*
X166856002Y-90910000D01*
X166856002Y-90910000D02*
X166410000Y-90910000D01*
X167660000Y-92357800D02*
X167660000Y-91713998D01*
X167660000Y-92357800D02*
X167660000Y-94200000D01*
X167660000Y-94200000D02*
X168430000Y-94970000D01*
X160115000Y-95400000D02*
X159910000Y-95400000D01*
X159910000Y-95400000D02*
X159070000Y-94560000D01*
X178455000Y-86045000D02*
X179000000Y-85500000D01*
X178455000Y-93090000D02*
X178455000Y-86045000D01*
X166660000Y-92357800D02*
X166660000Y-93014200D01*
X165351999Y-94695001D02*
X164680000Y-94023002D01*
X166048001Y-94695001D02*
X165351999Y-94695001D01*
X166660000Y-93014200D02*
X166660000Y-94083002D01*
X164680000Y-94023002D02*
X164680000Y-93550000D01*
X166660000Y-94083002D02*
X166048001Y-94695001D01*
X165160000Y-92357800D02*
X164132200Y-92357800D01*
X164132200Y-92357800D02*
X164120000Y-92370000D01*
D29*
G36*
X146811726Y-93226875D02*
G01*
X146767023Y-93374243D01*
X146751928Y-93527500D01*
X146751928Y-93872500D01*
X146767023Y-94025757D01*
X146811726Y-94173125D01*
X146884321Y-94308940D01*
X146982017Y-94427983D01*
X147101060Y-94525679D01*
X147236875Y-94598274D01*
X147384243Y-94642977D01*
X147537500Y-94658072D01*
X147832500Y-94658072D01*
X147941928Y-94647294D01*
X147941928Y-94732500D01*
X147957023Y-94885757D01*
X148001726Y-95033125D01*
X148074321Y-95168940D01*
X148139231Y-95248033D01*
X148202364Y-95366146D01*
X148306709Y-95493291D01*
X148433855Y-95597636D01*
X148578914Y-95675172D01*
X148736312Y-95722918D01*
X148870241Y-95736109D01*
X149295563Y-96161432D01*
X149298120Y-96164547D01*
X149361748Y-96259774D01*
X149505911Y-96403937D01*
X149675429Y-96517205D01*
X149863787Y-96595226D01*
X150063746Y-96635000D01*
X150267624Y-96635000D01*
X150467583Y-96595226D01*
X150506680Y-96579031D01*
X150567584Y-96726067D01*
X150719161Y-96952918D01*
X150912082Y-97145839D01*
X151138933Y-97297416D01*
X151390996Y-97401824D01*
X151658584Y-97455050D01*
X151931416Y-97455050D01*
X152199004Y-97401824D01*
X152451067Y-97297416D01*
X152677918Y-97145839D01*
X152870839Y-96952918D01*
X153022416Y-96726067D01*
X153126824Y-96474004D01*
X153180050Y-96206416D01*
X153180050Y-96169863D01*
X153272688Y-96308505D01*
X153486495Y-96522312D01*
X153737905Y-96690299D01*
X154017257Y-96806011D01*
X154313816Y-96865000D01*
X154569183Y-96865000D01*
X154542688Y-96891495D01*
X154374701Y-97142905D01*
X154258989Y-97422257D01*
X154200000Y-97718816D01*
X154200000Y-98021184D01*
X154258989Y-98317743D01*
X154374701Y-98597095D01*
X154542688Y-98848505D01*
X154756495Y-99062312D01*
X154947593Y-99190000D01*
X145810000Y-99190000D01*
X145810000Y-93135572D01*
X146860529Y-93135572D01*
X146811726Y-93226875D01*
G37*
X146811726Y-93226875D02*
X146767023Y-93374243D01*
X146751928Y-93527500D01*
X146751928Y-93872500D01*
X146767023Y-94025757D01*
X146811726Y-94173125D01*
X146884321Y-94308940D01*
X146982017Y-94427983D01*
X147101060Y-94525679D01*
X147236875Y-94598274D01*
X147384243Y-94642977D01*
X147537500Y-94658072D01*
X147832500Y-94658072D01*
X147941928Y-94647294D01*
X147941928Y-94732500D01*
X147957023Y-94885757D01*
X148001726Y-95033125D01*
X148074321Y-95168940D01*
X148139231Y-95248033D01*
X148202364Y-95366146D01*
X148306709Y-95493291D01*
X148433855Y-95597636D01*
X148578914Y-95675172D01*
X148736312Y-95722918D01*
X148870241Y-95736109D01*
X149295563Y-96161432D01*
X149298120Y-96164547D01*
X149361748Y-96259774D01*
X149505911Y-96403937D01*
X149675429Y-96517205D01*
X149863787Y-96595226D01*
X150063746Y-96635000D01*
X150267624Y-96635000D01*
X150467583Y-96595226D01*
X150506680Y-96579031D01*
X150567584Y-96726067D01*
X150719161Y-96952918D01*
X150912082Y-97145839D01*
X151138933Y-97297416D01*
X151390996Y-97401824D01*
X151658584Y-97455050D01*
X151931416Y-97455050D01*
X152199004Y-97401824D01*
X152451067Y-97297416D01*
X152677918Y-97145839D01*
X152870839Y-96952918D01*
X153022416Y-96726067D01*
X153126824Y-96474004D01*
X153180050Y-96206416D01*
X153180050Y-96169863D01*
X153272688Y-96308505D01*
X153486495Y-96522312D01*
X153737905Y-96690299D01*
X154017257Y-96806011D01*
X154313816Y-96865000D01*
X154569183Y-96865000D01*
X154542688Y-96891495D01*
X154374701Y-97142905D01*
X154258989Y-97422257D01*
X154200000Y-97718816D01*
X154200000Y-98021184D01*
X154258989Y-98317743D01*
X154374701Y-98597095D01*
X154542688Y-98848505D01*
X154756495Y-99062312D01*
X154947593Y-99190000D01*
X145810000Y-99190000D01*
X145810000Y-93135572D01*
X146860529Y-93135572D01*
X146811726Y-93226875D01*
G36*
X157826365Y-96672831D02*
G01*
X157852527Y-96721776D01*
X157864889Y-96736839D01*
X157874940Y-96753539D01*
X157912294Y-96794603D01*
X157947500Y-96837501D01*
X157991462Y-96873579D01*
X158348519Y-97196013D01*
X158359999Y-97210001D01*
X158403976Y-97246092D01*
X158418351Y-97259073D01*
X158432814Y-97269759D01*
X158475724Y-97304974D01*
X158492914Y-97314163D01*
X158508587Y-97325742D01*
X158558798Y-97349378D01*
X158607753Y-97375546D01*
X158626403Y-97381203D01*
X158644036Y-97389504D01*
X158697903Y-97402892D01*
X158751014Y-97419003D01*
X158770410Y-97420913D01*
X158789323Y-97425614D01*
X158844756Y-97428236D01*
X158862667Y-97430000D01*
X158882053Y-97430000D01*
X158938863Y-97432687D01*
X158956752Y-97430000D01*
X159414475Y-97430000D01*
X159531060Y-97525679D01*
X159666875Y-97598274D01*
X159814243Y-97642977D01*
X159967500Y-97658072D01*
X160171928Y-97658072D01*
X160167023Y-97674243D01*
X160151928Y-97827500D01*
X160151928Y-98172500D01*
X160167023Y-98325757D01*
X160178927Y-98365001D01*
X157304804Y-98365001D01*
X157218732Y-98278929D01*
X157270000Y-98021184D01*
X157270000Y-97718816D01*
X157211011Y-97422257D01*
X157095299Y-97142905D01*
X156927312Y-96891495D01*
X156900817Y-96865000D01*
X157156184Y-96865000D01*
X157452743Y-96806011D01*
X157732095Y-96690299D01*
X157806825Y-96640366D01*
X157826365Y-96672831D01*
G37*
X157826365Y-96672831D02*
X157852527Y-96721776D01*
X157864889Y-96736839D01*
X157874940Y-96753539D01*
X157912294Y-96794603D01*
X157947500Y-96837501D01*
X157991462Y-96873579D01*
X158348519Y-97196013D01*
X158359999Y-97210001D01*
X158403976Y-97246092D01*
X158418351Y-97259073D01*
X158432814Y-97269759D01*
X158475724Y-97304974D01*
X158492914Y-97314163D01*
X158508587Y-97325742D01*
X158558798Y-97349378D01*
X158607753Y-97375546D01*
X158626403Y-97381203D01*
X158644036Y-97389504D01*
X158697903Y-97402892D01*
X158751014Y-97419003D01*
X158770410Y-97420913D01*
X158789323Y-97425614D01*
X158844756Y-97428236D01*
X158862667Y-97430000D01*
X158882053Y-97430000D01*
X158938863Y-97432687D01*
X158956752Y-97430000D01*
X159414475Y-97430000D01*
X159531060Y-97525679D01*
X159666875Y-97598274D01*
X159814243Y-97642977D01*
X159967500Y-97658072D01*
X160171928Y-97658072D01*
X160167023Y-97674243D01*
X160151928Y-97827500D01*
X160151928Y-98172500D01*
X160167023Y-98325757D01*
X160178927Y-98365001D01*
X157304804Y-98365001D01*
X157218732Y-98278929D01*
X157270000Y-98021184D01*
X157270000Y-97718816D01*
X157211011Y-97422257D01*
X157095299Y-97142905D01*
X156927312Y-96891495D01*
X156900817Y-96865000D01*
X157156184Y-96865000D01*
X157452743Y-96806011D01*
X157732095Y-96690299D01*
X157806825Y-96640366D01*
X157826365Y-96672831D01*
G36*
X159181928Y-94372500D02*
G01*
X159197023Y-94525757D01*
X159241726Y-94673125D01*
X159314321Y-94808940D01*
X159412017Y-94927983D01*
X159531060Y-95025679D01*
X159666875Y-95098274D01*
X159814243Y-95142977D01*
X159967500Y-95158072D01*
X160158766Y-95158072D01*
X160151928Y-95227500D01*
X160151928Y-95572500D01*
X160167023Y-95725757D01*
X160171928Y-95741928D01*
X159967500Y-95741928D01*
X159814243Y-95757023D01*
X159666875Y-95801726D01*
X159531060Y-95874321D01*
X159487585Y-95910000D01*
X159247500Y-95910000D01*
X159247500Y-95109822D01*
X159251176Y-95072499D01*
X159247500Y-95035176D01*
X159247500Y-95035167D01*
X159236503Y-94923514D01*
X159193046Y-94780253D01*
X159159758Y-94717976D01*
X159122474Y-94648223D01*
X159051299Y-94561497D01*
X159027501Y-94532499D01*
X158998504Y-94508702D01*
X158849802Y-94360000D01*
X159181928Y-94360000D01*
X159181928Y-94372500D01*
G37*
X159181928Y-94372500D02*
X159197023Y-94525757D01*
X159241726Y-94673125D01*
X159314321Y-94808940D01*
X159412017Y-94927983D01*
X159531060Y-95025679D01*
X159666875Y-95098274D01*
X159814243Y-95142977D01*
X159967500Y-95158072D01*
X160158766Y-95158072D01*
X160151928Y-95227500D01*
X160151928Y-95572500D01*
X160167023Y-95725757D01*
X160171928Y-95741928D01*
X159967500Y-95741928D01*
X159814243Y-95757023D01*
X159666875Y-95801726D01*
X159531060Y-95874321D01*
X159487585Y-95910000D01*
X159247500Y-95910000D01*
X159247500Y-95109822D01*
X159251176Y-95072499D01*
X159247500Y-95035176D01*
X159247500Y-95035167D01*
X159236503Y-94923514D01*
X159193046Y-94780253D01*
X159159758Y-94717976D01*
X159122474Y-94648223D01*
X159051299Y-94561497D01*
X159027501Y-94532499D01*
X158998504Y-94508702D01*
X158849802Y-94360000D01*
X159181928Y-94360000D01*
X159181928Y-94372500D01*
G36*
X151215001Y-90389803D02*
G01*
X151215001Y-90878854D01*
X151160498Y-90980820D01*
X151124188Y-91100518D01*
X151111928Y-91225000D01*
X151111928Y-92975000D01*
X151124188Y-93099482D01*
X151160498Y-93219180D01*
X151219463Y-93329494D01*
X151298815Y-93426185D01*
X151395506Y-93505537D01*
X151505820Y-93564502D01*
X151625518Y-93600812D01*
X151750000Y-93613072D01*
X152065000Y-93613072D01*
X152065000Y-93701939D01*
X152104774Y-93901898D01*
X152182795Y-94090256D01*
X152296063Y-94259774D01*
X152440226Y-94403937D01*
X152609744Y-94517205D01*
X152798102Y-94595226D01*
X152998061Y-94635000D01*
X153091407Y-94635000D01*
X152988989Y-94882257D01*
X152930000Y-95178816D01*
X152930000Y-95275623D01*
X152870839Y-95187082D01*
X152677918Y-94994161D01*
X152451067Y-94842584D01*
X152199004Y-94738176D01*
X151931416Y-94684950D01*
X151658584Y-94684950D01*
X151390996Y-94738176D01*
X151138933Y-94842584D01*
X150976777Y-94950934D01*
X150969622Y-94940226D01*
X150825459Y-94796063D01*
X150655941Y-94682795D01*
X150467583Y-94604774D01*
X150267624Y-94565000D01*
X150063746Y-94565000D01*
X150061346Y-94565477D01*
X150043940Y-94548072D01*
X150172500Y-94548072D01*
X150325757Y-94532977D01*
X150473125Y-94488274D01*
X150608940Y-94415679D01*
X150727983Y-94317983D01*
X150825679Y-94198940D01*
X150898274Y-94063125D01*
X150942977Y-93915757D01*
X150958072Y-93762500D01*
X150958072Y-93467500D01*
X150942977Y-93314243D01*
X150898274Y-93166875D01*
X150883935Y-93140048D01*
X150917205Y-93090256D01*
X150995226Y-92901898D01*
X151035000Y-92701939D01*
X151035000Y-92498061D01*
X150995226Y-92298102D01*
X150917205Y-92109744D01*
X150803937Y-91940226D01*
X150659774Y-91796063D01*
X150655055Y-91792910D01*
X150675812Y-91724482D01*
X150688072Y-91600000D01*
X150688072Y-90125000D01*
X150675812Y-90000518D01*
X150639502Y-89880820D01*
X150580537Y-89770506D01*
X150522674Y-89700000D01*
X150523812Y-89698614D01*
X151215001Y-90389803D01*
G37*
X151215001Y-90389803D02*
X151215001Y-90878854D01*
X151160498Y-90980820D01*
X151124188Y-91100518D01*
X151111928Y-91225000D01*
X151111928Y-92975000D01*
X151124188Y-93099482D01*
X151160498Y-93219180D01*
X151219463Y-93329494D01*
X151298815Y-93426185D01*
X151395506Y-93505537D01*
X151505820Y-93564502D01*
X151625518Y-93600812D01*
X151750000Y-93613072D01*
X152065000Y-93613072D01*
X152065000Y-93701939D01*
X152104774Y-93901898D01*
X152182795Y-94090256D01*
X152296063Y-94259774D01*
X152440226Y-94403937D01*
X152609744Y-94517205D01*
X152798102Y-94595226D01*
X152998061Y-94635000D01*
X153091407Y-94635000D01*
X152988989Y-94882257D01*
X152930000Y-95178816D01*
X152930000Y-95275623D01*
X152870839Y-95187082D01*
X152677918Y-94994161D01*
X152451067Y-94842584D01*
X152199004Y-94738176D01*
X151931416Y-94684950D01*
X151658584Y-94684950D01*
X151390996Y-94738176D01*
X151138933Y-94842584D01*
X150976777Y-94950934D01*
X150969622Y-94940226D01*
X150825459Y-94796063D01*
X150655941Y-94682795D01*
X150467583Y-94604774D01*
X150267624Y-94565000D01*
X150063746Y-94565000D01*
X150061346Y-94565477D01*
X150043940Y-94548072D01*
X150172500Y-94548072D01*
X150325757Y-94532977D01*
X150473125Y-94488274D01*
X150608940Y-94415679D01*
X150727983Y-94317983D01*
X150825679Y-94198940D01*
X150898274Y-94063125D01*
X150942977Y-93915757D01*
X150958072Y-93762500D01*
X150958072Y-93467500D01*
X150942977Y-93314243D01*
X150898274Y-93166875D01*
X150883935Y-93140048D01*
X150917205Y-93090256D01*
X150995226Y-92901898D01*
X151035000Y-92701939D01*
X151035000Y-92498061D01*
X150995226Y-92298102D01*
X150917205Y-92109744D01*
X150803937Y-91940226D01*
X150659774Y-91796063D01*
X150655055Y-91792910D01*
X150675812Y-91724482D01*
X150688072Y-91600000D01*
X150688072Y-90125000D01*
X150675812Y-90000518D01*
X150639502Y-89880820D01*
X150580537Y-89770506D01*
X150522674Y-89700000D01*
X150523812Y-89698614D01*
X151215001Y-90389803D01*
G36*
X156595506Y-86305537D02*
G01*
X156705820Y-86364502D01*
X156767928Y-86383342D01*
X156765000Y-86398061D01*
X156765000Y-86601939D01*
X156804774Y-86801898D01*
X156882795Y-86990256D01*
X156996063Y-87159774D01*
X157140226Y-87303937D01*
X157309744Y-87417205D01*
X157498102Y-87495226D01*
X157698061Y-87535000D01*
X157760199Y-87535000D01*
X160846116Y-90620918D01*
X160774482Y-90599188D01*
X160650000Y-90586928D01*
X160200000Y-90586928D01*
X160100000Y-90596777D01*
X160000000Y-90586928D01*
X159550000Y-90586928D01*
X159425518Y-90599188D01*
X159305820Y-90635498D01*
X159195506Y-90694463D01*
X159098815Y-90773815D01*
X159019463Y-90870506D01*
X158960498Y-90980820D01*
X158924188Y-91100518D01*
X158911928Y-91225000D01*
X158911928Y-92840000D01*
X158688072Y-92840000D01*
X158688072Y-91225000D01*
X158675812Y-91100518D01*
X158639502Y-90980820D01*
X158580537Y-90870506D01*
X158501185Y-90773815D01*
X158404494Y-90694463D01*
X158294180Y-90635498D01*
X158174482Y-90599188D01*
X158050000Y-90586928D01*
X157600000Y-90586928D01*
X157500000Y-90596777D01*
X157400000Y-90586928D01*
X156950000Y-90586928D01*
X156850000Y-90596777D01*
X156750000Y-90586928D01*
X156300000Y-90586928D01*
X156194443Y-90597324D01*
X156217205Y-90563258D01*
X156295226Y-90374900D01*
X156335000Y-90174941D01*
X156335000Y-89971063D01*
X156295226Y-89771104D01*
X156217205Y-89582746D01*
X156103937Y-89413228D01*
X155959774Y-89269065D01*
X155790256Y-89155797D01*
X155601898Y-89077776D01*
X155401939Y-89038002D01*
X155198061Y-89038002D01*
X154998102Y-89077776D01*
X154809744Y-89155797D01*
X154640226Y-89269065D01*
X154496063Y-89413228D01*
X154382795Y-89582746D01*
X154304774Y-89771104D01*
X154265000Y-89971063D01*
X154265000Y-90033200D01*
X154158201Y-90139999D01*
X153387323Y-90139999D01*
X153350000Y-90136323D01*
X153312678Y-90139999D01*
X153312668Y-90139999D01*
X153285001Y-90142724D01*
X153285001Y-90012334D01*
X153288678Y-89975001D01*
X153283524Y-89922667D01*
X153274004Y-89826015D01*
X153230547Y-89682754D01*
X153159975Y-89550725D01*
X153065002Y-89435000D01*
X153036005Y-89411203D01*
X151594256Y-87969455D01*
X151703937Y-87859774D01*
X151817205Y-87690256D01*
X151875256Y-87550109D01*
X152007949Y-87605073D01*
X152207908Y-87644847D01*
X152411786Y-87644847D01*
X152611745Y-87605073D01*
X152800103Y-87527052D01*
X152969621Y-87413784D01*
X153113784Y-87269621D01*
X153227052Y-87100103D01*
X153305073Y-86911745D01*
X153344847Y-86711786D01*
X153344847Y-86539796D01*
X153374003Y-86443680D01*
X153377018Y-86413072D01*
X153500000Y-86413072D01*
X153600000Y-86403223D01*
X153700000Y-86413072D01*
X154150000Y-86413072D01*
X154250000Y-86403223D01*
X154350000Y-86413072D01*
X154800000Y-86413072D01*
X154900000Y-86403223D01*
X155000000Y-86413072D01*
X155450000Y-86413072D01*
X155550000Y-86403223D01*
X155650000Y-86413072D01*
X156100000Y-86413072D01*
X156224482Y-86400812D01*
X156344180Y-86364502D01*
X156454494Y-86305537D01*
X156525000Y-86247674D01*
X156595506Y-86305537D01*
G37*
X156595506Y-86305537D02*
X156705820Y-86364502D01*
X156767928Y-86383342D01*
X156765000Y-86398061D01*
X156765000Y-86601939D01*
X156804774Y-86801898D01*
X156882795Y-86990256D01*
X156996063Y-87159774D01*
X157140226Y-87303937D01*
X157309744Y-87417205D01*
X157498102Y-87495226D01*
X157698061Y-87535000D01*
X157760199Y-87535000D01*
X160846116Y-90620918D01*
X160774482Y-90599188D01*
X160650000Y-90586928D01*
X160200000Y-90586928D01*
X160100000Y-90596777D01*
X160000000Y-90586928D01*
X159550000Y-90586928D01*
X159425518Y-90599188D01*
X159305820Y-90635498D01*
X159195506Y-90694463D01*
X159098815Y-90773815D01*
X159019463Y-90870506D01*
X158960498Y-90980820D01*
X158924188Y-91100518D01*
X158911928Y-91225000D01*
X158911928Y-92840000D01*
X158688072Y-92840000D01*
X158688072Y-91225000D01*
X158675812Y-91100518D01*
X158639502Y-90980820D01*
X158580537Y-90870506D01*
X158501185Y-90773815D01*
X158404494Y-90694463D01*
X158294180Y-90635498D01*
X158174482Y-90599188D01*
X158050000Y-90586928D01*
X157600000Y-90586928D01*
X157500000Y-90596777D01*
X157400000Y-90586928D01*
X156950000Y-90586928D01*
X156850000Y-90596777D01*
X156750000Y-90586928D01*
X156300000Y-90586928D01*
X156194443Y-90597324D01*
X156217205Y-90563258D01*
X156295226Y-90374900D01*
X156335000Y-90174941D01*
X156335000Y-89971063D01*
X156295226Y-89771104D01*
X156217205Y-89582746D01*
X156103937Y-89413228D01*
X155959774Y-89269065D01*
X155790256Y-89155797D01*
X155601898Y-89077776D01*
X155401939Y-89038002D01*
X155198061Y-89038002D01*
X154998102Y-89077776D01*
X154809744Y-89155797D01*
X154640226Y-89269065D01*
X154496063Y-89413228D01*
X154382795Y-89582746D01*
X154304774Y-89771104D01*
X154265000Y-89971063D01*
X154265000Y-90033200D01*
X154158201Y-90139999D01*
X153387323Y-90139999D01*
X153350000Y-90136323D01*
X153312678Y-90139999D01*
X153312668Y-90139999D01*
X153285001Y-90142724D01*
X153285001Y-90012334D01*
X153288678Y-89975001D01*
X153283524Y-89922667D01*
X153274004Y-89826015D01*
X153230547Y-89682754D01*
X153159975Y-89550725D01*
X153065002Y-89435000D01*
X153036005Y-89411203D01*
X151594256Y-87969455D01*
X151703937Y-87859774D01*
X151817205Y-87690256D01*
X151875256Y-87550109D01*
X152007949Y-87605073D01*
X152207908Y-87644847D01*
X152411786Y-87644847D01*
X152611745Y-87605073D01*
X152800103Y-87527052D01*
X152969621Y-87413784D01*
X153113784Y-87269621D01*
X153227052Y-87100103D01*
X153305073Y-86911745D01*
X153344847Y-86711786D01*
X153344847Y-86539796D01*
X153374003Y-86443680D01*
X153377018Y-86413072D01*
X153500000Y-86413072D01*
X153600000Y-86403223D01*
X153700000Y-86413072D01*
X154150000Y-86413072D01*
X154250000Y-86403223D01*
X154350000Y-86413072D01*
X154800000Y-86413072D01*
X154900000Y-86403223D01*
X155000000Y-86413072D01*
X155450000Y-86413072D01*
X155550000Y-86403223D01*
X155650000Y-86413072D01*
X156100000Y-86413072D01*
X156224482Y-86400812D01*
X156344180Y-86364502D01*
X156454494Y-86305537D01*
X156525000Y-86247674D01*
X156595506Y-86305537D01*
G36*
X181490000Y-88173000D02*
G01*
X176727000Y-88173000D01*
X176727000Y-83800000D01*
X176724560Y-83775224D01*
X176717333Y-83751399D01*
X176705597Y-83729443D01*
X176689803Y-83710197D01*
X176670557Y-83694403D01*
X176648601Y-83682667D01*
X176624776Y-83675440D01*
X176600000Y-83673000D01*
X166527802Y-83673000D01*
X166464802Y-83610000D01*
X181490000Y-83610000D01*
X181490000Y-88173000D01*
G37*
X181490000Y-88173000D02*
X176727000Y-88173000D01*
X176727000Y-83800000D01*
X176724560Y-83775224D01*
X176717333Y-83751399D01*
X176705597Y-83729443D01*
X176689803Y-83710197D01*
X176670557Y-83694403D01*
X176648601Y-83682667D01*
X176624776Y-83675440D01*
X176600000Y-83673000D01*
X166527802Y-83673000D01*
X166464802Y-83610000D01*
X181490000Y-83610000D01*
X181490000Y-88173000D01*
M02*
