G04 #@! TF.GenerationSoftware,KiCad,Pcbnew,5.1.2-f72e74a~84~ubuntu18.04.1*
G04 #@! TF.CreationDate,2019-09-03T03:08:37+02:00*
G04 #@! TF.ProjectId,board,626f6172-642e-46b6-9963-61645f706362,rev?*
G04 #@! TF.SameCoordinates,Original*
G04 #@! TF.FileFunction,Copper,L2,Inr*
G04 #@! TF.FilePolarity,Positive*
%FSLAX46Y46*%
G04 Gerber Fmt 4.6, Leading zero omitted, Abs format (unit mm)*
G04 Created by KiCad (PCBNEW 5.1.2-f72e74a~84~ubuntu18.04.1) date 2019-09-03 03:08:37*
%MOMM*%
%LPD*%
G04 APERTURE LIST*
%ADD10R,1.700000X1.700000*%
%ADD11O,1.700000X1.700000*%
%ADD12C,1.800000*%
%ADD13R,1.800000X1.800000*%
%ADD14C,0.800000*%
%ADD15C,0.500000*%
%ADD16C,0.100000*%
%ADD17C,0.250000*%
%ADD18C,0.300000*%
G04 APERTURE END LIST*
D10*
X141818000Y-117036000D03*
D11*
X139278000Y-117036000D03*
X136738000Y-117036000D03*
X134198000Y-117036000D03*
X131658000Y-117036000D03*
X129118000Y-117036000D03*
X126578000Y-117036000D03*
X124038000Y-117036000D03*
X121498000Y-117036000D03*
X118958000Y-117036000D03*
X116418000Y-117036000D03*
X113878000Y-117036000D03*
X111338000Y-117036000D03*
X108798000Y-117036000D03*
X108798000Y-101836000D03*
X111338000Y-101836000D03*
X113878000Y-101836000D03*
X116418000Y-101836000D03*
X118958000Y-101836000D03*
X121498000Y-101836000D03*
X124038000Y-101836000D03*
X126578000Y-101836000D03*
X129118000Y-101836000D03*
X131658000Y-101836000D03*
X134198000Y-101836000D03*
X136738000Y-101836000D03*
X139278000Y-101836000D03*
D10*
X141818000Y-101836000D03*
D11*
X114300000Y-131826000D03*
X116840000Y-131826000D03*
X119380000Y-131826000D03*
X121920000Y-131826000D03*
X124460000Y-131826000D03*
X127000000Y-131826000D03*
X129540000Y-131826000D03*
D10*
X132080000Y-131826000D03*
D12*
X101854000Y-102362000D03*
X104394000Y-103632000D03*
D13*
X104394000Y-108712000D03*
D12*
X101854000Y-107442000D03*
X104394000Y-106172000D03*
X101854000Y-104902000D03*
D13*
X151070000Y-112505000D03*
D12*
X148530000Y-111235000D03*
X151070000Y-109965000D03*
X148530000Y-108695000D03*
D14*
X110540800Y-111175800D03*
X103505000Y-114655600D03*
X107188000Y-122428000D03*
X106680000Y-119380000D03*
X106680000Y-121412000D03*
X107188000Y-120396000D03*
X105664000Y-121412000D03*
X105664000Y-119380000D03*
X108204000Y-122428000D03*
X107696000Y-121412000D03*
X108331000Y-120396000D03*
X107696000Y-119380000D03*
X108839000Y-119380000D03*
X108966000Y-121412000D03*
X106172000Y-122428000D03*
X106172000Y-120396000D03*
X105156000Y-120396000D03*
X105156000Y-122428000D03*
X107188000Y-127508000D03*
X107188000Y-129540000D03*
X107696000Y-128524000D03*
X107696000Y-130556000D03*
X107188000Y-131572000D03*
X107696000Y-132588000D03*
X106680000Y-132588000D03*
X105664000Y-132588000D03*
X105156000Y-131572000D03*
X105156000Y-129540000D03*
X105664000Y-130556000D03*
X106172000Y-131572000D03*
X106680000Y-130556000D03*
X106172000Y-129540000D03*
X106680000Y-128524000D03*
X105664000Y-128524000D03*
X106172000Y-127508000D03*
X105156000Y-127508000D03*
D15*
X130492500Y-104648000D03*
X134810500Y-106299000D03*
D14*
X106616500Y-103759000D03*
D15*
X111950500Y-105918000D03*
D14*
X147100000Y-119500000D03*
D15*
X128206500Y-113157000D03*
D14*
X124333000Y-121793000D03*
X124333000Y-123063000D03*
X122936000Y-123063000D03*
X121412000Y-123063000D03*
X121412000Y-121793000D03*
X122174000Y-122428000D03*
X122936000Y-121793000D03*
X123571000Y-122428000D03*
D15*
X128079500Y-111379000D03*
D14*
X133350000Y-121793000D03*
X132207000Y-123190000D03*
X133096000Y-122682000D03*
X130810000Y-122682000D03*
X132207000Y-121666000D03*
X130556000Y-121666000D03*
X141224000Y-123063000D03*
X142621000Y-123063000D03*
X140462000Y-122174000D03*
X141859000Y-122174000D03*
X142494000Y-121285000D03*
X141224000Y-121285000D03*
X139827000Y-121285000D03*
X126619000Y-106934000D03*
D15*
X131699000Y-113030000D03*
X120269000Y-124587000D03*
X130619500Y-113030000D03*
X121920000Y-124079000D03*
X131000500Y-123952000D03*
D14*
X127127000Y-110363000D03*
D15*
X129349500Y-124587000D03*
D14*
X126492000Y-109728000D03*
D15*
X138049000Y-124587000D03*
D14*
X126746000Y-108585000D03*
D15*
X140144500Y-123952000D03*
D14*
X127381000Y-107823000D03*
D15*
X150660100Y-103047800D03*
X125666500Y-112776000D03*
X142240000Y-130683000D03*
X146939000Y-128651000D03*
X148463000Y-117348000D03*
X150241000Y-128397000D03*
D14*
X110617000Y-126746000D03*
X100584000Y-123444000D03*
X101600000Y-123444000D03*
X102616000Y-123444000D03*
X101092000Y-124460000D03*
X102108000Y-124460000D03*
X100584000Y-125476000D03*
X101600000Y-125476000D03*
X102616000Y-125476000D03*
X101092000Y-126492000D03*
X102108000Y-126492000D03*
X100584000Y-127508000D03*
X100584000Y-128524000D03*
X100584000Y-129540000D03*
X100584000Y-130556000D03*
X100584000Y-131572000D03*
X100584000Y-132588000D03*
X100584000Y-122428000D03*
X100584000Y-121412000D03*
X100584000Y-120396000D03*
D15*
X150114000Y-121920000D03*
X110934500Y-106426000D03*
X144208500Y-115951000D03*
X149415500Y-115189000D03*
X124650500Y-113157000D03*
X131127500Y-115443000D03*
X131127500Y-113284000D03*
X120523000Y-125476000D03*
X129565400Y-125450600D03*
X127889000Y-110109000D03*
X138620500Y-125857000D03*
X127952500Y-108712000D03*
D14*
X144780000Y-125857000D03*
X150622000Y-133477000D03*
X149225000Y-133477000D03*
X144907000Y-128397000D03*
X147955000Y-133477000D03*
X145796000Y-132715000D03*
D15*
X138430000Y-132461000D03*
D14*
X143200000Y-105200000D03*
X143200000Y-104150003D03*
X143200000Y-103200000D03*
X144888902Y-111510932D03*
D16*
X126111000Y-130175000D02*
X129413000Y-130175000D01*
X124460000Y-131826000D02*
X126111000Y-130175000D01*
X136738000Y-122850000D02*
X136738000Y-117036000D01*
X129413000Y-130175000D02*
X136738000Y-122850000D01*
D17*
X133911002Y-106934000D02*
X126619000Y-106934000D01*
X142943001Y-115965999D02*
X133911002Y-106934000D01*
X139827000Y-121285000D02*
X142943001Y-118168999D01*
X142943001Y-118168999D02*
X142943001Y-115965999D01*
X120269000Y-116599998D02*
X120269000Y-124587000D01*
X122441998Y-114427000D02*
X120269000Y-116599998D01*
X131635500Y-113030000D02*
X131635500Y-114109500D01*
X131318000Y-114427000D02*
X129794000Y-114427000D01*
X131635500Y-114109500D02*
X131318000Y-114427000D01*
X130302000Y-114427000D02*
X129794000Y-114427000D01*
X129794000Y-114427000D02*
X122441998Y-114427000D01*
X125452999Y-122868003D02*
X124242002Y-124079000D01*
X127013998Y-114935000D02*
X125452999Y-116495999D01*
X131158001Y-112554999D02*
X132366999Y-112554999D01*
X130683000Y-113030000D02*
X131158001Y-112554999D01*
X132366999Y-112554999D02*
X132432991Y-112620991D01*
X132432991Y-112620991D02*
X132432991Y-113947009D01*
X125452999Y-116495999D02*
X125452999Y-122868003D01*
X132432991Y-113947009D02*
X131445000Y-114935000D01*
X124242002Y-124079000D02*
X121920000Y-124079000D01*
X131445000Y-114935000D02*
X127013998Y-114935000D01*
X133477000Y-123952000D02*
X131000500Y-123952000D01*
X134651750Y-122777250D02*
X133477000Y-123952000D01*
X134651750Y-120300750D02*
X134651750Y-122777250D01*
X135323001Y-113719989D02*
X135323001Y-119629499D01*
X135323001Y-119629499D02*
X134651750Y-120300750D01*
X132186009Y-110637991D02*
X132213506Y-110610494D01*
X132213506Y-110610494D02*
X135323001Y-113719989D01*
X127127000Y-110363000D02*
X127127000Y-110490000D01*
X127274991Y-110637991D02*
X128290991Y-110637991D01*
X127127000Y-110490000D02*
X127274991Y-110637991D01*
X128163991Y-110637991D02*
X128290991Y-110637991D01*
X128290991Y-110637991D02*
X132186009Y-110637991D01*
X126492000Y-109728000D02*
X126492000Y-110018002D01*
X126492000Y-110617000D02*
X126492000Y-109728000D01*
X126863001Y-110988001D02*
X126492000Y-110617000D01*
X132096025Y-110988001D02*
X126863001Y-110988001D01*
X129349500Y-121348500D02*
X130238500Y-120459500D01*
X129349500Y-124587000D02*
X129349500Y-121348500D01*
X130238500Y-120459500D02*
X130247502Y-120459500D01*
X132783001Y-117924001D02*
X132783001Y-111674977D01*
X130247502Y-120459500D02*
X132783001Y-117924001D01*
X132783001Y-111674977D02*
X132096025Y-110988001D01*
X138298999Y-124337001D02*
X138049000Y-124587000D01*
X126746000Y-108585000D02*
X127381000Y-109220000D01*
X127381000Y-109220000D02*
X131318000Y-109220000D01*
X138298999Y-117722001D02*
X138298999Y-124337001D01*
X137863001Y-115765001D02*
X137863001Y-117286003D01*
X131318000Y-109220000D02*
X137863001Y-115765001D01*
X137863001Y-117286003D02*
X138298999Y-117722001D01*
X139065000Y-122872500D02*
X140144500Y-123952000D01*
X132461000Y-108204000D02*
X140403001Y-116146001D01*
X140403001Y-116146001D02*
X140403001Y-118168999D01*
X140403001Y-118168999D02*
X139065000Y-119507000D01*
X139065000Y-119507000D02*
X139065000Y-122872500D01*
D18*
X127381000Y-107823000D02*
X127946685Y-107823000D01*
D17*
X130860800Y-108204000D02*
X130479800Y-107823000D01*
X130860800Y-108204000D02*
X132461000Y-108204000D01*
X130479800Y-107823000D02*
X127381000Y-107823000D01*
D16*
X116840000Y-123740081D02*
X116840000Y-130623919D01*
X116840000Y-130623919D02*
X116840000Y-131826000D01*
X111338000Y-118238081D02*
X116840000Y-123740081D01*
X111338000Y-117036000D02*
X111338000Y-118238081D01*
X111260500Y-119498500D02*
X111260500Y-120785500D01*
X111260500Y-119498500D02*
X108798000Y-117036000D01*
X114300000Y-123825000D02*
X114300000Y-124714000D01*
X111260500Y-120785500D02*
X114300000Y-123825000D01*
X114300000Y-131826000D02*
X114300000Y-124714000D01*
X113878000Y-119466000D02*
X113878000Y-119212000D01*
X113878000Y-119212000D02*
X113878000Y-117036000D01*
X119380000Y-124968000D02*
X113878000Y-119466000D01*
X119380000Y-131826000D02*
X119380000Y-124968000D01*
X110934500Y-102239500D02*
X111338000Y-101836000D01*
X110934500Y-106426000D02*
X110934500Y-102239500D01*
X118958000Y-103038081D02*
X118958000Y-101836000D01*
X119055930Y-103136011D02*
X118958000Y-103038081D01*
X135902011Y-103136011D02*
X119055930Y-103136011D01*
X144208500Y-111442500D02*
X135902011Y-103136011D01*
X144208500Y-115951000D02*
X144208500Y-111442500D01*
X149165501Y-114939001D02*
X149415500Y-115189000D01*
X146900000Y-113400000D02*
X148689000Y-115189000D01*
X122548001Y-102886001D02*
X137112501Y-102886001D01*
X148689000Y-115189000D02*
X149415500Y-115189000D01*
X137112501Y-102912501D02*
X139712501Y-102912501D01*
X121498000Y-101836000D02*
X122548001Y-102886001D01*
X137112501Y-102886001D02*
X137112501Y-102912501D01*
X146900000Y-110100000D02*
X146900000Y-113400000D01*
X139712501Y-102912501D02*
X146900000Y-110100000D01*
D18*
X120876553Y-125476000D02*
X120523000Y-125476000D01*
X123446056Y-125476000D02*
X120876553Y-125476000D01*
X130268001Y-118654055D02*
X123446056Y-125476000D01*
X130268001Y-116302499D02*
X130268001Y-118654055D01*
X131127500Y-115443000D02*
X130268001Y-116302499D01*
D16*
X150622000Y-131699000D02*
X150622000Y-133477000D01*
X144780000Y-125857000D02*
X150622000Y-131699000D01*
X144907000Y-128397000D02*
X144907000Y-131064000D01*
X144907000Y-131064000D02*
X145288000Y-131445000D01*
X147955000Y-132842000D02*
X147955000Y-132969000D01*
X145288000Y-131445000D02*
X146558000Y-131445000D01*
X146558000Y-131445000D02*
X147955000Y-132842000D01*
X147955000Y-132969000D02*
X147955000Y-133477000D01*
M02*
