G04 #@! TF.GenerationSoftware,KiCad,Pcbnew,5.1.2-f72e74a~84~ubuntu18.04.1*
G04 #@! TF.CreationDate,2019-09-03T03:08:37+02:00*
G04 #@! TF.ProjectId,board,626f6172-642e-46b6-9963-61645f706362,rev?*
G04 #@! TF.SameCoordinates,Original*
G04 #@! TF.FileFunction,Legend,Bot*
G04 #@! TF.FilePolarity,Positive*
%FSLAX46Y46*%
G04 Gerber Fmt 4.6, Leading zero omitted, Abs format (unit mm)*
G04 Created by KiCad (PCBNEW 5.1.2-f72e74a~84~ubuntu18.04.1) date 2019-09-03 03:08:37*
%MOMM*%
%LPD*%
G04 APERTURE LIST*
%ADD10C,0.250000*%
%ADD11C,0.060000*%
%ADD12C,0.010000*%
%ADD13C,0.120000*%
%ADD14C,0.150000*%
%ADD15C,0.152400*%
%ADD16C,0.050000*%
G04 APERTURE END LIST*
D10*
X101100000Y-116078095D02*
X101052380Y-115982857D01*
X101052380Y-115840000D01*
X101100000Y-115697142D01*
X101195238Y-115601904D01*
X101290476Y-115554285D01*
X101480952Y-115506666D01*
X101623809Y-115506666D01*
X101814285Y-115554285D01*
X101909523Y-115601904D01*
X102004761Y-115697142D01*
X102052380Y-115840000D01*
X102052380Y-115935238D01*
X102004761Y-116078095D01*
X101957142Y-116125714D01*
X101623809Y-116125714D01*
X101623809Y-115935238D01*
X102052380Y-116554285D02*
X101052380Y-116554285D01*
X102052380Y-117125714D01*
X101052380Y-117125714D01*
X102052380Y-117601904D02*
X101052380Y-117601904D01*
X101052380Y-117840000D01*
X101100000Y-117982857D01*
X101195238Y-118078095D01*
X101290476Y-118125714D01*
X101480952Y-118173333D01*
X101623809Y-118173333D01*
X101814285Y-118125714D01*
X101909523Y-118078095D01*
X102004761Y-117982857D01*
X102052380Y-117840000D01*
X102052380Y-117601904D01*
D11*
G36*
X107824692Y-110368170D02*
G01*
X107828884Y-110362762D01*
X107829842Y-110354566D01*
X107825424Y-110349146D01*
X107813375Y-110341290D01*
X107795655Y-110331907D01*
X107774225Y-110321910D01*
X107751046Y-110312209D01*
X107728078Y-110303716D01*
X107707282Y-110297341D01*
X107705917Y-110296987D01*
X107662856Y-110289514D01*
X107614361Y-110287140D01*
X107563785Y-110289862D01*
X107517500Y-110297035D01*
X107490200Y-110302814D01*
X107471309Y-110307027D01*
X107459286Y-110310160D01*
X107452588Y-110312698D01*
X107449673Y-110315124D01*
X107448999Y-110317924D01*
X107448997Y-110318567D01*
X107450026Y-110326273D01*
X107453898Y-110330916D01*
X107462140Y-110332631D01*
X107476276Y-110331551D01*
X107497832Y-110327810D01*
X107514960Y-110324343D01*
X107573922Y-110314891D01*
X107627388Y-110312559D01*
X107677312Y-110317558D01*
X107725646Y-110330099D01*
X107774342Y-110350391D01*
X107779221Y-110352812D01*
X107801207Y-110363242D01*
X107815915Y-110368346D01*
X107824692Y-110368170D01*
X107824692Y-110368170D01*
G37*
X107824692Y-110368170D02*
X107828884Y-110362762D01*
X107829842Y-110354566D01*
X107825424Y-110349146D01*
X107813375Y-110341290D01*
X107795655Y-110331907D01*
X107774225Y-110321910D01*
X107751046Y-110312209D01*
X107728078Y-110303716D01*
X107707282Y-110297341D01*
X107705917Y-110296987D01*
X107662856Y-110289514D01*
X107614361Y-110287140D01*
X107563785Y-110289862D01*
X107517500Y-110297035D01*
X107490200Y-110302814D01*
X107471309Y-110307027D01*
X107459286Y-110310160D01*
X107452588Y-110312698D01*
X107449673Y-110315124D01*
X107448999Y-110317924D01*
X107448997Y-110318567D01*
X107450026Y-110326273D01*
X107453898Y-110330916D01*
X107462140Y-110332631D01*
X107476276Y-110331551D01*
X107497832Y-110327810D01*
X107514960Y-110324343D01*
X107573922Y-110314891D01*
X107627388Y-110312559D01*
X107677312Y-110317558D01*
X107725646Y-110330099D01*
X107774342Y-110350391D01*
X107779221Y-110352812D01*
X107801207Y-110363242D01*
X107815915Y-110368346D01*
X107824692Y-110368170D01*
D12*
G36*
X106493665Y-111807600D02*
G01*
X106511199Y-111805185D01*
X106527879Y-111799924D01*
X106546678Y-111791596D01*
X106596544Y-111763190D01*
X106646028Y-111725974D01*
X106694186Y-111681287D01*
X106740077Y-111630464D01*
X106782757Y-111574842D01*
X106821285Y-111515756D01*
X106854717Y-111454544D01*
X106882112Y-111392541D01*
X106902526Y-111331083D01*
X106915018Y-111271508D01*
X106915381Y-111268871D01*
X106918149Y-111225804D01*
X106914456Y-111187743D01*
X106904593Y-111155573D01*
X106888853Y-111130178D01*
X106867525Y-111112444D01*
X106863187Y-111110168D01*
X106835219Y-111101682D01*
X106803409Y-111100419D01*
X106771189Y-111106512D01*
X106770740Y-111106654D01*
X106727203Y-111124943D01*
X106682270Y-111152158D01*
X106636881Y-111187335D01*
X106591976Y-111229513D01*
X106548495Y-111277728D01*
X106507378Y-111331018D01*
X106469565Y-111388421D01*
X106435996Y-111448974D01*
X106435540Y-111449881D01*
X106410181Y-111504155D01*
X106401711Y-111526426D01*
X106555284Y-111526426D01*
X106555543Y-111498685D01*
X106558121Y-111470689D01*
X106562567Y-111447298D01*
X106572407Y-111417135D01*
X106586999Y-111382844D01*
X106604535Y-111348056D01*
X106623208Y-111316404D01*
X106638382Y-111294978D01*
X106669895Y-111259194D01*
X106701152Y-111231105D01*
X106731506Y-111211000D01*
X106760309Y-111199166D01*
X106786913Y-111195891D01*
X106810670Y-111201462D01*
X106826133Y-111211534D01*
X106840767Y-111228001D01*
X106850019Y-111247997D01*
X106854606Y-111273687D01*
X106855402Y-111299684D01*
X106851584Y-111338915D01*
X106841587Y-111379233D01*
X106826265Y-111419549D01*
X106806466Y-111458772D01*
X106783042Y-111495812D01*
X106756844Y-111529579D01*
X106728723Y-111558982D01*
X106699529Y-111582931D01*
X106670113Y-111600336D01*
X106641326Y-111610106D01*
X106614019Y-111611151D01*
X106612521Y-111610925D01*
X106590226Y-111602390D01*
X106571870Y-111585571D01*
X106561805Y-111568314D01*
X106557365Y-111550705D01*
X106555284Y-111526426D01*
X106401711Y-111526426D01*
X106391505Y-111553258D01*
X106378956Y-111599150D01*
X106371980Y-111643791D01*
X106370024Y-111681180D01*
X106370147Y-111706266D01*
X106371356Y-111724220D01*
X106374108Y-111738050D01*
X106378861Y-111750765D01*
X106381443Y-111756249D01*
X106392212Y-111773579D01*
X106405671Y-111789267D01*
X106411471Y-111794349D01*
X106421774Y-111801392D01*
X106431873Y-111805548D01*
X106444939Y-111807557D01*
X106464145Y-111808162D01*
X106470641Y-111808180D01*
X106493665Y-111807600D01*
X106493665Y-111807600D01*
G37*
X106493665Y-111807600D02*
X106511199Y-111805185D01*
X106527879Y-111799924D01*
X106546678Y-111791596D01*
X106596544Y-111763190D01*
X106646028Y-111725974D01*
X106694186Y-111681287D01*
X106740077Y-111630464D01*
X106782757Y-111574842D01*
X106821285Y-111515756D01*
X106854717Y-111454544D01*
X106882112Y-111392541D01*
X106902526Y-111331083D01*
X106915018Y-111271508D01*
X106915381Y-111268871D01*
X106918149Y-111225804D01*
X106914456Y-111187743D01*
X106904593Y-111155573D01*
X106888853Y-111130178D01*
X106867525Y-111112444D01*
X106863187Y-111110168D01*
X106835219Y-111101682D01*
X106803409Y-111100419D01*
X106771189Y-111106512D01*
X106770740Y-111106654D01*
X106727203Y-111124943D01*
X106682270Y-111152158D01*
X106636881Y-111187335D01*
X106591976Y-111229513D01*
X106548495Y-111277728D01*
X106507378Y-111331018D01*
X106469565Y-111388421D01*
X106435996Y-111448974D01*
X106435540Y-111449881D01*
X106410181Y-111504155D01*
X106401711Y-111526426D01*
X106555284Y-111526426D01*
X106555543Y-111498685D01*
X106558121Y-111470689D01*
X106562567Y-111447298D01*
X106572407Y-111417135D01*
X106586999Y-111382844D01*
X106604535Y-111348056D01*
X106623208Y-111316404D01*
X106638382Y-111294978D01*
X106669895Y-111259194D01*
X106701152Y-111231105D01*
X106731506Y-111211000D01*
X106760309Y-111199166D01*
X106786913Y-111195891D01*
X106810670Y-111201462D01*
X106826133Y-111211534D01*
X106840767Y-111228001D01*
X106850019Y-111247997D01*
X106854606Y-111273687D01*
X106855402Y-111299684D01*
X106851584Y-111338915D01*
X106841587Y-111379233D01*
X106826265Y-111419549D01*
X106806466Y-111458772D01*
X106783042Y-111495812D01*
X106756844Y-111529579D01*
X106728723Y-111558982D01*
X106699529Y-111582931D01*
X106670113Y-111600336D01*
X106641326Y-111610106D01*
X106614019Y-111611151D01*
X106612521Y-111610925D01*
X106590226Y-111602390D01*
X106571870Y-111585571D01*
X106561805Y-111568314D01*
X106557365Y-111550705D01*
X106555284Y-111526426D01*
X106401711Y-111526426D01*
X106391505Y-111553258D01*
X106378956Y-111599150D01*
X106371980Y-111643791D01*
X106370024Y-111681180D01*
X106370147Y-111706266D01*
X106371356Y-111724220D01*
X106374108Y-111738050D01*
X106378861Y-111750765D01*
X106381443Y-111756249D01*
X106392212Y-111773579D01*
X106405671Y-111789267D01*
X106411471Y-111794349D01*
X106421774Y-111801392D01*
X106431873Y-111805548D01*
X106444939Y-111807557D01*
X106464145Y-111808162D01*
X106470641Y-111808180D01*
X106493665Y-111807600D01*
G36*
X108118423Y-111998223D02*
G01*
X108156263Y-111994934D01*
X108176759Y-111991103D01*
X108228390Y-111974126D01*
X108273060Y-111950346D01*
X108310646Y-111920473D01*
X108341024Y-111885219D01*
X108364071Y-111845297D01*
X108379661Y-111801417D01*
X108387672Y-111754292D01*
X108387980Y-111704634D01*
X108380461Y-111653154D01*
X108364990Y-111600564D01*
X108341445Y-111547576D01*
X108309701Y-111494901D01*
X108271669Y-111445602D01*
X108222024Y-111394494D01*
X108167034Y-111349745D01*
X108107863Y-111311858D01*
X108045678Y-111281334D01*
X107981645Y-111258675D01*
X107916929Y-111244383D01*
X107852695Y-111238959D01*
X107798218Y-111241831D01*
X107743393Y-111252893D01*
X107694297Y-111271964D01*
X107651371Y-111298852D01*
X107632887Y-111314667D01*
X107601140Y-111348564D01*
X107578000Y-111383038D01*
X107562118Y-111420680D01*
X107552141Y-111464084D01*
X107550986Y-111471855D01*
X107548426Y-111526245D01*
X107555286Y-111581309D01*
X107570934Y-111636248D01*
X107584275Y-111666525D01*
X107949164Y-111666525D01*
X107951545Y-111644888D01*
X107964506Y-111600696D01*
X107985689Y-111561343D01*
X108014198Y-111527878D01*
X108049137Y-111501347D01*
X108089610Y-111482796D01*
X108090453Y-111482519D01*
X108110411Y-111478540D01*
X108137461Y-111476848D01*
X108155684Y-111477024D01*
X108179938Y-111478429D01*
X108198324Y-111481366D01*
X108215122Y-111486824D01*
X108232690Y-111494845D01*
X108269679Y-111518212D01*
X108300282Y-111548052D01*
X108323754Y-111582952D01*
X108339349Y-111621496D01*
X108346322Y-111662272D01*
X108343925Y-111703866D01*
X108343670Y-111705278D01*
X108330966Y-111747176D01*
X108309644Y-111785562D01*
X108280985Y-111818785D01*
X108246270Y-111845194D01*
X108227445Y-111855142D01*
X108197518Y-111864650D01*
X108162396Y-111869214D01*
X108125790Y-111868775D01*
X108091413Y-111863276D01*
X108073531Y-111857574D01*
X108038383Y-111838514D01*
X108007691Y-111812056D01*
X107982440Y-111779913D01*
X107963613Y-111743801D01*
X107952193Y-111705433D01*
X107949164Y-111666525D01*
X107584275Y-111666525D01*
X107594736Y-111690264D01*
X107626061Y-111742559D01*
X107664274Y-111792334D01*
X107708745Y-111838793D01*
X107758840Y-111881136D01*
X107813926Y-111918566D01*
X107873370Y-111950284D01*
X107936541Y-111975493D01*
X107954886Y-111981299D01*
X107991263Y-111989762D01*
X108032757Y-111995497D01*
X108076199Y-111998364D01*
X108118423Y-111998223D01*
X108118423Y-111998223D01*
G37*
X108118423Y-111998223D02*
X108156263Y-111994934D01*
X108176759Y-111991103D01*
X108228390Y-111974126D01*
X108273060Y-111950346D01*
X108310646Y-111920473D01*
X108341024Y-111885219D01*
X108364071Y-111845297D01*
X108379661Y-111801417D01*
X108387672Y-111754292D01*
X108387980Y-111704634D01*
X108380461Y-111653154D01*
X108364990Y-111600564D01*
X108341445Y-111547576D01*
X108309701Y-111494901D01*
X108271669Y-111445602D01*
X108222024Y-111394494D01*
X108167034Y-111349745D01*
X108107863Y-111311858D01*
X108045678Y-111281334D01*
X107981645Y-111258675D01*
X107916929Y-111244383D01*
X107852695Y-111238959D01*
X107798218Y-111241831D01*
X107743393Y-111252893D01*
X107694297Y-111271964D01*
X107651371Y-111298852D01*
X107632887Y-111314667D01*
X107601140Y-111348564D01*
X107578000Y-111383038D01*
X107562118Y-111420680D01*
X107552141Y-111464084D01*
X107550986Y-111471855D01*
X107548426Y-111526245D01*
X107555286Y-111581309D01*
X107570934Y-111636248D01*
X107584275Y-111666525D01*
X107949164Y-111666525D01*
X107951545Y-111644888D01*
X107964506Y-111600696D01*
X107985689Y-111561343D01*
X108014198Y-111527878D01*
X108049137Y-111501347D01*
X108089610Y-111482796D01*
X108090453Y-111482519D01*
X108110411Y-111478540D01*
X108137461Y-111476848D01*
X108155684Y-111477024D01*
X108179938Y-111478429D01*
X108198324Y-111481366D01*
X108215122Y-111486824D01*
X108232690Y-111494845D01*
X108269679Y-111518212D01*
X108300282Y-111548052D01*
X108323754Y-111582952D01*
X108339349Y-111621496D01*
X108346322Y-111662272D01*
X108343925Y-111703866D01*
X108343670Y-111705278D01*
X108330966Y-111747176D01*
X108309644Y-111785562D01*
X108280985Y-111818785D01*
X108246270Y-111845194D01*
X108227445Y-111855142D01*
X108197518Y-111864650D01*
X108162396Y-111869214D01*
X108125790Y-111868775D01*
X108091413Y-111863276D01*
X108073531Y-111857574D01*
X108038383Y-111838514D01*
X108007691Y-111812056D01*
X107982440Y-111779913D01*
X107963613Y-111743801D01*
X107952193Y-111705433D01*
X107949164Y-111666525D01*
X107584275Y-111666525D01*
X107594736Y-111690264D01*
X107626061Y-111742559D01*
X107664274Y-111792334D01*
X107708745Y-111838793D01*
X107758840Y-111881136D01*
X107813926Y-111918566D01*
X107873370Y-111950284D01*
X107936541Y-111975493D01*
X107954886Y-111981299D01*
X107991263Y-111989762D01*
X108032757Y-111995497D01*
X108076199Y-111998364D01*
X108118423Y-111998223D01*
G36*
X109378201Y-113170262D02*
G01*
X109398348Y-113168035D01*
X109415863Y-113164436D01*
X109431188Y-113158692D01*
X109444766Y-113150029D01*
X109457039Y-113137676D01*
X109468450Y-113120860D01*
X109479440Y-113098807D01*
X109490453Y-113070745D01*
X109501931Y-113035901D01*
X109514316Y-112993502D01*
X109528050Y-112942775D01*
X109543577Y-112882948D01*
X109544299Y-112880133D01*
X109561506Y-112807526D01*
X109575540Y-112735724D01*
X109586689Y-112662557D01*
X109595238Y-112585850D01*
X109601474Y-112503431D01*
X109605609Y-112415240D01*
X109606717Y-112381595D01*
X109607222Y-112355475D01*
X109606933Y-112334251D01*
X109605658Y-112315297D01*
X109603208Y-112295986D01*
X109599391Y-112273691D01*
X109594016Y-112245783D01*
X109592872Y-112239980D01*
X109576391Y-112161289D01*
X109558865Y-112086594D01*
X109540546Y-112016661D01*
X109521687Y-111952259D01*
X109502541Y-111894155D01*
X109483359Y-111843118D01*
X109464394Y-111799915D01*
X109445900Y-111765314D01*
X109428657Y-111740707D01*
X109417953Y-111727251D01*
X109403677Y-111708283D01*
X109387975Y-111686689D01*
X109377487Y-111671848D01*
X109351986Y-111637725D01*
X109328222Y-111610799D01*
X109306922Y-111591816D01*
X109289823Y-111581894D01*
X109277848Y-111579302D01*
X109260149Y-111577642D01*
X109245639Y-111577288D01*
X109229049Y-111578134D01*
X109213769Y-111580976D01*
X109196746Y-111586697D01*
X109174929Y-111596182D01*
X109165960Y-111600382D01*
X109143192Y-111612106D01*
X109121706Y-111624819D01*
X109104652Y-111636582D01*
X109098199Y-111642045D01*
X109075298Y-111670290D01*
X109055228Y-111708117D01*
X109037972Y-111755580D01*
X109023507Y-111812731D01*
X109014959Y-111858980D01*
X109012442Y-111876236D01*
X109010422Y-111894413D01*
X109008848Y-111914826D01*
X109007672Y-111938792D01*
X109006843Y-111967625D01*
X109006312Y-112002641D01*
X109006029Y-112045156D01*
X109005945Y-112096484D01*
X109005945Y-112097740D01*
X109006068Y-112154222D01*
X109006514Y-112202569D01*
X109007403Y-112244808D01*
X109008857Y-112282963D01*
X109010997Y-112319058D01*
X109013942Y-112355118D01*
X109017814Y-112393167D01*
X109022734Y-112435231D01*
X109028823Y-112483333D01*
X109029068Y-112485222D01*
X109038126Y-112542246D01*
X109050976Y-112604701D01*
X109067031Y-112670699D01*
X109085706Y-112738352D01*
X109106413Y-112805773D01*
X109128565Y-112871073D01*
X109151577Y-112932365D01*
X109174862Y-112987761D01*
X109197832Y-113035374D01*
X109203030Y-113045063D01*
X109230897Y-113089165D01*
X109261983Y-113126483D01*
X109262588Y-113127104D01*
X109285380Y-113148381D01*
X109306068Y-113162098D01*
X109327763Y-113169417D01*
X109353575Y-113171498D01*
X109378201Y-113170262D01*
X109378201Y-113170262D01*
G37*
X109378201Y-113170262D02*
X109398348Y-113168035D01*
X109415863Y-113164436D01*
X109431188Y-113158692D01*
X109444766Y-113150029D01*
X109457039Y-113137676D01*
X109468450Y-113120860D01*
X109479440Y-113098807D01*
X109490453Y-113070745D01*
X109501931Y-113035901D01*
X109514316Y-112993502D01*
X109528050Y-112942775D01*
X109543577Y-112882948D01*
X109544299Y-112880133D01*
X109561506Y-112807526D01*
X109575540Y-112735724D01*
X109586689Y-112662557D01*
X109595238Y-112585850D01*
X109601474Y-112503431D01*
X109605609Y-112415240D01*
X109606717Y-112381595D01*
X109607222Y-112355475D01*
X109606933Y-112334251D01*
X109605658Y-112315297D01*
X109603208Y-112295986D01*
X109599391Y-112273691D01*
X109594016Y-112245783D01*
X109592872Y-112239980D01*
X109576391Y-112161289D01*
X109558865Y-112086594D01*
X109540546Y-112016661D01*
X109521687Y-111952259D01*
X109502541Y-111894155D01*
X109483359Y-111843118D01*
X109464394Y-111799915D01*
X109445900Y-111765314D01*
X109428657Y-111740707D01*
X109417953Y-111727251D01*
X109403677Y-111708283D01*
X109387975Y-111686689D01*
X109377487Y-111671848D01*
X109351986Y-111637725D01*
X109328222Y-111610799D01*
X109306922Y-111591816D01*
X109289823Y-111581894D01*
X109277848Y-111579302D01*
X109260149Y-111577642D01*
X109245639Y-111577288D01*
X109229049Y-111578134D01*
X109213769Y-111580976D01*
X109196746Y-111586697D01*
X109174929Y-111596182D01*
X109165960Y-111600382D01*
X109143192Y-111612106D01*
X109121706Y-111624819D01*
X109104652Y-111636582D01*
X109098199Y-111642045D01*
X109075298Y-111670290D01*
X109055228Y-111708117D01*
X109037972Y-111755580D01*
X109023507Y-111812731D01*
X109014959Y-111858980D01*
X109012442Y-111876236D01*
X109010422Y-111894413D01*
X109008848Y-111914826D01*
X109007672Y-111938792D01*
X109006843Y-111967625D01*
X109006312Y-112002641D01*
X109006029Y-112045156D01*
X109005945Y-112096484D01*
X109005945Y-112097740D01*
X109006068Y-112154222D01*
X109006514Y-112202569D01*
X109007403Y-112244808D01*
X109008857Y-112282963D01*
X109010997Y-112319058D01*
X109013942Y-112355118D01*
X109017814Y-112393167D01*
X109022734Y-112435231D01*
X109028823Y-112483333D01*
X109029068Y-112485222D01*
X109038126Y-112542246D01*
X109050976Y-112604701D01*
X109067031Y-112670699D01*
X109085706Y-112738352D01*
X109106413Y-112805773D01*
X109128565Y-112871073D01*
X109151577Y-112932365D01*
X109174862Y-112987761D01*
X109197832Y-113035374D01*
X109203030Y-113045063D01*
X109230897Y-113089165D01*
X109261983Y-113126483D01*
X109262588Y-113127104D01*
X109285380Y-113148381D01*
X109306068Y-113162098D01*
X109327763Y-113169417D01*
X109353575Y-113171498D01*
X109378201Y-113170262D01*
D13*
X114302000Y-106428000D02*
X114302000Y-113028000D01*
X120902000Y-106428000D02*
X114302000Y-106428000D01*
X120902000Y-113028000D02*
X120902000Y-106428000D01*
X114302000Y-113028000D02*
X120902000Y-113028000D01*
X114102000Y-106228000D02*
X114902000Y-106228000D01*
X114102000Y-107028000D02*
X114102000Y-106228000D01*
D14*
X149072000Y-118388000D02*
X150147000Y-118388000D01*
X149072000Y-121513000D02*
X145822000Y-121513000D01*
X149072000Y-118263000D02*
X145822000Y-118263000D01*
X149072000Y-121513000D02*
X149072000Y-121288000D01*
X145822000Y-121513000D02*
X145822000Y-121288000D01*
X145822000Y-118263000D02*
X145822000Y-118488000D01*
X149072000Y-118263000D02*
X149072000Y-118388000D01*
D15*
X110388400Y-104241600D02*
X110388400Y-104444800D01*
X107035600Y-104241600D02*
X110388400Y-104241600D01*
X107035600Y-107594400D02*
X107035600Y-107391200D01*
X110388400Y-107594400D02*
X107035600Y-107594400D01*
X110388400Y-107391200D02*
X110388400Y-107594400D01*
X107035600Y-104444800D02*
X107035600Y-104241600D01*
D14*
X108140000Y-118992000D02*
X108140000Y-133992000D01*
X100140000Y-118992000D02*
X108140000Y-118992000D01*
X100140000Y-133992000D02*
X100140000Y-118992000D01*
X108140000Y-133992000D02*
X100140000Y-133992000D01*
X100140000Y-130992000D02*
X100740000Y-130992000D01*
X103540000Y-130992000D02*
X104740000Y-130992000D01*
X108140000Y-130992000D02*
X107540000Y-130992000D01*
X135029000Y-106264000D02*
X135029000Y-106789000D01*
X128729000Y-106264000D02*
X128729000Y-106789000D01*
X128729000Y-112564000D02*
X128729000Y-112039000D01*
X135029000Y-112564000D02*
X135029000Y-112039000D01*
X128729000Y-106264000D02*
X129254000Y-106264000D01*
X128729000Y-112564000D02*
X129254000Y-112564000D01*
X135029000Y-106264000D02*
X134504000Y-106264000D01*
D13*
X111304000Y-108541078D02*
X111304000Y-108023922D01*
X112724000Y-108541078D02*
X112724000Y-108023922D01*
X102821478Y-116305400D02*
X102304322Y-116305400D01*
X102821478Y-114885400D02*
X102304322Y-114885400D01*
X126036000Y-112986078D02*
X126036000Y-112468922D01*
X127456000Y-112986078D02*
X127456000Y-112468922D01*
X112724000Y-111676922D02*
X112724000Y-112194078D01*
X111304000Y-111676922D02*
X111304000Y-112194078D01*
D14*
X147551742Y-111830742D02*
X147599361Y-111783123D01*
X147646980Y-111640266D01*
X147646980Y-111545028D01*
X147599361Y-111402171D01*
X147504123Y-111306933D01*
X147408885Y-111259314D01*
X147218409Y-111211695D01*
X147075552Y-111211695D01*
X146885076Y-111259314D01*
X146789838Y-111306933D01*
X146694600Y-111402171D01*
X146646980Y-111545028D01*
X146646980Y-111640266D01*
X146694600Y-111783123D01*
X146742219Y-111830742D01*
X146742219Y-112211695D02*
X146694600Y-112259314D01*
X146646980Y-112354552D01*
X146646980Y-112592647D01*
X146694600Y-112687885D01*
X146742219Y-112735504D01*
X146837457Y-112783123D01*
X146932695Y-112783123D01*
X147075552Y-112735504D01*
X147646980Y-112164076D01*
X147646980Y-112783123D01*
X146646980Y-113640266D02*
X146646980Y-113449790D01*
X146694600Y-113354552D01*
X146742219Y-113306933D01*
X146885076Y-113211695D01*
X147075552Y-113164076D01*
X147456504Y-113164076D01*
X147551742Y-113211695D01*
X147599361Y-113259314D01*
X147646980Y-113354552D01*
X147646980Y-113545028D01*
X147599361Y-113640266D01*
X147551742Y-113687885D01*
X147456504Y-113735504D01*
X147218409Y-113735504D01*
X147123171Y-113687885D01*
X147075552Y-113640266D01*
X147027933Y-113545028D01*
X147027933Y-113354552D01*
X147075552Y-113259314D01*
X147123171Y-113211695D01*
X147218409Y-113164076D01*
D16*
X111275988Y-108112882D02*
X111425969Y-108112882D01*
X111425969Y-107797921D01*
X111215995Y-107797921D02*
X111036018Y-107797921D01*
X111126006Y-108112882D02*
X111126006Y-107797921D01*
X110751053Y-108082886D02*
X110766051Y-108097884D01*
X110811045Y-108112882D01*
X110841042Y-108112882D01*
X110886036Y-108097884D01*
X110916032Y-108067887D01*
X110931031Y-108037891D01*
X110946029Y-107977899D01*
X110946029Y-107932904D01*
X110931031Y-107872912D01*
X110916032Y-107842915D01*
X110886036Y-107812919D01*
X110841042Y-107797921D01*
X110811045Y-107797921D01*
X110766051Y-107812919D01*
X110751053Y-107827917D01*
X110631068Y-107827917D02*
X110616070Y-107812919D01*
X110586073Y-107797921D01*
X110511083Y-107797921D01*
X110481086Y-107812919D01*
X110466088Y-107827917D01*
X110451090Y-107857913D01*
X110451090Y-107887910D01*
X110466088Y-107932904D01*
X110646066Y-108112882D01*
X110451090Y-108112882D01*
X110271112Y-107932904D02*
X110301109Y-107917906D01*
X110316107Y-107902908D01*
X110331105Y-107872912D01*
X110331105Y-107857913D01*
X110316107Y-107827917D01*
X110301109Y-107812919D01*
X110271112Y-107797921D01*
X110211120Y-107797921D01*
X110181123Y-107812919D01*
X110166125Y-107827917D01*
X110151127Y-107857913D01*
X110151127Y-107872912D01*
X110166125Y-107902908D01*
X110181123Y-107917906D01*
X110211120Y-107932904D01*
X110271112Y-107932904D01*
X110301109Y-107947902D01*
X110316107Y-107962900D01*
X110331105Y-107992897D01*
X110331105Y-108052889D01*
X110316107Y-108082886D01*
X110301109Y-108097884D01*
X110271112Y-108112882D01*
X110211120Y-108112882D01*
X110181123Y-108097884D01*
X110166125Y-108082886D01*
X110151127Y-108052889D01*
X110151127Y-107992897D01*
X110166125Y-107962900D01*
X110181123Y-107947902D01*
X110211120Y-107932904D01*
X109866162Y-107797921D02*
X110016144Y-107797921D01*
X110031142Y-107947902D01*
X110016144Y-107932904D01*
X109986148Y-107917906D01*
X109911157Y-107917906D01*
X109881161Y-107932904D01*
X109866162Y-107947902D01*
X109851164Y-107977899D01*
X109851164Y-108052889D01*
X109866162Y-108082886D01*
X109881161Y-108097884D01*
X109911157Y-108112882D01*
X109986148Y-108112882D01*
X110016144Y-108097884D01*
X110031142Y-108082886D01*
X109731179Y-107827917D02*
X109716181Y-107812919D01*
X109686185Y-107797921D01*
X109611194Y-107797921D01*
X109581198Y-107812919D01*
X109566200Y-107827917D01*
X109551201Y-107857913D01*
X109551201Y-107887910D01*
X109566200Y-107932904D01*
X109746177Y-108112882D01*
X109551201Y-108112882D01*
X109416218Y-108112882D02*
X109416218Y-107797921D01*
X109416218Y-107947902D02*
X109236240Y-107947902D01*
X109236240Y-108112882D02*
X109236240Y-107797921D01*
X109086259Y-108112882D02*
X109086259Y-107797921D01*
X109011268Y-107797921D01*
X108966274Y-107812919D01*
X108936278Y-107842915D01*
X108921279Y-107872912D01*
X108906281Y-107932904D01*
X108906281Y-107977899D01*
X108921279Y-108037891D01*
X108936278Y-108067887D01*
X108966274Y-108097884D01*
X109011268Y-108112882D01*
X109086259Y-108112882D01*
X108771298Y-108112882D02*
X108771298Y-107797921D01*
X108696307Y-107797921D01*
X108651313Y-107812919D01*
X108621317Y-107842915D01*
X108606318Y-107872912D01*
X108591320Y-107932904D01*
X108591320Y-107977899D01*
X108606318Y-108037891D01*
X108621317Y-108067887D01*
X108651313Y-108097884D01*
X108696307Y-108112882D01*
X108771298Y-108112882D01*
X108456337Y-108112882D02*
X108456337Y-107797921D01*
X108336352Y-107797921D01*
X108306356Y-107812919D01*
X108291357Y-107827917D01*
X108276359Y-107857913D01*
X108276359Y-107902908D01*
X108291357Y-107932904D01*
X108306356Y-107947902D01*
X108336352Y-107962900D01*
X108456337Y-107962900D01*
X108036389Y-107947902D02*
X107991395Y-107962900D01*
X107976396Y-107977899D01*
X107961398Y-108007895D01*
X107961398Y-108052889D01*
X107976396Y-108082886D01*
X107991395Y-108097884D01*
X108021391Y-108112882D01*
X108141376Y-108112882D01*
X108141376Y-107797921D01*
X108036389Y-107797921D01*
X108006393Y-107812919D01*
X107991395Y-107827917D01*
X107976396Y-107857913D01*
X107976396Y-107887910D01*
X107991395Y-107917906D01*
X108006393Y-107932904D01*
X108036389Y-107947902D01*
X108141376Y-107947902D01*
X107721428Y-107947902D02*
X107826415Y-107947902D01*
X107826415Y-108112882D02*
X107826415Y-107797921D01*
X107676434Y-107797921D01*
M02*
