G04 #@! TF.GenerationSoftware,KiCad,Pcbnew,5.1.2-f72e74a~84~ubuntu18.04.1*
G04 #@! TF.CreationDate,2019-09-03T03:08:37+02:00*
G04 #@! TF.ProjectId,board,626f6172-642e-46b6-9963-61645f706362,rev?*
G04 #@! TF.SameCoordinates,Original*
G04 #@! TF.FileFunction,Copper,L1,Top*
G04 #@! TF.FilePolarity,Positive*
%FSLAX46Y46*%
G04 Gerber Fmt 4.6, Leading zero omitted, Abs format (unit mm)*
G04 Created by KiCad (PCBNEW 5.1.2-f72e74a~84~ubuntu18.04.1) date 2019-09-03 03:08:37*
%MOMM*%
%LPD*%
G04 APERTURE LIST*
%ADD10C,0.100000*%
%ADD11C,0.590000*%
%ADD12R,1.000000X1.000000*%
%ADD13R,1.700000X1.700000*%
%ADD14O,1.700000X1.700000*%
%ADD15C,0.875000*%
%ADD16R,3.000000X1.500000*%
%ADD17C,0.950000*%
%ADD18R,2.000000X3.500000*%
%ADD19R,2.000000X6.000000*%
%ADD20R,1.230000X0.950000*%
%ADD21R,0.500000X0.630000*%
%ADD22C,0.975000*%
%ADD23C,1.600000*%
%ADD24C,1.800000*%
%ADD25R,1.800000X1.800000*%
%ADD26R,1.270000X0.760000*%
%ADD27C,0.800000*%
%ADD28C,0.500000*%
%ADD29C,0.300000*%
%ADD30C,0.250000*%
%ADD31C,0.254000*%
G04 APERTURE END LIST*
D10*
G36*
X142328158Y-128382510D02*
G01*
X142342476Y-128384634D01*
X142356517Y-128388151D01*
X142370146Y-128393028D01*
X142383231Y-128399217D01*
X142395647Y-128406658D01*
X142407273Y-128415281D01*
X142417998Y-128425002D01*
X142427719Y-128435727D01*
X142436342Y-128447353D01*
X142443783Y-128459769D01*
X142449972Y-128472854D01*
X142454849Y-128486483D01*
X142458366Y-128500524D01*
X142460490Y-128514842D01*
X142461200Y-128529300D01*
X142461200Y-128874300D01*
X142460490Y-128888758D01*
X142458366Y-128903076D01*
X142454849Y-128917117D01*
X142449972Y-128930746D01*
X142443783Y-128943831D01*
X142436342Y-128956247D01*
X142427719Y-128967873D01*
X142417998Y-128978598D01*
X142407273Y-128988319D01*
X142395647Y-128996942D01*
X142383231Y-129004383D01*
X142370146Y-129010572D01*
X142356517Y-129015449D01*
X142342476Y-129018966D01*
X142328158Y-129021090D01*
X142313700Y-129021800D01*
X142018700Y-129021800D01*
X142004242Y-129021090D01*
X141989924Y-129018966D01*
X141975883Y-129015449D01*
X141962254Y-129010572D01*
X141949169Y-129004383D01*
X141936753Y-128996942D01*
X141925127Y-128988319D01*
X141914402Y-128978598D01*
X141904681Y-128967873D01*
X141896058Y-128956247D01*
X141888617Y-128943831D01*
X141882428Y-128930746D01*
X141877551Y-128917117D01*
X141874034Y-128903076D01*
X141871910Y-128888758D01*
X141871200Y-128874300D01*
X141871200Y-128529300D01*
X141871910Y-128514842D01*
X141874034Y-128500524D01*
X141877551Y-128486483D01*
X141882428Y-128472854D01*
X141888617Y-128459769D01*
X141896058Y-128447353D01*
X141904681Y-128435727D01*
X141914402Y-128425002D01*
X141925127Y-128415281D01*
X141936753Y-128406658D01*
X141949169Y-128399217D01*
X141962254Y-128393028D01*
X141975883Y-128388151D01*
X141989924Y-128384634D01*
X142004242Y-128382510D01*
X142018700Y-128381800D01*
X142313700Y-128381800D01*
X142328158Y-128382510D01*
X142328158Y-128382510D01*
G37*
D11*
X142166200Y-128701800D03*
D10*
G36*
X141358158Y-128382510D02*
G01*
X141372476Y-128384634D01*
X141386517Y-128388151D01*
X141400146Y-128393028D01*
X141413231Y-128399217D01*
X141425647Y-128406658D01*
X141437273Y-128415281D01*
X141447998Y-128425002D01*
X141457719Y-128435727D01*
X141466342Y-128447353D01*
X141473783Y-128459769D01*
X141479972Y-128472854D01*
X141484849Y-128486483D01*
X141488366Y-128500524D01*
X141490490Y-128514842D01*
X141491200Y-128529300D01*
X141491200Y-128874300D01*
X141490490Y-128888758D01*
X141488366Y-128903076D01*
X141484849Y-128917117D01*
X141479972Y-128930746D01*
X141473783Y-128943831D01*
X141466342Y-128956247D01*
X141457719Y-128967873D01*
X141447998Y-128978598D01*
X141437273Y-128988319D01*
X141425647Y-128996942D01*
X141413231Y-129004383D01*
X141400146Y-129010572D01*
X141386517Y-129015449D01*
X141372476Y-129018966D01*
X141358158Y-129021090D01*
X141343700Y-129021800D01*
X141048700Y-129021800D01*
X141034242Y-129021090D01*
X141019924Y-129018966D01*
X141005883Y-129015449D01*
X140992254Y-129010572D01*
X140979169Y-129004383D01*
X140966753Y-128996942D01*
X140955127Y-128988319D01*
X140944402Y-128978598D01*
X140934681Y-128967873D01*
X140926058Y-128956247D01*
X140918617Y-128943831D01*
X140912428Y-128930746D01*
X140907551Y-128917117D01*
X140904034Y-128903076D01*
X140901910Y-128888758D01*
X140901200Y-128874300D01*
X140901200Y-128529300D01*
X140901910Y-128514842D01*
X140904034Y-128500524D01*
X140907551Y-128486483D01*
X140912428Y-128472854D01*
X140918617Y-128459769D01*
X140926058Y-128447353D01*
X140934681Y-128435727D01*
X140944402Y-128425002D01*
X140955127Y-128415281D01*
X140966753Y-128406658D01*
X140979169Y-128399217D01*
X140992254Y-128393028D01*
X141005883Y-128388151D01*
X141019924Y-128384634D01*
X141034242Y-128382510D01*
X141048700Y-128381800D01*
X141343700Y-128381800D01*
X141358158Y-128382510D01*
X141358158Y-128382510D01*
G37*
D11*
X141196200Y-128701800D03*
D12*
X141958000Y-132447000D03*
X141958000Y-130697000D03*
X138458000Y-132447000D03*
X138458000Y-130697000D03*
D13*
X141818000Y-117036000D03*
D14*
X139278000Y-117036000D03*
X136738000Y-117036000D03*
X134198000Y-117036000D03*
X131658000Y-117036000D03*
X129118000Y-117036000D03*
X126578000Y-117036000D03*
X124038000Y-117036000D03*
X121498000Y-117036000D03*
X118958000Y-117036000D03*
X116418000Y-117036000D03*
X113878000Y-117036000D03*
X111338000Y-117036000D03*
X108798000Y-117036000D03*
X108798000Y-101836000D03*
X111338000Y-101836000D03*
X113878000Y-101836000D03*
X116418000Y-101836000D03*
X118958000Y-101836000D03*
X121498000Y-101836000D03*
X124038000Y-101836000D03*
X126578000Y-101836000D03*
X129118000Y-101836000D03*
X131658000Y-101836000D03*
X134198000Y-101836000D03*
X136738000Y-101836000D03*
X139278000Y-101836000D03*
D13*
X141818000Y-101836000D03*
D10*
G36*
X101738491Y-117077253D02*
G01*
X101759726Y-117080403D01*
X101780550Y-117085619D01*
X101800762Y-117092851D01*
X101820168Y-117102030D01*
X101838581Y-117113066D01*
X101855824Y-117125854D01*
X101871730Y-117140270D01*
X101886146Y-117156176D01*
X101898934Y-117173419D01*
X101909970Y-117191832D01*
X101919149Y-117211238D01*
X101926381Y-117231450D01*
X101931597Y-117252274D01*
X101934747Y-117273509D01*
X101935800Y-117294950D01*
X101935800Y-117807450D01*
X101934747Y-117828891D01*
X101931597Y-117850126D01*
X101926381Y-117870950D01*
X101919149Y-117891162D01*
X101909970Y-117910568D01*
X101898934Y-117928981D01*
X101886146Y-117946224D01*
X101871730Y-117962130D01*
X101855824Y-117976546D01*
X101838581Y-117989334D01*
X101820168Y-118000370D01*
X101800762Y-118009549D01*
X101780550Y-118016781D01*
X101759726Y-118021997D01*
X101738491Y-118025147D01*
X101717050Y-118026200D01*
X101279550Y-118026200D01*
X101258109Y-118025147D01*
X101236874Y-118021997D01*
X101216050Y-118016781D01*
X101195838Y-118009549D01*
X101176432Y-118000370D01*
X101158019Y-117989334D01*
X101140776Y-117976546D01*
X101124870Y-117962130D01*
X101110454Y-117946224D01*
X101097666Y-117928981D01*
X101086630Y-117910568D01*
X101077451Y-117891162D01*
X101070219Y-117870950D01*
X101065003Y-117850126D01*
X101061853Y-117828891D01*
X101060800Y-117807450D01*
X101060800Y-117294950D01*
X101061853Y-117273509D01*
X101065003Y-117252274D01*
X101070219Y-117231450D01*
X101077451Y-117211238D01*
X101086630Y-117191832D01*
X101097666Y-117173419D01*
X101110454Y-117156176D01*
X101124870Y-117140270D01*
X101140776Y-117125854D01*
X101158019Y-117113066D01*
X101176432Y-117102030D01*
X101195838Y-117092851D01*
X101216050Y-117085619D01*
X101236874Y-117080403D01*
X101258109Y-117077253D01*
X101279550Y-117076200D01*
X101717050Y-117076200D01*
X101738491Y-117077253D01*
X101738491Y-117077253D01*
G37*
D15*
X101498300Y-117551200D03*
D10*
G36*
X103313491Y-117077253D02*
G01*
X103334726Y-117080403D01*
X103355550Y-117085619D01*
X103375762Y-117092851D01*
X103395168Y-117102030D01*
X103413581Y-117113066D01*
X103430824Y-117125854D01*
X103446730Y-117140270D01*
X103461146Y-117156176D01*
X103473934Y-117173419D01*
X103484970Y-117191832D01*
X103494149Y-117211238D01*
X103501381Y-117231450D01*
X103506597Y-117252274D01*
X103509747Y-117273509D01*
X103510800Y-117294950D01*
X103510800Y-117807450D01*
X103509747Y-117828891D01*
X103506597Y-117850126D01*
X103501381Y-117870950D01*
X103494149Y-117891162D01*
X103484970Y-117910568D01*
X103473934Y-117928981D01*
X103461146Y-117946224D01*
X103446730Y-117962130D01*
X103430824Y-117976546D01*
X103413581Y-117989334D01*
X103395168Y-118000370D01*
X103375762Y-118009549D01*
X103355550Y-118016781D01*
X103334726Y-118021997D01*
X103313491Y-118025147D01*
X103292050Y-118026200D01*
X102854550Y-118026200D01*
X102833109Y-118025147D01*
X102811874Y-118021997D01*
X102791050Y-118016781D01*
X102770838Y-118009549D01*
X102751432Y-118000370D01*
X102733019Y-117989334D01*
X102715776Y-117976546D01*
X102699870Y-117962130D01*
X102685454Y-117946224D01*
X102672666Y-117928981D01*
X102661630Y-117910568D01*
X102652451Y-117891162D01*
X102645219Y-117870950D01*
X102640003Y-117850126D01*
X102636853Y-117828891D01*
X102635800Y-117807450D01*
X102635800Y-117294950D01*
X102636853Y-117273509D01*
X102640003Y-117252274D01*
X102645219Y-117231450D01*
X102652451Y-117211238D01*
X102661630Y-117191832D01*
X102672666Y-117173419D01*
X102685454Y-117156176D01*
X102699870Y-117140270D01*
X102715776Y-117125854D01*
X102733019Y-117113066D01*
X102751432Y-117102030D01*
X102770838Y-117092851D01*
X102791050Y-117085619D01*
X102811874Y-117080403D01*
X102833109Y-117077253D01*
X102854550Y-117076200D01*
X103292050Y-117076200D01*
X103313491Y-117077253D01*
X103313491Y-117077253D01*
G37*
D15*
X103073300Y-117551200D03*
D16*
X144943000Y-130937000D03*
X144943000Y-128397000D03*
X144943000Y-125857000D03*
X144943000Y-123317000D03*
X144943000Y-120777000D03*
X149443000Y-129667000D03*
X149443000Y-127127000D03*
X149443000Y-124587000D03*
X149443000Y-122047000D03*
X149443000Y-119507000D03*
D14*
X114300000Y-131826000D03*
X116840000Y-131826000D03*
X119380000Y-131826000D03*
X121920000Y-131826000D03*
X124460000Y-131826000D03*
X127000000Y-131826000D03*
X129540000Y-131826000D03*
D13*
X132080000Y-131826000D03*
D10*
G36*
X110496779Y-132064144D02*
G01*
X110519834Y-132067563D01*
X110542443Y-132073227D01*
X110564387Y-132081079D01*
X110585457Y-132091044D01*
X110605448Y-132103026D01*
X110624168Y-132116910D01*
X110641438Y-132132562D01*
X110657090Y-132149832D01*
X110670974Y-132168552D01*
X110682956Y-132188543D01*
X110692921Y-132209613D01*
X110700773Y-132231557D01*
X110706437Y-132254166D01*
X110709856Y-132277221D01*
X110711000Y-132300500D01*
X110711000Y-132875500D01*
X110709856Y-132898779D01*
X110706437Y-132921834D01*
X110700773Y-132944443D01*
X110692921Y-132966387D01*
X110682956Y-132987457D01*
X110670974Y-133007448D01*
X110657090Y-133026168D01*
X110641438Y-133043438D01*
X110624168Y-133059090D01*
X110605448Y-133072974D01*
X110585457Y-133084956D01*
X110564387Y-133094921D01*
X110542443Y-133102773D01*
X110519834Y-133108437D01*
X110496779Y-133111856D01*
X110473500Y-133113000D01*
X109998500Y-133113000D01*
X109975221Y-133111856D01*
X109952166Y-133108437D01*
X109929557Y-133102773D01*
X109907613Y-133094921D01*
X109886543Y-133084956D01*
X109866552Y-133072974D01*
X109847832Y-133059090D01*
X109830562Y-133043438D01*
X109814910Y-133026168D01*
X109801026Y-133007448D01*
X109789044Y-132987457D01*
X109779079Y-132966387D01*
X109771227Y-132944443D01*
X109765563Y-132921834D01*
X109762144Y-132898779D01*
X109761000Y-132875500D01*
X109761000Y-132300500D01*
X109762144Y-132277221D01*
X109765563Y-132254166D01*
X109771227Y-132231557D01*
X109779079Y-132209613D01*
X109789044Y-132188543D01*
X109801026Y-132168552D01*
X109814910Y-132149832D01*
X109830562Y-132132562D01*
X109847832Y-132116910D01*
X109866552Y-132103026D01*
X109886543Y-132091044D01*
X109907613Y-132081079D01*
X109929557Y-132073227D01*
X109952166Y-132067563D01*
X109975221Y-132064144D01*
X109998500Y-132063000D01*
X110473500Y-132063000D01*
X110496779Y-132064144D01*
X110496779Y-132064144D01*
G37*
D17*
X110236000Y-132588000D03*
D10*
G36*
X110496779Y-130314144D02*
G01*
X110519834Y-130317563D01*
X110542443Y-130323227D01*
X110564387Y-130331079D01*
X110585457Y-130341044D01*
X110605448Y-130353026D01*
X110624168Y-130366910D01*
X110641438Y-130382562D01*
X110657090Y-130399832D01*
X110670974Y-130418552D01*
X110682956Y-130438543D01*
X110692921Y-130459613D01*
X110700773Y-130481557D01*
X110706437Y-130504166D01*
X110709856Y-130527221D01*
X110711000Y-130550500D01*
X110711000Y-131125500D01*
X110709856Y-131148779D01*
X110706437Y-131171834D01*
X110700773Y-131194443D01*
X110692921Y-131216387D01*
X110682956Y-131237457D01*
X110670974Y-131257448D01*
X110657090Y-131276168D01*
X110641438Y-131293438D01*
X110624168Y-131309090D01*
X110605448Y-131322974D01*
X110585457Y-131334956D01*
X110564387Y-131344921D01*
X110542443Y-131352773D01*
X110519834Y-131358437D01*
X110496779Y-131361856D01*
X110473500Y-131363000D01*
X109998500Y-131363000D01*
X109975221Y-131361856D01*
X109952166Y-131358437D01*
X109929557Y-131352773D01*
X109907613Y-131344921D01*
X109886543Y-131334956D01*
X109866552Y-131322974D01*
X109847832Y-131309090D01*
X109830562Y-131293438D01*
X109814910Y-131276168D01*
X109801026Y-131257448D01*
X109789044Y-131237457D01*
X109779079Y-131216387D01*
X109771227Y-131194443D01*
X109765563Y-131171834D01*
X109762144Y-131148779D01*
X109761000Y-131125500D01*
X109761000Y-130550500D01*
X109762144Y-130527221D01*
X109765563Y-130504166D01*
X109771227Y-130481557D01*
X109779079Y-130459613D01*
X109789044Y-130438543D01*
X109801026Y-130418552D01*
X109814910Y-130399832D01*
X109830562Y-130382562D01*
X109847832Y-130366910D01*
X109866552Y-130353026D01*
X109886543Y-130341044D01*
X109907613Y-130331079D01*
X109929557Y-130323227D01*
X109952166Y-130317563D01*
X109975221Y-130314144D01*
X109998500Y-130313000D01*
X110473500Y-130313000D01*
X110496779Y-130314144D01*
X110496779Y-130314144D01*
G37*
D17*
X110236000Y-130838000D03*
D10*
G36*
X110422958Y-127998710D02*
G01*
X110437276Y-128000834D01*
X110451317Y-128004351D01*
X110464946Y-128009228D01*
X110478031Y-128015417D01*
X110490447Y-128022858D01*
X110502073Y-128031481D01*
X110512798Y-128041202D01*
X110522519Y-128051927D01*
X110531142Y-128063553D01*
X110538583Y-128075969D01*
X110544772Y-128089054D01*
X110549649Y-128102683D01*
X110553166Y-128116724D01*
X110555290Y-128131042D01*
X110556000Y-128145500D01*
X110556000Y-128440500D01*
X110555290Y-128454958D01*
X110553166Y-128469276D01*
X110549649Y-128483317D01*
X110544772Y-128496946D01*
X110538583Y-128510031D01*
X110531142Y-128522447D01*
X110522519Y-128534073D01*
X110512798Y-128544798D01*
X110502073Y-128554519D01*
X110490447Y-128563142D01*
X110478031Y-128570583D01*
X110464946Y-128576772D01*
X110451317Y-128581649D01*
X110437276Y-128585166D01*
X110422958Y-128587290D01*
X110408500Y-128588000D01*
X110063500Y-128588000D01*
X110049042Y-128587290D01*
X110034724Y-128585166D01*
X110020683Y-128581649D01*
X110007054Y-128576772D01*
X109993969Y-128570583D01*
X109981553Y-128563142D01*
X109969927Y-128554519D01*
X109959202Y-128544798D01*
X109949481Y-128534073D01*
X109940858Y-128522447D01*
X109933417Y-128510031D01*
X109927228Y-128496946D01*
X109922351Y-128483317D01*
X109918834Y-128469276D01*
X109916710Y-128454958D01*
X109916000Y-128440500D01*
X109916000Y-128145500D01*
X109916710Y-128131042D01*
X109918834Y-128116724D01*
X109922351Y-128102683D01*
X109927228Y-128089054D01*
X109933417Y-128075969D01*
X109940858Y-128063553D01*
X109949481Y-128051927D01*
X109959202Y-128041202D01*
X109969927Y-128031481D01*
X109981553Y-128022858D01*
X109993969Y-128015417D01*
X110007054Y-128009228D01*
X110020683Y-128004351D01*
X110034724Y-128000834D01*
X110049042Y-127998710D01*
X110063500Y-127998000D01*
X110408500Y-127998000D01*
X110422958Y-127998710D01*
X110422958Y-127998710D01*
G37*
D11*
X110236000Y-128293000D03*
D10*
G36*
X110422958Y-128968710D02*
G01*
X110437276Y-128970834D01*
X110451317Y-128974351D01*
X110464946Y-128979228D01*
X110478031Y-128985417D01*
X110490447Y-128992858D01*
X110502073Y-129001481D01*
X110512798Y-129011202D01*
X110522519Y-129021927D01*
X110531142Y-129033553D01*
X110538583Y-129045969D01*
X110544772Y-129059054D01*
X110549649Y-129072683D01*
X110553166Y-129086724D01*
X110555290Y-129101042D01*
X110556000Y-129115500D01*
X110556000Y-129410500D01*
X110555290Y-129424958D01*
X110553166Y-129439276D01*
X110549649Y-129453317D01*
X110544772Y-129466946D01*
X110538583Y-129480031D01*
X110531142Y-129492447D01*
X110522519Y-129504073D01*
X110512798Y-129514798D01*
X110502073Y-129524519D01*
X110490447Y-129533142D01*
X110478031Y-129540583D01*
X110464946Y-129546772D01*
X110451317Y-129551649D01*
X110437276Y-129555166D01*
X110422958Y-129557290D01*
X110408500Y-129558000D01*
X110063500Y-129558000D01*
X110049042Y-129557290D01*
X110034724Y-129555166D01*
X110020683Y-129551649D01*
X110007054Y-129546772D01*
X109993969Y-129540583D01*
X109981553Y-129533142D01*
X109969927Y-129524519D01*
X109959202Y-129514798D01*
X109949481Y-129504073D01*
X109940858Y-129492447D01*
X109933417Y-129480031D01*
X109927228Y-129466946D01*
X109922351Y-129453317D01*
X109918834Y-129439276D01*
X109916710Y-129424958D01*
X109916000Y-129410500D01*
X109916000Y-129115500D01*
X109916710Y-129101042D01*
X109918834Y-129086724D01*
X109922351Y-129072683D01*
X109927228Y-129059054D01*
X109933417Y-129045969D01*
X109940858Y-129033553D01*
X109949481Y-129021927D01*
X109959202Y-129011202D01*
X109969927Y-129001481D01*
X109981553Y-128992858D01*
X109993969Y-128985417D01*
X110007054Y-128979228D01*
X110020683Y-128974351D01*
X110034724Y-128970834D01*
X110049042Y-128968710D01*
X110063500Y-128968000D01*
X110408500Y-128968000D01*
X110422958Y-128968710D01*
X110422958Y-128968710D01*
G37*
D11*
X110236000Y-129263000D03*
D18*
X106140000Y-121242000D03*
D19*
X106140000Y-130492000D03*
X102140000Y-130492000D03*
D18*
X102140000Y-121242000D03*
D20*
X118435000Y-123237000D03*
X119655000Y-123237000D03*
X118435000Y-122287000D03*
X119655000Y-122287000D03*
D21*
X118075000Y-121707000D03*
X118715000Y-121707000D03*
X119375000Y-121707000D03*
X120015000Y-121707000D03*
X120015000Y-124587000D03*
X119375000Y-124587000D03*
X118715000Y-124587000D03*
X118075000Y-124587000D03*
D20*
X123800000Y-125259000D03*
X122580000Y-125259000D03*
X123800000Y-126209000D03*
X122580000Y-126209000D03*
D21*
X124160000Y-126789000D03*
X123520000Y-126789000D03*
X122860000Y-126789000D03*
X122220000Y-126789000D03*
X122220000Y-123909000D03*
X122860000Y-123909000D03*
X123520000Y-123909000D03*
X124160000Y-123909000D03*
D20*
X132817000Y-125132000D03*
X131597000Y-125132000D03*
X132817000Y-126082000D03*
X131597000Y-126082000D03*
D21*
X133177000Y-126662000D03*
X132537000Y-126662000D03*
X131877000Y-126662000D03*
X131237000Y-126662000D03*
X131237000Y-123782000D03*
X131877000Y-123782000D03*
X132537000Y-123782000D03*
X133177000Y-123782000D03*
D20*
X136296000Y-123280000D03*
X137516000Y-123280000D03*
X136296000Y-122330000D03*
X137516000Y-122330000D03*
D21*
X135936000Y-121750000D03*
X136576000Y-121750000D03*
X137236000Y-121750000D03*
X137876000Y-121750000D03*
X137876000Y-124630000D03*
X137236000Y-124630000D03*
X136576000Y-124630000D03*
X135936000Y-124630000D03*
D20*
X127533000Y-123280000D03*
X128753000Y-123280000D03*
X127533000Y-122330000D03*
X128753000Y-122330000D03*
D21*
X127173000Y-121750000D03*
X127813000Y-121750000D03*
X128473000Y-121750000D03*
X129113000Y-121750000D03*
X129113000Y-124630000D03*
X128473000Y-124630000D03*
X127813000Y-124630000D03*
X127173000Y-124630000D03*
D20*
X141961000Y-125132000D03*
X140741000Y-125132000D03*
X141961000Y-126082000D03*
X140741000Y-126082000D03*
D21*
X142321000Y-126662000D03*
X141681000Y-126662000D03*
X141021000Y-126662000D03*
X140381000Y-126662000D03*
X140381000Y-123782000D03*
X141021000Y-123782000D03*
X141681000Y-123782000D03*
X142321000Y-123782000D03*
D10*
G36*
X101872242Y-114896574D02*
G01*
X101895903Y-114900084D01*
X101919107Y-114905896D01*
X101941629Y-114913954D01*
X101963253Y-114924182D01*
X101983770Y-114936479D01*
X102002983Y-114950729D01*
X102020707Y-114966793D01*
X102036771Y-114984517D01*
X102051021Y-115003730D01*
X102063318Y-115024247D01*
X102073546Y-115045871D01*
X102081604Y-115068393D01*
X102087416Y-115091597D01*
X102090926Y-115115258D01*
X102092100Y-115139150D01*
X102092100Y-116051650D01*
X102090926Y-116075542D01*
X102087416Y-116099203D01*
X102081604Y-116122407D01*
X102073546Y-116144929D01*
X102063318Y-116166553D01*
X102051021Y-116187070D01*
X102036771Y-116206283D01*
X102020707Y-116224007D01*
X102002983Y-116240071D01*
X101983770Y-116254321D01*
X101963253Y-116266618D01*
X101941629Y-116276846D01*
X101919107Y-116284904D01*
X101895903Y-116290716D01*
X101872242Y-116294226D01*
X101848350Y-116295400D01*
X101360850Y-116295400D01*
X101336958Y-116294226D01*
X101313297Y-116290716D01*
X101290093Y-116284904D01*
X101267571Y-116276846D01*
X101245947Y-116266618D01*
X101225430Y-116254321D01*
X101206217Y-116240071D01*
X101188493Y-116224007D01*
X101172429Y-116206283D01*
X101158179Y-116187070D01*
X101145882Y-116166553D01*
X101135654Y-116144929D01*
X101127596Y-116122407D01*
X101121784Y-116099203D01*
X101118274Y-116075542D01*
X101117100Y-116051650D01*
X101117100Y-115139150D01*
X101118274Y-115115258D01*
X101121784Y-115091597D01*
X101127596Y-115068393D01*
X101135654Y-115045871D01*
X101145882Y-115024247D01*
X101158179Y-115003730D01*
X101172429Y-114984517D01*
X101188493Y-114966793D01*
X101206217Y-114950729D01*
X101225430Y-114936479D01*
X101245947Y-114924182D01*
X101267571Y-114913954D01*
X101290093Y-114905896D01*
X101313297Y-114900084D01*
X101336958Y-114896574D01*
X101360850Y-114895400D01*
X101848350Y-114895400D01*
X101872242Y-114896574D01*
X101872242Y-114896574D01*
G37*
D22*
X101604600Y-115595400D03*
D10*
G36*
X103747242Y-114896574D02*
G01*
X103770903Y-114900084D01*
X103794107Y-114905896D01*
X103816629Y-114913954D01*
X103838253Y-114924182D01*
X103858770Y-114936479D01*
X103877983Y-114950729D01*
X103895707Y-114966793D01*
X103911771Y-114984517D01*
X103926021Y-115003730D01*
X103938318Y-115024247D01*
X103948546Y-115045871D01*
X103956604Y-115068393D01*
X103962416Y-115091597D01*
X103965926Y-115115258D01*
X103967100Y-115139150D01*
X103967100Y-116051650D01*
X103965926Y-116075542D01*
X103962416Y-116099203D01*
X103956604Y-116122407D01*
X103948546Y-116144929D01*
X103938318Y-116166553D01*
X103926021Y-116187070D01*
X103911771Y-116206283D01*
X103895707Y-116224007D01*
X103877983Y-116240071D01*
X103858770Y-116254321D01*
X103838253Y-116266618D01*
X103816629Y-116276846D01*
X103794107Y-116284904D01*
X103770903Y-116290716D01*
X103747242Y-116294226D01*
X103723350Y-116295400D01*
X103235850Y-116295400D01*
X103211958Y-116294226D01*
X103188297Y-116290716D01*
X103165093Y-116284904D01*
X103142571Y-116276846D01*
X103120947Y-116266618D01*
X103100430Y-116254321D01*
X103081217Y-116240071D01*
X103063493Y-116224007D01*
X103047429Y-116206283D01*
X103033179Y-116187070D01*
X103020882Y-116166553D01*
X103010654Y-116144929D01*
X103002596Y-116122407D01*
X102996784Y-116099203D01*
X102993274Y-116075542D01*
X102992100Y-116051650D01*
X102992100Y-115139150D01*
X102993274Y-115115258D01*
X102996784Y-115091597D01*
X103002596Y-115068393D01*
X103010654Y-115045871D01*
X103020882Y-115024247D01*
X103033179Y-115003730D01*
X103047429Y-114984517D01*
X103063493Y-114966793D01*
X103081217Y-114950729D01*
X103100430Y-114936479D01*
X103120947Y-114924182D01*
X103142571Y-114913954D01*
X103165093Y-114905896D01*
X103188297Y-114900084D01*
X103211958Y-114896574D01*
X103235850Y-114895400D01*
X103723350Y-114895400D01*
X103747242Y-114896574D01*
X103747242Y-114896574D01*
G37*
D22*
X103479600Y-115595400D03*
D10*
G36*
X113096504Y-119503204D02*
G01*
X113120773Y-119506804D01*
X113144571Y-119512765D01*
X113167671Y-119521030D01*
X113189849Y-119531520D01*
X113210893Y-119544133D01*
X113230598Y-119558747D01*
X113248777Y-119575223D01*
X113265253Y-119593402D01*
X113279867Y-119613107D01*
X113292480Y-119634151D01*
X113302970Y-119656329D01*
X113311235Y-119679429D01*
X113317196Y-119703227D01*
X113320796Y-119727496D01*
X113322000Y-119752000D01*
X113322000Y-122752000D01*
X113320796Y-122776504D01*
X113317196Y-122800773D01*
X113311235Y-122824571D01*
X113302970Y-122847671D01*
X113292480Y-122869849D01*
X113279867Y-122890893D01*
X113265253Y-122910598D01*
X113248777Y-122928777D01*
X113230598Y-122945253D01*
X113210893Y-122959867D01*
X113189849Y-122972480D01*
X113167671Y-122982970D01*
X113144571Y-122991235D01*
X113120773Y-122997196D01*
X113096504Y-123000796D01*
X113072000Y-123002000D01*
X111972000Y-123002000D01*
X111947496Y-123000796D01*
X111923227Y-122997196D01*
X111899429Y-122991235D01*
X111876329Y-122982970D01*
X111854151Y-122972480D01*
X111833107Y-122959867D01*
X111813402Y-122945253D01*
X111795223Y-122928777D01*
X111778747Y-122910598D01*
X111764133Y-122890893D01*
X111751520Y-122869849D01*
X111741030Y-122847671D01*
X111732765Y-122824571D01*
X111726804Y-122800773D01*
X111723204Y-122776504D01*
X111722000Y-122752000D01*
X111722000Y-119752000D01*
X111723204Y-119727496D01*
X111726804Y-119703227D01*
X111732765Y-119679429D01*
X111741030Y-119656329D01*
X111751520Y-119634151D01*
X111764133Y-119613107D01*
X111778747Y-119593402D01*
X111795223Y-119575223D01*
X111813402Y-119558747D01*
X111833107Y-119544133D01*
X111854151Y-119531520D01*
X111876329Y-119521030D01*
X111899429Y-119512765D01*
X111923227Y-119506804D01*
X111947496Y-119503204D01*
X111972000Y-119502000D01*
X113072000Y-119502000D01*
X113096504Y-119503204D01*
X113096504Y-119503204D01*
G37*
D23*
X112522000Y-121252000D03*
D10*
G36*
X113096504Y-124903204D02*
G01*
X113120773Y-124906804D01*
X113144571Y-124912765D01*
X113167671Y-124921030D01*
X113189849Y-124931520D01*
X113210893Y-124944133D01*
X113230598Y-124958747D01*
X113248777Y-124975223D01*
X113265253Y-124993402D01*
X113279867Y-125013107D01*
X113292480Y-125034151D01*
X113302970Y-125056329D01*
X113311235Y-125079429D01*
X113317196Y-125103227D01*
X113320796Y-125127496D01*
X113322000Y-125152000D01*
X113322000Y-128152000D01*
X113320796Y-128176504D01*
X113317196Y-128200773D01*
X113311235Y-128224571D01*
X113302970Y-128247671D01*
X113292480Y-128269849D01*
X113279867Y-128290893D01*
X113265253Y-128310598D01*
X113248777Y-128328777D01*
X113230598Y-128345253D01*
X113210893Y-128359867D01*
X113189849Y-128372480D01*
X113167671Y-128382970D01*
X113144571Y-128391235D01*
X113120773Y-128397196D01*
X113096504Y-128400796D01*
X113072000Y-128402000D01*
X111972000Y-128402000D01*
X111947496Y-128400796D01*
X111923227Y-128397196D01*
X111899429Y-128391235D01*
X111876329Y-128382970D01*
X111854151Y-128372480D01*
X111833107Y-128359867D01*
X111813402Y-128345253D01*
X111795223Y-128328777D01*
X111778747Y-128310598D01*
X111764133Y-128290893D01*
X111751520Y-128269849D01*
X111741030Y-128247671D01*
X111732765Y-128224571D01*
X111726804Y-128200773D01*
X111723204Y-128176504D01*
X111722000Y-128152000D01*
X111722000Y-125152000D01*
X111723204Y-125127496D01*
X111726804Y-125103227D01*
X111732765Y-125079429D01*
X111741030Y-125056329D01*
X111751520Y-125034151D01*
X111764133Y-125013107D01*
X111778747Y-124993402D01*
X111795223Y-124975223D01*
X111813402Y-124958747D01*
X111833107Y-124944133D01*
X111854151Y-124931520D01*
X111876329Y-124921030D01*
X111899429Y-124912765D01*
X111923227Y-124906804D01*
X111947496Y-124903204D01*
X111972000Y-124902000D01*
X113072000Y-124902000D01*
X113096504Y-124903204D01*
X113096504Y-124903204D01*
G37*
D23*
X112522000Y-126652000D03*
D10*
G36*
X101872242Y-112839174D02*
G01*
X101895903Y-112842684D01*
X101919107Y-112848496D01*
X101941629Y-112856554D01*
X101963253Y-112866782D01*
X101983770Y-112879079D01*
X102002983Y-112893329D01*
X102020707Y-112909393D01*
X102036771Y-112927117D01*
X102051021Y-112946330D01*
X102063318Y-112966847D01*
X102073546Y-112988471D01*
X102081604Y-113010993D01*
X102087416Y-113034197D01*
X102090926Y-113057858D01*
X102092100Y-113081750D01*
X102092100Y-113994250D01*
X102090926Y-114018142D01*
X102087416Y-114041803D01*
X102081604Y-114065007D01*
X102073546Y-114087529D01*
X102063318Y-114109153D01*
X102051021Y-114129670D01*
X102036771Y-114148883D01*
X102020707Y-114166607D01*
X102002983Y-114182671D01*
X101983770Y-114196921D01*
X101963253Y-114209218D01*
X101941629Y-114219446D01*
X101919107Y-114227504D01*
X101895903Y-114233316D01*
X101872242Y-114236826D01*
X101848350Y-114238000D01*
X101360850Y-114238000D01*
X101336958Y-114236826D01*
X101313297Y-114233316D01*
X101290093Y-114227504D01*
X101267571Y-114219446D01*
X101245947Y-114209218D01*
X101225430Y-114196921D01*
X101206217Y-114182671D01*
X101188493Y-114166607D01*
X101172429Y-114148883D01*
X101158179Y-114129670D01*
X101145882Y-114109153D01*
X101135654Y-114087529D01*
X101127596Y-114065007D01*
X101121784Y-114041803D01*
X101118274Y-114018142D01*
X101117100Y-113994250D01*
X101117100Y-113081750D01*
X101118274Y-113057858D01*
X101121784Y-113034197D01*
X101127596Y-113010993D01*
X101135654Y-112988471D01*
X101145882Y-112966847D01*
X101158179Y-112946330D01*
X101172429Y-112927117D01*
X101188493Y-112909393D01*
X101206217Y-112893329D01*
X101225430Y-112879079D01*
X101245947Y-112866782D01*
X101267571Y-112856554D01*
X101290093Y-112848496D01*
X101313297Y-112842684D01*
X101336958Y-112839174D01*
X101360850Y-112838000D01*
X101848350Y-112838000D01*
X101872242Y-112839174D01*
X101872242Y-112839174D01*
G37*
D22*
X101604600Y-113538000D03*
D10*
G36*
X103747242Y-112839174D02*
G01*
X103770903Y-112842684D01*
X103794107Y-112848496D01*
X103816629Y-112856554D01*
X103838253Y-112866782D01*
X103858770Y-112879079D01*
X103877983Y-112893329D01*
X103895707Y-112909393D01*
X103911771Y-112927117D01*
X103926021Y-112946330D01*
X103938318Y-112966847D01*
X103948546Y-112988471D01*
X103956604Y-113010993D01*
X103962416Y-113034197D01*
X103965926Y-113057858D01*
X103967100Y-113081750D01*
X103967100Y-113994250D01*
X103965926Y-114018142D01*
X103962416Y-114041803D01*
X103956604Y-114065007D01*
X103948546Y-114087529D01*
X103938318Y-114109153D01*
X103926021Y-114129670D01*
X103911771Y-114148883D01*
X103895707Y-114166607D01*
X103877983Y-114182671D01*
X103858770Y-114196921D01*
X103838253Y-114209218D01*
X103816629Y-114219446D01*
X103794107Y-114227504D01*
X103770903Y-114233316D01*
X103747242Y-114236826D01*
X103723350Y-114238000D01*
X103235850Y-114238000D01*
X103211958Y-114236826D01*
X103188297Y-114233316D01*
X103165093Y-114227504D01*
X103142571Y-114219446D01*
X103120947Y-114209218D01*
X103100430Y-114196921D01*
X103081217Y-114182671D01*
X103063493Y-114166607D01*
X103047429Y-114148883D01*
X103033179Y-114129670D01*
X103020882Y-114109153D01*
X103010654Y-114087529D01*
X103002596Y-114065007D01*
X102996784Y-114041803D01*
X102993274Y-114018142D01*
X102992100Y-113994250D01*
X102992100Y-113081750D01*
X102993274Y-113057858D01*
X102996784Y-113034197D01*
X103002596Y-113010993D01*
X103010654Y-112988471D01*
X103020882Y-112966847D01*
X103033179Y-112946330D01*
X103047429Y-112927117D01*
X103063493Y-112909393D01*
X103081217Y-112893329D01*
X103100430Y-112879079D01*
X103120947Y-112866782D01*
X103142571Y-112856554D01*
X103165093Y-112848496D01*
X103188297Y-112842684D01*
X103211958Y-112839174D01*
X103235850Y-112838000D01*
X103723350Y-112838000D01*
X103747242Y-112839174D01*
X103747242Y-112839174D01*
G37*
D22*
X103479600Y-113538000D03*
D24*
X101854000Y-102362000D03*
X104394000Y-103632000D03*
D25*
X104394000Y-108712000D03*
D24*
X101854000Y-107442000D03*
X104394000Y-106172000D03*
X101854000Y-104902000D03*
D25*
X151070000Y-112505000D03*
D24*
X148530000Y-111235000D03*
X151070000Y-109965000D03*
X148530000Y-108695000D03*
D26*
X144490000Y-101830000D03*
X152110000Y-104370000D03*
X144490000Y-103100000D03*
X152110000Y-103100000D03*
X144490000Y-104370000D03*
X152110000Y-101830000D03*
D27*
X110540800Y-111175800D03*
X103505000Y-114655600D03*
X107188000Y-122428000D03*
X106680000Y-119380000D03*
X106680000Y-121412000D03*
X107188000Y-120396000D03*
X105664000Y-121412000D03*
X105664000Y-119380000D03*
X108204000Y-122428000D03*
X107696000Y-121412000D03*
X108331000Y-120396000D03*
X107696000Y-119380000D03*
X108839000Y-119380000D03*
X108966000Y-121412000D03*
X106172000Y-122428000D03*
X106172000Y-120396000D03*
X105156000Y-120396000D03*
X105156000Y-122428000D03*
X107188000Y-127508000D03*
X107188000Y-129540000D03*
X107696000Y-128524000D03*
X107696000Y-130556000D03*
X107188000Y-131572000D03*
X107696000Y-132588000D03*
X106680000Y-132588000D03*
X105664000Y-132588000D03*
X105156000Y-131572000D03*
X105156000Y-129540000D03*
X105664000Y-130556000D03*
X106172000Y-131572000D03*
X106680000Y-130556000D03*
X106172000Y-129540000D03*
X106680000Y-128524000D03*
X105664000Y-128524000D03*
X106172000Y-127508000D03*
X105156000Y-127508000D03*
D28*
X130492500Y-104648000D03*
X134810500Y-106299000D03*
D27*
X106616500Y-103759000D03*
D28*
X111950500Y-105918000D03*
D27*
X147100000Y-119500000D03*
D28*
X128206500Y-113157000D03*
D27*
X124333000Y-121793000D03*
X124333000Y-123063000D03*
X122936000Y-123063000D03*
X121412000Y-123063000D03*
X121412000Y-121793000D03*
X122174000Y-122428000D03*
X122936000Y-121793000D03*
X123571000Y-122428000D03*
D28*
X128079500Y-111379000D03*
D27*
X133350000Y-121793000D03*
X132207000Y-123190000D03*
X133096000Y-122682000D03*
X130810000Y-122682000D03*
X132207000Y-121666000D03*
X130556000Y-121666000D03*
X141224000Y-123063000D03*
X142621000Y-123063000D03*
X140462000Y-122174000D03*
X141859000Y-122174000D03*
X142494000Y-121285000D03*
X141224000Y-121285000D03*
X139827000Y-121285000D03*
X126619000Y-106934000D03*
D28*
X131699000Y-113030000D03*
X120269000Y-124587000D03*
X130619500Y-113030000D03*
X121920000Y-124079000D03*
X131000500Y-123952000D03*
D27*
X127127000Y-110363000D03*
D28*
X129349500Y-124587000D03*
D27*
X126492000Y-109728000D03*
D28*
X138049000Y-124587000D03*
D27*
X126746000Y-108585000D03*
D28*
X140144500Y-123952000D03*
D27*
X127381000Y-107823000D03*
D28*
X150660100Y-103047800D03*
X125666500Y-112776000D03*
X142240000Y-130683000D03*
X146939000Y-128651000D03*
X148463000Y-117348000D03*
X150241000Y-128397000D03*
D27*
X110617000Y-126746000D03*
X100584000Y-123444000D03*
X101600000Y-123444000D03*
X102616000Y-123444000D03*
X101092000Y-124460000D03*
X102108000Y-124460000D03*
X100584000Y-125476000D03*
X101600000Y-125476000D03*
X102616000Y-125476000D03*
X101092000Y-126492000D03*
X102108000Y-126492000D03*
X100584000Y-127508000D03*
X100584000Y-128524000D03*
X100584000Y-129540000D03*
X100584000Y-130556000D03*
X100584000Y-131572000D03*
X100584000Y-132588000D03*
X100584000Y-122428000D03*
X100584000Y-121412000D03*
X100584000Y-120396000D03*
D28*
X150114000Y-121920000D03*
X110934500Y-106426000D03*
X144208500Y-115951000D03*
X149415500Y-115189000D03*
X124650500Y-113157000D03*
X131127500Y-115443000D03*
X131127500Y-113284000D03*
X120523000Y-125476000D03*
X129565400Y-125450600D03*
X127889000Y-110109000D03*
X138620500Y-125857000D03*
X127952500Y-108712000D03*
D27*
X144780000Y-125857000D03*
X150622000Y-133477000D03*
X149225000Y-133477000D03*
X144907000Y-128397000D03*
X147955000Y-133477000D03*
X145796000Y-132715000D03*
D28*
X138430000Y-132461000D03*
D27*
X143200000Y-105200000D03*
X143200000Y-104150003D03*
X143200000Y-103200000D03*
X144888902Y-111510932D03*
D29*
X105588000Y-119304000D02*
X105664000Y-119380000D01*
D10*
X107696000Y-132588000D02*
X110236000Y-132588000D01*
D29*
X103073300Y-117551200D02*
X104927400Y-117551200D01*
X105664000Y-118287800D02*
X105664000Y-119380000D01*
X104927400Y-117551200D02*
X105664000Y-118287800D01*
X103479600Y-113538000D02*
X103479600Y-115595400D01*
X103479600Y-113538000D02*
X103479600Y-111607600D01*
X103911400Y-111175800D02*
X110540800Y-111175800D01*
X103479600Y-111607600D02*
X103911400Y-111175800D01*
X103073300Y-117551200D02*
X103073300Y-116001700D01*
D10*
X103479600Y-114681000D02*
X103505000Y-114655600D01*
X103479600Y-115595400D02*
X103479600Y-114681000D01*
D29*
X113284000Y-105918000D02*
X111950500Y-105918000D01*
X122364500Y-114998500D02*
X113284000Y-105918000D01*
X135570999Y-115885999D02*
X134683500Y-114998500D01*
X136738000Y-117036000D02*
X135587999Y-115885999D01*
X135587999Y-115885999D02*
X135570999Y-115885999D01*
X111700501Y-105668001D02*
X111950500Y-105918000D01*
X107192001Y-105668001D02*
X111700501Y-105668001D01*
X106616500Y-103759000D02*
X106616500Y-105092500D01*
X106616500Y-105092500D02*
X107192001Y-105668001D01*
D10*
X132143500Y-106299000D02*
X130492500Y-104648000D01*
X134810500Y-106299000D02*
X132143500Y-106299000D01*
X130138947Y-104648000D02*
X130492500Y-104648000D01*
X128016998Y-104648000D02*
X130138947Y-104648000D01*
X123786900Y-114998500D02*
X123786900Y-108878098D01*
D29*
X123786900Y-114998500D02*
X122364500Y-114998500D01*
D10*
X123786900Y-108878098D02*
X128016998Y-104648000D01*
D29*
X134683500Y-114998500D02*
X123786900Y-114998500D01*
D10*
X146970000Y-119500000D02*
X147100000Y-119500000D01*
X144943000Y-120777000D02*
X145693000Y-120777000D01*
X145693000Y-120777000D02*
X146970000Y-119500000D01*
D30*
X120269000Y-124587000D02*
X120015000Y-124587000D01*
X122050000Y-124079000D02*
X122220000Y-123909000D01*
X121920000Y-124079000D02*
X122050000Y-124079000D01*
D10*
X110236000Y-127127000D02*
X110617000Y-126746000D01*
X110236000Y-128293000D02*
X110236000Y-127127000D01*
X112428000Y-126746000D02*
X112522000Y-126652000D01*
X110617000Y-126746000D02*
X112428000Y-126746000D01*
X152057800Y-103047800D02*
X152110000Y-103100000D01*
X150660100Y-103047800D02*
X152057800Y-103047800D01*
X152110000Y-101830000D02*
X152110000Y-104370000D01*
D29*
X142240000Y-128775600D02*
X142166200Y-128701800D01*
X142240000Y-130683000D02*
X142240000Y-128775600D01*
X101498300Y-120600300D02*
X102140000Y-121242000D01*
X101498300Y-117551200D02*
X101498300Y-120600300D01*
X124650500Y-113157000D02*
X124650500Y-113855500D01*
X137477500Y-113855500D02*
X140398500Y-113855500D01*
X137477500Y-113855500D02*
X137687500Y-113855500D01*
X124650500Y-113855500D02*
X137477500Y-113855500D01*
X141818000Y-115275000D02*
X141818000Y-117036000D01*
X140398500Y-113855500D02*
X141818000Y-115275000D01*
D10*
X141818000Y-117986000D02*
X141818000Y-117036000D01*
X143221001Y-119389001D02*
X141818000Y-117986000D01*
X143221001Y-126687001D02*
X143221001Y-119389001D01*
X139211002Y-130697000D02*
X143221001Y-126687001D01*
X138458000Y-130697000D02*
X139211002Y-130697000D01*
X110236000Y-130213000D02*
X110236000Y-129263000D01*
X110236000Y-130838000D02*
X110236000Y-130213000D01*
X122580000Y-125259000D02*
X123800000Y-125259000D01*
X122710000Y-126209000D02*
X122580000Y-126209000D01*
X123660000Y-125259000D02*
X122710000Y-126209000D01*
X123800000Y-125259000D02*
X123660000Y-125259000D01*
X131597000Y-125132000D02*
X131597000Y-126082000D01*
X131597000Y-126082000D02*
X132817000Y-126082000D01*
X132817000Y-126082000D02*
X132817000Y-125132000D01*
X128473000Y-124630000D02*
X128473000Y-125045000D01*
X128878600Y-125450600D02*
X129565400Y-125450600D01*
X128473000Y-125045000D02*
X128878600Y-125450600D01*
X140741000Y-126082000D02*
X140741000Y-125132000D01*
X141961000Y-126082000D02*
X141961000Y-125132000D01*
X140516000Y-125857000D02*
X140741000Y-126082000D01*
X138620500Y-125857000D02*
X140516000Y-125857000D01*
X151143001Y-125537001D02*
X151143001Y-131558999D01*
X149443000Y-124587000D02*
X150193000Y-124587000D01*
X150193000Y-124587000D02*
X151143001Y-125537001D01*
X151143001Y-131558999D02*
X149225000Y-133477000D01*
X146304000Y-132207000D02*
X145796000Y-132715000D01*
X146643001Y-131867999D02*
X146304000Y-132207000D01*
X146643001Y-130343999D02*
X146643001Y-131867999D01*
X148693000Y-127127000D02*
X147742999Y-128077001D01*
X149443000Y-127127000D02*
X148693000Y-127127000D01*
X147742999Y-128077001D02*
X147742999Y-129371001D01*
X147447000Y-129667000D02*
X147320000Y-129667000D01*
X147320000Y-129667000D02*
X146643001Y-130343999D01*
X147742999Y-129371001D02*
X147447000Y-129667000D01*
X144065000Y-104335000D02*
X144590000Y-104335000D01*
X143200000Y-105200000D02*
X144065000Y-104335000D01*
X144285003Y-103065000D02*
X144590000Y-103065000D01*
X143200000Y-104150003D02*
X144285003Y-103065000D01*
X144039315Y-101795000D02*
X144590000Y-101795000D01*
X143200000Y-102634315D02*
X144039315Y-101795000D01*
X143200000Y-103200000D02*
X143200000Y-102634315D01*
X146434834Y-109965000D02*
X144888902Y-111510932D01*
X151070000Y-109965000D02*
X146434834Y-109965000D01*
D31*
G36*
X124968000Y-124206000D02*
G01*
X122750751Y-124206000D01*
X122750751Y-123594000D01*
X122745356Y-123539228D01*
X122729380Y-123486561D01*
X122703436Y-123438023D01*
X122668521Y-123395479D01*
X122625977Y-123360564D01*
X122577439Y-123334620D01*
X122524772Y-123318644D01*
X122470000Y-123313249D01*
X121970000Y-123313249D01*
X121915228Y-123318644D01*
X121862561Y-123334620D01*
X121814023Y-123360564D01*
X121771479Y-123395479D01*
X121736564Y-123438023D01*
X121710620Y-123486561D01*
X121694644Y-123539228D01*
X121689249Y-123594000D01*
X121689249Y-123601561D01*
X121669235Y-123609851D01*
X121582527Y-123667788D01*
X121508788Y-123741527D01*
X121450851Y-123828235D01*
X121410944Y-123924580D01*
X121390600Y-124026859D01*
X121390600Y-124131141D01*
X121405490Y-124206000D01*
X121158000Y-124206000D01*
X121158000Y-121412000D01*
X124968000Y-121412000D01*
X124968000Y-124206000D01*
X124968000Y-124206000D01*
G37*
X124968000Y-124206000D02*
X122750751Y-124206000D01*
X122750751Y-123594000D01*
X122745356Y-123539228D01*
X122729380Y-123486561D01*
X122703436Y-123438023D01*
X122668521Y-123395479D01*
X122625977Y-123360564D01*
X122577439Y-123334620D01*
X122524772Y-123318644D01*
X122470000Y-123313249D01*
X121970000Y-123313249D01*
X121915228Y-123318644D01*
X121862561Y-123334620D01*
X121814023Y-123360564D01*
X121771479Y-123395479D01*
X121736564Y-123438023D01*
X121710620Y-123486561D01*
X121694644Y-123539228D01*
X121689249Y-123594000D01*
X121689249Y-123601561D01*
X121669235Y-123609851D01*
X121582527Y-123667788D01*
X121508788Y-123741527D01*
X121450851Y-123828235D01*
X121410944Y-123924580D01*
X121390600Y-124026859D01*
X121390600Y-124131141D01*
X121405490Y-124206000D01*
X121158000Y-124206000D01*
X121158000Y-121412000D01*
X124968000Y-121412000D01*
X124968000Y-124206000D01*
G36*
X138684000Y-123825000D02*
G01*
X138401738Y-123825000D01*
X138406357Y-123809772D01*
X138411752Y-123755000D01*
X138410400Y-123472850D01*
X138340550Y-123403000D01*
X137639000Y-123403000D01*
X137639000Y-123423000D01*
X137393000Y-123423000D01*
X137393000Y-123403000D01*
X136419000Y-123403000D01*
X136419000Y-123423000D01*
X136173000Y-123423000D01*
X136173000Y-123403000D01*
X135471450Y-123403000D01*
X135401600Y-123472850D01*
X135400248Y-123755000D01*
X135405643Y-123809772D01*
X135410262Y-123825000D01*
X134442200Y-123825000D01*
X134442200Y-122805000D01*
X135400248Y-122805000D01*
X135401600Y-123087150D01*
X135471450Y-123157000D01*
X136173000Y-123157000D01*
X136173000Y-122453000D01*
X136419000Y-122453000D01*
X136419000Y-123157000D01*
X137393000Y-123157000D01*
X137393000Y-122453000D01*
X137639000Y-122453000D01*
X137639000Y-123157000D01*
X138340550Y-123157000D01*
X138410400Y-123087150D01*
X138411752Y-122805000D01*
X138410400Y-122522850D01*
X138340550Y-122453000D01*
X137639000Y-122453000D01*
X137393000Y-122453000D01*
X136419000Y-122453000D01*
X136173000Y-122453000D01*
X135471450Y-122453000D01*
X135401600Y-122522850D01*
X135400248Y-122805000D01*
X134442200Y-122805000D01*
X134442200Y-121855000D01*
X135400248Y-121855000D01*
X135401600Y-122137150D01*
X135422147Y-122157697D01*
X135426619Y-122172439D01*
X135452563Y-122220977D01*
X135487478Y-122263522D01*
X135530023Y-122298437D01*
X135578561Y-122324381D01*
X135631228Y-122340357D01*
X135686000Y-122345752D01*
X135743150Y-122344400D01*
X135813000Y-122274550D01*
X135813000Y-122207000D01*
X136059000Y-122207000D01*
X136059000Y-122274550D01*
X136128850Y-122344400D01*
X136186000Y-122345752D01*
X136240772Y-122340357D01*
X136256000Y-122335738D01*
X136271228Y-122340357D01*
X136326000Y-122345752D01*
X136383150Y-122344400D01*
X136453000Y-122274550D01*
X136453000Y-122207000D01*
X136699000Y-122207000D01*
X136699000Y-122274550D01*
X136768850Y-122344400D01*
X136826000Y-122345752D01*
X136880772Y-122340357D01*
X136906000Y-122332704D01*
X136931228Y-122340357D01*
X136986000Y-122345752D01*
X137043150Y-122344400D01*
X137113000Y-122274550D01*
X137113000Y-122207000D01*
X137359000Y-122207000D01*
X137359000Y-122274550D01*
X137428850Y-122344400D01*
X137486000Y-122345752D01*
X137540772Y-122340357D01*
X137556000Y-122335738D01*
X137571228Y-122340357D01*
X137626000Y-122345752D01*
X137683150Y-122344400D01*
X137753000Y-122274550D01*
X137753000Y-122207000D01*
X137999000Y-122207000D01*
X137999000Y-122274550D01*
X138068850Y-122344400D01*
X138126000Y-122345752D01*
X138180772Y-122340357D01*
X138233439Y-122324381D01*
X138281977Y-122298437D01*
X138324522Y-122263522D01*
X138359437Y-122220977D01*
X138385381Y-122172439D01*
X138389853Y-122157697D01*
X138410400Y-122137150D01*
X138411752Y-121855000D01*
X138406357Y-121800228D01*
X138390381Y-121747561D01*
X138364437Y-121699023D01*
X138329522Y-121656478D01*
X138293602Y-121627000D01*
X138335550Y-121627000D01*
X138405400Y-121557150D01*
X138406752Y-121435000D01*
X138401357Y-121380228D01*
X138385381Y-121327561D01*
X138359437Y-121279023D01*
X138324522Y-121236478D01*
X138281977Y-121201563D01*
X138233439Y-121175619D01*
X138180772Y-121159643D01*
X138126000Y-121154248D01*
X138068850Y-121155600D01*
X137999000Y-121225450D01*
X137999000Y-121574671D01*
X137753000Y-121575459D01*
X137753000Y-121569550D01*
X137765400Y-121557150D01*
X137766752Y-121435000D01*
X137761357Y-121380228D01*
X137753000Y-121352678D01*
X137753000Y-121225450D01*
X137683150Y-121155600D01*
X137626000Y-121154248D01*
X137571228Y-121159643D01*
X137556000Y-121164262D01*
X137540772Y-121159643D01*
X137486000Y-121154248D01*
X137428850Y-121155600D01*
X137359000Y-121225450D01*
X137359000Y-121352678D01*
X137350643Y-121380228D01*
X137345248Y-121435000D01*
X137346600Y-121557150D01*
X137359000Y-121569550D01*
X137359000Y-121611450D01*
X137323150Y-121575600D01*
X137113000Y-121574927D01*
X137113000Y-121225450D01*
X137043150Y-121155600D01*
X136986000Y-121154248D01*
X136931228Y-121159643D01*
X136906000Y-121167296D01*
X136880772Y-121159643D01*
X136826000Y-121154248D01*
X136768850Y-121155600D01*
X136699000Y-121225450D01*
X136699000Y-121574927D01*
X136488850Y-121575600D01*
X136453000Y-121611450D01*
X136453000Y-121569550D01*
X136465400Y-121557150D01*
X136466752Y-121435000D01*
X136461357Y-121380228D01*
X136453000Y-121352678D01*
X136453000Y-121225450D01*
X136383150Y-121155600D01*
X136326000Y-121154248D01*
X136271228Y-121159643D01*
X136256000Y-121164262D01*
X136240772Y-121159643D01*
X136186000Y-121154248D01*
X136128850Y-121155600D01*
X136059000Y-121225450D01*
X136059000Y-121352678D01*
X136050643Y-121380228D01*
X136045248Y-121435000D01*
X136046600Y-121557150D01*
X136059000Y-121569550D01*
X136059000Y-121575459D01*
X135813000Y-121574671D01*
X135813000Y-121225450D01*
X135743150Y-121155600D01*
X135686000Y-121154248D01*
X135631228Y-121159643D01*
X135578561Y-121175619D01*
X135530023Y-121201563D01*
X135487478Y-121236478D01*
X135452563Y-121279023D01*
X135426619Y-121327561D01*
X135410643Y-121380228D01*
X135405248Y-121435000D01*
X135406600Y-121557150D01*
X135476450Y-121627000D01*
X135518398Y-121627000D01*
X135482478Y-121656478D01*
X135447563Y-121699023D01*
X135421619Y-121747561D01*
X135405643Y-121800228D01*
X135400248Y-121855000D01*
X134442200Y-121855000D01*
X134442200Y-121285000D01*
X134435855Y-121220581D01*
X134417065Y-121158638D01*
X134386551Y-121101551D01*
X134345487Y-121051513D01*
X134295449Y-121010449D01*
X134238362Y-120979935D01*
X134176419Y-120961145D01*
X134112000Y-120954800D01*
X132374438Y-120954800D01*
X132278918Y-120935800D01*
X132135082Y-120935800D01*
X132039562Y-120954800D01*
X130723438Y-120954800D01*
X130627918Y-120935800D01*
X130484082Y-120935800D01*
X130388562Y-120954800D01*
X130175000Y-120954800D01*
X130110581Y-120961145D01*
X130048638Y-120979935D01*
X129991551Y-121010449D01*
X129941513Y-121051513D01*
X129900449Y-121101551D01*
X129869935Y-121158638D01*
X129851145Y-121220581D01*
X129844800Y-121285000D01*
X129844800Y-121498562D01*
X129825800Y-121594082D01*
X129825800Y-121737918D01*
X129844800Y-121833438D01*
X129844800Y-123825000D01*
X129638738Y-123825000D01*
X129643357Y-123809772D01*
X129648752Y-123755000D01*
X129647400Y-123472850D01*
X129577550Y-123403000D01*
X128876000Y-123403000D01*
X128876000Y-123423000D01*
X128630000Y-123423000D01*
X128630000Y-123403000D01*
X127656000Y-123403000D01*
X127656000Y-123423000D01*
X127410000Y-123423000D01*
X127410000Y-123403000D01*
X126708450Y-123403000D01*
X126638600Y-123472850D01*
X126637248Y-123755000D01*
X126642643Y-123809772D01*
X126647262Y-123825000D01*
X125425200Y-123825000D01*
X125425200Y-122805000D01*
X126637248Y-122805000D01*
X126638600Y-123087150D01*
X126708450Y-123157000D01*
X127410000Y-123157000D01*
X127410000Y-122453000D01*
X127656000Y-122453000D01*
X127656000Y-123157000D01*
X128630000Y-123157000D01*
X128630000Y-122453000D01*
X128876000Y-122453000D01*
X128876000Y-123157000D01*
X129577550Y-123157000D01*
X129647400Y-123087150D01*
X129648752Y-122805000D01*
X129647400Y-122522850D01*
X129577550Y-122453000D01*
X128876000Y-122453000D01*
X128630000Y-122453000D01*
X127656000Y-122453000D01*
X127410000Y-122453000D01*
X126708450Y-122453000D01*
X126638600Y-122522850D01*
X126637248Y-122805000D01*
X125425200Y-122805000D01*
X125425200Y-121855000D01*
X126637248Y-121855000D01*
X126638600Y-122137150D01*
X126659147Y-122157697D01*
X126663619Y-122172439D01*
X126689563Y-122220977D01*
X126724478Y-122263522D01*
X126767023Y-122298437D01*
X126815561Y-122324381D01*
X126868228Y-122340357D01*
X126923000Y-122345752D01*
X126980150Y-122344400D01*
X127050000Y-122274550D01*
X127050000Y-122207000D01*
X127296000Y-122207000D01*
X127296000Y-122274550D01*
X127365850Y-122344400D01*
X127423000Y-122345752D01*
X127477772Y-122340357D01*
X127493000Y-122335738D01*
X127508228Y-122340357D01*
X127563000Y-122345752D01*
X127620150Y-122344400D01*
X127690000Y-122274550D01*
X127690000Y-122207000D01*
X127936000Y-122207000D01*
X127936000Y-122274550D01*
X128005850Y-122344400D01*
X128063000Y-122345752D01*
X128117772Y-122340357D01*
X128143000Y-122332704D01*
X128168228Y-122340357D01*
X128223000Y-122345752D01*
X128280150Y-122344400D01*
X128350000Y-122274550D01*
X128350000Y-122207000D01*
X128596000Y-122207000D01*
X128596000Y-122274550D01*
X128665850Y-122344400D01*
X128723000Y-122345752D01*
X128777772Y-122340357D01*
X128793000Y-122335738D01*
X128808228Y-122340357D01*
X128863000Y-122345752D01*
X128920150Y-122344400D01*
X128990000Y-122274550D01*
X128990000Y-122207000D01*
X129236000Y-122207000D01*
X129236000Y-122274550D01*
X129305850Y-122344400D01*
X129363000Y-122345752D01*
X129417772Y-122340357D01*
X129470439Y-122324381D01*
X129518977Y-122298437D01*
X129561522Y-122263522D01*
X129596437Y-122220977D01*
X129622381Y-122172439D01*
X129626853Y-122157697D01*
X129647400Y-122137150D01*
X129648752Y-121855000D01*
X129643357Y-121800228D01*
X129627381Y-121747561D01*
X129601437Y-121699023D01*
X129566522Y-121656478D01*
X129530602Y-121627000D01*
X129572550Y-121627000D01*
X129642400Y-121557150D01*
X129643752Y-121435000D01*
X129638357Y-121380228D01*
X129622381Y-121327561D01*
X129596437Y-121279023D01*
X129561522Y-121236478D01*
X129518977Y-121201563D01*
X129470439Y-121175619D01*
X129417772Y-121159643D01*
X129363000Y-121154248D01*
X129305850Y-121155600D01*
X129236000Y-121225450D01*
X129236000Y-121574671D01*
X128990000Y-121575459D01*
X128990000Y-121569550D01*
X129002400Y-121557150D01*
X129003752Y-121435000D01*
X128998357Y-121380228D01*
X128990000Y-121352678D01*
X128990000Y-121225450D01*
X128920150Y-121155600D01*
X128863000Y-121154248D01*
X128808228Y-121159643D01*
X128793000Y-121164262D01*
X128777772Y-121159643D01*
X128723000Y-121154248D01*
X128665850Y-121155600D01*
X128596000Y-121225450D01*
X128596000Y-121352678D01*
X128587643Y-121380228D01*
X128582248Y-121435000D01*
X128583600Y-121557150D01*
X128596000Y-121569550D01*
X128596000Y-121611450D01*
X128560150Y-121575600D01*
X128350000Y-121574927D01*
X128350000Y-121225450D01*
X128280150Y-121155600D01*
X128223000Y-121154248D01*
X128168228Y-121159643D01*
X128143000Y-121167296D01*
X128117772Y-121159643D01*
X128063000Y-121154248D01*
X128005850Y-121155600D01*
X127936000Y-121225450D01*
X127936000Y-121574927D01*
X127725850Y-121575600D01*
X127690000Y-121611450D01*
X127690000Y-121569550D01*
X127702400Y-121557150D01*
X127703752Y-121435000D01*
X127698357Y-121380228D01*
X127690000Y-121352678D01*
X127690000Y-121225450D01*
X127620150Y-121155600D01*
X127563000Y-121154248D01*
X127508228Y-121159643D01*
X127493000Y-121164262D01*
X127477772Y-121159643D01*
X127423000Y-121154248D01*
X127365850Y-121155600D01*
X127296000Y-121225450D01*
X127296000Y-121352678D01*
X127287643Y-121380228D01*
X127282248Y-121435000D01*
X127283600Y-121557150D01*
X127296000Y-121569550D01*
X127296000Y-121575459D01*
X127050000Y-121574671D01*
X127050000Y-121225450D01*
X126980150Y-121155600D01*
X126923000Y-121154248D01*
X126868228Y-121159643D01*
X126815561Y-121175619D01*
X126767023Y-121201563D01*
X126724478Y-121236478D01*
X126689563Y-121279023D01*
X126663619Y-121327561D01*
X126647643Y-121380228D01*
X126642248Y-121435000D01*
X126643600Y-121557150D01*
X126713450Y-121627000D01*
X126755398Y-121627000D01*
X126719478Y-121656478D01*
X126684563Y-121699023D01*
X126658619Y-121747561D01*
X126642643Y-121800228D01*
X126637248Y-121855000D01*
X125425200Y-121855000D01*
X125425200Y-121285000D01*
X125418855Y-121220581D01*
X125400065Y-121158638D01*
X125369551Y-121101551D01*
X125328487Y-121051513D01*
X125278449Y-121010449D01*
X125221362Y-120979935D01*
X125159419Y-120961145D01*
X125095000Y-120954800D01*
X121031000Y-120954800D01*
X120966581Y-120961145D01*
X120904638Y-120979935D01*
X120847551Y-121010449D01*
X120797513Y-121051513D01*
X120756449Y-121101551D01*
X120725935Y-121158638D01*
X120707145Y-121220581D01*
X120700800Y-121285000D01*
X120700800Y-121625562D01*
X120681800Y-121721082D01*
X120681800Y-121864918D01*
X120700800Y-121960438D01*
X120700800Y-122895562D01*
X120681800Y-122991082D01*
X120681800Y-123134918D01*
X120700800Y-123230438D01*
X120700800Y-123825000D01*
X120526409Y-123825000D01*
X120529381Y-123819439D01*
X120545357Y-123766772D01*
X120550752Y-123712000D01*
X120549400Y-123429850D01*
X120479550Y-123360000D01*
X119778000Y-123360000D01*
X119778000Y-123380000D01*
X119532000Y-123380000D01*
X119532000Y-123360000D01*
X118558000Y-123360000D01*
X118558000Y-123380000D01*
X118312000Y-123380000D01*
X118312000Y-123360000D01*
X117610450Y-123360000D01*
X117540600Y-123429850D01*
X117539248Y-123712000D01*
X117544643Y-123766772D01*
X117560619Y-123819439D01*
X117563591Y-123825000D01*
X109347000Y-123825000D01*
X109322224Y-123827440D01*
X109298399Y-123834667D01*
X109276443Y-123846403D01*
X109257197Y-123862197D01*
X109241403Y-123881443D01*
X109229667Y-123903399D01*
X109222440Y-123927224D01*
X109220000Y-123952000D01*
X109220000Y-133644800D01*
X107375135Y-133644800D01*
X107399381Y-133599439D01*
X107415357Y-133546772D01*
X107420752Y-133492000D01*
X107419400Y-130684850D01*
X107349550Y-130615000D01*
X106263000Y-130615000D01*
X106263000Y-130635000D01*
X106017000Y-130635000D01*
X106017000Y-130615000D01*
X104930450Y-130615000D01*
X104860600Y-130684850D01*
X104859248Y-133492000D01*
X104864643Y-133546772D01*
X104880619Y-133599439D01*
X104904865Y-133644800D01*
X104649811Y-133644800D01*
X104701953Y-127492000D01*
X104859248Y-127492000D01*
X104860600Y-130299150D01*
X104930450Y-130369000D01*
X106017000Y-130369000D01*
X106017000Y-127282450D01*
X106263000Y-127282450D01*
X106263000Y-130369000D01*
X107349550Y-130369000D01*
X107419400Y-130299150D01*
X107420752Y-127492000D01*
X107415357Y-127437228D01*
X107399381Y-127384561D01*
X107373437Y-127336023D01*
X107338522Y-127293478D01*
X107295977Y-127258563D01*
X107247439Y-127232619D01*
X107194772Y-127216643D01*
X107140000Y-127211248D01*
X106332850Y-127212600D01*
X106263000Y-127282450D01*
X106017000Y-127282450D01*
X105947150Y-127212600D01*
X105140000Y-127211248D01*
X105085228Y-127216643D01*
X105032561Y-127232619D01*
X104984023Y-127258563D01*
X104941478Y-127293478D01*
X104906563Y-127336023D01*
X104880619Y-127384561D01*
X104864643Y-127437228D01*
X104859248Y-127492000D01*
X104701953Y-127492000D01*
X104740088Y-122992000D01*
X104859248Y-122992000D01*
X104864643Y-123046772D01*
X104880619Y-123099439D01*
X104906563Y-123147977D01*
X104941478Y-123190522D01*
X104984023Y-123225437D01*
X105032561Y-123251381D01*
X105085228Y-123267357D01*
X105140000Y-123272752D01*
X105947150Y-123271400D01*
X106017000Y-123201550D01*
X106017000Y-121365000D01*
X106263000Y-121365000D01*
X106263000Y-123201550D01*
X106332850Y-123271400D01*
X107140000Y-123272752D01*
X107194772Y-123267357D01*
X107247439Y-123251381D01*
X107295977Y-123225437D01*
X107338522Y-123190522D01*
X107373437Y-123147977D01*
X107399381Y-123099439D01*
X107415357Y-123046772D01*
X107419767Y-123002000D01*
X111441248Y-123002000D01*
X111446643Y-123056772D01*
X111462619Y-123109439D01*
X111488563Y-123157977D01*
X111523478Y-123200522D01*
X111566023Y-123235437D01*
X111614561Y-123261381D01*
X111667228Y-123277357D01*
X111722000Y-123282752D01*
X112329150Y-123281400D01*
X112399000Y-123211550D01*
X112399000Y-121375000D01*
X112645000Y-121375000D01*
X112645000Y-123211550D01*
X112714850Y-123281400D01*
X113322000Y-123282752D01*
X113376772Y-123277357D01*
X113429439Y-123261381D01*
X113477977Y-123235437D01*
X113520522Y-123200522D01*
X113555437Y-123157977D01*
X113581381Y-123109439D01*
X113597357Y-123056772D01*
X113602752Y-123002000D01*
X113602544Y-122762000D01*
X117539248Y-122762000D01*
X117540600Y-123044150D01*
X117610450Y-123114000D01*
X118312000Y-123114000D01*
X118312000Y-122410000D01*
X118558000Y-122410000D01*
X118558000Y-123114000D01*
X119532000Y-123114000D01*
X119532000Y-122410000D01*
X119778000Y-122410000D01*
X119778000Y-123114000D01*
X120479550Y-123114000D01*
X120549400Y-123044150D01*
X120550752Y-122762000D01*
X120549400Y-122479850D01*
X120479550Y-122410000D01*
X119778000Y-122410000D01*
X119532000Y-122410000D01*
X118558000Y-122410000D01*
X118312000Y-122410000D01*
X117610450Y-122410000D01*
X117540600Y-122479850D01*
X117539248Y-122762000D01*
X113602544Y-122762000D01*
X113601719Y-121812000D01*
X117539248Y-121812000D01*
X117540600Y-122094150D01*
X117561147Y-122114697D01*
X117565619Y-122129439D01*
X117591563Y-122177977D01*
X117626478Y-122220522D01*
X117669023Y-122255437D01*
X117717561Y-122281381D01*
X117770228Y-122297357D01*
X117825000Y-122302752D01*
X117882150Y-122301400D01*
X117952000Y-122231550D01*
X117952000Y-122164000D01*
X118198000Y-122164000D01*
X118198000Y-122231550D01*
X118267850Y-122301400D01*
X118325000Y-122302752D01*
X118379772Y-122297357D01*
X118395000Y-122292738D01*
X118410228Y-122297357D01*
X118465000Y-122302752D01*
X118522150Y-122301400D01*
X118592000Y-122231550D01*
X118592000Y-122164000D01*
X118838000Y-122164000D01*
X118838000Y-122231550D01*
X118907850Y-122301400D01*
X118965000Y-122302752D01*
X119019772Y-122297357D01*
X119045000Y-122289704D01*
X119070228Y-122297357D01*
X119125000Y-122302752D01*
X119182150Y-122301400D01*
X119252000Y-122231550D01*
X119252000Y-122164000D01*
X119498000Y-122164000D01*
X119498000Y-122231550D01*
X119567850Y-122301400D01*
X119625000Y-122302752D01*
X119679772Y-122297357D01*
X119695000Y-122292738D01*
X119710228Y-122297357D01*
X119765000Y-122302752D01*
X119822150Y-122301400D01*
X119892000Y-122231550D01*
X119892000Y-122164000D01*
X120138000Y-122164000D01*
X120138000Y-122231550D01*
X120207850Y-122301400D01*
X120265000Y-122302752D01*
X120319772Y-122297357D01*
X120372439Y-122281381D01*
X120420977Y-122255437D01*
X120463522Y-122220522D01*
X120498437Y-122177977D01*
X120524381Y-122129439D01*
X120528853Y-122114697D01*
X120549400Y-122094150D01*
X120550752Y-121812000D01*
X120545357Y-121757228D01*
X120529381Y-121704561D01*
X120503437Y-121656023D01*
X120468522Y-121613478D01*
X120432602Y-121584000D01*
X120474550Y-121584000D01*
X120544400Y-121514150D01*
X120545752Y-121392000D01*
X120540357Y-121337228D01*
X120524381Y-121284561D01*
X120498437Y-121236023D01*
X120463522Y-121193478D01*
X120420977Y-121158563D01*
X120372439Y-121132619D01*
X120319772Y-121116643D01*
X120265000Y-121111248D01*
X120207850Y-121112600D01*
X120138000Y-121182450D01*
X120138000Y-121531671D01*
X119892000Y-121532459D01*
X119892000Y-121526550D01*
X119904400Y-121514150D01*
X119905752Y-121392000D01*
X119900357Y-121337228D01*
X119892000Y-121309678D01*
X119892000Y-121182450D01*
X119822150Y-121112600D01*
X119765000Y-121111248D01*
X119710228Y-121116643D01*
X119695000Y-121121262D01*
X119679772Y-121116643D01*
X119625000Y-121111248D01*
X119567850Y-121112600D01*
X119498000Y-121182450D01*
X119498000Y-121309678D01*
X119489643Y-121337228D01*
X119484248Y-121392000D01*
X119485600Y-121514150D01*
X119498000Y-121526550D01*
X119498000Y-121568450D01*
X119462150Y-121532600D01*
X119252000Y-121531927D01*
X119252000Y-121182450D01*
X119182150Y-121112600D01*
X119125000Y-121111248D01*
X119070228Y-121116643D01*
X119045000Y-121124296D01*
X119019772Y-121116643D01*
X118965000Y-121111248D01*
X118907850Y-121112600D01*
X118838000Y-121182450D01*
X118838000Y-121531927D01*
X118627850Y-121532600D01*
X118592000Y-121568450D01*
X118592000Y-121526550D01*
X118604400Y-121514150D01*
X118605752Y-121392000D01*
X118600357Y-121337228D01*
X118592000Y-121309678D01*
X118592000Y-121182450D01*
X118522150Y-121112600D01*
X118465000Y-121111248D01*
X118410228Y-121116643D01*
X118395000Y-121121262D01*
X118379772Y-121116643D01*
X118325000Y-121111248D01*
X118267850Y-121112600D01*
X118198000Y-121182450D01*
X118198000Y-121309678D01*
X118189643Y-121337228D01*
X118184248Y-121392000D01*
X118185600Y-121514150D01*
X118198000Y-121526550D01*
X118198000Y-121532459D01*
X117952000Y-121531671D01*
X117952000Y-121182450D01*
X117882150Y-121112600D01*
X117825000Y-121111248D01*
X117770228Y-121116643D01*
X117717561Y-121132619D01*
X117669023Y-121158563D01*
X117626478Y-121193478D01*
X117591563Y-121236023D01*
X117565619Y-121284561D01*
X117549643Y-121337228D01*
X117544248Y-121392000D01*
X117545600Y-121514150D01*
X117615450Y-121584000D01*
X117657398Y-121584000D01*
X117621478Y-121613478D01*
X117586563Y-121656023D01*
X117560619Y-121704561D01*
X117544643Y-121757228D01*
X117539248Y-121812000D01*
X113601719Y-121812000D01*
X113601400Y-121444850D01*
X113531550Y-121375000D01*
X112645000Y-121375000D01*
X112399000Y-121375000D01*
X111512450Y-121375000D01*
X111442600Y-121444850D01*
X111441248Y-123002000D01*
X107419767Y-123002000D01*
X107420752Y-122992000D01*
X107419400Y-121434850D01*
X107349550Y-121365000D01*
X106263000Y-121365000D01*
X106017000Y-121365000D01*
X104930450Y-121365000D01*
X104860600Y-121434850D01*
X104859248Y-122992000D01*
X104740088Y-122992000D01*
X104769749Y-119492000D01*
X104859248Y-119492000D01*
X104860600Y-121049150D01*
X104930450Y-121119000D01*
X106017000Y-121119000D01*
X106017000Y-119282450D01*
X106263000Y-119282450D01*
X106263000Y-121119000D01*
X107349550Y-121119000D01*
X107419400Y-121049150D01*
X107420743Y-119502000D01*
X111441248Y-119502000D01*
X111442600Y-121059150D01*
X111512450Y-121129000D01*
X112399000Y-121129000D01*
X112399000Y-119292450D01*
X112645000Y-119292450D01*
X112645000Y-121129000D01*
X113531550Y-121129000D01*
X113601400Y-121059150D01*
X113602752Y-119502000D01*
X113597357Y-119447228D01*
X113581381Y-119394561D01*
X113555437Y-119346023D01*
X113520522Y-119303478D01*
X113477977Y-119268563D01*
X113429439Y-119242619D01*
X113376772Y-119226643D01*
X113322000Y-119221248D01*
X112714850Y-119222600D01*
X112645000Y-119292450D01*
X112399000Y-119292450D01*
X112329150Y-119222600D01*
X111722000Y-119221248D01*
X111667228Y-119226643D01*
X111614561Y-119242619D01*
X111566023Y-119268563D01*
X111523478Y-119303478D01*
X111488563Y-119346023D01*
X111462619Y-119394561D01*
X111446643Y-119447228D01*
X111441248Y-119502000D01*
X107420743Y-119502000D01*
X107420752Y-119492000D01*
X107415357Y-119437228D01*
X107399381Y-119384561D01*
X107373437Y-119336023D01*
X107338522Y-119293478D01*
X107295977Y-119258563D01*
X107247439Y-119232619D01*
X107194772Y-119216643D01*
X107140000Y-119211248D01*
X106332850Y-119212600D01*
X106263000Y-119282450D01*
X106017000Y-119282450D01*
X105947150Y-119212600D01*
X105140000Y-119211248D01*
X105085228Y-119216643D01*
X105032561Y-119232619D01*
X104984023Y-119258563D01*
X104941478Y-119293478D01*
X104906563Y-119336023D01*
X104880619Y-119384561D01*
X104864643Y-119437228D01*
X104859248Y-119492000D01*
X104769749Y-119492000D01*
X104773928Y-118999000D01*
X138684000Y-118999000D01*
X138684000Y-123825000D01*
X138684000Y-123825000D01*
G37*
X138684000Y-123825000D02*
X138401738Y-123825000D01*
X138406357Y-123809772D01*
X138411752Y-123755000D01*
X138410400Y-123472850D01*
X138340550Y-123403000D01*
X137639000Y-123403000D01*
X137639000Y-123423000D01*
X137393000Y-123423000D01*
X137393000Y-123403000D01*
X136419000Y-123403000D01*
X136419000Y-123423000D01*
X136173000Y-123423000D01*
X136173000Y-123403000D01*
X135471450Y-123403000D01*
X135401600Y-123472850D01*
X135400248Y-123755000D01*
X135405643Y-123809772D01*
X135410262Y-123825000D01*
X134442200Y-123825000D01*
X134442200Y-122805000D01*
X135400248Y-122805000D01*
X135401600Y-123087150D01*
X135471450Y-123157000D01*
X136173000Y-123157000D01*
X136173000Y-122453000D01*
X136419000Y-122453000D01*
X136419000Y-123157000D01*
X137393000Y-123157000D01*
X137393000Y-122453000D01*
X137639000Y-122453000D01*
X137639000Y-123157000D01*
X138340550Y-123157000D01*
X138410400Y-123087150D01*
X138411752Y-122805000D01*
X138410400Y-122522850D01*
X138340550Y-122453000D01*
X137639000Y-122453000D01*
X137393000Y-122453000D01*
X136419000Y-122453000D01*
X136173000Y-122453000D01*
X135471450Y-122453000D01*
X135401600Y-122522850D01*
X135400248Y-122805000D01*
X134442200Y-122805000D01*
X134442200Y-121855000D01*
X135400248Y-121855000D01*
X135401600Y-122137150D01*
X135422147Y-122157697D01*
X135426619Y-122172439D01*
X135452563Y-122220977D01*
X135487478Y-122263522D01*
X135530023Y-122298437D01*
X135578561Y-122324381D01*
X135631228Y-122340357D01*
X135686000Y-122345752D01*
X135743150Y-122344400D01*
X135813000Y-122274550D01*
X135813000Y-122207000D01*
X136059000Y-122207000D01*
X136059000Y-122274550D01*
X136128850Y-122344400D01*
X136186000Y-122345752D01*
X136240772Y-122340357D01*
X136256000Y-122335738D01*
X136271228Y-122340357D01*
X136326000Y-122345752D01*
X136383150Y-122344400D01*
X136453000Y-122274550D01*
X136453000Y-122207000D01*
X136699000Y-122207000D01*
X136699000Y-122274550D01*
X136768850Y-122344400D01*
X136826000Y-122345752D01*
X136880772Y-122340357D01*
X136906000Y-122332704D01*
X136931228Y-122340357D01*
X136986000Y-122345752D01*
X137043150Y-122344400D01*
X137113000Y-122274550D01*
X137113000Y-122207000D01*
X137359000Y-122207000D01*
X137359000Y-122274550D01*
X137428850Y-122344400D01*
X137486000Y-122345752D01*
X137540772Y-122340357D01*
X137556000Y-122335738D01*
X137571228Y-122340357D01*
X137626000Y-122345752D01*
X137683150Y-122344400D01*
X137753000Y-122274550D01*
X137753000Y-122207000D01*
X137999000Y-122207000D01*
X137999000Y-122274550D01*
X138068850Y-122344400D01*
X138126000Y-122345752D01*
X138180772Y-122340357D01*
X138233439Y-122324381D01*
X138281977Y-122298437D01*
X138324522Y-122263522D01*
X138359437Y-122220977D01*
X138385381Y-122172439D01*
X138389853Y-122157697D01*
X138410400Y-122137150D01*
X138411752Y-121855000D01*
X138406357Y-121800228D01*
X138390381Y-121747561D01*
X138364437Y-121699023D01*
X138329522Y-121656478D01*
X138293602Y-121627000D01*
X138335550Y-121627000D01*
X138405400Y-121557150D01*
X138406752Y-121435000D01*
X138401357Y-121380228D01*
X138385381Y-121327561D01*
X138359437Y-121279023D01*
X138324522Y-121236478D01*
X138281977Y-121201563D01*
X138233439Y-121175619D01*
X138180772Y-121159643D01*
X138126000Y-121154248D01*
X138068850Y-121155600D01*
X137999000Y-121225450D01*
X137999000Y-121574671D01*
X137753000Y-121575459D01*
X137753000Y-121569550D01*
X137765400Y-121557150D01*
X137766752Y-121435000D01*
X137761357Y-121380228D01*
X137753000Y-121352678D01*
X137753000Y-121225450D01*
X137683150Y-121155600D01*
X137626000Y-121154248D01*
X137571228Y-121159643D01*
X137556000Y-121164262D01*
X137540772Y-121159643D01*
X137486000Y-121154248D01*
X137428850Y-121155600D01*
X137359000Y-121225450D01*
X137359000Y-121352678D01*
X137350643Y-121380228D01*
X137345248Y-121435000D01*
X137346600Y-121557150D01*
X137359000Y-121569550D01*
X137359000Y-121611450D01*
X137323150Y-121575600D01*
X137113000Y-121574927D01*
X137113000Y-121225450D01*
X137043150Y-121155600D01*
X136986000Y-121154248D01*
X136931228Y-121159643D01*
X136906000Y-121167296D01*
X136880772Y-121159643D01*
X136826000Y-121154248D01*
X136768850Y-121155600D01*
X136699000Y-121225450D01*
X136699000Y-121574927D01*
X136488850Y-121575600D01*
X136453000Y-121611450D01*
X136453000Y-121569550D01*
X136465400Y-121557150D01*
X136466752Y-121435000D01*
X136461357Y-121380228D01*
X136453000Y-121352678D01*
X136453000Y-121225450D01*
X136383150Y-121155600D01*
X136326000Y-121154248D01*
X136271228Y-121159643D01*
X136256000Y-121164262D01*
X136240772Y-121159643D01*
X136186000Y-121154248D01*
X136128850Y-121155600D01*
X136059000Y-121225450D01*
X136059000Y-121352678D01*
X136050643Y-121380228D01*
X136045248Y-121435000D01*
X136046600Y-121557150D01*
X136059000Y-121569550D01*
X136059000Y-121575459D01*
X135813000Y-121574671D01*
X135813000Y-121225450D01*
X135743150Y-121155600D01*
X135686000Y-121154248D01*
X135631228Y-121159643D01*
X135578561Y-121175619D01*
X135530023Y-121201563D01*
X135487478Y-121236478D01*
X135452563Y-121279023D01*
X135426619Y-121327561D01*
X135410643Y-121380228D01*
X135405248Y-121435000D01*
X135406600Y-121557150D01*
X135476450Y-121627000D01*
X135518398Y-121627000D01*
X135482478Y-121656478D01*
X135447563Y-121699023D01*
X135421619Y-121747561D01*
X135405643Y-121800228D01*
X135400248Y-121855000D01*
X134442200Y-121855000D01*
X134442200Y-121285000D01*
X134435855Y-121220581D01*
X134417065Y-121158638D01*
X134386551Y-121101551D01*
X134345487Y-121051513D01*
X134295449Y-121010449D01*
X134238362Y-120979935D01*
X134176419Y-120961145D01*
X134112000Y-120954800D01*
X132374438Y-120954800D01*
X132278918Y-120935800D01*
X132135082Y-120935800D01*
X132039562Y-120954800D01*
X130723438Y-120954800D01*
X130627918Y-120935800D01*
X130484082Y-120935800D01*
X130388562Y-120954800D01*
X130175000Y-120954800D01*
X130110581Y-120961145D01*
X130048638Y-120979935D01*
X129991551Y-121010449D01*
X129941513Y-121051513D01*
X129900449Y-121101551D01*
X129869935Y-121158638D01*
X129851145Y-121220581D01*
X129844800Y-121285000D01*
X129844800Y-121498562D01*
X129825800Y-121594082D01*
X129825800Y-121737918D01*
X129844800Y-121833438D01*
X129844800Y-123825000D01*
X129638738Y-123825000D01*
X129643357Y-123809772D01*
X129648752Y-123755000D01*
X129647400Y-123472850D01*
X129577550Y-123403000D01*
X128876000Y-123403000D01*
X128876000Y-123423000D01*
X128630000Y-123423000D01*
X128630000Y-123403000D01*
X127656000Y-123403000D01*
X127656000Y-123423000D01*
X127410000Y-123423000D01*
X127410000Y-123403000D01*
X126708450Y-123403000D01*
X126638600Y-123472850D01*
X126637248Y-123755000D01*
X126642643Y-123809772D01*
X126647262Y-123825000D01*
X125425200Y-123825000D01*
X125425200Y-122805000D01*
X126637248Y-122805000D01*
X126638600Y-123087150D01*
X126708450Y-123157000D01*
X127410000Y-123157000D01*
X127410000Y-122453000D01*
X127656000Y-122453000D01*
X127656000Y-123157000D01*
X128630000Y-123157000D01*
X128630000Y-122453000D01*
X128876000Y-122453000D01*
X128876000Y-123157000D01*
X129577550Y-123157000D01*
X129647400Y-123087150D01*
X129648752Y-122805000D01*
X129647400Y-122522850D01*
X129577550Y-122453000D01*
X128876000Y-122453000D01*
X128630000Y-122453000D01*
X127656000Y-122453000D01*
X127410000Y-122453000D01*
X126708450Y-122453000D01*
X126638600Y-122522850D01*
X126637248Y-122805000D01*
X125425200Y-122805000D01*
X125425200Y-121855000D01*
X126637248Y-121855000D01*
X126638600Y-122137150D01*
X126659147Y-122157697D01*
X126663619Y-122172439D01*
X126689563Y-122220977D01*
X126724478Y-122263522D01*
X126767023Y-122298437D01*
X126815561Y-122324381D01*
X126868228Y-122340357D01*
X126923000Y-122345752D01*
X126980150Y-122344400D01*
X127050000Y-122274550D01*
X127050000Y-122207000D01*
X127296000Y-122207000D01*
X127296000Y-122274550D01*
X127365850Y-122344400D01*
X127423000Y-122345752D01*
X127477772Y-122340357D01*
X127493000Y-122335738D01*
X127508228Y-122340357D01*
X127563000Y-122345752D01*
X127620150Y-122344400D01*
X127690000Y-122274550D01*
X127690000Y-122207000D01*
X127936000Y-122207000D01*
X127936000Y-122274550D01*
X128005850Y-122344400D01*
X128063000Y-122345752D01*
X128117772Y-122340357D01*
X128143000Y-122332704D01*
X128168228Y-122340357D01*
X128223000Y-122345752D01*
X128280150Y-122344400D01*
X128350000Y-122274550D01*
X128350000Y-122207000D01*
X128596000Y-122207000D01*
X128596000Y-122274550D01*
X128665850Y-122344400D01*
X128723000Y-122345752D01*
X128777772Y-122340357D01*
X128793000Y-122335738D01*
X128808228Y-122340357D01*
X128863000Y-122345752D01*
X128920150Y-122344400D01*
X128990000Y-122274550D01*
X128990000Y-122207000D01*
X129236000Y-122207000D01*
X129236000Y-122274550D01*
X129305850Y-122344400D01*
X129363000Y-122345752D01*
X129417772Y-122340357D01*
X129470439Y-122324381D01*
X129518977Y-122298437D01*
X129561522Y-122263522D01*
X129596437Y-122220977D01*
X129622381Y-122172439D01*
X129626853Y-122157697D01*
X129647400Y-122137150D01*
X129648752Y-121855000D01*
X129643357Y-121800228D01*
X129627381Y-121747561D01*
X129601437Y-121699023D01*
X129566522Y-121656478D01*
X129530602Y-121627000D01*
X129572550Y-121627000D01*
X129642400Y-121557150D01*
X129643752Y-121435000D01*
X129638357Y-121380228D01*
X129622381Y-121327561D01*
X129596437Y-121279023D01*
X129561522Y-121236478D01*
X129518977Y-121201563D01*
X129470439Y-121175619D01*
X129417772Y-121159643D01*
X129363000Y-121154248D01*
X129305850Y-121155600D01*
X129236000Y-121225450D01*
X129236000Y-121574671D01*
X128990000Y-121575459D01*
X128990000Y-121569550D01*
X129002400Y-121557150D01*
X129003752Y-121435000D01*
X128998357Y-121380228D01*
X128990000Y-121352678D01*
X128990000Y-121225450D01*
X128920150Y-121155600D01*
X128863000Y-121154248D01*
X128808228Y-121159643D01*
X128793000Y-121164262D01*
X128777772Y-121159643D01*
X128723000Y-121154248D01*
X128665850Y-121155600D01*
X128596000Y-121225450D01*
X128596000Y-121352678D01*
X128587643Y-121380228D01*
X128582248Y-121435000D01*
X128583600Y-121557150D01*
X128596000Y-121569550D01*
X128596000Y-121611450D01*
X128560150Y-121575600D01*
X128350000Y-121574927D01*
X128350000Y-121225450D01*
X128280150Y-121155600D01*
X128223000Y-121154248D01*
X128168228Y-121159643D01*
X128143000Y-121167296D01*
X128117772Y-121159643D01*
X128063000Y-121154248D01*
X128005850Y-121155600D01*
X127936000Y-121225450D01*
X127936000Y-121574927D01*
X127725850Y-121575600D01*
X127690000Y-121611450D01*
X127690000Y-121569550D01*
X127702400Y-121557150D01*
X127703752Y-121435000D01*
X127698357Y-121380228D01*
X127690000Y-121352678D01*
X127690000Y-121225450D01*
X127620150Y-121155600D01*
X127563000Y-121154248D01*
X127508228Y-121159643D01*
X127493000Y-121164262D01*
X127477772Y-121159643D01*
X127423000Y-121154248D01*
X127365850Y-121155600D01*
X127296000Y-121225450D01*
X127296000Y-121352678D01*
X127287643Y-121380228D01*
X127282248Y-121435000D01*
X127283600Y-121557150D01*
X127296000Y-121569550D01*
X127296000Y-121575459D01*
X127050000Y-121574671D01*
X127050000Y-121225450D01*
X126980150Y-121155600D01*
X126923000Y-121154248D01*
X126868228Y-121159643D01*
X126815561Y-121175619D01*
X126767023Y-121201563D01*
X126724478Y-121236478D01*
X126689563Y-121279023D01*
X126663619Y-121327561D01*
X126647643Y-121380228D01*
X126642248Y-121435000D01*
X126643600Y-121557150D01*
X126713450Y-121627000D01*
X126755398Y-121627000D01*
X126719478Y-121656478D01*
X126684563Y-121699023D01*
X126658619Y-121747561D01*
X126642643Y-121800228D01*
X126637248Y-121855000D01*
X125425200Y-121855000D01*
X125425200Y-121285000D01*
X125418855Y-121220581D01*
X125400065Y-121158638D01*
X125369551Y-121101551D01*
X125328487Y-121051513D01*
X125278449Y-121010449D01*
X125221362Y-120979935D01*
X125159419Y-120961145D01*
X125095000Y-120954800D01*
X121031000Y-120954800D01*
X120966581Y-120961145D01*
X120904638Y-120979935D01*
X120847551Y-121010449D01*
X120797513Y-121051513D01*
X120756449Y-121101551D01*
X120725935Y-121158638D01*
X120707145Y-121220581D01*
X120700800Y-121285000D01*
X120700800Y-121625562D01*
X120681800Y-121721082D01*
X120681800Y-121864918D01*
X120700800Y-121960438D01*
X120700800Y-122895562D01*
X120681800Y-122991082D01*
X120681800Y-123134918D01*
X120700800Y-123230438D01*
X120700800Y-123825000D01*
X120526409Y-123825000D01*
X120529381Y-123819439D01*
X120545357Y-123766772D01*
X120550752Y-123712000D01*
X120549400Y-123429850D01*
X120479550Y-123360000D01*
X119778000Y-123360000D01*
X119778000Y-123380000D01*
X119532000Y-123380000D01*
X119532000Y-123360000D01*
X118558000Y-123360000D01*
X118558000Y-123380000D01*
X118312000Y-123380000D01*
X118312000Y-123360000D01*
X117610450Y-123360000D01*
X117540600Y-123429850D01*
X117539248Y-123712000D01*
X117544643Y-123766772D01*
X117560619Y-123819439D01*
X117563591Y-123825000D01*
X109347000Y-123825000D01*
X109322224Y-123827440D01*
X109298399Y-123834667D01*
X109276443Y-123846403D01*
X109257197Y-123862197D01*
X109241403Y-123881443D01*
X109229667Y-123903399D01*
X109222440Y-123927224D01*
X109220000Y-123952000D01*
X109220000Y-133644800D01*
X107375135Y-133644800D01*
X107399381Y-133599439D01*
X107415357Y-133546772D01*
X107420752Y-133492000D01*
X107419400Y-130684850D01*
X107349550Y-130615000D01*
X106263000Y-130615000D01*
X106263000Y-130635000D01*
X106017000Y-130635000D01*
X106017000Y-130615000D01*
X104930450Y-130615000D01*
X104860600Y-130684850D01*
X104859248Y-133492000D01*
X104864643Y-133546772D01*
X104880619Y-133599439D01*
X104904865Y-133644800D01*
X104649811Y-133644800D01*
X104701953Y-127492000D01*
X104859248Y-127492000D01*
X104860600Y-130299150D01*
X104930450Y-130369000D01*
X106017000Y-130369000D01*
X106017000Y-127282450D01*
X106263000Y-127282450D01*
X106263000Y-130369000D01*
X107349550Y-130369000D01*
X107419400Y-130299150D01*
X107420752Y-127492000D01*
X107415357Y-127437228D01*
X107399381Y-127384561D01*
X107373437Y-127336023D01*
X107338522Y-127293478D01*
X107295977Y-127258563D01*
X107247439Y-127232619D01*
X107194772Y-127216643D01*
X107140000Y-127211248D01*
X106332850Y-127212600D01*
X106263000Y-127282450D01*
X106017000Y-127282450D01*
X105947150Y-127212600D01*
X105140000Y-127211248D01*
X105085228Y-127216643D01*
X105032561Y-127232619D01*
X104984023Y-127258563D01*
X104941478Y-127293478D01*
X104906563Y-127336023D01*
X104880619Y-127384561D01*
X104864643Y-127437228D01*
X104859248Y-127492000D01*
X104701953Y-127492000D01*
X104740088Y-122992000D01*
X104859248Y-122992000D01*
X104864643Y-123046772D01*
X104880619Y-123099439D01*
X104906563Y-123147977D01*
X104941478Y-123190522D01*
X104984023Y-123225437D01*
X105032561Y-123251381D01*
X105085228Y-123267357D01*
X105140000Y-123272752D01*
X105947150Y-123271400D01*
X106017000Y-123201550D01*
X106017000Y-121365000D01*
X106263000Y-121365000D01*
X106263000Y-123201550D01*
X106332850Y-123271400D01*
X107140000Y-123272752D01*
X107194772Y-123267357D01*
X107247439Y-123251381D01*
X107295977Y-123225437D01*
X107338522Y-123190522D01*
X107373437Y-123147977D01*
X107399381Y-123099439D01*
X107415357Y-123046772D01*
X107419767Y-123002000D01*
X111441248Y-123002000D01*
X111446643Y-123056772D01*
X111462619Y-123109439D01*
X111488563Y-123157977D01*
X111523478Y-123200522D01*
X111566023Y-123235437D01*
X111614561Y-123261381D01*
X111667228Y-123277357D01*
X111722000Y-123282752D01*
X112329150Y-123281400D01*
X112399000Y-123211550D01*
X112399000Y-121375000D01*
X112645000Y-121375000D01*
X112645000Y-123211550D01*
X112714850Y-123281400D01*
X113322000Y-123282752D01*
X113376772Y-123277357D01*
X113429439Y-123261381D01*
X113477977Y-123235437D01*
X113520522Y-123200522D01*
X113555437Y-123157977D01*
X113581381Y-123109439D01*
X113597357Y-123056772D01*
X113602752Y-123002000D01*
X113602544Y-122762000D01*
X117539248Y-122762000D01*
X117540600Y-123044150D01*
X117610450Y-123114000D01*
X118312000Y-123114000D01*
X118312000Y-122410000D01*
X118558000Y-122410000D01*
X118558000Y-123114000D01*
X119532000Y-123114000D01*
X119532000Y-122410000D01*
X119778000Y-122410000D01*
X119778000Y-123114000D01*
X120479550Y-123114000D01*
X120549400Y-123044150D01*
X120550752Y-122762000D01*
X120549400Y-122479850D01*
X120479550Y-122410000D01*
X119778000Y-122410000D01*
X119532000Y-122410000D01*
X118558000Y-122410000D01*
X118312000Y-122410000D01*
X117610450Y-122410000D01*
X117540600Y-122479850D01*
X117539248Y-122762000D01*
X113602544Y-122762000D01*
X113601719Y-121812000D01*
X117539248Y-121812000D01*
X117540600Y-122094150D01*
X117561147Y-122114697D01*
X117565619Y-122129439D01*
X117591563Y-122177977D01*
X117626478Y-122220522D01*
X117669023Y-122255437D01*
X117717561Y-122281381D01*
X117770228Y-122297357D01*
X117825000Y-122302752D01*
X117882150Y-122301400D01*
X117952000Y-122231550D01*
X117952000Y-122164000D01*
X118198000Y-122164000D01*
X118198000Y-122231550D01*
X118267850Y-122301400D01*
X118325000Y-122302752D01*
X118379772Y-122297357D01*
X118395000Y-122292738D01*
X118410228Y-122297357D01*
X118465000Y-122302752D01*
X118522150Y-122301400D01*
X118592000Y-122231550D01*
X118592000Y-122164000D01*
X118838000Y-122164000D01*
X118838000Y-122231550D01*
X118907850Y-122301400D01*
X118965000Y-122302752D01*
X119019772Y-122297357D01*
X119045000Y-122289704D01*
X119070228Y-122297357D01*
X119125000Y-122302752D01*
X119182150Y-122301400D01*
X119252000Y-122231550D01*
X119252000Y-122164000D01*
X119498000Y-122164000D01*
X119498000Y-122231550D01*
X119567850Y-122301400D01*
X119625000Y-122302752D01*
X119679772Y-122297357D01*
X119695000Y-122292738D01*
X119710228Y-122297357D01*
X119765000Y-122302752D01*
X119822150Y-122301400D01*
X119892000Y-122231550D01*
X119892000Y-122164000D01*
X120138000Y-122164000D01*
X120138000Y-122231550D01*
X120207850Y-122301400D01*
X120265000Y-122302752D01*
X120319772Y-122297357D01*
X120372439Y-122281381D01*
X120420977Y-122255437D01*
X120463522Y-122220522D01*
X120498437Y-122177977D01*
X120524381Y-122129439D01*
X120528853Y-122114697D01*
X120549400Y-122094150D01*
X120550752Y-121812000D01*
X120545357Y-121757228D01*
X120529381Y-121704561D01*
X120503437Y-121656023D01*
X120468522Y-121613478D01*
X120432602Y-121584000D01*
X120474550Y-121584000D01*
X120544400Y-121514150D01*
X120545752Y-121392000D01*
X120540357Y-121337228D01*
X120524381Y-121284561D01*
X120498437Y-121236023D01*
X120463522Y-121193478D01*
X120420977Y-121158563D01*
X120372439Y-121132619D01*
X120319772Y-121116643D01*
X120265000Y-121111248D01*
X120207850Y-121112600D01*
X120138000Y-121182450D01*
X120138000Y-121531671D01*
X119892000Y-121532459D01*
X119892000Y-121526550D01*
X119904400Y-121514150D01*
X119905752Y-121392000D01*
X119900357Y-121337228D01*
X119892000Y-121309678D01*
X119892000Y-121182450D01*
X119822150Y-121112600D01*
X119765000Y-121111248D01*
X119710228Y-121116643D01*
X119695000Y-121121262D01*
X119679772Y-121116643D01*
X119625000Y-121111248D01*
X119567850Y-121112600D01*
X119498000Y-121182450D01*
X119498000Y-121309678D01*
X119489643Y-121337228D01*
X119484248Y-121392000D01*
X119485600Y-121514150D01*
X119498000Y-121526550D01*
X119498000Y-121568450D01*
X119462150Y-121532600D01*
X119252000Y-121531927D01*
X119252000Y-121182450D01*
X119182150Y-121112600D01*
X119125000Y-121111248D01*
X119070228Y-121116643D01*
X119045000Y-121124296D01*
X119019772Y-121116643D01*
X118965000Y-121111248D01*
X118907850Y-121112600D01*
X118838000Y-121182450D01*
X118838000Y-121531927D01*
X118627850Y-121532600D01*
X118592000Y-121568450D01*
X118592000Y-121526550D01*
X118604400Y-121514150D01*
X118605752Y-121392000D01*
X118600357Y-121337228D01*
X118592000Y-121309678D01*
X118592000Y-121182450D01*
X118522150Y-121112600D01*
X118465000Y-121111248D01*
X118410228Y-121116643D01*
X118395000Y-121121262D01*
X118379772Y-121116643D01*
X118325000Y-121111248D01*
X118267850Y-121112600D01*
X118198000Y-121182450D01*
X118198000Y-121309678D01*
X118189643Y-121337228D01*
X118184248Y-121392000D01*
X118185600Y-121514150D01*
X118198000Y-121526550D01*
X118198000Y-121532459D01*
X117952000Y-121531671D01*
X117952000Y-121182450D01*
X117882150Y-121112600D01*
X117825000Y-121111248D01*
X117770228Y-121116643D01*
X117717561Y-121132619D01*
X117669023Y-121158563D01*
X117626478Y-121193478D01*
X117591563Y-121236023D01*
X117565619Y-121284561D01*
X117549643Y-121337228D01*
X117544248Y-121392000D01*
X117545600Y-121514150D01*
X117615450Y-121584000D01*
X117657398Y-121584000D01*
X117621478Y-121613478D01*
X117586563Y-121656023D01*
X117560619Y-121704561D01*
X117544643Y-121757228D01*
X117539248Y-121812000D01*
X113601719Y-121812000D01*
X113601400Y-121444850D01*
X113531550Y-121375000D01*
X112645000Y-121375000D01*
X112399000Y-121375000D01*
X111512450Y-121375000D01*
X111442600Y-121444850D01*
X111441248Y-123002000D01*
X107419767Y-123002000D01*
X107420752Y-122992000D01*
X107419400Y-121434850D01*
X107349550Y-121365000D01*
X106263000Y-121365000D01*
X106017000Y-121365000D01*
X104930450Y-121365000D01*
X104860600Y-121434850D01*
X104859248Y-122992000D01*
X104740088Y-122992000D01*
X104769749Y-119492000D01*
X104859248Y-119492000D01*
X104860600Y-121049150D01*
X104930450Y-121119000D01*
X106017000Y-121119000D01*
X106017000Y-119282450D01*
X106263000Y-119282450D01*
X106263000Y-121119000D01*
X107349550Y-121119000D01*
X107419400Y-121049150D01*
X107420743Y-119502000D01*
X111441248Y-119502000D01*
X111442600Y-121059150D01*
X111512450Y-121129000D01*
X112399000Y-121129000D01*
X112399000Y-119292450D01*
X112645000Y-119292450D01*
X112645000Y-121129000D01*
X113531550Y-121129000D01*
X113601400Y-121059150D01*
X113602752Y-119502000D01*
X113597357Y-119447228D01*
X113581381Y-119394561D01*
X113555437Y-119346023D01*
X113520522Y-119303478D01*
X113477977Y-119268563D01*
X113429439Y-119242619D01*
X113376772Y-119226643D01*
X113322000Y-119221248D01*
X112714850Y-119222600D01*
X112645000Y-119292450D01*
X112399000Y-119292450D01*
X112329150Y-119222600D01*
X111722000Y-119221248D01*
X111667228Y-119226643D01*
X111614561Y-119242619D01*
X111566023Y-119268563D01*
X111523478Y-119303478D01*
X111488563Y-119346023D01*
X111462619Y-119394561D01*
X111446643Y-119447228D01*
X111441248Y-119502000D01*
X107420743Y-119502000D01*
X107420752Y-119492000D01*
X107415357Y-119437228D01*
X107399381Y-119384561D01*
X107373437Y-119336023D01*
X107338522Y-119293478D01*
X107295977Y-119258563D01*
X107247439Y-119232619D01*
X107194772Y-119216643D01*
X107140000Y-119211248D01*
X106332850Y-119212600D01*
X106263000Y-119282450D01*
X106017000Y-119282450D01*
X105947150Y-119212600D01*
X105140000Y-119211248D01*
X105085228Y-119216643D01*
X105032561Y-119232619D01*
X104984023Y-119258563D01*
X104941478Y-119293478D01*
X104906563Y-119336023D01*
X104880619Y-119384561D01*
X104864643Y-119437228D01*
X104859248Y-119492000D01*
X104769749Y-119492000D01*
X104773928Y-118999000D01*
X138684000Y-118999000D01*
X138684000Y-123825000D01*
G36*
X103632000Y-133448000D02*
G01*
X100552000Y-133448000D01*
X100552000Y-118745000D01*
X103632000Y-118745000D01*
X103632000Y-133448000D01*
X103632000Y-133448000D01*
G37*
X103632000Y-133448000D02*
X100552000Y-133448000D01*
X100552000Y-118745000D01*
X103632000Y-118745000D01*
X103632000Y-133448000D01*
G36*
X119486660Y-124902000D02*
G01*
X119492008Y-124956301D01*
X119507000Y-125005724D01*
X119507000Y-125222000D01*
X119509440Y-125246776D01*
X119516667Y-125270601D01*
X119528403Y-125292557D01*
X119544197Y-125311803D01*
X119563443Y-125327597D01*
X119585399Y-125339333D01*
X119609224Y-125346560D01*
X119634000Y-125349000D01*
X124661394Y-125349000D01*
X125907800Y-126595406D01*
X125907800Y-126746000D01*
X125912236Y-126799944D01*
X125929020Y-126862461D01*
X125957677Y-126920502D01*
X125997107Y-126971837D01*
X127812800Y-128908576D01*
X127812800Y-133477000D01*
X125857000Y-133477000D01*
X125857000Y-130556000D01*
X125854560Y-130531224D01*
X125847333Y-130507399D01*
X125835597Y-130485443D01*
X125819803Y-130466197D01*
X123787803Y-128434197D01*
X123768557Y-128418403D01*
X123746601Y-128406667D01*
X123722776Y-128399440D01*
X123698000Y-128397000D01*
X117475000Y-128397000D01*
X117475000Y-124333000D01*
X119486660Y-124333000D01*
X119486660Y-124902000D01*
X119486660Y-124902000D01*
G37*
X119486660Y-124902000D02*
X119492008Y-124956301D01*
X119507000Y-125005724D01*
X119507000Y-125222000D01*
X119509440Y-125246776D01*
X119516667Y-125270601D01*
X119528403Y-125292557D01*
X119544197Y-125311803D01*
X119563443Y-125327597D01*
X119585399Y-125339333D01*
X119609224Y-125346560D01*
X119634000Y-125349000D01*
X124661394Y-125349000D01*
X125907800Y-126595406D01*
X125907800Y-126746000D01*
X125912236Y-126799944D01*
X125929020Y-126862461D01*
X125957677Y-126920502D01*
X125997107Y-126971837D01*
X127812800Y-128908576D01*
X127812800Y-133477000D01*
X125857000Y-133477000D01*
X125857000Y-130556000D01*
X125854560Y-130531224D01*
X125847333Y-130507399D01*
X125835597Y-130485443D01*
X125819803Y-130466197D01*
X123787803Y-128434197D01*
X123768557Y-128418403D01*
X123746601Y-128406667D01*
X123722776Y-128399440D01*
X123698000Y-128397000D01*
X117475000Y-128397000D01*
X117475000Y-124333000D01*
X119486660Y-124333000D01*
X119486660Y-124902000D01*
G36*
X128531203Y-124945000D02*
G01*
X128537578Y-125009730D01*
X128556460Y-125071973D01*
X128587121Y-125129337D01*
X128628384Y-125179616D01*
X128651000Y-125198177D01*
X128651000Y-125222000D01*
X128653440Y-125246776D01*
X128660667Y-125270601D01*
X128672403Y-125292557D01*
X128688197Y-125311803D01*
X128707443Y-125327597D01*
X128729399Y-125339333D01*
X128753224Y-125346560D01*
X128778000Y-125349000D01*
X133490330Y-125349000D01*
X133725219Y-127463002D01*
X130845307Y-130468128D01*
X130829926Y-130487705D01*
X130818660Y-130509906D01*
X130811941Y-130533879D01*
X130810000Y-130556000D01*
X130810000Y-133644800D01*
X128270000Y-133644800D01*
X128270000Y-128778000D01*
X128267560Y-128753224D01*
X128260333Y-128729399D01*
X128248597Y-128707443D01*
X128235651Y-128691139D01*
X126365000Y-126695778D01*
X126365000Y-124333000D01*
X128531203Y-124333000D01*
X128531203Y-124945000D01*
X128531203Y-124945000D01*
G37*
X128531203Y-124945000D02*
X128537578Y-125009730D01*
X128556460Y-125071973D01*
X128587121Y-125129337D01*
X128628384Y-125179616D01*
X128651000Y-125198177D01*
X128651000Y-125222000D01*
X128653440Y-125246776D01*
X128660667Y-125270601D01*
X128672403Y-125292557D01*
X128688197Y-125311803D01*
X128707443Y-125327597D01*
X128729399Y-125339333D01*
X128753224Y-125346560D01*
X128778000Y-125349000D01*
X133490330Y-125349000D01*
X133725219Y-127463002D01*
X130845307Y-130468128D01*
X130829926Y-130487705D01*
X130818660Y-130509906D01*
X130811941Y-130533879D01*
X130810000Y-130556000D01*
X130810000Y-133644800D01*
X128270000Y-133644800D01*
X128270000Y-128778000D01*
X128267560Y-128753224D01*
X128260333Y-128729399D01*
X128248597Y-128707443D01*
X128235651Y-128691139D01*
X126365000Y-126695778D01*
X126365000Y-124333000D01*
X128531203Y-124333000D01*
X128531203Y-124945000D01*
G36*
X137287000Y-125476000D02*
G01*
X137289440Y-125500776D01*
X137296667Y-125524601D01*
X137308403Y-125546557D01*
X137324197Y-125565803D01*
X137343443Y-125581597D01*
X137365399Y-125593333D01*
X137389224Y-125600560D01*
X137414000Y-125603000D01*
X142840801Y-125603000D01*
X142840801Y-126529517D01*
X141989318Y-127381000D01*
X139446000Y-127381000D01*
X139421224Y-127383440D01*
X139397399Y-127390667D01*
X139375443Y-127402403D01*
X139356197Y-127418197D01*
X139346830Y-127428664D01*
X134373921Y-133644800D01*
X131267200Y-133644800D01*
X131267200Y-130778415D01*
X134712844Y-127086654D01*
X134727965Y-127066876D01*
X134738938Y-127044528D01*
X134745340Y-127020469D01*
X134747000Y-127000000D01*
X134747000Y-124766606D01*
X135180606Y-124333000D01*
X137287000Y-124333000D01*
X137287000Y-125476000D01*
X137287000Y-125476000D01*
G37*
X137287000Y-125476000D02*
X137289440Y-125500776D01*
X137296667Y-125524601D01*
X137308403Y-125546557D01*
X137324197Y-125565803D01*
X137343443Y-125581597D01*
X137365399Y-125593333D01*
X137389224Y-125600560D01*
X137414000Y-125603000D01*
X142840801Y-125603000D01*
X142840801Y-126529517D01*
X141989318Y-127381000D01*
X139446000Y-127381000D01*
X139421224Y-127383440D01*
X139397399Y-127390667D01*
X139375443Y-127402403D01*
X139356197Y-127418197D01*
X139346830Y-127428664D01*
X134373921Y-133644800D01*
X131267200Y-133644800D01*
X131267200Y-130778415D01*
X134712844Y-127086654D01*
X134727965Y-127066876D01*
X134738938Y-127044528D01*
X134745340Y-127020469D01*
X134747000Y-127000000D01*
X134747000Y-124766606D01*
X135180606Y-124333000D01*
X137287000Y-124333000D01*
X137287000Y-125476000D01*
G36*
X133985000Y-124079000D02*
G01*
X131767751Y-124079000D01*
X131767751Y-123467000D01*
X131762356Y-123412228D01*
X131746380Y-123359561D01*
X131720436Y-123311023D01*
X131685521Y-123268479D01*
X131642977Y-123233564D01*
X131594439Y-123207620D01*
X131541772Y-123191644D01*
X131487000Y-123186249D01*
X130987000Y-123186249D01*
X130932228Y-123191644D01*
X130879561Y-123207620D01*
X130831023Y-123233564D01*
X130788479Y-123268479D01*
X130753564Y-123311023D01*
X130727620Y-123359561D01*
X130711644Y-123412228D01*
X130706249Y-123467000D01*
X130706249Y-123511908D01*
X130663027Y-123540788D01*
X130589288Y-123614527D01*
X130531351Y-123701235D01*
X130491444Y-123797580D01*
X130471100Y-123899859D01*
X130471100Y-124004141D01*
X130485990Y-124079000D01*
X130302000Y-124079000D01*
X130302000Y-121412000D01*
X133985000Y-121412000D01*
X133985000Y-124079000D01*
X133985000Y-124079000D01*
G37*
X133985000Y-124079000D02*
X131767751Y-124079000D01*
X131767751Y-123467000D01*
X131762356Y-123412228D01*
X131746380Y-123359561D01*
X131720436Y-123311023D01*
X131685521Y-123268479D01*
X131642977Y-123233564D01*
X131594439Y-123207620D01*
X131541772Y-123191644D01*
X131487000Y-123186249D01*
X130987000Y-123186249D01*
X130932228Y-123191644D01*
X130879561Y-123207620D01*
X130831023Y-123233564D01*
X130788479Y-123268479D01*
X130753564Y-123311023D01*
X130727620Y-123359561D01*
X130711644Y-123412228D01*
X130706249Y-123467000D01*
X130706249Y-123511908D01*
X130663027Y-123540788D01*
X130589288Y-123614527D01*
X130531351Y-123701235D01*
X130491444Y-123797580D01*
X130471100Y-123899859D01*
X130471100Y-124004141D01*
X130485990Y-124079000D01*
X130302000Y-124079000D01*
X130302000Y-121412000D01*
X133985000Y-121412000D01*
X133985000Y-124079000D01*
G36*
X142894001Y-124079000D02*
G01*
X140859098Y-124079000D01*
X140859098Y-123467000D01*
X140854715Y-123422500D01*
X140841735Y-123379711D01*
X140820657Y-123340276D01*
X140792290Y-123305710D01*
X140757724Y-123277343D01*
X140718289Y-123256265D01*
X140675500Y-123243285D01*
X140631000Y-123238902D01*
X140131000Y-123238902D01*
X140086500Y-123243285D01*
X140043711Y-123256265D01*
X140004276Y-123277343D01*
X139969710Y-123305710D01*
X139941343Y-123340276D01*
X139920265Y-123379711D01*
X139907285Y-123422500D01*
X139902902Y-123467000D01*
X139902902Y-123539748D01*
X139840430Y-123581490D01*
X139773990Y-123647930D01*
X139721788Y-123726056D01*
X139685831Y-123812864D01*
X139667500Y-123905020D01*
X139667500Y-123998980D01*
X139683417Y-124079000D01*
X139319000Y-124079000D01*
X139319000Y-120650000D01*
X142894002Y-120650000D01*
X142894001Y-124079000D01*
X142894001Y-124079000D01*
G37*
X142894001Y-124079000D02*
X140859098Y-124079000D01*
X140859098Y-123467000D01*
X140854715Y-123422500D01*
X140841735Y-123379711D01*
X140820657Y-123340276D01*
X140792290Y-123305710D01*
X140757724Y-123277343D01*
X140718289Y-123256265D01*
X140675500Y-123243285D01*
X140631000Y-123238902D01*
X140131000Y-123238902D01*
X140086500Y-123243285D01*
X140043711Y-123256265D01*
X140004276Y-123277343D01*
X139969710Y-123305710D01*
X139941343Y-123340276D01*
X139920265Y-123379711D01*
X139907285Y-123422500D01*
X139902902Y-123467000D01*
X139902902Y-123539748D01*
X139840430Y-123581490D01*
X139773990Y-123647930D01*
X139721788Y-123726056D01*
X139685831Y-123812864D01*
X139667500Y-123905020D01*
X139667500Y-123998980D01*
X139683417Y-124079000D01*
X139319000Y-124079000D01*
X139319000Y-120650000D01*
X142894002Y-120650000D01*
X142894001Y-124079000D01*
G36*
X102590600Y-112444469D02*
G01*
X102543285Y-112386815D01*
X102446594Y-112307463D01*
X102336280Y-112248498D01*
X102216582Y-112212188D01*
X102092100Y-112199928D01*
X101890350Y-112203000D01*
X101731600Y-112361750D01*
X101731600Y-113411000D01*
X101751600Y-113411000D01*
X101751600Y-113665000D01*
X101731600Y-113665000D01*
X101731600Y-115468400D01*
X101751600Y-115468400D01*
X101751600Y-115722400D01*
X101731600Y-115722400D01*
X101731600Y-116493650D01*
X101625300Y-116599950D01*
X101625300Y-117398800D01*
X101371300Y-117398800D01*
X101371300Y-116877950D01*
X101477600Y-116771650D01*
X101477600Y-115722400D01*
X100640850Y-115722400D01*
X100482100Y-115881150D01*
X100479028Y-116295400D01*
X100491288Y-116419882D01*
X100527598Y-116539580D01*
X100586563Y-116649894D01*
X100587880Y-116651499D01*
X100530263Y-116721706D01*
X100471298Y-116832020D01*
X100434988Y-116951718D01*
X100422728Y-117076200D01*
X100425800Y-117265450D01*
X100559150Y-117398800D01*
X100304400Y-117398800D01*
X100304400Y-114238000D01*
X100479028Y-114238000D01*
X100491288Y-114362482D01*
X100527598Y-114482180D01*
X100572776Y-114566700D01*
X100527598Y-114651220D01*
X100491288Y-114770918D01*
X100479028Y-114895400D01*
X100482100Y-115309650D01*
X100640850Y-115468400D01*
X101477600Y-115468400D01*
X101477600Y-113665000D01*
X100640850Y-113665000D01*
X100482100Y-113823750D01*
X100479028Y-114238000D01*
X100304400Y-114238000D01*
X100304400Y-112838000D01*
X100479028Y-112838000D01*
X100482100Y-113252250D01*
X100640850Y-113411000D01*
X101477600Y-113411000D01*
X101477600Y-112361750D01*
X101318850Y-112203000D01*
X101117100Y-112199928D01*
X100992618Y-112212188D01*
X100872920Y-112248498D01*
X100762606Y-112307463D01*
X100665915Y-112386815D01*
X100586563Y-112483506D01*
X100527598Y-112593820D01*
X100491288Y-112713518D01*
X100479028Y-112838000D01*
X100304400Y-112838000D01*
X100304400Y-111683800D01*
X102590600Y-111683800D01*
X102590600Y-112444469D01*
X102590600Y-112444469D01*
G37*
X102590600Y-112444469D02*
X102543285Y-112386815D01*
X102446594Y-112307463D01*
X102336280Y-112248498D01*
X102216582Y-112212188D01*
X102092100Y-112199928D01*
X101890350Y-112203000D01*
X101731600Y-112361750D01*
X101731600Y-113411000D01*
X101751600Y-113411000D01*
X101751600Y-113665000D01*
X101731600Y-113665000D01*
X101731600Y-115468400D01*
X101751600Y-115468400D01*
X101751600Y-115722400D01*
X101731600Y-115722400D01*
X101731600Y-116493650D01*
X101625300Y-116599950D01*
X101625300Y-117398800D01*
X101371300Y-117398800D01*
X101371300Y-116877950D01*
X101477600Y-116771650D01*
X101477600Y-115722400D01*
X100640850Y-115722400D01*
X100482100Y-115881150D01*
X100479028Y-116295400D01*
X100491288Y-116419882D01*
X100527598Y-116539580D01*
X100586563Y-116649894D01*
X100587880Y-116651499D01*
X100530263Y-116721706D01*
X100471298Y-116832020D01*
X100434988Y-116951718D01*
X100422728Y-117076200D01*
X100425800Y-117265450D01*
X100559150Y-117398800D01*
X100304400Y-117398800D01*
X100304400Y-114238000D01*
X100479028Y-114238000D01*
X100491288Y-114362482D01*
X100527598Y-114482180D01*
X100572776Y-114566700D01*
X100527598Y-114651220D01*
X100491288Y-114770918D01*
X100479028Y-114895400D01*
X100482100Y-115309650D01*
X100640850Y-115468400D01*
X101477600Y-115468400D01*
X101477600Y-113665000D01*
X100640850Y-113665000D01*
X100482100Y-113823750D01*
X100479028Y-114238000D01*
X100304400Y-114238000D01*
X100304400Y-112838000D01*
X100479028Y-112838000D01*
X100482100Y-113252250D01*
X100640850Y-113411000D01*
X101477600Y-113411000D01*
X101477600Y-112361750D01*
X101318850Y-112203000D01*
X101117100Y-112199928D01*
X100992618Y-112212188D01*
X100872920Y-112248498D01*
X100762606Y-112307463D01*
X100665915Y-112386815D01*
X100586563Y-112483506D01*
X100527598Y-112593820D01*
X100491288Y-112713518D01*
X100479028Y-112838000D01*
X100304400Y-112838000D01*
X100304400Y-111683800D01*
X102590600Y-111683800D01*
X102590600Y-112444469D01*
M02*
