M48
; DRILL file {KiCad 5.1.2-f72e74a~84~ubuntu18.04.1} date Di 03 Sep 2019 03:08:43 CEST
; FORMAT={-:-/ absolute / inch / decimal}
; #@! TF.CreationDate,2019-09-03T03:08:43+02:00
; #@! TF.GenerationSoftware,Kicad,Pcbnew,5.1.2-f72e74a~84~ubuntu18.04.1
; #@! TF.FileFunction,Plated,1,4,PTH
FMAT,2
INCH
T1C0.0118
T2C0.0157
T3C0.0315
T4C0.0394
%
G90
G05
T1
X4.3675Y-4.19
X4.4075Y-4.17
X4.735Y-4.905
X4.745Y-4.94
X4.8Y-4.885
X4.9075Y-4.455
X4.9475Y-4.44
X5.035Y-4.335
X5.0375Y-4.28
X5.0425Y-4.385
X5.0475Y-4.455
X5.0925Y-4.905
X5.101Y-4.939
X5.1375Y-4.12
X5.1425Y-4.45
X5.1575Y-4.88
X5.1625Y-4.46
X5.1625Y-4.545
X5.185Y-4.45
X5.3075Y-4.185
X5.435Y-4.905
X5.45Y-5.215
X5.4575Y-4.955
X5.5175Y-4.88
X5.6Y-5.145
X5.6775Y-4.565
X5.785Y-5.065
X5.845Y-4.62
X5.8825Y-4.535
X5.91Y-4.8
X5.915Y-5.055
X5.9315Y-4.057
T2
X3.96Y-4.74
X3.96Y-4.78
X3.96Y-4.82
X3.96Y-4.86
X3.96Y-4.94
X3.96Y-5.02
X3.96Y-5.06
X3.96Y-5.1
X3.96Y-5.14
X3.96Y-5.18
X3.96Y-5.22
X3.98Y-4.9
X3.98Y-4.98
X4.0Y-4.86
X4.0Y-4.94
X4.02Y-4.9
X4.02Y-4.98
X4.04Y-4.86
X4.04Y-4.94
X4.075Y-4.514
X4.14Y-4.74
X4.14Y-4.82
X4.14Y-5.02
X4.14Y-5.1
X4.14Y-5.18
X4.16Y-4.7
X4.16Y-4.78
X4.16Y-5.06
X4.16Y-5.14
X4.16Y-5.22
X4.18Y-4.74
X4.18Y-4.82
X4.18Y-5.02
X4.18Y-5.1
X4.18Y-5.18
X4.1975Y-4.085
X4.2Y-4.7
X4.2Y-4.78
X4.2Y-5.06
X4.2Y-5.14
X4.2Y-5.22
X4.22Y-4.74
X4.22Y-4.82
X4.22Y-5.02
X4.22Y-5.1
X4.22Y-5.18
X4.24Y-4.7
X4.24Y-4.78
X4.24Y-5.06
X4.24Y-5.14
X4.24Y-5.22
X4.26Y-4.82
X4.265Y-4.74
X4.285Y-4.7
X4.29Y-4.78
X4.352Y-4.377
X4.355Y-4.99
X4.78Y-4.795
X4.78Y-4.845
X4.81Y-4.82
X4.84Y-4.795
X4.84Y-4.845
X4.865Y-4.82
X4.895Y-4.795
X4.895Y-4.845
X4.98Y-4.32
X4.985Y-4.21
X4.99Y-4.275
X5.005Y-4.345
X5.015Y-4.245
X5.14Y-4.79
X5.15Y-4.83
X5.205Y-4.79
X5.205Y-4.85
X5.24Y-4.83
X5.25Y-4.795
X5.505Y-4.775
X5.53Y-4.81
X5.56Y-4.775
X5.56Y-4.845
X5.585Y-4.81
X5.61Y-4.775
X5.615Y-4.845
X5.6378Y-4.063
X5.6378Y-4.1004
X5.6378Y-4.1417
X5.7Y-4.955
X5.7043Y-4.3902
X5.705Y-5.055
X5.74Y-5.225
X5.7913Y-4.7047
X5.825Y-5.255
X5.875Y-5.255
X5.93Y-5.255
T3
X5.8476Y-4.2793
X5.8476Y-4.3793
X5.9476Y-4.3293
X5.9476Y-4.4293
X4.01Y-4.03
X4.01Y-4.13
X4.01Y-4.23
X4.11Y-4.08
X4.11Y-4.18
X4.11Y-4.28
T4
X4.2834Y-4.6077
X4.3834Y-4.6077
X4.4834Y-4.6077
X4.5834Y-4.6077
X4.6834Y-4.6077
X4.7834Y-4.6077
X4.8834Y-4.6077
X4.9834Y-4.6077
X5.0834Y-4.6077
X5.1834Y-4.6077
X5.2834Y-4.6077
X5.3834Y-4.6077
X5.4834Y-4.6077
X5.5834Y-4.6077
X4.5Y-5.19
X4.6Y-5.19
X4.7Y-5.19
X4.8Y-5.19
X4.9Y-5.19
X5.0Y-5.19
X5.1Y-5.19
X5.2Y-5.19
X4.2834Y-4.0093
X4.3834Y-4.0093
X4.4834Y-4.0093
X4.5834Y-4.0093
X4.6834Y-4.0093
X4.7834Y-4.0093
X4.8834Y-4.0093
X4.9834Y-4.0093
X5.0834Y-4.0093
X5.1834Y-4.0093
X5.2834Y-4.0093
X5.3834Y-4.0093
X5.4834Y-4.0093
X5.5834Y-4.0093
T0
M30
