G04 #@! TF.GenerationSoftware,KiCad,Pcbnew,5.1.2-f72e74a~84~ubuntu18.04.1*
G04 #@! TF.CreationDate,2019-09-03T03:08:37+02:00*
G04 #@! TF.ProjectId,board,626f6172-642e-46b6-9963-61645f706362,rev?*
G04 #@! TF.SameCoordinates,Original*
G04 #@! TF.FileFunction,Legend,Top*
G04 #@! TF.FilePolarity,Positive*
%FSLAX46Y46*%
G04 Gerber Fmt 4.6, Leading zero omitted, Abs format (unit mm)*
G04 Created by KiCad (PCBNEW 5.1.2-f72e74a~84~ubuntu18.04.1) date 2019-09-03 03:08:37*
%MOMM*%
%LPD*%
G04 APERTURE LIST*
%ADD10C,0.100000*%
%ADD11C,0.250000*%
%ADD12C,0.120000*%
%ADD13C,0.127000*%
%ADD14C,0.150000*%
G04 APERTURE END LIST*
D10*
X108585000Y-104140000D02*
X105410000Y-104140000D01*
X109855000Y-106680000D02*
X105410000Y-106680000D01*
X109855000Y-109220000D02*
X105410000Y-109220000D01*
D11*
X110640952Y-109672380D02*
X110545714Y-109624761D01*
X110498095Y-109529523D01*
X110498095Y-108672380D01*
X110783809Y-109767619D02*
X111545714Y-109767619D01*
X111640952Y-108672380D02*
X112212380Y-108672380D01*
X111926666Y-109672380D02*
X111926666Y-108672380D01*
X112450476Y-108672380D02*
X113117142Y-109672380D01*
X113117142Y-108672380D02*
X112450476Y-109672380D01*
X106497619Y-108402380D02*
X106497619Y-107402380D01*
X106926190Y-108402380D02*
X106926190Y-107878571D01*
X106878571Y-107783333D01*
X106783333Y-107735714D01*
X106640476Y-107735714D01*
X106545238Y-107783333D01*
X106497619Y-107830952D01*
X107164285Y-108497619D02*
X107926190Y-108497619D01*
X108021428Y-107402380D02*
X108592857Y-107402380D01*
X108307142Y-108402380D02*
X108307142Y-107402380D01*
X108830952Y-107402380D02*
X109497619Y-108402380D01*
X109497619Y-107402380D02*
X108830952Y-108402380D01*
X110521904Y-107132380D02*
X110426666Y-107084761D01*
X110379047Y-106989523D01*
X110379047Y-106132380D01*
X110664761Y-107227619D02*
X111426666Y-107227619D01*
X112236190Y-107132380D02*
X111902857Y-106656190D01*
X111664761Y-107132380D02*
X111664761Y-106132380D01*
X112045714Y-106132380D01*
X112140952Y-106180000D01*
X112188571Y-106227619D01*
X112236190Y-106322857D01*
X112236190Y-106465714D01*
X112188571Y-106560952D01*
X112140952Y-106608571D01*
X112045714Y-106656190D01*
X111664761Y-106656190D01*
X112569523Y-106132380D02*
X113236190Y-107132380D01*
X113236190Y-106132380D02*
X112569523Y-107132380D01*
X106378571Y-105862380D02*
X106378571Y-104862380D01*
X106807142Y-105862380D02*
X106807142Y-105338571D01*
X106759523Y-105243333D01*
X106664285Y-105195714D01*
X106521428Y-105195714D01*
X106426190Y-105243333D01*
X106378571Y-105290952D01*
X107045238Y-105957619D02*
X107807142Y-105957619D01*
X108616666Y-105862380D02*
X108283333Y-105386190D01*
X108045238Y-105862380D02*
X108045238Y-104862380D01*
X108426190Y-104862380D01*
X108521428Y-104910000D01*
X108569047Y-104957619D01*
X108616666Y-105052857D01*
X108616666Y-105195714D01*
X108569047Y-105290952D01*
X108521428Y-105338571D01*
X108426190Y-105386190D01*
X108045238Y-105386190D01*
X108950000Y-104862380D02*
X109616666Y-105862380D01*
X109616666Y-104862380D02*
X108950000Y-105862380D01*
X108720238Y-104544761D02*
X108863095Y-104592380D01*
X109101190Y-104592380D01*
X109196428Y-104544761D01*
X109244047Y-104497142D01*
X109291666Y-104401904D01*
X109291666Y-104306666D01*
X109244047Y-104211428D01*
X109196428Y-104163809D01*
X109101190Y-104116190D01*
X108910714Y-104068571D01*
X108815476Y-104020952D01*
X108767857Y-103973333D01*
X108720238Y-103878095D01*
X108720238Y-103782857D01*
X108767857Y-103687619D01*
X108815476Y-103640000D01*
X108910714Y-103592380D01*
X109148809Y-103592380D01*
X109291666Y-103640000D01*
X109720238Y-104592380D02*
X109720238Y-103592380D01*
X109720238Y-104068571D02*
X110291666Y-104068571D01*
X110291666Y-104592380D02*
X110291666Y-103592380D01*
X110767857Y-104592380D02*
X110767857Y-103592380D01*
X111244047Y-104068571D02*
X111577380Y-104068571D01*
X111720238Y-104592380D02*
X111244047Y-104592380D01*
X111244047Y-103592380D01*
X111720238Y-103592380D01*
X112625000Y-104592380D02*
X112148809Y-104592380D01*
X112148809Y-103592380D01*
X112958333Y-104592380D02*
X112958333Y-103592380D01*
X113196428Y-103592380D01*
X113339285Y-103640000D01*
X113434523Y-103735238D01*
X113482142Y-103830476D01*
X113529761Y-104020952D01*
X113529761Y-104163809D01*
X113482142Y-104354285D01*
X113434523Y-104449523D01*
X113339285Y-104544761D01*
X113196428Y-104592380D01*
X112958333Y-104592380D01*
X101100000Y-117601904D02*
X101052380Y-117697142D01*
X101052380Y-117840000D01*
X101100000Y-117982857D01*
X101195238Y-118078095D01*
X101290476Y-118125714D01*
X101480952Y-118173333D01*
X101623809Y-118173333D01*
X101814285Y-118125714D01*
X101909523Y-118078095D01*
X102004761Y-117982857D01*
X102052380Y-117840000D01*
X102052380Y-117744761D01*
X102004761Y-117601904D01*
X101957142Y-117554285D01*
X101623809Y-117554285D01*
X101623809Y-117744761D01*
X102052380Y-117125714D02*
X101052380Y-117125714D01*
X102052380Y-116554285D01*
X101052380Y-116554285D01*
X102052380Y-116078095D02*
X101052380Y-116078095D01*
X101052380Y-115840000D01*
X101100000Y-115697142D01*
X101195238Y-115601904D01*
X101290476Y-115554285D01*
X101480952Y-115506666D01*
X101623809Y-115506666D01*
X101814285Y-115554285D01*
X101909523Y-115601904D01*
X102004761Y-115697142D01*
X102052380Y-115840000D01*
X102052380Y-116078095D01*
D10*
X146700000Y-113200000D02*
X149900000Y-113200000D01*
X144700000Y-111500000D02*
X147400000Y-111500000D01*
X146600000Y-110000000D02*
X149700000Y-110000000D01*
X144600000Y-108500000D02*
X147300000Y-108500000D01*
D11*
X143523809Y-112852380D02*
X144142857Y-112852380D01*
X143809523Y-113233333D01*
X143952380Y-113233333D01*
X144047619Y-113280952D01*
X144095238Y-113328571D01*
X144142857Y-113423809D01*
X144142857Y-113661904D01*
X144095238Y-113757142D01*
X144047619Y-113804761D01*
X143952380Y-113852380D01*
X143666666Y-113852380D01*
X143571428Y-113804761D01*
X143523809Y-113757142D01*
X144571428Y-113757142D02*
X144619047Y-113804761D01*
X144571428Y-113852380D01*
X144523809Y-113804761D01*
X144571428Y-113757142D01*
X144571428Y-113852380D01*
X144952380Y-112852380D02*
X145571428Y-112852380D01*
X145238095Y-113233333D01*
X145380952Y-113233333D01*
X145476190Y-113280952D01*
X145523809Y-113328571D01*
X145571428Y-113423809D01*
X145571428Y-113661904D01*
X145523809Y-113757142D01*
X145476190Y-113804761D01*
X145380952Y-113852380D01*
X145095238Y-113852380D01*
X145000000Y-113804761D01*
X144952380Y-113757142D01*
X145857142Y-112852380D02*
X146190476Y-113852380D01*
X146523809Y-112852380D01*
X142438095Y-111000000D02*
X142342857Y-110952380D01*
X142200000Y-110952380D01*
X142057142Y-111000000D01*
X141961904Y-111095238D01*
X141914285Y-111190476D01*
X141866666Y-111380952D01*
X141866666Y-111523809D01*
X141914285Y-111714285D01*
X141961904Y-111809523D01*
X142057142Y-111904761D01*
X142200000Y-111952380D01*
X142295238Y-111952380D01*
X142438095Y-111904761D01*
X142485714Y-111857142D01*
X142485714Y-111523809D01*
X142295238Y-111523809D01*
X142914285Y-111952380D02*
X142914285Y-110952380D01*
X143485714Y-111952380D01*
X143485714Y-110952380D01*
X143961904Y-111952380D02*
X143961904Y-110952380D01*
X144200000Y-110952380D01*
X144342857Y-111000000D01*
X144438095Y-111095238D01*
X144485714Y-111190476D01*
X144533333Y-111380952D01*
X144533333Y-111523809D01*
X144485714Y-111714285D01*
X144438095Y-111809523D01*
X144342857Y-111904761D01*
X144200000Y-111952380D01*
X143961904Y-111952380D01*
X145861904Y-110266666D02*
X146338095Y-110266666D01*
X145766666Y-110552380D02*
X146100000Y-109552380D01*
X146433333Y-110552380D01*
X143771428Y-108528571D02*
X143914285Y-108576190D01*
X143961904Y-108623809D01*
X144009523Y-108719047D01*
X144009523Y-108861904D01*
X143961904Y-108957142D01*
X143914285Y-109004761D01*
X143819047Y-109052380D01*
X143438095Y-109052380D01*
X143438095Y-108052380D01*
X143771428Y-108052380D01*
X143866666Y-108100000D01*
X143914285Y-108147619D01*
X143961904Y-108242857D01*
X143961904Y-108338095D01*
X143914285Y-108433333D01*
X143866666Y-108480952D01*
X143771428Y-108528571D01*
X143438095Y-108528571D01*
X122090476Y-109252380D02*
X122661904Y-109252380D01*
X122376190Y-110252380D02*
X122376190Y-109252380D01*
X122995238Y-110252380D02*
X122995238Y-109585714D01*
X122995238Y-109252380D02*
X122947619Y-109300000D01*
X122995238Y-109347619D01*
X123042857Y-109300000D01*
X122995238Y-109252380D01*
X122995238Y-109347619D01*
X123471428Y-109585714D02*
X123471428Y-110252380D01*
X123471428Y-109680952D02*
X123519047Y-109633333D01*
X123614285Y-109585714D01*
X123757142Y-109585714D01*
X123852380Y-109633333D01*
X123900000Y-109728571D01*
X123900000Y-110252380D01*
X124280952Y-109585714D02*
X124519047Y-110252380D01*
X124757142Y-109585714D02*
X124519047Y-110252380D01*
X124423809Y-110490476D01*
X124376190Y-110538095D01*
X124280952Y-110585714D01*
X125471428Y-109728571D02*
X125138095Y-109728571D01*
X125138095Y-110252380D02*
X125138095Y-109252380D01*
X125614285Y-109252380D01*
X125995238Y-110252380D02*
X125995238Y-109252380D01*
X126376190Y-109252380D01*
X126471428Y-109300000D01*
X126519047Y-109347619D01*
X126566666Y-109442857D01*
X126566666Y-109585714D01*
X126519047Y-109680952D01*
X126471428Y-109728571D01*
X126376190Y-109776190D01*
X125995238Y-109776190D01*
X127519047Y-109300000D02*
X127423809Y-109252380D01*
X127280952Y-109252380D01*
X127138095Y-109300000D01*
X127042857Y-109395238D01*
X126995238Y-109490476D01*
X126947619Y-109680952D01*
X126947619Y-109823809D01*
X126995238Y-110014285D01*
X127042857Y-110109523D01*
X127138095Y-110204761D01*
X127280952Y-110252380D01*
X127376190Y-110252380D01*
X127519047Y-110204761D01*
X127566666Y-110157142D01*
X127566666Y-109823809D01*
X127376190Y-109823809D01*
X127947619Y-109966666D02*
X128423809Y-109966666D01*
X127852380Y-110252380D02*
X128185714Y-109252380D01*
X128519047Y-110252380D01*
X128852380Y-109871428D02*
X129614285Y-109871428D01*
X130423809Y-109728571D02*
X130566666Y-109776190D01*
X130614285Y-109823809D01*
X130661904Y-109919047D01*
X130661904Y-110061904D01*
X130614285Y-110157142D01*
X130566666Y-110204761D01*
X130471428Y-110252380D01*
X130090476Y-110252380D01*
X130090476Y-109252380D01*
X130423809Y-109252380D01*
X130519047Y-109300000D01*
X130566666Y-109347619D01*
X130614285Y-109442857D01*
X130614285Y-109538095D01*
X130566666Y-109633333D01*
X130519047Y-109680952D01*
X130423809Y-109728571D01*
X130090476Y-109728571D01*
X130995238Y-109252380D02*
X131661904Y-110252380D01*
X131661904Y-109252380D02*
X130995238Y-110252380D01*
D12*
X138308000Y-129672000D02*
X138308000Y-129922000D01*
X141958000Y-129672000D02*
X138308000Y-129672000D01*
X141958000Y-133472000D02*
X138458000Y-133472000D01*
X140548000Y-115706000D02*
X140548000Y-118366000D01*
X140548000Y-115706000D02*
X107468000Y-115706000D01*
X107468000Y-115706000D02*
X107468000Y-118366000D01*
X140548000Y-118366000D02*
X107468000Y-118366000D01*
X143148000Y-118366000D02*
X141818000Y-118366000D01*
X143148000Y-117036000D02*
X143148000Y-118366000D01*
X143148000Y-101836000D02*
X143148000Y-103166000D01*
X143148000Y-103166000D02*
X141818000Y-103166000D01*
X140548000Y-103166000D02*
X107468000Y-103166000D01*
X107468000Y-100506000D02*
X107468000Y-103166000D01*
X140548000Y-100506000D02*
X107468000Y-100506000D01*
X140548000Y-100506000D02*
X140548000Y-103166000D01*
X103770800Y-116816200D02*
X101485800Y-116816200D01*
X103770800Y-118286200D02*
X103770800Y-116816200D01*
X101485800Y-118286200D02*
X103770800Y-118286200D01*
D13*
X144653000Y-117602000D02*
X149733000Y-117602000D01*
X144693000Y-133882000D02*
X149693000Y-133882000D01*
X144693000Y-116562000D02*
X144693000Y-133882000D01*
X149693000Y-116562000D02*
X144693000Y-116562000D01*
X149693000Y-133882000D02*
X149693000Y-116562000D01*
D12*
X133410000Y-130496000D02*
X133410000Y-131826000D01*
X132080000Y-130496000D02*
X133410000Y-130496000D01*
X130810000Y-130496000D02*
X130810000Y-133156000D01*
X130810000Y-133156000D02*
X112970000Y-133156000D01*
X130810000Y-130496000D02*
X112970000Y-130496000D01*
X112970000Y-130496000D02*
X112970000Y-133156000D01*
X109726000Y-131541733D02*
X109726000Y-131884267D01*
X110746000Y-131541733D02*
X110746000Y-131884267D01*
D14*
X100140000Y-118992000D02*
X100140000Y-133992000D01*
X108140000Y-118992000D02*
X100140000Y-118992000D01*
X108140000Y-133992000D02*
X108140000Y-118992000D01*
X100140000Y-133992000D02*
X108140000Y-133992000D01*
X108140000Y-130992000D02*
X107540000Y-130992000D01*
X104740000Y-130992000D02*
X103540000Y-130992000D01*
X100140000Y-130992000D02*
X100740000Y-130992000D01*
D12*
X117245000Y-125047000D02*
X117245000Y-121917000D01*
X120845000Y-124377000D02*
X120845000Y-121917000D01*
X124990000Y-123449000D02*
X124990000Y-126579000D01*
X121390000Y-124119000D02*
X121390000Y-126579000D01*
X134007000Y-123322000D02*
X134007000Y-126452000D01*
X130407000Y-123992000D02*
X130407000Y-126452000D01*
X135106000Y-125090000D02*
X135106000Y-121960000D01*
X138706000Y-124420000D02*
X138706000Y-121960000D01*
X126343000Y-125090000D02*
X126343000Y-121960000D01*
X129943000Y-124420000D02*
X129943000Y-121960000D01*
X143151000Y-123322000D02*
X143151000Y-126452000D01*
X139551000Y-123992000D02*
X139551000Y-126452000D01*
X102800678Y-114885400D02*
X102283522Y-114885400D01*
X102800678Y-116305400D02*
X102283522Y-116305400D01*
X109112000Y-127362000D02*
X111462000Y-127362000D01*
X115932000Y-127362000D02*
X113582000Y-127362000D01*
X115932000Y-121606437D02*
X115932000Y-127362000D01*
X109112000Y-121606437D02*
X109112000Y-127362000D01*
X110176437Y-120542000D02*
X111462000Y-120542000D01*
X114867563Y-120542000D02*
X113582000Y-120542000D01*
X114867563Y-120542000D02*
X115932000Y-121606437D01*
X110176437Y-120542000D02*
X109112000Y-121606437D01*
X114369500Y-119514500D02*
X114369500Y-120302000D01*
X114763250Y-119908250D02*
X113975750Y-119908250D01*
X102800678Y-112828000D02*
X102283522Y-112828000D01*
X102800678Y-114248000D02*
X102283522Y-114248000D01*
X105924000Y-106172000D02*
X105924000Y-100487000D01*
X105924000Y-100487000D02*
X100324000Y-100487000D01*
X100324000Y-110587000D02*
X100324000Y-100487000D01*
X101854000Y-110587000D02*
X100324000Y-110587000D01*
X103124000Y-109312000D02*
X103124000Y-107442000D01*
X103124000Y-107442000D02*
X104994000Y-107442000D01*
X105924000Y-108712000D02*
X105924000Y-110587000D01*
X105924000Y-110587000D02*
X104394000Y-110587000D01*
X152600000Y-109965000D02*
X152600000Y-106850000D01*
X152600000Y-106850000D02*
X147000000Y-106850000D01*
X147000000Y-114350000D02*
X147000000Y-106850000D01*
X148530000Y-114350000D02*
X147000000Y-114350000D01*
X149800000Y-113105000D02*
X149800000Y-111235000D01*
X149800000Y-111235000D02*
X151670000Y-111235000D01*
X152600000Y-112505000D02*
X152600000Y-114350000D01*
X152600000Y-114350000D02*
X151070000Y-114350000D01*
X145540000Y-105865000D02*
X151060000Y-105865000D01*
X143854000Y-101150000D02*
X145540000Y-101150000D01*
X145540000Y-100334000D02*
X145540000Y-101150000D01*
X145540000Y-100334000D02*
X151060000Y-100334000D01*
X151060000Y-100334000D02*
X151060000Y-101769000D01*
X145540000Y-104430000D02*
X145540000Y-105865000D01*
X151060000Y-104430000D02*
X151060000Y-105865000D01*
D14*
X141038342Y-127888942D02*
X140990723Y-127936561D01*
X140847866Y-127984180D01*
X140752628Y-127984180D01*
X140609771Y-127936561D01*
X140514533Y-127841323D01*
X140466914Y-127746085D01*
X140419295Y-127555609D01*
X140419295Y-127412752D01*
X140466914Y-127222276D01*
X140514533Y-127127038D01*
X140609771Y-127031800D01*
X140752628Y-126984180D01*
X140847866Y-126984180D01*
X140990723Y-127031800D01*
X141038342Y-127079419D01*
X141419295Y-127079419D02*
X141466914Y-127031800D01*
X141562152Y-126984180D01*
X141800247Y-126984180D01*
X141895485Y-127031800D01*
X141943104Y-127079419D01*
X141990723Y-127174657D01*
X141990723Y-127269895D01*
X141943104Y-127412752D01*
X141371676Y-127984180D01*
X141990723Y-127984180D01*
X142466914Y-127984180D02*
X142657390Y-127984180D01*
X142752628Y-127936561D01*
X142800247Y-127888942D01*
X142895485Y-127746085D01*
X142943104Y-127555609D01*
X142943104Y-127174657D01*
X142895485Y-127079419D01*
X142847866Y-127031800D01*
X142752628Y-126984180D01*
X142562152Y-126984180D01*
X142466914Y-127031800D01*
X142419295Y-127079419D01*
X142371676Y-127174657D01*
X142371676Y-127412752D01*
X142419295Y-127507990D01*
X142466914Y-127555609D01*
X142562152Y-127603228D01*
X142752628Y-127603228D01*
X142847866Y-127555609D01*
X142895485Y-127507990D01*
X142943104Y-127412752D01*
M02*
