G04 #@! TF.GenerationSoftware,KiCad,Pcbnew,5.1.5-52549c5~84~ubuntu18.04.1*
G04 #@! TF.CreationDate,2020-04-16T17:59:20+02:00*
G04 #@! TF.ProjectId,board,626f6172-642e-46b6-9963-61645f706362,rev?*
G04 #@! TF.SameCoordinates,Original*
G04 #@! TF.FileFunction,Copper,L2,Inr*
G04 #@! TF.FilePolarity,Positive*
%FSLAX46Y46*%
G04 Gerber Fmt 4.6, Leading zero omitted, Abs format (unit mm)*
G04 Created by KiCad (PCBNEW 5.1.5-52549c5~84~ubuntu18.04.1) date 2020-04-16 17:59:20*
%MOMM*%
%LPD*%
G04 APERTURE LIST*
%ADD10O,1.700000X1.700000*%
%ADD11R,1.700000X1.700000*%
%ADD12R,1.800000X1.800000*%
%ADD13C,1.800000*%
%ADD14C,0.310000*%
%ADD15C,0.400000*%
%ADD16C,0.254000*%
%ADD17C,0.800000*%
%ADD18C,0.300000*%
%ADD19C,0.152400*%
%ADD20C,0.254000*%
G04 APERTURE END LIST*
D10*
X156000000Y-119329200D03*
X156000000Y-121869200D03*
X156000000Y-124409200D03*
X156000000Y-126949200D03*
X156000000Y-129489200D03*
X156000000Y-132029200D03*
X156000000Y-134569200D03*
D11*
X156000000Y-137109200D03*
D12*
X113325000Y-101930000D03*
D13*
X112055000Y-104470000D03*
X110785000Y-101930000D03*
X109515000Y-104470000D03*
X96870000Y-103380000D03*
X98140000Y-105920000D03*
D12*
X103220000Y-105920000D03*
D13*
X101950000Y-103380000D03*
X100680000Y-105920000D03*
X99410000Y-103380000D03*
D14*
X128960000Y-112270000D03*
X128960000Y-110670000D03*
X130560000Y-111070000D03*
X129760000Y-111870000D03*
X128160000Y-112270000D03*
D15*
X129100000Y-127200000D03*
X128500000Y-127800000D03*
X124910000Y-127210000D03*
X126700000Y-127800000D03*
X129100000Y-129000000D03*
X129100000Y-127800000D03*
X128500000Y-127200000D03*
X124900000Y-129000000D03*
X126700000Y-128400000D03*
X126100000Y-127200000D03*
X126100000Y-129000000D03*
X124300000Y-127800000D03*
X126100000Y-128400000D03*
X126700000Y-127200000D03*
X123700000Y-127800000D03*
X126100000Y-127800000D03*
X127900000Y-127200000D03*
X124900000Y-127800000D03*
X127310000Y-127210000D03*
X124300000Y-128400000D03*
X127900000Y-129000000D03*
X127300000Y-127800000D03*
X123700000Y-128400000D03*
X125500000Y-129000000D03*
X125500000Y-127200000D03*
X123700000Y-127200000D03*
X124300000Y-129000000D03*
X127900000Y-127800000D03*
X127300000Y-129000000D03*
X125500000Y-128400000D03*
X128500000Y-128400000D03*
X128500000Y-129000000D03*
X123700000Y-129000000D03*
X124900000Y-128400000D03*
X129100000Y-128400000D03*
X127300000Y-128400000D03*
X127900000Y-128400000D03*
X125500000Y-127800000D03*
X126700000Y-129000000D03*
X124300000Y-127200000D03*
X141300000Y-102400000D03*
X141000000Y-120600000D03*
D14*
X117700000Y-124650000D03*
X123600000Y-123900000D03*
X127748000Y-121100000D03*
X130050000Y-118700000D03*
X133750000Y-106885000D03*
X111740000Y-106360000D03*
X115880000Y-106040000D03*
X125700000Y-106510000D03*
X136500000Y-118300000D03*
X133300000Y-118000000D03*
X104200000Y-109800000D03*
X134760000Y-115790000D03*
X130160000Y-110270000D03*
X126057511Y-114137511D03*
X130450000Y-115060000D03*
X128090000Y-108620000D03*
X129200000Y-117696400D03*
D16*
X150110013Y-119267519D03*
D14*
X129655000Y-108965000D03*
X128160000Y-110270000D03*
X147700000Y-100800000D03*
X129360000Y-112670000D03*
X126000000Y-125850000D03*
X130577003Y-118700000D03*
X143300000Y-124000000D03*
X131550000Y-126710000D03*
X146300000Y-123800000D03*
X133060000Y-126250000D03*
X137300000Y-124900000D03*
X146300000Y-130000000D03*
X142200000Y-129300000D03*
X138000000Y-124100000D03*
X136180000Y-122220000D03*
X142130025Y-135169975D03*
X136900000Y-121300000D03*
X143494805Y-135966469D03*
D15*
X126800000Y-136800000D03*
X128000000Y-136800000D03*
X124400000Y-137400000D03*
X128000000Y-136200000D03*
X126200000Y-136200000D03*
X125000000Y-136200000D03*
X124400000Y-136800000D03*
X128000000Y-137400000D03*
X128600000Y-137400000D03*
X126200000Y-136800000D03*
X125010000Y-135610000D03*
X128600000Y-136800000D03*
X124400000Y-136200000D03*
X127400000Y-136800000D03*
X125600000Y-135600000D03*
X126800000Y-137400000D03*
X125000000Y-136800000D03*
X129200000Y-135600000D03*
X126800000Y-135600000D03*
X126200000Y-137400000D03*
X123800000Y-137400000D03*
X128000000Y-135600000D03*
X128600000Y-135600000D03*
X123800000Y-135600000D03*
X128600000Y-136200000D03*
X126200000Y-135600000D03*
X127410000Y-135610000D03*
X127400000Y-136200000D03*
X129200000Y-136800000D03*
X123800000Y-136800000D03*
X125600000Y-137400000D03*
X125600000Y-136200000D03*
X123800000Y-136200000D03*
X125000000Y-137400000D03*
X127400000Y-137400000D03*
X125600000Y-136800000D03*
X124400000Y-135600000D03*
X126800000Y-136200000D03*
X129200000Y-137400000D03*
X129200000Y-136200000D03*
X128600000Y-138000000D03*
X124400000Y-138000000D03*
X126800000Y-138000000D03*
X125600000Y-138000000D03*
X123800000Y-138000000D03*
X126200000Y-138000000D03*
X128000000Y-138000000D03*
X125000000Y-138000000D03*
X129200000Y-138000000D03*
X127400000Y-138000000D03*
X126800000Y-134400000D03*
X128000000Y-134400000D03*
X124400000Y-135000000D03*
X128000000Y-133800000D03*
X126200000Y-133800000D03*
X125000000Y-133800000D03*
X124400000Y-134400000D03*
X128000000Y-135000000D03*
X128600000Y-135000000D03*
X126200000Y-134400000D03*
X125010000Y-133210000D03*
X128600000Y-134400000D03*
X124400000Y-133800000D03*
X127400000Y-134400000D03*
X125600000Y-133200000D03*
X126800000Y-135000000D03*
X125000000Y-134400000D03*
X129200000Y-133200000D03*
X126800000Y-133200000D03*
X126200000Y-135000000D03*
X123800000Y-135000000D03*
X128000000Y-133200000D03*
X128600000Y-133200000D03*
X123800000Y-133200000D03*
X128600000Y-133800000D03*
X126200000Y-133200000D03*
X127410000Y-133210000D03*
X127400000Y-133800000D03*
X129200000Y-134400000D03*
X123800000Y-134400000D03*
X125600000Y-135000000D03*
X125600000Y-133800000D03*
X123800000Y-133800000D03*
X125000000Y-135000000D03*
X127400000Y-135000000D03*
X125600000Y-134400000D03*
X124400000Y-133200000D03*
X126800000Y-133800000D03*
X129200000Y-135000000D03*
X129200000Y-133800000D03*
X146400000Y-127400000D03*
X144600000Y-127400000D03*
X144600000Y-128600000D03*
X144600000Y-128000000D03*
X146400000Y-129200000D03*
X145800000Y-129200000D03*
X145200000Y-126800000D03*
X145800000Y-126800000D03*
X145800000Y-128000000D03*
X145200000Y-129200000D03*
X145200000Y-127400000D03*
X144600000Y-126800000D03*
X145800000Y-127400000D03*
X145800000Y-128600000D03*
X145200000Y-128600000D03*
X145200000Y-128000000D03*
X146400000Y-126800000D03*
X146400000Y-128000000D03*
X144600000Y-129200000D03*
X146400000Y-128600000D03*
X146400000Y-133600000D03*
X144600000Y-133600000D03*
X144600000Y-134800000D03*
X144600000Y-134200000D03*
X145800000Y-135400000D03*
X145200000Y-133000000D03*
X145800000Y-133000000D03*
X145800000Y-134200000D03*
X145200000Y-135400000D03*
X145200000Y-133600000D03*
X144600000Y-133000000D03*
X145800000Y-133600000D03*
X145800000Y-134800000D03*
X145200000Y-134800000D03*
X145200000Y-134200000D03*
X146400000Y-133000000D03*
X146400000Y-134200000D03*
X144600000Y-135400000D03*
X146400000Y-134800000D03*
X144000000Y-128000000D03*
X144000000Y-129200000D03*
X144000000Y-126800000D03*
X144000000Y-128600000D03*
X144000000Y-127400000D03*
X144000000Y-121200000D03*
X144000000Y-122400000D03*
X144000000Y-121800000D03*
X144000000Y-120600000D03*
X144000000Y-123000000D03*
X144000000Y-134800000D03*
X144000000Y-133600000D03*
X144000000Y-135400000D03*
X144000000Y-133000000D03*
X144000000Y-134200000D03*
X146400000Y-121200000D03*
X146400000Y-121800000D03*
X146400000Y-122400000D03*
X146400000Y-123000000D03*
X145800000Y-123000000D03*
X145800000Y-122400000D03*
X145800000Y-121800000D03*
X145800000Y-121200000D03*
X145800000Y-120600000D03*
X145200000Y-120600000D03*
X145200000Y-121200000D03*
X145200000Y-121800000D03*
X145200000Y-122400000D03*
X145200000Y-123000000D03*
X144600000Y-123000000D03*
X144600000Y-120600000D03*
X144600000Y-121800000D03*
X144600000Y-121200000D03*
X144600000Y-122400000D03*
D17*
X100300000Y-135500000D03*
X101200000Y-135500000D03*
X102100000Y-135500000D03*
X103000000Y-135500000D03*
X100800000Y-136300000D03*
X101700000Y-136300000D03*
X102600000Y-136300000D03*
X103500000Y-136300000D03*
X100400000Y-137100000D03*
X101300000Y-137100000D03*
X102200000Y-137100000D03*
X103100000Y-137100000D03*
X100800000Y-137900000D03*
X101700000Y-137900000D03*
X102600000Y-137900000D03*
X103500000Y-137900000D03*
D15*
X146400000Y-120600000D03*
D14*
X133860000Y-102690000D03*
X135200000Y-108500000D03*
X134200000Y-110900000D03*
X135200000Y-112400000D03*
X140700000Y-105400000D03*
X134300000Y-125167399D03*
X132900000Y-128360000D03*
X128290000Y-125350000D03*
X145000000Y-116500000D03*
X126800000Y-117500000D03*
X137812500Y-101400000D03*
X135200000Y-101400000D03*
X107800000Y-117850000D03*
X113700000Y-110800000D03*
X124510000Y-115040000D03*
X121370000Y-117590000D03*
X140680000Y-108090000D03*
X132720000Y-105960000D03*
X129550000Y-111270000D03*
X124740000Y-110340000D03*
X93610000Y-128920000D03*
X120320000Y-113980000D03*
X116000000Y-119050000D03*
X126050000Y-108610000D03*
X126360000Y-110690000D03*
X131610000Y-112370000D03*
X130560000Y-112270000D03*
X133330000Y-113390000D03*
D15*
X107200000Y-118800000D03*
X107200000Y-120975000D03*
X144200000Y-114800000D03*
X140500000Y-114600000D03*
X135800000Y-104400000D03*
X151600000Y-103300000D03*
X122960000Y-107250000D03*
X106180000Y-124020000D03*
X146500000Y-102700000D03*
X144316448Y-113113552D03*
X144400000Y-110600000D03*
D16*
X107590000Y-116630000D03*
D15*
X149100000Y-124700000D03*
X149700000Y-125900000D03*
X149700000Y-124700000D03*
X149100000Y-125900000D03*
X149100000Y-125300000D03*
X149700000Y-125300000D03*
X150300000Y-125300000D03*
X150300000Y-125900000D03*
X150300000Y-124700000D03*
X151000000Y-124700000D03*
X151600000Y-125900000D03*
X151600000Y-124700000D03*
X151000000Y-125900000D03*
X151000000Y-125300000D03*
X151600000Y-125300000D03*
X152200000Y-125300000D03*
X152200000Y-125900000D03*
X152200000Y-124700000D03*
X151600000Y-122900000D03*
X152200000Y-124100000D03*
X152200000Y-122900000D03*
X151600000Y-124100000D03*
X151600000Y-123500000D03*
X152200000Y-123500000D03*
X152800000Y-123500000D03*
X152800000Y-124100000D03*
X152800000Y-122900000D03*
X152200000Y-126500000D03*
X152800000Y-127700000D03*
X152800000Y-126500000D03*
X152200000Y-127700000D03*
X152200000Y-127100000D03*
X152800000Y-127100000D03*
X153400000Y-127100000D03*
X153400000Y-127700000D03*
X153400000Y-126500000D03*
X152800000Y-124700000D03*
X153400000Y-125900000D03*
X153400000Y-124700000D03*
X152800000Y-125900000D03*
X152800000Y-125300000D03*
X153400000Y-125300000D03*
X154000000Y-125300000D03*
X154000000Y-125900000D03*
X154000000Y-124700000D03*
X151600000Y-121100000D03*
X152200000Y-121700000D03*
X152200000Y-122300000D03*
X152200000Y-121100000D03*
X151600000Y-122300000D03*
X152800000Y-122300000D03*
X152800000Y-121100000D03*
X151600000Y-121700000D03*
X152800000Y-121700000D03*
X153400000Y-122900000D03*
X154000000Y-124100000D03*
X153400000Y-124100000D03*
X153400000Y-123500000D03*
X153400000Y-121100000D03*
X153400000Y-122300000D03*
X153400000Y-121700000D03*
X154000000Y-126500000D03*
X154000000Y-127700000D03*
X154000000Y-127100000D03*
X151600000Y-126500000D03*
X152800000Y-128300000D03*
X153400000Y-128300000D03*
X154000000Y-128300000D03*
X152800000Y-128900000D03*
X153400000Y-128900000D03*
X154000000Y-128900000D03*
X154000000Y-129500000D03*
X153400000Y-129500000D03*
X154000000Y-130100000D03*
X153400000Y-130100000D03*
X154000000Y-130700000D03*
X154000000Y-131300000D03*
X144310000Y-124710000D03*
X144900000Y-125900000D03*
X144900000Y-125300000D03*
X145500000Y-124700000D03*
X144300000Y-125900000D03*
X144300000Y-125300000D03*
X145500000Y-125900000D03*
X146100000Y-124700000D03*
X144900000Y-124700000D03*
X146100000Y-125900000D03*
X145500000Y-125300000D03*
X146100000Y-125300000D03*
X146710000Y-124710000D03*
X147300000Y-125900000D03*
X147300000Y-125300000D03*
X147900000Y-124700000D03*
X146700000Y-125900000D03*
X146700000Y-125300000D03*
X147900000Y-125900000D03*
X148500000Y-124700000D03*
X147300000Y-124700000D03*
X148500000Y-125900000D03*
X147900000Y-125300000D03*
X148500000Y-125300000D03*
D14*
X132070000Y-126100000D03*
X143110000Y-126060000D03*
D15*
X149600000Y-132000000D03*
X150200000Y-130800000D03*
X149600000Y-130800000D03*
X150200000Y-132000000D03*
X149600000Y-131400000D03*
X150200000Y-131400000D03*
X152600000Y-132000000D03*
X152600000Y-131400000D03*
X152000000Y-132000000D03*
X152000000Y-131400000D03*
X152600000Y-130800000D03*
X152000000Y-130800000D03*
X150800000Y-132000000D03*
X151400000Y-130800000D03*
X150800000Y-130800000D03*
X151400000Y-132000000D03*
X150800000Y-131400000D03*
X151400000Y-131400000D03*
X152000000Y-130200000D03*
X152000000Y-129600000D03*
X151400000Y-129000000D03*
X151400000Y-129600000D03*
X151400000Y-130200000D03*
X152600000Y-133200000D03*
X153200000Y-133200000D03*
X152600000Y-132600000D03*
X153200000Y-132600000D03*
X153200000Y-132000000D03*
X152000000Y-132600000D03*
X153800000Y-134400000D03*
X153200000Y-134400000D03*
X153800000Y-133800000D03*
X153200000Y-133800000D03*
X153800000Y-133200000D03*
X143600000Y-132000000D03*
X143600000Y-131400000D03*
X148400000Y-130800000D03*
X148400000Y-132000000D03*
X149000000Y-130800000D03*
X143600000Y-130800000D03*
X149000000Y-132000000D03*
X148400000Y-131400000D03*
X149000000Y-131400000D03*
X143100000Y-131400000D03*
X143100000Y-132000000D03*
D14*
X135548036Y-123532076D03*
D15*
X143110000Y-130810000D03*
X149100000Y-137900000D03*
X150300000Y-137900000D03*
X149100000Y-138500000D03*
X148500000Y-137300000D03*
X149700000Y-138500000D03*
X149700000Y-137300000D03*
X150900000Y-137300000D03*
X151500000Y-138500000D03*
X149100000Y-136700000D03*
X149710000Y-136710000D03*
X151500000Y-137300000D03*
X148500000Y-138500000D03*
X149700000Y-137900000D03*
X148500000Y-137900000D03*
X150300000Y-138500000D03*
X151500000Y-137900000D03*
X150900000Y-136700000D03*
X150900000Y-137900000D03*
X151500000Y-136700000D03*
X150900000Y-138500000D03*
X149100000Y-137300000D03*
X150300000Y-136700000D03*
X148500000Y-136700000D03*
X150300000Y-137300000D03*
X152110000Y-136710000D03*
X153900000Y-137300000D03*
X152100000Y-138500000D03*
X153900000Y-137900000D03*
X153300000Y-136700000D03*
X153300000Y-138500000D03*
X153300000Y-137900000D03*
X153900000Y-136700000D03*
X153300000Y-137300000D03*
X152100000Y-137300000D03*
X152700000Y-138500000D03*
X152700000Y-136700000D03*
X152700000Y-137900000D03*
X152100000Y-137900000D03*
X152700000Y-137300000D03*
X153900000Y-138500000D03*
X153300000Y-136100000D03*
X151500000Y-136100000D03*
X151500000Y-135500000D03*
X152700000Y-135500000D03*
X152110000Y-135510000D03*
X152100000Y-136100000D03*
X152700000Y-136100000D03*
X151500000Y-134900000D03*
X152110000Y-134910000D03*
X151500000Y-134300000D03*
X143610000Y-136710000D03*
X144200000Y-137900000D03*
X144200000Y-137300000D03*
X144800000Y-136700000D03*
X143600000Y-137900000D03*
X143600000Y-137300000D03*
X144800000Y-137900000D03*
X145400000Y-136700000D03*
X144200000Y-136700000D03*
X145400000Y-137900000D03*
X144800000Y-137300000D03*
X145400000Y-137300000D03*
X143600000Y-138500000D03*
X145400000Y-138500000D03*
X144800000Y-138500000D03*
X144200000Y-138500000D03*
X146000000Y-137900000D03*
X147800000Y-137900000D03*
X147800000Y-138500000D03*
X147200000Y-137300000D03*
X147800000Y-136700000D03*
X146600000Y-136700000D03*
X146010000Y-136710000D03*
X147200000Y-138500000D03*
X146000000Y-137300000D03*
X147200000Y-137900000D03*
X146000000Y-138500000D03*
X146600000Y-138500000D03*
X146600000Y-137300000D03*
X147800000Y-137300000D03*
X147200000Y-136700000D03*
X146600000Y-137900000D03*
D14*
X135500000Y-121608700D03*
X104940000Y-106980000D03*
X105300000Y-106350000D03*
X105500000Y-105660000D03*
X104390000Y-107420000D03*
X103690000Y-107560000D03*
X102950000Y-107640000D03*
X102270000Y-107670000D03*
X106350000Y-106350000D03*
X106350000Y-105850000D03*
X106350000Y-105350000D03*
X106350000Y-104850000D03*
X106350000Y-104350000D03*
X106350000Y-103850000D03*
X106350000Y-103350000D03*
X106350000Y-102850000D03*
X106350000Y-102100000D03*
X106350000Y-101600000D03*
X106350000Y-101100000D03*
X105830000Y-100870000D03*
X105330000Y-100870000D03*
X104830000Y-100870000D03*
X104330000Y-100870000D03*
X103830000Y-100870000D03*
X103330000Y-100870000D03*
X102830000Y-100870000D03*
X102330000Y-100870000D03*
X101830000Y-100870000D03*
X101330000Y-100870000D03*
X100830000Y-100870000D03*
X100330000Y-100870000D03*
X99580000Y-100870000D03*
X99080000Y-100870000D03*
X98580000Y-100870000D03*
X98080000Y-100870000D03*
X97580000Y-100870000D03*
X97080000Y-100870000D03*
X96580000Y-100870000D03*
X96080000Y-100870000D03*
X95580000Y-100870000D03*
X95080000Y-100870000D03*
X94580000Y-100870000D03*
X94080000Y-100870000D03*
X93850000Y-101350000D03*
X93850000Y-101850000D03*
X93850000Y-102350000D03*
X93850000Y-102850000D03*
X93850000Y-103350000D03*
X93850000Y-103850000D03*
X93850000Y-104350000D03*
X93850000Y-104850000D03*
X93850000Y-105350000D03*
X93850000Y-105850000D03*
X93850000Y-106350000D03*
X93850000Y-106850000D03*
X93850000Y-107350000D03*
X93850000Y-107850000D03*
X93850000Y-108350000D03*
X93850000Y-108850000D03*
X93850000Y-109350000D03*
X93850000Y-109850000D03*
X93850000Y-110350000D03*
X93850000Y-110850000D03*
X93850000Y-111350000D03*
X93850000Y-111850000D03*
X93850000Y-112350000D03*
X93850000Y-112850000D03*
X93850000Y-113600000D03*
X93850000Y-114100000D03*
X94370000Y-114330000D03*
X94870000Y-114330000D03*
X95370000Y-114330000D03*
X95870000Y-114330000D03*
X96370000Y-114330000D03*
X96870000Y-114330000D03*
X97370000Y-114330000D03*
X97870000Y-114330000D03*
X98370000Y-114330000D03*
X98870000Y-114330000D03*
X99370000Y-114330000D03*
X99870000Y-114330000D03*
X100370000Y-114330000D03*
X100870000Y-114330000D03*
X101370000Y-114330000D03*
X101870000Y-114330000D03*
X102370000Y-114330000D03*
X102870000Y-114330000D03*
X103370000Y-114330000D03*
X103870000Y-114330000D03*
X104370000Y-114330000D03*
X104870000Y-114330000D03*
X105370000Y-114330000D03*
X105870000Y-114330000D03*
X106350000Y-114330000D03*
X106350000Y-113850000D03*
X106350000Y-113350000D03*
X106350000Y-112850000D03*
X106300000Y-112400000D03*
X106300000Y-111900000D03*
X106300000Y-111400000D03*
X145785000Y-112600000D03*
X142817600Y-112590000D03*
X142762409Y-113295191D03*
X146915000Y-113600000D03*
X105820000Y-121420000D03*
X107910000Y-121529400D03*
X146915000Y-111500000D03*
X144500000Y-109300000D03*
X109370000Y-125170000D03*
X130560000Y-111470000D03*
X115450000Y-121670000D03*
X138270000Y-115830000D03*
X110245000Y-120325000D03*
X137660000Y-115820000D03*
X123200000Y-120750000D03*
X131103901Y-118710475D03*
X101500000Y-111900000D03*
X109900000Y-113900000D03*
X114110000Y-112540000D03*
X126300000Y-113500000D03*
X113250000Y-112100000D03*
X124840000Y-112340000D03*
D17*
X100800000Y-133200000D03*
X101700000Y-133200000D03*
X102600000Y-133200000D03*
X103500000Y-133200000D03*
X100400000Y-130800000D03*
X101300000Y-130800000D03*
X102200000Y-130800000D03*
X103100000Y-130800000D03*
X100800000Y-131600000D03*
X101700000Y-131600000D03*
X102600000Y-131600000D03*
X103500000Y-131600000D03*
X100400000Y-132400000D03*
X101300000Y-132400000D03*
X102200000Y-132400000D03*
X103100000Y-132400000D03*
X100400000Y-134000000D03*
X101300000Y-134000000D03*
X102200000Y-134000000D03*
X103100000Y-134000000D03*
D14*
X131450000Y-108470000D03*
X98330000Y-112240000D03*
X104690000Y-119340000D03*
X107830000Y-119540000D03*
X128160000Y-112670000D03*
X126743959Y-113953959D03*
X128560000Y-112670000D03*
X127458552Y-114268552D03*
X128960000Y-112670000D03*
X128260000Y-114540000D03*
X126900000Y-105600000D03*
X131000000Y-104800000D03*
X125400000Y-110000000D03*
X132300000Y-110400000D03*
X118880000Y-108800000D03*
X130170000Y-114630000D03*
X120070000Y-109170000D03*
X129760000Y-112670000D03*
X120670000Y-108810000D03*
X129760000Y-114310000D03*
X118650000Y-115810000D03*
X129760000Y-110270000D03*
X127300000Y-109000000D03*
X116400000Y-108930000D03*
X128960000Y-110270000D03*
X127810000Y-105680000D03*
X97770000Y-112270000D03*
X130560000Y-110270000D03*
X130940000Y-108880000D03*
X99220000Y-112444400D03*
X113400000Y-125500000D03*
X124330000Y-112080000D03*
X112600000Y-125500000D03*
X123560000Y-112060000D03*
X111800000Y-125500000D03*
X128160000Y-111870000D03*
X120530000Y-110710000D03*
X117950000Y-110400000D03*
X128160000Y-110670000D03*
X126810000Y-109340000D03*
X129360000Y-110270000D03*
X123230000Y-110940000D03*
X123000000Y-113001600D03*
X128560000Y-110270000D03*
X128160000Y-111070000D03*
X125470000Y-108644400D03*
X130560000Y-112670000D03*
X131900000Y-112925599D03*
X150300000Y-100800000D03*
X130160000Y-112670000D03*
X130910000Y-113650000D03*
X130900000Y-117600000D03*
D18*
X141000000Y-111780000D02*
X141300000Y-111480000D01*
X141000000Y-120600000D02*
X141000000Y-111780000D01*
X141300000Y-102400000D02*
X141300000Y-111480000D01*
D19*
X118450000Y-123900000D02*
X118050000Y-124300000D01*
X123600000Y-123900000D02*
X118450000Y-123900000D01*
X118050000Y-124300000D02*
X117700000Y-124650000D01*
X124192000Y-123308000D02*
X123600000Y-123900000D01*
X126400000Y-121100000D02*
X124192000Y-123308000D01*
X127748000Y-121100000D02*
X126400000Y-121100000D01*
X127762842Y-121100000D02*
X127748000Y-121100000D01*
X127748000Y-121002000D02*
X127748000Y-121100000D01*
X130050000Y-118700000D02*
X127748000Y-121002000D01*
X157350000Y-121390000D02*
X157350000Y-128139200D01*
X157350000Y-128139200D02*
X156000000Y-129489200D01*
X156580000Y-120620000D02*
X157350000Y-121390000D01*
X155300000Y-120620000D02*
X156580000Y-120620000D01*
X150110013Y-119267519D02*
X153947519Y-119267519D01*
X153947519Y-119267519D02*
X155300000Y-120620000D01*
X126902400Y-125850000D02*
X126000000Y-125850000D01*
X130577003Y-118700000D02*
X130577003Y-122175397D01*
X130577003Y-122175397D02*
X126902400Y-125850000D01*
X141691301Y-125608699D02*
X143300000Y-124000000D01*
X131908175Y-125608699D02*
X141691301Y-125608699D01*
X131550000Y-126710000D02*
X131550000Y-125966874D01*
X131550000Y-125966874D02*
X131908175Y-125608699D01*
X133060000Y-126250000D02*
X142000000Y-126250000D01*
X144450000Y-123800000D02*
X146300000Y-123800000D01*
X142000000Y-126250000D02*
X144450000Y-123800000D01*
X142200000Y-129190000D02*
X142200000Y-129300000D01*
X132070000Y-126100000D02*
X132070000Y-126382842D01*
X132070000Y-126382842D02*
X132540359Y-126853201D01*
X142316799Y-126853201D02*
X143110000Y-126060000D01*
X141976799Y-126853201D02*
X142316799Y-126853201D01*
X132540359Y-126853201D02*
X141976799Y-126853201D01*
X109890000Y-125170000D02*
X109370000Y-125170000D01*
X111230000Y-123840000D02*
X109890000Y-125170000D01*
X111230000Y-119840000D02*
X111230000Y-123840000D01*
X113620000Y-117450000D02*
X111230000Y-119840000D01*
X113630000Y-117440000D02*
X113620000Y-117450000D01*
X130560000Y-111611421D02*
X130560000Y-111470000D01*
X129901421Y-112270000D02*
X130560000Y-111611421D01*
X129650000Y-112270000D02*
X129901421Y-112270000D01*
X128090000Y-111470000D02*
X128850000Y-111470000D01*
X128850000Y-111470000D02*
X129650000Y-112270000D01*
X128011201Y-111548799D02*
X128090000Y-111470000D01*
X128005823Y-111548799D02*
X128011201Y-111548799D01*
X115720000Y-115350000D02*
X119000000Y-115350000D01*
X119560000Y-115910000D02*
X126300000Y-115910000D01*
X113620000Y-117450000D02*
X115720000Y-115350000D01*
X127137351Y-115072649D02*
X127137351Y-112417271D01*
X119000000Y-115350000D02*
X119560000Y-115910000D01*
X127137351Y-112417271D02*
X128005823Y-111548799D01*
X126300000Y-115910000D02*
X127137351Y-115072649D01*
X124430000Y-120422400D02*
X124102400Y-120750000D01*
X124857600Y-120422400D02*
X124430000Y-120422400D01*
X131103901Y-118710475D02*
X131103901Y-118427633D01*
X131103901Y-118427633D02*
X130866268Y-118190000D01*
X130866268Y-118190000D02*
X128530000Y-118190000D01*
X128530000Y-118190000D02*
X128385601Y-118334399D01*
X128385601Y-118334399D02*
X126945601Y-118334399D01*
X124102400Y-120750000D02*
X123200000Y-120750000D01*
X126945601Y-118334399D02*
X124857600Y-120422400D01*
X114110000Y-113010000D02*
X114110000Y-112540000D01*
X126300000Y-113500000D02*
X114600000Y-113500000D01*
X114600000Y-113500000D02*
X114110000Y-113010000D01*
X124480000Y-112700000D02*
X124840000Y-112340000D01*
X123490000Y-112700000D02*
X124480000Y-112700000D01*
X122866815Y-112076815D02*
X123490000Y-112700000D01*
X113226815Y-112076815D02*
X113250000Y-112100000D01*
X113226815Y-112076815D02*
X122866815Y-112076815D01*
X129760000Y-110520000D02*
X129760000Y-110270000D01*
X129920000Y-110680000D02*
X129760000Y-110520000D01*
X119120000Y-116280000D02*
X129705378Y-116280000D01*
X118650000Y-115810000D02*
X119120000Y-116280000D01*
X129705378Y-116280000D02*
X132300000Y-113685378D01*
X132300000Y-113685378D02*
X132300000Y-112020000D01*
X132300000Y-112020000D02*
X130960000Y-110680000D01*
X130960000Y-110680000D02*
X129920000Y-110680000D01*
X116831601Y-108498399D02*
X116400000Y-108930000D01*
X126798399Y-108498399D02*
X126880000Y-108580000D01*
X126880000Y-108580000D02*
X127300000Y-109000000D01*
X126440000Y-108140000D02*
X126700000Y-108400000D01*
X126700000Y-108400000D02*
X126880000Y-108580000D01*
X117190000Y-108140000D02*
X126440000Y-108140000D01*
X116400000Y-108930000D02*
X117190000Y-108140000D01*
X128878831Y-106748831D02*
X127810000Y-105680000D01*
X128960000Y-110270000D02*
X128960000Y-106830000D01*
X128960000Y-106830000D02*
X128878831Y-106748831D01*
X118232842Y-110400000D02*
X117950000Y-110400000D01*
X119937158Y-110400000D02*
X119714330Y-110400000D01*
X120247158Y-110710000D02*
X119937158Y-110400000D01*
X120530000Y-110710000D02*
X120247158Y-110710000D01*
X119714330Y-110400000D02*
X118232842Y-110400000D01*
X121454063Y-109179299D02*
X126435954Y-109179299D01*
X120233362Y-110400000D02*
X121454063Y-109179299D01*
X119714330Y-110400000D02*
X120233362Y-110400000D01*
X126435954Y-109179299D02*
X126649299Y-109179299D01*
X126649299Y-109179299D02*
X126810000Y-109340000D01*
X123038400Y-113040000D02*
X123000000Y-113001600D01*
X123282842Y-113001600D02*
X123000000Y-113001600D01*
X123286052Y-113004810D02*
X123282842Y-113001600D01*
X124684978Y-113000000D02*
X124640000Y-113000000D01*
X124640000Y-113000000D02*
X123286052Y-113004810D01*
X128560000Y-110270000D02*
X128560000Y-110165022D01*
X128560000Y-110165022D02*
X128014978Y-109620000D01*
X127390000Y-109620000D02*
X127010000Y-110000000D01*
X128014978Y-109620000D02*
X127390000Y-109620000D01*
X127010000Y-110000000D02*
X127010000Y-110674978D01*
X127010000Y-110674978D02*
X124684978Y-113000000D01*
X131900000Y-112925599D02*
X130977936Y-112925599D01*
X130815599Y-112925599D02*
X131900000Y-112925599D01*
X130560000Y-112670000D02*
X130815599Y-112925599D01*
D20*
G36*
X141329175Y-125253099D02*
G01*
X137553450Y-125253099D01*
X137576914Y-125237421D01*
X137637421Y-125176914D01*
X137684960Y-125105766D01*
X137717706Y-125026710D01*
X137734400Y-124942785D01*
X137734400Y-124857215D01*
X137717706Y-124773290D01*
X137684960Y-124694234D01*
X137637421Y-124623086D01*
X137576914Y-124562579D01*
X137505766Y-124515040D01*
X137426710Y-124482294D01*
X137342785Y-124465600D01*
X137257215Y-124465600D01*
X137173290Y-124482294D01*
X137094234Y-124515040D01*
X137023086Y-124562579D01*
X136962579Y-124623086D01*
X136915040Y-124694234D01*
X136882294Y-124773290D01*
X136865600Y-124857215D01*
X136865600Y-124942785D01*
X136882294Y-125026710D01*
X136915040Y-125105766D01*
X136962579Y-125176914D01*
X137023086Y-125237421D01*
X137046550Y-125253099D01*
X134723416Y-125253099D01*
X134732000Y-125209947D01*
X134732000Y-125124851D01*
X134715398Y-125041389D01*
X134682833Y-124962770D01*
X134635556Y-124892015D01*
X134575384Y-124831843D01*
X134504629Y-124784566D01*
X134426010Y-124752001D01*
X134342548Y-124735399D01*
X134257452Y-124735399D01*
X134173990Y-124752001D01*
X134095371Y-124784566D01*
X134024616Y-124831843D01*
X133964444Y-124892015D01*
X133917167Y-124962770D01*
X133884602Y-125041389D01*
X133868000Y-125124851D01*
X133868000Y-125209947D01*
X133876584Y-125253099D01*
X131925630Y-125253099D01*
X131908175Y-125251380D01*
X131890719Y-125253099D01*
X131890712Y-125253099D01*
X131844741Y-125257627D01*
X131838464Y-125258245D01*
X131818131Y-125264413D01*
X131771435Y-125278578D01*
X131709659Y-125311598D01*
X131655512Y-125356036D01*
X131644380Y-125369600D01*
X131310901Y-125703080D01*
X131297338Y-125714211D01*
X131252900Y-125768358D01*
X131245608Y-125782000D01*
X131219880Y-125830133D01*
X131199546Y-125897164D01*
X131192681Y-125966874D01*
X131194401Y-125984339D01*
X131194400Y-126460293D01*
X131165040Y-126504234D01*
X131132294Y-126583290D01*
X131115600Y-126667215D01*
X131115600Y-126752785D01*
X131132294Y-126836710D01*
X131165040Y-126915766D01*
X131212579Y-126986914D01*
X131273086Y-127047421D01*
X131344234Y-127094960D01*
X131423290Y-127127706D01*
X131507215Y-127144400D01*
X131592785Y-127144400D01*
X131676710Y-127127706D01*
X131755766Y-127094960D01*
X131826914Y-127047421D01*
X131887421Y-126986914D01*
X131934960Y-126915766D01*
X131967706Y-126836710D01*
X131977107Y-126789448D01*
X132278345Y-127090687D01*
X132289401Y-127104159D01*
X132302872Y-127115214D01*
X132343182Y-127148296D01*
X132375979Y-127165826D01*
X132404542Y-127181093D01*
X132471120Y-127201290D01*
X132523016Y-127206401D01*
X132523018Y-127206401D01*
X132540358Y-127208109D01*
X132557698Y-127206401D01*
X141350066Y-127206401D01*
X141471634Y-138573000D01*
X137427000Y-138573000D01*
X137427000Y-130800000D01*
X137424560Y-130775224D01*
X137417333Y-130751399D01*
X137405597Y-130729443D01*
X137389803Y-130710197D01*
X137370557Y-130694403D01*
X137348601Y-130682667D01*
X137324776Y-130675440D01*
X137300000Y-130673000D01*
X123400000Y-130673000D01*
X123375224Y-130675440D01*
X123351399Y-130682667D01*
X123329443Y-130694403D01*
X123317165Y-130703733D01*
X119052882Y-134373000D01*
X112927000Y-134373000D01*
X112927000Y-130345028D01*
X117847725Y-128317452D01*
X132468000Y-128317452D01*
X132468000Y-128402548D01*
X132484602Y-128486010D01*
X132517167Y-128564629D01*
X132564444Y-128635384D01*
X132624616Y-128695556D01*
X132695371Y-128742833D01*
X132773990Y-128775398D01*
X132857452Y-128792000D01*
X132942548Y-128792000D01*
X133026010Y-128775398D01*
X133104629Y-128742833D01*
X133175384Y-128695556D01*
X133235556Y-128635384D01*
X133282833Y-128564629D01*
X133315398Y-128486010D01*
X133332000Y-128402548D01*
X133332000Y-128317452D01*
X133315398Y-128233990D01*
X133282833Y-128155371D01*
X133235556Y-128084616D01*
X133175384Y-128024444D01*
X133104629Y-127977167D01*
X133026010Y-127944602D01*
X132942548Y-127928000D01*
X132857452Y-127928000D01*
X132773990Y-127944602D01*
X132695371Y-127977167D01*
X132624616Y-128024444D01*
X132564444Y-128084616D01*
X132517167Y-128155371D01*
X132484602Y-128233990D01*
X132468000Y-128317452D01*
X117847725Y-128317452D01*
X128201844Y-124051056D01*
X126756101Y-125496800D01*
X126248978Y-125496800D01*
X126204629Y-125467167D01*
X126126010Y-125434602D01*
X126042548Y-125418000D01*
X125957452Y-125418000D01*
X125873990Y-125434602D01*
X125795371Y-125467167D01*
X125724616Y-125514444D01*
X125664444Y-125574616D01*
X125617167Y-125645371D01*
X125584602Y-125723990D01*
X125568000Y-125807452D01*
X125568000Y-125892548D01*
X125584602Y-125976010D01*
X125617167Y-126054629D01*
X125664444Y-126125384D01*
X125724616Y-126185556D01*
X125795371Y-126232833D01*
X125873990Y-126265398D01*
X125957452Y-126282000D01*
X126042548Y-126282000D01*
X126126010Y-126265398D01*
X126204629Y-126232833D01*
X126248978Y-126203200D01*
X126885060Y-126203200D01*
X126902400Y-126204908D01*
X126919740Y-126203200D01*
X126919743Y-126203200D01*
X126971639Y-126198089D01*
X127038217Y-126177892D01*
X127099576Y-126145095D01*
X127153358Y-126100958D01*
X127164419Y-126087481D01*
X127858224Y-125393675D01*
X127874602Y-125476010D01*
X127907167Y-125554629D01*
X127954444Y-125625384D01*
X128014616Y-125685556D01*
X128085371Y-125732833D01*
X128163990Y-125765398D01*
X128247452Y-125782000D01*
X128332548Y-125782000D01*
X128416010Y-125765398D01*
X128494629Y-125732833D01*
X128565384Y-125685556D01*
X128625556Y-125625384D01*
X128672833Y-125554629D01*
X128705398Y-125476010D01*
X128722000Y-125392548D01*
X128722000Y-125307452D01*
X128705398Y-125223990D01*
X128672833Y-125145371D01*
X128625556Y-125074616D01*
X128565384Y-125014444D01*
X128494629Y-124967167D01*
X128416010Y-124934602D01*
X128333675Y-124918224D01*
X129194684Y-124057215D01*
X137565600Y-124057215D01*
X137565600Y-124142785D01*
X137582294Y-124226710D01*
X137615040Y-124305766D01*
X137662579Y-124376914D01*
X137723086Y-124437421D01*
X137794234Y-124484960D01*
X137873290Y-124517706D01*
X137957215Y-124534400D01*
X138042785Y-124534400D01*
X138126710Y-124517706D01*
X138205766Y-124484960D01*
X138276914Y-124437421D01*
X138337421Y-124376914D01*
X138384960Y-124305766D01*
X138417706Y-124226710D01*
X138434400Y-124142785D01*
X138434400Y-124057215D01*
X138417706Y-123973290D01*
X138384960Y-123894234D01*
X138337421Y-123823086D01*
X138276914Y-123762579D01*
X138205766Y-123715040D01*
X138126710Y-123682294D01*
X138042785Y-123665600D01*
X137957215Y-123665600D01*
X137873290Y-123682294D01*
X137794234Y-123715040D01*
X137723086Y-123762579D01*
X137662579Y-123823086D01*
X137615040Y-123894234D01*
X137582294Y-123973290D01*
X137565600Y-124057215D01*
X129194684Y-124057215D01*
X129762372Y-123489528D01*
X135116036Y-123489528D01*
X135116036Y-123574624D01*
X135132638Y-123658086D01*
X135165203Y-123736705D01*
X135212480Y-123807460D01*
X135272652Y-123867632D01*
X135343407Y-123914909D01*
X135422026Y-123947474D01*
X135505488Y-123964076D01*
X135590584Y-123964076D01*
X135674046Y-123947474D01*
X135752665Y-123914909D01*
X135823420Y-123867632D01*
X135883592Y-123807460D01*
X135930869Y-123736705D01*
X135963434Y-123658086D01*
X135980036Y-123574624D01*
X135980036Y-123489528D01*
X135963434Y-123406066D01*
X135930869Y-123327447D01*
X135883592Y-123256692D01*
X135823420Y-123196520D01*
X135752665Y-123149243D01*
X135674046Y-123116678D01*
X135590584Y-123100076D01*
X135505488Y-123100076D01*
X135422026Y-123116678D01*
X135343407Y-123149243D01*
X135272652Y-123196520D01*
X135212480Y-123256692D01*
X135165203Y-123327447D01*
X135132638Y-123406066D01*
X135116036Y-123489528D01*
X129762372Y-123489528D01*
X129900963Y-123350938D01*
X132749471Y-122177215D01*
X135745600Y-122177215D01*
X135745600Y-122262785D01*
X135762294Y-122346710D01*
X135795040Y-122425766D01*
X135842579Y-122496914D01*
X135903086Y-122557421D01*
X135974234Y-122604960D01*
X136053290Y-122637706D01*
X136137215Y-122654400D01*
X136222785Y-122654400D01*
X136306710Y-122637706D01*
X136385766Y-122604960D01*
X136456914Y-122557421D01*
X136517421Y-122496914D01*
X136564960Y-122425766D01*
X136597706Y-122346710D01*
X136614400Y-122262785D01*
X136614400Y-122177215D01*
X136597706Y-122093290D01*
X136564960Y-122014234D01*
X136517421Y-121943086D01*
X136456914Y-121882579D01*
X136385766Y-121835040D01*
X136306710Y-121802294D01*
X136222785Y-121785600D01*
X136137215Y-121785600D01*
X136053290Y-121802294D01*
X135974234Y-121835040D01*
X135903086Y-121882579D01*
X135842579Y-121943086D01*
X135795040Y-122014234D01*
X135762294Y-122093290D01*
X135745600Y-122177215D01*
X132749471Y-122177215D01*
X134232460Y-121566152D01*
X135068000Y-121566152D01*
X135068000Y-121651248D01*
X135084602Y-121734710D01*
X135117167Y-121813329D01*
X135164444Y-121884084D01*
X135224616Y-121944256D01*
X135295371Y-121991533D01*
X135373990Y-122024098D01*
X135457452Y-122040700D01*
X135542548Y-122040700D01*
X135626010Y-122024098D01*
X135704629Y-121991533D01*
X135775384Y-121944256D01*
X135835556Y-121884084D01*
X135882833Y-121813329D01*
X135915398Y-121734710D01*
X135932000Y-121651248D01*
X135932000Y-121566152D01*
X135915398Y-121482690D01*
X135882833Y-121404071D01*
X135835556Y-121333316D01*
X135775384Y-121273144D01*
X135751545Y-121257215D01*
X136465600Y-121257215D01*
X136465600Y-121342785D01*
X136482294Y-121426710D01*
X136515040Y-121505766D01*
X136562579Y-121576914D01*
X136623086Y-121637421D01*
X136694234Y-121684960D01*
X136773290Y-121717706D01*
X136857215Y-121734400D01*
X136942785Y-121734400D01*
X137026710Y-121717706D01*
X137105766Y-121684960D01*
X137176914Y-121637421D01*
X137237421Y-121576914D01*
X137284960Y-121505766D01*
X137317706Y-121426710D01*
X137334400Y-121342785D01*
X137334400Y-121257215D01*
X137317706Y-121173290D01*
X137284960Y-121094234D01*
X137237421Y-121023086D01*
X137176914Y-120962579D01*
X137105766Y-120915040D01*
X137026710Y-120882294D01*
X136942785Y-120865600D01*
X136857215Y-120865600D01*
X136773290Y-120882294D01*
X136694234Y-120915040D01*
X136623086Y-120962579D01*
X136562579Y-121023086D01*
X136515040Y-121094234D01*
X136482294Y-121173290D01*
X136465600Y-121257215D01*
X135751545Y-121257215D01*
X135704629Y-121225867D01*
X135626010Y-121193302D01*
X135542548Y-121176700D01*
X135457452Y-121176700D01*
X135373990Y-121193302D01*
X135295371Y-121225867D01*
X135224616Y-121273144D01*
X135164444Y-121333316D01*
X135117167Y-121404071D01*
X135084602Y-121482690D01*
X135068000Y-121566152D01*
X134232460Y-121566152D01*
X137725139Y-120127000D01*
X141274351Y-120127000D01*
X141329175Y-125253099D01*
G37*
X141329175Y-125253099D02*
X137553450Y-125253099D01*
X137576914Y-125237421D01*
X137637421Y-125176914D01*
X137684960Y-125105766D01*
X137717706Y-125026710D01*
X137734400Y-124942785D01*
X137734400Y-124857215D01*
X137717706Y-124773290D01*
X137684960Y-124694234D01*
X137637421Y-124623086D01*
X137576914Y-124562579D01*
X137505766Y-124515040D01*
X137426710Y-124482294D01*
X137342785Y-124465600D01*
X137257215Y-124465600D01*
X137173290Y-124482294D01*
X137094234Y-124515040D01*
X137023086Y-124562579D01*
X136962579Y-124623086D01*
X136915040Y-124694234D01*
X136882294Y-124773290D01*
X136865600Y-124857215D01*
X136865600Y-124942785D01*
X136882294Y-125026710D01*
X136915040Y-125105766D01*
X136962579Y-125176914D01*
X137023086Y-125237421D01*
X137046550Y-125253099D01*
X134723416Y-125253099D01*
X134732000Y-125209947D01*
X134732000Y-125124851D01*
X134715398Y-125041389D01*
X134682833Y-124962770D01*
X134635556Y-124892015D01*
X134575384Y-124831843D01*
X134504629Y-124784566D01*
X134426010Y-124752001D01*
X134342548Y-124735399D01*
X134257452Y-124735399D01*
X134173990Y-124752001D01*
X134095371Y-124784566D01*
X134024616Y-124831843D01*
X133964444Y-124892015D01*
X133917167Y-124962770D01*
X133884602Y-125041389D01*
X133868000Y-125124851D01*
X133868000Y-125209947D01*
X133876584Y-125253099D01*
X131925630Y-125253099D01*
X131908175Y-125251380D01*
X131890719Y-125253099D01*
X131890712Y-125253099D01*
X131844741Y-125257627D01*
X131838464Y-125258245D01*
X131818131Y-125264413D01*
X131771435Y-125278578D01*
X131709659Y-125311598D01*
X131655512Y-125356036D01*
X131644380Y-125369600D01*
X131310901Y-125703080D01*
X131297338Y-125714211D01*
X131252900Y-125768358D01*
X131245608Y-125782000D01*
X131219880Y-125830133D01*
X131199546Y-125897164D01*
X131192681Y-125966874D01*
X131194401Y-125984339D01*
X131194400Y-126460293D01*
X131165040Y-126504234D01*
X131132294Y-126583290D01*
X131115600Y-126667215D01*
X131115600Y-126752785D01*
X131132294Y-126836710D01*
X131165040Y-126915766D01*
X131212579Y-126986914D01*
X131273086Y-127047421D01*
X131344234Y-127094960D01*
X131423290Y-127127706D01*
X131507215Y-127144400D01*
X131592785Y-127144400D01*
X131676710Y-127127706D01*
X131755766Y-127094960D01*
X131826914Y-127047421D01*
X131887421Y-126986914D01*
X131934960Y-126915766D01*
X131967706Y-126836710D01*
X131977107Y-126789448D01*
X132278345Y-127090687D01*
X132289401Y-127104159D01*
X132302872Y-127115214D01*
X132343182Y-127148296D01*
X132375979Y-127165826D01*
X132404542Y-127181093D01*
X132471120Y-127201290D01*
X132523016Y-127206401D01*
X132523018Y-127206401D01*
X132540358Y-127208109D01*
X132557698Y-127206401D01*
X141350066Y-127206401D01*
X141471634Y-138573000D01*
X137427000Y-138573000D01*
X137427000Y-130800000D01*
X137424560Y-130775224D01*
X137417333Y-130751399D01*
X137405597Y-130729443D01*
X137389803Y-130710197D01*
X137370557Y-130694403D01*
X137348601Y-130682667D01*
X137324776Y-130675440D01*
X137300000Y-130673000D01*
X123400000Y-130673000D01*
X123375224Y-130675440D01*
X123351399Y-130682667D01*
X123329443Y-130694403D01*
X123317165Y-130703733D01*
X119052882Y-134373000D01*
X112927000Y-134373000D01*
X112927000Y-130345028D01*
X117847725Y-128317452D01*
X132468000Y-128317452D01*
X132468000Y-128402548D01*
X132484602Y-128486010D01*
X132517167Y-128564629D01*
X132564444Y-128635384D01*
X132624616Y-128695556D01*
X132695371Y-128742833D01*
X132773990Y-128775398D01*
X132857452Y-128792000D01*
X132942548Y-128792000D01*
X133026010Y-128775398D01*
X133104629Y-128742833D01*
X133175384Y-128695556D01*
X133235556Y-128635384D01*
X133282833Y-128564629D01*
X133315398Y-128486010D01*
X133332000Y-128402548D01*
X133332000Y-128317452D01*
X133315398Y-128233990D01*
X133282833Y-128155371D01*
X133235556Y-128084616D01*
X133175384Y-128024444D01*
X133104629Y-127977167D01*
X133026010Y-127944602D01*
X132942548Y-127928000D01*
X132857452Y-127928000D01*
X132773990Y-127944602D01*
X132695371Y-127977167D01*
X132624616Y-128024444D01*
X132564444Y-128084616D01*
X132517167Y-128155371D01*
X132484602Y-128233990D01*
X132468000Y-128317452D01*
X117847725Y-128317452D01*
X128201844Y-124051056D01*
X126756101Y-125496800D01*
X126248978Y-125496800D01*
X126204629Y-125467167D01*
X126126010Y-125434602D01*
X126042548Y-125418000D01*
X125957452Y-125418000D01*
X125873990Y-125434602D01*
X125795371Y-125467167D01*
X125724616Y-125514444D01*
X125664444Y-125574616D01*
X125617167Y-125645371D01*
X125584602Y-125723990D01*
X125568000Y-125807452D01*
X125568000Y-125892548D01*
X125584602Y-125976010D01*
X125617167Y-126054629D01*
X125664444Y-126125384D01*
X125724616Y-126185556D01*
X125795371Y-126232833D01*
X125873990Y-126265398D01*
X125957452Y-126282000D01*
X126042548Y-126282000D01*
X126126010Y-126265398D01*
X126204629Y-126232833D01*
X126248978Y-126203200D01*
X126885060Y-126203200D01*
X126902400Y-126204908D01*
X126919740Y-126203200D01*
X126919743Y-126203200D01*
X126971639Y-126198089D01*
X127038217Y-126177892D01*
X127099576Y-126145095D01*
X127153358Y-126100958D01*
X127164419Y-126087481D01*
X127858224Y-125393675D01*
X127874602Y-125476010D01*
X127907167Y-125554629D01*
X127954444Y-125625384D01*
X128014616Y-125685556D01*
X128085371Y-125732833D01*
X128163990Y-125765398D01*
X128247452Y-125782000D01*
X128332548Y-125782000D01*
X128416010Y-125765398D01*
X128494629Y-125732833D01*
X128565384Y-125685556D01*
X128625556Y-125625384D01*
X128672833Y-125554629D01*
X128705398Y-125476010D01*
X128722000Y-125392548D01*
X128722000Y-125307452D01*
X128705398Y-125223990D01*
X128672833Y-125145371D01*
X128625556Y-125074616D01*
X128565384Y-125014444D01*
X128494629Y-124967167D01*
X128416010Y-124934602D01*
X128333675Y-124918224D01*
X129194684Y-124057215D01*
X137565600Y-124057215D01*
X137565600Y-124142785D01*
X137582294Y-124226710D01*
X137615040Y-124305766D01*
X137662579Y-124376914D01*
X137723086Y-124437421D01*
X137794234Y-124484960D01*
X137873290Y-124517706D01*
X137957215Y-124534400D01*
X138042785Y-124534400D01*
X138126710Y-124517706D01*
X138205766Y-124484960D01*
X138276914Y-124437421D01*
X138337421Y-124376914D01*
X138384960Y-124305766D01*
X138417706Y-124226710D01*
X138434400Y-124142785D01*
X138434400Y-124057215D01*
X138417706Y-123973290D01*
X138384960Y-123894234D01*
X138337421Y-123823086D01*
X138276914Y-123762579D01*
X138205766Y-123715040D01*
X138126710Y-123682294D01*
X138042785Y-123665600D01*
X137957215Y-123665600D01*
X137873290Y-123682294D01*
X137794234Y-123715040D01*
X137723086Y-123762579D01*
X137662579Y-123823086D01*
X137615040Y-123894234D01*
X137582294Y-123973290D01*
X137565600Y-124057215D01*
X129194684Y-124057215D01*
X129762372Y-123489528D01*
X135116036Y-123489528D01*
X135116036Y-123574624D01*
X135132638Y-123658086D01*
X135165203Y-123736705D01*
X135212480Y-123807460D01*
X135272652Y-123867632D01*
X135343407Y-123914909D01*
X135422026Y-123947474D01*
X135505488Y-123964076D01*
X135590584Y-123964076D01*
X135674046Y-123947474D01*
X135752665Y-123914909D01*
X135823420Y-123867632D01*
X135883592Y-123807460D01*
X135930869Y-123736705D01*
X135963434Y-123658086D01*
X135980036Y-123574624D01*
X135980036Y-123489528D01*
X135963434Y-123406066D01*
X135930869Y-123327447D01*
X135883592Y-123256692D01*
X135823420Y-123196520D01*
X135752665Y-123149243D01*
X135674046Y-123116678D01*
X135590584Y-123100076D01*
X135505488Y-123100076D01*
X135422026Y-123116678D01*
X135343407Y-123149243D01*
X135272652Y-123196520D01*
X135212480Y-123256692D01*
X135165203Y-123327447D01*
X135132638Y-123406066D01*
X135116036Y-123489528D01*
X129762372Y-123489528D01*
X129900963Y-123350938D01*
X132749471Y-122177215D01*
X135745600Y-122177215D01*
X135745600Y-122262785D01*
X135762294Y-122346710D01*
X135795040Y-122425766D01*
X135842579Y-122496914D01*
X135903086Y-122557421D01*
X135974234Y-122604960D01*
X136053290Y-122637706D01*
X136137215Y-122654400D01*
X136222785Y-122654400D01*
X136306710Y-122637706D01*
X136385766Y-122604960D01*
X136456914Y-122557421D01*
X136517421Y-122496914D01*
X136564960Y-122425766D01*
X136597706Y-122346710D01*
X136614400Y-122262785D01*
X136614400Y-122177215D01*
X136597706Y-122093290D01*
X136564960Y-122014234D01*
X136517421Y-121943086D01*
X136456914Y-121882579D01*
X136385766Y-121835040D01*
X136306710Y-121802294D01*
X136222785Y-121785600D01*
X136137215Y-121785600D01*
X136053290Y-121802294D01*
X135974234Y-121835040D01*
X135903086Y-121882579D01*
X135842579Y-121943086D01*
X135795040Y-122014234D01*
X135762294Y-122093290D01*
X135745600Y-122177215D01*
X132749471Y-122177215D01*
X134232460Y-121566152D01*
X135068000Y-121566152D01*
X135068000Y-121651248D01*
X135084602Y-121734710D01*
X135117167Y-121813329D01*
X135164444Y-121884084D01*
X135224616Y-121944256D01*
X135295371Y-121991533D01*
X135373990Y-122024098D01*
X135457452Y-122040700D01*
X135542548Y-122040700D01*
X135626010Y-122024098D01*
X135704629Y-121991533D01*
X135775384Y-121944256D01*
X135835556Y-121884084D01*
X135882833Y-121813329D01*
X135915398Y-121734710D01*
X135932000Y-121651248D01*
X135932000Y-121566152D01*
X135915398Y-121482690D01*
X135882833Y-121404071D01*
X135835556Y-121333316D01*
X135775384Y-121273144D01*
X135751545Y-121257215D01*
X136465600Y-121257215D01*
X136465600Y-121342785D01*
X136482294Y-121426710D01*
X136515040Y-121505766D01*
X136562579Y-121576914D01*
X136623086Y-121637421D01*
X136694234Y-121684960D01*
X136773290Y-121717706D01*
X136857215Y-121734400D01*
X136942785Y-121734400D01*
X137026710Y-121717706D01*
X137105766Y-121684960D01*
X137176914Y-121637421D01*
X137237421Y-121576914D01*
X137284960Y-121505766D01*
X137317706Y-121426710D01*
X137334400Y-121342785D01*
X137334400Y-121257215D01*
X137317706Y-121173290D01*
X137284960Y-121094234D01*
X137237421Y-121023086D01*
X137176914Y-120962579D01*
X137105766Y-120915040D01*
X137026710Y-120882294D01*
X136942785Y-120865600D01*
X136857215Y-120865600D01*
X136773290Y-120882294D01*
X136694234Y-120915040D01*
X136623086Y-120962579D01*
X136562579Y-121023086D01*
X136515040Y-121094234D01*
X136482294Y-121173290D01*
X136465600Y-121257215D01*
X135751545Y-121257215D01*
X135704629Y-121225867D01*
X135626010Y-121193302D01*
X135542548Y-121176700D01*
X135457452Y-121176700D01*
X135373990Y-121193302D01*
X135295371Y-121225867D01*
X135224616Y-121273144D01*
X135164444Y-121333316D01*
X135117167Y-121404071D01*
X135084602Y-121482690D01*
X135068000Y-121566152D01*
X134232460Y-121566152D01*
X137725139Y-120127000D01*
X141274351Y-120127000D01*
X141329175Y-125253099D01*
G36*
X154873000Y-120607647D02*
G01*
X154873000Y-130800000D01*
X154875440Y-130824776D01*
X154882667Y-130848601D01*
X154894403Y-130870557D01*
X154910197Y-130889803D01*
X154929443Y-130905597D01*
X154951399Y-130917333D01*
X154975224Y-130924560D01*
X155000000Y-130927000D01*
X157573000Y-130927000D01*
X157573000Y-133173000D01*
X154776073Y-133173000D01*
X151011971Y-126140072D01*
X150998128Y-126119379D01*
X150980514Y-126101784D01*
X150959806Y-126087963D01*
X150936800Y-126078449D01*
X150900000Y-126073000D01*
X142679893Y-126073000D01*
X144122321Y-124630574D01*
X148119796Y-124637000D01*
X148144576Y-124634599D01*
X148168412Y-124627411D01*
X148190388Y-124615710D01*
X148209658Y-124599947D01*
X148225483Y-124580727D01*
X148237254Y-124558789D01*
X148244520Y-124534977D01*
X148246999Y-124509436D01*
X148227564Y-120136528D01*
X150800200Y-120127000D01*
X154392354Y-120127000D01*
X154873000Y-120607647D01*
G37*
X154873000Y-120607647D02*
X154873000Y-130800000D01*
X154875440Y-130824776D01*
X154882667Y-130848601D01*
X154894403Y-130870557D01*
X154910197Y-130889803D01*
X154929443Y-130905597D01*
X154951399Y-130917333D01*
X154975224Y-130924560D01*
X155000000Y-130927000D01*
X157573000Y-130927000D01*
X157573000Y-133173000D01*
X154776073Y-133173000D01*
X151011971Y-126140072D01*
X150998128Y-126119379D01*
X150980514Y-126101784D01*
X150959806Y-126087963D01*
X150936800Y-126078449D01*
X150900000Y-126073000D01*
X142679893Y-126073000D01*
X144122321Y-124630574D01*
X148119796Y-124637000D01*
X148144576Y-124634599D01*
X148168412Y-124627411D01*
X148190388Y-124615710D01*
X148209658Y-124599947D01*
X148225483Y-124580727D01*
X148237254Y-124558789D01*
X148244520Y-124534977D01*
X148246999Y-124509436D01*
X148227564Y-120136528D01*
X150800200Y-120127000D01*
X154392354Y-120127000D01*
X154873000Y-120607647D01*
G36*
X150723776Y-126526718D02*
G01*
X154488029Y-133559928D01*
X154501872Y-133580621D01*
X154519486Y-133598216D01*
X154540194Y-133612037D01*
X154563200Y-133621551D01*
X154600000Y-133627000D01*
X157573000Y-133627000D01*
X157573000Y-135673000D01*
X154253686Y-135673000D01*
X150891094Y-132211508D01*
X150872080Y-132195437D01*
X150850296Y-132183384D01*
X150826579Y-132175812D01*
X150800000Y-132173000D01*
X142027000Y-132173000D01*
X142027000Y-130677822D01*
X148099181Y-130716997D01*
X148123972Y-130714717D01*
X148147843Y-130707644D01*
X148169875Y-130696050D01*
X148189221Y-130680380D01*
X148205139Y-130661237D01*
X148217017Y-130639357D01*
X148224397Y-130615580D01*
X148227000Y-130590000D01*
X148227000Y-126517471D01*
X150723776Y-126526718D01*
G37*
X150723776Y-126526718D02*
X154488029Y-133559928D01*
X154501872Y-133580621D01*
X154519486Y-133598216D01*
X154540194Y-133612037D01*
X154563200Y-133621551D01*
X154600000Y-133627000D01*
X157573000Y-133627000D01*
X157573000Y-135673000D01*
X154253686Y-135673000D01*
X150891094Y-132211508D01*
X150872080Y-132195437D01*
X150850296Y-132183384D01*
X150826579Y-132175812D01*
X150800000Y-132173000D01*
X142027000Y-132173000D01*
X142027000Y-130677822D01*
X148099181Y-130716997D01*
X148123972Y-130714717D01*
X148147843Y-130707644D01*
X148169875Y-130696050D01*
X148189221Y-130680380D01*
X148205139Y-130661237D01*
X148217017Y-130639357D01*
X148224397Y-130615580D01*
X148227000Y-130590000D01*
X148227000Y-126517471D01*
X150723776Y-126526718D01*
G36*
X154008906Y-136088492D02*
G01*
X154027920Y-136104563D01*
X154049704Y-136116616D01*
X154073421Y-136124188D01*
X154100000Y-136127000D01*
X157573000Y-136127000D01*
X157573000Y-138573000D01*
X142045900Y-138573000D01*
X142028109Y-136527000D01*
X148100000Y-136527000D01*
X148124776Y-136524560D01*
X148148601Y-136517333D01*
X148170557Y-136505597D01*
X148189803Y-136489803D01*
X148205597Y-136470557D01*
X148217333Y-136448601D01*
X148224560Y-136424776D01*
X148227000Y-136400000D01*
X148227000Y-132627000D01*
X150646314Y-132627000D01*
X154008906Y-136088492D01*
G37*
X154008906Y-136088492D02*
X154027920Y-136104563D01*
X154049704Y-136116616D01*
X154073421Y-136124188D01*
X154100000Y-136127000D01*
X157573000Y-136127000D01*
X157573000Y-138573000D01*
X142045900Y-138573000D01*
X142028109Y-136527000D01*
X148100000Y-136527000D01*
X148124776Y-136524560D01*
X148148601Y-136517333D01*
X148170557Y-136505597D01*
X148189803Y-136489803D01*
X148205597Y-136470557D01*
X148217333Y-136448601D01*
X148224560Y-136424776D01*
X148227000Y-136400000D01*
X148227000Y-132627000D01*
X150646314Y-132627000D01*
X154008906Y-136088492D01*
M02*
