G04 #@! TF.GenerationSoftware,KiCad,Pcbnew,5.0.2-bee76a0~70~ubuntu18.04.1*
G04 #@! TF.CreationDate,2020-02-26T15:16:49+01:00*
G04 #@! TF.ProjectId,output.rs485_adapter_panel,6f757470-7574-42e7-9273-3438355f6164,rev?*
G04 #@! TF.SameCoordinates,Original*
G04 #@! TF.FileFunction,Legend,Top*
G04 #@! TF.FilePolarity,Positive*
%FSLAX46Y46*%
G04 Gerber Fmt 4.6, Leading zero omitted, Abs format (unit mm)*
G04 Created by KiCad (PCBNEW 5.0.2-bee76a0~70~ubuntu18.04.1) date Wed 26 Feb 2020 03:16:49 PM CET*
%MOMM*%
%LPD*%
G01*
G04 APERTURE LIST*
%ADD10C,0.120000*%
%ADD11C,0.152400*%
%ADD12C,0.100000*%
%ADD13C,0.150000*%
G04 APERTURE END LIST*
D10*
G04 #@! TO.C,J1*
X190625001Y-128625001D02*
X190625001Y-130225001D01*
X177625001Y-128625001D02*
X177625001Y-130225001D01*
X190625001Y-122625001D02*
X190625001Y-124225001D01*
X177625001Y-122625001D02*
X177625001Y-124225001D01*
X186325001Y-133405001D02*
X187925001Y-133405001D01*
X186325001Y-119445001D02*
X187925001Y-119445001D01*
X180325001Y-133405001D02*
X181925001Y-133405001D01*
X180325001Y-119445001D02*
X181925001Y-119445001D01*
X159625001Y-128625001D02*
X159625001Y-130225001D01*
X146625001Y-128625001D02*
X146625001Y-130225001D01*
X159625001Y-122625001D02*
X159625001Y-124225001D01*
X146625001Y-122625001D02*
X146625001Y-124225001D01*
X155325001Y-133405001D02*
X156925001Y-133405001D01*
X155325001Y-119445001D02*
X156925001Y-119445001D01*
X149325001Y-133405001D02*
X150925001Y-133405001D01*
X149325001Y-119445001D02*
X150925001Y-119445001D01*
X190625001Y-107625001D02*
X190625001Y-109225001D01*
X177625001Y-107625001D02*
X177625001Y-109225001D01*
X190625001Y-101625001D02*
X190625001Y-103225001D01*
X177625001Y-101625001D02*
X177625001Y-103225001D01*
X186325001Y-112405001D02*
X187925001Y-112405001D01*
X186325001Y-98445001D02*
X187925001Y-98445001D01*
X180325001Y-112405001D02*
X181925001Y-112405001D01*
X180325001Y-98445001D02*
X181925001Y-98445001D01*
X159625001Y-107625001D02*
X159625001Y-109225001D01*
X146625001Y-107625001D02*
X146625001Y-109225001D01*
X159625001Y-101625001D02*
X159625001Y-103225001D01*
X146625001Y-101625001D02*
X146625001Y-103225001D01*
X155325001Y-112405001D02*
X156925001Y-112405001D01*
X155325001Y-98445001D02*
X156925001Y-98445001D01*
X149325001Y-112405001D02*
X150925001Y-112405001D01*
X149325001Y-98445001D02*
X150925001Y-98445001D01*
X190625001Y-86625001D02*
X190625001Y-88225001D01*
X177625001Y-86625001D02*
X177625001Y-88225001D01*
X190625001Y-80625001D02*
X190625001Y-82225001D01*
X177625001Y-80625001D02*
X177625001Y-82225001D01*
X186325001Y-91405001D02*
X187925001Y-91405001D01*
X186325001Y-77445001D02*
X187925001Y-77445001D01*
X180325001Y-91405001D02*
X181925001Y-91405001D01*
X180325001Y-77445001D02*
X181925001Y-77445001D01*
D11*
G04 #@! TO.C,U1*
X182673600Y-124265600D02*
X182673600Y-124722800D01*
X186026400Y-124265600D02*
X182673600Y-124265600D01*
X186026400Y-128634400D02*
X186026400Y-128177200D01*
X182673600Y-128634400D02*
X186026400Y-128634400D01*
X182673600Y-128177200D02*
X182673600Y-128634400D01*
X186026400Y-124722800D02*
X186026400Y-124265600D01*
X151673600Y-124265600D02*
X151673600Y-124722800D01*
X155026400Y-124265600D02*
X151673600Y-124265600D01*
X155026400Y-128634400D02*
X155026400Y-128177200D01*
X151673600Y-128634400D02*
X155026400Y-128634400D01*
X151673600Y-128177200D02*
X151673600Y-128634400D01*
X155026400Y-124722800D02*
X155026400Y-124265600D01*
X182673600Y-103265600D02*
X182673600Y-103722800D01*
X186026400Y-103265600D02*
X182673600Y-103265600D01*
X186026400Y-107634400D02*
X186026400Y-107177200D01*
X182673600Y-107634400D02*
X186026400Y-107634400D01*
X182673600Y-107177200D02*
X182673600Y-107634400D01*
X186026400Y-103722800D02*
X186026400Y-103265600D01*
X151673600Y-103265600D02*
X151673600Y-103722800D01*
X155026400Y-103265600D02*
X151673600Y-103265600D01*
X155026400Y-107634400D02*
X155026400Y-107177200D01*
X151673600Y-107634400D02*
X155026400Y-107634400D01*
X151673600Y-107177200D02*
X151673600Y-107634400D01*
X155026400Y-103722800D02*
X155026400Y-103265600D01*
X182673600Y-82265600D02*
X182673600Y-82722800D01*
X186026400Y-82265600D02*
X182673600Y-82265600D01*
X186026400Y-86634400D02*
X186026400Y-86177200D01*
X182673600Y-86634400D02*
X186026400Y-86634400D01*
X182673600Y-86177200D02*
X182673600Y-86634400D01*
X186026400Y-82722800D02*
X186026400Y-82265600D01*
D10*
G04 #@! TO.C,J3*
X191645000Y-123300000D02*
X193175000Y-123300000D01*
X191645000Y-125175000D02*
X191645000Y-123300000D01*
X194445000Y-126445000D02*
X192575000Y-126445000D01*
X194445000Y-124575000D02*
X194445000Y-126445000D01*
X195715000Y-123300000D02*
X197245000Y-123300000D01*
X197245000Y-123300000D02*
X197245000Y-133400000D01*
X191645000Y-133400000D02*
X197245000Y-133400000D01*
X191645000Y-127715000D02*
X191645000Y-133400000D01*
X160645000Y-123300000D02*
X162175000Y-123300000D01*
X160645000Y-125175000D02*
X160645000Y-123300000D01*
X163445000Y-126445000D02*
X161575000Y-126445000D01*
X163445000Y-124575000D02*
X163445000Y-126445000D01*
X164715000Y-123300000D02*
X166245000Y-123300000D01*
X166245000Y-123300000D02*
X166245000Y-133400000D01*
X160645000Y-133400000D02*
X166245000Y-133400000D01*
X160645000Y-127715000D02*
X160645000Y-133400000D01*
X191645000Y-102300000D02*
X193175000Y-102300000D01*
X191645000Y-104175000D02*
X191645000Y-102300000D01*
X194445000Y-105445000D02*
X192575000Y-105445000D01*
X194445000Y-103575000D02*
X194445000Y-105445000D01*
X195715000Y-102300000D02*
X197245000Y-102300000D01*
X197245000Y-102300000D02*
X197245000Y-112400000D01*
X191645000Y-112400000D02*
X197245000Y-112400000D01*
X191645000Y-106715000D02*
X191645000Y-112400000D01*
X160645000Y-102300000D02*
X162175000Y-102300000D01*
X160645000Y-104175000D02*
X160645000Y-102300000D01*
X163445000Y-105445000D02*
X161575000Y-105445000D01*
X163445000Y-103575000D02*
X163445000Y-105445000D01*
X164715000Y-102300000D02*
X166245000Y-102300000D01*
X166245000Y-102300000D02*
X166245000Y-112400000D01*
X160645000Y-112400000D02*
X166245000Y-112400000D01*
X160645000Y-106715000D02*
X160645000Y-112400000D01*
X191645000Y-81300000D02*
X193175000Y-81300000D01*
X191645000Y-83175000D02*
X191645000Y-81300000D01*
X194445000Y-84445000D02*
X192575000Y-84445000D01*
X194445000Y-82575000D02*
X194445000Y-84445000D01*
X195715000Y-81300000D02*
X197245000Y-81300000D01*
X197245000Y-81300000D02*
X197245000Y-91400000D01*
X191645000Y-91400000D02*
X197245000Y-91400000D01*
X191645000Y-85715000D02*
X191645000Y-91400000D01*
D12*
G04 #@! TO.C,D2*
X182640000Y-118100000D02*
G75*
G03X182640000Y-118100000I-50000J0D01*
G01*
X151640000Y-118100000D02*
G75*
G03X151640000Y-118100000I-50000J0D01*
G01*
X182640000Y-97100000D02*
G75*
G03X182640000Y-97100000I-50000J0D01*
G01*
X151640000Y-97100000D02*
G75*
G03X151640000Y-97100000I-50000J0D01*
G01*
X182640000Y-76100000D02*
G75*
G03X182640000Y-76100000I-50000J0D01*
G01*
G04 #@! TO.C,D1*
X188140000Y-118100000D02*
G75*
G03X188140000Y-118100000I-50000J0D01*
G01*
X157140000Y-118100000D02*
G75*
G03X157140000Y-118100000I-50000J0D01*
G01*
X188140000Y-97100000D02*
G75*
G03X188140000Y-97100000I-50000J0D01*
G01*
X157140000Y-97100000D02*
G75*
G03X157140000Y-97100000I-50000J0D01*
G01*
X188140000Y-76100000D02*
G75*
G03X188140000Y-76100000I-50000J0D01*
G01*
D10*
G04 #@! TO.C,J2*
X171070000Y-122340000D02*
X171070000Y-128025000D01*
X171070000Y-128025000D02*
X176670000Y-128025000D01*
X176670000Y-117925000D02*
X176670000Y-128025000D01*
X175140000Y-117925000D02*
X176670000Y-117925000D01*
X173870000Y-119200000D02*
X173870000Y-121070000D01*
X173870000Y-121070000D02*
X172000000Y-121070000D01*
X171070000Y-119800000D02*
X171070000Y-117925000D01*
X171070000Y-117925000D02*
X172600000Y-117925000D01*
X140070000Y-122340000D02*
X140070000Y-128025000D01*
X140070000Y-128025000D02*
X145670000Y-128025000D01*
X145670000Y-117925000D02*
X145670000Y-128025000D01*
X144140000Y-117925000D02*
X145670000Y-117925000D01*
X142870000Y-119200000D02*
X142870000Y-121070000D01*
X142870000Y-121070000D02*
X141000000Y-121070000D01*
X140070000Y-119800000D02*
X140070000Y-117925000D01*
X140070000Y-117925000D02*
X141600000Y-117925000D01*
X171070000Y-101340000D02*
X171070000Y-107025000D01*
X171070000Y-107025000D02*
X176670000Y-107025000D01*
X176670000Y-96925000D02*
X176670000Y-107025000D01*
X175140000Y-96925000D02*
X176670000Y-96925000D01*
X173870000Y-98200000D02*
X173870000Y-100070000D01*
X173870000Y-100070000D02*
X172000000Y-100070000D01*
X171070000Y-98800000D02*
X171070000Y-96925000D01*
X171070000Y-96925000D02*
X172600000Y-96925000D01*
X140070000Y-101340000D02*
X140070000Y-107025000D01*
X140070000Y-107025000D02*
X145670000Y-107025000D01*
X145670000Y-96925000D02*
X145670000Y-107025000D01*
X144140000Y-96925000D02*
X145670000Y-96925000D01*
X142870000Y-98200000D02*
X142870000Y-100070000D01*
X142870000Y-100070000D02*
X141000000Y-100070000D01*
X140070000Y-98800000D02*
X140070000Y-96925000D01*
X140070000Y-96925000D02*
X141600000Y-96925000D01*
X171070000Y-80340000D02*
X171070000Y-86025000D01*
X171070000Y-86025000D02*
X176670000Y-86025000D01*
X176670000Y-75925000D02*
X176670000Y-86025000D01*
X175140000Y-75925000D02*
X176670000Y-75925000D01*
X173870000Y-77200000D02*
X173870000Y-79070000D01*
X173870000Y-79070000D02*
X172000000Y-79070000D01*
X171070000Y-77800000D02*
X171070000Y-75925000D01*
X171070000Y-75925000D02*
X172600000Y-75925000D01*
D12*
G04 #@! TO.C,D2*
X151640000Y-76100000D02*
G75*
G03X151640000Y-76100000I-50000J0D01*
G01*
G04 #@! TO.C,D1*
X157140000Y-76100000D02*
G75*
G03X157140000Y-76100000I-50000J0D01*
G01*
D11*
G04 #@! TO.C,U1*
X155026400Y-82722800D02*
X155026400Y-82265600D01*
X151673600Y-86177200D02*
X151673600Y-86634400D01*
X151673600Y-86634400D02*
X155026400Y-86634400D01*
X155026400Y-86634400D02*
X155026400Y-86177200D01*
X155026400Y-82265600D02*
X151673600Y-82265600D01*
X151673600Y-82265600D02*
X151673600Y-82722800D01*
D10*
G04 #@! TO.C,J3*
X160645000Y-85715000D02*
X160645000Y-91400000D01*
X160645000Y-91400000D02*
X166245000Y-91400000D01*
X166245000Y-81300000D02*
X166245000Y-91400000D01*
X164715000Y-81300000D02*
X166245000Y-81300000D01*
X163445000Y-82575000D02*
X163445000Y-84445000D01*
X163445000Y-84445000D02*
X161575000Y-84445000D01*
X160645000Y-83175000D02*
X160645000Y-81300000D01*
X160645000Y-81300000D02*
X162175000Y-81300000D01*
G04 #@! TO.C,J2*
X140070000Y-75925000D02*
X141600000Y-75925000D01*
X140070000Y-77800000D02*
X140070000Y-75925000D01*
X142870000Y-79070000D02*
X141000000Y-79070000D01*
X142870000Y-77200000D02*
X142870000Y-79070000D01*
X144140000Y-75925000D02*
X145670000Y-75925000D01*
X145670000Y-75925000D02*
X145670000Y-86025000D01*
X140070000Y-86025000D02*
X145670000Y-86025000D01*
X140070000Y-80340000D02*
X140070000Y-86025000D01*
G04 #@! TO.C,J1*
X149325001Y-77445001D02*
X150925001Y-77445001D01*
X149325001Y-91405001D02*
X150925001Y-91405001D01*
X155325001Y-77445001D02*
X156925001Y-77445001D01*
X155325001Y-91405001D02*
X156925001Y-91405001D01*
X146625001Y-80625001D02*
X146625001Y-82225001D01*
X159625001Y-80625001D02*
X159625001Y-82225001D01*
X146625001Y-86625001D02*
X146625001Y-88225001D01*
X159625001Y-86625001D02*
X159625001Y-88225001D01*
G04 #@! TO.C,FID3*
D13*
X137928571Y-137928571D02*
X137595238Y-137928571D01*
X137595238Y-138452380D02*
X137595238Y-137452380D01*
X138071428Y-137452380D01*
X138452380Y-138452380D02*
X138452380Y-137452380D01*
X138928571Y-138452380D02*
X138928571Y-137452380D01*
X139166666Y-137452380D01*
X139309523Y-137500000D01*
X139404761Y-137595238D01*
X139452380Y-137690476D01*
X139500000Y-137880952D01*
X139500000Y-138023809D01*
X139452380Y-138214285D01*
X139404761Y-138309523D01*
X139309523Y-138404761D01*
X139166666Y-138452380D01*
X138928571Y-138452380D01*
X139833333Y-137452380D02*
X140452380Y-137452380D01*
X140119047Y-137833333D01*
X140261904Y-137833333D01*
X140357142Y-137880952D01*
X140404761Y-137928571D01*
X140452380Y-138023809D01*
X140452380Y-138261904D01*
X140404761Y-138357142D01*
X140357142Y-138404761D01*
X140261904Y-138452380D01*
X139976190Y-138452380D01*
X139880952Y-138404761D01*
X139833333Y-138357142D01*
G04 #@! TO.C,FID2*
X137928571Y-70928571D02*
X137595238Y-70928571D01*
X137595238Y-71452380D02*
X137595238Y-70452380D01*
X138071428Y-70452380D01*
X138452380Y-71452380D02*
X138452380Y-70452380D01*
X138928571Y-71452380D02*
X138928571Y-70452380D01*
X139166666Y-70452380D01*
X139309523Y-70500000D01*
X139404761Y-70595238D01*
X139452380Y-70690476D01*
X139500000Y-70880952D01*
X139500000Y-71023809D01*
X139452380Y-71214285D01*
X139404761Y-71309523D01*
X139309523Y-71404761D01*
X139166666Y-71452380D01*
X138928571Y-71452380D01*
X139880952Y-70547619D02*
X139928571Y-70500000D01*
X140023809Y-70452380D01*
X140261904Y-70452380D01*
X140357142Y-70500000D01*
X140404761Y-70547619D01*
X140452380Y-70642857D01*
X140452380Y-70738095D01*
X140404761Y-70880952D01*
X139833333Y-71452380D01*
X140452380Y-71452380D01*
G04 #@! TO.C,FID1*
X197928571Y-70928571D02*
X197595238Y-70928571D01*
X197595238Y-71452380D02*
X197595238Y-70452380D01*
X198071428Y-70452380D01*
X198452380Y-71452380D02*
X198452380Y-70452380D01*
X198928571Y-71452380D02*
X198928571Y-70452380D01*
X199166666Y-70452380D01*
X199309523Y-70500000D01*
X199404761Y-70595238D01*
X199452380Y-70690476D01*
X199500000Y-70880952D01*
X199500000Y-71023809D01*
X199452380Y-71214285D01*
X199404761Y-71309523D01*
X199309523Y-71404761D01*
X199166666Y-71452380D01*
X198928571Y-71452380D01*
X200452380Y-71452380D02*
X199880952Y-71452380D01*
X200166666Y-71452380D02*
X200166666Y-70452380D01*
X200071428Y-70595238D01*
X199976190Y-70690476D01*
X199880952Y-70738095D01*
G04 #@! TO.C,*
G04 #@! TD*
M02*
