M48
;DRILL file {KiCad 5.0.2-bee76a0~70~ubuntu18.04.1} date Wed 26 Feb 2020 03:16:53 PM CET
;FORMAT={-:-/ absolute / inch / decimal}
FMAT,2
INCH,TZ
T1C0.0157
T2C0.0315
T3C0.0866
%
G90
G05
T1
X5.7825Y-3.0589
X5.7825Y-3.8856
X5.7825Y-4.7124
X5.7835Y-3.0984
X5.7835Y-3.1378
X5.7835Y-3.2677
X5.7835Y-3.3031
X5.7835Y-3.3425
X5.7835Y-3.378
X5.7835Y-3.4173
X5.7835Y-3.5197
X5.7835Y-3.5551
X5.7835Y-3.9252
X5.7835Y-3.9646
X5.7835Y-4.0945
X5.7835Y-4.1299
X5.7835Y-4.1693
X5.7835Y-4.2047
X5.7835Y-4.2441
X5.7835Y-4.3465
X5.7835Y-4.3819
X5.7835Y-4.752
X5.7835Y-4.7913
X5.7835Y-4.9213
X5.7835Y-4.9567
X5.7835Y-4.9961
X5.7835Y-5.0315
X5.7835Y-5.0709
X5.7835Y-5.1732
X5.7835Y-5.2087
X5.7864Y-3.5904
X5.7864Y-4.4171
X5.7864Y-5.2439
X5.8189Y-3.0589
X5.8189Y-3.8856
X5.8189Y-4.7124
X5.8228Y-3.5904
X5.8228Y-4.4171
X5.8228Y-5.2439
X5.8573Y-3.0589
X5.8573Y-3.8856
X5.8573Y-4.7124
X5.8612Y-3.5904
X5.8612Y-4.4171
X5.8612Y-5.2439
X5.874Y-2.9961
X5.874Y-3.8228
X5.874Y-4.6496
X5.8937Y-3.0589
X5.8937Y-3.8856
X5.8937Y-4.7124
X5.8976Y-3.5904
X5.8976Y-4.4171
X5.8976Y-5.2439
X5.9055Y-3.2205
X5.9055Y-4.0472
X5.9055Y-4.874
X5.907Y-3.3125
X5.907Y-4.1393
X5.907Y-4.9661
X5.9134Y-3.5276
X5.9134Y-4.3543
X5.9134Y-5.1811
X5.936Y-3.5904
X5.936Y-4.4171
X5.936Y-5.2439
X5.9646Y-3.5197
X5.9646Y-4.3465
X5.9646Y-5.1732
X5.9685Y-3.0589
X5.9685Y-3.4252
X5.9685Y-3.8856
X5.9685Y-4.252
X5.9685Y-4.7124
X5.9685Y-5.0787
X5.9724Y-3.5904
X5.9724Y-4.4171
X5.9724Y-5.2439
X6.0069Y-3.0589
X6.0069Y-3.8856
X6.0069Y-4.7124
X6.0108Y-3.5904
X6.0108Y-4.4171
X6.0108Y-5.2439
X6.0433Y-3.0589
X6.0433Y-3.8856
X6.0433Y-4.7124
X6.0472Y-3.5904
X6.0472Y-4.4171
X6.0472Y-5.2439
X6.0688Y-3.2205
X6.0688Y-4.0472
X6.0688Y-4.874
X6.0827Y-3.
X6.0827Y-3.8268
X6.0827Y-4.6535
X6.0856Y-3.5904
X6.0856Y-4.4171
X6.0856Y-5.2439
X6.0945Y-3.4252
X6.0945Y-4.252
X6.0945Y-5.0787
X6.1181Y-3.0589
X6.1181Y-3.8856
X6.1181Y-4.7124
X6.122Y-3.5904
X6.122Y-4.4171
X6.122Y-5.2439
X6.1565Y-3.0589
X6.1565Y-3.8856
X6.1565Y-4.7124
X6.1604Y-3.5904
X6.1604Y-4.4171
X6.1604Y-5.2439
X6.185Y-3.1693
X6.185Y-3.9961
X6.185Y-4.8228
X6.1929Y-3.0589
X6.1929Y-3.8856
X6.1929Y-4.7124
X6.1969Y-3.5904
X6.1969Y-4.4171
X6.1969Y-5.2439
X6.2313Y-3.0589
X6.2313Y-3.8856
X6.2313Y-4.7124
X6.2352Y-3.5904
X6.2352Y-4.4171
X6.2352Y-5.2439
X6.2677Y-3.0589
X6.2677Y-3.8856
X6.2677Y-4.7124
X6.2717Y-3.5904
X6.2717Y-4.4171
X6.2717Y-5.2439
X6.2746Y-3.4843
X6.2746Y-3.5197
X6.2746Y-4.311
X6.2746Y-4.3465
X6.2746Y-5.1378
X6.2746Y-5.1732
X6.2756Y-3.0945
X6.2756Y-3.1339
X6.2756Y-3.2677
X6.2756Y-3.3031
X6.2756Y-3.3425
X6.2756Y-3.378
X6.2756Y-3.5551
X6.2756Y-3.9213
X6.2756Y-3.9606
X6.2756Y-4.0945
X6.2756Y-4.1299
X6.2756Y-4.1693
X6.2756Y-4.2047
X6.2756Y-4.3819
X6.2756Y-4.748
X6.2756Y-4.7874
X6.2756Y-4.9213
X6.2756Y-4.9567
X6.2756Y-4.9961
X6.2756Y-5.0315
X6.2756Y-5.2087
X7.003Y-3.0589
X7.003Y-3.8856
X7.003Y-4.7124
X7.0039Y-3.0984
X7.0039Y-3.1378
X7.0039Y-3.2677
X7.0039Y-3.3031
X7.0039Y-3.3425
X7.0039Y-3.378
X7.0039Y-3.4173
X7.0039Y-3.5197
X7.0039Y-3.5551
X7.0039Y-3.9252
X7.0039Y-3.9646
X7.0039Y-4.0945
X7.0039Y-4.1299
X7.0039Y-4.1693
X7.0039Y-4.2047
X7.0039Y-4.2441
X7.0039Y-4.3465
X7.0039Y-4.3819
X7.0039Y-4.752
X7.0039Y-4.7913
X7.0039Y-4.9213
X7.0039Y-4.9567
X7.0039Y-4.9961
X7.0039Y-5.0315
X7.0039Y-5.0709
X7.0039Y-5.1732
X7.0039Y-5.2087
X7.0069Y-3.5904
X7.0069Y-4.4171
X7.0069Y-5.2439
X7.0394Y-3.0589
X7.0394Y-3.8856
X7.0394Y-4.7124
X7.0433Y-3.5904
X7.0433Y-4.4171
X7.0433Y-5.2439
X7.0778Y-3.0589
X7.0778Y-3.8856
X7.0778Y-4.7124
X7.0817Y-3.5904
X7.0817Y-4.4171
X7.0817Y-5.2439
X7.0945Y-2.9961
X7.0945Y-3.8228
X7.0945Y-4.6496
X7.1142Y-3.0589
X7.1142Y-3.8856
X7.1142Y-4.7124
X7.1181Y-3.5904
X7.1181Y-4.4171
X7.1181Y-5.2439
X7.126Y-3.2205
X7.126Y-4.0472
X7.126Y-4.874
X7.1275Y-3.3125
X7.1275Y-4.1393
X7.1275Y-4.9661
X7.1339Y-3.5276
X7.1339Y-4.3543
X7.1339Y-5.1811
X7.1565Y-3.5904
X7.1565Y-4.4171
X7.1565Y-5.2439
X7.185Y-3.5197
X7.185Y-4.3465
X7.185Y-5.1732
X7.189Y-3.0589
X7.189Y-3.4252
X7.189Y-3.8856
X7.189Y-4.252
X7.189Y-4.7124
X7.189Y-5.0787
X7.1929Y-3.5904
X7.1929Y-4.4171
X7.1929Y-5.2439
X7.2274Y-3.0589
X7.2274Y-3.8856
X7.2274Y-4.7124
X7.2313Y-3.5904
X7.2313Y-4.4171
X7.2313Y-5.2439
X7.2638Y-3.0589
X7.2638Y-3.8856
X7.2638Y-4.7124
X7.2677Y-3.5904
X7.2677Y-4.4171
X7.2677Y-5.2439
X7.2893Y-3.2205
X7.2893Y-4.0472
X7.2893Y-4.874
X7.3031Y-3.
X7.3031Y-3.8268
X7.3031Y-4.6535
X7.3061Y-3.5904
X7.3061Y-4.4171
X7.3061Y-5.2439
X7.315Y-3.4252
X7.315Y-4.252
X7.315Y-5.0787
X7.3386Y-3.0589
X7.3386Y-3.8856
X7.3386Y-4.7124
X7.3425Y-3.5904
X7.3425Y-4.4171
X7.3425Y-5.2439
X7.377Y-3.0589
X7.377Y-3.8856
X7.377Y-4.7124
X7.3809Y-3.5904
X7.3809Y-4.4171
X7.3809Y-5.2439
X7.4055Y-3.1693
X7.4055Y-3.9961
X7.4055Y-4.8228
X7.4134Y-3.0589
X7.4134Y-3.8856
X7.4134Y-4.7124
X7.4173Y-3.5904
X7.4173Y-4.4171
X7.4173Y-5.2439
X7.4518Y-3.0589
X7.4518Y-3.8856
X7.4518Y-4.7124
X7.4557Y-3.5904
X7.4557Y-4.4171
X7.4557Y-5.2439
X7.4882Y-3.0589
X7.4882Y-3.8856
X7.4882Y-4.7124
X7.4921Y-3.5904
X7.4921Y-4.4171
X7.4921Y-5.2439
X7.4951Y-3.4843
X7.4951Y-3.5197
X7.4951Y-4.311
X7.4951Y-4.3465
X7.4951Y-5.1378
X7.4951Y-5.1732
X7.4961Y-3.0945
X7.4961Y-3.1339
X7.4961Y-3.2677
X7.4961Y-3.3031
X7.4961Y-3.3425
X7.4961Y-3.378
X7.4961Y-3.5551
X7.4961Y-3.9213
X7.4961Y-3.9606
X7.4961Y-4.0945
X7.4961Y-4.1299
X7.4961Y-4.1693
X7.4961Y-4.2047
X7.4961Y-4.3819
X7.4961Y-4.748
X7.4961Y-4.7874
X7.4961Y-4.9213
X7.4961Y-4.9567
X7.4961Y-4.9961
X7.4961Y-5.0315
X7.4961Y-5.2087
T2
X6.7953Y-4.7165
X6.7953Y-4.8165
X6.7953Y-4.9165
X6.8953Y-4.7665
X6.8953Y-4.8665
X6.8953Y-4.9665
X5.5748Y-3.8898
X5.5748Y-3.9898
X5.5748Y-4.0898
X5.6748Y-3.9398
X5.6748Y-4.0398
X5.6748Y-4.1398
X7.6053Y-3.2746
X7.6053Y-3.3746
X7.6053Y-3.4746
X7.7053Y-3.3246
X7.7053Y-3.4246
X7.7053Y-3.5246
X6.3848Y-4.9281
X6.3848Y-5.0281
X6.3848Y-5.1281
X6.4848Y-4.9781
X6.4848Y-5.0781
X6.4848Y-5.1781
X5.5748Y-3.063
X5.5748Y-3.163
X5.5748Y-3.263
X5.6748Y-3.113
X5.6748Y-3.213
X5.6748Y-3.313
X5.5748Y-4.7165
X5.5748Y-4.8165
X5.5748Y-4.9165
X5.6748Y-4.7665
X5.6748Y-4.8665
X5.6748Y-4.9665
X6.3848Y-3.2746
X6.3848Y-3.3746
X6.3848Y-3.4746
X6.4848Y-3.3246
X6.4848Y-3.4246
X6.4848Y-3.5246
X6.7953Y-3.063
X6.7953Y-3.163
X6.7953Y-3.263
X6.8953Y-3.113
X6.8953Y-3.213
X6.8953Y-3.313
X7.6053Y-4.1014
X7.6053Y-4.2014
X7.6053Y-4.3014
X7.7053Y-4.1514
X7.7053Y-4.2514
X7.7053Y-4.3514
X6.3848Y-4.1014
X6.3848Y-4.2014
X6.3848Y-4.3014
X6.4848Y-4.1514
X6.4848Y-4.2514
X6.4848Y-4.3514
X7.6053Y-4.9281
X7.6053Y-5.0281
X7.6053Y-5.1281
X7.7053Y-4.9781
X7.7053Y-5.0781
X7.7053Y-5.1781
X6.7953Y-3.8898
X6.7953Y-3.9898
X6.7953Y-4.0898
X6.8953Y-3.9398
X6.8953Y-4.0398
X6.8953Y-4.1398
T3
X6.4567Y-3.0512
X5.6102Y-3.5157
X5.6102Y-5.1693
X6.8307Y-4.3425
X6.4567Y-4.7047
X6.8307Y-3.5157
X7.6772Y-3.0512
X6.4567Y-3.878
X5.6102Y-4.3425
X7.6772Y-4.7047
X7.6772Y-3.878
X6.8307Y-5.1693
T0
M30
