M48
;DRILL file {KiCad 5.0.2-bee76a0~70~ubuntu18.04.1} date Wed 26 Feb 2020 03:16:53 PM CET
;FORMAT={-:-/ absolute / inch / decimal}
FMAT,2
INCH,TZ
T1C0.0118
T2C0.0591
%
G90
G05
T1
X7.7874Y-4.0413
X7.7874Y-4.0568
X7.7874Y-4.0722
X7.7874Y-4.0876
X7.7874Y-4.103
X7.7874Y-4.1184
X7.7874Y-4.1339
X7.7874Y-4.1493
X7.7874Y-4.1647
X7.7874Y-4.1801
X7.7874Y-4.1955
X7.7874Y-4.211
X7.7874Y-4.2264
X7.1909Y-4.5945
X7.2064Y-4.5945
X7.2218Y-4.5945
X7.2372Y-4.5945
X7.2526Y-4.5945
X7.268Y-4.5945
X7.2835Y-4.5945
X7.2989Y-4.5945
X7.3143Y-4.5945
X7.3297Y-4.5945
X7.3451Y-4.5945
X7.3606Y-4.5945
X7.376Y-4.5945
X6.7165Y-4.002
X6.7165Y-4.0174
X6.7165Y-4.0328
X6.7165Y-4.0482
X6.7165Y-4.0636
X6.7165Y-4.0791
X6.7165Y-4.0945
X6.7165Y-4.1099
X6.7165Y-4.1253
X6.7165Y-4.1407
X6.7165Y-4.1562
X6.7165Y-4.1716
X6.7165Y-4.187
X5.9311Y-5.2795
X5.9465Y-5.2795
X5.9619Y-5.2795
X5.9774Y-5.2795
X5.9928Y-5.2795
X6.0082Y-5.2795
X6.0236Y-5.2795
X6.039Y-5.2795
X6.0545Y-5.2795
X6.0699Y-5.2795
X6.0853Y-5.2795
X6.1007Y-5.2795
X6.1161Y-5.2795
X7.9134Y-2.9134
X7.9291Y-2.9134
X7.9449Y-2.9134
X7.9606Y-2.9134
X7.9764Y-2.9134
X7.9921Y-2.9134
X5.4961Y-4.002
X5.4961Y-4.0174
X5.4961Y-4.0328
X5.4961Y-4.0482
X5.4961Y-4.0636
X5.4961Y-4.0791
X5.4961Y-4.0945
X5.4961Y-4.1099
X5.4961Y-4.1253
X5.4961Y-4.1407
X5.4961Y-4.1562
X5.4961Y-4.1716
X5.4961Y-4.187
X5.9311Y-4.4528
X5.9465Y-4.4528
X5.9619Y-4.4528
X5.9774Y-4.4528
X5.9928Y-4.4528
X6.0082Y-4.4528
X6.0236Y-4.4528
X6.039Y-4.4528
X6.0545Y-4.4528
X6.0699Y-4.4528
X6.0853Y-4.4528
X6.1007Y-4.4528
X6.1161Y-4.4528
X7.7874Y-3.2146
X7.7874Y-3.23
X7.7874Y-3.2454
X7.7874Y-3.2608
X7.7874Y-3.2762
X7.7874Y-3.2917
X7.7874Y-3.3071
X7.7874Y-3.3225
X7.7874Y-3.3379
X7.7874Y-3.3533
X7.7874Y-3.3688
X7.7874Y-3.3842
X7.7874Y-3.3996
X5.8917Y-3.7677
X5.9072Y-3.7677
X5.9226Y-3.7677
X5.938Y-3.7677
X5.9534Y-3.7677
X5.9688Y-3.7677
X5.9843Y-3.7677
X5.9997Y-3.7677
X6.0151Y-3.7677
X6.0305Y-3.7677
X6.0459Y-3.7677
X6.0614Y-3.7677
X6.0768Y-3.7677
X6.5669Y-4.002
X6.5669Y-4.0174
X6.5669Y-4.0328
X6.5669Y-4.0482
X6.5669Y-4.0636
X6.5669Y-4.0791
X6.5669Y-4.0945
X6.5669Y-4.1099
X6.5669Y-4.1253
X6.5669Y-4.1407
X6.5669Y-4.1562
X6.5669Y-4.1716
X6.5669Y-4.187
X7.1516Y-3.7677
X7.167Y-3.7677
X7.1824Y-3.7677
X7.1978Y-3.7677
X7.2133Y-3.7677
X7.2287Y-3.7677
X7.2441Y-3.7677
X7.2595Y-3.7677
X7.2749Y-3.7677
X7.2904Y-3.7677
X7.3058Y-3.7677
X7.3212Y-3.7677
X7.3366Y-3.7677
X6.7165Y-3.2146
X6.7165Y-3.23
X6.7165Y-3.2454
X6.7165Y-3.2608
X6.7165Y-3.2762
X6.7165Y-3.2917
X6.7165Y-3.3071
X6.7165Y-3.3225
X6.7165Y-3.3379
X6.7165Y-3.3533
X6.7165Y-3.3688
X6.7165Y-3.3842
X6.7165Y-3.3996
X7.7874Y-4.8681
X7.7874Y-4.8835
X7.7874Y-4.8989
X7.7874Y-4.9144
X7.7874Y-4.9298
X7.7874Y-4.9452
X7.7874Y-4.9606
X7.7874Y-4.976
X7.7874Y-4.9915
X7.7874Y-5.0069
X7.7874Y-5.0223
X7.7874Y-5.0377
X7.7874Y-5.0531
X7.1909Y-4.4528
X7.2064Y-4.4528
X7.2218Y-4.4528
X7.2372Y-4.4528
X7.2526Y-4.4528
X7.268Y-4.4528
X7.2835Y-4.4528
X7.2989Y-4.4528
X7.3143Y-4.4528
X7.3297Y-4.4528
X7.3451Y-4.4528
X7.3606Y-4.4528
X7.376Y-4.4528
X5.8917Y-3.626
X5.9072Y-3.626
X5.9226Y-3.626
X5.938Y-3.626
X5.9534Y-3.626
X5.9688Y-3.626
X5.9843Y-3.626
X5.9997Y-3.626
X6.0151Y-3.626
X6.0305Y-3.626
X6.0459Y-3.626
X6.0614Y-3.626
X6.0768Y-3.626
X5.4961Y-4.8681
X5.4961Y-4.8835
X5.4961Y-4.899
X5.4961Y-4.9144
X5.4961Y-4.9298
X5.4961Y-4.9452
X5.4961Y-4.9606
X5.4961Y-4.9761
X5.4961Y-4.9915
X5.4961Y-5.0069
X5.4961Y-5.0223
X5.4961Y-5.0377
X5.4961Y-5.0532
X7.1516Y-2.9409
X7.167Y-2.9409
X7.1824Y-2.9409
X7.1978Y-2.9409
X7.2133Y-2.9409
X7.2287Y-2.9409
X7.2441Y-2.9409
X7.2595Y-2.9409
X7.2749Y-2.9409
X7.2904Y-2.9409
X7.3058Y-2.9409
X7.3212Y-2.9409
X7.3366Y-2.9409
X6.5669Y-4.8681
X6.5669Y-4.8835
X6.5669Y-4.8989
X6.5669Y-4.9144
X6.5669Y-4.9298
X6.5669Y-4.9452
X6.5669Y-4.9606
X6.5669Y-4.976
X6.5669Y-4.9915
X6.5669Y-5.0069
X6.5669Y-5.0223
X6.5669Y-5.0377
X6.5669Y-5.0531
X5.315Y-2.9134
X5.3307Y-2.9134
X5.3465Y-2.9134
X5.3622Y-2.9134
X5.378Y-2.9134
X5.3937Y-2.9134
X5.8917Y-2.9409
X5.9072Y-2.9409
X5.9226Y-2.9409
X5.938Y-2.9409
X5.9534Y-2.9409
X5.9688Y-2.9409
X5.9843Y-2.9409
X5.9997Y-2.9409
X6.0151Y-2.9409
X6.0305Y-2.9409
X6.0459Y-2.9409
X6.0614Y-2.9409
X6.0768Y-2.9409
X5.9311Y-4.5945
X5.9465Y-4.5945
X5.9619Y-4.5945
X5.9774Y-4.5945
X5.9928Y-4.5945
X6.0082Y-4.5945
X6.0236Y-4.5945
X6.039Y-4.5945
X6.0545Y-4.5945
X6.0699Y-4.5945
X6.0853Y-4.5945
X6.1007Y-4.5945
X6.1161Y-4.5945
X5.315Y-5.315
X5.3307Y-5.315
X5.3465Y-5.315
X5.3622Y-5.315
X5.378Y-5.315
X5.3937Y-5.315
X6.5669Y-3.2146
X6.5669Y-3.23
X6.5669Y-3.2454
X6.5669Y-3.2608
X6.5669Y-3.2762
X6.5669Y-3.2917
X6.5669Y-3.3071
X6.5669Y-3.3225
X6.5669Y-3.3379
X6.5669Y-3.3533
X6.5669Y-3.3688
X6.5669Y-3.3842
X6.5669Y-3.3996
X6.7165Y-4.8681
X6.7165Y-4.8835
X6.7165Y-4.899
X6.7165Y-4.9144
X6.7165Y-4.9298
X6.7165Y-4.9452
X6.7165Y-4.9606
X6.7165Y-4.9761
X6.7165Y-4.9915
X6.7165Y-5.0069
X6.7165Y-5.0223
X6.7165Y-5.0377
X6.7165Y-5.0532
X7.1516Y-3.626
X7.167Y-3.626
X7.1824Y-3.626
X7.1978Y-3.626
X7.2133Y-3.626
X7.2287Y-3.626
X7.2441Y-3.626
X7.2595Y-3.626
X7.2749Y-3.626
X7.2904Y-3.626
X7.3058Y-3.626
X7.3212Y-3.626
X7.3366Y-3.626
X7.1909Y-5.2795
X7.2064Y-5.2795
X7.2218Y-5.2795
X7.2372Y-5.2795
X7.2526Y-5.2795
X7.268Y-5.2795
X7.2835Y-5.2795
X7.2989Y-5.2795
X7.3143Y-5.2795
X7.3297Y-5.2795
X7.3451Y-5.2795
X7.3606Y-5.2795
X7.376Y-5.2795
X5.4961Y-3.1752
X5.4961Y-3.1906
X5.4961Y-3.206
X5.4961Y-3.2215
X5.4961Y-3.2369
X5.4961Y-3.2523
X5.4961Y-3.2677
X5.4961Y-3.2831
X5.4961Y-3.2986
X5.4961Y-3.314
X5.4961Y-3.3294
X5.4961Y-3.3448
X5.4961Y-3.3602
T2
X7.6762Y-4.873
X6.8661Y-3.8346
X6.8661Y-4.6614
X5.6457Y-3.8346
X7.6762Y-3.2195
X6.4557Y-4.873
X5.6457Y-3.0079
X5.6457Y-4.6614
X6.4557Y-3.2195
X6.8661Y-3.0079
X7.6762Y-4.0463
X6.4557Y-4.0463
T0
M30
