M48
;DRILL file {KiCad 5.0.2-bee76a0~70~ubuntu18.04.1} date Thu 21 Nov 2019 08:22:13 PM CET
;FORMAT={-:-/ absolute / inch / decimal}
FMAT,2
INCH,TZ
T1C0.0118
T2C0.0157
T3C0.0315
T4C0.0394
%
G90
G05
T1
X3.735Y-4.365
X3.7532Y-4.438
X3.8Y-4.43
X3.925Y-4.43
X3.93Y-4.345
X3.9925Y-4.225
X4.0109Y-4.2819
X4.0225Y-4.225
X4.0359Y-4.2819
X4.0525Y-4.225
X4.055Y-4.325
X4.0825Y-4.2175
X4.105Y-4.2
X4.1132Y-4.303
X4.1275Y-4.1775
X4.145Y-4.1525
X4.765Y-4.78
X4.8Y-4.675
X4.921Y-5.0672
X4.9627Y-5.0373
X4.9827Y-5.069
X5.085Y-4.96
X5.1375Y-4.885
X5.14Y-4.925
X5.145Y-4.985
X5.189Y-4.8425
X5.189Y-4.88
X5.5727Y-5.1181
X5.6102Y-5.1181
X5.6496Y-5.1181
T2
X3.7008Y-4.6378
X3.7036Y-4.685
X3.7126Y-5.3465
X3.7283Y-4.748
X3.8189Y-4.5945
X3.8346Y-4.7953
X3.8446Y-4.4191
X3.8701Y-5.3583
X3.8858Y-4.6181
X3.937Y-4.7913
X3.9488Y-5.0984
X3.9528Y-4.9331
X3.9528Y-4.9961
X3.9528Y-5.0591
X3.9528Y-5.1614
X3.9685Y-4.9646
X3.9685Y-5.0276
X3.9685Y-5.1299
X3.9685Y-5.1929
X3.9843Y-5.0984
X3.9868Y-4.6161
X3.9882Y-4.9331
X3.9882Y-4.9961
X3.9882Y-5.0591
X3.9882Y-5.1614
X4.0039Y-4.9646
X4.0039Y-5.0276
X4.0039Y-5.1299
X4.0039Y-5.1929
X4.0197Y-5.0984
X4.0236Y-4.9331
X4.0236Y-4.9961
X4.0236Y-5.0591
X4.0236Y-5.1614
X4.0354Y-5.3465
X4.0394Y-4.7835
X4.0394Y-4.9646
X4.0394Y-5.0276
X4.0394Y-5.1299
X4.0394Y-5.1929
X4.0551Y-5.0984
X4.0591Y-4.9331
X4.0591Y-4.9961
X4.0591Y-5.0591
X4.0591Y-5.1614
X4.0748Y-4.9646
X4.0748Y-5.0276
X4.0748Y-5.1299
X4.0748Y-5.1929
X4.0866Y-4.6142
X4.1014Y-5.2815
X4.1361Y-4.7756
X4.1693Y-5.3741
X4.2362Y-4.7598
X4.248Y-4.2913
X4.4134Y-4.8189
X4.4252Y-4.5405
X4.4449Y-4.2165
X4.5472Y-5.0472
X4.5591Y-4.685
X4.563Y-4.2953
X4.6181Y-4.6811
X4.7205Y-4.4449
X4.7205Y-5.437
X4.7677Y-4.8307
X4.795Y-4.73
X4.795Y-4.8975
X4.8189Y-4.1378
X4.825Y-4.705
X4.8344Y-4.9879
X4.8543Y-4.3307
X4.9291Y-4.2402
X5.0276Y-4.1417
X5.0276Y-4.4016
X5.0753Y-4.6973
X5.105Y-4.905
X5.1457Y-4.3701
X5.1693Y-4.4173
X5.2394Y-5.2029
X5.2494Y-4.7229
X5.3976Y-4.2913
X5.4003Y-4.3287
X5.4134Y-4.1772
X5.5276Y-4.9961
X5.5276Y-5.0276
X5.5276Y-5.0591
X5.5295Y-5.2323
X5.5295Y-5.2638
X5.5295Y-5.2953
X5.5315Y-4.7559
X5.5315Y-4.7874
X5.5315Y-4.8189
X5.563Y-4.9961
X5.563Y-5.0276
X5.563Y-5.0591
X5.563Y-5.2323
X5.563Y-5.2638
X5.563Y-5.2953
X5.5669Y-4.7559
X5.5669Y-4.7874
X5.5669Y-4.8189
X5.5746Y-4.8858
X5.5746Y-5.3543
X5.5866Y-4.25
X5.6121Y-4.8858
X5.6121Y-5.3543
X5.6496Y-4.8858
X5.6496Y-5.3543
X5.6929Y-3.9961
X5.7246Y-4.509
X5.748Y-4.5866
X5.7874Y-4.0315
X5.7992Y-4.5866
X5.8443Y-4.0394
X5.8443Y-4.0827
X5.8504Y-4.5866
X5.8898Y-3.9597
X5.9055Y-4.5866
X5.9341Y-4.459
X5.9567Y-3.9597
X6.0009Y-4.1102
X6.0009Y-4.2047
T3
X4.303Y-5.3984
X4.353Y-5.2984
X4.403Y-5.3984
X4.453Y-5.2984
X3.8307Y-4.1654
X3.8807Y-4.0654
X3.9307Y-4.1654
X3.9807Y-4.0654
X4.0307Y-4.1654
X4.0807Y-4.0654
T4
X4.2834Y-4.6077
X4.3834Y-4.6077
X4.4834Y-4.6077
X4.5834Y-4.6077
X4.6834Y-4.6077
X4.7834Y-4.6077
X4.8834Y-4.6077
X4.9834Y-4.6077
X5.0834Y-4.6077
X5.1834Y-4.6077
X5.2834Y-4.6077
X5.3834Y-4.6077
X5.4834Y-4.6077
X5.5834Y-4.6077
X5.944Y-4.698
X5.944Y-4.798
X5.944Y-4.898
X5.944Y-4.998
X5.944Y-5.098
X5.944Y-5.198
X5.944Y-5.298
X5.944Y-5.398
X4.2834Y-4.0093
X4.3834Y-4.0093
X4.4834Y-4.0093
X4.5834Y-4.0093
X4.6834Y-4.0093
X4.7834Y-4.0093
X4.8834Y-4.0093
X4.9834Y-4.0093
X5.0834Y-4.0093
X5.1834Y-4.0093
X5.2834Y-4.0093
X5.3834Y-4.0093
X5.4834Y-4.0093
X5.5834Y-4.0093
T0
M30
