G04 #@! TF.GenerationSoftware,KiCad,Pcbnew,5.0.2-bee76a0~70~ubuntu18.04.1*
G04 #@! TF.CreationDate,2019-11-21T20:22:08+01:00*
G04 #@! TF.ProjectId,board,626f6172-642e-46b6-9963-61645f706362,rev?*
G04 #@! TF.SameCoordinates,Original*
G04 #@! TF.FileFunction,Legend,Top*
G04 #@! TF.FilePolarity,Positive*
%FSLAX46Y46*%
G04 Gerber Fmt 4.6, Leading zero omitted, Abs format (unit mm)*
G04 Created by KiCad (PCBNEW 5.0.2-bee76a0~70~ubuntu18.04.1) date Thu 21 Nov 2019 08:22:08 PM CET*
%MOMM*%
%LPD*%
G01*
G04 APERTURE LIST*
%ADD10C,0.120000*%
%ADD11C,0.300000*%
%ADD12C,0.150000*%
%ADD13C,0.010000*%
%ADD14C,0.060000*%
%ADD15C,0.127000*%
G04 APERTURE END LIST*
D10*
X125900000Y-109700000D02*
X126000000Y-109800000D01*
D11*
X109347142Y-129810000D02*
X109204285Y-129714761D01*
X108990000Y-129714761D01*
X108775714Y-129810000D01*
X108632857Y-130000476D01*
X108561428Y-130190952D01*
X108490000Y-130571904D01*
X108490000Y-130857619D01*
X108561428Y-131238571D01*
X108632857Y-131429047D01*
X108775714Y-131619523D01*
X108990000Y-131714761D01*
X109132857Y-131714761D01*
X109347142Y-131619523D01*
X109418571Y-131524285D01*
X109418571Y-130857619D01*
X109132857Y-130857619D01*
X110061428Y-131714761D02*
X110061428Y-129714761D01*
X110918571Y-131714761D01*
X110918571Y-129714761D01*
X111632857Y-131714761D02*
X111632857Y-129714761D01*
X111990000Y-129714761D01*
X112204285Y-129810000D01*
X112347142Y-130000476D01*
X112418571Y-130190952D01*
X112490000Y-130571904D01*
X112490000Y-130857619D01*
X112418571Y-131238571D01*
X112347142Y-131429047D01*
X112204285Y-131619523D01*
X111990000Y-131714761D01*
X111632857Y-131714761D01*
D12*
X120923809Y-114252380D02*
X120923809Y-113252380D01*
X120923809Y-113633333D02*
X121019047Y-113585714D01*
X121209523Y-113585714D01*
X121304761Y-113633333D01*
X121352380Y-113680952D01*
X121400000Y-113776190D01*
X121400000Y-114061904D01*
X121352380Y-114157142D01*
X121304761Y-114204761D01*
X121209523Y-114252380D01*
X121019047Y-114252380D01*
X120923809Y-114204761D01*
X121971428Y-114252380D02*
X121876190Y-114204761D01*
X121828571Y-114109523D01*
X121828571Y-113252380D01*
X122780952Y-114252380D02*
X122780952Y-113252380D01*
X122780952Y-114204761D02*
X122685714Y-114252380D01*
X122495238Y-114252380D01*
X122400000Y-114204761D01*
X122352380Y-114157142D01*
X122304761Y-114061904D01*
X122304761Y-113776190D01*
X122352380Y-113680952D01*
X122400000Y-113633333D01*
X122495238Y-113585714D01*
X122685714Y-113585714D01*
X122780952Y-113633333D01*
X123685714Y-114204761D02*
X123590476Y-114252380D01*
X123400000Y-114252380D01*
X123304761Y-114204761D01*
X123257142Y-114157142D01*
X123209523Y-114061904D01*
X123209523Y-113776190D01*
X123257142Y-113680952D01*
X123304761Y-113633333D01*
X123400000Y-113585714D01*
X123590476Y-113585714D01*
X123685714Y-113633333D01*
X123876190Y-114347619D02*
X124638095Y-114347619D01*
X124876190Y-114252380D02*
X124876190Y-113585714D01*
X124876190Y-113680952D02*
X124923809Y-113633333D01*
X125019047Y-113585714D01*
X125161904Y-113585714D01*
X125257142Y-113633333D01*
X125304761Y-113728571D01*
X125304761Y-114252380D01*
X125304761Y-113728571D02*
X125352380Y-113633333D01*
X125447619Y-113585714D01*
X125590476Y-113585714D01*
X125685714Y-113633333D01*
X125733333Y-113728571D01*
X125733333Y-114252380D01*
X126352380Y-114252380D02*
X126257142Y-114204761D01*
X126209523Y-114157142D01*
X126161904Y-114061904D01*
X126161904Y-113776190D01*
X126209523Y-113680952D01*
X126257142Y-113633333D01*
X126352380Y-113585714D01*
X126495238Y-113585714D01*
X126590476Y-113633333D01*
X126638095Y-113680952D01*
X126685714Y-113776190D01*
X126685714Y-114061904D01*
X126638095Y-114157142D01*
X126590476Y-114204761D01*
X126495238Y-114252380D01*
X126352380Y-114252380D01*
X126971428Y-113585714D02*
X127352380Y-113585714D01*
X127114285Y-113252380D02*
X127114285Y-114109523D01*
X127161904Y-114204761D01*
X127257142Y-114252380D01*
X127352380Y-114252380D01*
X127828571Y-114252380D02*
X127733333Y-114204761D01*
X127685714Y-114157142D01*
X127638095Y-114061904D01*
X127638095Y-113776190D01*
X127685714Y-113680952D01*
X127733333Y-113633333D01*
X127828571Y-113585714D01*
X127971428Y-113585714D01*
X128066666Y-113633333D01*
X128114285Y-113680952D01*
X128161904Y-113776190D01*
X128161904Y-114061904D01*
X128114285Y-114157142D01*
X128066666Y-114204761D01*
X127971428Y-114252380D01*
X127828571Y-114252380D01*
X128590476Y-114252380D02*
X128590476Y-113585714D01*
X128590476Y-113776190D02*
X128638095Y-113680952D01*
X128685714Y-113633333D01*
X128780952Y-113585714D01*
X128876190Y-113585714D01*
X129209523Y-114252380D02*
X129209523Y-113252380D01*
X129209523Y-113633333D02*
X129304761Y-113585714D01*
X129495238Y-113585714D01*
X129590476Y-113633333D01*
X129638095Y-113680952D01*
X129685714Y-113776190D01*
X129685714Y-114061904D01*
X129638095Y-114157142D01*
X129590476Y-114204761D01*
X129495238Y-114252380D01*
X129304761Y-114252380D01*
X129209523Y-114204761D01*
X130257142Y-114252380D02*
X130161904Y-114204761D01*
X130114285Y-114157142D01*
X130066666Y-114061904D01*
X130066666Y-113776190D01*
X130114285Y-113680952D01*
X130161904Y-113633333D01*
X130257142Y-113585714D01*
X130400000Y-113585714D01*
X130495238Y-113633333D01*
X130542857Y-113680952D01*
X130590476Y-113776190D01*
X130590476Y-114061904D01*
X130542857Y-114157142D01*
X130495238Y-114204761D01*
X130400000Y-114252380D01*
X130257142Y-114252380D01*
X131447619Y-114252380D02*
X131447619Y-113728571D01*
X131400000Y-113633333D01*
X131304761Y-113585714D01*
X131114285Y-113585714D01*
X131019047Y-113633333D01*
X131447619Y-114204761D02*
X131352380Y-114252380D01*
X131114285Y-114252380D01*
X131019047Y-114204761D01*
X130971428Y-114109523D01*
X130971428Y-114014285D01*
X131019047Y-113919047D01*
X131114285Y-113871428D01*
X131352380Y-113871428D01*
X131447619Y-113823809D01*
X131923809Y-114252380D02*
X131923809Y-113585714D01*
X131923809Y-113776190D02*
X131971428Y-113680952D01*
X132019047Y-113633333D01*
X132114285Y-113585714D01*
X132209523Y-113585714D01*
X132971428Y-114252380D02*
X132971428Y-113252380D01*
X132971428Y-114204761D02*
X132876190Y-114252380D01*
X132685714Y-114252380D01*
X132590476Y-114204761D01*
X132542857Y-114157142D01*
X132495238Y-114061904D01*
X132495238Y-113776190D01*
X132542857Y-113680952D01*
X132590476Y-113633333D01*
X132685714Y-113585714D01*
X132876190Y-113585714D01*
X132971428Y-113633333D01*
X133209523Y-114347619D02*
X133971428Y-114347619D01*
X134114285Y-113585714D02*
X134352380Y-114252380D01*
X134590476Y-113585714D01*
X135161904Y-113252380D02*
X135257142Y-113252380D01*
X135352380Y-113300000D01*
X135400000Y-113347619D01*
X135447619Y-113442857D01*
X135495238Y-113633333D01*
X135495238Y-113871428D01*
X135447619Y-114061904D01*
X135400000Y-114157142D01*
X135352380Y-114204761D01*
X135257142Y-114252380D01*
X135161904Y-114252380D01*
X135066666Y-114204761D01*
X135019047Y-114157142D01*
X134971428Y-114061904D01*
X134923809Y-113871428D01*
X134923809Y-113633333D01*
X134971428Y-113442857D01*
X135019047Y-113347619D01*
X135066666Y-113300000D01*
X135161904Y-113252380D01*
X135923809Y-114157142D02*
X135971428Y-114204761D01*
X135923809Y-114252380D01*
X135876190Y-114204761D01*
X135923809Y-114157142D01*
X135923809Y-114252380D01*
X136828571Y-113252380D02*
X136638095Y-113252380D01*
X136542857Y-113300000D01*
X136495238Y-113347619D01*
X136400000Y-113490476D01*
X136352380Y-113680952D01*
X136352380Y-114061904D01*
X136400000Y-114157142D01*
X136447619Y-114204761D01*
X136542857Y-114252380D01*
X136733333Y-114252380D01*
X136828571Y-114204761D01*
X136876190Y-114157142D01*
X136923809Y-114061904D01*
X136923809Y-113823809D01*
X136876190Y-113728571D01*
X136828571Y-113680952D01*
X136733333Y-113633333D01*
X136542857Y-113633333D01*
X136447619Y-113680952D01*
X136400000Y-113728571D01*
X136352380Y-113823809D01*
D10*
G04 #@! TO.C,C32*
X118035000Y-120391422D02*
X118035000Y-120908578D01*
X119455000Y-120391422D02*
X119455000Y-120908578D01*
G04 #@! TO.C,J6*
X143148000Y-101836000D02*
X143148000Y-103166000D01*
X143148000Y-103166000D02*
X141818000Y-103166000D01*
X140548000Y-103166000D02*
X107468000Y-103166000D01*
X107468000Y-100506000D02*
X107468000Y-103166000D01*
X140548000Y-100506000D02*
X107468000Y-100506000D01*
X140548000Y-100506000D02*
X140548000Y-103166000D01*
G04 #@! TO.C,Q2*
X141150000Y-132850000D02*
X138020000Y-132850000D01*
X140480000Y-129250000D02*
X138020000Y-129250000D01*
G04 #@! TO.C,D4*
X97350000Y-138850000D02*
X97350000Y-132950000D01*
X101250000Y-138850000D02*
X101250000Y-132950000D01*
X101250000Y-132950000D02*
X100175000Y-132950000D01*
G04 #@! TO.C,D5*
X97150000Y-132950000D02*
X96075000Y-132950000D01*
X97150000Y-138850000D02*
X97150000Y-132950000D01*
X93250000Y-138850000D02*
X93250000Y-132950000D01*
G04 #@! TO.C,C21*
X129010000Y-130841422D02*
X129010000Y-131358578D01*
X127590000Y-130841422D02*
X127590000Y-131358578D01*
G04 #@! TO.C,C19*
X133290000Y-130841422D02*
X133290000Y-131358578D01*
X134710000Y-130841422D02*
X134710000Y-131358578D01*
G04 #@! TO.C,C18*
X132810000Y-130841422D02*
X132810000Y-131358578D01*
X131390000Y-130841422D02*
X131390000Y-131358578D01*
G04 #@! TO.C,C25*
X115590000Y-132610000D02*
X117940000Y-132610000D01*
X122410000Y-132610000D02*
X120060000Y-132610000D01*
X122410000Y-126854437D02*
X122410000Y-132610000D01*
X115590000Y-126854437D02*
X115590000Y-132610000D01*
X116654437Y-125790000D02*
X117940000Y-125790000D01*
X121345563Y-125790000D02*
X120060000Y-125790000D01*
X121345563Y-125790000D02*
X122410000Y-126854437D01*
X116654437Y-125790000D02*
X115590000Y-126854437D01*
X120847500Y-124762500D02*
X120847500Y-125550000D01*
X121241250Y-125156250D02*
X120453750Y-125156250D01*
G04 #@! TO.C,J7*
X140548000Y-115706000D02*
X140548000Y-118366000D01*
X140548000Y-115706000D02*
X107468000Y-115706000D01*
X107468000Y-115706000D02*
X107468000Y-118366000D01*
X140548000Y-118366000D02*
X107468000Y-118366000D01*
X143148000Y-118366000D02*
X141818000Y-118366000D01*
X143148000Y-117036000D02*
X143148000Y-118366000D01*
G04 #@! TO.C,J2*
X152307600Y-138439200D02*
X150977600Y-138439200D01*
X152307600Y-137109200D02*
X152307600Y-138439200D01*
X152307600Y-135839200D02*
X149647600Y-135839200D01*
X149647600Y-135839200D02*
X149647600Y-117999200D01*
X152307600Y-135839200D02*
X152307600Y-117999200D01*
X152307600Y-117999200D02*
X149647600Y-117999200D01*
G04 #@! TO.C,D1*
X117628733Y-138410000D02*
X117971267Y-138410000D01*
X117628733Y-137390000D02*
X117971267Y-137390000D01*
D12*
G04 #@! TO.C,J3*
X108150000Y-124700000D02*
X93150000Y-124700000D01*
X108150000Y-132700000D02*
X108150000Y-124700000D01*
X93150000Y-132700000D02*
X108150000Y-132700000D01*
X93150000Y-124700000D02*
X93150000Y-132700000D01*
X96150000Y-132700000D02*
X96150000Y-132100000D01*
X96150000Y-129300000D02*
X96150000Y-128100000D01*
X96150000Y-124700000D02*
X96150000Y-125300000D01*
D10*
G04 #@! TO.C,Q1*
X141150000Y-126855000D02*
X138020000Y-126855000D01*
X140480000Y-123255000D02*
X138020000Y-123255000D01*
G04 #@! TO.C,Q4*
X141900000Y-120500000D02*
X145030000Y-120500000D01*
X142570000Y-124100000D02*
X145030000Y-124100000D01*
G04 #@! TO.C,Q5*
X141900000Y-126450000D02*
X145030000Y-126450000D01*
X142570000Y-130050000D02*
X145030000Y-130050000D01*
G04 #@! TO.C,Q3*
X141150000Y-138800000D02*
X138020000Y-138800000D01*
X140480000Y-135200000D02*
X138020000Y-135200000D01*
G04 #@! TO.C,Q6*
X141900000Y-132450000D02*
X145030000Y-132450000D01*
X142570000Y-136050000D02*
X145030000Y-136050000D01*
G04 #@! TO.C,C27*
X123790000Y-130841422D02*
X123790000Y-131358578D01*
X125210000Y-130841422D02*
X125210000Y-131358578D01*
G04 #@! TO.C,C20*
X125690000Y-130841422D02*
X125690000Y-131358578D01*
X127110000Y-130841422D02*
X127110000Y-131358578D01*
G04 #@! TO.C,C7*
X129490000Y-130841422D02*
X129490000Y-131358578D01*
X130910000Y-130841422D02*
X130910000Y-131358578D01*
G04 #@! TO.C,J5*
X99840000Y-107330000D02*
X105525000Y-107330000D01*
X105525000Y-107330000D02*
X105525000Y-101730000D01*
X95425000Y-101730000D02*
X105525000Y-101730000D01*
X95425000Y-103260000D02*
X95425000Y-101730000D01*
X96700000Y-104530000D02*
X98570000Y-104530000D01*
X98570000Y-104530000D02*
X98570000Y-106400000D01*
X97300000Y-107330000D02*
X95425000Y-107330000D01*
X95425000Y-107330000D02*
X95425000Y-105800000D01*
G04 #@! TO.C,D3*
X101350000Y-138850000D02*
X101350000Y-132950000D01*
X105250000Y-138850000D02*
X105250000Y-132950000D01*
X105250000Y-132950000D02*
X104175000Y-132950000D01*
G04 #@! TO.C,J9*
X111835000Y-138650000D02*
X114950000Y-138650000D01*
X114950000Y-138650000D02*
X114950000Y-133050000D01*
X107450000Y-133050000D02*
X114950000Y-133050000D01*
X107450000Y-134580000D02*
X107450000Y-133050000D01*
X108695000Y-135850000D02*
X110565000Y-135850000D01*
X110565000Y-135850000D02*
X110565000Y-137720000D01*
X109295000Y-138650000D02*
X107450000Y-138650000D01*
X107450000Y-138650000D02*
X107450000Y-137120000D01*
G04 #@! TO.C,C30*
X136610000Y-130841422D02*
X136610000Y-131358578D01*
X135190000Y-130841422D02*
X135190000Y-131358578D01*
D13*
G04 #@! TO.C,H3*
G36*
X130578201Y-135239738D02*
X130598348Y-135241965D01*
X130615863Y-135245564D01*
X130631188Y-135251308D01*
X130644766Y-135259971D01*
X130657039Y-135272324D01*
X130668450Y-135289140D01*
X130679440Y-135311193D01*
X130690453Y-135339255D01*
X130701931Y-135374099D01*
X130714316Y-135416498D01*
X130728050Y-135467225D01*
X130743577Y-135527052D01*
X130744299Y-135529867D01*
X130761506Y-135602474D01*
X130775540Y-135674276D01*
X130786689Y-135747443D01*
X130795238Y-135824150D01*
X130801474Y-135906569D01*
X130805609Y-135994760D01*
X130806717Y-136028405D01*
X130807222Y-136054525D01*
X130806933Y-136075749D01*
X130805658Y-136094703D01*
X130803208Y-136114014D01*
X130799391Y-136136309D01*
X130794016Y-136164217D01*
X130792872Y-136170020D01*
X130776391Y-136248711D01*
X130758865Y-136323406D01*
X130740546Y-136393339D01*
X130721687Y-136457741D01*
X130702541Y-136515845D01*
X130683359Y-136566882D01*
X130664394Y-136610085D01*
X130645900Y-136644686D01*
X130628657Y-136669293D01*
X130617953Y-136682749D01*
X130603677Y-136701717D01*
X130587975Y-136723311D01*
X130577487Y-136738152D01*
X130551986Y-136772275D01*
X130528222Y-136799201D01*
X130506922Y-136818184D01*
X130489823Y-136828106D01*
X130477848Y-136830698D01*
X130460149Y-136832358D01*
X130445639Y-136832712D01*
X130429049Y-136831866D01*
X130413769Y-136829024D01*
X130396746Y-136823303D01*
X130374929Y-136813818D01*
X130365960Y-136809618D01*
X130343192Y-136797894D01*
X130321706Y-136785181D01*
X130304652Y-136773418D01*
X130298199Y-136767955D01*
X130275298Y-136739710D01*
X130255228Y-136701883D01*
X130237972Y-136654420D01*
X130223507Y-136597269D01*
X130214959Y-136551020D01*
X130212442Y-136533764D01*
X130210422Y-136515587D01*
X130208848Y-136495174D01*
X130207672Y-136471208D01*
X130206843Y-136442375D01*
X130206312Y-136407359D01*
X130206029Y-136364844D01*
X130205945Y-136313516D01*
X130205945Y-136312260D01*
X130206068Y-136255778D01*
X130206514Y-136207431D01*
X130207403Y-136165192D01*
X130208857Y-136127037D01*
X130210997Y-136090942D01*
X130213942Y-136054882D01*
X130217814Y-136016833D01*
X130222734Y-135974769D01*
X130228823Y-135926667D01*
X130229068Y-135924778D01*
X130238126Y-135867754D01*
X130250976Y-135805299D01*
X130267031Y-135739301D01*
X130285706Y-135671648D01*
X130306413Y-135604227D01*
X130328565Y-135538927D01*
X130351577Y-135477635D01*
X130374862Y-135422239D01*
X130397832Y-135374626D01*
X130403030Y-135364937D01*
X130430897Y-135320835D01*
X130461983Y-135283517D01*
X130462588Y-135282896D01*
X130485380Y-135261619D01*
X130506068Y-135247902D01*
X130527763Y-135240583D01*
X130553575Y-135238502D01*
X130578201Y-135239738D01*
X130578201Y-135239738D01*
G37*
X130578201Y-135239738D02*
X130598348Y-135241965D01*
X130615863Y-135245564D01*
X130631188Y-135251308D01*
X130644766Y-135259971D01*
X130657039Y-135272324D01*
X130668450Y-135289140D01*
X130679440Y-135311193D01*
X130690453Y-135339255D01*
X130701931Y-135374099D01*
X130714316Y-135416498D01*
X130728050Y-135467225D01*
X130743577Y-135527052D01*
X130744299Y-135529867D01*
X130761506Y-135602474D01*
X130775540Y-135674276D01*
X130786689Y-135747443D01*
X130795238Y-135824150D01*
X130801474Y-135906569D01*
X130805609Y-135994760D01*
X130806717Y-136028405D01*
X130807222Y-136054525D01*
X130806933Y-136075749D01*
X130805658Y-136094703D01*
X130803208Y-136114014D01*
X130799391Y-136136309D01*
X130794016Y-136164217D01*
X130792872Y-136170020D01*
X130776391Y-136248711D01*
X130758865Y-136323406D01*
X130740546Y-136393339D01*
X130721687Y-136457741D01*
X130702541Y-136515845D01*
X130683359Y-136566882D01*
X130664394Y-136610085D01*
X130645900Y-136644686D01*
X130628657Y-136669293D01*
X130617953Y-136682749D01*
X130603677Y-136701717D01*
X130587975Y-136723311D01*
X130577487Y-136738152D01*
X130551986Y-136772275D01*
X130528222Y-136799201D01*
X130506922Y-136818184D01*
X130489823Y-136828106D01*
X130477848Y-136830698D01*
X130460149Y-136832358D01*
X130445639Y-136832712D01*
X130429049Y-136831866D01*
X130413769Y-136829024D01*
X130396746Y-136823303D01*
X130374929Y-136813818D01*
X130365960Y-136809618D01*
X130343192Y-136797894D01*
X130321706Y-136785181D01*
X130304652Y-136773418D01*
X130298199Y-136767955D01*
X130275298Y-136739710D01*
X130255228Y-136701883D01*
X130237972Y-136654420D01*
X130223507Y-136597269D01*
X130214959Y-136551020D01*
X130212442Y-136533764D01*
X130210422Y-136515587D01*
X130208848Y-136495174D01*
X130207672Y-136471208D01*
X130206843Y-136442375D01*
X130206312Y-136407359D01*
X130206029Y-136364844D01*
X130205945Y-136313516D01*
X130205945Y-136312260D01*
X130206068Y-136255778D01*
X130206514Y-136207431D01*
X130207403Y-136165192D01*
X130208857Y-136127037D01*
X130210997Y-136090942D01*
X130213942Y-136054882D01*
X130217814Y-136016833D01*
X130222734Y-135974769D01*
X130228823Y-135926667D01*
X130229068Y-135924778D01*
X130238126Y-135867754D01*
X130250976Y-135805299D01*
X130267031Y-135739301D01*
X130285706Y-135671648D01*
X130306413Y-135604227D01*
X130328565Y-135538927D01*
X130351577Y-135477635D01*
X130374862Y-135422239D01*
X130397832Y-135374626D01*
X130403030Y-135364937D01*
X130430897Y-135320835D01*
X130461983Y-135283517D01*
X130462588Y-135282896D01*
X130485380Y-135261619D01*
X130506068Y-135247902D01*
X130527763Y-135240583D01*
X130553575Y-135238502D01*
X130578201Y-135239738D01*
G04 #@! TO.C,H4*
G36*
X129328423Y-136401777D02*
X129366263Y-136405066D01*
X129386759Y-136408897D01*
X129438390Y-136425874D01*
X129483060Y-136449654D01*
X129520646Y-136479527D01*
X129551024Y-136514781D01*
X129574071Y-136554703D01*
X129589661Y-136598583D01*
X129597672Y-136645708D01*
X129597980Y-136695366D01*
X129590461Y-136746846D01*
X129574990Y-136799436D01*
X129551445Y-136852424D01*
X129519701Y-136905099D01*
X129481669Y-136954398D01*
X129432024Y-137005506D01*
X129377034Y-137050255D01*
X129317863Y-137088142D01*
X129255678Y-137118666D01*
X129191645Y-137141325D01*
X129126929Y-137155617D01*
X129062695Y-137161041D01*
X129008218Y-137158169D01*
X128953393Y-137147107D01*
X128904297Y-137128036D01*
X128861371Y-137101148D01*
X128842887Y-137085333D01*
X128811140Y-137051436D01*
X128788000Y-137016962D01*
X128772118Y-136979320D01*
X128762141Y-136935916D01*
X128760986Y-136928145D01*
X128758426Y-136873755D01*
X128765286Y-136818691D01*
X128780934Y-136763752D01*
X128794275Y-136733475D01*
X129159164Y-136733475D01*
X129161545Y-136755112D01*
X129174506Y-136799304D01*
X129195689Y-136838657D01*
X129224198Y-136872122D01*
X129259137Y-136898653D01*
X129299610Y-136917204D01*
X129300453Y-136917481D01*
X129320411Y-136921460D01*
X129347461Y-136923152D01*
X129365684Y-136922976D01*
X129389938Y-136921571D01*
X129408324Y-136918634D01*
X129425122Y-136913176D01*
X129442690Y-136905155D01*
X129479679Y-136881788D01*
X129510282Y-136851948D01*
X129533754Y-136817048D01*
X129549349Y-136778504D01*
X129556322Y-136737728D01*
X129553925Y-136696134D01*
X129553670Y-136694722D01*
X129540966Y-136652824D01*
X129519644Y-136614438D01*
X129490985Y-136581215D01*
X129456270Y-136554806D01*
X129437445Y-136544858D01*
X129407518Y-136535350D01*
X129372396Y-136530786D01*
X129335790Y-136531225D01*
X129301413Y-136536724D01*
X129283531Y-136542426D01*
X129248383Y-136561486D01*
X129217691Y-136587944D01*
X129192440Y-136620087D01*
X129173613Y-136656199D01*
X129162193Y-136694567D01*
X129159164Y-136733475D01*
X128794275Y-136733475D01*
X128804736Y-136709736D01*
X128836061Y-136657441D01*
X128874274Y-136607666D01*
X128918745Y-136561207D01*
X128968840Y-136518864D01*
X129023926Y-136481434D01*
X129083370Y-136449716D01*
X129146541Y-136424507D01*
X129164886Y-136418701D01*
X129201263Y-136410238D01*
X129242757Y-136404503D01*
X129286199Y-136401636D01*
X129328423Y-136401777D01*
X129328423Y-136401777D01*
G37*
X129328423Y-136401777D02*
X129366263Y-136405066D01*
X129386759Y-136408897D01*
X129438390Y-136425874D01*
X129483060Y-136449654D01*
X129520646Y-136479527D01*
X129551024Y-136514781D01*
X129574071Y-136554703D01*
X129589661Y-136598583D01*
X129597672Y-136645708D01*
X129597980Y-136695366D01*
X129590461Y-136746846D01*
X129574990Y-136799436D01*
X129551445Y-136852424D01*
X129519701Y-136905099D01*
X129481669Y-136954398D01*
X129432024Y-137005506D01*
X129377034Y-137050255D01*
X129317863Y-137088142D01*
X129255678Y-137118666D01*
X129191645Y-137141325D01*
X129126929Y-137155617D01*
X129062695Y-137161041D01*
X129008218Y-137158169D01*
X128953393Y-137147107D01*
X128904297Y-137128036D01*
X128861371Y-137101148D01*
X128842887Y-137085333D01*
X128811140Y-137051436D01*
X128788000Y-137016962D01*
X128772118Y-136979320D01*
X128762141Y-136935916D01*
X128760986Y-136928145D01*
X128758426Y-136873755D01*
X128765286Y-136818691D01*
X128780934Y-136763752D01*
X128794275Y-136733475D01*
X129159164Y-136733475D01*
X129161545Y-136755112D01*
X129174506Y-136799304D01*
X129195689Y-136838657D01*
X129224198Y-136872122D01*
X129259137Y-136898653D01*
X129299610Y-136917204D01*
X129300453Y-136917481D01*
X129320411Y-136921460D01*
X129347461Y-136923152D01*
X129365684Y-136922976D01*
X129389938Y-136921571D01*
X129408324Y-136918634D01*
X129425122Y-136913176D01*
X129442690Y-136905155D01*
X129479679Y-136881788D01*
X129510282Y-136851948D01*
X129533754Y-136817048D01*
X129549349Y-136778504D01*
X129556322Y-136737728D01*
X129553925Y-136696134D01*
X129553670Y-136694722D01*
X129540966Y-136652824D01*
X129519644Y-136614438D01*
X129490985Y-136581215D01*
X129456270Y-136554806D01*
X129437445Y-136544858D01*
X129407518Y-136535350D01*
X129372396Y-136530786D01*
X129335790Y-136531225D01*
X129301413Y-136536724D01*
X129283531Y-136542426D01*
X129248383Y-136561486D01*
X129217691Y-136587944D01*
X129192440Y-136620087D01*
X129173613Y-136656199D01*
X129162193Y-136694567D01*
X129159164Y-136733475D01*
X128794275Y-136733475D01*
X128804736Y-136709736D01*
X128836061Y-136657441D01*
X128874274Y-136607666D01*
X128918745Y-136561207D01*
X128968840Y-136518864D01*
X129023926Y-136481434D01*
X129083370Y-136449716D01*
X129146541Y-136424507D01*
X129164886Y-136418701D01*
X129201263Y-136410238D01*
X129242757Y-136404503D01*
X129286199Y-136401636D01*
X129328423Y-136401777D01*
G36*
X127703665Y-136592400D02*
X127721199Y-136594815D01*
X127737879Y-136600076D01*
X127756678Y-136608404D01*
X127806544Y-136636810D01*
X127856028Y-136674026D01*
X127904186Y-136718713D01*
X127950077Y-136769536D01*
X127992757Y-136825158D01*
X128031285Y-136884244D01*
X128064717Y-136945456D01*
X128092112Y-137007459D01*
X128112526Y-137068917D01*
X128125018Y-137128492D01*
X128125381Y-137131129D01*
X128128149Y-137174196D01*
X128124456Y-137212257D01*
X128114593Y-137244427D01*
X128098853Y-137269822D01*
X128077525Y-137287556D01*
X128073187Y-137289832D01*
X128045219Y-137298318D01*
X128013409Y-137299581D01*
X127981189Y-137293488D01*
X127980740Y-137293346D01*
X127937203Y-137275057D01*
X127892270Y-137247842D01*
X127846881Y-137212665D01*
X127801976Y-137170487D01*
X127758495Y-137122272D01*
X127717378Y-137068982D01*
X127679565Y-137011579D01*
X127645996Y-136951026D01*
X127645540Y-136950119D01*
X127620181Y-136895845D01*
X127611711Y-136873574D01*
X127765284Y-136873574D01*
X127765543Y-136901315D01*
X127768121Y-136929311D01*
X127772567Y-136952702D01*
X127782407Y-136982865D01*
X127796999Y-137017156D01*
X127814535Y-137051944D01*
X127833208Y-137083596D01*
X127848382Y-137105022D01*
X127879895Y-137140806D01*
X127911152Y-137168895D01*
X127941506Y-137189000D01*
X127970309Y-137200834D01*
X127996913Y-137204109D01*
X128020670Y-137198538D01*
X128036133Y-137188466D01*
X128050767Y-137171999D01*
X128060019Y-137152003D01*
X128064606Y-137126313D01*
X128065402Y-137100316D01*
X128061584Y-137061085D01*
X128051587Y-137020767D01*
X128036265Y-136980451D01*
X128016466Y-136941228D01*
X127993042Y-136904188D01*
X127966844Y-136870421D01*
X127938723Y-136841018D01*
X127909529Y-136817069D01*
X127880113Y-136799664D01*
X127851326Y-136789894D01*
X127824019Y-136788849D01*
X127822521Y-136789075D01*
X127800226Y-136797610D01*
X127781870Y-136814429D01*
X127771805Y-136831686D01*
X127767365Y-136849295D01*
X127765284Y-136873574D01*
X127611711Y-136873574D01*
X127601505Y-136846742D01*
X127588956Y-136800850D01*
X127581980Y-136756209D01*
X127580024Y-136718820D01*
X127580147Y-136693734D01*
X127581356Y-136675780D01*
X127584108Y-136661950D01*
X127588861Y-136649235D01*
X127591443Y-136643751D01*
X127602212Y-136626421D01*
X127615671Y-136610733D01*
X127621471Y-136605651D01*
X127631774Y-136598608D01*
X127641873Y-136594452D01*
X127654939Y-136592443D01*
X127674145Y-136591838D01*
X127680641Y-136591820D01*
X127703665Y-136592400D01*
X127703665Y-136592400D01*
G37*
X127703665Y-136592400D02*
X127721199Y-136594815D01*
X127737879Y-136600076D01*
X127756678Y-136608404D01*
X127806544Y-136636810D01*
X127856028Y-136674026D01*
X127904186Y-136718713D01*
X127950077Y-136769536D01*
X127992757Y-136825158D01*
X128031285Y-136884244D01*
X128064717Y-136945456D01*
X128092112Y-137007459D01*
X128112526Y-137068917D01*
X128125018Y-137128492D01*
X128125381Y-137131129D01*
X128128149Y-137174196D01*
X128124456Y-137212257D01*
X128114593Y-137244427D01*
X128098853Y-137269822D01*
X128077525Y-137287556D01*
X128073187Y-137289832D01*
X128045219Y-137298318D01*
X128013409Y-137299581D01*
X127981189Y-137293488D01*
X127980740Y-137293346D01*
X127937203Y-137275057D01*
X127892270Y-137247842D01*
X127846881Y-137212665D01*
X127801976Y-137170487D01*
X127758495Y-137122272D01*
X127717378Y-137068982D01*
X127679565Y-137011579D01*
X127645996Y-136951026D01*
X127645540Y-136950119D01*
X127620181Y-136895845D01*
X127611711Y-136873574D01*
X127765284Y-136873574D01*
X127765543Y-136901315D01*
X127768121Y-136929311D01*
X127772567Y-136952702D01*
X127782407Y-136982865D01*
X127796999Y-137017156D01*
X127814535Y-137051944D01*
X127833208Y-137083596D01*
X127848382Y-137105022D01*
X127879895Y-137140806D01*
X127911152Y-137168895D01*
X127941506Y-137189000D01*
X127970309Y-137200834D01*
X127996913Y-137204109D01*
X128020670Y-137198538D01*
X128036133Y-137188466D01*
X128050767Y-137171999D01*
X128060019Y-137152003D01*
X128064606Y-137126313D01*
X128065402Y-137100316D01*
X128061584Y-137061085D01*
X128051587Y-137020767D01*
X128036265Y-136980451D01*
X128016466Y-136941228D01*
X127993042Y-136904188D01*
X127966844Y-136870421D01*
X127938723Y-136841018D01*
X127909529Y-136817069D01*
X127880113Y-136799664D01*
X127851326Y-136789894D01*
X127824019Y-136788849D01*
X127822521Y-136789075D01*
X127800226Y-136797610D01*
X127781870Y-136814429D01*
X127771805Y-136831686D01*
X127767365Y-136849295D01*
X127765284Y-136873574D01*
X127611711Y-136873574D01*
X127601505Y-136846742D01*
X127588956Y-136800850D01*
X127581980Y-136756209D01*
X127580024Y-136718820D01*
X127580147Y-136693734D01*
X127581356Y-136675780D01*
X127584108Y-136661950D01*
X127588861Y-136649235D01*
X127591443Y-136643751D01*
X127602212Y-136626421D01*
X127615671Y-136610733D01*
X127621471Y-136605651D01*
X127631774Y-136598608D01*
X127641873Y-136594452D01*
X127654939Y-136592443D01*
X127674145Y-136591838D01*
X127680641Y-136591820D01*
X127703665Y-136592400D01*
D14*
G36*
X129034692Y-138031830D02*
X129038884Y-138037238D01*
X129039842Y-138045434D01*
X129035424Y-138050854D01*
X129023375Y-138058710D01*
X129005655Y-138068093D01*
X128984225Y-138078090D01*
X128961046Y-138087791D01*
X128938078Y-138096284D01*
X128917282Y-138102659D01*
X128915917Y-138103013D01*
X128872856Y-138110486D01*
X128824361Y-138112860D01*
X128773785Y-138110138D01*
X128727500Y-138102965D01*
X128700200Y-138097186D01*
X128681309Y-138092973D01*
X128669286Y-138089840D01*
X128662588Y-138087302D01*
X128659673Y-138084876D01*
X128658999Y-138082076D01*
X128658997Y-138081433D01*
X128660026Y-138073727D01*
X128663898Y-138069084D01*
X128672140Y-138067369D01*
X128686276Y-138068449D01*
X128707832Y-138072190D01*
X128724960Y-138075657D01*
X128783922Y-138085109D01*
X128837388Y-138087441D01*
X128887312Y-138082442D01*
X128935646Y-138069901D01*
X128984342Y-138049609D01*
X128989221Y-138047188D01*
X129011207Y-138036758D01*
X129025915Y-138031654D01*
X129034692Y-138031830D01*
X129034692Y-138031830D01*
G37*
X129034692Y-138031830D02*
X129038884Y-138037238D01*
X129039842Y-138045434D01*
X129035424Y-138050854D01*
X129023375Y-138058710D01*
X129005655Y-138068093D01*
X128984225Y-138078090D01*
X128961046Y-138087791D01*
X128938078Y-138096284D01*
X128917282Y-138102659D01*
X128915917Y-138103013D01*
X128872856Y-138110486D01*
X128824361Y-138112860D01*
X128773785Y-138110138D01*
X128727500Y-138102965D01*
X128700200Y-138097186D01*
X128681309Y-138092973D01*
X128669286Y-138089840D01*
X128662588Y-138087302D01*
X128659673Y-138084876D01*
X128658999Y-138082076D01*
X128658997Y-138081433D01*
X128660026Y-138073727D01*
X128663898Y-138069084D01*
X128672140Y-138067369D01*
X128686276Y-138068449D01*
X128707832Y-138072190D01*
X128724960Y-138075657D01*
X128783922Y-138085109D01*
X128837388Y-138087441D01*
X128887312Y-138082442D01*
X128935646Y-138069901D01*
X128984342Y-138049609D01*
X128989221Y-138047188D01*
X129011207Y-138036758D01*
X129025915Y-138031654D01*
X129034692Y-138031830D01*
D15*
G04 #@! TO.C,J1*
X150747200Y-117473600D02*
X150747200Y-100153600D01*
X150747200Y-100153600D02*
X145747200Y-100153600D01*
X145747200Y-100153600D02*
X145747200Y-117473600D01*
X145747200Y-117473600D02*
X150747200Y-117473600D01*
X145707200Y-101193600D02*
X150787200Y-101193600D01*
G04 #@! TO.C,J4*
X107140000Y-117000000D02*
X93240000Y-117000000D01*
X93240000Y-117000000D02*
X93240000Y-122000000D01*
X93240000Y-122000000D02*
X107110000Y-121990000D01*
X107080000Y-121990000D02*
X107080000Y-116990000D01*
X94280000Y-122040000D02*
X94280000Y-116960000D01*
D12*
G04 #@! TO.C,SW1*
X110550000Y-112490000D02*
X107510000Y-112490000D01*
X107510000Y-112490000D02*
X107510000Y-106320000D01*
X107500000Y-106320000D02*
X110550000Y-106320000D01*
X110550000Y-106320000D02*
X110550000Y-112490000D01*
D10*
G04 #@! TO.C,U4*
X118010000Y-113600000D02*
X118010000Y-111800000D01*
X114790000Y-111800000D02*
X114790000Y-114250000D01*
D12*
G04 #@! TO.C,U6*
X125225000Y-111025000D02*
X125225000Y-110925000D01*
X120575000Y-111025000D02*
X120575000Y-110825000D01*
X120575000Y-107775000D02*
X120575000Y-107975000D01*
X125225000Y-107775000D02*
X125225000Y-107975000D01*
X125225000Y-111025000D02*
X120575000Y-111025000D01*
X125225000Y-107775000D02*
X120575000Y-107775000D01*
X125225000Y-110925000D02*
X126575000Y-110925000D01*
G04 #@! TO.C,SW1*
X107866666Y-102644761D02*
X108009523Y-102692380D01*
X108247619Y-102692380D01*
X108342857Y-102644761D01*
X108390476Y-102597142D01*
X108438095Y-102501904D01*
X108438095Y-102406666D01*
X108390476Y-102311428D01*
X108342857Y-102263809D01*
X108247619Y-102216190D01*
X108057142Y-102168571D01*
X107961904Y-102120952D01*
X107914285Y-102073333D01*
X107866666Y-101978095D01*
X107866666Y-101882857D01*
X107914285Y-101787619D01*
X107961904Y-101740000D01*
X108057142Y-101692380D01*
X108295238Y-101692380D01*
X108438095Y-101740000D01*
X108771428Y-101692380D02*
X109009523Y-102692380D01*
X109200000Y-101978095D01*
X109390476Y-102692380D01*
X109628571Y-101692380D01*
X110533333Y-102692380D02*
X109961904Y-102692380D01*
X110247619Y-102692380D02*
X110247619Y-101692380D01*
X110152380Y-101835238D01*
X110057142Y-101930476D01*
X109961904Y-101978095D01*
G04 #@! TD*
M02*
