G04 #@! TF.GenerationSoftware,KiCad,Pcbnew,5.0.2-bee76a0~70~ubuntu18.04.1*
G04 #@! TF.CreationDate,2019-11-21T20:22:08+01:00*
G04 #@! TF.ProjectId,board,626f6172-642e-46b6-9963-61645f706362,rev?*
G04 #@! TF.SameCoordinates,Original*
G04 #@! TF.FileFunction,Soldermask,Top*
G04 #@! TF.FilePolarity,Negative*
%FSLAX46Y46*%
G04 Gerber Fmt 4.6, Leading zero omitted, Abs format (unit mm)*
G04 Created by KiCad (PCBNEW 5.0.2-bee76a0~70~ubuntu18.04.1) date Thu 21 Nov 2019 08:22:08 PM CET*
%MOMM*%
%LPD*%
G01*
G04 APERTURE LIST*
%ADD10C,0.010000*%
%ADD11C,0.100000*%
G04 APERTURE END LIST*
D10*
G04 #@! TO.C,H5*
G36*
X129366510Y-136659041D02*
X129379587Y-136662432D01*
X129390891Y-136669561D01*
X129393235Y-136671484D01*
X129412535Y-136693321D01*
X129422462Y-136717798D01*
X129422769Y-136743707D01*
X129413284Y-136769704D01*
X129398855Y-136788798D01*
X129380380Y-136800264D01*
X129355867Y-136805149D01*
X129345071Y-136805499D01*
X129327672Y-136804886D01*
X129315998Y-136801873D01*
X129305637Y-136794697D01*
X129296746Y-136786198D01*
X129280121Y-136763308D01*
X129272779Y-136738373D01*
X129274675Y-136713145D01*
X129285762Y-136689375D01*
X129299702Y-136673890D01*
X129311556Y-136664693D01*
X129322873Y-136659972D01*
X129337973Y-136658308D01*
X129347510Y-136658179D01*
X129366510Y-136659041D01*
X129366510Y-136659041D01*
G37*
X129366510Y-136659041D02*
X129379587Y-136662432D01*
X129390891Y-136669561D01*
X129393235Y-136671484D01*
X129412535Y-136693321D01*
X129422462Y-136717798D01*
X129422769Y-136743707D01*
X129413284Y-136769704D01*
X129398855Y-136788798D01*
X129380380Y-136800264D01*
X129355867Y-136805149D01*
X129345071Y-136805499D01*
X129327672Y-136804886D01*
X129315998Y-136801873D01*
X129305637Y-136794697D01*
X129296746Y-136786198D01*
X129280121Y-136763308D01*
X129272779Y-136738373D01*
X129274675Y-136713145D01*
X129285762Y-136689375D01*
X129299702Y-136673890D01*
X129311556Y-136664693D01*
X129322873Y-136659972D01*
X129337973Y-136658308D01*
X129347510Y-136658179D01*
X129366510Y-136659041D01*
G36*
X127927309Y-136937865D02*
X127942397Y-136949272D01*
X127944632Y-136951549D01*
X127960840Y-136972015D01*
X127974146Y-136995127D01*
X127984238Y-137019287D01*
X127990804Y-137042899D01*
X127993534Y-137064365D01*
X127992117Y-137082089D01*
X127986240Y-137094474D01*
X127975593Y-137099922D01*
X127973583Y-137100042D01*
X127966162Y-137097629D01*
X127954661Y-137091641D01*
X127952940Y-137090610D01*
X127935942Y-137075847D01*
X127920210Y-137054340D01*
X127906760Y-137028622D01*
X127896607Y-137001228D01*
X127890764Y-136974693D01*
X127890248Y-136951552D01*
X127892846Y-136940534D01*
X127900265Y-136933013D01*
X127912509Y-136932284D01*
X127927309Y-136937865D01*
X127927309Y-136937865D01*
G37*
X127927309Y-136937865D02*
X127942397Y-136949272D01*
X127944632Y-136951549D01*
X127960840Y-136972015D01*
X127974146Y-136995127D01*
X127984238Y-137019287D01*
X127990804Y-137042899D01*
X127993534Y-137064365D01*
X127992117Y-137082089D01*
X127986240Y-137094474D01*
X127975593Y-137099922D01*
X127973583Y-137100042D01*
X127966162Y-137097629D01*
X127954661Y-137091641D01*
X127952940Y-137090610D01*
X127935942Y-137075847D01*
X127920210Y-137054340D01*
X127906760Y-137028622D01*
X127896607Y-137001228D01*
X127890764Y-136974693D01*
X127890248Y-136951552D01*
X127892846Y-136940534D01*
X127900265Y-136933013D01*
X127912509Y-136932284D01*
X127927309Y-136937865D01*
G36*
X128514254Y-133255597D02*
X128563146Y-133256973D01*
X128604634Y-133259166D01*
X128607091Y-133259343D01*
X128773573Y-133276556D01*
X128937699Y-133303558D01*
X129099106Y-133340175D01*
X129257432Y-133386236D01*
X129412313Y-133441567D01*
X129563388Y-133505995D01*
X129710294Y-133579349D01*
X129852667Y-133661454D01*
X129990147Y-133752138D01*
X130122369Y-133851229D01*
X130248971Y-133958553D01*
X130369591Y-134073938D01*
X130414331Y-134120445D01*
X130525231Y-134245741D01*
X130627695Y-134376619D01*
X130721609Y-134512833D01*
X130806857Y-134654136D01*
X130883328Y-134800283D01*
X130950907Y-134951030D01*
X131009480Y-135106129D01*
X131058933Y-135265335D01*
X131099153Y-135428404D01*
X131130027Y-135595088D01*
X131143870Y-135695519D01*
X131146531Y-135723553D01*
X131148899Y-135760097D01*
X131150950Y-135803504D01*
X131152661Y-135852127D01*
X131154011Y-135904318D01*
X131154974Y-135958432D01*
X131155530Y-136012820D01*
X131155653Y-136065837D01*
X131155322Y-136115836D01*
X131154514Y-136161168D01*
X131153205Y-136200189D01*
X131151372Y-136231250D01*
X131151364Y-136231348D01*
X131133268Y-136395677D01*
X131105366Y-136557886D01*
X131067867Y-136717575D01*
X131020980Y-136874344D01*
X130964911Y-137027792D01*
X130899869Y-137177519D01*
X130826063Y-137323125D01*
X130743701Y-137464210D01*
X130652990Y-137600372D01*
X130554138Y-137731212D01*
X130447355Y-137856330D01*
X130332848Y-137975324D01*
X130210825Y-138087795D01*
X130166670Y-138125304D01*
X130035182Y-138228103D01*
X129898399Y-138322309D01*
X129756663Y-138407783D01*
X129610318Y-138484383D01*
X129459706Y-138551969D01*
X129305171Y-138610401D01*
X129147056Y-138659538D01*
X128985704Y-138699239D01*
X128821458Y-138729364D01*
X128654661Y-138749773D01*
X128639063Y-138751169D01*
X128607448Y-138753360D01*
X128568116Y-138755222D01*
X128523180Y-138756730D01*
X128474752Y-138757855D01*
X128424945Y-138758573D01*
X128375872Y-138758856D01*
X128329645Y-138758679D01*
X128288377Y-138758015D01*
X128254181Y-138756838D01*
X128241537Y-138756126D01*
X128071905Y-138739981D01*
X127905221Y-138714247D01*
X127741751Y-138679038D01*
X127581759Y-138634468D01*
X127425510Y-138580651D01*
X127273270Y-138517702D01*
X127125304Y-138445735D01*
X126981876Y-138364864D01*
X126843251Y-138275204D01*
X126709695Y-138176868D01*
X126581473Y-138069970D01*
X126520112Y-138013975D01*
X126401722Y-137895806D01*
X126291322Y-137771510D01*
X126189084Y-137641449D01*
X126095181Y-137505987D01*
X126009786Y-137365485D01*
X125933072Y-137220308D01*
X125865213Y-137070819D01*
X125806380Y-136917380D01*
X125756747Y-136760355D01*
X125716487Y-136600107D01*
X125685773Y-136436999D01*
X125664778Y-136271393D01*
X125659327Y-136207107D01*
X125657078Y-136166182D01*
X125655649Y-136117723D01*
X125655001Y-136063680D01*
X125655097Y-136006004D01*
X125655688Y-135962219D01*
X127338709Y-135962219D01*
X127338930Y-136022806D01*
X127339643Y-136075194D01*
X127340997Y-136121337D01*
X127343139Y-136163188D01*
X127346219Y-136202702D01*
X127350384Y-136241834D01*
X127355782Y-136282537D01*
X127362562Y-136326766D01*
X127369526Y-136368619D01*
X127394164Y-136493706D01*
X127426015Y-136623723D01*
X127464487Y-136757094D01*
X127508989Y-136892245D01*
X127558928Y-137027599D01*
X127613712Y-137161583D01*
X127672750Y-137292622D01*
X127735448Y-137419140D01*
X127801216Y-137539562D01*
X127824981Y-137580199D01*
X127850693Y-137622089D01*
X127875235Y-137659009D01*
X127900301Y-137693102D01*
X127927582Y-137726516D01*
X127958770Y-137761394D01*
X127995557Y-137799883D01*
X128009080Y-137813607D01*
X128077382Y-137880002D01*
X128142875Y-137938278D01*
X128207023Y-137989533D01*
X128271288Y-138034866D01*
X128337135Y-138075375D01*
X128406026Y-138112159D01*
X128408468Y-138113371D01*
X128475708Y-138144570D01*
X128543366Y-138171530D01*
X128612661Y-138194513D01*
X128684815Y-138213780D01*
X128761051Y-138229592D01*
X128842589Y-138242210D01*
X128930650Y-138251894D01*
X129026457Y-138258907D01*
X129107144Y-138262682D01*
X129121311Y-138262004D01*
X129142017Y-138259544D01*
X129165885Y-138255744D01*
X129179189Y-138253234D01*
X129284969Y-138226908D01*
X129389070Y-138190663D01*
X129491583Y-138144459D01*
X129592602Y-138088255D01*
X129671558Y-138036654D01*
X129707791Y-138010382D01*
X129748699Y-137978987D01*
X129792848Y-137943703D01*
X129838807Y-137905765D01*
X129885142Y-137866406D01*
X129930420Y-137826860D01*
X129973208Y-137788362D01*
X130012073Y-137752146D01*
X130045583Y-137719445D01*
X130072200Y-137691608D01*
X130121921Y-137634510D01*
X130170869Y-137573772D01*
X130218185Y-137510711D01*
X130263011Y-137446641D01*
X130304489Y-137382878D01*
X130341759Y-137320739D01*
X130373963Y-137261539D01*
X130400242Y-137206593D01*
X130418390Y-137161099D01*
X130430009Y-137124622D01*
X130436512Y-137094859D01*
X130438134Y-137069885D01*
X130435109Y-137047777D01*
X130433072Y-137040594D01*
X130424742Y-137007122D01*
X130418017Y-136963789D01*
X130412888Y-136910521D01*
X130411400Y-136888419D01*
X130409757Y-136865224D01*
X130407934Y-136845766D01*
X130406170Y-136832293D01*
X130404891Y-136827218D01*
X130398828Y-136823030D01*
X130386304Y-136816755D01*
X130374056Y-136811433D01*
X130338034Y-136793744D01*
X130307893Y-136772050D01*
X130282898Y-136745272D01*
X130262315Y-136712335D01*
X130245410Y-136672160D01*
X130231449Y-136623672D01*
X130224574Y-136592139D01*
X130215952Y-136537923D01*
X130209715Y-136475238D01*
X130205846Y-136405486D01*
X130204331Y-136330070D01*
X130205153Y-136250392D01*
X130208297Y-136167856D01*
X130213747Y-136083863D01*
X130221487Y-135999817D01*
X130231501Y-135917120D01*
X130232234Y-135911796D01*
X130240526Y-135860560D01*
X130251694Y-135806462D01*
X130266142Y-135747820D01*
X130284279Y-135682951D01*
X130300350Y-135629833D01*
X130310844Y-135594535D01*
X130317592Y-135568162D01*
X130320699Y-135550237D01*
X130320473Y-135540933D01*
X130319835Y-135533756D01*
X130319116Y-135517278D01*
X130318333Y-135492361D01*
X130317505Y-135459865D01*
X130316650Y-135420647D01*
X130315786Y-135375570D01*
X130314930Y-135325492D01*
X130314101Y-135271274D01*
X130313317Y-135213775D01*
X130312867Y-135177359D01*
X130311942Y-135102805D01*
X130311021Y-135037375D01*
X130310052Y-134980033D01*
X130308986Y-134929741D01*
X130307771Y-134885464D01*
X130306357Y-134846167D01*
X130304694Y-134810811D01*
X130302729Y-134778361D01*
X130300413Y-134747782D01*
X130297696Y-134718036D01*
X130294525Y-134688087D01*
X130290852Y-134656900D01*
X130286624Y-134623437D01*
X130285258Y-134612934D01*
X130276293Y-134550472D01*
X130265480Y-134485121D01*
X130253506Y-134420711D01*
X130241059Y-134361070D01*
X130236044Y-134339159D01*
X130230037Y-134313679D01*
X130224702Y-134291017D01*
X130220562Y-134273404D01*
X130218143Y-134263074D01*
X130217942Y-134262212D01*
X130212357Y-134252535D01*
X130199613Y-134238079D01*
X130180902Y-134219851D01*
X130157416Y-134198859D01*
X130130348Y-134176109D01*
X130100890Y-134152610D01*
X130070234Y-134129369D01*
X130039572Y-134107393D01*
X130015743Y-134091337D01*
X129922506Y-134036500D01*
X129823209Y-133989604D01*
X129717728Y-133950604D01*
X129605942Y-133919454D01*
X129487728Y-133896112D01*
X129477263Y-133894468D01*
X129432640Y-133888933D01*
X129380389Y-133884672D01*
X129322966Y-133881728D01*
X129262827Y-133880147D01*
X129202430Y-133879975D01*
X129144232Y-133881255D01*
X129090689Y-133884033D01*
X129058163Y-133886803D01*
X128921148Y-133904815D01*
X128789732Y-133930187D01*
X128664217Y-133962802D01*
X128544908Y-134002546D01*
X128432105Y-134049301D01*
X128326113Y-134102953D01*
X128227234Y-134163386D01*
X128135771Y-134230483D01*
X128115150Y-134247404D01*
X128081961Y-134276423D01*
X128049569Y-134307367D01*
X128016478Y-134341809D01*
X127981192Y-134381317D01*
X127942215Y-134427463D01*
X127933360Y-134438219D01*
X127829749Y-134570671D01*
X127736222Y-134703126D01*
X127652701Y-134835736D01*
X127579111Y-134968655D01*
X127515376Y-135102037D01*
X127461420Y-135236037D01*
X127417167Y-135370806D01*
X127382540Y-135506500D01*
X127367182Y-135583759D01*
X127359705Y-135626903D01*
X127353630Y-135665500D01*
X127348818Y-135701391D01*
X127345130Y-135736416D01*
X127342428Y-135772416D01*
X127340573Y-135811230D01*
X127339428Y-135854701D01*
X127338852Y-135904668D01*
X127338709Y-135962219D01*
X125655688Y-135962219D01*
X125655899Y-135946643D01*
X125657369Y-135887550D01*
X125659467Y-135830674D01*
X125662157Y-135777966D01*
X125665399Y-135731376D01*
X125669157Y-135692854D01*
X125669425Y-135690619D01*
X125694899Y-135521087D01*
X125729571Y-135355865D01*
X125773472Y-135194877D01*
X125826635Y-135038051D01*
X125889092Y-134885313D01*
X125960873Y-134736589D01*
X126042012Y-134591805D01*
X126132540Y-134450887D01*
X126232489Y-134313761D01*
X126300000Y-134229657D01*
X126325097Y-134200673D01*
X126356303Y-134166503D01*
X126392097Y-134128667D01*
X126430959Y-134088686D01*
X126471366Y-134048082D01*
X126511798Y-134008377D01*
X126550733Y-133971090D01*
X126586651Y-133937744D01*
X126618029Y-133909859D01*
X126629641Y-133900016D01*
X126745969Y-133807702D01*
X126862978Y-133724014D01*
X126982829Y-133647525D01*
X127107679Y-133576809D01*
X127160783Y-133549169D01*
X127306044Y-133480456D01*
X127453296Y-133421015D01*
X127603388Y-133370589D01*
X127757167Y-133328923D01*
X127915483Y-133295762D01*
X128079185Y-133270850D01*
X128090603Y-133269441D01*
X128128517Y-133265650D01*
X128174630Y-133262372D01*
X128226991Y-133259644D01*
X128283649Y-133257505D01*
X128342655Y-133255993D01*
X128402058Y-133255145D01*
X128459908Y-133255001D01*
X128514254Y-133255597D01*
X128514254Y-133255597D01*
G37*
X128514254Y-133255597D02*
X128563146Y-133256973D01*
X128604634Y-133259166D01*
X128607091Y-133259343D01*
X128773573Y-133276556D01*
X128937699Y-133303558D01*
X129099106Y-133340175D01*
X129257432Y-133386236D01*
X129412313Y-133441567D01*
X129563388Y-133505995D01*
X129710294Y-133579349D01*
X129852667Y-133661454D01*
X129990147Y-133752138D01*
X130122369Y-133851229D01*
X130248971Y-133958553D01*
X130369591Y-134073938D01*
X130414331Y-134120445D01*
X130525231Y-134245741D01*
X130627695Y-134376619D01*
X130721609Y-134512833D01*
X130806857Y-134654136D01*
X130883328Y-134800283D01*
X130950907Y-134951030D01*
X131009480Y-135106129D01*
X131058933Y-135265335D01*
X131099153Y-135428404D01*
X131130027Y-135595088D01*
X131143870Y-135695519D01*
X131146531Y-135723553D01*
X131148899Y-135760097D01*
X131150950Y-135803504D01*
X131152661Y-135852127D01*
X131154011Y-135904318D01*
X131154974Y-135958432D01*
X131155530Y-136012820D01*
X131155653Y-136065837D01*
X131155322Y-136115836D01*
X131154514Y-136161168D01*
X131153205Y-136200189D01*
X131151372Y-136231250D01*
X131151364Y-136231348D01*
X131133268Y-136395677D01*
X131105366Y-136557886D01*
X131067867Y-136717575D01*
X131020980Y-136874344D01*
X130964911Y-137027792D01*
X130899869Y-137177519D01*
X130826063Y-137323125D01*
X130743701Y-137464210D01*
X130652990Y-137600372D01*
X130554138Y-137731212D01*
X130447355Y-137856330D01*
X130332848Y-137975324D01*
X130210825Y-138087795D01*
X130166670Y-138125304D01*
X130035182Y-138228103D01*
X129898399Y-138322309D01*
X129756663Y-138407783D01*
X129610318Y-138484383D01*
X129459706Y-138551969D01*
X129305171Y-138610401D01*
X129147056Y-138659538D01*
X128985704Y-138699239D01*
X128821458Y-138729364D01*
X128654661Y-138749773D01*
X128639063Y-138751169D01*
X128607448Y-138753360D01*
X128568116Y-138755222D01*
X128523180Y-138756730D01*
X128474752Y-138757855D01*
X128424945Y-138758573D01*
X128375872Y-138758856D01*
X128329645Y-138758679D01*
X128288377Y-138758015D01*
X128254181Y-138756838D01*
X128241537Y-138756126D01*
X128071905Y-138739981D01*
X127905221Y-138714247D01*
X127741751Y-138679038D01*
X127581759Y-138634468D01*
X127425510Y-138580651D01*
X127273270Y-138517702D01*
X127125304Y-138445735D01*
X126981876Y-138364864D01*
X126843251Y-138275204D01*
X126709695Y-138176868D01*
X126581473Y-138069970D01*
X126520112Y-138013975D01*
X126401722Y-137895806D01*
X126291322Y-137771510D01*
X126189084Y-137641449D01*
X126095181Y-137505987D01*
X126009786Y-137365485D01*
X125933072Y-137220308D01*
X125865213Y-137070819D01*
X125806380Y-136917380D01*
X125756747Y-136760355D01*
X125716487Y-136600107D01*
X125685773Y-136436999D01*
X125664778Y-136271393D01*
X125659327Y-136207107D01*
X125657078Y-136166182D01*
X125655649Y-136117723D01*
X125655001Y-136063680D01*
X125655097Y-136006004D01*
X125655688Y-135962219D01*
X127338709Y-135962219D01*
X127338930Y-136022806D01*
X127339643Y-136075194D01*
X127340997Y-136121337D01*
X127343139Y-136163188D01*
X127346219Y-136202702D01*
X127350384Y-136241834D01*
X127355782Y-136282537D01*
X127362562Y-136326766D01*
X127369526Y-136368619D01*
X127394164Y-136493706D01*
X127426015Y-136623723D01*
X127464487Y-136757094D01*
X127508989Y-136892245D01*
X127558928Y-137027599D01*
X127613712Y-137161583D01*
X127672750Y-137292622D01*
X127735448Y-137419140D01*
X127801216Y-137539562D01*
X127824981Y-137580199D01*
X127850693Y-137622089D01*
X127875235Y-137659009D01*
X127900301Y-137693102D01*
X127927582Y-137726516D01*
X127958770Y-137761394D01*
X127995557Y-137799883D01*
X128009080Y-137813607D01*
X128077382Y-137880002D01*
X128142875Y-137938278D01*
X128207023Y-137989533D01*
X128271288Y-138034866D01*
X128337135Y-138075375D01*
X128406026Y-138112159D01*
X128408468Y-138113371D01*
X128475708Y-138144570D01*
X128543366Y-138171530D01*
X128612661Y-138194513D01*
X128684815Y-138213780D01*
X128761051Y-138229592D01*
X128842589Y-138242210D01*
X128930650Y-138251894D01*
X129026457Y-138258907D01*
X129107144Y-138262682D01*
X129121311Y-138262004D01*
X129142017Y-138259544D01*
X129165885Y-138255744D01*
X129179189Y-138253234D01*
X129284969Y-138226908D01*
X129389070Y-138190663D01*
X129491583Y-138144459D01*
X129592602Y-138088255D01*
X129671558Y-138036654D01*
X129707791Y-138010382D01*
X129748699Y-137978987D01*
X129792848Y-137943703D01*
X129838807Y-137905765D01*
X129885142Y-137866406D01*
X129930420Y-137826860D01*
X129973208Y-137788362D01*
X130012073Y-137752146D01*
X130045583Y-137719445D01*
X130072200Y-137691608D01*
X130121921Y-137634510D01*
X130170869Y-137573772D01*
X130218185Y-137510711D01*
X130263011Y-137446641D01*
X130304489Y-137382878D01*
X130341759Y-137320739D01*
X130373963Y-137261539D01*
X130400242Y-137206593D01*
X130418390Y-137161099D01*
X130430009Y-137124622D01*
X130436512Y-137094859D01*
X130438134Y-137069885D01*
X130435109Y-137047777D01*
X130433072Y-137040594D01*
X130424742Y-137007122D01*
X130418017Y-136963789D01*
X130412888Y-136910521D01*
X130411400Y-136888419D01*
X130409757Y-136865224D01*
X130407934Y-136845766D01*
X130406170Y-136832293D01*
X130404891Y-136827218D01*
X130398828Y-136823030D01*
X130386304Y-136816755D01*
X130374056Y-136811433D01*
X130338034Y-136793744D01*
X130307893Y-136772050D01*
X130282898Y-136745272D01*
X130262315Y-136712335D01*
X130245410Y-136672160D01*
X130231449Y-136623672D01*
X130224574Y-136592139D01*
X130215952Y-136537923D01*
X130209715Y-136475238D01*
X130205846Y-136405486D01*
X130204331Y-136330070D01*
X130205153Y-136250392D01*
X130208297Y-136167856D01*
X130213747Y-136083863D01*
X130221487Y-135999817D01*
X130231501Y-135917120D01*
X130232234Y-135911796D01*
X130240526Y-135860560D01*
X130251694Y-135806462D01*
X130266142Y-135747820D01*
X130284279Y-135682951D01*
X130300350Y-135629833D01*
X130310844Y-135594535D01*
X130317592Y-135568162D01*
X130320699Y-135550237D01*
X130320473Y-135540933D01*
X130319835Y-135533756D01*
X130319116Y-135517278D01*
X130318333Y-135492361D01*
X130317505Y-135459865D01*
X130316650Y-135420647D01*
X130315786Y-135375570D01*
X130314930Y-135325492D01*
X130314101Y-135271274D01*
X130313317Y-135213775D01*
X130312867Y-135177359D01*
X130311942Y-135102805D01*
X130311021Y-135037375D01*
X130310052Y-134980033D01*
X130308986Y-134929741D01*
X130307771Y-134885464D01*
X130306357Y-134846167D01*
X130304694Y-134810811D01*
X130302729Y-134778361D01*
X130300413Y-134747782D01*
X130297696Y-134718036D01*
X130294525Y-134688087D01*
X130290852Y-134656900D01*
X130286624Y-134623437D01*
X130285258Y-134612934D01*
X130276293Y-134550472D01*
X130265480Y-134485121D01*
X130253506Y-134420711D01*
X130241059Y-134361070D01*
X130236044Y-134339159D01*
X130230037Y-134313679D01*
X130224702Y-134291017D01*
X130220562Y-134273404D01*
X130218143Y-134263074D01*
X130217942Y-134262212D01*
X130212357Y-134252535D01*
X130199613Y-134238079D01*
X130180902Y-134219851D01*
X130157416Y-134198859D01*
X130130348Y-134176109D01*
X130100890Y-134152610D01*
X130070234Y-134129369D01*
X130039572Y-134107393D01*
X130015743Y-134091337D01*
X129922506Y-134036500D01*
X129823209Y-133989604D01*
X129717728Y-133950604D01*
X129605942Y-133919454D01*
X129487728Y-133896112D01*
X129477263Y-133894468D01*
X129432640Y-133888933D01*
X129380389Y-133884672D01*
X129322966Y-133881728D01*
X129262827Y-133880147D01*
X129202430Y-133879975D01*
X129144232Y-133881255D01*
X129090689Y-133884033D01*
X129058163Y-133886803D01*
X128921148Y-133904815D01*
X128789732Y-133930187D01*
X128664217Y-133962802D01*
X128544908Y-134002546D01*
X128432105Y-134049301D01*
X128326113Y-134102953D01*
X128227234Y-134163386D01*
X128135771Y-134230483D01*
X128115150Y-134247404D01*
X128081961Y-134276423D01*
X128049569Y-134307367D01*
X128016478Y-134341809D01*
X127981192Y-134381317D01*
X127942215Y-134427463D01*
X127933360Y-134438219D01*
X127829749Y-134570671D01*
X127736222Y-134703126D01*
X127652701Y-134835736D01*
X127579111Y-134968655D01*
X127515376Y-135102037D01*
X127461420Y-135236037D01*
X127417167Y-135370806D01*
X127382540Y-135506500D01*
X127367182Y-135583759D01*
X127359705Y-135626903D01*
X127353630Y-135665500D01*
X127348818Y-135701391D01*
X127345130Y-135736416D01*
X127342428Y-135772416D01*
X127340573Y-135811230D01*
X127339428Y-135854701D01*
X127338852Y-135904668D01*
X127338709Y-135962219D01*
X125655688Y-135962219D01*
X125655899Y-135946643D01*
X125657369Y-135887550D01*
X125659467Y-135830674D01*
X125662157Y-135777966D01*
X125665399Y-135731376D01*
X125669157Y-135692854D01*
X125669425Y-135690619D01*
X125694899Y-135521087D01*
X125729571Y-135355865D01*
X125773472Y-135194877D01*
X125826635Y-135038051D01*
X125889092Y-134885313D01*
X125960873Y-134736589D01*
X126042012Y-134591805D01*
X126132540Y-134450887D01*
X126232489Y-134313761D01*
X126300000Y-134229657D01*
X126325097Y-134200673D01*
X126356303Y-134166503D01*
X126392097Y-134128667D01*
X126430959Y-134088686D01*
X126471366Y-134048082D01*
X126511798Y-134008377D01*
X126550733Y-133971090D01*
X126586651Y-133937744D01*
X126618029Y-133909859D01*
X126629641Y-133900016D01*
X126745969Y-133807702D01*
X126862978Y-133724014D01*
X126982829Y-133647525D01*
X127107679Y-133576809D01*
X127160783Y-133549169D01*
X127306044Y-133480456D01*
X127453296Y-133421015D01*
X127603388Y-133370589D01*
X127757167Y-133328923D01*
X127915483Y-133295762D01*
X128079185Y-133270850D01*
X128090603Y-133269441D01*
X128128517Y-133265650D01*
X128174630Y-133262372D01*
X128226991Y-133259644D01*
X128283649Y-133257505D01*
X128342655Y-133255993D01*
X128402058Y-133255145D01*
X128459908Y-133255001D01*
X128514254Y-133255597D01*
D11*
G36*
X100651000Y-138501000D02*
X99699000Y-138501000D01*
X99699000Y-136799000D01*
X100651000Y-136799000D01*
X100651000Y-138501000D01*
X100651000Y-138501000D01*
G37*
G36*
X98901000Y-138501000D02*
X97949000Y-138501000D01*
X97949000Y-136799000D01*
X98901000Y-136799000D01*
X98901000Y-138501000D01*
X98901000Y-138501000D01*
G37*
G36*
X94801000Y-138501000D02*
X93849000Y-138501000D01*
X93849000Y-136799000D01*
X94801000Y-136799000D01*
X94801000Y-138501000D01*
X94801000Y-138501000D01*
G37*
G36*
X96551000Y-138501000D02*
X95599000Y-138501000D01*
X95599000Y-136799000D01*
X96551000Y-136799000D01*
X96551000Y-138501000D01*
X96551000Y-138501000D01*
G37*
G36*
X102901000Y-138501000D02*
X101949000Y-138501000D01*
X101949000Y-136799000D01*
X102901000Y-136799000D01*
X102901000Y-138501000D01*
X102901000Y-138501000D01*
G37*
G36*
X104651000Y-138501000D02*
X103699000Y-138501000D01*
X103699000Y-136799000D01*
X104651000Y-136799000D01*
X104651000Y-138501000D01*
X104651000Y-138501000D01*
G37*
G36*
X117339499Y-137378445D02*
X117376993Y-137389819D01*
X117411557Y-137408294D01*
X117441847Y-137433153D01*
X117466706Y-137463443D01*
X117485181Y-137498007D01*
X117496555Y-137535501D01*
X117501000Y-137580638D01*
X117501000Y-138219362D01*
X117496555Y-138264499D01*
X117485181Y-138301993D01*
X117466706Y-138336557D01*
X117441847Y-138366847D01*
X117411557Y-138391706D01*
X117376993Y-138410181D01*
X117339499Y-138421555D01*
X117294362Y-138426000D01*
X116555638Y-138426000D01*
X116510501Y-138421555D01*
X116473007Y-138410181D01*
X116438443Y-138391706D01*
X116408153Y-138366847D01*
X116383294Y-138336557D01*
X116364819Y-138301993D01*
X116353445Y-138264499D01*
X116349000Y-138219362D01*
X116349000Y-137580638D01*
X116353445Y-137535501D01*
X116364819Y-137498007D01*
X116383294Y-137463443D01*
X116408153Y-137433153D01*
X116438443Y-137408294D01*
X116473007Y-137389819D01*
X116510501Y-137378445D01*
X116555638Y-137374000D01*
X117294362Y-137374000D01*
X117339499Y-137378445D01*
X117339499Y-137378445D01*
G37*
G36*
X119089499Y-137378445D02*
X119126993Y-137389819D01*
X119161557Y-137408294D01*
X119191847Y-137433153D01*
X119216706Y-137463443D01*
X119235181Y-137498007D01*
X119246555Y-137535501D01*
X119251000Y-137580638D01*
X119251000Y-138219362D01*
X119246555Y-138264499D01*
X119235181Y-138301993D01*
X119216706Y-138336557D01*
X119191847Y-138366847D01*
X119161557Y-138391706D01*
X119126993Y-138410181D01*
X119089499Y-138421555D01*
X119044362Y-138426000D01*
X118305638Y-138426000D01*
X118260501Y-138421555D01*
X118223007Y-138410181D01*
X118188443Y-138391706D01*
X118158153Y-138366847D01*
X118133294Y-138336557D01*
X118114819Y-138301993D01*
X118103445Y-138264499D01*
X118099000Y-138219362D01*
X118099000Y-137580638D01*
X118103445Y-137535501D01*
X118114819Y-137498007D01*
X118133294Y-137463443D01*
X118158153Y-137433153D01*
X118188443Y-137408294D01*
X118223007Y-137389819D01*
X118260501Y-137378445D01*
X118305638Y-137374000D01*
X119044362Y-137374000D01*
X119089499Y-137378445D01*
X119089499Y-137378445D01*
G37*
G36*
X148445845Y-137419215D02*
X148536839Y-137456906D01*
X148546622Y-137463443D01*
X148618734Y-137511627D01*
X148688373Y-137581266D01*
X148688375Y-137581269D01*
X148743094Y-137663161D01*
X148780785Y-137754155D01*
X148800000Y-137850754D01*
X148800000Y-137949246D01*
X148780785Y-138045845D01*
X148743094Y-138136839D01*
X148691330Y-138214309D01*
X148688373Y-138218734D01*
X148618734Y-138288373D01*
X148618731Y-138288375D01*
X148536839Y-138343094D01*
X148445845Y-138380785D01*
X148349246Y-138400000D01*
X148250754Y-138400000D01*
X148154155Y-138380785D01*
X148063161Y-138343094D01*
X147981269Y-138288375D01*
X147981266Y-138288373D01*
X147911627Y-138218734D01*
X147908670Y-138214309D01*
X147856906Y-138136839D01*
X147819215Y-138045845D01*
X147800000Y-137949246D01*
X147800000Y-137850754D01*
X147819215Y-137754155D01*
X147856906Y-137663161D01*
X147911625Y-137581269D01*
X147911627Y-137581266D01*
X147981266Y-137511627D01*
X148053378Y-137463443D01*
X148063161Y-137456906D01*
X148154155Y-137419215D01*
X148250754Y-137400000D01*
X148349246Y-137400000D01*
X148445845Y-137419215D01*
X148445845Y-137419215D01*
G37*
G36*
X139866000Y-138276000D02*
X137771951Y-138276000D01*
X137763386Y-138273402D01*
X137739000Y-138271000D01*
X137444000Y-138271000D01*
X137444000Y-135729000D01*
X137739000Y-135729000D01*
X137763386Y-135726598D01*
X137771951Y-135724000D01*
X139866000Y-135724000D01*
X139866000Y-138276000D01*
X139866000Y-138276000D01*
G37*
G36*
X141056000Y-138271000D02*
X140324000Y-138271000D01*
X140324000Y-135729000D01*
X141056000Y-135729000D01*
X141056000Y-138271000D01*
X141056000Y-138271000D01*
G37*
G36*
X112112396Y-136205546D02*
X112285466Y-136277234D01*
X112441230Y-136381312D01*
X112573688Y-136513770D01*
X112677766Y-136669534D01*
X112749454Y-136842604D01*
X112786000Y-137026333D01*
X112786000Y-137213667D01*
X112749454Y-137397396D01*
X112677766Y-137570466D01*
X112573688Y-137726230D01*
X112441230Y-137858688D01*
X112285466Y-137962766D01*
X112112396Y-138034454D01*
X111928667Y-138071000D01*
X111741333Y-138071000D01*
X111557604Y-138034454D01*
X111384534Y-137962766D01*
X111228770Y-137858688D01*
X111096312Y-137726230D01*
X110992234Y-137570466D01*
X110920546Y-137397396D01*
X110884000Y-137213667D01*
X110884000Y-137026333D01*
X110920546Y-136842604D01*
X110992234Y-136669534D01*
X111096312Y-136513770D01*
X111228770Y-136381312D01*
X111384534Y-136277234D01*
X111557604Y-136205546D01*
X111741333Y-136169000D01*
X111928667Y-136169000D01*
X112112396Y-136205546D01*
X112112396Y-136205546D01*
G37*
G36*
X108128655Y-134549733D02*
X108128657Y-134549734D01*
X108128658Y-134549734D01*
X108175653Y-134569200D01*
X108274440Y-134610119D01*
X108405643Y-134697786D01*
X108517214Y-134809357D01*
X108604881Y-134940560D01*
X108631971Y-135005962D01*
X108659404Y-135072189D01*
X108665267Y-135086345D01*
X108696050Y-135241102D01*
X108696050Y-135398898D01*
X108665267Y-135553655D01*
X108604881Y-135699440D01*
X108517214Y-135830643D01*
X108402907Y-135944950D01*
X108389915Y-135955612D01*
X108374370Y-135974554D01*
X108362819Y-135996165D01*
X108355706Y-136019614D01*
X108353304Y-136044001D01*
X108355706Y-136068387D01*
X108362819Y-136091836D01*
X108374371Y-136113447D01*
X108389916Y-136132389D01*
X108408858Y-136147934D01*
X108430469Y-136159485D01*
X108453918Y-136166598D01*
X108478304Y-136169000D01*
X110246000Y-136169000D01*
X110246000Y-138071000D01*
X108344000Y-138071000D01*
X108344000Y-136188145D01*
X108341598Y-136163759D01*
X108334485Y-136140310D01*
X108322934Y-136118699D01*
X108307388Y-136099757D01*
X108288446Y-136084211D01*
X108266835Y-136072660D01*
X108243386Y-136065547D01*
X108219000Y-136063145D01*
X108194614Y-136065547D01*
X108171165Y-136072660D01*
X108128658Y-136090267D01*
X107973898Y-136121050D01*
X107816102Y-136121050D01*
X107661345Y-136090267D01*
X107661343Y-136090266D01*
X107661342Y-136090266D01*
X107549649Y-136044001D01*
X107515560Y-136029881D01*
X107384357Y-135942214D01*
X107272786Y-135830643D01*
X107185119Y-135699440D01*
X107124733Y-135553655D01*
X107093950Y-135398898D01*
X107093950Y-135241102D01*
X107124733Y-135086345D01*
X107130597Y-135072189D01*
X107158029Y-135005962D01*
X107185119Y-134940560D01*
X107272786Y-134809357D01*
X107384357Y-134697786D01*
X107515560Y-134610119D01*
X107614347Y-134569200D01*
X107661342Y-134549734D01*
X107661343Y-134549734D01*
X107661345Y-134549733D01*
X107816102Y-134518950D01*
X107973898Y-134518950D01*
X108128655Y-134549733D01*
X108128655Y-134549733D01*
G37*
G36*
X151878600Y-138010200D02*
X150076600Y-138010200D01*
X150076600Y-136208200D01*
X151878600Y-136208200D01*
X151878600Y-138010200D01*
X151878600Y-138010200D01*
G37*
G36*
X123015734Y-134793232D02*
X123225202Y-134879996D01*
X123413723Y-135005962D01*
X123574038Y-135166277D01*
X123700004Y-135354798D01*
X123786768Y-135564266D01*
X123831000Y-135786635D01*
X123831000Y-136013365D01*
X123786768Y-136235734D01*
X123700004Y-136445202D01*
X123574038Y-136633723D01*
X123413723Y-136794038D01*
X123225202Y-136920004D01*
X123015734Y-137006768D01*
X122793365Y-137051000D01*
X122566635Y-137051000D01*
X122344266Y-137006768D01*
X122134798Y-136920004D01*
X121946277Y-136794038D01*
X121785962Y-136633723D01*
X121659996Y-136445202D01*
X121573232Y-136235734D01*
X121529000Y-136013365D01*
X121529000Y-135786635D01*
X121573232Y-135564266D01*
X121659996Y-135354798D01*
X121785962Y-135166277D01*
X121946277Y-135005962D01*
X122134798Y-134879996D01*
X122344266Y-134793232D01*
X122566635Y-134749000D01*
X122793365Y-134749000D01*
X123015734Y-134793232D01*
X123015734Y-134793232D01*
G37*
G36*
X117941938Y-135631716D02*
X117962556Y-135637970D01*
X117981556Y-135648126D01*
X117998208Y-135661792D01*
X118011874Y-135678444D01*
X118022030Y-135697444D01*
X118028284Y-135718062D01*
X118031000Y-135745640D01*
X118031000Y-136254360D01*
X118028284Y-136281938D01*
X118022030Y-136302556D01*
X118011874Y-136321556D01*
X117998208Y-136338208D01*
X117981556Y-136351874D01*
X117962556Y-136362030D01*
X117941938Y-136368284D01*
X117914360Y-136371000D01*
X117455640Y-136371000D01*
X117428062Y-136368284D01*
X117407444Y-136362030D01*
X117388444Y-136351874D01*
X117371792Y-136338208D01*
X117358126Y-136321556D01*
X117347970Y-136302556D01*
X117341716Y-136281938D01*
X117339000Y-136254360D01*
X117339000Y-135745640D01*
X117341716Y-135718062D01*
X117347970Y-135697444D01*
X117358126Y-135678444D01*
X117371792Y-135661792D01*
X117388444Y-135648126D01*
X117407444Y-135637970D01*
X117428062Y-135631716D01*
X117455640Y-135629000D01*
X117914360Y-135629000D01*
X117941938Y-135631716D01*
X117941938Y-135631716D01*
G37*
G36*
X116971938Y-135631716D02*
X116992556Y-135637970D01*
X117011556Y-135648126D01*
X117028208Y-135661792D01*
X117041874Y-135678444D01*
X117052030Y-135697444D01*
X117058284Y-135718062D01*
X117061000Y-135745640D01*
X117061000Y-136254360D01*
X117058284Y-136281938D01*
X117052030Y-136302556D01*
X117041874Y-136321556D01*
X117028208Y-136338208D01*
X117011556Y-136351874D01*
X116992556Y-136362030D01*
X116971938Y-136368284D01*
X116944360Y-136371000D01*
X116485640Y-136371000D01*
X116458062Y-136368284D01*
X116437444Y-136362030D01*
X116418444Y-136351874D01*
X116401792Y-136338208D01*
X116388126Y-136321556D01*
X116377970Y-136302556D01*
X116371716Y-136281938D01*
X116369000Y-136254360D01*
X116369000Y-135745640D01*
X116371716Y-135718062D01*
X116377970Y-135697444D01*
X116388126Y-135678444D01*
X116401792Y-135661792D01*
X116418444Y-135648126D01*
X116437444Y-135637970D01*
X116458062Y-135631716D01*
X116485640Y-135629000D01*
X116944360Y-135629000D01*
X116971938Y-135631716D01*
X116971938Y-135631716D01*
G37*
G36*
X110842396Y-133665546D02*
X111015466Y-133737234D01*
X111171230Y-133841312D01*
X111303688Y-133973770D01*
X111407766Y-134129534D01*
X111479454Y-134302604D01*
X111516000Y-134486333D01*
X111516000Y-134673667D01*
X111479454Y-134857396D01*
X111407766Y-135030466D01*
X111303688Y-135186230D01*
X111171230Y-135318688D01*
X111015466Y-135422766D01*
X110842396Y-135494454D01*
X110658667Y-135531000D01*
X110471333Y-135531000D01*
X110287604Y-135494454D01*
X110114534Y-135422766D01*
X109958770Y-135318688D01*
X109826312Y-135186230D01*
X109722234Y-135030466D01*
X109650546Y-134857396D01*
X109614000Y-134673667D01*
X109614000Y-134486333D01*
X109650546Y-134302604D01*
X109722234Y-134129534D01*
X109826312Y-133973770D01*
X109958770Y-133841312D01*
X110114534Y-133737234D01*
X110287604Y-133665546D01*
X110471333Y-133629000D01*
X110658667Y-133629000D01*
X110842396Y-133665546D01*
X110842396Y-133665546D01*
G37*
G36*
X113382396Y-133665546D02*
X113555466Y-133737234D01*
X113711230Y-133841312D01*
X113843688Y-133973770D01*
X113947766Y-134129534D01*
X114019454Y-134302604D01*
X114056000Y-134486333D01*
X114056000Y-134673667D01*
X114019454Y-134857396D01*
X113947766Y-135030466D01*
X113843688Y-135186230D01*
X113711230Y-135318688D01*
X113555466Y-135422766D01*
X113382396Y-135494454D01*
X113198667Y-135531000D01*
X113011333Y-135531000D01*
X112827604Y-135494454D01*
X112654534Y-135422766D01*
X112498770Y-135318688D01*
X112366312Y-135186230D01*
X112262234Y-135030466D01*
X112190546Y-134857396D01*
X112154000Y-134673667D01*
X112154000Y-134486333D01*
X112190546Y-134302604D01*
X112262234Y-134129534D01*
X112366312Y-133973770D01*
X112498770Y-133841312D01*
X112654534Y-133737234D01*
X112827604Y-133665546D01*
X113011333Y-133629000D01*
X113198667Y-133629000D01*
X113382396Y-133665546D01*
X113382396Y-133665546D01*
G37*
G36*
X145286614Y-132976598D02*
X145311000Y-132979000D01*
X145606000Y-132979000D01*
X145606000Y-135521000D01*
X145311000Y-135521000D01*
X145286614Y-135523402D01*
X145278049Y-135526000D01*
X143184000Y-135526000D01*
X143184000Y-132974000D01*
X145278049Y-132974000D01*
X145286614Y-132976598D01*
X145286614Y-132976598D01*
G37*
G36*
X142726000Y-135521000D02*
X141994000Y-135521000D01*
X141994000Y-132979000D01*
X142726000Y-132979000D01*
X142726000Y-135521000D01*
X142726000Y-135521000D01*
G37*
G36*
X151088042Y-133674718D02*
X151154227Y-133681237D01*
X151267453Y-133715584D01*
X151324067Y-133732757D01*
X151462687Y-133806852D01*
X151480591Y-133816422D01*
X151510917Y-133841310D01*
X151617786Y-133929014D01*
X151701048Y-134030471D01*
X151730378Y-134066209D01*
X151730379Y-134066211D01*
X151814043Y-134222733D01*
X151814043Y-134222734D01*
X151865563Y-134392573D01*
X151882959Y-134569200D01*
X151865563Y-134745827D01*
X151831719Y-134857396D01*
X151814043Y-134915667D01*
X151752681Y-135030466D01*
X151730378Y-135072191D01*
X151718764Y-135086342D01*
X151617786Y-135209386D01*
X151516329Y-135292648D01*
X151480591Y-135321978D01*
X151480589Y-135321979D01*
X151324067Y-135405643D01*
X151267622Y-135422765D01*
X151154227Y-135457163D01*
X151088042Y-135463682D01*
X151021860Y-135470200D01*
X150933340Y-135470200D01*
X150867158Y-135463682D01*
X150800973Y-135457163D01*
X150687578Y-135422765D01*
X150631133Y-135405643D01*
X150474611Y-135321979D01*
X150474609Y-135321978D01*
X150438871Y-135292648D01*
X150337414Y-135209386D01*
X150236436Y-135086342D01*
X150224822Y-135072191D01*
X150202519Y-135030466D01*
X150141157Y-134915667D01*
X150123481Y-134857396D01*
X150089637Y-134745827D01*
X150072241Y-134569200D01*
X150089637Y-134392573D01*
X150141157Y-134222734D01*
X150141157Y-134222733D01*
X150224821Y-134066211D01*
X150224822Y-134066209D01*
X150254152Y-134030471D01*
X150337414Y-133929014D01*
X150444283Y-133841310D01*
X150474609Y-133816422D01*
X150492513Y-133806852D01*
X150631133Y-133732757D01*
X150687747Y-133715584D01*
X150800973Y-133681237D01*
X150867158Y-133674718D01*
X150933340Y-133668200D01*
X151021860Y-133668200D01*
X151088042Y-133674718D01*
X151088042Y-133674718D01*
G37*
G36*
X102901000Y-135001000D02*
X101949000Y-135001000D01*
X101949000Y-133299000D01*
X102901000Y-133299000D01*
X102901000Y-135001000D01*
X102901000Y-135001000D01*
G37*
G36*
X98901000Y-135001000D02*
X97949000Y-135001000D01*
X97949000Y-133299000D01*
X98901000Y-133299000D01*
X98901000Y-135001000D01*
X98901000Y-135001000D01*
G37*
G36*
X96551000Y-135001000D02*
X95599000Y-135001000D01*
X95599000Y-133299000D01*
X96551000Y-133299000D01*
X96551000Y-135001000D01*
X96551000Y-135001000D01*
G37*
G36*
X100651000Y-135001000D02*
X99699000Y-135001000D01*
X99699000Y-133299000D01*
X100651000Y-133299000D01*
X100651000Y-135001000D01*
X100651000Y-135001000D01*
G37*
G36*
X104651000Y-135001000D02*
X103699000Y-135001000D01*
X103699000Y-133299000D01*
X104651000Y-133299000D01*
X104651000Y-135001000D01*
X104651000Y-135001000D01*
G37*
G36*
X94801000Y-135001000D02*
X93849000Y-135001000D01*
X93849000Y-133299000D01*
X94801000Y-133299000D01*
X94801000Y-135001000D01*
X94801000Y-135001000D01*
G37*
G36*
X119705996Y-130103051D02*
X119739653Y-130113261D01*
X119770667Y-130129838D01*
X119797852Y-130152148D01*
X119820162Y-130179333D01*
X119836739Y-130210347D01*
X119846949Y-130244004D01*
X119851000Y-130285138D01*
X119851000Y-133514862D01*
X119846949Y-133555996D01*
X119836739Y-133589653D01*
X119820162Y-133620667D01*
X119797852Y-133647852D01*
X119770667Y-133670162D01*
X119739653Y-133686739D01*
X119705996Y-133696949D01*
X119664862Y-133701000D01*
X118335138Y-133701000D01*
X118294004Y-133696949D01*
X118260347Y-133686739D01*
X118229333Y-133670162D01*
X118202148Y-133647852D01*
X118179838Y-133620667D01*
X118163261Y-133589653D01*
X118153051Y-133555996D01*
X118149000Y-133514862D01*
X118149000Y-130285138D01*
X118153051Y-130244004D01*
X118163261Y-130210347D01*
X118179838Y-130179333D01*
X118202148Y-130152148D01*
X118229333Y-130129838D01*
X118260347Y-130113261D01*
X118294004Y-130103051D01*
X118335138Y-130099000D01*
X119664862Y-130099000D01*
X119705996Y-130103051D01*
X119705996Y-130103051D01*
G37*
G36*
X151088042Y-131134718D02*
X151154227Y-131141237D01*
X151267453Y-131175584D01*
X151324067Y-131192757D01*
X151462687Y-131266852D01*
X151480591Y-131276422D01*
X151516329Y-131305752D01*
X151617786Y-131389014D01*
X151701048Y-131490471D01*
X151730378Y-131526209D01*
X151730379Y-131526211D01*
X151814043Y-131682733D01*
X151814043Y-131682734D01*
X151865563Y-131852573D01*
X151882959Y-132029200D01*
X151865563Y-132205827D01*
X151834948Y-132306750D01*
X151814043Y-132375667D01*
X151775306Y-132448137D01*
X151730378Y-132532191D01*
X151701048Y-132567929D01*
X151617786Y-132669386D01*
X151516329Y-132752648D01*
X151480591Y-132781978D01*
X151480589Y-132781979D01*
X151324067Y-132865643D01*
X151267453Y-132882816D01*
X151154227Y-132917163D01*
X151088042Y-132923682D01*
X151021860Y-132930200D01*
X150933340Y-132930200D01*
X150867158Y-132923682D01*
X150800973Y-132917163D01*
X150687747Y-132882816D01*
X150631133Y-132865643D01*
X150474611Y-132781979D01*
X150474609Y-132781978D01*
X150438871Y-132752648D01*
X150337414Y-132669386D01*
X150254152Y-132567929D01*
X150224822Y-132532191D01*
X150179894Y-132448137D01*
X150141157Y-132375667D01*
X150120252Y-132306750D01*
X150089637Y-132205827D01*
X150072241Y-132029200D01*
X150089637Y-131852573D01*
X150141157Y-131682734D01*
X150141157Y-131682733D01*
X150224821Y-131526211D01*
X150224822Y-131526209D01*
X150254152Y-131490471D01*
X150337414Y-131389014D01*
X150438871Y-131305752D01*
X150474609Y-131276422D01*
X150492513Y-131266852D01*
X150631133Y-131192757D01*
X150687747Y-131175584D01*
X150800973Y-131141237D01*
X150867158Y-131134718D01*
X150933340Y-131128200D01*
X151021860Y-131128200D01*
X151088042Y-131134718D01*
X151088042Y-131134718D01*
G37*
G36*
X126984466Y-131503565D02*
X127023137Y-131515296D01*
X127058779Y-131534348D01*
X127090017Y-131559983D01*
X127115652Y-131591221D01*
X127134704Y-131626863D01*
X127146435Y-131665534D01*
X127151000Y-131711888D01*
X127151000Y-132363112D01*
X127146435Y-132409466D01*
X127134704Y-132448137D01*
X127115652Y-132483779D01*
X127090017Y-132515017D01*
X127058779Y-132540652D01*
X127023137Y-132559704D01*
X126984466Y-132571435D01*
X126938112Y-132576000D01*
X125861888Y-132576000D01*
X125815534Y-132571435D01*
X125776863Y-132559704D01*
X125741221Y-132540652D01*
X125709983Y-132515017D01*
X125684348Y-132483779D01*
X125665296Y-132448137D01*
X125653565Y-132409466D01*
X125649000Y-132363112D01*
X125649000Y-131711888D01*
X125653565Y-131665534D01*
X125665296Y-131626863D01*
X125684348Y-131591221D01*
X125709983Y-131559983D01*
X125741221Y-131534348D01*
X125776863Y-131515296D01*
X125815534Y-131503565D01*
X125861888Y-131499000D01*
X126938112Y-131499000D01*
X126984466Y-131503565D01*
X126984466Y-131503565D01*
G37*
G36*
X136484466Y-131503565D02*
X136523137Y-131515296D01*
X136558779Y-131534348D01*
X136590017Y-131559983D01*
X136615652Y-131591221D01*
X136634704Y-131626863D01*
X136646435Y-131665534D01*
X136651000Y-131711888D01*
X136651000Y-132363112D01*
X136646435Y-132409466D01*
X136634704Y-132448137D01*
X136615652Y-132483779D01*
X136590017Y-132515017D01*
X136558779Y-132540652D01*
X136523137Y-132559704D01*
X136484466Y-132571435D01*
X136438112Y-132576000D01*
X135361888Y-132576000D01*
X135315534Y-132571435D01*
X135276863Y-132559704D01*
X135241221Y-132540652D01*
X135209983Y-132515017D01*
X135184348Y-132483779D01*
X135165296Y-132448137D01*
X135153565Y-132409466D01*
X135149000Y-132363112D01*
X135149000Y-131711888D01*
X135153565Y-131665534D01*
X135165296Y-131626863D01*
X135184348Y-131591221D01*
X135209983Y-131559983D01*
X135241221Y-131534348D01*
X135276863Y-131515296D01*
X135315534Y-131503565D01*
X135361888Y-131499000D01*
X136438112Y-131499000D01*
X136484466Y-131503565D01*
X136484466Y-131503565D01*
G37*
G36*
X125084466Y-131503565D02*
X125123137Y-131515296D01*
X125158779Y-131534348D01*
X125190017Y-131559983D01*
X125215652Y-131591221D01*
X125234704Y-131626863D01*
X125246435Y-131665534D01*
X125251000Y-131711888D01*
X125251000Y-132363112D01*
X125246435Y-132409466D01*
X125234704Y-132448137D01*
X125215652Y-132483779D01*
X125190017Y-132515017D01*
X125158779Y-132540652D01*
X125123137Y-132559704D01*
X125084466Y-132571435D01*
X125038112Y-132576000D01*
X123961888Y-132576000D01*
X123915534Y-132571435D01*
X123876863Y-132559704D01*
X123841221Y-132540652D01*
X123809983Y-132515017D01*
X123784348Y-132483779D01*
X123765296Y-132448137D01*
X123753565Y-132409466D01*
X123749000Y-132363112D01*
X123749000Y-131711888D01*
X123753565Y-131665534D01*
X123765296Y-131626863D01*
X123784348Y-131591221D01*
X123809983Y-131559983D01*
X123841221Y-131534348D01*
X123876863Y-131515296D01*
X123915534Y-131503565D01*
X123961888Y-131499000D01*
X125038112Y-131499000D01*
X125084466Y-131503565D01*
X125084466Y-131503565D01*
G37*
G36*
X128884466Y-131503565D02*
X128923137Y-131515296D01*
X128958779Y-131534348D01*
X128990017Y-131559983D01*
X129015652Y-131591221D01*
X129034704Y-131626863D01*
X129046435Y-131665534D01*
X129051000Y-131711888D01*
X129051000Y-132363112D01*
X129046435Y-132409466D01*
X129034704Y-132448137D01*
X129015652Y-132483779D01*
X128990017Y-132515017D01*
X128958779Y-132540652D01*
X128923137Y-132559704D01*
X128884466Y-132571435D01*
X128838112Y-132576000D01*
X127761888Y-132576000D01*
X127715534Y-132571435D01*
X127676863Y-132559704D01*
X127641221Y-132540652D01*
X127609983Y-132515017D01*
X127584348Y-132483779D01*
X127565296Y-132448137D01*
X127553565Y-132409466D01*
X127549000Y-132363112D01*
X127549000Y-131711888D01*
X127553565Y-131665534D01*
X127565296Y-131626863D01*
X127584348Y-131591221D01*
X127609983Y-131559983D01*
X127641221Y-131534348D01*
X127676863Y-131515296D01*
X127715534Y-131503565D01*
X127761888Y-131499000D01*
X128838112Y-131499000D01*
X128884466Y-131503565D01*
X128884466Y-131503565D01*
G37*
G36*
X134584466Y-131503565D02*
X134623137Y-131515296D01*
X134658779Y-131534348D01*
X134690017Y-131559983D01*
X134715652Y-131591221D01*
X134734704Y-131626863D01*
X134746435Y-131665534D01*
X134751000Y-131711888D01*
X134751000Y-132363112D01*
X134746435Y-132409466D01*
X134734704Y-132448137D01*
X134715652Y-132483779D01*
X134690017Y-132515017D01*
X134658779Y-132540652D01*
X134623137Y-132559704D01*
X134584466Y-132571435D01*
X134538112Y-132576000D01*
X133461888Y-132576000D01*
X133415534Y-132571435D01*
X133376863Y-132559704D01*
X133341221Y-132540652D01*
X133309983Y-132515017D01*
X133284348Y-132483779D01*
X133265296Y-132448137D01*
X133253565Y-132409466D01*
X133249000Y-132363112D01*
X133249000Y-131711888D01*
X133253565Y-131665534D01*
X133265296Y-131626863D01*
X133284348Y-131591221D01*
X133309983Y-131559983D01*
X133341221Y-131534348D01*
X133376863Y-131515296D01*
X133415534Y-131503565D01*
X133461888Y-131499000D01*
X134538112Y-131499000D01*
X134584466Y-131503565D01*
X134584466Y-131503565D01*
G37*
G36*
X132684466Y-131503565D02*
X132723137Y-131515296D01*
X132758779Y-131534348D01*
X132790017Y-131559983D01*
X132815652Y-131591221D01*
X132834704Y-131626863D01*
X132846435Y-131665534D01*
X132851000Y-131711888D01*
X132851000Y-132363112D01*
X132846435Y-132409466D01*
X132834704Y-132448137D01*
X132815652Y-132483779D01*
X132790017Y-132515017D01*
X132758779Y-132540652D01*
X132723137Y-132559704D01*
X132684466Y-132571435D01*
X132638112Y-132576000D01*
X131561888Y-132576000D01*
X131515534Y-132571435D01*
X131476863Y-132559704D01*
X131441221Y-132540652D01*
X131409983Y-132515017D01*
X131384348Y-132483779D01*
X131365296Y-132448137D01*
X131353565Y-132409466D01*
X131349000Y-132363112D01*
X131349000Y-131711888D01*
X131353565Y-131665534D01*
X131365296Y-131626863D01*
X131384348Y-131591221D01*
X131409983Y-131559983D01*
X131441221Y-131534348D01*
X131476863Y-131515296D01*
X131515534Y-131503565D01*
X131561888Y-131499000D01*
X132638112Y-131499000D01*
X132684466Y-131503565D01*
X132684466Y-131503565D01*
G37*
G36*
X130784466Y-131503565D02*
X130823137Y-131515296D01*
X130858779Y-131534348D01*
X130890017Y-131559983D01*
X130915652Y-131591221D01*
X130934704Y-131626863D01*
X130946435Y-131665534D01*
X130951000Y-131711888D01*
X130951000Y-132363112D01*
X130946435Y-132409466D01*
X130934704Y-132448137D01*
X130915652Y-132483779D01*
X130890017Y-132515017D01*
X130858779Y-132540652D01*
X130823137Y-132559704D01*
X130784466Y-132571435D01*
X130738112Y-132576000D01*
X129661888Y-132576000D01*
X129615534Y-132571435D01*
X129576863Y-132559704D01*
X129541221Y-132540652D01*
X129509983Y-132515017D01*
X129484348Y-132483779D01*
X129465296Y-132448137D01*
X129453565Y-132409466D01*
X129449000Y-132363112D01*
X129449000Y-131711888D01*
X129453565Y-131665534D01*
X129465296Y-131626863D01*
X129484348Y-131591221D01*
X129509983Y-131559983D01*
X129541221Y-131534348D01*
X129576863Y-131515296D01*
X129615534Y-131503565D01*
X129661888Y-131499000D01*
X130738112Y-131499000D01*
X130784466Y-131503565D01*
X130784466Y-131503565D01*
G37*
G36*
X139866000Y-132326000D02*
X137771951Y-132326000D01*
X137763386Y-132323402D01*
X137739000Y-132321000D01*
X137444000Y-132321000D01*
X137444000Y-129779000D01*
X137739000Y-129779000D01*
X137763386Y-129776598D01*
X137771951Y-129774000D01*
X139866000Y-129774000D01*
X139866000Y-132326000D01*
X139866000Y-132326000D01*
G37*
G36*
X141056000Y-132321000D02*
X140324000Y-132321000D01*
X140324000Y-129779000D01*
X141056000Y-129779000D01*
X141056000Y-132321000D01*
X141056000Y-132321000D01*
G37*
G36*
X99701000Y-131751000D02*
X93599000Y-131751000D01*
X93599000Y-129649000D01*
X99701000Y-129649000D01*
X99701000Y-131751000D01*
X99701000Y-131751000D01*
G37*
G36*
X107701000Y-131751000D02*
X104099000Y-131751000D01*
X104099000Y-129649000D01*
X107701000Y-129649000D01*
X107701000Y-131751000D01*
X107701000Y-131751000D01*
G37*
G36*
X125084466Y-129628565D02*
X125123137Y-129640296D01*
X125158779Y-129659348D01*
X125190017Y-129684983D01*
X125215652Y-129716221D01*
X125234704Y-129751863D01*
X125246435Y-129790534D01*
X125251000Y-129836888D01*
X125251000Y-130488112D01*
X125246435Y-130534466D01*
X125234704Y-130573137D01*
X125215652Y-130608779D01*
X125190017Y-130640017D01*
X125158779Y-130665652D01*
X125123137Y-130684704D01*
X125084466Y-130696435D01*
X125038112Y-130701000D01*
X123961888Y-130701000D01*
X123915534Y-130696435D01*
X123876863Y-130684704D01*
X123841221Y-130665652D01*
X123809983Y-130640017D01*
X123784348Y-130608779D01*
X123765296Y-130573137D01*
X123753565Y-130534466D01*
X123749000Y-130488112D01*
X123749000Y-129836888D01*
X123753565Y-129790534D01*
X123765296Y-129751863D01*
X123784348Y-129716221D01*
X123809983Y-129684983D01*
X123841221Y-129659348D01*
X123876863Y-129640296D01*
X123915534Y-129628565D01*
X123961888Y-129624000D01*
X125038112Y-129624000D01*
X125084466Y-129628565D01*
X125084466Y-129628565D01*
G37*
G36*
X132684466Y-129628565D02*
X132723137Y-129640296D01*
X132758779Y-129659348D01*
X132790017Y-129684983D01*
X132815652Y-129716221D01*
X132834704Y-129751863D01*
X132846435Y-129790534D01*
X132851000Y-129836888D01*
X132851000Y-130488112D01*
X132846435Y-130534466D01*
X132834704Y-130573137D01*
X132815652Y-130608779D01*
X132790017Y-130640017D01*
X132758779Y-130665652D01*
X132723137Y-130684704D01*
X132684466Y-130696435D01*
X132638112Y-130701000D01*
X131561888Y-130701000D01*
X131515534Y-130696435D01*
X131476863Y-130684704D01*
X131441221Y-130665652D01*
X131409983Y-130640017D01*
X131384348Y-130608779D01*
X131365296Y-130573137D01*
X131353565Y-130534466D01*
X131349000Y-130488112D01*
X131349000Y-129836888D01*
X131353565Y-129790534D01*
X131365296Y-129751863D01*
X131384348Y-129716221D01*
X131409983Y-129684983D01*
X131441221Y-129659348D01*
X131476863Y-129640296D01*
X131515534Y-129628565D01*
X131561888Y-129624000D01*
X132638112Y-129624000D01*
X132684466Y-129628565D01*
X132684466Y-129628565D01*
G37*
G36*
X134584466Y-129628565D02*
X134623137Y-129640296D01*
X134658779Y-129659348D01*
X134690017Y-129684983D01*
X134715652Y-129716221D01*
X134734704Y-129751863D01*
X134746435Y-129790534D01*
X134751000Y-129836888D01*
X134751000Y-130488112D01*
X134746435Y-130534466D01*
X134734704Y-130573137D01*
X134715652Y-130608779D01*
X134690017Y-130640017D01*
X134658779Y-130665652D01*
X134623137Y-130684704D01*
X134584466Y-130696435D01*
X134538112Y-130701000D01*
X133461888Y-130701000D01*
X133415534Y-130696435D01*
X133376863Y-130684704D01*
X133341221Y-130665652D01*
X133309983Y-130640017D01*
X133284348Y-130608779D01*
X133265296Y-130573137D01*
X133253565Y-130534466D01*
X133249000Y-130488112D01*
X133249000Y-129836888D01*
X133253565Y-129790534D01*
X133265296Y-129751863D01*
X133284348Y-129716221D01*
X133309983Y-129684983D01*
X133341221Y-129659348D01*
X133376863Y-129640296D01*
X133415534Y-129628565D01*
X133461888Y-129624000D01*
X134538112Y-129624000D01*
X134584466Y-129628565D01*
X134584466Y-129628565D01*
G37*
G36*
X128884466Y-129628565D02*
X128923137Y-129640296D01*
X128958779Y-129659348D01*
X128990017Y-129684983D01*
X129015652Y-129716221D01*
X129034704Y-129751863D01*
X129046435Y-129790534D01*
X129051000Y-129836888D01*
X129051000Y-130488112D01*
X129046435Y-130534466D01*
X129034704Y-130573137D01*
X129015652Y-130608779D01*
X128990017Y-130640017D01*
X128958779Y-130665652D01*
X128923137Y-130684704D01*
X128884466Y-130696435D01*
X128838112Y-130701000D01*
X127761888Y-130701000D01*
X127715534Y-130696435D01*
X127676863Y-130684704D01*
X127641221Y-130665652D01*
X127609983Y-130640017D01*
X127584348Y-130608779D01*
X127565296Y-130573137D01*
X127553565Y-130534466D01*
X127549000Y-130488112D01*
X127549000Y-129836888D01*
X127553565Y-129790534D01*
X127565296Y-129751863D01*
X127584348Y-129716221D01*
X127609983Y-129684983D01*
X127641221Y-129659348D01*
X127676863Y-129640296D01*
X127715534Y-129628565D01*
X127761888Y-129624000D01*
X128838112Y-129624000D01*
X128884466Y-129628565D01*
X128884466Y-129628565D01*
G37*
G36*
X126984466Y-129628565D02*
X127023137Y-129640296D01*
X127058779Y-129659348D01*
X127090017Y-129684983D01*
X127115652Y-129716221D01*
X127134704Y-129751863D01*
X127146435Y-129790534D01*
X127151000Y-129836888D01*
X127151000Y-130488112D01*
X127146435Y-130534466D01*
X127134704Y-130573137D01*
X127115652Y-130608779D01*
X127090017Y-130640017D01*
X127058779Y-130665652D01*
X127023137Y-130684704D01*
X126984466Y-130696435D01*
X126938112Y-130701000D01*
X125861888Y-130701000D01*
X125815534Y-130696435D01*
X125776863Y-130684704D01*
X125741221Y-130665652D01*
X125709983Y-130640017D01*
X125684348Y-130608779D01*
X125665296Y-130573137D01*
X125653565Y-130534466D01*
X125649000Y-130488112D01*
X125649000Y-129836888D01*
X125653565Y-129790534D01*
X125665296Y-129751863D01*
X125684348Y-129716221D01*
X125709983Y-129684983D01*
X125741221Y-129659348D01*
X125776863Y-129640296D01*
X125815534Y-129628565D01*
X125861888Y-129624000D01*
X126938112Y-129624000D01*
X126984466Y-129628565D01*
X126984466Y-129628565D01*
G37*
G36*
X130784466Y-129628565D02*
X130823137Y-129640296D01*
X130858779Y-129659348D01*
X130890017Y-129684983D01*
X130915652Y-129716221D01*
X130934704Y-129751863D01*
X130946435Y-129790534D01*
X130951000Y-129836888D01*
X130951000Y-130488112D01*
X130946435Y-130534466D01*
X130934704Y-130573137D01*
X130915652Y-130608779D01*
X130890017Y-130640017D01*
X130858779Y-130665652D01*
X130823137Y-130684704D01*
X130784466Y-130696435D01*
X130738112Y-130701000D01*
X129661888Y-130701000D01*
X129615534Y-130696435D01*
X129576863Y-130684704D01*
X129541221Y-130665652D01*
X129509983Y-130640017D01*
X129484348Y-130608779D01*
X129465296Y-130573137D01*
X129453565Y-130534466D01*
X129449000Y-130488112D01*
X129449000Y-129836888D01*
X129453565Y-129790534D01*
X129465296Y-129751863D01*
X129484348Y-129716221D01*
X129509983Y-129684983D01*
X129541221Y-129659348D01*
X129576863Y-129640296D01*
X129615534Y-129628565D01*
X129661888Y-129624000D01*
X130738112Y-129624000D01*
X130784466Y-129628565D01*
X130784466Y-129628565D01*
G37*
G36*
X136484466Y-129628565D02*
X136523137Y-129640296D01*
X136558779Y-129659348D01*
X136590017Y-129684983D01*
X136615652Y-129716221D01*
X136634704Y-129751863D01*
X136646435Y-129790534D01*
X136651000Y-129836888D01*
X136651000Y-130488112D01*
X136646435Y-130534466D01*
X136634704Y-130573137D01*
X136615652Y-130608779D01*
X136590017Y-130640017D01*
X136558779Y-130665652D01*
X136523137Y-130684704D01*
X136484466Y-130696435D01*
X136438112Y-130701000D01*
X135361888Y-130701000D01*
X135315534Y-130696435D01*
X135276863Y-130684704D01*
X135241221Y-130665652D01*
X135209983Y-130640017D01*
X135184348Y-130608779D01*
X135165296Y-130573137D01*
X135153565Y-130534466D01*
X135149000Y-130488112D01*
X135149000Y-129836888D01*
X135153565Y-129790534D01*
X135165296Y-129751863D01*
X135184348Y-129716221D01*
X135209983Y-129684983D01*
X135241221Y-129659348D01*
X135276863Y-129640296D01*
X135315534Y-129628565D01*
X135361888Y-129624000D01*
X136438112Y-129624000D01*
X136484466Y-129628565D01*
X136484466Y-129628565D01*
G37*
G36*
X151088043Y-128594719D02*
X151154227Y-128601237D01*
X151267453Y-128635584D01*
X151324067Y-128652757D01*
X151462687Y-128726852D01*
X151480591Y-128736422D01*
X151516329Y-128765752D01*
X151617786Y-128849014D01*
X151675221Y-128919000D01*
X151730378Y-128986209D01*
X151730379Y-128986211D01*
X151814043Y-129142733D01*
X151814043Y-129142734D01*
X151865563Y-129312573D01*
X151882959Y-129489200D01*
X151865563Y-129665827D01*
X151850276Y-129716221D01*
X151814043Y-129835667D01*
X151739948Y-129974287D01*
X151730378Y-129992191D01*
X151701048Y-130027929D01*
X151617786Y-130129386D01*
X151519133Y-130210347D01*
X151480591Y-130241978D01*
X151480589Y-130241979D01*
X151324067Y-130325643D01*
X151267453Y-130342816D01*
X151154227Y-130377163D01*
X151088042Y-130383682D01*
X151021860Y-130390200D01*
X150933340Y-130390200D01*
X150867158Y-130383682D01*
X150800973Y-130377163D01*
X150687747Y-130342816D01*
X150631133Y-130325643D01*
X150474611Y-130241979D01*
X150474609Y-130241978D01*
X150436067Y-130210347D01*
X150337414Y-130129386D01*
X150254152Y-130027929D01*
X150224822Y-129992191D01*
X150215252Y-129974287D01*
X150141157Y-129835667D01*
X150104924Y-129716221D01*
X150089637Y-129665827D01*
X150072241Y-129489200D01*
X150089637Y-129312573D01*
X150141157Y-129142734D01*
X150141157Y-129142733D01*
X150224821Y-128986211D01*
X150224822Y-128986209D01*
X150279979Y-128919000D01*
X150337414Y-128849014D01*
X150438871Y-128765752D01*
X150474609Y-128736422D01*
X150492513Y-128726852D01*
X150631133Y-128652757D01*
X150687747Y-128635584D01*
X150800973Y-128601237D01*
X150867157Y-128594719D01*
X150933340Y-128588200D01*
X151021860Y-128588200D01*
X151088043Y-128594719D01*
X151088043Y-128594719D01*
G37*
G36*
X145286614Y-126976598D02*
X145311000Y-126979000D01*
X145606000Y-126979000D01*
X145606000Y-129521000D01*
X145311000Y-129521000D01*
X145286614Y-129523402D01*
X145278049Y-129526000D01*
X143184000Y-129526000D01*
X143184000Y-126974000D01*
X145278049Y-126974000D01*
X145286614Y-126976598D01*
X145286614Y-126976598D01*
G37*
G36*
X142726000Y-129521000D02*
X141994000Y-129521000D01*
X141994000Y-126979000D01*
X142726000Y-126979000D01*
X142726000Y-129521000D01*
X142726000Y-129521000D01*
G37*
G36*
X119705996Y-124703051D02*
X119739653Y-124713261D01*
X119770667Y-124729838D01*
X119797852Y-124752148D01*
X119820162Y-124779333D01*
X119836739Y-124810347D01*
X119846949Y-124844004D01*
X119851000Y-124885138D01*
X119851000Y-128114862D01*
X119846949Y-128155996D01*
X119836739Y-128189653D01*
X119820162Y-128220667D01*
X119797852Y-128247852D01*
X119770667Y-128270162D01*
X119739653Y-128286739D01*
X119705996Y-128296949D01*
X119664862Y-128301000D01*
X118335138Y-128301000D01*
X118294004Y-128296949D01*
X118260347Y-128286739D01*
X118229333Y-128270162D01*
X118202148Y-128247852D01*
X118179838Y-128220667D01*
X118163261Y-128189653D01*
X118153051Y-128155996D01*
X118149000Y-128114862D01*
X118149000Y-124885138D01*
X118153051Y-124844004D01*
X118163261Y-124810347D01*
X118179838Y-124779333D01*
X118202148Y-124752148D01*
X118229333Y-124729838D01*
X118260347Y-124713261D01*
X118294004Y-124703051D01*
X118335138Y-124699000D01*
X119664862Y-124699000D01*
X119705996Y-124703051D01*
X119705996Y-124703051D01*
G37*
G36*
X115065999Y-128251000D02*
X112563999Y-128251000D01*
X112563999Y-124669000D01*
X115065999Y-124669000D01*
X115065999Y-128251000D01*
X115065999Y-128251000D01*
G37*
G36*
X111515999Y-128251000D02*
X109013999Y-128251000D01*
X109013999Y-124669000D01*
X111515999Y-124669000D01*
X111515999Y-128251000D01*
X111515999Y-128251000D01*
G37*
G36*
X151088042Y-126054718D02*
X151154227Y-126061237D01*
X151267453Y-126095584D01*
X151324067Y-126112757D01*
X151462687Y-126186852D01*
X151480591Y-126196422D01*
X151516329Y-126225752D01*
X151617786Y-126309014D01*
X151701048Y-126410471D01*
X151730378Y-126446209D01*
X151730379Y-126446211D01*
X151814043Y-126602733D01*
X151814043Y-126602734D01*
X151865563Y-126772573D01*
X151882959Y-126949200D01*
X151865563Y-127125827D01*
X151831216Y-127239053D01*
X151814043Y-127295667D01*
X151739948Y-127434287D01*
X151730378Y-127452191D01*
X151701048Y-127487929D01*
X151617786Y-127589386D01*
X151516329Y-127672648D01*
X151480591Y-127701978D01*
X151480589Y-127701979D01*
X151324067Y-127785643D01*
X151267453Y-127802816D01*
X151154227Y-127837163D01*
X151088042Y-127843682D01*
X151021860Y-127850200D01*
X150933340Y-127850200D01*
X150867158Y-127843682D01*
X150800973Y-127837163D01*
X150687747Y-127802816D01*
X150631133Y-127785643D01*
X150474611Y-127701979D01*
X150474609Y-127701978D01*
X150438871Y-127672648D01*
X150337414Y-127589386D01*
X150254152Y-127487929D01*
X150224822Y-127452191D01*
X150215252Y-127434287D01*
X150141157Y-127295667D01*
X150123984Y-127239053D01*
X150089637Y-127125827D01*
X150072241Y-126949200D01*
X150089637Y-126772573D01*
X150141157Y-126602734D01*
X150141157Y-126602733D01*
X150224821Y-126446211D01*
X150224822Y-126446209D01*
X150254152Y-126410471D01*
X150337414Y-126309014D01*
X150438871Y-126225752D01*
X150474609Y-126196422D01*
X150492513Y-126186852D01*
X150631133Y-126112757D01*
X150687747Y-126095584D01*
X150800973Y-126061237D01*
X150867158Y-126054718D01*
X150933340Y-126048200D01*
X151021860Y-126048200D01*
X151088042Y-126054718D01*
X151088042Y-126054718D01*
G37*
G36*
X107701000Y-127751000D02*
X104099000Y-127751000D01*
X104099000Y-125649000D01*
X107701000Y-125649000D01*
X107701000Y-127751000D01*
X107701000Y-127751000D01*
G37*
G36*
X99701000Y-127751000D02*
X93599000Y-127751000D01*
X93599000Y-125649000D01*
X99701000Y-125649000D01*
X99701000Y-127751000D01*
X99701000Y-127751000D01*
G37*
G36*
X139866000Y-126331000D02*
X137771951Y-126331000D01*
X137763386Y-126328402D01*
X137739000Y-126326000D01*
X137444000Y-126326000D01*
X137444000Y-123784000D01*
X137739000Y-123784000D01*
X137763386Y-123781598D01*
X137771951Y-123779000D01*
X139866000Y-123779000D01*
X139866000Y-126331000D01*
X139866000Y-126331000D01*
G37*
G36*
X141056000Y-126326000D02*
X140324000Y-126326000D01*
X140324000Y-123784000D01*
X141056000Y-123784000D01*
X141056000Y-126326000D01*
X141056000Y-126326000D01*
G37*
G36*
X151088042Y-123514718D02*
X151154227Y-123521237D01*
X151267453Y-123555584D01*
X151324067Y-123572757D01*
X151462687Y-123646852D01*
X151480591Y-123656422D01*
X151516329Y-123685752D01*
X151617786Y-123769014D01*
X151701048Y-123870471D01*
X151730378Y-123906209D01*
X151730379Y-123906211D01*
X151814043Y-124062733D01*
X151823562Y-124094114D01*
X151865563Y-124232573D01*
X151882959Y-124409200D01*
X151865563Y-124585827D01*
X151840333Y-124669000D01*
X151814043Y-124755667D01*
X151766825Y-124844004D01*
X151730378Y-124912191D01*
X151701048Y-124947929D01*
X151617786Y-125049386D01*
X151516329Y-125132648D01*
X151480591Y-125161978D01*
X151480589Y-125161979D01*
X151324067Y-125245643D01*
X151267453Y-125262816D01*
X151154227Y-125297163D01*
X151088043Y-125303681D01*
X151021860Y-125310200D01*
X150933340Y-125310200D01*
X150867157Y-125303681D01*
X150800973Y-125297163D01*
X150687747Y-125262816D01*
X150631133Y-125245643D01*
X150474611Y-125161979D01*
X150474609Y-125161978D01*
X150438871Y-125132648D01*
X150337414Y-125049386D01*
X150254152Y-124947929D01*
X150224822Y-124912191D01*
X150188375Y-124844004D01*
X150141157Y-124755667D01*
X150114867Y-124669000D01*
X150089637Y-124585827D01*
X150072241Y-124409200D01*
X150089637Y-124232573D01*
X150131638Y-124094114D01*
X150141157Y-124062733D01*
X150224821Y-123906211D01*
X150224822Y-123906209D01*
X150254152Y-123870471D01*
X150337414Y-123769014D01*
X150438871Y-123685752D01*
X150474609Y-123656422D01*
X150492513Y-123646852D01*
X150631133Y-123572757D01*
X150687747Y-123555584D01*
X150800973Y-123521237D01*
X150867158Y-123514718D01*
X150933340Y-123508200D01*
X151021860Y-123508200D01*
X151088042Y-123514718D01*
X151088042Y-123514718D01*
G37*
G36*
X95541938Y-123431716D02*
X95562556Y-123437970D01*
X95581556Y-123448126D01*
X95598208Y-123461792D01*
X95611874Y-123478444D01*
X95622030Y-123497444D01*
X95628284Y-123518062D01*
X95631000Y-123545640D01*
X95631000Y-124054360D01*
X95628284Y-124081938D01*
X95622030Y-124102556D01*
X95611874Y-124121556D01*
X95598208Y-124138208D01*
X95581556Y-124151874D01*
X95562556Y-124162030D01*
X95541938Y-124168284D01*
X95514360Y-124171000D01*
X95055640Y-124171000D01*
X95028062Y-124168284D01*
X95007444Y-124162030D01*
X94988444Y-124151874D01*
X94971792Y-124138208D01*
X94958126Y-124121556D01*
X94947970Y-124102556D01*
X94941716Y-124081938D01*
X94939000Y-124054360D01*
X94939000Y-123545640D01*
X94941716Y-123518062D01*
X94947970Y-123497444D01*
X94958126Y-123478444D01*
X94971792Y-123461792D01*
X94988444Y-123448126D01*
X95007444Y-123437970D01*
X95028062Y-123431716D01*
X95055640Y-123429000D01*
X95514360Y-123429000D01*
X95541938Y-123431716D01*
X95541938Y-123431716D01*
G37*
G36*
X94571938Y-123431716D02*
X94592556Y-123437970D01*
X94611556Y-123448126D01*
X94628208Y-123461792D01*
X94641874Y-123478444D01*
X94652030Y-123497444D01*
X94658284Y-123518062D01*
X94661000Y-123545640D01*
X94661000Y-124054360D01*
X94658284Y-124081938D01*
X94652030Y-124102556D01*
X94641874Y-124121556D01*
X94628208Y-124138208D01*
X94611556Y-124151874D01*
X94592556Y-124162030D01*
X94571938Y-124168284D01*
X94544360Y-124171000D01*
X94085640Y-124171000D01*
X94058062Y-124168284D01*
X94037444Y-124162030D01*
X94018444Y-124151874D01*
X94001792Y-124138208D01*
X93988126Y-124121556D01*
X93977970Y-124102556D01*
X93971716Y-124081938D01*
X93969000Y-124054360D01*
X93969000Y-123545640D01*
X93971716Y-123518062D01*
X93977970Y-123497444D01*
X93988126Y-123478444D01*
X94001792Y-123461792D01*
X94018444Y-123448126D01*
X94037444Y-123437970D01*
X94058062Y-123431716D01*
X94085640Y-123429000D01*
X94544360Y-123429000D01*
X94571938Y-123431716D01*
X94571938Y-123431716D01*
G37*
G36*
X145286614Y-121026598D02*
X145311000Y-121029000D01*
X145606000Y-121029000D01*
X145606000Y-123571000D01*
X145311000Y-123571000D01*
X145286614Y-123573402D01*
X145278049Y-123576000D01*
X143184000Y-123576000D01*
X143184000Y-121024000D01*
X145278049Y-121024000D01*
X145286614Y-121026598D01*
X145286614Y-121026598D01*
G37*
G36*
X142726000Y-123571000D02*
X141994000Y-123571000D01*
X141994000Y-121029000D01*
X142726000Y-121029000D01*
X142726000Y-123571000D01*
X142726000Y-123571000D01*
G37*
G36*
X100820000Y-123325000D02*
X99170000Y-123325000D01*
X99170000Y-120175000D01*
X100820000Y-120175000D01*
X100820000Y-123325000D01*
X100820000Y-123325000D01*
G37*
G36*
X105900000Y-123325000D02*
X104250000Y-123325000D01*
X104250000Y-120175000D01*
X105900000Y-120175000D01*
X105900000Y-123325000D01*
X105900000Y-123325000D01*
G37*
G36*
X98280000Y-123325000D02*
X96630000Y-123325000D01*
X96630000Y-120175000D01*
X98280000Y-120175000D01*
X98280000Y-123325000D01*
X98280000Y-123325000D01*
G37*
G36*
X103360000Y-123325000D02*
X101710000Y-123325000D01*
X101710000Y-120175000D01*
X103360000Y-120175000D01*
X103360000Y-123325000D01*
X103360000Y-123325000D01*
G37*
G36*
X123852938Y-122569716D02*
X123873556Y-122575970D01*
X123892556Y-122586126D01*
X123909208Y-122599792D01*
X123922874Y-122616444D01*
X123933030Y-122635444D01*
X123939284Y-122656062D01*
X123942000Y-122683640D01*
X123942000Y-123142360D01*
X123939284Y-123169938D01*
X123933030Y-123190556D01*
X123922874Y-123209556D01*
X123909208Y-123226208D01*
X123892556Y-123239874D01*
X123873556Y-123250030D01*
X123852938Y-123256284D01*
X123825360Y-123259000D01*
X123316640Y-123259000D01*
X123289062Y-123256284D01*
X123268444Y-123250030D01*
X123249444Y-123239874D01*
X123232792Y-123226208D01*
X123219126Y-123209556D01*
X123208970Y-123190556D01*
X123202716Y-123169938D01*
X123200000Y-123142360D01*
X123200000Y-122683640D01*
X123202716Y-122656062D01*
X123208970Y-122635444D01*
X123219126Y-122616444D01*
X123232792Y-122599792D01*
X123249444Y-122586126D01*
X123268444Y-122575970D01*
X123289062Y-122569716D01*
X123316640Y-122567000D01*
X123825360Y-122567000D01*
X123852938Y-122569716D01*
X123852938Y-122569716D01*
G37*
G36*
X151088043Y-120974719D02*
X151154227Y-120981237D01*
X151267453Y-121015584D01*
X151324067Y-121032757D01*
X151439348Y-121094377D01*
X151480591Y-121116422D01*
X151494529Y-121127861D01*
X151617786Y-121229014D01*
X151691019Y-121318250D01*
X151730378Y-121366209D01*
X151730379Y-121366211D01*
X151814043Y-121522733D01*
X151814043Y-121522734D01*
X151865563Y-121692573D01*
X151882959Y-121869200D01*
X151865563Y-122045827D01*
X151841243Y-122126000D01*
X151814043Y-122215667D01*
X151776622Y-122285676D01*
X151730378Y-122372191D01*
X151701048Y-122407929D01*
X151617786Y-122509386D01*
X151516329Y-122592648D01*
X151480591Y-122621978D01*
X151480589Y-122621979D01*
X151324067Y-122705643D01*
X151267453Y-122722816D01*
X151154227Y-122757163D01*
X151088043Y-122763681D01*
X151021860Y-122770200D01*
X150933340Y-122770200D01*
X150867157Y-122763681D01*
X150800973Y-122757163D01*
X150687747Y-122722816D01*
X150631133Y-122705643D01*
X150474611Y-122621979D01*
X150474609Y-122621978D01*
X150438871Y-122592648D01*
X150337414Y-122509386D01*
X150254152Y-122407929D01*
X150224822Y-122372191D01*
X150178578Y-122285676D01*
X150141157Y-122215667D01*
X150113957Y-122126000D01*
X150089637Y-122045827D01*
X150072241Y-121869200D01*
X150089637Y-121692573D01*
X150141157Y-121522734D01*
X150141157Y-121522733D01*
X150224821Y-121366211D01*
X150224822Y-121366209D01*
X150264181Y-121318250D01*
X150337414Y-121229014D01*
X150460671Y-121127861D01*
X150474609Y-121116422D01*
X150515852Y-121094377D01*
X150631133Y-121032757D01*
X150687747Y-121015584D01*
X150800973Y-120981237D01*
X150867157Y-120974719D01*
X150933340Y-120968200D01*
X151021860Y-120968200D01*
X151088043Y-120974719D01*
X151088043Y-120974719D01*
G37*
G36*
X123852938Y-121599716D02*
X123873556Y-121605970D01*
X123892556Y-121616126D01*
X123909208Y-121629792D01*
X123922874Y-121646444D01*
X123933030Y-121665444D01*
X123939284Y-121686062D01*
X123942000Y-121713640D01*
X123942000Y-122172360D01*
X123939284Y-122199938D01*
X123933030Y-122220556D01*
X123922874Y-122239556D01*
X123909208Y-122256208D01*
X123892556Y-122269874D01*
X123873556Y-122280030D01*
X123852938Y-122286284D01*
X123825360Y-122289000D01*
X123316640Y-122289000D01*
X123289062Y-122286284D01*
X123268444Y-122280030D01*
X123249444Y-122269874D01*
X123232792Y-122256208D01*
X123219126Y-122239556D01*
X123208970Y-122220556D01*
X123202716Y-122199938D01*
X123200000Y-122172360D01*
X123200000Y-121713640D01*
X123202716Y-121686062D01*
X123208970Y-121665444D01*
X123219126Y-121646444D01*
X123232792Y-121629792D01*
X123249444Y-121616126D01*
X123268444Y-121605970D01*
X123289062Y-121599716D01*
X123316640Y-121597000D01*
X123825360Y-121597000D01*
X123852938Y-121599716D01*
X123852938Y-121599716D01*
G37*
G36*
X119329466Y-121053565D02*
X119368137Y-121065296D01*
X119403779Y-121084348D01*
X119435017Y-121109983D01*
X119460652Y-121141221D01*
X119479704Y-121176863D01*
X119491435Y-121215534D01*
X119496000Y-121261888D01*
X119496000Y-121913112D01*
X119491435Y-121959466D01*
X119479704Y-121998137D01*
X119460652Y-122033779D01*
X119435017Y-122065017D01*
X119403779Y-122090652D01*
X119368137Y-122109704D01*
X119329466Y-122121435D01*
X119283112Y-122126000D01*
X118206888Y-122126000D01*
X118160534Y-122121435D01*
X118121863Y-122109704D01*
X118086221Y-122090652D01*
X118054983Y-122065017D01*
X118029348Y-122033779D01*
X118010296Y-121998137D01*
X117998565Y-121959466D01*
X117994000Y-121913112D01*
X117994000Y-121261888D01*
X117998565Y-121215534D01*
X118010296Y-121176863D01*
X118029348Y-121141221D01*
X118054983Y-121109983D01*
X118086221Y-121084348D01*
X118121863Y-121065296D01*
X118160534Y-121053565D01*
X118206888Y-121049000D01*
X119283112Y-121049000D01*
X119329466Y-121053565D01*
X119329466Y-121053565D01*
G37*
G36*
X115340999Y-121641000D02*
X108738999Y-121641000D01*
X108738999Y-119939000D01*
X115340999Y-119939000D01*
X115340999Y-121641000D01*
X115340999Y-121641000D01*
G37*
G36*
X116581938Y-120741716D02*
X116602556Y-120747970D01*
X116621556Y-120758126D01*
X116638208Y-120771792D01*
X116651874Y-120788444D01*
X116662030Y-120807444D01*
X116668284Y-120828062D01*
X116671000Y-120855640D01*
X116671000Y-121314360D01*
X116668284Y-121341938D01*
X116662030Y-121362556D01*
X116651874Y-121381556D01*
X116638208Y-121398208D01*
X116621556Y-121411874D01*
X116602556Y-121422030D01*
X116581938Y-121428284D01*
X116554360Y-121431000D01*
X116045640Y-121431000D01*
X116018062Y-121428284D01*
X115997444Y-121422030D01*
X115978444Y-121411874D01*
X115961792Y-121398208D01*
X115948126Y-121381556D01*
X115937970Y-121362556D01*
X115931716Y-121341938D01*
X115929000Y-121314360D01*
X115929000Y-120855640D01*
X115931716Y-120828062D01*
X115937970Y-120807444D01*
X115948126Y-120788444D01*
X115961792Y-120771792D01*
X115978444Y-120758126D01*
X115997444Y-120747970D01*
X116018062Y-120741716D01*
X116045640Y-120739000D01*
X116554360Y-120739000D01*
X116581938Y-120741716D01*
X116581938Y-120741716D01*
G37*
G36*
X116581938Y-119771716D02*
X116602556Y-119777970D01*
X116621556Y-119788126D01*
X116638208Y-119801792D01*
X116651874Y-119818444D01*
X116662030Y-119837444D01*
X116668284Y-119858062D01*
X116671000Y-119885640D01*
X116671000Y-120344360D01*
X116668284Y-120371938D01*
X116662030Y-120392556D01*
X116651874Y-120411556D01*
X116638208Y-120428208D01*
X116621556Y-120441874D01*
X116602556Y-120452030D01*
X116581938Y-120458284D01*
X116554360Y-120461000D01*
X116045640Y-120461000D01*
X116018062Y-120458284D01*
X115997444Y-120452030D01*
X115978444Y-120441874D01*
X115961792Y-120428208D01*
X115948126Y-120411556D01*
X115937970Y-120392556D01*
X115931716Y-120371938D01*
X115929000Y-120344360D01*
X115929000Y-119885640D01*
X115931716Y-119858062D01*
X115937970Y-119837444D01*
X115948126Y-119818444D01*
X115961792Y-119801792D01*
X115978444Y-119788126D01*
X115997444Y-119777970D01*
X116018062Y-119771716D01*
X116045640Y-119769000D01*
X116554360Y-119769000D01*
X116581938Y-119771716D01*
X116581938Y-119771716D01*
G37*
G36*
X119329466Y-119178565D02*
X119368137Y-119190296D01*
X119403779Y-119209348D01*
X119435017Y-119234983D01*
X119460652Y-119266221D01*
X119479704Y-119301863D01*
X119491435Y-119340534D01*
X119496000Y-119386888D01*
X119496000Y-120038112D01*
X119491435Y-120084466D01*
X119479704Y-120123137D01*
X119460652Y-120158779D01*
X119435017Y-120190017D01*
X119403779Y-120215652D01*
X119368137Y-120234704D01*
X119329466Y-120246435D01*
X119283112Y-120251000D01*
X118206888Y-120251000D01*
X118160534Y-120246435D01*
X118121863Y-120234704D01*
X118086221Y-120215652D01*
X118054983Y-120190017D01*
X118029348Y-120158779D01*
X118010296Y-120123137D01*
X117998565Y-120084466D01*
X117994000Y-120038112D01*
X117994000Y-119386888D01*
X117998565Y-119340534D01*
X118010296Y-119301863D01*
X118029348Y-119266221D01*
X118054983Y-119234983D01*
X118086221Y-119209348D01*
X118121863Y-119190296D01*
X118160534Y-119178565D01*
X118206888Y-119174000D01*
X119283112Y-119174000D01*
X119329466Y-119178565D01*
X119329466Y-119178565D01*
G37*
G36*
X151088043Y-118434719D02*
X151154227Y-118441237D01*
X151267453Y-118475584D01*
X151324067Y-118492757D01*
X151462687Y-118566852D01*
X151480591Y-118576422D01*
X151516329Y-118605752D01*
X151617786Y-118689014D01*
X151701048Y-118790471D01*
X151730378Y-118826209D01*
X151730379Y-118826211D01*
X151814043Y-118982733D01*
X151814043Y-118982734D01*
X151865563Y-119152573D01*
X151882959Y-119329200D01*
X151865563Y-119505827D01*
X151831216Y-119619053D01*
X151814043Y-119675667D01*
X151748570Y-119798156D01*
X151730378Y-119832191D01*
X151709146Y-119858062D01*
X151617786Y-119969386D01*
X151516329Y-120052648D01*
X151480591Y-120081978D01*
X151480589Y-120081979D01*
X151324067Y-120165643D01*
X151267453Y-120182816D01*
X151154227Y-120217163D01*
X151088042Y-120223682D01*
X151021860Y-120230200D01*
X150933340Y-120230200D01*
X150867158Y-120223682D01*
X150800973Y-120217163D01*
X150687747Y-120182816D01*
X150631133Y-120165643D01*
X150474611Y-120081979D01*
X150474609Y-120081978D01*
X150438871Y-120052648D01*
X150337414Y-119969386D01*
X150246054Y-119858062D01*
X150224822Y-119832191D01*
X150206630Y-119798156D01*
X150141157Y-119675667D01*
X150123984Y-119619053D01*
X150089637Y-119505827D01*
X150072241Y-119329200D01*
X150089637Y-119152573D01*
X150141157Y-118982734D01*
X150141157Y-118982733D01*
X150224821Y-118826211D01*
X150224822Y-118826209D01*
X150254152Y-118790471D01*
X150337414Y-118689014D01*
X150438871Y-118605752D01*
X150474609Y-118576422D01*
X150492513Y-118566852D01*
X150631133Y-118492757D01*
X150687747Y-118475584D01*
X150800973Y-118441237D01*
X150867157Y-118434719D01*
X150933340Y-118428200D01*
X151021860Y-118428200D01*
X151088043Y-118434719D01*
X151088043Y-118434719D01*
G37*
G36*
X104630000Y-118825000D02*
X102980000Y-118825000D01*
X102980000Y-115675000D01*
X104630000Y-115675000D01*
X104630000Y-118825000D01*
X104630000Y-118825000D01*
G37*
G36*
X97010000Y-118825000D02*
X95360000Y-118825000D01*
X95360000Y-115675000D01*
X97010000Y-115675000D01*
X97010000Y-118825000D01*
X97010000Y-118825000D01*
G37*
G36*
X99550000Y-118825000D02*
X97900000Y-118825000D01*
X97900000Y-115675000D01*
X99550000Y-115675000D01*
X99550000Y-118825000D01*
X99550000Y-118825000D01*
G37*
G36*
X102090000Y-118825000D02*
X100440000Y-118825000D01*
X100440000Y-115675000D01*
X102090000Y-115675000D01*
X102090000Y-118825000D01*
X102090000Y-118825000D01*
G37*
G36*
X131768442Y-116141518D02*
X131834627Y-116148037D01*
X131947853Y-116182384D01*
X132004467Y-116199557D01*
X132143087Y-116273652D01*
X132160991Y-116283222D01*
X132196729Y-116312552D01*
X132298186Y-116395814D01*
X132381448Y-116497271D01*
X132410778Y-116533009D01*
X132410779Y-116533011D01*
X132494443Y-116689533D01*
X132494443Y-116689534D01*
X132545963Y-116859373D01*
X132563359Y-117036000D01*
X132545963Y-117212627D01*
X132511616Y-117325853D01*
X132494443Y-117382467D01*
X132420348Y-117521087D01*
X132410778Y-117538991D01*
X132381448Y-117574729D01*
X132298186Y-117676186D01*
X132196729Y-117759448D01*
X132160991Y-117788778D01*
X132160989Y-117788779D01*
X132004467Y-117872443D01*
X131947853Y-117889616D01*
X131834627Y-117923963D01*
X131768443Y-117930481D01*
X131702260Y-117937000D01*
X131613740Y-117937000D01*
X131547557Y-117930481D01*
X131481373Y-117923963D01*
X131368147Y-117889616D01*
X131311533Y-117872443D01*
X131155011Y-117788779D01*
X131155009Y-117788778D01*
X131119271Y-117759448D01*
X131017814Y-117676186D01*
X130934552Y-117574729D01*
X130905222Y-117538991D01*
X130895652Y-117521087D01*
X130821557Y-117382467D01*
X130804384Y-117325853D01*
X130770037Y-117212627D01*
X130752641Y-117036000D01*
X130770037Y-116859373D01*
X130821557Y-116689534D01*
X130821557Y-116689533D01*
X130905221Y-116533011D01*
X130905222Y-116533009D01*
X130934552Y-116497271D01*
X131017814Y-116395814D01*
X131119271Y-116312552D01*
X131155009Y-116283222D01*
X131172913Y-116273652D01*
X131311533Y-116199557D01*
X131368147Y-116182384D01*
X131481373Y-116148037D01*
X131547558Y-116141518D01*
X131613740Y-116135000D01*
X131702260Y-116135000D01*
X131768442Y-116141518D01*
X131768442Y-116141518D01*
G37*
G36*
X134308442Y-116141518D02*
X134374627Y-116148037D01*
X134487853Y-116182384D01*
X134544467Y-116199557D01*
X134683087Y-116273652D01*
X134700991Y-116283222D01*
X134736729Y-116312552D01*
X134838186Y-116395814D01*
X134921448Y-116497271D01*
X134950778Y-116533009D01*
X134950779Y-116533011D01*
X135034443Y-116689533D01*
X135034443Y-116689534D01*
X135085963Y-116859373D01*
X135103359Y-117036000D01*
X135085963Y-117212627D01*
X135051616Y-117325853D01*
X135034443Y-117382467D01*
X134960348Y-117521087D01*
X134950778Y-117538991D01*
X134921448Y-117574729D01*
X134838186Y-117676186D01*
X134736729Y-117759448D01*
X134700991Y-117788778D01*
X134700989Y-117788779D01*
X134544467Y-117872443D01*
X134487853Y-117889616D01*
X134374627Y-117923963D01*
X134308443Y-117930481D01*
X134242260Y-117937000D01*
X134153740Y-117937000D01*
X134087557Y-117930481D01*
X134021373Y-117923963D01*
X133908147Y-117889616D01*
X133851533Y-117872443D01*
X133695011Y-117788779D01*
X133695009Y-117788778D01*
X133659271Y-117759448D01*
X133557814Y-117676186D01*
X133474552Y-117574729D01*
X133445222Y-117538991D01*
X133435652Y-117521087D01*
X133361557Y-117382467D01*
X133344384Y-117325853D01*
X133310037Y-117212627D01*
X133292641Y-117036000D01*
X133310037Y-116859373D01*
X133361557Y-116689534D01*
X133361557Y-116689533D01*
X133445221Y-116533011D01*
X133445222Y-116533009D01*
X133474552Y-116497271D01*
X133557814Y-116395814D01*
X133659271Y-116312552D01*
X133695009Y-116283222D01*
X133712913Y-116273652D01*
X133851533Y-116199557D01*
X133908147Y-116182384D01*
X134021373Y-116148037D01*
X134087558Y-116141518D01*
X134153740Y-116135000D01*
X134242260Y-116135000D01*
X134308442Y-116141518D01*
X134308442Y-116141518D01*
G37*
G36*
X129228442Y-116141518D02*
X129294627Y-116148037D01*
X129407853Y-116182384D01*
X129464467Y-116199557D01*
X129603087Y-116273652D01*
X129620991Y-116283222D01*
X129656729Y-116312552D01*
X129758186Y-116395814D01*
X129841448Y-116497271D01*
X129870778Y-116533009D01*
X129870779Y-116533011D01*
X129954443Y-116689533D01*
X129954443Y-116689534D01*
X130005963Y-116859373D01*
X130023359Y-117036000D01*
X130005963Y-117212627D01*
X129971616Y-117325853D01*
X129954443Y-117382467D01*
X129880348Y-117521087D01*
X129870778Y-117538991D01*
X129841448Y-117574729D01*
X129758186Y-117676186D01*
X129656729Y-117759448D01*
X129620991Y-117788778D01*
X129620989Y-117788779D01*
X129464467Y-117872443D01*
X129407853Y-117889616D01*
X129294627Y-117923963D01*
X129228443Y-117930481D01*
X129162260Y-117937000D01*
X129073740Y-117937000D01*
X129007557Y-117930481D01*
X128941373Y-117923963D01*
X128828147Y-117889616D01*
X128771533Y-117872443D01*
X128615011Y-117788779D01*
X128615009Y-117788778D01*
X128579271Y-117759448D01*
X128477814Y-117676186D01*
X128394552Y-117574729D01*
X128365222Y-117538991D01*
X128355652Y-117521087D01*
X128281557Y-117382467D01*
X128264384Y-117325853D01*
X128230037Y-117212627D01*
X128212641Y-117036000D01*
X128230037Y-116859373D01*
X128281557Y-116689534D01*
X128281557Y-116689533D01*
X128365221Y-116533011D01*
X128365222Y-116533009D01*
X128394552Y-116497271D01*
X128477814Y-116395814D01*
X128579271Y-116312552D01*
X128615009Y-116283222D01*
X128632913Y-116273652D01*
X128771533Y-116199557D01*
X128828147Y-116182384D01*
X128941373Y-116148037D01*
X129007558Y-116141518D01*
X129073740Y-116135000D01*
X129162260Y-116135000D01*
X129228442Y-116141518D01*
X129228442Y-116141518D01*
G37*
G36*
X136848442Y-116141518D02*
X136914627Y-116148037D01*
X137027853Y-116182384D01*
X137084467Y-116199557D01*
X137223087Y-116273652D01*
X137240991Y-116283222D01*
X137276729Y-116312552D01*
X137378186Y-116395814D01*
X137461448Y-116497271D01*
X137490778Y-116533009D01*
X137490779Y-116533011D01*
X137574443Y-116689533D01*
X137574443Y-116689534D01*
X137625963Y-116859373D01*
X137643359Y-117036000D01*
X137625963Y-117212627D01*
X137591616Y-117325853D01*
X137574443Y-117382467D01*
X137500348Y-117521087D01*
X137490778Y-117538991D01*
X137461448Y-117574729D01*
X137378186Y-117676186D01*
X137276729Y-117759448D01*
X137240991Y-117788778D01*
X137240989Y-117788779D01*
X137084467Y-117872443D01*
X137027853Y-117889616D01*
X136914627Y-117923963D01*
X136848443Y-117930481D01*
X136782260Y-117937000D01*
X136693740Y-117937000D01*
X136627557Y-117930481D01*
X136561373Y-117923963D01*
X136448147Y-117889616D01*
X136391533Y-117872443D01*
X136235011Y-117788779D01*
X136235009Y-117788778D01*
X136199271Y-117759448D01*
X136097814Y-117676186D01*
X136014552Y-117574729D01*
X135985222Y-117538991D01*
X135975652Y-117521087D01*
X135901557Y-117382467D01*
X135884384Y-117325853D01*
X135850037Y-117212627D01*
X135832641Y-117036000D01*
X135850037Y-116859373D01*
X135901557Y-116689534D01*
X135901557Y-116689533D01*
X135985221Y-116533011D01*
X135985222Y-116533009D01*
X136014552Y-116497271D01*
X136097814Y-116395814D01*
X136199271Y-116312552D01*
X136235009Y-116283222D01*
X136252913Y-116273652D01*
X136391533Y-116199557D01*
X136448147Y-116182384D01*
X136561373Y-116148037D01*
X136627558Y-116141518D01*
X136693740Y-116135000D01*
X136782260Y-116135000D01*
X136848442Y-116141518D01*
X136848442Y-116141518D01*
G37*
G36*
X139388442Y-116141518D02*
X139454627Y-116148037D01*
X139567853Y-116182384D01*
X139624467Y-116199557D01*
X139763087Y-116273652D01*
X139780991Y-116283222D01*
X139816729Y-116312552D01*
X139918186Y-116395814D01*
X140001448Y-116497271D01*
X140030778Y-116533009D01*
X140030779Y-116533011D01*
X140114443Y-116689533D01*
X140114443Y-116689534D01*
X140165963Y-116859373D01*
X140183359Y-117036000D01*
X140165963Y-117212627D01*
X140131616Y-117325853D01*
X140114443Y-117382467D01*
X140040348Y-117521087D01*
X140030778Y-117538991D01*
X140001448Y-117574729D01*
X139918186Y-117676186D01*
X139816729Y-117759448D01*
X139780991Y-117788778D01*
X139780989Y-117788779D01*
X139624467Y-117872443D01*
X139567853Y-117889616D01*
X139454627Y-117923963D01*
X139388443Y-117930481D01*
X139322260Y-117937000D01*
X139233740Y-117937000D01*
X139167557Y-117930481D01*
X139101373Y-117923963D01*
X138988147Y-117889616D01*
X138931533Y-117872443D01*
X138775011Y-117788779D01*
X138775009Y-117788778D01*
X138739271Y-117759448D01*
X138637814Y-117676186D01*
X138554552Y-117574729D01*
X138525222Y-117538991D01*
X138515652Y-117521087D01*
X138441557Y-117382467D01*
X138424384Y-117325853D01*
X138390037Y-117212627D01*
X138372641Y-117036000D01*
X138390037Y-116859373D01*
X138441557Y-116689534D01*
X138441557Y-116689533D01*
X138525221Y-116533011D01*
X138525222Y-116533009D01*
X138554552Y-116497271D01*
X138637814Y-116395814D01*
X138739271Y-116312552D01*
X138775009Y-116283222D01*
X138792913Y-116273652D01*
X138931533Y-116199557D01*
X138988147Y-116182384D01*
X139101373Y-116148037D01*
X139167558Y-116141518D01*
X139233740Y-116135000D01*
X139322260Y-116135000D01*
X139388442Y-116141518D01*
X139388442Y-116141518D01*
G37*
G36*
X142719000Y-117937000D02*
X140917000Y-117937000D01*
X140917000Y-116135000D01*
X142719000Y-116135000D01*
X142719000Y-117937000D01*
X142719000Y-117937000D01*
G37*
G36*
X113988442Y-116141518D02*
X114054627Y-116148037D01*
X114167853Y-116182384D01*
X114224467Y-116199557D01*
X114363087Y-116273652D01*
X114380991Y-116283222D01*
X114416729Y-116312552D01*
X114518186Y-116395814D01*
X114601448Y-116497271D01*
X114630778Y-116533009D01*
X114630779Y-116533011D01*
X114714443Y-116689533D01*
X114714443Y-116689534D01*
X114765963Y-116859373D01*
X114783359Y-117036000D01*
X114765963Y-117212627D01*
X114731616Y-117325853D01*
X114714443Y-117382467D01*
X114640348Y-117521087D01*
X114630778Y-117538991D01*
X114601448Y-117574729D01*
X114518186Y-117676186D01*
X114416729Y-117759448D01*
X114380991Y-117788778D01*
X114380989Y-117788779D01*
X114224467Y-117872443D01*
X114167853Y-117889616D01*
X114054627Y-117923963D01*
X113988443Y-117930481D01*
X113922260Y-117937000D01*
X113833740Y-117937000D01*
X113767557Y-117930481D01*
X113701373Y-117923963D01*
X113588147Y-117889616D01*
X113531533Y-117872443D01*
X113375011Y-117788779D01*
X113375009Y-117788778D01*
X113339271Y-117759448D01*
X113237814Y-117676186D01*
X113154552Y-117574729D01*
X113125222Y-117538991D01*
X113115652Y-117521087D01*
X113041557Y-117382467D01*
X113024384Y-117325853D01*
X112990037Y-117212627D01*
X112972641Y-117036000D01*
X112990037Y-116859373D01*
X113041557Y-116689534D01*
X113041557Y-116689533D01*
X113125221Y-116533011D01*
X113125222Y-116533009D01*
X113154552Y-116497271D01*
X113237814Y-116395814D01*
X113339271Y-116312552D01*
X113375009Y-116283222D01*
X113392913Y-116273652D01*
X113531533Y-116199557D01*
X113588147Y-116182384D01*
X113701373Y-116148037D01*
X113767558Y-116141518D01*
X113833740Y-116135000D01*
X113922260Y-116135000D01*
X113988442Y-116141518D01*
X113988442Y-116141518D01*
G37*
G36*
X124148442Y-116141518D02*
X124214627Y-116148037D01*
X124327853Y-116182384D01*
X124384467Y-116199557D01*
X124523087Y-116273652D01*
X124540991Y-116283222D01*
X124576729Y-116312552D01*
X124678186Y-116395814D01*
X124761448Y-116497271D01*
X124790778Y-116533009D01*
X124790779Y-116533011D01*
X124874443Y-116689533D01*
X124874443Y-116689534D01*
X124925963Y-116859373D01*
X124943359Y-117036000D01*
X124925963Y-117212627D01*
X124891616Y-117325853D01*
X124874443Y-117382467D01*
X124800348Y-117521087D01*
X124790778Y-117538991D01*
X124761448Y-117574729D01*
X124678186Y-117676186D01*
X124576729Y-117759448D01*
X124540991Y-117788778D01*
X124540989Y-117788779D01*
X124384467Y-117872443D01*
X124327853Y-117889616D01*
X124214627Y-117923963D01*
X124148443Y-117930481D01*
X124082260Y-117937000D01*
X123993740Y-117937000D01*
X123927557Y-117930481D01*
X123861373Y-117923963D01*
X123748147Y-117889616D01*
X123691533Y-117872443D01*
X123535011Y-117788779D01*
X123535009Y-117788778D01*
X123499271Y-117759448D01*
X123397814Y-117676186D01*
X123314552Y-117574729D01*
X123285222Y-117538991D01*
X123275652Y-117521087D01*
X123201557Y-117382467D01*
X123184384Y-117325853D01*
X123150037Y-117212627D01*
X123132641Y-117036000D01*
X123150037Y-116859373D01*
X123201557Y-116689534D01*
X123201557Y-116689533D01*
X123285221Y-116533011D01*
X123285222Y-116533009D01*
X123314552Y-116497271D01*
X123397814Y-116395814D01*
X123499271Y-116312552D01*
X123535009Y-116283222D01*
X123552913Y-116273652D01*
X123691533Y-116199557D01*
X123748147Y-116182384D01*
X123861373Y-116148037D01*
X123927558Y-116141518D01*
X123993740Y-116135000D01*
X124082260Y-116135000D01*
X124148442Y-116141518D01*
X124148442Y-116141518D01*
G37*
G36*
X121608442Y-116141518D02*
X121674627Y-116148037D01*
X121787853Y-116182384D01*
X121844467Y-116199557D01*
X121983087Y-116273652D01*
X122000991Y-116283222D01*
X122036729Y-116312552D01*
X122138186Y-116395814D01*
X122221448Y-116497271D01*
X122250778Y-116533009D01*
X122250779Y-116533011D01*
X122334443Y-116689533D01*
X122334443Y-116689534D01*
X122385963Y-116859373D01*
X122403359Y-117036000D01*
X122385963Y-117212627D01*
X122351616Y-117325853D01*
X122334443Y-117382467D01*
X122260348Y-117521087D01*
X122250778Y-117538991D01*
X122221448Y-117574729D01*
X122138186Y-117676186D01*
X122036729Y-117759448D01*
X122000991Y-117788778D01*
X122000989Y-117788779D01*
X121844467Y-117872443D01*
X121787853Y-117889616D01*
X121674627Y-117923963D01*
X121608443Y-117930481D01*
X121542260Y-117937000D01*
X121453740Y-117937000D01*
X121387557Y-117930481D01*
X121321373Y-117923963D01*
X121208147Y-117889616D01*
X121151533Y-117872443D01*
X120995011Y-117788779D01*
X120995009Y-117788778D01*
X120959271Y-117759448D01*
X120857814Y-117676186D01*
X120774552Y-117574729D01*
X120745222Y-117538991D01*
X120735652Y-117521087D01*
X120661557Y-117382467D01*
X120644384Y-117325853D01*
X120610037Y-117212627D01*
X120592641Y-117036000D01*
X120610037Y-116859373D01*
X120661557Y-116689534D01*
X120661557Y-116689533D01*
X120745221Y-116533011D01*
X120745222Y-116533009D01*
X120774552Y-116497271D01*
X120857814Y-116395814D01*
X120959271Y-116312552D01*
X120995009Y-116283222D01*
X121012913Y-116273652D01*
X121151533Y-116199557D01*
X121208147Y-116182384D01*
X121321373Y-116148037D01*
X121387558Y-116141518D01*
X121453740Y-116135000D01*
X121542260Y-116135000D01*
X121608442Y-116141518D01*
X121608442Y-116141518D01*
G37*
G36*
X119068442Y-116141518D02*
X119134627Y-116148037D01*
X119247853Y-116182384D01*
X119304467Y-116199557D01*
X119443087Y-116273652D01*
X119460991Y-116283222D01*
X119496729Y-116312552D01*
X119598186Y-116395814D01*
X119681448Y-116497271D01*
X119710778Y-116533009D01*
X119710779Y-116533011D01*
X119794443Y-116689533D01*
X119794443Y-116689534D01*
X119845963Y-116859373D01*
X119863359Y-117036000D01*
X119845963Y-117212627D01*
X119811616Y-117325853D01*
X119794443Y-117382467D01*
X119720348Y-117521087D01*
X119710778Y-117538991D01*
X119681448Y-117574729D01*
X119598186Y-117676186D01*
X119496729Y-117759448D01*
X119460991Y-117788778D01*
X119460989Y-117788779D01*
X119304467Y-117872443D01*
X119247853Y-117889616D01*
X119134627Y-117923963D01*
X119068443Y-117930481D01*
X119002260Y-117937000D01*
X118913740Y-117937000D01*
X118847557Y-117930481D01*
X118781373Y-117923963D01*
X118668147Y-117889616D01*
X118611533Y-117872443D01*
X118455011Y-117788779D01*
X118455009Y-117788778D01*
X118419271Y-117759448D01*
X118317814Y-117676186D01*
X118234552Y-117574729D01*
X118205222Y-117538991D01*
X118195652Y-117521087D01*
X118121557Y-117382467D01*
X118104384Y-117325853D01*
X118070037Y-117212627D01*
X118052641Y-117036000D01*
X118070037Y-116859373D01*
X118121557Y-116689534D01*
X118121557Y-116689533D01*
X118205221Y-116533011D01*
X118205222Y-116533009D01*
X118234552Y-116497271D01*
X118317814Y-116395814D01*
X118419271Y-116312552D01*
X118455009Y-116283222D01*
X118472913Y-116273652D01*
X118611533Y-116199557D01*
X118668147Y-116182384D01*
X118781373Y-116148037D01*
X118847558Y-116141518D01*
X118913740Y-116135000D01*
X119002260Y-116135000D01*
X119068442Y-116141518D01*
X119068442Y-116141518D01*
G37*
G36*
X116528442Y-116141518D02*
X116594627Y-116148037D01*
X116707853Y-116182384D01*
X116764467Y-116199557D01*
X116903087Y-116273652D01*
X116920991Y-116283222D01*
X116956729Y-116312552D01*
X117058186Y-116395814D01*
X117141448Y-116497271D01*
X117170778Y-116533009D01*
X117170779Y-116533011D01*
X117254443Y-116689533D01*
X117254443Y-116689534D01*
X117305963Y-116859373D01*
X117323359Y-117036000D01*
X117305963Y-117212627D01*
X117271616Y-117325853D01*
X117254443Y-117382467D01*
X117180348Y-117521087D01*
X117170778Y-117538991D01*
X117141448Y-117574729D01*
X117058186Y-117676186D01*
X116956729Y-117759448D01*
X116920991Y-117788778D01*
X116920989Y-117788779D01*
X116764467Y-117872443D01*
X116707853Y-117889616D01*
X116594627Y-117923963D01*
X116528443Y-117930481D01*
X116462260Y-117937000D01*
X116373740Y-117937000D01*
X116307557Y-117930481D01*
X116241373Y-117923963D01*
X116128147Y-117889616D01*
X116071533Y-117872443D01*
X115915011Y-117788779D01*
X115915009Y-117788778D01*
X115879271Y-117759448D01*
X115777814Y-117676186D01*
X115694552Y-117574729D01*
X115665222Y-117538991D01*
X115655652Y-117521087D01*
X115581557Y-117382467D01*
X115564384Y-117325853D01*
X115530037Y-117212627D01*
X115512641Y-117036000D01*
X115530037Y-116859373D01*
X115581557Y-116689534D01*
X115581557Y-116689533D01*
X115665221Y-116533011D01*
X115665222Y-116533009D01*
X115694552Y-116497271D01*
X115777814Y-116395814D01*
X115879271Y-116312552D01*
X115915009Y-116283222D01*
X115932913Y-116273652D01*
X116071533Y-116199557D01*
X116128147Y-116182384D01*
X116241373Y-116148037D01*
X116307558Y-116141518D01*
X116373740Y-116135000D01*
X116462260Y-116135000D01*
X116528442Y-116141518D01*
X116528442Y-116141518D01*
G37*
G36*
X108908442Y-116141518D02*
X108974627Y-116148037D01*
X109087853Y-116182384D01*
X109144467Y-116199557D01*
X109283087Y-116273652D01*
X109300991Y-116283222D01*
X109336729Y-116312552D01*
X109438186Y-116395814D01*
X109521448Y-116497271D01*
X109550778Y-116533009D01*
X109550779Y-116533011D01*
X109634443Y-116689533D01*
X109634443Y-116689534D01*
X109685963Y-116859373D01*
X109703359Y-117036000D01*
X109685963Y-117212627D01*
X109651616Y-117325853D01*
X109634443Y-117382467D01*
X109560348Y-117521087D01*
X109550778Y-117538991D01*
X109521448Y-117574729D01*
X109438186Y-117676186D01*
X109336729Y-117759448D01*
X109300991Y-117788778D01*
X109300989Y-117788779D01*
X109144467Y-117872443D01*
X109087853Y-117889616D01*
X108974627Y-117923963D01*
X108908443Y-117930481D01*
X108842260Y-117937000D01*
X108753740Y-117937000D01*
X108687557Y-117930481D01*
X108621373Y-117923963D01*
X108508147Y-117889616D01*
X108451533Y-117872443D01*
X108295011Y-117788779D01*
X108295009Y-117788778D01*
X108259271Y-117759448D01*
X108157814Y-117676186D01*
X108074552Y-117574729D01*
X108045222Y-117538991D01*
X108035652Y-117521087D01*
X107961557Y-117382467D01*
X107944384Y-117325853D01*
X107910037Y-117212627D01*
X107892641Y-117036000D01*
X107910037Y-116859373D01*
X107961557Y-116689534D01*
X107961557Y-116689533D01*
X108045221Y-116533011D01*
X108045222Y-116533009D01*
X108074552Y-116497271D01*
X108157814Y-116395814D01*
X108259271Y-116312552D01*
X108295009Y-116283222D01*
X108312913Y-116273652D01*
X108451533Y-116199557D01*
X108508147Y-116182384D01*
X108621373Y-116148037D01*
X108687558Y-116141518D01*
X108753740Y-116135000D01*
X108842260Y-116135000D01*
X108908442Y-116141518D01*
X108908442Y-116141518D01*
G37*
G36*
X111448442Y-116141518D02*
X111514627Y-116148037D01*
X111627853Y-116182384D01*
X111684467Y-116199557D01*
X111823087Y-116273652D01*
X111840991Y-116283222D01*
X111876729Y-116312552D01*
X111978186Y-116395814D01*
X112061448Y-116497271D01*
X112090778Y-116533009D01*
X112090779Y-116533011D01*
X112174443Y-116689533D01*
X112174443Y-116689534D01*
X112225963Y-116859373D01*
X112243359Y-117036000D01*
X112225963Y-117212627D01*
X112191616Y-117325853D01*
X112174443Y-117382467D01*
X112100348Y-117521087D01*
X112090778Y-117538991D01*
X112061448Y-117574729D01*
X111978186Y-117676186D01*
X111876729Y-117759448D01*
X111840991Y-117788778D01*
X111840989Y-117788779D01*
X111684467Y-117872443D01*
X111627853Y-117889616D01*
X111514627Y-117923963D01*
X111448443Y-117930481D01*
X111382260Y-117937000D01*
X111293740Y-117937000D01*
X111227557Y-117930481D01*
X111161373Y-117923963D01*
X111048147Y-117889616D01*
X110991533Y-117872443D01*
X110835011Y-117788779D01*
X110835009Y-117788778D01*
X110799271Y-117759448D01*
X110697814Y-117676186D01*
X110614552Y-117574729D01*
X110585222Y-117538991D01*
X110575652Y-117521087D01*
X110501557Y-117382467D01*
X110484384Y-117325853D01*
X110450037Y-117212627D01*
X110432641Y-117036000D01*
X110450037Y-116859373D01*
X110501557Y-116689534D01*
X110501557Y-116689533D01*
X110585221Y-116533011D01*
X110585222Y-116533009D01*
X110614552Y-116497271D01*
X110697814Y-116395814D01*
X110799271Y-116312552D01*
X110835009Y-116283222D01*
X110852913Y-116273652D01*
X110991533Y-116199557D01*
X111048147Y-116182384D01*
X111161373Y-116148037D01*
X111227558Y-116141518D01*
X111293740Y-116135000D01*
X111382260Y-116135000D01*
X111448442Y-116141518D01*
X111448442Y-116141518D01*
G37*
G36*
X126688442Y-116141518D02*
X126754627Y-116148037D01*
X126867853Y-116182384D01*
X126924467Y-116199557D01*
X127063087Y-116273652D01*
X127080991Y-116283222D01*
X127116729Y-116312552D01*
X127218186Y-116395814D01*
X127301448Y-116497271D01*
X127330778Y-116533009D01*
X127330779Y-116533011D01*
X127414443Y-116689533D01*
X127414443Y-116689534D01*
X127465963Y-116859373D01*
X127483359Y-117036000D01*
X127465963Y-117212627D01*
X127431616Y-117325853D01*
X127414443Y-117382467D01*
X127340348Y-117521087D01*
X127330778Y-117538991D01*
X127301448Y-117574729D01*
X127218186Y-117676186D01*
X127116729Y-117759448D01*
X127080991Y-117788778D01*
X127080989Y-117788779D01*
X126924467Y-117872443D01*
X126867853Y-117889616D01*
X126754627Y-117923963D01*
X126688443Y-117930481D01*
X126622260Y-117937000D01*
X126533740Y-117937000D01*
X126467557Y-117930481D01*
X126401373Y-117923963D01*
X126288147Y-117889616D01*
X126231533Y-117872443D01*
X126075011Y-117788779D01*
X126075009Y-117788778D01*
X126039271Y-117759448D01*
X125937814Y-117676186D01*
X125854552Y-117574729D01*
X125825222Y-117538991D01*
X125815652Y-117521087D01*
X125741557Y-117382467D01*
X125724384Y-117325853D01*
X125690037Y-117212627D01*
X125672641Y-117036000D01*
X125690037Y-116859373D01*
X125741557Y-116689534D01*
X125741557Y-116689533D01*
X125825221Y-116533011D01*
X125825222Y-116533009D01*
X125854552Y-116497271D01*
X125937814Y-116395814D01*
X126039271Y-116312552D01*
X126075009Y-116283222D01*
X126092913Y-116273652D01*
X126231533Y-116199557D01*
X126288147Y-116182384D01*
X126401373Y-116148037D01*
X126467558Y-116141518D01*
X126533740Y-116135000D01*
X126622260Y-116135000D01*
X126688442Y-116141518D01*
X126688442Y-116141518D01*
G37*
G36*
X147572200Y-115353600D02*
X144422200Y-115353600D01*
X144422200Y-113703600D01*
X147572200Y-113703600D01*
X147572200Y-115353600D01*
X147572200Y-115353600D01*
G37*
G36*
X117726000Y-114381000D02*
X115074000Y-114381000D01*
X115074000Y-113219000D01*
X117726000Y-113219000D01*
X117726000Y-114381000D01*
X117726000Y-114381000D01*
G37*
G36*
X152072200Y-114083600D02*
X148922200Y-114083600D01*
X148922200Y-112433600D01*
X152072200Y-112433600D01*
X152072200Y-114083600D01*
X152072200Y-114083600D01*
G37*
G36*
X108796000Y-113896000D02*
X107934000Y-113896000D01*
X107934000Y-112524000D01*
X108796000Y-112524000D01*
X108796000Y-113896000D01*
X108796000Y-113896000D01*
G37*
G36*
X110066000Y-113896000D02*
X109204000Y-113896000D01*
X109204000Y-112524000D01*
X110066000Y-112524000D01*
X110066000Y-113896000D01*
X110066000Y-113896000D01*
G37*
G36*
X113581938Y-112941716D02*
X113602556Y-112947970D01*
X113621556Y-112958126D01*
X113638208Y-112971792D01*
X113651874Y-112988444D01*
X113662030Y-113007444D01*
X113668284Y-113028062D01*
X113671000Y-113055640D01*
X113671000Y-113514360D01*
X113668284Y-113541938D01*
X113662030Y-113562556D01*
X113651874Y-113581556D01*
X113638208Y-113598208D01*
X113621556Y-113611874D01*
X113602556Y-113622030D01*
X113581938Y-113628284D01*
X113554360Y-113631000D01*
X113045640Y-113631000D01*
X113018062Y-113628284D01*
X112997444Y-113622030D01*
X112978444Y-113611874D01*
X112961792Y-113598208D01*
X112948126Y-113581556D01*
X112937970Y-113562556D01*
X112931716Y-113541938D01*
X112929000Y-113514360D01*
X112929000Y-113055640D01*
X112931716Y-113028062D01*
X112937970Y-113007444D01*
X112948126Y-112988444D01*
X112961792Y-112971792D01*
X112978444Y-112958126D01*
X112997444Y-112947970D01*
X113018062Y-112941716D01*
X113045640Y-112939000D01*
X113554360Y-112939000D01*
X113581938Y-112941716D01*
X113581938Y-112941716D01*
G37*
G36*
X139321000Y-113526000D02*
X138039000Y-113526000D01*
X138039000Y-108724000D01*
X139321000Y-108724000D01*
X139321000Y-113526000D01*
X139321000Y-113526000D01*
G37*
G36*
X142631000Y-113526000D02*
X141349000Y-113526000D01*
X141349000Y-108724000D01*
X142631000Y-108724000D01*
X142631000Y-113526000D01*
X142631000Y-113526000D01*
G37*
G36*
X147572200Y-112813600D02*
X144422200Y-112813600D01*
X144422200Y-111163600D01*
X147572200Y-111163600D01*
X147572200Y-112813600D01*
X147572200Y-112813600D01*
G37*
G36*
X113581938Y-111971716D02*
X113602556Y-111977970D01*
X113621556Y-111988126D01*
X113638208Y-112001792D01*
X113651874Y-112018444D01*
X113662030Y-112037444D01*
X113668284Y-112058062D01*
X113671000Y-112085640D01*
X113671000Y-112544360D01*
X113668284Y-112571938D01*
X113662030Y-112592556D01*
X113651874Y-112611556D01*
X113638208Y-112628208D01*
X113621556Y-112641874D01*
X113602556Y-112652030D01*
X113581938Y-112658284D01*
X113554360Y-112661000D01*
X113045640Y-112661000D01*
X113018062Y-112658284D01*
X112997444Y-112652030D01*
X112978444Y-112641874D01*
X112961792Y-112628208D01*
X112948126Y-112611556D01*
X112937970Y-112592556D01*
X112931716Y-112571938D01*
X112929000Y-112544360D01*
X112929000Y-112085640D01*
X112931716Y-112058062D01*
X112937970Y-112037444D01*
X112948126Y-112018444D01*
X112961792Y-112001792D01*
X112978444Y-111988126D01*
X112997444Y-111977970D01*
X113018062Y-111971716D01*
X113045640Y-111969000D01*
X113554360Y-111969000D01*
X113581938Y-111971716D01*
X113581938Y-111971716D01*
G37*
G36*
X117726000Y-112181000D02*
X116974000Y-112181000D01*
X116974000Y-111019000D01*
X117726000Y-111019000D01*
X117726000Y-112181000D01*
X117726000Y-112181000D01*
G37*
G36*
X115826000Y-112181000D02*
X115074000Y-112181000D01*
X115074000Y-111019000D01*
X115826000Y-111019000D01*
X115826000Y-112181000D01*
X115826000Y-112181000D01*
G37*
G36*
X123371938Y-111431716D02*
X123392556Y-111437970D01*
X123411556Y-111448126D01*
X123428208Y-111461792D01*
X123441874Y-111478444D01*
X123452030Y-111497444D01*
X123458284Y-111518062D01*
X123461000Y-111545640D01*
X123461000Y-112054360D01*
X123458284Y-112081938D01*
X123452030Y-112102556D01*
X123441874Y-112121556D01*
X123428208Y-112138208D01*
X123411556Y-112151874D01*
X123392556Y-112162030D01*
X123371938Y-112168284D01*
X123344360Y-112171000D01*
X122885640Y-112171000D01*
X122858062Y-112168284D01*
X122837444Y-112162030D01*
X122818444Y-112151874D01*
X122801792Y-112138208D01*
X122788126Y-112121556D01*
X122777970Y-112102556D01*
X122771716Y-112081938D01*
X122769000Y-112054360D01*
X122769000Y-111545640D01*
X122771716Y-111518062D01*
X122777970Y-111497444D01*
X122788126Y-111478444D01*
X122801792Y-111461792D01*
X122818444Y-111448126D01*
X122837444Y-111437970D01*
X122858062Y-111431716D01*
X122885640Y-111429000D01*
X123344360Y-111429000D01*
X123371938Y-111431716D01*
X123371938Y-111431716D01*
G37*
G36*
X121141938Y-111431716D02*
X121162556Y-111437970D01*
X121181556Y-111448126D01*
X121198208Y-111461792D01*
X121211874Y-111478444D01*
X121222030Y-111497444D01*
X121228284Y-111518062D01*
X121231000Y-111545640D01*
X121231000Y-112054360D01*
X121228284Y-112081938D01*
X121222030Y-112102556D01*
X121211874Y-112121556D01*
X121198208Y-112138208D01*
X121181556Y-112151874D01*
X121162556Y-112162030D01*
X121141938Y-112168284D01*
X121114360Y-112171000D01*
X120655640Y-112171000D01*
X120628062Y-112168284D01*
X120607444Y-112162030D01*
X120588444Y-112151874D01*
X120571792Y-112138208D01*
X120558126Y-112121556D01*
X120547970Y-112102556D01*
X120541716Y-112081938D01*
X120539000Y-112054360D01*
X120539000Y-111545640D01*
X120541716Y-111518062D01*
X120547970Y-111497444D01*
X120558126Y-111478444D01*
X120571792Y-111461792D01*
X120588444Y-111448126D01*
X120607444Y-111437970D01*
X120628062Y-111431716D01*
X120655640Y-111429000D01*
X121114360Y-111429000D01*
X121141938Y-111431716D01*
X121141938Y-111431716D01*
G37*
G36*
X120171938Y-111431716D02*
X120192556Y-111437970D01*
X120211556Y-111448126D01*
X120228208Y-111461792D01*
X120241874Y-111478444D01*
X120252030Y-111497444D01*
X120258284Y-111518062D01*
X120261000Y-111545640D01*
X120261000Y-112054360D01*
X120258284Y-112081938D01*
X120252030Y-112102556D01*
X120241874Y-112121556D01*
X120228208Y-112138208D01*
X120211556Y-112151874D01*
X120192556Y-112162030D01*
X120171938Y-112168284D01*
X120144360Y-112171000D01*
X119685640Y-112171000D01*
X119658062Y-112168284D01*
X119637444Y-112162030D01*
X119618444Y-112151874D01*
X119601792Y-112138208D01*
X119588126Y-112121556D01*
X119577970Y-112102556D01*
X119571716Y-112081938D01*
X119569000Y-112054360D01*
X119569000Y-111545640D01*
X119571716Y-111518062D01*
X119577970Y-111497444D01*
X119588126Y-111478444D01*
X119601792Y-111461792D01*
X119618444Y-111448126D01*
X119637444Y-111437970D01*
X119658062Y-111431716D01*
X119685640Y-111429000D01*
X120144360Y-111429000D01*
X120171938Y-111431716D01*
X120171938Y-111431716D01*
G37*
G36*
X126641938Y-111431716D02*
X126662556Y-111437970D01*
X126681556Y-111448126D01*
X126698208Y-111461792D01*
X126711874Y-111478444D01*
X126722030Y-111497444D01*
X126728284Y-111518062D01*
X126731000Y-111545640D01*
X126731000Y-112054360D01*
X126728284Y-112081938D01*
X126722030Y-112102556D01*
X126711874Y-112121556D01*
X126698208Y-112138208D01*
X126681556Y-112151874D01*
X126662556Y-112162030D01*
X126641938Y-112168284D01*
X126614360Y-112171000D01*
X126155640Y-112171000D01*
X126128062Y-112168284D01*
X126107444Y-112162030D01*
X126088444Y-112151874D01*
X126071792Y-112138208D01*
X126058126Y-112121556D01*
X126047970Y-112102556D01*
X126041716Y-112081938D01*
X126039000Y-112054360D01*
X126039000Y-111545640D01*
X126041716Y-111518062D01*
X126047970Y-111497444D01*
X126058126Y-111478444D01*
X126071792Y-111461792D01*
X126088444Y-111448126D01*
X126107444Y-111437970D01*
X126128062Y-111431716D01*
X126155640Y-111429000D01*
X126614360Y-111429000D01*
X126641938Y-111431716D01*
X126641938Y-111431716D01*
G37*
G36*
X124341938Y-111431716D02*
X124362556Y-111437970D01*
X124381556Y-111448126D01*
X124398208Y-111461792D01*
X124411874Y-111478444D01*
X124422030Y-111497444D01*
X124428284Y-111518062D01*
X124431000Y-111545640D01*
X124431000Y-112054360D01*
X124428284Y-112081938D01*
X124422030Y-112102556D01*
X124411874Y-112121556D01*
X124398208Y-112138208D01*
X124381556Y-112151874D01*
X124362556Y-112162030D01*
X124341938Y-112168284D01*
X124314360Y-112171000D01*
X123855640Y-112171000D01*
X123828062Y-112168284D01*
X123807444Y-112162030D01*
X123788444Y-112151874D01*
X123771792Y-112138208D01*
X123758126Y-112121556D01*
X123747970Y-112102556D01*
X123741716Y-112081938D01*
X123739000Y-112054360D01*
X123739000Y-111545640D01*
X123741716Y-111518062D01*
X123747970Y-111497444D01*
X123758126Y-111478444D01*
X123771792Y-111461792D01*
X123788444Y-111448126D01*
X123807444Y-111437970D01*
X123828062Y-111431716D01*
X123855640Y-111429000D01*
X124314360Y-111429000D01*
X124341938Y-111431716D01*
X124341938Y-111431716D01*
G37*
G36*
X125671938Y-111431716D02*
X125692556Y-111437970D01*
X125711556Y-111448126D01*
X125728208Y-111461792D01*
X125741874Y-111478444D01*
X125752030Y-111497444D01*
X125758284Y-111518062D01*
X125761000Y-111545640D01*
X125761000Y-112054360D01*
X125758284Y-112081938D01*
X125752030Y-112102556D01*
X125741874Y-112121556D01*
X125728208Y-112138208D01*
X125711556Y-112151874D01*
X125692556Y-112162030D01*
X125671938Y-112168284D01*
X125644360Y-112171000D01*
X125185640Y-112171000D01*
X125158062Y-112168284D01*
X125137444Y-112162030D01*
X125118444Y-112151874D01*
X125101792Y-112138208D01*
X125088126Y-112121556D01*
X125077970Y-112102556D01*
X125071716Y-112081938D01*
X125069000Y-112054360D01*
X125069000Y-111545640D01*
X125071716Y-111518062D01*
X125077970Y-111497444D01*
X125088126Y-111478444D01*
X125101792Y-111461792D01*
X125118444Y-111448126D01*
X125137444Y-111437970D01*
X125158062Y-111431716D01*
X125185640Y-111429000D01*
X125644360Y-111429000D01*
X125671938Y-111431716D01*
X125671938Y-111431716D01*
G37*
G36*
X152072200Y-111543600D02*
X148922200Y-111543600D01*
X148922200Y-109893600D01*
X152072200Y-109893600D01*
X152072200Y-111543600D01*
X152072200Y-111543600D01*
G37*
G36*
X120726000Y-110651000D02*
X119174000Y-110651000D01*
X119174000Y-108149000D01*
X120726000Y-108149000D01*
X120726000Y-110651000D01*
X120726000Y-110651000D01*
G37*
G36*
X126626000Y-110651000D02*
X125074000Y-110651000D01*
X125074000Y-108149000D01*
X126626000Y-108149000D01*
X126626000Y-110651000D01*
X126626000Y-110651000D01*
G37*
G36*
X112835734Y-108193232D02*
X113045202Y-108279996D01*
X113233723Y-108405962D01*
X113394038Y-108566277D01*
X113520004Y-108754798D01*
X113606768Y-108964266D01*
X113651000Y-109186635D01*
X113651000Y-109413365D01*
X113606768Y-109635734D01*
X113520004Y-109845202D01*
X113394038Y-110033723D01*
X113233723Y-110194038D01*
X113045202Y-110320004D01*
X112835734Y-110406768D01*
X112613365Y-110451000D01*
X112386635Y-110451000D01*
X112164266Y-110406768D01*
X111954798Y-110320004D01*
X111766277Y-110194038D01*
X111605962Y-110033723D01*
X111479996Y-109845202D01*
X111393232Y-109635734D01*
X111349000Y-109413365D01*
X111349000Y-109186635D01*
X111393232Y-108964266D01*
X111479996Y-108754798D01*
X111605962Y-108566277D01*
X111766277Y-108405962D01*
X111954798Y-108279996D01*
X112164266Y-108193232D01*
X112386635Y-108149000D01*
X112613365Y-108149000D01*
X112835734Y-108193232D01*
X112835734Y-108193232D01*
G37*
G36*
X147572200Y-110273600D02*
X144422200Y-110273600D01*
X144422200Y-108623600D01*
X147572200Y-108623600D01*
X147572200Y-110273600D01*
X147572200Y-110273600D01*
G37*
G36*
X127671938Y-108731716D02*
X127692556Y-108737970D01*
X127711556Y-108748126D01*
X127728208Y-108761792D01*
X127741874Y-108778444D01*
X127752030Y-108797444D01*
X127758284Y-108818062D01*
X127761000Y-108845640D01*
X127761000Y-109354360D01*
X127758284Y-109381938D01*
X127752030Y-109402556D01*
X127741874Y-109421556D01*
X127728208Y-109438208D01*
X127711556Y-109451874D01*
X127692556Y-109462030D01*
X127671938Y-109468284D01*
X127644360Y-109471000D01*
X127185640Y-109471000D01*
X127158062Y-109468284D01*
X127137444Y-109462030D01*
X127118444Y-109451874D01*
X127101792Y-109438208D01*
X127088126Y-109421556D01*
X127077970Y-109402556D01*
X127071716Y-109381938D01*
X127069000Y-109354360D01*
X127069000Y-108845640D01*
X127071716Y-108818062D01*
X127077970Y-108797444D01*
X127088126Y-108778444D01*
X127101792Y-108761792D01*
X127118444Y-108748126D01*
X127137444Y-108737970D01*
X127158062Y-108731716D01*
X127185640Y-108729000D01*
X127644360Y-108729000D01*
X127671938Y-108731716D01*
X127671938Y-108731716D01*
G37*
G36*
X118341938Y-108731716D02*
X118362556Y-108737970D01*
X118381556Y-108748126D01*
X118398208Y-108761792D01*
X118411874Y-108778444D01*
X118422030Y-108797444D01*
X118428284Y-108818062D01*
X118431000Y-108845640D01*
X118431000Y-109354360D01*
X118428284Y-109381938D01*
X118422030Y-109402556D01*
X118411874Y-109421556D01*
X118398208Y-109438208D01*
X118381556Y-109451874D01*
X118362556Y-109462030D01*
X118341938Y-109468284D01*
X118314360Y-109471000D01*
X117855640Y-109471000D01*
X117828062Y-109468284D01*
X117807444Y-109462030D01*
X117788444Y-109451874D01*
X117771792Y-109438208D01*
X117758126Y-109421556D01*
X117747970Y-109402556D01*
X117741716Y-109381938D01*
X117739000Y-109354360D01*
X117739000Y-108845640D01*
X117741716Y-108818062D01*
X117747970Y-108797444D01*
X117758126Y-108778444D01*
X117771792Y-108761792D01*
X117788444Y-108748126D01*
X117807444Y-108737970D01*
X117828062Y-108731716D01*
X117855640Y-108729000D01*
X118314360Y-108729000D01*
X118341938Y-108731716D01*
X118341938Y-108731716D01*
G37*
G36*
X117371938Y-108731716D02*
X117392556Y-108737970D01*
X117411556Y-108748126D01*
X117428208Y-108761792D01*
X117441874Y-108778444D01*
X117452030Y-108797444D01*
X117458284Y-108818062D01*
X117461000Y-108845640D01*
X117461000Y-109354360D01*
X117458284Y-109381938D01*
X117452030Y-109402556D01*
X117441874Y-109421556D01*
X117428208Y-109438208D01*
X117411556Y-109451874D01*
X117392556Y-109462030D01*
X117371938Y-109468284D01*
X117344360Y-109471000D01*
X116885640Y-109471000D01*
X116858062Y-109468284D01*
X116837444Y-109462030D01*
X116818444Y-109451874D01*
X116801792Y-109438208D01*
X116788126Y-109421556D01*
X116777970Y-109402556D01*
X116771716Y-109381938D01*
X116769000Y-109354360D01*
X116769000Y-108845640D01*
X116771716Y-108818062D01*
X116777970Y-108797444D01*
X116788126Y-108778444D01*
X116801792Y-108761792D01*
X116818444Y-108748126D01*
X116837444Y-108737970D01*
X116858062Y-108731716D01*
X116885640Y-108729000D01*
X117344360Y-108729000D01*
X117371938Y-108731716D01*
X117371938Y-108731716D01*
G37*
G36*
X128641938Y-108731716D02*
X128662556Y-108737970D01*
X128681556Y-108748126D01*
X128698208Y-108761792D01*
X128711874Y-108778444D01*
X128722030Y-108797444D01*
X128728284Y-108818062D01*
X128731000Y-108845640D01*
X128731000Y-109354360D01*
X128728284Y-109381938D01*
X128722030Y-109402556D01*
X128711874Y-109421556D01*
X128698208Y-109438208D01*
X128681556Y-109451874D01*
X128662556Y-109462030D01*
X128641938Y-109468284D01*
X128614360Y-109471000D01*
X128155640Y-109471000D01*
X128128062Y-109468284D01*
X128107444Y-109462030D01*
X128088444Y-109451874D01*
X128071792Y-109438208D01*
X128058126Y-109421556D01*
X128047970Y-109402556D01*
X128041716Y-109381938D01*
X128039000Y-109354360D01*
X128039000Y-108845640D01*
X128041716Y-108818062D01*
X128047970Y-108797444D01*
X128058126Y-108778444D01*
X128071792Y-108761792D01*
X128088444Y-108748126D01*
X128107444Y-108737970D01*
X128128062Y-108731716D01*
X128155640Y-108729000D01*
X128614360Y-108729000D01*
X128641938Y-108731716D01*
X128641938Y-108731716D01*
G37*
G36*
X152072200Y-109003600D02*
X148922200Y-109003600D01*
X148922200Y-107353600D01*
X152072200Y-107353600D01*
X152072200Y-109003600D01*
X152072200Y-109003600D01*
G37*
G36*
X147572200Y-107733600D02*
X144422200Y-107733600D01*
X144422200Y-106083600D01*
X147572200Y-106083600D01*
X147572200Y-107733600D01*
X147572200Y-107733600D01*
G37*
G36*
X126941938Y-106231716D02*
X126962556Y-106237970D01*
X126981556Y-106248126D01*
X126998208Y-106261792D01*
X127011874Y-106278444D01*
X127022030Y-106297444D01*
X127028284Y-106318062D01*
X127031000Y-106345640D01*
X127031000Y-106854360D01*
X127028284Y-106881938D01*
X127022030Y-106902556D01*
X127011874Y-106921556D01*
X126998208Y-106938208D01*
X126981556Y-106951874D01*
X126962556Y-106962030D01*
X126941938Y-106968284D01*
X126914360Y-106971000D01*
X126455640Y-106971000D01*
X126428062Y-106968284D01*
X126407444Y-106962030D01*
X126388444Y-106951874D01*
X126371792Y-106938208D01*
X126358126Y-106921556D01*
X126347970Y-106902556D01*
X126341716Y-106881938D01*
X126339000Y-106854360D01*
X126339000Y-106345640D01*
X126341716Y-106318062D01*
X126347970Y-106297444D01*
X126358126Y-106278444D01*
X126371792Y-106261792D01*
X126388444Y-106248126D01*
X126407444Y-106237970D01*
X126428062Y-106231716D01*
X126455640Y-106229000D01*
X126914360Y-106229000D01*
X126941938Y-106231716D01*
X126941938Y-106231716D01*
G37*
G36*
X125971938Y-106231716D02*
X125992556Y-106237970D01*
X126011556Y-106248126D01*
X126028208Y-106261792D01*
X126041874Y-106278444D01*
X126052030Y-106297444D01*
X126058284Y-106318062D01*
X126061000Y-106345640D01*
X126061000Y-106854360D01*
X126058284Y-106881938D01*
X126052030Y-106902556D01*
X126041874Y-106921556D01*
X126028208Y-106938208D01*
X126011556Y-106951874D01*
X125992556Y-106962030D01*
X125971938Y-106968284D01*
X125944360Y-106971000D01*
X125485640Y-106971000D01*
X125458062Y-106968284D01*
X125437444Y-106962030D01*
X125418444Y-106951874D01*
X125401792Y-106938208D01*
X125388126Y-106921556D01*
X125377970Y-106902556D01*
X125371716Y-106881938D01*
X125369000Y-106854360D01*
X125369000Y-106345640D01*
X125371716Y-106318062D01*
X125377970Y-106297444D01*
X125388126Y-106278444D01*
X125401792Y-106261792D01*
X125418444Y-106248126D01*
X125437444Y-106237970D01*
X125458062Y-106231716D01*
X125485640Y-106229000D01*
X125944360Y-106229000D01*
X125971938Y-106231716D01*
X125971938Y-106231716D01*
G37*
G36*
X121071938Y-106131716D02*
X121092556Y-106137970D01*
X121111556Y-106148126D01*
X121128208Y-106161792D01*
X121141874Y-106178444D01*
X121152030Y-106197444D01*
X121158284Y-106218062D01*
X121161000Y-106245640D01*
X121161000Y-106754360D01*
X121158284Y-106781938D01*
X121152030Y-106802556D01*
X121141874Y-106821556D01*
X121128208Y-106838208D01*
X121111556Y-106851874D01*
X121092556Y-106862030D01*
X121071938Y-106868284D01*
X121044360Y-106871000D01*
X120585640Y-106871000D01*
X120558062Y-106868284D01*
X120537444Y-106862030D01*
X120518444Y-106851874D01*
X120501792Y-106838208D01*
X120488126Y-106821556D01*
X120477970Y-106802556D01*
X120471716Y-106781938D01*
X120469000Y-106754360D01*
X120469000Y-106245640D01*
X120471716Y-106218062D01*
X120477970Y-106197444D01*
X120488126Y-106178444D01*
X120501792Y-106161792D01*
X120518444Y-106148126D01*
X120537444Y-106137970D01*
X120558062Y-106131716D01*
X120585640Y-106129000D01*
X121044360Y-106129000D01*
X121071938Y-106131716D01*
X121071938Y-106131716D01*
G37*
G36*
X114671938Y-106131716D02*
X114692556Y-106137970D01*
X114711556Y-106148126D01*
X114728208Y-106161792D01*
X114741874Y-106178444D01*
X114752030Y-106197444D01*
X114758284Y-106218062D01*
X114761000Y-106245640D01*
X114761000Y-106754360D01*
X114758284Y-106781938D01*
X114752030Y-106802556D01*
X114741874Y-106821556D01*
X114728208Y-106838208D01*
X114711556Y-106851874D01*
X114692556Y-106862030D01*
X114671938Y-106868284D01*
X114644360Y-106871000D01*
X114185640Y-106871000D01*
X114158062Y-106868284D01*
X114137444Y-106862030D01*
X114118444Y-106851874D01*
X114101792Y-106838208D01*
X114088126Y-106821556D01*
X114077970Y-106802556D01*
X114071716Y-106781938D01*
X114069000Y-106754360D01*
X114069000Y-106245640D01*
X114071716Y-106218062D01*
X114077970Y-106197444D01*
X114088126Y-106178444D01*
X114101792Y-106161792D01*
X114118444Y-106148126D01*
X114137444Y-106137970D01*
X114158062Y-106131716D01*
X114185640Y-106129000D01*
X114644360Y-106129000D01*
X114671938Y-106131716D01*
X114671938Y-106131716D01*
G37*
G36*
X118441938Y-106131716D02*
X118462556Y-106137970D01*
X118481556Y-106148126D01*
X118498208Y-106161792D01*
X118511874Y-106178444D01*
X118522030Y-106197444D01*
X118528284Y-106218062D01*
X118531000Y-106245640D01*
X118531000Y-106754360D01*
X118528284Y-106781938D01*
X118522030Y-106802556D01*
X118511874Y-106821556D01*
X118498208Y-106838208D01*
X118481556Y-106851874D01*
X118462556Y-106862030D01*
X118441938Y-106868284D01*
X118414360Y-106871000D01*
X117955640Y-106871000D01*
X117928062Y-106868284D01*
X117907444Y-106862030D01*
X117888444Y-106851874D01*
X117871792Y-106838208D01*
X117858126Y-106821556D01*
X117847970Y-106802556D01*
X117841716Y-106781938D01*
X117839000Y-106754360D01*
X117839000Y-106245640D01*
X117841716Y-106218062D01*
X117847970Y-106197444D01*
X117858126Y-106178444D01*
X117871792Y-106161792D01*
X117888444Y-106148126D01*
X117907444Y-106137970D01*
X117928062Y-106131716D01*
X117955640Y-106129000D01*
X118414360Y-106129000D01*
X118441938Y-106131716D01*
X118441938Y-106131716D01*
G37*
G36*
X115641938Y-106131716D02*
X115662556Y-106137970D01*
X115681556Y-106148126D01*
X115698208Y-106161792D01*
X115711874Y-106178444D01*
X115722030Y-106197444D01*
X115728284Y-106218062D01*
X115731000Y-106245640D01*
X115731000Y-106754360D01*
X115728284Y-106781938D01*
X115722030Y-106802556D01*
X115711874Y-106821556D01*
X115698208Y-106838208D01*
X115681556Y-106851874D01*
X115662556Y-106862030D01*
X115641938Y-106868284D01*
X115614360Y-106871000D01*
X115155640Y-106871000D01*
X115128062Y-106868284D01*
X115107444Y-106862030D01*
X115088444Y-106851874D01*
X115071792Y-106838208D01*
X115058126Y-106821556D01*
X115047970Y-106802556D01*
X115041716Y-106781938D01*
X115039000Y-106754360D01*
X115039000Y-106245640D01*
X115041716Y-106218062D01*
X115047970Y-106197444D01*
X115058126Y-106178444D01*
X115071792Y-106161792D01*
X115088444Y-106148126D01*
X115107444Y-106137970D01*
X115128062Y-106131716D01*
X115155640Y-106129000D01*
X115614360Y-106129000D01*
X115641938Y-106131716D01*
X115641938Y-106131716D01*
G37*
G36*
X122041938Y-106131716D02*
X122062556Y-106137970D01*
X122081556Y-106148126D01*
X122098208Y-106161792D01*
X122111874Y-106178444D01*
X122122030Y-106197444D01*
X122128284Y-106218062D01*
X122131000Y-106245640D01*
X122131000Y-106754360D01*
X122128284Y-106781938D01*
X122122030Y-106802556D01*
X122111874Y-106821556D01*
X122098208Y-106838208D01*
X122081556Y-106851874D01*
X122062556Y-106862030D01*
X122041938Y-106868284D01*
X122014360Y-106871000D01*
X121555640Y-106871000D01*
X121528062Y-106868284D01*
X121507444Y-106862030D01*
X121488444Y-106851874D01*
X121471792Y-106838208D01*
X121458126Y-106821556D01*
X121447970Y-106802556D01*
X121441716Y-106781938D01*
X121439000Y-106754360D01*
X121439000Y-106245640D01*
X121441716Y-106218062D01*
X121447970Y-106197444D01*
X121458126Y-106178444D01*
X121471792Y-106161792D01*
X121488444Y-106148126D01*
X121507444Y-106137970D01*
X121528062Y-106131716D01*
X121555640Y-106129000D01*
X122014360Y-106129000D01*
X122041938Y-106131716D01*
X122041938Y-106131716D01*
G37*
G36*
X117471938Y-106131716D02*
X117492556Y-106137970D01*
X117511556Y-106148126D01*
X117528208Y-106161792D01*
X117541874Y-106178444D01*
X117552030Y-106197444D01*
X117558284Y-106218062D01*
X117561000Y-106245640D01*
X117561000Y-106754360D01*
X117558284Y-106781938D01*
X117552030Y-106802556D01*
X117541874Y-106821556D01*
X117528208Y-106838208D01*
X117511556Y-106851874D01*
X117492556Y-106862030D01*
X117471938Y-106868284D01*
X117444360Y-106871000D01*
X116985640Y-106871000D01*
X116958062Y-106868284D01*
X116937444Y-106862030D01*
X116918444Y-106851874D01*
X116901792Y-106838208D01*
X116888126Y-106821556D01*
X116877970Y-106802556D01*
X116871716Y-106781938D01*
X116869000Y-106754360D01*
X116869000Y-106245640D01*
X116871716Y-106218062D01*
X116877970Y-106197444D01*
X116888126Y-106178444D01*
X116901792Y-106161792D01*
X116918444Y-106148126D01*
X116937444Y-106137970D01*
X116958062Y-106131716D01*
X116985640Y-106129000D01*
X117444360Y-106129000D01*
X117471938Y-106131716D01*
X117471938Y-106131716D01*
G37*
G36*
X96133655Y-103229733D02*
X96133657Y-103229734D01*
X96133658Y-103229734D01*
X96187509Y-103252040D01*
X96279440Y-103290119D01*
X96410643Y-103377786D01*
X96522214Y-103489357D01*
X96609881Y-103620560D01*
X96670267Y-103766345D01*
X96701050Y-103921102D01*
X96701050Y-104078898D01*
X96670267Y-104233655D01*
X96609881Y-104379440D01*
X96522214Y-104510643D01*
X96407907Y-104624950D01*
X96394915Y-104635612D01*
X96379370Y-104654554D01*
X96367819Y-104676165D01*
X96360706Y-104699614D01*
X96358304Y-104724001D01*
X96360706Y-104748387D01*
X96367819Y-104771836D01*
X96379371Y-104793447D01*
X96394916Y-104812389D01*
X96413858Y-104827934D01*
X96435469Y-104839485D01*
X96458918Y-104846598D01*
X96483304Y-104849000D01*
X98251000Y-104849000D01*
X98251000Y-106751000D01*
X96349000Y-106751000D01*
X96349000Y-104868145D01*
X96346598Y-104843759D01*
X96339485Y-104820310D01*
X96327934Y-104798699D01*
X96312388Y-104779757D01*
X96293446Y-104764211D01*
X96271835Y-104752660D01*
X96248386Y-104745547D01*
X96224000Y-104743145D01*
X96199614Y-104745547D01*
X96176165Y-104752660D01*
X96133658Y-104770267D01*
X95978898Y-104801050D01*
X95821102Y-104801050D01*
X95666345Y-104770267D01*
X95666343Y-104770266D01*
X95666342Y-104770266D01*
X95554649Y-104724001D01*
X95520560Y-104709881D01*
X95389357Y-104622214D01*
X95277786Y-104510643D01*
X95190119Y-104379440D01*
X95129733Y-104233655D01*
X95098950Y-104078898D01*
X95098950Y-103921102D01*
X95129733Y-103766345D01*
X95190119Y-103620560D01*
X95277786Y-103489357D01*
X95389357Y-103377786D01*
X95520560Y-103290119D01*
X95612491Y-103252040D01*
X95666342Y-103229734D01*
X95666343Y-103229734D01*
X95666345Y-103229733D01*
X95821102Y-103198950D01*
X95978898Y-103198950D01*
X96133655Y-103229733D01*
X96133655Y-103229733D01*
G37*
G36*
X100117396Y-104885546D02*
X100290466Y-104957234D01*
X100446230Y-105061312D01*
X100578688Y-105193770D01*
X100682766Y-105349534D01*
X100754454Y-105522604D01*
X100791000Y-105706333D01*
X100791000Y-105893667D01*
X100754454Y-106077396D01*
X100682766Y-106250466D01*
X100578688Y-106406230D01*
X100446230Y-106538688D01*
X100290466Y-106642766D01*
X100117396Y-106714454D01*
X99933667Y-106751000D01*
X99746333Y-106751000D01*
X99562604Y-106714454D01*
X99389534Y-106642766D01*
X99233770Y-106538688D01*
X99101312Y-106406230D01*
X98997234Y-106250466D01*
X98925546Y-106077396D01*
X98889000Y-105893667D01*
X98889000Y-105706333D01*
X98925546Y-105522604D01*
X98997234Y-105349534D01*
X99101312Y-105193770D01*
X99233770Y-105061312D01*
X99389534Y-104957234D01*
X99562604Y-104885546D01*
X99746333Y-104849000D01*
X99933667Y-104849000D01*
X100117396Y-104885546D01*
X100117396Y-104885546D01*
G37*
G36*
X102657396Y-104885546D02*
X102830466Y-104957234D01*
X102986230Y-105061312D01*
X103118688Y-105193770D01*
X103222766Y-105349534D01*
X103294454Y-105522604D01*
X103331000Y-105706333D01*
X103331000Y-105893667D01*
X103294454Y-106077396D01*
X103222766Y-106250466D01*
X103118688Y-106406230D01*
X102986230Y-106538688D01*
X102830466Y-106642766D01*
X102657396Y-106714454D01*
X102473667Y-106751000D01*
X102286333Y-106751000D01*
X102102604Y-106714454D01*
X101929534Y-106642766D01*
X101773770Y-106538688D01*
X101641312Y-106406230D01*
X101537234Y-106250466D01*
X101465546Y-106077396D01*
X101429000Y-105893667D01*
X101429000Y-105706333D01*
X101465546Y-105522604D01*
X101537234Y-105349534D01*
X101641312Y-105193770D01*
X101773770Y-105061312D01*
X101929534Y-104957234D01*
X102102604Y-104885546D01*
X102286333Y-104849000D01*
X102473667Y-104849000D01*
X102657396Y-104885546D01*
X102657396Y-104885546D01*
G37*
G36*
X152072200Y-106463600D02*
X148922200Y-106463600D01*
X148922200Y-104813600D01*
X152072200Y-104813600D01*
X152072200Y-106463600D01*
X152072200Y-106463600D01*
G37*
G36*
X108796000Y-106276000D02*
X107934000Y-106276000D01*
X107934000Y-104904000D01*
X108796000Y-104904000D01*
X108796000Y-106276000D01*
X108796000Y-106276000D01*
G37*
G36*
X110066000Y-106276000D02*
X109204000Y-106276000D01*
X109204000Y-104904000D01*
X110066000Y-104904000D01*
X110066000Y-106276000D01*
X110066000Y-106276000D01*
G37*
G36*
X147572200Y-105193600D02*
X144422200Y-105193600D01*
X144422200Y-103543600D01*
X147572200Y-103543600D01*
X147572200Y-105193600D01*
X147572200Y-105193600D01*
G37*
G36*
X111745845Y-103919215D02*
X111815643Y-103948126D01*
X111836839Y-103956906D01*
X111910142Y-104005886D01*
X111918734Y-104011627D01*
X111988373Y-104081266D01*
X111988375Y-104081269D01*
X112043094Y-104163161D01*
X112080785Y-104254155D01*
X112100000Y-104350754D01*
X112100000Y-104449246D01*
X112080785Y-104545845D01*
X112049425Y-104621556D01*
X112043094Y-104636839D01*
X112033048Y-104651874D01*
X111988373Y-104718734D01*
X111918734Y-104788373D01*
X111918731Y-104788375D01*
X111836839Y-104843094D01*
X111745845Y-104880785D01*
X111649246Y-104900000D01*
X111550754Y-104900000D01*
X111454155Y-104880785D01*
X111363161Y-104843094D01*
X111281269Y-104788375D01*
X111281266Y-104788373D01*
X111211627Y-104718734D01*
X111166952Y-104651874D01*
X111156906Y-104636839D01*
X111150576Y-104621556D01*
X111119215Y-104545845D01*
X111100000Y-104449246D01*
X111100000Y-104350754D01*
X111119215Y-104254155D01*
X111156906Y-104163161D01*
X111211625Y-104081269D01*
X111211627Y-104081266D01*
X111281266Y-104011627D01*
X111289858Y-104005886D01*
X111363161Y-103956906D01*
X111384358Y-103948126D01*
X111454155Y-103919215D01*
X111550754Y-103900000D01*
X111649246Y-103900000D01*
X111745845Y-103919215D01*
X111745845Y-103919215D01*
G37*
G36*
X116641938Y-103931716D02*
X116662556Y-103937970D01*
X116681556Y-103948126D01*
X116698208Y-103961792D01*
X116711874Y-103978444D01*
X116722030Y-103997444D01*
X116728284Y-104018062D01*
X116731000Y-104045640D01*
X116731000Y-104554360D01*
X116728284Y-104581938D01*
X116722030Y-104602556D01*
X116711874Y-104621556D01*
X116698208Y-104638208D01*
X116681556Y-104651874D01*
X116662556Y-104662030D01*
X116641938Y-104668284D01*
X116614360Y-104671000D01*
X116155640Y-104671000D01*
X116128062Y-104668284D01*
X116107444Y-104662030D01*
X116088444Y-104651874D01*
X116071792Y-104638208D01*
X116058126Y-104621556D01*
X116047970Y-104602556D01*
X116041716Y-104581938D01*
X116039000Y-104554360D01*
X116039000Y-104045640D01*
X116041716Y-104018062D01*
X116047970Y-103997444D01*
X116058126Y-103978444D01*
X116071792Y-103961792D01*
X116088444Y-103948126D01*
X116107444Y-103937970D01*
X116128062Y-103931716D01*
X116155640Y-103929000D01*
X116614360Y-103929000D01*
X116641938Y-103931716D01*
X116641938Y-103931716D01*
G37*
G36*
X124141938Y-103931716D02*
X124162556Y-103937970D01*
X124181556Y-103948126D01*
X124198208Y-103961792D01*
X124211874Y-103978444D01*
X124222030Y-103997444D01*
X124228284Y-104018062D01*
X124231000Y-104045640D01*
X124231000Y-104554360D01*
X124228284Y-104581938D01*
X124222030Y-104602556D01*
X124211874Y-104621556D01*
X124198208Y-104638208D01*
X124181556Y-104651874D01*
X124162556Y-104662030D01*
X124141938Y-104668284D01*
X124114360Y-104671000D01*
X123655640Y-104671000D01*
X123628062Y-104668284D01*
X123607444Y-104662030D01*
X123588444Y-104651874D01*
X123571792Y-104638208D01*
X123558126Y-104621556D01*
X123547970Y-104602556D01*
X123541716Y-104581938D01*
X123539000Y-104554360D01*
X123539000Y-104045640D01*
X123541716Y-104018062D01*
X123547970Y-103997444D01*
X123558126Y-103978444D01*
X123571792Y-103961792D01*
X123588444Y-103948126D01*
X123607444Y-103937970D01*
X123628062Y-103931716D01*
X123655640Y-103929000D01*
X124114360Y-103929000D01*
X124141938Y-103931716D01*
X124141938Y-103931716D01*
G37*
G36*
X123171938Y-103931716D02*
X123192556Y-103937970D01*
X123211556Y-103948126D01*
X123228208Y-103961792D01*
X123241874Y-103978444D01*
X123252030Y-103997444D01*
X123258284Y-104018062D01*
X123261000Y-104045640D01*
X123261000Y-104554360D01*
X123258284Y-104581938D01*
X123252030Y-104602556D01*
X123241874Y-104621556D01*
X123228208Y-104638208D01*
X123211556Y-104651874D01*
X123192556Y-104662030D01*
X123171938Y-104668284D01*
X123144360Y-104671000D01*
X122685640Y-104671000D01*
X122658062Y-104668284D01*
X122637444Y-104662030D01*
X122618444Y-104651874D01*
X122601792Y-104638208D01*
X122588126Y-104621556D01*
X122577970Y-104602556D01*
X122571716Y-104581938D01*
X122569000Y-104554360D01*
X122569000Y-104045640D01*
X122571716Y-104018062D01*
X122577970Y-103997444D01*
X122588126Y-103978444D01*
X122601792Y-103961792D01*
X122618444Y-103948126D01*
X122637444Y-103937970D01*
X122658062Y-103931716D01*
X122685640Y-103929000D01*
X123144360Y-103929000D01*
X123171938Y-103931716D01*
X123171938Y-103931716D01*
G37*
G36*
X127841938Y-103931716D02*
X127862556Y-103937970D01*
X127881556Y-103948126D01*
X127898208Y-103961792D01*
X127911874Y-103978444D01*
X127922030Y-103997444D01*
X127928284Y-104018062D01*
X127931000Y-104045640D01*
X127931000Y-104554360D01*
X127928284Y-104581938D01*
X127922030Y-104602556D01*
X127911874Y-104621556D01*
X127898208Y-104638208D01*
X127881556Y-104651874D01*
X127862556Y-104662030D01*
X127841938Y-104668284D01*
X127814360Y-104671000D01*
X127355640Y-104671000D01*
X127328062Y-104668284D01*
X127307444Y-104662030D01*
X127288444Y-104651874D01*
X127271792Y-104638208D01*
X127258126Y-104621556D01*
X127247970Y-104602556D01*
X127241716Y-104581938D01*
X127239000Y-104554360D01*
X127239000Y-104045640D01*
X127241716Y-104018062D01*
X127247970Y-103997444D01*
X127258126Y-103978444D01*
X127271792Y-103961792D01*
X127288444Y-103948126D01*
X127307444Y-103937970D01*
X127328062Y-103931716D01*
X127355640Y-103929000D01*
X127814360Y-103929000D01*
X127841938Y-103931716D01*
X127841938Y-103931716D01*
G37*
G36*
X119371938Y-103931716D02*
X119392556Y-103937970D01*
X119411556Y-103948126D01*
X119428208Y-103961792D01*
X119441874Y-103978444D01*
X119452030Y-103997444D01*
X119458284Y-104018062D01*
X119461000Y-104045640D01*
X119461000Y-104554360D01*
X119458284Y-104581938D01*
X119452030Y-104602556D01*
X119441874Y-104621556D01*
X119428208Y-104638208D01*
X119411556Y-104651874D01*
X119392556Y-104662030D01*
X119371938Y-104668284D01*
X119344360Y-104671000D01*
X118885640Y-104671000D01*
X118858062Y-104668284D01*
X118837444Y-104662030D01*
X118818444Y-104651874D01*
X118801792Y-104638208D01*
X118788126Y-104621556D01*
X118777970Y-104602556D01*
X118771716Y-104581938D01*
X118769000Y-104554360D01*
X118769000Y-104045640D01*
X118771716Y-104018062D01*
X118777970Y-103997444D01*
X118788126Y-103978444D01*
X118801792Y-103961792D01*
X118818444Y-103948126D01*
X118837444Y-103937970D01*
X118858062Y-103931716D01*
X118885640Y-103929000D01*
X119344360Y-103929000D01*
X119371938Y-103931716D01*
X119371938Y-103931716D01*
G37*
G36*
X126871938Y-103931716D02*
X126892556Y-103937970D01*
X126911556Y-103948126D01*
X126928208Y-103961792D01*
X126941874Y-103978444D01*
X126952030Y-103997444D01*
X126958284Y-104018062D01*
X126961000Y-104045640D01*
X126961000Y-104554360D01*
X126958284Y-104581938D01*
X126952030Y-104602556D01*
X126941874Y-104621556D01*
X126928208Y-104638208D01*
X126911556Y-104651874D01*
X126892556Y-104662030D01*
X126871938Y-104668284D01*
X126844360Y-104671000D01*
X126385640Y-104671000D01*
X126358062Y-104668284D01*
X126337444Y-104662030D01*
X126318444Y-104651874D01*
X126301792Y-104638208D01*
X126288126Y-104621556D01*
X126277970Y-104602556D01*
X126271716Y-104581938D01*
X126269000Y-104554360D01*
X126269000Y-104045640D01*
X126271716Y-104018062D01*
X126277970Y-103997444D01*
X126288126Y-103978444D01*
X126301792Y-103961792D01*
X126318444Y-103948126D01*
X126337444Y-103937970D01*
X126358062Y-103931716D01*
X126385640Y-103929000D01*
X126844360Y-103929000D01*
X126871938Y-103931716D01*
X126871938Y-103931716D01*
G37*
G36*
X120341938Y-103931716D02*
X120362556Y-103937970D01*
X120381556Y-103948126D01*
X120398208Y-103961792D01*
X120411874Y-103978444D01*
X120422030Y-103997444D01*
X120428284Y-104018062D01*
X120431000Y-104045640D01*
X120431000Y-104554360D01*
X120428284Y-104581938D01*
X120422030Y-104602556D01*
X120411874Y-104621556D01*
X120398208Y-104638208D01*
X120381556Y-104651874D01*
X120362556Y-104662030D01*
X120341938Y-104668284D01*
X120314360Y-104671000D01*
X119855640Y-104671000D01*
X119828062Y-104668284D01*
X119807444Y-104662030D01*
X119788444Y-104651874D01*
X119771792Y-104638208D01*
X119758126Y-104621556D01*
X119747970Y-104602556D01*
X119741716Y-104581938D01*
X119739000Y-104554360D01*
X119739000Y-104045640D01*
X119741716Y-104018062D01*
X119747970Y-103997444D01*
X119758126Y-103978444D01*
X119771792Y-103961792D01*
X119788444Y-103948126D01*
X119807444Y-103937970D01*
X119828062Y-103931716D01*
X119855640Y-103929000D01*
X120314360Y-103929000D01*
X120341938Y-103931716D01*
X120341938Y-103931716D01*
G37*
G36*
X115671938Y-103931716D02*
X115692556Y-103937970D01*
X115711556Y-103948126D01*
X115728208Y-103961792D01*
X115741874Y-103978444D01*
X115752030Y-103997444D01*
X115758284Y-104018062D01*
X115761000Y-104045640D01*
X115761000Y-104554360D01*
X115758284Y-104581938D01*
X115752030Y-104602556D01*
X115741874Y-104621556D01*
X115728208Y-104638208D01*
X115711556Y-104651874D01*
X115692556Y-104662030D01*
X115671938Y-104668284D01*
X115644360Y-104671000D01*
X115185640Y-104671000D01*
X115158062Y-104668284D01*
X115137444Y-104662030D01*
X115118444Y-104651874D01*
X115101792Y-104638208D01*
X115088126Y-104621556D01*
X115077970Y-104602556D01*
X115071716Y-104581938D01*
X115069000Y-104554360D01*
X115069000Y-104045640D01*
X115071716Y-104018062D01*
X115077970Y-103997444D01*
X115088126Y-103978444D01*
X115101792Y-103961792D01*
X115118444Y-103948126D01*
X115137444Y-103937970D01*
X115158062Y-103931716D01*
X115185640Y-103929000D01*
X115644360Y-103929000D01*
X115671938Y-103931716D01*
X115671938Y-103931716D01*
G37*
G36*
X101387396Y-102345546D02*
X101560466Y-102417234D01*
X101716230Y-102521312D01*
X101848688Y-102653770D01*
X101952766Y-102809534D01*
X102024454Y-102982604D01*
X102061000Y-103166333D01*
X102061000Y-103353667D01*
X102024454Y-103537396D01*
X101952766Y-103710466D01*
X101848688Y-103866230D01*
X101716230Y-103998688D01*
X101560466Y-104102766D01*
X101387396Y-104174454D01*
X101203667Y-104211000D01*
X101016333Y-104211000D01*
X100832604Y-104174454D01*
X100659534Y-104102766D01*
X100503770Y-103998688D01*
X100371312Y-103866230D01*
X100267234Y-103710466D01*
X100195546Y-103537396D01*
X100159000Y-103353667D01*
X100159000Y-103166333D01*
X100195546Y-102982604D01*
X100267234Y-102809534D01*
X100371312Y-102653770D01*
X100503770Y-102521312D01*
X100659534Y-102417234D01*
X100832604Y-102345546D01*
X101016333Y-102309000D01*
X101203667Y-102309000D01*
X101387396Y-102345546D01*
X101387396Y-102345546D01*
G37*
G36*
X98847396Y-102345546D02*
X99020466Y-102417234D01*
X99176230Y-102521312D01*
X99308688Y-102653770D01*
X99412766Y-102809534D01*
X99484454Y-102982604D01*
X99521000Y-103166333D01*
X99521000Y-103353667D01*
X99484454Y-103537396D01*
X99412766Y-103710466D01*
X99308688Y-103866230D01*
X99176230Y-103998688D01*
X99020466Y-104102766D01*
X98847396Y-104174454D01*
X98663667Y-104211000D01*
X98476333Y-104211000D01*
X98292604Y-104174454D01*
X98119534Y-104102766D01*
X97963770Y-103998688D01*
X97831312Y-103866230D01*
X97727234Y-103710466D01*
X97655546Y-103537396D01*
X97619000Y-103353667D01*
X97619000Y-103166333D01*
X97655546Y-102982604D01*
X97727234Y-102809534D01*
X97831312Y-102653770D01*
X97963770Y-102521312D01*
X98119534Y-102417234D01*
X98292604Y-102345546D01*
X98476333Y-102309000D01*
X98663667Y-102309000D01*
X98847396Y-102345546D01*
X98847396Y-102345546D01*
G37*
G36*
X103927396Y-102345546D02*
X104100466Y-102417234D01*
X104256230Y-102521312D01*
X104388688Y-102653770D01*
X104492766Y-102809534D01*
X104564454Y-102982604D01*
X104601000Y-103166333D01*
X104601000Y-103353667D01*
X104564454Y-103537396D01*
X104492766Y-103710466D01*
X104388688Y-103866230D01*
X104256230Y-103998688D01*
X104100466Y-104102766D01*
X103927396Y-104174454D01*
X103743667Y-104211000D01*
X103556333Y-104211000D01*
X103372604Y-104174454D01*
X103199534Y-104102766D01*
X103043770Y-103998688D01*
X102911312Y-103866230D01*
X102807234Y-103710466D01*
X102735546Y-103537396D01*
X102699000Y-103353667D01*
X102699000Y-103166333D01*
X102735546Y-102982604D01*
X102807234Y-102809534D01*
X102911312Y-102653770D01*
X103043770Y-102521312D01*
X103199534Y-102417234D01*
X103372604Y-102345546D01*
X103556333Y-102309000D01*
X103743667Y-102309000D01*
X103927396Y-102345546D01*
X103927396Y-102345546D01*
G37*
G36*
X152072200Y-103923600D02*
X148922200Y-103923600D01*
X148922200Y-102273600D01*
X152072200Y-102273600D01*
X152072200Y-103923600D01*
X152072200Y-103923600D01*
G37*
G36*
X111448443Y-100941519D02*
X111514627Y-100948037D01*
X111627853Y-100982384D01*
X111684467Y-100999557D01*
X111823087Y-101073652D01*
X111840991Y-101083222D01*
X111876729Y-101112552D01*
X111978186Y-101195814D01*
X112061448Y-101297271D01*
X112090778Y-101333009D01*
X112090779Y-101333011D01*
X112174443Y-101489533D01*
X112174443Y-101489534D01*
X112225963Y-101659373D01*
X112243359Y-101836000D01*
X112225963Y-102012627D01*
X112191616Y-102125853D01*
X112174443Y-102182467D01*
X112106809Y-102309000D01*
X112090778Y-102338991D01*
X112061448Y-102374729D01*
X111978186Y-102476186D01*
X111876729Y-102559448D01*
X111840991Y-102588778D01*
X111840989Y-102588779D01*
X111684467Y-102672443D01*
X111627853Y-102689616D01*
X111514627Y-102723963D01*
X111448442Y-102730482D01*
X111382260Y-102737000D01*
X111293740Y-102737000D01*
X111227558Y-102730482D01*
X111161373Y-102723963D01*
X111048147Y-102689616D01*
X110991533Y-102672443D01*
X110835011Y-102588779D01*
X110835009Y-102588778D01*
X110799271Y-102559448D01*
X110697814Y-102476186D01*
X110614552Y-102374729D01*
X110585222Y-102338991D01*
X110569191Y-102309000D01*
X110501557Y-102182467D01*
X110484384Y-102125853D01*
X110450037Y-102012627D01*
X110432641Y-101836000D01*
X110450037Y-101659373D01*
X110501557Y-101489534D01*
X110501557Y-101489533D01*
X110585221Y-101333011D01*
X110585222Y-101333009D01*
X110614552Y-101297271D01*
X110697814Y-101195814D01*
X110799271Y-101112552D01*
X110835009Y-101083222D01*
X110852913Y-101073652D01*
X110991533Y-100999557D01*
X111048147Y-100982384D01*
X111161373Y-100948037D01*
X111227558Y-100941518D01*
X111293740Y-100935000D01*
X111382260Y-100935000D01*
X111448443Y-100941519D01*
X111448443Y-100941519D01*
G37*
G36*
X113988443Y-100941519D02*
X114054627Y-100948037D01*
X114167853Y-100982384D01*
X114224467Y-100999557D01*
X114363087Y-101073652D01*
X114380991Y-101083222D01*
X114416729Y-101112552D01*
X114518186Y-101195814D01*
X114601448Y-101297271D01*
X114630778Y-101333009D01*
X114630779Y-101333011D01*
X114714443Y-101489533D01*
X114714443Y-101489534D01*
X114765963Y-101659373D01*
X114783359Y-101836000D01*
X114765963Y-102012627D01*
X114731616Y-102125853D01*
X114714443Y-102182467D01*
X114646809Y-102309000D01*
X114630778Y-102338991D01*
X114601448Y-102374729D01*
X114518186Y-102476186D01*
X114416729Y-102559448D01*
X114380991Y-102588778D01*
X114380989Y-102588779D01*
X114224467Y-102672443D01*
X114167853Y-102689616D01*
X114054627Y-102723963D01*
X113988442Y-102730482D01*
X113922260Y-102737000D01*
X113833740Y-102737000D01*
X113767558Y-102730482D01*
X113701373Y-102723963D01*
X113588147Y-102689616D01*
X113531533Y-102672443D01*
X113375011Y-102588779D01*
X113375009Y-102588778D01*
X113339271Y-102559448D01*
X113237814Y-102476186D01*
X113154552Y-102374729D01*
X113125222Y-102338991D01*
X113109191Y-102309000D01*
X113041557Y-102182467D01*
X113024384Y-102125853D01*
X112990037Y-102012627D01*
X112972641Y-101836000D01*
X112990037Y-101659373D01*
X113041557Y-101489534D01*
X113041557Y-101489533D01*
X113125221Y-101333011D01*
X113125222Y-101333009D01*
X113154552Y-101297271D01*
X113237814Y-101195814D01*
X113339271Y-101112552D01*
X113375009Y-101083222D01*
X113392913Y-101073652D01*
X113531533Y-100999557D01*
X113588147Y-100982384D01*
X113701373Y-100948037D01*
X113767558Y-100941518D01*
X113833740Y-100935000D01*
X113922260Y-100935000D01*
X113988443Y-100941519D01*
X113988443Y-100941519D01*
G37*
G36*
X142719000Y-102737000D02*
X140917000Y-102737000D01*
X140917000Y-100935000D01*
X142719000Y-100935000D01*
X142719000Y-102737000D01*
X142719000Y-102737000D01*
G37*
G36*
X139388443Y-100941519D02*
X139454627Y-100948037D01*
X139567853Y-100982384D01*
X139624467Y-100999557D01*
X139763087Y-101073652D01*
X139780991Y-101083222D01*
X139816729Y-101112552D01*
X139918186Y-101195814D01*
X140001448Y-101297271D01*
X140030778Y-101333009D01*
X140030779Y-101333011D01*
X140114443Y-101489533D01*
X140114443Y-101489534D01*
X140165963Y-101659373D01*
X140183359Y-101836000D01*
X140165963Y-102012627D01*
X140131616Y-102125853D01*
X140114443Y-102182467D01*
X140046809Y-102309000D01*
X140030778Y-102338991D01*
X140001448Y-102374729D01*
X139918186Y-102476186D01*
X139816729Y-102559448D01*
X139780991Y-102588778D01*
X139780989Y-102588779D01*
X139624467Y-102672443D01*
X139567853Y-102689616D01*
X139454627Y-102723963D01*
X139388442Y-102730482D01*
X139322260Y-102737000D01*
X139233740Y-102737000D01*
X139167558Y-102730482D01*
X139101373Y-102723963D01*
X138988147Y-102689616D01*
X138931533Y-102672443D01*
X138775011Y-102588779D01*
X138775009Y-102588778D01*
X138739271Y-102559448D01*
X138637814Y-102476186D01*
X138554552Y-102374729D01*
X138525222Y-102338991D01*
X138509191Y-102309000D01*
X138441557Y-102182467D01*
X138424384Y-102125853D01*
X138390037Y-102012627D01*
X138372641Y-101836000D01*
X138390037Y-101659373D01*
X138441557Y-101489534D01*
X138441557Y-101489533D01*
X138525221Y-101333011D01*
X138525222Y-101333009D01*
X138554552Y-101297271D01*
X138637814Y-101195814D01*
X138739271Y-101112552D01*
X138775009Y-101083222D01*
X138792913Y-101073652D01*
X138931533Y-100999557D01*
X138988147Y-100982384D01*
X139101373Y-100948037D01*
X139167558Y-100941518D01*
X139233740Y-100935000D01*
X139322260Y-100935000D01*
X139388443Y-100941519D01*
X139388443Y-100941519D01*
G37*
G36*
X136848443Y-100941519D02*
X136914627Y-100948037D01*
X137027853Y-100982384D01*
X137084467Y-100999557D01*
X137223087Y-101073652D01*
X137240991Y-101083222D01*
X137276729Y-101112552D01*
X137378186Y-101195814D01*
X137461448Y-101297271D01*
X137490778Y-101333009D01*
X137490779Y-101333011D01*
X137574443Y-101489533D01*
X137574443Y-101489534D01*
X137625963Y-101659373D01*
X137643359Y-101836000D01*
X137625963Y-102012627D01*
X137591616Y-102125853D01*
X137574443Y-102182467D01*
X137506809Y-102309000D01*
X137490778Y-102338991D01*
X137461448Y-102374729D01*
X137378186Y-102476186D01*
X137276729Y-102559448D01*
X137240991Y-102588778D01*
X137240989Y-102588779D01*
X137084467Y-102672443D01*
X137027853Y-102689616D01*
X136914627Y-102723963D01*
X136848442Y-102730482D01*
X136782260Y-102737000D01*
X136693740Y-102737000D01*
X136627558Y-102730482D01*
X136561373Y-102723963D01*
X136448147Y-102689616D01*
X136391533Y-102672443D01*
X136235011Y-102588779D01*
X136235009Y-102588778D01*
X136199271Y-102559448D01*
X136097814Y-102476186D01*
X136014552Y-102374729D01*
X135985222Y-102338991D01*
X135969191Y-102309000D01*
X135901557Y-102182467D01*
X135884384Y-102125853D01*
X135850037Y-102012627D01*
X135832641Y-101836000D01*
X135850037Y-101659373D01*
X135901557Y-101489534D01*
X135901557Y-101489533D01*
X135985221Y-101333011D01*
X135985222Y-101333009D01*
X136014552Y-101297271D01*
X136097814Y-101195814D01*
X136199271Y-101112552D01*
X136235009Y-101083222D01*
X136252913Y-101073652D01*
X136391533Y-100999557D01*
X136448147Y-100982384D01*
X136561373Y-100948037D01*
X136627558Y-100941518D01*
X136693740Y-100935000D01*
X136782260Y-100935000D01*
X136848443Y-100941519D01*
X136848443Y-100941519D01*
G37*
G36*
X134308443Y-100941519D02*
X134374627Y-100948037D01*
X134487853Y-100982384D01*
X134544467Y-100999557D01*
X134683087Y-101073652D01*
X134700991Y-101083222D01*
X134736729Y-101112552D01*
X134838186Y-101195814D01*
X134921448Y-101297271D01*
X134950778Y-101333009D01*
X134950779Y-101333011D01*
X135034443Y-101489533D01*
X135034443Y-101489534D01*
X135085963Y-101659373D01*
X135103359Y-101836000D01*
X135085963Y-102012627D01*
X135051616Y-102125853D01*
X135034443Y-102182467D01*
X134966809Y-102309000D01*
X134950778Y-102338991D01*
X134921448Y-102374729D01*
X134838186Y-102476186D01*
X134736729Y-102559448D01*
X134700991Y-102588778D01*
X134700989Y-102588779D01*
X134544467Y-102672443D01*
X134487853Y-102689616D01*
X134374627Y-102723963D01*
X134308442Y-102730482D01*
X134242260Y-102737000D01*
X134153740Y-102737000D01*
X134087558Y-102730482D01*
X134021373Y-102723963D01*
X133908147Y-102689616D01*
X133851533Y-102672443D01*
X133695011Y-102588779D01*
X133695009Y-102588778D01*
X133659271Y-102559448D01*
X133557814Y-102476186D01*
X133474552Y-102374729D01*
X133445222Y-102338991D01*
X133429191Y-102309000D01*
X133361557Y-102182467D01*
X133344384Y-102125853D01*
X133310037Y-102012627D01*
X133292641Y-101836000D01*
X133310037Y-101659373D01*
X133361557Y-101489534D01*
X133361557Y-101489533D01*
X133445221Y-101333011D01*
X133445222Y-101333009D01*
X133474552Y-101297271D01*
X133557814Y-101195814D01*
X133659271Y-101112552D01*
X133695009Y-101083222D01*
X133712913Y-101073652D01*
X133851533Y-100999557D01*
X133908147Y-100982384D01*
X134021373Y-100948037D01*
X134087558Y-100941518D01*
X134153740Y-100935000D01*
X134242260Y-100935000D01*
X134308443Y-100941519D01*
X134308443Y-100941519D01*
G37*
G36*
X131768443Y-100941519D02*
X131834627Y-100948037D01*
X131947853Y-100982384D01*
X132004467Y-100999557D01*
X132143087Y-101073652D01*
X132160991Y-101083222D01*
X132196729Y-101112552D01*
X132298186Y-101195814D01*
X132381448Y-101297271D01*
X132410778Y-101333009D01*
X132410779Y-101333011D01*
X132494443Y-101489533D01*
X132494443Y-101489534D01*
X132545963Y-101659373D01*
X132563359Y-101836000D01*
X132545963Y-102012627D01*
X132511616Y-102125853D01*
X132494443Y-102182467D01*
X132426809Y-102309000D01*
X132410778Y-102338991D01*
X132381448Y-102374729D01*
X132298186Y-102476186D01*
X132196729Y-102559448D01*
X132160991Y-102588778D01*
X132160989Y-102588779D01*
X132004467Y-102672443D01*
X131947853Y-102689616D01*
X131834627Y-102723963D01*
X131768442Y-102730482D01*
X131702260Y-102737000D01*
X131613740Y-102737000D01*
X131547558Y-102730482D01*
X131481373Y-102723963D01*
X131368147Y-102689616D01*
X131311533Y-102672443D01*
X131155011Y-102588779D01*
X131155009Y-102588778D01*
X131119271Y-102559448D01*
X131017814Y-102476186D01*
X130934552Y-102374729D01*
X130905222Y-102338991D01*
X130889191Y-102309000D01*
X130821557Y-102182467D01*
X130804384Y-102125853D01*
X130770037Y-102012627D01*
X130752641Y-101836000D01*
X130770037Y-101659373D01*
X130821557Y-101489534D01*
X130821557Y-101489533D01*
X130905221Y-101333011D01*
X130905222Y-101333009D01*
X130934552Y-101297271D01*
X131017814Y-101195814D01*
X131119271Y-101112552D01*
X131155009Y-101083222D01*
X131172913Y-101073652D01*
X131311533Y-100999557D01*
X131368147Y-100982384D01*
X131481373Y-100948037D01*
X131547558Y-100941518D01*
X131613740Y-100935000D01*
X131702260Y-100935000D01*
X131768443Y-100941519D01*
X131768443Y-100941519D01*
G37*
G36*
X129228443Y-100941519D02*
X129294627Y-100948037D01*
X129407853Y-100982384D01*
X129464467Y-100999557D01*
X129603087Y-101073652D01*
X129620991Y-101083222D01*
X129656729Y-101112552D01*
X129758186Y-101195814D01*
X129841448Y-101297271D01*
X129870778Y-101333009D01*
X129870779Y-101333011D01*
X129954443Y-101489533D01*
X129954443Y-101489534D01*
X130005963Y-101659373D01*
X130023359Y-101836000D01*
X130005963Y-102012627D01*
X129971616Y-102125853D01*
X129954443Y-102182467D01*
X129886809Y-102309000D01*
X129870778Y-102338991D01*
X129841448Y-102374729D01*
X129758186Y-102476186D01*
X129656729Y-102559448D01*
X129620991Y-102588778D01*
X129620989Y-102588779D01*
X129464467Y-102672443D01*
X129407853Y-102689616D01*
X129294627Y-102723963D01*
X129228442Y-102730482D01*
X129162260Y-102737000D01*
X129073740Y-102737000D01*
X129007558Y-102730482D01*
X128941373Y-102723963D01*
X128828147Y-102689616D01*
X128771533Y-102672443D01*
X128615011Y-102588779D01*
X128615009Y-102588778D01*
X128579271Y-102559448D01*
X128477814Y-102476186D01*
X128394552Y-102374729D01*
X128365222Y-102338991D01*
X128349191Y-102309000D01*
X128281557Y-102182467D01*
X128264384Y-102125853D01*
X128230037Y-102012627D01*
X128212641Y-101836000D01*
X128230037Y-101659373D01*
X128281557Y-101489534D01*
X128281557Y-101489533D01*
X128365221Y-101333011D01*
X128365222Y-101333009D01*
X128394552Y-101297271D01*
X128477814Y-101195814D01*
X128579271Y-101112552D01*
X128615009Y-101083222D01*
X128632913Y-101073652D01*
X128771533Y-100999557D01*
X128828147Y-100982384D01*
X128941373Y-100948037D01*
X129007558Y-100941518D01*
X129073740Y-100935000D01*
X129162260Y-100935000D01*
X129228443Y-100941519D01*
X129228443Y-100941519D01*
G37*
G36*
X126688443Y-100941519D02*
X126754627Y-100948037D01*
X126867853Y-100982384D01*
X126924467Y-100999557D01*
X127063087Y-101073652D01*
X127080991Y-101083222D01*
X127116729Y-101112552D01*
X127218186Y-101195814D01*
X127301448Y-101297271D01*
X127330778Y-101333009D01*
X127330779Y-101333011D01*
X127414443Y-101489533D01*
X127414443Y-101489534D01*
X127465963Y-101659373D01*
X127483359Y-101836000D01*
X127465963Y-102012627D01*
X127431616Y-102125853D01*
X127414443Y-102182467D01*
X127346809Y-102309000D01*
X127330778Y-102338991D01*
X127301448Y-102374729D01*
X127218186Y-102476186D01*
X127116729Y-102559448D01*
X127080991Y-102588778D01*
X127080989Y-102588779D01*
X126924467Y-102672443D01*
X126867853Y-102689616D01*
X126754627Y-102723963D01*
X126688442Y-102730482D01*
X126622260Y-102737000D01*
X126533740Y-102737000D01*
X126467558Y-102730482D01*
X126401373Y-102723963D01*
X126288147Y-102689616D01*
X126231533Y-102672443D01*
X126075011Y-102588779D01*
X126075009Y-102588778D01*
X126039271Y-102559448D01*
X125937814Y-102476186D01*
X125854552Y-102374729D01*
X125825222Y-102338991D01*
X125809191Y-102309000D01*
X125741557Y-102182467D01*
X125724384Y-102125853D01*
X125690037Y-102012627D01*
X125672641Y-101836000D01*
X125690037Y-101659373D01*
X125741557Y-101489534D01*
X125741557Y-101489533D01*
X125825221Y-101333011D01*
X125825222Y-101333009D01*
X125854552Y-101297271D01*
X125937814Y-101195814D01*
X126039271Y-101112552D01*
X126075009Y-101083222D01*
X126092913Y-101073652D01*
X126231533Y-100999557D01*
X126288147Y-100982384D01*
X126401373Y-100948037D01*
X126467558Y-100941518D01*
X126533740Y-100935000D01*
X126622260Y-100935000D01*
X126688443Y-100941519D01*
X126688443Y-100941519D01*
G37*
G36*
X124148443Y-100941519D02*
X124214627Y-100948037D01*
X124327853Y-100982384D01*
X124384467Y-100999557D01*
X124523087Y-101073652D01*
X124540991Y-101083222D01*
X124576729Y-101112552D01*
X124678186Y-101195814D01*
X124761448Y-101297271D01*
X124790778Y-101333009D01*
X124790779Y-101333011D01*
X124874443Y-101489533D01*
X124874443Y-101489534D01*
X124925963Y-101659373D01*
X124943359Y-101836000D01*
X124925963Y-102012627D01*
X124891616Y-102125853D01*
X124874443Y-102182467D01*
X124806809Y-102309000D01*
X124790778Y-102338991D01*
X124761448Y-102374729D01*
X124678186Y-102476186D01*
X124576729Y-102559448D01*
X124540991Y-102588778D01*
X124540989Y-102588779D01*
X124384467Y-102672443D01*
X124327853Y-102689616D01*
X124214627Y-102723963D01*
X124148442Y-102730482D01*
X124082260Y-102737000D01*
X123993740Y-102737000D01*
X123927558Y-102730482D01*
X123861373Y-102723963D01*
X123748147Y-102689616D01*
X123691533Y-102672443D01*
X123535011Y-102588779D01*
X123535009Y-102588778D01*
X123499271Y-102559448D01*
X123397814Y-102476186D01*
X123314552Y-102374729D01*
X123285222Y-102338991D01*
X123269191Y-102309000D01*
X123201557Y-102182467D01*
X123184384Y-102125853D01*
X123150037Y-102012627D01*
X123132641Y-101836000D01*
X123150037Y-101659373D01*
X123201557Y-101489534D01*
X123201557Y-101489533D01*
X123285221Y-101333011D01*
X123285222Y-101333009D01*
X123314552Y-101297271D01*
X123397814Y-101195814D01*
X123499271Y-101112552D01*
X123535009Y-101083222D01*
X123552913Y-101073652D01*
X123691533Y-100999557D01*
X123748147Y-100982384D01*
X123861373Y-100948037D01*
X123927558Y-100941518D01*
X123993740Y-100935000D01*
X124082260Y-100935000D01*
X124148443Y-100941519D01*
X124148443Y-100941519D01*
G37*
G36*
X121608443Y-100941519D02*
X121674627Y-100948037D01*
X121787853Y-100982384D01*
X121844467Y-100999557D01*
X121983087Y-101073652D01*
X122000991Y-101083222D01*
X122036729Y-101112552D01*
X122138186Y-101195814D01*
X122221448Y-101297271D01*
X122250778Y-101333009D01*
X122250779Y-101333011D01*
X122334443Y-101489533D01*
X122334443Y-101489534D01*
X122385963Y-101659373D01*
X122403359Y-101836000D01*
X122385963Y-102012627D01*
X122351616Y-102125853D01*
X122334443Y-102182467D01*
X122266809Y-102309000D01*
X122250778Y-102338991D01*
X122221448Y-102374729D01*
X122138186Y-102476186D01*
X122036729Y-102559448D01*
X122000991Y-102588778D01*
X122000989Y-102588779D01*
X121844467Y-102672443D01*
X121787853Y-102689616D01*
X121674627Y-102723963D01*
X121608442Y-102730482D01*
X121542260Y-102737000D01*
X121453740Y-102737000D01*
X121387558Y-102730482D01*
X121321373Y-102723963D01*
X121208147Y-102689616D01*
X121151533Y-102672443D01*
X120995011Y-102588779D01*
X120995009Y-102588778D01*
X120959271Y-102559448D01*
X120857814Y-102476186D01*
X120774552Y-102374729D01*
X120745222Y-102338991D01*
X120729191Y-102309000D01*
X120661557Y-102182467D01*
X120644384Y-102125853D01*
X120610037Y-102012627D01*
X120592641Y-101836000D01*
X120610037Y-101659373D01*
X120661557Y-101489534D01*
X120661557Y-101489533D01*
X120745221Y-101333011D01*
X120745222Y-101333009D01*
X120774552Y-101297271D01*
X120857814Y-101195814D01*
X120959271Y-101112552D01*
X120995009Y-101083222D01*
X121012913Y-101073652D01*
X121151533Y-100999557D01*
X121208147Y-100982384D01*
X121321373Y-100948037D01*
X121387558Y-100941518D01*
X121453740Y-100935000D01*
X121542260Y-100935000D01*
X121608443Y-100941519D01*
X121608443Y-100941519D01*
G37*
G36*
X119068443Y-100941519D02*
X119134627Y-100948037D01*
X119247853Y-100982384D01*
X119304467Y-100999557D01*
X119443087Y-101073652D01*
X119460991Y-101083222D01*
X119496729Y-101112552D01*
X119598186Y-101195814D01*
X119681448Y-101297271D01*
X119710778Y-101333009D01*
X119710779Y-101333011D01*
X119794443Y-101489533D01*
X119794443Y-101489534D01*
X119845963Y-101659373D01*
X119863359Y-101836000D01*
X119845963Y-102012627D01*
X119811616Y-102125853D01*
X119794443Y-102182467D01*
X119726809Y-102309000D01*
X119710778Y-102338991D01*
X119681448Y-102374729D01*
X119598186Y-102476186D01*
X119496729Y-102559448D01*
X119460991Y-102588778D01*
X119460989Y-102588779D01*
X119304467Y-102672443D01*
X119247853Y-102689616D01*
X119134627Y-102723963D01*
X119068442Y-102730482D01*
X119002260Y-102737000D01*
X118913740Y-102737000D01*
X118847558Y-102730482D01*
X118781373Y-102723963D01*
X118668147Y-102689616D01*
X118611533Y-102672443D01*
X118455011Y-102588779D01*
X118455009Y-102588778D01*
X118419271Y-102559448D01*
X118317814Y-102476186D01*
X118234552Y-102374729D01*
X118205222Y-102338991D01*
X118189191Y-102309000D01*
X118121557Y-102182467D01*
X118104384Y-102125853D01*
X118070037Y-102012627D01*
X118052641Y-101836000D01*
X118070037Y-101659373D01*
X118121557Y-101489534D01*
X118121557Y-101489533D01*
X118205221Y-101333011D01*
X118205222Y-101333009D01*
X118234552Y-101297271D01*
X118317814Y-101195814D01*
X118419271Y-101112552D01*
X118455009Y-101083222D01*
X118472913Y-101073652D01*
X118611533Y-100999557D01*
X118668147Y-100982384D01*
X118781373Y-100948037D01*
X118847558Y-100941518D01*
X118913740Y-100935000D01*
X119002260Y-100935000D01*
X119068443Y-100941519D01*
X119068443Y-100941519D01*
G37*
G36*
X108908443Y-100941519D02*
X108974627Y-100948037D01*
X109087853Y-100982384D01*
X109144467Y-100999557D01*
X109283087Y-101073652D01*
X109300991Y-101083222D01*
X109336729Y-101112552D01*
X109438186Y-101195814D01*
X109521448Y-101297271D01*
X109550778Y-101333009D01*
X109550779Y-101333011D01*
X109634443Y-101489533D01*
X109634443Y-101489534D01*
X109685963Y-101659373D01*
X109703359Y-101836000D01*
X109685963Y-102012627D01*
X109651616Y-102125853D01*
X109634443Y-102182467D01*
X109566809Y-102309000D01*
X109550778Y-102338991D01*
X109521448Y-102374729D01*
X109438186Y-102476186D01*
X109336729Y-102559448D01*
X109300991Y-102588778D01*
X109300989Y-102588779D01*
X109144467Y-102672443D01*
X109087853Y-102689616D01*
X108974627Y-102723963D01*
X108908442Y-102730482D01*
X108842260Y-102737000D01*
X108753740Y-102737000D01*
X108687558Y-102730482D01*
X108621373Y-102723963D01*
X108508147Y-102689616D01*
X108451533Y-102672443D01*
X108295011Y-102588779D01*
X108295009Y-102588778D01*
X108259271Y-102559448D01*
X108157814Y-102476186D01*
X108074552Y-102374729D01*
X108045222Y-102338991D01*
X108029191Y-102309000D01*
X107961557Y-102182467D01*
X107944384Y-102125853D01*
X107910037Y-102012627D01*
X107892641Y-101836000D01*
X107910037Y-101659373D01*
X107961557Y-101489534D01*
X107961557Y-101489533D01*
X108045221Y-101333011D01*
X108045222Y-101333009D01*
X108074552Y-101297271D01*
X108157814Y-101195814D01*
X108259271Y-101112552D01*
X108295009Y-101083222D01*
X108312913Y-101073652D01*
X108451533Y-100999557D01*
X108508147Y-100982384D01*
X108621373Y-100948037D01*
X108687558Y-100941518D01*
X108753740Y-100935000D01*
X108842260Y-100935000D01*
X108908443Y-100941519D01*
X108908443Y-100941519D01*
G37*
G36*
X116528443Y-100941519D02*
X116594627Y-100948037D01*
X116707853Y-100982384D01*
X116764467Y-100999557D01*
X116903087Y-101073652D01*
X116920991Y-101083222D01*
X116956729Y-101112552D01*
X117058186Y-101195814D01*
X117141448Y-101297271D01*
X117170778Y-101333009D01*
X117170779Y-101333011D01*
X117254443Y-101489533D01*
X117254443Y-101489534D01*
X117305963Y-101659373D01*
X117323359Y-101836000D01*
X117305963Y-102012627D01*
X117271616Y-102125853D01*
X117254443Y-102182467D01*
X117186809Y-102309000D01*
X117170778Y-102338991D01*
X117141448Y-102374729D01*
X117058186Y-102476186D01*
X116956729Y-102559448D01*
X116920991Y-102588778D01*
X116920989Y-102588779D01*
X116764467Y-102672443D01*
X116707853Y-102689616D01*
X116594627Y-102723963D01*
X116528442Y-102730482D01*
X116462260Y-102737000D01*
X116373740Y-102737000D01*
X116307558Y-102730482D01*
X116241373Y-102723963D01*
X116128147Y-102689616D01*
X116071533Y-102672443D01*
X115915011Y-102588779D01*
X115915009Y-102588778D01*
X115879271Y-102559448D01*
X115777814Y-102476186D01*
X115694552Y-102374729D01*
X115665222Y-102338991D01*
X115649191Y-102309000D01*
X115581557Y-102182467D01*
X115564384Y-102125853D01*
X115530037Y-102012627D01*
X115512641Y-101836000D01*
X115530037Y-101659373D01*
X115581557Y-101489534D01*
X115581557Y-101489533D01*
X115665221Y-101333011D01*
X115665222Y-101333009D01*
X115694552Y-101297271D01*
X115777814Y-101195814D01*
X115879271Y-101112552D01*
X115915009Y-101083222D01*
X115932913Y-101073652D01*
X116071533Y-100999557D01*
X116128147Y-100982384D01*
X116241373Y-100948037D01*
X116307558Y-100941518D01*
X116373740Y-100935000D01*
X116462260Y-100935000D01*
X116528443Y-100941519D01*
X116528443Y-100941519D01*
G37*
M02*
