M48
; DRILL file {KiCad 5.1.2-f72e74a~84~ubuntu18.04.1} date Mo 23 Sep 2019 02:40:20 CEST
; FORMAT={-:-/ absolute / inch / decimal}
; #@! TF.CreationDate,2019-09-23T02:40:20+02:00
; #@! TF.GenerationSoftware,Kicad,Pcbnew,5.1.2-f72e74a~84~ubuntu18.04.1
; #@! TF.FileFunction,Plated,1,4,PTH
FMAT,2
INCH
T1C0.0118
T2C0.0157
T3C0.0315
T4C0.0394
%
G90
G05
T1
X5.8401Y-5.0611
X5.9001Y-4.6161
X5.9315Y-4.057
X5.9701Y-5.0511
T2
X3.9597Y-4.3465
X3.96Y-4.74
X3.96Y-4.78
X3.96Y-4.82
X3.96Y-4.86
X3.96Y-4.94
X3.96Y-5.02
X3.96Y-5.06
X3.96Y-5.1
X3.96Y-5.14
X3.96Y-5.18
X3.96Y-5.22
X3.98Y-4.9
X3.98Y-4.98
X4.0Y-4.86
X4.0Y-4.94
X4.02Y-4.9
X4.02Y-4.98
X4.04Y-4.86
X4.04Y-4.94
X4.0984Y-4.4173
X4.14Y-4.74
X4.14Y-4.82
X4.14Y-5.02
X4.14Y-5.1
X4.14Y-5.18
X4.16Y-4.7
X4.16Y-4.78
X4.16Y-5.06
X4.16Y-5.14
X4.16Y-5.22
X4.18Y-4.74
X4.18Y-4.82
X4.18Y-5.02
X4.18Y-5.1
X4.18Y-5.18
X4.185Y-4.0984
X4.2Y-4.7
X4.2Y-4.78
X4.2Y-5.06
X4.2Y-5.14
X4.2Y-5.22
X4.22Y-4.74
X4.22Y-4.82
X4.22Y-5.02
X4.22Y-5.1
X4.22Y-5.18
X4.24Y-4.7
X4.24Y-4.78
X4.24Y-5.06
X4.24Y-5.14
X4.24Y-5.22
X4.26Y-4.82
X4.265Y-4.74
X4.29Y-4.78
X4.3543Y-4.6929
X4.3583Y-4.7559
X4.3583Y-4.811
X4.3661Y-4.8819
X4.374Y-4.7244
X4.378Y-4.7835
X4.3898Y-4.6929
X4.3937Y-4.7559
X4.3937Y-4.815
X4.4016Y-4.0945
X4.4094Y-4.7244
X4.4094Y-5.0591
X4.4134Y-4.7874
X4.4173Y-4.878
X4.4241Y-4.1997
X4.4252Y-4.6929
X4.4291Y-4.7559
X4.4331Y-4.815
X4.4488Y-5.0591
X4.4764Y-4.3031
X4.4882Y-4.2283
X4.4882Y-4.437
X4.4882Y-5.0591
X4.4921Y-4.811
X4.4941Y-4.6929
X4.4941Y-4.752
X4.5039Y-4.1575
X4.5118Y-4.7224
X4.5118Y-4.7815
X4.5276Y-4.6929
X4.5276Y-4.752
X4.5276Y-4.811
X4.5453Y-4.7224
X4.5453Y-4.7815
X4.5591Y-4.9685
X4.561Y-4.6929
X4.561Y-4.752
X4.563Y-4.813
X4.563Y-5.0433
X4.5709Y-4.1575
X4.5965Y-4.9016
X4.6102Y-4.0877
X4.6378Y-4.4724
X4.6737Y-4.4533
X4.6969Y-4.5
X4.7441Y-4.9016
X4.752Y-4.4567
X4.7992Y-4.811
X4.8386Y-4.1299
X4.8386Y-4.8189
X4.8543Y-4.7874
X4.8701Y-4.8189
X4.8858Y-4.7874
X4.8937Y-4.3898
X4.9016Y-4.2815
X4.9055Y-4.3386
X4.9311Y-4.9016
X4.9724Y-4.2126
X5.0394Y-4.252
X5.0394Y-4.3386
X5.0787Y-4.9016
X5.1181Y-4.815
X5.1654Y-4.8189
X5.1811Y-4.7874
X5.2008Y-4.8189
X5.2165Y-4.7874
X5.2638Y-4.9094
X5.3976Y-4.2913
X5.4026Y-4.249
X5.4081Y-4.9213
X5.4134Y-4.1772
X5.4331Y-4.8346
X5.4724Y-4.4724
X5.4961Y-4.8189
X5.5157Y-4.7874
X5.5315Y-4.8189
X5.5512Y-4.7874
X5.7551Y-4.9511
X5.7601Y-5.0511
X5.7951Y-5.2211
X5.8465Y-4.7008
X5.8801Y-5.2511
X5.8976Y-4.7523
X5.9301Y-5.2511
X5.9851Y-5.2511
T3
X4.01Y-4.03
X4.01Y-4.13
X4.01Y-4.23
X4.11Y-4.08
X4.11Y-4.18
X4.11Y-4.28
X5.8476Y-4.2793
X5.8476Y-4.3793
X5.9476Y-4.3293
X5.9476Y-4.4293
T4
X4.2834Y-4.0093
X4.3834Y-4.0093
X4.4834Y-4.0093
X4.5834Y-4.0093
X4.6834Y-4.0093
X4.7834Y-4.0093
X4.8834Y-4.0093
X4.9834Y-4.0093
X5.0834Y-4.0093
X5.1834Y-4.0093
X5.2834Y-4.0093
X5.3834Y-4.0093
X5.4834Y-4.0093
X5.5834Y-4.0093
X4.2834Y-4.6077
X4.3834Y-4.6077
X4.4834Y-4.6077
X4.5834Y-4.6077
X4.6834Y-4.6077
X4.7834Y-4.6077
X4.8834Y-4.6077
X4.9834Y-4.6077
X5.0834Y-4.6077
X5.1834Y-4.6077
X5.2834Y-4.6077
X5.3834Y-4.6077
X5.4834Y-4.6077
X5.5834Y-4.6077
X4.874Y-5.2008
X4.974Y-5.2008
X5.074Y-5.2008
X5.174Y-5.2008
X5.274Y-5.2008
X5.374Y-5.2008
X5.474Y-5.2008
X5.574Y-5.2008
X5.5866Y-4.252
X5.5866Y-4.352
X5.6866Y-4.252
X5.6866Y-4.352
T0
M30
