G04 #@! TF.GenerationSoftware,KiCad,Pcbnew,5.1.2-f72e74a~84~ubuntu18.04.1*
G04 #@! TF.CreationDate,2019-09-23T02:40:17+02:00*
G04 #@! TF.ProjectId,board,626f6172-642e-46b6-9963-61645f706362,rev?*
G04 #@! TF.SameCoordinates,Original*
G04 #@! TF.FileFunction,Soldermask,Top*
G04 #@! TF.FilePolarity,Negative*
%FSLAX46Y46*%
G04 Gerber Fmt 4.6, Leading zero omitted, Abs format (unit mm)*
G04 Created by KiCad (PCBNEW 5.1.2-f72e74a~84~ubuntu18.04.1) date 2019-09-23 02:40:17*
%MOMM*%
%LPD*%
G04 APERTURE LIST*
%ADD10C,0.100000*%
G04 APERTURE END LIST*
D10*
G36*
X107191000Y-133543000D02*
G01*
X105089000Y-133543000D01*
X105089000Y-127441000D01*
X107191000Y-127441000D01*
X107191000Y-133543000D01*
X107191000Y-133543000D01*
G37*
G36*
X103191000Y-133543000D02*
G01*
X101089000Y-133543000D01*
X101089000Y-127441000D01*
X103191000Y-127441000D01*
X103191000Y-133543000D01*
X103191000Y-133543000D01*
G37*
G36*
X121089499Y-132478445D02*
G01*
X121126995Y-132489820D01*
X121161554Y-132508292D01*
X121191847Y-132533153D01*
X121216708Y-132563446D01*
X121235180Y-132598005D01*
X121246555Y-132635501D01*
X121251000Y-132680638D01*
X121251000Y-133319362D01*
X121246555Y-133364499D01*
X121235180Y-133401995D01*
X121216708Y-133436554D01*
X121191847Y-133466847D01*
X121161554Y-133491708D01*
X121126995Y-133510180D01*
X121089499Y-133521555D01*
X121044362Y-133526000D01*
X120305638Y-133526000D01*
X120260501Y-133521555D01*
X120223005Y-133510180D01*
X120188446Y-133491708D01*
X120158153Y-133466847D01*
X120133292Y-133436554D01*
X120114820Y-133401995D01*
X120103445Y-133364499D01*
X120099000Y-133319362D01*
X120099000Y-132680638D01*
X120103445Y-132635501D01*
X120114820Y-132598005D01*
X120133292Y-132563446D01*
X120158153Y-132533153D01*
X120188446Y-132508292D01*
X120223005Y-132489820D01*
X120260501Y-132478445D01*
X120305638Y-132474000D01*
X121044362Y-132474000D01*
X121089499Y-132478445D01*
X121089499Y-132478445D01*
G37*
G36*
X119339499Y-132478445D02*
G01*
X119376995Y-132489820D01*
X119411554Y-132508292D01*
X119441847Y-132533153D01*
X119466708Y-132563446D01*
X119485180Y-132598005D01*
X119496555Y-132635501D01*
X119501000Y-132680638D01*
X119501000Y-133319362D01*
X119496555Y-133364499D01*
X119485180Y-133401995D01*
X119466708Y-133436554D01*
X119441847Y-133466847D01*
X119411554Y-133491708D01*
X119376995Y-133510180D01*
X119339499Y-133521555D01*
X119294362Y-133526000D01*
X118555638Y-133526000D01*
X118510501Y-133521555D01*
X118473005Y-133510180D01*
X118438446Y-133491708D01*
X118408153Y-133466847D01*
X118383292Y-133436554D01*
X118364820Y-133401995D01*
X118353445Y-133364499D01*
X118349000Y-133319362D01*
X118349000Y-132680638D01*
X118353445Y-132635501D01*
X118364820Y-132598005D01*
X118383292Y-132563446D01*
X118408153Y-132533153D01*
X118438446Y-132508292D01*
X118473005Y-132489820D01*
X118510501Y-132478445D01*
X118555638Y-132474000D01*
X119294362Y-132474000D01*
X119339499Y-132478445D01*
X119339499Y-132478445D01*
G37*
G36*
X139150443Y-131205519D02*
G01*
X139216627Y-131212037D01*
X139386466Y-131263557D01*
X139542991Y-131347222D01*
X139578729Y-131376552D01*
X139680186Y-131459814D01*
X139763448Y-131561271D01*
X139792778Y-131597009D01*
X139876443Y-131753534D01*
X139927963Y-131923373D01*
X139945359Y-132100000D01*
X139927963Y-132276627D01*
X139876443Y-132446466D01*
X139792778Y-132602991D01*
X139763448Y-132638729D01*
X139680186Y-132740186D01*
X139578729Y-132823448D01*
X139542991Y-132852778D01*
X139386466Y-132936443D01*
X139216627Y-132987963D01*
X139150443Y-132994481D01*
X139084260Y-133001000D01*
X138995740Y-133001000D01*
X138929557Y-132994481D01*
X138863373Y-132987963D01*
X138693534Y-132936443D01*
X138537009Y-132852778D01*
X138501271Y-132823448D01*
X138399814Y-132740186D01*
X138316552Y-132638729D01*
X138287222Y-132602991D01*
X138203557Y-132446466D01*
X138152037Y-132276627D01*
X138134641Y-132100000D01*
X138152037Y-131923373D01*
X138203557Y-131753534D01*
X138287222Y-131597009D01*
X138316552Y-131561271D01*
X138399814Y-131459814D01*
X138501271Y-131376552D01*
X138537009Y-131347222D01*
X138693534Y-131263557D01*
X138863373Y-131212037D01*
X138929557Y-131205519D01*
X138995740Y-131199000D01*
X139084260Y-131199000D01*
X139150443Y-131205519D01*
X139150443Y-131205519D01*
G37*
G36*
X141690443Y-131205519D02*
G01*
X141756627Y-131212037D01*
X141926466Y-131263557D01*
X142082991Y-131347222D01*
X142118729Y-131376552D01*
X142220186Y-131459814D01*
X142303448Y-131561271D01*
X142332778Y-131597009D01*
X142416443Y-131753534D01*
X142467963Y-131923373D01*
X142485359Y-132100000D01*
X142467963Y-132276627D01*
X142416443Y-132446466D01*
X142332778Y-132602991D01*
X142303448Y-132638729D01*
X142220186Y-132740186D01*
X142118729Y-132823448D01*
X142082991Y-132852778D01*
X141926466Y-132936443D01*
X141756627Y-132987963D01*
X141690443Y-132994481D01*
X141624260Y-133001000D01*
X141535740Y-133001000D01*
X141469557Y-132994481D01*
X141403373Y-132987963D01*
X141233534Y-132936443D01*
X141077009Y-132852778D01*
X141041271Y-132823448D01*
X140939814Y-132740186D01*
X140856552Y-132638729D01*
X140827222Y-132602991D01*
X140743557Y-132446466D01*
X140692037Y-132276627D01*
X140674641Y-132100000D01*
X140692037Y-131923373D01*
X140743557Y-131753534D01*
X140827222Y-131597009D01*
X140856552Y-131561271D01*
X140939814Y-131459814D01*
X141041271Y-131376552D01*
X141077009Y-131347222D01*
X141233534Y-131263557D01*
X141403373Y-131212037D01*
X141469557Y-131205519D01*
X141535740Y-131199000D01*
X141624260Y-131199000D01*
X141690443Y-131205519D01*
X141690443Y-131205519D01*
G37*
G36*
X136610443Y-131205519D02*
G01*
X136676627Y-131212037D01*
X136846466Y-131263557D01*
X137002991Y-131347222D01*
X137038729Y-131376552D01*
X137140186Y-131459814D01*
X137223448Y-131561271D01*
X137252778Y-131597009D01*
X137336443Y-131753534D01*
X137387963Y-131923373D01*
X137405359Y-132100000D01*
X137387963Y-132276627D01*
X137336443Y-132446466D01*
X137252778Y-132602991D01*
X137223448Y-132638729D01*
X137140186Y-132740186D01*
X137038729Y-132823448D01*
X137002991Y-132852778D01*
X136846466Y-132936443D01*
X136676627Y-132987963D01*
X136610443Y-132994481D01*
X136544260Y-133001000D01*
X136455740Y-133001000D01*
X136389557Y-132994481D01*
X136323373Y-132987963D01*
X136153534Y-132936443D01*
X135997009Y-132852778D01*
X135961271Y-132823448D01*
X135859814Y-132740186D01*
X135776552Y-132638729D01*
X135747222Y-132602991D01*
X135663557Y-132446466D01*
X135612037Y-132276627D01*
X135594641Y-132100000D01*
X135612037Y-131923373D01*
X135663557Y-131753534D01*
X135747222Y-131597009D01*
X135776552Y-131561271D01*
X135859814Y-131459814D01*
X135961271Y-131376552D01*
X135997009Y-131347222D01*
X136153534Y-131263557D01*
X136323373Y-131212037D01*
X136389557Y-131205519D01*
X136455740Y-131199000D01*
X136544260Y-131199000D01*
X136610443Y-131205519D01*
X136610443Y-131205519D01*
G37*
G36*
X134070443Y-131205519D02*
G01*
X134136627Y-131212037D01*
X134306466Y-131263557D01*
X134462991Y-131347222D01*
X134498729Y-131376552D01*
X134600186Y-131459814D01*
X134683448Y-131561271D01*
X134712778Y-131597009D01*
X134796443Y-131753534D01*
X134847963Y-131923373D01*
X134865359Y-132100000D01*
X134847963Y-132276627D01*
X134796443Y-132446466D01*
X134712778Y-132602991D01*
X134683448Y-132638729D01*
X134600186Y-132740186D01*
X134498729Y-132823448D01*
X134462991Y-132852778D01*
X134306466Y-132936443D01*
X134136627Y-132987963D01*
X134070443Y-132994481D01*
X134004260Y-133001000D01*
X133915740Y-133001000D01*
X133849557Y-132994481D01*
X133783373Y-132987963D01*
X133613534Y-132936443D01*
X133457009Y-132852778D01*
X133421271Y-132823448D01*
X133319814Y-132740186D01*
X133236552Y-132638729D01*
X133207222Y-132602991D01*
X133123557Y-132446466D01*
X133072037Y-132276627D01*
X133054641Y-132100000D01*
X133072037Y-131923373D01*
X133123557Y-131753534D01*
X133207222Y-131597009D01*
X133236552Y-131561271D01*
X133319814Y-131459814D01*
X133421271Y-131376552D01*
X133457009Y-131347222D01*
X133613534Y-131263557D01*
X133783373Y-131212037D01*
X133849557Y-131205519D01*
X133915740Y-131199000D01*
X134004260Y-131199000D01*
X134070443Y-131205519D01*
X134070443Y-131205519D01*
G37*
G36*
X131530443Y-131205519D02*
G01*
X131596627Y-131212037D01*
X131766466Y-131263557D01*
X131922991Y-131347222D01*
X131958729Y-131376552D01*
X132060186Y-131459814D01*
X132143448Y-131561271D01*
X132172778Y-131597009D01*
X132256443Y-131753534D01*
X132307963Y-131923373D01*
X132325359Y-132100000D01*
X132307963Y-132276627D01*
X132256443Y-132446466D01*
X132172778Y-132602991D01*
X132143448Y-132638729D01*
X132060186Y-132740186D01*
X131958729Y-132823448D01*
X131922991Y-132852778D01*
X131766466Y-132936443D01*
X131596627Y-132987963D01*
X131530443Y-132994481D01*
X131464260Y-133001000D01*
X131375740Y-133001000D01*
X131309557Y-132994481D01*
X131243373Y-132987963D01*
X131073534Y-132936443D01*
X130917009Y-132852778D01*
X130881271Y-132823448D01*
X130779814Y-132740186D01*
X130696552Y-132638729D01*
X130667222Y-132602991D01*
X130583557Y-132446466D01*
X130532037Y-132276627D01*
X130514641Y-132100000D01*
X130532037Y-131923373D01*
X130583557Y-131753534D01*
X130667222Y-131597009D01*
X130696552Y-131561271D01*
X130779814Y-131459814D01*
X130881271Y-131376552D01*
X130917009Y-131347222D01*
X131073534Y-131263557D01*
X131243373Y-131212037D01*
X131309557Y-131205519D01*
X131375740Y-131199000D01*
X131464260Y-131199000D01*
X131530443Y-131205519D01*
X131530443Y-131205519D01*
G37*
G36*
X128990443Y-131205519D02*
G01*
X129056627Y-131212037D01*
X129226466Y-131263557D01*
X129382991Y-131347222D01*
X129418729Y-131376552D01*
X129520186Y-131459814D01*
X129603448Y-131561271D01*
X129632778Y-131597009D01*
X129716443Y-131753534D01*
X129767963Y-131923373D01*
X129785359Y-132100000D01*
X129767963Y-132276627D01*
X129716443Y-132446466D01*
X129632778Y-132602991D01*
X129603448Y-132638729D01*
X129520186Y-132740186D01*
X129418729Y-132823448D01*
X129382991Y-132852778D01*
X129226466Y-132936443D01*
X129056627Y-132987963D01*
X128990443Y-132994481D01*
X128924260Y-133001000D01*
X128835740Y-133001000D01*
X128769557Y-132994481D01*
X128703373Y-132987963D01*
X128533534Y-132936443D01*
X128377009Y-132852778D01*
X128341271Y-132823448D01*
X128239814Y-132740186D01*
X128156552Y-132638729D01*
X128127222Y-132602991D01*
X128043557Y-132446466D01*
X127992037Y-132276627D01*
X127974641Y-132100000D01*
X127992037Y-131923373D01*
X128043557Y-131753534D01*
X128127222Y-131597009D01*
X128156552Y-131561271D01*
X128239814Y-131459814D01*
X128341271Y-131376552D01*
X128377009Y-131347222D01*
X128533534Y-131263557D01*
X128703373Y-131212037D01*
X128769557Y-131205519D01*
X128835740Y-131199000D01*
X128924260Y-131199000D01*
X128990443Y-131205519D01*
X128990443Y-131205519D01*
G37*
G36*
X126450443Y-131205519D02*
G01*
X126516627Y-131212037D01*
X126686466Y-131263557D01*
X126842991Y-131347222D01*
X126878729Y-131376552D01*
X126980186Y-131459814D01*
X127063448Y-131561271D01*
X127092778Y-131597009D01*
X127176443Y-131753534D01*
X127227963Y-131923373D01*
X127245359Y-132100000D01*
X127227963Y-132276627D01*
X127176443Y-132446466D01*
X127092778Y-132602991D01*
X127063448Y-132638729D01*
X126980186Y-132740186D01*
X126878729Y-132823448D01*
X126842991Y-132852778D01*
X126686466Y-132936443D01*
X126516627Y-132987963D01*
X126450443Y-132994481D01*
X126384260Y-133001000D01*
X126295740Y-133001000D01*
X126229557Y-132994481D01*
X126163373Y-132987963D01*
X125993534Y-132936443D01*
X125837009Y-132852778D01*
X125801271Y-132823448D01*
X125699814Y-132740186D01*
X125616552Y-132638729D01*
X125587222Y-132602991D01*
X125503557Y-132446466D01*
X125452037Y-132276627D01*
X125434641Y-132100000D01*
X125452037Y-131923373D01*
X125503557Y-131753534D01*
X125587222Y-131597009D01*
X125616552Y-131561271D01*
X125699814Y-131459814D01*
X125801271Y-131376552D01*
X125837009Y-131347222D01*
X125993534Y-131263557D01*
X126163373Y-131212037D01*
X126229557Y-131205519D01*
X126295740Y-131199000D01*
X126384260Y-131199000D01*
X126450443Y-131205519D01*
X126450443Y-131205519D01*
G37*
G36*
X124701000Y-133001000D02*
G01*
X122899000Y-133001000D01*
X122899000Y-131199000D01*
X124701000Y-131199000D01*
X124701000Y-133001000D01*
X124701000Y-133001000D01*
G37*
G36*
X120641938Y-131031716D02*
G01*
X120662557Y-131037971D01*
X120681553Y-131048124D01*
X120698208Y-131061792D01*
X120711876Y-131078447D01*
X120722029Y-131097443D01*
X120728284Y-131118062D01*
X120731000Y-131145640D01*
X120731000Y-131654360D01*
X120728284Y-131681938D01*
X120722029Y-131702557D01*
X120711876Y-131721553D01*
X120698208Y-131738208D01*
X120681553Y-131751876D01*
X120662557Y-131762029D01*
X120641938Y-131768284D01*
X120614360Y-131771000D01*
X120155640Y-131771000D01*
X120128062Y-131768284D01*
X120107443Y-131762029D01*
X120088447Y-131751876D01*
X120071792Y-131738208D01*
X120058124Y-131721553D01*
X120047971Y-131702557D01*
X120041716Y-131681938D01*
X120039000Y-131654360D01*
X120039000Y-131145640D01*
X120041716Y-131118062D01*
X120047971Y-131097443D01*
X120058124Y-131078447D01*
X120071792Y-131061792D01*
X120088447Y-131048124D01*
X120107443Y-131037971D01*
X120128062Y-131031716D01*
X120155640Y-131029000D01*
X120614360Y-131029000D01*
X120641938Y-131031716D01*
X120641938Y-131031716D01*
G37*
G36*
X119671938Y-131031716D02*
G01*
X119692557Y-131037971D01*
X119711553Y-131048124D01*
X119728208Y-131061792D01*
X119741876Y-131078447D01*
X119752029Y-131097443D01*
X119758284Y-131118062D01*
X119761000Y-131145640D01*
X119761000Y-131654360D01*
X119758284Y-131681938D01*
X119752029Y-131702557D01*
X119741876Y-131721553D01*
X119728208Y-131738208D01*
X119711553Y-131751876D01*
X119692557Y-131762029D01*
X119671938Y-131768284D01*
X119644360Y-131771000D01*
X119185640Y-131771000D01*
X119158062Y-131768284D01*
X119137443Y-131762029D01*
X119118447Y-131751876D01*
X119101792Y-131738208D01*
X119088124Y-131721553D01*
X119077971Y-131702557D01*
X119071716Y-131681938D01*
X119069000Y-131654360D01*
X119069000Y-131145640D01*
X119071716Y-131118062D01*
X119077971Y-131097443D01*
X119088124Y-131078447D01*
X119101792Y-131061792D01*
X119118447Y-131048124D01*
X119137443Y-131037971D01*
X119158062Y-131031716D01*
X119185640Y-131029000D01*
X119644360Y-131029000D01*
X119671938Y-131031716D01*
X119671938Y-131031716D01*
G37*
G36*
X147918000Y-131662000D02*
G01*
X144768000Y-131662000D01*
X144768000Y-130012000D01*
X147918000Y-130012000D01*
X147918000Y-131662000D01*
X147918000Y-131662000D01*
G37*
G36*
X117655997Y-129453051D02*
G01*
X117689652Y-129463261D01*
X117720665Y-129479838D01*
X117747851Y-129502149D01*
X117770162Y-129529335D01*
X117786739Y-129560348D01*
X117796949Y-129594003D01*
X117801000Y-129635138D01*
X117801000Y-130964862D01*
X117796949Y-131005997D01*
X117786739Y-131039652D01*
X117770162Y-131070665D01*
X117747851Y-131097851D01*
X117720665Y-131120162D01*
X117689652Y-131136739D01*
X117655997Y-131146949D01*
X117614862Y-131151000D01*
X114385138Y-131151000D01*
X114344003Y-131146949D01*
X114310348Y-131136739D01*
X114279335Y-131120162D01*
X114252149Y-131097851D01*
X114229838Y-131070665D01*
X114213261Y-131039652D01*
X114203051Y-131005997D01*
X114199000Y-130964862D01*
X114199000Y-129635138D01*
X114203051Y-129594003D01*
X114213261Y-129560348D01*
X114229838Y-129529335D01*
X114252149Y-129502149D01*
X114279335Y-129479838D01*
X114310348Y-129463261D01*
X114344003Y-129453051D01*
X114385138Y-129449000D01*
X117614862Y-129449000D01*
X117655997Y-129453051D01*
X117655997Y-129453051D01*
G37*
G36*
X112255997Y-129453051D02*
G01*
X112289652Y-129463261D01*
X112320665Y-129479838D01*
X112347851Y-129502149D01*
X112370162Y-129529335D01*
X112386739Y-129560348D01*
X112396949Y-129594003D01*
X112401000Y-129635138D01*
X112401000Y-130964862D01*
X112396949Y-131005997D01*
X112386739Y-131039652D01*
X112370162Y-131070665D01*
X112347851Y-131097851D01*
X112320665Y-131120162D01*
X112289652Y-131136739D01*
X112255997Y-131146949D01*
X112214862Y-131151000D01*
X108985138Y-131151000D01*
X108944003Y-131146949D01*
X108910348Y-131136739D01*
X108879335Y-131120162D01*
X108852149Y-131097851D01*
X108829838Y-131070665D01*
X108813261Y-131039652D01*
X108803051Y-131005997D01*
X108799000Y-130964862D01*
X108799000Y-129635138D01*
X108803051Y-129594003D01*
X108813261Y-129560348D01*
X108829838Y-129529335D01*
X108852149Y-129502149D01*
X108879335Y-129479838D01*
X108910348Y-129463261D01*
X108944003Y-129453051D01*
X108985138Y-129449000D01*
X112214862Y-129449000D01*
X112255997Y-129453051D01*
X112255997Y-129453051D01*
G37*
G36*
X152418000Y-130392000D02*
G01*
X149268000Y-130392000D01*
X149268000Y-128742000D01*
X152418000Y-128742000D01*
X152418000Y-130392000D01*
X152418000Y-130392000D01*
G37*
G36*
X147918000Y-129122000D02*
G01*
X144768000Y-129122000D01*
X144768000Y-127472000D01*
X147918000Y-127472000D01*
X147918000Y-129122000D01*
X147918000Y-129122000D01*
G37*
G36*
X152418000Y-127852000D02*
G01*
X149268000Y-127852000D01*
X149268000Y-126202000D01*
X152418000Y-126202000D01*
X152418000Y-127852000D01*
X152418000Y-127852000D01*
G37*
G36*
X124276000Y-126278048D02*
G01*
X124273402Y-126286613D01*
X124271000Y-126310999D01*
X124271000Y-126606000D01*
X121729000Y-126606000D01*
X121729000Y-126310999D01*
X121726598Y-126286613D01*
X121724000Y-126278048D01*
X121724000Y-124184000D01*
X124276000Y-124184000D01*
X124276000Y-126278048D01*
X124276000Y-126278048D01*
G37*
G36*
X132776000Y-126278048D02*
G01*
X132773402Y-126286613D01*
X132771000Y-126310999D01*
X132771000Y-126606000D01*
X130229000Y-126606000D01*
X130229000Y-126310999D01*
X130226598Y-126286613D01*
X130224000Y-126278048D01*
X130224000Y-124184000D01*
X132776000Y-124184000D01*
X132776000Y-126278048D01*
X132776000Y-126278048D01*
G37*
G36*
X140976000Y-126278048D02*
G01*
X140973402Y-126286613D01*
X140971000Y-126310999D01*
X140971000Y-126606000D01*
X138429000Y-126606000D01*
X138429000Y-126310999D01*
X138426598Y-126286613D01*
X138424000Y-126278048D01*
X138424000Y-124184000D01*
X140976000Y-124184000D01*
X140976000Y-126278048D01*
X140976000Y-126278048D01*
G37*
G36*
X147918000Y-126582000D02*
G01*
X144768000Y-126582000D01*
X144768000Y-124932000D01*
X147918000Y-124932000D01*
X147918000Y-126582000D01*
X147918000Y-126582000D01*
G37*
G36*
X111029591Y-124778085D02*
G01*
X111063569Y-124788393D01*
X111094890Y-124805134D01*
X111122339Y-124827661D01*
X111144866Y-124855110D01*
X111161607Y-124886431D01*
X111171915Y-124920409D01*
X111176000Y-124961890D01*
X111176000Y-125638110D01*
X111171915Y-125679591D01*
X111161607Y-125713569D01*
X111144866Y-125744890D01*
X111122339Y-125772339D01*
X111094890Y-125794866D01*
X111063569Y-125811607D01*
X111029591Y-125821915D01*
X110988110Y-125826000D01*
X110386890Y-125826000D01*
X110345409Y-125821915D01*
X110311431Y-125811607D01*
X110280110Y-125794866D01*
X110252661Y-125772339D01*
X110230134Y-125744890D01*
X110213393Y-125713569D01*
X110203085Y-125679591D01*
X110199000Y-125638110D01*
X110199000Y-124961890D01*
X110203085Y-124920409D01*
X110213393Y-124886431D01*
X110230134Y-124855110D01*
X110252661Y-124827661D01*
X110280110Y-124805134D01*
X110311431Y-124788393D01*
X110345409Y-124778085D01*
X110386890Y-124774000D01*
X110988110Y-124774000D01*
X111029591Y-124778085D01*
X111029591Y-124778085D01*
G37*
G36*
X109454591Y-124778085D02*
G01*
X109488569Y-124788393D01*
X109519890Y-124805134D01*
X109547339Y-124827661D01*
X109569866Y-124855110D01*
X109586607Y-124886431D01*
X109596915Y-124920409D01*
X109601000Y-124961890D01*
X109601000Y-125638110D01*
X109596915Y-125679591D01*
X109586607Y-125713569D01*
X109569866Y-125744890D01*
X109547339Y-125772339D01*
X109519890Y-125794866D01*
X109488569Y-125811607D01*
X109454591Y-125821915D01*
X109413110Y-125826000D01*
X108811890Y-125826000D01*
X108770409Y-125821915D01*
X108736431Y-125811607D01*
X108705110Y-125794866D01*
X108677661Y-125772339D01*
X108655134Y-125744890D01*
X108638393Y-125713569D01*
X108628085Y-125679591D01*
X108624000Y-125638110D01*
X108624000Y-124961890D01*
X108628085Y-124920409D01*
X108638393Y-124886431D01*
X108655134Y-124855110D01*
X108677661Y-124827661D01*
X108705110Y-124805134D01*
X108736431Y-124788393D01*
X108770409Y-124778085D01*
X108811890Y-124774000D01*
X109413110Y-124774000D01*
X109454591Y-124778085D01*
X109454591Y-124778085D01*
G37*
G36*
X152418000Y-125312000D02*
G01*
X149268000Y-125312000D01*
X149268000Y-123662000D01*
X152418000Y-123662000D01*
X152418000Y-125312000D01*
X152418000Y-125312000D01*
G37*
G36*
X136716000Y-125056000D02*
G01*
X134174000Y-125056000D01*
X134174000Y-124324000D01*
X136716000Y-124324000D01*
X136716000Y-125056000D01*
X136716000Y-125056000D01*
G37*
G36*
X120021000Y-125056000D02*
G01*
X117479000Y-125056000D01*
X117479000Y-124324000D01*
X120021000Y-124324000D01*
X120021000Y-125056000D01*
X120021000Y-125056000D01*
G37*
G36*
X128521000Y-125056000D02*
G01*
X125979000Y-125056000D01*
X125979000Y-124324000D01*
X128521000Y-124324000D01*
X128521000Y-125056000D01*
X128521000Y-125056000D01*
G37*
G36*
X113084468Y-123153565D02*
G01*
X113123138Y-123165296D01*
X113158777Y-123184346D01*
X113190017Y-123209983D01*
X113215654Y-123241223D01*
X113234704Y-123276862D01*
X113246435Y-123315532D01*
X113251000Y-123361888D01*
X113251000Y-124013112D01*
X113246435Y-124059468D01*
X113234704Y-124098138D01*
X113215654Y-124133777D01*
X113190017Y-124165017D01*
X113158777Y-124190654D01*
X113123138Y-124209704D01*
X113084468Y-124221435D01*
X113038112Y-124226000D01*
X111961888Y-124226000D01*
X111915532Y-124221435D01*
X111876862Y-124209704D01*
X111841223Y-124190654D01*
X111809983Y-124165017D01*
X111784346Y-124133777D01*
X111765296Y-124098138D01*
X111753565Y-124059468D01*
X111749000Y-124013112D01*
X111749000Y-123361888D01*
X111753565Y-123315532D01*
X111765296Y-123276862D01*
X111784346Y-123241223D01*
X111809983Y-123209983D01*
X111841223Y-123184346D01*
X111876862Y-123165296D01*
X111915532Y-123153565D01*
X111961888Y-123149000D01*
X113038112Y-123149000D01*
X113084468Y-123153565D01*
X113084468Y-123153565D01*
G37*
G36*
X111084468Y-123153565D02*
G01*
X111123138Y-123165296D01*
X111158777Y-123184346D01*
X111190017Y-123209983D01*
X111215654Y-123241223D01*
X111234704Y-123276862D01*
X111246435Y-123315532D01*
X111251000Y-123361888D01*
X111251000Y-124013112D01*
X111246435Y-124059468D01*
X111234704Y-124098138D01*
X111215654Y-124133777D01*
X111190017Y-124165017D01*
X111158777Y-124190654D01*
X111123138Y-124209704D01*
X111084468Y-124221435D01*
X111038112Y-124226000D01*
X109961888Y-124226000D01*
X109915532Y-124221435D01*
X109876862Y-124209704D01*
X109841223Y-124190654D01*
X109809983Y-124165017D01*
X109784346Y-124133777D01*
X109765296Y-124098138D01*
X109753565Y-124059468D01*
X109749000Y-124013112D01*
X109749000Y-123361888D01*
X109753565Y-123315532D01*
X109765296Y-123276862D01*
X109784346Y-123241223D01*
X109809983Y-123209983D01*
X109841223Y-123184346D01*
X109876862Y-123165296D01*
X109915532Y-123153565D01*
X109961888Y-123149000D01*
X111038112Y-123149000D01*
X111084468Y-123153565D01*
X111084468Y-123153565D01*
G37*
G36*
X147918000Y-124042000D02*
G01*
X144768000Y-124042000D01*
X144768000Y-122392000D01*
X147918000Y-122392000D01*
X147918000Y-124042000D01*
X147918000Y-124042000D01*
G37*
G36*
X136716000Y-121739001D02*
G01*
X136718402Y-121763387D01*
X136721000Y-121771952D01*
X136721000Y-123866000D01*
X134169000Y-123866000D01*
X134169000Y-121771952D01*
X134171598Y-121763387D01*
X134174000Y-121739001D01*
X134174000Y-121444000D01*
X136716000Y-121444000D01*
X136716000Y-121739001D01*
X136716000Y-121739001D01*
G37*
G36*
X120021000Y-121739001D02*
G01*
X120023402Y-121763387D01*
X120026000Y-121771952D01*
X120026000Y-123866000D01*
X117474000Y-123866000D01*
X117474000Y-121771952D01*
X117476598Y-121763387D01*
X117479000Y-121739001D01*
X117479000Y-121444000D01*
X120021000Y-121444000D01*
X120021000Y-121739001D01*
X120021000Y-121739001D01*
G37*
G36*
X128521000Y-121739001D02*
G01*
X128523402Y-121763387D01*
X128526000Y-121771952D01*
X128526000Y-123866000D01*
X125974000Y-123866000D01*
X125974000Y-121771952D01*
X125976598Y-121763387D01*
X125979000Y-121739001D01*
X125979000Y-121444000D01*
X128521000Y-121444000D01*
X128521000Y-121739001D01*
X128521000Y-121739001D01*
G37*
G36*
X132771000Y-123726000D02*
G01*
X130229000Y-123726000D01*
X130229000Y-122994000D01*
X132771000Y-122994000D01*
X132771000Y-123726000D01*
X132771000Y-123726000D01*
G37*
G36*
X140971000Y-123726000D02*
G01*
X138429000Y-123726000D01*
X138429000Y-122994000D01*
X140971000Y-122994000D01*
X140971000Y-123726000D01*
X140971000Y-123726000D01*
G37*
G36*
X124271000Y-123726000D02*
G01*
X121729000Y-123726000D01*
X121729000Y-122994000D01*
X124271000Y-122994000D01*
X124271000Y-123726000D01*
X124271000Y-123726000D01*
G37*
G36*
X107191000Y-123043000D02*
G01*
X105089000Y-123043000D01*
X105089000Y-119441000D01*
X107191000Y-119441000D01*
X107191000Y-123043000D01*
X107191000Y-123043000D01*
G37*
G36*
X103191000Y-123043000D02*
G01*
X101089000Y-123043000D01*
X101089000Y-119441000D01*
X103191000Y-119441000D01*
X103191000Y-123043000D01*
X103191000Y-123043000D01*
G37*
G36*
X152418000Y-122772000D02*
G01*
X149268000Y-122772000D01*
X149268000Y-121122000D01*
X152418000Y-121122000D01*
X152418000Y-122772000D01*
X152418000Y-122772000D01*
G37*
G36*
X111084468Y-121278565D02*
G01*
X111123138Y-121290296D01*
X111158777Y-121309346D01*
X111190017Y-121334983D01*
X111215654Y-121366223D01*
X111234704Y-121401862D01*
X111246435Y-121440532D01*
X111251000Y-121486888D01*
X111251000Y-122138112D01*
X111246435Y-122184468D01*
X111234704Y-122223138D01*
X111215654Y-122258777D01*
X111190017Y-122290017D01*
X111158777Y-122315654D01*
X111123138Y-122334704D01*
X111084468Y-122346435D01*
X111038112Y-122351000D01*
X109961888Y-122351000D01*
X109915532Y-122346435D01*
X109876862Y-122334704D01*
X109841223Y-122315654D01*
X109809983Y-122290017D01*
X109784346Y-122258777D01*
X109765296Y-122223138D01*
X109753565Y-122184468D01*
X109749000Y-122138112D01*
X109749000Y-121486888D01*
X109753565Y-121440532D01*
X109765296Y-121401862D01*
X109784346Y-121366223D01*
X109809983Y-121334983D01*
X109841223Y-121309346D01*
X109876862Y-121290296D01*
X109915532Y-121278565D01*
X109961888Y-121274000D01*
X111038112Y-121274000D01*
X111084468Y-121278565D01*
X111084468Y-121278565D01*
G37*
G36*
X113084468Y-121278565D02*
G01*
X113123138Y-121290296D01*
X113158777Y-121309346D01*
X113190017Y-121334983D01*
X113215654Y-121366223D01*
X113234704Y-121401862D01*
X113246435Y-121440532D01*
X113251000Y-121486888D01*
X113251000Y-122138112D01*
X113246435Y-122184468D01*
X113234704Y-122223138D01*
X113215654Y-122258777D01*
X113190017Y-122290017D01*
X113158777Y-122315654D01*
X113123138Y-122334704D01*
X113084468Y-122346435D01*
X113038112Y-122351000D01*
X111961888Y-122351000D01*
X111915532Y-122346435D01*
X111876862Y-122334704D01*
X111841223Y-122315654D01*
X111809983Y-122290017D01*
X111784346Y-122258777D01*
X111765296Y-122223138D01*
X111753565Y-122184468D01*
X111749000Y-122138112D01*
X111749000Y-121486888D01*
X111753565Y-121440532D01*
X111765296Y-121401862D01*
X111784346Y-121366223D01*
X111809983Y-121334983D01*
X111841223Y-121309346D01*
X111876862Y-121290296D01*
X111915532Y-121278565D01*
X111961888Y-121274000D01*
X113038112Y-121274000D01*
X113084468Y-121278565D01*
X113084468Y-121278565D01*
G37*
G36*
X147918000Y-121502000D02*
G01*
X144768000Y-121502000D01*
X144768000Y-119852000D01*
X147918000Y-119852000D01*
X147918000Y-121502000D01*
X147918000Y-121502000D01*
G37*
G36*
X152418000Y-120232000D02*
G01*
X149268000Y-120232000D01*
X149268000Y-118582000D01*
X152418000Y-118582000D01*
X152418000Y-120232000D01*
X152418000Y-120232000D01*
G37*
G36*
X103501000Y-118001000D02*
G01*
X102549000Y-118001000D01*
X102549000Y-116299000D01*
X103501000Y-116299000D01*
X103501000Y-118001000D01*
X103501000Y-118001000D01*
G37*
G36*
X101751000Y-118001000D02*
G01*
X100799000Y-118001000D01*
X100799000Y-116299000D01*
X101751000Y-116299000D01*
X101751000Y-118001000D01*
X101751000Y-118001000D01*
G37*
G36*
X142719000Y-117937000D02*
G01*
X140917000Y-117937000D01*
X140917000Y-116135000D01*
X142719000Y-116135000D01*
X142719000Y-117937000D01*
X142719000Y-117937000D01*
G37*
G36*
X139388442Y-116141518D02*
G01*
X139454627Y-116148037D01*
X139624466Y-116199557D01*
X139780991Y-116283222D01*
X139800216Y-116299000D01*
X139918186Y-116395814D01*
X140001448Y-116497271D01*
X140030778Y-116533009D01*
X140114443Y-116689534D01*
X140165963Y-116859373D01*
X140183359Y-117036000D01*
X140165963Y-117212627D01*
X140114443Y-117382466D01*
X140030778Y-117538991D01*
X140001448Y-117574729D01*
X139918186Y-117676186D01*
X139816729Y-117759448D01*
X139780991Y-117788778D01*
X139624466Y-117872443D01*
X139454627Y-117923963D01*
X139388443Y-117930481D01*
X139322260Y-117937000D01*
X139233740Y-117937000D01*
X139167557Y-117930481D01*
X139101373Y-117923963D01*
X138931534Y-117872443D01*
X138775009Y-117788778D01*
X138739271Y-117759448D01*
X138637814Y-117676186D01*
X138554552Y-117574729D01*
X138525222Y-117538991D01*
X138441557Y-117382466D01*
X138390037Y-117212627D01*
X138372641Y-117036000D01*
X138390037Y-116859373D01*
X138441557Y-116689534D01*
X138525222Y-116533009D01*
X138554552Y-116497271D01*
X138637814Y-116395814D01*
X138755784Y-116299000D01*
X138775009Y-116283222D01*
X138931534Y-116199557D01*
X139101373Y-116148037D01*
X139167558Y-116141518D01*
X139233740Y-116135000D01*
X139322260Y-116135000D01*
X139388442Y-116141518D01*
X139388442Y-116141518D01*
G37*
G36*
X136848442Y-116141518D02*
G01*
X136914627Y-116148037D01*
X137084466Y-116199557D01*
X137240991Y-116283222D01*
X137260216Y-116299000D01*
X137378186Y-116395814D01*
X137461448Y-116497271D01*
X137490778Y-116533009D01*
X137574443Y-116689534D01*
X137625963Y-116859373D01*
X137643359Y-117036000D01*
X137625963Y-117212627D01*
X137574443Y-117382466D01*
X137490778Y-117538991D01*
X137461448Y-117574729D01*
X137378186Y-117676186D01*
X137276729Y-117759448D01*
X137240991Y-117788778D01*
X137084466Y-117872443D01*
X136914627Y-117923963D01*
X136848443Y-117930481D01*
X136782260Y-117937000D01*
X136693740Y-117937000D01*
X136627557Y-117930481D01*
X136561373Y-117923963D01*
X136391534Y-117872443D01*
X136235009Y-117788778D01*
X136199271Y-117759448D01*
X136097814Y-117676186D01*
X136014552Y-117574729D01*
X135985222Y-117538991D01*
X135901557Y-117382466D01*
X135850037Y-117212627D01*
X135832641Y-117036000D01*
X135850037Y-116859373D01*
X135901557Y-116689534D01*
X135985222Y-116533009D01*
X136014552Y-116497271D01*
X136097814Y-116395814D01*
X136215784Y-116299000D01*
X136235009Y-116283222D01*
X136391534Y-116199557D01*
X136561373Y-116148037D01*
X136627558Y-116141518D01*
X136693740Y-116135000D01*
X136782260Y-116135000D01*
X136848442Y-116141518D01*
X136848442Y-116141518D01*
G37*
G36*
X116528442Y-116141518D02*
G01*
X116594627Y-116148037D01*
X116764466Y-116199557D01*
X116920991Y-116283222D01*
X116940216Y-116299000D01*
X117058186Y-116395814D01*
X117141448Y-116497271D01*
X117170778Y-116533009D01*
X117254443Y-116689534D01*
X117305963Y-116859373D01*
X117323359Y-117036000D01*
X117305963Y-117212627D01*
X117254443Y-117382466D01*
X117170778Y-117538991D01*
X117141448Y-117574729D01*
X117058186Y-117676186D01*
X116956729Y-117759448D01*
X116920991Y-117788778D01*
X116764466Y-117872443D01*
X116594627Y-117923963D01*
X116528443Y-117930481D01*
X116462260Y-117937000D01*
X116373740Y-117937000D01*
X116307557Y-117930481D01*
X116241373Y-117923963D01*
X116071534Y-117872443D01*
X115915009Y-117788778D01*
X115879271Y-117759448D01*
X115777814Y-117676186D01*
X115694552Y-117574729D01*
X115665222Y-117538991D01*
X115581557Y-117382466D01*
X115530037Y-117212627D01*
X115512641Y-117036000D01*
X115530037Y-116859373D01*
X115581557Y-116689534D01*
X115665222Y-116533009D01*
X115694552Y-116497271D01*
X115777814Y-116395814D01*
X115895784Y-116299000D01*
X115915009Y-116283222D01*
X116071534Y-116199557D01*
X116241373Y-116148037D01*
X116307558Y-116141518D01*
X116373740Y-116135000D01*
X116462260Y-116135000D01*
X116528442Y-116141518D01*
X116528442Y-116141518D01*
G37*
G36*
X134308442Y-116141518D02*
G01*
X134374627Y-116148037D01*
X134544466Y-116199557D01*
X134700991Y-116283222D01*
X134720216Y-116299000D01*
X134838186Y-116395814D01*
X134921448Y-116497271D01*
X134950778Y-116533009D01*
X135034443Y-116689534D01*
X135085963Y-116859373D01*
X135103359Y-117036000D01*
X135085963Y-117212627D01*
X135034443Y-117382466D01*
X134950778Y-117538991D01*
X134921448Y-117574729D01*
X134838186Y-117676186D01*
X134736729Y-117759448D01*
X134700991Y-117788778D01*
X134544466Y-117872443D01*
X134374627Y-117923963D01*
X134308443Y-117930481D01*
X134242260Y-117937000D01*
X134153740Y-117937000D01*
X134087557Y-117930481D01*
X134021373Y-117923963D01*
X133851534Y-117872443D01*
X133695009Y-117788778D01*
X133659271Y-117759448D01*
X133557814Y-117676186D01*
X133474552Y-117574729D01*
X133445222Y-117538991D01*
X133361557Y-117382466D01*
X133310037Y-117212627D01*
X133292641Y-117036000D01*
X133310037Y-116859373D01*
X133361557Y-116689534D01*
X133445222Y-116533009D01*
X133474552Y-116497271D01*
X133557814Y-116395814D01*
X133675784Y-116299000D01*
X133695009Y-116283222D01*
X133851534Y-116199557D01*
X134021373Y-116148037D01*
X134087558Y-116141518D01*
X134153740Y-116135000D01*
X134242260Y-116135000D01*
X134308442Y-116141518D01*
X134308442Y-116141518D01*
G37*
G36*
X131768442Y-116141518D02*
G01*
X131834627Y-116148037D01*
X132004466Y-116199557D01*
X132160991Y-116283222D01*
X132180216Y-116299000D01*
X132298186Y-116395814D01*
X132381448Y-116497271D01*
X132410778Y-116533009D01*
X132494443Y-116689534D01*
X132545963Y-116859373D01*
X132563359Y-117036000D01*
X132545963Y-117212627D01*
X132494443Y-117382466D01*
X132410778Y-117538991D01*
X132381448Y-117574729D01*
X132298186Y-117676186D01*
X132196729Y-117759448D01*
X132160991Y-117788778D01*
X132004466Y-117872443D01*
X131834627Y-117923963D01*
X131768443Y-117930481D01*
X131702260Y-117937000D01*
X131613740Y-117937000D01*
X131547557Y-117930481D01*
X131481373Y-117923963D01*
X131311534Y-117872443D01*
X131155009Y-117788778D01*
X131119271Y-117759448D01*
X131017814Y-117676186D01*
X130934552Y-117574729D01*
X130905222Y-117538991D01*
X130821557Y-117382466D01*
X130770037Y-117212627D01*
X130752641Y-117036000D01*
X130770037Y-116859373D01*
X130821557Y-116689534D01*
X130905222Y-116533009D01*
X130934552Y-116497271D01*
X131017814Y-116395814D01*
X131135784Y-116299000D01*
X131155009Y-116283222D01*
X131311534Y-116199557D01*
X131481373Y-116148037D01*
X131547558Y-116141518D01*
X131613740Y-116135000D01*
X131702260Y-116135000D01*
X131768442Y-116141518D01*
X131768442Y-116141518D01*
G37*
G36*
X129228442Y-116141518D02*
G01*
X129294627Y-116148037D01*
X129464466Y-116199557D01*
X129620991Y-116283222D01*
X129640216Y-116299000D01*
X129758186Y-116395814D01*
X129841448Y-116497271D01*
X129870778Y-116533009D01*
X129954443Y-116689534D01*
X130005963Y-116859373D01*
X130023359Y-117036000D01*
X130005963Y-117212627D01*
X129954443Y-117382466D01*
X129870778Y-117538991D01*
X129841448Y-117574729D01*
X129758186Y-117676186D01*
X129656729Y-117759448D01*
X129620991Y-117788778D01*
X129464466Y-117872443D01*
X129294627Y-117923963D01*
X129228443Y-117930481D01*
X129162260Y-117937000D01*
X129073740Y-117937000D01*
X129007557Y-117930481D01*
X128941373Y-117923963D01*
X128771534Y-117872443D01*
X128615009Y-117788778D01*
X128579271Y-117759448D01*
X128477814Y-117676186D01*
X128394552Y-117574729D01*
X128365222Y-117538991D01*
X128281557Y-117382466D01*
X128230037Y-117212627D01*
X128212641Y-117036000D01*
X128230037Y-116859373D01*
X128281557Y-116689534D01*
X128365222Y-116533009D01*
X128394552Y-116497271D01*
X128477814Y-116395814D01*
X128595784Y-116299000D01*
X128615009Y-116283222D01*
X128771534Y-116199557D01*
X128941373Y-116148037D01*
X129007558Y-116141518D01*
X129073740Y-116135000D01*
X129162260Y-116135000D01*
X129228442Y-116141518D01*
X129228442Y-116141518D01*
G37*
G36*
X124148442Y-116141518D02*
G01*
X124214627Y-116148037D01*
X124384466Y-116199557D01*
X124540991Y-116283222D01*
X124560216Y-116299000D01*
X124678186Y-116395814D01*
X124761448Y-116497271D01*
X124790778Y-116533009D01*
X124874443Y-116689534D01*
X124925963Y-116859373D01*
X124943359Y-117036000D01*
X124925963Y-117212627D01*
X124874443Y-117382466D01*
X124790778Y-117538991D01*
X124761448Y-117574729D01*
X124678186Y-117676186D01*
X124576729Y-117759448D01*
X124540991Y-117788778D01*
X124384466Y-117872443D01*
X124214627Y-117923963D01*
X124148443Y-117930481D01*
X124082260Y-117937000D01*
X123993740Y-117937000D01*
X123927557Y-117930481D01*
X123861373Y-117923963D01*
X123691534Y-117872443D01*
X123535009Y-117788778D01*
X123499271Y-117759448D01*
X123397814Y-117676186D01*
X123314552Y-117574729D01*
X123285222Y-117538991D01*
X123201557Y-117382466D01*
X123150037Y-117212627D01*
X123132641Y-117036000D01*
X123150037Y-116859373D01*
X123201557Y-116689534D01*
X123285222Y-116533009D01*
X123314552Y-116497271D01*
X123397814Y-116395814D01*
X123515784Y-116299000D01*
X123535009Y-116283222D01*
X123691534Y-116199557D01*
X123861373Y-116148037D01*
X123927558Y-116141518D01*
X123993740Y-116135000D01*
X124082260Y-116135000D01*
X124148442Y-116141518D01*
X124148442Y-116141518D01*
G37*
G36*
X126688442Y-116141518D02*
G01*
X126754627Y-116148037D01*
X126924466Y-116199557D01*
X127080991Y-116283222D01*
X127100216Y-116299000D01*
X127218186Y-116395814D01*
X127301448Y-116497271D01*
X127330778Y-116533009D01*
X127414443Y-116689534D01*
X127465963Y-116859373D01*
X127483359Y-117036000D01*
X127465963Y-117212627D01*
X127414443Y-117382466D01*
X127330778Y-117538991D01*
X127301448Y-117574729D01*
X127218186Y-117676186D01*
X127116729Y-117759448D01*
X127080991Y-117788778D01*
X126924466Y-117872443D01*
X126754627Y-117923963D01*
X126688443Y-117930481D01*
X126622260Y-117937000D01*
X126533740Y-117937000D01*
X126467557Y-117930481D01*
X126401373Y-117923963D01*
X126231534Y-117872443D01*
X126075009Y-117788778D01*
X126039271Y-117759448D01*
X125937814Y-117676186D01*
X125854552Y-117574729D01*
X125825222Y-117538991D01*
X125741557Y-117382466D01*
X125690037Y-117212627D01*
X125672641Y-117036000D01*
X125690037Y-116859373D01*
X125741557Y-116689534D01*
X125825222Y-116533009D01*
X125854552Y-116497271D01*
X125937814Y-116395814D01*
X126055784Y-116299000D01*
X126075009Y-116283222D01*
X126231534Y-116199557D01*
X126401373Y-116148037D01*
X126467558Y-116141518D01*
X126533740Y-116135000D01*
X126622260Y-116135000D01*
X126688442Y-116141518D01*
X126688442Y-116141518D01*
G37*
G36*
X111448442Y-116141518D02*
G01*
X111514627Y-116148037D01*
X111684466Y-116199557D01*
X111840991Y-116283222D01*
X111860216Y-116299000D01*
X111978186Y-116395814D01*
X112061448Y-116497271D01*
X112090778Y-116533009D01*
X112174443Y-116689534D01*
X112225963Y-116859373D01*
X112243359Y-117036000D01*
X112225963Y-117212627D01*
X112174443Y-117382466D01*
X112090778Y-117538991D01*
X112061448Y-117574729D01*
X111978186Y-117676186D01*
X111876729Y-117759448D01*
X111840991Y-117788778D01*
X111684466Y-117872443D01*
X111514627Y-117923963D01*
X111448443Y-117930481D01*
X111382260Y-117937000D01*
X111293740Y-117937000D01*
X111227557Y-117930481D01*
X111161373Y-117923963D01*
X110991534Y-117872443D01*
X110835009Y-117788778D01*
X110799271Y-117759448D01*
X110697814Y-117676186D01*
X110614552Y-117574729D01*
X110585222Y-117538991D01*
X110501557Y-117382466D01*
X110450037Y-117212627D01*
X110432641Y-117036000D01*
X110450037Y-116859373D01*
X110501557Y-116689534D01*
X110585222Y-116533009D01*
X110614552Y-116497271D01*
X110697814Y-116395814D01*
X110815784Y-116299000D01*
X110835009Y-116283222D01*
X110991534Y-116199557D01*
X111161373Y-116148037D01*
X111227558Y-116141518D01*
X111293740Y-116135000D01*
X111382260Y-116135000D01*
X111448442Y-116141518D01*
X111448442Y-116141518D01*
G37*
G36*
X113988442Y-116141518D02*
G01*
X114054627Y-116148037D01*
X114224466Y-116199557D01*
X114380991Y-116283222D01*
X114400216Y-116299000D01*
X114518186Y-116395814D01*
X114601448Y-116497271D01*
X114630778Y-116533009D01*
X114714443Y-116689534D01*
X114765963Y-116859373D01*
X114783359Y-117036000D01*
X114765963Y-117212627D01*
X114714443Y-117382466D01*
X114630778Y-117538991D01*
X114601448Y-117574729D01*
X114518186Y-117676186D01*
X114416729Y-117759448D01*
X114380991Y-117788778D01*
X114224466Y-117872443D01*
X114054627Y-117923963D01*
X113988443Y-117930481D01*
X113922260Y-117937000D01*
X113833740Y-117937000D01*
X113767557Y-117930481D01*
X113701373Y-117923963D01*
X113531534Y-117872443D01*
X113375009Y-117788778D01*
X113339271Y-117759448D01*
X113237814Y-117676186D01*
X113154552Y-117574729D01*
X113125222Y-117538991D01*
X113041557Y-117382466D01*
X112990037Y-117212627D01*
X112972641Y-117036000D01*
X112990037Y-116859373D01*
X113041557Y-116689534D01*
X113125222Y-116533009D01*
X113154552Y-116497271D01*
X113237814Y-116395814D01*
X113355784Y-116299000D01*
X113375009Y-116283222D01*
X113531534Y-116199557D01*
X113701373Y-116148037D01*
X113767558Y-116141518D01*
X113833740Y-116135000D01*
X113922260Y-116135000D01*
X113988442Y-116141518D01*
X113988442Y-116141518D01*
G37*
G36*
X119068442Y-116141518D02*
G01*
X119134627Y-116148037D01*
X119304466Y-116199557D01*
X119460991Y-116283222D01*
X119480216Y-116299000D01*
X119598186Y-116395814D01*
X119681448Y-116497271D01*
X119710778Y-116533009D01*
X119794443Y-116689534D01*
X119845963Y-116859373D01*
X119863359Y-117036000D01*
X119845963Y-117212627D01*
X119794443Y-117382466D01*
X119710778Y-117538991D01*
X119681448Y-117574729D01*
X119598186Y-117676186D01*
X119496729Y-117759448D01*
X119460991Y-117788778D01*
X119304466Y-117872443D01*
X119134627Y-117923963D01*
X119068443Y-117930481D01*
X119002260Y-117937000D01*
X118913740Y-117937000D01*
X118847557Y-117930481D01*
X118781373Y-117923963D01*
X118611534Y-117872443D01*
X118455009Y-117788778D01*
X118419271Y-117759448D01*
X118317814Y-117676186D01*
X118234552Y-117574729D01*
X118205222Y-117538991D01*
X118121557Y-117382466D01*
X118070037Y-117212627D01*
X118052641Y-117036000D01*
X118070037Y-116859373D01*
X118121557Y-116689534D01*
X118205222Y-116533009D01*
X118234552Y-116497271D01*
X118317814Y-116395814D01*
X118435784Y-116299000D01*
X118455009Y-116283222D01*
X118611534Y-116199557D01*
X118781373Y-116148037D01*
X118847558Y-116141518D01*
X118913740Y-116135000D01*
X119002260Y-116135000D01*
X119068442Y-116141518D01*
X119068442Y-116141518D01*
G37*
G36*
X121608442Y-116141518D02*
G01*
X121674627Y-116148037D01*
X121844466Y-116199557D01*
X122000991Y-116283222D01*
X122020216Y-116299000D01*
X122138186Y-116395814D01*
X122221448Y-116497271D01*
X122250778Y-116533009D01*
X122334443Y-116689534D01*
X122385963Y-116859373D01*
X122403359Y-117036000D01*
X122385963Y-117212627D01*
X122334443Y-117382466D01*
X122250778Y-117538991D01*
X122221448Y-117574729D01*
X122138186Y-117676186D01*
X122036729Y-117759448D01*
X122000991Y-117788778D01*
X121844466Y-117872443D01*
X121674627Y-117923963D01*
X121608443Y-117930481D01*
X121542260Y-117937000D01*
X121453740Y-117937000D01*
X121387557Y-117930481D01*
X121321373Y-117923963D01*
X121151534Y-117872443D01*
X120995009Y-117788778D01*
X120959271Y-117759448D01*
X120857814Y-117676186D01*
X120774552Y-117574729D01*
X120745222Y-117538991D01*
X120661557Y-117382466D01*
X120610037Y-117212627D01*
X120592641Y-117036000D01*
X120610037Y-116859373D01*
X120661557Y-116689534D01*
X120745222Y-116533009D01*
X120774552Y-116497271D01*
X120857814Y-116395814D01*
X120975784Y-116299000D01*
X120995009Y-116283222D01*
X121151534Y-116199557D01*
X121321373Y-116148037D01*
X121387558Y-116141518D01*
X121453740Y-116135000D01*
X121542260Y-116135000D01*
X121608442Y-116141518D01*
X121608442Y-116141518D01*
G37*
G36*
X108908442Y-116141518D02*
G01*
X108974627Y-116148037D01*
X109144466Y-116199557D01*
X109300991Y-116283222D01*
X109320216Y-116299000D01*
X109438186Y-116395814D01*
X109521448Y-116497271D01*
X109550778Y-116533009D01*
X109634443Y-116689534D01*
X109685963Y-116859373D01*
X109703359Y-117036000D01*
X109685963Y-117212627D01*
X109634443Y-117382466D01*
X109550778Y-117538991D01*
X109521448Y-117574729D01*
X109438186Y-117676186D01*
X109336729Y-117759448D01*
X109300991Y-117788778D01*
X109144466Y-117872443D01*
X108974627Y-117923963D01*
X108908443Y-117930481D01*
X108842260Y-117937000D01*
X108753740Y-117937000D01*
X108687557Y-117930481D01*
X108621373Y-117923963D01*
X108451534Y-117872443D01*
X108295009Y-117788778D01*
X108259271Y-117759448D01*
X108157814Y-117676186D01*
X108074552Y-117574729D01*
X108045222Y-117538991D01*
X107961557Y-117382466D01*
X107910037Y-117212627D01*
X107892641Y-117036000D01*
X107910037Y-116859373D01*
X107961557Y-116689534D01*
X108045222Y-116533009D01*
X108074552Y-116497271D01*
X108157814Y-116395814D01*
X108275784Y-116299000D01*
X108295009Y-116283222D01*
X108451534Y-116199557D01*
X108621373Y-116148037D01*
X108687558Y-116141518D01*
X108753740Y-116135000D01*
X108842260Y-116135000D01*
X108908442Y-116141518D01*
X108908442Y-116141518D01*
G37*
G36*
X152021000Y-113456000D02*
G01*
X150138143Y-113456000D01*
X150113757Y-113458402D01*
X150090308Y-113465515D01*
X150068697Y-113477066D01*
X150049755Y-113492611D01*
X150034210Y-113511553D01*
X150022659Y-113533164D01*
X150015546Y-113556613D01*
X150013144Y-113580999D01*
X150015546Y-113605385D01*
X150022659Y-113628835D01*
X150040267Y-113671345D01*
X150071050Y-113826102D01*
X150071050Y-113983898D01*
X150040267Y-114138657D01*
X149979882Y-114284438D01*
X149979881Y-114284439D01*
X149892216Y-114415640D01*
X149780640Y-114527216D01*
X149714594Y-114571346D01*
X149649438Y-114614882D01*
X149503657Y-114675267D01*
X149348898Y-114706050D01*
X149191102Y-114706050D01*
X149036343Y-114675267D01*
X148890562Y-114614882D01*
X148825406Y-114571346D01*
X148759360Y-114527216D01*
X148647784Y-114415640D01*
X148560119Y-114284439D01*
X148560118Y-114284438D01*
X148499733Y-114138657D01*
X148468950Y-113983898D01*
X148468950Y-113826102D01*
X148499733Y-113671343D01*
X148560118Y-113525562D01*
X148606598Y-113456000D01*
X148647784Y-113394360D01*
X148759360Y-113282784D01*
X148890561Y-113195119D01*
X148890562Y-113195118D01*
X149036343Y-113134733D01*
X149191102Y-113103950D01*
X149348898Y-113103950D01*
X149503657Y-113134733D01*
X149649438Y-113195118D01*
X149649439Y-113195119D01*
X149780640Y-113282784D01*
X149892216Y-113394360D01*
X149892217Y-113394362D01*
X149894952Y-113397097D01*
X149905614Y-113410088D01*
X149924556Y-113425633D01*
X149946167Y-113437184D01*
X149969616Y-113444297D01*
X149994002Y-113446699D01*
X150018388Y-113444297D01*
X150041837Y-113437184D01*
X150063447Y-113425633D01*
X150082389Y-113410087D01*
X150097934Y-113391145D01*
X150109485Y-113369534D01*
X150116598Y-113346085D01*
X150119000Y-113321700D01*
X150119000Y-111554000D01*
X152021000Y-111554000D01*
X152021000Y-113456000D01*
X152021000Y-113456000D01*
G37*
G36*
X103501000Y-114501000D02*
G01*
X102549000Y-114501000D01*
X102549000Y-112799000D01*
X103501000Y-112799000D01*
X103501000Y-114501000D01*
X103501000Y-114501000D01*
G37*
G36*
X101751000Y-114501000D02*
G01*
X100799000Y-114501000D01*
X100799000Y-112799000D01*
X101751000Y-112799000D01*
X101751000Y-114501000D01*
X101751000Y-114501000D01*
G37*
G36*
X102856938Y-111531716D02*
G01*
X102877557Y-111537971D01*
X102896553Y-111548124D01*
X102913208Y-111561792D01*
X102926876Y-111578447D01*
X102937029Y-111597443D01*
X102943284Y-111618062D01*
X102946000Y-111645640D01*
X102946000Y-112154360D01*
X102943284Y-112181938D01*
X102937029Y-112202557D01*
X102926876Y-112221553D01*
X102913208Y-112238208D01*
X102896553Y-112251876D01*
X102877557Y-112262029D01*
X102856938Y-112268284D01*
X102829360Y-112271000D01*
X102370640Y-112271000D01*
X102343062Y-112268284D01*
X102322443Y-112262029D01*
X102303447Y-112251876D01*
X102286792Y-112238208D01*
X102273124Y-112221553D01*
X102262971Y-112202557D01*
X102256716Y-112181938D01*
X102254000Y-112154360D01*
X102254000Y-111645640D01*
X102256716Y-111618062D01*
X102262971Y-111597443D01*
X102273124Y-111578447D01*
X102286792Y-111561792D01*
X102303447Y-111548124D01*
X102322443Y-111537971D01*
X102343062Y-111531716D01*
X102370640Y-111529000D01*
X102829360Y-111529000D01*
X102856938Y-111531716D01*
X102856938Y-111531716D01*
G37*
G36*
X101886938Y-111531716D02*
G01*
X101907557Y-111537971D01*
X101926553Y-111548124D01*
X101943208Y-111561792D01*
X101956876Y-111578447D01*
X101967029Y-111597443D01*
X101973284Y-111618062D01*
X101976000Y-111645640D01*
X101976000Y-112154360D01*
X101973284Y-112181938D01*
X101967029Y-112202557D01*
X101956876Y-112221553D01*
X101943208Y-112238208D01*
X101926553Y-112251876D01*
X101907557Y-112262029D01*
X101886938Y-112268284D01*
X101859360Y-112271000D01*
X101400640Y-112271000D01*
X101373062Y-112268284D01*
X101352443Y-112262029D01*
X101333447Y-112251876D01*
X101316792Y-112238208D01*
X101303124Y-112221553D01*
X101292971Y-112202557D01*
X101286716Y-112181938D01*
X101284000Y-112154360D01*
X101284000Y-111645640D01*
X101286716Y-111618062D01*
X101292971Y-111597443D01*
X101303124Y-111578447D01*
X101316792Y-111561792D01*
X101333447Y-111548124D01*
X101352443Y-111537971D01*
X101373062Y-111531716D01*
X101400640Y-111529000D01*
X101859360Y-111529000D01*
X101886938Y-111531716D01*
X101886938Y-111531716D01*
G37*
G36*
X148807395Y-110320546D02*
G01*
X148980466Y-110392234D01*
X149057818Y-110443919D01*
X149136227Y-110496310D01*
X149268690Y-110628773D01*
X149268691Y-110628775D01*
X149372766Y-110784534D01*
X149444454Y-110957605D01*
X149481000Y-111141333D01*
X149481000Y-111328667D01*
X149444454Y-111512395D01*
X149372766Y-111685466D01*
X149372765Y-111685467D01*
X149268690Y-111841227D01*
X149136227Y-111973690D01*
X149057818Y-112026081D01*
X148980466Y-112077766D01*
X148807395Y-112149454D01*
X148623667Y-112186000D01*
X148436333Y-112186000D01*
X148252605Y-112149454D01*
X148079534Y-112077766D01*
X148002182Y-112026081D01*
X147923773Y-111973690D01*
X147791310Y-111841227D01*
X147687235Y-111685467D01*
X147687234Y-111685466D01*
X147615546Y-111512395D01*
X147579000Y-111328667D01*
X147579000Y-111141333D01*
X147615546Y-110957605D01*
X147687234Y-110784534D01*
X147791309Y-110628775D01*
X147791310Y-110628773D01*
X147923773Y-110496310D01*
X148002182Y-110443919D01*
X148079534Y-110392234D01*
X148252605Y-110320546D01*
X148436333Y-110284000D01*
X148623667Y-110284000D01*
X148807395Y-110320546D01*
X148807395Y-110320546D01*
G37*
G36*
X144536893Y-109644184D02*
G01*
X144616627Y-109652037D01*
X144786466Y-109703557D01*
X144942991Y-109787222D01*
X144973652Y-109812385D01*
X145080186Y-109899814D01*
X145163448Y-110001271D01*
X145192778Y-110037009D01*
X145234610Y-110115271D01*
X145275034Y-110190897D01*
X145276443Y-110193534D01*
X145327963Y-110363373D01*
X145345359Y-110540000D01*
X145327963Y-110716627D01*
X145276443Y-110886466D01*
X145192778Y-111042991D01*
X145163448Y-111078729D01*
X145080186Y-111180186D01*
X144978729Y-111263448D01*
X144942991Y-111292778D01*
X144786466Y-111376443D01*
X144616627Y-111427963D01*
X144550443Y-111434481D01*
X144484260Y-111441000D01*
X144395740Y-111441000D01*
X144329557Y-111434481D01*
X144263373Y-111427963D01*
X144093534Y-111376443D01*
X143937009Y-111292778D01*
X143901271Y-111263448D01*
X143799814Y-111180186D01*
X143716552Y-111078729D01*
X143687222Y-111042991D01*
X143603557Y-110886466D01*
X143552037Y-110716627D01*
X143534641Y-110540000D01*
X143552037Y-110363373D01*
X143603557Y-110193534D01*
X143604967Y-110190897D01*
X143645389Y-110115272D01*
X143687222Y-110037009D01*
X143716552Y-110001271D01*
X143799814Y-109899814D01*
X143906348Y-109812385D01*
X143937009Y-109787222D01*
X144093534Y-109703557D01*
X144263373Y-109652037D01*
X144343107Y-109644184D01*
X144395740Y-109639000D01*
X144484260Y-109639000D01*
X144536893Y-109644184D01*
X144536893Y-109644184D01*
G37*
G36*
X141996893Y-109644184D02*
G01*
X142076627Y-109652037D01*
X142246466Y-109703557D01*
X142402991Y-109787222D01*
X142433652Y-109812385D01*
X142540186Y-109899814D01*
X142623448Y-110001271D01*
X142652778Y-110037009D01*
X142694610Y-110115271D01*
X142735034Y-110190897D01*
X142736443Y-110193534D01*
X142787963Y-110363373D01*
X142805359Y-110540000D01*
X142787963Y-110716627D01*
X142736443Y-110886466D01*
X142652778Y-111042991D01*
X142623448Y-111078729D01*
X142540186Y-111180186D01*
X142438729Y-111263448D01*
X142402991Y-111292778D01*
X142246466Y-111376443D01*
X142076627Y-111427963D01*
X142010443Y-111434481D01*
X141944260Y-111441000D01*
X141855740Y-111441000D01*
X141789557Y-111434481D01*
X141723373Y-111427963D01*
X141553534Y-111376443D01*
X141397009Y-111292778D01*
X141361271Y-111263448D01*
X141259814Y-111180186D01*
X141176552Y-111078729D01*
X141147222Y-111042991D01*
X141063557Y-110886466D01*
X141012037Y-110716627D01*
X140994641Y-110540000D01*
X141012037Y-110363373D01*
X141063557Y-110193534D01*
X141064967Y-110190897D01*
X141105389Y-110115272D01*
X141147222Y-110037009D01*
X141176552Y-110001271D01*
X141259814Y-109899814D01*
X141366348Y-109812385D01*
X141397009Y-109787222D01*
X141553534Y-109703557D01*
X141723373Y-109652037D01*
X141803107Y-109644184D01*
X141855740Y-109639000D01*
X141944260Y-109639000D01*
X141996893Y-109644184D01*
X141996893Y-109644184D01*
G37*
G36*
X151347395Y-109050546D02*
G01*
X151520466Y-109122234D01*
X151597818Y-109173919D01*
X151676227Y-109226310D01*
X151808690Y-109358773D01*
X151808691Y-109358775D01*
X151912766Y-109514534D01*
X151984454Y-109687605D01*
X152021000Y-109871333D01*
X152021000Y-110058667D01*
X151984454Y-110242395D01*
X151912766Y-110415466D01*
X151912765Y-110415467D01*
X151808690Y-110571227D01*
X151676227Y-110703690D01*
X151656868Y-110716625D01*
X151520466Y-110807766D01*
X151347395Y-110879454D01*
X151163667Y-110916000D01*
X150976333Y-110916000D01*
X150792605Y-110879454D01*
X150619534Y-110807766D01*
X150483132Y-110716625D01*
X150463773Y-110703690D01*
X150331310Y-110571227D01*
X150227235Y-110415467D01*
X150227234Y-110415466D01*
X150155546Y-110242395D01*
X150119000Y-110058667D01*
X150119000Y-109871333D01*
X150155546Y-109687605D01*
X150227234Y-109514534D01*
X150331309Y-109358775D01*
X150331310Y-109358773D01*
X150463773Y-109226310D01*
X150542182Y-109173919D01*
X150619534Y-109122234D01*
X150792605Y-109050546D01*
X150976333Y-109014000D01*
X151163667Y-109014000D01*
X151347395Y-109050546D01*
X151347395Y-109050546D01*
G37*
G36*
X105345000Y-109663000D02*
G01*
X103462143Y-109663000D01*
X103437757Y-109665402D01*
X103414308Y-109672515D01*
X103392697Y-109684066D01*
X103373755Y-109699611D01*
X103358210Y-109718553D01*
X103346659Y-109740164D01*
X103339546Y-109763613D01*
X103337144Y-109787999D01*
X103339546Y-109812385D01*
X103346659Y-109835835D01*
X103361364Y-109871335D01*
X103364267Y-109878345D01*
X103395050Y-110033102D01*
X103395050Y-110190898D01*
X103364267Y-110345657D01*
X103303882Y-110491438D01*
X103271434Y-110540000D01*
X103216216Y-110622640D01*
X103104640Y-110734216D01*
X103038594Y-110778346D01*
X102973438Y-110821882D01*
X102827657Y-110882267D01*
X102672898Y-110913050D01*
X102515102Y-110913050D01*
X102360343Y-110882267D01*
X102214562Y-110821882D01*
X102149406Y-110778346D01*
X102083360Y-110734216D01*
X101971784Y-110622640D01*
X101916566Y-110540000D01*
X101884118Y-110491438D01*
X101823733Y-110345657D01*
X101792950Y-110190898D01*
X101792950Y-110033102D01*
X101823733Y-109878343D01*
X101884118Y-109732562D01*
X101930598Y-109663000D01*
X101971784Y-109601360D01*
X102083360Y-109489784D01*
X102214561Y-109402119D01*
X102214562Y-109402118D01*
X102360343Y-109341733D01*
X102515102Y-109310950D01*
X102672898Y-109310950D01*
X102827657Y-109341733D01*
X102973438Y-109402118D01*
X102973439Y-109402119D01*
X103104640Y-109489784D01*
X103216216Y-109601360D01*
X103216217Y-109601362D01*
X103218952Y-109604097D01*
X103229614Y-109617088D01*
X103248556Y-109632633D01*
X103270167Y-109644184D01*
X103293616Y-109651297D01*
X103318002Y-109653699D01*
X103342388Y-109651297D01*
X103365837Y-109644184D01*
X103387447Y-109632633D01*
X103406389Y-109617087D01*
X103421934Y-109598145D01*
X103433485Y-109576534D01*
X103440598Y-109553085D01*
X103443000Y-109528700D01*
X103443000Y-107761000D01*
X105345000Y-107761000D01*
X105345000Y-109663000D01*
X105345000Y-109663000D01*
G37*
G36*
X148807395Y-107780546D02*
G01*
X148980466Y-107852234D01*
X148980467Y-107852235D01*
X149136227Y-107956310D01*
X149268690Y-108088773D01*
X149268691Y-108088775D01*
X149372766Y-108244534D01*
X149444454Y-108417605D01*
X149481000Y-108601333D01*
X149481000Y-108788667D01*
X149444454Y-108972395D01*
X149372766Y-109145466D01*
X149372765Y-109145467D01*
X149268690Y-109301227D01*
X149136227Y-109433690D01*
X149057818Y-109486081D01*
X148980466Y-109537766D01*
X148807395Y-109609454D01*
X148623667Y-109646000D01*
X148436333Y-109646000D01*
X148252605Y-109609454D01*
X148079534Y-109537766D01*
X148002182Y-109486081D01*
X147923773Y-109433690D01*
X147791310Y-109301227D01*
X147687235Y-109145467D01*
X147687234Y-109145466D01*
X147615546Y-108972395D01*
X147579000Y-108788667D01*
X147579000Y-108601333D01*
X147615546Y-108417605D01*
X147687234Y-108244534D01*
X147791309Y-108088775D01*
X147791310Y-108088773D01*
X147923773Y-107956310D01*
X148079533Y-107852235D01*
X148079534Y-107852234D01*
X148252605Y-107780546D01*
X148436333Y-107744000D01*
X148623667Y-107744000D01*
X148807395Y-107780546D01*
X148807395Y-107780546D01*
G37*
G36*
X142801000Y-108901000D02*
G01*
X140999000Y-108901000D01*
X140999000Y-107099000D01*
X142801000Y-107099000D01*
X142801000Y-108901000D01*
X142801000Y-108901000D01*
G37*
G36*
X144550443Y-107105519D02*
G01*
X144616627Y-107112037D01*
X144786466Y-107163557D01*
X144942991Y-107247222D01*
X144978729Y-107276552D01*
X145080186Y-107359814D01*
X145163448Y-107461271D01*
X145192778Y-107497009D01*
X145276443Y-107653534D01*
X145327963Y-107823373D01*
X145345359Y-108000000D01*
X145327963Y-108176627D01*
X145276443Y-108346466D01*
X145192778Y-108502991D01*
X145163448Y-108538729D01*
X145080186Y-108640186D01*
X144978729Y-108723448D01*
X144942991Y-108752778D01*
X144786466Y-108836443D01*
X144616627Y-108887963D01*
X144550442Y-108894482D01*
X144484260Y-108901000D01*
X144395740Y-108901000D01*
X144329558Y-108894482D01*
X144263373Y-108887963D01*
X144093534Y-108836443D01*
X143937009Y-108752778D01*
X143901271Y-108723448D01*
X143799814Y-108640186D01*
X143716552Y-108538729D01*
X143687222Y-108502991D01*
X143603557Y-108346466D01*
X143552037Y-108176627D01*
X143534641Y-108000000D01*
X143552037Y-107823373D01*
X143603557Y-107653534D01*
X143687222Y-107497009D01*
X143716552Y-107461271D01*
X143799814Y-107359814D01*
X143901271Y-107276552D01*
X143937009Y-107247222D01*
X144093534Y-107163557D01*
X144263373Y-107112037D01*
X144329557Y-107105519D01*
X144395740Y-107099000D01*
X144484260Y-107099000D01*
X144550443Y-107105519D01*
X144550443Y-107105519D01*
G37*
G36*
X102131395Y-106527546D02*
G01*
X102304466Y-106599234D01*
X102381818Y-106650919D01*
X102460227Y-106703310D01*
X102592690Y-106835773D01*
X102592691Y-106835775D01*
X102696766Y-106991534D01*
X102768454Y-107164605D01*
X102805000Y-107348333D01*
X102805000Y-107535667D01*
X102768454Y-107719395D01*
X102696766Y-107892466D01*
X102696765Y-107892467D01*
X102592690Y-108048227D01*
X102460227Y-108180690D01*
X102381818Y-108233081D01*
X102304466Y-108284766D01*
X102131395Y-108356454D01*
X101947667Y-108393000D01*
X101760333Y-108393000D01*
X101576605Y-108356454D01*
X101403534Y-108284766D01*
X101326182Y-108233081D01*
X101247773Y-108180690D01*
X101115310Y-108048227D01*
X101011235Y-107892467D01*
X101011234Y-107892466D01*
X100939546Y-107719395D01*
X100903000Y-107535667D01*
X100903000Y-107348333D01*
X100939546Y-107164605D01*
X101011234Y-106991534D01*
X101115309Y-106835775D01*
X101115310Y-106835773D01*
X101247773Y-106703310D01*
X101326182Y-106650919D01*
X101403534Y-106599234D01*
X101576605Y-106527546D01*
X101760333Y-106491000D01*
X101947667Y-106491000D01*
X102131395Y-106527546D01*
X102131395Y-106527546D01*
G37*
G36*
X104671395Y-105257546D02*
G01*
X104844466Y-105329234D01*
X104921818Y-105380919D01*
X105000227Y-105433310D01*
X105132690Y-105565773D01*
X105132691Y-105565775D01*
X105236766Y-105721534D01*
X105308454Y-105894605D01*
X105345000Y-106078333D01*
X105345000Y-106265667D01*
X105308454Y-106449395D01*
X105236766Y-106622466D01*
X105236765Y-106622467D01*
X105132690Y-106778227D01*
X105000227Y-106910690D01*
X104921818Y-106963081D01*
X104844466Y-107014766D01*
X104671395Y-107086454D01*
X104487667Y-107123000D01*
X104300333Y-107123000D01*
X104116605Y-107086454D01*
X103943534Y-107014766D01*
X103866182Y-106963081D01*
X103787773Y-106910690D01*
X103655310Y-106778227D01*
X103551235Y-106622467D01*
X103551234Y-106622466D01*
X103479546Y-106449395D01*
X103443000Y-106265667D01*
X103443000Y-106078333D01*
X103479546Y-105894605D01*
X103551234Y-105721534D01*
X103655309Y-105565775D01*
X103655310Y-105565773D01*
X103787773Y-105433310D01*
X103866182Y-105380919D01*
X103943534Y-105329234D01*
X104116605Y-105257546D01*
X104300333Y-105221000D01*
X104487667Y-105221000D01*
X104671395Y-105257546D01*
X104671395Y-105257546D01*
G37*
G36*
X102131395Y-103987546D02*
G01*
X102304466Y-104059234D01*
X102381818Y-104110919D01*
X102460227Y-104163310D01*
X102592690Y-104295773D01*
X102592691Y-104295775D01*
X102696766Y-104451534D01*
X102768454Y-104624605D01*
X102805000Y-104808333D01*
X102805000Y-104995667D01*
X102768454Y-105179395D01*
X102696766Y-105352466D01*
X102696765Y-105352467D01*
X102592690Y-105508227D01*
X102460227Y-105640690D01*
X102381818Y-105693081D01*
X102304466Y-105744766D01*
X102131395Y-105816454D01*
X101947667Y-105853000D01*
X101760333Y-105853000D01*
X101576605Y-105816454D01*
X101403534Y-105744766D01*
X101326182Y-105693081D01*
X101247773Y-105640690D01*
X101115310Y-105508227D01*
X101011235Y-105352467D01*
X101011234Y-105352466D01*
X100939546Y-105179395D01*
X100903000Y-104995667D01*
X100903000Y-104808333D01*
X100939546Y-104624605D01*
X101011234Y-104451534D01*
X101115309Y-104295775D01*
X101115310Y-104295773D01*
X101247773Y-104163310D01*
X101326182Y-104110919D01*
X101403534Y-104059234D01*
X101576605Y-103987546D01*
X101760333Y-103951000D01*
X101947667Y-103951000D01*
X102131395Y-103987546D01*
X102131395Y-103987546D01*
G37*
G36*
X145176000Y-104801000D02*
G01*
X143804000Y-104801000D01*
X143804000Y-103939000D01*
X145176000Y-103939000D01*
X145176000Y-104801000D01*
X145176000Y-104801000D01*
G37*
G36*
X152796000Y-104801000D02*
G01*
X151424000Y-104801000D01*
X151424000Y-103939000D01*
X152796000Y-103939000D01*
X152796000Y-104801000D01*
X152796000Y-104801000D01*
G37*
G36*
X104671395Y-102717546D02*
G01*
X104844466Y-102789234D01*
X104921818Y-102840919D01*
X105000227Y-102893310D01*
X105132690Y-103025773D01*
X105132691Y-103025775D01*
X105236766Y-103181534D01*
X105308454Y-103354605D01*
X105345000Y-103538333D01*
X105345000Y-103725667D01*
X105308454Y-103909395D01*
X105236766Y-104082466D01*
X105236765Y-104082467D01*
X105132690Y-104238227D01*
X105000227Y-104370690D01*
X104921818Y-104423081D01*
X104844466Y-104474766D01*
X104671395Y-104546454D01*
X104487667Y-104583000D01*
X104300333Y-104583000D01*
X104116605Y-104546454D01*
X103943534Y-104474766D01*
X103866182Y-104423081D01*
X103787773Y-104370690D01*
X103655310Y-104238227D01*
X103551235Y-104082467D01*
X103551234Y-104082466D01*
X103479546Y-103909395D01*
X103443000Y-103725667D01*
X103443000Y-103538333D01*
X103479546Y-103354605D01*
X103551234Y-103181534D01*
X103655309Y-103025775D01*
X103655310Y-103025773D01*
X103787773Y-102893310D01*
X103866182Y-102840919D01*
X103943534Y-102789234D01*
X104116605Y-102717546D01*
X104300333Y-102681000D01*
X104487667Y-102681000D01*
X104671395Y-102717546D01*
X104671395Y-102717546D01*
G37*
G36*
X145176000Y-103531000D02*
G01*
X143804000Y-103531000D01*
X143804000Y-102669000D01*
X145176000Y-102669000D01*
X145176000Y-103531000D01*
X145176000Y-103531000D01*
G37*
G36*
X152796000Y-103531000D02*
G01*
X151424000Y-103531000D01*
X151424000Y-102669000D01*
X152796000Y-102669000D01*
X152796000Y-103531000D01*
X152796000Y-103531000D01*
G37*
G36*
X102131395Y-101447546D02*
G01*
X102304466Y-101519234D01*
X102304467Y-101519235D01*
X102460227Y-101623310D01*
X102592690Y-101755773D01*
X102592691Y-101755775D01*
X102696766Y-101911534D01*
X102768454Y-102084605D01*
X102805000Y-102268333D01*
X102805000Y-102455667D01*
X102768454Y-102639395D01*
X102696766Y-102812466D01*
X102696765Y-102812467D01*
X102592690Y-102968227D01*
X102460227Y-103100690D01*
X102381818Y-103153081D01*
X102304466Y-103204766D01*
X102131395Y-103276454D01*
X101947667Y-103313000D01*
X101760333Y-103313000D01*
X101576605Y-103276454D01*
X101403534Y-103204766D01*
X101326182Y-103153081D01*
X101247773Y-103100690D01*
X101115310Y-102968227D01*
X101011235Y-102812467D01*
X101011234Y-102812466D01*
X100939546Y-102639395D01*
X100903000Y-102455667D01*
X100903000Y-102268333D01*
X100939546Y-102084605D01*
X101011234Y-101911534D01*
X101115309Y-101755775D01*
X101115310Y-101755773D01*
X101247773Y-101623310D01*
X101403533Y-101519235D01*
X101403534Y-101519234D01*
X101576605Y-101447546D01*
X101760333Y-101411000D01*
X101947667Y-101411000D01*
X102131395Y-101447546D01*
X102131395Y-101447546D01*
G37*
G36*
X121608443Y-100941519D02*
G01*
X121674627Y-100948037D01*
X121844466Y-100999557D01*
X122000991Y-101083222D01*
X122036729Y-101112552D01*
X122138186Y-101195814D01*
X122221448Y-101297271D01*
X122250778Y-101333009D01*
X122334443Y-101489534D01*
X122385963Y-101659373D01*
X122403359Y-101836000D01*
X122385963Y-102012627D01*
X122334443Y-102182466D01*
X122250778Y-102338991D01*
X122221448Y-102374729D01*
X122138186Y-102476186D01*
X122036729Y-102559448D01*
X122000991Y-102588778D01*
X121844466Y-102672443D01*
X121674627Y-102723963D01*
X121608442Y-102730482D01*
X121542260Y-102737000D01*
X121453740Y-102737000D01*
X121387558Y-102730482D01*
X121321373Y-102723963D01*
X121151534Y-102672443D01*
X120995009Y-102588778D01*
X120959271Y-102559448D01*
X120857814Y-102476186D01*
X120774552Y-102374729D01*
X120745222Y-102338991D01*
X120661557Y-102182466D01*
X120610037Y-102012627D01*
X120592641Y-101836000D01*
X120610037Y-101659373D01*
X120661557Y-101489534D01*
X120745222Y-101333009D01*
X120774552Y-101297271D01*
X120857814Y-101195814D01*
X120959271Y-101112552D01*
X120995009Y-101083222D01*
X121151534Y-100999557D01*
X121321373Y-100948037D01*
X121387558Y-100941518D01*
X121453740Y-100935000D01*
X121542260Y-100935000D01*
X121608443Y-100941519D01*
X121608443Y-100941519D01*
G37*
G36*
X108908443Y-100941519D02*
G01*
X108974627Y-100948037D01*
X109144466Y-100999557D01*
X109300991Y-101083222D01*
X109336729Y-101112552D01*
X109438186Y-101195814D01*
X109521448Y-101297271D01*
X109550778Y-101333009D01*
X109634443Y-101489534D01*
X109685963Y-101659373D01*
X109703359Y-101836000D01*
X109685963Y-102012627D01*
X109634443Y-102182466D01*
X109550778Y-102338991D01*
X109521448Y-102374729D01*
X109438186Y-102476186D01*
X109336729Y-102559448D01*
X109300991Y-102588778D01*
X109144466Y-102672443D01*
X108974627Y-102723963D01*
X108908442Y-102730482D01*
X108842260Y-102737000D01*
X108753740Y-102737000D01*
X108687558Y-102730482D01*
X108621373Y-102723963D01*
X108451534Y-102672443D01*
X108295009Y-102588778D01*
X108259271Y-102559448D01*
X108157814Y-102476186D01*
X108074552Y-102374729D01*
X108045222Y-102338991D01*
X107961557Y-102182466D01*
X107910037Y-102012627D01*
X107892641Y-101836000D01*
X107910037Y-101659373D01*
X107961557Y-101489534D01*
X108045222Y-101333009D01*
X108074552Y-101297271D01*
X108157814Y-101195814D01*
X108259271Y-101112552D01*
X108295009Y-101083222D01*
X108451534Y-100999557D01*
X108621373Y-100948037D01*
X108687558Y-100941518D01*
X108753740Y-100935000D01*
X108842260Y-100935000D01*
X108908443Y-100941519D01*
X108908443Y-100941519D01*
G37*
G36*
X111448443Y-100941519D02*
G01*
X111514627Y-100948037D01*
X111684466Y-100999557D01*
X111840991Y-101083222D01*
X111876729Y-101112552D01*
X111978186Y-101195814D01*
X112061448Y-101297271D01*
X112090778Y-101333009D01*
X112174443Y-101489534D01*
X112225963Y-101659373D01*
X112243359Y-101836000D01*
X112225963Y-102012627D01*
X112174443Y-102182466D01*
X112090778Y-102338991D01*
X112061448Y-102374729D01*
X111978186Y-102476186D01*
X111876729Y-102559448D01*
X111840991Y-102588778D01*
X111684466Y-102672443D01*
X111514627Y-102723963D01*
X111448442Y-102730482D01*
X111382260Y-102737000D01*
X111293740Y-102737000D01*
X111227558Y-102730482D01*
X111161373Y-102723963D01*
X110991534Y-102672443D01*
X110835009Y-102588778D01*
X110799271Y-102559448D01*
X110697814Y-102476186D01*
X110614552Y-102374729D01*
X110585222Y-102338991D01*
X110501557Y-102182466D01*
X110450037Y-102012627D01*
X110432641Y-101836000D01*
X110450037Y-101659373D01*
X110501557Y-101489534D01*
X110585222Y-101333009D01*
X110614552Y-101297271D01*
X110697814Y-101195814D01*
X110799271Y-101112552D01*
X110835009Y-101083222D01*
X110991534Y-100999557D01*
X111161373Y-100948037D01*
X111227558Y-100941518D01*
X111293740Y-100935000D01*
X111382260Y-100935000D01*
X111448443Y-100941519D01*
X111448443Y-100941519D01*
G37*
G36*
X113988443Y-100941519D02*
G01*
X114054627Y-100948037D01*
X114224466Y-100999557D01*
X114380991Y-101083222D01*
X114416729Y-101112552D01*
X114518186Y-101195814D01*
X114601448Y-101297271D01*
X114630778Y-101333009D01*
X114714443Y-101489534D01*
X114765963Y-101659373D01*
X114783359Y-101836000D01*
X114765963Y-102012627D01*
X114714443Y-102182466D01*
X114630778Y-102338991D01*
X114601448Y-102374729D01*
X114518186Y-102476186D01*
X114416729Y-102559448D01*
X114380991Y-102588778D01*
X114224466Y-102672443D01*
X114054627Y-102723963D01*
X113988442Y-102730482D01*
X113922260Y-102737000D01*
X113833740Y-102737000D01*
X113767558Y-102730482D01*
X113701373Y-102723963D01*
X113531534Y-102672443D01*
X113375009Y-102588778D01*
X113339271Y-102559448D01*
X113237814Y-102476186D01*
X113154552Y-102374729D01*
X113125222Y-102338991D01*
X113041557Y-102182466D01*
X112990037Y-102012627D01*
X112972641Y-101836000D01*
X112990037Y-101659373D01*
X113041557Y-101489534D01*
X113125222Y-101333009D01*
X113154552Y-101297271D01*
X113237814Y-101195814D01*
X113339271Y-101112552D01*
X113375009Y-101083222D01*
X113531534Y-100999557D01*
X113701373Y-100948037D01*
X113767558Y-100941518D01*
X113833740Y-100935000D01*
X113922260Y-100935000D01*
X113988443Y-100941519D01*
X113988443Y-100941519D01*
G37*
G36*
X119068443Y-100941519D02*
G01*
X119134627Y-100948037D01*
X119304466Y-100999557D01*
X119460991Y-101083222D01*
X119496729Y-101112552D01*
X119598186Y-101195814D01*
X119681448Y-101297271D01*
X119710778Y-101333009D01*
X119794443Y-101489534D01*
X119845963Y-101659373D01*
X119863359Y-101836000D01*
X119845963Y-102012627D01*
X119794443Y-102182466D01*
X119710778Y-102338991D01*
X119681448Y-102374729D01*
X119598186Y-102476186D01*
X119496729Y-102559448D01*
X119460991Y-102588778D01*
X119304466Y-102672443D01*
X119134627Y-102723963D01*
X119068442Y-102730482D01*
X119002260Y-102737000D01*
X118913740Y-102737000D01*
X118847558Y-102730482D01*
X118781373Y-102723963D01*
X118611534Y-102672443D01*
X118455009Y-102588778D01*
X118419271Y-102559448D01*
X118317814Y-102476186D01*
X118234552Y-102374729D01*
X118205222Y-102338991D01*
X118121557Y-102182466D01*
X118070037Y-102012627D01*
X118052641Y-101836000D01*
X118070037Y-101659373D01*
X118121557Y-101489534D01*
X118205222Y-101333009D01*
X118234552Y-101297271D01*
X118317814Y-101195814D01*
X118419271Y-101112552D01*
X118455009Y-101083222D01*
X118611534Y-100999557D01*
X118781373Y-100948037D01*
X118847558Y-100941518D01*
X118913740Y-100935000D01*
X119002260Y-100935000D01*
X119068443Y-100941519D01*
X119068443Y-100941519D01*
G37*
G36*
X116528443Y-100941519D02*
G01*
X116594627Y-100948037D01*
X116764466Y-100999557D01*
X116920991Y-101083222D01*
X116956729Y-101112552D01*
X117058186Y-101195814D01*
X117141448Y-101297271D01*
X117170778Y-101333009D01*
X117254443Y-101489534D01*
X117305963Y-101659373D01*
X117323359Y-101836000D01*
X117305963Y-102012627D01*
X117254443Y-102182466D01*
X117170778Y-102338991D01*
X117141448Y-102374729D01*
X117058186Y-102476186D01*
X116956729Y-102559448D01*
X116920991Y-102588778D01*
X116764466Y-102672443D01*
X116594627Y-102723963D01*
X116528442Y-102730482D01*
X116462260Y-102737000D01*
X116373740Y-102737000D01*
X116307558Y-102730482D01*
X116241373Y-102723963D01*
X116071534Y-102672443D01*
X115915009Y-102588778D01*
X115879271Y-102559448D01*
X115777814Y-102476186D01*
X115694552Y-102374729D01*
X115665222Y-102338991D01*
X115581557Y-102182466D01*
X115530037Y-102012627D01*
X115512641Y-101836000D01*
X115530037Y-101659373D01*
X115581557Y-101489534D01*
X115665222Y-101333009D01*
X115694552Y-101297271D01*
X115777814Y-101195814D01*
X115879271Y-101112552D01*
X115915009Y-101083222D01*
X116071534Y-100999557D01*
X116241373Y-100948037D01*
X116307558Y-100941518D01*
X116373740Y-100935000D01*
X116462260Y-100935000D01*
X116528443Y-100941519D01*
X116528443Y-100941519D01*
G37*
G36*
X142719000Y-102737000D02*
G01*
X140917000Y-102737000D01*
X140917000Y-100935000D01*
X142719000Y-100935000D01*
X142719000Y-102737000D01*
X142719000Y-102737000D01*
G37*
G36*
X139388443Y-100941519D02*
G01*
X139454627Y-100948037D01*
X139624466Y-100999557D01*
X139780991Y-101083222D01*
X139816729Y-101112552D01*
X139918186Y-101195814D01*
X140001448Y-101297271D01*
X140030778Y-101333009D01*
X140114443Y-101489534D01*
X140165963Y-101659373D01*
X140183359Y-101836000D01*
X140165963Y-102012627D01*
X140114443Y-102182466D01*
X140030778Y-102338991D01*
X140001448Y-102374729D01*
X139918186Y-102476186D01*
X139816729Y-102559448D01*
X139780991Y-102588778D01*
X139624466Y-102672443D01*
X139454627Y-102723963D01*
X139388442Y-102730482D01*
X139322260Y-102737000D01*
X139233740Y-102737000D01*
X139167558Y-102730482D01*
X139101373Y-102723963D01*
X138931534Y-102672443D01*
X138775009Y-102588778D01*
X138739271Y-102559448D01*
X138637814Y-102476186D01*
X138554552Y-102374729D01*
X138525222Y-102338991D01*
X138441557Y-102182466D01*
X138390037Y-102012627D01*
X138372641Y-101836000D01*
X138390037Y-101659373D01*
X138441557Y-101489534D01*
X138525222Y-101333009D01*
X138554552Y-101297271D01*
X138637814Y-101195814D01*
X138739271Y-101112552D01*
X138775009Y-101083222D01*
X138931534Y-100999557D01*
X139101373Y-100948037D01*
X139167558Y-100941518D01*
X139233740Y-100935000D01*
X139322260Y-100935000D01*
X139388443Y-100941519D01*
X139388443Y-100941519D01*
G37*
G36*
X136848443Y-100941519D02*
G01*
X136914627Y-100948037D01*
X137084466Y-100999557D01*
X137240991Y-101083222D01*
X137276729Y-101112552D01*
X137378186Y-101195814D01*
X137461448Y-101297271D01*
X137490778Y-101333009D01*
X137574443Y-101489534D01*
X137625963Y-101659373D01*
X137643359Y-101836000D01*
X137625963Y-102012627D01*
X137574443Y-102182466D01*
X137490778Y-102338991D01*
X137461448Y-102374729D01*
X137378186Y-102476186D01*
X137276729Y-102559448D01*
X137240991Y-102588778D01*
X137084466Y-102672443D01*
X136914627Y-102723963D01*
X136848442Y-102730482D01*
X136782260Y-102737000D01*
X136693740Y-102737000D01*
X136627558Y-102730482D01*
X136561373Y-102723963D01*
X136391534Y-102672443D01*
X136235009Y-102588778D01*
X136199271Y-102559448D01*
X136097814Y-102476186D01*
X136014552Y-102374729D01*
X135985222Y-102338991D01*
X135901557Y-102182466D01*
X135850037Y-102012627D01*
X135832641Y-101836000D01*
X135850037Y-101659373D01*
X135901557Y-101489534D01*
X135985222Y-101333009D01*
X136014552Y-101297271D01*
X136097814Y-101195814D01*
X136199271Y-101112552D01*
X136235009Y-101083222D01*
X136391534Y-100999557D01*
X136561373Y-100948037D01*
X136627558Y-100941518D01*
X136693740Y-100935000D01*
X136782260Y-100935000D01*
X136848443Y-100941519D01*
X136848443Y-100941519D01*
G37*
G36*
X134308443Y-100941519D02*
G01*
X134374627Y-100948037D01*
X134544466Y-100999557D01*
X134700991Y-101083222D01*
X134736729Y-101112552D01*
X134838186Y-101195814D01*
X134921448Y-101297271D01*
X134950778Y-101333009D01*
X135034443Y-101489534D01*
X135085963Y-101659373D01*
X135103359Y-101836000D01*
X135085963Y-102012627D01*
X135034443Y-102182466D01*
X134950778Y-102338991D01*
X134921448Y-102374729D01*
X134838186Y-102476186D01*
X134736729Y-102559448D01*
X134700991Y-102588778D01*
X134544466Y-102672443D01*
X134374627Y-102723963D01*
X134308442Y-102730482D01*
X134242260Y-102737000D01*
X134153740Y-102737000D01*
X134087558Y-102730482D01*
X134021373Y-102723963D01*
X133851534Y-102672443D01*
X133695009Y-102588778D01*
X133659271Y-102559448D01*
X133557814Y-102476186D01*
X133474552Y-102374729D01*
X133445222Y-102338991D01*
X133361557Y-102182466D01*
X133310037Y-102012627D01*
X133292641Y-101836000D01*
X133310037Y-101659373D01*
X133361557Y-101489534D01*
X133445222Y-101333009D01*
X133474552Y-101297271D01*
X133557814Y-101195814D01*
X133659271Y-101112552D01*
X133695009Y-101083222D01*
X133851534Y-100999557D01*
X134021373Y-100948037D01*
X134087558Y-100941518D01*
X134153740Y-100935000D01*
X134242260Y-100935000D01*
X134308443Y-100941519D01*
X134308443Y-100941519D01*
G37*
G36*
X124148443Y-100941519D02*
G01*
X124214627Y-100948037D01*
X124384466Y-100999557D01*
X124540991Y-101083222D01*
X124576729Y-101112552D01*
X124678186Y-101195814D01*
X124761448Y-101297271D01*
X124790778Y-101333009D01*
X124874443Y-101489534D01*
X124925963Y-101659373D01*
X124943359Y-101836000D01*
X124925963Y-102012627D01*
X124874443Y-102182466D01*
X124790778Y-102338991D01*
X124761448Y-102374729D01*
X124678186Y-102476186D01*
X124576729Y-102559448D01*
X124540991Y-102588778D01*
X124384466Y-102672443D01*
X124214627Y-102723963D01*
X124148442Y-102730482D01*
X124082260Y-102737000D01*
X123993740Y-102737000D01*
X123927558Y-102730482D01*
X123861373Y-102723963D01*
X123691534Y-102672443D01*
X123535009Y-102588778D01*
X123499271Y-102559448D01*
X123397814Y-102476186D01*
X123314552Y-102374729D01*
X123285222Y-102338991D01*
X123201557Y-102182466D01*
X123150037Y-102012627D01*
X123132641Y-101836000D01*
X123150037Y-101659373D01*
X123201557Y-101489534D01*
X123285222Y-101333009D01*
X123314552Y-101297271D01*
X123397814Y-101195814D01*
X123499271Y-101112552D01*
X123535009Y-101083222D01*
X123691534Y-100999557D01*
X123861373Y-100948037D01*
X123927558Y-100941518D01*
X123993740Y-100935000D01*
X124082260Y-100935000D01*
X124148443Y-100941519D01*
X124148443Y-100941519D01*
G37*
G36*
X131768443Y-100941519D02*
G01*
X131834627Y-100948037D01*
X132004466Y-100999557D01*
X132160991Y-101083222D01*
X132196729Y-101112552D01*
X132298186Y-101195814D01*
X132381448Y-101297271D01*
X132410778Y-101333009D01*
X132494443Y-101489534D01*
X132545963Y-101659373D01*
X132563359Y-101836000D01*
X132545963Y-102012627D01*
X132494443Y-102182466D01*
X132410778Y-102338991D01*
X132381448Y-102374729D01*
X132298186Y-102476186D01*
X132196729Y-102559448D01*
X132160991Y-102588778D01*
X132004466Y-102672443D01*
X131834627Y-102723963D01*
X131768442Y-102730482D01*
X131702260Y-102737000D01*
X131613740Y-102737000D01*
X131547558Y-102730482D01*
X131481373Y-102723963D01*
X131311534Y-102672443D01*
X131155009Y-102588778D01*
X131119271Y-102559448D01*
X131017814Y-102476186D01*
X130934552Y-102374729D01*
X130905222Y-102338991D01*
X130821557Y-102182466D01*
X130770037Y-102012627D01*
X130752641Y-101836000D01*
X130770037Y-101659373D01*
X130821557Y-101489534D01*
X130905222Y-101333009D01*
X130934552Y-101297271D01*
X131017814Y-101195814D01*
X131119271Y-101112552D01*
X131155009Y-101083222D01*
X131311534Y-100999557D01*
X131481373Y-100948037D01*
X131547558Y-100941518D01*
X131613740Y-100935000D01*
X131702260Y-100935000D01*
X131768443Y-100941519D01*
X131768443Y-100941519D01*
G37*
G36*
X129228443Y-100941519D02*
G01*
X129294627Y-100948037D01*
X129464466Y-100999557D01*
X129620991Y-101083222D01*
X129656729Y-101112552D01*
X129758186Y-101195814D01*
X129841448Y-101297271D01*
X129870778Y-101333009D01*
X129954443Y-101489534D01*
X130005963Y-101659373D01*
X130023359Y-101836000D01*
X130005963Y-102012627D01*
X129954443Y-102182466D01*
X129870778Y-102338991D01*
X129841448Y-102374729D01*
X129758186Y-102476186D01*
X129656729Y-102559448D01*
X129620991Y-102588778D01*
X129464466Y-102672443D01*
X129294627Y-102723963D01*
X129228442Y-102730482D01*
X129162260Y-102737000D01*
X129073740Y-102737000D01*
X129007558Y-102730482D01*
X128941373Y-102723963D01*
X128771534Y-102672443D01*
X128615009Y-102588778D01*
X128579271Y-102559448D01*
X128477814Y-102476186D01*
X128394552Y-102374729D01*
X128365222Y-102338991D01*
X128281557Y-102182466D01*
X128230037Y-102012627D01*
X128212641Y-101836000D01*
X128230037Y-101659373D01*
X128281557Y-101489534D01*
X128365222Y-101333009D01*
X128394552Y-101297271D01*
X128477814Y-101195814D01*
X128579271Y-101112552D01*
X128615009Y-101083222D01*
X128771534Y-100999557D01*
X128941373Y-100948037D01*
X129007558Y-100941518D01*
X129073740Y-100935000D01*
X129162260Y-100935000D01*
X129228443Y-100941519D01*
X129228443Y-100941519D01*
G37*
G36*
X126688443Y-100941519D02*
G01*
X126754627Y-100948037D01*
X126924466Y-100999557D01*
X127080991Y-101083222D01*
X127116729Y-101112552D01*
X127218186Y-101195814D01*
X127301448Y-101297271D01*
X127330778Y-101333009D01*
X127414443Y-101489534D01*
X127465963Y-101659373D01*
X127483359Y-101836000D01*
X127465963Y-102012627D01*
X127414443Y-102182466D01*
X127330778Y-102338991D01*
X127301448Y-102374729D01*
X127218186Y-102476186D01*
X127116729Y-102559448D01*
X127080991Y-102588778D01*
X126924466Y-102672443D01*
X126754627Y-102723963D01*
X126688442Y-102730482D01*
X126622260Y-102737000D01*
X126533740Y-102737000D01*
X126467558Y-102730482D01*
X126401373Y-102723963D01*
X126231534Y-102672443D01*
X126075009Y-102588778D01*
X126039271Y-102559448D01*
X125937814Y-102476186D01*
X125854552Y-102374729D01*
X125825222Y-102338991D01*
X125741557Y-102182466D01*
X125690037Y-102012627D01*
X125672641Y-101836000D01*
X125690037Y-101659373D01*
X125741557Y-101489534D01*
X125825222Y-101333009D01*
X125854552Y-101297271D01*
X125937814Y-101195814D01*
X126039271Y-101112552D01*
X126075009Y-101083222D01*
X126231534Y-100999557D01*
X126401373Y-100948037D01*
X126467558Y-100941518D01*
X126533740Y-100935000D01*
X126622260Y-100935000D01*
X126688443Y-100941519D01*
X126688443Y-100941519D01*
G37*
G36*
X145176000Y-102261000D02*
G01*
X143804000Y-102261000D01*
X143804000Y-101399000D01*
X145176000Y-101399000D01*
X145176000Y-102261000D01*
X145176000Y-102261000D01*
G37*
G36*
X152796000Y-102261000D02*
G01*
X151424000Y-102261000D01*
X151424000Y-101399000D01*
X152796000Y-101399000D01*
X152796000Y-102261000D01*
X152796000Y-102261000D01*
G37*
M02*
