G04 #@! TF.GenerationSoftware,KiCad,Pcbnew,5.1.2-f72e74a~84~ubuntu18.04.1*
G04 #@! TF.CreationDate,2019-09-23T02:40:17+02:00*
G04 #@! TF.ProjectId,board,626f6172-642e-46b6-9963-61645f706362,rev?*
G04 #@! TF.SameCoordinates,Original*
G04 #@! TF.FileFunction,Copper,L2,Inr*
G04 #@! TF.FilePolarity,Positive*
%FSLAX46Y46*%
G04 Gerber Fmt 4.6, Leading zero omitted, Abs format (unit mm)*
G04 Created by KiCad (PCBNEW 5.1.2-f72e74a~84~ubuntu18.04.1) date 2019-09-23 02:40:17*
%MOMM*%
%LPD*%
G04 APERTURE LIST*
%ADD10O,1.700000X1.700000*%
%ADD11R,1.700000X1.700000*%
%ADD12C,1.800000*%
%ADD13R,1.800000X1.800000*%
%ADD14C,0.800000*%
%ADD15C,0.500000*%
%ADD16C,0.152400*%
%ADD17C,0.254000*%
G04 APERTURE END LIST*
D10*
X108798000Y-101836000D03*
X111338000Y-101836000D03*
X113878000Y-101836000D03*
X116418000Y-101836000D03*
X118958000Y-101836000D03*
X121498000Y-101836000D03*
X124038000Y-101836000D03*
X126578000Y-101836000D03*
X129118000Y-101836000D03*
X131658000Y-101836000D03*
X134198000Y-101836000D03*
X136738000Y-101836000D03*
X139278000Y-101836000D03*
D11*
X141818000Y-101836000D03*
X141818000Y-117036000D03*
D10*
X139278000Y-117036000D03*
X136738000Y-117036000D03*
X134198000Y-117036000D03*
X131658000Y-117036000D03*
X129118000Y-117036000D03*
X126578000Y-117036000D03*
X124038000Y-117036000D03*
X121498000Y-117036000D03*
X118958000Y-117036000D03*
X116418000Y-117036000D03*
X113878000Y-117036000D03*
X111338000Y-117036000D03*
X108798000Y-117036000D03*
X141580000Y-132100000D03*
X139040000Y-132100000D03*
X136500000Y-132100000D03*
X133960000Y-132100000D03*
X131420000Y-132100000D03*
X128880000Y-132100000D03*
X126340000Y-132100000D03*
D11*
X123800000Y-132100000D03*
D12*
X101854000Y-102362000D03*
X104394000Y-103632000D03*
D13*
X104394000Y-108712000D03*
D12*
X101854000Y-107442000D03*
X104394000Y-106172000D03*
X101854000Y-104902000D03*
D13*
X151070000Y-112505000D03*
D12*
X148530000Y-111235000D03*
X151070000Y-109965000D03*
X148530000Y-108695000D03*
D11*
X141900000Y-108000000D03*
D10*
X144440000Y-108000000D03*
X141900000Y-110540000D03*
X144440000Y-110540000D03*
D14*
X115800000Y-126200000D03*
X110900000Y-124000000D03*
X112200000Y-123900000D03*
X112600000Y-122300000D03*
X111600000Y-122300000D03*
X110700000Y-122200000D03*
X112100000Y-121600000D03*
X111200000Y-121500000D03*
X112500000Y-120800000D03*
X111600000Y-120800000D03*
X110700000Y-120800000D03*
X112000000Y-120000000D03*
X111100000Y-120000000D03*
X112400000Y-119200000D03*
X111500000Y-119200000D03*
X110600000Y-119200000D03*
X115900000Y-122250000D03*
X115000000Y-122200000D03*
X114100000Y-122200000D03*
X115450000Y-121450000D03*
X114600000Y-121450000D03*
X115850000Y-120700000D03*
X115000000Y-120700000D03*
X114150000Y-120700000D03*
X115450000Y-119950000D03*
X114600000Y-119950000D03*
X115850000Y-119200000D03*
X115000000Y-119200000D03*
X114150000Y-119200000D03*
X107188000Y-122428000D03*
X106680000Y-119380000D03*
X106680000Y-121412000D03*
X107188000Y-120396000D03*
X105664000Y-121412000D03*
X105664000Y-119380000D03*
X108204000Y-122428000D03*
X107696000Y-121412000D03*
X108331000Y-120396000D03*
X107696000Y-119380000D03*
X108966000Y-121412000D03*
X106172000Y-122428000D03*
X106172000Y-120396000D03*
X105156000Y-120396000D03*
X105156000Y-122428000D03*
X107188000Y-127508000D03*
X107188000Y-129540000D03*
X107696000Y-128524000D03*
X107696000Y-130556000D03*
X107188000Y-131572000D03*
X106680000Y-132588000D03*
X105664000Y-132588000D03*
X105156000Y-131572000D03*
X105156000Y-129540000D03*
X105664000Y-130556000D03*
X106172000Y-131572000D03*
X106680000Y-130556000D03*
X106172000Y-129540000D03*
X106680000Y-128524000D03*
X105664000Y-128524000D03*
X106172000Y-127508000D03*
X105156000Y-127508000D03*
X107696000Y-132588000D03*
X126300000Y-107000000D03*
X114000000Y-107400000D03*
X117100000Y-103828600D03*
X148500000Y-119400000D03*
X115900000Y-128100000D03*
X112371400Y-106671400D03*
X106300000Y-104100000D03*
X113700000Y-109300000D03*
X116100000Y-105600000D03*
X114000000Y-112700000D03*
X140500000Y-122400000D03*
X140100000Y-121600000D03*
X141000000Y-121600000D03*
X139600000Y-122400000D03*
X132500000Y-121600000D03*
X131200000Y-122400000D03*
X132100000Y-122400000D03*
X131600000Y-121600000D03*
X122900000Y-122400000D03*
X123700000Y-122400000D03*
X123300000Y-121600000D03*
X124100000Y-121600000D03*
D15*
X150660100Y-103047800D03*
X149863000Y-117248000D03*
X151641000Y-128297000D03*
D14*
X100584000Y-123444000D03*
X101600000Y-123444000D03*
X102616000Y-123444000D03*
X101092000Y-124460000D03*
X102108000Y-124460000D03*
X100584000Y-125476000D03*
X101600000Y-125476000D03*
X102616000Y-125476000D03*
X101092000Y-126492000D03*
X102108000Y-126492000D03*
X100584000Y-127508000D03*
X100584000Y-128524000D03*
X100584000Y-129540000D03*
X100584000Y-130556000D03*
X100584000Y-131572000D03*
X100584000Y-132588000D03*
X100584000Y-122428000D03*
X100584000Y-121412000D03*
X100584000Y-120396000D03*
X137366600Y-125000000D03*
X124500000Y-108749600D03*
X128000000Y-108000000D03*
X138000000Y-122800000D03*
X124600000Y-110200000D03*
X128000000Y-110200000D03*
X130000000Y-122300000D03*
X129000000Y-124500000D03*
X120700000Y-113200000D03*
X119300000Y-114300000D03*
X120500000Y-124500000D03*
X121900000Y-122200000D03*
X117800000Y-113600000D03*
X100577400Y-110400000D03*
X111800000Y-104000000D03*
X114400000Y-105600000D03*
X122900000Y-104900000D03*
D15*
X148339000Y-128551000D03*
D14*
X149800000Y-120709402D03*
X114000000Y-128500000D03*
X113000000Y-128500000D03*
X139000000Y-113600000D03*
X137224999Y-107924999D03*
X104100000Y-112200000D03*
X133700000Y-124700000D03*
X124300000Y-111500000D03*
X125250000Y-124500000D03*
X116750000Y-124500000D03*
X118713188Y-113113188D03*
X146180000Y-125757000D03*
X152022000Y-133377000D03*
X150625000Y-133377000D03*
X149355000Y-133377000D03*
X146307000Y-128297000D03*
X147196000Y-132615000D03*
X137100000Y-109000000D03*
X137500000Y-106100000D03*
X112000000Y-128500000D03*
D16*
X121300000Y-107000000D02*
X126300000Y-107000000D01*
X112600000Y-115700000D02*
X121300000Y-107000000D01*
X112600000Y-118434315D02*
X112600000Y-115700000D01*
X112400000Y-118634315D02*
X112600000Y-118434315D01*
X112400000Y-119200000D02*
X112400000Y-118634315D01*
X114399999Y-107000001D02*
X114000000Y-107400000D01*
X115028601Y-106371399D02*
X114399999Y-107000001D01*
X115028601Y-105334314D02*
X115028601Y-106371399D01*
X116534315Y-103828600D02*
X115028601Y-105334314D01*
X117100000Y-103828600D02*
X116534315Y-103828600D01*
X126476330Y-128100000D02*
X115900000Y-128100000D01*
X131420000Y-132100000D02*
X127420000Y-128100000D01*
X127420000Y-128100000D02*
X126476330Y-128100000D01*
X138569190Y-115204810D02*
X141395190Y-115204810D01*
X136738000Y-117036000D02*
X138569190Y-115204810D01*
X141395190Y-115204810D02*
X143900000Y-112700000D01*
X143900000Y-112700000D02*
X149000000Y-112700000D01*
X149195000Y-112505000D02*
X151070000Y-112505000D01*
X149000000Y-112700000D02*
X149195000Y-112505000D01*
X148500000Y-119400000D02*
X149300000Y-119400000D01*
X151070000Y-117630000D02*
X151070000Y-112505000D01*
X149300000Y-119400000D02*
X151070000Y-117630000D01*
X132269999Y-131250001D02*
X131420000Y-132100000D01*
X138628601Y-124891399D02*
X132269999Y-131250001D01*
X138628601Y-122528601D02*
X138628601Y-124891399D01*
X136738000Y-120638000D02*
X138628601Y-122528601D01*
X136738000Y-117036000D02*
X136738000Y-120638000D01*
X142749999Y-111549999D02*
X143900000Y-112700000D01*
X142749999Y-111389999D02*
X142749999Y-111549999D01*
X141900000Y-110540000D02*
X142749999Y-111389999D01*
X125228601Y-109478201D02*
X125228601Y-110828601D01*
X124500000Y-108749600D02*
X125228601Y-109478201D01*
X125228601Y-110828601D02*
X130400000Y-116000000D01*
X136966601Y-124600001D02*
X136700001Y-124600001D01*
X137366600Y-125000000D02*
X136966601Y-124600001D01*
X130400000Y-118300000D02*
X130400000Y-116000000D01*
X136700001Y-124600001D02*
X130400000Y-118300000D01*
X139278000Y-126782000D02*
X139278000Y-117036000D01*
X133960000Y-132100000D02*
X139278000Y-126782000D01*
X124300000Y-111500000D02*
X124300000Y-112500000D01*
X124300000Y-112500000D02*
X127800000Y-116000000D01*
X133134315Y-124700000D02*
X133700000Y-124700000D01*
X131469670Y-124700000D02*
X133134315Y-124700000D01*
X127800000Y-121030330D02*
X131469670Y-124700000D01*
X127800000Y-116000000D02*
X127800000Y-121030330D01*
X118713188Y-113678873D02*
X117700000Y-114692061D01*
X118713188Y-113113188D02*
X118713188Y-113678873D01*
X117700000Y-123550000D02*
X116750000Y-124500000D01*
X117700000Y-114692061D02*
X117700000Y-123550000D01*
X146579999Y-126156999D02*
X147956999Y-126156999D01*
X146180000Y-125757000D02*
X146579999Y-126156999D01*
X152022000Y-130222000D02*
X152022000Y-131622000D01*
X147956999Y-126156999D02*
X152022000Y-130222000D01*
X152022000Y-131622000D02*
X152022000Y-133377000D01*
X149355000Y-132869000D02*
X149355000Y-133377000D01*
X147958000Y-131345000D02*
X149355000Y-132742000D01*
X146688000Y-131345000D02*
X147958000Y-131345000D01*
X149355000Y-132742000D02*
X149355000Y-132869000D01*
X146307000Y-130964000D02*
X146688000Y-131345000D01*
X146307000Y-128297000D02*
X146307000Y-130964000D01*
X141900000Y-108000000D02*
X141900000Y-106000000D01*
X131686810Y-104404810D02*
X129967999Y-102685999D01*
X140304810Y-104404810D02*
X131686810Y-104404810D01*
X129967999Y-102685999D02*
X129118000Y-101836000D01*
X141900000Y-106000000D02*
X140304810Y-104404810D01*
X143590001Y-107150001D02*
X144440000Y-108000000D01*
X131658000Y-101836000D02*
X133922000Y-104100000D01*
X140540000Y-104100000D02*
X143590001Y-107150001D01*
X133922000Y-104100000D02*
X140540000Y-104100000D01*
D17*
G36*
X110046709Y-122398174D02*
G01*
X110097924Y-122521816D01*
X110172276Y-122633092D01*
X110266908Y-122727724D01*
X110378184Y-122802076D01*
X110501826Y-122853291D01*
X110633085Y-122879400D01*
X110766915Y-122879400D01*
X110898174Y-122853291D01*
X111021816Y-122802076D01*
X111093418Y-122754234D01*
X111166908Y-122827724D01*
X111278184Y-122902076D01*
X111401826Y-122953291D01*
X111533085Y-122979400D01*
X111666915Y-122979400D01*
X111798174Y-122953291D01*
X111921816Y-122902076D01*
X112033092Y-122827724D01*
X112100000Y-122760816D01*
X112166908Y-122827724D01*
X112278184Y-122902076D01*
X112401826Y-122953291D01*
X112533085Y-122979400D01*
X112666915Y-122979400D01*
X112798174Y-122953291D01*
X112921816Y-122902076D01*
X113033092Y-122827724D01*
X113127724Y-122733092D01*
X113202076Y-122621816D01*
X113253291Y-122498174D01*
X113279400Y-122366915D01*
X113279400Y-122338232D01*
X113300165Y-122442627D01*
X113362868Y-122594005D01*
X113453899Y-122730242D01*
X113569758Y-122846101D01*
X113705995Y-122937132D01*
X113857373Y-122999835D01*
X114018075Y-123031800D01*
X114181925Y-123031800D01*
X114342627Y-122999835D01*
X114494005Y-122937132D01*
X114550000Y-122899717D01*
X114605995Y-122937132D01*
X114757373Y-122999835D01*
X114918075Y-123031800D01*
X115081925Y-123031800D01*
X115242627Y-122999835D01*
X115394005Y-122937132D01*
X115412585Y-122924717D01*
X115505995Y-122987132D01*
X115657373Y-123049835D01*
X115818075Y-123081800D01*
X115981925Y-123081800D01*
X116142627Y-123049835D01*
X116294005Y-122987132D01*
X116430242Y-122896101D01*
X116546101Y-122780242D01*
X116637132Y-122644005D01*
X116673000Y-122557412D01*
X116673000Y-123822606D01*
X116551826Y-123846709D01*
X116428184Y-123897924D01*
X116316908Y-123972276D01*
X116222276Y-124066908D01*
X116147924Y-124178184D01*
X116096709Y-124301826D01*
X116070600Y-124433085D01*
X116070600Y-124566915D01*
X116096709Y-124698174D01*
X116147924Y-124821816D01*
X116222276Y-124933092D01*
X116316908Y-125027724D01*
X116428184Y-125102076D01*
X116551826Y-125153291D01*
X116673000Y-125177394D01*
X116673000Y-127273000D01*
X110027000Y-127273000D01*
X110027000Y-122299090D01*
X110046709Y-122398174D01*
X110046709Y-122398174D01*
G37*
X110046709Y-122398174D02*
X110097924Y-122521816D01*
X110172276Y-122633092D01*
X110266908Y-122727724D01*
X110378184Y-122802076D01*
X110501826Y-122853291D01*
X110633085Y-122879400D01*
X110766915Y-122879400D01*
X110898174Y-122853291D01*
X111021816Y-122802076D01*
X111093418Y-122754234D01*
X111166908Y-122827724D01*
X111278184Y-122902076D01*
X111401826Y-122953291D01*
X111533085Y-122979400D01*
X111666915Y-122979400D01*
X111798174Y-122953291D01*
X111921816Y-122902076D01*
X112033092Y-122827724D01*
X112100000Y-122760816D01*
X112166908Y-122827724D01*
X112278184Y-122902076D01*
X112401826Y-122953291D01*
X112533085Y-122979400D01*
X112666915Y-122979400D01*
X112798174Y-122953291D01*
X112921816Y-122902076D01*
X113033092Y-122827724D01*
X113127724Y-122733092D01*
X113202076Y-122621816D01*
X113253291Y-122498174D01*
X113279400Y-122366915D01*
X113279400Y-122338232D01*
X113300165Y-122442627D01*
X113362868Y-122594005D01*
X113453899Y-122730242D01*
X113569758Y-122846101D01*
X113705995Y-122937132D01*
X113857373Y-122999835D01*
X114018075Y-123031800D01*
X114181925Y-123031800D01*
X114342627Y-122999835D01*
X114494005Y-122937132D01*
X114550000Y-122899717D01*
X114605995Y-122937132D01*
X114757373Y-122999835D01*
X114918075Y-123031800D01*
X115081925Y-123031800D01*
X115242627Y-122999835D01*
X115394005Y-122937132D01*
X115412585Y-122924717D01*
X115505995Y-122987132D01*
X115657373Y-123049835D01*
X115818075Y-123081800D01*
X115981925Y-123081800D01*
X116142627Y-123049835D01*
X116294005Y-122987132D01*
X116430242Y-122896101D01*
X116546101Y-122780242D01*
X116637132Y-122644005D01*
X116673000Y-122557412D01*
X116673000Y-123822606D01*
X116551826Y-123846709D01*
X116428184Y-123897924D01*
X116316908Y-123972276D01*
X116222276Y-124066908D01*
X116147924Y-124178184D01*
X116096709Y-124301826D01*
X116070600Y-124433085D01*
X116070600Y-124566915D01*
X116096709Y-124698174D01*
X116147924Y-124821816D01*
X116222276Y-124933092D01*
X116316908Y-125027724D01*
X116428184Y-125102076D01*
X116551826Y-125153291D01*
X116673000Y-125177394D01*
X116673000Y-127273000D01*
X110027000Y-127273000D01*
X110027000Y-122299090D01*
X110046709Y-122398174D01*
M02*
