G04 #@! TF.GenerationSoftware,KiCad,Pcbnew,5.1.2-f72e74a~84~ubuntu18.04.1*
G04 #@! TF.CreationDate,2019-09-23T02:40:17+02:00*
G04 #@! TF.ProjectId,board,626f6172-642e-46b6-9963-61645f706362,rev?*
G04 #@! TF.SameCoordinates,Original*
G04 #@! TF.FileFunction,Paste,Bot*
G04 #@! TF.FilePolarity,Positive*
%FSLAX46Y46*%
G04 Gerber Fmt 4.6, Leading zero omitted, Abs format (unit mm)*
G04 Created by KiCad (PCBNEW 5.1.2-f72e74a~84~ubuntu18.04.1) date 2019-09-23 02:40:17*
%MOMM*%
%LPD*%
G04 APERTURE LIST*
%ADD10C,0.025400*%
%ADD11R,1.100000X0.400000*%
%ADD12C,0.100000*%
%ADD13C,0.590000*%
%ADD14C,0.975000*%
%ADD15O,0.750000X0.300000*%
%ADD16O,0.300000X0.750000*%
%ADD17R,0.540000X0.540000*%
%ADD18R,1.752600X2.489200*%
%ADD19R,0.812800X0.304800*%
%ADD20R,2.000000X3.500000*%
%ADD21R,2.000000X6.000000*%
%ADD22R,2.400000X3.480000*%
%ADD23R,1.500000X1.600000*%
%ADD24R,0.500000X1.600000*%
%ADD25R,0.690000X0.690000*%
%ADD26R,0.300000X0.500000*%
%ADD27R,0.500000X0.300000*%
G04 APERTURE END LIST*
D10*
G36*
X109588300Y-104673400D02*
G01*
X109588300Y-107162600D01*
X107835700Y-107162600D01*
X107835700Y-104673400D01*
X109588300Y-104673400D01*
G37*
X109588300Y-104673400D02*
X109588300Y-107162600D01*
X107835700Y-107162600D01*
X107835700Y-104673400D01*
X109588300Y-104673400D01*
D11*
X146697000Y-118813000D03*
X146697000Y-119463000D03*
X146697000Y-120113000D03*
X146697000Y-120763000D03*
X150997000Y-120763000D03*
X150997000Y-120113000D03*
X150997000Y-119463000D03*
X150997000Y-118813000D03*
D12*
G36*
X131436958Y-107720710D02*
G01*
X131451276Y-107722834D01*
X131465317Y-107726351D01*
X131478946Y-107731228D01*
X131492031Y-107737417D01*
X131504447Y-107744858D01*
X131516073Y-107753481D01*
X131526798Y-107763202D01*
X131536519Y-107773927D01*
X131545142Y-107785553D01*
X131552583Y-107797969D01*
X131558772Y-107811054D01*
X131563649Y-107824683D01*
X131567166Y-107838724D01*
X131569290Y-107853042D01*
X131570000Y-107867500D01*
X131570000Y-108162500D01*
X131569290Y-108176958D01*
X131567166Y-108191276D01*
X131563649Y-108205317D01*
X131558772Y-108218946D01*
X131552583Y-108232031D01*
X131545142Y-108244447D01*
X131536519Y-108256073D01*
X131526798Y-108266798D01*
X131516073Y-108276519D01*
X131504447Y-108285142D01*
X131492031Y-108292583D01*
X131478946Y-108298772D01*
X131465317Y-108303649D01*
X131451276Y-108307166D01*
X131436958Y-108309290D01*
X131422500Y-108310000D01*
X131077500Y-108310000D01*
X131063042Y-108309290D01*
X131048724Y-108307166D01*
X131034683Y-108303649D01*
X131021054Y-108298772D01*
X131007969Y-108292583D01*
X130995553Y-108285142D01*
X130983927Y-108276519D01*
X130973202Y-108266798D01*
X130963481Y-108256073D01*
X130954858Y-108244447D01*
X130947417Y-108232031D01*
X130941228Y-108218946D01*
X130936351Y-108205317D01*
X130932834Y-108191276D01*
X130930710Y-108176958D01*
X130930000Y-108162500D01*
X130930000Y-107867500D01*
X130930710Y-107853042D01*
X130932834Y-107838724D01*
X130936351Y-107824683D01*
X130941228Y-107811054D01*
X130947417Y-107797969D01*
X130954858Y-107785553D01*
X130963481Y-107773927D01*
X130973202Y-107763202D01*
X130983927Y-107753481D01*
X130995553Y-107744858D01*
X131007969Y-107737417D01*
X131021054Y-107731228D01*
X131034683Y-107726351D01*
X131048724Y-107722834D01*
X131063042Y-107720710D01*
X131077500Y-107720000D01*
X131422500Y-107720000D01*
X131436958Y-107720710D01*
X131436958Y-107720710D01*
G37*
D13*
X131250000Y-108015000D03*
D12*
G36*
X131436958Y-108690710D02*
G01*
X131451276Y-108692834D01*
X131465317Y-108696351D01*
X131478946Y-108701228D01*
X131492031Y-108707417D01*
X131504447Y-108714858D01*
X131516073Y-108723481D01*
X131526798Y-108733202D01*
X131536519Y-108743927D01*
X131545142Y-108755553D01*
X131552583Y-108767969D01*
X131558772Y-108781054D01*
X131563649Y-108794683D01*
X131567166Y-108808724D01*
X131569290Y-108823042D01*
X131570000Y-108837500D01*
X131570000Y-109132500D01*
X131569290Y-109146958D01*
X131567166Y-109161276D01*
X131563649Y-109175317D01*
X131558772Y-109188946D01*
X131552583Y-109202031D01*
X131545142Y-109214447D01*
X131536519Y-109226073D01*
X131526798Y-109236798D01*
X131516073Y-109246519D01*
X131504447Y-109255142D01*
X131492031Y-109262583D01*
X131478946Y-109268772D01*
X131465317Y-109273649D01*
X131451276Y-109277166D01*
X131436958Y-109279290D01*
X131422500Y-109280000D01*
X131077500Y-109280000D01*
X131063042Y-109279290D01*
X131048724Y-109277166D01*
X131034683Y-109273649D01*
X131021054Y-109268772D01*
X131007969Y-109262583D01*
X130995553Y-109255142D01*
X130983927Y-109246519D01*
X130973202Y-109236798D01*
X130963481Y-109226073D01*
X130954858Y-109214447D01*
X130947417Y-109202031D01*
X130941228Y-109188946D01*
X130936351Y-109175317D01*
X130932834Y-109161276D01*
X130930710Y-109146958D01*
X130930000Y-109132500D01*
X130930000Y-108837500D01*
X130930710Y-108823042D01*
X130932834Y-108808724D01*
X130936351Y-108794683D01*
X130941228Y-108781054D01*
X130947417Y-108767969D01*
X130954858Y-108755553D01*
X130963481Y-108743927D01*
X130973202Y-108733202D01*
X130983927Y-108723481D01*
X130995553Y-108714858D01*
X131007969Y-108707417D01*
X131021054Y-108701228D01*
X131034683Y-108696351D01*
X131048724Y-108692834D01*
X131063042Y-108690710D01*
X131077500Y-108690000D01*
X131422500Y-108690000D01*
X131436958Y-108690710D01*
X131436958Y-108690710D01*
G37*
D13*
X131250000Y-108985000D03*
D12*
G36*
X138586958Y-106590710D02*
G01*
X138601276Y-106592834D01*
X138615317Y-106596351D01*
X138628946Y-106601228D01*
X138642031Y-106607417D01*
X138654447Y-106614858D01*
X138666073Y-106623481D01*
X138676798Y-106633202D01*
X138686519Y-106643927D01*
X138695142Y-106655553D01*
X138702583Y-106667969D01*
X138708772Y-106681054D01*
X138713649Y-106694683D01*
X138717166Y-106708724D01*
X138719290Y-106723042D01*
X138720000Y-106737500D01*
X138720000Y-107032500D01*
X138719290Y-107046958D01*
X138717166Y-107061276D01*
X138713649Y-107075317D01*
X138708772Y-107088946D01*
X138702583Y-107102031D01*
X138695142Y-107114447D01*
X138686519Y-107126073D01*
X138676798Y-107136798D01*
X138666073Y-107146519D01*
X138654447Y-107155142D01*
X138642031Y-107162583D01*
X138628946Y-107168772D01*
X138615317Y-107173649D01*
X138601276Y-107177166D01*
X138586958Y-107179290D01*
X138572500Y-107180000D01*
X138227500Y-107180000D01*
X138213042Y-107179290D01*
X138198724Y-107177166D01*
X138184683Y-107173649D01*
X138171054Y-107168772D01*
X138157969Y-107162583D01*
X138145553Y-107155142D01*
X138133927Y-107146519D01*
X138123202Y-107136798D01*
X138113481Y-107126073D01*
X138104858Y-107114447D01*
X138097417Y-107102031D01*
X138091228Y-107088946D01*
X138086351Y-107075317D01*
X138082834Y-107061276D01*
X138080710Y-107046958D01*
X138080000Y-107032500D01*
X138080000Y-106737500D01*
X138080710Y-106723042D01*
X138082834Y-106708724D01*
X138086351Y-106694683D01*
X138091228Y-106681054D01*
X138097417Y-106667969D01*
X138104858Y-106655553D01*
X138113481Y-106643927D01*
X138123202Y-106633202D01*
X138133927Y-106623481D01*
X138145553Y-106614858D01*
X138157969Y-106607417D01*
X138171054Y-106601228D01*
X138184683Y-106596351D01*
X138198724Y-106592834D01*
X138213042Y-106590710D01*
X138227500Y-106590000D01*
X138572500Y-106590000D01*
X138586958Y-106590710D01*
X138586958Y-106590710D01*
G37*
D13*
X138400000Y-106885000D03*
D12*
G36*
X138586958Y-105620710D02*
G01*
X138601276Y-105622834D01*
X138615317Y-105626351D01*
X138628946Y-105631228D01*
X138642031Y-105637417D01*
X138654447Y-105644858D01*
X138666073Y-105653481D01*
X138676798Y-105663202D01*
X138686519Y-105673927D01*
X138695142Y-105685553D01*
X138702583Y-105697969D01*
X138708772Y-105711054D01*
X138713649Y-105724683D01*
X138717166Y-105738724D01*
X138719290Y-105753042D01*
X138720000Y-105767500D01*
X138720000Y-106062500D01*
X138719290Y-106076958D01*
X138717166Y-106091276D01*
X138713649Y-106105317D01*
X138708772Y-106118946D01*
X138702583Y-106132031D01*
X138695142Y-106144447D01*
X138686519Y-106156073D01*
X138676798Y-106166798D01*
X138666073Y-106176519D01*
X138654447Y-106185142D01*
X138642031Y-106192583D01*
X138628946Y-106198772D01*
X138615317Y-106203649D01*
X138601276Y-106207166D01*
X138586958Y-106209290D01*
X138572500Y-106210000D01*
X138227500Y-106210000D01*
X138213042Y-106209290D01*
X138198724Y-106207166D01*
X138184683Y-106203649D01*
X138171054Y-106198772D01*
X138157969Y-106192583D01*
X138145553Y-106185142D01*
X138133927Y-106176519D01*
X138123202Y-106166798D01*
X138113481Y-106156073D01*
X138104858Y-106144447D01*
X138097417Y-106132031D01*
X138091228Y-106118946D01*
X138086351Y-106105317D01*
X138082834Y-106091276D01*
X138080710Y-106076958D01*
X138080000Y-106062500D01*
X138080000Y-105767500D01*
X138080710Y-105753042D01*
X138082834Y-105738724D01*
X138086351Y-105724683D01*
X138091228Y-105711054D01*
X138097417Y-105697969D01*
X138104858Y-105685553D01*
X138113481Y-105673927D01*
X138123202Y-105663202D01*
X138133927Y-105653481D01*
X138145553Y-105644858D01*
X138157969Y-105637417D01*
X138171054Y-105631228D01*
X138184683Y-105626351D01*
X138198724Y-105622834D01*
X138213042Y-105620710D01*
X138227500Y-105620000D01*
X138572500Y-105620000D01*
X138586958Y-105620710D01*
X138586958Y-105620710D01*
G37*
D13*
X138400000Y-105915000D03*
D12*
G36*
X138586958Y-107820710D02*
G01*
X138601276Y-107822834D01*
X138615317Y-107826351D01*
X138628946Y-107831228D01*
X138642031Y-107837417D01*
X138654447Y-107844858D01*
X138666073Y-107853481D01*
X138676798Y-107863202D01*
X138686519Y-107873927D01*
X138695142Y-107885553D01*
X138702583Y-107897969D01*
X138708772Y-107911054D01*
X138713649Y-107924683D01*
X138717166Y-107938724D01*
X138719290Y-107953042D01*
X138720000Y-107967500D01*
X138720000Y-108262500D01*
X138719290Y-108276958D01*
X138717166Y-108291276D01*
X138713649Y-108305317D01*
X138708772Y-108318946D01*
X138702583Y-108332031D01*
X138695142Y-108344447D01*
X138686519Y-108356073D01*
X138676798Y-108366798D01*
X138666073Y-108376519D01*
X138654447Y-108385142D01*
X138642031Y-108392583D01*
X138628946Y-108398772D01*
X138615317Y-108403649D01*
X138601276Y-108407166D01*
X138586958Y-108409290D01*
X138572500Y-108410000D01*
X138227500Y-108410000D01*
X138213042Y-108409290D01*
X138198724Y-108407166D01*
X138184683Y-108403649D01*
X138171054Y-108398772D01*
X138157969Y-108392583D01*
X138145553Y-108385142D01*
X138133927Y-108376519D01*
X138123202Y-108366798D01*
X138113481Y-108356073D01*
X138104858Y-108344447D01*
X138097417Y-108332031D01*
X138091228Y-108318946D01*
X138086351Y-108305317D01*
X138082834Y-108291276D01*
X138080710Y-108276958D01*
X138080000Y-108262500D01*
X138080000Y-107967500D01*
X138080710Y-107953042D01*
X138082834Y-107938724D01*
X138086351Y-107924683D01*
X138091228Y-107911054D01*
X138097417Y-107897969D01*
X138104858Y-107885553D01*
X138113481Y-107873927D01*
X138123202Y-107863202D01*
X138133927Y-107853481D01*
X138145553Y-107844858D01*
X138157969Y-107837417D01*
X138171054Y-107831228D01*
X138184683Y-107826351D01*
X138198724Y-107822834D01*
X138213042Y-107820710D01*
X138227500Y-107820000D01*
X138572500Y-107820000D01*
X138586958Y-107820710D01*
X138586958Y-107820710D01*
G37*
D13*
X138400000Y-108115000D03*
D12*
G36*
X138586958Y-108790710D02*
G01*
X138601276Y-108792834D01*
X138615317Y-108796351D01*
X138628946Y-108801228D01*
X138642031Y-108807417D01*
X138654447Y-108814858D01*
X138666073Y-108823481D01*
X138676798Y-108833202D01*
X138686519Y-108843927D01*
X138695142Y-108855553D01*
X138702583Y-108867969D01*
X138708772Y-108881054D01*
X138713649Y-108894683D01*
X138717166Y-108908724D01*
X138719290Y-108923042D01*
X138720000Y-108937500D01*
X138720000Y-109232500D01*
X138719290Y-109246958D01*
X138717166Y-109261276D01*
X138713649Y-109275317D01*
X138708772Y-109288946D01*
X138702583Y-109302031D01*
X138695142Y-109314447D01*
X138686519Y-109326073D01*
X138676798Y-109336798D01*
X138666073Y-109346519D01*
X138654447Y-109355142D01*
X138642031Y-109362583D01*
X138628946Y-109368772D01*
X138615317Y-109373649D01*
X138601276Y-109377166D01*
X138586958Y-109379290D01*
X138572500Y-109380000D01*
X138227500Y-109380000D01*
X138213042Y-109379290D01*
X138198724Y-109377166D01*
X138184683Y-109373649D01*
X138171054Y-109368772D01*
X138157969Y-109362583D01*
X138145553Y-109355142D01*
X138133927Y-109346519D01*
X138123202Y-109336798D01*
X138113481Y-109326073D01*
X138104858Y-109314447D01*
X138097417Y-109302031D01*
X138091228Y-109288946D01*
X138086351Y-109275317D01*
X138082834Y-109261276D01*
X138080710Y-109246958D01*
X138080000Y-109232500D01*
X138080000Y-108937500D01*
X138080710Y-108923042D01*
X138082834Y-108908724D01*
X138086351Y-108894683D01*
X138091228Y-108881054D01*
X138097417Y-108867969D01*
X138104858Y-108855553D01*
X138113481Y-108843927D01*
X138123202Y-108833202D01*
X138133927Y-108823481D01*
X138145553Y-108814858D01*
X138157969Y-108807417D01*
X138171054Y-108801228D01*
X138184683Y-108796351D01*
X138198724Y-108792834D01*
X138213042Y-108790710D01*
X138227500Y-108790000D01*
X138572500Y-108790000D01*
X138586958Y-108790710D01*
X138586958Y-108790710D01*
G37*
D13*
X138400000Y-109085000D03*
D12*
G36*
X137330142Y-111301174D02*
G01*
X137353803Y-111304684D01*
X137377007Y-111310496D01*
X137399529Y-111318554D01*
X137421153Y-111328782D01*
X137441670Y-111341079D01*
X137460883Y-111355329D01*
X137478607Y-111371393D01*
X137494671Y-111389117D01*
X137508921Y-111408330D01*
X137521218Y-111428847D01*
X137531446Y-111450471D01*
X137539504Y-111472993D01*
X137545316Y-111496197D01*
X137548826Y-111519858D01*
X137550000Y-111543750D01*
X137550000Y-112456250D01*
X137548826Y-112480142D01*
X137545316Y-112503803D01*
X137539504Y-112527007D01*
X137531446Y-112549529D01*
X137521218Y-112571153D01*
X137508921Y-112591670D01*
X137494671Y-112610883D01*
X137478607Y-112628607D01*
X137460883Y-112644671D01*
X137441670Y-112658921D01*
X137421153Y-112671218D01*
X137399529Y-112681446D01*
X137377007Y-112689504D01*
X137353803Y-112695316D01*
X137330142Y-112698826D01*
X137306250Y-112700000D01*
X136818750Y-112700000D01*
X136794858Y-112698826D01*
X136771197Y-112695316D01*
X136747993Y-112689504D01*
X136725471Y-112681446D01*
X136703847Y-112671218D01*
X136683330Y-112658921D01*
X136664117Y-112644671D01*
X136646393Y-112628607D01*
X136630329Y-112610883D01*
X136616079Y-112591670D01*
X136603782Y-112571153D01*
X136593554Y-112549529D01*
X136585496Y-112527007D01*
X136579684Y-112503803D01*
X136576174Y-112480142D01*
X136575000Y-112456250D01*
X136575000Y-111543750D01*
X136576174Y-111519858D01*
X136579684Y-111496197D01*
X136585496Y-111472993D01*
X136593554Y-111450471D01*
X136603782Y-111428847D01*
X136616079Y-111408330D01*
X136630329Y-111389117D01*
X136646393Y-111371393D01*
X136664117Y-111355329D01*
X136683330Y-111341079D01*
X136703847Y-111328782D01*
X136725471Y-111318554D01*
X136747993Y-111310496D01*
X136771197Y-111304684D01*
X136794858Y-111301174D01*
X136818750Y-111300000D01*
X137306250Y-111300000D01*
X137330142Y-111301174D01*
X137330142Y-111301174D01*
G37*
D14*
X137062500Y-112000000D03*
D12*
G36*
X139205142Y-111301174D02*
G01*
X139228803Y-111304684D01*
X139252007Y-111310496D01*
X139274529Y-111318554D01*
X139296153Y-111328782D01*
X139316670Y-111341079D01*
X139335883Y-111355329D01*
X139353607Y-111371393D01*
X139369671Y-111389117D01*
X139383921Y-111408330D01*
X139396218Y-111428847D01*
X139406446Y-111450471D01*
X139414504Y-111472993D01*
X139420316Y-111496197D01*
X139423826Y-111519858D01*
X139425000Y-111543750D01*
X139425000Y-112456250D01*
X139423826Y-112480142D01*
X139420316Y-112503803D01*
X139414504Y-112527007D01*
X139406446Y-112549529D01*
X139396218Y-112571153D01*
X139383921Y-112591670D01*
X139369671Y-112610883D01*
X139353607Y-112628607D01*
X139335883Y-112644671D01*
X139316670Y-112658921D01*
X139296153Y-112671218D01*
X139274529Y-112681446D01*
X139252007Y-112689504D01*
X139228803Y-112695316D01*
X139205142Y-112698826D01*
X139181250Y-112700000D01*
X138693750Y-112700000D01*
X138669858Y-112698826D01*
X138646197Y-112695316D01*
X138622993Y-112689504D01*
X138600471Y-112681446D01*
X138578847Y-112671218D01*
X138558330Y-112658921D01*
X138539117Y-112644671D01*
X138521393Y-112628607D01*
X138505329Y-112610883D01*
X138491079Y-112591670D01*
X138478782Y-112571153D01*
X138468554Y-112549529D01*
X138460496Y-112527007D01*
X138454684Y-112503803D01*
X138451174Y-112480142D01*
X138450000Y-112456250D01*
X138450000Y-111543750D01*
X138451174Y-111519858D01*
X138454684Y-111496197D01*
X138460496Y-111472993D01*
X138468554Y-111450471D01*
X138478782Y-111428847D01*
X138491079Y-111408330D01*
X138505329Y-111389117D01*
X138521393Y-111371393D01*
X138539117Y-111355329D01*
X138558330Y-111341079D01*
X138578847Y-111328782D01*
X138600471Y-111318554D01*
X138622993Y-111310496D01*
X138646197Y-111304684D01*
X138669858Y-111301174D01*
X138693750Y-111300000D01*
X139181250Y-111300000D01*
X139205142Y-111301174D01*
X139205142Y-111301174D01*
G37*
D14*
X138937500Y-112000000D03*
D15*
X132900001Y-109424999D03*
X132900001Y-108924999D03*
X132900001Y-108424999D03*
X132900001Y-107924999D03*
D16*
X133625001Y-107199999D03*
X134125001Y-107199999D03*
X134625001Y-107199999D03*
X135125001Y-107199999D03*
D15*
X135850001Y-107924999D03*
X135850001Y-108424999D03*
X135850001Y-108924999D03*
X135850001Y-109424999D03*
D16*
X135125001Y-110149999D03*
X134625001Y-110149999D03*
X134125001Y-110149999D03*
X133625001Y-110149999D03*
D17*
X134825001Y-108224999D03*
X134825001Y-109124999D03*
X133925001Y-108224999D03*
X133925001Y-109124999D03*
D12*
G36*
X132676958Y-105180710D02*
G01*
X132691276Y-105182834D01*
X132705317Y-105186351D01*
X132718946Y-105191228D01*
X132732031Y-105197417D01*
X132744447Y-105204858D01*
X132756073Y-105213481D01*
X132766798Y-105223202D01*
X132776519Y-105233927D01*
X132785142Y-105245553D01*
X132792583Y-105257969D01*
X132798772Y-105271054D01*
X132803649Y-105284683D01*
X132807166Y-105298724D01*
X132809290Y-105313042D01*
X132810000Y-105327500D01*
X132810000Y-105672500D01*
X132809290Y-105686958D01*
X132807166Y-105701276D01*
X132803649Y-105715317D01*
X132798772Y-105728946D01*
X132792583Y-105742031D01*
X132785142Y-105754447D01*
X132776519Y-105766073D01*
X132766798Y-105776798D01*
X132756073Y-105786519D01*
X132744447Y-105795142D01*
X132732031Y-105802583D01*
X132718946Y-105808772D01*
X132705317Y-105813649D01*
X132691276Y-105817166D01*
X132676958Y-105819290D01*
X132662500Y-105820000D01*
X132367500Y-105820000D01*
X132353042Y-105819290D01*
X132338724Y-105817166D01*
X132324683Y-105813649D01*
X132311054Y-105808772D01*
X132297969Y-105802583D01*
X132285553Y-105795142D01*
X132273927Y-105786519D01*
X132263202Y-105776798D01*
X132253481Y-105766073D01*
X132244858Y-105754447D01*
X132237417Y-105742031D01*
X132231228Y-105728946D01*
X132226351Y-105715317D01*
X132222834Y-105701276D01*
X132220710Y-105686958D01*
X132220000Y-105672500D01*
X132220000Y-105327500D01*
X132220710Y-105313042D01*
X132222834Y-105298724D01*
X132226351Y-105284683D01*
X132231228Y-105271054D01*
X132237417Y-105257969D01*
X132244858Y-105245553D01*
X132253481Y-105233927D01*
X132263202Y-105223202D01*
X132273927Y-105213481D01*
X132285553Y-105204858D01*
X132297969Y-105197417D01*
X132311054Y-105191228D01*
X132324683Y-105186351D01*
X132338724Y-105182834D01*
X132353042Y-105180710D01*
X132367500Y-105180000D01*
X132662500Y-105180000D01*
X132676958Y-105180710D01*
X132676958Y-105180710D01*
G37*
D13*
X132515000Y-105500000D03*
D12*
G36*
X133646958Y-105180710D02*
G01*
X133661276Y-105182834D01*
X133675317Y-105186351D01*
X133688946Y-105191228D01*
X133702031Y-105197417D01*
X133714447Y-105204858D01*
X133726073Y-105213481D01*
X133736798Y-105223202D01*
X133746519Y-105233927D01*
X133755142Y-105245553D01*
X133762583Y-105257969D01*
X133768772Y-105271054D01*
X133773649Y-105284683D01*
X133777166Y-105298724D01*
X133779290Y-105313042D01*
X133780000Y-105327500D01*
X133780000Y-105672500D01*
X133779290Y-105686958D01*
X133777166Y-105701276D01*
X133773649Y-105715317D01*
X133768772Y-105728946D01*
X133762583Y-105742031D01*
X133755142Y-105754447D01*
X133746519Y-105766073D01*
X133736798Y-105776798D01*
X133726073Y-105786519D01*
X133714447Y-105795142D01*
X133702031Y-105802583D01*
X133688946Y-105808772D01*
X133675317Y-105813649D01*
X133661276Y-105817166D01*
X133646958Y-105819290D01*
X133632500Y-105820000D01*
X133337500Y-105820000D01*
X133323042Y-105819290D01*
X133308724Y-105817166D01*
X133294683Y-105813649D01*
X133281054Y-105808772D01*
X133267969Y-105802583D01*
X133255553Y-105795142D01*
X133243927Y-105786519D01*
X133233202Y-105776798D01*
X133223481Y-105766073D01*
X133214858Y-105754447D01*
X133207417Y-105742031D01*
X133201228Y-105728946D01*
X133196351Y-105715317D01*
X133192834Y-105701276D01*
X133190710Y-105686958D01*
X133190000Y-105672500D01*
X133190000Y-105327500D01*
X133190710Y-105313042D01*
X133192834Y-105298724D01*
X133196351Y-105284683D01*
X133201228Y-105271054D01*
X133207417Y-105257969D01*
X133214858Y-105245553D01*
X133223481Y-105233927D01*
X133233202Y-105223202D01*
X133243927Y-105213481D01*
X133255553Y-105204858D01*
X133267969Y-105197417D01*
X133281054Y-105191228D01*
X133294683Y-105186351D01*
X133308724Y-105182834D01*
X133323042Y-105180710D01*
X133337500Y-105180000D01*
X133632500Y-105180000D01*
X133646958Y-105180710D01*
X133646958Y-105180710D01*
G37*
D13*
X133485000Y-105500000D03*
D12*
G36*
X134926958Y-105180710D02*
G01*
X134941276Y-105182834D01*
X134955317Y-105186351D01*
X134968946Y-105191228D01*
X134982031Y-105197417D01*
X134994447Y-105204858D01*
X135006073Y-105213481D01*
X135016798Y-105223202D01*
X135026519Y-105233927D01*
X135035142Y-105245553D01*
X135042583Y-105257969D01*
X135048772Y-105271054D01*
X135053649Y-105284683D01*
X135057166Y-105298724D01*
X135059290Y-105313042D01*
X135060000Y-105327500D01*
X135060000Y-105672500D01*
X135059290Y-105686958D01*
X135057166Y-105701276D01*
X135053649Y-105715317D01*
X135048772Y-105728946D01*
X135042583Y-105742031D01*
X135035142Y-105754447D01*
X135026519Y-105766073D01*
X135016798Y-105776798D01*
X135006073Y-105786519D01*
X134994447Y-105795142D01*
X134982031Y-105802583D01*
X134968946Y-105808772D01*
X134955317Y-105813649D01*
X134941276Y-105817166D01*
X134926958Y-105819290D01*
X134912500Y-105820000D01*
X134617500Y-105820000D01*
X134603042Y-105819290D01*
X134588724Y-105817166D01*
X134574683Y-105813649D01*
X134561054Y-105808772D01*
X134547969Y-105802583D01*
X134535553Y-105795142D01*
X134523927Y-105786519D01*
X134513202Y-105776798D01*
X134503481Y-105766073D01*
X134494858Y-105754447D01*
X134487417Y-105742031D01*
X134481228Y-105728946D01*
X134476351Y-105715317D01*
X134472834Y-105701276D01*
X134470710Y-105686958D01*
X134470000Y-105672500D01*
X134470000Y-105327500D01*
X134470710Y-105313042D01*
X134472834Y-105298724D01*
X134476351Y-105284683D01*
X134481228Y-105271054D01*
X134487417Y-105257969D01*
X134494858Y-105245553D01*
X134503481Y-105233927D01*
X134513202Y-105223202D01*
X134523927Y-105213481D01*
X134535553Y-105204858D01*
X134547969Y-105197417D01*
X134561054Y-105191228D01*
X134574683Y-105186351D01*
X134588724Y-105182834D01*
X134603042Y-105180710D01*
X134617500Y-105180000D01*
X134912500Y-105180000D01*
X134926958Y-105180710D01*
X134926958Y-105180710D01*
G37*
D13*
X134765000Y-105500000D03*
D12*
G36*
X135896958Y-105180710D02*
G01*
X135911276Y-105182834D01*
X135925317Y-105186351D01*
X135938946Y-105191228D01*
X135952031Y-105197417D01*
X135964447Y-105204858D01*
X135976073Y-105213481D01*
X135986798Y-105223202D01*
X135996519Y-105233927D01*
X136005142Y-105245553D01*
X136012583Y-105257969D01*
X136018772Y-105271054D01*
X136023649Y-105284683D01*
X136027166Y-105298724D01*
X136029290Y-105313042D01*
X136030000Y-105327500D01*
X136030000Y-105672500D01*
X136029290Y-105686958D01*
X136027166Y-105701276D01*
X136023649Y-105715317D01*
X136018772Y-105728946D01*
X136012583Y-105742031D01*
X136005142Y-105754447D01*
X135996519Y-105766073D01*
X135986798Y-105776798D01*
X135976073Y-105786519D01*
X135964447Y-105795142D01*
X135952031Y-105802583D01*
X135938946Y-105808772D01*
X135925317Y-105813649D01*
X135911276Y-105817166D01*
X135896958Y-105819290D01*
X135882500Y-105820000D01*
X135587500Y-105820000D01*
X135573042Y-105819290D01*
X135558724Y-105817166D01*
X135544683Y-105813649D01*
X135531054Y-105808772D01*
X135517969Y-105802583D01*
X135505553Y-105795142D01*
X135493927Y-105786519D01*
X135483202Y-105776798D01*
X135473481Y-105766073D01*
X135464858Y-105754447D01*
X135457417Y-105742031D01*
X135451228Y-105728946D01*
X135446351Y-105715317D01*
X135442834Y-105701276D01*
X135440710Y-105686958D01*
X135440000Y-105672500D01*
X135440000Y-105327500D01*
X135440710Y-105313042D01*
X135442834Y-105298724D01*
X135446351Y-105284683D01*
X135451228Y-105271054D01*
X135457417Y-105257969D01*
X135464858Y-105245553D01*
X135473481Y-105233927D01*
X135483202Y-105223202D01*
X135493927Y-105213481D01*
X135505553Y-105204858D01*
X135517969Y-105197417D01*
X135531054Y-105191228D01*
X135544683Y-105186351D01*
X135558724Y-105182834D01*
X135573042Y-105180710D01*
X135587500Y-105180000D01*
X135882500Y-105180000D01*
X135896958Y-105180710D01*
X135896958Y-105180710D01*
G37*
D13*
X135735000Y-105500000D03*
D12*
G36*
X134176958Y-111930710D02*
G01*
X134191276Y-111932834D01*
X134205317Y-111936351D01*
X134218946Y-111941228D01*
X134232031Y-111947417D01*
X134244447Y-111954858D01*
X134256073Y-111963481D01*
X134266798Y-111973202D01*
X134276519Y-111983927D01*
X134285142Y-111995553D01*
X134292583Y-112007969D01*
X134298772Y-112021054D01*
X134303649Y-112034683D01*
X134307166Y-112048724D01*
X134309290Y-112063042D01*
X134310000Y-112077500D01*
X134310000Y-112422500D01*
X134309290Y-112436958D01*
X134307166Y-112451276D01*
X134303649Y-112465317D01*
X134298772Y-112478946D01*
X134292583Y-112492031D01*
X134285142Y-112504447D01*
X134276519Y-112516073D01*
X134266798Y-112526798D01*
X134256073Y-112536519D01*
X134244447Y-112545142D01*
X134232031Y-112552583D01*
X134218946Y-112558772D01*
X134205317Y-112563649D01*
X134191276Y-112567166D01*
X134176958Y-112569290D01*
X134162500Y-112570000D01*
X133867500Y-112570000D01*
X133853042Y-112569290D01*
X133838724Y-112567166D01*
X133824683Y-112563649D01*
X133811054Y-112558772D01*
X133797969Y-112552583D01*
X133785553Y-112545142D01*
X133773927Y-112536519D01*
X133763202Y-112526798D01*
X133753481Y-112516073D01*
X133744858Y-112504447D01*
X133737417Y-112492031D01*
X133731228Y-112478946D01*
X133726351Y-112465317D01*
X133722834Y-112451276D01*
X133720710Y-112436958D01*
X133720000Y-112422500D01*
X133720000Y-112077500D01*
X133720710Y-112063042D01*
X133722834Y-112048724D01*
X133726351Y-112034683D01*
X133731228Y-112021054D01*
X133737417Y-112007969D01*
X133744858Y-111995553D01*
X133753481Y-111983927D01*
X133763202Y-111973202D01*
X133773927Y-111963481D01*
X133785553Y-111954858D01*
X133797969Y-111947417D01*
X133811054Y-111941228D01*
X133824683Y-111936351D01*
X133838724Y-111932834D01*
X133853042Y-111930710D01*
X133867500Y-111930000D01*
X134162500Y-111930000D01*
X134176958Y-111930710D01*
X134176958Y-111930710D01*
G37*
D13*
X134015000Y-112250000D03*
D12*
G36*
X135146958Y-111930710D02*
G01*
X135161276Y-111932834D01*
X135175317Y-111936351D01*
X135188946Y-111941228D01*
X135202031Y-111947417D01*
X135214447Y-111954858D01*
X135226073Y-111963481D01*
X135236798Y-111973202D01*
X135246519Y-111983927D01*
X135255142Y-111995553D01*
X135262583Y-112007969D01*
X135268772Y-112021054D01*
X135273649Y-112034683D01*
X135277166Y-112048724D01*
X135279290Y-112063042D01*
X135280000Y-112077500D01*
X135280000Y-112422500D01*
X135279290Y-112436958D01*
X135277166Y-112451276D01*
X135273649Y-112465317D01*
X135268772Y-112478946D01*
X135262583Y-112492031D01*
X135255142Y-112504447D01*
X135246519Y-112516073D01*
X135236798Y-112526798D01*
X135226073Y-112536519D01*
X135214447Y-112545142D01*
X135202031Y-112552583D01*
X135188946Y-112558772D01*
X135175317Y-112563649D01*
X135161276Y-112567166D01*
X135146958Y-112569290D01*
X135132500Y-112570000D01*
X134837500Y-112570000D01*
X134823042Y-112569290D01*
X134808724Y-112567166D01*
X134794683Y-112563649D01*
X134781054Y-112558772D01*
X134767969Y-112552583D01*
X134755553Y-112545142D01*
X134743927Y-112536519D01*
X134733202Y-112526798D01*
X134723481Y-112516073D01*
X134714858Y-112504447D01*
X134707417Y-112492031D01*
X134701228Y-112478946D01*
X134696351Y-112465317D01*
X134692834Y-112451276D01*
X134690710Y-112436958D01*
X134690000Y-112422500D01*
X134690000Y-112077500D01*
X134690710Y-112063042D01*
X134692834Y-112048724D01*
X134696351Y-112034683D01*
X134701228Y-112021054D01*
X134707417Y-112007969D01*
X134714858Y-111995553D01*
X134723481Y-111983927D01*
X134733202Y-111973202D01*
X134743927Y-111963481D01*
X134755553Y-111954858D01*
X134767969Y-111947417D01*
X134781054Y-111941228D01*
X134794683Y-111936351D01*
X134808724Y-111932834D01*
X134823042Y-111930710D01*
X134837500Y-111930000D01*
X135132500Y-111930000D01*
X135146958Y-111930710D01*
X135146958Y-111930710D01*
G37*
D13*
X134985000Y-112250000D03*
D12*
G36*
X134896958Y-103930710D02*
G01*
X134911276Y-103932834D01*
X134925317Y-103936351D01*
X134938946Y-103941228D01*
X134952031Y-103947417D01*
X134964447Y-103954858D01*
X134976073Y-103963481D01*
X134986798Y-103973202D01*
X134996519Y-103983927D01*
X135005142Y-103995553D01*
X135012583Y-104007969D01*
X135018772Y-104021054D01*
X135023649Y-104034683D01*
X135027166Y-104048724D01*
X135029290Y-104063042D01*
X135030000Y-104077500D01*
X135030000Y-104422500D01*
X135029290Y-104436958D01*
X135027166Y-104451276D01*
X135023649Y-104465317D01*
X135018772Y-104478946D01*
X135012583Y-104492031D01*
X135005142Y-104504447D01*
X134996519Y-104516073D01*
X134986798Y-104526798D01*
X134976073Y-104536519D01*
X134964447Y-104545142D01*
X134952031Y-104552583D01*
X134938946Y-104558772D01*
X134925317Y-104563649D01*
X134911276Y-104567166D01*
X134896958Y-104569290D01*
X134882500Y-104570000D01*
X134587500Y-104570000D01*
X134573042Y-104569290D01*
X134558724Y-104567166D01*
X134544683Y-104563649D01*
X134531054Y-104558772D01*
X134517969Y-104552583D01*
X134505553Y-104545142D01*
X134493927Y-104536519D01*
X134483202Y-104526798D01*
X134473481Y-104516073D01*
X134464858Y-104504447D01*
X134457417Y-104492031D01*
X134451228Y-104478946D01*
X134446351Y-104465317D01*
X134442834Y-104451276D01*
X134440710Y-104436958D01*
X134440000Y-104422500D01*
X134440000Y-104077500D01*
X134440710Y-104063042D01*
X134442834Y-104048724D01*
X134446351Y-104034683D01*
X134451228Y-104021054D01*
X134457417Y-104007969D01*
X134464858Y-103995553D01*
X134473481Y-103983927D01*
X134483202Y-103973202D01*
X134493927Y-103963481D01*
X134505553Y-103954858D01*
X134517969Y-103947417D01*
X134531054Y-103941228D01*
X134544683Y-103936351D01*
X134558724Y-103932834D01*
X134573042Y-103930710D01*
X134587500Y-103930000D01*
X134882500Y-103930000D01*
X134896958Y-103930710D01*
X134896958Y-103930710D01*
G37*
D13*
X134735000Y-104250000D03*
D12*
G36*
X133926958Y-103930710D02*
G01*
X133941276Y-103932834D01*
X133955317Y-103936351D01*
X133968946Y-103941228D01*
X133982031Y-103947417D01*
X133994447Y-103954858D01*
X134006073Y-103963481D01*
X134016798Y-103973202D01*
X134026519Y-103983927D01*
X134035142Y-103995553D01*
X134042583Y-104007969D01*
X134048772Y-104021054D01*
X134053649Y-104034683D01*
X134057166Y-104048724D01*
X134059290Y-104063042D01*
X134060000Y-104077500D01*
X134060000Y-104422500D01*
X134059290Y-104436958D01*
X134057166Y-104451276D01*
X134053649Y-104465317D01*
X134048772Y-104478946D01*
X134042583Y-104492031D01*
X134035142Y-104504447D01*
X134026519Y-104516073D01*
X134016798Y-104526798D01*
X134006073Y-104536519D01*
X133994447Y-104545142D01*
X133982031Y-104552583D01*
X133968946Y-104558772D01*
X133955317Y-104563649D01*
X133941276Y-104567166D01*
X133926958Y-104569290D01*
X133912500Y-104570000D01*
X133617500Y-104570000D01*
X133603042Y-104569290D01*
X133588724Y-104567166D01*
X133574683Y-104563649D01*
X133561054Y-104558772D01*
X133547969Y-104552583D01*
X133535553Y-104545142D01*
X133523927Y-104536519D01*
X133513202Y-104526798D01*
X133503481Y-104516073D01*
X133494858Y-104504447D01*
X133487417Y-104492031D01*
X133481228Y-104478946D01*
X133476351Y-104465317D01*
X133472834Y-104451276D01*
X133470710Y-104436958D01*
X133470000Y-104422500D01*
X133470000Y-104077500D01*
X133470710Y-104063042D01*
X133472834Y-104048724D01*
X133476351Y-104034683D01*
X133481228Y-104021054D01*
X133487417Y-104007969D01*
X133494858Y-103995553D01*
X133503481Y-103983927D01*
X133513202Y-103973202D01*
X133523927Y-103963481D01*
X133535553Y-103954858D01*
X133547969Y-103947417D01*
X133561054Y-103941228D01*
X133574683Y-103936351D01*
X133588724Y-103932834D01*
X133603042Y-103930710D01*
X133617500Y-103930000D01*
X133912500Y-103930000D01*
X133926958Y-103930710D01*
X133926958Y-103930710D01*
G37*
D13*
X133765000Y-104250000D03*
D12*
G36*
X146086958Y-113120710D02*
G01*
X146101276Y-113122834D01*
X146115317Y-113126351D01*
X146128946Y-113131228D01*
X146142031Y-113137417D01*
X146154447Y-113144858D01*
X146166073Y-113153481D01*
X146176798Y-113163202D01*
X146186519Y-113173927D01*
X146195142Y-113185553D01*
X146202583Y-113197969D01*
X146208772Y-113211054D01*
X146213649Y-113224683D01*
X146217166Y-113238724D01*
X146219290Y-113253042D01*
X146220000Y-113267500D01*
X146220000Y-113562500D01*
X146219290Y-113576958D01*
X146217166Y-113591276D01*
X146213649Y-113605317D01*
X146208772Y-113618946D01*
X146202583Y-113632031D01*
X146195142Y-113644447D01*
X146186519Y-113656073D01*
X146176798Y-113666798D01*
X146166073Y-113676519D01*
X146154447Y-113685142D01*
X146142031Y-113692583D01*
X146128946Y-113698772D01*
X146115317Y-113703649D01*
X146101276Y-113707166D01*
X146086958Y-113709290D01*
X146072500Y-113710000D01*
X145727500Y-113710000D01*
X145713042Y-113709290D01*
X145698724Y-113707166D01*
X145684683Y-113703649D01*
X145671054Y-113698772D01*
X145657969Y-113692583D01*
X145645553Y-113685142D01*
X145633927Y-113676519D01*
X145623202Y-113666798D01*
X145613481Y-113656073D01*
X145604858Y-113644447D01*
X145597417Y-113632031D01*
X145591228Y-113618946D01*
X145586351Y-113605317D01*
X145582834Y-113591276D01*
X145580710Y-113576958D01*
X145580000Y-113562500D01*
X145580000Y-113267500D01*
X145580710Y-113253042D01*
X145582834Y-113238724D01*
X145586351Y-113224683D01*
X145591228Y-113211054D01*
X145597417Y-113197969D01*
X145604858Y-113185553D01*
X145613481Y-113173927D01*
X145623202Y-113163202D01*
X145633927Y-113153481D01*
X145645553Y-113144858D01*
X145657969Y-113137417D01*
X145671054Y-113131228D01*
X145684683Y-113126351D01*
X145698724Y-113122834D01*
X145713042Y-113120710D01*
X145727500Y-113120000D01*
X146072500Y-113120000D01*
X146086958Y-113120710D01*
X146086958Y-113120710D01*
G37*
D13*
X145900000Y-113415000D03*
D12*
G36*
X146086958Y-114090710D02*
G01*
X146101276Y-114092834D01*
X146115317Y-114096351D01*
X146128946Y-114101228D01*
X146142031Y-114107417D01*
X146154447Y-114114858D01*
X146166073Y-114123481D01*
X146176798Y-114133202D01*
X146186519Y-114143927D01*
X146195142Y-114155553D01*
X146202583Y-114167969D01*
X146208772Y-114181054D01*
X146213649Y-114194683D01*
X146217166Y-114208724D01*
X146219290Y-114223042D01*
X146220000Y-114237500D01*
X146220000Y-114532500D01*
X146219290Y-114546958D01*
X146217166Y-114561276D01*
X146213649Y-114575317D01*
X146208772Y-114588946D01*
X146202583Y-114602031D01*
X146195142Y-114614447D01*
X146186519Y-114626073D01*
X146176798Y-114636798D01*
X146166073Y-114646519D01*
X146154447Y-114655142D01*
X146142031Y-114662583D01*
X146128946Y-114668772D01*
X146115317Y-114673649D01*
X146101276Y-114677166D01*
X146086958Y-114679290D01*
X146072500Y-114680000D01*
X145727500Y-114680000D01*
X145713042Y-114679290D01*
X145698724Y-114677166D01*
X145684683Y-114673649D01*
X145671054Y-114668772D01*
X145657969Y-114662583D01*
X145645553Y-114655142D01*
X145633927Y-114646519D01*
X145623202Y-114636798D01*
X145613481Y-114626073D01*
X145604858Y-114614447D01*
X145597417Y-114602031D01*
X145591228Y-114588946D01*
X145586351Y-114575317D01*
X145582834Y-114561276D01*
X145580710Y-114546958D01*
X145580000Y-114532500D01*
X145580000Y-114237500D01*
X145580710Y-114223042D01*
X145582834Y-114208724D01*
X145586351Y-114194683D01*
X145591228Y-114181054D01*
X145597417Y-114167969D01*
X145604858Y-114155553D01*
X145613481Y-114143927D01*
X145623202Y-114133202D01*
X145633927Y-114123481D01*
X145645553Y-114114858D01*
X145657969Y-114107417D01*
X145671054Y-114101228D01*
X145684683Y-114096351D01*
X145698724Y-114092834D01*
X145713042Y-114090710D01*
X145727500Y-114090000D01*
X146072500Y-114090000D01*
X146086958Y-114090710D01*
X146086958Y-114090710D01*
G37*
D13*
X145900000Y-114385000D03*
D12*
G36*
X111819958Y-104653710D02*
G01*
X111834276Y-104655834D01*
X111848317Y-104659351D01*
X111861946Y-104664228D01*
X111875031Y-104670417D01*
X111887447Y-104677858D01*
X111899073Y-104686481D01*
X111909798Y-104696202D01*
X111919519Y-104706927D01*
X111928142Y-104718553D01*
X111935583Y-104730969D01*
X111941772Y-104744054D01*
X111946649Y-104757683D01*
X111950166Y-104771724D01*
X111952290Y-104786042D01*
X111953000Y-104800500D01*
X111953000Y-105095500D01*
X111952290Y-105109958D01*
X111950166Y-105124276D01*
X111946649Y-105138317D01*
X111941772Y-105151946D01*
X111935583Y-105165031D01*
X111928142Y-105177447D01*
X111919519Y-105189073D01*
X111909798Y-105199798D01*
X111899073Y-105209519D01*
X111887447Y-105218142D01*
X111875031Y-105225583D01*
X111861946Y-105231772D01*
X111848317Y-105236649D01*
X111834276Y-105240166D01*
X111819958Y-105242290D01*
X111805500Y-105243000D01*
X111460500Y-105243000D01*
X111446042Y-105242290D01*
X111431724Y-105240166D01*
X111417683Y-105236649D01*
X111404054Y-105231772D01*
X111390969Y-105225583D01*
X111378553Y-105218142D01*
X111366927Y-105209519D01*
X111356202Y-105199798D01*
X111346481Y-105189073D01*
X111337858Y-105177447D01*
X111330417Y-105165031D01*
X111324228Y-105151946D01*
X111319351Y-105138317D01*
X111315834Y-105124276D01*
X111313710Y-105109958D01*
X111313000Y-105095500D01*
X111313000Y-104800500D01*
X111313710Y-104786042D01*
X111315834Y-104771724D01*
X111319351Y-104757683D01*
X111324228Y-104744054D01*
X111330417Y-104730969D01*
X111337858Y-104718553D01*
X111346481Y-104706927D01*
X111356202Y-104696202D01*
X111366927Y-104686481D01*
X111378553Y-104677858D01*
X111390969Y-104670417D01*
X111404054Y-104664228D01*
X111417683Y-104659351D01*
X111431724Y-104655834D01*
X111446042Y-104653710D01*
X111460500Y-104653000D01*
X111805500Y-104653000D01*
X111819958Y-104653710D01*
X111819958Y-104653710D01*
G37*
D13*
X111633000Y-104948000D03*
D12*
G36*
X111819958Y-105623710D02*
G01*
X111834276Y-105625834D01*
X111848317Y-105629351D01*
X111861946Y-105634228D01*
X111875031Y-105640417D01*
X111887447Y-105647858D01*
X111899073Y-105656481D01*
X111909798Y-105666202D01*
X111919519Y-105676927D01*
X111928142Y-105688553D01*
X111935583Y-105700969D01*
X111941772Y-105714054D01*
X111946649Y-105727683D01*
X111950166Y-105741724D01*
X111952290Y-105756042D01*
X111953000Y-105770500D01*
X111953000Y-106065500D01*
X111952290Y-106079958D01*
X111950166Y-106094276D01*
X111946649Y-106108317D01*
X111941772Y-106121946D01*
X111935583Y-106135031D01*
X111928142Y-106147447D01*
X111919519Y-106159073D01*
X111909798Y-106169798D01*
X111899073Y-106179519D01*
X111887447Y-106188142D01*
X111875031Y-106195583D01*
X111861946Y-106201772D01*
X111848317Y-106206649D01*
X111834276Y-106210166D01*
X111819958Y-106212290D01*
X111805500Y-106213000D01*
X111460500Y-106213000D01*
X111446042Y-106212290D01*
X111431724Y-106210166D01*
X111417683Y-106206649D01*
X111404054Y-106201772D01*
X111390969Y-106195583D01*
X111378553Y-106188142D01*
X111366927Y-106179519D01*
X111356202Y-106169798D01*
X111346481Y-106159073D01*
X111337858Y-106147447D01*
X111330417Y-106135031D01*
X111324228Y-106121946D01*
X111319351Y-106108317D01*
X111315834Y-106094276D01*
X111313710Y-106079958D01*
X111313000Y-106065500D01*
X111313000Y-105770500D01*
X111313710Y-105756042D01*
X111315834Y-105741724D01*
X111319351Y-105727683D01*
X111324228Y-105714054D01*
X111330417Y-105700969D01*
X111337858Y-105688553D01*
X111346481Y-105676927D01*
X111356202Y-105666202D01*
X111366927Y-105656481D01*
X111378553Y-105647858D01*
X111390969Y-105640417D01*
X111404054Y-105634228D01*
X111417683Y-105629351D01*
X111431724Y-105625834D01*
X111446042Y-105623710D01*
X111460500Y-105623000D01*
X111805500Y-105623000D01*
X111819958Y-105623710D01*
X111819958Y-105623710D01*
G37*
D13*
X111633000Y-105918000D03*
D12*
G36*
X149516958Y-128231710D02*
G01*
X149531276Y-128233834D01*
X149545317Y-128237351D01*
X149558946Y-128242228D01*
X149572031Y-128248417D01*
X149584447Y-128255858D01*
X149596073Y-128264481D01*
X149606798Y-128274202D01*
X149616519Y-128284927D01*
X149625142Y-128296553D01*
X149632583Y-128308969D01*
X149638772Y-128322054D01*
X149643649Y-128335683D01*
X149647166Y-128349724D01*
X149649290Y-128364042D01*
X149650000Y-128378500D01*
X149650000Y-128723500D01*
X149649290Y-128737958D01*
X149647166Y-128752276D01*
X149643649Y-128766317D01*
X149638772Y-128779946D01*
X149632583Y-128793031D01*
X149625142Y-128805447D01*
X149616519Y-128817073D01*
X149606798Y-128827798D01*
X149596073Y-128837519D01*
X149584447Y-128846142D01*
X149572031Y-128853583D01*
X149558946Y-128859772D01*
X149545317Y-128864649D01*
X149531276Y-128868166D01*
X149516958Y-128870290D01*
X149502500Y-128871000D01*
X149207500Y-128871000D01*
X149193042Y-128870290D01*
X149178724Y-128868166D01*
X149164683Y-128864649D01*
X149151054Y-128859772D01*
X149137969Y-128853583D01*
X149125553Y-128846142D01*
X149113927Y-128837519D01*
X149103202Y-128827798D01*
X149093481Y-128817073D01*
X149084858Y-128805447D01*
X149077417Y-128793031D01*
X149071228Y-128779946D01*
X149066351Y-128766317D01*
X149062834Y-128752276D01*
X149060710Y-128737958D01*
X149060000Y-128723500D01*
X149060000Y-128378500D01*
X149060710Y-128364042D01*
X149062834Y-128349724D01*
X149066351Y-128335683D01*
X149071228Y-128322054D01*
X149077417Y-128308969D01*
X149084858Y-128296553D01*
X149093481Y-128284927D01*
X149103202Y-128274202D01*
X149113927Y-128264481D01*
X149125553Y-128255858D01*
X149137969Y-128248417D01*
X149151054Y-128242228D01*
X149164683Y-128237351D01*
X149178724Y-128233834D01*
X149193042Y-128231710D01*
X149207500Y-128231000D01*
X149502500Y-128231000D01*
X149516958Y-128231710D01*
X149516958Y-128231710D01*
G37*
D13*
X149355000Y-128551000D03*
D12*
G36*
X148546958Y-128231710D02*
G01*
X148561276Y-128233834D01*
X148575317Y-128237351D01*
X148588946Y-128242228D01*
X148602031Y-128248417D01*
X148614447Y-128255858D01*
X148626073Y-128264481D01*
X148636798Y-128274202D01*
X148646519Y-128284927D01*
X148655142Y-128296553D01*
X148662583Y-128308969D01*
X148668772Y-128322054D01*
X148673649Y-128335683D01*
X148677166Y-128349724D01*
X148679290Y-128364042D01*
X148680000Y-128378500D01*
X148680000Y-128723500D01*
X148679290Y-128737958D01*
X148677166Y-128752276D01*
X148673649Y-128766317D01*
X148668772Y-128779946D01*
X148662583Y-128793031D01*
X148655142Y-128805447D01*
X148646519Y-128817073D01*
X148636798Y-128827798D01*
X148626073Y-128837519D01*
X148614447Y-128846142D01*
X148602031Y-128853583D01*
X148588946Y-128859772D01*
X148575317Y-128864649D01*
X148561276Y-128868166D01*
X148546958Y-128870290D01*
X148532500Y-128871000D01*
X148237500Y-128871000D01*
X148223042Y-128870290D01*
X148208724Y-128868166D01*
X148194683Y-128864649D01*
X148181054Y-128859772D01*
X148167969Y-128853583D01*
X148155553Y-128846142D01*
X148143927Y-128837519D01*
X148133202Y-128827798D01*
X148123481Y-128817073D01*
X148114858Y-128805447D01*
X148107417Y-128793031D01*
X148101228Y-128779946D01*
X148096351Y-128766317D01*
X148092834Y-128752276D01*
X148090710Y-128737958D01*
X148090000Y-128723500D01*
X148090000Y-128378500D01*
X148090710Y-128364042D01*
X148092834Y-128349724D01*
X148096351Y-128335683D01*
X148101228Y-128322054D01*
X148107417Y-128308969D01*
X148114858Y-128296553D01*
X148123481Y-128284927D01*
X148133202Y-128274202D01*
X148143927Y-128264481D01*
X148155553Y-128255858D01*
X148167969Y-128248417D01*
X148181054Y-128242228D01*
X148194683Y-128237351D01*
X148208724Y-128233834D01*
X148223042Y-128231710D01*
X148237500Y-128231000D01*
X148532500Y-128231000D01*
X148546958Y-128231710D01*
X148546958Y-128231710D01*
G37*
D13*
X148385000Y-128551000D03*
D12*
G36*
X117736958Y-126270710D02*
G01*
X117751276Y-126272834D01*
X117765317Y-126276351D01*
X117778946Y-126281228D01*
X117792031Y-126287417D01*
X117804447Y-126294858D01*
X117816073Y-126303481D01*
X117826798Y-126313202D01*
X117836519Y-126323927D01*
X117845142Y-126335553D01*
X117852583Y-126347969D01*
X117858772Y-126361054D01*
X117863649Y-126374683D01*
X117867166Y-126388724D01*
X117869290Y-126403042D01*
X117870000Y-126417500D01*
X117870000Y-126712500D01*
X117869290Y-126726958D01*
X117867166Y-126741276D01*
X117863649Y-126755317D01*
X117858772Y-126768946D01*
X117852583Y-126782031D01*
X117845142Y-126794447D01*
X117836519Y-126806073D01*
X117826798Y-126816798D01*
X117816073Y-126826519D01*
X117804447Y-126835142D01*
X117792031Y-126842583D01*
X117778946Y-126848772D01*
X117765317Y-126853649D01*
X117751276Y-126857166D01*
X117736958Y-126859290D01*
X117722500Y-126860000D01*
X117377500Y-126860000D01*
X117363042Y-126859290D01*
X117348724Y-126857166D01*
X117334683Y-126853649D01*
X117321054Y-126848772D01*
X117307969Y-126842583D01*
X117295553Y-126835142D01*
X117283927Y-126826519D01*
X117273202Y-126816798D01*
X117263481Y-126806073D01*
X117254858Y-126794447D01*
X117247417Y-126782031D01*
X117241228Y-126768946D01*
X117236351Y-126755317D01*
X117232834Y-126741276D01*
X117230710Y-126726958D01*
X117230000Y-126712500D01*
X117230000Y-126417500D01*
X117230710Y-126403042D01*
X117232834Y-126388724D01*
X117236351Y-126374683D01*
X117241228Y-126361054D01*
X117247417Y-126347969D01*
X117254858Y-126335553D01*
X117263481Y-126323927D01*
X117273202Y-126313202D01*
X117283927Y-126303481D01*
X117295553Y-126294858D01*
X117307969Y-126287417D01*
X117321054Y-126281228D01*
X117334683Y-126276351D01*
X117348724Y-126272834D01*
X117363042Y-126270710D01*
X117377500Y-126270000D01*
X117722500Y-126270000D01*
X117736958Y-126270710D01*
X117736958Y-126270710D01*
G37*
D13*
X117550000Y-126565000D03*
D12*
G36*
X117736958Y-127240710D02*
G01*
X117751276Y-127242834D01*
X117765317Y-127246351D01*
X117778946Y-127251228D01*
X117792031Y-127257417D01*
X117804447Y-127264858D01*
X117816073Y-127273481D01*
X117826798Y-127283202D01*
X117836519Y-127293927D01*
X117845142Y-127305553D01*
X117852583Y-127317969D01*
X117858772Y-127331054D01*
X117863649Y-127344683D01*
X117867166Y-127358724D01*
X117869290Y-127373042D01*
X117870000Y-127387500D01*
X117870000Y-127682500D01*
X117869290Y-127696958D01*
X117867166Y-127711276D01*
X117863649Y-127725317D01*
X117858772Y-127738946D01*
X117852583Y-127752031D01*
X117845142Y-127764447D01*
X117836519Y-127776073D01*
X117826798Y-127786798D01*
X117816073Y-127796519D01*
X117804447Y-127805142D01*
X117792031Y-127812583D01*
X117778946Y-127818772D01*
X117765317Y-127823649D01*
X117751276Y-127827166D01*
X117736958Y-127829290D01*
X117722500Y-127830000D01*
X117377500Y-127830000D01*
X117363042Y-127829290D01*
X117348724Y-127827166D01*
X117334683Y-127823649D01*
X117321054Y-127818772D01*
X117307969Y-127812583D01*
X117295553Y-127805142D01*
X117283927Y-127796519D01*
X117273202Y-127786798D01*
X117263481Y-127776073D01*
X117254858Y-127764447D01*
X117247417Y-127752031D01*
X117241228Y-127738946D01*
X117236351Y-127725317D01*
X117232834Y-127711276D01*
X117230710Y-127696958D01*
X117230000Y-127682500D01*
X117230000Y-127387500D01*
X117230710Y-127373042D01*
X117232834Y-127358724D01*
X117236351Y-127344683D01*
X117241228Y-127331054D01*
X117247417Y-127317969D01*
X117254858Y-127305553D01*
X117263481Y-127293927D01*
X117273202Y-127283202D01*
X117283927Y-127273481D01*
X117295553Y-127264858D01*
X117307969Y-127257417D01*
X117321054Y-127251228D01*
X117334683Y-127246351D01*
X117348724Y-127242834D01*
X117363042Y-127240710D01*
X117377500Y-127240000D01*
X117722500Y-127240000D01*
X117736958Y-127240710D01*
X117736958Y-127240710D01*
G37*
D13*
X117550000Y-127535000D03*
D12*
G36*
X147565958Y-115658710D02*
G01*
X147580276Y-115660834D01*
X147594317Y-115664351D01*
X147607946Y-115669228D01*
X147621031Y-115675417D01*
X147633447Y-115682858D01*
X147645073Y-115691481D01*
X147655798Y-115701202D01*
X147665519Y-115711927D01*
X147674142Y-115723553D01*
X147681583Y-115735969D01*
X147687772Y-115749054D01*
X147692649Y-115762683D01*
X147696166Y-115776724D01*
X147698290Y-115791042D01*
X147699000Y-115805500D01*
X147699000Y-116150500D01*
X147698290Y-116164958D01*
X147696166Y-116179276D01*
X147692649Y-116193317D01*
X147687772Y-116206946D01*
X147681583Y-116220031D01*
X147674142Y-116232447D01*
X147665519Y-116244073D01*
X147655798Y-116254798D01*
X147645073Y-116264519D01*
X147633447Y-116273142D01*
X147621031Y-116280583D01*
X147607946Y-116286772D01*
X147594317Y-116291649D01*
X147580276Y-116295166D01*
X147565958Y-116297290D01*
X147551500Y-116298000D01*
X147256500Y-116298000D01*
X147242042Y-116297290D01*
X147227724Y-116295166D01*
X147213683Y-116291649D01*
X147200054Y-116286772D01*
X147186969Y-116280583D01*
X147174553Y-116273142D01*
X147162927Y-116264519D01*
X147152202Y-116254798D01*
X147142481Y-116244073D01*
X147133858Y-116232447D01*
X147126417Y-116220031D01*
X147120228Y-116206946D01*
X147115351Y-116193317D01*
X147111834Y-116179276D01*
X147109710Y-116164958D01*
X147109000Y-116150500D01*
X147109000Y-115805500D01*
X147109710Y-115791042D01*
X147111834Y-115776724D01*
X147115351Y-115762683D01*
X147120228Y-115749054D01*
X147126417Y-115735969D01*
X147133858Y-115723553D01*
X147142481Y-115711927D01*
X147152202Y-115701202D01*
X147162927Y-115691481D01*
X147174553Y-115682858D01*
X147186969Y-115675417D01*
X147200054Y-115669228D01*
X147213683Y-115664351D01*
X147227724Y-115660834D01*
X147242042Y-115658710D01*
X147256500Y-115658000D01*
X147551500Y-115658000D01*
X147565958Y-115658710D01*
X147565958Y-115658710D01*
G37*
D13*
X147404000Y-115978000D03*
D12*
G36*
X146595958Y-115658710D02*
G01*
X146610276Y-115660834D01*
X146624317Y-115664351D01*
X146637946Y-115669228D01*
X146651031Y-115675417D01*
X146663447Y-115682858D01*
X146675073Y-115691481D01*
X146685798Y-115701202D01*
X146695519Y-115711927D01*
X146704142Y-115723553D01*
X146711583Y-115735969D01*
X146717772Y-115749054D01*
X146722649Y-115762683D01*
X146726166Y-115776724D01*
X146728290Y-115791042D01*
X146729000Y-115805500D01*
X146729000Y-116150500D01*
X146728290Y-116164958D01*
X146726166Y-116179276D01*
X146722649Y-116193317D01*
X146717772Y-116206946D01*
X146711583Y-116220031D01*
X146704142Y-116232447D01*
X146695519Y-116244073D01*
X146685798Y-116254798D01*
X146675073Y-116264519D01*
X146663447Y-116273142D01*
X146651031Y-116280583D01*
X146637946Y-116286772D01*
X146624317Y-116291649D01*
X146610276Y-116295166D01*
X146595958Y-116297290D01*
X146581500Y-116298000D01*
X146286500Y-116298000D01*
X146272042Y-116297290D01*
X146257724Y-116295166D01*
X146243683Y-116291649D01*
X146230054Y-116286772D01*
X146216969Y-116280583D01*
X146204553Y-116273142D01*
X146192927Y-116264519D01*
X146182202Y-116254798D01*
X146172481Y-116244073D01*
X146163858Y-116232447D01*
X146156417Y-116220031D01*
X146150228Y-116206946D01*
X146145351Y-116193317D01*
X146141834Y-116179276D01*
X146139710Y-116164958D01*
X146139000Y-116150500D01*
X146139000Y-115805500D01*
X146139710Y-115791042D01*
X146141834Y-115776724D01*
X146145351Y-115762683D01*
X146150228Y-115749054D01*
X146156417Y-115735969D01*
X146163858Y-115723553D01*
X146172481Y-115711927D01*
X146182202Y-115701202D01*
X146192927Y-115691481D01*
X146204553Y-115682858D01*
X146216969Y-115675417D01*
X146230054Y-115669228D01*
X146243683Y-115664351D01*
X146257724Y-115660834D01*
X146272042Y-115658710D01*
X146286500Y-115658000D01*
X146581500Y-115658000D01*
X146595958Y-115658710D01*
X146595958Y-115658710D01*
G37*
D13*
X146434000Y-115978000D03*
D12*
G36*
X150197958Y-115531710D02*
G01*
X150212276Y-115533834D01*
X150226317Y-115537351D01*
X150239946Y-115542228D01*
X150253031Y-115548417D01*
X150265447Y-115555858D01*
X150277073Y-115564481D01*
X150287798Y-115574202D01*
X150297519Y-115584927D01*
X150306142Y-115596553D01*
X150313583Y-115608969D01*
X150319772Y-115622054D01*
X150324649Y-115635683D01*
X150328166Y-115649724D01*
X150330290Y-115664042D01*
X150331000Y-115678500D01*
X150331000Y-116023500D01*
X150330290Y-116037958D01*
X150328166Y-116052276D01*
X150324649Y-116066317D01*
X150319772Y-116079946D01*
X150313583Y-116093031D01*
X150306142Y-116105447D01*
X150297519Y-116117073D01*
X150287798Y-116127798D01*
X150277073Y-116137519D01*
X150265447Y-116146142D01*
X150253031Y-116153583D01*
X150239946Y-116159772D01*
X150226317Y-116164649D01*
X150212276Y-116168166D01*
X150197958Y-116170290D01*
X150183500Y-116171000D01*
X149888500Y-116171000D01*
X149874042Y-116170290D01*
X149859724Y-116168166D01*
X149845683Y-116164649D01*
X149832054Y-116159772D01*
X149818969Y-116153583D01*
X149806553Y-116146142D01*
X149794927Y-116137519D01*
X149784202Y-116127798D01*
X149774481Y-116117073D01*
X149765858Y-116105447D01*
X149758417Y-116093031D01*
X149752228Y-116079946D01*
X149747351Y-116066317D01*
X149743834Y-116052276D01*
X149741710Y-116037958D01*
X149741000Y-116023500D01*
X149741000Y-115678500D01*
X149741710Y-115664042D01*
X149743834Y-115649724D01*
X149747351Y-115635683D01*
X149752228Y-115622054D01*
X149758417Y-115608969D01*
X149765858Y-115596553D01*
X149774481Y-115584927D01*
X149784202Y-115574202D01*
X149794927Y-115564481D01*
X149806553Y-115555858D01*
X149818969Y-115548417D01*
X149832054Y-115542228D01*
X149845683Y-115537351D01*
X149859724Y-115533834D01*
X149874042Y-115531710D01*
X149888500Y-115531000D01*
X150183500Y-115531000D01*
X150197958Y-115531710D01*
X150197958Y-115531710D01*
G37*
D13*
X150036000Y-115851000D03*
D12*
G36*
X151167958Y-115531710D02*
G01*
X151182276Y-115533834D01*
X151196317Y-115537351D01*
X151209946Y-115542228D01*
X151223031Y-115548417D01*
X151235447Y-115555858D01*
X151247073Y-115564481D01*
X151257798Y-115574202D01*
X151267519Y-115584927D01*
X151276142Y-115596553D01*
X151283583Y-115608969D01*
X151289772Y-115622054D01*
X151294649Y-115635683D01*
X151298166Y-115649724D01*
X151300290Y-115664042D01*
X151301000Y-115678500D01*
X151301000Y-116023500D01*
X151300290Y-116037958D01*
X151298166Y-116052276D01*
X151294649Y-116066317D01*
X151289772Y-116079946D01*
X151283583Y-116093031D01*
X151276142Y-116105447D01*
X151267519Y-116117073D01*
X151257798Y-116127798D01*
X151247073Y-116137519D01*
X151235447Y-116146142D01*
X151223031Y-116153583D01*
X151209946Y-116159772D01*
X151196317Y-116164649D01*
X151182276Y-116168166D01*
X151167958Y-116170290D01*
X151153500Y-116171000D01*
X150858500Y-116171000D01*
X150844042Y-116170290D01*
X150829724Y-116168166D01*
X150815683Y-116164649D01*
X150802054Y-116159772D01*
X150788969Y-116153583D01*
X150776553Y-116146142D01*
X150764927Y-116137519D01*
X150754202Y-116127798D01*
X150744481Y-116117073D01*
X150735858Y-116105447D01*
X150728417Y-116093031D01*
X150722228Y-116079946D01*
X150717351Y-116066317D01*
X150713834Y-116052276D01*
X150711710Y-116037958D01*
X150711000Y-116023500D01*
X150711000Y-115678500D01*
X150711710Y-115664042D01*
X150713834Y-115649724D01*
X150717351Y-115635683D01*
X150722228Y-115622054D01*
X150728417Y-115608969D01*
X150735858Y-115596553D01*
X150744481Y-115584927D01*
X150754202Y-115574202D01*
X150764927Y-115564481D01*
X150776553Y-115555858D01*
X150788969Y-115548417D01*
X150802054Y-115542228D01*
X150815683Y-115537351D01*
X150829724Y-115533834D01*
X150844042Y-115531710D01*
X150858500Y-115531000D01*
X151153500Y-115531000D01*
X151167958Y-115531710D01*
X151167958Y-115531710D01*
G37*
D13*
X151006000Y-115851000D03*
D12*
G36*
X149978958Y-122643710D02*
G01*
X149993276Y-122645834D01*
X150007317Y-122649351D01*
X150020946Y-122654228D01*
X150034031Y-122660417D01*
X150046447Y-122667858D01*
X150058073Y-122676481D01*
X150068798Y-122686202D01*
X150078519Y-122696927D01*
X150087142Y-122708553D01*
X150094583Y-122720969D01*
X150100772Y-122734054D01*
X150105649Y-122747683D01*
X150109166Y-122761724D01*
X150111290Y-122776042D01*
X150112000Y-122790500D01*
X150112000Y-123135500D01*
X150111290Y-123149958D01*
X150109166Y-123164276D01*
X150105649Y-123178317D01*
X150100772Y-123191946D01*
X150094583Y-123205031D01*
X150087142Y-123217447D01*
X150078519Y-123229073D01*
X150068798Y-123239798D01*
X150058073Y-123249519D01*
X150046447Y-123258142D01*
X150034031Y-123265583D01*
X150020946Y-123271772D01*
X150007317Y-123276649D01*
X149993276Y-123280166D01*
X149978958Y-123282290D01*
X149964500Y-123283000D01*
X149669500Y-123283000D01*
X149655042Y-123282290D01*
X149640724Y-123280166D01*
X149626683Y-123276649D01*
X149613054Y-123271772D01*
X149599969Y-123265583D01*
X149587553Y-123258142D01*
X149575927Y-123249519D01*
X149565202Y-123239798D01*
X149555481Y-123229073D01*
X149546858Y-123217447D01*
X149539417Y-123205031D01*
X149533228Y-123191946D01*
X149528351Y-123178317D01*
X149524834Y-123164276D01*
X149522710Y-123149958D01*
X149522000Y-123135500D01*
X149522000Y-122790500D01*
X149522710Y-122776042D01*
X149524834Y-122761724D01*
X149528351Y-122747683D01*
X149533228Y-122734054D01*
X149539417Y-122720969D01*
X149546858Y-122708553D01*
X149555481Y-122696927D01*
X149565202Y-122686202D01*
X149575927Y-122676481D01*
X149587553Y-122667858D01*
X149599969Y-122660417D01*
X149613054Y-122654228D01*
X149626683Y-122649351D01*
X149640724Y-122645834D01*
X149655042Y-122643710D01*
X149669500Y-122643000D01*
X149964500Y-122643000D01*
X149978958Y-122643710D01*
X149978958Y-122643710D01*
G37*
D13*
X149817000Y-122963000D03*
D12*
G36*
X149008958Y-122643710D02*
G01*
X149023276Y-122645834D01*
X149037317Y-122649351D01*
X149050946Y-122654228D01*
X149064031Y-122660417D01*
X149076447Y-122667858D01*
X149088073Y-122676481D01*
X149098798Y-122686202D01*
X149108519Y-122696927D01*
X149117142Y-122708553D01*
X149124583Y-122720969D01*
X149130772Y-122734054D01*
X149135649Y-122747683D01*
X149139166Y-122761724D01*
X149141290Y-122776042D01*
X149142000Y-122790500D01*
X149142000Y-123135500D01*
X149141290Y-123149958D01*
X149139166Y-123164276D01*
X149135649Y-123178317D01*
X149130772Y-123191946D01*
X149124583Y-123205031D01*
X149117142Y-123217447D01*
X149108519Y-123229073D01*
X149098798Y-123239798D01*
X149088073Y-123249519D01*
X149076447Y-123258142D01*
X149064031Y-123265583D01*
X149050946Y-123271772D01*
X149037317Y-123276649D01*
X149023276Y-123280166D01*
X149008958Y-123282290D01*
X148994500Y-123283000D01*
X148699500Y-123283000D01*
X148685042Y-123282290D01*
X148670724Y-123280166D01*
X148656683Y-123276649D01*
X148643054Y-123271772D01*
X148629969Y-123265583D01*
X148617553Y-123258142D01*
X148605927Y-123249519D01*
X148595202Y-123239798D01*
X148585481Y-123229073D01*
X148576858Y-123217447D01*
X148569417Y-123205031D01*
X148563228Y-123191946D01*
X148558351Y-123178317D01*
X148554834Y-123164276D01*
X148552710Y-123149958D01*
X148552000Y-123135500D01*
X148552000Y-122790500D01*
X148552710Y-122776042D01*
X148554834Y-122761724D01*
X148558351Y-122747683D01*
X148563228Y-122734054D01*
X148569417Y-122720969D01*
X148576858Y-122708553D01*
X148585481Y-122696927D01*
X148595202Y-122686202D01*
X148605927Y-122676481D01*
X148617553Y-122667858D01*
X148629969Y-122660417D01*
X148643054Y-122654228D01*
X148656683Y-122649351D01*
X148670724Y-122645834D01*
X148685042Y-122643710D01*
X148699500Y-122643000D01*
X148994500Y-122643000D01*
X149008958Y-122643710D01*
X149008958Y-122643710D01*
G37*
D13*
X148847000Y-122963000D03*
D12*
G36*
X152589958Y-121952710D02*
G01*
X152604276Y-121954834D01*
X152618317Y-121958351D01*
X152631946Y-121963228D01*
X152645031Y-121969417D01*
X152657447Y-121976858D01*
X152669073Y-121985481D01*
X152679798Y-121995202D01*
X152689519Y-122005927D01*
X152698142Y-122017553D01*
X152705583Y-122029969D01*
X152711772Y-122043054D01*
X152716649Y-122056683D01*
X152720166Y-122070724D01*
X152722290Y-122085042D01*
X152723000Y-122099500D01*
X152723000Y-122394500D01*
X152722290Y-122408958D01*
X152720166Y-122423276D01*
X152716649Y-122437317D01*
X152711772Y-122450946D01*
X152705583Y-122464031D01*
X152698142Y-122476447D01*
X152689519Y-122488073D01*
X152679798Y-122498798D01*
X152669073Y-122508519D01*
X152657447Y-122517142D01*
X152645031Y-122524583D01*
X152631946Y-122530772D01*
X152618317Y-122535649D01*
X152604276Y-122539166D01*
X152589958Y-122541290D01*
X152575500Y-122542000D01*
X152230500Y-122542000D01*
X152216042Y-122541290D01*
X152201724Y-122539166D01*
X152187683Y-122535649D01*
X152174054Y-122530772D01*
X152160969Y-122524583D01*
X152148553Y-122517142D01*
X152136927Y-122508519D01*
X152126202Y-122498798D01*
X152116481Y-122488073D01*
X152107858Y-122476447D01*
X152100417Y-122464031D01*
X152094228Y-122450946D01*
X152089351Y-122437317D01*
X152085834Y-122423276D01*
X152083710Y-122408958D01*
X152083000Y-122394500D01*
X152083000Y-122099500D01*
X152083710Y-122085042D01*
X152085834Y-122070724D01*
X152089351Y-122056683D01*
X152094228Y-122043054D01*
X152100417Y-122029969D01*
X152107858Y-122017553D01*
X152116481Y-122005927D01*
X152126202Y-121995202D01*
X152136927Y-121985481D01*
X152148553Y-121976858D01*
X152160969Y-121969417D01*
X152174054Y-121963228D01*
X152187683Y-121958351D01*
X152201724Y-121954834D01*
X152216042Y-121952710D01*
X152230500Y-121952000D01*
X152575500Y-121952000D01*
X152589958Y-121952710D01*
X152589958Y-121952710D01*
G37*
D13*
X152403000Y-122247000D03*
D12*
G36*
X152589958Y-122922710D02*
G01*
X152604276Y-122924834D01*
X152618317Y-122928351D01*
X152631946Y-122933228D01*
X152645031Y-122939417D01*
X152657447Y-122946858D01*
X152669073Y-122955481D01*
X152679798Y-122965202D01*
X152689519Y-122975927D01*
X152698142Y-122987553D01*
X152705583Y-122999969D01*
X152711772Y-123013054D01*
X152716649Y-123026683D01*
X152720166Y-123040724D01*
X152722290Y-123055042D01*
X152723000Y-123069500D01*
X152723000Y-123364500D01*
X152722290Y-123378958D01*
X152720166Y-123393276D01*
X152716649Y-123407317D01*
X152711772Y-123420946D01*
X152705583Y-123434031D01*
X152698142Y-123446447D01*
X152689519Y-123458073D01*
X152679798Y-123468798D01*
X152669073Y-123478519D01*
X152657447Y-123487142D01*
X152645031Y-123494583D01*
X152631946Y-123500772D01*
X152618317Y-123505649D01*
X152604276Y-123509166D01*
X152589958Y-123511290D01*
X152575500Y-123512000D01*
X152230500Y-123512000D01*
X152216042Y-123511290D01*
X152201724Y-123509166D01*
X152187683Y-123505649D01*
X152174054Y-123500772D01*
X152160969Y-123494583D01*
X152148553Y-123487142D01*
X152136927Y-123478519D01*
X152126202Y-123468798D01*
X152116481Y-123458073D01*
X152107858Y-123446447D01*
X152100417Y-123434031D01*
X152094228Y-123420946D01*
X152089351Y-123407317D01*
X152085834Y-123393276D01*
X152083710Y-123378958D01*
X152083000Y-123364500D01*
X152083000Y-123069500D01*
X152083710Y-123055042D01*
X152085834Y-123040724D01*
X152089351Y-123026683D01*
X152094228Y-123013054D01*
X152100417Y-122999969D01*
X152107858Y-122987553D01*
X152116481Y-122975927D01*
X152126202Y-122965202D01*
X152136927Y-122955481D01*
X152148553Y-122946858D01*
X152160969Y-122939417D01*
X152174054Y-122933228D01*
X152187683Y-122928351D01*
X152201724Y-122924834D01*
X152216042Y-122922710D01*
X152230500Y-122922000D01*
X152575500Y-122922000D01*
X152589958Y-122922710D01*
X152589958Y-122922710D01*
G37*
D13*
X152403000Y-123217000D03*
D12*
G36*
X148373958Y-124040710D02*
G01*
X148388276Y-124042834D01*
X148402317Y-124046351D01*
X148415946Y-124051228D01*
X148429031Y-124057417D01*
X148441447Y-124064858D01*
X148453073Y-124073481D01*
X148463798Y-124083202D01*
X148473519Y-124093927D01*
X148482142Y-124105553D01*
X148489583Y-124117969D01*
X148495772Y-124131054D01*
X148500649Y-124144683D01*
X148504166Y-124158724D01*
X148506290Y-124173042D01*
X148507000Y-124187500D01*
X148507000Y-124532500D01*
X148506290Y-124546958D01*
X148504166Y-124561276D01*
X148500649Y-124575317D01*
X148495772Y-124588946D01*
X148489583Y-124602031D01*
X148482142Y-124614447D01*
X148473519Y-124626073D01*
X148463798Y-124636798D01*
X148453073Y-124646519D01*
X148441447Y-124655142D01*
X148429031Y-124662583D01*
X148415946Y-124668772D01*
X148402317Y-124673649D01*
X148388276Y-124677166D01*
X148373958Y-124679290D01*
X148359500Y-124680000D01*
X148064500Y-124680000D01*
X148050042Y-124679290D01*
X148035724Y-124677166D01*
X148021683Y-124673649D01*
X148008054Y-124668772D01*
X147994969Y-124662583D01*
X147982553Y-124655142D01*
X147970927Y-124646519D01*
X147960202Y-124636798D01*
X147950481Y-124626073D01*
X147941858Y-124614447D01*
X147934417Y-124602031D01*
X147928228Y-124588946D01*
X147923351Y-124575317D01*
X147919834Y-124561276D01*
X147917710Y-124546958D01*
X147917000Y-124532500D01*
X147917000Y-124187500D01*
X147917710Y-124173042D01*
X147919834Y-124158724D01*
X147923351Y-124144683D01*
X147928228Y-124131054D01*
X147934417Y-124117969D01*
X147941858Y-124105553D01*
X147950481Y-124093927D01*
X147960202Y-124083202D01*
X147970927Y-124073481D01*
X147982553Y-124064858D01*
X147994969Y-124057417D01*
X148008054Y-124051228D01*
X148021683Y-124046351D01*
X148035724Y-124042834D01*
X148050042Y-124040710D01*
X148064500Y-124040000D01*
X148359500Y-124040000D01*
X148373958Y-124040710D01*
X148373958Y-124040710D01*
G37*
D13*
X148212000Y-124360000D03*
D12*
G36*
X149343958Y-124040710D02*
G01*
X149358276Y-124042834D01*
X149372317Y-124046351D01*
X149385946Y-124051228D01*
X149399031Y-124057417D01*
X149411447Y-124064858D01*
X149423073Y-124073481D01*
X149433798Y-124083202D01*
X149443519Y-124093927D01*
X149452142Y-124105553D01*
X149459583Y-124117969D01*
X149465772Y-124131054D01*
X149470649Y-124144683D01*
X149474166Y-124158724D01*
X149476290Y-124173042D01*
X149477000Y-124187500D01*
X149477000Y-124532500D01*
X149476290Y-124546958D01*
X149474166Y-124561276D01*
X149470649Y-124575317D01*
X149465772Y-124588946D01*
X149459583Y-124602031D01*
X149452142Y-124614447D01*
X149443519Y-124626073D01*
X149433798Y-124636798D01*
X149423073Y-124646519D01*
X149411447Y-124655142D01*
X149399031Y-124662583D01*
X149385946Y-124668772D01*
X149372317Y-124673649D01*
X149358276Y-124677166D01*
X149343958Y-124679290D01*
X149329500Y-124680000D01*
X149034500Y-124680000D01*
X149020042Y-124679290D01*
X149005724Y-124677166D01*
X148991683Y-124673649D01*
X148978054Y-124668772D01*
X148964969Y-124662583D01*
X148952553Y-124655142D01*
X148940927Y-124646519D01*
X148930202Y-124636798D01*
X148920481Y-124626073D01*
X148911858Y-124614447D01*
X148904417Y-124602031D01*
X148898228Y-124588946D01*
X148893351Y-124575317D01*
X148889834Y-124561276D01*
X148887710Y-124546958D01*
X148887000Y-124532500D01*
X148887000Y-124187500D01*
X148887710Y-124173042D01*
X148889834Y-124158724D01*
X148893351Y-124144683D01*
X148898228Y-124131054D01*
X148904417Y-124117969D01*
X148911858Y-124105553D01*
X148920481Y-124093927D01*
X148930202Y-124083202D01*
X148940927Y-124073481D01*
X148952553Y-124064858D01*
X148964969Y-124057417D01*
X148978054Y-124051228D01*
X148991683Y-124046351D01*
X149005724Y-124042834D01*
X149020042Y-124040710D01*
X149034500Y-124040000D01*
X149329500Y-124040000D01*
X149343958Y-124040710D01*
X149343958Y-124040710D01*
G37*
D13*
X149182000Y-124360000D03*
D12*
G36*
X150913958Y-124040710D02*
G01*
X150928276Y-124042834D01*
X150942317Y-124046351D01*
X150955946Y-124051228D01*
X150969031Y-124057417D01*
X150981447Y-124064858D01*
X150993073Y-124073481D01*
X151003798Y-124083202D01*
X151013519Y-124093927D01*
X151022142Y-124105553D01*
X151029583Y-124117969D01*
X151035772Y-124131054D01*
X151040649Y-124144683D01*
X151044166Y-124158724D01*
X151046290Y-124173042D01*
X151047000Y-124187500D01*
X151047000Y-124532500D01*
X151046290Y-124546958D01*
X151044166Y-124561276D01*
X151040649Y-124575317D01*
X151035772Y-124588946D01*
X151029583Y-124602031D01*
X151022142Y-124614447D01*
X151013519Y-124626073D01*
X151003798Y-124636798D01*
X150993073Y-124646519D01*
X150981447Y-124655142D01*
X150969031Y-124662583D01*
X150955946Y-124668772D01*
X150942317Y-124673649D01*
X150928276Y-124677166D01*
X150913958Y-124679290D01*
X150899500Y-124680000D01*
X150604500Y-124680000D01*
X150590042Y-124679290D01*
X150575724Y-124677166D01*
X150561683Y-124673649D01*
X150548054Y-124668772D01*
X150534969Y-124662583D01*
X150522553Y-124655142D01*
X150510927Y-124646519D01*
X150500202Y-124636798D01*
X150490481Y-124626073D01*
X150481858Y-124614447D01*
X150474417Y-124602031D01*
X150468228Y-124588946D01*
X150463351Y-124575317D01*
X150459834Y-124561276D01*
X150457710Y-124546958D01*
X150457000Y-124532500D01*
X150457000Y-124187500D01*
X150457710Y-124173042D01*
X150459834Y-124158724D01*
X150463351Y-124144683D01*
X150468228Y-124131054D01*
X150474417Y-124117969D01*
X150481858Y-124105553D01*
X150490481Y-124093927D01*
X150500202Y-124083202D01*
X150510927Y-124073481D01*
X150522553Y-124064858D01*
X150534969Y-124057417D01*
X150548054Y-124051228D01*
X150561683Y-124046351D01*
X150575724Y-124042834D01*
X150590042Y-124040710D01*
X150604500Y-124040000D01*
X150899500Y-124040000D01*
X150913958Y-124040710D01*
X150913958Y-124040710D01*
G37*
D13*
X150752000Y-124360000D03*
D12*
G36*
X151883958Y-124040710D02*
G01*
X151898276Y-124042834D01*
X151912317Y-124046351D01*
X151925946Y-124051228D01*
X151939031Y-124057417D01*
X151951447Y-124064858D01*
X151963073Y-124073481D01*
X151973798Y-124083202D01*
X151983519Y-124093927D01*
X151992142Y-124105553D01*
X151999583Y-124117969D01*
X152005772Y-124131054D01*
X152010649Y-124144683D01*
X152014166Y-124158724D01*
X152016290Y-124173042D01*
X152017000Y-124187500D01*
X152017000Y-124532500D01*
X152016290Y-124546958D01*
X152014166Y-124561276D01*
X152010649Y-124575317D01*
X152005772Y-124588946D01*
X151999583Y-124602031D01*
X151992142Y-124614447D01*
X151983519Y-124626073D01*
X151973798Y-124636798D01*
X151963073Y-124646519D01*
X151951447Y-124655142D01*
X151939031Y-124662583D01*
X151925946Y-124668772D01*
X151912317Y-124673649D01*
X151898276Y-124677166D01*
X151883958Y-124679290D01*
X151869500Y-124680000D01*
X151574500Y-124680000D01*
X151560042Y-124679290D01*
X151545724Y-124677166D01*
X151531683Y-124673649D01*
X151518054Y-124668772D01*
X151504969Y-124662583D01*
X151492553Y-124655142D01*
X151480927Y-124646519D01*
X151470202Y-124636798D01*
X151460481Y-124626073D01*
X151451858Y-124614447D01*
X151444417Y-124602031D01*
X151438228Y-124588946D01*
X151433351Y-124575317D01*
X151429834Y-124561276D01*
X151427710Y-124546958D01*
X151427000Y-124532500D01*
X151427000Y-124187500D01*
X151427710Y-124173042D01*
X151429834Y-124158724D01*
X151433351Y-124144683D01*
X151438228Y-124131054D01*
X151444417Y-124117969D01*
X151451858Y-124105553D01*
X151460481Y-124093927D01*
X151470202Y-124083202D01*
X151480927Y-124073481D01*
X151492553Y-124064858D01*
X151504969Y-124057417D01*
X151518054Y-124051228D01*
X151531683Y-124046351D01*
X151545724Y-124042834D01*
X151560042Y-124040710D01*
X151574500Y-124040000D01*
X151869500Y-124040000D01*
X151883958Y-124040710D01*
X151883958Y-124040710D01*
G37*
D13*
X151722000Y-124360000D03*
D12*
G36*
X150811958Y-125762710D02*
G01*
X150826276Y-125764834D01*
X150840317Y-125768351D01*
X150853946Y-125773228D01*
X150867031Y-125779417D01*
X150879447Y-125786858D01*
X150891073Y-125795481D01*
X150901798Y-125805202D01*
X150911519Y-125815927D01*
X150920142Y-125827553D01*
X150927583Y-125839969D01*
X150933772Y-125853054D01*
X150938649Y-125866683D01*
X150942166Y-125880724D01*
X150944290Y-125895042D01*
X150945000Y-125909500D01*
X150945000Y-126204500D01*
X150944290Y-126218958D01*
X150942166Y-126233276D01*
X150938649Y-126247317D01*
X150933772Y-126260946D01*
X150927583Y-126274031D01*
X150920142Y-126286447D01*
X150911519Y-126298073D01*
X150901798Y-126308798D01*
X150891073Y-126318519D01*
X150879447Y-126327142D01*
X150867031Y-126334583D01*
X150853946Y-126340772D01*
X150840317Y-126345649D01*
X150826276Y-126349166D01*
X150811958Y-126351290D01*
X150797500Y-126352000D01*
X150452500Y-126352000D01*
X150438042Y-126351290D01*
X150423724Y-126349166D01*
X150409683Y-126345649D01*
X150396054Y-126340772D01*
X150382969Y-126334583D01*
X150370553Y-126327142D01*
X150358927Y-126318519D01*
X150348202Y-126308798D01*
X150338481Y-126298073D01*
X150329858Y-126286447D01*
X150322417Y-126274031D01*
X150316228Y-126260946D01*
X150311351Y-126247317D01*
X150307834Y-126233276D01*
X150305710Y-126218958D01*
X150305000Y-126204500D01*
X150305000Y-125909500D01*
X150305710Y-125895042D01*
X150307834Y-125880724D01*
X150311351Y-125866683D01*
X150316228Y-125853054D01*
X150322417Y-125839969D01*
X150329858Y-125827553D01*
X150338481Y-125815927D01*
X150348202Y-125805202D01*
X150358927Y-125795481D01*
X150370553Y-125786858D01*
X150382969Y-125779417D01*
X150396054Y-125773228D01*
X150409683Y-125768351D01*
X150423724Y-125764834D01*
X150438042Y-125762710D01*
X150452500Y-125762000D01*
X150797500Y-125762000D01*
X150811958Y-125762710D01*
X150811958Y-125762710D01*
G37*
D13*
X150625000Y-126057000D03*
D12*
G36*
X150811958Y-126732710D02*
G01*
X150826276Y-126734834D01*
X150840317Y-126738351D01*
X150853946Y-126743228D01*
X150867031Y-126749417D01*
X150879447Y-126756858D01*
X150891073Y-126765481D01*
X150901798Y-126775202D01*
X150911519Y-126785927D01*
X150920142Y-126797553D01*
X150927583Y-126809969D01*
X150933772Y-126823054D01*
X150938649Y-126836683D01*
X150942166Y-126850724D01*
X150944290Y-126865042D01*
X150945000Y-126879500D01*
X150945000Y-127174500D01*
X150944290Y-127188958D01*
X150942166Y-127203276D01*
X150938649Y-127217317D01*
X150933772Y-127230946D01*
X150927583Y-127244031D01*
X150920142Y-127256447D01*
X150911519Y-127268073D01*
X150901798Y-127278798D01*
X150891073Y-127288519D01*
X150879447Y-127297142D01*
X150867031Y-127304583D01*
X150853946Y-127310772D01*
X150840317Y-127315649D01*
X150826276Y-127319166D01*
X150811958Y-127321290D01*
X150797500Y-127322000D01*
X150452500Y-127322000D01*
X150438042Y-127321290D01*
X150423724Y-127319166D01*
X150409683Y-127315649D01*
X150396054Y-127310772D01*
X150382969Y-127304583D01*
X150370553Y-127297142D01*
X150358927Y-127288519D01*
X150348202Y-127278798D01*
X150338481Y-127268073D01*
X150329858Y-127256447D01*
X150322417Y-127244031D01*
X150316228Y-127230946D01*
X150311351Y-127217317D01*
X150307834Y-127203276D01*
X150305710Y-127188958D01*
X150305000Y-127174500D01*
X150305000Y-126879500D01*
X150305710Y-126865042D01*
X150307834Y-126850724D01*
X150311351Y-126836683D01*
X150316228Y-126823054D01*
X150322417Y-126809969D01*
X150329858Y-126797553D01*
X150338481Y-126785927D01*
X150348202Y-126775202D01*
X150358927Y-126765481D01*
X150370553Y-126756858D01*
X150382969Y-126749417D01*
X150396054Y-126743228D01*
X150409683Y-126738351D01*
X150423724Y-126734834D01*
X150438042Y-126732710D01*
X150452500Y-126732000D01*
X150797500Y-126732000D01*
X150811958Y-126732710D01*
X150811958Y-126732710D01*
G37*
D13*
X150625000Y-127027000D03*
D12*
G36*
X152335958Y-125762710D02*
G01*
X152350276Y-125764834D01*
X152364317Y-125768351D01*
X152377946Y-125773228D01*
X152391031Y-125779417D01*
X152403447Y-125786858D01*
X152415073Y-125795481D01*
X152425798Y-125805202D01*
X152435519Y-125815927D01*
X152444142Y-125827553D01*
X152451583Y-125839969D01*
X152457772Y-125853054D01*
X152462649Y-125866683D01*
X152466166Y-125880724D01*
X152468290Y-125895042D01*
X152469000Y-125909500D01*
X152469000Y-126204500D01*
X152468290Y-126218958D01*
X152466166Y-126233276D01*
X152462649Y-126247317D01*
X152457772Y-126260946D01*
X152451583Y-126274031D01*
X152444142Y-126286447D01*
X152435519Y-126298073D01*
X152425798Y-126308798D01*
X152415073Y-126318519D01*
X152403447Y-126327142D01*
X152391031Y-126334583D01*
X152377946Y-126340772D01*
X152364317Y-126345649D01*
X152350276Y-126349166D01*
X152335958Y-126351290D01*
X152321500Y-126352000D01*
X151976500Y-126352000D01*
X151962042Y-126351290D01*
X151947724Y-126349166D01*
X151933683Y-126345649D01*
X151920054Y-126340772D01*
X151906969Y-126334583D01*
X151894553Y-126327142D01*
X151882927Y-126318519D01*
X151872202Y-126308798D01*
X151862481Y-126298073D01*
X151853858Y-126286447D01*
X151846417Y-126274031D01*
X151840228Y-126260946D01*
X151835351Y-126247317D01*
X151831834Y-126233276D01*
X151829710Y-126218958D01*
X151829000Y-126204500D01*
X151829000Y-125909500D01*
X151829710Y-125895042D01*
X151831834Y-125880724D01*
X151835351Y-125866683D01*
X151840228Y-125853054D01*
X151846417Y-125839969D01*
X151853858Y-125827553D01*
X151862481Y-125815927D01*
X151872202Y-125805202D01*
X151882927Y-125795481D01*
X151894553Y-125786858D01*
X151906969Y-125779417D01*
X151920054Y-125773228D01*
X151933683Y-125768351D01*
X151947724Y-125764834D01*
X151962042Y-125762710D01*
X151976500Y-125762000D01*
X152321500Y-125762000D01*
X152335958Y-125762710D01*
X152335958Y-125762710D01*
G37*
D13*
X152149000Y-126057000D03*
D12*
G36*
X152335958Y-126732710D02*
G01*
X152350276Y-126734834D01*
X152364317Y-126738351D01*
X152377946Y-126743228D01*
X152391031Y-126749417D01*
X152403447Y-126756858D01*
X152415073Y-126765481D01*
X152425798Y-126775202D01*
X152435519Y-126785927D01*
X152444142Y-126797553D01*
X152451583Y-126809969D01*
X152457772Y-126823054D01*
X152462649Y-126836683D01*
X152466166Y-126850724D01*
X152468290Y-126865042D01*
X152469000Y-126879500D01*
X152469000Y-127174500D01*
X152468290Y-127188958D01*
X152466166Y-127203276D01*
X152462649Y-127217317D01*
X152457772Y-127230946D01*
X152451583Y-127244031D01*
X152444142Y-127256447D01*
X152435519Y-127268073D01*
X152425798Y-127278798D01*
X152415073Y-127288519D01*
X152403447Y-127297142D01*
X152391031Y-127304583D01*
X152377946Y-127310772D01*
X152364317Y-127315649D01*
X152350276Y-127319166D01*
X152335958Y-127321290D01*
X152321500Y-127322000D01*
X151976500Y-127322000D01*
X151962042Y-127321290D01*
X151947724Y-127319166D01*
X151933683Y-127315649D01*
X151920054Y-127310772D01*
X151906969Y-127304583D01*
X151894553Y-127297142D01*
X151882927Y-127288519D01*
X151872202Y-127278798D01*
X151862481Y-127268073D01*
X151853858Y-127256447D01*
X151846417Y-127244031D01*
X151840228Y-127230946D01*
X151835351Y-127217317D01*
X151831834Y-127203276D01*
X151829710Y-127188958D01*
X151829000Y-127174500D01*
X151829000Y-126879500D01*
X151829710Y-126865042D01*
X151831834Y-126850724D01*
X151835351Y-126836683D01*
X151840228Y-126823054D01*
X151846417Y-126809969D01*
X151853858Y-126797553D01*
X151862481Y-126785927D01*
X151872202Y-126775202D01*
X151882927Y-126765481D01*
X151894553Y-126756858D01*
X151906969Y-126749417D01*
X151920054Y-126743228D01*
X151933683Y-126738351D01*
X151947724Y-126734834D01*
X151962042Y-126732710D01*
X151976500Y-126732000D01*
X152321500Y-126732000D01*
X152335958Y-126732710D01*
X152335958Y-126732710D01*
G37*
D13*
X152149000Y-127027000D03*
D12*
G36*
X148017958Y-125889710D02*
G01*
X148032276Y-125891834D01*
X148046317Y-125895351D01*
X148059946Y-125900228D01*
X148073031Y-125906417D01*
X148085447Y-125913858D01*
X148097073Y-125922481D01*
X148107798Y-125932202D01*
X148117519Y-125942927D01*
X148126142Y-125954553D01*
X148133583Y-125966969D01*
X148139772Y-125980054D01*
X148144649Y-125993683D01*
X148148166Y-126007724D01*
X148150290Y-126022042D01*
X148151000Y-126036500D01*
X148151000Y-126331500D01*
X148150290Y-126345958D01*
X148148166Y-126360276D01*
X148144649Y-126374317D01*
X148139772Y-126387946D01*
X148133583Y-126401031D01*
X148126142Y-126413447D01*
X148117519Y-126425073D01*
X148107798Y-126435798D01*
X148097073Y-126445519D01*
X148085447Y-126454142D01*
X148073031Y-126461583D01*
X148059946Y-126467772D01*
X148046317Y-126472649D01*
X148032276Y-126476166D01*
X148017958Y-126478290D01*
X148003500Y-126479000D01*
X147658500Y-126479000D01*
X147644042Y-126478290D01*
X147629724Y-126476166D01*
X147615683Y-126472649D01*
X147602054Y-126467772D01*
X147588969Y-126461583D01*
X147576553Y-126454142D01*
X147564927Y-126445519D01*
X147554202Y-126435798D01*
X147544481Y-126425073D01*
X147535858Y-126413447D01*
X147528417Y-126401031D01*
X147522228Y-126387946D01*
X147517351Y-126374317D01*
X147513834Y-126360276D01*
X147511710Y-126345958D01*
X147511000Y-126331500D01*
X147511000Y-126036500D01*
X147511710Y-126022042D01*
X147513834Y-126007724D01*
X147517351Y-125993683D01*
X147522228Y-125980054D01*
X147528417Y-125966969D01*
X147535858Y-125954553D01*
X147544481Y-125942927D01*
X147554202Y-125932202D01*
X147564927Y-125922481D01*
X147576553Y-125913858D01*
X147588969Y-125906417D01*
X147602054Y-125900228D01*
X147615683Y-125895351D01*
X147629724Y-125891834D01*
X147644042Y-125889710D01*
X147658500Y-125889000D01*
X148003500Y-125889000D01*
X148017958Y-125889710D01*
X148017958Y-125889710D01*
G37*
D13*
X147831000Y-126184000D03*
D12*
G36*
X148017958Y-126859710D02*
G01*
X148032276Y-126861834D01*
X148046317Y-126865351D01*
X148059946Y-126870228D01*
X148073031Y-126876417D01*
X148085447Y-126883858D01*
X148097073Y-126892481D01*
X148107798Y-126902202D01*
X148117519Y-126912927D01*
X148126142Y-126924553D01*
X148133583Y-126936969D01*
X148139772Y-126950054D01*
X148144649Y-126963683D01*
X148148166Y-126977724D01*
X148150290Y-126992042D01*
X148151000Y-127006500D01*
X148151000Y-127301500D01*
X148150290Y-127315958D01*
X148148166Y-127330276D01*
X148144649Y-127344317D01*
X148139772Y-127357946D01*
X148133583Y-127371031D01*
X148126142Y-127383447D01*
X148117519Y-127395073D01*
X148107798Y-127405798D01*
X148097073Y-127415519D01*
X148085447Y-127424142D01*
X148073031Y-127431583D01*
X148059946Y-127437772D01*
X148046317Y-127442649D01*
X148032276Y-127446166D01*
X148017958Y-127448290D01*
X148003500Y-127449000D01*
X147658500Y-127449000D01*
X147644042Y-127448290D01*
X147629724Y-127446166D01*
X147615683Y-127442649D01*
X147602054Y-127437772D01*
X147588969Y-127431583D01*
X147576553Y-127424142D01*
X147564927Y-127415519D01*
X147554202Y-127405798D01*
X147544481Y-127395073D01*
X147535858Y-127383447D01*
X147528417Y-127371031D01*
X147522228Y-127357946D01*
X147517351Y-127344317D01*
X147513834Y-127330276D01*
X147511710Y-127315958D01*
X147511000Y-127301500D01*
X147511000Y-127006500D01*
X147511710Y-126992042D01*
X147513834Y-126977724D01*
X147517351Y-126963683D01*
X147522228Y-126950054D01*
X147528417Y-126936969D01*
X147535858Y-126924553D01*
X147544481Y-126912927D01*
X147554202Y-126902202D01*
X147564927Y-126892481D01*
X147576553Y-126883858D01*
X147588969Y-126876417D01*
X147602054Y-126870228D01*
X147615683Y-126865351D01*
X147629724Y-126861834D01*
X147644042Y-126859710D01*
X147658500Y-126859000D01*
X148003500Y-126859000D01*
X148017958Y-126859710D01*
X148017958Y-126859710D01*
G37*
D13*
X147831000Y-127154000D03*
D12*
G36*
X149541958Y-125762710D02*
G01*
X149556276Y-125764834D01*
X149570317Y-125768351D01*
X149583946Y-125773228D01*
X149597031Y-125779417D01*
X149609447Y-125786858D01*
X149621073Y-125795481D01*
X149631798Y-125805202D01*
X149641519Y-125815927D01*
X149650142Y-125827553D01*
X149657583Y-125839969D01*
X149663772Y-125853054D01*
X149668649Y-125866683D01*
X149672166Y-125880724D01*
X149674290Y-125895042D01*
X149675000Y-125909500D01*
X149675000Y-126204500D01*
X149674290Y-126218958D01*
X149672166Y-126233276D01*
X149668649Y-126247317D01*
X149663772Y-126260946D01*
X149657583Y-126274031D01*
X149650142Y-126286447D01*
X149641519Y-126298073D01*
X149631798Y-126308798D01*
X149621073Y-126318519D01*
X149609447Y-126327142D01*
X149597031Y-126334583D01*
X149583946Y-126340772D01*
X149570317Y-126345649D01*
X149556276Y-126349166D01*
X149541958Y-126351290D01*
X149527500Y-126352000D01*
X149182500Y-126352000D01*
X149168042Y-126351290D01*
X149153724Y-126349166D01*
X149139683Y-126345649D01*
X149126054Y-126340772D01*
X149112969Y-126334583D01*
X149100553Y-126327142D01*
X149088927Y-126318519D01*
X149078202Y-126308798D01*
X149068481Y-126298073D01*
X149059858Y-126286447D01*
X149052417Y-126274031D01*
X149046228Y-126260946D01*
X149041351Y-126247317D01*
X149037834Y-126233276D01*
X149035710Y-126218958D01*
X149035000Y-126204500D01*
X149035000Y-125909500D01*
X149035710Y-125895042D01*
X149037834Y-125880724D01*
X149041351Y-125866683D01*
X149046228Y-125853054D01*
X149052417Y-125839969D01*
X149059858Y-125827553D01*
X149068481Y-125815927D01*
X149078202Y-125805202D01*
X149088927Y-125795481D01*
X149100553Y-125786858D01*
X149112969Y-125779417D01*
X149126054Y-125773228D01*
X149139683Y-125768351D01*
X149153724Y-125764834D01*
X149168042Y-125762710D01*
X149182500Y-125762000D01*
X149527500Y-125762000D01*
X149541958Y-125762710D01*
X149541958Y-125762710D01*
G37*
D13*
X149355000Y-126057000D03*
D12*
G36*
X149541958Y-126732710D02*
G01*
X149556276Y-126734834D01*
X149570317Y-126738351D01*
X149583946Y-126743228D01*
X149597031Y-126749417D01*
X149609447Y-126756858D01*
X149621073Y-126765481D01*
X149631798Y-126775202D01*
X149641519Y-126785927D01*
X149650142Y-126797553D01*
X149657583Y-126809969D01*
X149663772Y-126823054D01*
X149668649Y-126836683D01*
X149672166Y-126850724D01*
X149674290Y-126865042D01*
X149675000Y-126879500D01*
X149675000Y-127174500D01*
X149674290Y-127188958D01*
X149672166Y-127203276D01*
X149668649Y-127217317D01*
X149663772Y-127230946D01*
X149657583Y-127244031D01*
X149650142Y-127256447D01*
X149641519Y-127268073D01*
X149631798Y-127278798D01*
X149621073Y-127288519D01*
X149609447Y-127297142D01*
X149597031Y-127304583D01*
X149583946Y-127310772D01*
X149570317Y-127315649D01*
X149556276Y-127319166D01*
X149541958Y-127321290D01*
X149527500Y-127322000D01*
X149182500Y-127322000D01*
X149168042Y-127321290D01*
X149153724Y-127319166D01*
X149139683Y-127315649D01*
X149126054Y-127310772D01*
X149112969Y-127304583D01*
X149100553Y-127297142D01*
X149088927Y-127288519D01*
X149078202Y-127278798D01*
X149068481Y-127268073D01*
X149059858Y-127256447D01*
X149052417Y-127244031D01*
X149046228Y-127230946D01*
X149041351Y-127217317D01*
X149037834Y-127203276D01*
X149035710Y-127188958D01*
X149035000Y-127174500D01*
X149035000Y-126879500D01*
X149035710Y-126865042D01*
X149037834Y-126850724D01*
X149041351Y-126836683D01*
X149046228Y-126823054D01*
X149052417Y-126809969D01*
X149059858Y-126797553D01*
X149068481Y-126785927D01*
X149078202Y-126775202D01*
X149088927Y-126765481D01*
X149100553Y-126756858D01*
X149112969Y-126749417D01*
X149126054Y-126743228D01*
X149139683Y-126738351D01*
X149153724Y-126734834D01*
X149168042Y-126732710D01*
X149182500Y-126732000D01*
X149527500Y-126732000D01*
X149541958Y-126732710D01*
X149541958Y-126732710D01*
G37*
D13*
X149355000Y-127027000D03*
D12*
G36*
X148271958Y-131304710D02*
G01*
X148286276Y-131306834D01*
X148300317Y-131310351D01*
X148313946Y-131315228D01*
X148327031Y-131321417D01*
X148339447Y-131328858D01*
X148351073Y-131337481D01*
X148361798Y-131347202D01*
X148371519Y-131357927D01*
X148380142Y-131369553D01*
X148387583Y-131381969D01*
X148393772Y-131395054D01*
X148398649Y-131408683D01*
X148402166Y-131422724D01*
X148404290Y-131437042D01*
X148405000Y-131451500D01*
X148405000Y-131746500D01*
X148404290Y-131760958D01*
X148402166Y-131775276D01*
X148398649Y-131789317D01*
X148393772Y-131802946D01*
X148387583Y-131816031D01*
X148380142Y-131828447D01*
X148371519Y-131840073D01*
X148361798Y-131850798D01*
X148351073Y-131860519D01*
X148339447Y-131869142D01*
X148327031Y-131876583D01*
X148313946Y-131882772D01*
X148300317Y-131887649D01*
X148286276Y-131891166D01*
X148271958Y-131893290D01*
X148257500Y-131894000D01*
X147912500Y-131894000D01*
X147898042Y-131893290D01*
X147883724Y-131891166D01*
X147869683Y-131887649D01*
X147856054Y-131882772D01*
X147842969Y-131876583D01*
X147830553Y-131869142D01*
X147818927Y-131860519D01*
X147808202Y-131850798D01*
X147798481Y-131840073D01*
X147789858Y-131828447D01*
X147782417Y-131816031D01*
X147776228Y-131802946D01*
X147771351Y-131789317D01*
X147767834Y-131775276D01*
X147765710Y-131760958D01*
X147765000Y-131746500D01*
X147765000Y-131451500D01*
X147765710Y-131437042D01*
X147767834Y-131422724D01*
X147771351Y-131408683D01*
X147776228Y-131395054D01*
X147782417Y-131381969D01*
X147789858Y-131369553D01*
X147798481Y-131357927D01*
X147808202Y-131347202D01*
X147818927Y-131337481D01*
X147830553Y-131328858D01*
X147842969Y-131321417D01*
X147856054Y-131315228D01*
X147869683Y-131310351D01*
X147883724Y-131306834D01*
X147898042Y-131304710D01*
X147912500Y-131304000D01*
X148257500Y-131304000D01*
X148271958Y-131304710D01*
X148271958Y-131304710D01*
G37*
D13*
X148085000Y-131599000D03*
D12*
G36*
X148271958Y-132274710D02*
G01*
X148286276Y-132276834D01*
X148300317Y-132280351D01*
X148313946Y-132285228D01*
X148327031Y-132291417D01*
X148339447Y-132298858D01*
X148351073Y-132307481D01*
X148361798Y-132317202D01*
X148371519Y-132327927D01*
X148380142Y-132339553D01*
X148387583Y-132351969D01*
X148393772Y-132365054D01*
X148398649Y-132378683D01*
X148402166Y-132392724D01*
X148404290Y-132407042D01*
X148405000Y-132421500D01*
X148405000Y-132716500D01*
X148404290Y-132730958D01*
X148402166Y-132745276D01*
X148398649Y-132759317D01*
X148393772Y-132772946D01*
X148387583Y-132786031D01*
X148380142Y-132798447D01*
X148371519Y-132810073D01*
X148361798Y-132820798D01*
X148351073Y-132830519D01*
X148339447Y-132839142D01*
X148327031Y-132846583D01*
X148313946Y-132852772D01*
X148300317Y-132857649D01*
X148286276Y-132861166D01*
X148271958Y-132863290D01*
X148257500Y-132864000D01*
X147912500Y-132864000D01*
X147898042Y-132863290D01*
X147883724Y-132861166D01*
X147869683Y-132857649D01*
X147856054Y-132852772D01*
X147842969Y-132846583D01*
X147830553Y-132839142D01*
X147818927Y-132830519D01*
X147808202Y-132820798D01*
X147798481Y-132810073D01*
X147789858Y-132798447D01*
X147782417Y-132786031D01*
X147776228Y-132772946D01*
X147771351Y-132759317D01*
X147767834Y-132745276D01*
X147765710Y-132730958D01*
X147765000Y-132716500D01*
X147765000Y-132421500D01*
X147765710Y-132407042D01*
X147767834Y-132392724D01*
X147771351Y-132378683D01*
X147776228Y-132365054D01*
X147782417Y-132351969D01*
X147789858Y-132339553D01*
X147798481Y-132327927D01*
X147808202Y-132317202D01*
X147818927Y-132307481D01*
X147830553Y-132298858D01*
X147842969Y-132291417D01*
X147856054Y-132285228D01*
X147869683Y-132280351D01*
X147883724Y-132276834D01*
X147898042Y-132274710D01*
X147912500Y-132274000D01*
X148257500Y-132274000D01*
X148271958Y-132274710D01*
X148271958Y-132274710D01*
G37*
D13*
X148085000Y-132569000D03*
D12*
G36*
X149541958Y-131304710D02*
G01*
X149556276Y-131306834D01*
X149570317Y-131310351D01*
X149583946Y-131315228D01*
X149597031Y-131321417D01*
X149609447Y-131328858D01*
X149621073Y-131337481D01*
X149631798Y-131347202D01*
X149641519Y-131357927D01*
X149650142Y-131369553D01*
X149657583Y-131381969D01*
X149663772Y-131395054D01*
X149668649Y-131408683D01*
X149672166Y-131422724D01*
X149674290Y-131437042D01*
X149675000Y-131451500D01*
X149675000Y-131746500D01*
X149674290Y-131760958D01*
X149672166Y-131775276D01*
X149668649Y-131789317D01*
X149663772Y-131802946D01*
X149657583Y-131816031D01*
X149650142Y-131828447D01*
X149641519Y-131840073D01*
X149631798Y-131850798D01*
X149621073Y-131860519D01*
X149609447Y-131869142D01*
X149597031Y-131876583D01*
X149583946Y-131882772D01*
X149570317Y-131887649D01*
X149556276Y-131891166D01*
X149541958Y-131893290D01*
X149527500Y-131894000D01*
X149182500Y-131894000D01*
X149168042Y-131893290D01*
X149153724Y-131891166D01*
X149139683Y-131887649D01*
X149126054Y-131882772D01*
X149112969Y-131876583D01*
X149100553Y-131869142D01*
X149088927Y-131860519D01*
X149078202Y-131850798D01*
X149068481Y-131840073D01*
X149059858Y-131828447D01*
X149052417Y-131816031D01*
X149046228Y-131802946D01*
X149041351Y-131789317D01*
X149037834Y-131775276D01*
X149035710Y-131760958D01*
X149035000Y-131746500D01*
X149035000Y-131451500D01*
X149035710Y-131437042D01*
X149037834Y-131422724D01*
X149041351Y-131408683D01*
X149046228Y-131395054D01*
X149052417Y-131381969D01*
X149059858Y-131369553D01*
X149068481Y-131357927D01*
X149078202Y-131347202D01*
X149088927Y-131337481D01*
X149100553Y-131328858D01*
X149112969Y-131321417D01*
X149126054Y-131315228D01*
X149139683Y-131310351D01*
X149153724Y-131306834D01*
X149168042Y-131304710D01*
X149182500Y-131304000D01*
X149527500Y-131304000D01*
X149541958Y-131304710D01*
X149541958Y-131304710D01*
G37*
D13*
X149355000Y-131599000D03*
D12*
G36*
X149541958Y-132274710D02*
G01*
X149556276Y-132276834D01*
X149570317Y-132280351D01*
X149583946Y-132285228D01*
X149597031Y-132291417D01*
X149609447Y-132298858D01*
X149621073Y-132307481D01*
X149631798Y-132317202D01*
X149641519Y-132327927D01*
X149650142Y-132339553D01*
X149657583Y-132351969D01*
X149663772Y-132365054D01*
X149668649Y-132378683D01*
X149672166Y-132392724D01*
X149674290Y-132407042D01*
X149675000Y-132421500D01*
X149675000Y-132716500D01*
X149674290Y-132730958D01*
X149672166Y-132745276D01*
X149668649Y-132759317D01*
X149663772Y-132772946D01*
X149657583Y-132786031D01*
X149650142Y-132798447D01*
X149641519Y-132810073D01*
X149631798Y-132820798D01*
X149621073Y-132830519D01*
X149609447Y-132839142D01*
X149597031Y-132846583D01*
X149583946Y-132852772D01*
X149570317Y-132857649D01*
X149556276Y-132861166D01*
X149541958Y-132863290D01*
X149527500Y-132864000D01*
X149182500Y-132864000D01*
X149168042Y-132863290D01*
X149153724Y-132861166D01*
X149139683Y-132857649D01*
X149126054Y-132852772D01*
X149112969Y-132846583D01*
X149100553Y-132839142D01*
X149088927Y-132830519D01*
X149078202Y-132820798D01*
X149068481Y-132810073D01*
X149059858Y-132798447D01*
X149052417Y-132786031D01*
X149046228Y-132772946D01*
X149041351Y-132759317D01*
X149037834Y-132745276D01*
X149035710Y-132730958D01*
X149035000Y-132716500D01*
X149035000Y-132421500D01*
X149035710Y-132407042D01*
X149037834Y-132392724D01*
X149041351Y-132378683D01*
X149046228Y-132365054D01*
X149052417Y-132351969D01*
X149059858Y-132339553D01*
X149068481Y-132327927D01*
X149078202Y-132317202D01*
X149088927Y-132307481D01*
X149100553Y-132298858D01*
X149112969Y-132291417D01*
X149126054Y-132285228D01*
X149139683Y-132280351D01*
X149153724Y-132276834D01*
X149168042Y-132274710D01*
X149182500Y-132274000D01*
X149527500Y-132274000D01*
X149541958Y-132274710D01*
X149541958Y-132274710D01*
G37*
D13*
X149355000Y-132569000D03*
D12*
G36*
X150811958Y-131304710D02*
G01*
X150826276Y-131306834D01*
X150840317Y-131310351D01*
X150853946Y-131315228D01*
X150867031Y-131321417D01*
X150879447Y-131328858D01*
X150891073Y-131337481D01*
X150901798Y-131347202D01*
X150911519Y-131357927D01*
X150920142Y-131369553D01*
X150927583Y-131381969D01*
X150933772Y-131395054D01*
X150938649Y-131408683D01*
X150942166Y-131422724D01*
X150944290Y-131437042D01*
X150945000Y-131451500D01*
X150945000Y-131746500D01*
X150944290Y-131760958D01*
X150942166Y-131775276D01*
X150938649Y-131789317D01*
X150933772Y-131802946D01*
X150927583Y-131816031D01*
X150920142Y-131828447D01*
X150911519Y-131840073D01*
X150901798Y-131850798D01*
X150891073Y-131860519D01*
X150879447Y-131869142D01*
X150867031Y-131876583D01*
X150853946Y-131882772D01*
X150840317Y-131887649D01*
X150826276Y-131891166D01*
X150811958Y-131893290D01*
X150797500Y-131894000D01*
X150452500Y-131894000D01*
X150438042Y-131893290D01*
X150423724Y-131891166D01*
X150409683Y-131887649D01*
X150396054Y-131882772D01*
X150382969Y-131876583D01*
X150370553Y-131869142D01*
X150358927Y-131860519D01*
X150348202Y-131850798D01*
X150338481Y-131840073D01*
X150329858Y-131828447D01*
X150322417Y-131816031D01*
X150316228Y-131802946D01*
X150311351Y-131789317D01*
X150307834Y-131775276D01*
X150305710Y-131760958D01*
X150305000Y-131746500D01*
X150305000Y-131451500D01*
X150305710Y-131437042D01*
X150307834Y-131422724D01*
X150311351Y-131408683D01*
X150316228Y-131395054D01*
X150322417Y-131381969D01*
X150329858Y-131369553D01*
X150338481Y-131357927D01*
X150348202Y-131347202D01*
X150358927Y-131337481D01*
X150370553Y-131328858D01*
X150382969Y-131321417D01*
X150396054Y-131315228D01*
X150409683Y-131310351D01*
X150423724Y-131306834D01*
X150438042Y-131304710D01*
X150452500Y-131304000D01*
X150797500Y-131304000D01*
X150811958Y-131304710D01*
X150811958Y-131304710D01*
G37*
D13*
X150625000Y-131599000D03*
D12*
G36*
X150811958Y-132274710D02*
G01*
X150826276Y-132276834D01*
X150840317Y-132280351D01*
X150853946Y-132285228D01*
X150867031Y-132291417D01*
X150879447Y-132298858D01*
X150891073Y-132307481D01*
X150901798Y-132317202D01*
X150911519Y-132327927D01*
X150920142Y-132339553D01*
X150927583Y-132351969D01*
X150933772Y-132365054D01*
X150938649Y-132378683D01*
X150942166Y-132392724D01*
X150944290Y-132407042D01*
X150945000Y-132421500D01*
X150945000Y-132716500D01*
X150944290Y-132730958D01*
X150942166Y-132745276D01*
X150938649Y-132759317D01*
X150933772Y-132772946D01*
X150927583Y-132786031D01*
X150920142Y-132798447D01*
X150911519Y-132810073D01*
X150901798Y-132820798D01*
X150891073Y-132830519D01*
X150879447Y-132839142D01*
X150867031Y-132846583D01*
X150853946Y-132852772D01*
X150840317Y-132857649D01*
X150826276Y-132861166D01*
X150811958Y-132863290D01*
X150797500Y-132864000D01*
X150452500Y-132864000D01*
X150438042Y-132863290D01*
X150423724Y-132861166D01*
X150409683Y-132857649D01*
X150396054Y-132852772D01*
X150382969Y-132846583D01*
X150370553Y-132839142D01*
X150358927Y-132830519D01*
X150348202Y-132820798D01*
X150338481Y-132810073D01*
X150329858Y-132798447D01*
X150322417Y-132786031D01*
X150316228Y-132772946D01*
X150311351Y-132759317D01*
X150307834Y-132745276D01*
X150305710Y-132730958D01*
X150305000Y-132716500D01*
X150305000Y-132421500D01*
X150305710Y-132407042D01*
X150307834Y-132392724D01*
X150311351Y-132378683D01*
X150316228Y-132365054D01*
X150322417Y-132351969D01*
X150329858Y-132339553D01*
X150338481Y-132327927D01*
X150348202Y-132317202D01*
X150358927Y-132307481D01*
X150370553Y-132298858D01*
X150382969Y-132291417D01*
X150396054Y-132285228D01*
X150409683Y-132280351D01*
X150423724Y-132276834D01*
X150438042Y-132274710D01*
X150452500Y-132274000D01*
X150797500Y-132274000D01*
X150811958Y-132274710D01*
X150811958Y-132274710D01*
G37*
D13*
X150625000Y-132569000D03*
D12*
G36*
X152208958Y-131304710D02*
G01*
X152223276Y-131306834D01*
X152237317Y-131310351D01*
X152250946Y-131315228D01*
X152264031Y-131321417D01*
X152276447Y-131328858D01*
X152288073Y-131337481D01*
X152298798Y-131347202D01*
X152308519Y-131357927D01*
X152317142Y-131369553D01*
X152324583Y-131381969D01*
X152330772Y-131395054D01*
X152335649Y-131408683D01*
X152339166Y-131422724D01*
X152341290Y-131437042D01*
X152342000Y-131451500D01*
X152342000Y-131746500D01*
X152341290Y-131760958D01*
X152339166Y-131775276D01*
X152335649Y-131789317D01*
X152330772Y-131802946D01*
X152324583Y-131816031D01*
X152317142Y-131828447D01*
X152308519Y-131840073D01*
X152298798Y-131850798D01*
X152288073Y-131860519D01*
X152276447Y-131869142D01*
X152264031Y-131876583D01*
X152250946Y-131882772D01*
X152237317Y-131887649D01*
X152223276Y-131891166D01*
X152208958Y-131893290D01*
X152194500Y-131894000D01*
X151849500Y-131894000D01*
X151835042Y-131893290D01*
X151820724Y-131891166D01*
X151806683Y-131887649D01*
X151793054Y-131882772D01*
X151779969Y-131876583D01*
X151767553Y-131869142D01*
X151755927Y-131860519D01*
X151745202Y-131850798D01*
X151735481Y-131840073D01*
X151726858Y-131828447D01*
X151719417Y-131816031D01*
X151713228Y-131802946D01*
X151708351Y-131789317D01*
X151704834Y-131775276D01*
X151702710Y-131760958D01*
X151702000Y-131746500D01*
X151702000Y-131451500D01*
X151702710Y-131437042D01*
X151704834Y-131422724D01*
X151708351Y-131408683D01*
X151713228Y-131395054D01*
X151719417Y-131381969D01*
X151726858Y-131369553D01*
X151735481Y-131357927D01*
X151745202Y-131347202D01*
X151755927Y-131337481D01*
X151767553Y-131328858D01*
X151779969Y-131321417D01*
X151793054Y-131315228D01*
X151806683Y-131310351D01*
X151820724Y-131306834D01*
X151835042Y-131304710D01*
X151849500Y-131304000D01*
X152194500Y-131304000D01*
X152208958Y-131304710D01*
X152208958Y-131304710D01*
G37*
D13*
X152022000Y-131599000D03*
D12*
G36*
X152208958Y-132274710D02*
G01*
X152223276Y-132276834D01*
X152237317Y-132280351D01*
X152250946Y-132285228D01*
X152264031Y-132291417D01*
X152276447Y-132298858D01*
X152288073Y-132307481D01*
X152298798Y-132317202D01*
X152308519Y-132327927D01*
X152317142Y-132339553D01*
X152324583Y-132351969D01*
X152330772Y-132365054D01*
X152335649Y-132378683D01*
X152339166Y-132392724D01*
X152341290Y-132407042D01*
X152342000Y-132421500D01*
X152342000Y-132716500D01*
X152341290Y-132730958D01*
X152339166Y-132745276D01*
X152335649Y-132759317D01*
X152330772Y-132772946D01*
X152324583Y-132786031D01*
X152317142Y-132798447D01*
X152308519Y-132810073D01*
X152298798Y-132820798D01*
X152288073Y-132830519D01*
X152276447Y-132839142D01*
X152264031Y-132846583D01*
X152250946Y-132852772D01*
X152237317Y-132857649D01*
X152223276Y-132861166D01*
X152208958Y-132863290D01*
X152194500Y-132864000D01*
X151849500Y-132864000D01*
X151835042Y-132863290D01*
X151820724Y-132861166D01*
X151806683Y-132857649D01*
X151793054Y-132852772D01*
X151779969Y-132846583D01*
X151767553Y-132839142D01*
X151755927Y-132830519D01*
X151745202Y-132820798D01*
X151735481Y-132810073D01*
X151726858Y-132798447D01*
X151719417Y-132786031D01*
X151713228Y-132772946D01*
X151708351Y-132759317D01*
X151704834Y-132745276D01*
X151702710Y-132730958D01*
X151702000Y-132716500D01*
X151702000Y-132421500D01*
X151702710Y-132407042D01*
X151704834Y-132392724D01*
X151708351Y-132378683D01*
X151713228Y-132365054D01*
X151719417Y-132351969D01*
X151726858Y-132339553D01*
X151735481Y-132327927D01*
X151745202Y-132317202D01*
X151755927Y-132307481D01*
X151767553Y-132298858D01*
X151779969Y-132291417D01*
X151793054Y-132285228D01*
X151806683Y-132280351D01*
X151820724Y-132276834D01*
X151835042Y-132274710D01*
X151849500Y-132274000D01*
X152194500Y-132274000D01*
X152208958Y-132274710D01*
X152208958Y-132274710D01*
G37*
D13*
X152022000Y-132569000D03*
D12*
G36*
X149389958Y-116928710D02*
G01*
X149404276Y-116930834D01*
X149418317Y-116934351D01*
X149431946Y-116939228D01*
X149445031Y-116945417D01*
X149457447Y-116952858D01*
X149469073Y-116961481D01*
X149479798Y-116971202D01*
X149489519Y-116981927D01*
X149498142Y-116993553D01*
X149505583Y-117005969D01*
X149511772Y-117019054D01*
X149516649Y-117032683D01*
X149520166Y-117046724D01*
X149522290Y-117061042D01*
X149523000Y-117075500D01*
X149523000Y-117420500D01*
X149522290Y-117434958D01*
X149520166Y-117449276D01*
X149516649Y-117463317D01*
X149511772Y-117476946D01*
X149505583Y-117490031D01*
X149498142Y-117502447D01*
X149489519Y-117514073D01*
X149479798Y-117524798D01*
X149469073Y-117534519D01*
X149457447Y-117543142D01*
X149445031Y-117550583D01*
X149431946Y-117556772D01*
X149418317Y-117561649D01*
X149404276Y-117565166D01*
X149389958Y-117567290D01*
X149375500Y-117568000D01*
X149080500Y-117568000D01*
X149066042Y-117567290D01*
X149051724Y-117565166D01*
X149037683Y-117561649D01*
X149024054Y-117556772D01*
X149010969Y-117550583D01*
X148998553Y-117543142D01*
X148986927Y-117534519D01*
X148976202Y-117524798D01*
X148966481Y-117514073D01*
X148957858Y-117502447D01*
X148950417Y-117490031D01*
X148944228Y-117476946D01*
X148939351Y-117463317D01*
X148935834Y-117449276D01*
X148933710Y-117434958D01*
X148933000Y-117420500D01*
X148933000Y-117075500D01*
X148933710Y-117061042D01*
X148935834Y-117046724D01*
X148939351Y-117032683D01*
X148944228Y-117019054D01*
X148950417Y-117005969D01*
X148957858Y-116993553D01*
X148966481Y-116981927D01*
X148976202Y-116971202D01*
X148986927Y-116961481D01*
X148998553Y-116952858D01*
X149010969Y-116945417D01*
X149024054Y-116939228D01*
X149037683Y-116934351D01*
X149051724Y-116930834D01*
X149066042Y-116928710D01*
X149080500Y-116928000D01*
X149375500Y-116928000D01*
X149389958Y-116928710D01*
X149389958Y-116928710D01*
G37*
D13*
X149228000Y-117248000D03*
D12*
G36*
X148419958Y-116928710D02*
G01*
X148434276Y-116930834D01*
X148448317Y-116934351D01*
X148461946Y-116939228D01*
X148475031Y-116945417D01*
X148487447Y-116952858D01*
X148499073Y-116961481D01*
X148509798Y-116971202D01*
X148519519Y-116981927D01*
X148528142Y-116993553D01*
X148535583Y-117005969D01*
X148541772Y-117019054D01*
X148546649Y-117032683D01*
X148550166Y-117046724D01*
X148552290Y-117061042D01*
X148553000Y-117075500D01*
X148553000Y-117420500D01*
X148552290Y-117434958D01*
X148550166Y-117449276D01*
X148546649Y-117463317D01*
X148541772Y-117476946D01*
X148535583Y-117490031D01*
X148528142Y-117502447D01*
X148519519Y-117514073D01*
X148509798Y-117524798D01*
X148499073Y-117534519D01*
X148487447Y-117543142D01*
X148475031Y-117550583D01*
X148461946Y-117556772D01*
X148448317Y-117561649D01*
X148434276Y-117565166D01*
X148419958Y-117567290D01*
X148405500Y-117568000D01*
X148110500Y-117568000D01*
X148096042Y-117567290D01*
X148081724Y-117565166D01*
X148067683Y-117561649D01*
X148054054Y-117556772D01*
X148040969Y-117550583D01*
X148028553Y-117543142D01*
X148016927Y-117534519D01*
X148006202Y-117524798D01*
X147996481Y-117514073D01*
X147987858Y-117502447D01*
X147980417Y-117490031D01*
X147974228Y-117476946D01*
X147969351Y-117463317D01*
X147965834Y-117449276D01*
X147963710Y-117434958D01*
X147963000Y-117420500D01*
X147963000Y-117075500D01*
X147963710Y-117061042D01*
X147965834Y-117046724D01*
X147969351Y-117032683D01*
X147974228Y-117019054D01*
X147980417Y-117005969D01*
X147987858Y-116993553D01*
X147996481Y-116981927D01*
X148006202Y-116971202D01*
X148016927Y-116961481D01*
X148028553Y-116952858D01*
X148040969Y-116945417D01*
X148054054Y-116939228D01*
X148067683Y-116934351D01*
X148081724Y-116930834D01*
X148096042Y-116928710D01*
X148110500Y-116928000D01*
X148405500Y-116928000D01*
X148419958Y-116928710D01*
X148419958Y-116928710D01*
G37*
D13*
X148258000Y-117248000D03*
D12*
G36*
X148962958Y-129628710D02*
G01*
X148977276Y-129630834D01*
X148991317Y-129634351D01*
X149004946Y-129639228D01*
X149018031Y-129645417D01*
X149030447Y-129652858D01*
X149042073Y-129661481D01*
X149052798Y-129671202D01*
X149062519Y-129681927D01*
X149071142Y-129693553D01*
X149078583Y-129705969D01*
X149084772Y-129719054D01*
X149089649Y-129732683D01*
X149093166Y-129746724D01*
X149095290Y-129761042D01*
X149096000Y-129775500D01*
X149096000Y-130120500D01*
X149095290Y-130134958D01*
X149093166Y-130149276D01*
X149089649Y-130163317D01*
X149084772Y-130176946D01*
X149078583Y-130190031D01*
X149071142Y-130202447D01*
X149062519Y-130214073D01*
X149052798Y-130224798D01*
X149042073Y-130234519D01*
X149030447Y-130243142D01*
X149018031Y-130250583D01*
X149004946Y-130256772D01*
X148991317Y-130261649D01*
X148977276Y-130265166D01*
X148962958Y-130267290D01*
X148948500Y-130268000D01*
X148653500Y-130268000D01*
X148639042Y-130267290D01*
X148624724Y-130265166D01*
X148610683Y-130261649D01*
X148597054Y-130256772D01*
X148583969Y-130250583D01*
X148571553Y-130243142D01*
X148559927Y-130234519D01*
X148549202Y-130224798D01*
X148539481Y-130214073D01*
X148530858Y-130202447D01*
X148523417Y-130190031D01*
X148517228Y-130176946D01*
X148512351Y-130163317D01*
X148508834Y-130149276D01*
X148506710Y-130134958D01*
X148506000Y-130120500D01*
X148506000Y-129775500D01*
X148506710Y-129761042D01*
X148508834Y-129746724D01*
X148512351Y-129732683D01*
X148517228Y-129719054D01*
X148523417Y-129705969D01*
X148530858Y-129693553D01*
X148539481Y-129681927D01*
X148549202Y-129671202D01*
X148559927Y-129661481D01*
X148571553Y-129652858D01*
X148583969Y-129645417D01*
X148597054Y-129639228D01*
X148610683Y-129634351D01*
X148624724Y-129630834D01*
X148639042Y-129628710D01*
X148653500Y-129628000D01*
X148948500Y-129628000D01*
X148962958Y-129628710D01*
X148962958Y-129628710D01*
G37*
D13*
X148801000Y-129948000D03*
D12*
G36*
X147992958Y-129628710D02*
G01*
X148007276Y-129630834D01*
X148021317Y-129634351D01*
X148034946Y-129639228D01*
X148048031Y-129645417D01*
X148060447Y-129652858D01*
X148072073Y-129661481D01*
X148082798Y-129671202D01*
X148092519Y-129681927D01*
X148101142Y-129693553D01*
X148108583Y-129705969D01*
X148114772Y-129719054D01*
X148119649Y-129732683D01*
X148123166Y-129746724D01*
X148125290Y-129761042D01*
X148126000Y-129775500D01*
X148126000Y-130120500D01*
X148125290Y-130134958D01*
X148123166Y-130149276D01*
X148119649Y-130163317D01*
X148114772Y-130176946D01*
X148108583Y-130190031D01*
X148101142Y-130202447D01*
X148092519Y-130214073D01*
X148082798Y-130224798D01*
X148072073Y-130234519D01*
X148060447Y-130243142D01*
X148048031Y-130250583D01*
X148034946Y-130256772D01*
X148021317Y-130261649D01*
X148007276Y-130265166D01*
X147992958Y-130267290D01*
X147978500Y-130268000D01*
X147683500Y-130268000D01*
X147669042Y-130267290D01*
X147654724Y-130265166D01*
X147640683Y-130261649D01*
X147627054Y-130256772D01*
X147613969Y-130250583D01*
X147601553Y-130243142D01*
X147589927Y-130234519D01*
X147579202Y-130224798D01*
X147569481Y-130214073D01*
X147560858Y-130202447D01*
X147553417Y-130190031D01*
X147547228Y-130176946D01*
X147542351Y-130163317D01*
X147538834Y-130149276D01*
X147536710Y-130134958D01*
X147536000Y-130120500D01*
X147536000Y-129775500D01*
X147536710Y-129761042D01*
X147538834Y-129746724D01*
X147542351Y-129732683D01*
X147547228Y-129719054D01*
X147553417Y-129705969D01*
X147560858Y-129693553D01*
X147569481Y-129681927D01*
X147579202Y-129671202D01*
X147589927Y-129661481D01*
X147601553Y-129652858D01*
X147613969Y-129645417D01*
X147627054Y-129639228D01*
X147640683Y-129634351D01*
X147654724Y-129630834D01*
X147669042Y-129628710D01*
X147683500Y-129628000D01*
X147978500Y-129628000D01*
X147992958Y-129628710D01*
X147992958Y-129628710D01*
G37*
D13*
X147831000Y-129948000D03*
D12*
G36*
X151756958Y-128231710D02*
G01*
X151771276Y-128233834D01*
X151785317Y-128237351D01*
X151798946Y-128242228D01*
X151812031Y-128248417D01*
X151824447Y-128255858D01*
X151836073Y-128264481D01*
X151846798Y-128274202D01*
X151856519Y-128284927D01*
X151865142Y-128296553D01*
X151872583Y-128308969D01*
X151878772Y-128322054D01*
X151883649Y-128335683D01*
X151887166Y-128349724D01*
X151889290Y-128364042D01*
X151890000Y-128378500D01*
X151890000Y-128723500D01*
X151889290Y-128737958D01*
X151887166Y-128752276D01*
X151883649Y-128766317D01*
X151878772Y-128779946D01*
X151872583Y-128793031D01*
X151865142Y-128805447D01*
X151856519Y-128817073D01*
X151846798Y-128827798D01*
X151836073Y-128837519D01*
X151824447Y-128846142D01*
X151812031Y-128853583D01*
X151798946Y-128859772D01*
X151785317Y-128864649D01*
X151771276Y-128868166D01*
X151756958Y-128870290D01*
X151742500Y-128871000D01*
X151447500Y-128871000D01*
X151433042Y-128870290D01*
X151418724Y-128868166D01*
X151404683Y-128864649D01*
X151391054Y-128859772D01*
X151377969Y-128853583D01*
X151365553Y-128846142D01*
X151353927Y-128837519D01*
X151343202Y-128827798D01*
X151333481Y-128817073D01*
X151324858Y-128805447D01*
X151317417Y-128793031D01*
X151311228Y-128779946D01*
X151306351Y-128766317D01*
X151302834Y-128752276D01*
X151300710Y-128737958D01*
X151300000Y-128723500D01*
X151300000Y-128378500D01*
X151300710Y-128364042D01*
X151302834Y-128349724D01*
X151306351Y-128335683D01*
X151311228Y-128322054D01*
X151317417Y-128308969D01*
X151324858Y-128296553D01*
X151333481Y-128284927D01*
X151343202Y-128274202D01*
X151353927Y-128264481D01*
X151365553Y-128255858D01*
X151377969Y-128248417D01*
X151391054Y-128242228D01*
X151404683Y-128237351D01*
X151418724Y-128233834D01*
X151433042Y-128231710D01*
X151447500Y-128231000D01*
X151742500Y-128231000D01*
X151756958Y-128231710D01*
X151756958Y-128231710D01*
G37*
D13*
X151595000Y-128551000D03*
D12*
G36*
X150786958Y-128231710D02*
G01*
X150801276Y-128233834D01*
X150815317Y-128237351D01*
X150828946Y-128242228D01*
X150842031Y-128248417D01*
X150854447Y-128255858D01*
X150866073Y-128264481D01*
X150876798Y-128274202D01*
X150886519Y-128284927D01*
X150895142Y-128296553D01*
X150902583Y-128308969D01*
X150908772Y-128322054D01*
X150913649Y-128335683D01*
X150917166Y-128349724D01*
X150919290Y-128364042D01*
X150920000Y-128378500D01*
X150920000Y-128723500D01*
X150919290Y-128737958D01*
X150917166Y-128752276D01*
X150913649Y-128766317D01*
X150908772Y-128779946D01*
X150902583Y-128793031D01*
X150895142Y-128805447D01*
X150886519Y-128817073D01*
X150876798Y-128827798D01*
X150866073Y-128837519D01*
X150854447Y-128846142D01*
X150842031Y-128853583D01*
X150828946Y-128859772D01*
X150815317Y-128864649D01*
X150801276Y-128868166D01*
X150786958Y-128870290D01*
X150772500Y-128871000D01*
X150477500Y-128871000D01*
X150463042Y-128870290D01*
X150448724Y-128868166D01*
X150434683Y-128864649D01*
X150421054Y-128859772D01*
X150407969Y-128853583D01*
X150395553Y-128846142D01*
X150383927Y-128837519D01*
X150373202Y-128827798D01*
X150363481Y-128817073D01*
X150354858Y-128805447D01*
X150347417Y-128793031D01*
X150341228Y-128779946D01*
X150336351Y-128766317D01*
X150332834Y-128752276D01*
X150330710Y-128737958D01*
X150330000Y-128723500D01*
X150330000Y-128378500D01*
X150330710Y-128364042D01*
X150332834Y-128349724D01*
X150336351Y-128335683D01*
X150341228Y-128322054D01*
X150347417Y-128308969D01*
X150354858Y-128296553D01*
X150363481Y-128284927D01*
X150373202Y-128274202D01*
X150383927Y-128264481D01*
X150395553Y-128255858D01*
X150407969Y-128248417D01*
X150421054Y-128242228D01*
X150434683Y-128237351D01*
X150448724Y-128233834D01*
X150463042Y-128231710D01*
X150477500Y-128231000D01*
X150772500Y-128231000D01*
X150786958Y-128231710D01*
X150786958Y-128231710D01*
G37*
D13*
X150625000Y-128551000D03*
D12*
G36*
X152310958Y-129628710D02*
G01*
X152325276Y-129630834D01*
X152339317Y-129634351D01*
X152352946Y-129639228D01*
X152366031Y-129645417D01*
X152378447Y-129652858D01*
X152390073Y-129661481D01*
X152400798Y-129671202D01*
X152410519Y-129681927D01*
X152419142Y-129693553D01*
X152426583Y-129705969D01*
X152432772Y-129719054D01*
X152437649Y-129732683D01*
X152441166Y-129746724D01*
X152443290Y-129761042D01*
X152444000Y-129775500D01*
X152444000Y-130120500D01*
X152443290Y-130134958D01*
X152441166Y-130149276D01*
X152437649Y-130163317D01*
X152432772Y-130176946D01*
X152426583Y-130190031D01*
X152419142Y-130202447D01*
X152410519Y-130214073D01*
X152400798Y-130224798D01*
X152390073Y-130234519D01*
X152378447Y-130243142D01*
X152366031Y-130250583D01*
X152352946Y-130256772D01*
X152339317Y-130261649D01*
X152325276Y-130265166D01*
X152310958Y-130267290D01*
X152296500Y-130268000D01*
X152001500Y-130268000D01*
X151987042Y-130267290D01*
X151972724Y-130265166D01*
X151958683Y-130261649D01*
X151945054Y-130256772D01*
X151931969Y-130250583D01*
X151919553Y-130243142D01*
X151907927Y-130234519D01*
X151897202Y-130224798D01*
X151887481Y-130214073D01*
X151878858Y-130202447D01*
X151871417Y-130190031D01*
X151865228Y-130176946D01*
X151860351Y-130163317D01*
X151856834Y-130149276D01*
X151854710Y-130134958D01*
X151854000Y-130120500D01*
X151854000Y-129775500D01*
X151854710Y-129761042D01*
X151856834Y-129746724D01*
X151860351Y-129732683D01*
X151865228Y-129719054D01*
X151871417Y-129705969D01*
X151878858Y-129693553D01*
X151887481Y-129681927D01*
X151897202Y-129671202D01*
X151907927Y-129661481D01*
X151919553Y-129652858D01*
X151931969Y-129645417D01*
X151945054Y-129639228D01*
X151958683Y-129634351D01*
X151972724Y-129630834D01*
X151987042Y-129628710D01*
X152001500Y-129628000D01*
X152296500Y-129628000D01*
X152310958Y-129628710D01*
X152310958Y-129628710D01*
G37*
D13*
X152149000Y-129948000D03*
D12*
G36*
X151340958Y-129628710D02*
G01*
X151355276Y-129630834D01*
X151369317Y-129634351D01*
X151382946Y-129639228D01*
X151396031Y-129645417D01*
X151408447Y-129652858D01*
X151420073Y-129661481D01*
X151430798Y-129671202D01*
X151440519Y-129681927D01*
X151449142Y-129693553D01*
X151456583Y-129705969D01*
X151462772Y-129719054D01*
X151467649Y-129732683D01*
X151471166Y-129746724D01*
X151473290Y-129761042D01*
X151474000Y-129775500D01*
X151474000Y-130120500D01*
X151473290Y-130134958D01*
X151471166Y-130149276D01*
X151467649Y-130163317D01*
X151462772Y-130176946D01*
X151456583Y-130190031D01*
X151449142Y-130202447D01*
X151440519Y-130214073D01*
X151430798Y-130224798D01*
X151420073Y-130234519D01*
X151408447Y-130243142D01*
X151396031Y-130250583D01*
X151382946Y-130256772D01*
X151369317Y-130261649D01*
X151355276Y-130265166D01*
X151340958Y-130267290D01*
X151326500Y-130268000D01*
X151031500Y-130268000D01*
X151017042Y-130267290D01*
X151002724Y-130265166D01*
X150988683Y-130261649D01*
X150975054Y-130256772D01*
X150961969Y-130250583D01*
X150949553Y-130243142D01*
X150937927Y-130234519D01*
X150927202Y-130224798D01*
X150917481Y-130214073D01*
X150908858Y-130202447D01*
X150901417Y-130190031D01*
X150895228Y-130176946D01*
X150890351Y-130163317D01*
X150886834Y-130149276D01*
X150884710Y-130134958D01*
X150884000Y-130120500D01*
X150884000Y-129775500D01*
X150884710Y-129761042D01*
X150886834Y-129746724D01*
X150890351Y-129732683D01*
X150895228Y-129719054D01*
X150901417Y-129705969D01*
X150908858Y-129693553D01*
X150917481Y-129681927D01*
X150927202Y-129671202D01*
X150937927Y-129661481D01*
X150949553Y-129652858D01*
X150961969Y-129645417D01*
X150975054Y-129639228D01*
X150988683Y-129634351D01*
X151002724Y-129630834D01*
X151017042Y-129628710D01*
X151031500Y-129628000D01*
X151326500Y-129628000D01*
X151340958Y-129628710D01*
X151340958Y-129628710D01*
G37*
D13*
X151179000Y-129948000D03*
D18*
X108712000Y-105918000D03*
D19*
X107264200Y-104918000D03*
X107264200Y-105418000D03*
X107264200Y-105918000D03*
X107264200Y-106418000D03*
X107264200Y-106918000D03*
X110159800Y-106918000D03*
X110159800Y-106418000D03*
X110159800Y-105918000D03*
X110159800Y-105418000D03*
X110159800Y-104918000D03*
D20*
X102140000Y-121242000D03*
D21*
X102140000Y-130492000D03*
X106140000Y-130492000D03*
D20*
X106140000Y-121242000D03*
D22*
X111525000Y-120680000D03*
X115075000Y-120680000D03*
D23*
X110800000Y-126350000D03*
D24*
X112100000Y-126350000D03*
X112900000Y-126350000D03*
X113700000Y-126350000D03*
X114500000Y-126350000D03*
D23*
X115800000Y-126350000D03*
D12*
G36*
X114847958Y-108985710D02*
G01*
X114862276Y-108987834D01*
X114876317Y-108991351D01*
X114889946Y-108996228D01*
X114903031Y-109002417D01*
X114915447Y-109009858D01*
X114927073Y-109018481D01*
X114937798Y-109028202D01*
X114947519Y-109038927D01*
X114956142Y-109050553D01*
X114963583Y-109062969D01*
X114969772Y-109076054D01*
X114974649Y-109089683D01*
X114978166Y-109103724D01*
X114980290Y-109118042D01*
X114981000Y-109132500D01*
X114981000Y-109477500D01*
X114980290Y-109491958D01*
X114978166Y-109506276D01*
X114974649Y-109520317D01*
X114969772Y-109533946D01*
X114963583Y-109547031D01*
X114956142Y-109559447D01*
X114947519Y-109571073D01*
X114937798Y-109581798D01*
X114927073Y-109591519D01*
X114915447Y-109600142D01*
X114903031Y-109607583D01*
X114889946Y-109613772D01*
X114876317Y-109618649D01*
X114862276Y-109622166D01*
X114847958Y-109624290D01*
X114833500Y-109625000D01*
X114538500Y-109625000D01*
X114524042Y-109624290D01*
X114509724Y-109622166D01*
X114495683Y-109618649D01*
X114482054Y-109613772D01*
X114468969Y-109607583D01*
X114456553Y-109600142D01*
X114444927Y-109591519D01*
X114434202Y-109581798D01*
X114424481Y-109571073D01*
X114415858Y-109559447D01*
X114408417Y-109547031D01*
X114402228Y-109533946D01*
X114397351Y-109520317D01*
X114393834Y-109506276D01*
X114391710Y-109491958D01*
X114391000Y-109477500D01*
X114391000Y-109132500D01*
X114391710Y-109118042D01*
X114393834Y-109103724D01*
X114397351Y-109089683D01*
X114402228Y-109076054D01*
X114408417Y-109062969D01*
X114415858Y-109050553D01*
X114424481Y-109038927D01*
X114434202Y-109028202D01*
X114444927Y-109018481D01*
X114456553Y-109009858D01*
X114468969Y-109002417D01*
X114482054Y-108996228D01*
X114495683Y-108991351D01*
X114509724Y-108987834D01*
X114524042Y-108985710D01*
X114538500Y-108985000D01*
X114833500Y-108985000D01*
X114847958Y-108985710D01*
X114847958Y-108985710D01*
G37*
D13*
X114686000Y-109305000D03*
D12*
G36*
X115817958Y-108985710D02*
G01*
X115832276Y-108987834D01*
X115846317Y-108991351D01*
X115859946Y-108996228D01*
X115873031Y-109002417D01*
X115885447Y-109009858D01*
X115897073Y-109018481D01*
X115907798Y-109028202D01*
X115917519Y-109038927D01*
X115926142Y-109050553D01*
X115933583Y-109062969D01*
X115939772Y-109076054D01*
X115944649Y-109089683D01*
X115948166Y-109103724D01*
X115950290Y-109118042D01*
X115951000Y-109132500D01*
X115951000Y-109477500D01*
X115950290Y-109491958D01*
X115948166Y-109506276D01*
X115944649Y-109520317D01*
X115939772Y-109533946D01*
X115933583Y-109547031D01*
X115926142Y-109559447D01*
X115917519Y-109571073D01*
X115907798Y-109581798D01*
X115897073Y-109591519D01*
X115885447Y-109600142D01*
X115873031Y-109607583D01*
X115859946Y-109613772D01*
X115846317Y-109618649D01*
X115832276Y-109622166D01*
X115817958Y-109624290D01*
X115803500Y-109625000D01*
X115508500Y-109625000D01*
X115494042Y-109624290D01*
X115479724Y-109622166D01*
X115465683Y-109618649D01*
X115452054Y-109613772D01*
X115438969Y-109607583D01*
X115426553Y-109600142D01*
X115414927Y-109591519D01*
X115404202Y-109581798D01*
X115394481Y-109571073D01*
X115385858Y-109559447D01*
X115378417Y-109547031D01*
X115372228Y-109533946D01*
X115367351Y-109520317D01*
X115363834Y-109506276D01*
X115361710Y-109491958D01*
X115361000Y-109477500D01*
X115361000Y-109132500D01*
X115361710Y-109118042D01*
X115363834Y-109103724D01*
X115367351Y-109089683D01*
X115372228Y-109076054D01*
X115378417Y-109062969D01*
X115385858Y-109050553D01*
X115394481Y-109038927D01*
X115404202Y-109028202D01*
X115414927Y-109018481D01*
X115426553Y-109009858D01*
X115438969Y-109002417D01*
X115452054Y-108996228D01*
X115465683Y-108991351D01*
X115479724Y-108987834D01*
X115494042Y-108985710D01*
X115508500Y-108985000D01*
X115803500Y-108985000D01*
X115817958Y-108985710D01*
X115817958Y-108985710D01*
G37*
D13*
X115656000Y-109305000D03*
D12*
G36*
X115817958Y-106318710D02*
G01*
X115832276Y-106320834D01*
X115846317Y-106324351D01*
X115859946Y-106329228D01*
X115873031Y-106335417D01*
X115885447Y-106342858D01*
X115897073Y-106351481D01*
X115907798Y-106361202D01*
X115917519Y-106371927D01*
X115926142Y-106383553D01*
X115933583Y-106395969D01*
X115939772Y-106409054D01*
X115944649Y-106422683D01*
X115948166Y-106436724D01*
X115950290Y-106451042D01*
X115951000Y-106465500D01*
X115951000Y-106810500D01*
X115950290Y-106824958D01*
X115948166Y-106839276D01*
X115944649Y-106853317D01*
X115939772Y-106866946D01*
X115933583Y-106880031D01*
X115926142Y-106892447D01*
X115917519Y-106904073D01*
X115907798Y-106914798D01*
X115897073Y-106924519D01*
X115885447Y-106933142D01*
X115873031Y-106940583D01*
X115859946Y-106946772D01*
X115846317Y-106951649D01*
X115832276Y-106955166D01*
X115817958Y-106957290D01*
X115803500Y-106958000D01*
X115508500Y-106958000D01*
X115494042Y-106957290D01*
X115479724Y-106955166D01*
X115465683Y-106951649D01*
X115452054Y-106946772D01*
X115438969Y-106940583D01*
X115426553Y-106933142D01*
X115414927Y-106924519D01*
X115404202Y-106914798D01*
X115394481Y-106904073D01*
X115385858Y-106892447D01*
X115378417Y-106880031D01*
X115372228Y-106866946D01*
X115367351Y-106853317D01*
X115363834Y-106839276D01*
X115361710Y-106824958D01*
X115361000Y-106810500D01*
X115361000Y-106465500D01*
X115361710Y-106451042D01*
X115363834Y-106436724D01*
X115367351Y-106422683D01*
X115372228Y-106409054D01*
X115378417Y-106395969D01*
X115385858Y-106383553D01*
X115394481Y-106371927D01*
X115404202Y-106361202D01*
X115414927Y-106351481D01*
X115426553Y-106342858D01*
X115438969Y-106335417D01*
X115452054Y-106329228D01*
X115465683Y-106324351D01*
X115479724Y-106320834D01*
X115494042Y-106318710D01*
X115508500Y-106318000D01*
X115803500Y-106318000D01*
X115817958Y-106318710D01*
X115817958Y-106318710D01*
G37*
D13*
X115656000Y-106638000D03*
D12*
G36*
X114847958Y-106318710D02*
G01*
X114862276Y-106320834D01*
X114876317Y-106324351D01*
X114889946Y-106329228D01*
X114903031Y-106335417D01*
X114915447Y-106342858D01*
X114927073Y-106351481D01*
X114937798Y-106361202D01*
X114947519Y-106371927D01*
X114956142Y-106383553D01*
X114963583Y-106395969D01*
X114969772Y-106409054D01*
X114974649Y-106422683D01*
X114978166Y-106436724D01*
X114980290Y-106451042D01*
X114981000Y-106465500D01*
X114981000Y-106810500D01*
X114980290Y-106824958D01*
X114978166Y-106839276D01*
X114974649Y-106853317D01*
X114969772Y-106866946D01*
X114963583Y-106880031D01*
X114956142Y-106892447D01*
X114947519Y-106904073D01*
X114937798Y-106914798D01*
X114927073Y-106924519D01*
X114915447Y-106933142D01*
X114903031Y-106940583D01*
X114889946Y-106946772D01*
X114876317Y-106951649D01*
X114862276Y-106955166D01*
X114847958Y-106957290D01*
X114833500Y-106958000D01*
X114538500Y-106958000D01*
X114524042Y-106957290D01*
X114509724Y-106955166D01*
X114495683Y-106951649D01*
X114482054Y-106946772D01*
X114468969Y-106940583D01*
X114456553Y-106933142D01*
X114444927Y-106924519D01*
X114434202Y-106914798D01*
X114424481Y-106904073D01*
X114415858Y-106892447D01*
X114408417Y-106880031D01*
X114402228Y-106866946D01*
X114397351Y-106853317D01*
X114393834Y-106839276D01*
X114391710Y-106824958D01*
X114391000Y-106810500D01*
X114391000Y-106465500D01*
X114391710Y-106451042D01*
X114393834Y-106436724D01*
X114397351Y-106422683D01*
X114402228Y-106409054D01*
X114408417Y-106395969D01*
X114415858Y-106383553D01*
X114424481Y-106371927D01*
X114434202Y-106361202D01*
X114444927Y-106351481D01*
X114456553Y-106342858D01*
X114468969Y-106335417D01*
X114482054Y-106329228D01*
X114495683Y-106324351D01*
X114509724Y-106320834D01*
X114524042Y-106318710D01*
X114538500Y-106318000D01*
X114833500Y-106318000D01*
X114847958Y-106318710D01*
X114847958Y-106318710D01*
G37*
D13*
X114686000Y-106638000D03*
D12*
G36*
X114847958Y-107715710D02*
G01*
X114862276Y-107717834D01*
X114876317Y-107721351D01*
X114889946Y-107726228D01*
X114903031Y-107732417D01*
X114915447Y-107739858D01*
X114927073Y-107748481D01*
X114937798Y-107758202D01*
X114947519Y-107768927D01*
X114956142Y-107780553D01*
X114963583Y-107792969D01*
X114969772Y-107806054D01*
X114974649Y-107819683D01*
X114978166Y-107833724D01*
X114980290Y-107848042D01*
X114981000Y-107862500D01*
X114981000Y-108207500D01*
X114980290Y-108221958D01*
X114978166Y-108236276D01*
X114974649Y-108250317D01*
X114969772Y-108263946D01*
X114963583Y-108277031D01*
X114956142Y-108289447D01*
X114947519Y-108301073D01*
X114937798Y-108311798D01*
X114927073Y-108321519D01*
X114915447Y-108330142D01*
X114903031Y-108337583D01*
X114889946Y-108343772D01*
X114876317Y-108348649D01*
X114862276Y-108352166D01*
X114847958Y-108354290D01*
X114833500Y-108355000D01*
X114538500Y-108355000D01*
X114524042Y-108354290D01*
X114509724Y-108352166D01*
X114495683Y-108348649D01*
X114482054Y-108343772D01*
X114468969Y-108337583D01*
X114456553Y-108330142D01*
X114444927Y-108321519D01*
X114434202Y-108311798D01*
X114424481Y-108301073D01*
X114415858Y-108289447D01*
X114408417Y-108277031D01*
X114402228Y-108263946D01*
X114397351Y-108250317D01*
X114393834Y-108236276D01*
X114391710Y-108221958D01*
X114391000Y-108207500D01*
X114391000Y-107862500D01*
X114391710Y-107848042D01*
X114393834Y-107833724D01*
X114397351Y-107819683D01*
X114402228Y-107806054D01*
X114408417Y-107792969D01*
X114415858Y-107780553D01*
X114424481Y-107768927D01*
X114434202Y-107758202D01*
X114444927Y-107748481D01*
X114456553Y-107739858D01*
X114468969Y-107732417D01*
X114482054Y-107726228D01*
X114495683Y-107721351D01*
X114509724Y-107717834D01*
X114524042Y-107715710D01*
X114538500Y-107715000D01*
X114833500Y-107715000D01*
X114847958Y-107715710D01*
X114847958Y-107715710D01*
G37*
D13*
X114686000Y-108035000D03*
D12*
G36*
X115817958Y-107715710D02*
G01*
X115832276Y-107717834D01*
X115846317Y-107721351D01*
X115859946Y-107726228D01*
X115873031Y-107732417D01*
X115885447Y-107739858D01*
X115897073Y-107748481D01*
X115907798Y-107758202D01*
X115917519Y-107768927D01*
X115926142Y-107780553D01*
X115933583Y-107792969D01*
X115939772Y-107806054D01*
X115944649Y-107819683D01*
X115948166Y-107833724D01*
X115950290Y-107848042D01*
X115951000Y-107862500D01*
X115951000Y-108207500D01*
X115950290Y-108221958D01*
X115948166Y-108236276D01*
X115944649Y-108250317D01*
X115939772Y-108263946D01*
X115933583Y-108277031D01*
X115926142Y-108289447D01*
X115917519Y-108301073D01*
X115907798Y-108311798D01*
X115897073Y-108321519D01*
X115885447Y-108330142D01*
X115873031Y-108337583D01*
X115859946Y-108343772D01*
X115846317Y-108348649D01*
X115832276Y-108352166D01*
X115817958Y-108354290D01*
X115803500Y-108355000D01*
X115508500Y-108355000D01*
X115494042Y-108354290D01*
X115479724Y-108352166D01*
X115465683Y-108348649D01*
X115452054Y-108343772D01*
X115438969Y-108337583D01*
X115426553Y-108330142D01*
X115414927Y-108321519D01*
X115404202Y-108311798D01*
X115394481Y-108301073D01*
X115385858Y-108289447D01*
X115378417Y-108277031D01*
X115372228Y-108263946D01*
X115367351Y-108250317D01*
X115363834Y-108236276D01*
X115361710Y-108221958D01*
X115361000Y-108207500D01*
X115361000Y-107862500D01*
X115361710Y-107848042D01*
X115363834Y-107833724D01*
X115367351Y-107819683D01*
X115372228Y-107806054D01*
X115378417Y-107792969D01*
X115385858Y-107780553D01*
X115394481Y-107768927D01*
X115404202Y-107758202D01*
X115414927Y-107748481D01*
X115426553Y-107739858D01*
X115438969Y-107732417D01*
X115452054Y-107726228D01*
X115465683Y-107721351D01*
X115479724Y-107717834D01*
X115494042Y-107715710D01*
X115508500Y-107715000D01*
X115803500Y-107715000D01*
X115817958Y-107715710D01*
X115817958Y-107715710D01*
G37*
D13*
X115656000Y-108035000D03*
D25*
X121639000Y-107146000D03*
X121639000Y-108296000D03*
X121639000Y-109446000D03*
X121639000Y-110596000D03*
X120489000Y-107146000D03*
X120489000Y-108296000D03*
X120489000Y-109446000D03*
X120489000Y-110596000D03*
X119339000Y-107146000D03*
X119339000Y-108296000D03*
X119339000Y-109446000D03*
X119339000Y-110596000D03*
X118189000Y-107146000D03*
X118189000Y-108296000D03*
X118189000Y-109446000D03*
X118189000Y-110596000D03*
D26*
X122164000Y-105871000D03*
X121664000Y-105871000D03*
X121164000Y-105871000D03*
X120664000Y-105871000D03*
X120164000Y-105871000D03*
X119664000Y-105871000D03*
X119164000Y-105871000D03*
X118664000Y-105871000D03*
X118164000Y-105871000D03*
X117664000Y-105871000D03*
D27*
X116914000Y-106621000D03*
X116914000Y-107121000D03*
X116914000Y-107621000D03*
X116914000Y-108121000D03*
X116914000Y-108621000D03*
X116914000Y-109121000D03*
X116914000Y-109621000D03*
X116914000Y-110121000D03*
X116914000Y-110621000D03*
X116914000Y-111121000D03*
D26*
X117664000Y-111871000D03*
X118164000Y-111871000D03*
X118664000Y-111871000D03*
X119164000Y-111871000D03*
X119664000Y-111871000D03*
X120164000Y-111871000D03*
X120664000Y-111871000D03*
X121164000Y-111871000D03*
X121664000Y-111871000D03*
X122164000Y-111871000D03*
D27*
X122914000Y-111121000D03*
X122914000Y-110621000D03*
X122914000Y-110121000D03*
X122914000Y-109621000D03*
X122914000Y-109121000D03*
X122914000Y-108621000D03*
X122914000Y-108121000D03*
X122914000Y-107621000D03*
X122914000Y-107121000D03*
X122914000Y-106621000D03*
D12*
G36*
X128205142Y-112301174D02*
G01*
X128228803Y-112304684D01*
X128252007Y-112310496D01*
X128274529Y-112318554D01*
X128296153Y-112328782D01*
X128316670Y-112341079D01*
X128335883Y-112355329D01*
X128353607Y-112371393D01*
X128369671Y-112389117D01*
X128383921Y-112408330D01*
X128396218Y-112428847D01*
X128406446Y-112450471D01*
X128414504Y-112472993D01*
X128420316Y-112496197D01*
X128423826Y-112519858D01*
X128425000Y-112543750D01*
X128425000Y-113456250D01*
X128423826Y-113480142D01*
X128420316Y-113503803D01*
X128414504Y-113527007D01*
X128406446Y-113549529D01*
X128396218Y-113571153D01*
X128383921Y-113591670D01*
X128369671Y-113610883D01*
X128353607Y-113628607D01*
X128335883Y-113644671D01*
X128316670Y-113658921D01*
X128296153Y-113671218D01*
X128274529Y-113681446D01*
X128252007Y-113689504D01*
X128228803Y-113695316D01*
X128205142Y-113698826D01*
X128181250Y-113700000D01*
X127693750Y-113700000D01*
X127669858Y-113698826D01*
X127646197Y-113695316D01*
X127622993Y-113689504D01*
X127600471Y-113681446D01*
X127578847Y-113671218D01*
X127558330Y-113658921D01*
X127539117Y-113644671D01*
X127521393Y-113628607D01*
X127505329Y-113610883D01*
X127491079Y-113591670D01*
X127478782Y-113571153D01*
X127468554Y-113549529D01*
X127460496Y-113527007D01*
X127454684Y-113503803D01*
X127451174Y-113480142D01*
X127450000Y-113456250D01*
X127450000Y-112543750D01*
X127451174Y-112519858D01*
X127454684Y-112496197D01*
X127460496Y-112472993D01*
X127468554Y-112450471D01*
X127478782Y-112428847D01*
X127491079Y-112408330D01*
X127505329Y-112389117D01*
X127521393Y-112371393D01*
X127539117Y-112355329D01*
X127558330Y-112341079D01*
X127578847Y-112328782D01*
X127600471Y-112318554D01*
X127622993Y-112310496D01*
X127646197Y-112304684D01*
X127669858Y-112301174D01*
X127693750Y-112300000D01*
X128181250Y-112300000D01*
X128205142Y-112301174D01*
X128205142Y-112301174D01*
G37*
D14*
X127937500Y-113000000D03*
D12*
G36*
X126330142Y-112301174D02*
G01*
X126353803Y-112304684D01*
X126377007Y-112310496D01*
X126399529Y-112318554D01*
X126421153Y-112328782D01*
X126441670Y-112341079D01*
X126460883Y-112355329D01*
X126478607Y-112371393D01*
X126494671Y-112389117D01*
X126508921Y-112408330D01*
X126521218Y-112428847D01*
X126531446Y-112450471D01*
X126539504Y-112472993D01*
X126545316Y-112496197D01*
X126548826Y-112519858D01*
X126550000Y-112543750D01*
X126550000Y-113456250D01*
X126548826Y-113480142D01*
X126545316Y-113503803D01*
X126539504Y-113527007D01*
X126531446Y-113549529D01*
X126521218Y-113571153D01*
X126508921Y-113591670D01*
X126494671Y-113610883D01*
X126478607Y-113628607D01*
X126460883Y-113644671D01*
X126441670Y-113658921D01*
X126421153Y-113671218D01*
X126399529Y-113681446D01*
X126377007Y-113689504D01*
X126353803Y-113695316D01*
X126330142Y-113698826D01*
X126306250Y-113700000D01*
X125818750Y-113700000D01*
X125794858Y-113698826D01*
X125771197Y-113695316D01*
X125747993Y-113689504D01*
X125725471Y-113681446D01*
X125703847Y-113671218D01*
X125683330Y-113658921D01*
X125664117Y-113644671D01*
X125646393Y-113628607D01*
X125630329Y-113610883D01*
X125616079Y-113591670D01*
X125603782Y-113571153D01*
X125593554Y-113549529D01*
X125585496Y-113527007D01*
X125579684Y-113503803D01*
X125576174Y-113480142D01*
X125575000Y-113456250D01*
X125575000Y-112543750D01*
X125576174Y-112519858D01*
X125579684Y-112496197D01*
X125585496Y-112472993D01*
X125593554Y-112450471D01*
X125603782Y-112428847D01*
X125616079Y-112408330D01*
X125630329Y-112389117D01*
X125646393Y-112371393D01*
X125664117Y-112355329D01*
X125683330Y-112341079D01*
X125703847Y-112328782D01*
X125725471Y-112318554D01*
X125747993Y-112310496D01*
X125771197Y-112304684D01*
X125794858Y-112301174D01*
X125818750Y-112300000D01*
X126306250Y-112300000D01*
X126330142Y-112301174D01*
X126330142Y-112301174D01*
G37*
D14*
X126062500Y-113000000D03*
D12*
G36*
X115715958Y-110788710D02*
G01*
X115730276Y-110790834D01*
X115744317Y-110794351D01*
X115757946Y-110799228D01*
X115771031Y-110805417D01*
X115783447Y-110812858D01*
X115795073Y-110821481D01*
X115805798Y-110831202D01*
X115815519Y-110841927D01*
X115824142Y-110853553D01*
X115831583Y-110865969D01*
X115837772Y-110879054D01*
X115842649Y-110892683D01*
X115846166Y-110906724D01*
X115848290Y-110921042D01*
X115849000Y-110935500D01*
X115849000Y-111230500D01*
X115848290Y-111244958D01*
X115846166Y-111259276D01*
X115842649Y-111273317D01*
X115837772Y-111286946D01*
X115831583Y-111300031D01*
X115824142Y-111312447D01*
X115815519Y-111324073D01*
X115805798Y-111334798D01*
X115795073Y-111344519D01*
X115783447Y-111353142D01*
X115771031Y-111360583D01*
X115757946Y-111366772D01*
X115744317Y-111371649D01*
X115730276Y-111375166D01*
X115715958Y-111377290D01*
X115701500Y-111378000D01*
X115356500Y-111378000D01*
X115342042Y-111377290D01*
X115327724Y-111375166D01*
X115313683Y-111371649D01*
X115300054Y-111366772D01*
X115286969Y-111360583D01*
X115274553Y-111353142D01*
X115262927Y-111344519D01*
X115252202Y-111334798D01*
X115242481Y-111324073D01*
X115233858Y-111312447D01*
X115226417Y-111300031D01*
X115220228Y-111286946D01*
X115215351Y-111273317D01*
X115211834Y-111259276D01*
X115209710Y-111244958D01*
X115209000Y-111230500D01*
X115209000Y-110935500D01*
X115209710Y-110921042D01*
X115211834Y-110906724D01*
X115215351Y-110892683D01*
X115220228Y-110879054D01*
X115226417Y-110865969D01*
X115233858Y-110853553D01*
X115242481Y-110841927D01*
X115252202Y-110831202D01*
X115262927Y-110821481D01*
X115274553Y-110812858D01*
X115286969Y-110805417D01*
X115300054Y-110799228D01*
X115313683Y-110794351D01*
X115327724Y-110790834D01*
X115342042Y-110788710D01*
X115356500Y-110788000D01*
X115701500Y-110788000D01*
X115715958Y-110788710D01*
X115715958Y-110788710D01*
G37*
D13*
X115529000Y-111083000D03*
D12*
G36*
X115715958Y-111758710D02*
G01*
X115730276Y-111760834D01*
X115744317Y-111764351D01*
X115757946Y-111769228D01*
X115771031Y-111775417D01*
X115783447Y-111782858D01*
X115795073Y-111791481D01*
X115805798Y-111801202D01*
X115815519Y-111811927D01*
X115824142Y-111823553D01*
X115831583Y-111835969D01*
X115837772Y-111849054D01*
X115842649Y-111862683D01*
X115846166Y-111876724D01*
X115848290Y-111891042D01*
X115849000Y-111905500D01*
X115849000Y-112200500D01*
X115848290Y-112214958D01*
X115846166Y-112229276D01*
X115842649Y-112243317D01*
X115837772Y-112256946D01*
X115831583Y-112270031D01*
X115824142Y-112282447D01*
X115815519Y-112294073D01*
X115805798Y-112304798D01*
X115795073Y-112314519D01*
X115783447Y-112323142D01*
X115771031Y-112330583D01*
X115757946Y-112336772D01*
X115744317Y-112341649D01*
X115730276Y-112345166D01*
X115715958Y-112347290D01*
X115701500Y-112348000D01*
X115356500Y-112348000D01*
X115342042Y-112347290D01*
X115327724Y-112345166D01*
X115313683Y-112341649D01*
X115300054Y-112336772D01*
X115286969Y-112330583D01*
X115274553Y-112323142D01*
X115262927Y-112314519D01*
X115252202Y-112304798D01*
X115242481Y-112294073D01*
X115233858Y-112282447D01*
X115226417Y-112270031D01*
X115220228Y-112256946D01*
X115215351Y-112243317D01*
X115211834Y-112229276D01*
X115209710Y-112214958D01*
X115209000Y-112200500D01*
X115209000Y-111905500D01*
X115209710Y-111891042D01*
X115211834Y-111876724D01*
X115215351Y-111862683D01*
X115220228Y-111849054D01*
X115226417Y-111835969D01*
X115233858Y-111823553D01*
X115242481Y-111811927D01*
X115252202Y-111801202D01*
X115262927Y-111791481D01*
X115274553Y-111782858D01*
X115286969Y-111775417D01*
X115300054Y-111769228D01*
X115313683Y-111764351D01*
X115327724Y-111760834D01*
X115342042Y-111758710D01*
X115356500Y-111758000D01*
X115701500Y-111758000D01*
X115715958Y-111758710D01*
X115715958Y-111758710D01*
G37*
D13*
X115529000Y-112053000D03*
D12*
G36*
X118146958Y-104480710D02*
G01*
X118161276Y-104482834D01*
X118175317Y-104486351D01*
X118188946Y-104491228D01*
X118202031Y-104497417D01*
X118214447Y-104504858D01*
X118226073Y-104513481D01*
X118236798Y-104523202D01*
X118246519Y-104533927D01*
X118255142Y-104545553D01*
X118262583Y-104557969D01*
X118268772Y-104571054D01*
X118273649Y-104584683D01*
X118277166Y-104598724D01*
X118279290Y-104613042D01*
X118280000Y-104627500D01*
X118280000Y-104972500D01*
X118279290Y-104986958D01*
X118277166Y-105001276D01*
X118273649Y-105015317D01*
X118268772Y-105028946D01*
X118262583Y-105042031D01*
X118255142Y-105054447D01*
X118246519Y-105066073D01*
X118236798Y-105076798D01*
X118226073Y-105086519D01*
X118214447Y-105095142D01*
X118202031Y-105102583D01*
X118188946Y-105108772D01*
X118175317Y-105113649D01*
X118161276Y-105117166D01*
X118146958Y-105119290D01*
X118132500Y-105120000D01*
X117837500Y-105120000D01*
X117823042Y-105119290D01*
X117808724Y-105117166D01*
X117794683Y-105113649D01*
X117781054Y-105108772D01*
X117767969Y-105102583D01*
X117755553Y-105095142D01*
X117743927Y-105086519D01*
X117733202Y-105076798D01*
X117723481Y-105066073D01*
X117714858Y-105054447D01*
X117707417Y-105042031D01*
X117701228Y-105028946D01*
X117696351Y-105015317D01*
X117692834Y-105001276D01*
X117690710Y-104986958D01*
X117690000Y-104972500D01*
X117690000Y-104627500D01*
X117690710Y-104613042D01*
X117692834Y-104598724D01*
X117696351Y-104584683D01*
X117701228Y-104571054D01*
X117707417Y-104557969D01*
X117714858Y-104545553D01*
X117723481Y-104533927D01*
X117733202Y-104523202D01*
X117743927Y-104513481D01*
X117755553Y-104504858D01*
X117767969Y-104497417D01*
X117781054Y-104491228D01*
X117794683Y-104486351D01*
X117808724Y-104482834D01*
X117823042Y-104480710D01*
X117837500Y-104480000D01*
X118132500Y-104480000D01*
X118146958Y-104480710D01*
X118146958Y-104480710D01*
G37*
D13*
X117985000Y-104800000D03*
D12*
G36*
X117176958Y-104480710D02*
G01*
X117191276Y-104482834D01*
X117205317Y-104486351D01*
X117218946Y-104491228D01*
X117232031Y-104497417D01*
X117244447Y-104504858D01*
X117256073Y-104513481D01*
X117266798Y-104523202D01*
X117276519Y-104533927D01*
X117285142Y-104545553D01*
X117292583Y-104557969D01*
X117298772Y-104571054D01*
X117303649Y-104584683D01*
X117307166Y-104598724D01*
X117309290Y-104613042D01*
X117310000Y-104627500D01*
X117310000Y-104972500D01*
X117309290Y-104986958D01*
X117307166Y-105001276D01*
X117303649Y-105015317D01*
X117298772Y-105028946D01*
X117292583Y-105042031D01*
X117285142Y-105054447D01*
X117276519Y-105066073D01*
X117266798Y-105076798D01*
X117256073Y-105086519D01*
X117244447Y-105095142D01*
X117232031Y-105102583D01*
X117218946Y-105108772D01*
X117205317Y-105113649D01*
X117191276Y-105117166D01*
X117176958Y-105119290D01*
X117162500Y-105120000D01*
X116867500Y-105120000D01*
X116853042Y-105119290D01*
X116838724Y-105117166D01*
X116824683Y-105113649D01*
X116811054Y-105108772D01*
X116797969Y-105102583D01*
X116785553Y-105095142D01*
X116773927Y-105086519D01*
X116763202Y-105076798D01*
X116753481Y-105066073D01*
X116744858Y-105054447D01*
X116737417Y-105042031D01*
X116731228Y-105028946D01*
X116726351Y-105015317D01*
X116722834Y-105001276D01*
X116720710Y-104986958D01*
X116720000Y-104972500D01*
X116720000Y-104627500D01*
X116720710Y-104613042D01*
X116722834Y-104598724D01*
X116726351Y-104584683D01*
X116731228Y-104571054D01*
X116737417Y-104557969D01*
X116744858Y-104545553D01*
X116753481Y-104533927D01*
X116763202Y-104523202D01*
X116773927Y-104513481D01*
X116785553Y-104504858D01*
X116797969Y-104497417D01*
X116811054Y-104491228D01*
X116824683Y-104486351D01*
X116838724Y-104482834D01*
X116853042Y-104480710D01*
X116867500Y-104480000D01*
X117162500Y-104480000D01*
X117176958Y-104480710D01*
X117176958Y-104480710D01*
G37*
D13*
X117015000Y-104800000D03*
D12*
G36*
X124436958Y-106690710D02*
G01*
X124451276Y-106692834D01*
X124465317Y-106696351D01*
X124478946Y-106701228D01*
X124492031Y-106707417D01*
X124504447Y-106714858D01*
X124516073Y-106723481D01*
X124526798Y-106733202D01*
X124536519Y-106743927D01*
X124545142Y-106755553D01*
X124552583Y-106767969D01*
X124558772Y-106781054D01*
X124563649Y-106794683D01*
X124567166Y-106808724D01*
X124569290Y-106823042D01*
X124570000Y-106837500D01*
X124570000Y-107132500D01*
X124569290Y-107146958D01*
X124567166Y-107161276D01*
X124563649Y-107175317D01*
X124558772Y-107188946D01*
X124552583Y-107202031D01*
X124545142Y-107214447D01*
X124536519Y-107226073D01*
X124526798Y-107236798D01*
X124516073Y-107246519D01*
X124504447Y-107255142D01*
X124492031Y-107262583D01*
X124478946Y-107268772D01*
X124465317Y-107273649D01*
X124451276Y-107277166D01*
X124436958Y-107279290D01*
X124422500Y-107280000D01*
X124077500Y-107280000D01*
X124063042Y-107279290D01*
X124048724Y-107277166D01*
X124034683Y-107273649D01*
X124021054Y-107268772D01*
X124007969Y-107262583D01*
X123995553Y-107255142D01*
X123983927Y-107246519D01*
X123973202Y-107236798D01*
X123963481Y-107226073D01*
X123954858Y-107214447D01*
X123947417Y-107202031D01*
X123941228Y-107188946D01*
X123936351Y-107175317D01*
X123932834Y-107161276D01*
X123930710Y-107146958D01*
X123930000Y-107132500D01*
X123930000Y-106837500D01*
X123930710Y-106823042D01*
X123932834Y-106808724D01*
X123936351Y-106794683D01*
X123941228Y-106781054D01*
X123947417Y-106767969D01*
X123954858Y-106755553D01*
X123963481Y-106743927D01*
X123973202Y-106733202D01*
X123983927Y-106723481D01*
X123995553Y-106714858D01*
X124007969Y-106707417D01*
X124021054Y-106701228D01*
X124034683Y-106696351D01*
X124048724Y-106692834D01*
X124063042Y-106690710D01*
X124077500Y-106690000D01*
X124422500Y-106690000D01*
X124436958Y-106690710D01*
X124436958Y-106690710D01*
G37*
D13*
X124250000Y-106985000D03*
D12*
G36*
X124436958Y-105720710D02*
G01*
X124451276Y-105722834D01*
X124465317Y-105726351D01*
X124478946Y-105731228D01*
X124492031Y-105737417D01*
X124504447Y-105744858D01*
X124516073Y-105753481D01*
X124526798Y-105763202D01*
X124536519Y-105773927D01*
X124545142Y-105785553D01*
X124552583Y-105797969D01*
X124558772Y-105811054D01*
X124563649Y-105824683D01*
X124567166Y-105838724D01*
X124569290Y-105853042D01*
X124570000Y-105867500D01*
X124570000Y-106162500D01*
X124569290Y-106176958D01*
X124567166Y-106191276D01*
X124563649Y-106205317D01*
X124558772Y-106218946D01*
X124552583Y-106232031D01*
X124545142Y-106244447D01*
X124536519Y-106256073D01*
X124526798Y-106266798D01*
X124516073Y-106276519D01*
X124504447Y-106285142D01*
X124492031Y-106292583D01*
X124478946Y-106298772D01*
X124465317Y-106303649D01*
X124451276Y-106307166D01*
X124436958Y-106309290D01*
X124422500Y-106310000D01*
X124077500Y-106310000D01*
X124063042Y-106309290D01*
X124048724Y-106307166D01*
X124034683Y-106303649D01*
X124021054Y-106298772D01*
X124007969Y-106292583D01*
X123995553Y-106285142D01*
X123983927Y-106276519D01*
X123973202Y-106266798D01*
X123963481Y-106256073D01*
X123954858Y-106244447D01*
X123947417Y-106232031D01*
X123941228Y-106218946D01*
X123936351Y-106205317D01*
X123932834Y-106191276D01*
X123930710Y-106176958D01*
X123930000Y-106162500D01*
X123930000Y-105867500D01*
X123930710Y-105853042D01*
X123932834Y-105838724D01*
X123936351Y-105824683D01*
X123941228Y-105811054D01*
X123947417Y-105797969D01*
X123954858Y-105785553D01*
X123963481Y-105773927D01*
X123973202Y-105763202D01*
X123983927Y-105753481D01*
X123995553Y-105744858D01*
X124007969Y-105737417D01*
X124021054Y-105731228D01*
X124034683Y-105726351D01*
X124048724Y-105722834D01*
X124063042Y-105720710D01*
X124077500Y-105720000D01*
X124422500Y-105720000D01*
X124436958Y-105720710D01*
X124436958Y-105720710D01*
G37*
D13*
X124250000Y-106015000D03*
D12*
G36*
X126176958Y-107680710D02*
G01*
X126191276Y-107682834D01*
X126205317Y-107686351D01*
X126218946Y-107691228D01*
X126232031Y-107697417D01*
X126244447Y-107704858D01*
X126256073Y-107713481D01*
X126266798Y-107723202D01*
X126276519Y-107733927D01*
X126285142Y-107745553D01*
X126292583Y-107757969D01*
X126298772Y-107771054D01*
X126303649Y-107784683D01*
X126307166Y-107798724D01*
X126309290Y-107813042D01*
X126310000Y-107827500D01*
X126310000Y-108172500D01*
X126309290Y-108186958D01*
X126307166Y-108201276D01*
X126303649Y-108215317D01*
X126298772Y-108228946D01*
X126292583Y-108242031D01*
X126285142Y-108254447D01*
X126276519Y-108266073D01*
X126266798Y-108276798D01*
X126256073Y-108286519D01*
X126244447Y-108295142D01*
X126232031Y-108302583D01*
X126218946Y-108308772D01*
X126205317Y-108313649D01*
X126191276Y-108317166D01*
X126176958Y-108319290D01*
X126162500Y-108320000D01*
X125867500Y-108320000D01*
X125853042Y-108319290D01*
X125838724Y-108317166D01*
X125824683Y-108313649D01*
X125811054Y-108308772D01*
X125797969Y-108302583D01*
X125785553Y-108295142D01*
X125773927Y-108286519D01*
X125763202Y-108276798D01*
X125753481Y-108266073D01*
X125744858Y-108254447D01*
X125737417Y-108242031D01*
X125731228Y-108228946D01*
X125726351Y-108215317D01*
X125722834Y-108201276D01*
X125720710Y-108186958D01*
X125720000Y-108172500D01*
X125720000Y-107827500D01*
X125720710Y-107813042D01*
X125722834Y-107798724D01*
X125726351Y-107784683D01*
X125731228Y-107771054D01*
X125737417Y-107757969D01*
X125744858Y-107745553D01*
X125753481Y-107733927D01*
X125763202Y-107723202D01*
X125773927Y-107713481D01*
X125785553Y-107704858D01*
X125797969Y-107697417D01*
X125811054Y-107691228D01*
X125824683Y-107686351D01*
X125838724Y-107682834D01*
X125853042Y-107680710D01*
X125867500Y-107680000D01*
X126162500Y-107680000D01*
X126176958Y-107680710D01*
X126176958Y-107680710D01*
G37*
D13*
X126015000Y-108000000D03*
D12*
G36*
X127146958Y-107680710D02*
G01*
X127161276Y-107682834D01*
X127175317Y-107686351D01*
X127188946Y-107691228D01*
X127202031Y-107697417D01*
X127214447Y-107704858D01*
X127226073Y-107713481D01*
X127236798Y-107723202D01*
X127246519Y-107733927D01*
X127255142Y-107745553D01*
X127262583Y-107757969D01*
X127268772Y-107771054D01*
X127273649Y-107784683D01*
X127277166Y-107798724D01*
X127279290Y-107813042D01*
X127280000Y-107827500D01*
X127280000Y-108172500D01*
X127279290Y-108186958D01*
X127277166Y-108201276D01*
X127273649Y-108215317D01*
X127268772Y-108228946D01*
X127262583Y-108242031D01*
X127255142Y-108254447D01*
X127246519Y-108266073D01*
X127236798Y-108276798D01*
X127226073Y-108286519D01*
X127214447Y-108295142D01*
X127202031Y-108302583D01*
X127188946Y-108308772D01*
X127175317Y-108313649D01*
X127161276Y-108317166D01*
X127146958Y-108319290D01*
X127132500Y-108320000D01*
X126837500Y-108320000D01*
X126823042Y-108319290D01*
X126808724Y-108317166D01*
X126794683Y-108313649D01*
X126781054Y-108308772D01*
X126767969Y-108302583D01*
X126755553Y-108295142D01*
X126743927Y-108286519D01*
X126733202Y-108276798D01*
X126723481Y-108266073D01*
X126714858Y-108254447D01*
X126707417Y-108242031D01*
X126701228Y-108228946D01*
X126696351Y-108215317D01*
X126692834Y-108201276D01*
X126690710Y-108186958D01*
X126690000Y-108172500D01*
X126690000Y-107827500D01*
X126690710Y-107813042D01*
X126692834Y-107798724D01*
X126696351Y-107784683D01*
X126701228Y-107771054D01*
X126707417Y-107757969D01*
X126714858Y-107745553D01*
X126723481Y-107733927D01*
X126733202Y-107723202D01*
X126743927Y-107713481D01*
X126755553Y-107704858D01*
X126767969Y-107697417D01*
X126781054Y-107691228D01*
X126794683Y-107686351D01*
X126808724Y-107682834D01*
X126823042Y-107680710D01*
X126837500Y-107680000D01*
X127132500Y-107680000D01*
X127146958Y-107680710D01*
X127146958Y-107680710D01*
G37*
D13*
X126985000Y-108000000D03*
D12*
G36*
X126173758Y-109180710D02*
G01*
X126188076Y-109182834D01*
X126202117Y-109186351D01*
X126215746Y-109191228D01*
X126228831Y-109197417D01*
X126241247Y-109204858D01*
X126252873Y-109213481D01*
X126263598Y-109223202D01*
X126273319Y-109233927D01*
X126281942Y-109245553D01*
X126289383Y-109257969D01*
X126295572Y-109271054D01*
X126300449Y-109284683D01*
X126303966Y-109298724D01*
X126306090Y-109313042D01*
X126306800Y-109327500D01*
X126306800Y-109672500D01*
X126306090Y-109686958D01*
X126303966Y-109701276D01*
X126300449Y-109715317D01*
X126295572Y-109728946D01*
X126289383Y-109742031D01*
X126281942Y-109754447D01*
X126273319Y-109766073D01*
X126263598Y-109776798D01*
X126252873Y-109786519D01*
X126241247Y-109795142D01*
X126228831Y-109802583D01*
X126215746Y-109808772D01*
X126202117Y-109813649D01*
X126188076Y-109817166D01*
X126173758Y-109819290D01*
X126159300Y-109820000D01*
X125864300Y-109820000D01*
X125849842Y-109819290D01*
X125835524Y-109817166D01*
X125821483Y-109813649D01*
X125807854Y-109808772D01*
X125794769Y-109802583D01*
X125782353Y-109795142D01*
X125770727Y-109786519D01*
X125760002Y-109776798D01*
X125750281Y-109766073D01*
X125741658Y-109754447D01*
X125734217Y-109742031D01*
X125728028Y-109728946D01*
X125723151Y-109715317D01*
X125719634Y-109701276D01*
X125717510Y-109686958D01*
X125716800Y-109672500D01*
X125716800Y-109327500D01*
X125717510Y-109313042D01*
X125719634Y-109298724D01*
X125723151Y-109284683D01*
X125728028Y-109271054D01*
X125734217Y-109257969D01*
X125741658Y-109245553D01*
X125750281Y-109233927D01*
X125760002Y-109223202D01*
X125770727Y-109213481D01*
X125782353Y-109204858D01*
X125794769Y-109197417D01*
X125807854Y-109191228D01*
X125821483Y-109186351D01*
X125835524Y-109182834D01*
X125849842Y-109180710D01*
X125864300Y-109180000D01*
X126159300Y-109180000D01*
X126173758Y-109180710D01*
X126173758Y-109180710D01*
G37*
D13*
X126011800Y-109500000D03*
D12*
G36*
X127143758Y-109180710D02*
G01*
X127158076Y-109182834D01*
X127172117Y-109186351D01*
X127185746Y-109191228D01*
X127198831Y-109197417D01*
X127211247Y-109204858D01*
X127222873Y-109213481D01*
X127233598Y-109223202D01*
X127243319Y-109233927D01*
X127251942Y-109245553D01*
X127259383Y-109257969D01*
X127265572Y-109271054D01*
X127270449Y-109284683D01*
X127273966Y-109298724D01*
X127276090Y-109313042D01*
X127276800Y-109327500D01*
X127276800Y-109672500D01*
X127276090Y-109686958D01*
X127273966Y-109701276D01*
X127270449Y-109715317D01*
X127265572Y-109728946D01*
X127259383Y-109742031D01*
X127251942Y-109754447D01*
X127243319Y-109766073D01*
X127233598Y-109776798D01*
X127222873Y-109786519D01*
X127211247Y-109795142D01*
X127198831Y-109802583D01*
X127185746Y-109808772D01*
X127172117Y-109813649D01*
X127158076Y-109817166D01*
X127143758Y-109819290D01*
X127129300Y-109820000D01*
X126834300Y-109820000D01*
X126819842Y-109819290D01*
X126805524Y-109817166D01*
X126791483Y-109813649D01*
X126777854Y-109808772D01*
X126764769Y-109802583D01*
X126752353Y-109795142D01*
X126740727Y-109786519D01*
X126730002Y-109776798D01*
X126720281Y-109766073D01*
X126711658Y-109754447D01*
X126704217Y-109742031D01*
X126698028Y-109728946D01*
X126693151Y-109715317D01*
X126689634Y-109701276D01*
X126687510Y-109686958D01*
X126686800Y-109672500D01*
X126686800Y-109327500D01*
X126687510Y-109313042D01*
X126689634Y-109298724D01*
X126693151Y-109284683D01*
X126698028Y-109271054D01*
X126704217Y-109257969D01*
X126711658Y-109245553D01*
X126720281Y-109233927D01*
X126730002Y-109223202D01*
X126740727Y-109213481D01*
X126752353Y-109204858D01*
X126764769Y-109197417D01*
X126777854Y-109191228D01*
X126791483Y-109186351D01*
X126805524Y-109182834D01*
X126819842Y-109180710D01*
X126834300Y-109180000D01*
X127129300Y-109180000D01*
X127143758Y-109180710D01*
X127143758Y-109180710D01*
G37*
D13*
X126981800Y-109500000D03*
D12*
G36*
X126176958Y-110680710D02*
G01*
X126191276Y-110682834D01*
X126205317Y-110686351D01*
X126218946Y-110691228D01*
X126232031Y-110697417D01*
X126244447Y-110704858D01*
X126256073Y-110713481D01*
X126266798Y-110723202D01*
X126276519Y-110733927D01*
X126285142Y-110745553D01*
X126292583Y-110757969D01*
X126298772Y-110771054D01*
X126303649Y-110784683D01*
X126307166Y-110798724D01*
X126309290Y-110813042D01*
X126310000Y-110827500D01*
X126310000Y-111172500D01*
X126309290Y-111186958D01*
X126307166Y-111201276D01*
X126303649Y-111215317D01*
X126298772Y-111228946D01*
X126292583Y-111242031D01*
X126285142Y-111254447D01*
X126276519Y-111266073D01*
X126266798Y-111276798D01*
X126256073Y-111286519D01*
X126244447Y-111295142D01*
X126232031Y-111302583D01*
X126218946Y-111308772D01*
X126205317Y-111313649D01*
X126191276Y-111317166D01*
X126176958Y-111319290D01*
X126162500Y-111320000D01*
X125867500Y-111320000D01*
X125853042Y-111319290D01*
X125838724Y-111317166D01*
X125824683Y-111313649D01*
X125811054Y-111308772D01*
X125797969Y-111302583D01*
X125785553Y-111295142D01*
X125773927Y-111286519D01*
X125763202Y-111276798D01*
X125753481Y-111266073D01*
X125744858Y-111254447D01*
X125737417Y-111242031D01*
X125731228Y-111228946D01*
X125726351Y-111215317D01*
X125722834Y-111201276D01*
X125720710Y-111186958D01*
X125720000Y-111172500D01*
X125720000Y-110827500D01*
X125720710Y-110813042D01*
X125722834Y-110798724D01*
X125726351Y-110784683D01*
X125731228Y-110771054D01*
X125737417Y-110757969D01*
X125744858Y-110745553D01*
X125753481Y-110733927D01*
X125763202Y-110723202D01*
X125773927Y-110713481D01*
X125785553Y-110704858D01*
X125797969Y-110697417D01*
X125811054Y-110691228D01*
X125824683Y-110686351D01*
X125838724Y-110682834D01*
X125853042Y-110680710D01*
X125867500Y-110680000D01*
X126162500Y-110680000D01*
X126176958Y-110680710D01*
X126176958Y-110680710D01*
G37*
D13*
X126015000Y-111000000D03*
D12*
G36*
X127146958Y-110680710D02*
G01*
X127161276Y-110682834D01*
X127175317Y-110686351D01*
X127188946Y-110691228D01*
X127202031Y-110697417D01*
X127214447Y-110704858D01*
X127226073Y-110713481D01*
X127236798Y-110723202D01*
X127246519Y-110733927D01*
X127255142Y-110745553D01*
X127262583Y-110757969D01*
X127268772Y-110771054D01*
X127273649Y-110784683D01*
X127277166Y-110798724D01*
X127279290Y-110813042D01*
X127280000Y-110827500D01*
X127280000Y-111172500D01*
X127279290Y-111186958D01*
X127277166Y-111201276D01*
X127273649Y-111215317D01*
X127268772Y-111228946D01*
X127262583Y-111242031D01*
X127255142Y-111254447D01*
X127246519Y-111266073D01*
X127236798Y-111276798D01*
X127226073Y-111286519D01*
X127214447Y-111295142D01*
X127202031Y-111302583D01*
X127188946Y-111308772D01*
X127175317Y-111313649D01*
X127161276Y-111317166D01*
X127146958Y-111319290D01*
X127132500Y-111320000D01*
X126837500Y-111320000D01*
X126823042Y-111319290D01*
X126808724Y-111317166D01*
X126794683Y-111313649D01*
X126781054Y-111308772D01*
X126767969Y-111302583D01*
X126755553Y-111295142D01*
X126743927Y-111286519D01*
X126733202Y-111276798D01*
X126723481Y-111266073D01*
X126714858Y-111254447D01*
X126707417Y-111242031D01*
X126701228Y-111228946D01*
X126696351Y-111215317D01*
X126692834Y-111201276D01*
X126690710Y-111186958D01*
X126690000Y-111172500D01*
X126690000Y-110827500D01*
X126690710Y-110813042D01*
X126692834Y-110798724D01*
X126696351Y-110784683D01*
X126701228Y-110771054D01*
X126707417Y-110757969D01*
X126714858Y-110745553D01*
X126723481Y-110733927D01*
X126733202Y-110723202D01*
X126743927Y-110713481D01*
X126755553Y-110704858D01*
X126767969Y-110697417D01*
X126781054Y-110691228D01*
X126794683Y-110686351D01*
X126808724Y-110682834D01*
X126823042Y-110680710D01*
X126837500Y-110680000D01*
X127132500Y-110680000D01*
X127146958Y-110680710D01*
X127146958Y-110680710D01*
G37*
D13*
X126985000Y-111000000D03*
M02*
