G04 #@! TF.GenerationSoftware,KiCad,Pcbnew,5.1.2-f72e74a~84~ubuntu18.04.1*
G04 #@! TF.CreationDate,2019-09-23T02:40:17+02:00*
G04 #@! TF.ProjectId,board,626f6172-642e-46b6-9963-61645f706362,rev?*
G04 #@! TF.SameCoordinates,Original*
G04 #@! TF.FileFunction,Legend,Top*
G04 #@! TF.FilePolarity,Positive*
%FSLAX46Y46*%
G04 Gerber Fmt 4.6, Leading zero omitted, Abs format (unit mm)*
G04 Created by KiCad (PCBNEW 5.1.2-f72e74a~84~ubuntu18.04.1) date 2019-09-23 02:40:17*
%MOMM*%
%LPD*%
G04 APERTURE LIST*
%ADD10C,0.120000*%
%ADD11C,0.127000*%
%ADD12C,0.150000*%
G04 APERTURE END LIST*
D10*
X143148000Y-101836000D02*
X143148000Y-103166000D01*
X143148000Y-103166000D02*
X141818000Y-103166000D01*
X140548000Y-103166000D02*
X107468000Y-103166000D01*
X107468000Y-100506000D02*
X107468000Y-103166000D01*
X140548000Y-100506000D02*
X107468000Y-100506000D01*
X140548000Y-100506000D02*
X140548000Y-103166000D01*
X116710000Y-133710000D02*
X116710000Y-131360000D01*
X116710000Y-126890000D02*
X116710000Y-129240000D01*
X110954437Y-126890000D02*
X116710000Y-126890000D01*
X110954437Y-133710000D02*
X116710000Y-133710000D01*
X109890000Y-132645563D02*
X109890000Y-131360000D01*
X109890000Y-127954437D02*
X109890000Y-129240000D01*
X109890000Y-127954437D02*
X110954437Y-126890000D01*
X109890000Y-132645563D02*
X110954437Y-133710000D01*
X108862500Y-128452500D02*
X109650000Y-128452500D01*
X109256250Y-128058750D02*
X109256250Y-128846250D01*
X140548000Y-115706000D02*
X140548000Y-118366000D01*
X140548000Y-115706000D02*
X107468000Y-115706000D01*
X107468000Y-115706000D02*
X107468000Y-118366000D01*
X140548000Y-118366000D02*
X107468000Y-118366000D01*
X143148000Y-118366000D02*
X141818000Y-118366000D01*
X143148000Y-117036000D02*
X143148000Y-118366000D01*
X108415000Y-126035000D02*
X110700000Y-126035000D01*
X108415000Y-124565000D02*
X108415000Y-126035000D01*
X110700000Y-124565000D02*
X108415000Y-124565000D01*
D11*
X146053000Y-117502000D02*
X151133000Y-117502000D01*
X146093000Y-133782000D02*
X151093000Y-133782000D01*
X146093000Y-116462000D02*
X146093000Y-133782000D01*
X151093000Y-116462000D02*
X146093000Y-116462000D01*
X151093000Y-133782000D02*
X151093000Y-116462000D01*
D10*
X122470000Y-133430000D02*
X122470000Y-132100000D01*
X123800000Y-133430000D02*
X122470000Y-133430000D01*
X125070000Y-133430000D02*
X125070000Y-130770000D01*
X125070000Y-130770000D02*
X142910000Y-130770000D01*
X125070000Y-133430000D02*
X142910000Y-133430000D01*
X142910000Y-133430000D02*
X142910000Y-130770000D01*
X119971267Y-132490000D02*
X119628733Y-132490000D01*
X119971267Y-133510000D02*
X119628733Y-133510000D01*
D12*
X100140000Y-118992000D02*
X100140000Y-133992000D01*
X108140000Y-118992000D02*
X100140000Y-118992000D01*
X108140000Y-133992000D02*
X108140000Y-118992000D01*
X100140000Y-133992000D02*
X108140000Y-133992000D01*
X108140000Y-130992000D02*
X107540000Y-130992000D01*
X104740000Y-130992000D02*
X103540000Y-130992000D01*
X100140000Y-130992000D02*
X100740000Y-130992000D01*
D10*
X133645000Y-125150000D02*
X133645000Y-122020000D01*
X137245000Y-124480000D02*
X137245000Y-122020000D01*
X141500000Y-122900000D02*
X141500000Y-126030000D01*
X137900000Y-123570000D02*
X137900000Y-126030000D01*
X133300000Y-122900000D02*
X133300000Y-126030000D01*
X129700000Y-123570000D02*
X129700000Y-126030000D01*
X116950000Y-125150000D02*
X116950000Y-122020000D01*
X120550000Y-124480000D02*
X120550000Y-122020000D01*
X125450000Y-125150000D02*
X125450000Y-122020000D01*
X129050000Y-124480000D02*
X129050000Y-122020000D01*
X124800000Y-122900000D02*
X124800000Y-126030000D01*
X121200000Y-123570000D02*
X121200000Y-126030000D01*
X111790000Y-122491422D02*
X111790000Y-123008578D01*
X113210000Y-122491422D02*
X113210000Y-123008578D01*
X109790000Y-122491422D02*
X109790000Y-123008578D01*
X111210000Y-122491422D02*
X111210000Y-123008578D01*
X105924000Y-106172000D02*
X105924000Y-100487000D01*
X105924000Y-100487000D02*
X100324000Y-100487000D01*
X100324000Y-110587000D02*
X100324000Y-100487000D01*
X101854000Y-110587000D02*
X100324000Y-110587000D01*
X103124000Y-109312000D02*
X103124000Y-107442000D01*
X103124000Y-107442000D02*
X104994000Y-107442000D01*
X105924000Y-108712000D02*
X105924000Y-110587000D01*
X105924000Y-110587000D02*
X104394000Y-110587000D01*
X152600000Y-109965000D02*
X152600000Y-106850000D01*
X152600000Y-106850000D02*
X147000000Y-106850000D01*
X147000000Y-114350000D02*
X147000000Y-106850000D01*
X148530000Y-114350000D02*
X147000000Y-114350000D01*
X149800000Y-113105000D02*
X149800000Y-111235000D01*
X149800000Y-111235000D02*
X151670000Y-111235000D01*
X152600000Y-112505000D02*
X152600000Y-114350000D01*
X152600000Y-114350000D02*
X151070000Y-114350000D01*
X145540000Y-105865000D02*
X151060000Y-105865000D01*
X143854000Y-101150000D02*
X145540000Y-101150000D01*
X145540000Y-100334000D02*
X145540000Y-101150000D01*
X145540000Y-100334000D02*
X151060000Y-100334000D01*
X151060000Y-100334000D02*
X151060000Y-101769000D01*
X145540000Y-104430000D02*
X145540000Y-105865000D01*
X151060000Y-104430000D02*
X151060000Y-105865000D01*
X104100000Y-112450000D02*
X104100000Y-118350000D01*
X100200000Y-112450000D02*
X100200000Y-118350000D01*
X100200000Y-118350000D02*
X101275000Y-118350000D01*
X140570000Y-111870000D02*
X145770000Y-111870000D01*
X140570000Y-109270000D02*
X140570000Y-111870000D01*
X145770000Y-106670000D02*
X145770000Y-111870000D01*
X140570000Y-109270000D02*
X143170000Y-109270000D01*
X143170000Y-109270000D02*
X143170000Y-106670000D01*
X143170000Y-106670000D02*
X145770000Y-106670000D01*
X140570000Y-108000000D02*
X140570000Y-106670000D01*
X140570000Y-106670000D02*
X141900000Y-106670000D01*
D12*
X103477380Y-111614285D02*
X103477380Y-112185714D01*
X103477380Y-111900000D02*
X102477380Y-111900000D01*
X102620238Y-111995238D01*
X102715476Y-112090476D01*
X102763095Y-112185714D01*
M02*
