G04 #@! TF.GenerationSoftware,KiCad,Pcbnew,5.1.2-f72e74a~84~ubuntu18.04.1*
G04 #@! TF.CreationDate,2019-09-23T02:40:17+02:00*
G04 #@! TF.ProjectId,board,626f6172-642e-46b6-9963-61645f706362,rev?*
G04 #@! TF.SameCoordinates,Original*
G04 #@! TF.FileFunction,Soldermask,Bot*
G04 #@! TF.FilePolarity,Negative*
%FSLAX46Y46*%
G04 Gerber Fmt 4.6, Leading zero omitted, Abs format (unit mm)*
G04 Created by KiCad (PCBNEW 5.1.2-f72e74a~84~ubuntu18.04.1) date 2019-09-23 02:40:17*
%MOMM*%
%LPD*%
G04 APERTURE LIST*
%ADD10C,0.010000*%
%ADD11C,0.100000*%
G04 APERTURE END LIST*
D10*
G36*
X146911411Y-106352342D02*
G01*
X146960303Y-106350966D01*
X147001791Y-106348773D01*
X147004248Y-106348596D01*
X147170730Y-106331383D01*
X147334856Y-106304381D01*
X147496263Y-106267764D01*
X147654589Y-106221703D01*
X147809470Y-106166372D01*
X147960545Y-106101944D01*
X148107451Y-106028590D01*
X148249824Y-105946485D01*
X148387304Y-105855801D01*
X148519526Y-105756710D01*
X148646128Y-105649386D01*
X148766748Y-105534001D01*
X148811488Y-105487494D01*
X148922388Y-105362198D01*
X149024852Y-105231320D01*
X149118766Y-105095106D01*
X149204014Y-104953803D01*
X149280485Y-104807656D01*
X149348064Y-104656909D01*
X149406637Y-104501810D01*
X149456090Y-104342604D01*
X149496310Y-104179535D01*
X149527184Y-104012851D01*
X149541027Y-103912420D01*
X149543688Y-103884386D01*
X149546056Y-103847842D01*
X149548107Y-103804435D01*
X149549818Y-103755812D01*
X149551168Y-103703621D01*
X149552131Y-103649507D01*
X149552687Y-103595119D01*
X149552810Y-103542102D01*
X149552479Y-103492103D01*
X149551671Y-103446771D01*
X149550362Y-103407750D01*
X149548529Y-103376689D01*
X149548521Y-103376591D01*
X149530425Y-103212262D01*
X149502523Y-103050053D01*
X149465024Y-102890364D01*
X149418137Y-102733595D01*
X149362068Y-102580147D01*
X149297026Y-102430420D01*
X149223220Y-102284814D01*
X149140858Y-102143729D01*
X149050147Y-102007567D01*
X148951295Y-101876727D01*
X148844512Y-101751609D01*
X148730005Y-101632615D01*
X148607982Y-101520144D01*
X148563827Y-101482635D01*
X148432339Y-101379836D01*
X148295556Y-101285630D01*
X148153820Y-101200156D01*
X148007475Y-101123556D01*
X147856863Y-101055970D01*
X147702328Y-100997538D01*
X147544213Y-100948401D01*
X147382861Y-100908700D01*
X147218615Y-100878575D01*
X147051818Y-100858166D01*
X147036220Y-100856770D01*
X147004605Y-100854579D01*
X146965273Y-100852717D01*
X146920337Y-100851209D01*
X146871909Y-100850084D01*
X146822102Y-100849366D01*
X146773029Y-100849083D01*
X146726802Y-100849260D01*
X146685534Y-100849924D01*
X146651338Y-100851101D01*
X146638694Y-100851813D01*
X146469062Y-100867958D01*
X146302378Y-100893692D01*
X146138908Y-100928901D01*
X145978916Y-100973471D01*
X145822667Y-101027288D01*
X145670427Y-101090237D01*
X145522461Y-101162204D01*
X145379033Y-101243075D01*
X145240408Y-101332735D01*
X145106852Y-101431071D01*
X144978630Y-101537969D01*
X144917269Y-101593964D01*
X144798879Y-101712133D01*
X144688479Y-101836429D01*
X144586241Y-101966490D01*
X144492338Y-102101952D01*
X144406943Y-102242454D01*
X144330229Y-102387631D01*
X144262370Y-102537120D01*
X144203537Y-102690559D01*
X144153904Y-102847584D01*
X144113644Y-103007832D01*
X144082930Y-103170940D01*
X144061935Y-103336546D01*
X144056484Y-103400832D01*
X144054235Y-103441757D01*
X144052806Y-103490216D01*
X144052158Y-103544259D01*
X144052254Y-103601935D01*
X144052845Y-103645720D01*
X145735866Y-103645720D01*
X145736087Y-103585133D01*
X145736800Y-103532745D01*
X145738154Y-103486602D01*
X145740296Y-103444751D01*
X145743376Y-103405237D01*
X145747541Y-103366105D01*
X145752939Y-103325402D01*
X145759719Y-103281173D01*
X145766683Y-103239320D01*
X145791321Y-103114233D01*
X145823172Y-102984216D01*
X145861644Y-102850845D01*
X145906146Y-102715694D01*
X145956085Y-102580340D01*
X146010869Y-102446356D01*
X146069907Y-102315317D01*
X146132605Y-102188799D01*
X146198373Y-102068377D01*
X146222138Y-102027740D01*
X146247850Y-101985850D01*
X146272392Y-101948930D01*
X146297458Y-101914837D01*
X146324739Y-101881423D01*
X146355927Y-101846545D01*
X146392714Y-101808056D01*
X146406237Y-101794332D01*
X146474539Y-101727937D01*
X146540032Y-101669661D01*
X146604180Y-101618406D01*
X146668445Y-101573073D01*
X146734292Y-101532564D01*
X146803183Y-101495780D01*
X146805625Y-101494568D01*
X146872865Y-101463369D01*
X146940523Y-101436409D01*
X147009818Y-101413426D01*
X147081972Y-101394159D01*
X147158208Y-101378347D01*
X147239746Y-101365729D01*
X147327807Y-101356045D01*
X147423614Y-101349032D01*
X147504301Y-101345257D01*
X147518468Y-101345935D01*
X147539174Y-101348395D01*
X147563042Y-101352195D01*
X147576346Y-101354705D01*
X147682126Y-101381031D01*
X147786227Y-101417276D01*
X147888740Y-101463480D01*
X147989759Y-101519684D01*
X148068715Y-101571285D01*
X148104948Y-101597557D01*
X148145856Y-101628952D01*
X148190005Y-101664236D01*
X148235964Y-101702174D01*
X148282299Y-101741533D01*
X148327577Y-101781079D01*
X148370365Y-101819577D01*
X148409230Y-101855793D01*
X148442740Y-101888494D01*
X148469357Y-101916331D01*
X148519078Y-101973429D01*
X148568026Y-102034167D01*
X148615342Y-102097228D01*
X148660168Y-102161298D01*
X148701646Y-102225061D01*
X148738916Y-102287200D01*
X148771120Y-102346400D01*
X148797399Y-102401346D01*
X148815547Y-102446840D01*
X148827166Y-102483317D01*
X148833669Y-102513080D01*
X148835291Y-102538054D01*
X148832266Y-102560162D01*
X148830229Y-102567345D01*
X148821899Y-102600817D01*
X148815174Y-102644150D01*
X148810045Y-102697418D01*
X148808557Y-102719520D01*
X148806914Y-102742715D01*
X148805091Y-102762173D01*
X148803327Y-102775646D01*
X148802048Y-102780721D01*
X148795985Y-102784909D01*
X148783461Y-102791184D01*
X148771213Y-102796506D01*
X148735191Y-102814195D01*
X148705050Y-102835889D01*
X148680055Y-102862667D01*
X148659472Y-102895604D01*
X148642567Y-102935779D01*
X148628606Y-102984267D01*
X148621731Y-103015800D01*
X148613109Y-103070016D01*
X148606872Y-103132701D01*
X148603003Y-103202453D01*
X148601488Y-103277869D01*
X148602310Y-103357547D01*
X148605454Y-103440083D01*
X148610904Y-103524076D01*
X148618644Y-103608122D01*
X148628658Y-103690819D01*
X148629391Y-103696143D01*
X148637683Y-103747379D01*
X148648851Y-103801477D01*
X148663299Y-103860119D01*
X148681436Y-103924988D01*
X148697507Y-103978106D01*
X148708001Y-104013404D01*
X148714749Y-104039777D01*
X148717856Y-104057702D01*
X148717630Y-104067006D01*
X148716992Y-104074183D01*
X148716273Y-104090661D01*
X148715490Y-104115578D01*
X148714662Y-104148074D01*
X148713807Y-104187292D01*
X148712943Y-104232369D01*
X148712087Y-104282447D01*
X148711258Y-104336665D01*
X148710474Y-104394164D01*
X148710024Y-104430580D01*
X148709099Y-104505134D01*
X148708178Y-104570564D01*
X148707209Y-104627906D01*
X148706143Y-104678198D01*
X148704928Y-104722475D01*
X148703514Y-104761772D01*
X148701851Y-104797128D01*
X148699886Y-104829578D01*
X148697570Y-104860157D01*
X148694853Y-104889903D01*
X148691682Y-104919852D01*
X148688009Y-104951039D01*
X148683781Y-104984502D01*
X148682415Y-104995005D01*
X148673450Y-105057467D01*
X148662637Y-105122818D01*
X148650663Y-105187228D01*
X148638216Y-105246869D01*
X148633201Y-105268780D01*
X148627194Y-105294260D01*
X148621859Y-105316922D01*
X148617719Y-105334535D01*
X148615300Y-105344865D01*
X148615099Y-105345727D01*
X148609514Y-105355404D01*
X148596770Y-105369860D01*
X148578059Y-105388088D01*
X148554573Y-105409080D01*
X148527505Y-105431830D01*
X148498047Y-105455329D01*
X148467391Y-105478570D01*
X148436729Y-105500546D01*
X148412900Y-105516602D01*
X148319663Y-105571439D01*
X148220366Y-105618335D01*
X148114885Y-105657335D01*
X148003099Y-105688485D01*
X147884885Y-105711827D01*
X147874420Y-105713471D01*
X147829797Y-105719006D01*
X147777546Y-105723267D01*
X147720123Y-105726211D01*
X147659984Y-105727792D01*
X147599587Y-105727964D01*
X147541389Y-105726684D01*
X147487846Y-105723906D01*
X147455320Y-105721136D01*
X147318305Y-105703124D01*
X147186889Y-105677752D01*
X147061374Y-105645137D01*
X146942065Y-105605393D01*
X146829262Y-105558638D01*
X146723270Y-105504986D01*
X146624391Y-105444553D01*
X146532928Y-105377456D01*
X146512307Y-105360535D01*
X146479118Y-105331516D01*
X146446726Y-105300572D01*
X146413635Y-105266130D01*
X146378349Y-105226622D01*
X146339372Y-105180476D01*
X146330517Y-105169720D01*
X146226906Y-105037268D01*
X146133379Y-104904813D01*
X146049858Y-104772203D01*
X145976268Y-104639284D01*
X145912533Y-104505902D01*
X145858577Y-104371902D01*
X145814324Y-104237133D01*
X145779697Y-104101439D01*
X145764339Y-104024180D01*
X145756862Y-103981036D01*
X145750787Y-103942439D01*
X145745975Y-103906548D01*
X145742287Y-103871523D01*
X145739585Y-103835523D01*
X145737730Y-103796709D01*
X145736585Y-103753238D01*
X145736009Y-103703271D01*
X145735866Y-103645720D01*
X144052845Y-103645720D01*
X144053056Y-103661296D01*
X144054526Y-103720389D01*
X144056624Y-103777265D01*
X144059314Y-103829973D01*
X144062556Y-103876563D01*
X144066314Y-103915085D01*
X144066582Y-103917320D01*
X144092056Y-104086852D01*
X144126728Y-104252074D01*
X144170629Y-104413062D01*
X144223792Y-104569888D01*
X144286249Y-104722626D01*
X144358030Y-104871350D01*
X144439169Y-105016134D01*
X144529697Y-105157052D01*
X144629646Y-105294178D01*
X144697157Y-105378282D01*
X144722254Y-105407266D01*
X144753460Y-105441436D01*
X144789254Y-105479272D01*
X144828116Y-105519253D01*
X144868523Y-105559857D01*
X144908955Y-105599562D01*
X144947890Y-105636849D01*
X144983808Y-105670195D01*
X145015186Y-105698080D01*
X145026798Y-105707923D01*
X145143126Y-105800237D01*
X145260135Y-105883925D01*
X145379986Y-105960414D01*
X145504836Y-106031130D01*
X145557940Y-106058770D01*
X145703201Y-106127483D01*
X145850453Y-106186924D01*
X146000545Y-106237350D01*
X146154324Y-106279016D01*
X146312640Y-106312177D01*
X146476342Y-106337089D01*
X146487760Y-106338498D01*
X146525674Y-106342289D01*
X146571787Y-106345567D01*
X146624148Y-106348295D01*
X146680806Y-106350434D01*
X146739812Y-106351946D01*
X146799215Y-106352794D01*
X146857065Y-106352938D01*
X146911411Y-106352342D01*
X146911411Y-106352342D01*
G37*
X146911411Y-106352342D02*
X146960303Y-106350966D01*
X147001791Y-106348773D01*
X147004248Y-106348596D01*
X147170730Y-106331383D01*
X147334856Y-106304381D01*
X147496263Y-106267764D01*
X147654589Y-106221703D01*
X147809470Y-106166372D01*
X147960545Y-106101944D01*
X148107451Y-106028590D01*
X148249824Y-105946485D01*
X148387304Y-105855801D01*
X148519526Y-105756710D01*
X148646128Y-105649386D01*
X148766748Y-105534001D01*
X148811488Y-105487494D01*
X148922388Y-105362198D01*
X149024852Y-105231320D01*
X149118766Y-105095106D01*
X149204014Y-104953803D01*
X149280485Y-104807656D01*
X149348064Y-104656909D01*
X149406637Y-104501810D01*
X149456090Y-104342604D01*
X149496310Y-104179535D01*
X149527184Y-104012851D01*
X149541027Y-103912420D01*
X149543688Y-103884386D01*
X149546056Y-103847842D01*
X149548107Y-103804435D01*
X149549818Y-103755812D01*
X149551168Y-103703621D01*
X149552131Y-103649507D01*
X149552687Y-103595119D01*
X149552810Y-103542102D01*
X149552479Y-103492103D01*
X149551671Y-103446771D01*
X149550362Y-103407750D01*
X149548529Y-103376689D01*
X149548521Y-103376591D01*
X149530425Y-103212262D01*
X149502523Y-103050053D01*
X149465024Y-102890364D01*
X149418137Y-102733595D01*
X149362068Y-102580147D01*
X149297026Y-102430420D01*
X149223220Y-102284814D01*
X149140858Y-102143729D01*
X149050147Y-102007567D01*
X148951295Y-101876727D01*
X148844512Y-101751609D01*
X148730005Y-101632615D01*
X148607982Y-101520144D01*
X148563827Y-101482635D01*
X148432339Y-101379836D01*
X148295556Y-101285630D01*
X148153820Y-101200156D01*
X148007475Y-101123556D01*
X147856863Y-101055970D01*
X147702328Y-100997538D01*
X147544213Y-100948401D01*
X147382861Y-100908700D01*
X147218615Y-100878575D01*
X147051818Y-100858166D01*
X147036220Y-100856770D01*
X147004605Y-100854579D01*
X146965273Y-100852717D01*
X146920337Y-100851209D01*
X146871909Y-100850084D01*
X146822102Y-100849366D01*
X146773029Y-100849083D01*
X146726802Y-100849260D01*
X146685534Y-100849924D01*
X146651338Y-100851101D01*
X146638694Y-100851813D01*
X146469062Y-100867958D01*
X146302378Y-100893692D01*
X146138908Y-100928901D01*
X145978916Y-100973471D01*
X145822667Y-101027288D01*
X145670427Y-101090237D01*
X145522461Y-101162204D01*
X145379033Y-101243075D01*
X145240408Y-101332735D01*
X145106852Y-101431071D01*
X144978630Y-101537969D01*
X144917269Y-101593964D01*
X144798879Y-101712133D01*
X144688479Y-101836429D01*
X144586241Y-101966490D01*
X144492338Y-102101952D01*
X144406943Y-102242454D01*
X144330229Y-102387631D01*
X144262370Y-102537120D01*
X144203537Y-102690559D01*
X144153904Y-102847584D01*
X144113644Y-103007832D01*
X144082930Y-103170940D01*
X144061935Y-103336546D01*
X144056484Y-103400832D01*
X144054235Y-103441757D01*
X144052806Y-103490216D01*
X144052158Y-103544259D01*
X144052254Y-103601935D01*
X144052845Y-103645720D01*
X145735866Y-103645720D01*
X145736087Y-103585133D01*
X145736800Y-103532745D01*
X145738154Y-103486602D01*
X145740296Y-103444751D01*
X145743376Y-103405237D01*
X145747541Y-103366105D01*
X145752939Y-103325402D01*
X145759719Y-103281173D01*
X145766683Y-103239320D01*
X145791321Y-103114233D01*
X145823172Y-102984216D01*
X145861644Y-102850845D01*
X145906146Y-102715694D01*
X145956085Y-102580340D01*
X146010869Y-102446356D01*
X146069907Y-102315317D01*
X146132605Y-102188799D01*
X146198373Y-102068377D01*
X146222138Y-102027740D01*
X146247850Y-101985850D01*
X146272392Y-101948930D01*
X146297458Y-101914837D01*
X146324739Y-101881423D01*
X146355927Y-101846545D01*
X146392714Y-101808056D01*
X146406237Y-101794332D01*
X146474539Y-101727937D01*
X146540032Y-101669661D01*
X146604180Y-101618406D01*
X146668445Y-101573073D01*
X146734292Y-101532564D01*
X146803183Y-101495780D01*
X146805625Y-101494568D01*
X146872865Y-101463369D01*
X146940523Y-101436409D01*
X147009818Y-101413426D01*
X147081972Y-101394159D01*
X147158208Y-101378347D01*
X147239746Y-101365729D01*
X147327807Y-101356045D01*
X147423614Y-101349032D01*
X147504301Y-101345257D01*
X147518468Y-101345935D01*
X147539174Y-101348395D01*
X147563042Y-101352195D01*
X147576346Y-101354705D01*
X147682126Y-101381031D01*
X147786227Y-101417276D01*
X147888740Y-101463480D01*
X147989759Y-101519684D01*
X148068715Y-101571285D01*
X148104948Y-101597557D01*
X148145856Y-101628952D01*
X148190005Y-101664236D01*
X148235964Y-101702174D01*
X148282299Y-101741533D01*
X148327577Y-101781079D01*
X148370365Y-101819577D01*
X148409230Y-101855793D01*
X148442740Y-101888494D01*
X148469357Y-101916331D01*
X148519078Y-101973429D01*
X148568026Y-102034167D01*
X148615342Y-102097228D01*
X148660168Y-102161298D01*
X148701646Y-102225061D01*
X148738916Y-102287200D01*
X148771120Y-102346400D01*
X148797399Y-102401346D01*
X148815547Y-102446840D01*
X148827166Y-102483317D01*
X148833669Y-102513080D01*
X148835291Y-102538054D01*
X148832266Y-102560162D01*
X148830229Y-102567345D01*
X148821899Y-102600817D01*
X148815174Y-102644150D01*
X148810045Y-102697418D01*
X148808557Y-102719520D01*
X148806914Y-102742715D01*
X148805091Y-102762173D01*
X148803327Y-102775646D01*
X148802048Y-102780721D01*
X148795985Y-102784909D01*
X148783461Y-102791184D01*
X148771213Y-102796506D01*
X148735191Y-102814195D01*
X148705050Y-102835889D01*
X148680055Y-102862667D01*
X148659472Y-102895604D01*
X148642567Y-102935779D01*
X148628606Y-102984267D01*
X148621731Y-103015800D01*
X148613109Y-103070016D01*
X148606872Y-103132701D01*
X148603003Y-103202453D01*
X148601488Y-103277869D01*
X148602310Y-103357547D01*
X148605454Y-103440083D01*
X148610904Y-103524076D01*
X148618644Y-103608122D01*
X148628658Y-103690819D01*
X148629391Y-103696143D01*
X148637683Y-103747379D01*
X148648851Y-103801477D01*
X148663299Y-103860119D01*
X148681436Y-103924988D01*
X148697507Y-103978106D01*
X148708001Y-104013404D01*
X148714749Y-104039777D01*
X148717856Y-104057702D01*
X148717630Y-104067006D01*
X148716992Y-104074183D01*
X148716273Y-104090661D01*
X148715490Y-104115578D01*
X148714662Y-104148074D01*
X148713807Y-104187292D01*
X148712943Y-104232369D01*
X148712087Y-104282447D01*
X148711258Y-104336665D01*
X148710474Y-104394164D01*
X148710024Y-104430580D01*
X148709099Y-104505134D01*
X148708178Y-104570564D01*
X148707209Y-104627906D01*
X148706143Y-104678198D01*
X148704928Y-104722475D01*
X148703514Y-104761772D01*
X148701851Y-104797128D01*
X148699886Y-104829578D01*
X148697570Y-104860157D01*
X148694853Y-104889903D01*
X148691682Y-104919852D01*
X148688009Y-104951039D01*
X148683781Y-104984502D01*
X148682415Y-104995005D01*
X148673450Y-105057467D01*
X148662637Y-105122818D01*
X148650663Y-105187228D01*
X148638216Y-105246869D01*
X148633201Y-105268780D01*
X148627194Y-105294260D01*
X148621859Y-105316922D01*
X148617719Y-105334535D01*
X148615300Y-105344865D01*
X148615099Y-105345727D01*
X148609514Y-105355404D01*
X148596770Y-105369860D01*
X148578059Y-105388088D01*
X148554573Y-105409080D01*
X148527505Y-105431830D01*
X148498047Y-105455329D01*
X148467391Y-105478570D01*
X148436729Y-105500546D01*
X148412900Y-105516602D01*
X148319663Y-105571439D01*
X148220366Y-105618335D01*
X148114885Y-105657335D01*
X148003099Y-105688485D01*
X147884885Y-105711827D01*
X147874420Y-105713471D01*
X147829797Y-105719006D01*
X147777546Y-105723267D01*
X147720123Y-105726211D01*
X147659984Y-105727792D01*
X147599587Y-105727964D01*
X147541389Y-105726684D01*
X147487846Y-105723906D01*
X147455320Y-105721136D01*
X147318305Y-105703124D01*
X147186889Y-105677752D01*
X147061374Y-105645137D01*
X146942065Y-105605393D01*
X146829262Y-105558638D01*
X146723270Y-105504986D01*
X146624391Y-105444553D01*
X146532928Y-105377456D01*
X146512307Y-105360535D01*
X146479118Y-105331516D01*
X146446726Y-105300572D01*
X146413635Y-105266130D01*
X146378349Y-105226622D01*
X146339372Y-105180476D01*
X146330517Y-105169720D01*
X146226906Y-105037268D01*
X146133379Y-104904813D01*
X146049858Y-104772203D01*
X145976268Y-104639284D01*
X145912533Y-104505902D01*
X145858577Y-104371902D01*
X145814324Y-104237133D01*
X145779697Y-104101439D01*
X145764339Y-104024180D01*
X145756862Y-103981036D01*
X145750787Y-103942439D01*
X145745975Y-103906548D01*
X145742287Y-103871523D01*
X145739585Y-103835523D01*
X145737730Y-103796709D01*
X145736585Y-103753238D01*
X145736009Y-103703271D01*
X145735866Y-103645720D01*
X144052845Y-103645720D01*
X144053056Y-103661296D01*
X144054526Y-103720389D01*
X144056624Y-103777265D01*
X144059314Y-103829973D01*
X144062556Y-103876563D01*
X144066314Y-103915085D01*
X144066582Y-103917320D01*
X144092056Y-104086852D01*
X144126728Y-104252074D01*
X144170629Y-104413062D01*
X144223792Y-104569888D01*
X144286249Y-104722626D01*
X144358030Y-104871350D01*
X144439169Y-105016134D01*
X144529697Y-105157052D01*
X144629646Y-105294178D01*
X144697157Y-105378282D01*
X144722254Y-105407266D01*
X144753460Y-105441436D01*
X144789254Y-105479272D01*
X144828116Y-105519253D01*
X144868523Y-105559857D01*
X144908955Y-105599562D01*
X144947890Y-105636849D01*
X144983808Y-105670195D01*
X145015186Y-105698080D01*
X145026798Y-105707923D01*
X145143126Y-105800237D01*
X145260135Y-105883925D01*
X145379986Y-105960414D01*
X145504836Y-106031130D01*
X145557940Y-106058770D01*
X145703201Y-106127483D01*
X145850453Y-106186924D01*
X146000545Y-106237350D01*
X146154324Y-106279016D01*
X146312640Y-106312177D01*
X146476342Y-106337089D01*
X146487760Y-106338498D01*
X146525674Y-106342289D01*
X146571787Y-106345567D01*
X146624148Y-106348295D01*
X146680806Y-106350434D01*
X146739812Y-106351946D01*
X146799215Y-106352794D01*
X146857065Y-106352938D01*
X146911411Y-106352342D01*
G36*
X146324466Y-102670074D02*
G01*
X146339554Y-102658667D01*
X146341789Y-102656390D01*
X146357997Y-102635924D01*
X146371303Y-102612812D01*
X146381395Y-102588652D01*
X146387961Y-102565040D01*
X146390691Y-102543574D01*
X146389274Y-102525850D01*
X146383397Y-102513465D01*
X146372750Y-102508017D01*
X146370740Y-102507897D01*
X146363319Y-102510310D01*
X146351818Y-102516298D01*
X146350097Y-102517329D01*
X146333099Y-102532092D01*
X146317367Y-102553599D01*
X146303917Y-102579317D01*
X146293764Y-102606711D01*
X146287921Y-102633246D01*
X146287405Y-102656387D01*
X146290003Y-102667405D01*
X146297422Y-102674926D01*
X146309666Y-102675655D01*
X146324466Y-102670074D01*
X146324466Y-102670074D01*
G37*
X146324466Y-102670074D02*
X146339554Y-102658667D01*
X146341789Y-102656390D01*
X146357997Y-102635924D01*
X146371303Y-102612812D01*
X146381395Y-102588652D01*
X146387961Y-102565040D01*
X146390691Y-102543574D01*
X146389274Y-102525850D01*
X146383397Y-102513465D01*
X146372750Y-102508017D01*
X146370740Y-102507897D01*
X146363319Y-102510310D01*
X146351818Y-102516298D01*
X146350097Y-102517329D01*
X146333099Y-102532092D01*
X146317367Y-102553599D01*
X146303917Y-102579317D01*
X146293764Y-102606711D01*
X146287921Y-102633246D01*
X146287405Y-102656387D01*
X146290003Y-102667405D01*
X146297422Y-102674926D01*
X146309666Y-102675655D01*
X146324466Y-102670074D01*
G36*
X147763667Y-102948898D02*
G01*
X147776744Y-102945507D01*
X147788048Y-102938378D01*
X147790392Y-102936455D01*
X147809692Y-102914618D01*
X147819619Y-102890141D01*
X147819926Y-102864232D01*
X147810441Y-102838235D01*
X147796012Y-102819141D01*
X147777537Y-102807675D01*
X147753024Y-102802790D01*
X147742228Y-102802440D01*
X147724829Y-102803053D01*
X147713155Y-102806066D01*
X147702794Y-102813242D01*
X147693903Y-102821741D01*
X147677278Y-102844631D01*
X147669936Y-102869566D01*
X147671832Y-102894794D01*
X147682919Y-102918564D01*
X147696859Y-102934049D01*
X147708713Y-102943246D01*
X147720030Y-102947967D01*
X147735130Y-102949631D01*
X147744667Y-102949760D01*
X147763667Y-102948898D01*
X147763667Y-102948898D01*
G37*
X147763667Y-102948898D02*
X147776744Y-102945507D01*
X147788048Y-102938378D01*
X147790392Y-102936455D01*
X147809692Y-102914618D01*
X147819619Y-102890141D01*
X147819926Y-102864232D01*
X147810441Y-102838235D01*
X147796012Y-102819141D01*
X147777537Y-102807675D01*
X147753024Y-102802790D01*
X147742228Y-102802440D01*
X147724829Y-102803053D01*
X147713155Y-102806066D01*
X147702794Y-102813242D01*
X147693903Y-102821741D01*
X147677278Y-102844631D01*
X147669936Y-102869566D01*
X147671832Y-102894794D01*
X147682919Y-102918564D01*
X147696859Y-102934049D01*
X147708713Y-102943246D01*
X147720030Y-102947967D01*
X147735130Y-102949631D01*
X147744667Y-102949760D01*
X147763667Y-102948898D01*
D11*
G36*
X107191000Y-133543000D02*
G01*
X105089000Y-133543000D01*
X105089000Y-127441000D01*
X107191000Y-127441000D01*
X107191000Y-133543000D01*
X107191000Y-133543000D01*
G37*
G36*
X103191000Y-133543000D02*
G01*
X101089000Y-133543000D01*
X101089000Y-127441000D01*
X103191000Y-127441000D01*
X103191000Y-133543000D01*
X103191000Y-133543000D01*
G37*
G36*
X136610443Y-131205519D02*
G01*
X136676627Y-131212037D01*
X136846466Y-131263557D01*
X137002991Y-131347222D01*
X137018312Y-131359796D01*
X137140186Y-131459814D01*
X137223448Y-131561271D01*
X137252778Y-131597009D01*
X137336443Y-131753534D01*
X137387963Y-131923373D01*
X137405359Y-132100000D01*
X137387963Y-132276627D01*
X137336443Y-132446466D01*
X137252778Y-132602991D01*
X137223448Y-132638729D01*
X137140186Y-132740186D01*
X137038729Y-132823448D01*
X137002991Y-132852778D01*
X136846466Y-132936443D01*
X136676627Y-132987963D01*
X136610443Y-132994481D01*
X136544260Y-133001000D01*
X136455740Y-133001000D01*
X136389557Y-132994481D01*
X136323373Y-132987963D01*
X136153534Y-132936443D01*
X135997009Y-132852778D01*
X135961271Y-132823448D01*
X135859814Y-132740186D01*
X135776552Y-132638729D01*
X135747222Y-132602991D01*
X135663557Y-132446466D01*
X135612037Y-132276627D01*
X135594641Y-132100000D01*
X135612037Y-131923373D01*
X135663557Y-131753534D01*
X135747222Y-131597009D01*
X135776552Y-131561271D01*
X135859814Y-131459814D01*
X135981688Y-131359796D01*
X135997009Y-131347222D01*
X136153534Y-131263557D01*
X136323373Y-131212037D01*
X136389557Y-131205519D01*
X136455740Y-131199000D01*
X136544260Y-131199000D01*
X136610443Y-131205519D01*
X136610443Y-131205519D01*
G37*
G36*
X124701000Y-133001000D02*
G01*
X122899000Y-133001000D01*
X122899000Y-131199000D01*
X124701000Y-131199000D01*
X124701000Y-133001000D01*
X124701000Y-133001000D01*
G37*
G36*
X126450443Y-131205519D02*
G01*
X126516627Y-131212037D01*
X126686466Y-131263557D01*
X126842991Y-131347222D01*
X126858312Y-131359796D01*
X126980186Y-131459814D01*
X127063448Y-131561271D01*
X127092778Y-131597009D01*
X127176443Y-131753534D01*
X127227963Y-131923373D01*
X127245359Y-132100000D01*
X127227963Y-132276627D01*
X127176443Y-132446466D01*
X127092778Y-132602991D01*
X127063448Y-132638729D01*
X126980186Y-132740186D01*
X126878729Y-132823448D01*
X126842991Y-132852778D01*
X126686466Y-132936443D01*
X126516627Y-132987963D01*
X126450443Y-132994481D01*
X126384260Y-133001000D01*
X126295740Y-133001000D01*
X126229557Y-132994481D01*
X126163373Y-132987963D01*
X125993534Y-132936443D01*
X125837009Y-132852778D01*
X125801271Y-132823448D01*
X125699814Y-132740186D01*
X125616552Y-132638729D01*
X125587222Y-132602991D01*
X125503557Y-132446466D01*
X125452037Y-132276627D01*
X125434641Y-132100000D01*
X125452037Y-131923373D01*
X125503557Y-131753534D01*
X125587222Y-131597009D01*
X125616552Y-131561271D01*
X125699814Y-131459814D01*
X125821688Y-131359796D01*
X125837009Y-131347222D01*
X125993534Y-131263557D01*
X126163373Y-131212037D01*
X126229557Y-131205519D01*
X126295740Y-131199000D01*
X126384260Y-131199000D01*
X126450443Y-131205519D01*
X126450443Y-131205519D01*
G37*
G36*
X128990443Y-131205519D02*
G01*
X129056627Y-131212037D01*
X129226466Y-131263557D01*
X129382991Y-131347222D01*
X129398312Y-131359796D01*
X129520186Y-131459814D01*
X129603448Y-131561271D01*
X129632778Y-131597009D01*
X129716443Y-131753534D01*
X129767963Y-131923373D01*
X129785359Y-132100000D01*
X129767963Y-132276627D01*
X129716443Y-132446466D01*
X129632778Y-132602991D01*
X129603448Y-132638729D01*
X129520186Y-132740186D01*
X129418729Y-132823448D01*
X129382991Y-132852778D01*
X129226466Y-132936443D01*
X129056627Y-132987963D01*
X128990443Y-132994481D01*
X128924260Y-133001000D01*
X128835740Y-133001000D01*
X128769557Y-132994481D01*
X128703373Y-132987963D01*
X128533534Y-132936443D01*
X128377009Y-132852778D01*
X128341271Y-132823448D01*
X128239814Y-132740186D01*
X128156552Y-132638729D01*
X128127222Y-132602991D01*
X128043557Y-132446466D01*
X127992037Y-132276627D01*
X127974641Y-132100000D01*
X127992037Y-131923373D01*
X128043557Y-131753534D01*
X128127222Y-131597009D01*
X128156552Y-131561271D01*
X128239814Y-131459814D01*
X128361688Y-131359796D01*
X128377009Y-131347222D01*
X128533534Y-131263557D01*
X128703373Y-131212037D01*
X128769557Y-131205519D01*
X128835740Y-131199000D01*
X128924260Y-131199000D01*
X128990443Y-131205519D01*
X128990443Y-131205519D01*
G37*
G36*
X131530443Y-131205519D02*
G01*
X131596627Y-131212037D01*
X131766466Y-131263557D01*
X131922991Y-131347222D01*
X131938312Y-131359796D01*
X132060186Y-131459814D01*
X132143448Y-131561271D01*
X132172778Y-131597009D01*
X132256443Y-131753534D01*
X132307963Y-131923373D01*
X132325359Y-132100000D01*
X132307963Y-132276627D01*
X132256443Y-132446466D01*
X132172778Y-132602991D01*
X132143448Y-132638729D01*
X132060186Y-132740186D01*
X131958729Y-132823448D01*
X131922991Y-132852778D01*
X131766466Y-132936443D01*
X131596627Y-132987963D01*
X131530443Y-132994481D01*
X131464260Y-133001000D01*
X131375740Y-133001000D01*
X131309557Y-132994481D01*
X131243373Y-132987963D01*
X131073534Y-132936443D01*
X130917009Y-132852778D01*
X130881271Y-132823448D01*
X130779814Y-132740186D01*
X130696552Y-132638729D01*
X130667222Y-132602991D01*
X130583557Y-132446466D01*
X130532037Y-132276627D01*
X130514641Y-132100000D01*
X130532037Y-131923373D01*
X130583557Y-131753534D01*
X130667222Y-131597009D01*
X130696552Y-131561271D01*
X130779814Y-131459814D01*
X130901688Y-131359796D01*
X130917009Y-131347222D01*
X131073534Y-131263557D01*
X131243373Y-131212037D01*
X131309557Y-131205519D01*
X131375740Y-131199000D01*
X131464260Y-131199000D01*
X131530443Y-131205519D01*
X131530443Y-131205519D01*
G37*
G36*
X141690443Y-131205519D02*
G01*
X141756627Y-131212037D01*
X141926466Y-131263557D01*
X142082991Y-131347222D01*
X142098312Y-131359796D01*
X142220186Y-131459814D01*
X142303448Y-131561271D01*
X142332778Y-131597009D01*
X142416443Y-131753534D01*
X142467963Y-131923373D01*
X142485359Y-132100000D01*
X142467963Y-132276627D01*
X142416443Y-132446466D01*
X142332778Y-132602991D01*
X142303448Y-132638729D01*
X142220186Y-132740186D01*
X142118729Y-132823448D01*
X142082991Y-132852778D01*
X141926466Y-132936443D01*
X141756627Y-132987963D01*
X141690443Y-132994481D01*
X141624260Y-133001000D01*
X141535740Y-133001000D01*
X141469557Y-132994481D01*
X141403373Y-132987963D01*
X141233534Y-132936443D01*
X141077009Y-132852778D01*
X141041271Y-132823448D01*
X140939814Y-132740186D01*
X140856552Y-132638729D01*
X140827222Y-132602991D01*
X140743557Y-132446466D01*
X140692037Y-132276627D01*
X140674641Y-132100000D01*
X140692037Y-131923373D01*
X140743557Y-131753534D01*
X140827222Y-131597009D01*
X140856552Y-131561271D01*
X140939814Y-131459814D01*
X141061688Y-131359796D01*
X141077009Y-131347222D01*
X141233534Y-131263557D01*
X141403373Y-131212037D01*
X141469557Y-131205519D01*
X141535740Y-131199000D01*
X141624260Y-131199000D01*
X141690443Y-131205519D01*
X141690443Y-131205519D01*
G37*
G36*
X139150443Y-131205519D02*
G01*
X139216627Y-131212037D01*
X139386466Y-131263557D01*
X139542991Y-131347222D01*
X139558312Y-131359796D01*
X139680186Y-131459814D01*
X139763448Y-131561271D01*
X139792778Y-131597009D01*
X139876443Y-131753534D01*
X139927963Y-131923373D01*
X139945359Y-132100000D01*
X139927963Y-132276627D01*
X139876443Y-132446466D01*
X139792778Y-132602991D01*
X139763448Y-132638729D01*
X139680186Y-132740186D01*
X139578729Y-132823448D01*
X139542991Y-132852778D01*
X139386466Y-132936443D01*
X139216627Y-132987963D01*
X139150443Y-132994481D01*
X139084260Y-133001000D01*
X138995740Y-133001000D01*
X138929557Y-132994481D01*
X138863373Y-132987963D01*
X138693534Y-132936443D01*
X138537009Y-132852778D01*
X138501271Y-132823448D01*
X138399814Y-132740186D01*
X138316552Y-132638729D01*
X138287222Y-132602991D01*
X138203557Y-132446466D01*
X138152037Y-132276627D01*
X138134641Y-132100000D01*
X138152037Y-131923373D01*
X138203557Y-131753534D01*
X138287222Y-131597009D01*
X138316552Y-131561271D01*
X138399814Y-131459814D01*
X138521688Y-131359796D01*
X138537009Y-131347222D01*
X138693534Y-131263557D01*
X138863373Y-131212037D01*
X138929557Y-131205519D01*
X138995740Y-131199000D01*
X139084260Y-131199000D01*
X139150443Y-131205519D01*
X139150443Y-131205519D01*
G37*
G36*
X134070443Y-131205519D02*
G01*
X134136627Y-131212037D01*
X134306466Y-131263557D01*
X134462991Y-131347222D01*
X134478312Y-131359796D01*
X134600186Y-131459814D01*
X134683448Y-131561271D01*
X134712778Y-131597009D01*
X134796443Y-131753534D01*
X134847963Y-131923373D01*
X134865359Y-132100000D01*
X134847963Y-132276627D01*
X134796443Y-132446466D01*
X134712778Y-132602991D01*
X134683448Y-132638729D01*
X134600186Y-132740186D01*
X134498729Y-132823448D01*
X134462991Y-132852778D01*
X134306466Y-132936443D01*
X134136627Y-132987963D01*
X134070443Y-132994481D01*
X134004260Y-133001000D01*
X133915740Y-133001000D01*
X133849557Y-132994481D01*
X133783373Y-132987963D01*
X133613534Y-132936443D01*
X133457009Y-132852778D01*
X133421271Y-132823448D01*
X133319814Y-132740186D01*
X133236552Y-132638729D01*
X133207222Y-132602991D01*
X133123557Y-132446466D01*
X133072037Y-132276627D01*
X133054641Y-132100000D01*
X133072037Y-131923373D01*
X133123557Y-131753534D01*
X133207222Y-131597009D01*
X133236552Y-131561271D01*
X133319814Y-131459814D01*
X133441688Y-131359796D01*
X133457009Y-131347222D01*
X133613534Y-131263557D01*
X133783373Y-131212037D01*
X133849557Y-131205519D01*
X133915740Y-131199000D01*
X134004260Y-131199000D01*
X134070443Y-131205519D01*
X134070443Y-131205519D01*
G37*
G36*
X152303938Y-132225716D02*
G01*
X152324557Y-132231971D01*
X152343553Y-132242124D01*
X152360208Y-132255792D01*
X152373876Y-132272447D01*
X152384029Y-132291443D01*
X152390284Y-132312062D01*
X152393000Y-132339640D01*
X152393000Y-132798360D01*
X152390284Y-132825938D01*
X152384029Y-132846557D01*
X152373876Y-132865553D01*
X152360208Y-132882208D01*
X152343553Y-132895876D01*
X152324557Y-132906029D01*
X152303938Y-132912284D01*
X152276360Y-132915000D01*
X151767640Y-132915000D01*
X151740062Y-132912284D01*
X151719443Y-132906029D01*
X151700447Y-132895876D01*
X151683792Y-132882208D01*
X151670124Y-132865553D01*
X151659971Y-132846557D01*
X151653716Y-132825938D01*
X151651000Y-132798360D01*
X151651000Y-132339640D01*
X151653716Y-132312062D01*
X151659971Y-132291443D01*
X151670124Y-132272447D01*
X151683792Y-132255792D01*
X151700447Y-132242124D01*
X151719443Y-132231971D01*
X151740062Y-132225716D01*
X151767640Y-132223000D01*
X152276360Y-132223000D01*
X152303938Y-132225716D01*
X152303938Y-132225716D01*
G37*
G36*
X150906938Y-132225716D02*
G01*
X150927557Y-132231971D01*
X150946553Y-132242124D01*
X150963208Y-132255792D01*
X150976876Y-132272447D01*
X150987029Y-132291443D01*
X150993284Y-132312062D01*
X150996000Y-132339640D01*
X150996000Y-132798360D01*
X150993284Y-132825938D01*
X150987029Y-132846557D01*
X150976876Y-132865553D01*
X150963208Y-132882208D01*
X150946553Y-132895876D01*
X150927557Y-132906029D01*
X150906938Y-132912284D01*
X150879360Y-132915000D01*
X150370640Y-132915000D01*
X150343062Y-132912284D01*
X150322443Y-132906029D01*
X150303447Y-132895876D01*
X150286792Y-132882208D01*
X150273124Y-132865553D01*
X150262971Y-132846557D01*
X150256716Y-132825938D01*
X150254000Y-132798360D01*
X150254000Y-132339640D01*
X150256716Y-132312062D01*
X150262971Y-132291443D01*
X150273124Y-132272447D01*
X150286792Y-132255792D01*
X150303447Y-132242124D01*
X150322443Y-132231971D01*
X150343062Y-132225716D01*
X150370640Y-132223000D01*
X150879360Y-132223000D01*
X150906938Y-132225716D01*
X150906938Y-132225716D01*
G37*
G36*
X149636938Y-132225716D02*
G01*
X149657557Y-132231971D01*
X149676553Y-132242124D01*
X149693208Y-132255792D01*
X149706876Y-132272447D01*
X149717029Y-132291443D01*
X149723284Y-132312062D01*
X149726000Y-132339640D01*
X149726000Y-132798360D01*
X149723284Y-132825938D01*
X149717029Y-132846557D01*
X149706876Y-132865553D01*
X149693208Y-132882208D01*
X149676553Y-132895876D01*
X149657557Y-132906029D01*
X149636938Y-132912284D01*
X149609360Y-132915000D01*
X149100640Y-132915000D01*
X149073062Y-132912284D01*
X149052443Y-132906029D01*
X149033447Y-132895876D01*
X149016792Y-132882208D01*
X149003124Y-132865553D01*
X148992971Y-132846557D01*
X148986716Y-132825938D01*
X148984000Y-132798360D01*
X148984000Y-132339640D01*
X148986716Y-132312062D01*
X148992971Y-132291443D01*
X149003124Y-132272447D01*
X149016792Y-132255792D01*
X149033447Y-132242124D01*
X149052443Y-132231971D01*
X149073062Y-132225716D01*
X149100640Y-132223000D01*
X149609360Y-132223000D01*
X149636938Y-132225716D01*
X149636938Y-132225716D01*
G37*
G36*
X148366938Y-132225716D02*
G01*
X148387557Y-132231971D01*
X148406553Y-132242124D01*
X148423208Y-132255792D01*
X148436876Y-132272447D01*
X148447029Y-132291443D01*
X148453284Y-132312062D01*
X148456000Y-132339640D01*
X148456000Y-132798360D01*
X148453284Y-132825938D01*
X148447029Y-132846557D01*
X148436876Y-132865553D01*
X148423208Y-132882208D01*
X148406553Y-132895876D01*
X148387557Y-132906029D01*
X148366938Y-132912284D01*
X148339360Y-132915000D01*
X147830640Y-132915000D01*
X147803062Y-132912284D01*
X147782443Y-132906029D01*
X147763447Y-132895876D01*
X147746792Y-132882208D01*
X147733124Y-132865553D01*
X147722971Y-132846557D01*
X147716716Y-132825938D01*
X147714000Y-132798360D01*
X147714000Y-132339640D01*
X147716716Y-132312062D01*
X147722971Y-132291443D01*
X147733124Y-132272447D01*
X147746792Y-132255792D01*
X147763447Y-132242124D01*
X147782443Y-132231971D01*
X147803062Y-132225716D01*
X147830640Y-132223000D01*
X148339360Y-132223000D01*
X148366938Y-132225716D01*
X148366938Y-132225716D01*
G37*
G36*
X148366938Y-131255716D02*
G01*
X148387557Y-131261971D01*
X148406553Y-131272124D01*
X148423208Y-131285792D01*
X148436876Y-131302447D01*
X148447029Y-131321443D01*
X148453284Y-131342062D01*
X148456000Y-131369640D01*
X148456000Y-131828360D01*
X148453284Y-131855938D01*
X148447029Y-131876557D01*
X148436876Y-131895553D01*
X148423208Y-131912208D01*
X148406553Y-131925876D01*
X148387557Y-131936029D01*
X148366938Y-131942284D01*
X148339360Y-131945000D01*
X147830640Y-131945000D01*
X147803062Y-131942284D01*
X147782443Y-131936029D01*
X147763447Y-131925876D01*
X147746792Y-131912208D01*
X147733124Y-131895553D01*
X147722971Y-131876557D01*
X147716716Y-131855938D01*
X147714000Y-131828360D01*
X147714000Y-131369640D01*
X147716716Y-131342062D01*
X147722971Y-131321443D01*
X147733124Y-131302447D01*
X147746792Y-131285792D01*
X147763447Y-131272124D01*
X147782443Y-131261971D01*
X147803062Y-131255716D01*
X147830640Y-131253000D01*
X148339360Y-131253000D01*
X148366938Y-131255716D01*
X148366938Y-131255716D01*
G37*
G36*
X152303938Y-131255716D02*
G01*
X152324557Y-131261971D01*
X152343553Y-131272124D01*
X152360208Y-131285792D01*
X152373876Y-131302447D01*
X152384029Y-131321443D01*
X152390284Y-131342062D01*
X152393000Y-131369640D01*
X152393000Y-131828360D01*
X152390284Y-131855938D01*
X152384029Y-131876557D01*
X152373876Y-131895553D01*
X152360208Y-131912208D01*
X152343553Y-131925876D01*
X152324557Y-131936029D01*
X152303938Y-131942284D01*
X152276360Y-131945000D01*
X151767640Y-131945000D01*
X151740062Y-131942284D01*
X151719443Y-131936029D01*
X151700447Y-131925876D01*
X151683792Y-131912208D01*
X151670124Y-131895553D01*
X151659971Y-131876557D01*
X151653716Y-131855938D01*
X151651000Y-131828360D01*
X151651000Y-131369640D01*
X151653716Y-131342062D01*
X151659971Y-131321443D01*
X151670124Y-131302447D01*
X151683792Y-131285792D01*
X151700447Y-131272124D01*
X151719443Y-131261971D01*
X151740062Y-131255716D01*
X151767640Y-131253000D01*
X152276360Y-131253000D01*
X152303938Y-131255716D01*
X152303938Y-131255716D01*
G37*
G36*
X150906938Y-131255716D02*
G01*
X150927557Y-131261971D01*
X150946553Y-131272124D01*
X150963208Y-131285792D01*
X150976876Y-131302447D01*
X150987029Y-131321443D01*
X150993284Y-131342062D01*
X150996000Y-131369640D01*
X150996000Y-131828360D01*
X150993284Y-131855938D01*
X150987029Y-131876557D01*
X150976876Y-131895553D01*
X150963208Y-131912208D01*
X150946553Y-131925876D01*
X150927557Y-131936029D01*
X150906938Y-131942284D01*
X150879360Y-131945000D01*
X150370640Y-131945000D01*
X150343062Y-131942284D01*
X150322443Y-131936029D01*
X150303447Y-131925876D01*
X150286792Y-131912208D01*
X150273124Y-131895553D01*
X150262971Y-131876557D01*
X150256716Y-131855938D01*
X150254000Y-131828360D01*
X150254000Y-131369640D01*
X150256716Y-131342062D01*
X150262971Y-131321443D01*
X150273124Y-131302447D01*
X150286792Y-131285792D01*
X150303447Y-131272124D01*
X150322443Y-131261971D01*
X150343062Y-131255716D01*
X150370640Y-131253000D01*
X150879360Y-131253000D01*
X150906938Y-131255716D01*
X150906938Y-131255716D01*
G37*
G36*
X149636938Y-131255716D02*
G01*
X149657557Y-131261971D01*
X149676553Y-131272124D01*
X149693208Y-131285792D01*
X149706876Y-131302447D01*
X149717029Y-131321443D01*
X149723284Y-131342062D01*
X149726000Y-131369640D01*
X149726000Y-131828360D01*
X149723284Y-131855938D01*
X149717029Y-131876557D01*
X149706876Y-131895553D01*
X149693208Y-131912208D01*
X149676553Y-131925876D01*
X149657557Y-131936029D01*
X149636938Y-131942284D01*
X149609360Y-131945000D01*
X149100640Y-131945000D01*
X149073062Y-131942284D01*
X149052443Y-131936029D01*
X149033447Y-131925876D01*
X149016792Y-131912208D01*
X149003124Y-131895553D01*
X148992971Y-131876557D01*
X148986716Y-131855938D01*
X148984000Y-131828360D01*
X148984000Y-131369640D01*
X148986716Y-131342062D01*
X148992971Y-131321443D01*
X149003124Y-131302447D01*
X149016792Y-131285792D01*
X149033447Y-131272124D01*
X149052443Y-131261971D01*
X149073062Y-131255716D01*
X149100640Y-131253000D01*
X149609360Y-131253000D01*
X149636938Y-131255716D01*
X149636938Y-131255716D01*
G37*
G36*
X148087938Y-129579716D02*
G01*
X148108557Y-129585971D01*
X148127553Y-129596124D01*
X148144208Y-129609792D01*
X148157876Y-129626447D01*
X148168029Y-129645443D01*
X148174284Y-129666062D01*
X148177000Y-129693640D01*
X148177000Y-130202360D01*
X148174284Y-130229938D01*
X148168029Y-130250557D01*
X148157876Y-130269553D01*
X148144208Y-130286208D01*
X148127553Y-130299876D01*
X148108557Y-130310029D01*
X148087938Y-130316284D01*
X148060360Y-130319000D01*
X147601640Y-130319000D01*
X147574062Y-130316284D01*
X147553443Y-130310029D01*
X147534447Y-130299876D01*
X147517792Y-130286208D01*
X147504124Y-130269553D01*
X147493971Y-130250557D01*
X147487716Y-130229938D01*
X147485000Y-130202360D01*
X147485000Y-129693640D01*
X147487716Y-129666062D01*
X147493971Y-129645443D01*
X147504124Y-129626447D01*
X147517792Y-129609792D01*
X147534447Y-129596124D01*
X147553443Y-129585971D01*
X147574062Y-129579716D01*
X147601640Y-129577000D01*
X148060360Y-129577000D01*
X148087938Y-129579716D01*
X148087938Y-129579716D01*
G37*
G36*
X152405938Y-129579716D02*
G01*
X152426557Y-129585971D01*
X152445553Y-129596124D01*
X152462208Y-129609792D01*
X152475876Y-129626447D01*
X152486029Y-129645443D01*
X152492284Y-129666062D01*
X152495000Y-129693640D01*
X152495000Y-130202360D01*
X152492284Y-130229938D01*
X152486029Y-130250557D01*
X152475876Y-130269553D01*
X152462208Y-130286208D01*
X152445553Y-130299876D01*
X152426557Y-130310029D01*
X152405938Y-130316284D01*
X152378360Y-130319000D01*
X151919640Y-130319000D01*
X151892062Y-130316284D01*
X151871443Y-130310029D01*
X151852447Y-130299876D01*
X151835792Y-130286208D01*
X151822124Y-130269553D01*
X151811971Y-130250557D01*
X151805716Y-130229938D01*
X151803000Y-130202360D01*
X151803000Y-129693640D01*
X151805716Y-129666062D01*
X151811971Y-129645443D01*
X151822124Y-129626447D01*
X151835792Y-129609792D01*
X151852447Y-129596124D01*
X151871443Y-129585971D01*
X151892062Y-129579716D01*
X151919640Y-129577000D01*
X152378360Y-129577000D01*
X152405938Y-129579716D01*
X152405938Y-129579716D01*
G37*
G36*
X151435938Y-129579716D02*
G01*
X151456557Y-129585971D01*
X151475553Y-129596124D01*
X151492208Y-129609792D01*
X151505876Y-129626447D01*
X151516029Y-129645443D01*
X151522284Y-129666062D01*
X151525000Y-129693640D01*
X151525000Y-130202360D01*
X151522284Y-130229938D01*
X151516029Y-130250557D01*
X151505876Y-130269553D01*
X151492208Y-130286208D01*
X151475553Y-130299876D01*
X151456557Y-130310029D01*
X151435938Y-130316284D01*
X151408360Y-130319000D01*
X150949640Y-130319000D01*
X150922062Y-130316284D01*
X150901443Y-130310029D01*
X150882447Y-130299876D01*
X150865792Y-130286208D01*
X150852124Y-130269553D01*
X150841971Y-130250557D01*
X150835716Y-130229938D01*
X150833000Y-130202360D01*
X150833000Y-129693640D01*
X150835716Y-129666062D01*
X150841971Y-129645443D01*
X150852124Y-129626447D01*
X150865792Y-129609792D01*
X150882447Y-129596124D01*
X150901443Y-129585971D01*
X150922062Y-129579716D01*
X150949640Y-129577000D01*
X151408360Y-129577000D01*
X151435938Y-129579716D01*
X151435938Y-129579716D01*
G37*
G36*
X149057938Y-129579716D02*
G01*
X149078557Y-129585971D01*
X149097553Y-129596124D01*
X149114208Y-129609792D01*
X149127876Y-129626447D01*
X149138029Y-129645443D01*
X149144284Y-129666062D01*
X149147000Y-129693640D01*
X149147000Y-130202360D01*
X149144284Y-130229938D01*
X149138029Y-130250557D01*
X149127876Y-130269553D01*
X149114208Y-130286208D01*
X149097553Y-130299876D01*
X149078557Y-130310029D01*
X149057938Y-130316284D01*
X149030360Y-130319000D01*
X148571640Y-130319000D01*
X148544062Y-130316284D01*
X148523443Y-130310029D01*
X148504447Y-130299876D01*
X148487792Y-130286208D01*
X148474124Y-130269553D01*
X148463971Y-130250557D01*
X148457716Y-130229938D01*
X148455000Y-130202360D01*
X148455000Y-129693640D01*
X148457716Y-129666062D01*
X148463971Y-129645443D01*
X148474124Y-129626447D01*
X148487792Y-129609792D01*
X148504447Y-129596124D01*
X148523443Y-129585971D01*
X148544062Y-129579716D01*
X148571640Y-129577000D01*
X149030360Y-129577000D01*
X149057938Y-129579716D01*
X149057938Y-129579716D01*
G37*
G36*
X148641938Y-128182716D02*
G01*
X148662557Y-128188971D01*
X148681553Y-128199124D01*
X148698208Y-128212792D01*
X148711876Y-128229447D01*
X148722029Y-128248443D01*
X148728284Y-128269062D01*
X148731000Y-128296640D01*
X148731000Y-128805360D01*
X148728284Y-128832938D01*
X148722029Y-128853557D01*
X148711876Y-128872553D01*
X148698208Y-128889208D01*
X148681553Y-128902876D01*
X148662557Y-128913029D01*
X148641938Y-128919284D01*
X148614360Y-128922000D01*
X148155640Y-128922000D01*
X148128062Y-128919284D01*
X148107443Y-128913029D01*
X148088447Y-128902876D01*
X148071792Y-128889208D01*
X148058124Y-128872553D01*
X148047971Y-128853557D01*
X148041716Y-128832938D01*
X148039000Y-128805360D01*
X148039000Y-128296640D01*
X148041716Y-128269062D01*
X148047971Y-128248443D01*
X148058124Y-128229447D01*
X148071792Y-128212792D01*
X148088447Y-128199124D01*
X148107443Y-128188971D01*
X148128062Y-128182716D01*
X148155640Y-128180000D01*
X148614360Y-128180000D01*
X148641938Y-128182716D01*
X148641938Y-128182716D01*
G37*
G36*
X149611938Y-128182716D02*
G01*
X149632557Y-128188971D01*
X149651553Y-128199124D01*
X149668208Y-128212792D01*
X149681876Y-128229447D01*
X149692029Y-128248443D01*
X149698284Y-128269062D01*
X149701000Y-128296640D01*
X149701000Y-128805360D01*
X149698284Y-128832938D01*
X149692029Y-128853557D01*
X149681876Y-128872553D01*
X149668208Y-128889208D01*
X149651553Y-128902876D01*
X149632557Y-128913029D01*
X149611938Y-128919284D01*
X149584360Y-128922000D01*
X149125640Y-128922000D01*
X149098062Y-128919284D01*
X149077443Y-128913029D01*
X149058447Y-128902876D01*
X149041792Y-128889208D01*
X149028124Y-128872553D01*
X149017971Y-128853557D01*
X149011716Y-128832938D01*
X149009000Y-128805360D01*
X149009000Y-128296640D01*
X149011716Y-128269062D01*
X149017971Y-128248443D01*
X149028124Y-128229447D01*
X149041792Y-128212792D01*
X149058447Y-128199124D01*
X149077443Y-128188971D01*
X149098062Y-128182716D01*
X149125640Y-128180000D01*
X149584360Y-128180000D01*
X149611938Y-128182716D01*
X149611938Y-128182716D01*
G37*
G36*
X151851938Y-128182716D02*
G01*
X151872557Y-128188971D01*
X151891553Y-128199124D01*
X151908208Y-128212792D01*
X151921876Y-128229447D01*
X151932029Y-128248443D01*
X151938284Y-128269062D01*
X151941000Y-128296640D01*
X151941000Y-128805360D01*
X151938284Y-128832938D01*
X151932029Y-128853557D01*
X151921876Y-128872553D01*
X151908208Y-128889208D01*
X151891553Y-128902876D01*
X151872557Y-128913029D01*
X151851938Y-128919284D01*
X151824360Y-128922000D01*
X151365640Y-128922000D01*
X151338062Y-128919284D01*
X151317443Y-128913029D01*
X151298447Y-128902876D01*
X151281792Y-128889208D01*
X151268124Y-128872553D01*
X151257971Y-128853557D01*
X151251716Y-128832938D01*
X151249000Y-128805360D01*
X151249000Y-128296640D01*
X151251716Y-128269062D01*
X151257971Y-128248443D01*
X151268124Y-128229447D01*
X151281792Y-128212792D01*
X151298447Y-128199124D01*
X151317443Y-128188971D01*
X151338062Y-128182716D01*
X151365640Y-128180000D01*
X151824360Y-128180000D01*
X151851938Y-128182716D01*
X151851938Y-128182716D01*
G37*
G36*
X150881938Y-128182716D02*
G01*
X150902557Y-128188971D01*
X150921553Y-128199124D01*
X150938208Y-128212792D01*
X150951876Y-128229447D01*
X150962029Y-128248443D01*
X150968284Y-128269062D01*
X150971000Y-128296640D01*
X150971000Y-128805360D01*
X150968284Y-128832938D01*
X150962029Y-128853557D01*
X150951876Y-128872553D01*
X150938208Y-128889208D01*
X150921553Y-128902876D01*
X150902557Y-128913029D01*
X150881938Y-128919284D01*
X150854360Y-128922000D01*
X150395640Y-128922000D01*
X150368062Y-128919284D01*
X150347443Y-128913029D01*
X150328447Y-128902876D01*
X150311792Y-128889208D01*
X150298124Y-128872553D01*
X150287971Y-128853557D01*
X150281716Y-128832938D01*
X150279000Y-128805360D01*
X150279000Y-128296640D01*
X150281716Y-128269062D01*
X150287971Y-128248443D01*
X150298124Y-128229447D01*
X150311792Y-128212792D01*
X150328447Y-128199124D01*
X150347443Y-128188971D01*
X150368062Y-128182716D01*
X150395640Y-128180000D01*
X150854360Y-128180000D01*
X150881938Y-128182716D01*
X150881938Y-128182716D01*
G37*
G36*
X117831938Y-127191716D02*
G01*
X117852557Y-127197971D01*
X117871553Y-127208124D01*
X117888208Y-127221792D01*
X117901876Y-127238447D01*
X117912029Y-127257443D01*
X117918284Y-127278062D01*
X117921000Y-127305640D01*
X117921000Y-127764360D01*
X117918284Y-127791938D01*
X117912029Y-127812557D01*
X117901876Y-127831553D01*
X117888208Y-127848208D01*
X117871553Y-127861876D01*
X117852557Y-127872029D01*
X117831938Y-127878284D01*
X117804360Y-127881000D01*
X117295640Y-127881000D01*
X117268062Y-127878284D01*
X117247443Y-127872029D01*
X117228447Y-127861876D01*
X117211792Y-127848208D01*
X117198124Y-127831553D01*
X117187971Y-127812557D01*
X117181716Y-127791938D01*
X117179000Y-127764360D01*
X117179000Y-127305640D01*
X117181716Y-127278062D01*
X117187971Y-127257443D01*
X117198124Y-127238447D01*
X117211792Y-127221792D01*
X117228447Y-127208124D01*
X117247443Y-127197971D01*
X117268062Y-127191716D01*
X117295640Y-127189000D01*
X117804360Y-127189000D01*
X117831938Y-127191716D01*
X117831938Y-127191716D01*
G37*
G36*
X148112938Y-126810716D02*
G01*
X148133557Y-126816971D01*
X148152553Y-126827124D01*
X148169208Y-126840792D01*
X148182876Y-126857447D01*
X148193029Y-126876443D01*
X148199284Y-126897062D01*
X148202000Y-126924640D01*
X148202000Y-127383360D01*
X148199284Y-127410938D01*
X148193029Y-127431557D01*
X148182876Y-127450553D01*
X148169208Y-127467208D01*
X148152553Y-127480876D01*
X148133557Y-127491029D01*
X148112938Y-127497284D01*
X148085360Y-127500000D01*
X147576640Y-127500000D01*
X147549062Y-127497284D01*
X147528443Y-127491029D01*
X147509447Y-127480876D01*
X147492792Y-127467208D01*
X147479124Y-127450553D01*
X147468971Y-127431557D01*
X147462716Y-127410938D01*
X147460000Y-127383360D01*
X147460000Y-126924640D01*
X147462716Y-126897062D01*
X147468971Y-126876443D01*
X147479124Y-126857447D01*
X147492792Y-126840792D01*
X147509447Y-126827124D01*
X147528443Y-126816971D01*
X147549062Y-126810716D01*
X147576640Y-126808000D01*
X148085360Y-126808000D01*
X148112938Y-126810716D01*
X148112938Y-126810716D01*
G37*
G36*
X149636938Y-126683716D02*
G01*
X149657557Y-126689971D01*
X149676553Y-126700124D01*
X149693208Y-126713792D01*
X149706876Y-126730447D01*
X149717029Y-126749443D01*
X149723284Y-126770062D01*
X149726000Y-126797640D01*
X149726000Y-127256360D01*
X149723284Y-127283938D01*
X149717029Y-127304557D01*
X149706876Y-127323553D01*
X149693208Y-127340208D01*
X149676553Y-127353876D01*
X149657557Y-127364029D01*
X149636938Y-127370284D01*
X149609360Y-127373000D01*
X149100640Y-127373000D01*
X149073062Y-127370284D01*
X149052443Y-127364029D01*
X149033447Y-127353876D01*
X149016792Y-127340208D01*
X149003124Y-127323553D01*
X148992971Y-127304557D01*
X148986716Y-127283938D01*
X148984000Y-127256360D01*
X148984000Y-126797640D01*
X148986716Y-126770062D01*
X148992971Y-126749443D01*
X149003124Y-126730447D01*
X149016792Y-126713792D01*
X149033447Y-126700124D01*
X149052443Y-126689971D01*
X149073062Y-126683716D01*
X149100640Y-126681000D01*
X149609360Y-126681000D01*
X149636938Y-126683716D01*
X149636938Y-126683716D01*
G37*
G36*
X152430938Y-126683716D02*
G01*
X152451557Y-126689971D01*
X152470553Y-126700124D01*
X152487208Y-126713792D01*
X152500876Y-126730447D01*
X152511029Y-126749443D01*
X152517284Y-126770062D01*
X152520000Y-126797640D01*
X152520000Y-127256360D01*
X152517284Y-127283938D01*
X152511029Y-127304557D01*
X152500876Y-127323553D01*
X152487208Y-127340208D01*
X152470553Y-127353876D01*
X152451557Y-127364029D01*
X152430938Y-127370284D01*
X152403360Y-127373000D01*
X151894640Y-127373000D01*
X151867062Y-127370284D01*
X151846443Y-127364029D01*
X151827447Y-127353876D01*
X151810792Y-127340208D01*
X151797124Y-127323553D01*
X151786971Y-127304557D01*
X151780716Y-127283938D01*
X151778000Y-127256360D01*
X151778000Y-126797640D01*
X151780716Y-126770062D01*
X151786971Y-126749443D01*
X151797124Y-126730447D01*
X151810792Y-126713792D01*
X151827447Y-126700124D01*
X151846443Y-126689971D01*
X151867062Y-126683716D01*
X151894640Y-126681000D01*
X152403360Y-126681000D01*
X152430938Y-126683716D01*
X152430938Y-126683716D01*
G37*
G36*
X150906938Y-126683716D02*
G01*
X150927557Y-126689971D01*
X150946553Y-126700124D01*
X150963208Y-126713792D01*
X150976876Y-126730447D01*
X150987029Y-126749443D01*
X150993284Y-126770062D01*
X150996000Y-126797640D01*
X150996000Y-127256360D01*
X150993284Y-127283938D01*
X150987029Y-127304557D01*
X150976876Y-127323553D01*
X150963208Y-127340208D01*
X150946553Y-127353876D01*
X150927557Y-127364029D01*
X150906938Y-127370284D01*
X150879360Y-127373000D01*
X150370640Y-127373000D01*
X150343062Y-127370284D01*
X150322443Y-127364029D01*
X150303447Y-127353876D01*
X150286792Y-127340208D01*
X150273124Y-127323553D01*
X150262971Y-127304557D01*
X150256716Y-127283938D01*
X150254000Y-127256360D01*
X150254000Y-126797640D01*
X150256716Y-126770062D01*
X150262971Y-126749443D01*
X150273124Y-126730447D01*
X150286792Y-126713792D01*
X150303447Y-126700124D01*
X150322443Y-126689971D01*
X150343062Y-126683716D01*
X150370640Y-126681000D01*
X150879360Y-126681000D01*
X150906938Y-126683716D01*
X150906938Y-126683716D01*
G37*
G36*
X116601000Y-127201000D02*
G01*
X109999000Y-127201000D01*
X109999000Y-125499000D01*
X116601000Y-125499000D01*
X116601000Y-127201000D01*
X116601000Y-127201000D01*
G37*
G36*
X117831938Y-126221716D02*
G01*
X117852557Y-126227971D01*
X117871553Y-126238124D01*
X117888208Y-126251792D01*
X117901876Y-126268447D01*
X117912029Y-126287443D01*
X117918284Y-126308062D01*
X117921000Y-126335640D01*
X117921000Y-126794360D01*
X117918284Y-126821938D01*
X117912029Y-126842557D01*
X117901876Y-126861553D01*
X117888208Y-126878208D01*
X117871553Y-126891876D01*
X117852557Y-126902029D01*
X117831938Y-126908284D01*
X117804360Y-126911000D01*
X117295640Y-126911000D01*
X117268062Y-126908284D01*
X117247443Y-126902029D01*
X117228447Y-126891876D01*
X117211792Y-126878208D01*
X117198124Y-126861553D01*
X117187971Y-126842557D01*
X117181716Y-126821938D01*
X117179000Y-126794360D01*
X117179000Y-126335640D01*
X117181716Y-126308062D01*
X117187971Y-126287443D01*
X117198124Y-126268447D01*
X117211792Y-126251792D01*
X117228447Y-126238124D01*
X117247443Y-126227971D01*
X117268062Y-126221716D01*
X117295640Y-126219000D01*
X117804360Y-126219000D01*
X117831938Y-126221716D01*
X117831938Y-126221716D01*
G37*
G36*
X148112938Y-125840716D02*
G01*
X148133557Y-125846971D01*
X148152553Y-125857124D01*
X148169208Y-125870792D01*
X148182876Y-125887447D01*
X148193029Y-125906443D01*
X148199284Y-125927062D01*
X148202000Y-125954640D01*
X148202000Y-126413360D01*
X148199284Y-126440938D01*
X148193029Y-126461557D01*
X148182876Y-126480553D01*
X148169208Y-126497208D01*
X148152553Y-126510876D01*
X148133557Y-126521029D01*
X148112938Y-126527284D01*
X148085360Y-126530000D01*
X147576640Y-126530000D01*
X147549062Y-126527284D01*
X147528443Y-126521029D01*
X147509447Y-126510876D01*
X147492792Y-126497208D01*
X147479124Y-126480553D01*
X147468971Y-126461557D01*
X147462716Y-126440938D01*
X147460000Y-126413360D01*
X147460000Y-125954640D01*
X147462716Y-125927062D01*
X147468971Y-125906443D01*
X147479124Y-125887447D01*
X147492792Y-125870792D01*
X147509447Y-125857124D01*
X147528443Y-125846971D01*
X147549062Y-125840716D01*
X147576640Y-125838000D01*
X148085360Y-125838000D01*
X148112938Y-125840716D01*
X148112938Y-125840716D01*
G37*
G36*
X149636938Y-125713716D02*
G01*
X149657557Y-125719971D01*
X149676553Y-125730124D01*
X149693208Y-125743792D01*
X149706876Y-125760447D01*
X149717029Y-125779443D01*
X149723284Y-125800062D01*
X149726000Y-125827640D01*
X149726000Y-126286360D01*
X149723284Y-126313938D01*
X149717029Y-126334557D01*
X149706876Y-126353553D01*
X149693208Y-126370208D01*
X149676553Y-126383876D01*
X149657557Y-126394029D01*
X149636938Y-126400284D01*
X149609360Y-126403000D01*
X149100640Y-126403000D01*
X149073062Y-126400284D01*
X149052443Y-126394029D01*
X149033447Y-126383876D01*
X149016792Y-126370208D01*
X149003124Y-126353553D01*
X148992971Y-126334557D01*
X148986716Y-126313938D01*
X148984000Y-126286360D01*
X148984000Y-125827640D01*
X148986716Y-125800062D01*
X148992971Y-125779443D01*
X149003124Y-125760447D01*
X149016792Y-125743792D01*
X149033447Y-125730124D01*
X149052443Y-125719971D01*
X149073062Y-125713716D01*
X149100640Y-125711000D01*
X149609360Y-125711000D01*
X149636938Y-125713716D01*
X149636938Y-125713716D01*
G37*
G36*
X150906938Y-125713716D02*
G01*
X150927557Y-125719971D01*
X150946553Y-125730124D01*
X150963208Y-125743792D01*
X150976876Y-125760447D01*
X150987029Y-125779443D01*
X150993284Y-125800062D01*
X150996000Y-125827640D01*
X150996000Y-126286360D01*
X150993284Y-126313938D01*
X150987029Y-126334557D01*
X150976876Y-126353553D01*
X150963208Y-126370208D01*
X150946553Y-126383876D01*
X150927557Y-126394029D01*
X150906938Y-126400284D01*
X150879360Y-126403000D01*
X150370640Y-126403000D01*
X150343062Y-126400284D01*
X150322443Y-126394029D01*
X150303447Y-126383876D01*
X150286792Y-126370208D01*
X150273124Y-126353553D01*
X150262971Y-126334557D01*
X150256716Y-126313938D01*
X150254000Y-126286360D01*
X150254000Y-125827640D01*
X150256716Y-125800062D01*
X150262971Y-125779443D01*
X150273124Y-125760447D01*
X150286792Y-125743792D01*
X150303447Y-125730124D01*
X150322443Y-125719971D01*
X150343062Y-125713716D01*
X150370640Y-125711000D01*
X150879360Y-125711000D01*
X150906938Y-125713716D01*
X150906938Y-125713716D01*
G37*
G36*
X152430938Y-125713716D02*
G01*
X152451557Y-125719971D01*
X152470553Y-125730124D01*
X152487208Y-125743792D01*
X152500876Y-125760447D01*
X152511029Y-125779443D01*
X152517284Y-125800062D01*
X152520000Y-125827640D01*
X152520000Y-126286360D01*
X152517284Y-126313938D01*
X152511029Y-126334557D01*
X152500876Y-126353553D01*
X152487208Y-126370208D01*
X152470553Y-126383876D01*
X152451557Y-126394029D01*
X152430938Y-126400284D01*
X152403360Y-126403000D01*
X151894640Y-126403000D01*
X151867062Y-126400284D01*
X151846443Y-126394029D01*
X151827447Y-126383876D01*
X151810792Y-126370208D01*
X151797124Y-126353553D01*
X151786971Y-126334557D01*
X151780716Y-126313938D01*
X151778000Y-126286360D01*
X151778000Y-125827640D01*
X151780716Y-125800062D01*
X151786971Y-125779443D01*
X151797124Y-125760447D01*
X151810792Y-125743792D01*
X151827447Y-125730124D01*
X151846443Y-125719971D01*
X151867062Y-125713716D01*
X151894640Y-125711000D01*
X152403360Y-125711000D01*
X152430938Y-125713716D01*
X152430938Y-125713716D01*
G37*
G36*
X149438938Y-123991716D02*
G01*
X149459557Y-123997971D01*
X149478553Y-124008124D01*
X149495208Y-124021792D01*
X149508876Y-124038447D01*
X149519029Y-124057443D01*
X149525284Y-124078062D01*
X149528000Y-124105640D01*
X149528000Y-124614360D01*
X149525284Y-124641938D01*
X149519029Y-124662557D01*
X149508876Y-124681553D01*
X149495208Y-124698208D01*
X149478553Y-124711876D01*
X149459557Y-124722029D01*
X149438938Y-124728284D01*
X149411360Y-124731000D01*
X148952640Y-124731000D01*
X148925062Y-124728284D01*
X148904443Y-124722029D01*
X148885447Y-124711876D01*
X148868792Y-124698208D01*
X148855124Y-124681553D01*
X148844971Y-124662557D01*
X148838716Y-124641938D01*
X148836000Y-124614360D01*
X148836000Y-124105640D01*
X148838716Y-124078062D01*
X148844971Y-124057443D01*
X148855124Y-124038447D01*
X148868792Y-124021792D01*
X148885447Y-124008124D01*
X148904443Y-123997971D01*
X148925062Y-123991716D01*
X148952640Y-123989000D01*
X149411360Y-123989000D01*
X149438938Y-123991716D01*
X149438938Y-123991716D01*
G37*
G36*
X148468938Y-123991716D02*
G01*
X148489557Y-123997971D01*
X148508553Y-124008124D01*
X148525208Y-124021792D01*
X148538876Y-124038447D01*
X148549029Y-124057443D01*
X148555284Y-124078062D01*
X148558000Y-124105640D01*
X148558000Y-124614360D01*
X148555284Y-124641938D01*
X148549029Y-124662557D01*
X148538876Y-124681553D01*
X148525208Y-124698208D01*
X148508553Y-124711876D01*
X148489557Y-124722029D01*
X148468938Y-124728284D01*
X148441360Y-124731000D01*
X147982640Y-124731000D01*
X147955062Y-124728284D01*
X147934443Y-124722029D01*
X147915447Y-124711876D01*
X147898792Y-124698208D01*
X147885124Y-124681553D01*
X147874971Y-124662557D01*
X147868716Y-124641938D01*
X147866000Y-124614360D01*
X147866000Y-124105640D01*
X147868716Y-124078062D01*
X147874971Y-124057443D01*
X147885124Y-124038447D01*
X147898792Y-124021792D01*
X147915447Y-124008124D01*
X147934443Y-123997971D01*
X147955062Y-123991716D01*
X147982640Y-123989000D01*
X148441360Y-123989000D01*
X148468938Y-123991716D01*
X148468938Y-123991716D01*
G37*
G36*
X151008938Y-123991716D02*
G01*
X151029557Y-123997971D01*
X151048553Y-124008124D01*
X151065208Y-124021792D01*
X151078876Y-124038447D01*
X151089029Y-124057443D01*
X151095284Y-124078062D01*
X151098000Y-124105640D01*
X151098000Y-124614360D01*
X151095284Y-124641938D01*
X151089029Y-124662557D01*
X151078876Y-124681553D01*
X151065208Y-124698208D01*
X151048553Y-124711876D01*
X151029557Y-124722029D01*
X151008938Y-124728284D01*
X150981360Y-124731000D01*
X150522640Y-124731000D01*
X150495062Y-124728284D01*
X150474443Y-124722029D01*
X150455447Y-124711876D01*
X150438792Y-124698208D01*
X150425124Y-124681553D01*
X150414971Y-124662557D01*
X150408716Y-124641938D01*
X150406000Y-124614360D01*
X150406000Y-124105640D01*
X150408716Y-124078062D01*
X150414971Y-124057443D01*
X150425124Y-124038447D01*
X150438792Y-124021792D01*
X150455447Y-124008124D01*
X150474443Y-123997971D01*
X150495062Y-123991716D01*
X150522640Y-123989000D01*
X150981360Y-123989000D01*
X151008938Y-123991716D01*
X151008938Y-123991716D01*
G37*
G36*
X151978938Y-123991716D02*
G01*
X151999557Y-123997971D01*
X152018553Y-124008124D01*
X152035208Y-124021792D01*
X152048876Y-124038447D01*
X152059029Y-124057443D01*
X152065284Y-124078062D01*
X152068000Y-124105640D01*
X152068000Y-124614360D01*
X152065284Y-124641938D01*
X152059029Y-124662557D01*
X152048876Y-124681553D01*
X152035208Y-124698208D01*
X152018553Y-124711876D01*
X151999557Y-124722029D01*
X151978938Y-124728284D01*
X151951360Y-124731000D01*
X151492640Y-124731000D01*
X151465062Y-124728284D01*
X151444443Y-124722029D01*
X151425447Y-124711876D01*
X151408792Y-124698208D01*
X151395124Y-124681553D01*
X151384971Y-124662557D01*
X151378716Y-124641938D01*
X151376000Y-124614360D01*
X151376000Y-124105640D01*
X151378716Y-124078062D01*
X151384971Y-124057443D01*
X151395124Y-124038447D01*
X151408792Y-124021792D01*
X151425447Y-124008124D01*
X151444443Y-123997971D01*
X151465062Y-123991716D01*
X151492640Y-123989000D01*
X151951360Y-123989000D01*
X151978938Y-123991716D01*
X151978938Y-123991716D01*
G37*
G36*
X152684938Y-122873716D02*
G01*
X152705557Y-122879971D01*
X152724553Y-122890124D01*
X152741208Y-122903792D01*
X152754876Y-122920447D01*
X152765029Y-122939443D01*
X152771284Y-122960062D01*
X152774000Y-122987640D01*
X152774000Y-123446360D01*
X152771284Y-123473938D01*
X152765029Y-123494557D01*
X152754876Y-123513553D01*
X152741208Y-123530208D01*
X152724553Y-123543876D01*
X152705557Y-123554029D01*
X152684938Y-123560284D01*
X152657360Y-123563000D01*
X152148640Y-123563000D01*
X152121062Y-123560284D01*
X152100443Y-123554029D01*
X152081447Y-123543876D01*
X152064792Y-123530208D01*
X152051124Y-123513553D01*
X152040971Y-123494557D01*
X152034716Y-123473938D01*
X152032000Y-123446360D01*
X152032000Y-122987640D01*
X152034716Y-122960062D01*
X152040971Y-122939443D01*
X152051124Y-122920447D01*
X152064792Y-122903792D01*
X152081447Y-122890124D01*
X152100443Y-122879971D01*
X152121062Y-122873716D01*
X152148640Y-122871000D01*
X152657360Y-122871000D01*
X152684938Y-122873716D01*
X152684938Y-122873716D01*
G37*
G36*
X149103938Y-122594716D02*
G01*
X149124557Y-122600971D01*
X149143553Y-122611124D01*
X149160208Y-122624792D01*
X149173876Y-122641447D01*
X149184029Y-122660443D01*
X149190284Y-122681062D01*
X149193000Y-122708640D01*
X149193000Y-123217360D01*
X149190284Y-123244938D01*
X149184029Y-123265557D01*
X149173876Y-123284553D01*
X149160208Y-123301208D01*
X149143553Y-123314876D01*
X149124557Y-123325029D01*
X149103938Y-123331284D01*
X149076360Y-123334000D01*
X148617640Y-123334000D01*
X148590062Y-123331284D01*
X148569443Y-123325029D01*
X148550447Y-123314876D01*
X148533792Y-123301208D01*
X148520124Y-123284553D01*
X148509971Y-123265557D01*
X148503716Y-123244938D01*
X148501000Y-123217360D01*
X148501000Y-122708640D01*
X148503716Y-122681062D01*
X148509971Y-122660443D01*
X148520124Y-122641447D01*
X148533792Y-122624792D01*
X148550447Y-122611124D01*
X148569443Y-122600971D01*
X148590062Y-122594716D01*
X148617640Y-122592000D01*
X149076360Y-122592000D01*
X149103938Y-122594716D01*
X149103938Y-122594716D01*
G37*
G36*
X150073938Y-122594716D02*
G01*
X150094557Y-122600971D01*
X150113553Y-122611124D01*
X150130208Y-122624792D01*
X150143876Y-122641447D01*
X150154029Y-122660443D01*
X150160284Y-122681062D01*
X150163000Y-122708640D01*
X150163000Y-123217360D01*
X150160284Y-123244938D01*
X150154029Y-123265557D01*
X150143876Y-123284553D01*
X150130208Y-123301208D01*
X150113553Y-123314876D01*
X150094557Y-123325029D01*
X150073938Y-123331284D01*
X150046360Y-123334000D01*
X149587640Y-123334000D01*
X149560062Y-123331284D01*
X149539443Y-123325029D01*
X149520447Y-123314876D01*
X149503792Y-123301208D01*
X149490124Y-123284553D01*
X149479971Y-123265557D01*
X149473716Y-123244938D01*
X149471000Y-123217360D01*
X149471000Y-122708640D01*
X149473716Y-122681062D01*
X149479971Y-122660443D01*
X149490124Y-122641447D01*
X149503792Y-122624792D01*
X149520447Y-122611124D01*
X149539443Y-122600971D01*
X149560062Y-122594716D01*
X149587640Y-122592000D01*
X150046360Y-122592000D01*
X150073938Y-122594716D01*
X150073938Y-122594716D01*
G37*
G36*
X103191000Y-123043000D02*
G01*
X101089000Y-123043000D01*
X101089000Y-119441000D01*
X103191000Y-119441000D01*
X103191000Y-123043000D01*
X103191000Y-123043000D01*
G37*
G36*
X107191000Y-123043000D02*
G01*
X105089000Y-123043000D01*
X105089000Y-119441000D01*
X107191000Y-119441000D01*
X107191000Y-123043000D01*
X107191000Y-123043000D01*
G37*
G36*
X152684938Y-121903716D02*
G01*
X152705557Y-121909971D01*
X152724553Y-121920124D01*
X152741208Y-121933792D01*
X152754876Y-121950447D01*
X152765029Y-121969443D01*
X152771284Y-121990062D01*
X152774000Y-122017640D01*
X152774000Y-122476360D01*
X152771284Y-122503938D01*
X152765029Y-122524557D01*
X152754876Y-122543553D01*
X152741208Y-122560208D01*
X152724553Y-122573876D01*
X152705557Y-122584029D01*
X152684938Y-122590284D01*
X152657360Y-122593000D01*
X152148640Y-122593000D01*
X152121062Y-122590284D01*
X152100443Y-122584029D01*
X152081447Y-122573876D01*
X152064792Y-122560208D01*
X152051124Y-122543553D01*
X152040971Y-122524557D01*
X152034716Y-122503938D01*
X152032000Y-122476360D01*
X152032000Y-122017640D01*
X152034716Y-121990062D01*
X152040971Y-121969443D01*
X152051124Y-121950447D01*
X152064792Y-121933792D01*
X152081447Y-121920124D01*
X152100443Y-121909971D01*
X152121062Y-121903716D01*
X152148640Y-121901000D01*
X152657360Y-121901000D01*
X152684938Y-121903716D01*
X152684938Y-121903716D01*
G37*
G36*
X116326000Y-122471000D02*
G01*
X113824000Y-122471000D01*
X113824000Y-118889000D01*
X116326000Y-118889000D01*
X116326000Y-122471000D01*
X116326000Y-122471000D01*
G37*
G36*
X112776000Y-122471000D02*
G01*
X110274000Y-122471000D01*
X110274000Y-118889000D01*
X112776000Y-118889000D01*
X112776000Y-122471000D01*
X112776000Y-122471000D01*
G37*
G36*
X151598000Y-121014000D02*
G01*
X150396000Y-121014000D01*
X150396000Y-118562000D01*
X151598000Y-118562000D01*
X151598000Y-121014000D01*
X151598000Y-121014000D01*
G37*
G36*
X147298000Y-121014000D02*
G01*
X146096000Y-121014000D01*
X146096000Y-118562000D01*
X147298000Y-118562000D01*
X147298000Y-121014000D01*
X147298000Y-121014000D01*
G37*
G36*
X136848442Y-116141518D02*
G01*
X136914627Y-116148037D01*
X137084466Y-116199557D01*
X137084468Y-116199558D01*
X137109670Y-116213029D01*
X137240991Y-116283222D01*
X137260890Y-116299553D01*
X137378186Y-116395814D01*
X137461448Y-116497271D01*
X137490778Y-116533009D01*
X137574443Y-116689534D01*
X137625963Y-116859373D01*
X137643359Y-117036000D01*
X137625963Y-117212627D01*
X137574443Y-117382466D01*
X137490778Y-117538991D01*
X137481286Y-117550557D01*
X137378186Y-117676186D01*
X137276729Y-117759448D01*
X137240991Y-117788778D01*
X137084466Y-117872443D01*
X136914627Y-117923963D01*
X136848443Y-117930481D01*
X136782260Y-117937000D01*
X136693740Y-117937000D01*
X136627557Y-117930481D01*
X136561373Y-117923963D01*
X136391534Y-117872443D01*
X136235009Y-117788778D01*
X136199271Y-117759448D01*
X136097814Y-117676186D01*
X135994714Y-117550557D01*
X135985222Y-117538991D01*
X135901557Y-117382466D01*
X135850037Y-117212627D01*
X135832641Y-117036000D01*
X135850037Y-116859373D01*
X135901557Y-116689534D01*
X135985222Y-116533009D01*
X136014552Y-116497271D01*
X136097814Y-116395814D01*
X136215110Y-116299553D01*
X136235009Y-116283222D01*
X136366330Y-116213029D01*
X136391532Y-116199558D01*
X136391534Y-116199557D01*
X136561373Y-116148037D01*
X136627558Y-116141518D01*
X136693740Y-116135000D01*
X136782260Y-116135000D01*
X136848442Y-116141518D01*
X136848442Y-116141518D01*
G37*
G36*
X142719000Y-117937000D02*
G01*
X140917000Y-117937000D01*
X140917000Y-116135000D01*
X142719000Y-116135000D01*
X142719000Y-117937000D01*
X142719000Y-117937000D01*
G37*
G36*
X139388442Y-116141518D02*
G01*
X139454627Y-116148037D01*
X139624466Y-116199557D01*
X139624468Y-116199558D01*
X139649670Y-116213029D01*
X139780991Y-116283222D01*
X139800890Y-116299553D01*
X139918186Y-116395814D01*
X140001448Y-116497271D01*
X140030778Y-116533009D01*
X140114443Y-116689534D01*
X140165963Y-116859373D01*
X140183359Y-117036000D01*
X140165963Y-117212627D01*
X140114443Y-117382466D01*
X140030778Y-117538991D01*
X140021286Y-117550557D01*
X139918186Y-117676186D01*
X139816729Y-117759448D01*
X139780991Y-117788778D01*
X139624466Y-117872443D01*
X139454627Y-117923963D01*
X139388443Y-117930481D01*
X139322260Y-117937000D01*
X139233740Y-117937000D01*
X139167557Y-117930481D01*
X139101373Y-117923963D01*
X138931534Y-117872443D01*
X138775009Y-117788778D01*
X138739271Y-117759448D01*
X138637814Y-117676186D01*
X138534714Y-117550557D01*
X138525222Y-117538991D01*
X138441557Y-117382466D01*
X138390037Y-117212627D01*
X138372641Y-117036000D01*
X138390037Y-116859373D01*
X138441557Y-116689534D01*
X138525222Y-116533009D01*
X138554552Y-116497271D01*
X138637814Y-116395814D01*
X138755110Y-116299553D01*
X138775009Y-116283222D01*
X138906330Y-116213029D01*
X138931532Y-116199558D01*
X138931534Y-116199557D01*
X139101373Y-116148037D01*
X139167558Y-116141518D01*
X139233740Y-116135000D01*
X139322260Y-116135000D01*
X139388442Y-116141518D01*
X139388442Y-116141518D01*
G37*
G36*
X134308442Y-116141518D02*
G01*
X134374627Y-116148037D01*
X134544466Y-116199557D01*
X134544468Y-116199558D01*
X134569670Y-116213029D01*
X134700991Y-116283222D01*
X134720890Y-116299553D01*
X134838186Y-116395814D01*
X134921448Y-116497271D01*
X134950778Y-116533009D01*
X135034443Y-116689534D01*
X135085963Y-116859373D01*
X135103359Y-117036000D01*
X135085963Y-117212627D01*
X135034443Y-117382466D01*
X134950778Y-117538991D01*
X134941286Y-117550557D01*
X134838186Y-117676186D01*
X134736729Y-117759448D01*
X134700991Y-117788778D01*
X134544466Y-117872443D01*
X134374627Y-117923963D01*
X134308443Y-117930481D01*
X134242260Y-117937000D01*
X134153740Y-117937000D01*
X134087557Y-117930481D01*
X134021373Y-117923963D01*
X133851534Y-117872443D01*
X133695009Y-117788778D01*
X133659271Y-117759448D01*
X133557814Y-117676186D01*
X133454714Y-117550557D01*
X133445222Y-117538991D01*
X133361557Y-117382466D01*
X133310037Y-117212627D01*
X133292641Y-117036000D01*
X133310037Y-116859373D01*
X133361557Y-116689534D01*
X133445222Y-116533009D01*
X133474552Y-116497271D01*
X133557814Y-116395814D01*
X133675110Y-116299553D01*
X133695009Y-116283222D01*
X133826330Y-116213029D01*
X133851532Y-116199558D01*
X133851534Y-116199557D01*
X134021373Y-116148037D01*
X134087558Y-116141518D01*
X134153740Y-116135000D01*
X134242260Y-116135000D01*
X134308442Y-116141518D01*
X134308442Y-116141518D01*
G37*
G36*
X131768442Y-116141518D02*
G01*
X131834627Y-116148037D01*
X132004466Y-116199557D01*
X132004468Y-116199558D01*
X132029670Y-116213029D01*
X132160991Y-116283222D01*
X132180890Y-116299553D01*
X132298186Y-116395814D01*
X132381448Y-116497271D01*
X132410778Y-116533009D01*
X132494443Y-116689534D01*
X132545963Y-116859373D01*
X132563359Y-117036000D01*
X132545963Y-117212627D01*
X132494443Y-117382466D01*
X132410778Y-117538991D01*
X132401286Y-117550557D01*
X132298186Y-117676186D01*
X132196729Y-117759448D01*
X132160991Y-117788778D01*
X132004466Y-117872443D01*
X131834627Y-117923963D01*
X131768443Y-117930481D01*
X131702260Y-117937000D01*
X131613740Y-117937000D01*
X131547557Y-117930481D01*
X131481373Y-117923963D01*
X131311534Y-117872443D01*
X131155009Y-117788778D01*
X131119271Y-117759448D01*
X131017814Y-117676186D01*
X130914714Y-117550557D01*
X130905222Y-117538991D01*
X130821557Y-117382466D01*
X130770037Y-117212627D01*
X130752641Y-117036000D01*
X130770037Y-116859373D01*
X130821557Y-116689534D01*
X130905222Y-116533009D01*
X130934552Y-116497271D01*
X131017814Y-116395814D01*
X131135110Y-116299553D01*
X131155009Y-116283222D01*
X131286330Y-116213029D01*
X131311532Y-116199558D01*
X131311534Y-116199557D01*
X131481373Y-116148037D01*
X131547558Y-116141518D01*
X131613740Y-116135000D01*
X131702260Y-116135000D01*
X131768442Y-116141518D01*
X131768442Y-116141518D01*
G37*
G36*
X129228442Y-116141518D02*
G01*
X129294627Y-116148037D01*
X129464466Y-116199557D01*
X129464468Y-116199558D01*
X129489670Y-116213029D01*
X129620991Y-116283222D01*
X129640890Y-116299553D01*
X129758186Y-116395814D01*
X129841448Y-116497271D01*
X129870778Y-116533009D01*
X129954443Y-116689534D01*
X130005963Y-116859373D01*
X130023359Y-117036000D01*
X130005963Y-117212627D01*
X129954443Y-117382466D01*
X129870778Y-117538991D01*
X129861286Y-117550557D01*
X129758186Y-117676186D01*
X129656729Y-117759448D01*
X129620991Y-117788778D01*
X129464466Y-117872443D01*
X129294627Y-117923963D01*
X129228443Y-117930481D01*
X129162260Y-117937000D01*
X129073740Y-117937000D01*
X129007557Y-117930481D01*
X128941373Y-117923963D01*
X128771534Y-117872443D01*
X128615009Y-117788778D01*
X128579271Y-117759448D01*
X128477814Y-117676186D01*
X128374714Y-117550557D01*
X128365222Y-117538991D01*
X128281557Y-117382466D01*
X128230037Y-117212627D01*
X128212641Y-117036000D01*
X128230037Y-116859373D01*
X128281557Y-116689534D01*
X128365222Y-116533009D01*
X128394552Y-116497271D01*
X128477814Y-116395814D01*
X128595110Y-116299553D01*
X128615009Y-116283222D01*
X128746330Y-116213029D01*
X128771532Y-116199558D01*
X128771534Y-116199557D01*
X128941373Y-116148037D01*
X129007558Y-116141518D01*
X129073740Y-116135000D01*
X129162260Y-116135000D01*
X129228442Y-116141518D01*
X129228442Y-116141518D01*
G37*
G36*
X126688442Y-116141518D02*
G01*
X126754627Y-116148037D01*
X126924466Y-116199557D01*
X126924468Y-116199558D01*
X126949670Y-116213029D01*
X127080991Y-116283222D01*
X127100890Y-116299553D01*
X127218186Y-116395814D01*
X127301448Y-116497271D01*
X127330778Y-116533009D01*
X127414443Y-116689534D01*
X127465963Y-116859373D01*
X127483359Y-117036000D01*
X127465963Y-117212627D01*
X127414443Y-117382466D01*
X127330778Y-117538991D01*
X127321286Y-117550557D01*
X127218186Y-117676186D01*
X127116729Y-117759448D01*
X127080991Y-117788778D01*
X126924466Y-117872443D01*
X126754627Y-117923963D01*
X126688443Y-117930481D01*
X126622260Y-117937000D01*
X126533740Y-117937000D01*
X126467557Y-117930481D01*
X126401373Y-117923963D01*
X126231534Y-117872443D01*
X126075009Y-117788778D01*
X126039271Y-117759448D01*
X125937814Y-117676186D01*
X125834714Y-117550557D01*
X125825222Y-117538991D01*
X125741557Y-117382466D01*
X125690037Y-117212627D01*
X125672641Y-117036000D01*
X125690037Y-116859373D01*
X125741557Y-116689534D01*
X125825222Y-116533009D01*
X125854552Y-116497271D01*
X125937814Y-116395814D01*
X126055110Y-116299553D01*
X126075009Y-116283222D01*
X126206330Y-116213029D01*
X126231532Y-116199558D01*
X126231534Y-116199557D01*
X126401373Y-116148037D01*
X126467558Y-116141518D01*
X126533740Y-116135000D01*
X126622260Y-116135000D01*
X126688442Y-116141518D01*
X126688442Y-116141518D01*
G37*
G36*
X121608442Y-116141518D02*
G01*
X121674627Y-116148037D01*
X121844466Y-116199557D01*
X121844468Y-116199558D01*
X121869670Y-116213029D01*
X122000991Y-116283222D01*
X122020890Y-116299553D01*
X122138186Y-116395814D01*
X122221448Y-116497271D01*
X122250778Y-116533009D01*
X122334443Y-116689534D01*
X122385963Y-116859373D01*
X122403359Y-117036000D01*
X122385963Y-117212627D01*
X122334443Y-117382466D01*
X122250778Y-117538991D01*
X122241286Y-117550557D01*
X122138186Y-117676186D01*
X122036729Y-117759448D01*
X122000991Y-117788778D01*
X121844466Y-117872443D01*
X121674627Y-117923963D01*
X121608443Y-117930481D01*
X121542260Y-117937000D01*
X121453740Y-117937000D01*
X121387557Y-117930481D01*
X121321373Y-117923963D01*
X121151534Y-117872443D01*
X120995009Y-117788778D01*
X120959271Y-117759448D01*
X120857814Y-117676186D01*
X120754714Y-117550557D01*
X120745222Y-117538991D01*
X120661557Y-117382466D01*
X120610037Y-117212627D01*
X120592641Y-117036000D01*
X120610037Y-116859373D01*
X120661557Y-116689534D01*
X120745222Y-116533009D01*
X120774552Y-116497271D01*
X120857814Y-116395814D01*
X120975110Y-116299553D01*
X120995009Y-116283222D01*
X121126330Y-116213029D01*
X121151532Y-116199558D01*
X121151534Y-116199557D01*
X121321373Y-116148037D01*
X121387558Y-116141518D01*
X121453740Y-116135000D01*
X121542260Y-116135000D01*
X121608442Y-116141518D01*
X121608442Y-116141518D01*
G37*
G36*
X119068442Y-116141518D02*
G01*
X119134627Y-116148037D01*
X119304466Y-116199557D01*
X119304468Y-116199558D01*
X119329670Y-116213029D01*
X119460991Y-116283222D01*
X119480890Y-116299553D01*
X119598186Y-116395814D01*
X119681448Y-116497271D01*
X119710778Y-116533009D01*
X119794443Y-116689534D01*
X119845963Y-116859373D01*
X119863359Y-117036000D01*
X119845963Y-117212627D01*
X119794443Y-117382466D01*
X119710778Y-117538991D01*
X119701286Y-117550557D01*
X119598186Y-117676186D01*
X119496729Y-117759448D01*
X119460991Y-117788778D01*
X119304466Y-117872443D01*
X119134627Y-117923963D01*
X119068443Y-117930481D01*
X119002260Y-117937000D01*
X118913740Y-117937000D01*
X118847557Y-117930481D01*
X118781373Y-117923963D01*
X118611534Y-117872443D01*
X118455009Y-117788778D01*
X118419271Y-117759448D01*
X118317814Y-117676186D01*
X118214714Y-117550557D01*
X118205222Y-117538991D01*
X118121557Y-117382466D01*
X118070037Y-117212627D01*
X118052641Y-117036000D01*
X118070037Y-116859373D01*
X118121557Y-116689534D01*
X118205222Y-116533009D01*
X118234552Y-116497271D01*
X118317814Y-116395814D01*
X118435110Y-116299553D01*
X118455009Y-116283222D01*
X118586330Y-116213029D01*
X118611532Y-116199558D01*
X118611534Y-116199557D01*
X118781373Y-116148037D01*
X118847558Y-116141518D01*
X118913740Y-116135000D01*
X119002260Y-116135000D01*
X119068442Y-116141518D01*
X119068442Y-116141518D01*
G37*
G36*
X116528442Y-116141518D02*
G01*
X116594627Y-116148037D01*
X116764466Y-116199557D01*
X116764468Y-116199558D01*
X116789670Y-116213029D01*
X116920991Y-116283222D01*
X116940890Y-116299553D01*
X117058186Y-116395814D01*
X117141448Y-116497271D01*
X117170778Y-116533009D01*
X117254443Y-116689534D01*
X117305963Y-116859373D01*
X117323359Y-117036000D01*
X117305963Y-117212627D01*
X117254443Y-117382466D01*
X117170778Y-117538991D01*
X117161286Y-117550557D01*
X117058186Y-117676186D01*
X116956729Y-117759448D01*
X116920991Y-117788778D01*
X116764466Y-117872443D01*
X116594627Y-117923963D01*
X116528443Y-117930481D01*
X116462260Y-117937000D01*
X116373740Y-117937000D01*
X116307557Y-117930481D01*
X116241373Y-117923963D01*
X116071534Y-117872443D01*
X115915009Y-117788778D01*
X115879271Y-117759448D01*
X115777814Y-117676186D01*
X115674714Y-117550557D01*
X115665222Y-117538991D01*
X115581557Y-117382466D01*
X115530037Y-117212627D01*
X115512641Y-117036000D01*
X115530037Y-116859373D01*
X115581557Y-116689534D01*
X115665222Y-116533009D01*
X115694552Y-116497271D01*
X115777814Y-116395814D01*
X115895110Y-116299553D01*
X115915009Y-116283222D01*
X116046330Y-116213029D01*
X116071532Y-116199558D01*
X116071534Y-116199557D01*
X116241373Y-116148037D01*
X116307558Y-116141518D01*
X116373740Y-116135000D01*
X116462260Y-116135000D01*
X116528442Y-116141518D01*
X116528442Y-116141518D01*
G37*
G36*
X108908442Y-116141518D02*
G01*
X108974627Y-116148037D01*
X109144466Y-116199557D01*
X109144468Y-116199558D01*
X109169670Y-116213029D01*
X109300991Y-116283222D01*
X109320890Y-116299553D01*
X109438186Y-116395814D01*
X109521448Y-116497271D01*
X109550778Y-116533009D01*
X109634443Y-116689534D01*
X109685963Y-116859373D01*
X109703359Y-117036000D01*
X109685963Y-117212627D01*
X109634443Y-117382466D01*
X109550778Y-117538991D01*
X109541286Y-117550557D01*
X109438186Y-117676186D01*
X109336729Y-117759448D01*
X109300991Y-117788778D01*
X109144466Y-117872443D01*
X108974627Y-117923963D01*
X108908443Y-117930481D01*
X108842260Y-117937000D01*
X108753740Y-117937000D01*
X108687557Y-117930481D01*
X108621373Y-117923963D01*
X108451534Y-117872443D01*
X108295009Y-117788778D01*
X108259271Y-117759448D01*
X108157814Y-117676186D01*
X108054714Y-117550557D01*
X108045222Y-117538991D01*
X107961557Y-117382466D01*
X107910037Y-117212627D01*
X107892641Y-117036000D01*
X107910037Y-116859373D01*
X107961557Y-116689534D01*
X108045222Y-116533009D01*
X108074552Y-116497271D01*
X108157814Y-116395814D01*
X108275110Y-116299553D01*
X108295009Y-116283222D01*
X108426330Y-116213029D01*
X108451532Y-116199558D01*
X108451534Y-116199557D01*
X108621373Y-116148037D01*
X108687558Y-116141518D01*
X108753740Y-116135000D01*
X108842260Y-116135000D01*
X108908442Y-116141518D01*
X108908442Y-116141518D01*
G37*
G36*
X113988442Y-116141518D02*
G01*
X114054627Y-116148037D01*
X114224466Y-116199557D01*
X114224468Y-116199558D01*
X114249670Y-116213029D01*
X114380991Y-116283222D01*
X114400890Y-116299553D01*
X114518186Y-116395814D01*
X114601448Y-116497271D01*
X114630778Y-116533009D01*
X114714443Y-116689534D01*
X114765963Y-116859373D01*
X114783359Y-117036000D01*
X114765963Y-117212627D01*
X114714443Y-117382466D01*
X114630778Y-117538991D01*
X114621286Y-117550557D01*
X114518186Y-117676186D01*
X114416729Y-117759448D01*
X114380991Y-117788778D01*
X114224466Y-117872443D01*
X114054627Y-117923963D01*
X113988443Y-117930481D01*
X113922260Y-117937000D01*
X113833740Y-117937000D01*
X113767557Y-117930481D01*
X113701373Y-117923963D01*
X113531534Y-117872443D01*
X113375009Y-117788778D01*
X113339271Y-117759448D01*
X113237814Y-117676186D01*
X113134714Y-117550557D01*
X113125222Y-117538991D01*
X113041557Y-117382466D01*
X112990037Y-117212627D01*
X112972641Y-117036000D01*
X112990037Y-116859373D01*
X113041557Y-116689534D01*
X113125222Y-116533009D01*
X113154552Y-116497271D01*
X113237814Y-116395814D01*
X113355110Y-116299553D01*
X113375009Y-116283222D01*
X113506330Y-116213029D01*
X113531532Y-116199558D01*
X113531534Y-116199557D01*
X113701373Y-116148037D01*
X113767558Y-116141518D01*
X113833740Y-116135000D01*
X113922260Y-116135000D01*
X113988442Y-116141518D01*
X113988442Y-116141518D01*
G37*
G36*
X111448442Y-116141518D02*
G01*
X111514627Y-116148037D01*
X111684466Y-116199557D01*
X111684468Y-116199558D01*
X111709670Y-116213029D01*
X111840991Y-116283222D01*
X111860890Y-116299553D01*
X111978186Y-116395814D01*
X112061448Y-116497271D01*
X112090778Y-116533009D01*
X112174443Y-116689534D01*
X112225963Y-116859373D01*
X112243359Y-117036000D01*
X112225963Y-117212627D01*
X112174443Y-117382466D01*
X112090778Y-117538991D01*
X112081286Y-117550557D01*
X111978186Y-117676186D01*
X111876729Y-117759448D01*
X111840991Y-117788778D01*
X111684466Y-117872443D01*
X111514627Y-117923963D01*
X111448443Y-117930481D01*
X111382260Y-117937000D01*
X111293740Y-117937000D01*
X111227557Y-117930481D01*
X111161373Y-117923963D01*
X110991534Y-117872443D01*
X110835009Y-117788778D01*
X110799271Y-117759448D01*
X110697814Y-117676186D01*
X110594714Y-117550557D01*
X110585222Y-117538991D01*
X110501557Y-117382466D01*
X110450037Y-117212627D01*
X110432641Y-117036000D01*
X110450037Y-116859373D01*
X110501557Y-116689534D01*
X110585222Y-116533009D01*
X110614552Y-116497271D01*
X110697814Y-116395814D01*
X110815110Y-116299553D01*
X110835009Y-116283222D01*
X110966330Y-116213029D01*
X110991532Y-116199558D01*
X110991534Y-116199557D01*
X111161373Y-116148037D01*
X111227558Y-116141518D01*
X111293740Y-116135000D01*
X111382260Y-116135000D01*
X111448442Y-116141518D01*
X111448442Y-116141518D01*
G37*
G36*
X124148442Y-116141518D02*
G01*
X124214627Y-116148037D01*
X124384466Y-116199557D01*
X124384468Y-116199558D01*
X124409670Y-116213029D01*
X124540991Y-116283222D01*
X124560890Y-116299553D01*
X124678186Y-116395814D01*
X124761448Y-116497271D01*
X124790778Y-116533009D01*
X124874443Y-116689534D01*
X124925963Y-116859373D01*
X124943359Y-117036000D01*
X124925963Y-117212627D01*
X124874443Y-117382466D01*
X124790778Y-117538991D01*
X124781286Y-117550557D01*
X124678186Y-117676186D01*
X124576729Y-117759448D01*
X124540991Y-117788778D01*
X124384466Y-117872443D01*
X124214627Y-117923963D01*
X124148443Y-117930481D01*
X124082260Y-117937000D01*
X123993740Y-117937000D01*
X123927557Y-117930481D01*
X123861373Y-117923963D01*
X123691534Y-117872443D01*
X123535009Y-117788778D01*
X123499271Y-117759448D01*
X123397814Y-117676186D01*
X123294714Y-117550557D01*
X123285222Y-117538991D01*
X123201557Y-117382466D01*
X123150037Y-117212627D01*
X123132641Y-117036000D01*
X123150037Y-116859373D01*
X123201557Y-116689534D01*
X123285222Y-116533009D01*
X123314552Y-116497271D01*
X123397814Y-116395814D01*
X123515110Y-116299553D01*
X123535009Y-116283222D01*
X123666330Y-116213029D01*
X123691532Y-116199558D01*
X123691534Y-116199557D01*
X123861373Y-116148037D01*
X123927558Y-116141518D01*
X123993740Y-116135000D01*
X124082260Y-116135000D01*
X124148442Y-116141518D01*
X124148442Y-116141518D01*
G37*
G36*
X148514938Y-116879716D02*
G01*
X148535557Y-116885971D01*
X148554553Y-116896124D01*
X148571208Y-116909792D01*
X148584876Y-116926447D01*
X148595029Y-116945443D01*
X148601284Y-116966062D01*
X148604000Y-116993640D01*
X148604000Y-117502360D01*
X148601284Y-117529938D01*
X148595029Y-117550557D01*
X148584876Y-117569553D01*
X148571208Y-117586208D01*
X148554553Y-117599876D01*
X148535557Y-117610029D01*
X148514938Y-117616284D01*
X148487360Y-117619000D01*
X148028640Y-117619000D01*
X148001062Y-117616284D01*
X147980443Y-117610029D01*
X147961447Y-117599876D01*
X147944792Y-117586208D01*
X147931124Y-117569553D01*
X147920971Y-117550557D01*
X147914716Y-117529938D01*
X147912000Y-117502360D01*
X147912000Y-116993640D01*
X147914716Y-116966062D01*
X147920971Y-116945443D01*
X147931124Y-116926447D01*
X147944792Y-116909792D01*
X147961447Y-116896124D01*
X147980443Y-116885971D01*
X148001062Y-116879716D01*
X148028640Y-116877000D01*
X148487360Y-116877000D01*
X148514938Y-116879716D01*
X148514938Y-116879716D01*
G37*
G36*
X149484938Y-116879716D02*
G01*
X149505557Y-116885971D01*
X149524553Y-116896124D01*
X149541208Y-116909792D01*
X149554876Y-116926447D01*
X149565029Y-116945443D01*
X149571284Y-116966062D01*
X149574000Y-116993640D01*
X149574000Y-117502360D01*
X149571284Y-117529938D01*
X149565029Y-117550557D01*
X149554876Y-117569553D01*
X149541208Y-117586208D01*
X149524553Y-117599876D01*
X149505557Y-117610029D01*
X149484938Y-117616284D01*
X149457360Y-117619000D01*
X148998640Y-117619000D01*
X148971062Y-117616284D01*
X148950443Y-117610029D01*
X148931447Y-117599876D01*
X148914792Y-117586208D01*
X148901124Y-117569553D01*
X148890971Y-117550557D01*
X148884716Y-117529938D01*
X148882000Y-117502360D01*
X148882000Y-116993640D01*
X148884716Y-116966062D01*
X148890971Y-116945443D01*
X148901124Y-116926447D01*
X148914792Y-116909792D01*
X148931447Y-116896124D01*
X148950443Y-116885971D01*
X148971062Y-116879716D01*
X148998640Y-116877000D01*
X149457360Y-116877000D01*
X149484938Y-116879716D01*
X149484938Y-116879716D01*
G37*
G36*
X147660938Y-115609716D02*
G01*
X147681557Y-115615971D01*
X147700553Y-115626124D01*
X147717208Y-115639792D01*
X147730876Y-115656447D01*
X147741029Y-115675443D01*
X147747284Y-115696062D01*
X147750000Y-115723640D01*
X147750000Y-116232360D01*
X147747284Y-116259938D01*
X147741029Y-116280557D01*
X147730876Y-116299553D01*
X147717208Y-116316208D01*
X147700553Y-116329876D01*
X147681557Y-116340029D01*
X147660938Y-116346284D01*
X147633360Y-116349000D01*
X147174640Y-116349000D01*
X147147062Y-116346284D01*
X147126443Y-116340029D01*
X147107447Y-116329876D01*
X147090792Y-116316208D01*
X147077124Y-116299553D01*
X147066971Y-116280557D01*
X147060716Y-116259938D01*
X147058000Y-116232360D01*
X147058000Y-115723640D01*
X147060716Y-115696062D01*
X147066971Y-115675443D01*
X147077124Y-115656447D01*
X147090792Y-115639792D01*
X147107447Y-115626124D01*
X147126443Y-115615971D01*
X147147062Y-115609716D01*
X147174640Y-115607000D01*
X147633360Y-115607000D01*
X147660938Y-115609716D01*
X147660938Y-115609716D01*
G37*
G36*
X146690938Y-115609716D02*
G01*
X146711557Y-115615971D01*
X146730553Y-115626124D01*
X146747208Y-115639792D01*
X146760876Y-115656447D01*
X146771029Y-115675443D01*
X146777284Y-115696062D01*
X146780000Y-115723640D01*
X146780000Y-116232360D01*
X146777284Y-116259938D01*
X146771029Y-116280557D01*
X146760876Y-116299553D01*
X146747208Y-116316208D01*
X146730553Y-116329876D01*
X146711557Y-116340029D01*
X146690938Y-116346284D01*
X146663360Y-116349000D01*
X146204640Y-116349000D01*
X146177062Y-116346284D01*
X146156443Y-116340029D01*
X146137447Y-116329876D01*
X146120792Y-116316208D01*
X146107124Y-116299553D01*
X146096971Y-116280557D01*
X146090716Y-116259938D01*
X146088000Y-116232360D01*
X146088000Y-115723640D01*
X146090716Y-115696062D01*
X146096971Y-115675443D01*
X146107124Y-115656447D01*
X146120792Y-115639792D01*
X146137447Y-115626124D01*
X146156443Y-115615971D01*
X146177062Y-115609716D01*
X146204640Y-115607000D01*
X146663360Y-115607000D01*
X146690938Y-115609716D01*
X146690938Y-115609716D01*
G37*
G36*
X151262938Y-115482716D02*
G01*
X151283557Y-115488971D01*
X151302553Y-115499124D01*
X151319208Y-115512792D01*
X151332876Y-115529447D01*
X151343029Y-115548443D01*
X151349284Y-115569062D01*
X151352000Y-115596640D01*
X151352000Y-116105360D01*
X151349284Y-116132938D01*
X151343029Y-116153557D01*
X151332876Y-116172553D01*
X151319208Y-116189208D01*
X151302553Y-116202876D01*
X151283557Y-116213029D01*
X151262938Y-116219284D01*
X151235360Y-116222000D01*
X150776640Y-116222000D01*
X150749062Y-116219284D01*
X150728443Y-116213029D01*
X150709447Y-116202876D01*
X150692792Y-116189208D01*
X150679124Y-116172553D01*
X150668971Y-116153557D01*
X150662716Y-116132938D01*
X150660000Y-116105360D01*
X150660000Y-115596640D01*
X150662716Y-115569062D01*
X150668971Y-115548443D01*
X150679124Y-115529447D01*
X150692792Y-115512792D01*
X150709447Y-115499124D01*
X150728443Y-115488971D01*
X150749062Y-115482716D01*
X150776640Y-115480000D01*
X151235360Y-115480000D01*
X151262938Y-115482716D01*
X151262938Y-115482716D01*
G37*
G36*
X150292938Y-115482716D02*
G01*
X150313557Y-115488971D01*
X150332553Y-115499124D01*
X150349208Y-115512792D01*
X150362876Y-115529447D01*
X150373029Y-115548443D01*
X150379284Y-115569062D01*
X150382000Y-115596640D01*
X150382000Y-116105360D01*
X150379284Y-116132938D01*
X150373029Y-116153557D01*
X150362876Y-116172553D01*
X150349208Y-116189208D01*
X150332553Y-116202876D01*
X150313557Y-116213029D01*
X150292938Y-116219284D01*
X150265360Y-116222000D01*
X149806640Y-116222000D01*
X149779062Y-116219284D01*
X149758443Y-116213029D01*
X149739447Y-116202876D01*
X149722792Y-116189208D01*
X149709124Y-116172553D01*
X149698971Y-116153557D01*
X149692716Y-116132938D01*
X149690000Y-116105360D01*
X149690000Y-115596640D01*
X149692716Y-115569062D01*
X149698971Y-115548443D01*
X149709124Y-115529447D01*
X149722792Y-115512792D01*
X149739447Y-115499124D01*
X149758443Y-115488971D01*
X149779062Y-115482716D01*
X149806640Y-115480000D01*
X150265360Y-115480000D01*
X150292938Y-115482716D01*
X150292938Y-115482716D01*
G37*
G36*
X112560721Y-113670174D02*
G01*
X112660995Y-113711709D01*
X112660996Y-113711710D01*
X112751242Y-113772010D01*
X112827990Y-113848758D01*
X112827991Y-113848760D01*
X112888291Y-113939005D01*
X112929826Y-114039279D01*
X112951000Y-114145730D01*
X112951000Y-114254270D01*
X112929826Y-114360721D01*
X112888291Y-114460995D01*
X112888290Y-114460996D01*
X112827990Y-114551242D01*
X112751242Y-114627990D01*
X112730367Y-114641938D01*
X112660995Y-114688291D01*
X112560721Y-114729826D01*
X112454270Y-114751000D01*
X112345730Y-114751000D01*
X112239279Y-114729826D01*
X112139005Y-114688291D01*
X112069633Y-114641938D01*
X112048758Y-114627990D01*
X111972010Y-114551242D01*
X111911710Y-114460996D01*
X111911709Y-114460995D01*
X111870174Y-114360721D01*
X111849000Y-114254270D01*
X111849000Y-114145730D01*
X111870174Y-114039279D01*
X111911709Y-113939005D01*
X111972009Y-113848760D01*
X111972010Y-113848758D01*
X112048758Y-113772010D01*
X112139004Y-113711710D01*
X112139005Y-113711709D01*
X112239279Y-113670174D01*
X112345730Y-113649000D01*
X112454270Y-113649000D01*
X112560721Y-113670174D01*
X112560721Y-113670174D01*
G37*
G36*
X116060721Y-113670174D02*
G01*
X116160995Y-113711709D01*
X116160996Y-113711710D01*
X116251242Y-113772010D01*
X116327990Y-113848758D01*
X116327991Y-113848760D01*
X116388291Y-113939005D01*
X116429826Y-114039279D01*
X116451000Y-114145730D01*
X116451000Y-114254270D01*
X116429826Y-114360721D01*
X116388291Y-114460995D01*
X116388290Y-114460996D01*
X116327990Y-114551242D01*
X116251242Y-114627990D01*
X116230367Y-114641938D01*
X116160995Y-114688291D01*
X116060721Y-114729826D01*
X115954270Y-114751000D01*
X115845730Y-114751000D01*
X115739279Y-114729826D01*
X115639005Y-114688291D01*
X115569633Y-114641938D01*
X115548758Y-114627990D01*
X115472010Y-114551242D01*
X115411710Y-114460996D01*
X115411709Y-114460995D01*
X115370174Y-114360721D01*
X115349000Y-114254270D01*
X115349000Y-114145730D01*
X115370174Y-114039279D01*
X115411709Y-113939005D01*
X115472009Y-113848760D01*
X115472010Y-113848758D01*
X115548758Y-113772010D01*
X115639004Y-113711710D01*
X115639005Y-113711709D01*
X115739279Y-113670174D01*
X115845730Y-113649000D01*
X115954270Y-113649000D01*
X116060721Y-113670174D01*
X116060721Y-113670174D01*
G37*
G36*
X108960721Y-113670174D02*
G01*
X109060995Y-113711709D01*
X109060996Y-113711710D01*
X109151242Y-113772010D01*
X109227990Y-113848758D01*
X109227991Y-113848760D01*
X109288291Y-113939005D01*
X109329826Y-114039279D01*
X109351000Y-114145730D01*
X109351000Y-114254270D01*
X109329826Y-114360721D01*
X109288291Y-114460995D01*
X109288290Y-114460996D01*
X109227990Y-114551242D01*
X109151242Y-114627990D01*
X109130367Y-114641938D01*
X109060995Y-114688291D01*
X108960721Y-114729826D01*
X108854270Y-114751000D01*
X108745730Y-114751000D01*
X108639279Y-114729826D01*
X108539005Y-114688291D01*
X108469633Y-114641938D01*
X108448758Y-114627990D01*
X108372010Y-114551242D01*
X108311710Y-114460996D01*
X108311709Y-114460995D01*
X108270174Y-114360721D01*
X108249000Y-114254270D01*
X108249000Y-114145730D01*
X108270174Y-114039279D01*
X108311709Y-113939005D01*
X108372009Y-113848760D01*
X108372010Y-113848758D01*
X108448758Y-113772010D01*
X108539004Y-113711710D01*
X108539005Y-113711709D01*
X108639279Y-113670174D01*
X108745730Y-113649000D01*
X108854270Y-113649000D01*
X108960721Y-113670174D01*
X108960721Y-113670174D01*
G37*
G36*
X146181938Y-114041716D02*
G01*
X146202557Y-114047971D01*
X146221553Y-114058124D01*
X146238208Y-114071792D01*
X146251876Y-114088447D01*
X146262029Y-114107443D01*
X146268284Y-114128062D01*
X146271000Y-114155640D01*
X146271000Y-114614360D01*
X146268284Y-114641938D01*
X146262029Y-114662557D01*
X146251876Y-114681553D01*
X146238208Y-114698208D01*
X146221553Y-114711876D01*
X146202557Y-114722029D01*
X146181938Y-114728284D01*
X146154360Y-114731000D01*
X145645640Y-114731000D01*
X145618062Y-114728284D01*
X145597443Y-114722029D01*
X145578447Y-114711876D01*
X145561792Y-114698208D01*
X145548124Y-114681553D01*
X145537971Y-114662557D01*
X145531716Y-114641938D01*
X145529000Y-114614360D01*
X145529000Y-114155640D01*
X145531716Y-114128062D01*
X145537971Y-114107443D01*
X145548124Y-114088447D01*
X145561792Y-114071792D01*
X145578447Y-114058124D01*
X145597443Y-114047971D01*
X145618062Y-114041716D01*
X145645640Y-114039000D01*
X146154360Y-114039000D01*
X146181938Y-114041716D01*
X146181938Y-114041716D01*
G37*
G36*
X152021000Y-113456000D02*
G01*
X150138143Y-113456000D01*
X150113757Y-113458402D01*
X150090308Y-113465515D01*
X150068697Y-113477066D01*
X150049755Y-113492611D01*
X150034210Y-113511553D01*
X150022659Y-113533164D01*
X150015546Y-113556613D01*
X150013144Y-113580999D01*
X150015546Y-113605385D01*
X150022659Y-113628835D01*
X150039783Y-113670175D01*
X150040267Y-113671345D01*
X150071050Y-113826102D01*
X150071050Y-113983898D01*
X150040267Y-114138657D01*
X149979882Y-114284438D01*
X149979881Y-114284439D01*
X149892216Y-114415640D01*
X149780640Y-114527216D01*
X149744685Y-114551240D01*
X149649438Y-114614882D01*
X149503657Y-114675267D01*
X149348898Y-114706050D01*
X149191102Y-114706050D01*
X149036343Y-114675267D01*
X148890562Y-114614882D01*
X148795315Y-114551240D01*
X148759360Y-114527216D01*
X148647784Y-114415640D01*
X148560119Y-114284439D01*
X148560118Y-114284438D01*
X148499733Y-114138657D01*
X148468950Y-113983898D01*
X148468950Y-113826102D01*
X148499733Y-113671343D01*
X148560118Y-113525562D01*
X148607754Y-113454269D01*
X148647784Y-113394360D01*
X148759360Y-113282784D01*
X148890561Y-113195119D01*
X148890562Y-113195118D01*
X149036343Y-113134733D01*
X149191102Y-113103950D01*
X149348898Y-113103950D01*
X149503657Y-113134733D01*
X149649438Y-113195118D01*
X149649439Y-113195119D01*
X149780640Y-113282784D01*
X149892216Y-113394360D01*
X149892217Y-113394362D01*
X149894952Y-113397097D01*
X149905614Y-113410088D01*
X149924556Y-113425633D01*
X149946167Y-113437184D01*
X149969616Y-113444297D01*
X149994002Y-113446699D01*
X150018388Y-113444297D01*
X150041837Y-113437184D01*
X150063447Y-113425633D01*
X150082389Y-113410087D01*
X150097934Y-113391145D01*
X150109485Y-113369534D01*
X150116598Y-113346085D01*
X150119000Y-113321700D01*
X150119000Y-111554000D01*
X152021000Y-111554000D01*
X152021000Y-113456000D01*
X152021000Y-113456000D01*
G37*
G36*
X123760721Y-112870174D02*
G01*
X123860995Y-112911709D01*
X123860996Y-112911710D01*
X123951242Y-112972010D01*
X124027990Y-113048758D01*
X124027991Y-113048760D01*
X124088291Y-113139005D01*
X124129826Y-113239279D01*
X124151000Y-113345730D01*
X124151000Y-113454270D01*
X124129826Y-113560721D01*
X124088291Y-113660995D01*
X124081375Y-113671345D01*
X124027990Y-113751242D01*
X123951242Y-113827990D01*
X123920160Y-113848758D01*
X123860995Y-113888291D01*
X123760721Y-113929826D01*
X123654270Y-113951000D01*
X123545730Y-113951000D01*
X123439279Y-113929826D01*
X123339005Y-113888291D01*
X123279840Y-113848758D01*
X123248758Y-113827990D01*
X123172010Y-113751242D01*
X123118625Y-113671345D01*
X123111709Y-113660995D01*
X123070174Y-113560721D01*
X123049000Y-113454270D01*
X123049000Y-113345730D01*
X123070174Y-113239279D01*
X123111709Y-113139005D01*
X123172009Y-113048760D01*
X123172010Y-113048758D01*
X123248758Y-112972010D01*
X123339004Y-112911710D01*
X123339005Y-112911709D01*
X123439279Y-112870174D01*
X123545730Y-112849000D01*
X123654270Y-112849000D01*
X123760721Y-112870174D01*
X123760721Y-112870174D01*
G37*
G36*
X146181938Y-113071716D02*
G01*
X146202557Y-113077971D01*
X146221553Y-113088124D01*
X146238208Y-113101792D01*
X146251876Y-113118447D01*
X146262029Y-113137443D01*
X146268284Y-113158062D01*
X146271000Y-113185640D01*
X146271000Y-113644360D01*
X146268284Y-113671938D01*
X146262029Y-113692557D01*
X146251876Y-113711553D01*
X146238208Y-113728208D01*
X146221553Y-113741876D01*
X146202557Y-113752029D01*
X146181938Y-113758284D01*
X146154360Y-113761000D01*
X145645640Y-113761000D01*
X145618062Y-113758284D01*
X145597443Y-113752029D01*
X145578447Y-113741876D01*
X145561792Y-113728208D01*
X145548124Y-113711553D01*
X145537971Y-113692557D01*
X145531716Y-113671938D01*
X145529000Y-113644360D01*
X145529000Y-113185640D01*
X145531716Y-113158062D01*
X145537971Y-113137443D01*
X145548124Y-113118447D01*
X145561792Y-113101792D01*
X145578447Y-113088124D01*
X145597443Y-113077971D01*
X145618062Y-113071716D01*
X145645640Y-113069000D01*
X146154360Y-113069000D01*
X146181938Y-113071716D01*
X146181938Y-113071716D01*
G37*
G36*
X126434468Y-112253565D02*
G01*
X126473138Y-112265296D01*
X126508777Y-112284346D01*
X126540017Y-112309983D01*
X126565654Y-112341223D01*
X126584704Y-112376862D01*
X126596435Y-112415532D01*
X126601000Y-112461888D01*
X126601000Y-113538112D01*
X126596435Y-113584468D01*
X126584704Y-113623138D01*
X126565654Y-113658777D01*
X126540017Y-113690017D01*
X126508777Y-113715654D01*
X126473138Y-113734704D01*
X126434468Y-113746435D01*
X126388112Y-113751000D01*
X125736888Y-113751000D01*
X125690532Y-113746435D01*
X125651862Y-113734704D01*
X125616223Y-113715654D01*
X125584983Y-113690017D01*
X125559346Y-113658777D01*
X125540296Y-113623138D01*
X125528565Y-113584468D01*
X125524000Y-113538112D01*
X125524000Y-112461888D01*
X125528565Y-112415532D01*
X125540296Y-112376862D01*
X125559346Y-112341223D01*
X125584983Y-112309983D01*
X125616223Y-112284346D01*
X125651862Y-112265296D01*
X125690532Y-112253565D01*
X125736888Y-112249000D01*
X126388112Y-112249000D01*
X126434468Y-112253565D01*
X126434468Y-112253565D01*
G37*
G36*
X128309468Y-112253565D02*
G01*
X128348138Y-112265296D01*
X128383777Y-112284346D01*
X128415017Y-112309983D01*
X128440654Y-112341223D01*
X128459704Y-112376862D01*
X128471435Y-112415532D01*
X128476000Y-112461888D01*
X128476000Y-113538112D01*
X128471435Y-113584468D01*
X128459704Y-113623138D01*
X128440654Y-113658777D01*
X128415017Y-113690017D01*
X128383777Y-113715654D01*
X128348138Y-113734704D01*
X128309468Y-113746435D01*
X128263112Y-113751000D01*
X127611888Y-113751000D01*
X127565532Y-113746435D01*
X127526862Y-113734704D01*
X127491223Y-113715654D01*
X127459983Y-113690017D01*
X127434346Y-113658777D01*
X127415296Y-113623138D01*
X127403565Y-113584468D01*
X127399000Y-113538112D01*
X127399000Y-112461888D01*
X127403565Y-112415532D01*
X127415296Y-112376862D01*
X127434346Y-112341223D01*
X127459983Y-112309983D01*
X127491223Y-112284346D01*
X127526862Y-112265296D01*
X127565532Y-112253565D01*
X127611888Y-112249000D01*
X128263112Y-112249000D01*
X128309468Y-112253565D01*
X128309468Y-112253565D01*
G37*
G36*
X137434468Y-111253565D02*
G01*
X137473138Y-111265296D01*
X137508777Y-111284346D01*
X137540017Y-111309983D01*
X137565654Y-111341223D01*
X137584704Y-111376862D01*
X137596435Y-111415532D01*
X137601000Y-111461888D01*
X137601000Y-112538112D01*
X137596435Y-112584468D01*
X137584704Y-112623138D01*
X137565654Y-112658777D01*
X137540017Y-112690017D01*
X137508777Y-112715654D01*
X137473138Y-112734704D01*
X137434468Y-112746435D01*
X137388112Y-112751000D01*
X136736888Y-112751000D01*
X136690532Y-112746435D01*
X136651862Y-112734704D01*
X136616223Y-112715654D01*
X136584983Y-112690017D01*
X136559346Y-112658777D01*
X136540296Y-112623138D01*
X136528565Y-112584468D01*
X136524000Y-112538112D01*
X136524000Y-111461888D01*
X136528565Y-111415532D01*
X136540296Y-111376862D01*
X136559346Y-111341223D01*
X136584983Y-111309983D01*
X136616223Y-111284346D01*
X136651862Y-111265296D01*
X136690532Y-111253565D01*
X136736888Y-111249000D01*
X137388112Y-111249000D01*
X137434468Y-111253565D01*
X137434468Y-111253565D01*
G37*
G36*
X139309468Y-111253565D02*
G01*
X139348138Y-111265296D01*
X139383777Y-111284346D01*
X139415017Y-111309983D01*
X139440654Y-111341223D01*
X139459704Y-111376862D01*
X139471435Y-111415532D01*
X139476000Y-111461888D01*
X139476000Y-112538112D01*
X139471435Y-112584468D01*
X139459704Y-112623138D01*
X139440654Y-112658777D01*
X139415017Y-112690017D01*
X139383777Y-112715654D01*
X139348138Y-112734704D01*
X139309468Y-112746435D01*
X139263112Y-112751000D01*
X138611888Y-112751000D01*
X138565532Y-112746435D01*
X138526862Y-112734704D01*
X138491223Y-112715654D01*
X138459983Y-112690017D01*
X138434346Y-112658777D01*
X138415296Y-112623138D01*
X138403565Y-112584468D01*
X138399000Y-112538112D01*
X138399000Y-111461888D01*
X138403565Y-111415532D01*
X138415296Y-111376862D01*
X138434346Y-111341223D01*
X138459983Y-111309983D01*
X138491223Y-111284346D01*
X138526862Y-111265296D01*
X138565532Y-111253565D01*
X138611888Y-111249000D01*
X139263112Y-111249000D01*
X139309468Y-111253565D01*
X139309468Y-111253565D01*
G37*
G36*
X134271938Y-111881716D02*
G01*
X134292557Y-111887971D01*
X134311553Y-111898124D01*
X134328208Y-111911792D01*
X134341876Y-111928447D01*
X134352029Y-111947443D01*
X134358284Y-111968062D01*
X134361000Y-111995640D01*
X134361000Y-112504360D01*
X134358284Y-112531938D01*
X134352029Y-112552557D01*
X134341876Y-112571553D01*
X134328208Y-112588208D01*
X134311553Y-112601876D01*
X134292557Y-112612029D01*
X134271938Y-112618284D01*
X134244360Y-112621000D01*
X133785640Y-112621000D01*
X133758062Y-112618284D01*
X133737443Y-112612029D01*
X133718447Y-112601876D01*
X133701792Y-112588208D01*
X133688124Y-112571553D01*
X133677971Y-112552557D01*
X133671716Y-112531938D01*
X133669000Y-112504360D01*
X133669000Y-111995640D01*
X133671716Y-111968062D01*
X133677971Y-111947443D01*
X133688124Y-111928447D01*
X133701792Y-111911792D01*
X133718447Y-111898124D01*
X133737443Y-111887971D01*
X133758062Y-111881716D01*
X133785640Y-111879000D01*
X134244360Y-111879000D01*
X134271938Y-111881716D01*
X134271938Y-111881716D01*
G37*
G36*
X135241938Y-111881716D02*
G01*
X135262557Y-111887971D01*
X135281553Y-111898124D01*
X135298208Y-111911792D01*
X135311876Y-111928447D01*
X135322029Y-111947443D01*
X135328284Y-111968062D01*
X135331000Y-111995640D01*
X135331000Y-112504360D01*
X135328284Y-112531938D01*
X135322029Y-112552557D01*
X135311876Y-112571553D01*
X135298208Y-112588208D01*
X135281553Y-112601876D01*
X135262557Y-112612029D01*
X135241938Y-112618284D01*
X135214360Y-112621000D01*
X134755640Y-112621000D01*
X134728062Y-112618284D01*
X134707443Y-112612029D01*
X134688447Y-112601876D01*
X134671792Y-112588208D01*
X134658124Y-112571553D01*
X134647971Y-112552557D01*
X134641716Y-112531938D01*
X134639000Y-112504360D01*
X134639000Y-111995640D01*
X134641716Y-111968062D01*
X134647971Y-111947443D01*
X134658124Y-111928447D01*
X134671792Y-111911792D01*
X134688447Y-111898124D01*
X134707443Y-111887971D01*
X134728062Y-111881716D01*
X134755640Y-111879000D01*
X135214360Y-111879000D01*
X135241938Y-111881716D01*
X135241938Y-111881716D01*
G37*
G36*
X115810938Y-111709716D02*
G01*
X115831557Y-111715971D01*
X115850553Y-111726124D01*
X115867208Y-111739792D01*
X115880876Y-111756447D01*
X115891029Y-111775443D01*
X115897284Y-111796062D01*
X115900000Y-111823640D01*
X115900000Y-112282360D01*
X115897284Y-112309938D01*
X115891029Y-112330557D01*
X115880876Y-112349553D01*
X115867208Y-112366208D01*
X115850553Y-112379876D01*
X115831557Y-112390029D01*
X115810938Y-112396284D01*
X115783360Y-112399000D01*
X115274640Y-112399000D01*
X115247062Y-112396284D01*
X115226443Y-112390029D01*
X115207447Y-112379876D01*
X115190792Y-112366208D01*
X115177124Y-112349553D01*
X115166971Y-112330557D01*
X115160716Y-112309938D01*
X115158000Y-112282360D01*
X115158000Y-111823640D01*
X115160716Y-111796062D01*
X115166971Y-111775443D01*
X115177124Y-111756447D01*
X115190792Y-111739792D01*
X115207447Y-111726124D01*
X115226443Y-111715971D01*
X115247062Y-111709716D01*
X115274640Y-111707000D01*
X115783360Y-111707000D01*
X115810938Y-111709716D01*
X115810938Y-111709716D01*
G37*
G36*
X148807395Y-110320546D02*
G01*
X148980466Y-110392234D01*
X149057818Y-110443919D01*
X149136227Y-110496310D01*
X149268690Y-110628773D01*
X149274836Y-110637971D01*
X149372766Y-110784534D01*
X149444454Y-110957605D01*
X149481000Y-111141333D01*
X149481000Y-111328667D01*
X149444454Y-111512395D01*
X149372766Y-111685466D01*
X149356156Y-111710324D01*
X149268690Y-111841227D01*
X149136227Y-111973690D01*
X149118109Y-111985796D01*
X148980466Y-112077766D01*
X148807395Y-112149454D01*
X148623667Y-112186000D01*
X148436333Y-112186000D01*
X148252605Y-112149454D01*
X148079534Y-112077766D01*
X147941891Y-111985796D01*
X147923773Y-111973690D01*
X147791310Y-111841227D01*
X147703844Y-111710324D01*
X147687234Y-111685466D01*
X147615546Y-111512395D01*
X147579000Y-111328667D01*
X147579000Y-111141333D01*
X147615546Y-110957605D01*
X147687234Y-110784534D01*
X147785164Y-110637971D01*
X147791310Y-110628773D01*
X147923773Y-110496310D01*
X148002182Y-110443919D01*
X148079534Y-110392234D01*
X148252605Y-110320546D01*
X148436333Y-110284000D01*
X148623667Y-110284000D01*
X148807395Y-110320546D01*
X148807395Y-110320546D01*
G37*
G36*
X122365000Y-112172000D02*
G01*
X117463000Y-112172000D01*
X117463000Y-111570000D01*
X122365000Y-111570000D01*
X122365000Y-112172000D01*
X122365000Y-112172000D01*
G37*
G36*
X129060721Y-110470174D02*
G01*
X129160995Y-110511709D01*
X129170133Y-110517815D01*
X129251242Y-110572010D01*
X129327990Y-110648758D01*
X129327991Y-110648760D01*
X129388291Y-110739005D01*
X129429826Y-110839279D01*
X129451000Y-110945730D01*
X129451000Y-111054270D01*
X129429826Y-111160721D01*
X129388291Y-111260995D01*
X129365986Y-111294377D01*
X129327990Y-111351242D01*
X129251242Y-111427990D01*
X129249730Y-111429000D01*
X129160995Y-111488291D01*
X129060721Y-111529826D01*
X128954270Y-111551000D01*
X128845730Y-111551000D01*
X128739279Y-111529826D01*
X128639005Y-111488291D01*
X128550270Y-111429000D01*
X128548758Y-111427990D01*
X128472010Y-111351242D01*
X128434014Y-111294377D01*
X128411709Y-111260995D01*
X128370174Y-111160721D01*
X128349000Y-111054270D01*
X128349000Y-110945730D01*
X128370174Y-110839279D01*
X128411709Y-110739005D01*
X128472009Y-110648760D01*
X128472010Y-110648758D01*
X128548758Y-110572010D01*
X128629867Y-110517815D01*
X128639005Y-110511709D01*
X128739279Y-110470174D01*
X128845730Y-110449000D01*
X128954270Y-110449000D01*
X129060721Y-110470174D01*
X129060721Y-110470174D01*
G37*
G36*
X141996893Y-109644184D02*
G01*
X142076627Y-109652037D01*
X142246466Y-109703557D01*
X142402991Y-109787222D01*
X142430652Y-109809923D01*
X142540186Y-109899814D01*
X142597785Y-109970000D01*
X142652778Y-110037009D01*
X142671481Y-110072000D01*
X142735034Y-110190897D01*
X142736443Y-110193534D01*
X142787963Y-110363373D01*
X142805359Y-110540000D01*
X142787963Y-110716627D01*
X142736443Y-110886466D01*
X142736442Y-110886468D01*
X142704765Y-110945731D01*
X142652778Y-111042991D01*
X142643522Y-111054269D01*
X142540186Y-111180186D01*
X142450772Y-111253565D01*
X142402991Y-111292778D01*
X142384696Y-111302557D01*
X142273433Y-111362029D01*
X142246466Y-111376443D01*
X142076627Y-111427963D01*
X142010443Y-111434481D01*
X141944260Y-111441000D01*
X141855740Y-111441000D01*
X141789557Y-111434481D01*
X141723373Y-111427963D01*
X141553534Y-111376443D01*
X141526568Y-111362029D01*
X141415304Y-111302557D01*
X141397009Y-111292778D01*
X141349228Y-111253565D01*
X141259814Y-111180186D01*
X141156478Y-111054269D01*
X141147222Y-111042991D01*
X141095235Y-110945731D01*
X141063558Y-110886468D01*
X141063557Y-110886466D01*
X141012037Y-110716627D01*
X140994641Y-110540000D01*
X141012037Y-110363373D01*
X141063557Y-110193534D01*
X141064967Y-110190897D01*
X141128519Y-110072000D01*
X141147222Y-110037009D01*
X141202215Y-109970000D01*
X141259814Y-109899814D01*
X141369348Y-109809923D01*
X141397009Y-109787222D01*
X141553534Y-109703557D01*
X141723373Y-109652037D01*
X141803107Y-109644184D01*
X141855740Y-109639000D01*
X141944260Y-109639000D01*
X141996893Y-109644184D01*
X141996893Y-109644184D01*
G37*
G36*
X144536893Y-109644184D02*
G01*
X144616627Y-109652037D01*
X144786466Y-109703557D01*
X144942991Y-109787222D01*
X144970652Y-109809923D01*
X145080186Y-109899814D01*
X145137785Y-109970000D01*
X145192778Y-110037009D01*
X145211481Y-110072000D01*
X145275034Y-110190897D01*
X145276443Y-110193534D01*
X145327963Y-110363373D01*
X145345359Y-110540000D01*
X145327963Y-110716627D01*
X145276443Y-110886466D01*
X145276442Y-110886468D01*
X145244765Y-110945731D01*
X145192778Y-111042991D01*
X145183522Y-111054269D01*
X145080186Y-111180186D01*
X144990772Y-111253565D01*
X144942991Y-111292778D01*
X144924696Y-111302557D01*
X144813433Y-111362029D01*
X144786466Y-111376443D01*
X144616627Y-111427963D01*
X144550443Y-111434481D01*
X144484260Y-111441000D01*
X144395740Y-111441000D01*
X144329557Y-111434481D01*
X144263373Y-111427963D01*
X144093534Y-111376443D01*
X144066568Y-111362029D01*
X143955304Y-111302557D01*
X143937009Y-111292778D01*
X143889228Y-111253565D01*
X143799814Y-111180186D01*
X143696478Y-111054269D01*
X143687222Y-111042991D01*
X143635235Y-110945731D01*
X143603558Y-110886468D01*
X143603557Y-110886466D01*
X143552037Y-110716627D01*
X143534641Y-110540000D01*
X143552037Y-110363373D01*
X143603557Y-110193534D01*
X143604967Y-110190897D01*
X143668519Y-110072000D01*
X143687222Y-110037009D01*
X143742215Y-109970000D01*
X143799814Y-109899814D01*
X143909348Y-109809923D01*
X143937009Y-109787222D01*
X144093534Y-109703557D01*
X144263373Y-109652037D01*
X144343107Y-109644184D01*
X144395740Y-109639000D01*
X144484260Y-109639000D01*
X144536893Y-109644184D01*
X144536893Y-109644184D01*
G37*
G36*
X115810938Y-110739716D02*
G01*
X115831557Y-110745971D01*
X115850553Y-110756124D01*
X115867208Y-110769792D01*
X115880876Y-110786447D01*
X115891029Y-110805443D01*
X115897284Y-110826062D01*
X115900000Y-110853640D01*
X115900000Y-111312360D01*
X115897284Y-111339938D01*
X115891029Y-111360557D01*
X115880876Y-111379553D01*
X115867208Y-111396208D01*
X115850553Y-111409876D01*
X115831557Y-111420029D01*
X115810938Y-111426284D01*
X115783360Y-111429000D01*
X115274640Y-111429000D01*
X115247062Y-111426284D01*
X115226443Y-111420029D01*
X115207447Y-111409876D01*
X115190792Y-111396208D01*
X115177124Y-111379553D01*
X115166971Y-111360557D01*
X115160716Y-111339938D01*
X115158000Y-111312360D01*
X115158000Y-110853640D01*
X115160716Y-110826062D01*
X115166971Y-110805443D01*
X115177124Y-110786447D01*
X115190792Y-110769792D01*
X115207447Y-110756124D01*
X115226443Y-110745971D01*
X115247062Y-110739716D01*
X115274640Y-110737000D01*
X115783360Y-110737000D01*
X115810938Y-110739716D01*
X115810938Y-110739716D01*
G37*
G36*
X127241938Y-110631716D02*
G01*
X127262557Y-110637971D01*
X127281553Y-110648124D01*
X127298208Y-110661792D01*
X127311876Y-110678447D01*
X127322029Y-110697443D01*
X127328284Y-110718062D01*
X127331000Y-110745640D01*
X127331000Y-111254360D01*
X127328284Y-111281938D01*
X127322029Y-111302557D01*
X127311876Y-111321553D01*
X127298208Y-111338208D01*
X127281553Y-111351876D01*
X127262557Y-111362029D01*
X127241938Y-111368284D01*
X127214360Y-111371000D01*
X126755640Y-111371000D01*
X126728062Y-111368284D01*
X126707443Y-111362029D01*
X126688447Y-111351876D01*
X126671792Y-111338208D01*
X126658124Y-111321553D01*
X126647971Y-111302557D01*
X126641716Y-111281938D01*
X126639000Y-111254360D01*
X126639000Y-110745640D01*
X126641716Y-110718062D01*
X126647971Y-110697443D01*
X126658124Y-110678447D01*
X126671792Y-110661792D01*
X126688447Y-110648124D01*
X126707443Y-110637971D01*
X126728062Y-110631716D01*
X126755640Y-110629000D01*
X127214360Y-110629000D01*
X127241938Y-110631716D01*
X127241938Y-110631716D01*
G37*
G36*
X126271938Y-110631716D02*
G01*
X126292557Y-110637971D01*
X126311553Y-110648124D01*
X126328208Y-110661792D01*
X126341876Y-110678447D01*
X126352029Y-110697443D01*
X126358284Y-110718062D01*
X126361000Y-110745640D01*
X126361000Y-111254360D01*
X126358284Y-111281938D01*
X126352029Y-111302557D01*
X126341876Y-111321553D01*
X126328208Y-111338208D01*
X126311553Y-111351876D01*
X126292557Y-111362029D01*
X126271938Y-111368284D01*
X126244360Y-111371000D01*
X125785640Y-111371000D01*
X125758062Y-111368284D01*
X125737443Y-111362029D01*
X125718447Y-111351876D01*
X125701792Y-111338208D01*
X125688124Y-111321553D01*
X125677971Y-111302557D01*
X125671716Y-111281938D01*
X125669000Y-111254360D01*
X125669000Y-110745640D01*
X125671716Y-110718062D01*
X125677971Y-110697443D01*
X125688124Y-110678447D01*
X125701792Y-110661792D01*
X125718447Y-110648124D01*
X125737443Y-110637971D01*
X125758062Y-110631716D01*
X125785640Y-110629000D01*
X126244360Y-110629000D01*
X126271938Y-110631716D01*
X126271938Y-110631716D01*
G37*
G36*
X117215000Y-111322000D02*
G01*
X116613000Y-111322000D01*
X116613000Y-106420000D01*
X117215000Y-106420000D01*
X117215000Y-111322000D01*
X117215000Y-111322000D01*
G37*
G36*
X123215000Y-111322000D02*
G01*
X122613000Y-111322000D01*
X122613000Y-106420000D01*
X123215000Y-106420000D01*
X123215000Y-111322000D01*
X123215000Y-111322000D01*
G37*
G36*
X122265000Y-111222000D02*
G01*
X117563000Y-111222000D01*
X117563000Y-106520000D01*
X122265000Y-106520000D01*
X122265000Y-111222000D01*
X122265000Y-111222000D01*
G37*
G36*
X151347395Y-109050546D02*
G01*
X151520466Y-109122234D01*
X151574227Y-109158156D01*
X151676227Y-109226310D01*
X151808690Y-109358773D01*
X151808691Y-109358775D01*
X151912766Y-109514534D01*
X151984454Y-109687605D01*
X152021000Y-109871333D01*
X152021000Y-110058667D01*
X151984454Y-110242395D01*
X151912766Y-110415466D01*
X151873650Y-110474007D01*
X151808690Y-110571227D01*
X151676227Y-110703690D01*
X151623374Y-110739005D01*
X151520466Y-110807766D01*
X151347395Y-110879454D01*
X151163667Y-110916000D01*
X150976333Y-110916000D01*
X150792605Y-110879454D01*
X150619534Y-110807766D01*
X150516626Y-110739005D01*
X150463773Y-110703690D01*
X150331310Y-110571227D01*
X150266350Y-110474007D01*
X150227234Y-110415466D01*
X150155546Y-110242395D01*
X150119000Y-110058667D01*
X150119000Y-109871333D01*
X150155546Y-109687605D01*
X150227234Y-109514534D01*
X150331309Y-109358775D01*
X150331310Y-109358773D01*
X150463773Y-109226310D01*
X150565773Y-109158156D01*
X150619534Y-109122234D01*
X150792605Y-109050546D01*
X150976333Y-109014000D01*
X151163667Y-109014000D01*
X151347395Y-109050546D01*
X151347395Y-109050546D01*
G37*
G36*
X105345000Y-109663000D02*
G01*
X103462143Y-109663000D01*
X103437757Y-109665402D01*
X103414308Y-109672515D01*
X103392697Y-109684066D01*
X103373755Y-109699611D01*
X103358210Y-109718553D01*
X103346659Y-109740164D01*
X103339546Y-109763613D01*
X103337144Y-109787999D01*
X103339546Y-109812385D01*
X103346659Y-109835835D01*
X103361364Y-109871335D01*
X103364267Y-109878345D01*
X103395050Y-110033102D01*
X103395050Y-110190898D01*
X103364267Y-110345657D01*
X103303882Y-110491438D01*
X103286258Y-110517814D01*
X103216216Y-110622640D01*
X103104640Y-110734216D01*
X103051396Y-110769792D01*
X102973438Y-110821882D01*
X102827657Y-110882267D01*
X102672898Y-110913050D01*
X102515102Y-110913050D01*
X102360343Y-110882267D01*
X102214562Y-110821882D01*
X102136604Y-110769792D01*
X102083360Y-110734216D01*
X101971784Y-110622640D01*
X101901742Y-110517814D01*
X101884118Y-110491438D01*
X101823733Y-110345657D01*
X101792950Y-110190898D01*
X101792950Y-110033102D01*
X101823733Y-109878343D01*
X101884118Y-109732562D01*
X101936362Y-109654373D01*
X101971784Y-109601360D01*
X102083360Y-109489784D01*
X102191046Y-109417831D01*
X102214562Y-109402118D01*
X102360343Y-109341733D01*
X102515102Y-109310950D01*
X102672898Y-109310950D01*
X102827657Y-109341733D01*
X102973438Y-109402118D01*
X102996954Y-109417831D01*
X103104640Y-109489784D01*
X103216216Y-109601360D01*
X103216217Y-109601362D01*
X103218952Y-109604097D01*
X103229614Y-109617088D01*
X103248556Y-109632633D01*
X103270167Y-109644184D01*
X103293616Y-109651297D01*
X103318002Y-109653699D01*
X103342388Y-109651297D01*
X103365837Y-109644184D01*
X103387447Y-109632633D01*
X103406389Y-109617087D01*
X103421934Y-109598145D01*
X103433485Y-109576534D01*
X103440598Y-109553085D01*
X103443000Y-109528700D01*
X103443000Y-107761000D01*
X105345000Y-107761000D01*
X105345000Y-109663000D01*
X105345000Y-109663000D01*
G37*
G36*
X133664402Y-106776907D02*
G01*
X133683348Y-106782655D01*
X133702292Y-106788401D01*
X133737211Y-106807065D01*
X133767817Y-106832183D01*
X133778380Y-106845054D01*
X133795703Y-106862377D01*
X133816078Y-106875991D01*
X133838716Y-106885369D01*
X133862750Y-106890149D01*
X133887254Y-106890149D01*
X133911287Y-106885369D01*
X133933926Y-106875991D01*
X133954300Y-106862378D01*
X133971618Y-106845060D01*
X133982186Y-106832183D01*
X134012792Y-106807065D01*
X134047711Y-106788401D01*
X134066655Y-106782655D01*
X134085601Y-106776907D01*
X134120697Y-106773451D01*
X134125001Y-106773027D01*
X134125002Y-106773027D01*
X134164402Y-106776907D01*
X134183348Y-106782655D01*
X134202292Y-106788401D01*
X134237211Y-106807065D01*
X134267817Y-106832183D01*
X134278380Y-106845054D01*
X134295703Y-106862377D01*
X134316078Y-106875991D01*
X134338716Y-106885369D01*
X134362750Y-106890149D01*
X134387254Y-106890149D01*
X134411287Y-106885369D01*
X134433926Y-106875991D01*
X134454300Y-106862378D01*
X134471618Y-106845060D01*
X134482186Y-106832183D01*
X134512792Y-106807065D01*
X134547711Y-106788401D01*
X134566655Y-106782655D01*
X134585601Y-106776907D01*
X134620697Y-106773451D01*
X134625001Y-106773027D01*
X134625002Y-106773027D01*
X134664402Y-106776907D01*
X134683348Y-106782655D01*
X134702292Y-106788401D01*
X134737211Y-106807065D01*
X134767817Y-106832183D01*
X134778380Y-106845054D01*
X134795703Y-106862377D01*
X134816078Y-106875991D01*
X134838716Y-106885369D01*
X134862750Y-106890149D01*
X134887254Y-106890149D01*
X134911287Y-106885369D01*
X134933926Y-106875991D01*
X134954300Y-106862378D01*
X134971618Y-106845060D01*
X134982186Y-106832183D01*
X135012792Y-106807065D01*
X135047711Y-106788401D01*
X135066655Y-106782655D01*
X135085601Y-106776907D01*
X135120697Y-106773451D01*
X135125001Y-106773027D01*
X135125002Y-106773027D01*
X135164402Y-106776907D01*
X135183348Y-106782655D01*
X135202292Y-106788401D01*
X135237211Y-106807065D01*
X135267817Y-106832183D01*
X135292935Y-106862789D01*
X135310467Y-106895589D01*
X135311598Y-106897706D01*
X135323093Y-106935598D01*
X135326001Y-106965125D01*
X135326001Y-107434873D01*
X135323093Y-107464400D01*
X135323092Y-107464402D01*
X135311599Y-107502290D01*
X135292935Y-107537209D01*
X135292932Y-107537213D01*
X135291402Y-107540075D01*
X135282025Y-107562713D01*
X135277244Y-107586746D01*
X135277244Y-107611251D01*
X135282024Y-107635284D01*
X135291401Y-107657923D01*
X135305014Y-107678297D01*
X135322341Y-107695625D01*
X135342362Y-107709003D01*
X135347067Y-107717805D01*
X135362612Y-107736747D01*
X135381554Y-107752292D01*
X135403165Y-107763843D01*
X135426614Y-107770956D01*
X135451000Y-107773358D01*
X135475386Y-107770956D01*
X135498835Y-107763843D01*
X135509925Y-107758598D01*
X135512787Y-107757068D01*
X135512791Y-107757065D01*
X135547710Y-107738401D01*
X135550868Y-107737443D01*
X135585600Y-107726907D01*
X135615127Y-107723999D01*
X136084875Y-107723999D01*
X136114402Y-107726907D01*
X136132651Y-107732443D01*
X136152292Y-107738401D01*
X136187211Y-107757065D01*
X136217817Y-107782183D01*
X136242935Y-107812789D01*
X136261599Y-107847708D01*
X136262972Y-107852234D01*
X136273093Y-107885598D01*
X136276973Y-107924999D01*
X136273093Y-107964400D01*
X136273092Y-107964402D01*
X136261599Y-108002290D01*
X136242935Y-108037209D01*
X136217817Y-108067815D01*
X136204946Y-108078378D01*
X136187624Y-108095700D01*
X136174010Y-108116074D01*
X136164633Y-108138713D01*
X136159852Y-108162746D01*
X136159852Y-108187250D01*
X136164632Y-108211283D01*
X136174009Y-108233922D01*
X136187623Y-108254297D01*
X136204946Y-108271620D01*
X136217817Y-108282183D01*
X136242935Y-108312789D01*
X136261599Y-108347708D01*
X136263911Y-108355329D01*
X136273093Y-108385598D01*
X136276973Y-108424999D01*
X136273093Y-108464400D01*
X136273092Y-108464402D01*
X136261599Y-108502290D01*
X136242935Y-108537209D01*
X136217817Y-108567815D01*
X136204946Y-108578378D01*
X136187624Y-108595700D01*
X136174010Y-108616074D01*
X136164633Y-108638713D01*
X136159852Y-108662746D01*
X136159852Y-108687250D01*
X136164632Y-108711283D01*
X136174009Y-108733922D01*
X136187623Y-108754297D01*
X136204946Y-108771620D01*
X136217817Y-108782183D01*
X136242935Y-108812789D01*
X136251098Y-108828062D01*
X136261598Y-108847706D01*
X136273093Y-108885598D01*
X136276973Y-108924999D01*
X136273093Y-108964400D01*
X136270667Y-108972396D01*
X136261599Y-109002290D01*
X136242935Y-109037209D01*
X136217817Y-109067815D01*
X136204946Y-109078378D01*
X136187624Y-109095700D01*
X136174010Y-109116074D01*
X136164633Y-109138713D01*
X136159852Y-109162746D01*
X136159852Y-109187250D01*
X136164632Y-109211283D01*
X136174009Y-109233922D01*
X136187623Y-109254297D01*
X136204946Y-109271620D01*
X136217817Y-109282183D01*
X136242935Y-109312789D01*
X136258405Y-109341733D01*
X136261598Y-109347706D01*
X136273093Y-109385598D01*
X136276973Y-109424999D01*
X136273093Y-109464400D01*
X136273092Y-109464402D01*
X136261599Y-109502290D01*
X136242935Y-109537209D01*
X136217817Y-109567815D01*
X136187211Y-109592933D01*
X136152292Y-109611597D01*
X136134194Y-109617087D01*
X136114402Y-109623091D01*
X136084875Y-109625999D01*
X135615127Y-109625999D01*
X135585600Y-109623091D01*
X135547710Y-109611597D01*
X135543699Y-109609453D01*
X135512791Y-109592933D01*
X135512787Y-109592930D01*
X135509925Y-109591400D01*
X135487287Y-109582023D01*
X135463254Y-109577242D01*
X135438749Y-109577242D01*
X135414716Y-109582022D01*
X135392077Y-109591399D01*
X135371703Y-109605012D01*
X135354375Y-109622339D01*
X135340997Y-109642360D01*
X135332195Y-109647065D01*
X135313253Y-109662610D01*
X135297708Y-109681552D01*
X135286157Y-109703163D01*
X135279044Y-109726612D01*
X135276642Y-109750998D01*
X135279044Y-109775384D01*
X135286157Y-109798833D01*
X135291402Y-109809923D01*
X135292932Y-109812785D01*
X135292935Y-109812789D01*
X135305253Y-109835835D01*
X135311599Y-109847708D01*
X135323093Y-109885598D01*
X135326001Y-109915125D01*
X135326001Y-110384873D01*
X135323093Y-110414400D01*
X135322769Y-110415467D01*
X135311599Y-110452290D01*
X135292935Y-110487209D01*
X135267817Y-110517815D01*
X135237210Y-110542933D01*
X135202291Y-110561597D01*
X135183347Y-110567343D01*
X135164401Y-110573091D01*
X135129305Y-110576547D01*
X135125001Y-110576971D01*
X135125000Y-110576971D01*
X135085600Y-110573091D01*
X135066654Y-110567343D01*
X135047710Y-110561597D01*
X135012791Y-110542933D01*
X134982185Y-110517815D01*
X134971623Y-110504945D01*
X134954300Y-110487622D01*
X134933926Y-110474008D01*
X134911287Y-110464631D01*
X134887254Y-110459850D01*
X134862750Y-110459850D01*
X134838717Y-110464630D01*
X134816078Y-110474007D01*
X134795703Y-110487621D01*
X134778380Y-110504944D01*
X134767817Y-110517815D01*
X134737210Y-110542933D01*
X134702291Y-110561597D01*
X134683347Y-110567343D01*
X134664401Y-110573091D01*
X134629305Y-110576547D01*
X134625001Y-110576971D01*
X134625000Y-110576971D01*
X134585600Y-110573091D01*
X134566654Y-110567343D01*
X134547710Y-110561597D01*
X134512791Y-110542933D01*
X134482185Y-110517815D01*
X134471623Y-110504945D01*
X134454300Y-110487622D01*
X134433926Y-110474008D01*
X134411287Y-110464631D01*
X134387254Y-110459850D01*
X134362750Y-110459850D01*
X134338717Y-110464630D01*
X134316078Y-110474007D01*
X134295703Y-110487621D01*
X134278380Y-110504944D01*
X134267817Y-110517815D01*
X134237210Y-110542933D01*
X134202291Y-110561597D01*
X134183347Y-110567343D01*
X134164401Y-110573091D01*
X134129305Y-110576547D01*
X134125001Y-110576971D01*
X134125000Y-110576971D01*
X134085600Y-110573091D01*
X134066654Y-110567343D01*
X134047710Y-110561597D01*
X134012791Y-110542933D01*
X133982185Y-110517815D01*
X133971623Y-110504945D01*
X133954300Y-110487622D01*
X133933926Y-110474008D01*
X133911287Y-110464631D01*
X133887254Y-110459850D01*
X133862750Y-110459850D01*
X133838717Y-110464630D01*
X133816078Y-110474007D01*
X133795703Y-110487621D01*
X133778380Y-110504944D01*
X133767817Y-110517815D01*
X133737210Y-110542933D01*
X133702291Y-110561597D01*
X133683347Y-110567343D01*
X133664401Y-110573091D01*
X133629305Y-110576547D01*
X133625001Y-110576971D01*
X133625000Y-110576971D01*
X133585600Y-110573091D01*
X133566654Y-110567343D01*
X133547710Y-110561597D01*
X133512791Y-110542933D01*
X133482185Y-110517815D01*
X133457067Y-110487208D01*
X133438403Y-110452289D01*
X133426910Y-110414401D01*
X133426909Y-110414399D01*
X133424001Y-110384872D01*
X133424001Y-109915130D01*
X133426910Y-109885598D01*
X133438404Y-109847708D01*
X133444750Y-109835835D01*
X133457068Y-109812789D01*
X133457071Y-109812785D01*
X133458601Y-109809923D01*
X133467978Y-109787285D01*
X133472759Y-109763252D01*
X133472759Y-109738747D01*
X133467979Y-109714714D01*
X133458602Y-109692075D01*
X133444989Y-109671701D01*
X133427662Y-109654373D01*
X133407639Y-109640994D01*
X133402935Y-109632193D01*
X133387390Y-109613251D01*
X133368448Y-109597706D01*
X133346837Y-109586155D01*
X133323388Y-109579042D01*
X133299002Y-109576640D01*
X133274616Y-109579042D01*
X133251167Y-109586155D01*
X133240077Y-109591400D01*
X133237215Y-109592930D01*
X133237211Y-109592933D01*
X133206303Y-109609453D01*
X133202292Y-109611597D01*
X133164402Y-109623091D01*
X133134875Y-109625999D01*
X132665127Y-109625999D01*
X132635600Y-109623091D01*
X132615808Y-109617087D01*
X132597710Y-109611597D01*
X132562791Y-109592933D01*
X132532185Y-109567815D01*
X132507067Y-109537209D01*
X132488403Y-109502290D01*
X132476910Y-109464402D01*
X132476909Y-109464400D01*
X132473029Y-109424999D01*
X132476909Y-109385598D01*
X132488404Y-109347706D01*
X132491597Y-109341733D01*
X132507067Y-109312789D01*
X132532185Y-109282183D01*
X132545056Y-109271620D01*
X132562378Y-109254298D01*
X132575992Y-109233924D01*
X132585369Y-109211285D01*
X132590150Y-109187252D01*
X132590150Y-109162748D01*
X132585370Y-109138715D01*
X132575993Y-109116076D01*
X132562379Y-109095701D01*
X132545056Y-109078378D01*
X132532185Y-109067815D01*
X132507067Y-109037209D01*
X132488403Y-109002290D01*
X132479335Y-108972396D01*
X132476909Y-108964400D01*
X132473029Y-108924999D01*
X132476909Y-108885598D01*
X132488404Y-108847706D01*
X132498904Y-108828062D01*
X132507067Y-108812789D01*
X132532185Y-108782183D01*
X132545056Y-108771620D01*
X132562378Y-108754298D01*
X132575992Y-108733924D01*
X132585369Y-108711285D01*
X132590150Y-108687252D01*
X132590150Y-108662748D01*
X132585370Y-108638715D01*
X132575993Y-108616076D01*
X132562379Y-108595701D01*
X132545056Y-108578378D01*
X132532185Y-108567815D01*
X132507067Y-108537209D01*
X132488403Y-108502290D01*
X132476910Y-108464402D01*
X132476909Y-108464400D01*
X132473029Y-108424999D01*
X132476909Y-108385598D01*
X132486091Y-108355329D01*
X132488403Y-108347708D01*
X132507067Y-108312789D01*
X132532185Y-108282183D01*
X132545056Y-108271620D01*
X132562378Y-108254298D01*
X132575992Y-108233924D01*
X132585369Y-108211285D01*
X132590150Y-108187252D01*
X132590150Y-108162748D01*
X132585370Y-108138715D01*
X132575993Y-108116076D01*
X132562379Y-108095701D01*
X132545056Y-108078378D01*
X132532185Y-108067815D01*
X132507067Y-108037209D01*
X132488403Y-108002290D01*
X132476910Y-107964402D01*
X132476909Y-107964400D01*
X132473029Y-107924999D01*
X132476909Y-107885598D01*
X132487030Y-107852234D01*
X132488403Y-107847708D01*
X132507067Y-107812789D01*
X132532185Y-107782183D01*
X132562791Y-107757065D01*
X132597710Y-107738401D01*
X132617351Y-107732443D01*
X132635600Y-107726907D01*
X132665127Y-107723999D01*
X133134875Y-107723999D01*
X133164402Y-107726907D01*
X133199134Y-107737443D01*
X133202292Y-107738401D01*
X133237211Y-107757065D01*
X133237215Y-107757068D01*
X133240077Y-107758598D01*
X133262715Y-107767975D01*
X133286748Y-107772756D01*
X133311253Y-107772756D01*
X133335286Y-107767976D01*
X133357925Y-107758599D01*
X133378299Y-107744986D01*
X133395627Y-107727659D01*
X133409004Y-107707639D01*
X133417808Y-107702933D01*
X133436750Y-107687388D01*
X133452295Y-107668446D01*
X133463846Y-107646835D01*
X133470959Y-107623386D01*
X133473361Y-107599000D01*
X133470959Y-107574614D01*
X133463846Y-107551165D01*
X133458600Y-107540074D01*
X133457070Y-107537212D01*
X133457067Y-107537208D01*
X133438403Y-107502289D01*
X133426910Y-107464401D01*
X133426909Y-107464399D01*
X133424001Y-107434872D01*
X133424001Y-106965130D01*
X133426910Y-106935598D01*
X133438405Y-106897706D01*
X133439536Y-106895589D01*
X133457068Y-106862789D01*
X133482186Y-106832183D01*
X133512792Y-106807065D01*
X133547711Y-106788401D01*
X133566655Y-106782655D01*
X133585601Y-106776907D01*
X133620697Y-106773451D01*
X133625001Y-106773027D01*
X133625002Y-106773027D01*
X133664402Y-106776907D01*
X133664402Y-106776907D01*
G37*
G36*
X127238738Y-109131716D02*
G01*
X127259357Y-109137971D01*
X127278353Y-109148124D01*
X127295008Y-109161792D01*
X127308676Y-109178447D01*
X127318829Y-109197443D01*
X127325084Y-109218062D01*
X127327800Y-109245640D01*
X127327800Y-109754360D01*
X127325084Y-109781938D01*
X127318829Y-109802557D01*
X127308676Y-109821553D01*
X127295008Y-109838208D01*
X127278353Y-109851876D01*
X127259357Y-109862029D01*
X127238738Y-109868284D01*
X127211160Y-109871000D01*
X126752440Y-109871000D01*
X126724862Y-109868284D01*
X126704243Y-109862029D01*
X126685247Y-109851876D01*
X126668592Y-109838208D01*
X126654924Y-109821553D01*
X126644771Y-109802557D01*
X126638516Y-109781938D01*
X126635800Y-109754360D01*
X126635800Y-109245640D01*
X126638516Y-109218062D01*
X126644771Y-109197443D01*
X126654924Y-109178447D01*
X126668592Y-109161792D01*
X126685247Y-109148124D01*
X126704243Y-109137971D01*
X126724862Y-109131716D01*
X126752440Y-109129000D01*
X127211160Y-109129000D01*
X127238738Y-109131716D01*
X127238738Y-109131716D01*
G37*
G36*
X126268738Y-109131716D02*
G01*
X126289357Y-109137971D01*
X126308353Y-109148124D01*
X126325008Y-109161792D01*
X126338676Y-109178447D01*
X126348829Y-109197443D01*
X126355084Y-109218062D01*
X126357800Y-109245640D01*
X126357800Y-109754360D01*
X126355084Y-109781938D01*
X126348829Y-109802557D01*
X126338676Y-109821553D01*
X126325008Y-109838208D01*
X126308353Y-109851876D01*
X126289357Y-109862029D01*
X126268738Y-109868284D01*
X126241160Y-109871000D01*
X125782440Y-109871000D01*
X125754862Y-109868284D01*
X125734243Y-109862029D01*
X125715247Y-109851876D01*
X125698592Y-109838208D01*
X125684924Y-109821553D01*
X125674771Y-109802557D01*
X125668516Y-109781938D01*
X125665800Y-109754360D01*
X125665800Y-109245640D01*
X125668516Y-109218062D01*
X125674771Y-109197443D01*
X125684924Y-109178447D01*
X125698592Y-109161792D01*
X125715247Y-109148124D01*
X125734243Y-109137971D01*
X125754862Y-109131716D01*
X125782440Y-109129000D01*
X126241160Y-109129000D01*
X126268738Y-109131716D01*
X126268738Y-109131716D01*
G37*
G36*
X115912938Y-108936716D02*
G01*
X115933557Y-108942971D01*
X115952553Y-108953124D01*
X115969208Y-108966792D01*
X115982876Y-108983447D01*
X115993029Y-109002443D01*
X115999284Y-109023062D01*
X116002000Y-109050640D01*
X116002000Y-109559360D01*
X115999284Y-109586938D01*
X115993029Y-109607557D01*
X115982876Y-109626553D01*
X115969208Y-109643208D01*
X115952553Y-109656876D01*
X115933557Y-109667029D01*
X115912938Y-109673284D01*
X115885360Y-109676000D01*
X115426640Y-109676000D01*
X115399062Y-109673284D01*
X115378443Y-109667029D01*
X115359447Y-109656876D01*
X115342792Y-109643208D01*
X115329124Y-109626553D01*
X115318971Y-109607557D01*
X115312716Y-109586938D01*
X115310000Y-109559360D01*
X115310000Y-109050640D01*
X115312716Y-109023062D01*
X115318971Y-109002443D01*
X115329124Y-108983447D01*
X115342792Y-108966792D01*
X115359447Y-108953124D01*
X115378443Y-108942971D01*
X115399062Y-108936716D01*
X115426640Y-108934000D01*
X115885360Y-108934000D01*
X115912938Y-108936716D01*
X115912938Y-108936716D01*
G37*
G36*
X114942938Y-108936716D02*
G01*
X114963557Y-108942971D01*
X114982553Y-108953124D01*
X114999208Y-108966792D01*
X115012876Y-108983447D01*
X115023029Y-109002443D01*
X115029284Y-109023062D01*
X115032000Y-109050640D01*
X115032000Y-109559360D01*
X115029284Y-109586938D01*
X115023029Y-109607557D01*
X115012876Y-109626553D01*
X114999208Y-109643208D01*
X114982553Y-109656876D01*
X114963557Y-109667029D01*
X114942938Y-109673284D01*
X114915360Y-109676000D01*
X114456640Y-109676000D01*
X114429062Y-109673284D01*
X114408443Y-109667029D01*
X114389447Y-109656876D01*
X114372792Y-109643208D01*
X114359124Y-109626553D01*
X114348971Y-109607557D01*
X114342716Y-109586938D01*
X114340000Y-109559360D01*
X114340000Y-109050640D01*
X114342716Y-109023062D01*
X114348971Y-109002443D01*
X114359124Y-108983447D01*
X114372792Y-108966792D01*
X114389447Y-108953124D01*
X114408443Y-108942971D01*
X114429062Y-108936716D01*
X114456640Y-108934000D01*
X114915360Y-108934000D01*
X114942938Y-108936716D01*
X114942938Y-108936716D01*
G37*
G36*
X148807395Y-107780546D02*
G01*
X148980466Y-107852234D01*
X149040677Y-107892466D01*
X149136227Y-107956310D01*
X149268690Y-108088773D01*
X149273318Y-108095700D01*
X149372766Y-108244534D01*
X149444454Y-108417605D01*
X149481000Y-108601333D01*
X149481000Y-108788667D01*
X149444454Y-108972395D01*
X149372766Y-109145466D01*
X149350729Y-109178447D01*
X149268690Y-109301227D01*
X149136227Y-109433690D01*
X149090266Y-109464400D01*
X148980466Y-109537766D01*
X148807395Y-109609454D01*
X148623667Y-109646000D01*
X148436333Y-109646000D01*
X148252605Y-109609454D01*
X148079534Y-109537766D01*
X147969734Y-109464400D01*
X147923773Y-109433690D01*
X147791310Y-109301227D01*
X147709271Y-109178447D01*
X147687234Y-109145466D01*
X147615546Y-108972395D01*
X147579000Y-108788667D01*
X147579000Y-108601333D01*
X147615546Y-108417605D01*
X147687234Y-108244534D01*
X147786682Y-108095700D01*
X147791310Y-108088773D01*
X147923773Y-107956310D01*
X148019323Y-107892466D01*
X148079534Y-107852234D01*
X148252605Y-107780546D01*
X148436333Y-107744000D01*
X148623667Y-107744000D01*
X148807395Y-107780546D01*
X148807395Y-107780546D01*
G37*
G36*
X138681938Y-108741716D02*
G01*
X138702557Y-108747971D01*
X138721553Y-108758124D01*
X138738208Y-108771792D01*
X138751876Y-108788447D01*
X138762029Y-108807443D01*
X138768284Y-108828062D01*
X138771000Y-108855640D01*
X138771000Y-109314360D01*
X138768284Y-109341938D01*
X138762029Y-109362557D01*
X138751876Y-109381553D01*
X138738208Y-109398208D01*
X138721553Y-109411876D01*
X138702557Y-109422029D01*
X138681938Y-109428284D01*
X138654360Y-109431000D01*
X138145640Y-109431000D01*
X138118062Y-109428284D01*
X138097443Y-109422029D01*
X138078447Y-109411876D01*
X138061792Y-109398208D01*
X138048124Y-109381553D01*
X138037971Y-109362557D01*
X138031716Y-109341938D01*
X138029000Y-109314360D01*
X138029000Y-108855640D01*
X138031716Y-108828062D01*
X138037971Y-108807443D01*
X138048124Y-108788447D01*
X138061792Y-108771792D01*
X138078447Y-108758124D01*
X138097443Y-108747971D01*
X138118062Y-108741716D01*
X138145640Y-108739000D01*
X138654360Y-108739000D01*
X138681938Y-108741716D01*
X138681938Y-108741716D01*
G37*
G36*
X131531938Y-108641716D02*
G01*
X131552557Y-108647971D01*
X131571553Y-108658124D01*
X131588208Y-108671792D01*
X131601876Y-108688447D01*
X131612029Y-108707443D01*
X131618284Y-108728062D01*
X131621000Y-108755640D01*
X131621000Y-109214360D01*
X131618284Y-109241938D01*
X131612029Y-109262557D01*
X131601876Y-109281553D01*
X131588208Y-109298208D01*
X131571553Y-109311876D01*
X131552557Y-109322029D01*
X131531938Y-109328284D01*
X131504360Y-109331000D01*
X130995640Y-109331000D01*
X130968062Y-109328284D01*
X130947443Y-109322029D01*
X130928447Y-109311876D01*
X130911792Y-109298208D01*
X130898124Y-109281553D01*
X130887971Y-109262557D01*
X130881716Y-109241938D01*
X130879000Y-109214360D01*
X130879000Y-108755640D01*
X130881716Y-108728062D01*
X130887971Y-108707443D01*
X130898124Y-108688447D01*
X130911792Y-108671792D01*
X130928447Y-108658124D01*
X130947443Y-108647971D01*
X130968062Y-108641716D01*
X130995640Y-108639000D01*
X131504360Y-108639000D01*
X131531938Y-108641716D01*
X131531938Y-108641716D01*
G37*
G36*
X142801000Y-108901000D02*
G01*
X140999000Y-108901000D01*
X140999000Y-107099000D01*
X142801000Y-107099000D01*
X142801000Y-108901000D01*
X142801000Y-108901000D01*
G37*
G36*
X144550443Y-107105519D02*
G01*
X144616627Y-107112037D01*
X144786466Y-107163557D01*
X144942991Y-107247222D01*
X144978729Y-107276552D01*
X145080186Y-107359814D01*
X145141784Y-107434873D01*
X145192778Y-107497009D01*
X145276443Y-107653534D01*
X145327963Y-107823373D01*
X145345359Y-108000000D01*
X145327963Y-108176627D01*
X145276443Y-108346466D01*
X145276442Y-108346468D01*
X145256320Y-108384114D01*
X145192778Y-108502991D01*
X145164697Y-108537207D01*
X145080186Y-108640186D01*
X144993550Y-108711285D01*
X144942991Y-108752778D01*
X144875852Y-108788665D01*
X144817229Y-108820000D01*
X144786466Y-108836443D01*
X144616627Y-108887963D01*
X144550442Y-108894482D01*
X144484260Y-108901000D01*
X144395740Y-108901000D01*
X144329558Y-108894482D01*
X144263373Y-108887963D01*
X144093534Y-108836443D01*
X144062772Y-108820000D01*
X144004148Y-108788665D01*
X143937009Y-108752778D01*
X143886450Y-108711285D01*
X143799814Y-108640186D01*
X143715303Y-108537207D01*
X143687222Y-108502991D01*
X143623680Y-108384114D01*
X143603558Y-108346468D01*
X143603557Y-108346466D01*
X143552037Y-108176627D01*
X143534641Y-108000000D01*
X143552037Y-107823373D01*
X143603557Y-107653534D01*
X143687222Y-107497009D01*
X143738216Y-107434873D01*
X143799814Y-107359814D01*
X143901271Y-107276552D01*
X143937009Y-107247222D01*
X144093534Y-107163557D01*
X144263373Y-107112037D01*
X144329557Y-107105519D01*
X144395740Y-107099000D01*
X144484260Y-107099000D01*
X144550443Y-107105519D01*
X144550443Y-107105519D01*
G37*
G36*
X138681938Y-107771716D02*
G01*
X138702557Y-107777971D01*
X138721553Y-107788124D01*
X138738208Y-107801792D01*
X138751876Y-107818447D01*
X138762029Y-107837443D01*
X138768284Y-107858062D01*
X138771000Y-107885640D01*
X138771000Y-108344360D01*
X138768284Y-108371938D01*
X138762029Y-108392557D01*
X138751876Y-108411553D01*
X138738208Y-108428208D01*
X138721553Y-108441876D01*
X138702557Y-108452029D01*
X138681938Y-108458284D01*
X138654360Y-108461000D01*
X138145640Y-108461000D01*
X138118062Y-108458284D01*
X138097443Y-108452029D01*
X138078447Y-108441876D01*
X138061792Y-108428208D01*
X138048124Y-108411553D01*
X138037971Y-108392557D01*
X138031716Y-108371938D01*
X138029000Y-108344360D01*
X138029000Y-107885640D01*
X138031716Y-107858062D01*
X138037971Y-107837443D01*
X138048124Y-107818447D01*
X138061792Y-107801792D01*
X138078447Y-107788124D01*
X138097443Y-107777971D01*
X138118062Y-107771716D01*
X138145640Y-107769000D01*
X138654360Y-107769000D01*
X138681938Y-107771716D01*
X138681938Y-107771716D01*
G37*
G36*
X114942938Y-107666716D02*
G01*
X114963557Y-107672971D01*
X114982553Y-107683124D01*
X114999208Y-107696792D01*
X115012876Y-107713447D01*
X115023029Y-107732443D01*
X115029284Y-107753062D01*
X115032000Y-107780640D01*
X115032000Y-108289360D01*
X115029284Y-108316938D01*
X115023029Y-108337557D01*
X115012876Y-108356553D01*
X114999208Y-108373208D01*
X114982553Y-108386876D01*
X114963557Y-108397029D01*
X114942938Y-108403284D01*
X114915360Y-108406000D01*
X114456640Y-108406000D01*
X114429062Y-108403284D01*
X114408443Y-108397029D01*
X114389447Y-108386876D01*
X114372792Y-108373208D01*
X114359124Y-108356553D01*
X114348971Y-108337557D01*
X114342716Y-108316938D01*
X114340000Y-108289360D01*
X114340000Y-107780640D01*
X114342716Y-107753062D01*
X114348971Y-107732443D01*
X114359124Y-107713447D01*
X114372792Y-107696792D01*
X114389447Y-107683124D01*
X114408443Y-107672971D01*
X114429062Y-107666716D01*
X114456640Y-107664000D01*
X114915360Y-107664000D01*
X114942938Y-107666716D01*
X114942938Y-107666716D01*
G37*
G36*
X115912938Y-107666716D02*
G01*
X115933557Y-107672971D01*
X115952553Y-107683124D01*
X115969208Y-107696792D01*
X115982876Y-107713447D01*
X115993029Y-107732443D01*
X115999284Y-107753062D01*
X116002000Y-107780640D01*
X116002000Y-108289360D01*
X115999284Y-108316938D01*
X115993029Y-108337557D01*
X115982876Y-108356553D01*
X115969208Y-108373208D01*
X115952553Y-108386876D01*
X115933557Y-108397029D01*
X115912938Y-108403284D01*
X115885360Y-108406000D01*
X115426640Y-108406000D01*
X115399062Y-108403284D01*
X115378443Y-108397029D01*
X115359447Y-108386876D01*
X115342792Y-108373208D01*
X115329124Y-108356553D01*
X115318971Y-108337557D01*
X115312716Y-108316938D01*
X115310000Y-108289360D01*
X115310000Y-107780640D01*
X115312716Y-107753062D01*
X115318971Y-107732443D01*
X115329124Y-107713447D01*
X115342792Y-107696792D01*
X115359447Y-107683124D01*
X115378443Y-107672971D01*
X115399062Y-107666716D01*
X115426640Y-107664000D01*
X115885360Y-107664000D01*
X115912938Y-107666716D01*
X115912938Y-107666716D01*
G37*
G36*
X102131395Y-106527546D02*
G01*
X102304466Y-106599234D01*
X102347610Y-106628062D01*
X102460227Y-106703310D01*
X102592690Y-106835773D01*
X102619563Y-106875991D01*
X102696766Y-106991534D01*
X102768454Y-107164605D01*
X102805000Y-107348333D01*
X102805000Y-107535667D01*
X102768454Y-107719395D01*
X102696766Y-107892466D01*
X102696765Y-107892467D01*
X102592690Y-108048227D01*
X102460227Y-108180690D01*
X102383808Y-108231751D01*
X102304466Y-108284766D01*
X102131395Y-108356454D01*
X101947667Y-108393000D01*
X101760333Y-108393000D01*
X101576605Y-108356454D01*
X101403534Y-108284766D01*
X101324192Y-108231751D01*
X101247773Y-108180690D01*
X101115310Y-108048227D01*
X101011235Y-107892467D01*
X101011234Y-107892466D01*
X100939546Y-107719395D01*
X100903000Y-107535667D01*
X100903000Y-107348333D01*
X100939546Y-107164605D01*
X101011234Y-106991534D01*
X101088437Y-106875991D01*
X101115310Y-106835773D01*
X101247773Y-106703310D01*
X101360390Y-106628062D01*
X101403534Y-106599234D01*
X101576605Y-106527546D01*
X101760333Y-106491000D01*
X101947667Y-106491000D01*
X102131395Y-106527546D01*
X102131395Y-106527546D01*
G37*
G36*
X126271938Y-107631716D02*
G01*
X126292557Y-107637971D01*
X126311553Y-107648124D01*
X126328208Y-107661792D01*
X126341876Y-107678447D01*
X126352029Y-107697443D01*
X126358284Y-107718062D01*
X126361000Y-107745640D01*
X126361000Y-108254360D01*
X126358284Y-108281938D01*
X126352029Y-108302557D01*
X126341876Y-108321553D01*
X126328208Y-108338208D01*
X126311553Y-108351876D01*
X126292557Y-108362029D01*
X126271938Y-108368284D01*
X126244360Y-108371000D01*
X125785640Y-108371000D01*
X125758062Y-108368284D01*
X125737443Y-108362029D01*
X125718447Y-108351876D01*
X125701792Y-108338208D01*
X125688124Y-108321553D01*
X125677971Y-108302557D01*
X125671716Y-108281938D01*
X125669000Y-108254360D01*
X125669000Y-107745640D01*
X125671716Y-107718062D01*
X125677971Y-107697443D01*
X125688124Y-107678447D01*
X125701792Y-107661792D01*
X125718447Y-107648124D01*
X125737443Y-107637971D01*
X125758062Y-107631716D01*
X125785640Y-107629000D01*
X126244360Y-107629000D01*
X126271938Y-107631716D01*
X126271938Y-107631716D01*
G37*
G36*
X127241938Y-107631716D02*
G01*
X127262557Y-107637971D01*
X127281553Y-107648124D01*
X127298208Y-107661792D01*
X127311876Y-107678447D01*
X127322029Y-107697443D01*
X127328284Y-107718062D01*
X127331000Y-107745640D01*
X127331000Y-108254360D01*
X127328284Y-108281938D01*
X127322029Y-108302557D01*
X127311876Y-108321553D01*
X127298208Y-108338208D01*
X127281553Y-108351876D01*
X127262557Y-108362029D01*
X127241938Y-108368284D01*
X127214360Y-108371000D01*
X126755640Y-108371000D01*
X126728062Y-108368284D01*
X126707443Y-108362029D01*
X126688447Y-108351876D01*
X126671792Y-108338208D01*
X126658124Y-108321553D01*
X126647971Y-108302557D01*
X126641716Y-108281938D01*
X126639000Y-108254360D01*
X126639000Y-107745640D01*
X126641716Y-107718062D01*
X126647971Y-107697443D01*
X126658124Y-107678447D01*
X126671792Y-107661792D01*
X126688447Y-107648124D01*
X126707443Y-107637971D01*
X126728062Y-107631716D01*
X126755640Y-107629000D01*
X127214360Y-107629000D01*
X127241938Y-107631716D01*
X127241938Y-107631716D01*
G37*
G36*
X131531938Y-107671716D02*
G01*
X131552557Y-107677971D01*
X131571553Y-107688124D01*
X131588208Y-107701792D01*
X131601876Y-107718447D01*
X131612029Y-107737443D01*
X131618284Y-107758062D01*
X131621000Y-107785640D01*
X131621000Y-108244360D01*
X131618284Y-108271938D01*
X131612029Y-108292557D01*
X131601876Y-108311553D01*
X131588208Y-108328208D01*
X131571553Y-108341876D01*
X131552557Y-108352029D01*
X131531938Y-108358284D01*
X131504360Y-108361000D01*
X130995640Y-108361000D01*
X130968062Y-108358284D01*
X130947443Y-108352029D01*
X130928447Y-108341876D01*
X130911792Y-108328208D01*
X130898124Y-108311553D01*
X130887971Y-108292557D01*
X130881716Y-108271938D01*
X130879000Y-108244360D01*
X130879000Y-107785640D01*
X130881716Y-107758062D01*
X130887971Y-107737443D01*
X130898124Y-107718447D01*
X130911792Y-107701792D01*
X130928447Y-107688124D01*
X130947443Y-107677971D01*
X130968062Y-107671716D01*
X130995640Y-107669000D01*
X131504360Y-107669000D01*
X131531938Y-107671716D01*
X131531938Y-107671716D01*
G37*
G36*
X129060721Y-106770174D02*
G01*
X129160995Y-106811709D01*
X129191635Y-106832182D01*
X129251242Y-106872010D01*
X129327990Y-106948758D01*
X129327991Y-106948760D01*
X129388291Y-107039005D01*
X129429826Y-107139279D01*
X129451000Y-107245730D01*
X129451000Y-107354270D01*
X129429826Y-107460721D01*
X129388291Y-107560995D01*
X129388290Y-107560996D01*
X129327990Y-107651242D01*
X129251242Y-107727990D01*
X129214871Y-107752292D01*
X129160995Y-107788291D01*
X129060721Y-107829826D01*
X128954270Y-107851000D01*
X128845730Y-107851000D01*
X128739279Y-107829826D01*
X128639005Y-107788291D01*
X128585129Y-107752292D01*
X128548758Y-107727990D01*
X128472010Y-107651242D01*
X128411710Y-107560996D01*
X128411709Y-107560995D01*
X128370174Y-107460721D01*
X128349000Y-107354270D01*
X128349000Y-107245730D01*
X128370174Y-107139279D01*
X128411709Y-107039005D01*
X128472009Y-106948760D01*
X128472010Y-106948758D01*
X128548758Y-106872010D01*
X128608365Y-106832182D01*
X128639005Y-106811709D01*
X128739279Y-106770174D01*
X128845730Y-106749000D01*
X128954270Y-106749000D01*
X129060721Y-106770174D01*
X129060721Y-106770174D01*
G37*
G36*
X124531938Y-106641716D02*
G01*
X124552557Y-106647971D01*
X124571553Y-106658124D01*
X124588208Y-106671792D01*
X124601876Y-106688447D01*
X124612029Y-106707443D01*
X124618284Y-106728062D01*
X124621000Y-106755640D01*
X124621000Y-107214360D01*
X124618284Y-107241938D01*
X124612029Y-107262557D01*
X124601876Y-107281553D01*
X124588208Y-107298208D01*
X124571553Y-107311876D01*
X124552557Y-107322029D01*
X124531938Y-107328284D01*
X124504360Y-107331000D01*
X123995640Y-107331000D01*
X123968062Y-107328284D01*
X123947443Y-107322029D01*
X123928447Y-107311876D01*
X123911792Y-107298208D01*
X123898124Y-107281553D01*
X123887971Y-107262557D01*
X123881716Y-107241938D01*
X123879000Y-107214360D01*
X123879000Y-106755640D01*
X123881716Y-106728062D01*
X123887971Y-106707443D01*
X123898124Y-106688447D01*
X123911792Y-106671792D01*
X123928447Y-106658124D01*
X123947443Y-106647971D01*
X123968062Y-106641716D01*
X123995640Y-106639000D01*
X124504360Y-106639000D01*
X124531938Y-106641716D01*
X124531938Y-106641716D01*
G37*
G36*
X138681938Y-106541716D02*
G01*
X138702557Y-106547971D01*
X138721553Y-106558124D01*
X138738208Y-106571792D01*
X138751876Y-106588447D01*
X138762029Y-106607443D01*
X138768284Y-106628062D01*
X138771000Y-106655640D01*
X138771000Y-107114360D01*
X138768284Y-107141938D01*
X138762029Y-107162557D01*
X138751876Y-107181553D01*
X138738208Y-107198208D01*
X138721553Y-107211876D01*
X138702557Y-107222029D01*
X138681938Y-107228284D01*
X138654360Y-107231000D01*
X138145640Y-107231000D01*
X138118062Y-107228284D01*
X138097443Y-107222029D01*
X138078447Y-107211876D01*
X138061792Y-107198208D01*
X138048124Y-107181553D01*
X138037971Y-107162557D01*
X138031716Y-107141938D01*
X138029000Y-107114360D01*
X138029000Y-106655640D01*
X138031716Y-106628062D01*
X138037971Y-106607443D01*
X138048124Y-106588447D01*
X138061792Y-106571792D01*
X138078447Y-106558124D01*
X138097443Y-106547971D01*
X138118062Y-106541716D01*
X138145640Y-106539000D01*
X138654360Y-106539000D01*
X138681938Y-106541716D01*
X138681938Y-106541716D01*
G37*
G36*
X109648815Y-104637436D02*
G01*
X109660366Y-104659047D01*
X109675911Y-104677989D01*
X109694853Y-104693534D01*
X109716464Y-104705085D01*
X109739913Y-104712198D01*
X109764299Y-104714600D01*
X110617200Y-104714600D01*
X110617200Y-107121400D01*
X109764299Y-107121400D01*
X109739913Y-107123802D01*
X109716464Y-107130915D01*
X109694853Y-107142466D01*
X109675911Y-107158011D01*
X109660366Y-107176953D01*
X109648815Y-107198564D01*
X109644254Y-107213600D01*
X107779746Y-107213600D01*
X107775185Y-107198564D01*
X107763634Y-107176953D01*
X107748089Y-107158011D01*
X107729147Y-107142466D01*
X107707536Y-107130915D01*
X107684087Y-107123802D01*
X107659701Y-107121400D01*
X106806800Y-107121400D01*
X106806800Y-104714600D01*
X107659701Y-104714600D01*
X107684087Y-104712198D01*
X107707536Y-104705085D01*
X107729147Y-104693534D01*
X107748089Y-104677989D01*
X107763634Y-104659047D01*
X107775185Y-104637436D01*
X107779746Y-104622400D01*
X109644254Y-104622400D01*
X109648815Y-104637436D01*
X109648815Y-104637436D01*
G37*
G36*
X104671395Y-105257546D02*
G01*
X104844466Y-105329234D01*
X104921818Y-105380919D01*
X105000227Y-105433310D01*
X105132690Y-105565773D01*
X105169890Y-105621447D01*
X105236766Y-105721534D01*
X105308454Y-105894605D01*
X105345000Y-106078333D01*
X105345000Y-106265667D01*
X105308454Y-106449395D01*
X105236766Y-106622466D01*
X105223497Y-106642324D01*
X105132690Y-106778227D01*
X105000227Y-106910690D01*
X104943254Y-106948758D01*
X104844466Y-107014766D01*
X104671395Y-107086454D01*
X104487667Y-107123000D01*
X104300333Y-107123000D01*
X104116605Y-107086454D01*
X103943534Y-107014766D01*
X103844746Y-106948758D01*
X103787773Y-106910690D01*
X103655310Y-106778227D01*
X103564503Y-106642324D01*
X103551234Y-106622466D01*
X103479546Y-106449395D01*
X103443000Y-106265667D01*
X103443000Y-106078333D01*
X103479546Y-105894605D01*
X103551234Y-105721534D01*
X103618110Y-105621447D01*
X103655310Y-105565773D01*
X103787773Y-105433310D01*
X103866182Y-105380919D01*
X103943534Y-105329234D01*
X104116605Y-105257546D01*
X104300333Y-105221000D01*
X104487667Y-105221000D01*
X104671395Y-105257546D01*
X104671395Y-105257546D01*
G37*
G36*
X114942938Y-106269716D02*
G01*
X114963557Y-106275971D01*
X114982553Y-106286124D01*
X114999208Y-106299792D01*
X115012876Y-106316447D01*
X115023029Y-106335443D01*
X115029284Y-106356062D01*
X115032000Y-106383640D01*
X115032000Y-106892360D01*
X115029284Y-106919938D01*
X115023029Y-106940557D01*
X115012876Y-106959553D01*
X114999208Y-106976208D01*
X114982553Y-106989876D01*
X114963557Y-107000029D01*
X114942938Y-107006284D01*
X114915360Y-107009000D01*
X114456640Y-107009000D01*
X114429062Y-107006284D01*
X114408443Y-107000029D01*
X114389447Y-106989876D01*
X114372792Y-106976208D01*
X114359124Y-106959553D01*
X114348971Y-106940557D01*
X114342716Y-106919938D01*
X114340000Y-106892360D01*
X114340000Y-106383640D01*
X114342716Y-106356062D01*
X114348971Y-106335443D01*
X114359124Y-106316447D01*
X114372792Y-106299792D01*
X114389447Y-106286124D01*
X114408443Y-106275971D01*
X114429062Y-106269716D01*
X114456640Y-106267000D01*
X114915360Y-106267000D01*
X114942938Y-106269716D01*
X114942938Y-106269716D01*
G37*
G36*
X115912938Y-106269716D02*
G01*
X115933557Y-106275971D01*
X115952553Y-106286124D01*
X115969208Y-106299792D01*
X115982876Y-106316447D01*
X115993029Y-106335443D01*
X115999284Y-106356062D01*
X116002000Y-106383640D01*
X116002000Y-106892360D01*
X115999284Y-106919938D01*
X115993029Y-106940557D01*
X115982876Y-106959553D01*
X115969208Y-106976208D01*
X115952553Y-106989876D01*
X115933557Y-107000029D01*
X115912938Y-107006284D01*
X115885360Y-107009000D01*
X115426640Y-107009000D01*
X115399062Y-107006284D01*
X115378443Y-107000029D01*
X115359447Y-106989876D01*
X115342792Y-106976208D01*
X115329124Y-106959553D01*
X115318971Y-106940557D01*
X115312716Y-106919938D01*
X115310000Y-106892360D01*
X115310000Y-106383640D01*
X115312716Y-106356062D01*
X115318971Y-106335443D01*
X115329124Y-106316447D01*
X115342792Y-106299792D01*
X115359447Y-106286124D01*
X115378443Y-106275971D01*
X115399062Y-106269716D01*
X115426640Y-106267000D01*
X115885360Y-106267000D01*
X115912938Y-106269716D01*
X115912938Y-106269716D01*
G37*
G36*
X124531938Y-105671716D02*
G01*
X124552557Y-105677971D01*
X124571553Y-105688124D01*
X124588208Y-105701792D01*
X124601876Y-105718447D01*
X124612029Y-105737443D01*
X124618284Y-105758062D01*
X124621000Y-105785640D01*
X124621000Y-106244360D01*
X124618284Y-106271938D01*
X124612029Y-106292557D01*
X124601876Y-106311553D01*
X124588208Y-106328208D01*
X124571553Y-106341876D01*
X124552557Y-106352029D01*
X124531938Y-106358284D01*
X124504360Y-106361000D01*
X123995640Y-106361000D01*
X123968062Y-106358284D01*
X123947443Y-106352029D01*
X123928447Y-106341876D01*
X123911792Y-106328208D01*
X123898124Y-106311553D01*
X123887971Y-106292557D01*
X123881716Y-106271938D01*
X123879000Y-106244360D01*
X123879000Y-105785640D01*
X123881716Y-105758062D01*
X123887971Y-105737443D01*
X123898124Y-105718447D01*
X123911792Y-105701792D01*
X123928447Y-105688124D01*
X123947443Y-105677971D01*
X123968062Y-105671716D01*
X123995640Y-105669000D01*
X124504360Y-105669000D01*
X124531938Y-105671716D01*
X124531938Y-105671716D01*
G37*
G36*
X111914938Y-105574716D02*
G01*
X111935557Y-105580971D01*
X111954553Y-105591124D01*
X111971208Y-105604792D01*
X111984876Y-105621447D01*
X111995029Y-105640443D01*
X112001284Y-105661062D01*
X112004000Y-105688640D01*
X112004000Y-106147360D01*
X112001284Y-106174938D01*
X111995029Y-106195557D01*
X111984876Y-106214553D01*
X111971208Y-106231208D01*
X111954553Y-106244876D01*
X111935557Y-106255029D01*
X111914938Y-106261284D01*
X111887360Y-106264000D01*
X111378640Y-106264000D01*
X111351062Y-106261284D01*
X111330443Y-106255029D01*
X111311447Y-106244876D01*
X111294792Y-106231208D01*
X111281124Y-106214553D01*
X111270971Y-106195557D01*
X111264716Y-106174938D01*
X111262000Y-106147360D01*
X111262000Y-105688640D01*
X111264716Y-105661062D01*
X111270971Y-105640443D01*
X111281124Y-105621447D01*
X111294792Y-105604792D01*
X111311447Y-105591124D01*
X111330443Y-105580971D01*
X111351062Y-105574716D01*
X111378640Y-105572000D01*
X111887360Y-105572000D01*
X111914938Y-105574716D01*
X111914938Y-105574716D01*
G37*
G36*
X138681938Y-105571716D02*
G01*
X138702557Y-105577971D01*
X138721553Y-105588124D01*
X138738208Y-105601792D01*
X138751876Y-105618447D01*
X138762029Y-105637443D01*
X138768284Y-105658062D01*
X138771000Y-105685640D01*
X138771000Y-106144360D01*
X138768284Y-106171938D01*
X138762029Y-106192557D01*
X138751876Y-106211553D01*
X138738208Y-106228208D01*
X138721553Y-106241876D01*
X138702557Y-106252029D01*
X138681938Y-106258284D01*
X138654360Y-106261000D01*
X138145640Y-106261000D01*
X138118062Y-106258284D01*
X138097443Y-106252029D01*
X138078447Y-106241876D01*
X138061792Y-106228208D01*
X138048124Y-106211553D01*
X138037971Y-106192557D01*
X138031716Y-106171938D01*
X138029000Y-106144360D01*
X138029000Y-105685640D01*
X138031716Y-105658062D01*
X138037971Y-105637443D01*
X138048124Y-105618447D01*
X138061792Y-105601792D01*
X138078447Y-105588124D01*
X138097443Y-105577971D01*
X138118062Y-105571716D01*
X138145640Y-105569000D01*
X138654360Y-105569000D01*
X138681938Y-105571716D01*
X138681938Y-105571716D01*
G37*
G36*
X122365000Y-106172000D02*
G01*
X117463000Y-106172000D01*
X117463000Y-105570000D01*
X122365000Y-105570000D01*
X122365000Y-106172000D01*
X122365000Y-106172000D01*
G37*
G36*
X132771938Y-105131716D02*
G01*
X132792557Y-105137971D01*
X132811553Y-105148124D01*
X132828208Y-105161792D01*
X132841876Y-105178447D01*
X132852029Y-105197443D01*
X132858284Y-105218062D01*
X132861000Y-105245640D01*
X132861000Y-105754360D01*
X132858284Y-105781938D01*
X132852029Y-105802557D01*
X132841876Y-105821553D01*
X132828208Y-105838208D01*
X132811553Y-105851876D01*
X132792557Y-105862029D01*
X132771938Y-105868284D01*
X132744360Y-105871000D01*
X132285640Y-105871000D01*
X132258062Y-105868284D01*
X132237443Y-105862029D01*
X132218447Y-105851876D01*
X132201792Y-105838208D01*
X132188124Y-105821553D01*
X132177971Y-105802557D01*
X132171716Y-105781938D01*
X132169000Y-105754360D01*
X132169000Y-105245640D01*
X132171716Y-105218062D01*
X132177971Y-105197443D01*
X132188124Y-105178447D01*
X132201792Y-105161792D01*
X132218447Y-105148124D01*
X132237443Y-105137971D01*
X132258062Y-105131716D01*
X132285640Y-105129000D01*
X132744360Y-105129000D01*
X132771938Y-105131716D01*
X132771938Y-105131716D01*
G37*
G36*
X133741938Y-105131716D02*
G01*
X133762557Y-105137971D01*
X133781553Y-105148124D01*
X133798208Y-105161792D01*
X133811876Y-105178447D01*
X133822029Y-105197443D01*
X133828284Y-105218062D01*
X133831000Y-105245640D01*
X133831000Y-105754360D01*
X133828284Y-105781938D01*
X133822029Y-105802557D01*
X133811876Y-105821553D01*
X133798208Y-105838208D01*
X133781553Y-105851876D01*
X133762557Y-105862029D01*
X133741938Y-105868284D01*
X133714360Y-105871000D01*
X133255640Y-105871000D01*
X133228062Y-105868284D01*
X133207443Y-105862029D01*
X133188447Y-105851876D01*
X133171792Y-105838208D01*
X133158124Y-105821553D01*
X133147971Y-105802557D01*
X133141716Y-105781938D01*
X133139000Y-105754360D01*
X133139000Y-105245640D01*
X133141716Y-105218062D01*
X133147971Y-105197443D01*
X133158124Y-105178447D01*
X133171792Y-105161792D01*
X133188447Y-105148124D01*
X133207443Y-105137971D01*
X133228062Y-105131716D01*
X133255640Y-105129000D01*
X133714360Y-105129000D01*
X133741938Y-105131716D01*
X133741938Y-105131716D01*
G37*
G36*
X135991938Y-105131716D02*
G01*
X136012557Y-105137971D01*
X136031553Y-105148124D01*
X136048208Y-105161792D01*
X136061876Y-105178447D01*
X136072029Y-105197443D01*
X136078284Y-105218062D01*
X136081000Y-105245640D01*
X136081000Y-105754360D01*
X136078284Y-105781938D01*
X136072029Y-105802557D01*
X136061876Y-105821553D01*
X136048208Y-105838208D01*
X136031553Y-105851876D01*
X136012557Y-105862029D01*
X135991938Y-105868284D01*
X135964360Y-105871000D01*
X135505640Y-105871000D01*
X135478062Y-105868284D01*
X135457443Y-105862029D01*
X135438447Y-105851876D01*
X135421792Y-105838208D01*
X135408124Y-105821553D01*
X135397971Y-105802557D01*
X135391716Y-105781938D01*
X135389000Y-105754360D01*
X135389000Y-105245640D01*
X135391716Y-105218062D01*
X135397971Y-105197443D01*
X135408124Y-105178447D01*
X135421792Y-105161792D01*
X135438447Y-105148124D01*
X135457443Y-105137971D01*
X135478062Y-105131716D01*
X135505640Y-105129000D01*
X135964360Y-105129000D01*
X135991938Y-105131716D01*
X135991938Y-105131716D01*
G37*
G36*
X135021938Y-105131716D02*
G01*
X135042557Y-105137971D01*
X135061553Y-105148124D01*
X135078208Y-105161792D01*
X135091876Y-105178447D01*
X135102029Y-105197443D01*
X135108284Y-105218062D01*
X135111000Y-105245640D01*
X135111000Y-105754360D01*
X135108284Y-105781938D01*
X135102029Y-105802557D01*
X135091876Y-105821553D01*
X135078208Y-105838208D01*
X135061553Y-105851876D01*
X135042557Y-105862029D01*
X135021938Y-105868284D01*
X134994360Y-105871000D01*
X134535640Y-105871000D01*
X134508062Y-105868284D01*
X134487443Y-105862029D01*
X134468447Y-105851876D01*
X134451792Y-105838208D01*
X134438124Y-105821553D01*
X134427971Y-105802557D01*
X134421716Y-105781938D01*
X134419000Y-105754360D01*
X134419000Y-105245640D01*
X134421716Y-105218062D01*
X134427971Y-105197443D01*
X134438124Y-105178447D01*
X134451792Y-105161792D01*
X134468447Y-105148124D01*
X134487443Y-105137971D01*
X134508062Y-105131716D01*
X134535640Y-105129000D01*
X134994360Y-105129000D01*
X135021938Y-105131716D01*
X135021938Y-105131716D01*
G37*
G36*
X102131395Y-103987546D02*
G01*
X102304466Y-104059234D01*
X102381818Y-104110919D01*
X102460227Y-104163310D01*
X102592690Y-104295773D01*
X102592691Y-104295775D01*
X102696766Y-104451534D01*
X102768454Y-104624605D01*
X102805000Y-104808333D01*
X102805000Y-104995667D01*
X102768454Y-105179395D01*
X102696766Y-105352466D01*
X102696765Y-105352467D01*
X102592690Y-105508227D01*
X102460227Y-105640690D01*
X102434228Y-105658062D01*
X102304466Y-105744766D01*
X102131395Y-105816454D01*
X101947667Y-105853000D01*
X101760333Y-105853000D01*
X101576605Y-105816454D01*
X101403534Y-105744766D01*
X101273772Y-105658062D01*
X101247773Y-105640690D01*
X101115310Y-105508227D01*
X101011235Y-105352467D01*
X101011234Y-105352466D01*
X100939546Y-105179395D01*
X100903000Y-104995667D01*
X100903000Y-104808333D01*
X100939546Y-104624605D01*
X101011234Y-104451534D01*
X101115309Y-104295775D01*
X101115310Y-104295773D01*
X101247773Y-104163310D01*
X101326182Y-104110919D01*
X101403534Y-104059234D01*
X101576605Y-103987546D01*
X101760333Y-103951000D01*
X101947667Y-103951000D01*
X102131395Y-103987546D01*
X102131395Y-103987546D01*
G37*
G36*
X111914938Y-104604716D02*
G01*
X111935557Y-104610971D01*
X111954553Y-104621124D01*
X111971208Y-104634792D01*
X111984876Y-104651447D01*
X111995029Y-104670443D01*
X112001284Y-104691062D01*
X112004000Y-104718640D01*
X112004000Y-105177360D01*
X112001284Y-105204938D01*
X111995029Y-105225557D01*
X111984876Y-105244553D01*
X111971208Y-105261208D01*
X111954553Y-105274876D01*
X111935557Y-105285029D01*
X111914938Y-105291284D01*
X111887360Y-105294000D01*
X111378640Y-105294000D01*
X111351062Y-105291284D01*
X111330443Y-105285029D01*
X111311447Y-105274876D01*
X111294792Y-105261208D01*
X111281124Y-105244553D01*
X111270971Y-105225557D01*
X111264716Y-105204938D01*
X111262000Y-105177360D01*
X111262000Y-104718640D01*
X111264716Y-104691062D01*
X111270971Y-104670443D01*
X111281124Y-104651447D01*
X111294792Y-104634792D01*
X111311447Y-104621124D01*
X111330443Y-104610971D01*
X111351062Y-104604716D01*
X111378640Y-104602000D01*
X111887360Y-104602000D01*
X111914938Y-104604716D01*
X111914938Y-104604716D01*
G37*
G36*
X118241938Y-104431716D02*
G01*
X118262557Y-104437971D01*
X118281553Y-104448124D01*
X118298208Y-104461792D01*
X118311876Y-104478447D01*
X118322029Y-104497443D01*
X118328284Y-104518062D01*
X118331000Y-104545640D01*
X118331000Y-105054360D01*
X118328284Y-105081938D01*
X118322029Y-105102557D01*
X118311876Y-105121553D01*
X118298208Y-105138208D01*
X118281553Y-105151876D01*
X118262557Y-105162029D01*
X118241938Y-105168284D01*
X118214360Y-105171000D01*
X117755640Y-105171000D01*
X117728062Y-105168284D01*
X117707443Y-105162029D01*
X117688447Y-105151876D01*
X117671792Y-105138208D01*
X117658124Y-105121553D01*
X117647971Y-105102557D01*
X117641716Y-105081938D01*
X117639000Y-105054360D01*
X117639000Y-104545640D01*
X117641716Y-104518062D01*
X117647971Y-104497443D01*
X117658124Y-104478447D01*
X117671792Y-104461792D01*
X117688447Y-104448124D01*
X117707443Y-104437971D01*
X117728062Y-104431716D01*
X117755640Y-104429000D01*
X118214360Y-104429000D01*
X118241938Y-104431716D01*
X118241938Y-104431716D01*
G37*
G36*
X117271938Y-104431716D02*
G01*
X117292557Y-104437971D01*
X117311553Y-104448124D01*
X117328208Y-104461792D01*
X117341876Y-104478447D01*
X117352029Y-104497443D01*
X117358284Y-104518062D01*
X117361000Y-104545640D01*
X117361000Y-105054360D01*
X117358284Y-105081938D01*
X117352029Y-105102557D01*
X117341876Y-105121553D01*
X117328208Y-105138208D01*
X117311553Y-105151876D01*
X117292557Y-105162029D01*
X117271938Y-105168284D01*
X117244360Y-105171000D01*
X116785640Y-105171000D01*
X116758062Y-105168284D01*
X116737443Y-105162029D01*
X116718447Y-105151876D01*
X116701792Y-105138208D01*
X116688124Y-105121553D01*
X116677971Y-105102557D01*
X116671716Y-105081938D01*
X116669000Y-105054360D01*
X116669000Y-104545640D01*
X116671716Y-104518062D01*
X116677971Y-104497443D01*
X116688124Y-104478447D01*
X116701792Y-104461792D01*
X116718447Y-104448124D01*
X116737443Y-104437971D01*
X116758062Y-104431716D01*
X116785640Y-104429000D01*
X117244360Y-104429000D01*
X117271938Y-104431716D01*
X117271938Y-104431716D01*
G37*
G36*
X134021938Y-103881716D02*
G01*
X134042557Y-103887971D01*
X134061553Y-103898124D01*
X134078208Y-103911792D01*
X134091876Y-103928447D01*
X134102029Y-103947443D01*
X134108284Y-103968062D01*
X134111000Y-103995640D01*
X134111000Y-104504360D01*
X134108284Y-104531938D01*
X134102029Y-104552557D01*
X134091876Y-104571553D01*
X134078208Y-104588208D01*
X134061553Y-104601876D01*
X134042557Y-104612029D01*
X134021938Y-104618284D01*
X133994360Y-104621000D01*
X133535640Y-104621000D01*
X133508062Y-104618284D01*
X133487443Y-104612029D01*
X133468447Y-104601876D01*
X133451792Y-104588208D01*
X133438124Y-104571553D01*
X133427971Y-104552557D01*
X133421716Y-104531938D01*
X133419000Y-104504360D01*
X133419000Y-103995640D01*
X133421716Y-103968062D01*
X133427971Y-103947443D01*
X133438124Y-103928447D01*
X133451792Y-103911792D01*
X133468447Y-103898124D01*
X133487443Y-103887971D01*
X133508062Y-103881716D01*
X133535640Y-103879000D01*
X133994360Y-103879000D01*
X134021938Y-103881716D01*
X134021938Y-103881716D01*
G37*
G36*
X134991938Y-103881716D02*
G01*
X135012557Y-103887971D01*
X135031553Y-103898124D01*
X135048208Y-103911792D01*
X135061876Y-103928447D01*
X135072029Y-103947443D01*
X135078284Y-103968062D01*
X135081000Y-103995640D01*
X135081000Y-104504360D01*
X135078284Y-104531938D01*
X135072029Y-104552557D01*
X135061876Y-104571553D01*
X135048208Y-104588208D01*
X135031553Y-104601876D01*
X135012557Y-104612029D01*
X134991938Y-104618284D01*
X134964360Y-104621000D01*
X134505640Y-104621000D01*
X134478062Y-104618284D01*
X134457443Y-104612029D01*
X134438447Y-104601876D01*
X134421792Y-104588208D01*
X134408124Y-104571553D01*
X134397971Y-104552557D01*
X134391716Y-104531938D01*
X134389000Y-104504360D01*
X134389000Y-103995640D01*
X134391716Y-103968062D01*
X134397971Y-103947443D01*
X134408124Y-103928447D01*
X134421792Y-103911792D01*
X134438447Y-103898124D01*
X134457443Y-103887971D01*
X134478062Y-103881716D01*
X134505640Y-103879000D01*
X134964360Y-103879000D01*
X134991938Y-103881716D01*
X134991938Y-103881716D01*
G37*
G36*
X104671395Y-102717546D02*
G01*
X104844466Y-102789234D01*
X104921818Y-102840919D01*
X105000227Y-102893310D01*
X105132690Y-103025773D01*
X105132691Y-103025775D01*
X105236766Y-103181534D01*
X105308454Y-103354605D01*
X105345000Y-103538333D01*
X105345000Y-103725667D01*
X105308454Y-103909395D01*
X105236766Y-104082466D01*
X105236765Y-104082467D01*
X105132690Y-104238227D01*
X105000227Y-104370690D01*
X104921818Y-104423081D01*
X104844466Y-104474766D01*
X104671395Y-104546454D01*
X104487667Y-104583000D01*
X104300333Y-104583000D01*
X104116605Y-104546454D01*
X103943534Y-104474766D01*
X103866182Y-104423081D01*
X103787773Y-104370690D01*
X103655310Y-104238227D01*
X103551235Y-104082467D01*
X103551234Y-104082466D01*
X103479546Y-103909395D01*
X103443000Y-103725667D01*
X103443000Y-103538333D01*
X103479546Y-103354605D01*
X103551234Y-103181534D01*
X103655309Y-103025775D01*
X103655310Y-103025773D01*
X103787773Y-102893310D01*
X103866182Y-102840919D01*
X103943534Y-102789234D01*
X104116605Y-102717546D01*
X104300333Y-102681000D01*
X104487667Y-102681000D01*
X104671395Y-102717546D01*
X104671395Y-102717546D01*
G37*
G36*
X102131395Y-101447546D02*
G01*
X102304466Y-101519234D01*
X102304467Y-101519235D01*
X102460227Y-101623310D01*
X102592690Y-101755773D01*
X102592691Y-101755775D01*
X102696766Y-101911534D01*
X102768454Y-102084605D01*
X102805000Y-102268333D01*
X102805000Y-102455667D01*
X102768454Y-102639395D01*
X102696766Y-102812466D01*
X102696765Y-102812467D01*
X102592690Y-102968227D01*
X102460227Y-103100690D01*
X102381818Y-103153081D01*
X102304466Y-103204766D01*
X102131395Y-103276454D01*
X101947667Y-103313000D01*
X101760333Y-103313000D01*
X101576605Y-103276454D01*
X101403534Y-103204766D01*
X101326182Y-103153081D01*
X101247773Y-103100690D01*
X101115310Y-102968227D01*
X101011235Y-102812467D01*
X101011234Y-102812466D01*
X100939546Y-102639395D01*
X100903000Y-102455667D01*
X100903000Y-102268333D01*
X100939546Y-102084605D01*
X101011234Y-101911534D01*
X101115309Y-101755775D01*
X101115310Y-101755773D01*
X101247773Y-101623310D01*
X101403533Y-101519235D01*
X101403534Y-101519234D01*
X101576605Y-101447546D01*
X101760333Y-101411000D01*
X101947667Y-101411000D01*
X102131395Y-101447546D01*
X102131395Y-101447546D01*
G37*
G36*
X142719000Y-102737000D02*
G01*
X140917000Y-102737000D01*
X140917000Y-100935000D01*
X142719000Y-100935000D01*
X142719000Y-102737000D01*
X142719000Y-102737000D01*
G37*
G36*
X139388443Y-100941519D02*
G01*
X139454627Y-100948037D01*
X139624466Y-100999557D01*
X139780991Y-101083222D01*
X139816729Y-101112552D01*
X139918186Y-101195814D01*
X140001448Y-101297271D01*
X140030778Y-101333009D01*
X140114443Y-101489534D01*
X140165963Y-101659373D01*
X140183359Y-101836000D01*
X140165963Y-102012627D01*
X140114443Y-102182466D01*
X140030778Y-102338991D01*
X140001448Y-102374729D01*
X139918186Y-102476186D01*
X139816729Y-102559448D01*
X139780991Y-102588778D01*
X139624466Y-102672443D01*
X139454627Y-102723963D01*
X139388442Y-102730482D01*
X139322260Y-102737000D01*
X139233740Y-102737000D01*
X139167558Y-102730482D01*
X139101373Y-102723963D01*
X138931534Y-102672443D01*
X138775009Y-102588778D01*
X138739271Y-102559448D01*
X138637814Y-102476186D01*
X138554552Y-102374729D01*
X138525222Y-102338991D01*
X138441557Y-102182466D01*
X138390037Y-102012627D01*
X138372641Y-101836000D01*
X138390037Y-101659373D01*
X138441557Y-101489534D01*
X138525222Y-101333009D01*
X138554552Y-101297271D01*
X138637814Y-101195814D01*
X138739271Y-101112552D01*
X138775009Y-101083222D01*
X138931534Y-100999557D01*
X139101373Y-100948037D01*
X139167558Y-100941518D01*
X139233740Y-100935000D01*
X139322260Y-100935000D01*
X139388443Y-100941519D01*
X139388443Y-100941519D01*
G37*
G36*
X136848443Y-100941519D02*
G01*
X136914627Y-100948037D01*
X137084466Y-100999557D01*
X137240991Y-101083222D01*
X137276729Y-101112552D01*
X137378186Y-101195814D01*
X137461448Y-101297271D01*
X137490778Y-101333009D01*
X137574443Y-101489534D01*
X137625963Y-101659373D01*
X137643359Y-101836000D01*
X137625963Y-102012627D01*
X137574443Y-102182466D01*
X137490778Y-102338991D01*
X137461448Y-102374729D01*
X137378186Y-102476186D01*
X137276729Y-102559448D01*
X137240991Y-102588778D01*
X137084466Y-102672443D01*
X136914627Y-102723963D01*
X136848442Y-102730482D01*
X136782260Y-102737000D01*
X136693740Y-102737000D01*
X136627558Y-102730482D01*
X136561373Y-102723963D01*
X136391534Y-102672443D01*
X136235009Y-102588778D01*
X136199271Y-102559448D01*
X136097814Y-102476186D01*
X136014552Y-102374729D01*
X135985222Y-102338991D01*
X135901557Y-102182466D01*
X135850037Y-102012627D01*
X135832641Y-101836000D01*
X135850037Y-101659373D01*
X135901557Y-101489534D01*
X135985222Y-101333009D01*
X136014552Y-101297271D01*
X136097814Y-101195814D01*
X136199271Y-101112552D01*
X136235009Y-101083222D01*
X136391534Y-100999557D01*
X136561373Y-100948037D01*
X136627558Y-100941518D01*
X136693740Y-100935000D01*
X136782260Y-100935000D01*
X136848443Y-100941519D01*
X136848443Y-100941519D01*
G37*
G36*
X134308443Y-100941519D02*
G01*
X134374627Y-100948037D01*
X134544466Y-100999557D01*
X134700991Y-101083222D01*
X134736729Y-101112552D01*
X134838186Y-101195814D01*
X134921448Y-101297271D01*
X134950778Y-101333009D01*
X135034443Y-101489534D01*
X135085963Y-101659373D01*
X135103359Y-101836000D01*
X135085963Y-102012627D01*
X135034443Y-102182466D01*
X134950778Y-102338991D01*
X134921448Y-102374729D01*
X134838186Y-102476186D01*
X134736729Y-102559448D01*
X134700991Y-102588778D01*
X134544466Y-102672443D01*
X134374627Y-102723963D01*
X134308442Y-102730482D01*
X134242260Y-102737000D01*
X134153740Y-102737000D01*
X134087558Y-102730482D01*
X134021373Y-102723963D01*
X133851534Y-102672443D01*
X133695009Y-102588778D01*
X133659271Y-102559448D01*
X133557814Y-102476186D01*
X133474552Y-102374729D01*
X133445222Y-102338991D01*
X133361557Y-102182466D01*
X133310037Y-102012627D01*
X133292641Y-101836000D01*
X133310037Y-101659373D01*
X133361557Y-101489534D01*
X133445222Y-101333009D01*
X133474552Y-101297271D01*
X133557814Y-101195814D01*
X133659271Y-101112552D01*
X133695009Y-101083222D01*
X133851534Y-100999557D01*
X134021373Y-100948037D01*
X134087558Y-100941518D01*
X134153740Y-100935000D01*
X134242260Y-100935000D01*
X134308443Y-100941519D01*
X134308443Y-100941519D01*
G37*
G36*
X131768443Y-100941519D02*
G01*
X131834627Y-100948037D01*
X132004466Y-100999557D01*
X132160991Y-101083222D01*
X132196729Y-101112552D01*
X132298186Y-101195814D01*
X132381448Y-101297271D01*
X132410778Y-101333009D01*
X132494443Y-101489534D01*
X132545963Y-101659373D01*
X132563359Y-101836000D01*
X132545963Y-102012627D01*
X132494443Y-102182466D01*
X132410778Y-102338991D01*
X132381448Y-102374729D01*
X132298186Y-102476186D01*
X132196729Y-102559448D01*
X132160991Y-102588778D01*
X132004466Y-102672443D01*
X131834627Y-102723963D01*
X131768442Y-102730482D01*
X131702260Y-102737000D01*
X131613740Y-102737000D01*
X131547558Y-102730482D01*
X131481373Y-102723963D01*
X131311534Y-102672443D01*
X131155009Y-102588778D01*
X131119271Y-102559448D01*
X131017814Y-102476186D01*
X130934552Y-102374729D01*
X130905222Y-102338991D01*
X130821557Y-102182466D01*
X130770037Y-102012627D01*
X130752641Y-101836000D01*
X130770037Y-101659373D01*
X130821557Y-101489534D01*
X130905222Y-101333009D01*
X130934552Y-101297271D01*
X131017814Y-101195814D01*
X131119271Y-101112552D01*
X131155009Y-101083222D01*
X131311534Y-100999557D01*
X131481373Y-100948037D01*
X131547558Y-100941518D01*
X131613740Y-100935000D01*
X131702260Y-100935000D01*
X131768443Y-100941519D01*
X131768443Y-100941519D01*
G37*
G36*
X129228443Y-100941519D02*
G01*
X129294627Y-100948037D01*
X129464466Y-100999557D01*
X129620991Y-101083222D01*
X129656729Y-101112552D01*
X129758186Y-101195814D01*
X129841448Y-101297271D01*
X129870778Y-101333009D01*
X129954443Y-101489534D01*
X130005963Y-101659373D01*
X130023359Y-101836000D01*
X130005963Y-102012627D01*
X129954443Y-102182466D01*
X129870778Y-102338991D01*
X129841448Y-102374729D01*
X129758186Y-102476186D01*
X129656729Y-102559448D01*
X129620991Y-102588778D01*
X129464466Y-102672443D01*
X129294627Y-102723963D01*
X129228442Y-102730482D01*
X129162260Y-102737000D01*
X129073740Y-102737000D01*
X129007558Y-102730482D01*
X128941373Y-102723963D01*
X128771534Y-102672443D01*
X128615009Y-102588778D01*
X128579271Y-102559448D01*
X128477814Y-102476186D01*
X128394552Y-102374729D01*
X128365222Y-102338991D01*
X128281557Y-102182466D01*
X128230037Y-102012627D01*
X128212641Y-101836000D01*
X128230037Y-101659373D01*
X128281557Y-101489534D01*
X128365222Y-101333009D01*
X128394552Y-101297271D01*
X128477814Y-101195814D01*
X128579271Y-101112552D01*
X128615009Y-101083222D01*
X128771534Y-100999557D01*
X128941373Y-100948037D01*
X129007558Y-100941518D01*
X129073740Y-100935000D01*
X129162260Y-100935000D01*
X129228443Y-100941519D01*
X129228443Y-100941519D01*
G37*
G36*
X126688443Y-100941519D02*
G01*
X126754627Y-100948037D01*
X126924466Y-100999557D01*
X127080991Y-101083222D01*
X127116729Y-101112552D01*
X127218186Y-101195814D01*
X127301448Y-101297271D01*
X127330778Y-101333009D01*
X127414443Y-101489534D01*
X127465963Y-101659373D01*
X127483359Y-101836000D01*
X127465963Y-102012627D01*
X127414443Y-102182466D01*
X127330778Y-102338991D01*
X127301448Y-102374729D01*
X127218186Y-102476186D01*
X127116729Y-102559448D01*
X127080991Y-102588778D01*
X126924466Y-102672443D01*
X126754627Y-102723963D01*
X126688442Y-102730482D01*
X126622260Y-102737000D01*
X126533740Y-102737000D01*
X126467558Y-102730482D01*
X126401373Y-102723963D01*
X126231534Y-102672443D01*
X126075009Y-102588778D01*
X126039271Y-102559448D01*
X125937814Y-102476186D01*
X125854552Y-102374729D01*
X125825222Y-102338991D01*
X125741557Y-102182466D01*
X125690037Y-102012627D01*
X125672641Y-101836000D01*
X125690037Y-101659373D01*
X125741557Y-101489534D01*
X125825222Y-101333009D01*
X125854552Y-101297271D01*
X125937814Y-101195814D01*
X126039271Y-101112552D01*
X126075009Y-101083222D01*
X126231534Y-100999557D01*
X126401373Y-100948037D01*
X126467558Y-100941518D01*
X126533740Y-100935000D01*
X126622260Y-100935000D01*
X126688443Y-100941519D01*
X126688443Y-100941519D01*
G37*
G36*
X124148443Y-100941519D02*
G01*
X124214627Y-100948037D01*
X124384466Y-100999557D01*
X124540991Y-101083222D01*
X124576729Y-101112552D01*
X124678186Y-101195814D01*
X124761448Y-101297271D01*
X124790778Y-101333009D01*
X124874443Y-101489534D01*
X124925963Y-101659373D01*
X124943359Y-101836000D01*
X124925963Y-102012627D01*
X124874443Y-102182466D01*
X124790778Y-102338991D01*
X124761448Y-102374729D01*
X124678186Y-102476186D01*
X124576729Y-102559448D01*
X124540991Y-102588778D01*
X124384466Y-102672443D01*
X124214627Y-102723963D01*
X124148442Y-102730482D01*
X124082260Y-102737000D01*
X123993740Y-102737000D01*
X123927558Y-102730482D01*
X123861373Y-102723963D01*
X123691534Y-102672443D01*
X123535009Y-102588778D01*
X123499271Y-102559448D01*
X123397814Y-102476186D01*
X123314552Y-102374729D01*
X123285222Y-102338991D01*
X123201557Y-102182466D01*
X123150037Y-102012627D01*
X123132641Y-101836000D01*
X123150037Y-101659373D01*
X123201557Y-101489534D01*
X123285222Y-101333009D01*
X123314552Y-101297271D01*
X123397814Y-101195814D01*
X123499271Y-101112552D01*
X123535009Y-101083222D01*
X123691534Y-100999557D01*
X123861373Y-100948037D01*
X123927558Y-100941518D01*
X123993740Y-100935000D01*
X124082260Y-100935000D01*
X124148443Y-100941519D01*
X124148443Y-100941519D01*
G37*
G36*
X121608443Y-100941519D02*
G01*
X121674627Y-100948037D01*
X121844466Y-100999557D01*
X122000991Y-101083222D01*
X122036729Y-101112552D01*
X122138186Y-101195814D01*
X122221448Y-101297271D01*
X122250778Y-101333009D01*
X122334443Y-101489534D01*
X122385963Y-101659373D01*
X122403359Y-101836000D01*
X122385963Y-102012627D01*
X122334443Y-102182466D01*
X122250778Y-102338991D01*
X122221448Y-102374729D01*
X122138186Y-102476186D01*
X122036729Y-102559448D01*
X122000991Y-102588778D01*
X121844466Y-102672443D01*
X121674627Y-102723963D01*
X121608442Y-102730482D01*
X121542260Y-102737000D01*
X121453740Y-102737000D01*
X121387558Y-102730482D01*
X121321373Y-102723963D01*
X121151534Y-102672443D01*
X120995009Y-102588778D01*
X120959271Y-102559448D01*
X120857814Y-102476186D01*
X120774552Y-102374729D01*
X120745222Y-102338991D01*
X120661557Y-102182466D01*
X120610037Y-102012627D01*
X120592641Y-101836000D01*
X120610037Y-101659373D01*
X120661557Y-101489534D01*
X120745222Y-101333009D01*
X120774552Y-101297271D01*
X120857814Y-101195814D01*
X120959271Y-101112552D01*
X120995009Y-101083222D01*
X121151534Y-100999557D01*
X121321373Y-100948037D01*
X121387558Y-100941518D01*
X121453740Y-100935000D01*
X121542260Y-100935000D01*
X121608443Y-100941519D01*
X121608443Y-100941519D01*
G37*
G36*
X108908443Y-100941519D02*
G01*
X108974627Y-100948037D01*
X109144466Y-100999557D01*
X109300991Y-101083222D01*
X109336729Y-101112552D01*
X109438186Y-101195814D01*
X109521448Y-101297271D01*
X109550778Y-101333009D01*
X109634443Y-101489534D01*
X109685963Y-101659373D01*
X109703359Y-101836000D01*
X109685963Y-102012627D01*
X109634443Y-102182466D01*
X109550778Y-102338991D01*
X109521448Y-102374729D01*
X109438186Y-102476186D01*
X109336729Y-102559448D01*
X109300991Y-102588778D01*
X109144466Y-102672443D01*
X108974627Y-102723963D01*
X108908442Y-102730482D01*
X108842260Y-102737000D01*
X108753740Y-102737000D01*
X108687558Y-102730482D01*
X108621373Y-102723963D01*
X108451534Y-102672443D01*
X108295009Y-102588778D01*
X108259271Y-102559448D01*
X108157814Y-102476186D01*
X108074552Y-102374729D01*
X108045222Y-102338991D01*
X107961557Y-102182466D01*
X107910037Y-102012627D01*
X107892641Y-101836000D01*
X107910037Y-101659373D01*
X107961557Y-101489534D01*
X108045222Y-101333009D01*
X108074552Y-101297271D01*
X108157814Y-101195814D01*
X108259271Y-101112552D01*
X108295009Y-101083222D01*
X108451534Y-100999557D01*
X108621373Y-100948037D01*
X108687558Y-100941518D01*
X108753740Y-100935000D01*
X108842260Y-100935000D01*
X108908443Y-100941519D01*
X108908443Y-100941519D01*
G37*
G36*
X111448443Y-100941519D02*
G01*
X111514627Y-100948037D01*
X111684466Y-100999557D01*
X111840991Y-101083222D01*
X111876729Y-101112552D01*
X111978186Y-101195814D01*
X112061448Y-101297271D01*
X112090778Y-101333009D01*
X112174443Y-101489534D01*
X112225963Y-101659373D01*
X112243359Y-101836000D01*
X112225963Y-102012627D01*
X112174443Y-102182466D01*
X112090778Y-102338991D01*
X112061448Y-102374729D01*
X111978186Y-102476186D01*
X111876729Y-102559448D01*
X111840991Y-102588778D01*
X111684466Y-102672443D01*
X111514627Y-102723963D01*
X111448442Y-102730482D01*
X111382260Y-102737000D01*
X111293740Y-102737000D01*
X111227558Y-102730482D01*
X111161373Y-102723963D01*
X110991534Y-102672443D01*
X110835009Y-102588778D01*
X110799271Y-102559448D01*
X110697814Y-102476186D01*
X110614552Y-102374729D01*
X110585222Y-102338991D01*
X110501557Y-102182466D01*
X110450037Y-102012627D01*
X110432641Y-101836000D01*
X110450037Y-101659373D01*
X110501557Y-101489534D01*
X110585222Y-101333009D01*
X110614552Y-101297271D01*
X110697814Y-101195814D01*
X110799271Y-101112552D01*
X110835009Y-101083222D01*
X110991534Y-100999557D01*
X111161373Y-100948037D01*
X111227558Y-100941518D01*
X111293740Y-100935000D01*
X111382260Y-100935000D01*
X111448443Y-100941519D01*
X111448443Y-100941519D01*
G37*
G36*
X113988443Y-100941519D02*
G01*
X114054627Y-100948037D01*
X114224466Y-100999557D01*
X114380991Y-101083222D01*
X114416729Y-101112552D01*
X114518186Y-101195814D01*
X114601448Y-101297271D01*
X114630778Y-101333009D01*
X114714443Y-101489534D01*
X114765963Y-101659373D01*
X114783359Y-101836000D01*
X114765963Y-102012627D01*
X114714443Y-102182466D01*
X114630778Y-102338991D01*
X114601448Y-102374729D01*
X114518186Y-102476186D01*
X114416729Y-102559448D01*
X114380991Y-102588778D01*
X114224466Y-102672443D01*
X114054627Y-102723963D01*
X113988442Y-102730482D01*
X113922260Y-102737000D01*
X113833740Y-102737000D01*
X113767558Y-102730482D01*
X113701373Y-102723963D01*
X113531534Y-102672443D01*
X113375009Y-102588778D01*
X113339271Y-102559448D01*
X113237814Y-102476186D01*
X113154552Y-102374729D01*
X113125222Y-102338991D01*
X113041557Y-102182466D01*
X112990037Y-102012627D01*
X112972641Y-101836000D01*
X112990037Y-101659373D01*
X113041557Y-101489534D01*
X113125222Y-101333009D01*
X113154552Y-101297271D01*
X113237814Y-101195814D01*
X113339271Y-101112552D01*
X113375009Y-101083222D01*
X113531534Y-100999557D01*
X113701373Y-100948037D01*
X113767558Y-100941518D01*
X113833740Y-100935000D01*
X113922260Y-100935000D01*
X113988443Y-100941519D01*
X113988443Y-100941519D01*
G37*
G36*
X116528443Y-100941519D02*
G01*
X116594627Y-100948037D01*
X116764466Y-100999557D01*
X116920991Y-101083222D01*
X116956729Y-101112552D01*
X117058186Y-101195814D01*
X117141448Y-101297271D01*
X117170778Y-101333009D01*
X117254443Y-101489534D01*
X117305963Y-101659373D01*
X117323359Y-101836000D01*
X117305963Y-102012627D01*
X117254443Y-102182466D01*
X117170778Y-102338991D01*
X117141448Y-102374729D01*
X117058186Y-102476186D01*
X116956729Y-102559448D01*
X116920991Y-102588778D01*
X116764466Y-102672443D01*
X116594627Y-102723963D01*
X116528442Y-102730482D01*
X116462260Y-102737000D01*
X116373740Y-102737000D01*
X116307558Y-102730482D01*
X116241373Y-102723963D01*
X116071534Y-102672443D01*
X115915009Y-102588778D01*
X115879271Y-102559448D01*
X115777814Y-102476186D01*
X115694552Y-102374729D01*
X115665222Y-102338991D01*
X115581557Y-102182466D01*
X115530037Y-102012627D01*
X115512641Y-101836000D01*
X115530037Y-101659373D01*
X115581557Y-101489534D01*
X115665222Y-101333009D01*
X115694552Y-101297271D01*
X115777814Y-101195814D01*
X115879271Y-101112552D01*
X115915009Y-101083222D01*
X116071534Y-100999557D01*
X116241373Y-100948037D01*
X116307558Y-100941518D01*
X116373740Y-100935000D01*
X116462260Y-100935000D01*
X116528443Y-100941519D01*
X116528443Y-100941519D01*
G37*
G36*
X119068443Y-100941519D02*
G01*
X119134627Y-100948037D01*
X119304466Y-100999557D01*
X119460991Y-101083222D01*
X119496729Y-101112552D01*
X119598186Y-101195814D01*
X119681448Y-101297271D01*
X119710778Y-101333009D01*
X119794443Y-101489534D01*
X119845963Y-101659373D01*
X119863359Y-101836000D01*
X119845963Y-102012627D01*
X119794443Y-102182466D01*
X119710778Y-102338991D01*
X119681448Y-102374729D01*
X119598186Y-102476186D01*
X119496729Y-102559448D01*
X119460991Y-102588778D01*
X119304466Y-102672443D01*
X119134627Y-102723963D01*
X119068442Y-102730482D01*
X119002260Y-102737000D01*
X118913740Y-102737000D01*
X118847558Y-102730482D01*
X118781373Y-102723963D01*
X118611534Y-102672443D01*
X118455009Y-102588778D01*
X118419271Y-102559448D01*
X118317814Y-102476186D01*
X118234552Y-102374729D01*
X118205222Y-102338991D01*
X118121557Y-102182466D01*
X118070037Y-102012627D01*
X118052641Y-101836000D01*
X118070037Y-101659373D01*
X118121557Y-101489534D01*
X118205222Y-101333009D01*
X118234552Y-101297271D01*
X118317814Y-101195814D01*
X118419271Y-101112552D01*
X118455009Y-101083222D01*
X118611534Y-100999557D01*
X118781373Y-100948037D01*
X118847558Y-100941518D01*
X118913740Y-100935000D01*
X119002260Y-100935000D01*
X119068443Y-100941519D01*
X119068443Y-100941519D01*
G37*
M02*
