<?xml version="1.0" standalone="no"?>
<!DOCTYPE svg PUBLIC "-//W3C//DTD SVG 1.1//EN"
"http://www.w3.org/Graphics/SVG/1.1/DTD/svg11.dtd">
<svg width="212.22" height="125.291" viewBox="0 0 4421.26 2610.24" version="1.1"
xmlns="http://www.w3.org/2000/svg"
xmlns:xlink="http://www.w3.org/1999/xlink">
<circle cx="427.186" cy="359.386" r="39.4" style=""/>
<circle cx="427.186" cy="559.386" r="39.4" style=""/>
<circle cx="427.186" cy="759.386" r="39.4" style=""/>
<circle cx="427.186" cy="959.386" r="39.4" style=""/>
<circle cx="427.186" cy="1159.39" r="39.4" style=""/>
<circle cx="427.186" cy="1359.39" r="39.4" style=""/>
<circle cx="427.186" cy="1759.39" r="39.4" style=""/>
<circle cx="427.186" cy="1959.39" r="39.4" style=""/>
<circle cx="427.186" cy="2159.39" r="39.4" style=""/>
<circle cx="1686.99" cy="949.186" r="39.4" style=""/>
<circle cx="1686.99" cy="1149.19" r="39.4" style=""/>
<circle cx="1686.99" cy="1349.19" r="39.4" style=""/>
<circle cx="1686.99" cy="1549.19" r="39.4" style=""/>
<circle cx="1974.39" cy="1344.59" r="39.4" style=""/>
<circle cx="1974.39" cy="1144.59" r="39.4" style=""/>
<circle cx="1686.99" cy="749.186" r="39.4" style=""/>
<circle cx="1686.99" cy="549.186" r="39.4" style=""/>
<circle cx="1974.39" cy="544.586" r="39.4" style=""/>
<circle cx="1974.39" cy="744.586" r="39.4" style=""/>
<circle cx="1974.39" cy="944.586" r="39.4" style=""/>
<circle cx="2474.39" cy="549.186" r="39.4" style=""/>
<circle cx="2474.39" cy="749.186" r="39.4" style=""/>
<circle cx="2474.39" cy="949.186" r="39.4" style=""/>
<circle cx="2474.39" cy="1149.19" r="39.4" style=""/>
<circle cx="2474.39" cy="1349.19" r="39.4" style=""/>
<circle cx="2474.39" cy="1549.19" r="39.4" style=""/>
<circle cx="3025.59" cy="1961.79" r="39.4" style=""/>
<circle cx="3025.59" cy="1761.79" r="39.4" style=""/>
<circle cx="3025.59" cy="1561.79" r="39.4" style=""/>
<circle cx="3025.59" cy="1361.79" r="39.4" style=""/>
<circle cx="3025.59" cy="1161.79" r="39.4" style=""/>
<circle cx="3025.59" cy="961.786" r="39.4" style=""/>
<circle cx="3025.59" cy="761.786" r="39.4" style=""/>
<circle cx="3793.39" cy="1509.79" r="39.4" style=""/>
<circle cx="3793.39" cy="1709.79" r="39.4" style=""/>
<circle cx="3793.39" cy="1998.79" r="39.4" style=""/>
<circle cx="3793.39" cy="2198.79" r="39.4" style=""/>
<circle cx="4088.59" cy="2198.79" r="39.4" style=""/>
<circle cx="4088.59" cy="1998.79" r="39.4" style=""/>
<circle cx="4088.59" cy="1709.79" r="39.4" style=""/>
<circle cx="4088.59" cy="1509.79" r="39.4" style=""/>
</svg>
