<?xml version="1.0" standalone="no"?>
<!DOCTYPE svg PUBLIC "-//W3C//DTD SVG 1.1//EN"
"http://www.w3.org/Graphics/SVG/1.1/DTD/svg11.dtd">
<svg width="212.22" height="125.291" viewBox="0 0 4421.26 2610.24" version="1.1"
xmlns="http://www.w3.org/2000/svg"
xmlns:xlink="http://www.w3.org/1999/xlink">
<g fill-rule="evenodd"><path d="M 360.236,2226.38 L 360.236,2092.52 L 494.094,2092.52 L 494.094,2226.38 L 360.236,2226.38 z " style="fill-opacity:1.000000;fill:rgb(103,198,105);stroke:rgb(0,0,0);stroke-width:2"/></g>
<g fill-rule="evenodd"><path d="M 494.094,559.449 L 492.632,573.364 L 488.308,586.671 L 481.312,598.789 L 471.95,609.187 L 460.63,617.411 L 447.848,623.102 L 434.161,626.011 L 420.169,626.011 L 406.483,623.102 L 393.701,617.411 L 382.381,609.187 L 373.019,598.789 L 366.023,586.671 L 361.699,573.364 L 360.236,559.449 L 361.699,545.533 L 366.023,532.226 L 373.019,520.109 L 382.381,509.711 L 393.701,501.486 L 406.483,495.795 L 420.169,492.886 L 434.161,492.886 L 447.848,495.795 L 460.63,501.486 L 471.95,509.711 L 481.312,520.109 L 488.308,532.226 L 492.632,545.533 L 494.094,559.449 z " style="fill-opacity:1.000000;fill:rgb(115,81,255);stroke:rgb(0,0,0);stroke-width:2"/></g>
<g fill-rule="evenodd"><path d="M 494.094,359.449 L 492.632,373.364 L 488.308,386.671 L 481.312,398.789 L 471.95,409.187 L 460.63,417.411 L 447.848,423.102 L 434.161,426.011 L 420.169,426.011 L 406.483,423.102 L 393.701,417.411 L 382.381,409.187 L 373.019,398.789 L 366.023,386.671 L 361.699,373.364 L 360.236,359.449 L 361.699,345.533 L 366.023,332.226 L 373.019,320.109 L 382.381,309.711 L 393.701,301.486 L 406.483,295.795 L 420.169,292.886 L 434.161,292.886 L 447.848,295.795 L 460.63,301.486 L 471.95,309.711 L 481.312,320.109 L 488.308,332.226 L 492.632,345.533 L 494.094,359.449 z " style="fill-opacity:1.000000;fill:rgb(74,236,41);stroke:rgb(0,0,0);stroke-width:2"/></g>
<g fill-rule="evenodd"><path d="M 2041.34,544.488 L 2039.88,558.404 L 2035.55,571.711 L 2028.56,583.828 L 2019.19,594.226 L 2007.87,602.451 L 1995.09,608.142 L 1981.41,611.051 L 1967.41,611.051 L 1953.73,608.142 L 1940.94,602.451 L 1929.63,594.226 L 1920.26,583.828 L 1913.27,571.711 L 1908.94,558.404 L 1907.48,544.488 L 1908.94,530.573 L 1913.27,517.266 L 1920.26,505.148 L 1929.63,494.75 L 1940.94,486.526 L 1953.73,480.835 L 1967.41,477.926 L 1981.41,477.926 L 1995.09,480.835 L 2007.87,486.526 L 2019.19,494.75 L 2028.56,505.148 L 2035.55,517.266 L 2039.88,530.573 L 2041.34,544.488 z " style="fill-opacity:1.000000;fill:rgb(205,186,171);stroke:rgb(0,0,0);stroke-width:2"/></g>
<g fill-rule="evenodd"><path d="M 1741.13,788.583 L 1731.79,798.951 L 1720.47,807.175 L 1707.69,812.866 L 1694,815.775 L 1680.01,815.775 L 1666.33,812.866 L 1653.54,807.175 L 1642.22,798.951 L 1632.86,788.553 L 1625.87,776.435 L 1621.54,763.128 L 1620.08,749.213 L 1621.54,735.297 L 1625.87,721.99 L 1632.86,709.873 L 1642.22,699.475 L 1653.54,691.25 L 1666.33,685.559 L 1680.01,682.65 L 1694,682.65 L 1707.69,685.559 L 1720.47,691.25 L 1731.79,699.475 L 1741.13,709.842 L 1917.55,709.842 L 1920.26,705.148 L 1929.63,694.75 L 1940.94,686.526 L 1953.73,680.835 L 1967.41,677.926 L 1981.41,677.926 L 1995.09,680.835 L 2007.87,686.526 L 2019.19,694.75 L 2028.56,705.148 L 2035.55,717.266 L 2039.88,730.573 L 2041.34,744.488 L 2039.88,758.404 L 2035.55,771.711 L 2028.56,783.828 L 2019.19,794.226 L 2007.87,802.451 L 1995.09,808.142 L 1981.41,811.051 L 1967.41,811.051 L 1953.73,808.142 L 1940.94,802.451 L 1929.63,794.226 L 1924.54,788.583 L 1741.13,788.583 z " style="fill-opacity:1.000000;fill:rgb(242,251,227);stroke:rgb(0,0,0);stroke-width:2"/></g>
<g fill-rule="evenodd"><path d="M 481.285,1998.82 L 471.95,2009.19 L 460.63,2017.41 L 447.848,2023.1 L 434.161,2026.01 L 420.169,2026.01 L 406.483,2023.1 L 393.701,2017.41 L 382.381,2009.19 L 373.046,1998.82 L 332.513,1998.82 L 324.833,1998.06 L 317.447,1995.82 L 310.64,1992.18 L 304.674,1987.29 L 258.472,1941.09 L 254.619,1939.92 L 247.812,1936.28 L 241.846,1931.38 L 202.476,1892.01 L 197.58,1886.05 L 193.942,1879.24 L 191.701,1871.85 L 190.945,1864.17 L 190.945,1661.65 L 191.701,1653.97 L 193.942,1646.58 L 197.58,1639.77 L 202.476,1633.81 L 304.674,1531.61 L 310.64,1526.71 L 317.447,1523.08 L 324.833,1520.84 L 332.513,1520.08 L 373.046,1520.08 L 382.381,1509.71 L 393.701,1501.49 L 406.483,1495.8 L 420.169,1492.89 L 434.161,1492.89 L 447.848,1495.8 L 460.63,1501.49 L 471.95,1509.71 L 481.285,1520.08 L 883.582,1520.08 L 887.97,1516.48 L 894.776,1512.84 L 902.162,1510.6 L 909.843,1509.84 L 1202.76,1509.84 L 1202.76,1203.15 L 1181.1,1203.15 L 1181.1,1155.91 L 1210.71,1155.91 L 1215.78,1150.27 L 1222.44,1145.43 L 1229.96,1142.08 L 1238.01,1140.37 L 1246.24,1140.37 L 1254.29,1142.08 L 1261.81,1145.43 L 1268.47,1150.27 L 1273.54,1155.91 L 1303.15,1155.91 L 1303.15,1203.15 L 1281.5,1203.15 L 1281.5,1509.28 L 1282.06,1509.84 L 1620.08,1509.84 L 1620.08,1482.28 L 1698.26,1482.28 L 1863.89,1316.65 L 1869.86,1311.75 L 1876.67,1308.11 L 1884.05,1305.87 L 1891.73,1305.12 L 1907.48,1305.12 L 1907.48,1277.56 L 2041.34,1277.56 L 2041.34,1411.42 L 1907.48,1411.42 L 1907.48,1384.42 L 1753.94,1537.96 L 1753.94,1616.14 L 1620.08,1616.14 L 1620.08,1588.58 L 925.867,1588.58 L 921.479,1592.18 L 914.673,1595.82 L 907.287,1598.06 L 899.606,1598.82 L 481.285,1598.82 L 471.95,1609.19 L 460.63,1617.41 L 447.848,1623.1 L 434.161,1626.01 L 420.169,1626.01 L 406.483,1623.1 L 393.701,1617.41 L 382.381,1609.19 L 373.045,1598.82 L 348.821,1598.82 L 269.685,1677.95 L 269.685,1847.87 L 287.821,1866 L 291.674,1867.17 L 298.481,1870.81 L 304.447,1875.7 L 348.821,1920.08 L 373.046,1920.08 L 382.381,1909.71 L 393.701,1901.49 L 406.483,1895.8 L 420.169,1892.89 L 434.161,1892.89 L 447.848,1895.8 L 460.63,1901.49 L 471.95,1909.71 L 481.285,1920.08 L 2973.6,1920.08 L 2980.81,1912.07 L 2992.13,1903.85 L 3004.91,1898.16 L 3018.59,1895.25 L 3032.59,1895.25 L 3046.27,1898.16 L 3059.06,1903.85 L 3070.37,1912.07 L 3079.74,1922.47 L 3086.73,1934.59 L 3091.06,1947.9 L 3092.52,1961.81 L 3091.45,1971.99 L 3278.91,2159.45 L 3726.38,2159.45 L 3726.38,2131.89 L 3860.24,2131.89 L 3860.24,2159.45 L 4021.65,2159.45 L 4021.65,2131.89 L 4155.51,2131.89 L 4155.51,2265.75 L 4021.65,2265.75 L 4021.65,2238.19 L 3860.24,2238.19 L 3860.24,2265.75 L 3726.38,2265.75 L 3726.38,2238.19 L 3262.6,2238.19 L 3254.92,2237.43 L 3247.53,2235.19 L 3240.73,2231.55 L 3234.76,2226.66 L 3035.79,2027.69 L 3032.59,2028.37 L 3018.59,2028.37 L 3004.91,2025.46 L 2992.13,2019.77 L 2980.81,2011.55 L 2971.44,2001.15 L 2970.1,1998.82 L 481.285,1998.82 z " style="fill-opacity:1.000000;fill:rgb(70,124,194);stroke:rgb(0,0,0);stroke-width:2"/></g>
<g fill-rule="evenodd"><path d="M 1676.8,1283.33 L 1680.01,1282.65 L 1694,1282.65 L 1707.69,1285.56 L 1720.47,1291.25 L 1731.79,1299.47 L 1741.15,1309.87 L 1748.15,1321.99 L 1752.47,1335.3 L 1753.94,1349.21 L 1752.47,1363.13 L 1748.15,1376.44 L 1741.15,1388.55 L 1731.79,1398.95 L 1720.47,1407.17 L 1707.69,1412.87 L 1694,1415.78 L 1680.01,1415.78 L 1666.33,1412.87 L 1653.54,1407.17 L 1642.22,1398.95 L 1632.86,1388.55 L 1625.87,1376.44 L 1621.54,1363.13 L 1620.08,1349.21 L 1621.15,1339.03 L 1401.01,1118.9 L 1242.13,1118.9 L 1233.94,1118.04 L 1226.11,1115.49 L 1218.98,1111.38 L 1212.87,1105.87 L 1210.89,1103.15 L 1181.1,1103.15 L 1181.1,1055.91 L 1210.89,1055.91 L 1212.87,1053.18 L 1218.98,1047.68 L 1226.11,1043.56 L 1233.94,1041.02 L 1242.13,1040.16 L 1417.32,1040.16 L 1425,1040.91 L 1432.39,1043.15 L 1439.2,1046.79 L 1445.16,1051.69 L 1676.8,1283.33 z " style="fill-opacity:1.000000;fill:rgb(84,248,27);stroke:rgb(0,0,0);stroke-width:2"/></g>
<g fill-rule="evenodd"><path d="M 481.285,1798.82 L 471.95,1809.19 L 460.63,1817.41 L 447.848,1823.1 L 434.161,1826.01 L 420.169,1826.01 L 406.483,1823.1 L 393.701,1817.41 L 382.381,1809.19 L 373.019,1798.79 L 366.023,1786.67 L 361.699,1773.36 L 360.236,1759.45 L 361.699,1745.53 L 366.023,1732.23 L 373.019,1720.11 L 382.381,1709.71 L 393.701,1701.49 L 406.483,1695.8 L 420.169,1692.89 L 434.161,1692.89 L 447.848,1695.8 L 460.63,1701.49 L 471.95,1709.71 L 481.285,1720.08 L 814.567,1720.08 L 822.248,1720.84 L 829.633,1723.08 L 836.44,1726.71 L 842.406,1731.61 L 876.544,1765.75 L 1926.61,1765.75 L 1974.13,1718.22 L 1980.1,1713.33 L 1986.9,1709.69 L 1994.29,1707.45 L 2001.97,1706.69 L 2009.65,1707.45 L 2014.83,1709.02 L 2057.09,1666.76 L 2057.09,1117.49 L 2040.27,1134.31 L 2041.34,1144.49 L 2039.88,1158.4 L 2035.55,1171.71 L 2028.56,1183.83 L 2019.19,1194.23 L 2007.87,1202.45 L 1995.09,1208.14 L 1981.41,1211.05 L 1967.41,1211.05 L 1953.73,1208.14 L 1940.94,1202.45 L 1929.63,1194.23 L 1920.26,1183.83 L 1913.27,1171.71 L 1908.94,1158.4 L 1907.48,1144.49 L 1908.94,1130.57 L 1913.27,1117.27 L 1920.26,1105.15 L 1929.63,1094.75 L 1940.94,1086.53 L 1953.73,1080.83 L 1967.41,1077.93 L 1981.41,1077.93 L 1984.61,1078.61 L 2057.09,1006.13 L 2057.09,502.213 L 1993.85,438.976 L 1852.92,438.976 L 1752.87,539.031 L 1753.94,549.213 L 1752.47,563.128 L 1748.15,576.435 L 1741.15,588.553 L 1731.79,598.951 L 1720.47,607.175 L 1707.69,612.866 L 1694,615.775 L 1680.01,615.775 L 1676.8,615.093 L 1384.53,907.366 L 1378.57,912.263 L 1371.76,915.901 L 1364.37,918.141 L 1356.69,918.898 L 1242.13,918.898 L 1233.94,918.037 L 1226.11,915.494 L 1218.98,911.379 L 1212.87,905.871 L 1210.89,903.15 L 1181.1,903.15 L 1181.1,855.906 L 1210.89,855.906 L 1212.87,853.184 L 1218.98,847.676 L 1226.11,843.561 L 1233.94,841.018 L 1242.13,840.157 L 1340.39,840.157 L 1621.15,559.394 L 1620.08,549.213 L 1621.54,535.297 L 1625.87,521.99 L 1632.86,509.873 L 1642.22,499.475 L 1653.54,491.25 L 1666.33,485.559 L 1680.01,482.65 L 1694,482.65 L 1697.21,483.332 L 1808.78,371.767 L 1814.74,366.871 L 1821.55,363.233 L 1828.93,360.993 L 1836.61,360.236 L 2010.16,360.236 L 2017.84,360.993 L 2025.22,363.233 L 2032.03,366.871 L 2038,371.767 L 2124.3,458.067 L 2129.19,464.033 L 2132.83,470.839 L 2135.07,478.225 L 2135.83,485.905 L 2135.83,1683.07 L 2135.07,1690.75 L 2132.83,1698.14 L 2129.19,1704.94 L 2124.3,1710.91 L 2112.76,1722.44 L 2971.47,1722.44 L 2980.81,1712.07 L 2992.13,1703.85 L 3004.91,1698.16 L 3018.59,1695.25 L 3032.59,1695.25 L 3046.27,1698.16 L 3059.06,1703.85 L 3070.37,1712.07 L 3079.71,1722.44 L 3607.48,1722.44 L 3615.16,1723.2 L 3622.55,1725.44 L 3629.35,1729.08 L 3635.32,1733.97 L 3674.41,1773.06 L 3727.45,1720.02 L 3726.38,1709.84 L 3727.84,1695.93 L 3732.16,1682.62 L 3739.16,1670.5 L 3748.52,1660.1 L 3759.84,1651.88 L 3772.62,1646.19 L 3786.31,1643.28 L 3800.3,1643.28 L 3813.99,1646.19 L 3826.77,1651.88 L 3838.09,1660.1 L 3847.45,1670.5 L 3854.45,1682.62 L 3858.77,1695.93 L 3860.24,1709.84 L 3858.77,1723.76 L 3854.45,1737.07 L 3847.45,1749.18 L 3838.09,1759.58 L 3826.77,1767.8 L 3813.99,1773.5 L 3800.3,1776.41 L 3786.31,1776.41 L 3783.1,1775.72 L 3769.46,1789.37 L 3953.38,1789.37 L 4022.72,1720.02 L 4021.65,1709.84 L 4023.12,1695.93 L 4027.44,1682.62 L 4034.44,1670.5 L 4043.8,1660.1 L 4055.12,1651.88 L 4067.9,1646.19 L 4081.59,1643.28 L 4095.58,1643.28 L 4109.26,1646.19 L 4122.05,1651.88 L 4133.37,1660.1 L 4142.73,1670.5 L 4149.73,1682.62 L 4154.05,1695.93 L 4155.51,1709.84 L 4154.05,1723.76 L 4149.73,1737.07 L 4142.73,1749.18 L 4133.37,1759.58 L 4122.05,1767.8 L 4109.26,1773.5 L 4095.58,1776.41 L 4081.59,1776.41 L 4078.38,1775.72 L 4009.06,1845.05 L 4009.06,1863.61 L 4078.38,1932.94 L 4081.59,1932.26 L 4095.58,1932.26 L 4109.26,1935.17 L 4122.05,1940.86 L 4133.37,1949.08 L 4142.73,1959.48 L 4149.73,1971.6 L 4154.05,1984.9 L 4155.51,1998.82 L 4154.05,2012.73 L 4149.73,2026.04 L 4142.73,2038.16 L 4133.37,2048.56 L 4122.05,2056.78 L 4109.26,2062.47 L 4095.58,2065.38 L 4081.59,2065.38 L 4067.9,2062.47 L 4055.12,2056.78 L 4043.8,2048.56 L 4034.44,2038.16 L 4027.44,2026.04 L 4023.12,2012.73 L 4021.65,1998.82 L 4022.72,1988.64 L 3941.85,1907.76 L 3936.95,1901.79 L 3933.31,1894.99 L 3931.07,1887.6 L 3930.32,1879.92 L 3930.32,1868.11 L 3718.28,1868.11 L 3783.1,1932.94 L 3786.31,1932.26 L 3800.3,1932.26 L 3813.99,1935.17 L 3826.77,1940.86 L 3838.09,1949.08 L 3847.45,1959.48 L 3854.45,1971.6 L 3858.77,1984.9 L 3860.24,1998.82 L 3858.77,2012.73 L 3854.45,2026.04 L 3847.45,2038.16 L 3838.09,2048.56 L 3826.77,2056.78 L 3813.99,2062.47 L 3800.3,2065.38 L 3786.31,2065.38 L 3772.62,2062.47 L 3759.84,2056.78 L 3748.52,2048.56 L 3739.16,2038.16 L 3732.16,2026.04 L 3727.84,2012.73 L 3726.38,1998.82 L 3727.45,1988.64 L 3646.57,1907.76 L 3641.67,1901.79 L 3638.04,1894.99 L 3635.8,1887.6 L 3635.04,1879.92 L 3635.04,1845.05 L 3591.17,1801.18 L 3079.71,1801.18 L 3070.37,1811.55 L 3059.06,1819.77 L 3046.27,1825.46 L 3032.59,1828.37 L 3018.59,1828.37 L 3004.91,1825.46 L 2992.13,1819.77 L 2980.81,1811.55 L 2971.47,1801.18 L 2017.72,1801.18 L 2010.04,1800.42 L 2004.86,1798.85 L 1970.75,1832.96 L 1964.79,1837.85 L 1957.98,1841.49 L 1950.59,1843.73 L 1942.91,1844.49 L 860.236,1844.49 L 852.555,1843.73 L 845.17,1841.49 L 838.363,1837.85 L 832.397,1832.96 L 798.259,1798.82 L 481.285,1798.82 z " style="fill-opacity:1.000000;fill:rgb(232,231,141);stroke:rgb(0,0,0);stroke-width:2"/></g>
<g fill-rule="evenodd"><path d="M 481.285,1398.82 L 471.95,1409.19 L 460.63,1417.41 L 447.848,1423.1 L 434.161,1426.01 L 420.169,1426.01 L 406.483,1423.1 L 393.701,1417.41 L 382.381,1409.19 L 373.019,1398.79 L 366.023,1386.67 L 361.699,1373.36 L 360.236,1359.45 L 361.699,1345.53 L 366.023,1332.23 L 373.019,1320.11 L 382.381,1309.71 L 393.701,1301.49 L 406.483,1295.8 L 420.169,1292.89 L 434.161,1292.89 L 447.848,1295.8 L 460.63,1301.49 L 471.95,1309.71 L 481.285,1320.08 L 840.779,1320.08 L 911.417,1249.44 L 911.417,1145.84 L 884.48,1118.9 L 816.929,1118.9 L 808.744,1118.04 L 800.916,1115.49 L 793.788,1111.38 L 787.671,1105.87 L 785.694,1103.15 L 755.906,1103.15 L 755.906,1055.91 L 785.694,1055.91 L 787.671,1053.18 L 793.788,1047.68 L 800.916,1043.56 L 808.744,1041.02 L 816.929,1040.16 L 900.788,1040.16 L 908.468,1040.91 L 915.854,1043.15 L 922.66,1046.79 L 928.626,1051.69 L 978.626,1101.69 L 983.522,1107.65 L 987.161,1114.46 L 989.401,1121.85 L 990.157,1129.53 L 990.157,1265.75 L 989.401,1273.43 L 987.161,1280.81 L 983.522,1287.62 L 978.626,1293.59 L 884.925,1387.29 L 878.959,1392.18 L 872.153,1395.82 L 864.767,1398.06 L 857.087,1398.82 L 481.285,1398.82 z " style="fill-opacity:1.000000;fill:rgb(118,90,46);stroke:rgb(0,0,0);stroke-width:2"/></g>
<g fill-rule="evenodd"><path d="M 493.024,749.267 L 494.094,759.449 L 492.632,773.364 L 488.308,786.671 L 481.312,798.789 L 471.95,809.187 L 460.63,817.411 L 447.848,823.102 L 434.161,826.011 L 420.169,826.011 L 406.483,823.102 L 393.701,817.411 L 382.381,809.187 L 373.019,798.789 L 366.023,786.671 L 361.699,773.364 L 360.236,759.449 L 361.699,745.533 L 366.023,732.226 L 373.019,720.109 L 382.381,709.711 L 393.701,701.486 L 406.483,695.795 L 420.169,692.886 L 434.161,692.886 L 437.369,693.568 L 466.256,664.681 L 472.222,659.785 L 479.028,656.147 L 486.414,653.906 L 494.094,653.15 L 813.78,653.15 L 821.46,653.906 L 828.846,656.147 L 835.653,659.785 L 841.619,664.681 L 978.626,801.689 L 983.522,807.655 L 987.161,814.461 L 989.401,821.847 L 990.157,829.527 L 990.157,929.528 L 989.401,937.208 L 987.161,944.594 L 983.522,951.401 L 978.626,957.367 L 928.626,1007.37 L 922.66,1012.26 L 915.854,1015.9 L 908.468,1018.14 L 900.788,1018.9 L 816.929,1018.9 L 808.744,1018.04 L 800.916,1015.49 L 793.788,1011.38 L 787.671,1005.87 L 785.694,1003.15 L 755.906,1003.15 L 755.906,955.906 L 785.694,955.905 L 787.671,953.184 L 793.788,947.676 L 800.916,943.561 L 808.744,941.018 L 816.929,940.157 L 884.48,940.158 L 911.417,913.22 L 911.417,845.835 L 797.472,731.89 L 510.402,731.89 L 493.024,749.267 z " style="fill-opacity:1.000000;fill:rgb(99,51,159);stroke:rgb(0,0,0);stroke-width:2"/></g>
<g fill-rule="evenodd"><path d="M 457.291,1218.9 L 447.848,1223.1 L 434.161,1226.01 L 420.169,1226.01 L 406.483,1223.1 L 393.701,1217.41 L 382.381,1209.19 L 373.019,1198.79 L 366.023,1186.67 L 361.699,1173.36 L 360.236,1159.45 L 361.699,1145.53 L 366.023,1132.23 L 373.019,1120.11 L 382.381,1109.71 L 393.701,1101.49 L 406.483,1095.8 L 420.169,1092.89 L 434.161,1092.89 L 447.848,1095.8 L 460.63,1101.49 L 471.95,1109.71 L 481.312,1120.11 L 488.308,1132.23 L 490.885,1140.16 L 816.929,1140.16 L 825.115,1141.02 L 832.942,1143.56 L 840.07,1147.68 L 846.187,1153.18 L 848.164,1155.91 L 877.953,1155.91 L 877.953,1203.15 L 848.164,1203.15 L 846.187,1205.87 L 840.07,1211.38 L 832.942,1215.49 L 825.115,1218.04 L 816.929,1218.9 L 457.291,1218.9 z " style="fill-opacity:1.000000;fill:rgb(201,154,102);stroke:rgb(0,0,0);stroke-width:2"/></g>
<g fill-rule="evenodd"><path d="M 493.024,949.268 L 494.094,959.449 L 492.632,973.364 L 488.308,986.671 L 481.312,998.789 L 471.95,1009.19 L 460.63,1017.41 L 447.848,1023.1 L 434.161,1026.01 L 420.169,1026.01 L 406.483,1023.1 L 393.701,1017.41 L 382.381,1009.19 L 373.019,998.789 L 366.023,986.671 L 361.699,973.364 L 360.236,959.449 L 361.699,945.533 L 366.023,932.226 L 373.019,920.109 L 382.381,909.711 L 393.701,901.486 L 406.483,895.795 L 420.169,892.886 L 434.161,892.886 L 437.369,893.568 L 479.248,851.689 L 485.214,846.793 L 492.02,843.154 L 499.406,840.914 L 507.087,840.157 L 816.929,840.157 L 825.115,841.018 L 832.942,843.561 L 840.07,847.676 L 846.187,853.184 L 848.164,855.906 L 877.953,855.906 L 877.953,903.15 L 848.164,903.15 L 846.187,905.871 L 840.07,911.379 L 832.942,915.494 L 825.115,918.037 L 816.929,918.898 L 523.394,918.898 L 493.024,949.268 z " style="fill-opacity:1.000000;fill:rgb(50,13,183);stroke:rgb(0,0,0);stroke-width:2"/></g>
<g fill-rule="evenodd"><path d="M 1676.8,1083.33 L 1680.01,1082.65 L 1694,1082.65 L 1707.69,1085.56 L 1720.47,1091.25 L 1731.79,1099.47 L 1741.15,1109.87 L 1748.15,1121.99 L 1752.47,1135.3 L 1753.94,1149.21 L 1752.47,1163.13 L 1748.15,1176.44 L 1741.15,1188.55 L 1731.79,1198.95 L 1720.47,1207.17 L 1707.69,1212.87 L 1694,1215.78 L 1680.01,1215.78 L 1666.33,1212.87 L 1653.54,1207.17 L 1642.22,1198.95 L 1632.86,1188.55 L 1625.87,1176.44 L 1621.54,1163.13 L 1620.08,1149.21 L 1621.15,1139.03 L 1501.02,1018.9 L 1242.13,1018.9 L 1233.94,1018.04 L 1226.11,1015.49 L 1218.98,1011.38 L 1212.87,1005.87 L 1210.89,1003.15 L 1181.1,1003.15 L 1181.1,955.906 L 1210.89,955.905 L 1212.87,953.184 L 1218.98,947.676 L 1226.11,943.561 L 1233.94,941.018 L 1242.13,940.157 L 1517.32,940.157 L 1525,940.914 L 1532.39,943.154 L 1539.2,946.793 L 1545.16,951.689 L 1676.8,1083.33 z " style="fill-opacity:1.000000;fill:rgb(49,88,163);stroke:rgb(0,0,0);stroke-width:2"/></g>
<g fill-rule="evenodd"><path d="M 1743.86,983.858 L 1741.15,988.553 L 1731.79,998.951 L 1720.47,1007.17 L 1707.69,1012.87 L 1694,1015.78 L 1680.01,1015.78 L 1666.33,1012.87 L 1653.54,1007.17 L 1642.22,998.951 L 1632.86,988.553 L 1625.87,976.435 L 1621.54,963.128 L 1620.08,949.213 L 1621.54,935.297 L 1625.87,921.99 L 1632.86,909.873 L 1642.22,899.475 L 1653.54,891.25 L 1666.33,885.559 L 1680.01,882.65 L 1694,882.65 L 1707.69,885.559 L 1720.47,891.25 L 1731.79,899.475 L 1736.87,905.118 L 1920.29,905.118 L 1929.63,894.75 L 1940.94,886.526 L 1953.73,880.835 L 1967.41,877.926 L 1981.41,877.926 L 1995.09,880.835 L 2007.87,886.526 L 2019.19,894.75 L 2028.56,905.148 L 2035.55,917.266 L 2039.88,930.573 L 2041.34,944.488 L 2039.88,958.404 L 2035.55,971.711 L 2028.56,983.828 L 2019.19,994.226 L 2007.87,1002.45 L 1995.09,1008.14 L 1981.41,1011.05 L 1967.41,1011.05 L 1953.73,1008.14 L 1940.94,1002.45 L 1929.63,994.226 L 1920.29,983.858 L 1743.86,983.858 z " style="fill-opacity:1.000000;fill:rgb(90,37,93);stroke:rgb(0,0,0);stroke-width:2"/></g>
<g fill-rule="evenodd"><path d="M 2516.12,1401.18 L 2507.87,1407.17 L 2495.09,1412.87 L 2481.41,1415.78 L 2467.41,1415.78 L 2453.73,1412.87 L 2440.94,1407.17 L 2429.63,1398.95 L 2420.26,1388.55 L 2413.27,1376.44 L 2408.94,1363.13 L 2407.48,1349.21 L 2408.94,1335.3 L 2413.27,1321.99 L 2420.26,1309.87 L 2429.63,1299.47 L 2440.94,1291.25 L 2453.73,1285.56 L 2467.41,1282.65 L 2481.41,1282.65 L 2495.09,1285.56 L 2507.87,1291.25 L 2519.19,1299.47 L 2528.56,1309.87 L 2535.7,1322.44 L 2971.47,1322.44 L 2980.81,1312.07 L 2992.13,1303.85 L 3004.91,1298.16 L 3018.59,1295.25 L 3032.59,1295.25 L 3046.27,1298.16 L 3059.06,1303.85 L 3070.37,1312.07 L 3079.74,1322.47 L 3086.73,1334.59 L 3091.06,1347.9 L 3092.52,1361.81 L 3091.06,1375.73 L 3086.73,1389.03 L 3079.74,1401.15 L 3070.37,1411.55 L 3059.06,1419.77 L 3046.27,1425.46 L 3032.59,1428.37 L 3018.59,1428.37 L 3004.91,1425.46 L 2992.13,1419.77 L 2980.81,1411.55 L 2971.47,1401.18 L 2516.12,1401.18 z " style="fill-opacity:1.000000;fill:rgb(5,23,88);stroke:rgb(0,0,0);stroke-width:2"/></g>
<g fill-rule="evenodd"><path d="M 2407.48,1588.58 L 2387.8,1588.58 L 2380.11,1587.83 L 2372.73,1585.59 L 2365.92,1581.95 L 2359.96,1577.05 L 2249.72,1466.82 L 2244.82,1460.85 L 2241.19,1454.04 L 2238.95,1446.66 L 2238.19,1438.98 L 2238.19,746.063 L 2238.95,738.382 L 2241.19,730.997 L 2244.82,724.19 L 2249.72,718.224 L 2408.55,559.394 L 2407.48,549.213 L 2408.94,535.297 L 2413.27,521.99 L 2420.26,509.873 L 2429.63,499.475 L 2440.94,491.25 L 2453.73,485.559 L 2467.41,482.65 L 2481.41,482.65 L 2495.09,485.559 L 2507.87,491.25 L 2519.19,499.475 L 2528.56,509.873 L 2535.55,521.99 L 2539.88,535.297 L 2541.34,549.213 L 2539.88,563.128 L 2535.55,576.435 L 2528.56,588.553 L 2519.19,598.951 L 2507.87,607.175 L 2495.09,612.866 L 2481.41,615.775 L 2467.41,615.775 L 2464.21,615.093 L 2316.93,762.371 L 2316.93,1422.67 L 2404.1,1509.84 L 2407.48,1509.84 L 2407.48,1482.28 L 2541.34,1482.28 L 2541.34,1522.44 L 2971.47,1522.44 L 2980.81,1512.07 L 2992.13,1503.85 L 3004.91,1498.16 L 3018.59,1495.25 L 3032.59,1495.25 L 3035.79,1495.93 L 3049.72,1482 L 3055.69,1477.11 L 3062.49,1473.47 L 3069.88,1471.23 L 3077.56,1470.47 L 3726.38,1470.47 L 3726.38,1442.91 L 3860.24,1442.91 L 3860.24,1470.47 L 4021.65,1470.47 L 4021.65,1442.91 L 4155.51,1442.91 L 4155.51,1576.77 L 4021.65,1576.77 L 4021.65,1549.21 L 3860.24,1549.21 L 3860.24,1576.77 L 3726.38,1576.77 L 3726.38,1549.21 L 3093.87,1549.21 L 3091.45,1551.63 L 3092.52,1561.81 L 3091.06,1575.73 L 3086.73,1589.03 L 3079.74,1601.15 L 3070.37,1611.55 L 3059.06,1619.77 L 3046.27,1625.46 L 3032.59,1628.37 L 3018.59,1628.37 L 3004.91,1625.46 L 2992.13,1619.77 L 2980.81,1611.55 L 2971.47,1601.18 L 2541.34,1601.18 L 2541.34,1616.14 L 2407.48,1616.14 L 2407.48,1588.58 z " style="fill-opacity:1.000000;fill:rgb(233,94,212);stroke:rgb(0,0,0);stroke-width:2"/></g>
<g fill-rule="evenodd"><path d="M 2516.12,801.181 L 2507.87,807.175 L 2495.09,812.866 L 2481.41,815.775 L 2467.41,815.775 L 2453.73,812.866 L 2440.94,807.175 L 2429.63,798.951 L 2420.26,788.553 L 2413.27,776.435 L 2408.94,763.128 L 2407.48,749.213 L 2408.94,735.297 L 2413.27,721.99 L 2420.26,709.873 L 2429.63,699.475 L 2440.94,691.25 L 2453.73,685.559 L 2467.41,682.65 L 2481.41,682.65 L 2495.09,685.559 L 2507.87,691.25 L 2519.19,699.475 L 2528.56,709.873 L 2535.7,722.441 L 2958.66,722.441 L 2958.66,694.882 L 3092.52,694.882 L 3092.52,828.74 L 2958.66,828.74 L 2958.66,801.181 L 2516.12,801.181 z " style="fill-opacity:1.000000;fill:rgb(171,178,205);stroke:rgb(0,0,0);stroke-width:2"/></g>
<g fill-rule="evenodd"><path d="M 2528.53,988.583 L 2519.19,998.951 L 2507.87,1007.17 L 2495.09,1012.87 L 2481.41,1015.78 L 2467.41,1015.78 L 2453.73,1012.87 L 2440.94,1007.17 L 2429.63,998.951 L 2420.26,988.553 L 2413.27,976.435 L 2408.94,963.128 L 2407.48,949.213 L 2408.94,935.297 L 2413.27,921.99 L 2420.26,909.873 L 2429.63,899.475 L 2440.94,891.25 L 2453.73,885.559 L 2467.41,882.65 L 2481.41,882.65 L 2495.09,885.559 L 2507.87,891.25 L 2519.19,899.475 L 2528.53,909.843 L 2983.88,909.843 L 2992.13,903.849 L 3004.91,898.158 L 3018.59,895.249 L 3032.59,895.249 L 3046.27,898.158 L 3059.06,903.849 L 3070.37,912.073 L 3079.74,922.471 L 3086.73,934.588 L 3091.06,947.896 L 3092.52,961.811 L 3091.06,975.726 L 3086.73,989.034 L 3079.74,1001.15 L 3070.37,1011.55 L 3059.06,1019.77 L 3046.27,1025.46 L 3032.59,1028.37 L 3018.59,1028.37 L 3004.91,1025.46 L 2992.13,1019.77 L 2980.81,1011.55 L 2971.44,1001.15 L 2964.3,988.582 L 2528.53,988.583 z " style="fill-opacity:1.000000;fill:rgb(198,155,180);stroke:rgb(0,0,0);stroke-width:2"/></g>
<g fill-rule="evenodd"><path d="M 2528.53,1188.58 L 2519.19,1198.95 L 2507.87,1207.17 L 2495.09,1212.87 L 2481.41,1215.78 L 2467.41,1215.78 L 2453.73,1212.87 L 2440.94,1207.17 L 2429.63,1198.95 L 2420.26,1188.55 L 2413.27,1176.44 L 2408.94,1163.13 L 2407.48,1149.21 L 2408.94,1135.3 L 2413.27,1121.99 L 2420.26,1109.87 L 2429.63,1099.47 L 2440.94,1091.25 L 2453.73,1085.56 L 2467.41,1082.65 L 2481.41,1082.65 L 2495.09,1085.56 L 2507.87,1091.25 L 2519.19,1099.47 L 2528.53,1109.84 L 2983.88,1109.84 L 2992.13,1103.85 L 3004.91,1098.16 L 3018.59,1095.25 L 3032.59,1095.25 L 3046.27,1098.16 L 3059.06,1103.85 L 3070.37,1112.07 L 3079.74,1122.47 L 3086.73,1134.59 L 3091.06,1147.9 L 3092.52,1161.81 L 3091.06,1175.73 L 3086.73,1189.03 L 3079.74,1201.15 L 3070.37,1211.55 L 3059.06,1219.77 L 3046.27,1225.46 L 3032.59,1228.37 L 3018.59,1228.37 L 3004.91,1225.46 L 2992.13,1219.77 L 2980.81,1211.55 L 2971.44,1201.15 L 2964.3,1188.58 L 2528.53,1188.58 z " style="fill-opacity:1.000000;fill:rgb(84,17,14);stroke:rgb(0,0,0);stroke-width:2"/></g>
</svg>
