M48
;DRILL file {KiCad 5.0.2-bee76a0~70~ubuntu18.04.1} date Mi 14 Aug 2019 22:35:07 CEST
;FORMAT={-:-/ absolute / inch / decimal}
FMAT,2
INCH,TZ
T1C0.0394
%
G90
G05
T1
X1.9626Y-0.9177
X1.9626Y-1.0177
X0.1319Y-0.098
X0.1319Y-0.198
X0.1319Y-0.298
X0.1319Y-0.398
X0.1319Y-0.498
X0.1319Y-0.598
X0.1319Y-0.798
X0.1319Y-0.898
X0.1319Y-0.998
X1.815Y-0.6732
X1.815Y-0.7732
X0.9055Y-0.1906
X0.9055Y-0.2906
X0.9055Y-0.3906
X0.9055Y-0.4906
X0.9055Y-0.5906
X1.815Y-0.9177
X1.815Y-1.0177
X0.7618Y-0.1929
X0.7618Y-0.2929
X0.7618Y-0.3929
X0.7618Y-0.4929
X0.7618Y-0.5929
X0.7618Y-0.6929
X1.4311Y-0.2992
X1.4311Y-0.3992
X1.4311Y-0.4992
X1.4311Y-0.5992
X1.4311Y-0.6992
X1.4311Y-0.7992
X1.4311Y-0.8992
X1.1555Y-0.1929
X1.1555Y-0.2929
X1.1555Y-0.3929
X1.1555Y-0.4929
X1.1555Y-0.5929
X1.1555Y-0.6929
X1.9626Y-0.6732
X1.9626Y-0.7732
T0
M30
