<?xml version="1.0" standalone="no"?>
<!DOCTYPE svg PUBLIC "-//W3C//DTD SVG 1.1//EN"
"http://www.w3.org/Graphics/SVG/1.1/DTD/svg11.dtd">
<svg width="212.22" height="125.291" viewBox="0 0 4421.26 2610.24" version="1.1"
xmlns="http://www.w3.org/2000/svg"
xmlns:xlink="http://www.w3.org/1999/xlink">
<polyline points="84.6458,2446.85 84.6458,163.386 86.1598,148.026 90.6398,133.254 97.9158,119.642 107.71,107.71 119.642,97.9158 133.254,90.6398 148.026,86.1598 163.386,84.6458 4257.87,84.6458 4273.23,86.1598 4288.01,90.6398 4301.62,97.9158 4313.55,107.71 4323.34,119.642 4330.62,133.254 4335.1,148.026 4336.61,163.386 4336.61,2446.85 4335.1,2462.21 4330.62,2476.98 4323.34,2490.6 4313.55,2502.53 4301.62,2512.32 4288.01,2519.6 4273.23,2524.08 4257.87,2525.59 163.386,2525.59 148.026,2524.08 133.254,2519.6 119.642,2512.32 107.71,2502.53 97.9158,2490.6 90.6398,2476.98 86.1598,2462.21 84.6458,2446.85" style="stroke:rgb(103,198,105);stroke-width:157.480315;fill:none;stroke-opacity:0.5;stroke-linecap:round;stroke-linejoin:round;;fill:none"/>
<polyline points="84.6458,2446.85 84.6458,163.386 86.1598,148.026 90.6398,133.254 97.9158,119.642 107.71,107.71 119.642,97.9158 133.254,90.6398 148.026,86.1598 163.386,84.6458 4257.87,84.6458 4273.23,86.1598 4288.01,90.6398 4301.62,97.9158 4313.55,107.71 4323.34,119.642 4330.62,133.254 4335.1,148.026 4336.61,163.386 4336.61,2446.85 4335.1,2462.21 4330.62,2476.98 4323.34,2490.6 4313.55,2502.53 4301.62,2512.32 4288.01,2519.6 4273.23,2524.08 4257.87,2525.59 163.386,2525.59 148.026,2524.08 133.254,2519.6 119.642,2512.32 107.71,2502.53 97.9158,2490.6 90.6398,2476.98 86.1598,2462.21 84.6458,2446.85" style="stroke:rgb(0,0,0);stroke-width:1px;fill:none;stroke-opacity:1;stroke-linecap:round;stroke-linejoin:round;;fill:none"/>
</svg>
