<?xml version="1.0" standalone="no"?>
<!DOCTYPE svg PUBLIC "-//W3C//DTD SVG 1.1//EN"
"http://www.w3.org/Graphics/SVG/1.1/DTD/svg11.dtd">
<svg width="212.22" height="125.291" viewBox="0 0 4421.26 2610.24" version="1.1"
xmlns="http://www.w3.org/2000/svg"
xmlns:xlink="http://www.w3.org/1999/xlink">
<polyline points="344.488,2226.38 344.488,2092.52 345.686,2086.49 349.1,2081.38 354.208,2077.97 360.236,2076.77 494.094,2076.77 500.12,2077.97 505.23,2081.38 508.642,2086.49 509.842,2092.52 509.842,2226.38 508.642,2232.4 505.23,2237.51 500.12,2240.93 494.094,2242.13 360.236,2242.13 354.208,2240.93 349.1,2237.51 345.686,2232.4 344.488,2226.38 352.362,2226.38 352.362,2092.52 354.668,2086.95 360.236,2084.64 494.094,2084.64 499.662,2086.95 501.968,2092.52 501.968,2226.38 499.662,2231.94 494.094,2234.25 360.236,2234.25 354.668,2231.94 352.362,2226.38" style="stroke:rgb(103,198,105);stroke-width:15.748031;fill:none;stroke-opacity:0.5;stroke-linecap:round;stroke-linejoin:round;;fill:none"/>
<polyline points="344.488,2226.38 344.488,2092.52 345.686,2086.49 349.1,2081.38 354.208,2077.97 360.236,2076.77 494.094,2076.77 500.12,2077.97 505.23,2081.38 508.642,2086.49 509.842,2092.52 509.842,2226.38 508.642,2232.4 505.23,2237.51 500.12,2240.93 494.094,2242.13 360.236,2242.13 354.208,2240.93 349.1,2237.51 345.686,2232.4 344.488,2226.38 352.362,2226.38 352.362,2092.52 354.668,2086.95 360.236,2084.64 494.094,2084.64 499.662,2086.95 501.968,2092.52 501.968,2226.38 499.662,2231.94 494.094,2234.25 360.236,2234.25 354.668,2231.94 352.362,2226.38" style="stroke:rgb(0,0,0);stroke-width:1px;fill:none;stroke-opacity:1;stroke-linecap:round;stroke-linejoin:round;;fill:none"/>
<polyline points="344.574,561.094 346.294,576.638 351.044,591.536 360.278,608.044 370.678,619.724 385.826,631.048 401.616,638.078 418.522,641.672 434.16,641.758 454.252,637.488 468.504,631.048 483.652,619.724 494.95,606.662 502.694,593.076 508.292,575.01 509.756,557.802 508.034,542.258 501.946,524.352 494.052,510.852 482.486,498.006 469.886,488.746 452.714,480.818 437.434,477.482 420.168,477.138 403.208,480.39 385.826,487.848 371.842,498.006 361.314,509.57 352.384,524.352 346.72,540.666 344.574,561.094 352.404,560.272 354.21,543.1 359.202,528.288 366.198,516.172 377.112,503.858 389.072,495.116 404.05,488.306 419.346,485.054 434.984,485.054 450.28,488.306 465.258,495.116 477.8,504.442 487.682,515.48 495.126,528.288 500.12,543.1 501.924,558.624 500.334,575 495.126,590.608 487.162,604.056 477.218,615.038 465.258,623.78 450.28,630.59 434.16,633.884 419.346,633.842 404.05,630.59 389.072,623.78 377.112,615.038 367.166,604.056 358.534,589.104 353.996,575 352.404,560.272" style="stroke:rgb(115,81,255);stroke-width:15.748031;fill:none;stroke-opacity:0.5;stroke-linecap:round;stroke-linejoin:round;;fill:none"/>
<polyline points="344.574,561.094 346.294,576.638 351.044,591.536 360.278,608.044 370.678,619.724 385.826,631.048 401.616,638.078 418.522,641.672 434.16,641.758 454.252,637.488 468.504,631.048 483.652,619.724 494.95,606.662 502.694,593.076 508.292,575.01 509.756,557.802 508.034,542.258 501.946,524.352 494.052,510.852 482.486,498.006 469.886,488.746 452.714,480.818 437.434,477.482 420.168,477.138 403.208,480.39 385.826,487.848 371.842,498.006 361.314,509.57 352.384,524.352 346.72,540.666 344.574,561.094 352.404,560.272 354.21,543.1 359.202,528.288 366.198,516.172 377.112,503.858 389.072,495.116 404.05,488.306 419.346,485.054 434.984,485.054 450.28,488.306 465.258,495.116 477.8,504.442 487.682,515.48 495.126,528.288 500.12,543.1 501.924,558.624 500.334,575 495.126,590.608 487.162,604.056 477.218,615.038 465.258,623.78 450.28,630.59 434.16,633.884 419.346,633.842 404.05,630.59 389.072,623.78 377.112,615.038 367.166,604.056 358.534,589.104 353.996,575 352.404,560.272" style="stroke:rgb(0,0,0);stroke-width:1px;fill:none;stroke-opacity:1;stroke-linecap:round;stroke-linejoin:round;;fill:none"/>
<polyline points="344.574,357.802 346.294,342.258 351.636,325.82 359.38,312.234 370.678,299.172 384.444,288.746 400.076,281.408 420.168,277.138 435.806,277.224 454.252,281.408 468.504,287.848 483.652,299.172 494.052,310.852 501.946,324.352 508.034,342.258 509.756,357.802 508.034,376.638 502.694,393.076 494.95,406.662 483.652,419.724 468.504,431.048 454.252,437.488 434.16,441.758 418.522,441.672 400.076,437.488 385.826,431.048 371.842,420.89 360.278,408.044 351.044,391.536 346.294,376.638 344.574,357.802 352.362,359.448 354.21,375.796 359.202,390.608 366.198,402.724 377.112,415.038 389.072,423.78 403.28,430.294 419.346,433.842 434.984,433.842 451.05,430.294 464.566,424.23 476.578,415.556 487.162,404.056 495.126,390.608 500.334,375 501.968,359.448 500.12,343.1 495.126,328.288 487.682,315.48 477.8,304.442 463.832,294.292 449.484,288.092 434.984,285.054 420.168,285.012 403.28,288.602 389.762,294.666 377.752,303.34 366.648,315.48 358.534,329.792 353.868,344.71 352.362,359.448" style="stroke:rgb(74,236,41);stroke-width:15.748031;fill:none;stroke-opacity:0.5;stroke-linecap:round;stroke-linejoin:round;;fill:none"/>
<polyline points="344.574,357.802 346.294,342.258 351.636,325.82 359.38,312.234 370.678,299.172 384.444,288.746 400.076,281.408 420.168,277.138 435.806,277.224 454.252,281.408 468.504,287.848 483.652,299.172 494.052,310.852 501.946,324.352 508.034,342.258 509.756,357.802 508.034,376.638 502.694,393.076 494.95,406.662 483.652,419.724 468.504,431.048 454.252,437.488 434.16,441.758 418.522,441.672 400.076,437.488 385.826,431.048 371.842,420.89 360.278,408.044 351.044,391.536 346.294,376.638 344.574,357.802 352.362,359.448 354.21,375.796 359.202,390.608 366.198,402.724 377.112,415.038 389.072,423.78 403.28,430.294 419.346,433.842 434.984,433.842 451.05,430.294 464.566,424.23 476.578,415.556 487.162,404.056 495.126,390.608 500.334,375 501.968,359.448 500.12,343.1 495.126,328.288 487.682,315.48 477.8,304.442 463.832,294.292 449.484,288.092 434.984,285.054 420.168,285.012 403.28,288.602 389.762,294.666 377.752,303.34 366.648,315.48 358.534,329.792 353.868,344.71 352.362,359.448" style="stroke:rgb(0,0,0);stroke-width:1px;fill:none;stroke-opacity:1;stroke-linecap:round;stroke-linejoin:round;;fill:none"/>
<polyline points="1891.73,544.488 1893.96,563.27 1899.63,579.584 1907.52,593.084 1920.37,606.966 1934.54,616.836 1948.86,623.118 1967.41,626.798 1983.05,626.712 1999.96,623.118 2014.28,616.836 2028.45,606.966 2041.34,592.882 2046.05,575.12 2049.19,545.312 2048.26,527.846 2044.46,507.44 2025.55,485.992 2012.86,475.324 1997.94,465.34 1983.05,462.264 1967.41,462.176 1950.45,465.43 1934.54,472.138 1920.37,482.008 1908.56,494.61 1899.63,509.39 1893.54,527.298 1891.73,544.488 1899.61,544.488 1901.24,560.04 1905.78,574.144 1914.41,589.096 1925,600.596 1936.32,608.82 1950.52,615.334 1966.59,618.88 1983.04,618.752 1998.29,615.334 2012.5,608.82 2023.82,600.596 2035.37,587.764 2043.04,574.144 2047.71,559.226 2049.19,544.914 2047.71,529.748 2043.04,514.832 2035.37,501.21 2024.46,488.898 2011.08,479.332 1997.52,473.346 1983.04,470.222 1967.41,470.05 1951.29,473.346 1936.32,480.154 1923.77,489.48 1913.44,501.21 1906.45,513.328 1901.24,528.934 1899.61,544.488" style="stroke:rgb(205,186,171);stroke-width:15.748031;fill:none;stroke-opacity:0.5;stroke-linecap:round;stroke-linejoin:round;;fill:none"/>
<polyline points="1891.73,544.488 1893.96,563.27 1899.63,579.584 1907.52,593.084 1920.37,606.966 1934.54,616.836 1948.86,623.118 1967.41,626.798 1983.05,626.712 1999.96,623.118 2014.28,616.836 2028.45,606.966 2041.34,592.882 2046.05,575.12 2049.19,545.312 2048.26,527.846 2044.46,507.44 2025.55,485.992 2012.86,475.324 1997.94,465.34 1983.05,462.264 1967.41,462.176 1950.45,465.43 1934.54,472.138 1920.37,482.008 1908.56,494.61 1899.63,509.39 1893.54,527.298 1891.73,544.488 1899.61,544.488 1901.24,560.04 1905.78,574.144 1914.41,589.096 1925,600.596 1936.32,608.82 1950.52,615.334 1966.59,618.88 1983.04,618.752 1998.29,615.334 2012.5,608.82 2023.82,600.596 2035.37,587.764 2043.04,574.144 2047.71,559.226 2049.19,544.914 2047.71,529.748 2043.04,514.832 2035.37,501.21 2024.46,488.898 2011.08,479.332 1997.52,473.346 1983.04,470.222 1967.41,470.05 1951.29,473.346 1936.32,480.154 1923.77,489.48 1913.44,501.21 1906.45,513.328 1901.24,528.934 1899.61,544.488" style="stroke:rgb(0,0,0);stroke-width:1px;fill:none;stroke-opacity:1;stroke-linecap:round;stroke-linejoin:round;;fill:none"/>
<polyline points="1604.33,749.212 1606.14,766.402 1610.89,781.3 1620.12,797.808 1630.52,809.488 1645.67,820.812 1659.92,827.252 1678.36,831.436 1694,831.522 1712.56,827.842 1726.88,821.56 1741.05,811.69 1748.14,804.33 1917.53,804.33 1933.07,816.088 1950.45,823.544 1967.41,826.798 1983.05,826.712 1998.37,823.544 2017.13,815.19 2030.9,804.762 2041.25,793.136 2046.05,775.12 2048.46,759.302 2049.19,743.662 2046.05,713.852 2041.8,697.502 2030.9,684.212 2015.75,672.886 2001.5,666.448 1983.05,662.264 1967.41,662.176 1948.86,665.856 1934.54,672.138 1919.09,683.046 1909.02,694.094 1748.14,694.094 1741.05,686.734 1728.35,677.612 1710.96,670.154 1694,666.902 1678.36,666.988 1663.05,670.154 1644.29,678.51 1631.69,687.77 1620.12,700.616 1610.89,717.122 1606.14,732.022 1604.33,749.212 1612.2,749.212 1613.84,764.764 1618.38,778.868 1626.04,792.488 1636.37,804.218 1650.34,814.368 1663.89,820.354 1678.37,823.476 1694,823.648 1710.89,820.058 1725.1,813.544 1737.06,804.802 1744.63,796.456 1921.04,796.456 1936.32,808.82 1952.09,815.842 1967.41,818.924 1983.04,818.752 1996.73,815.842 2011.08,809.642 2023.82,800.596 2035.37,787.764 2043.04,774.144 2047.36,760.836 2049.17,743.664 2047.58,728.934 2043.04,714.832 2035.37,701.21 2025.04,689.48 2011.08,679.332 1997.52,673.346 1983.04,670.222 1965.78,670.222 1951.29,673.346 1937.74,679.332 1924.36,688.898 1913.01,701.968 1744.63,701.968 1736.42,693.104 1725.1,684.88 1710.12,678.07 1694,674.776 1679.19,674.818 1664.69,677.856 1648.91,684.88 1636.95,693.622 1627.01,704.604 1618.38,719.556 1613.84,733.66 1612.2,749.212" style="stroke:rgb(242,251,227);stroke-width:15.748031;fill:none;stroke-opacity:0.5;stroke-linecap:round;stroke-linejoin:round;;fill:none"/>
<polyline points="1604.33,749.212 1606.14,766.402 1610.89,781.3 1620.12,797.808 1630.52,809.488 1645.67,820.812 1659.92,827.252 1678.36,831.436 1694,831.522 1712.56,827.842 1726.88,821.56 1741.05,811.69 1748.14,804.33 1917.53,804.33 1933.07,816.088 1950.45,823.544 1967.41,826.798 1983.05,826.712 1998.37,823.544 2017.13,815.19 2030.9,804.762 2041.25,793.136 2046.05,775.12 2048.46,759.302 2049.19,743.662 2046.05,713.852 2041.8,697.502 2030.9,684.212 2015.75,672.886 2001.5,666.448 1983.05,662.264 1967.41,662.176 1948.86,665.856 1934.54,672.138 1919.09,683.046 1909.02,694.094 1748.14,694.094 1741.05,686.734 1728.35,677.612 1710.96,670.154 1694,666.902 1678.36,666.988 1663.05,670.154 1644.29,678.51 1631.69,687.77 1620.12,700.616 1610.89,717.122 1606.14,732.022 1604.33,749.212 1612.2,749.212 1613.84,764.764 1618.38,778.868 1626.04,792.488 1636.37,804.218 1650.34,814.368 1663.89,820.354 1678.37,823.476 1694,823.648 1710.89,820.058 1725.1,813.544 1737.06,804.802 1744.63,796.456 1921.04,796.456 1936.32,808.82 1952.09,815.842 1967.41,818.924 1983.04,818.752 1996.73,815.842 2011.08,809.642 2023.82,800.596 2035.37,787.764 2043.04,774.144 2047.36,760.836 2049.17,743.664 2047.58,728.934 2043.04,714.832 2035.37,701.21 2025.04,689.48 2011.08,679.332 1997.52,673.346 1983.04,670.222 1965.78,670.222 1951.29,673.346 1937.74,679.332 1924.36,688.898 1913.01,701.968 1744.63,701.968 1736.42,693.104 1725.1,684.88 1710.12,678.07 1694,674.776 1679.19,674.818 1664.69,677.856 1648.91,684.88 1636.95,693.622 1627.01,704.604 1618.38,719.556 1613.84,733.66 1612.2,749.212" style="stroke:rgb(0,0,0);stroke-width:1px;fill:none;stroke-opacity:1;stroke-linecap:round;stroke-linejoin:round;;fill:none"/>
<polyline points="175.196,1864.17 175.196,1661.65 176.028,1652.42 178.87,1642.01 183.69,1632.35 191.34,1622.67 293.538,1520.47 303.216,1512.82 312.874,1508 330.968,1504.41 366.034,1504.33 373.124,1496.97 387.294,1487.1 403.208,1480.39 420.168,1477.14 435.806,1477.22 454.252,1481.41 469.886,1488.75 482.486,1498.01 488.296,1504.33 877.946,1504.33 890.204,1497.77 900.618,1494.93 909.842,1494.09 1187.01,1494.09 1187.01,1218.9 1175.08,1217.7 1169.97,1214.28 1166.55,1209.18 1165.35,1203.15 1165.66,1152.83 1169.97,1144.77 1178.03,1140.46 1203.7,1140.16 1213.18,1132.69 1219.28,1129.6 1248.5,1129.75 1270.43,1133.56 1273.76,1134.64 1280.55,1140.16 1303.15,1140.16 1309.18,1141.36 1314.28,1144.77 1318.59,1152.83 1318.9,1203.15 1317.7,1209.18 1314.28,1214.28 1309.18,1217.7 1297.24,1218.9 1297.24,1494.09 1604.33,1494.09 1605.53,1476.26 1608.94,1471.15 1614.05,1467.73 1620.08,1466.53 1691.74,1466.53 1853.9,1304.48 1862.44,1297.86 1872.09,1293.04 1882.51,1290.2 1891.73,1289.37 1892.93,1271.53 1896.34,1266.42 1904.41,1262.11 2041.34,1261.81 2047.24,1269.68 2049.21,1277.56 2049.21,1411.42 2047.24,1419.29 2041.34,1427.16 1907.48,1427.16 1898.73,1424.51 1894.25,1419.92 1769.68,1544.48 1769.38,1619.21 1765.07,1627.28 1757.01,1631.59 1617.01,1631.59 1611.33,1629.23 1605.53,1622.17 1604.33,1604.33 931.5,1604.33 919.244,1610.89 908.83,1613.73 899.606,1614.57 488.296,1614.57 481.206,1621.93 469.886,1630.15 454.252,1637.49 435.806,1641.67 420.168,1641.76 403.208,1638.51 387.294,1631.8 371.842,1620.89 366.034,1614.57 355.344,1614.57 285.432,1684.48 285.432,1841.34 296.166,1852.08 305.904,1856.92 314.436,1863.53 355.344,1904.33 366.034,1904.33 373.124,1896.97 387.294,1887.1 403.208,1880.39 420.168,1877.14 435.806,1877.22 454.252,1881.41 469.886,1888.75 482.486,1898.01 488.296,1904.33 2966.59,1904.33 2971.55,1899.33 2984.25,1890.21 2998.5,1883.77 3016.95,1879.59 3034.23,1879.59 3049.55,1882.75 3065.46,1889.46 3082.08,1901.53 3093.37,1914.6 3101.12,1928.18 3106.72,1946.25 3107.9,1966.17 3285.43,2143.7 3710.63,2143.7 3710.93,2128.82 3713.28,2123.14 3717.63,2118.79 3726.38,2116.14 3860.24,2116.14 3868.98,2118.79 3873.33,2123.14 3875.68,2128.82 3875.98,2143.7 4005.9,2143.7 4007.1,2125.86 4012.9,2118.79 4018.58,2116.44 4158.58,2116.44 4166.65,2120.75 4170.06,2125.86 4171.26,2131.89 4170.96,2268.82 4168.6,2274.5 4164.26,2278.84 4155.51,2281.5 4021.65,2281.5 4012.9,2278.84 4008.56,2274.5 4006.21,2268.82 4005.9,2253.94 3875.98,2253.94 3874.78,2271.77 3868.98,2278.84 3863.31,2281.19 3726.38,2281.5 3717.63,2278.84 3713.28,2274.5 3710.93,2268.82 3710.63,2253.94 3262.6,2253.94 3250.35,2252.5 3233.3,2245.44 3223.62,2237.79 3029.95,2044.12 3016.95,2044.03 2998.5,2039.85 2982.87,2032.51 2970.27,2023.25 2962.33,2014.57 488.296,2014.57 481.206,2021.93 469.886,2030.15 454.252,2037.49 435.806,2041.67 420.168,2041.76 403.208,2038.51 387.294,2031.8 371.842,2020.89 366.034,2014.57 323.288,2013.73 312.874,2010.89 303.216,2006.07 293.538,1998.42 250.126,1955.01 240.388,1950.17 230.71,1942.52 185.406,1896.04 178.87,1883.81 176.028,1873.4 175.196,1864.17 183.07,1864.17 183.07,1661.65 183.864,1653.19 186.406,1644.29 190.634,1636.06 196.908,1628.24 299.106,1526.04 306.928,1519.77 315.16,1515.54 331.74,1512.24 369.538,1512.2 377.752,1503.34 389.762,1494.67 404.846,1488.09 420.168,1485.01 434.984,1485.05 451.05,1488.6 465.258,1495.12 476.578,1503.34 484.79,1512.2 880.764,1512.2 892.49,1505.3 901.39,1502.76 909.842,1501.97 1194.88,1501.97 1194.88,1211.02 1179.57,1210.87 1176.73,1209.7 1173.83,1206.16 1173.38,1154.37 1175.53,1150.34 1179.57,1148.18 1207.2,1148.03 1217.81,1139.06 1226.76,1134.89 1236.37,1132.67 1246.24,1132.5 1256.72,1134.59 1265.01,1138.24 1277.05,1148.03 1304.68,1148.18 1308.72,1150.34 1310.87,1154.37 1310.42,1206.16 1307.52,1209.7 1304.68,1210.87 1289.37,1211.02 1289.37,1501.97 1612.2,1501.97 1612.36,1480.75 1613.53,1477.91 1617.06,1475.01 1695,1474.41 1858.9,1310.56 1866.15,1304.81 1874.38,1300.58 1883.28,1298.04 1899.61,1297.24 1899.76,1276.02 1901.91,1271.99 1905.94,1269.84 2041.34,1269.68 2046.91,1271.99 2049.21,1277.56 2049.21,1411.42 2048.32,1414.98 2045.71,1417.96 2041.34,1419.29 1907.48,1419.29 1903.1,1417.96 1900.2,1414.43 1899.61,1403.43 1761.81,1541.22 1761.81,1616.14 1760.48,1620.52 1755.47,1623.86 1618.54,1623.86 1614.51,1621.71 1612.36,1617.68 1612.2,1596.46 928.684,1596.46 916.958,1603.36 908.058,1605.9 899.606,1606.69 484.79,1606.69 476.578,1615.56 465.258,1623.78 451.05,1630.29 434.984,1633.84 420.168,1633.88 404.846,1630.8 389.762,1624.23 377.752,1615.56 369.538,1606.69 352.082,1606.69 277.558,1681.22 277.558,1844.6 291.994,1859.04 302.192,1863.86 309.442,1869.62 352.082,1912.2 369.538,1912.2 377.752,1903.34 389.762,1894.67 404.846,1888.09 420.168,1885.01 434.984,1885.05 451.05,1888.6 465.258,1895.12 476.578,1903.34 484.79,1912.2 2970.09,1912.2 2976.18,1905.7 2987.5,1897.48 3001.7,1890.96 3017.77,1887.42 3033.41,1887.42 3047.91,1890.45 3062.26,1896.65 3076.23,1906.8 3086.56,1918.53 3094.22,1932.15 3098.89,1947.07 3100.35,1960.99 3099.67,1969.08 3282.17,2151.57 3718.5,2151.57 3718.65,2130.35 3722,2125.34 3726.38,2124.01 3861.77,2124.17 3865.8,2126.32 3867.96,2130.35 3868.11,2151.57 4013.78,2151.57 4013.93,2130.35 4016.08,2126.32 4020.12,2124.17 4157.05,2124.17 4162.06,2127.51 4163.39,2131.89 4162.79,2268.76 4159.89,2272.29 4155.51,2273.62 4020.12,2273.47 4016.08,2271.31 4013.93,2267.28 4013.78,2246.06 3868.11,2246.06 3867.96,2267.28 3865.8,2271.31 3861.77,2273.47 3726.38,2273.62 3722,2272.29 3718.65,2267.28 3718.5,2246.06 3262.6,2246.06 3252.63,2244.97 3237.01,2238.5 3229.19,2232.22 3033.15,2036.19 3017.77,2036.2 3001.7,2032.66 2987.5,2026.14 2975.54,2017.4 2965.84,2006.69 484.79,2006.69 476.578,2015.56 465.258,2023.78 451.05,2030.29 434.984,2033.84 419.346,2033.84 404.846,2030.8 389.762,2024.23 377.752,2015.56 369.54,2006.69 324.06,2005.9 313.734,2002.77 305.644,1998.27 254.298,1948.05 244.1,1943.22 236.278,1936.95 196.908,1897.58 191.492,1891.04 186.996,1882.95 184.166,1874.14 183.07,1864.17" style="stroke:rgb(70,124,194);stroke-width:15.748031;fill:none;stroke-opacity:0.5;stroke-linecap:round;stroke-linejoin:round;;fill:none"/>
<polyline points="175.196,1864.17 175.196,1661.65 176.028,1652.42 178.87,1642.01 183.69,1632.35 191.34,1622.67 293.538,1520.47 303.216,1512.82 312.874,1508 330.968,1504.41 366.034,1504.33 373.124,1496.97 387.294,1487.1 403.208,1480.39 420.168,1477.14 435.806,1477.22 454.252,1481.41 469.886,1488.75 482.486,1498.01 488.296,1504.33 877.946,1504.33 890.204,1497.77 900.618,1494.93 909.842,1494.09 1187.01,1494.09 1187.01,1218.9 1175.08,1217.7 1169.97,1214.28 1166.55,1209.18 1165.35,1203.15 1165.66,1152.83 1169.97,1144.77 1178.03,1140.46 1203.7,1140.16 1213.18,1132.69 1219.28,1129.6 1248.5,1129.75 1270.43,1133.56 1273.76,1134.64 1280.55,1140.16 1303.15,1140.16 1309.18,1141.36 1314.28,1144.77 1318.59,1152.83 1318.9,1203.15 1317.7,1209.18 1314.28,1214.28 1309.18,1217.7 1297.24,1218.9 1297.24,1494.09 1604.33,1494.09 1605.53,1476.26 1608.94,1471.15 1614.05,1467.73 1620.08,1466.53 1691.74,1466.53 1853.9,1304.48 1862.44,1297.86 1872.09,1293.04 1882.51,1290.2 1891.73,1289.37 1892.93,1271.53 1896.34,1266.42 1904.41,1262.11 2041.34,1261.81 2047.24,1269.68 2049.21,1277.56 2049.21,1411.42 2047.24,1419.29 2041.34,1427.16 1907.48,1427.16 1898.73,1424.51 1894.25,1419.92 1769.68,1544.48 1769.38,1619.21 1765.07,1627.28 1757.01,1631.59 1617.01,1631.59 1611.33,1629.23 1605.53,1622.17 1604.33,1604.33 931.5,1604.33 919.244,1610.89 908.83,1613.73 899.606,1614.57 488.296,1614.57 481.206,1621.93 469.886,1630.15 454.252,1637.49 435.806,1641.67 420.168,1641.76 403.208,1638.51 387.294,1631.8 371.842,1620.89 366.034,1614.57 355.344,1614.57 285.432,1684.48 285.432,1841.34 296.166,1852.08 305.904,1856.92 314.436,1863.53 355.344,1904.33 366.034,1904.33 373.124,1896.97 387.294,1887.1 403.208,1880.39 420.168,1877.14 435.806,1877.22 454.252,1881.41 469.886,1888.75 482.486,1898.01 488.296,1904.33 2966.59,1904.33 2971.55,1899.33 2984.25,1890.21 2998.5,1883.77 3016.95,1879.59 3034.23,1879.59 3049.55,1882.75 3065.46,1889.46 3082.08,1901.53 3093.37,1914.6 3101.12,1928.18 3106.72,1946.25 3107.9,1966.17 3285.43,2143.7 3710.63,2143.7 3710.93,2128.82 3713.28,2123.14 3717.63,2118.79 3726.38,2116.14 3860.24,2116.14 3868.98,2118.79 3873.33,2123.14 3875.68,2128.82 3875.98,2143.7 4005.9,2143.7 4007.1,2125.86 4012.9,2118.79 4018.58,2116.44 4158.58,2116.44 4166.65,2120.75 4170.06,2125.86 4171.26,2131.89 4170.96,2268.82 4168.6,2274.5 4164.26,2278.84 4155.51,2281.5 4021.65,2281.5 4012.9,2278.84 4008.56,2274.5 4006.21,2268.82 4005.9,2253.94 3875.98,2253.94 3874.78,2271.77 3868.98,2278.84 3863.31,2281.19 3726.38,2281.5 3717.63,2278.84 3713.28,2274.5 3710.93,2268.82 3710.63,2253.94 3262.6,2253.94 3250.35,2252.5 3233.3,2245.44 3223.62,2237.79 3029.95,2044.12 3016.95,2044.03 2998.5,2039.85 2982.87,2032.51 2970.27,2023.25 2962.33,2014.57 488.296,2014.57 481.206,2021.93 469.886,2030.15 454.252,2037.49 435.806,2041.67 420.168,2041.76 403.208,2038.51 387.294,2031.8 371.842,2020.89 366.034,2014.57 323.288,2013.73 312.874,2010.89 303.216,2006.07 293.538,1998.42 250.126,1955.01 240.388,1950.17 230.71,1942.52 185.406,1896.04 178.87,1883.81 176.028,1873.4 175.196,1864.17 183.07,1864.17 183.07,1661.65 183.864,1653.19 186.406,1644.29 190.634,1636.06 196.908,1628.24 299.106,1526.04 306.928,1519.77 315.16,1515.54 331.74,1512.24 369.538,1512.2 377.752,1503.34 389.762,1494.67 404.846,1488.09 420.168,1485.01 434.984,1485.05 451.05,1488.6 465.258,1495.12 476.578,1503.34 484.79,1512.2 880.764,1512.2 892.49,1505.3 901.39,1502.76 909.842,1501.97 1194.88,1501.97 1194.88,1211.02 1179.57,1210.87 1176.73,1209.7 1173.83,1206.16 1173.38,1154.37 1175.53,1150.34 1179.57,1148.18 1207.2,1148.03 1217.81,1139.06 1226.76,1134.89 1236.37,1132.67 1246.24,1132.5 1256.72,1134.59 1265.01,1138.24 1277.05,1148.03 1304.68,1148.18 1308.72,1150.34 1310.87,1154.37 1310.42,1206.16 1307.52,1209.7 1304.68,1210.87 1289.37,1211.02 1289.37,1501.97 1612.2,1501.97 1612.36,1480.75 1613.53,1477.91 1617.06,1475.01 1695,1474.41 1858.9,1310.56 1866.15,1304.81 1874.38,1300.58 1883.28,1298.04 1899.61,1297.24 1899.76,1276.02 1901.91,1271.99 1905.94,1269.84 2041.34,1269.68 2046.91,1271.99 2049.21,1277.56 2049.21,1411.42 2048.32,1414.98 2045.71,1417.96 2041.34,1419.29 1907.48,1419.29 1903.1,1417.96 1900.2,1414.43 1899.61,1403.43 1761.81,1541.22 1761.81,1616.14 1760.48,1620.52 1755.47,1623.86 1618.54,1623.86 1614.51,1621.71 1612.36,1617.68 1612.2,1596.46 928.684,1596.46 916.958,1603.36 908.058,1605.9 899.606,1606.69 484.79,1606.69 476.578,1615.56 465.258,1623.78 451.05,1630.29 434.984,1633.84 420.168,1633.88 404.846,1630.8 389.762,1624.23 377.752,1615.56 369.538,1606.69 352.082,1606.69 277.558,1681.22 277.558,1844.6 291.994,1859.04 302.192,1863.86 309.442,1869.62 352.082,1912.2 369.538,1912.2 377.752,1903.34 389.762,1894.67 404.846,1888.09 420.168,1885.01 434.984,1885.05 451.05,1888.6 465.258,1895.12 476.578,1903.34 484.79,1912.2 2970.09,1912.2 2976.18,1905.7 2987.5,1897.48 3001.7,1890.96 3017.77,1887.42 3033.41,1887.42 3047.91,1890.45 3062.26,1896.65 3076.23,1906.8 3086.56,1918.53 3094.22,1932.15 3098.89,1947.07 3100.35,1960.99 3099.67,1969.08 3282.17,2151.57 3718.5,2151.57 3718.65,2130.35 3722,2125.34 3726.38,2124.01 3861.77,2124.17 3865.8,2126.32 3867.96,2130.35 3868.11,2151.57 4013.78,2151.57 4013.93,2130.35 4016.08,2126.32 4020.12,2124.17 4157.05,2124.17 4162.06,2127.51 4163.39,2131.89 4162.79,2268.76 4159.89,2272.29 4155.51,2273.62 4020.12,2273.47 4016.08,2271.31 4013.93,2267.28 4013.78,2246.06 3868.11,2246.06 3867.96,2267.28 3865.8,2271.31 3861.77,2273.47 3726.38,2273.62 3722,2272.29 3718.65,2267.28 3718.5,2246.06 3262.6,2246.06 3252.63,2244.97 3237.01,2238.5 3229.19,2232.22 3033.15,2036.19 3017.77,2036.2 3001.7,2032.66 2987.5,2026.14 2975.54,2017.4 2965.84,2006.69 484.79,2006.69 476.578,2015.56 465.258,2023.78 451.05,2030.29 434.984,2033.84 419.346,2033.84 404.846,2030.8 389.762,2024.23 377.752,2015.56 369.54,2006.69 324.06,2005.9 313.734,2002.77 305.644,1998.27 254.298,1948.05 244.1,1943.22 236.278,1936.95 196.908,1897.58 191.492,1891.04 186.996,1882.95 184.166,1874.14 183.07,1864.17" style="stroke:rgb(0,0,0);stroke-width:1px;fill:none;stroke-opacity:1;stroke-linecap:round;stroke-linejoin:round;;fill:none"/>
<polyline points="1165.35,1103.15 1165.35,1055.9 1168.01,1047.16 1172.35,1042.81 1178.03,1040.46 1203.8,1040.16 1211.11,1034.04 1219.13,1029.53 1417.32,1029.52 1435.98,1031.29 1449.22,1034.64 1456.3,1040.55 1682.65,1266.9 1697.28,1267.25 1710.96,1270.15 1726.88,1276.86 1742.33,1287.77 1752.86,1299.33 1763.13,1317.12 1768.14,1333.65 1769.68,1349.21 1768.14,1364.77 1761.79,1384.31 1753.89,1397.81 1741.05,1411.69 1728.35,1420.81 1710.96,1428.27 1694,1431.52 1676.74,1431.18 1663.05,1428.27 1647.14,1421.56 1630.52,1409.49 1619.22,1396.43 1612.23,1384.31 1606.14,1366.4 1604.7,1344.85 1394.49,1134.64 1273.76,1134.64 1248.5,1129.75 1219.28,1129.6 1211.11,1125.02 1203.8,1118.9 1181.1,1118.9 1175.08,1117.7 1169.97,1114.28 1165.66,1106.22 1165.35,1103.15 1173.23,1103.15 1173.23,1055.9 1175.53,1050.34 1181.1,1048.03 1206.97,1048.03 1215.05,1040.86 1222.91,1036.37 1231.51,1033.53 1242.13,1032.28 1417.32,1032.28 1427.29,1033.38 1436.1,1036.21 1444.19,1040.71 1450.73,1046.12 1679.42,1274.81 1694.83,1274.82 1710.89,1278.37 1723.67,1284.06 1736.42,1293.1 1747.01,1304.6 1755.64,1319.56 1760.18,1333.66 1761.77,1350.03 1759.96,1365.56 1755.34,1379.64 1747.01,1393.82 1736.42,1405.32 1723.67,1414.37 1710.89,1420.06 1694,1423.65 1679.19,1423.61 1663.89,1420.35 1650.34,1414.37 1637.59,1405.32 1627.01,1393.82 1618.38,1378.87 1613.71,1363.95 1612.2,1349.21 1612.92,1341.94 1397.75,1126.77 1242.13,1126.77 1233.12,1125.87 1222.17,1122.31 1213.72,1117.23 1206.97,1111.02 1178.09,1110.42 1174.55,1107.52 1173.23,1103.15" style="stroke:rgb(84,248,27);stroke-width:15.748031;fill:none;stroke-opacity:0.5;stroke-linecap:round;stroke-linejoin:round;;fill:none"/>
<polyline points="1165.35,1103.15 1165.35,1055.9 1168.01,1047.16 1172.35,1042.81 1178.03,1040.46 1203.8,1040.16 1211.11,1034.04 1219.13,1029.53 1417.32,1029.52 1435.98,1031.29 1449.22,1034.64 1456.3,1040.55 1682.65,1266.9 1697.28,1267.25 1710.96,1270.15 1726.88,1276.86 1742.33,1287.77 1752.86,1299.33 1763.13,1317.12 1768.14,1333.65 1769.68,1349.21 1768.14,1364.77 1761.79,1384.31 1753.89,1397.81 1741.05,1411.69 1728.35,1420.81 1710.96,1428.27 1694,1431.52 1676.74,1431.18 1663.05,1428.27 1647.14,1421.56 1630.52,1409.49 1619.22,1396.43 1612.23,1384.31 1606.14,1366.4 1604.7,1344.85 1394.49,1134.64 1273.76,1134.64 1248.5,1129.75 1219.28,1129.6 1211.11,1125.02 1203.8,1118.9 1181.1,1118.9 1175.08,1117.7 1169.97,1114.28 1165.66,1106.22 1165.35,1103.15 1173.23,1103.15 1173.23,1055.9 1175.53,1050.34 1181.1,1048.03 1206.97,1048.03 1215.05,1040.86 1222.91,1036.37 1231.51,1033.53 1242.13,1032.28 1417.32,1032.28 1427.29,1033.38 1436.1,1036.21 1444.19,1040.71 1450.73,1046.12 1679.42,1274.81 1694.83,1274.82 1710.89,1278.37 1723.67,1284.06 1736.42,1293.1 1747.01,1304.6 1755.64,1319.56 1760.18,1333.66 1761.77,1350.03 1759.96,1365.56 1755.34,1379.64 1747.01,1393.82 1736.42,1405.32 1723.67,1414.37 1710.89,1420.06 1694,1423.65 1679.19,1423.61 1663.89,1420.35 1650.34,1414.37 1637.59,1405.32 1627.01,1393.82 1618.38,1378.87 1613.71,1363.95 1612.2,1349.21 1612.92,1341.94 1397.75,1126.77 1242.13,1126.77 1233.12,1125.87 1222.17,1122.31 1213.72,1117.23 1206.97,1111.02 1178.09,1110.42 1174.55,1107.52 1173.23,1103.15" style="stroke:rgb(0,0,0);stroke-width:1px;fill:none;stroke-opacity:1;stroke-linecap:round;stroke-linejoin:round;;fill:none"/>
<polyline points="344.488,1759.45 346.294,1776.64 351.044,1791.54 361.314,1809.33 371.842,1820.89 387.294,1831.8 403.208,1838.51 416.894,1841.41 435.806,1841.67 454.252,1837.49 469.886,1830.15 481.206,1821.93 488.296,1814.57 791.736,1814.57 821.262,1844.09 830.938,1851.74 847.984,1858.8 860.236,1860.24 1942.91,1860.24 1955.16,1858.8 1972.21,1851.74 1981.89,1844.09 2009.76,1816.22 2964.46,1816.93 2970.27,1823.25 2985.72,1834.16 3001.63,1840.87 3018.59,1844.12 3034.23,1844.03 3052.68,1839.85 3068.31,1832.51 3079.63,1824.29 3086.72,1816.93 3584.65,1816.93 3619.29,1851.57 3620.12,1889.14 3624.15,1902.41 3629.5,1911.78 3711,1994.46 3712.86,2017.6 3717.78,2032.45 3727.46,2048.7 3737.98,2060.26 3750.59,2069.52 3769.35,2077.88 3786.31,2081.13 3801.95,2081.04 3817.26,2077.88 3834.64,2070.42 3847.35,2061.3 3860.19,2047.41 3868.09,2033.91 3873.75,2017.6 3875.9,1997.17 3873.75,1980.04 3868.84,1965.19 3861.09,1951.6 3848.63,1937.38 3834.64,1927.22 3820.39,1920.78 3801.95,1916.59 3788.94,1916.51 3756.29,1883.86 3914.88,1883.86 3916,1892.17 3919.42,1902.41 3929.67,1917.75 4006.28,1994.46 4008.14,2017.6 4013.8,2033.91 4021.69,2047.41 4033.26,2060.26 4045.86,2069.52 4064.63,2077.88 4081.59,2081.13 4097.22,2081.04 4112.54,2077.88 4129.92,2070.42 4142.62,2061.3 4155.47,2047.41 4163.36,2033.91 4169.03,2017.6 4171.17,2000.46 4169.71,1983.26 4164.7,1966.73 4155.47,1950.22 4143.9,1937.38 4129.92,1927.22 4115.67,1920.78 4097.22,1916.59 4084.22,1916.51 4024.8,1857.09 4024.8,1851.57 4084.22,1792.15 4097.22,1792.07 4115.67,1787.88 4129.92,1781.44 4142.62,1772.32 4156.37,1757.06 4164.7,1741.93 4169.03,1728.62 4171.26,1709.84 4169.71,1694.28 4164.7,1677.75 4155.47,1661.25 4145.07,1649.57 4129.92,1638.24 4112.54,1630.78 4097.22,1627.62 4079.94,1627.62 4061.49,1631.8 4047.24,1638.24 4032.09,1649.57 4021.69,1661.25 4012.46,1677.75 4007.45,1694.28 4006.28,1714.2 3946.85,1773.62 3845.56,1773.62 3860.19,1758.44 3869.43,1741.93 3873.75,1728.62 3875.9,1711.49 3873.75,1691.06 3868.84,1676.21 3861.09,1662.63 3848.63,1648.4 3834.64,1638.24 3820.39,1631.8 3800.3,1627.53 3784.66,1627.62 3766.22,1631.8 3751.97,1638.24 3736.82,1649.57 3726.42,1661.25 3717.19,1677.75 3712.18,1694.28 3711,1714.2 3674.41,1750.79 3639.34,1716.9 3629.97,1711.55 3616.7,1707.52 3607.48,1706.69 3086.72,1706.69 3080.91,1700.37 3065.46,1689.46 3049.55,1682.75 3032.59,1679.5 3016.95,1679.59 2998.5,1683.77 2982.87,1691.11 2971.55,1699.33 2964.46,1706.69 2146.11,1706.69 2150.14,1695.32 2151.57,1683.07 2151.57,485.904 2150.74,476.68 2146.72,463.414 2136.47,448.076 2049.13,360.632 2042.02,354.698 2032.65,349.344 2022.41,345.922 2011.7,344.564 1836.61,344.488 1824.36,345.922 1807.32,352.982 1797.64,360.632 1691.37,466.902 1678.36,466.988 1661.46,470.582 1647.14,476.862 1631.69,487.77 1619.22,501.998 1610.89,517.122 1606.14,532.022 1604.7,553.568 1333.86,824.408 1242.13,824.408 1230.67,825.614 1218.24,829.922 1203.8,840.156 1181.1,840.156 1175.08,841.356 1168.01,847.156 1165.35,855.904 1165.66,906.222 1169.97,914.284 1175.07,917.698 1181.1,918.896 1203.8,918.896 1211.11,925.016 1219.12,929.526 1357.73,929.5 1375.35,927.76 1388.59,924.404 1395.67,918.502 1682.65,631.522 1695.65,631.436 1712.56,627.842 1729.73,619.914 1743.49,609.488 1753.89,597.808 1763.13,581.3 1767.88,566.402 1769.31,544.854 1859.44,454.724 1987.33,454.724 1997.94,465.34 2012.86,475.324 2027.19,487.544 2044.46,507.44 2048.26,527.846 2049.19,543.662 2048.46,559.302 2046.05,575.12 2041.34,592.878 2041.34,696.098 2046.05,713.852 2049.19,743.662 2048.46,759.302 2046.05,775.12 2041.34,792.878 2041.34,896.098 2046.05,913.852 2049.19,943.662 2048.26,961.126 2045.55,977.478 2041.34,992.878 2041.34,999.61 1978.77,1062.18 1965.77,1062.26 1948.86,1065.86 1934.54,1072.14 1919.09,1083.05 1907.52,1095.89 1898.29,1112.4 1893.54,1127.3 1891.73,1144.49 1893.54,1161.68 1898.29,1176.58 1908.56,1194.36 1919.09,1205.93 1931.69,1215.19 1950.45,1223.54 1964.14,1226.45 1981.4,1226.8 2001.5,1222.53 2015.75,1216.09 2028.45,1206.97 2041.34,1193.02 2041.34,1261.81 2047.24,1269.68 2049.21,1277.56 2049.21,1411.42 2047.24,1419.29 2041.34,1427.16 2041.34,1660.24 2009.93,1691.65 2000.42,1691.02 1989.72,1692.38 1972.67,1699.44 1962.99,1707.09 1920.08,1750 883.066,1750 846.43,1714.54 834.204,1708 823.79,1705.16 814.566,1704.33 488.296,1704.33 482.486,1698.01 469.886,1688.75 454.252,1681.41 435.806,1677.22 418.522,1677.22 400.076,1681.41 385.826,1687.85 373.124,1696.97 360.278,1710.85 351.636,1725.82 346.72,1740.67 344.488,1759.45 352.362,1759.45 353.868,1774.19 358.534,1789.1 367.166,1804.06 377.112,1815.04 389.762,1824.23 404.846,1830.8 420.168,1833.88 434.984,1833.84 451.05,1830.29 465.258,1823.78 476.578,1815.56 484.79,1806.69 794.996,1806.69 833.368,1843.94 842.884,1849.03 851.782,1851.57 860.236,1852.36 1942.91,1852.36 1951.37,1851.57 1960.26,1849.03 1969.78,1843.94 2007.09,1807.76 2017.72,1809.05 2967.96,1809.05 2975.54,1817.4 2988.92,1826.97 3003.27,1833.17 3018.59,1836.25 3033.41,1836.2 3049.47,1832.66 3063.68,1826.14 3075,1817.92 3083.22,1809.05 3587.91,1809.05 3627.16,1848.31 3627.96,1888.37 3630.5,1897.27 3635.59,1906.79 3719.22,1991.55 3718.5,1998.82 3720.35,2015.17 3725.34,2029.98 3733.31,2043.43 3743.89,2054.93 3756.64,2063.97 3769.42,2069.66 3785.49,2073.21 3801.94,2073.08 3815.63,2070.17 3829.97,2063.97 3842.72,2054.93 3853.82,2042.79 3861.94,2028.47 3866.6,2013.56 3868.11,1998.82 3866.6,1984.08 3861.27,1967.66 3853.3,1954.21 3843.36,1943.23 3831.4,1934.49 3817.19,1927.97 3801.13,1924.42 3785.71,1924.41 3737.28,1875.98 3922.44,1875.98 3923.54,1889.89 3926.37,1898.7 3930.86,1906.79 4014.5,1991.55 4013.78,1998.82 4015.28,2013.56 4019.95,2028.47 4028.06,2042.79 4039.17,2054.93 4051.91,2063.97 4066.26,2070.17 4080.76,2073.21 4096.4,2073.21 4110.9,2070.17 4125.25,2063.97 4137.99,2054.93 4149.1,2042.79 4157.21,2028.47 4161.88,2013.56 4163.39,1998.82 4161.88,1984.08 4157.21,1969.16 4149.1,1954.85 4137.99,1942.71 4125.25,1933.66 4110.9,1927.46 4097.21,1924.55 4080.99,1924.41 4016.93,1860.35 4016.93,1848.31 4080.99,1784.25 4096.4,1784.24 4110.9,1781.2 4126.67,1774.17 4139.22,1764.85 4148.58,1754.45 4157.21,1739.5 4161.88,1724.58 4163.39,1709.84 4161.88,1695.1 4157.21,1680.19 4149.55,1666.56 4139.22,1654.83 4126.67,1645.51 4112.47,1639 4097.21,1635.58 4080.76,1635.45 4066.26,1638.49 4051.91,1644.69 4037.95,1654.83 4028.06,1665.87 4019.95,1680.19 4015.28,1695.1 4013.82,1709.02 4014.5,1717.11 3950.12,1781.5 3814.22,1781.5 3831.4,1774.17 3843.94,1764.85 3853.82,1753.81 3861.27,1741 3866.26,1726.19 3868.07,1709.02 3866.26,1693.49 3861.94,1680.19 3854.27,1666.56 3843.94,1654.83 3829.97,1644.69 3815.63,1638.49 3800.3,1635.41 3785.49,1635.45 3769.42,1639 3755.21,1645.51 3742.67,1654.83 3732.79,1665.87 3724.67,1680.19 3720.01,1695.1 3718.5,1709.84 3719.22,1717.11 3674.41,1761.93 3634.35,1722.99 3626.26,1718.49 3615.93,1715.36 3083.22,1714.57 3075.64,1706.22 3062.26,1696.65 3047.91,1690.45 3032.59,1687.37 3017.77,1687.42 3001.7,1690.96 2987.5,1697.48 2976.18,1705.7 2967.96,1714.57 2131.48,1714.57 2140.36,1700.42 2142.91,1691.52 2143.7,1683.07 2143.66,485.132 2142.6,475.938 2139.77,467.126 2130.38,453.07 2043.56,366.198 2037.02,360.784 2028.93,356.288 2020.12,353.456 2010.93,352.4 1836.61,352.362 1826.65,353.456 1811.03,359.926 1803.21,366.198 1694.6,474.806 1679.19,474.818 1663.89,478.07 1650.34,484.056 1636.95,493.622 1626.04,505.934 1618.38,519.556 1613.71,534.474 1612.2,549.212 1612.92,556.482 1337.12,832.282 1241.3,832.326 1231.51,833.528 1222.91,836.368 1213.72,841.824 1206.97,848.03 1178.09,848.63 1174.55,851.53 1173.23,855.904 1173.23,903.148 1174.55,907.524 1178.09,910.424 1206.92,911.022 1213.72,917.23 1222.91,922.686 1231.51,925.526 1241.3,926.728 1357.46,926.732 1366.66,925.676 1382.28,919.206 1390.1,912.934 1679.42,623.618 1694.83,623.606 1710.12,620.354 1723.67,614.368 1737.06,604.802 1747.97,592.488 1755.64,578.868 1760.3,563.95 1761.81,549.212 1761.09,541.942 1856.18,446.85 1990.59,446.85 2049.21,505.474 2049.21,1002.87 1981.97,1070.11 1966.59,1070.09 1951.29,1073.35 1936.32,1080.15 1924.36,1088.9 1914.41,1099.88 1906.45,1113.33 1901.24,1128.93 1899.61,1144.49 1901.24,1160.04 1905.78,1174.14 1913.44,1187.76 1923.77,1199.49 1936.32,1208.82 1950.52,1215.33 1967.41,1218.92 1982.23,1218.88 1997.52,1215.63 2012.5,1208.82 2025.04,1199.49 2035.37,1187.76 2043.04,1174.14 2047.58,1160.04 2049.21,1144.49 2049.21,1663.5 2012.6,1700.11 2002.74,1698.86 1993.52,1699.61 1984.62,1702.15 1976.38,1706.38 1968.56,1712.66 1923.34,1757.87 879.804,1757.87 841.434,1720.63 833.344,1716.13 823.018,1713 484.79,1712.2 476.578,1703.34 465.258,1695.12 451.05,1688.6 434.984,1685.05 420.168,1685.01 404.846,1688.09 390.498,1694.29 376.528,1704.44 366.648,1715.48 358.828,1729.02 354.21,1743.1 352.362,1759.45" style="stroke:rgb(232,231,141);stroke-width:15.748031;fill:none;stroke-opacity:0.5;stroke-linecap:round;stroke-linejoin:round;;fill:none"/>
<polyline points="344.488,1759.45 346.294,1776.64 351.044,1791.54 361.314,1809.33 371.842,1820.89 387.294,1831.8 403.208,1838.51 416.894,1841.41 435.806,1841.67 454.252,1837.49 469.886,1830.15 481.206,1821.93 488.296,1814.57 791.736,1814.57 821.262,1844.09 830.938,1851.74 847.984,1858.8 860.236,1860.24 1942.91,1860.24 1955.16,1858.8 1972.21,1851.74 1981.89,1844.09 2009.76,1816.22 2964.46,1816.93 2970.27,1823.25 2985.72,1834.16 3001.63,1840.87 3018.59,1844.12 3034.23,1844.03 3052.68,1839.85 3068.31,1832.51 3079.63,1824.29 3086.72,1816.93 3584.65,1816.93 3619.29,1851.57 3620.12,1889.14 3624.15,1902.41 3629.5,1911.78 3711,1994.46 3712.86,2017.6 3717.78,2032.45 3727.46,2048.7 3737.98,2060.26 3750.59,2069.52 3769.35,2077.88 3786.31,2081.13 3801.95,2081.04 3817.26,2077.88 3834.64,2070.42 3847.35,2061.3 3860.19,2047.41 3868.09,2033.91 3873.75,2017.6 3875.9,1997.17 3873.75,1980.04 3868.84,1965.19 3861.09,1951.6 3848.63,1937.38 3834.64,1927.22 3820.39,1920.78 3801.95,1916.59 3788.94,1916.51 3756.29,1883.86 3914.88,1883.86 3916,1892.17 3919.42,1902.41 3929.67,1917.75 4006.28,1994.46 4008.14,2017.6 4013.8,2033.91 4021.69,2047.41 4033.26,2060.26 4045.86,2069.52 4064.63,2077.88 4081.59,2081.13 4097.22,2081.04 4112.54,2077.88 4129.92,2070.42 4142.62,2061.3 4155.47,2047.41 4163.36,2033.91 4169.03,2017.6 4171.17,2000.46 4169.71,1983.26 4164.7,1966.73 4155.47,1950.22 4143.9,1937.38 4129.92,1927.22 4115.67,1920.78 4097.22,1916.59 4084.22,1916.51 4024.8,1857.09 4024.8,1851.57 4084.22,1792.15 4097.22,1792.07 4115.67,1787.88 4129.92,1781.44 4142.62,1772.32 4156.37,1757.06 4164.7,1741.93 4169.03,1728.62 4171.26,1709.84 4169.71,1694.28 4164.7,1677.75 4155.47,1661.25 4145.07,1649.57 4129.92,1638.24 4112.54,1630.78 4097.22,1627.62 4079.94,1627.62 4061.49,1631.8 4047.24,1638.24 4032.09,1649.57 4021.69,1661.25 4012.46,1677.75 4007.45,1694.28 4006.28,1714.2 3946.85,1773.62 3845.56,1773.62 3860.19,1758.44 3869.43,1741.93 3873.75,1728.62 3875.9,1711.49 3873.75,1691.06 3868.84,1676.21 3861.09,1662.63 3848.63,1648.4 3834.64,1638.24 3820.39,1631.8 3800.3,1627.53 3784.66,1627.62 3766.22,1631.8 3751.97,1638.24 3736.82,1649.57 3726.42,1661.25 3717.19,1677.75 3712.18,1694.28 3711,1714.2 3674.41,1750.79 3639.34,1716.9 3629.97,1711.55 3616.7,1707.52 3607.48,1706.69 3086.72,1706.69 3080.91,1700.37 3065.46,1689.46 3049.55,1682.75 3032.59,1679.5 3016.95,1679.59 2998.5,1683.77 2982.87,1691.11 2971.55,1699.33 2964.46,1706.69 2146.11,1706.69 2150.14,1695.32 2151.57,1683.07 2151.57,485.904 2150.74,476.68 2146.72,463.414 2136.47,448.076 2049.13,360.632 2042.02,354.698 2032.65,349.344 2022.41,345.922 2011.7,344.564 1836.61,344.488 1824.36,345.922 1807.32,352.982 1797.64,360.632 1691.37,466.902 1678.36,466.988 1661.46,470.582 1647.14,476.862 1631.69,487.77 1619.22,501.998 1610.89,517.122 1606.14,532.022 1604.7,553.568 1333.86,824.408 1242.13,824.408 1230.67,825.614 1218.24,829.922 1203.8,840.156 1181.1,840.156 1175.08,841.356 1168.01,847.156 1165.35,855.904 1165.66,906.222 1169.97,914.284 1175.07,917.698 1181.1,918.896 1203.8,918.896 1211.11,925.016 1219.12,929.526 1357.73,929.5 1375.35,927.76 1388.59,924.404 1395.67,918.502 1682.65,631.522 1695.65,631.436 1712.56,627.842 1729.73,619.914 1743.49,609.488 1753.89,597.808 1763.13,581.3 1767.88,566.402 1769.31,544.854 1859.44,454.724 1987.33,454.724 1997.94,465.34 2012.86,475.324 2027.19,487.544 2044.46,507.44 2048.26,527.846 2049.19,543.662 2048.46,559.302 2046.05,575.12 2041.34,592.878 2041.34,696.098 2046.05,713.852 2049.19,743.662 2048.46,759.302 2046.05,775.12 2041.34,792.878 2041.34,896.098 2046.05,913.852 2049.19,943.662 2048.26,961.126 2045.55,977.478 2041.34,992.878 2041.34,999.61 1978.77,1062.18 1965.77,1062.26 1948.86,1065.86 1934.54,1072.14 1919.09,1083.05 1907.52,1095.89 1898.29,1112.4 1893.54,1127.3 1891.73,1144.49 1893.54,1161.68 1898.29,1176.58 1908.56,1194.36 1919.09,1205.93 1931.69,1215.19 1950.45,1223.54 1964.14,1226.45 1981.4,1226.8 2001.5,1222.53 2015.75,1216.09 2028.45,1206.97 2041.34,1193.02 2041.34,1261.81 2047.24,1269.68 2049.21,1277.56 2049.21,1411.42 2047.24,1419.29 2041.34,1427.16 2041.34,1660.24 2009.93,1691.65 2000.42,1691.02 1989.72,1692.38 1972.67,1699.44 1962.99,1707.09 1920.08,1750 883.066,1750 846.43,1714.54 834.204,1708 823.79,1705.16 814.566,1704.33 488.296,1704.33 482.486,1698.01 469.886,1688.75 454.252,1681.41 435.806,1677.22 418.522,1677.22 400.076,1681.41 385.826,1687.85 373.124,1696.97 360.278,1710.85 351.636,1725.82 346.72,1740.67 344.488,1759.45 352.362,1759.45 353.868,1774.19 358.534,1789.1 367.166,1804.06 377.112,1815.04 389.762,1824.23 404.846,1830.8 420.168,1833.88 434.984,1833.84 451.05,1830.29 465.258,1823.78 476.578,1815.56 484.79,1806.69 794.996,1806.69 833.368,1843.94 842.884,1849.03 851.782,1851.57 860.236,1852.36 1942.91,1852.36 1951.37,1851.57 1960.26,1849.03 1969.78,1843.94 2007.09,1807.76 2017.72,1809.05 2967.96,1809.05 2975.54,1817.4 2988.92,1826.97 3003.27,1833.17 3018.59,1836.25 3033.41,1836.2 3049.47,1832.66 3063.68,1826.14 3075,1817.92 3083.22,1809.05 3587.91,1809.05 3627.16,1848.31 3627.96,1888.37 3630.5,1897.27 3635.59,1906.79 3719.22,1991.55 3718.5,1998.82 3720.35,2015.17 3725.34,2029.98 3733.31,2043.43 3743.89,2054.93 3756.64,2063.97 3769.42,2069.66 3785.49,2073.21 3801.94,2073.08 3815.63,2070.17 3829.97,2063.97 3842.72,2054.93 3853.82,2042.79 3861.94,2028.47 3866.6,2013.56 3868.11,1998.82 3866.6,1984.08 3861.27,1967.66 3853.3,1954.21 3843.36,1943.23 3831.4,1934.49 3817.19,1927.97 3801.13,1924.42 3785.71,1924.41 3737.28,1875.98 3922.44,1875.98 3923.54,1889.89 3926.37,1898.7 3930.86,1906.79 4014.5,1991.55 4013.78,1998.82 4015.28,2013.56 4019.95,2028.47 4028.06,2042.79 4039.17,2054.93 4051.91,2063.97 4066.26,2070.17 4080.76,2073.21 4096.4,2073.21 4110.9,2070.17 4125.25,2063.97 4137.99,2054.93 4149.1,2042.79 4157.21,2028.47 4161.88,2013.56 4163.39,1998.82 4161.88,1984.08 4157.21,1969.16 4149.1,1954.85 4137.99,1942.71 4125.25,1933.66 4110.9,1927.46 4097.21,1924.55 4080.99,1924.41 4016.93,1860.35 4016.93,1848.31 4080.99,1784.25 4096.4,1784.24 4110.9,1781.2 4126.67,1774.17 4139.22,1764.85 4148.58,1754.45 4157.21,1739.5 4161.88,1724.58 4163.39,1709.84 4161.88,1695.1 4157.21,1680.19 4149.55,1666.56 4139.22,1654.83 4126.67,1645.51 4112.47,1639 4097.21,1635.58 4080.76,1635.45 4066.26,1638.49 4051.91,1644.69 4037.95,1654.83 4028.06,1665.87 4019.95,1680.19 4015.28,1695.1 4013.82,1709.02 4014.5,1717.11 3950.12,1781.5 3814.22,1781.5 3831.4,1774.17 3843.94,1764.85 3853.82,1753.81 3861.27,1741 3866.26,1726.19 3868.07,1709.02 3866.26,1693.49 3861.94,1680.19 3854.27,1666.56 3843.94,1654.83 3829.97,1644.69 3815.63,1638.49 3800.3,1635.41 3785.49,1635.45 3769.42,1639 3755.21,1645.51 3742.67,1654.83 3732.79,1665.87 3724.67,1680.19 3720.01,1695.1 3718.5,1709.84 3719.22,1717.11 3674.41,1761.93 3634.35,1722.99 3626.26,1718.49 3615.93,1715.36 3083.22,1714.57 3075.64,1706.22 3062.26,1696.65 3047.91,1690.45 3032.59,1687.37 3017.77,1687.42 3001.7,1690.96 2987.5,1697.48 2976.18,1705.7 2967.96,1714.57 2131.48,1714.57 2140.36,1700.42 2142.91,1691.52 2143.7,1683.07 2143.66,485.132 2142.6,475.938 2139.77,467.126 2130.38,453.07 2043.56,366.198 2037.02,360.784 2028.93,356.288 2020.12,353.456 2010.93,352.4 1836.61,352.362 1826.65,353.456 1811.03,359.926 1803.21,366.198 1694.6,474.806 1679.19,474.818 1663.89,478.07 1650.34,484.056 1636.95,493.622 1626.04,505.934 1618.38,519.556 1613.71,534.474 1612.2,549.212 1612.92,556.482 1337.12,832.282 1241.3,832.326 1231.51,833.528 1222.91,836.368 1213.72,841.824 1206.97,848.03 1178.09,848.63 1174.55,851.53 1173.23,855.904 1173.23,903.148 1174.55,907.524 1178.09,910.424 1206.92,911.022 1213.72,917.23 1222.91,922.686 1231.51,925.526 1241.3,926.728 1357.46,926.732 1366.66,925.676 1382.28,919.206 1390.1,912.934 1679.42,623.618 1694.83,623.606 1710.12,620.354 1723.67,614.368 1737.06,604.802 1747.97,592.488 1755.64,578.868 1760.3,563.95 1761.81,549.212 1761.09,541.942 1856.18,446.85 1990.59,446.85 2049.21,505.474 2049.21,1002.87 1981.97,1070.11 1966.59,1070.09 1951.29,1073.35 1936.32,1080.15 1924.36,1088.9 1914.41,1099.88 1906.45,1113.33 1901.24,1128.93 1899.61,1144.49 1901.24,1160.04 1905.78,1174.14 1913.44,1187.76 1923.77,1199.49 1936.32,1208.82 1950.52,1215.33 1967.41,1218.92 1982.23,1218.88 1997.52,1215.63 2012.5,1208.82 2025.04,1199.49 2035.37,1187.76 2043.04,1174.14 2047.58,1160.04 2049.21,1144.49 2049.21,1663.5 2012.6,1700.11 2002.74,1698.86 1993.52,1699.61 1984.62,1702.15 1976.38,1706.38 1968.56,1712.66 1923.34,1757.87 879.804,1757.87 841.434,1720.63 833.344,1716.13 823.018,1713 484.79,1712.2 476.578,1703.34 465.258,1695.12 451.05,1688.6 434.984,1685.05 420.168,1685.01 404.846,1688.09 390.498,1694.29 376.528,1704.44 366.648,1715.48 358.828,1729.02 354.21,1743.1 352.362,1759.45" style="stroke:rgb(0,0,0);stroke-width:1px;fill:none;stroke-opacity:1;stroke-linecap:round;stroke-linejoin:round;;fill:none"/>
<polyline points="2048.49,1137.22 2049.21,1144.49 2049.21,1136.5 2048.49,1137.22" style="stroke:rgb(232,231,141);stroke-width:15.748031;fill:none;stroke-opacity:0.5;stroke-linecap:round;stroke-linejoin:round;;fill:none"/>
<polyline points="2048.49,1137.22 2049.21,1144.49 2049.21,1136.5 2048.49,1137.22" style="stroke:rgb(0,0,0);stroke-width:1px;fill:none;stroke-opacity:1;stroke-linecap:round;stroke-linejoin:round;;fill:none"/>
<polyline points="344.488,1359.45 346.294,1376.64 351.044,1391.54 361.314,1409.33 371.842,1420.89 387.294,1431.8 403.208,1438.51 418.522,1441.67 435.806,1441.67 454.252,1437.49 469.886,1430.15 481.206,1421.93 488.296,1414.57 857.086,1414.57 866.31,1413.73 876.724,1410.89 886.382,1406.07 896.06,1398.42 989.76,1304.72 995.694,1297.61 1001.05,1288.24 1004.47,1278 1005.9,1265.75 1005.9,1129.53 1005.07,1120.3 1002.23,1109.89 997.41,1100.23 989.76,1090.55 939.762,1040.55 932.65,1034.62 923.764,1029.53 793.818,1029.53 785.914,1034.04 778.602,1040.16 755.904,1040.16 749.878,1041.36 742.81,1047.16 740.156,1055.9 740.46,1106.22 742.81,1111.9 747.156,1116.24 755.904,1118.9 778.602,1118.9 785.074,1124.41 805.238,1128.82 828.618,1130.23 848.784,1134.64 877.956,1134.64 895.668,1152.36 895.668,1242.92 834.254,1304.33 488.296,1304.33 482.486,1298.01 469.886,1288.75 454.252,1281.41 435.806,1277.22 418.522,1277.22 403.208,1280.39 387.294,1287.1 370.678,1299.17 360.278,1310.85 351.636,1325.82 346.72,1340.67 344.574,1357.8 344.488,1359.45 352.362,1359.45 354.21,1375.8 358.828,1389.87 366.198,1402.72 376.528,1414.45 390.498,1424.6 404.846,1430.8 419.346,1433.84 434.984,1433.84 451.05,1430.29 465.258,1423.78 476.578,1415.56 484.79,1406.69 857.086,1406.69 865.538,1405.9 874.438,1403.36 882.67,1399.13 890.492,1392.85 984.712,1298.58 994.104,1284.53 996.936,1275.71 997.992,1266.52 998.03,1129.53 997.236,1121.07 994.694,1112.17 990.466,1103.94 984.194,1096.12 933.62,1045.6 926.372,1039.85 918.138,1035.62 901.558,1032.32 816.928,1032.28 807.92,1033.19 796.978,1036.74 789.158,1041.31 781.772,1048.03 754.368,1048.18 750.336,1050.34 748.182,1054.37 748.03,1103.15 749.358,1107.52 751.53,1109.7 755.904,1111.02 781.724,1111.02 788.518,1117.23 796.978,1122.31 807.92,1125.87 881.218,1126.77 903.542,1149.1 903.542,1246.18 837.516,1312.2 484.79,1312.2 477.218,1303.86 465.258,1295.12 451.05,1288.6 434.984,1285.05 419.346,1285.05 404.846,1288.09 390.498,1294.29 376.528,1304.44 366.648,1315.48 358.828,1329.02 354.21,1343.1 352.362,1359.45" style="stroke:rgb(118,90,46);stroke-width:15.748031;fill:none;stroke-opacity:0.5;stroke-linecap:round;stroke-linejoin:round;;fill:none"/>
<polyline points="344.488,1359.45 346.294,1376.64 351.044,1391.54 361.314,1409.33 371.842,1420.89 387.294,1431.8 403.208,1438.51 418.522,1441.67 435.806,1441.67 454.252,1437.49 469.886,1430.15 481.206,1421.93 488.296,1414.57 857.086,1414.57 866.31,1413.73 876.724,1410.89 886.382,1406.07 896.06,1398.42 989.76,1304.72 995.694,1297.61 1001.05,1288.24 1004.47,1278 1005.9,1265.75 1005.9,1129.53 1005.07,1120.3 1002.23,1109.89 997.41,1100.23 989.76,1090.55 939.762,1040.55 932.65,1034.62 923.764,1029.53 793.818,1029.53 785.914,1034.04 778.602,1040.16 755.904,1040.16 749.878,1041.36 742.81,1047.16 740.156,1055.9 740.46,1106.22 742.81,1111.9 747.156,1116.24 755.904,1118.9 778.602,1118.9 785.074,1124.41 805.238,1128.82 828.618,1130.23 848.784,1134.64 877.956,1134.64 895.668,1152.36 895.668,1242.92 834.254,1304.33 488.296,1304.33 482.486,1298.01 469.886,1288.75 454.252,1281.41 435.806,1277.22 418.522,1277.22 403.208,1280.39 387.294,1287.1 370.678,1299.17 360.278,1310.85 351.636,1325.82 346.72,1340.67 344.574,1357.8 344.488,1359.45 352.362,1359.45 354.21,1375.8 358.828,1389.87 366.198,1402.72 376.528,1414.45 390.498,1424.6 404.846,1430.8 419.346,1433.84 434.984,1433.84 451.05,1430.29 465.258,1423.78 476.578,1415.56 484.79,1406.69 857.086,1406.69 865.538,1405.9 874.438,1403.36 882.67,1399.13 890.492,1392.85 984.712,1298.58 994.104,1284.53 996.936,1275.71 997.992,1266.52 998.03,1129.53 997.236,1121.07 994.694,1112.17 990.466,1103.94 984.194,1096.12 933.62,1045.6 926.372,1039.85 918.138,1035.62 901.558,1032.32 816.928,1032.28 807.92,1033.19 796.978,1036.74 789.158,1041.31 781.772,1048.03 754.368,1048.18 750.336,1050.34 748.182,1054.37 748.03,1103.15 749.358,1107.52 751.53,1109.7 755.904,1111.02 781.724,1111.02 788.518,1117.23 796.978,1122.31 807.92,1125.87 881.218,1126.77 903.542,1149.1 903.542,1246.18 837.516,1312.2 484.79,1312.2 477.218,1303.86 465.258,1295.12 451.05,1288.6 434.984,1285.05 419.346,1285.05 404.846,1288.09 390.498,1294.29 376.528,1304.44 366.648,1315.48 358.828,1329.02 354.21,1343.1 352.362,1359.45" style="stroke:rgb(0,0,0);stroke-width:1px;fill:none;stroke-opacity:1;stroke-linecap:round;stroke-linejoin:round;;fill:none"/>
<polyline points="344.574,757.802 346.294,742.258 352.384,724.352 361.314,709.57 371.842,698.006 387.294,687.1 401.616,680.818 418.522,677.224 431.526,677.138 462.23,647.61 471.604,642.258 481.842,638.836 494.094,637.4 813.778,637.4 826.032,638.836 843.076,645.896 852.754,653.544 989.76,790.552 997.41,800.23 1002.23,809.888 1005.83,827.982 1005.9,929.526 1004.47,941.78 997.41,958.824 989.76,968.502 939.762,1018.5 932.65,1024.44 923.768,1029.53 793.928,1029.53 785.914,1025.02 778.602,1018.9 752.832,1018.59 744.77,1014.28 741.356,1009.18 740.156,1003.15 740.156,955.904 742.81,947.156 747.156,942.81 755.904,940.156 778.602,940.156 785.08,934.642 805.236,930.232 828.614,928.818 848.774,924.408 877.956,924.408 895.668,906.696 895.668,852.358 790.948,747.636 516.924,747.636 509.47,755.09 507.608,778.23 501.946,794.544 493.014,809.326 482.486,820.89 467.034,831.796 452.714,838.078 435.806,841.672 418.522,841.672 403.208,838.506 384.444,830.15 370.678,819.724 360.278,808.044 352.384,794.544 346.72,778.23 344.574,757.802 352.362,759.448 354.21,775.796 358.828,789.874 367.166,804.056 377.752,815.556 389.762,824.23 404.846,830.804 419.346,833.842 434.984,833.842 450.28,830.59 463.832,824.604 477.218,815.038 487.162,804.056 495.5,789.874 500.12,775.796 501.924,760.272 501.248,752.178 513.662,739.762 794.21,739.762 903.542,849.096 903.542,909.958 881.218,932.282 807.92,933.186 796.978,936.742 789.158,941.306 781.772,948.03 755.904,948.03 751.53,949.358 749.358,951.53 748.03,955.904 748.63,1006.16 750.336,1008.72 754.368,1010.87 781.724,1011.02 788.518,1017.23 796.978,1022.31 807.92,1025.87 816.928,1026.77 900.786,1026.77 910.754,1025.68 926.372,1019.21 934.194,1012.93 984.194,962.934 989.608,956.394 994.104,948.304 996.936,939.494 998.03,929.526 998.03,829.526 996.936,819.56 990.466,803.942 984.194,796.12 847.186,659.112 839.364,652.84 823.746,646.37 813.778,645.274 494.094,645.274 484.128,646.37 475.316,649.202 467.226,653.698 434.728,685.072 419.346,685.054 403.28,688.602 389.072,695.116 377.112,703.858 366.198,716.172 358.828,729.022 354.21,743.1 352.362,759.448" style="stroke:rgb(99,51,159);stroke-width:15.748031;fill:none;stroke-opacity:0.5;stroke-linecap:round;stroke-linejoin:round;;fill:none"/>
<polyline points="344.574,757.802 346.294,742.258 352.384,724.352 361.314,709.57 371.842,698.006 387.294,687.1 401.616,680.818 418.522,677.224 431.526,677.138 462.23,647.61 471.604,642.258 481.842,638.836 494.094,637.4 813.778,637.4 826.032,638.836 843.076,645.896 852.754,653.544 989.76,790.552 997.41,800.23 1002.23,809.888 1005.83,827.982 1005.9,929.526 1004.47,941.78 997.41,958.824 989.76,968.502 939.762,1018.5 932.65,1024.44 923.768,1029.53 793.928,1029.53 785.914,1025.02 778.602,1018.9 752.832,1018.59 744.77,1014.28 741.356,1009.18 740.156,1003.15 740.156,955.904 742.81,947.156 747.156,942.81 755.904,940.156 778.602,940.156 785.08,934.642 805.236,930.232 828.614,928.818 848.774,924.408 877.956,924.408 895.668,906.696 895.668,852.358 790.948,747.636 516.924,747.636 509.47,755.09 507.608,778.23 501.946,794.544 493.014,809.326 482.486,820.89 467.034,831.796 452.714,838.078 435.806,841.672 418.522,841.672 403.208,838.506 384.444,830.15 370.678,819.724 360.278,808.044 352.384,794.544 346.72,778.23 344.574,757.802 352.362,759.448 354.21,775.796 358.828,789.874 367.166,804.056 377.752,815.556 389.762,824.23 404.846,830.804 419.346,833.842 434.984,833.842 450.28,830.59 463.832,824.604 477.218,815.038 487.162,804.056 495.5,789.874 500.12,775.796 501.924,760.272 501.248,752.178 513.662,739.762 794.21,739.762 903.542,849.096 903.542,909.958 881.218,932.282 807.92,933.186 796.978,936.742 789.158,941.306 781.772,948.03 755.904,948.03 751.53,949.358 749.358,951.53 748.03,955.904 748.63,1006.16 750.336,1008.72 754.368,1010.87 781.724,1011.02 788.518,1017.23 796.978,1022.31 807.92,1025.87 816.928,1026.77 900.786,1026.77 910.754,1025.68 926.372,1019.21 934.194,1012.93 984.194,962.934 989.608,956.394 994.104,948.304 996.936,939.494 998.03,929.526 998.03,829.526 996.936,819.56 990.466,803.942 984.194,796.12 847.186,659.112 839.364,652.84 823.746,646.37 813.778,645.274 494.094,645.274 484.128,646.37 475.316,649.202 467.226,653.698 434.728,685.072 419.346,685.054 403.28,688.602 389.072,695.116 377.112,703.858 366.198,716.172 358.828,729.022 354.21,743.1 352.362,759.448" style="stroke:rgb(0,0,0);stroke-width:1px;fill:none;stroke-opacity:1;stroke-linecap:round;stroke-linejoin:round;;fill:none"/>
<polyline points="344.574,1161.09 346.294,1142.26 351.044,1127.36 359.38,1112.23 371.842,1098.01 387.294,1087.1 401.616,1080.82 418.522,1077.22 435.806,1077.22 454.252,1081.41 469.886,1088.75 483.652,1099.17 493.014,1109.57 501.97,1124.41 785.08,1124.41 805.238,1128.82 826.272,1129.99 839.55,1132.11 848.976,1134.71 855.254,1140.16 881.024,1140.46 887.674,1143.92 893.398,1152.83 893.7,1203.15 891.046,1211.9 883.978,1217.7 877.952,1218.9 855.254,1218.9 847.944,1225.02 839.346,1229.88 829.98,1233.01 818.574,1234.56 460.638,1234.65 451.12,1238.51 434.16,1241.76 418.522,1241.67 403.208,1238.51 384.444,1230.15 371.842,1220.89 361.314,1209.33 351.044,1191.54 346.294,1176.64 344.574,1161.09 352.362,1159.45 354.21,1175.8 358.828,1189.87 366.198,1202.72 377.112,1215.04 390.498,1224.6 404.846,1230.8 419.346,1233.84 435.798,1233.71 450.28,1230.59 458.964,1226.77 817.752,1226.73 827.548,1225.53 836.144,1222.69 845.338,1217.23 852.084,1211.02 879.488,1210.87 883.52,1208.72 885.674,1204.68 885.826,1155.9 883.52,1150.34 877.952,1148.03 852.132,1148.03 844.006,1140.86 835.374,1136.07 826.75,1133.32 816.928,1132.28 496.606,1132.28 487.682,1115.48 476.578,1103.34 464.566,1094.67 451.05,1088.6 434.984,1085.05 419.346,1085.05 404.846,1088.09 390.498,1094.29 377.112,1103.86 366.198,1116.17 358.828,1129.02 354.21,1143.1 352.362,1159.45" style="stroke:rgb(201,154,102);stroke-width:15.748031;fill:none;stroke-opacity:0.5;stroke-linecap:round;stroke-linejoin:round;;fill:none"/>
<polyline points="344.574,1161.09 346.294,1142.26 351.044,1127.36 359.38,1112.23 371.842,1098.01 387.294,1087.1 401.616,1080.82 418.522,1077.22 435.806,1077.22 454.252,1081.41 469.886,1088.75 483.652,1099.17 493.014,1109.57 501.97,1124.41 785.08,1124.41 805.238,1128.82 826.272,1129.99 839.55,1132.11 848.976,1134.71 855.254,1140.16 881.024,1140.46 887.674,1143.92 893.398,1152.83 893.7,1203.15 891.046,1211.9 883.978,1217.7 877.952,1218.9 855.254,1218.9 847.944,1225.02 839.346,1229.88 829.98,1233.01 818.574,1234.56 460.638,1234.65 451.12,1238.51 434.16,1241.76 418.522,1241.67 403.208,1238.51 384.444,1230.15 371.842,1220.89 361.314,1209.33 351.044,1191.54 346.294,1176.64 344.574,1161.09 352.362,1159.45 354.21,1175.8 358.828,1189.87 366.198,1202.72 377.112,1215.04 390.498,1224.6 404.846,1230.8 419.346,1233.84 435.798,1233.71 450.28,1230.59 458.964,1226.77 817.752,1226.73 827.548,1225.53 836.144,1222.69 845.338,1217.23 852.084,1211.02 879.488,1210.87 883.52,1208.72 885.674,1204.68 885.826,1155.9 883.52,1150.34 877.952,1148.03 852.132,1148.03 844.006,1140.86 835.374,1136.07 826.75,1133.32 816.928,1132.28 496.606,1132.28 487.682,1115.48 476.578,1103.34 464.566,1094.67 451.05,1088.6 434.984,1085.05 419.346,1085.05 404.846,1088.09 390.498,1094.29 377.112,1103.86 366.198,1116.17 358.828,1129.02 354.21,1143.1 352.362,1159.45" style="stroke:rgb(0,0,0);stroke-width:1px;fill:none;stroke-opacity:1;stroke-linecap:round;stroke-linejoin:round;;fill:none"/>
<polyline points="344.574,961.094 346.294,942.258 351.044,927.36 359.38,912.234 371.842,898.006 387.294,887.1 401.616,880.818 418.522,877.224 431.526,877.138 475.222,834.618 484.596,829.264 497.862,825.24 507.086,824.408 818.574,824.494 828.388,825.614 837.808,828.584 847.944,834.038 855.254,840.156 883.15,841.104 887.674,843.918 893.398,852.832 893.398,906.222 887.674,915.134 881.024,918.594 855.254,918.896 848.782,924.406 839.55,926.938 826.272,929.064 805.236,930.232 785.072,934.644 529.916,934.644 509.47,955.09 507.608,978.23 501.946,994.544 493.014,1009.33 481.206,1021.93 468.504,1031.05 454.252,1037.49 437.434,1041.41 418.522,1041.67 403.208,1038.51 385.826,1031.05 373.124,1021.93 360.278,1008.04 352.384,994.544 346.294,976.638 344.574,961.094 352.362,959.448 354.21,975.796 358.828,989.874 367.166,1004.06 377.752,1015.56 389.762,1024.23 404.846,1030.8 419.346,1033.84 435.798,1033.71 451.05,1030.29 464.566,1024.23 476.578,1015.56 487.162,1004.06 495.5,989.874 500.12,975.796 501.968,959.448 501.248,952.178 526.656,926.77 816.928,926.77 826.75,925.738 835.374,922.982 844.006,918.196 852.084,911.022 879.488,910.872 884.498,907.524 885.826,903.148 885.226,852.892 883.52,850.336 879.488,848.182 852.132,848.03 845.338,841.824 836.878,836.742 826.75,833.316 816.928,832.282 507.086,832.282 497.12,833.378 481.502,839.848 474.252,845.602 434.756,885.042 419.346,885.054 403.28,888.602 389.072,895.116 377.112,903.858 366.198,916.172 358.828,929.022 354.21,943.1 352.362,959.448" style="stroke:rgb(50,13,183);stroke-width:15.748031;fill:none;stroke-opacity:0.5;stroke-linecap:round;stroke-linejoin:round;;fill:none"/>
<polyline points="344.574,961.094 346.294,942.258 351.044,927.36 359.38,912.234 371.842,898.006 387.294,887.1 401.616,880.818 418.522,877.224 431.526,877.138 475.222,834.618 484.596,829.264 497.862,825.24 507.086,824.408 818.574,824.494 828.388,825.614 837.808,828.584 847.944,834.038 855.254,840.156 883.15,841.104 887.674,843.918 893.398,852.832 893.398,906.222 887.674,915.134 881.024,918.594 855.254,918.896 848.782,924.406 839.55,926.938 826.272,929.064 805.236,930.232 785.072,934.644 529.916,934.644 509.47,955.09 507.608,978.23 501.946,994.544 493.014,1009.33 481.206,1021.93 468.504,1031.05 454.252,1037.49 437.434,1041.41 418.522,1041.67 403.208,1038.51 385.826,1031.05 373.124,1021.93 360.278,1008.04 352.384,994.544 346.294,976.638 344.574,961.094 352.362,959.448 354.21,975.796 358.828,989.874 367.166,1004.06 377.752,1015.56 389.762,1024.23 404.846,1030.8 419.346,1033.84 435.798,1033.71 451.05,1030.29 464.566,1024.23 476.578,1015.56 487.162,1004.06 495.5,989.874 500.12,975.796 501.968,959.448 501.248,952.178 526.656,926.77 816.928,926.77 826.75,925.738 835.374,922.982 844.006,918.196 852.084,911.022 879.488,910.872 884.498,907.524 885.826,903.148 885.226,852.892 883.52,850.336 879.488,848.182 852.132,848.03 845.338,841.824 836.878,836.742 826.75,833.316 816.928,832.282 507.086,832.282 497.12,833.378 481.502,839.848 474.252,845.602 434.756,885.042 419.346,885.054 403.28,888.602 389.072,895.116 377.112,903.858 366.198,916.172 358.828,929.022 354.21,943.1 352.362,959.448" style="stroke:rgb(0,0,0);stroke-width:1px;fill:none;stroke-opacity:1;stroke-linecap:round;stroke-linejoin:round;;fill:none"/>
<polyline points="1165.35,1003.15 1165.35,955.904 1168.01,947.156 1172.35,942.81 1178.03,940.46 1203.8,940.156 1211.11,934.038 1219.13,929.526 1357.73,929.5 1375.35,927.76 1388.58,924.408 1517.32,924.408 1529.57,925.844 1546.62,932.904 1556.3,940.552 1682.65,1066.9 1695.65,1066.99 1714.09,1071.17 1728.35,1077.61 1743.49,1088.94 1754.79,1102 1763.13,1117.12 1767.45,1130.43 1769.68,1149.21 1767.45,1167.99 1763.13,1181.3 1754.79,1196.43 1742.33,1210.65 1729.73,1219.91 1712.56,1227.84 1697.28,1231.18 1680.01,1231.52 1663.05,1228.27 1644.29,1219.91 1631.69,1210.65 1621.16,1199.09 1612.23,1184.31 1606.56,1167.99 1604.7,1144.85 1494.49,1034.64 1449.22,1034.64 1435.98,1031.29 1417.32,1029.52 1219.12,1029.53 1211.11,1025.02 1203.8,1018.9 1181.1,1018.9 1175.08,1017.7 1169.97,1014.28 1165.66,1006.22 1165.35,1003.15 1173.23,1003.15 1173.23,955.904 1175.53,950.336 1181.1,948.03 1206.92,948.03 1213.72,941.824 1222.17,936.742 1233.12,933.186 1242.13,932.282 1517.32,932.282 1527.29,933.378 1542.91,939.848 1550.73,946.12 1679.44,1074.83 1695.64,1074.95 1710.89,1078.37 1723.67,1084.06 1736.42,1093.1 1747.01,1104.6 1755.64,1119.56 1760.18,1133.66 1761.77,1150.03 1760.18,1164.76 1754.97,1180.37 1747.01,1193.82 1736.42,1205.32 1723.67,1214.37 1710.89,1220.06 1694,1223.65 1678.37,1223.48 1663.89,1220.35 1650.34,1214.37 1637.59,1205.32 1627.01,1193.82 1618.67,1179.64 1613.71,1163.95 1612.2,1149.21 1612.92,1141.94 1497.75,1026.77 1241.3,1026.73 1231.51,1025.53 1222.91,1022.69 1213.72,1017.23 1206.97,1011.02 1178.09,1010.42 1174.55,1007.52 1173.23,1003.15" style="stroke:rgb(49,88,163);stroke-width:15.748031;fill:none;stroke-opacity:0.5;stroke-linecap:round;stroke-linejoin:round;;fill:none"/>
<polyline points="1165.35,1003.15 1165.35,955.904 1168.01,947.156 1172.35,942.81 1178.03,940.46 1203.8,940.156 1211.11,934.038 1219.13,929.526 1357.73,929.5 1375.35,927.76 1388.58,924.408 1517.32,924.408 1529.57,925.844 1546.62,932.904 1556.3,940.552 1682.65,1066.9 1695.65,1066.99 1714.09,1071.17 1728.35,1077.61 1743.49,1088.94 1754.79,1102 1763.13,1117.12 1767.45,1130.43 1769.68,1149.21 1767.45,1167.99 1763.13,1181.3 1754.79,1196.43 1742.33,1210.65 1729.73,1219.91 1712.56,1227.84 1697.28,1231.18 1680.01,1231.52 1663.05,1228.27 1644.29,1219.91 1631.69,1210.65 1621.16,1199.09 1612.23,1184.31 1606.56,1167.99 1604.7,1144.85 1494.49,1034.64 1449.22,1034.64 1435.98,1031.29 1417.32,1029.52 1219.12,1029.53 1211.11,1025.02 1203.8,1018.9 1181.1,1018.9 1175.08,1017.7 1169.97,1014.28 1165.66,1006.22 1165.35,1003.15 1173.23,1003.15 1173.23,955.904 1175.53,950.336 1181.1,948.03 1206.92,948.03 1213.72,941.824 1222.17,936.742 1233.12,933.186 1242.13,932.282 1517.32,932.282 1527.29,933.378 1542.91,939.848 1550.73,946.12 1679.44,1074.83 1695.64,1074.95 1710.89,1078.37 1723.67,1084.06 1736.42,1093.1 1747.01,1104.6 1755.64,1119.56 1760.18,1133.66 1761.77,1150.03 1760.18,1164.76 1754.97,1180.37 1747.01,1193.82 1736.42,1205.32 1723.67,1214.37 1710.89,1220.06 1694,1223.65 1678.37,1223.48 1663.89,1220.35 1650.34,1214.37 1637.59,1205.32 1627.01,1193.82 1618.67,1179.64 1613.71,1163.95 1612.2,1149.21 1612.92,1141.94 1497.75,1026.77 1241.3,1026.73 1231.51,1025.53 1222.91,1022.69 1213.72,1017.23 1206.97,1011.02 1178.09,1010.42 1174.55,1007.52 1173.23,1003.15" style="stroke:rgb(0,0,0);stroke-width:1px;fill:none;stroke-opacity:1;stroke-linecap:round;stroke-linejoin:round;;fill:none"/>
<polyline points="1604.33,949.212 1606.14,966.402 1610.89,981.3 1620.12,997.808 1630.52,1009.49 1645.67,1020.81 1659.92,1027.25 1678.36,1031.44 1694,1031.52 1712.56,1027.84 1726.88,1021.56 1742.33,1010.65 1752.39,999.606 1913.28,999.606 1919.09,1005.93 1933.07,1016.09 1950.45,1023.54 1967.41,1026.8 1983.05,1026.71 1998.37,1023.54 2017.13,1015.19 2030.9,1004.76 2041.25,993.136 2046.05,975.12 2048.46,959.302 2049.19,943.662 2046.05,913.852 2041.8,897.502 2030.9,884.212 2015.75,872.886 2001.5,866.448 1983.05,862.264 1967.41,862.176 1948.86,865.856 1934.54,872.138 1919.09,883.046 1913.28,889.37 1743.88,889.37 1728.35,877.612 1710.96,870.154 1694,866.902 1678.36,866.988 1663.05,870.154 1644.29,878.51 1631.69,887.77 1620.12,900.616 1610.89,917.122 1606.14,932.022 1604.33,949.212 1612.2,949.212 1613.84,964.764 1618.38,978.868 1626.04,992.488 1636.37,1004.22 1650.34,1014.37 1663.89,1020.35 1678.37,1023.48 1695.64,1023.48 1710.12,1020.35 1723.67,1014.37 1737.06,1004.8 1748.41,991.732 1916.78,991.732 1925,1000.6 1936.32,1008.82 1951.29,1015.63 1967.41,1018.92 1983.04,1018.75 1996.73,1015.84 2011.08,1009.64 2023.82,1000.6 2035.37,987.764 2043.04,974.144 2047.36,960.836 2049.17,943.664 2047.58,928.934 2043.04,914.832 2035.37,901.21 2025.04,889.48 2011.08,879.332 1997.52,873.346 1983.04,870.222 1966.59,870.094 1950.52,873.64 1936.32,880.154 1924.36,888.898 1916.78,897.244 1740.38,897.244 1725.1,884.88 1709.33,877.856 1694,874.776 1679.19,874.818 1664.69,877.856 1648.91,884.88 1636.95,893.622 1627.01,904.604 1618.38,919.556 1613.84,933.66 1612.2,949.212" style="stroke:rgb(90,37,93);stroke-width:15.748031;fill:none;stroke-opacity:0.5;stroke-linecap:round;stroke-linejoin:round;;fill:none"/>
<polyline points="1604.33,949.212 1606.14,966.402 1610.89,981.3 1620.12,997.808 1630.52,1009.49 1645.67,1020.81 1659.92,1027.25 1678.36,1031.44 1694,1031.52 1712.56,1027.84 1726.88,1021.56 1742.33,1010.65 1752.39,999.606 1913.28,999.606 1919.09,1005.93 1933.07,1016.09 1950.45,1023.54 1967.41,1026.8 1983.05,1026.71 1998.37,1023.54 2017.13,1015.19 2030.9,1004.76 2041.25,993.136 2046.05,975.12 2048.46,959.302 2049.19,943.662 2046.05,913.852 2041.8,897.502 2030.9,884.212 2015.75,872.886 2001.5,866.448 1983.05,862.264 1967.41,862.176 1948.86,865.856 1934.54,872.138 1919.09,883.046 1913.28,889.37 1743.88,889.37 1728.35,877.612 1710.96,870.154 1694,866.902 1678.36,866.988 1663.05,870.154 1644.29,878.51 1631.69,887.77 1620.12,900.616 1610.89,917.122 1606.14,932.022 1604.33,949.212 1612.2,949.212 1613.84,964.764 1618.38,978.868 1626.04,992.488 1636.37,1004.22 1650.34,1014.37 1663.89,1020.35 1678.37,1023.48 1695.64,1023.48 1710.12,1020.35 1723.67,1014.37 1737.06,1004.8 1748.41,991.732 1916.78,991.732 1925,1000.6 1936.32,1008.82 1951.29,1015.63 1967.41,1018.92 1983.04,1018.75 1996.73,1015.84 2011.08,1009.64 2023.82,1000.6 2035.37,987.764 2043.04,974.144 2047.36,960.836 2049.17,943.664 2047.58,928.934 2043.04,914.832 2035.37,901.21 2025.04,889.48 2011.08,879.332 1997.52,873.346 1983.04,870.222 1966.59,870.094 1950.52,873.64 1936.32,880.154 1924.36,888.898 1916.78,897.244 1740.38,897.244 1725.1,884.88 1709.33,877.856 1694,874.776 1679.19,874.818 1664.69,877.856 1648.91,884.88 1636.95,893.622 1627.01,904.604 1618.38,919.556 1613.84,933.66 1612.2,949.212" style="stroke:rgb(0,0,0);stroke-width:1px;fill:none;stroke-opacity:1;stroke-linecap:round;stroke-linejoin:round;;fill:none"/>
<polyline points="2391.73,1349.21 2393.28,1364.77 2398.29,1381.3 2408.56,1399.09 2419.09,1410.65 2433.07,1420.81 2450.45,1428.27 2465.77,1431.44 2483.05,1431.44 2498.37,1428.27 2514.28,1421.56 2521.24,1416.93 2964.46,1416.93 2970.27,1423.25 2985.72,1434.16 3001.63,1440.87 3018.59,1444.12 3034.23,1444.03 3052.68,1439.85 3066.93,1433.41 3082.08,1422.09 3092.48,1410.41 3101.71,1393.9 3106.72,1377.37 3108.27,1361.81 3106.03,1343.03 3101.12,1328.18 3093.37,1314.6 3082.08,1301.53 3065.46,1289.46 3049.55,1282.75 3034.23,1279.59 3016.95,1279.59 2998.5,1283.77 2982.87,1291.11 2971.55,1299.33 2964.46,1306.69 2544.86,1306.69 2541.33,1300.66 2529.73,1287.77 2515.75,1277.61 2498.37,1270.15 2481.4,1266.9 2465.77,1266.99 2447.32,1271.17 2433.07,1277.61 2417.92,1288.94 2407.52,1300.62 2398.29,1317.12 2393.96,1330.43 2391.82,1347.57 2391.73,1349.21 2399.61,1349.21 2401.11,1363.95 2405.78,1378.87 2413.44,1392.49 2423.77,1404.22 2437.74,1414.37 2452.09,1420.57 2465.78,1423.48 2482.23,1423.61 2496.73,1420.57 2511.08,1414.37 2518.68,1409.05 2967.96,1409.05 2975.54,1417.4 2987.5,1426.14 3001.7,1432.66 3017.77,1436.2 3033.41,1436.2 3047.91,1433.17 3062.26,1426.97 3076.23,1416.82 3086.11,1405.78 3093.55,1392.97 3098.89,1376.55 3100.39,1361.81 3098.54,1345.46 3093.55,1330.65 3085.59,1317.2 3075.64,1306.22 3062.26,1296.65 3047.91,1290.45 3032.59,1287.37 3017.77,1287.42 3001.7,1290.96 2987.5,1297.48 2976.18,1305.7 2967.96,1314.57 2540.28,1314.57 2534.94,1305.27 2525.04,1294.2 2511.08,1284.06 2496.73,1277.86 2483.04,1274.95 2466.59,1274.82 2452.09,1277.86 2437.74,1284.06 2423.77,1294.2 2413.89,1305.24 2405.78,1319.56 2401.11,1334.47 2399.61,1349.21" style="stroke:rgb(5,23,88);stroke-width:15.748031;fill:none;stroke-opacity:0.5;stroke-linecap:round;stroke-linejoin:round;;fill:none"/>
<polyline points="2391.73,1349.21 2393.28,1364.77 2398.29,1381.3 2408.56,1399.09 2419.09,1410.65 2433.07,1420.81 2450.45,1428.27 2465.77,1431.44 2483.05,1431.44 2498.37,1428.27 2514.28,1421.56 2521.24,1416.93 2964.46,1416.93 2970.27,1423.25 2985.72,1434.16 3001.63,1440.87 3018.59,1444.12 3034.23,1444.03 3052.68,1439.85 3066.93,1433.41 3082.08,1422.09 3092.48,1410.41 3101.71,1393.9 3106.72,1377.37 3108.27,1361.81 3106.03,1343.03 3101.12,1328.18 3093.37,1314.6 3082.08,1301.53 3065.46,1289.46 3049.55,1282.75 3034.23,1279.59 3016.95,1279.59 2998.5,1283.77 2982.87,1291.11 2971.55,1299.33 2964.46,1306.69 2544.86,1306.69 2541.33,1300.66 2529.73,1287.77 2515.75,1277.61 2498.37,1270.15 2481.4,1266.9 2465.77,1266.99 2447.32,1271.17 2433.07,1277.61 2417.92,1288.94 2407.52,1300.62 2398.29,1317.12 2393.96,1330.43 2391.82,1347.57 2391.73,1349.21 2399.61,1349.21 2401.11,1363.95 2405.78,1378.87 2413.44,1392.49 2423.77,1404.22 2437.74,1414.37 2452.09,1420.57 2465.78,1423.48 2482.23,1423.61 2496.73,1420.57 2511.08,1414.37 2518.68,1409.05 2967.96,1409.05 2975.54,1417.4 2987.5,1426.14 3001.7,1432.66 3017.77,1436.2 3033.41,1436.2 3047.91,1433.17 3062.26,1426.97 3076.23,1416.82 3086.11,1405.78 3093.55,1392.97 3098.89,1376.55 3100.39,1361.81 3098.54,1345.46 3093.55,1330.65 3085.59,1317.2 3075.64,1306.22 3062.26,1296.65 3047.91,1290.45 3032.59,1287.37 3017.77,1287.42 3001.7,1290.96 2987.5,1297.48 2976.18,1305.7 2967.96,1314.57 2540.28,1314.57 2534.94,1305.27 2525.04,1294.2 2511.08,1284.06 2496.73,1277.86 2483.04,1274.95 2466.59,1274.82 2452.09,1277.86 2437.74,1284.06 2423.77,1294.2 2413.89,1305.24 2405.78,1319.56 2401.11,1334.47 2399.61,1349.21" style="stroke:rgb(0,0,0);stroke-width:1px;fill:none;stroke-opacity:1;stroke-linecap:round;stroke-linejoin:round;;fill:none"/>
<polyline points="2222.44,1438.98 2222.44,746.062 2223.87,733.81 2230.93,716.766 2238.58,707.088 2392.1,553.57 2393.28,533.65 2398.29,517.122 2407.52,500.616 2417.92,488.936 2431.69,478.51 2448.86,470.582 2465.77,466.988 2483.05,466.988 2501.5,471.172 2517.13,478.51 2530.9,488.936 2542.19,501.998 2549.19,514.116 2554.85,530.43 2557.09,549.212 2554.85,567.994 2549.19,584.308 2541.3,597.808 2530.9,609.488 2517.13,619.914 2498.37,628.27 2483.05,631.436 2470.05,631.522 2332.68,768.892 2332.68,1416.14 2392.9,1476.37 2398.73,1469.19 2407.48,1466.53 2544.41,1466.84 2550.09,1469.19 2555.89,1476.26 2557.09,1482.28 2557.09,1506.69 2964.46,1506.69 2971.55,1499.33 2985.72,1489.46 3001.63,1482.75 3016.95,1479.59 3029.95,1479.5 3048.26,1463.22 3057.92,1458.4 3076.01,1454.8 3710.63,1454.72 3710.93,1439.84 3713.28,1434.16 3717.63,1429.82 3726.38,1427.16 3860.24,1427.16 3868.98,1429.82 3873.33,1434.16 3875.68,1439.84 3875.98,1454.72 4005.9,1454.72 4007.1,1436.89 4012.9,1429.82 4018.58,1427.47 4155.51,1427.16 4164.26,1429.82 4168.6,1434.16 4170.96,1439.84 4171.26,1576.77 4170.06,1582.8 4166.65,1587.91 4158.58,1592.22 4021.65,1592.52 4015.63,1591.32 4008.56,1585.52 4006.21,1579.84 4005.9,1564.96 3875.98,1564.96 3874.78,1582.8 3871.37,1587.91 3863.31,1592.22 3726.38,1592.52 3720.35,1591.32 3713.28,1585.52 3710.93,1579.84 3710.63,1564.96 3108.02,1564.96 3106.03,1580.59 3100.37,1596.91 3092.48,1610.41 3082.08,1622.09 3065.46,1634.16 3049.55,1640.87 3034.23,1644.03 3016.95,1644.03 2998.5,1639.85 2982.87,1632.51 2970.27,1623.25 2964.46,1616.93 2557.01,1616.93 2555.89,1622.17 2552.47,1627.28 2547.36,1630.69 2541.34,1631.89 2407.48,1631.89 2398.73,1629.23 2394.39,1624.89 2392.03,1619.21 2391.73,1604.33 2378.57,1603.5 2368.16,1600.65 2358.5,1595.84 2348.82,1588.19 2237.55,1476.8 2227.3,1461.47 2223.27,1448.2 2222.44,1438.98 2230.31,1438.98 2230.35,745.29 2231.41,736.096 2234.24,727.284 2243.63,713.228 2400.33,556.482 2399.65,548.388 2401.11,534.474 2405.78,519.556 2413.89,505.244 2423.77,494.204 2436.32,484.88 2450.52,478.366 2466.59,474.818 2482.23,474.818 2498.29,478.366 2512.5,484.88 2525.04,494.204 2535.37,505.934 2542.37,518.052 2547.36,532.864 2549.21,549.212 2547.36,565.56 2542.37,580.372 2534.93,593.18 2525.04,604.218 2511.08,614.368 2496.73,620.568 2483.04,623.476 2466.82,623.618 2324.8,765.632 2324.8,1419.41 2399.61,1494.21 2400.2,1479.27 2401.91,1476.71 2405.94,1474.56 2541.34,1474.41 2546.91,1476.71 2549.06,1480.75 2549.21,1514.57 2967.96,1514.57 2976.18,1505.7 2988.92,1496.65 3003.27,1490.45 3016.96,1487.55 3033.18,1487.4 3051.97,1470.16 3060.21,1465.93 3076.79,1462.64 3718.5,1462.6 3718.65,1441.38 3720.81,1437.34 3726.38,1435.04 3861.77,1435.19 3865.8,1437.34 3867.96,1441.38 3868.11,1462.6 4013.78,1462.6 4013.93,1441.38 4016.08,1437.34 4020.12,1435.19 4155.51,1435.04 4161.08,1437.34 4163.39,1442.91 4163.23,1578.31 4159.89,1583.32 4155.51,1584.64 4020.12,1584.49 4016.08,1582.34 4013.93,1578.31 4013.78,1557.09 3868.11,1557.09 3867.96,1578.31 3865.8,1582.34 3860.24,1584.64 3724.84,1584.49 3720.81,1582.34 3718.65,1578.31 3718.5,1557.09 3099.94,1557.09 3098.54,1578.16 3093.55,1592.97 3085.59,1606.42 3075,1617.92 3062.26,1626.97 3047.91,1633.17 3033.41,1636.2 3017.77,1636.2 3001.7,1632.66 2987.5,1626.14 2975.54,1617.4 2967.96,1609.05 2549.21,1609.05 2548.61,1619.15 2546.91,1621.71 2542.87,1623.86 2407.48,1624.01 2403.1,1622.69 2399.76,1617.68 2399.61,1596.46 2379.34,1595.66 2370.44,1593.12 2362.21,1588.89 2354.39,1582.62 2243.63,1471.81 2237.88,1464.56 2233.65,1456.33 2231.11,1447.43 2230.31,1438.98" style="stroke:rgb(233,94,212);stroke-width:15.748031;fill:none;stroke-opacity:0.5;stroke-linecap:round;stroke-linejoin:round;;fill:none"/>
<polyline points="2222.44,1438.98 2222.44,746.062 2223.87,733.81 2230.93,716.766 2238.58,707.088 2392.1,553.57 2393.28,533.65 2398.29,517.122 2407.52,500.616 2417.92,488.936 2431.69,478.51 2448.86,470.582 2465.77,466.988 2483.05,466.988 2501.5,471.172 2517.13,478.51 2530.9,488.936 2542.19,501.998 2549.19,514.116 2554.85,530.43 2557.09,549.212 2554.85,567.994 2549.19,584.308 2541.3,597.808 2530.9,609.488 2517.13,619.914 2498.37,628.27 2483.05,631.436 2470.05,631.522 2332.68,768.892 2332.68,1416.14 2392.9,1476.37 2398.73,1469.19 2407.48,1466.53 2544.41,1466.84 2550.09,1469.19 2555.89,1476.26 2557.09,1482.28 2557.09,1506.69 2964.46,1506.69 2971.55,1499.33 2985.72,1489.46 3001.63,1482.75 3016.95,1479.59 3029.95,1479.5 3048.26,1463.22 3057.92,1458.4 3076.01,1454.8 3710.63,1454.72 3710.93,1439.84 3713.28,1434.16 3717.63,1429.82 3726.38,1427.16 3860.24,1427.16 3868.98,1429.82 3873.33,1434.16 3875.68,1439.84 3875.98,1454.72 4005.9,1454.72 4007.1,1436.89 4012.9,1429.82 4018.58,1427.47 4155.51,1427.16 4164.26,1429.82 4168.6,1434.16 4170.96,1439.84 4171.26,1576.77 4170.06,1582.8 4166.65,1587.91 4158.58,1592.22 4021.65,1592.52 4015.63,1591.32 4008.56,1585.52 4006.21,1579.84 4005.9,1564.96 3875.98,1564.96 3874.78,1582.8 3871.37,1587.91 3863.31,1592.22 3726.38,1592.52 3720.35,1591.32 3713.28,1585.52 3710.93,1579.84 3710.63,1564.96 3108.02,1564.96 3106.03,1580.59 3100.37,1596.91 3092.48,1610.41 3082.08,1622.09 3065.46,1634.16 3049.55,1640.87 3034.23,1644.03 3016.95,1644.03 2998.5,1639.85 2982.87,1632.51 2970.27,1623.25 2964.46,1616.93 2557.01,1616.93 2555.89,1622.17 2552.47,1627.28 2547.36,1630.69 2541.34,1631.89 2407.48,1631.89 2398.73,1629.23 2394.39,1624.89 2392.03,1619.21 2391.73,1604.33 2378.57,1603.5 2368.16,1600.65 2358.5,1595.84 2348.82,1588.19 2237.55,1476.8 2227.3,1461.47 2223.27,1448.2 2222.44,1438.98 2230.31,1438.98 2230.35,745.29 2231.41,736.096 2234.24,727.284 2243.63,713.228 2400.33,556.482 2399.65,548.388 2401.11,534.474 2405.78,519.556 2413.89,505.244 2423.77,494.204 2436.32,484.88 2450.52,478.366 2466.59,474.818 2482.23,474.818 2498.29,478.366 2512.5,484.88 2525.04,494.204 2535.37,505.934 2542.37,518.052 2547.36,532.864 2549.21,549.212 2547.36,565.56 2542.37,580.372 2534.93,593.18 2525.04,604.218 2511.08,614.368 2496.73,620.568 2483.04,623.476 2466.82,623.618 2324.8,765.632 2324.8,1419.41 2399.61,1494.21 2400.2,1479.27 2401.91,1476.71 2405.94,1474.56 2541.34,1474.41 2546.91,1476.71 2549.06,1480.75 2549.21,1514.57 2967.96,1514.57 2976.18,1505.7 2988.92,1496.65 3003.27,1490.45 3016.96,1487.55 3033.18,1487.4 3051.97,1470.16 3060.21,1465.93 3076.79,1462.64 3718.5,1462.6 3718.65,1441.38 3720.81,1437.34 3726.38,1435.04 3861.77,1435.19 3865.8,1437.34 3867.96,1441.38 3868.11,1462.6 4013.78,1462.6 4013.93,1441.38 4016.08,1437.34 4020.12,1435.19 4155.51,1435.04 4161.08,1437.34 4163.39,1442.91 4163.23,1578.31 4159.89,1583.32 4155.51,1584.64 4020.12,1584.49 4016.08,1582.34 4013.93,1578.31 4013.78,1557.09 3868.11,1557.09 3867.96,1578.31 3865.8,1582.34 3860.24,1584.64 3724.84,1584.49 3720.81,1582.34 3718.65,1578.31 3718.5,1557.09 3099.94,1557.09 3098.54,1578.16 3093.55,1592.97 3085.59,1606.42 3075,1617.92 3062.26,1626.97 3047.91,1633.17 3033.41,1636.2 3017.77,1636.2 3001.7,1632.66 2987.5,1626.14 2975.54,1617.4 2967.96,1609.05 2549.21,1609.05 2548.61,1619.15 2546.91,1621.71 2542.87,1623.86 2407.48,1624.01 2403.1,1622.69 2399.76,1617.68 2399.61,1596.46 2379.34,1595.66 2370.44,1593.12 2362.21,1588.89 2354.39,1582.62 2243.63,1471.81 2237.88,1464.56 2233.65,1456.33 2231.11,1447.43 2230.31,1438.98" style="stroke:rgb(0,0,0);stroke-width:1px;fill:none;stroke-opacity:1;stroke-linecap:round;stroke-linejoin:round;;fill:none"/>
<polyline points="2391.73,749.212 2393.28,764.774 2398.29,781.3 2408.56,799.09 2419.09,810.652 2433.07,820.812 2450.45,828.27 2465.77,831.436 2483.05,831.436 2498.37,828.27 2514.28,821.56 2521.24,816.928 2942.91,816.928 2943.22,831.812 2945.57,837.488 2949.91,841.834 2958.66,844.488 3092.52,844.488 3101.27,841.834 3105.61,837.488 3107.96,831.812 3108.27,694.882 3105.61,686.132 3101.27,681.788 3095.59,679.436 2955.59,679.436 2947.53,683.746 2944.11,688.854 2942.91,706.692 2544.86,706.692 2541.33,700.658 2529.73,687.77 2514.28,676.862 2498.37,670.154 2484.68,667.246 2465.77,666.988 2448.86,670.582 2434.54,676.862 2420.37,686.734 2408.56,699.334 2398.29,717.122 2393.28,733.65 2391.73,749.212 2399.61,749.212 2401.45,765.56 2406.07,779.636 2413.44,792.488 2424.36,804.802 2437.74,814.368 2452.09,820.568 2466.59,823.606 2482.23,823.606 2496.73,820.568 2511.08,814.368 2518.68,809.054 2950.79,809.054 2950.94,830.276 2953.09,834.308 2957.12,836.462 3094.06,836.462 3099.07,833.114 3100.39,828.74 3100.39,694.882 3099.07,690.506 3094.06,687.158 2957.12,687.158 2953.09,689.314 2950.94,693.344 2950.79,714.566 2540.28,714.566 2534.94,705.266 2525.04,694.204 2511.08,684.056 2496.73,677.856 2483.04,674.948 2466.59,674.818 2452.09,677.856 2437.74,684.056 2423.77,694.204 2413.89,705.244 2405.78,719.556 2401.11,734.474 2399.61,749.212" style="stroke:rgb(171,178,205);stroke-width:15.748031;fill:none;stroke-opacity:0.5;stroke-linecap:round;stroke-linejoin:round;;fill:none"/>
<polyline points="2391.73,749.212 2393.28,764.774 2398.29,781.3 2408.56,799.09 2419.09,810.652 2433.07,820.812 2450.45,828.27 2465.77,831.436 2483.05,831.436 2498.37,828.27 2514.28,821.56 2521.24,816.928 2942.91,816.928 2943.22,831.812 2945.57,837.488 2949.91,841.834 2958.66,844.488 3092.52,844.488 3101.27,841.834 3105.61,837.488 3107.96,831.812 3108.27,694.882 3105.61,686.132 3101.27,681.788 3095.59,679.436 2955.59,679.436 2947.53,683.746 2944.11,688.854 2942.91,706.692 2544.86,706.692 2541.33,700.658 2529.73,687.77 2514.28,676.862 2498.37,670.154 2484.68,667.246 2465.77,666.988 2448.86,670.582 2434.54,676.862 2420.37,686.734 2408.56,699.334 2398.29,717.122 2393.28,733.65 2391.73,749.212 2399.61,749.212 2401.45,765.56 2406.07,779.636 2413.44,792.488 2424.36,804.802 2437.74,814.368 2452.09,820.568 2466.59,823.606 2482.23,823.606 2496.73,820.568 2511.08,814.368 2518.68,809.054 2950.79,809.054 2950.94,830.276 2953.09,834.308 2957.12,836.462 3094.06,836.462 3099.07,833.114 3100.39,828.74 3100.39,694.882 3099.07,690.506 3094.06,687.158 2957.12,687.158 2953.09,689.314 2950.94,693.344 2950.79,714.566 2540.28,714.566 2534.94,705.266 2525.04,694.204 2511.08,684.056 2496.73,677.856 2483.04,674.948 2466.59,674.818 2452.09,677.856 2437.74,684.056 2423.77,694.204 2413.89,705.244 2405.78,719.556 2401.11,734.474 2399.61,749.212" style="stroke:rgb(0,0,0);stroke-width:1px;fill:none;stroke-opacity:1;stroke-linecap:round;stroke-linejoin:round;;fill:none"/>
<polyline points="2391.73,949.212 2393.28,964.774 2398.29,981.3 2408.56,999.09 2419.09,1010.65 2433.07,1020.81 2450.45,1028.27 2465.77,1031.44 2483.05,1031.44 2501.5,1027.25 2517.13,1019.91 2528.45,1011.69 2535.54,1004.33 2955.14,1004.33 2958.67,1010.36 2970.27,1023.25 2984.25,1033.41 3001.63,1040.87 3018.59,1044.12 3034.23,1044.03 3052.68,1039.85 3066.93,1033.41 3082.08,1022.09 3092.48,1010.41 3101.71,993.9 3106.72,977.372 3108.27,961.81 3106.03,943.028 3101.12,928.182 3093.37,914.596 3082.08,901.534 3065.46,889.462 3049.55,882.752 3034.23,879.586 3016.95,879.586 3001.63,882.752 2985.72,889.462 2978.76,894.094 2535.54,894.094 2529.73,887.77 2514.28,876.862 2498.37,870.154 2481.4,866.902 2465.77,866.988 2448.86,870.582 2431.69,878.51 2417.92,888.936 2407.52,900.616 2398.29,917.122 2393.96,930.43 2391.82,947.566 2391.73,949.212 2399.61,949.212 2401.45,965.56 2406.07,979.636 2413.44,992.488 2423.77,1004.22 2437.74,1014.37 2452.09,1020.57 2465.78,1023.48 2482.23,1023.61 2498.29,1020.06 2512.5,1013.54 2523.82,1005.32 2532.03,996.456 2959.72,996.456 2965.06,1005.76 2974.95,1016.82 2988.92,1026.97 3003.27,1033.17 3016.96,1036.07 3033.41,1036.2 3047.91,1033.17 3062.26,1026.97 3076.23,1016.82 3086.11,1005.78 3093.55,992.97 3098.89,976.548 3100.39,961.81 3098.54,945.462 3093.93,931.386 3085.59,917.202 3075.64,906.22 3062.26,896.654 3047.91,890.454 3032.59,887.374 3017.77,887.416 3003.27,890.454 2988.92,896.654 2981.32,901.968 2532.03,901.968 2524.46,893.622 2512.5,884.88 2498.29,878.366 2482.23,874.818 2466.59,874.818 2452.09,877.856 2437.74,884.056 2423.77,894.204 2413.89,905.244 2405.78,919.556 2401.11,934.474 2399.61,949.212" style="stroke:rgb(198,155,180);stroke-width:15.748031;fill:none;stroke-opacity:0.5;stroke-linecap:round;stroke-linejoin:round;;fill:none"/>
<polyline points="2391.73,949.212 2393.28,964.774 2398.29,981.3 2408.56,999.09 2419.09,1010.65 2433.07,1020.81 2450.45,1028.27 2465.77,1031.44 2483.05,1031.44 2501.5,1027.25 2517.13,1019.91 2528.45,1011.69 2535.54,1004.33 2955.14,1004.33 2958.67,1010.36 2970.27,1023.25 2984.25,1033.41 3001.63,1040.87 3018.59,1044.12 3034.23,1044.03 3052.68,1039.85 3066.93,1033.41 3082.08,1022.09 3092.48,1010.41 3101.71,993.9 3106.72,977.372 3108.27,961.81 3106.03,943.028 3101.12,928.182 3093.37,914.596 3082.08,901.534 3065.46,889.462 3049.55,882.752 3034.23,879.586 3016.95,879.586 3001.63,882.752 2985.72,889.462 2978.76,894.094 2535.54,894.094 2529.73,887.77 2514.28,876.862 2498.37,870.154 2481.4,866.902 2465.77,866.988 2448.86,870.582 2431.69,878.51 2417.92,888.936 2407.52,900.616 2398.29,917.122 2393.96,930.43 2391.82,947.566 2391.73,949.212 2399.61,949.212 2401.45,965.56 2406.07,979.636 2413.44,992.488 2423.77,1004.22 2437.74,1014.37 2452.09,1020.57 2465.78,1023.48 2482.23,1023.61 2498.29,1020.06 2512.5,1013.54 2523.82,1005.32 2532.03,996.456 2959.72,996.456 2965.06,1005.76 2974.95,1016.82 2988.92,1026.97 3003.27,1033.17 3016.96,1036.07 3033.41,1036.2 3047.91,1033.17 3062.26,1026.97 3076.23,1016.82 3086.11,1005.78 3093.55,992.97 3098.89,976.548 3100.39,961.81 3098.54,945.462 3093.93,931.386 3085.59,917.202 3075.64,906.22 3062.26,896.654 3047.91,890.454 3032.59,887.374 3017.77,887.416 3003.27,890.454 2988.92,896.654 2981.32,901.968 2532.03,901.968 2524.46,893.622 2512.5,884.88 2498.29,878.366 2482.23,874.818 2466.59,874.818 2452.09,877.856 2437.74,884.056 2423.77,894.204 2413.89,905.244 2405.78,919.556 2401.11,934.474 2399.61,949.212" style="stroke:rgb(0,0,0);stroke-width:1px;fill:none;stroke-opacity:1;stroke-linecap:round;stroke-linejoin:round;;fill:none"/>
<polyline points="2391.73,1149.21 2393.28,1164.77 2398.29,1181.3 2408.56,1199.09 2419.09,1210.65 2434.54,1221.56 2448.86,1227.84 2464.14,1231.18 2481.4,1231.52 2499.96,1227.84 2517.13,1219.91 2529.73,1210.65 2535.54,1204.33 2955.14,1204.33 2958.67,1210.36 2970.27,1223.25 2984.25,1233.41 3001.63,1240.87 3018.59,1244.12 3034.23,1244.03 3052.68,1239.85 3066.93,1233.41 3082.08,1222.09 3092.48,1210.41 3101.71,1193.9 3106.72,1177.37 3108.27,1161.81 3106.03,1143.03 3101.12,1128.18 3093.37,1114.6 3082.08,1101.53 3065.46,1089.46 3049.55,1082.75 3034.23,1079.59 3016.95,1079.59 3001.63,1082.75 2985.72,1089.46 2978.76,1094.09 2535.54,1094.09 2529.73,1087.77 2514.28,1076.86 2498.37,1070.15 2481.4,1066.9 2465.77,1066.99 2448.86,1070.58 2431.69,1078.51 2417.92,1088.94 2407.52,1100.62 2398.29,1117.12 2393.96,1130.43 2391.82,1147.57 2391.73,1149.21 2399.61,1149.21 2401.45,1165.56 2406.07,1179.64 2413.44,1192.49 2423.77,1204.22 2437.74,1214.37 2451.29,1220.35 2465.78,1223.48 2483.04,1223.48 2498.29,1220.06 2512.5,1213.54 2523.82,1205.32 2532.03,1196.46 2959.72,1196.46 2965.06,1205.76 2974.95,1216.82 2988.92,1226.97 3003.27,1233.17 3016.96,1236.07 3033.41,1236.2 3047.91,1233.17 3062.26,1226.97 3076.23,1216.82 3086.11,1205.78 3093.55,1192.97 3098.89,1176.55 3100.39,1161.81 3098.54,1145.46 3093.93,1131.39 3085.59,1117.2 3075.64,1106.22 3062.26,1096.65 3047.91,1090.45 3032.59,1087.37 3017.77,1087.42 3003.27,1090.45 2988.92,1096.65 2981.32,1101.97 2532.03,1101.97 2524.46,1093.62 2512.5,1084.88 2498.29,1078.37 2482.23,1074.82 2466.59,1074.82 2452.09,1077.86 2437.74,1084.06 2423.77,1094.2 2413.89,1105.24 2405.78,1119.56 2401.11,1134.47 2399.61,1149.21" style="stroke:rgb(84,17,14);stroke-width:15.748031;fill:none;stroke-opacity:0.5;stroke-linecap:round;stroke-linejoin:round;;fill:none"/>
<polyline points="2391.73,1149.21 2393.28,1164.77 2398.29,1181.3 2408.56,1199.09 2419.09,1210.65 2434.54,1221.56 2448.86,1227.84 2464.14,1231.18 2481.4,1231.52 2499.96,1227.84 2517.13,1219.91 2529.73,1210.65 2535.54,1204.33 2955.14,1204.33 2958.67,1210.36 2970.27,1223.25 2984.25,1233.41 3001.63,1240.87 3018.59,1244.12 3034.23,1244.03 3052.68,1239.85 3066.93,1233.41 3082.08,1222.09 3092.48,1210.41 3101.71,1193.9 3106.72,1177.37 3108.27,1161.81 3106.03,1143.03 3101.12,1128.18 3093.37,1114.6 3082.08,1101.53 3065.46,1089.46 3049.55,1082.75 3034.23,1079.59 3016.95,1079.59 3001.63,1082.75 2985.72,1089.46 2978.76,1094.09 2535.54,1094.09 2529.73,1087.77 2514.28,1076.86 2498.37,1070.15 2481.4,1066.9 2465.77,1066.99 2448.86,1070.58 2431.69,1078.51 2417.92,1088.94 2407.52,1100.62 2398.29,1117.12 2393.96,1130.43 2391.82,1147.57 2391.73,1149.21 2399.61,1149.21 2401.45,1165.56 2406.07,1179.64 2413.44,1192.49 2423.77,1204.22 2437.74,1214.37 2451.29,1220.35 2465.78,1223.48 2483.04,1223.48 2498.29,1220.06 2512.5,1213.54 2523.82,1205.32 2532.03,1196.46 2959.72,1196.46 2965.06,1205.76 2974.95,1216.82 2988.92,1226.97 3003.27,1233.17 3016.96,1236.07 3033.41,1236.2 3047.91,1233.17 3062.26,1226.97 3076.23,1216.82 3086.11,1205.78 3093.55,1192.97 3098.89,1176.55 3100.39,1161.81 3098.54,1145.46 3093.93,1131.39 3085.59,1117.2 3075.64,1106.22 3062.26,1096.65 3047.91,1090.45 3032.59,1087.37 3017.77,1087.42 3003.27,1090.45 2988.92,1096.65 2981.32,1101.97 2532.03,1101.97 2524.46,1093.62 2512.5,1084.88 2498.29,1078.37 2482.23,1074.82 2466.59,1074.82 2452.09,1077.86 2437.74,1084.06 2423.77,1094.2 2413.89,1105.24 2405.78,1119.56 2401.11,1134.47 2399.61,1149.21" style="stroke:rgb(0,0,0);stroke-width:1px;fill:none;stroke-opacity:1;stroke-linecap:round;stroke-linejoin:round;;fill:none"/>
</svg>
