G04 #@! TF.GenerationSoftware,KiCad,Pcbnew,5.0.2-bee76a0~70~ubuntu18.04.1*
G04 #@! TF.CreationDate,2020-05-08T14:17:04+02:00*
G04 #@! TF.ProjectId,board,626f6172-642e-46b6-9963-61645f706362,rev?*
G04 #@! TF.SameCoordinates,Original*
G04 #@! TF.FileFunction,Copper,L2,Inr*
G04 #@! TF.FilePolarity,Positive*
%FSLAX46Y46*%
G04 Gerber Fmt 4.6, Leading zero omitted, Abs format (unit mm)*
G04 Created by KiCad (PCBNEW 5.0.2-bee76a0~70~ubuntu18.04.1) date Fr 08 Mai 2020 14:17:04 CEST*
%MOMM*%
%LPD*%
G01*
G04 APERTURE LIST*
G04 #@! TA.AperFunction,ViaPad*
%ADD10O,1.700000X1.700000*%
G04 #@! TD*
G04 #@! TA.AperFunction,ViaPad*
%ADD11R,1.700000X1.700000*%
G04 #@! TD*
G04 #@! TA.AperFunction,ViaPad*
%ADD12R,1.800000X1.800000*%
G04 #@! TD*
G04 #@! TA.AperFunction,ViaPad*
%ADD13C,1.800000*%
G04 #@! TD*
G04 #@! TA.AperFunction,ViaPad*
%ADD14C,0.400000*%
G04 #@! TD*
G04 #@! TA.AperFunction,ViaPad*
%ADD15C,0.310000*%
G04 #@! TD*
G04 #@! TA.AperFunction,ViaPad*
%ADD16C,0.800000*%
G04 #@! TD*
G04 #@! TA.AperFunction,Conductor*
%ADD17C,0.300000*%
G04 #@! TD*
G04 #@! TA.AperFunction,Conductor*
%ADD18C,0.152400*%
G04 #@! TD*
G04 #@! TA.AperFunction,Conductor*
%ADD19C,0.254000*%
G04 #@! TD*
G04 APERTURE END LIST*
D10*
G04 #@! TO.N,/HALL1*
G04 #@! TO.C,J2*
X156000000Y-119329200D03*
G04 #@! TO.N,/HALL2*
X156000000Y-121869200D03*
G04 #@! TO.N,/HALL3*
X156000000Y-124409200D03*
G04 #@! TO.N,GND*
X156000000Y-126949200D03*
G04 #@! TO.N,+3V3*
X156000000Y-129489200D03*
G04 #@! TO.N,/PH1*
X156000000Y-132029200D03*
G04 #@! TO.N,/PH2*
X156000000Y-134569200D03*
D11*
G04 #@! TO.N,/PH3*
X156000000Y-137109200D03*
G04 #@! TD*
D12*
G04 #@! TO.N,/SDA*
G04 #@! TO.C,J9*
X113325000Y-101930000D03*
D13*
G04 #@! TO.N,/SCL*
X112055000Y-104470000D03*
G04 #@! TO.N,+3V3*
X110785000Y-101930000D03*
G04 #@! TO.N,GND*
X109515000Y-104470000D03*
G04 #@! TD*
G04 #@! TO.N,SHIELD*
G04 #@! TO.C,J5*
X96870000Y-103380000D03*
X98140000Y-105920000D03*
D12*
G04 #@! TO.N,/l_TX*
X103220000Y-105920000D03*
D13*
G04 #@! TO.N,/h_TX*
X101950000Y-103380000D03*
G04 #@! TO.N,/l_RX*
X100680000Y-105920000D03*
G04 #@! TO.N,/h_RX*
X99410000Y-103380000D03*
G04 #@! TD*
D14*
G04 #@! TO.N,+36V*
X129100000Y-127200000D03*
X128500000Y-127800000D03*
X124910000Y-127210000D03*
X126700000Y-127800000D03*
X129100000Y-129000000D03*
X129100000Y-127800000D03*
X128500000Y-127200000D03*
X124900000Y-129000000D03*
X126700000Y-128400000D03*
X126100000Y-127200000D03*
X126100000Y-129000000D03*
X124300000Y-127800000D03*
X126100000Y-128400000D03*
X126700000Y-127200000D03*
X123700000Y-127800000D03*
X126100000Y-127800000D03*
X127900000Y-127200000D03*
X124900000Y-127800000D03*
X127310000Y-127210000D03*
X124300000Y-128400000D03*
X127900000Y-129000000D03*
X127300000Y-127800000D03*
X123700000Y-128400000D03*
X125500000Y-129000000D03*
X125500000Y-127200000D03*
X123700000Y-127200000D03*
X124300000Y-129000000D03*
X127900000Y-127800000D03*
X127300000Y-129000000D03*
X125500000Y-128400000D03*
X128500000Y-128400000D03*
X128500000Y-129000000D03*
X123700000Y-129000000D03*
X124900000Y-128400000D03*
X129100000Y-128400000D03*
X127300000Y-128400000D03*
X127900000Y-128400000D03*
X125500000Y-127800000D03*
X126700000Y-129000000D03*
X124300000Y-127200000D03*
X141300000Y-102400000D03*
X141000000Y-120600000D03*
D15*
G04 #@! TO.N,Net-(C5-Pad2)*
X117700000Y-124650000D03*
X123600000Y-123900000D03*
X127748000Y-121100000D03*
X130050000Y-118700000D03*
G04 #@! TO.N,+3V3*
X128960000Y-112270000D03*
X128160000Y-112270000D03*
X133750000Y-106885000D03*
X111740000Y-106360000D03*
X115880000Y-106040000D03*
X125700000Y-106510000D03*
X136500000Y-118300000D03*
X133300000Y-118000000D03*
X104200000Y-109800000D03*
X134760000Y-115790000D03*
X130160000Y-110270000D03*
X126057511Y-114137511D03*
X130450000Y-115060000D03*
X128090000Y-108620000D03*
X129200000Y-117696400D03*
X129655000Y-108965000D03*
X128160000Y-110270000D03*
X147700000Y-100800000D03*
X129360000Y-112670000D03*
D14*
X150120000Y-119300000D03*
D15*
G04 #@! TO.N,Net-(DRV8323H1-Pad27)*
X126000000Y-125850000D03*
X130577003Y-118700000D03*
G04 #@! TO.N,/mosfet_bridges/GHA*
X143300000Y-124000000D03*
X131550000Y-126710000D03*
G04 #@! TO.N,/mosfet_bridges/GLA*
X146300000Y-123800000D03*
X133060000Y-126250000D03*
G04 #@! TO.N,/mosfet_bridges/GLB*
X137300000Y-124900000D03*
X146300000Y-130000000D03*
G04 #@! TO.N,/mosfet_bridges/GHB*
X142200000Y-129300000D03*
X138000000Y-124100000D03*
G04 #@! TO.N,/mosfet_bridges/GHC*
X136180000Y-122220000D03*
X142130025Y-135169975D03*
G04 #@! TO.N,/mosfet_bridges/GLC*
X136900000Y-121300000D03*
X143494805Y-135966469D03*
D14*
G04 #@! TO.N,GND*
X126800000Y-136800000D03*
X128000000Y-136800000D03*
X124400000Y-137400000D03*
X128000000Y-136200000D03*
X126200000Y-136200000D03*
X125000000Y-136200000D03*
X124400000Y-136800000D03*
X128000000Y-137400000D03*
X128600000Y-137400000D03*
X126200000Y-136800000D03*
X125010000Y-135610000D03*
X128600000Y-136800000D03*
X124400000Y-136200000D03*
X127400000Y-136800000D03*
X125600000Y-135600000D03*
X126800000Y-137400000D03*
X125000000Y-136800000D03*
X129200000Y-135600000D03*
X126800000Y-135600000D03*
X126200000Y-137400000D03*
X123800000Y-137400000D03*
X128000000Y-135600000D03*
X128600000Y-135600000D03*
X123800000Y-135600000D03*
X128600000Y-136200000D03*
X126200000Y-135600000D03*
X127410000Y-135610000D03*
X127400000Y-136200000D03*
X129200000Y-136800000D03*
X123800000Y-136800000D03*
X125600000Y-137400000D03*
X125600000Y-136200000D03*
X123800000Y-136200000D03*
X125000000Y-137400000D03*
X127400000Y-137400000D03*
X125600000Y-136800000D03*
X124400000Y-135600000D03*
X126800000Y-136200000D03*
X129200000Y-137400000D03*
X129200000Y-136200000D03*
X128600000Y-138000000D03*
X124400000Y-138000000D03*
X126800000Y-138000000D03*
X125600000Y-138000000D03*
X123800000Y-138000000D03*
X126200000Y-138000000D03*
X128000000Y-138000000D03*
X125000000Y-138000000D03*
X129200000Y-138000000D03*
X127400000Y-138000000D03*
X126800000Y-134400000D03*
X128000000Y-134400000D03*
X124400000Y-135000000D03*
X128000000Y-133800000D03*
X126200000Y-133800000D03*
X125000000Y-133800000D03*
X124400000Y-134400000D03*
X128000000Y-135000000D03*
X128600000Y-135000000D03*
X126200000Y-134400000D03*
X125010000Y-133210000D03*
X128600000Y-134400000D03*
X124400000Y-133800000D03*
X127400000Y-134400000D03*
X125600000Y-133200000D03*
X126800000Y-135000000D03*
X125000000Y-134400000D03*
X129200000Y-133200000D03*
X126800000Y-133200000D03*
X126200000Y-135000000D03*
X123800000Y-135000000D03*
X128000000Y-133200000D03*
X128600000Y-133200000D03*
X123800000Y-133200000D03*
X128600000Y-133800000D03*
X126200000Y-133200000D03*
X127410000Y-133210000D03*
X127400000Y-133800000D03*
X129200000Y-134400000D03*
X123800000Y-134400000D03*
X125600000Y-135000000D03*
X125600000Y-133800000D03*
X123800000Y-133800000D03*
X125000000Y-135000000D03*
X127400000Y-135000000D03*
X125600000Y-134400000D03*
X124400000Y-133200000D03*
X126800000Y-133800000D03*
X129200000Y-135000000D03*
X129200000Y-133800000D03*
X146400000Y-127400000D03*
X144600000Y-127400000D03*
X144600000Y-128600000D03*
X144600000Y-128000000D03*
X146400000Y-129200000D03*
X145800000Y-129200000D03*
X145200000Y-126800000D03*
X145800000Y-126800000D03*
X145800000Y-128000000D03*
X145200000Y-129200000D03*
X145200000Y-127400000D03*
X144600000Y-126800000D03*
X145800000Y-127400000D03*
X145800000Y-128600000D03*
X145200000Y-128600000D03*
X145200000Y-128000000D03*
X146400000Y-126800000D03*
X146400000Y-128000000D03*
X144600000Y-129200000D03*
X146400000Y-128600000D03*
X146400000Y-133600000D03*
X144600000Y-133600000D03*
X144600000Y-134800000D03*
X144600000Y-134200000D03*
X145800000Y-135400000D03*
X145200000Y-133000000D03*
X145800000Y-133000000D03*
X145800000Y-134200000D03*
X145200000Y-135400000D03*
X145200000Y-133600000D03*
X144600000Y-133000000D03*
X145800000Y-133600000D03*
X145800000Y-134800000D03*
X145200000Y-134800000D03*
X145200000Y-134200000D03*
X146400000Y-133000000D03*
X146400000Y-134200000D03*
X144600000Y-135400000D03*
X146400000Y-134800000D03*
X144000000Y-128000000D03*
X144000000Y-129200000D03*
X144000000Y-126800000D03*
X144000000Y-128600000D03*
X144000000Y-127400000D03*
X144000000Y-121200000D03*
X144000000Y-122400000D03*
X144000000Y-121800000D03*
X144000000Y-120600000D03*
X144000000Y-123000000D03*
X144000000Y-134800000D03*
X144000000Y-133600000D03*
X144000000Y-135400000D03*
X144000000Y-133000000D03*
X144000000Y-134200000D03*
X146400000Y-121200000D03*
X146400000Y-121800000D03*
X146400000Y-122400000D03*
X146400000Y-123000000D03*
X145800000Y-123000000D03*
X145800000Y-122400000D03*
X145800000Y-121800000D03*
X145800000Y-121200000D03*
X145800000Y-120600000D03*
X145200000Y-120600000D03*
X145200000Y-121200000D03*
X145200000Y-121800000D03*
X145200000Y-122400000D03*
X145200000Y-123000000D03*
X144600000Y-123000000D03*
X144600000Y-120600000D03*
X144600000Y-121800000D03*
X144600000Y-121200000D03*
X144600000Y-122400000D03*
D16*
X100300000Y-135500000D03*
X101200000Y-135500000D03*
X102100000Y-135500000D03*
X103000000Y-135500000D03*
X100800000Y-136300000D03*
X101700000Y-136300000D03*
X102600000Y-136300000D03*
X103500000Y-136300000D03*
X100400000Y-137100000D03*
X101300000Y-137100000D03*
X102200000Y-137100000D03*
X103100000Y-137100000D03*
X100800000Y-137900000D03*
X101700000Y-137900000D03*
X102600000Y-137900000D03*
X103500000Y-137900000D03*
D14*
X146400000Y-120600000D03*
D15*
X133860000Y-102690000D03*
X135200000Y-108500000D03*
X134200000Y-110900000D03*
X135200000Y-112400000D03*
X140700000Y-105400000D03*
X134300000Y-125167399D03*
X132900000Y-128360000D03*
X128290000Y-125350000D03*
X145000000Y-116500000D03*
X126800000Y-117500000D03*
X137812500Y-101400000D03*
X135200000Y-101400000D03*
X107800000Y-117850000D03*
X113700000Y-110800000D03*
X124510000Y-115040000D03*
X121370000Y-117590000D03*
X140680000Y-108090000D03*
X132720000Y-105960000D03*
X129550000Y-111270000D03*
X124740000Y-110340000D03*
X93610000Y-128920000D03*
X120320000Y-113980000D03*
X116000000Y-119050000D03*
X126050000Y-108610000D03*
X126360000Y-110690000D03*
G04 #@! TO.N,/HALL2*
X131610000Y-112370000D03*
G04 #@! TO.N,/HALL1*
X130560000Y-112270000D03*
G04 #@! TO.N,/HALL3*
X133330000Y-113390000D03*
D14*
G04 #@! TO.N,+5V*
X107200000Y-118800000D03*
X107200000Y-120975000D03*
X144200000Y-114800000D03*
X140500000Y-114600000D03*
X135800000Y-104400000D03*
X151600000Y-103300000D03*
X122960000Y-107250000D03*
X106180000Y-124020000D03*
X146500000Y-102700000D03*
X144316448Y-113113552D03*
X144400000Y-110600000D03*
X107590000Y-116630000D03*
G04 #@! TO.N,/PH1*
X149100000Y-124700000D03*
X149700000Y-125900000D03*
X149700000Y-124700000D03*
X149100000Y-125900000D03*
X149100000Y-125300000D03*
X149700000Y-125300000D03*
X150300000Y-125300000D03*
X150300000Y-125900000D03*
X150300000Y-124700000D03*
X151000000Y-124700000D03*
X151600000Y-125900000D03*
X151600000Y-124700000D03*
X151000000Y-125900000D03*
X151000000Y-125300000D03*
X151600000Y-125300000D03*
X152200000Y-125300000D03*
X152200000Y-125900000D03*
X152200000Y-124700000D03*
X151600000Y-122900000D03*
X152200000Y-124100000D03*
X152200000Y-122900000D03*
X151600000Y-124100000D03*
X151600000Y-123500000D03*
X152200000Y-123500000D03*
X152800000Y-123500000D03*
X152800000Y-124100000D03*
X152800000Y-122900000D03*
X152200000Y-126500000D03*
X152800000Y-127700000D03*
X152800000Y-126500000D03*
X152200000Y-127700000D03*
X152200000Y-127100000D03*
X152800000Y-127100000D03*
X153400000Y-127100000D03*
X153400000Y-127700000D03*
X153400000Y-126500000D03*
X152800000Y-124700000D03*
X153400000Y-125900000D03*
X153400000Y-124700000D03*
X152800000Y-125900000D03*
X152800000Y-125300000D03*
X153400000Y-125300000D03*
X154000000Y-125300000D03*
X154000000Y-125900000D03*
X154000000Y-124700000D03*
X151600000Y-121100000D03*
X152200000Y-121700000D03*
X152200000Y-122300000D03*
X152200000Y-121100000D03*
X151600000Y-122300000D03*
X152800000Y-122300000D03*
X152800000Y-121100000D03*
X151600000Y-121700000D03*
X152800000Y-121700000D03*
X153400000Y-122900000D03*
X154000000Y-124100000D03*
X153400000Y-124100000D03*
X153400000Y-123500000D03*
X153400000Y-121100000D03*
X153400000Y-122300000D03*
X153400000Y-121700000D03*
X154000000Y-126500000D03*
X154000000Y-127700000D03*
X154000000Y-127100000D03*
X151600000Y-126500000D03*
X152800000Y-128300000D03*
X153400000Y-128300000D03*
X154000000Y-128300000D03*
X152800000Y-128900000D03*
X153400000Y-128900000D03*
X154000000Y-128900000D03*
X154000000Y-129500000D03*
X153400000Y-129500000D03*
X154000000Y-130100000D03*
X153400000Y-130100000D03*
X154000000Y-130700000D03*
X154000000Y-131300000D03*
X144310000Y-124710000D03*
X144900000Y-125900000D03*
X144900000Y-125300000D03*
X145500000Y-124700000D03*
X144300000Y-125900000D03*
X144300000Y-125300000D03*
X145500000Y-125900000D03*
X146100000Y-124700000D03*
X144900000Y-124700000D03*
X146100000Y-125900000D03*
X145500000Y-125300000D03*
X146100000Y-125300000D03*
X146710000Y-124710000D03*
X147300000Y-125900000D03*
X147300000Y-125300000D03*
X147900000Y-124700000D03*
X146700000Y-125900000D03*
X146700000Y-125300000D03*
X147900000Y-125900000D03*
X148500000Y-124700000D03*
X147300000Y-124700000D03*
X148500000Y-125900000D03*
X147900000Y-125300000D03*
X148500000Y-125300000D03*
D15*
X132070000Y-126100000D03*
X143110000Y-126060000D03*
D14*
G04 #@! TO.N,/PH2*
X149600000Y-132000000D03*
X150200000Y-130800000D03*
X149600000Y-130800000D03*
X150200000Y-132000000D03*
X149600000Y-131400000D03*
X150200000Y-131400000D03*
X152600000Y-132000000D03*
X152600000Y-131400000D03*
X152000000Y-132000000D03*
X152000000Y-131400000D03*
X152600000Y-130800000D03*
X152000000Y-130800000D03*
X150800000Y-132000000D03*
X151400000Y-130800000D03*
X150800000Y-130800000D03*
X151400000Y-132000000D03*
X150800000Y-131400000D03*
X151400000Y-131400000D03*
X152000000Y-130200000D03*
X152000000Y-129600000D03*
X151400000Y-129000000D03*
X151400000Y-129600000D03*
X151400000Y-130200000D03*
X152600000Y-133200000D03*
X153200000Y-133200000D03*
X152600000Y-132600000D03*
X153200000Y-132600000D03*
X153200000Y-132000000D03*
X152000000Y-132600000D03*
X153800000Y-134400000D03*
X153200000Y-134400000D03*
X153800000Y-133800000D03*
X153200000Y-133800000D03*
X153800000Y-133200000D03*
X143600000Y-132000000D03*
X143600000Y-131400000D03*
X148400000Y-130800000D03*
X148400000Y-132000000D03*
X149000000Y-130800000D03*
X143600000Y-130800000D03*
X149000000Y-132000000D03*
X148400000Y-131400000D03*
X149000000Y-131400000D03*
X143100000Y-131400000D03*
X143100000Y-132000000D03*
D15*
X135548036Y-123532076D03*
D14*
X143110000Y-130810000D03*
G04 #@! TO.N,/PH3*
X149100000Y-137900000D03*
X150300000Y-137900000D03*
X149100000Y-138500000D03*
X148500000Y-137300000D03*
X149700000Y-138500000D03*
X149700000Y-137300000D03*
X150900000Y-137300000D03*
X151500000Y-138500000D03*
X149100000Y-136700000D03*
X149710000Y-136710000D03*
X151500000Y-137300000D03*
X148500000Y-138500000D03*
X149700000Y-137900000D03*
X148500000Y-137900000D03*
X150300000Y-138500000D03*
X151500000Y-137900000D03*
X150900000Y-136700000D03*
X150900000Y-137900000D03*
X151500000Y-136700000D03*
X150900000Y-138500000D03*
X149100000Y-137300000D03*
X150300000Y-136700000D03*
X148500000Y-136700000D03*
X150300000Y-137300000D03*
X152110000Y-136710000D03*
X153900000Y-137300000D03*
X152100000Y-138500000D03*
X153900000Y-137900000D03*
X153300000Y-136700000D03*
X153300000Y-138500000D03*
X153300000Y-137900000D03*
X153900000Y-136700000D03*
X153300000Y-137300000D03*
X152100000Y-137300000D03*
X152700000Y-138500000D03*
X152700000Y-136700000D03*
X152700000Y-137900000D03*
X152100000Y-137900000D03*
X152700000Y-137300000D03*
X153900000Y-138500000D03*
X153300000Y-136100000D03*
X151500000Y-136100000D03*
X151500000Y-135500000D03*
X152700000Y-135500000D03*
X152110000Y-135510000D03*
X152100000Y-136100000D03*
X152700000Y-136100000D03*
X151500000Y-134900000D03*
X152110000Y-134910000D03*
X151500000Y-134300000D03*
X143610000Y-136710000D03*
X144200000Y-137900000D03*
X144200000Y-137300000D03*
X144800000Y-136700000D03*
X143600000Y-137900000D03*
X143600000Y-137300000D03*
X144800000Y-137900000D03*
X145400000Y-136700000D03*
X144200000Y-136700000D03*
X145400000Y-137900000D03*
X144800000Y-137300000D03*
X145400000Y-137300000D03*
X143600000Y-138500000D03*
X145400000Y-138500000D03*
X144800000Y-138500000D03*
X144200000Y-138500000D03*
X146000000Y-137900000D03*
X147800000Y-137900000D03*
X147800000Y-138500000D03*
X147200000Y-137300000D03*
X147800000Y-136700000D03*
X146600000Y-136700000D03*
X146010000Y-136710000D03*
X147200000Y-138500000D03*
X146000000Y-137300000D03*
X147200000Y-137900000D03*
X146000000Y-138500000D03*
X146600000Y-138500000D03*
X146600000Y-137300000D03*
X147800000Y-137300000D03*
X147200000Y-136700000D03*
X146600000Y-137900000D03*
D15*
X135500000Y-121608700D03*
G04 #@! TO.N,SHIELD*
X104940000Y-106980000D03*
X105300000Y-106350000D03*
X105500000Y-105660000D03*
X104390000Y-107420000D03*
X103690000Y-107560000D03*
X102950000Y-107640000D03*
X102270000Y-107670000D03*
X106350000Y-106350000D03*
X106350000Y-105850000D03*
X106350000Y-105350000D03*
X106350000Y-104850000D03*
X106350000Y-104350000D03*
X106350000Y-103850000D03*
X106350000Y-103350000D03*
X106350000Y-102850000D03*
X106350000Y-102100000D03*
X106350000Y-101600000D03*
X106350000Y-101100000D03*
X105830000Y-100870000D03*
X105330000Y-100870000D03*
X104830000Y-100870000D03*
X104330000Y-100870000D03*
X103830000Y-100870000D03*
X103330000Y-100870000D03*
X102830000Y-100870000D03*
X102330000Y-100870000D03*
X101830000Y-100870000D03*
X101330000Y-100870000D03*
X100830000Y-100870000D03*
X100330000Y-100870000D03*
X99580000Y-100870000D03*
X99080000Y-100870000D03*
X98580000Y-100870000D03*
X98080000Y-100870000D03*
X97580000Y-100870000D03*
X97080000Y-100870000D03*
X96580000Y-100870000D03*
X96080000Y-100870000D03*
X95580000Y-100870000D03*
X95080000Y-100870000D03*
X94580000Y-100870000D03*
X94080000Y-100870000D03*
X93850000Y-101350000D03*
X93850000Y-101850000D03*
X93850000Y-102350000D03*
X93850000Y-102850000D03*
X93850000Y-103350000D03*
X93850000Y-103850000D03*
X93850000Y-104350000D03*
X93850000Y-104850000D03*
X93850000Y-105350000D03*
X93850000Y-105850000D03*
X93850000Y-106350000D03*
X93850000Y-106850000D03*
X93850000Y-107350000D03*
X93850000Y-107850000D03*
X93850000Y-108350000D03*
X93850000Y-108850000D03*
X93850000Y-109350000D03*
X93850000Y-109850000D03*
X93850000Y-110350000D03*
X93850000Y-110850000D03*
X93850000Y-111350000D03*
X93850000Y-111850000D03*
X93850000Y-112350000D03*
X93850000Y-112850000D03*
X93850000Y-113600000D03*
X93850000Y-114100000D03*
X94370000Y-114330000D03*
X94870000Y-114330000D03*
X95370000Y-114330000D03*
X95870000Y-114330000D03*
X96370000Y-114330000D03*
X96870000Y-114330000D03*
X97370000Y-114330000D03*
X97870000Y-114330000D03*
X98370000Y-114330000D03*
X98870000Y-114330000D03*
X99370000Y-114330000D03*
X99870000Y-114330000D03*
X100370000Y-114330000D03*
X100870000Y-114330000D03*
X101370000Y-114330000D03*
X101870000Y-114330000D03*
X102370000Y-114330000D03*
X102870000Y-114330000D03*
X103370000Y-114330000D03*
X103870000Y-114330000D03*
X104370000Y-114330000D03*
X104870000Y-114330000D03*
X105370000Y-114330000D03*
X105870000Y-114330000D03*
X106350000Y-114330000D03*
X106350000Y-113850000D03*
X106350000Y-113350000D03*
X106350000Y-112850000D03*
X106300000Y-112400000D03*
X106300000Y-111900000D03*
X106300000Y-111400000D03*
G04 #@! TO.N,Net-(R13-Pad1)*
X145785000Y-112600000D03*
X142817600Y-112590000D03*
G04 #@! TO.N,Net-(R13-Pad2)*
X142762409Y-113295191D03*
X146915000Y-113600000D03*
G04 #@! TO.N,Net-(R10-Pad2)*
X105820000Y-121420000D03*
X107910000Y-121529400D03*
G04 #@! TO.N,Net-(R11-Pad2)*
X146915000Y-111500000D03*
X144500000Y-109300000D03*
G04 #@! TO.N,/NEOPXL*
X109370000Y-125170000D03*
X130560000Y-111470000D03*
G04 #@! TO.N,/Encoder1_A*
X115450000Y-121670000D03*
X138270000Y-115830000D03*
G04 #@! TO.N,/Encoder1_B*
X110245000Y-120325000D03*
X137660000Y-115820000D03*
G04 #@! TO.N,Net-(DRV8323H1-Pad26)*
X123200000Y-120750000D03*
X131103901Y-118710475D03*
G04 #@! TO.N,/term_te*
X101500000Y-111900000D03*
X109900000Y-113900000D03*
G04 #@! TO.N,/SDA*
X114110000Y-112540000D03*
X126300000Y-113500000D03*
G04 #@! TO.N,/SCL*
X113250000Y-112100000D03*
X124840000Y-112340000D03*
D16*
G04 #@! TO.N,Net-(D1-Pad2)*
X100800000Y-133200000D03*
X101700000Y-133200000D03*
X102600000Y-133200000D03*
X103500000Y-133200000D03*
X100400000Y-130800000D03*
X101300000Y-130800000D03*
X102200000Y-130800000D03*
X103100000Y-130800000D03*
X100800000Y-131600000D03*
X101700000Y-131600000D03*
X102600000Y-131600000D03*
X103500000Y-131600000D03*
X100400000Y-132400000D03*
X101300000Y-132400000D03*
X102200000Y-132400000D03*
X103100000Y-132400000D03*
X100400000Y-134000000D03*
X101300000Y-134000000D03*
X102200000Y-134000000D03*
X103100000Y-134000000D03*
D15*
G04 #@! TO.N,/DE*
X131450000Y-108470000D03*
X98330000Y-112240000D03*
G04 #@! TO.N,Net-(R34-Pad2)*
X104690000Y-119340000D03*
X107830000Y-119540000D03*
G04 #@! TO.N,/INLC*
X128160000Y-112670000D03*
X126743959Y-113953959D03*
G04 #@! TO.N,/INLB*
X128560000Y-112670000D03*
X127458552Y-114268552D03*
G04 #@! TO.N,/INLA*
X128960000Y-112670000D03*
X128260000Y-114540000D03*
G04 #@! TO.N,+1V2*
X130560000Y-111070000D03*
X129760000Y-111870000D03*
X126900000Y-105600000D03*
X131000000Y-104800000D03*
X125400000Y-110000000D03*
X132300000Y-110400000D03*
G04 #@! TO.N,USB_PU*
X118880000Y-108800000D03*
X130170000Y-114630000D03*
G04 #@! TO.N,USB_P*
X120070000Y-109170000D03*
X129760000Y-112670000D03*
G04 #@! TO.N,USB_N*
X120670000Y-108810000D03*
X129760000Y-114310000D03*
G04 #@! TO.N,82*
X118650000Y-115810000D03*
X129760000Y-110270000D03*
G04 #@! TO.N,109*
X127300000Y-109000000D03*
X116400000Y-108930000D03*
G04 #@! TO.N,CRESET_B*
X128960000Y-110270000D03*
X127810000Y-105680000D03*
G04 #@! TO.N,/RX*
X97770000Y-112270000D03*
X130560000Y-110270000D03*
G04 #@! TO.N,/TX*
X130940000Y-108880000D03*
X99220000Y-112444400D03*
G04 #@! TO.N,/CS_MISO*
X113400000Y-125500000D03*
X124330000Y-112080000D03*
G04 #@! TO.N,/CS_CLK*
X112600000Y-125500000D03*
X123560000Y-112060000D03*
G04 #@! TO.N,/CS*
X111800000Y-125500000D03*
X128160000Y-111870000D03*
G04 #@! TO.N,/iCE40LP/SCK*
X120530000Y-110710000D03*
X117950000Y-110400000D03*
X128160000Y-110670000D03*
X126810000Y-109340000D03*
G04 #@! TO.N,/iCE40LP/SDO*
X128960000Y-110670000D03*
X129360000Y-110270000D03*
X123230000Y-110940000D03*
G04 #@! TO.N,/iCE40LP/SDI*
X123000000Y-113001600D03*
X128560000Y-110270000D03*
G04 #@! TO.N,/iCE40LP/SS*
X128160000Y-111070000D03*
X125470000Y-108644400D03*
G04 #@! TO.N,/iCE40LP/CLK*
X130560000Y-112670000D03*
X131900000Y-112925599D03*
G04 #@! TO.N,/iCE40LP/LED*
X150300000Y-100800000D03*
X130160000Y-112670000D03*
G04 #@! TO.N,/nFault*
X130910000Y-113650000D03*
X130900000Y-117600000D03*
G04 #@! TD*
D17*
G04 #@! TO.N,+36V*
X141000000Y-111780000D02*
X141300000Y-111480000D01*
X141000000Y-120600000D02*
X141000000Y-111780000D01*
X141300000Y-102400000D02*
X141300000Y-111480000D01*
D18*
G04 #@! TO.N,Net-(C5-Pad2)*
X118450000Y-123900000D02*
X118050000Y-124300000D01*
X123600000Y-123900000D02*
X118450000Y-123900000D01*
X118050000Y-124300000D02*
X117700000Y-124650000D01*
X124192000Y-123308000D02*
X123600000Y-123900000D01*
X126400000Y-121100000D02*
X124192000Y-123308000D01*
X127748000Y-121100000D02*
X126400000Y-121100000D01*
X127762842Y-121100000D02*
X127748000Y-121100000D01*
X127748000Y-121002000D02*
X127748000Y-121100000D01*
X130050000Y-118700000D02*
X127748000Y-121002000D01*
G04 #@! TO.N,+3V3*
X157350000Y-121390000D02*
X157350000Y-128139200D01*
X157350000Y-128139200D02*
X156000000Y-129489200D01*
X156580000Y-120620000D02*
X157350000Y-121390000D01*
X155300000Y-120620000D02*
X156580000Y-120620000D01*
X150110013Y-119267519D02*
X153947519Y-119267519D01*
X153947519Y-119267519D02*
X155300000Y-120620000D01*
G04 #@! TO.N,Net-(DRV8323H1-Pad27)*
X126902400Y-125850000D02*
X126000000Y-125850000D01*
X130577003Y-118700000D02*
X130577003Y-122175397D01*
X130577003Y-122175397D02*
X126902400Y-125850000D01*
G04 #@! TO.N,/mosfet_bridges/GHA*
X141691301Y-125608699D02*
X143300000Y-124000000D01*
X131908175Y-125608699D02*
X141691301Y-125608699D01*
X131550000Y-126710000D02*
X131550000Y-125966874D01*
X131550000Y-125966874D02*
X131908175Y-125608699D01*
G04 #@! TO.N,/mosfet_bridges/GLA*
X133060000Y-126250000D02*
X142000000Y-126250000D01*
X144450000Y-123800000D02*
X146300000Y-123800000D01*
X142000000Y-126250000D02*
X144450000Y-123800000D01*
G04 #@! TO.N,/mosfet_bridges/GHB*
X142200000Y-129190000D02*
X142200000Y-129300000D01*
G04 #@! TO.N,/PH1*
X132070000Y-126100000D02*
X132070000Y-126382842D01*
X132070000Y-126382842D02*
X132540359Y-126853201D01*
X142316799Y-126853201D02*
X143110000Y-126060000D01*
X141976799Y-126853201D02*
X142316799Y-126853201D01*
X132540359Y-126853201D02*
X141976799Y-126853201D01*
G04 #@! TO.N,/NEOPXL*
X109890000Y-125170000D02*
X109370000Y-125170000D01*
X111230000Y-123840000D02*
X109890000Y-125170000D01*
X111230000Y-119840000D02*
X111230000Y-123840000D01*
X113620000Y-117450000D02*
X111230000Y-119840000D01*
X113630000Y-117440000D02*
X113620000Y-117450000D01*
X130560000Y-111611421D02*
X130560000Y-111470000D01*
X129901421Y-112270000D02*
X130560000Y-111611421D01*
X129650000Y-112270000D02*
X129901421Y-112270000D01*
X128090000Y-111470000D02*
X128850000Y-111470000D01*
X128850000Y-111470000D02*
X129650000Y-112270000D01*
X128011201Y-111548799D02*
X128090000Y-111470000D01*
X128005823Y-111548799D02*
X128011201Y-111548799D01*
X115720000Y-115350000D02*
X119000000Y-115350000D01*
X119560000Y-115910000D02*
X126300000Y-115910000D01*
X113620000Y-117450000D02*
X115720000Y-115350000D01*
X119000000Y-115350000D02*
X119560000Y-115910000D01*
X127310000Y-113926926D02*
X127310000Y-112250000D01*
X126710000Y-114526926D02*
X127310000Y-113926926D01*
X126710000Y-115500000D02*
X126710000Y-114526926D01*
X126300000Y-115910000D02*
X126710000Y-115500000D01*
X127310000Y-112250000D02*
X128005823Y-111548799D01*
G04 #@! TO.N,Net-(DRV8323H1-Pad26)*
X124430000Y-120422400D02*
X124102400Y-120750000D01*
X124857600Y-120422400D02*
X124430000Y-120422400D01*
X131103901Y-118710475D02*
X131103901Y-118427633D01*
X131103901Y-118427633D02*
X130866268Y-118190000D01*
X130866268Y-118190000D02*
X128530000Y-118190000D01*
X128530000Y-118190000D02*
X128385601Y-118334399D01*
X128385601Y-118334399D02*
X126945601Y-118334399D01*
X124102400Y-120750000D02*
X123200000Y-120750000D01*
X126945601Y-118334399D02*
X124857600Y-120422400D01*
G04 #@! TO.N,/SDA*
X114110000Y-113010000D02*
X114110000Y-112540000D01*
X126300000Y-113500000D02*
X114600000Y-113500000D01*
X114600000Y-113500000D02*
X114110000Y-113010000D01*
G04 #@! TO.N,/SCL*
X124480000Y-112700000D02*
X124840000Y-112340000D01*
X123490000Y-112700000D02*
X124480000Y-112700000D01*
X122866815Y-112076815D02*
X123490000Y-112700000D01*
X113226815Y-112076815D02*
X113250000Y-112100000D01*
X113226815Y-112076815D02*
X122866815Y-112076815D01*
G04 #@! TO.N,82*
X129760000Y-110520000D02*
X129760000Y-110270000D01*
X129920000Y-110680000D02*
X129760000Y-110520000D01*
X119120000Y-116280000D02*
X129705378Y-116280000D01*
X118650000Y-115810000D02*
X119120000Y-116280000D01*
X129705378Y-116280000D02*
X132300000Y-113685378D01*
X132300000Y-113685378D02*
X132300000Y-112020000D01*
X132300000Y-112020000D02*
X130960000Y-110680000D01*
X130960000Y-110680000D02*
X129920000Y-110680000D01*
G04 #@! TO.N,109*
X116831601Y-108498399D02*
X116400000Y-108930000D01*
X126798399Y-108498399D02*
X126880000Y-108580000D01*
X126880000Y-108580000D02*
X127300000Y-109000000D01*
X126440000Y-108140000D02*
X126700000Y-108400000D01*
X126700000Y-108400000D02*
X126880000Y-108580000D01*
X117190000Y-108140000D02*
X126440000Y-108140000D01*
X116400000Y-108930000D02*
X117190000Y-108140000D01*
G04 #@! TO.N,CRESET_B*
X128878831Y-106748831D02*
X127810000Y-105680000D01*
X128960000Y-110270000D02*
X128960000Y-106830000D01*
X128960000Y-106830000D02*
X128878831Y-106748831D01*
G04 #@! TO.N,/iCE40LP/SCK*
X118232842Y-110400000D02*
X117950000Y-110400000D01*
X119937158Y-110400000D02*
X119714330Y-110400000D01*
X120247158Y-110710000D02*
X119937158Y-110400000D01*
X120530000Y-110710000D02*
X120247158Y-110710000D01*
X119714330Y-110400000D02*
X118232842Y-110400000D01*
X121454063Y-109179299D02*
X126435954Y-109179299D01*
X120233362Y-110400000D02*
X121454063Y-109179299D01*
X119714330Y-110400000D02*
X120233362Y-110400000D01*
X126435954Y-109179299D02*
X126649299Y-109179299D01*
X126649299Y-109179299D02*
X126810000Y-109340000D01*
G04 #@! TO.N,/iCE40LP/SDI*
X123038400Y-113040000D02*
X123000000Y-113001600D01*
X123282842Y-113001600D02*
X123000000Y-113001600D01*
X123286052Y-113004810D02*
X123282842Y-113001600D01*
X124684978Y-113000000D02*
X124640000Y-113000000D01*
X124640000Y-113000000D02*
X123286052Y-113004810D01*
X128560000Y-110270000D02*
X128560000Y-110165022D01*
X128560000Y-110165022D02*
X128014978Y-109620000D01*
X127390000Y-109620000D02*
X127010000Y-110000000D01*
X128014978Y-109620000D02*
X127390000Y-109620000D01*
X127010000Y-110000000D02*
X127010000Y-110674978D01*
X127010000Y-110674978D02*
X124684978Y-113000000D01*
G04 #@! TO.N,/iCE40LP/CLK*
X131900000Y-112925599D02*
X130977936Y-112925599D01*
X130815599Y-112925599D02*
X131900000Y-112925599D01*
X130560000Y-112670000D02*
X130815599Y-112925599D01*
G04 #@! TD*
D19*
G04 #@! TO.N,+36V*
G36*
X141329175Y-125253099D02*
X137561235Y-125253099D01*
X137668266Y-125146068D01*
X137734400Y-124986407D01*
X137734400Y-124813593D01*
X137668266Y-124653932D01*
X137546068Y-124531734D01*
X137386407Y-124465600D01*
X137213593Y-124465600D01*
X137053932Y-124531734D01*
X136931734Y-124653932D01*
X136865600Y-124813593D01*
X136865600Y-124986407D01*
X136931734Y-125146068D01*
X137038765Y-125253099D01*
X134732000Y-125253099D01*
X134732000Y-125081469D01*
X134666232Y-124922691D01*
X134544708Y-124801167D01*
X134385930Y-124735399D01*
X134214070Y-124735399D01*
X134055292Y-124801167D01*
X133933768Y-124922691D01*
X133868000Y-125081469D01*
X133868000Y-125253099D01*
X131943195Y-125253099D01*
X131908175Y-125246133D01*
X131873155Y-125253099D01*
X131769427Y-125273732D01*
X131651802Y-125352326D01*
X131631965Y-125382014D01*
X131323315Y-125690665D01*
X131293628Y-125710501D01*
X131273792Y-125740188D01*
X131273790Y-125740190D01*
X131215033Y-125828127D01*
X131187434Y-125966874D01*
X131194401Y-126001898D01*
X131194400Y-126451266D01*
X131181734Y-126463932D01*
X131115600Y-126623593D01*
X131115600Y-126796407D01*
X131181734Y-126956068D01*
X131303932Y-127078266D01*
X131463593Y-127144400D01*
X131636407Y-127144400D01*
X131796068Y-127078266D01*
X131918266Y-126956068D01*
X131984302Y-126796643D01*
X132266010Y-127078352D01*
X132285716Y-127107844D01*
X132402547Y-127185908D01*
X132540358Y-127213320D01*
X132575143Y-127206401D01*
X141350066Y-127206401D01*
X141471634Y-138573000D01*
X137427000Y-138573000D01*
X137427000Y-130800000D01*
X137417333Y-130751399D01*
X137389803Y-130710197D01*
X137348601Y-130682667D01*
X137300000Y-130673000D01*
X123400000Y-130673000D01*
X123351399Y-130682667D01*
X123317165Y-130703733D01*
X119052882Y-134373000D01*
X112927000Y-134373000D01*
X112927000Y-130345028D01*
X117953009Y-128274070D01*
X132468000Y-128274070D01*
X132468000Y-128445930D01*
X132533768Y-128604708D01*
X132655292Y-128726232D01*
X132814070Y-128792000D01*
X132985930Y-128792000D01*
X133144708Y-128726232D01*
X133266232Y-128604708D01*
X133332000Y-128445930D01*
X133332000Y-128274070D01*
X133266232Y-128115292D01*
X133144708Y-127993768D01*
X132985930Y-127928000D01*
X132814070Y-127928000D01*
X132655292Y-127993768D01*
X132533768Y-128115292D01*
X132468000Y-128274070D01*
X117953009Y-128274070D01*
X128201844Y-124051056D01*
X126756101Y-125496800D01*
X126257740Y-125496800D01*
X126244708Y-125483768D01*
X126085930Y-125418000D01*
X125914070Y-125418000D01*
X125755292Y-125483768D01*
X125633768Y-125605292D01*
X125568000Y-125764070D01*
X125568000Y-125935930D01*
X125633768Y-126094708D01*
X125755292Y-126216232D01*
X125914070Y-126282000D01*
X126085930Y-126282000D01*
X126244708Y-126216232D01*
X126257740Y-126203200D01*
X126867615Y-126203200D01*
X126902400Y-126210119D01*
X126937185Y-126203200D01*
X127040212Y-126182707D01*
X127157043Y-126104643D01*
X127176751Y-126075148D01*
X127858000Y-125393899D01*
X127858000Y-125435930D01*
X127923768Y-125594708D01*
X128045292Y-125716232D01*
X128204070Y-125782000D01*
X128375930Y-125782000D01*
X128534708Y-125716232D01*
X128656232Y-125594708D01*
X128722000Y-125435930D01*
X128722000Y-125264070D01*
X128656232Y-125105292D01*
X128534708Y-124983768D01*
X128375930Y-124918000D01*
X128333899Y-124918000D01*
X129238306Y-124013593D01*
X137565600Y-124013593D01*
X137565600Y-124186407D01*
X137631734Y-124346068D01*
X137753932Y-124468266D01*
X137913593Y-124534400D01*
X138086407Y-124534400D01*
X138246068Y-124468266D01*
X138368266Y-124346068D01*
X138434400Y-124186407D01*
X138434400Y-124013593D01*
X138368266Y-123853932D01*
X138246068Y-123731734D01*
X138086407Y-123665600D01*
X137913593Y-123665600D01*
X137753932Y-123731734D01*
X137631734Y-123853932D01*
X137565600Y-124013593D01*
X129238306Y-124013593D01*
X129805753Y-123446146D01*
X135116036Y-123446146D01*
X135116036Y-123618006D01*
X135181804Y-123776784D01*
X135303328Y-123898308D01*
X135462106Y-123964076D01*
X135633966Y-123964076D01*
X135792744Y-123898308D01*
X135914268Y-123776784D01*
X135980036Y-123618006D01*
X135980036Y-123446146D01*
X135914268Y-123287368D01*
X135792744Y-123165844D01*
X135633966Y-123100076D01*
X135462106Y-123100076D01*
X135303328Y-123165844D01*
X135181804Y-123287368D01*
X135116036Y-123446146D01*
X129805753Y-123446146D01*
X129900962Y-123350938D01*
X132855336Y-122133593D01*
X135745600Y-122133593D01*
X135745600Y-122306407D01*
X135811734Y-122466068D01*
X135933932Y-122588266D01*
X136093593Y-122654400D01*
X136266407Y-122654400D01*
X136426068Y-122588266D01*
X136548266Y-122466068D01*
X136614400Y-122306407D01*
X136614400Y-122133593D01*
X136548266Y-121973932D01*
X136426068Y-121851734D01*
X136266407Y-121785600D01*
X136093593Y-121785600D01*
X135933932Y-121851734D01*
X135811734Y-121973932D01*
X135745600Y-122133593D01*
X132855336Y-122133593D01*
X134337743Y-121522770D01*
X135068000Y-121522770D01*
X135068000Y-121694630D01*
X135133768Y-121853408D01*
X135255292Y-121974932D01*
X135414070Y-122040700D01*
X135585930Y-122040700D01*
X135744708Y-121974932D01*
X135866232Y-121853408D01*
X135932000Y-121694630D01*
X135932000Y-121522770D01*
X135866232Y-121363992D01*
X135744708Y-121242468D01*
X135674998Y-121213593D01*
X136465600Y-121213593D01*
X136465600Y-121386407D01*
X136531734Y-121546068D01*
X136653932Y-121668266D01*
X136813593Y-121734400D01*
X136986407Y-121734400D01*
X137146068Y-121668266D01*
X137268266Y-121546068D01*
X137334400Y-121386407D01*
X137334400Y-121213593D01*
X137268266Y-121053932D01*
X137146068Y-120931734D01*
X136986407Y-120865600D01*
X136813593Y-120865600D01*
X136653932Y-120931734D01*
X136531734Y-121053932D01*
X136465600Y-121213593D01*
X135674998Y-121213593D01*
X135585930Y-121176700D01*
X135414070Y-121176700D01*
X135255292Y-121242468D01*
X135133768Y-121363992D01*
X135068000Y-121522770D01*
X134337743Y-121522770D01*
X137725139Y-120127000D01*
X141274351Y-120127000D01*
X141329175Y-125253099D01*
X141329175Y-125253099D01*
G37*
X141329175Y-125253099D02*
X137561235Y-125253099D01*
X137668266Y-125146068D01*
X137734400Y-124986407D01*
X137734400Y-124813593D01*
X137668266Y-124653932D01*
X137546068Y-124531734D01*
X137386407Y-124465600D01*
X137213593Y-124465600D01*
X137053932Y-124531734D01*
X136931734Y-124653932D01*
X136865600Y-124813593D01*
X136865600Y-124986407D01*
X136931734Y-125146068D01*
X137038765Y-125253099D01*
X134732000Y-125253099D01*
X134732000Y-125081469D01*
X134666232Y-124922691D01*
X134544708Y-124801167D01*
X134385930Y-124735399D01*
X134214070Y-124735399D01*
X134055292Y-124801167D01*
X133933768Y-124922691D01*
X133868000Y-125081469D01*
X133868000Y-125253099D01*
X131943195Y-125253099D01*
X131908175Y-125246133D01*
X131873155Y-125253099D01*
X131769427Y-125273732D01*
X131651802Y-125352326D01*
X131631965Y-125382014D01*
X131323315Y-125690665D01*
X131293628Y-125710501D01*
X131273792Y-125740188D01*
X131273790Y-125740190D01*
X131215033Y-125828127D01*
X131187434Y-125966874D01*
X131194401Y-126001898D01*
X131194400Y-126451266D01*
X131181734Y-126463932D01*
X131115600Y-126623593D01*
X131115600Y-126796407D01*
X131181734Y-126956068D01*
X131303932Y-127078266D01*
X131463593Y-127144400D01*
X131636407Y-127144400D01*
X131796068Y-127078266D01*
X131918266Y-126956068D01*
X131984302Y-126796643D01*
X132266010Y-127078352D01*
X132285716Y-127107844D01*
X132402547Y-127185908D01*
X132540358Y-127213320D01*
X132575143Y-127206401D01*
X141350066Y-127206401D01*
X141471634Y-138573000D01*
X137427000Y-138573000D01*
X137427000Y-130800000D01*
X137417333Y-130751399D01*
X137389803Y-130710197D01*
X137348601Y-130682667D01*
X137300000Y-130673000D01*
X123400000Y-130673000D01*
X123351399Y-130682667D01*
X123317165Y-130703733D01*
X119052882Y-134373000D01*
X112927000Y-134373000D01*
X112927000Y-130345028D01*
X117953009Y-128274070D01*
X132468000Y-128274070D01*
X132468000Y-128445930D01*
X132533768Y-128604708D01*
X132655292Y-128726232D01*
X132814070Y-128792000D01*
X132985930Y-128792000D01*
X133144708Y-128726232D01*
X133266232Y-128604708D01*
X133332000Y-128445930D01*
X133332000Y-128274070D01*
X133266232Y-128115292D01*
X133144708Y-127993768D01*
X132985930Y-127928000D01*
X132814070Y-127928000D01*
X132655292Y-127993768D01*
X132533768Y-128115292D01*
X132468000Y-128274070D01*
X117953009Y-128274070D01*
X128201844Y-124051056D01*
X126756101Y-125496800D01*
X126257740Y-125496800D01*
X126244708Y-125483768D01*
X126085930Y-125418000D01*
X125914070Y-125418000D01*
X125755292Y-125483768D01*
X125633768Y-125605292D01*
X125568000Y-125764070D01*
X125568000Y-125935930D01*
X125633768Y-126094708D01*
X125755292Y-126216232D01*
X125914070Y-126282000D01*
X126085930Y-126282000D01*
X126244708Y-126216232D01*
X126257740Y-126203200D01*
X126867615Y-126203200D01*
X126902400Y-126210119D01*
X126937185Y-126203200D01*
X127040212Y-126182707D01*
X127157043Y-126104643D01*
X127176751Y-126075148D01*
X127858000Y-125393899D01*
X127858000Y-125435930D01*
X127923768Y-125594708D01*
X128045292Y-125716232D01*
X128204070Y-125782000D01*
X128375930Y-125782000D01*
X128534708Y-125716232D01*
X128656232Y-125594708D01*
X128722000Y-125435930D01*
X128722000Y-125264070D01*
X128656232Y-125105292D01*
X128534708Y-124983768D01*
X128375930Y-124918000D01*
X128333899Y-124918000D01*
X129238306Y-124013593D01*
X137565600Y-124013593D01*
X137565600Y-124186407D01*
X137631734Y-124346068D01*
X137753932Y-124468266D01*
X137913593Y-124534400D01*
X138086407Y-124534400D01*
X138246068Y-124468266D01*
X138368266Y-124346068D01*
X138434400Y-124186407D01*
X138434400Y-124013593D01*
X138368266Y-123853932D01*
X138246068Y-123731734D01*
X138086407Y-123665600D01*
X137913593Y-123665600D01*
X137753932Y-123731734D01*
X137631734Y-123853932D01*
X137565600Y-124013593D01*
X129238306Y-124013593D01*
X129805753Y-123446146D01*
X135116036Y-123446146D01*
X135116036Y-123618006D01*
X135181804Y-123776784D01*
X135303328Y-123898308D01*
X135462106Y-123964076D01*
X135633966Y-123964076D01*
X135792744Y-123898308D01*
X135914268Y-123776784D01*
X135980036Y-123618006D01*
X135980036Y-123446146D01*
X135914268Y-123287368D01*
X135792744Y-123165844D01*
X135633966Y-123100076D01*
X135462106Y-123100076D01*
X135303328Y-123165844D01*
X135181804Y-123287368D01*
X135116036Y-123446146D01*
X129805753Y-123446146D01*
X129900962Y-123350938D01*
X132855336Y-122133593D01*
X135745600Y-122133593D01*
X135745600Y-122306407D01*
X135811734Y-122466068D01*
X135933932Y-122588266D01*
X136093593Y-122654400D01*
X136266407Y-122654400D01*
X136426068Y-122588266D01*
X136548266Y-122466068D01*
X136614400Y-122306407D01*
X136614400Y-122133593D01*
X136548266Y-121973932D01*
X136426068Y-121851734D01*
X136266407Y-121785600D01*
X136093593Y-121785600D01*
X135933932Y-121851734D01*
X135811734Y-121973932D01*
X135745600Y-122133593D01*
X132855336Y-122133593D01*
X134337743Y-121522770D01*
X135068000Y-121522770D01*
X135068000Y-121694630D01*
X135133768Y-121853408D01*
X135255292Y-121974932D01*
X135414070Y-122040700D01*
X135585930Y-122040700D01*
X135744708Y-121974932D01*
X135866232Y-121853408D01*
X135932000Y-121694630D01*
X135932000Y-121522770D01*
X135866232Y-121363992D01*
X135744708Y-121242468D01*
X135674998Y-121213593D01*
X136465600Y-121213593D01*
X136465600Y-121386407D01*
X136531734Y-121546068D01*
X136653932Y-121668266D01*
X136813593Y-121734400D01*
X136986407Y-121734400D01*
X137146068Y-121668266D01*
X137268266Y-121546068D01*
X137334400Y-121386407D01*
X137334400Y-121213593D01*
X137268266Y-121053932D01*
X137146068Y-120931734D01*
X136986407Y-120865600D01*
X136813593Y-120865600D01*
X136653932Y-120931734D01*
X136531734Y-121053932D01*
X136465600Y-121213593D01*
X135674998Y-121213593D01*
X135585930Y-121176700D01*
X135414070Y-121176700D01*
X135255292Y-121242468D01*
X135133768Y-121363992D01*
X135068000Y-121522770D01*
X134337743Y-121522770D01*
X137725139Y-120127000D01*
X141274351Y-120127000D01*
X141329175Y-125253099D01*
G04 #@! TO.N,/PH1*
G36*
X154873000Y-120621790D02*
X154873000Y-130800000D01*
X154875440Y-130824776D01*
X154882667Y-130848601D01*
X154894403Y-130870557D01*
X154910197Y-130889803D01*
X154929443Y-130905597D01*
X154951399Y-130917333D01*
X154975224Y-130924560D01*
X155000000Y-130927000D01*
X157573000Y-130927000D01*
X157573000Y-133173000D01*
X154776073Y-133173000D01*
X151011971Y-126140072D01*
X150998128Y-126119379D01*
X150980514Y-126101784D01*
X150959806Y-126087963D01*
X150936800Y-126078449D01*
X150900000Y-126073000D01*
X142679893Y-126073000D01*
X144247121Y-124505774D01*
X148119796Y-124512000D01*
X148144576Y-124509599D01*
X148168412Y-124502411D01*
X148190388Y-124490710D01*
X148209658Y-124474947D01*
X148225483Y-124455727D01*
X148237254Y-124433789D01*
X148244520Y-124409977D01*
X148246999Y-124384419D01*
X148227580Y-120136528D01*
X150800200Y-120127000D01*
X154378211Y-120127000D01*
X154873000Y-120621790D01*
X154873000Y-120621790D01*
G37*
X154873000Y-120621790D02*
X154873000Y-130800000D01*
X154875440Y-130824776D01*
X154882667Y-130848601D01*
X154894403Y-130870557D01*
X154910197Y-130889803D01*
X154929443Y-130905597D01*
X154951399Y-130917333D01*
X154975224Y-130924560D01*
X155000000Y-130927000D01*
X157573000Y-130927000D01*
X157573000Y-133173000D01*
X154776073Y-133173000D01*
X151011971Y-126140072D01*
X150998128Y-126119379D01*
X150980514Y-126101784D01*
X150959806Y-126087963D01*
X150936800Y-126078449D01*
X150900000Y-126073000D01*
X142679893Y-126073000D01*
X144247121Y-124505774D01*
X148119796Y-124512000D01*
X148144576Y-124509599D01*
X148168412Y-124502411D01*
X148190388Y-124490710D01*
X148209658Y-124474947D01*
X148225483Y-124455727D01*
X148237254Y-124433789D01*
X148244520Y-124409977D01*
X148246999Y-124384419D01*
X148227580Y-120136528D01*
X150800200Y-120127000D01*
X154378211Y-120127000D01*
X154873000Y-120621790D01*
G04 #@! TO.N,/PH2*
G36*
X150723776Y-126526718D02*
X154488029Y-133559928D01*
X154501872Y-133580621D01*
X154519486Y-133598216D01*
X154540194Y-133612037D01*
X154563200Y-133621551D01*
X154600000Y-133627000D01*
X157573000Y-133627000D01*
X157573000Y-135673000D01*
X154253686Y-135673000D01*
X150891094Y-132211508D01*
X150872080Y-132195437D01*
X150850296Y-132183384D01*
X150826579Y-132175812D01*
X150800000Y-132173000D01*
X142026366Y-132173000D01*
X142017635Y-130426795D01*
X146185353Y-130420106D01*
X146257215Y-130434400D01*
X146342785Y-130434400D01*
X146416512Y-130419735D01*
X148120204Y-130417000D01*
X148144976Y-130414520D01*
X148168789Y-130407255D01*
X148190727Y-130395483D01*
X148209947Y-130379658D01*
X148225710Y-130360388D01*
X148237411Y-130338412D01*
X148244599Y-130314577D01*
X148246998Y-130289349D01*
X148227655Y-126517474D01*
X150723776Y-126526718D01*
X150723776Y-126526718D01*
G37*
X150723776Y-126526718D02*
X154488029Y-133559928D01*
X154501872Y-133580621D01*
X154519486Y-133598216D01*
X154540194Y-133612037D01*
X154563200Y-133621551D01*
X154600000Y-133627000D01*
X157573000Y-133627000D01*
X157573000Y-135673000D01*
X154253686Y-135673000D01*
X150891094Y-132211508D01*
X150872080Y-132195437D01*
X150850296Y-132183384D01*
X150826579Y-132175812D01*
X150800000Y-132173000D01*
X142026366Y-132173000D01*
X142017635Y-130426795D01*
X146185353Y-130420106D01*
X146257215Y-130434400D01*
X146342785Y-130434400D01*
X146416512Y-130419735D01*
X148120204Y-130417000D01*
X148144976Y-130414520D01*
X148168789Y-130407255D01*
X148190727Y-130395483D01*
X148209947Y-130379658D01*
X148225710Y-130360388D01*
X148237411Y-130338412D01*
X148244599Y-130314577D01*
X148246998Y-130289349D01*
X148227655Y-126517474D01*
X150723776Y-126526718D01*
G04 #@! TO.N,/PH3*
G36*
X154008906Y-136088492D02*
X154027920Y-136104563D01*
X154049704Y-136116616D01*
X154073421Y-136124188D01*
X154100000Y-136127000D01*
X157573000Y-136127000D01*
X157573000Y-138573000D01*
X142046493Y-138573000D01*
X142037509Y-136327000D01*
X143252478Y-136327000D01*
X143289039Y-136351429D01*
X143368095Y-136384175D01*
X143452020Y-136400869D01*
X143537590Y-136400869D01*
X143621515Y-136384175D01*
X143700571Y-136351429D01*
X143737132Y-136327000D01*
X148110000Y-136327000D01*
X148134776Y-136324560D01*
X148158601Y-136317333D01*
X148180557Y-136305597D01*
X148199803Y-136289803D01*
X148215597Y-136270557D01*
X148227333Y-136248601D01*
X148234560Y-136224776D01*
X148237000Y-136199657D01*
X148227344Y-132627000D01*
X150646314Y-132627000D01*
X154008906Y-136088492D01*
X154008906Y-136088492D01*
G37*
X154008906Y-136088492D02*
X154027920Y-136104563D01*
X154049704Y-136116616D01*
X154073421Y-136124188D01*
X154100000Y-136127000D01*
X157573000Y-136127000D01*
X157573000Y-138573000D01*
X142046493Y-138573000D01*
X142037509Y-136327000D01*
X143252478Y-136327000D01*
X143289039Y-136351429D01*
X143368095Y-136384175D01*
X143452020Y-136400869D01*
X143537590Y-136400869D01*
X143621515Y-136384175D01*
X143700571Y-136351429D01*
X143737132Y-136327000D01*
X148110000Y-136327000D01*
X148134776Y-136324560D01*
X148158601Y-136317333D01*
X148180557Y-136305597D01*
X148199803Y-136289803D01*
X148215597Y-136270557D01*
X148227333Y-136248601D01*
X148234560Y-136224776D01*
X148237000Y-136199657D01*
X148227344Y-132627000D01*
X150646314Y-132627000D01*
X154008906Y-136088492D01*
G04 #@! TD*
M02*
