G04 #@! TF.GenerationSoftware,KiCad,Pcbnew,5.0.2-bee76a0~70~ubuntu18.04.1*
G04 #@! TF.CreationDate,2020-05-08T14:17:04+02:00*
G04 #@! TF.ProjectId,board,626f6172-642e-46b6-9963-61645f706362,rev?*
G04 #@! TF.SameCoordinates,Original*
G04 #@! TF.FileFunction,Legend,Top*
G04 #@! TF.FilePolarity,Positive*
%FSLAX46Y46*%
G04 Gerber Fmt 4.6, Leading zero omitted, Abs format (unit mm)*
G04 Created by KiCad (PCBNEW 5.0.2-bee76a0~70~ubuntu18.04.1) date Fr 08 Mai 2020 14:17:04 CEST*
%MOMM*%
%LPD*%
G01*
G04 APERTURE LIST*
%ADD10C,0.100000*%
%ADD11C,0.120000*%
%ADD12C,0.300000*%
%ADD13C,0.150000*%
%ADD14C,0.152400*%
%ADD15C,0.127000*%
%ADD16C,0.010000*%
%ADD17C,0.060000*%
%ADD18C,0.125000*%
%ADD19C,0.096520*%
G04 APERTURE END LIST*
D10*
X123130000Y-114044761D02*
X123110952Y-114082857D01*
X123110952Y-114140000D01*
X123130000Y-114197142D01*
X123168095Y-114235238D01*
X123206190Y-114254285D01*
X123282380Y-114273333D01*
X123339523Y-114273333D01*
X123415714Y-114254285D01*
X123453809Y-114235238D01*
X123491904Y-114197142D01*
X123510952Y-114140000D01*
X123510952Y-114101904D01*
X123491904Y-114044761D01*
X123472857Y-114025714D01*
X123339523Y-114025714D01*
X123339523Y-114101904D01*
X123510952Y-113854285D02*
X123110952Y-113854285D01*
X123510952Y-113625714D01*
X123110952Y-113625714D01*
X123510952Y-113435238D02*
X123110952Y-113435238D01*
X123110952Y-113340000D01*
X123130000Y-113282857D01*
X123168095Y-113244761D01*
X123206190Y-113225714D01*
X123282380Y-113206666D01*
X123339523Y-113206666D01*
X123415714Y-113225714D01*
X123453809Y-113244761D01*
X123491904Y-113282857D01*
X123510952Y-113340000D01*
X123510952Y-113435238D01*
X120140000Y-114004761D02*
X120120952Y-114042857D01*
X120120952Y-114100000D01*
X120140000Y-114157142D01*
X120178095Y-114195238D01*
X120216190Y-114214285D01*
X120292380Y-114233333D01*
X120349523Y-114233333D01*
X120425714Y-114214285D01*
X120463809Y-114195238D01*
X120501904Y-114157142D01*
X120520952Y-114100000D01*
X120520952Y-114061904D01*
X120501904Y-114004761D01*
X120482857Y-113985714D01*
X120349523Y-113985714D01*
X120349523Y-114061904D01*
X120520952Y-113814285D02*
X120120952Y-113814285D01*
X120520952Y-113585714D01*
X120120952Y-113585714D01*
X120520952Y-113395238D02*
X120120952Y-113395238D01*
X120120952Y-113300000D01*
X120140000Y-113242857D01*
X120178095Y-113204761D01*
X120216190Y-113185714D01*
X120292380Y-113166666D01*
X120349523Y-113166666D01*
X120425714Y-113185714D01*
X120463809Y-113204761D01*
X120501904Y-113242857D01*
X120520952Y-113300000D01*
X120520952Y-113395238D01*
X123471904Y-112849523D02*
X123490952Y-112792380D01*
X123490952Y-112697142D01*
X123471904Y-112659047D01*
X123452857Y-112640000D01*
X123414761Y-112620952D01*
X123376666Y-112620952D01*
X123338571Y-112640000D01*
X123319523Y-112659047D01*
X123300476Y-112697142D01*
X123281428Y-112773333D01*
X123262380Y-112811428D01*
X123243333Y-112830476D01*
X123205238Y-112849523D01*
X123167142Y-112849523D01*
X123129047Y-112830476D01*
X123110000Y-112811428D01*
X123090952Y-112773333D01*
X123090952Y-112678095D01*
X123110000Y-112620952D01*
X123490952Y-112449523D02*
X123090952Y-112449523D01*
X123090952Y-112354285D01*
X123110000Y-112297142D01*
X123148095Y-112259047D01*
X123186190Y-112240000D01*
X123262380Y-112220952D01*
X123319523Y-112220952D01*
X123395714Y-112240000D01*
X123433809Y-112259047D01*
X123471904Y-112297142D01*
X123490952Y-112354285D01*
X123490952Y-112449523D01*
X123490952Y-112049523D02*
X123090952Y-112049523D01*
X123481904Y-111693809D02*
X123500952Y-111636666D01*
X123500952Y-111541428D01*
X123481904Y-111503333D01*
X123462857Y-111484285D01*
X123424761Y-111465238D01*
X123386666Y-111465238D01*
X123348571Y-111484285D01*
X123329523Y-111503333D01*
X123310476Y-111541428D01*
X123291428Y-111617619D01*
X123272380Y-111655714D01*
X123253333Y-111674761D01*
X123215238Y-111693809D01*
X123177142Y-111693809D01*
X123139047Y-111674761D01*
X123120000Y-111655714D01*
X123100952Y-111617619D01*
X123100952Y-111522380D01*
X123120000Y-111465238D01*
X123500952Y-111293809D02*
X123100952Y-111293809D01*
X123100952Y-111198571D01*
X123120000Y-111141428D01*
X123158095Y-111103333D01*
X123196190Y-111084285D01*
X123272380Y-111065238D01*
X123329523Y-111065238D01*
X123405714Y-111084285D01*
X123443809Y-111103333D01*
X123481904Y-111141428D01*
X123500952Y-111198571D01*
X123500952Y-111293809D01*
X123100952Y-110817619D02*
X123100952Y-110741428D01*
X123120000Y-110703333D01*
X123158095Y-110665238D01*
X123234285Y-110646190D01*
X123367619Y-110646190D01*
X123443809Y-110665238D01*
X123481904Y-110703333D01*
X123500952Y-110741428D01*
X123500952Y-110817619D01*
X123481904Y-110855714D01*
X123443809Y-110893809D01*
X123367619Y-110912857D01*
X123234285Y-110912857D01*
X123158095Y-110893809D01*
X123120000Y-110855714D01*
X123100952Y-110817619D01*
X120511904Y-112784761D02*
X120530952Y-112727619D01*
X120530952Y-112632380D01*
X120511904Y-112594285D01*
X120492857Y-112575238D01*
X120454761Y-112556190D01*
X120416666Y-112556190D01*
X120378571Y-112575238D01*
X120359523Y-112594285D01*
X120340476Y-112632380D01*
X120321428Y-112708571D01*
X120302380Y-112746666D01*
X120283333Y-112765714D01*
X120245238Y-112784761D01*
X120207142Y-112784761D01*
X120169047Y-112765714D01*
X120150000Y-112746666D01*
X120130952Y-112708571D01*
X120130952Y-112613333D01*
X120150000Y-112556190D01*
X120511904Y-112403809D02*
X120530952Y-112346666D01*
X120530952Y-112251428D01*
X120511904Y-112213333D01*
X120492857Y-112194285D01*
X120454761Y-112175238D01*
X120416666Y-112175238D01*
X120378571Y-112194285D01*
X120359523Y-112213333D01*
X120340476Y-112251428D01*
X120321428Y-112327619D01*
X120302380Y-112365714D01*
X120283333Y-112384761D01*
X120245238Y-112403809D01*
X120207142Y-112403809D01*
X120169047Y-112384761D01*
X120150000Y-112365714D01*
X120130952Y-112327619D01*
X120130952Y-112232380D01*
X120150000Y-112175238D01*
X120501904Y-111674285D02*
X120520952Y-111617142D01*
X120520952Y-111521904D01*
X120501904Y-111483809D01*
X120482857Y-111464761D01*
X120444761Y-111445714D01*
X120406666Y-111445714D01*
X120368571Y-111464761D01*
X120349523Y-111483809D01*
X120330476Y-111521904D01*
X120311428Y-111598095D01*
X120292380Y-111636190D01*
X120273333Y-111655238D01*
X120235238Y-111674285D01*
X120197142Y-111674285D01*
X120159047Y-111655238D01*
X120140000Y-111636190D01*
X120120952Y-111598095D01*
X120120952Y-111502857D01*
X120140000Y-111445714D01*
X120482857Y-111045714D02*
X120501904Y-111064761D01*
X120520952Y-111121904D01*
X120520952Y-111160000D01*
X120501904Y-111217142D01*
X120463809Y-111255238D01*
X120425714Y-111274285D01*
X120349523Y-111293333D01*
X120292380Y-111293333D01*
X120216190Y-111274285D01*
X120178095Y-111255238D01*
X120140000Y-111217142D01*
X120120952Y-111160000D01*
X120120952Y-111121904D01*
X120140000Y-111064761D01*
X120159047Y-111045714D01*
X120520952Y-110874285D02*
X120120952Y-110874285D01*
X120520952Y-110645714D02*
X120292380Y-110817142D01*
X120120952Y-110645714D02*
X120349523Y-110874285D01*
D11*
X134928062Y-115410000D02*
G75*
G03X134928062Y-115410000I-128062J0D01*
G01*
X131468062Y-113460000D02*
G75*
G03X131468062Y-113460000I-128062J0D01*
G01*
X144188062Y-107590000D02*
G75*
G03X144188062Y-107590000I-128062J0D01*
G01*
X140268062Y-107580000D02*
G75*
G03X140268062Y-107580000I-128062J0D01*
G01*
X140658062Y-101970000D02*
G75*
G03X140658062Y-101970000I-128062J0D01*
G01*
X133008062Y-104900000D02*
G75*
G03X133008062Y-104900000I-128062J0D01*
G01*
X132998062Y-102340000D02*
G75*
G03X132998062Y-102340000I-128062J0D01*
G01*
X112108062Y-110400000D02*
G75*
G03X112108062Y-110400000I-128062J0D01*
G01*
X107948062Y-115600000D02*
G75*
G03X107948062Y-115600000I-128062J0D01*
G01*
X115078062Y-118030000D02*
G75*
G03X115078062Y-118030000I-128062J0D01*
G01*
X115128062Y-121810000D02*
G75*
G03X115128062Y-121810000I-128062J0D01*
G01*
X105988062Y-130090000D02*
G75*
G03X105988062Y-130090000I-128062J0D01*
G01*
X116288062Y-125500000D02*
G75*
G03X116288062Y-125500000I-128062J0D01*
G01*
X128698062Y-125570000D02*
G75*
G03X128698062Y-125570000I-128062J0D01*
G01*
X143198062Y-138520000D02*
G75*
G03X143198062Y-138520000I-128062J0D01*
G01*
X146678062Y-132410000D02*
G75*
G03X146678062Y-132410000I-128062J0D01*
G01*
X143248062Y-132610000D02*
G75*
G03X143248062Y-132610000I-128062J0D01*
G01*
X146668062Y-126300000D02*
G75*
G03X146668062Y-126300000I-128062J0D01*
G01*
X143248062Y-126790000D02*
G75*
G03X143248062Y-126790000I-128062J0D01*
G01*
X146748062Y-120210000D02*
G75*
G03X146748062Y-120210000I-128062J0D01*
G01*
D12*
X109417142Y-136670000D02*
X109274285Y-136574761D01*
X109060000Y-136574761D01*
X108845714Y-136670000D01*
X108702857Y-136860476D01*
X108631428Y-137050952D01*
X108560000Y-137431904D01*
X108560000Y-137717619D01*
X108631428Y-138098571D01*
X108702857Y-138289047D01*
X108845714Y-138479523D01*
X109060000Y-138574761D01*
X109202857Y-138574761D01*
X109417142Y-138479523D01*
X109488571Y-138384285D01*
X109488571Y-137717619D01*
X109202857Y-137717619D01*
X110131428Y-138574761D02*
X110131428Y-136574761D01*
X110988571Y-138574761D01*
X110988571Y-136574761D01*
X111702857Y-138574761D02*
X111702857Y-136574761D01*
X112060000Y-136574761D01*
X112274285Y-136670000D01*
X112417142Y-136860476D01*
X112488571Y-137050952D01*
X112560000Y-137431904D01*
X112560000Y-137717619D01*
X112488571Y-138098571D01*
X112417142Y-138289047D01*
X112274285Y-138479523D01*
X112060000Y-138574761D01*
X111702857Y-138574761D01*
D13*
G04 #@! TO.C,U1*
X96674853Y-112100000D02*
G75*
G03X96674853Y-112100000I-84853J0D01*
G01*
D14*
X96315600Y-111646400D02*
X96772800Y-111646400D01*
X96315600Y-108293600D02*
X96315600Y-111646400D01*
X100684400Y-108293600D02*
X100227200Y-108293600D01*
X100684400Y-111646400D02*
X100684400Y-108293600D01*
X100227200Y-111646400D02*
X100684400Y-111646400D01*
X96772800Y-108293600D02*
X96315600Y-108293600D01*
D11*
G04 #@! TO.C,C35*
X102997000Y-110098578D02*
X102997000Y-109581422D01*
X101577000Y-110098578D02*
X101577000Y-109581422D01*
D13*
G04 #@! TO.C,U11*
X140425000Y-109275000D02*
X140300000Y-109275000D01*
X140425000Y-113925000D02*
X140200000Y-113925000D01*
X135175000Y-113925000D02*
X135400000Y-113925000D01*
X135175000Y-109275000D02*
X135400000Y-109275000D01*
X140425000Y-109275000D02*
X140425000Y-113925000D01*
X135175000Y-109275000D02*
X135175000Y-113925000D01*
X140300000Y-109275000D02*
X140300000Y-107925000D01*
D11*
G04 #@! TO.C,J10*
X96300000Y-100620000D02*
X97900000Y-100620000D01*
X96300000Y-114580000D02*
X97900000Y-114580000D01*
X102300000Y-100620000D02*
X103900000Y-100620000D01*
X102300000Y-114580000D02*
X103900000Y-114580000D01*
X93600000Y-103800000D02*
X93600000Y-105400000D01*
X106600000Y-103800000D02*
X106600000Y-105400000D01*
X93600000Y-109800000D02*
X93600000Y-111400000D01*
X106600000Y-109800000D02*
X106600000Y-111400000D01*
D15*
G04 #@! TO.C,J4*
X99640000Y-127820000D02*
X94630000Y-127820000D01*
X99630000Y-116210000D02*
X94610000Y-116210000D01*
X99630000Y-128830000D02*
X99630000Y-116190000D01*
X94620000Y-128810000D02*
X99620000Y-128810000D01*
X94620000Y-116210000D02*
X94630000Y-128830000D01*
D11*
G04 #@! TO.C,C34*
X104902000Y-110098578D02*
X104902000Y-109581422D01*
X103482000Y-110098578D02*
X103482000Y-109581422D01*
G04 #@! TO.C,C32*
X136241422Y-118410000D02*
X136758578Y-118410000D01*
X136241422Y-116990000D02*
X136758578Y-116990000D01*
D13*
G04 #@! TO.C,DRV8323H1*
X128150000Y-119150000D02*
X128150000Y-119675000D01*
X134450000Y-119150000D02*
X134450000Y-119675000D01*
X134450000Y-125450000D02*
X134450000Y-124925000D01*
X128150000Y-125450000D02*
X128150000Y-124925000D01*
X134450000Y-119150000D02*
X133925000Y-119150000D01*
X134450000Y-125450000D02*
X133925000Y-125450000D01*
X128150000Y-119150000D02*
X128675000Y-119150000D01*
D11*
G04 #@! TO.C,C31*
X122458578Y-116890000D02*
X121941422Y-116890000D01*
X122458578Y-118310000D02*
X121941422Y-118310000D01*
D13*
G04 #@! TO.C,U2*
X144345000Y-109265000D02*
X144245000Y-109265000D01*
X144345000Y-113915000D02*
X144145000Y-113915000D01*
X141095000Y-113915000D02*
X141295000Y-113915000D01*
X141095000Y-109265000D02*
X141295000Y-109265000D01*
X144345000Y-109265000D02*
X144345000Y-113915000D01*
X141095000Y-109265000D02*
X141095000Y-113915000D01*
X144245000Y-109265000D02*
X144245000Y-107915000D01*
D11*
G04 #@! TO.C,Q2*
X142750000Y-132700000D02*
X139620000Y-132700000D01*
X142080000Y-129100000D02*
X139620000Y-129100000D01*
G04 #@! TO.C,C21*
X129010000Y-130841422D02*
X129010000Y-131358578D01*
X127590000Y-130841422D02*
X127590000Y-131358578D01*
G04 #@! TO.C,C19*
X133290000Y-130841422D02*
X133290000Y-131358578D01*
X134710000Y-130841422D02*
X134710000Y-131358578D01*
G04 #@! TO.C,C18*
X132810000Y-130841422D02*
X132810000Y-131358578D01*
X131390000Y-130841422D02*
X131390000Y-131358578D01*
G04 #@! TO.C,C12*
X136410000Y-104041422D02*
X136410000Y-104558578D01*
X134990000Y-104041422D02*
X134990000Y-104558578D01*
D13*
G04 #@! TO.C,MAX176321*
X140799999Y-105500001D02*
X140299999Y-105500001D01*
X137549999Y-102250001D02*
X138049999Y-102250001D01*
X137549999Y-105500001D02*
X138049999Y-105500001D01*
X140799999Y-102250001D02*
X140799999Y-102750001D01*
X137549999Y-102250001D02*
X137549999Y-102750001D01*
X137549999Y-105500001D02*
X137549999Y-105000001D01*
X140799999Y-105500001D02*
X140799999Y-105000001D01*
D11*
G04 #@! TO.C,D2*
X108365000Y-133015000D02*
X108365000Y-135300000D01*
X109835000Y-133015000D02*
X108365000Y-133015000D01*
X109835000Y-135300000D02*
X109835000Y-133015000D01*
G04 #@! TO.C,J2*
X157330000Y-138439200D02*
X156000000Y-138439200D01*
X157330000Y-137109200D02*
X157330000Y-138439200D01*
X157330000Y-135839200D02*
X154670000Y-135839200D01*
X154670000Y-135839200D02*
X154670000Y-117999200D01*
X157330000Y-135839200D02*
X157330000Y-117999200D01*
X157330000Y-117999200D02*
X154670000Y-117999200D01*
D13*
G04 #@! TO.C,J3*
X108150000Y-130700000D02*
X93150000Y-130700000D01*
X108150000Y-138700000D02*
X108150000Y-130700000D01*
X93150000Y-138700000D02*
X108150000Y-138700000D01*
X93150000Y-130700000D02*
X93150000Y-138700000D01*
X96150000Y-138700000D02*
X96150000Y-138100000D01*
X96150000Y-135300000D02*
X96150000Y-134100000D01*
X96150000Y-130700000D02*
X96150000Y-131300000D01*
D11*
G04 #@! TO.C,Q1*
X142740000Y-126785000D02*
X139610000Y-126785000D01*
X142070000Y-123185000D02*
X139610000Y-123185000D01*
G04 #@! TO.C,Q4*
X146900000Y-120500000D02*
X150030000Y-120500000D01*
X147570000Y-124100000D02*
X150030000Y-124100000D01*
G04 #@! TO.C,Q5*
X146900000Y-126450000D02*
X150030000Y-126450000D01*
X147570000Y-130050000D02*
X150030000Y-130050000D01*
G04 #@! TO.C,Q3*
X142700000Y-138570000D02*
X139570000Y-138570000D01*
X142030000Y-134970000D02*
X139570000Y-134970000D01*
G04 #@! TO.C,Q6*
X146900000Y-132450000D02*
X150030000Y-132450000D01*
X147570000Y-136050000D02*
X150030000Y-136050000D01*
G04 #@! TO.C,C20*
X125690000Y-130841422D02*
X125690000Y-131358578D01*
X127110000Y-130841422D02*
X127110000Y-131358578D01*
G04 #@! TO.C,C7*
X129490000Y-130841422D02*
X129490000Y-131358578D01*
X130910000Y-130841422D02*
X130910000Y-131358578D01*
G04 #@! TO.C,D3*
X105580000Y-129960000D02*
X105580000Y-124060000D01*
X109480000Y-129960000D02*
X109480000Y-124060000D01*
X109480000Y-124060000D02*
X108405000Y-124060000D01*
G04 #@! TO.C,TP1*
X141190000Y-122030000D02*
G75*
G03X141190000Y-122030000I-700000J0D01*
G01*
G04 #@! TO.C,TP2*
X143424000Y-122046000D02*
G75*
G03X143424000Y-122046000I-700000J0D01*
G01*
G04 #@! TO.C,TP3*
X141148000Y-127950000D02*
G75*
G03X141148000Y-127950000I-700000J0D01*
G01*
G04 #@! TO.C,TP4*
X143400000Y-127950000D02*
G75*
G03X143400000Y-127950000I-700000J0D01*
G01*
G04 #@! TO.C,TP5*
X141270000Y-133860000D02*
G75*
G03X141270000Y-133860000I-700000J0D01*
G01*
G04 #@! TO.C,TP6*
X143500000Y-133850000D02*
G75*
G03X143500000Y-133850000I-700000J0D01*
G01*
G04 #@! TO.C,J9*
X110785000Y-100400000D02*
X107670000Y-100400000D01*
X107670000Y-100400000D02*
X107670000Y-106000000D01*
X115170000Y-106000000D02*
X107670000Y-106000000D01*
X115170000Y-104470000D02*
X115170000Y-106000000D01*
X113925000Y-103200000D02*
X112055000Y-103200000D01*
X112055000Y-103200000D02*
X112055000Y-101330000D01*
X113325000Y-100400000D02*
X115170000Y-100400000D01*
X115170000Y-100400000D02*
X115170000Y-101930000D01*
G04 #@! TO.C,C30*
X136610000Y-130841422D02*
X136610000Y-131358578D01*
X135190000Y-130841422D02*
X135190000Y-131358578D01*
D16*
G04 #@! TO.C,H4*
G36*
X134058423Y-136101777D02*
X134096263Y-136105066D01*
X134116759Y-136108897D01*
X134168390Y-136125874D01*
X134213060Y-136149654D01*
X134250646Y-136179527D01*
X134281024Y-136214781D01*
X134304071Y-136254703D01*
X134319661Y-136298583D01*
X134327672Y-136345708D01*
X134327980Y-136395366D01*
X134320461Y-136446846D01*
X134304990Y-136499436D01*
X134281445Y-136552424D01*
X134249701Y-136605099D01*
X134211669Y-136654398D01*
X134162024Y-136705506D01*
X134107034Y-136750255D01*
X134047863Y-136788142D01*
X133985678Y-136818666D01*
X133921645Y-136841325D01*
X133856929Y-136855617D01*
X133792695Y-136861041D01*
X133738218Y-136858169D01*
X133683393Y-136847107D01*
X133634297Y-136828036D01*
X133591371Y-136801148D01*
X133572887Y-136785333D01*
X133541140Y-136751436D01*
X133518000Y-136716962D01*
X133502118Y-136679320D01*
X133492141Y-136635916D01*
X133490986Y-136628145D01*
X133488426Y-136573755D01*
X133495286Y-136518691D01*
X133510934Y-136463752D01*
X133524275Y-136433475D01*
X133889164Y-136433475D01*
X133891545Y-136455112D01*
X133904506Y-136499304D01*
X133925689Y-136538657D01*
X133954198Y-136572122D01*
X133989137Y-136598653D01*
X134029610Y-136617204D01*
X134030453Y-136617481D01*
X134050411Y-136621460D01*
X134077461Y-136623152D01*
X134095684Y-136622976D01*
X134119938Y-136621571D01*
X134138324Y-136618634D01*
X134155122Y-136613176D01*
X134172690Y-136605155D01*
X134209679Y-136581788D01*
X134240282Y-136551948D01*
X134263754Y-136517048D01*
X134279349Y-136478504D01*
X134286322Y-136437728D01*
X134283925Y-136396134D01*
X134283670Y-136394722D01*
X134270966Y-136352824D01*
X134249644Y-136314438D01*
X134220985Y-136281215D01*
X134186270Y-136254806D01*
X134167445Y-136244858D01*
X134137518Y-136235350D01*
X134102396Y-136230786D01*
X134065790Y-136231225D01*
X134031413Y-136236724D01*
X134013531Y-136242426D01*
X133978383Y-136261486D01*
X133947691Y-136287944D01*
X133922440Y-136320087D01*
X133903613Y-136356199D01*
X133892193Y-136394567D01*
X133889164Y-136433475D01*
X133524275Y-136433475D01*
X133534736Y-136409736D01*
X133566061Y-136357441D01*
X133604274Y-136307666D01*
X133648745Y-136261207D01*
X133698840Y-136218864D01*
X133753926Y-136181434D01*
X133813370Y-136149716D01*
X133876541Y-136124507D01*
X133894886Y-136118701D01*
X133931263Y-136110238D01*
X133972757Y-136104503D01*
X134016199Y-136101636D01*
X134058423Y-136101777D01*
X134058423Y-136101777D01*
G37*
X134058423Y-136101777D02*
X134096263Y-136105066D01*
X134116759Y-136108897D01*
X134168390Y-136125874D01*
X134213060Y-136149654D01*
X134250646Y-136179527D01*
X134281024Y-136214781D01*
X134304071Y-136254703D01*
X134319661Y-136298583D01*
X134327672Y-136345708D01*
X134327980Y-136395366D01*
X134320461Y-136446846D01*
X134304990Y-136499436D01*
X134281445Y-136552424D01*
X134249701Y-136605099D01*
X134211669Y-136654398D01*
X134162024Y-136705506D01*
X134107034Y-136750255D01*
X134047863Y-136788142D01*
X133985678Y-136818666D01*
X133921645Y-136841325D01*
X133856929Y-136855617D01*
X133792695Y-136861041D01*
X133738218Y-136858169D01*
X133683393Y-136847107D01*
X133634297Y-136828036D01*
X133591371Y-136801148D01*
X133572887Y-136785333D01*
X133541140Y-136751436D01*
X133518000Y-136716962D01*
X133502118Y-136679320D01*
X133492141Y-136635916D01*
X133490986Y-136628145D01*
X133488426Y-136573755D01*
X133495286Y-136518691D01*
X133510934Y-136463752D01*
X133524275Y-136433475D01*
X133889164Y-136433475D01*
X133891545Y-136455112D01*
X133904506Y-136499304D01*
X133925689Y-136538657D01*
X133954198Y-136572122D01*
X133989137Y-136598653D01*
X134029610Y-136617204D01*
X134030453Y-136617481D01*
X134050411Y-136621460D01*
X134077461Y-136623152D01*
X134095684Y-136622976D01*
X134119938Y-136621571D01*
X134138324Y-136618634D01*
X134155122Y-136613176D01*
X134172690Y-136605155D01*
X134209679Y-136581788D01*
X134240282Y-136551948D01*
X134263754Y-136517048D01*
X134279349Y-136478504D01*
X134286322Y-136437728D01*
X134283925Y-136396134D01*
X134283670Y-136394722D01*
X134270966Y-136352824D01*
X134249644Y-136314438D01*
X134220985Y-136281215D01*
X134186270Y-136254806D01*
X134167445Y-136244858D01*
X134137518Y-136235350D01*
X134102396Y-136230786D01*
X134065790Y-136231225D01*
X134031413Y-136236724D01*
X134013531Y-136242426D01*
X133978383Y-136261486D01*
X133947691Y-136287944D01*
X133922440Y-136320087D01*
X133903613Y-136356199D01*
X133892193Y-136394567D01*
X133889164Y-136433475D01*
X133524275Y-136433475D01*
X133534736Y-136409736D01*
X133566061Y-136357441D01*
X133604274Y-136307666D01*
X133648745Y-136261207D01*
X133698840Y-136218864D01*
X133753926Y-136181434D01*
X133813370Y-136149716D01*
X133876541Y-136124507D01*
X133894886Y-136118701D01*
X133931263Y-136110238D01*
X133972757Y-136104503D01*
X134016199Y-136101636D01*
X134058423Y-136101777D01*
G36*
X132433665Y-136292400D02*
X132451199Y-136294815D01*
X132467879Y-136300076D01*
X132486678Y-136308404D01*
X132536544Y-136336810D01*
X132586028Y-136374026D01*
X132634186Y-136418713D01*
X132680077Y-136469536D01*
X132722757Y-136525158D01*
X132761285Y-136584244D01*
X132794717Y-136645456D01*
X132822112Y-136707459D01*
X132842526Y-136768917D01*
X132855018Y-136828492D01*
X132855381Y-136831129D01*
X132858149Y-136874196D01*
X132854456Y-136912257D01*
X132844593Y-136944427D01*
X132828853Y-136969822D01*
X132807525Y-136987556D01*
X132803187Y-136989832D01*
X132775219Y-136998318D01*
X132743409Y-136999581D01*
X132711189Y-136993488D01*
X132710740Y-136993346D01*
X132667203Y-136975057D01*
X132622270Y-136947842D01*
X132576881Y-136912665D01*
X132531976Y-136870487D01*
X132488495Y-136822272D01*
X132447378Y-136768982D01*
X132409565Y-136711579D01*
X132375996Y-136651026D01*
X132375540Y-136650119D01*
X132350181Y-136595845D01*
X132341711Y-136573574D01*
X132495284Y-136573574D01*
X132495543Y-136601315D01*
X132498121Y-136629311D01*
X132502567Y-136652702D01*
X132512407Y-136682865D01*
X132526999Y-136717156D01*
X132544535Y-136751944D01*
X132563208Y-136783596D01*
X132578382Y-136805022D01*
X132609895Y-136840806D01*
X132641152Y-136868895D01*
X132671506Y-136889000D01*
X132700309Y-136900834D01*
X132726913Y-136904109D01*
X132750670Y-136898538D01*
X132766133Y-136888466D01*
X132780767Y-136871999D01*
X132790019Y-136852003D01*
X132794606Y-136826313D01*
X132795402Y-136800316D01*
X132791584Y-136761085D01*
X132781587Y-136720767D01*
X132766265Y-136680451D01*
X132746466Y-136641228D01*
X132723042Y-136604188D01*
X132696844Y-136570421D01*
X132668723Y-136541018D01*
X132639529Y-136517069D01*
X132610113Y-136499664D01*
X132581326Y-136489894D01*
X132554019Y-136488849D01*
X132552521Y-136489075D01*
X132530226Y-136497610D01*
X132511870Y-136514429D01*
X132501805Y-136531686D01*
X132497365Y-136549295D01*
X132495284Y-136573574D01*
X132341711Y-136573574D01*
X132331505Y-136546742D01*
X132318956Y-136500850D01*
X132311980Y-136456209D01*
X132310024Y-136418820D01*
X132310147Y-136393734D01*
X132311356Y-136375780D01*
X132314108Y-136361950D01*
X132318861Y-136349235D01*
X132321443Y-136343751D01*
X132332212Y-136326421D01*
X132345671Y-136310733D01*
X132351471Y-136305651D01*
X132361774Y-136298608D01*
X132371873Y-136294452D01*
X132384939Y-136292443D01*
X132404145Y-136291838D01*
X132410641Y-136291820D01*
X132433665Y-136292400D01*
X132433665Y-136292400D01*
G37*
X132433665Y-136292400D02*
X132451199Y-136294815D01*
X132467879Y-136300076D01*
X132486678Y-136308404D01*
X132536544Y-136336810D01*
X132586028Y-136374026D01*
X132634186Y-136418713D01*
X132680077Y-136469536D01*
X132722757Y-136525158D01*
X132761285Y-136584244D01*
X132794717Y-136645456D01*
X132822112Y-136707459D01*
X132842526Y-136768917D01*
X132855018Y-136828492D01*
X132855381Y-136831129D01*
X132858149Y-136874196D01*
X132854456Y-136912257D01*
X132844593Y-136944427D01*
X132828853Y-136969822D01*
X132807525Y-136987556D01*
X132803187Y-136989832D01*
X132775219Y-136998318D01*
X132743409Y-136999581D01*
X132711189Y-136993488D01*
X132710740Y-136993346D01*
X132667203Y-136975057D01*
X132622270Y-136947842D01*
X132576881Y-136912665D01*
X132531976Y-136870487D01*
X132488495Y-136822272D01*
X132447378Y-136768982D01*
X132409565Y-136711579D01*
X132375996Y-136651026D01*
X132375540Y-136650119D01*
X132350181Y-136595845D01*
X132341711Y-136573574D01*
X132495284Y-136573574D01*
X132495543Y-136601315D01*
X132498121Y-136629311D01*
X132502567Y-136652702D01*
X132512407Y-136682865D01*
X132526999Y-136717156D01*
X132544535Y-136751944D01*
X132563208Y-136783596D01*
X132578382Y-136805022D01*
X132609895Y-136840806D01*
X132641152Y-136868895D01*
X132671506Y-136889000D01*
X132700309Y-136900834D01*
X132726913Y-136904109D01*
X132750670Y-136898538D01*
X132766133Y-136888466D01*
X132780767Y-136871999D01*
X132790019Y-136852003D01*
X132794606Y-136826313D01*
X132795402Y-136800316D01*
X132791584Y-136761085D01*
X132781587Y-136720767D01*
X132766265Y-136680451D01*
X132746466Y-136641228D01*
X132723042Y-136604188D01*
X132696844Y-136570421D01*
X132668723Y-136541018D01*
X132639529Y-136517069D01*
X132610113Y-136499664D01*
X132581326Y-136489894D01*
X132554019Y-136488849D01*
X132552521Y-136489075D01*
X132530226Y-136497610D01*
X132511870Y-136514429D01*
X132501805Y-136531686D01*
X132497365Y-136549295D01*
X132495284Y-136573574D01*
X132341711Y-136573574D01*
X132331505Y-136546742D01*
X132318956Y-136500850D01*
X132311980Y-136456209D01*
X132310024Y-136418820D01*
X132310147Y-136393734D01*
X132311356Y-136375780D01*
X132314108Y-136361950D01*
X132318861Y-136349235D01*
X132321443Y-136343751D01*
X132332212Y-136326421D01*
X132345671Y-136310733D01*
X132351471Y-136305651D01*
X132361774Y-136298608D01*
X132371873Y-136294452D01*
X132384939Y-136292443D01*
X132404145Y-136291838D01*
X132410641Y-136291820D01*
X132433665Y-136292400D01*
D17*
G36*
X133764692Y-137731830D02*
X133768884Y-137737238D01*
X133769842Y-137745434D01*
X133765424Y-137750854D01*
X133753375Y-137758710D01*
X133735655Y-137768093D01*
X133714225Y-137778090D01*
X133691046Y-137787791D01*
X133668078Y-137796284D01*
X133647282Y-137802659D01*
X133645917Y-137803013D01*
X133602856Y-137810486D01*
X133554361Y-137812860D01*
X133503785Y-137810138D01*
X133457500Y-137802965D01*
X133430200Y-137797186D01*
X133411309Y-137792973D01*
X133399286Y-137789840D01*
X133392588Y-137787302D01*
X133389673Y-137784876D01*
X133388999Y-137782076D01*
X133388997Y-137781433D01*
X133390026Y-137773727D01*
X133393898Y-137769084D01*
X133402140Y-137767369D01*
X133416276Y-137768449D01*
X133437832Y-137772190D01*
X133454960Y-137775657D01*
X133513922Y-137785109D01*
X133567388Y-137787441D01*
X133617312Y-137782442D01*
X133665646Y-137769901D01*
X133714342Y-137749609D01*
X133719221Y-137747188D01*
X133741207Y-137736758D01*
X133755915Y-137731654D01*
X133764692Y-137731830D01*
X133764692Y-137731830D01*
G37*
X133764692Y-137731830D02*
X133768884Y-137737238D01*
X133769842Y-137745434D01*
X133765424Y-137750854D01*
X133753375Y-137758710D01*
X133735655Y-137768093D01*
X133714225Y-137778090D01*
X133691046Y-137787791D01*
X133668078Y-137796284D01*
X133647282Y-137802659D01*
X133645917Y-137803013D01*
X133602856Y-137810486D01*
X133554361Y-137812860D01*
X133503785Y-137810138D01*
X133457500Y-137802965D01*
X133430200Y-137797186D01*
X133411309Y-137792973D01*
X133399286Y-137789840D01*
X133392588Y-137787302D01*
X133389673Y-137784876D01*
X133388999Y-137782076D01*
X133388997Y-137781433D01*
X133390026Y-137773727D01*
X133393898Y-137769084D01*
X133402140Y-137767369D01*
X133416276Y-137768449D01*
X133437832Y-137772190D01*
X133454960Y-137775657D01*
X133513922Y-137785109D01*
X133567388Y-137787441D01*
X133617312Y-137782442D01*
X133665646Y-137769901D01*
X133714342Y-137749609D01*
X133719221Y-137747188D01*
X133741207Y-137736758D01*
X133755915Y-137731654D01*
X133764692Y-137731830D01*
D15*
G04 #@! TO.C,J1*
X156500000Y-117490000D02*
X156500000Y-100170000D01*
X156500000Y-100170000D02*
X151500000Y-100170000D01*
X151500000Y-100170000D02*
X151500000Y-117490000D01*
X151500000Y-117490000D02*
X156500000Y-117490000D01*
X151460000Y-101210000D02*
X156540000Y-101210000D01*
D11*
G04 #@! TO.C,U4*
X115210000Y-109320000D02*
X115210000Y-107520000D01*
X111990000Y-107520000D02*
X111990000Y-109970000D01*
D13*
G04 #@! TO.C,U5*
X114325000Y-121525000D02*
X115675000Y-121525000D01*
X114325000Y-118375000D02*
X109675000Y-118375000D01*
X114325000Y-121625000D02*
X109675000Y-121625000D01*
X114325000Y-118375000D02*
X114325000Y-118575000D01*
X109675000Y-118375000D02*
X109675000Y-118575000D01*
X109675000Y-121625000D02*
X109675000Y-121425000D01*
X114325000Y-121625000D02*
X114325000Y-121525000D01*
D11*
G04 #@! TO.C,J6*
X116660000Y-104470000D02*
X117040000Y-104470000D01*
X116660000Y-100420000D02*
X116660000Y-100160000D01*
X116660000Y-104470000D02*
X116660000Y-102700000D01*
X124280000Y-104470000D02*
X123900000Y-104470000D01*
X124280000Y-102700000D02*
X124280000Y-104470000D01*
X124280000Y-100160000D02*
X124280000Y-100420000D01*
D13*
G04 #@! TO.C,U9*
X114695000Y-116325000D02*
X114745000Y-116325000D01*
X114695000Y-112175000D02*
X114840000Y-112175000D01*
X119845000Y-112175000D02*
X119700000Y-112175000D01*
X119845000Y-116325000D02*
X119700000Y-116325000D01*
X114695000Y-116325000D02*
X114695000Y-112175000D01*
X119845000Y-116325000D02*
X119845000Y-112175000D01*
X114745000Y-116325000D02*
X114745000Y-117725000D01*
D11*
G04 #@! TO.C,D1*
X116085000Y-137165000D02*
X113800000Y-137165000D01*
X116085000Y-138635000D02*
X116085000Y-137165000D01*
X113800000Y-138635000D02*
X116085000Y-138635000D01*
G04 #@! TO.C,L2*
X121990000Y-107412779D02*
X121990000Y-107087221D01*
X123010000Y-107412779D02*
X123010000Y-107087221D01*
G04 #@! TO.C,TP7*
X130800000Y-116800000D02*
G75*
G03X130800000Y-116800000I-700000J0D01*
G01*
G04 #@! TO.C,C40*
X105718578Y-117290000D02*
X105201422Y-117290000D01*
X105718578Y-115870000D02*
X105201422Y-115870000D01*
D10*
G04 #@! TO.C,D4*
X148450000Y-102290000D02*
G75*
G03X148450000Y-102290000I-50000J0D01*
G01*
G04 #@! TO.C,D5*
X149650000Y-102290000D02*
G75*
G03X149650000Y-102290000I-50000J0D01*
G01*
D11*
G04 #@! TO.C,JP2*
X118700000Y-123900000D02*
X118700000Y-126700000D01*
X118700000Y-126700000D02*
X116700000Y-126700000D01*
X116700000Y-126700000D02*
X116700000Y-123900000D01*
X116700000Y-123900000D02*
X118700000Y-123900000D01*
G04 #@! TO.C,JP4*
X118900000Y-122800000D02*
X116900000Y-122800000D01*
X118900000Y-120000000D02*
X118900000Y-122800000D01*
X116900000Y-120000000D02*
X118900000Y-120000000D01*
X116900000Y-122800000D02*
X116900000Y-120000000D01*
G04 #@! TO.C,JP5*
X125000000Y-123800000D02*
X127000000Y-123800000D01*
X125000000Y-126600000D02*
X125000000Y-123800000D01*
X127000000Y-126600000D02*
X125000000Y-126600000D01*
X127000000Y-123800000D02*
X127000000Y-126600000D01*
G04 #@! TO.C,JP6*
X122200000Y-122800000D02*
X122200000Y-120000000D01*
X122200000Y-120000000D02*
X124200000Y-120000000D01*
X124200000Y-120000000D02*
X124200000Y-122800000D01*
X124200000Y-122800000D02*
X122200000Y-122800000D01*
G04 #@! TO.C,C8*
X138242779Y-101520000D02*
X137917221Y-101520000D01*
X138242779Y-100500000D02*
X137917221Y-100500000D01*
G04 #@! TO.C,C9*
X141067221Y-101520000D02*
X141392779Y-101520000D01*
X141067221Y-100500000D02*
X141392779Y-100500000D01*
G04 #@! TO.C,C25*
X116500000Y-137800000D02*
X119250000Y-137800000D01*
X125020000Y-137800000D02*
X122270000Y-137800000D01*
X125020000Y-130344437D02*
X125020000Y-137800000D01*
X116500000Y-130344437D02*
X116500000Y-137800000D01*
X117564437Y-129280000D02*
X119250000Y-129280000D01*
X123955563Y-129280000D02*
X122270000Y-129280000D01*
X123955563Y-129280000D02*
X125020000Y-130344437D01*
X117564437Y-129280000D02*
X116500000Y-130344437D01*
X123270000Y-128040000D02*
X123270000Y-129040000D01*
X123770000Y-128540000D02*
X122770000Y-128540000D01*
G04 #@! TO.C,SW1*
X111385000Y-114190000D02*
X111385000Y-108670000D01*
X108105000Y-116040000D02*
X108105000Y-114190000D01*
X107455000Y-114190000D02*
X108105000Y-114190000D01*
X107455000Y-114190000D02*
X107455000Y-108670000D01*
X107455000Y-108670000D02*
X108724000Y-108670000D01*
X110115000Y-114190000D02*
X111385000Y-114190000D01*
X110115000Y-108670000D02*
X111385000Y-108670000D01*
D13*
G04 #@! TO.C,U8*
X131360000Y-112670000D02*
X131360000Y-109470000D01*
X131360000Y-109470000D02*
X127360000Y-109470000D01*
X127360000Y-109470000D02*
X127360000Y-113470000D01*
X127360000Y-113470000D02*
X130560000Y-113470000D01*
G04 #@! TO.C,U1*
D18*
X96399047Y-107326190D02*
X96399047Y-107730952D01*
X96422857Y-107778571D01*
X96446666Y-107802380D01*
X96494285Y-107826190D01*
X96589523Y-107826190D01*
X96637142Y-107802380D01*
X96660952Y-107778571D01*
X96684761Y-107730952D01*
X96684761Y-107326190D01*
X97184761Y-107826190D02*
X96899047Y-107826190D01*
X97041904Y-107826190D02*
X97041904Y-107326190D01*
X96994285Y-107397619D01*
X96946666Y-107445238D01*
X96899047Y-107469047D01*
G04 #@! TO.C,U6*
X131079047Y-101046190D02*
X131079047Y-101450952D01*
X131102857Y-101498571D01*
X131126666Y-101522380D01*
X131174285Y-101546190D01*
X131269523Y-101546190D01*
X131317142Y-101522380D01*
X131340952Y-101498571D01*
X131364761Y-101450952D01*
X131364761Y-101046190D01*
X131817142Y-101046190D02*
X131721904Y-101046190D01*
X131674285Y-101070000D01*
X131650476Y-101093809D01*
X131602857Y-101165238D01*
X131579047Y-101260476D01*
X131579047Y-101450952D01*
X131602857Y-101498571D01*
X131626666Y-101522380D01*
X131674285Y-101546190D01*
X131769523Y-101546190D01*
X131817142Y-101522380D01*
X131840952Y-101498571D01*
X131864761Y-101450952D01*
X131864761Y-101331904D01*
X131840952Y-101284285D01*
X131817142Y-101260476D01*
X131769523Y-101236666D01*
X131674285Y-101236666D01*
X131626666Y-101260476D01*
X131602857Y-101284285D01*
X131579047Y-101331904D01*
D13*
G04 #@! TO.C,C35*
D18*
X101948571Y-107958571D02*
X101924761Y-107982380D01*
X101853333Y-108006190D01*
X101805714Y-108006190D01*
X101734285Y-107982380D01*
X101686666Y-107934761D01*
X101662857Y-107887142D01*
X101639047Y-107791904D01*
X101639047Y-107720476D01*
X101662857Y-107625238D01*
X101686666Y-107577619D01*
X101734285Y-107530000D01*
X101805714Y-107506190D01*
X101853333Y-107506190D01*
X101924761Y-107530000D01*
X101948571Y-107553809D01*
X102115238Y-107506190D02*
X102424761Y-107506190D01*
X102258095Y-107696666D01*
X102329523Y-107696666D01*
X102377142Y-107720476D01*
X102400952Y-107744285D01*
X102424761Y-107791904D01*
X102424761Y-107910952D01*
X102400952Y-107958571D01*
X102377142Y-107982380D01*
X102329523Y-108006190D01*
X102186666Y-108006190D01*
X102139047Y-107982380D01*
X102115238Y-107958571D01*
X102877142Y-107506190D02*
X102639047Y-107506190D01*
X102615238Y-107744285D01*
X102639047Y-107720476D01*
X102686666Y-107696666D01*
X102805714Y-107696666D01*
X102853333Y-107720476D01*
X102877142Y-107744285D01*
X102900952Y-107791904D01*
X102900952Y-107910952D01*
X102877142Y-107958571D01*
X102853333Y-107982380D01*
X102805714Y-108006190D01*
X102686666Y-108006190D01*
X102639047Y-107982380D01*
X102615238Y-107958571D01*
G04 #@! TO.C,U11*
X139300952Y-115706190D02*
X139300952Y-116110952D01*
X139324761Y-116158571D01*
X139348571Y-116182380D01*
X139396190Y-116206190D01*
X139491428Y-116206190D01*
X139539047Y-116182380D01*
X139562857Y-116158571D01*
X139586666Y-116110952D01*
X139586666Y-115706190D01*
X140086666Y-116206190D02*
X139800952Y-116206190D01*
X139943809Y-116206190D02*
X139943809Y-115706190D01*
X139896190Y-115777619D01*
X139848571Y-115825238D01*
X139800952Y-115849047D01*
X140562857Y-116206190D02*
X140277142Y-116206190D01*
X140420000Y-116206190D02*
X140420000Y-115706190D01*
X140372380Y-115777619D01*
X140324761Y-115825238D01*
X140277142Y-115849047D01*
D13*
G04 #@! TO.C,L1*
X143493333Y-106442380D02*
X143017142Y-106442380D01*
X143017142Y-105442380D01*
X144350476Y-106442380D02*
X143779047Y-106442380D01*
X144064761Y-106442380D02*
X144064761Y-105442380D01*
X143969523Y-105585238D01*
X143874285Y-105680476D01*
X143779047Y-105728095D01*
G04 #@! TO.C,J10*
X93490476Y-115352380D02*
X93490476Y-116066666D01*
X93442857Y-116209523D01*
X93347619Y-116304761D01*
X93204761Y-116352380D01*
X93109523Y-116352380D01*
X94490476Y-116352380D02*
X93919047Y-116352380D01*
X94204761Y-116352380D02*
X94204761Y-115352380D01*
X94109523Y-115495238D01*
X94014285Y-115590476D01*
X93919047Y-115638095D01*
X95109523Y-115352380D02*
X95204761Y-115352380D01*
X95300000Y-115400000D01*
X95347619Y-115447619D01*
X95395238Y-115542857D01*
X95442857Y-115733333D01*
X95442857Y-115971428D01*
X95395238Y-116161904D01*
X95347619Y-116257142D01*
X95300000Y-116304761D01*
X95204761Y-116352380D01*
X95109523Y-116352380D01*
X95014285Y-116304761D01*
X94966666Y-116257142D01*
X94919047Y-116161904D01*
X94871428Y-115971428D01*
X94871428Y-115733333D01*
X94919047Y-115542857D01*
X94966666Y-115447619D01*
X95014285Y-115400000D01*
X95109523Y-115352380D01*
G04 #@! TO.C,J4*
D19*
X97378214Y-126478838D02*
X97378214Y-127168266D01*
X97332252Y-127306152D01*
X97240328Y-127398076D01*
X97102442Y-127444038D01*
X97010519Y-127444038D01*
X98251490Y-126800571D02*
X98251490Y-127444038D01*
X98021681Y-126432876D02*
X97791871Y-127122304D01*
X98389376Y-127122304D01*
G04 #@! TO.C,C34*
D18*
X103878571Y-107958571D02*
X103854761Y-107982380D01*
X103783333Y-108006190D01*
X103735714Y-108006190D01*
X103664285Y-107982380D01*
X103616666Y-107934761D01*
X103592857Y-107887142D01*
X103569047Y-107791904D01*
X103569047Y-107720476D01*
X103592857Y-107625238D01*
X103616666Y-107577619D01*
X103664285Y-107530000D01*
X103735714Y-107506190D01*
X103783333Y-107506190D01*
X103854761Y-107530000D01*
X103878571Y-107553809D01*
X104045238Y-107506190D02*
X104354761Y-107506190D01*
X104188095Y-107696666D01*
X104259523Y-107696666D01*
X104307142Y-107720476D01*
X104330952Y-107744285D01*
X104354761Y-107791904D01*
X104354761Y-107910952D01*
X104330952Y-107958571D01*
X104307142Y-107982380D01*
X104259523Y-108006190D01*
X104116666Y-108006190D01*
X104069047Y-107982380D01*
X104045238Y-107958571D01*
X104783333Y-107672857D02*
X104783333Y-108006190D01*
X104664285Y-107482380D02*
X104545238Y-107839523D01*
X104854761Y-107839523D01*
D13*
G04 #@! TO.C,C32*
X135947142Y-119737142D02*
X135899523Y-119784761D01*
X135756666Y-119832380D01*
X135661428Y-119832380D01*
X135518571Y-119784761D01*
X135423333Y-119689523D01*
X135375714Y-119594285D01*
X135328095Y-119403809D01*
X135328095Y-119260952D01*
X135375714Y-119070476D01*
X135423333Y-118975238D01*
X135518571Y-118880000D01*
X135661428Y-118832380D01*
X135756666Y-118832380D01*
X135899523Y-118880000D01*
X135947142Y-118927619D01*
X136280476Y-118832380D02*
X136899523Y-118832380D01*
X136566190Y-119213333D01*
X136709047Y-119213333D01*
X136804285Y-119260952D01*
X136851904Y-119308571D01*
X136899523Y-119403809D01*
X136899523Y-119641904D01*
X136851904Y-119737142D01*
X136804285Y-119784761D01*
X136709047Y-119832380D01*
X136423333Y-119832380D01*
X136328095Y-119784761D01*
X136280476Y-119737142D01*
X137280476Y-118927619D02*
X137328095Y-118880000D01*
X137423333Y-118832380D01*
X137661428Y-118832380D01*
X137756666Y-118880000D01*
X137804285Y-118927619D01*
X137851904Y-119022857D01*
X137851904Y-119118095D01*
X137804285Y-119260952D01*
X137232857Y-119832380D01*
X137851904Y-119832380D01*
G04 #@! TO.C,DRV8323H1*
D18*
X135486190Y-125437619D02*
X134986190Y-125437619D01*
X134986190Y-125318571D01*
X135010000Y-125247142D01*
X135057619Y-125199523D01*
X135105238Y-125175714D01*
X135200476Y-125151904D01*
X135271904Y-125151904D01*
X135367142Y-125175714D01*
X135414761Y-125199523D01*
X135462380Y-125247142D01*
X135486190Y-125318571D01*
X135486190Y-125437619D01*
X135486190Y-124651904D02*
X135248095Y-124818571D01*
X135486190Y-124937619D02*
X134986190Y-124937619D01*
X134986190Y-124747142D01*
X135010000Y-124699523D01*
X135033809Y-124675714D01*
X135081428Y-124651904D01*
X135152857Y-124651904D01*
X135200476Y-124675714D01*
X135224285Y-124699523D01*
X135248095Y-124747142D01*
X135248095Y-124937619D01*
X134986190Y-124509047D02*
X135486190Y-124342380D01*
X134986190Y-124175714D01*
X135200476Y-123937619D02*
X135176666Y-123985238D01*
X135152857Y-124009047D01*
X135105238Y-124032857D01*
X135081428Y-124032857D01*
X135033809Y-124009047D01*
X135010000Y-123985238D01*
X134986190Y-123937619D01*
X134986190Y-123842380D01*
X135010000Y-123794761D01*
X135033809Y-123770952D01*
X135081428Y-123747142D01*
X135105238Y-123747142D01*
X135152857Y-123770952D01*
X135176666Y-123794761D01*
X135200476Y-123842380D01*
X135200476Y-123937619D01*
X135224285Y-123985238D01*
X135248095Y-124009047D01*
X135295714Y-124032857D01*
X135390952Y-124032857D01*
X135438571Y-124009047D01*
X135462380Y-123985238D01*
X135486190Y-123937619D01*
X135486190Y-123842380D01*
X135462380Y-123794761D01*
X135438571Y-123770952D01*
X135390952Y-123747142D01*
X135295714Y-123747142D01*
X135248095Y-123770952D01*
X135224285Y-123794761D01*
X135200476Y-123842380D01*
X134986190Y-123580476D02*
X134986190Y-123270952D01*
X135176666Y-123437619D01*
X135176666Y-123366190D01*
X135200476Y-123318571D01*
X135224285Y-123294761D01*
X135271904Y-123270952D01*
X135390952Y-123270952D01*
X135438571Y-123294761D01*
X135462380Y-123318571D01*
X135486190Y-123366190D01*
X135486190Y-123509047D01*
X135462380Y-123556666D01*
X135438571Y-123580476D01*
X135033809Y-123080476D02*
X135010000Y-123056666D01*
X134986190Y-123009047D01*
X134986190Y-122890000D01*
X135010000Y-122842380D01*
X135033809Y-122818571D01*
X135081428Y-122794761D01*
X135129047Y-122794761D01*
X135200476Y-122818571D01*
X135486190Y-123104285D01*
X135486190Y-122794761D01*
X134986190Y-122628095D02*
X134986190Y-122318571D01*
X135176666Y-122485238D01*
X135176666Y-122413809D01*
X135200476Y-122366190D01*
X135224285Y-122342380D01*
X135271904Y-122318571D01*
X135390952Y-122318571D01*
X135438571Y-122342380D01*
X135462380Y-122366190D01*
X135486190Y-122413809D01*
X135486190Y-122556666D01*
X135462380Y-122604285D01*
X135438571Y-122628095D01*
X135486190Y-122104285D02*
X134986190Y-122104285D01*
X135224285Y-122104285D02*
X135224285Y-121818571D01*
X135486190Y-121818571D02*
X134986190Y-121818571D01*
X135486190Y-121318571D02*
X135486190Y-121604285D01*
X135486190Y-121461428D02*
X134986190Y-121461428D01*
X135057619Y-121509047D01*
X135105238Y-121556666D01*
X135129047Y-121604285D01*
G04 #@! TO.C,C31*
D13*
X121557142Y-119607142D02*
X121509523Y-119654761D01*
X121366666Y-119702380D01*
X121271428Y-119702380D01*
X121128571Y-119654761D01*
X121033333Y-119559523D01*
X120985714Y-119464285D01*
X120938095Y-119273809D01*
X120938095Y-119130952D01*
X120985714Y-118940476D01*
X121033333Y-118845238D01*
X121128571Y-118750000D01*
X121271428Y-118702380D01*
X121366666Y-118702380D01*
X121509523Y-118750000D01*
X121557142Y-118797619D01*
X121890476Y-118702380D02*
X122509523Y-118702380D01*
X122176190Y-119083333D01*
X122319047Y-119083333D01*
X122414285Y-119130952D01*
X122461904Y-119178571D01*
X122509523Y-119273809D01*
X122509523Y-119511904D01*
X122461904Y-119607142D01*
X122414285Y-119654761D01*
X122319047Y-119702380D01*
X122033333Y-119702380D01*
X121938095Y-119654761D01*
X121890476Y-119607142D01*
X123461904Y-119702380D02*
X122890476Y-119702380D01*
X123176190Y-119702380D02*
X123176190Y-118702380D01*
X123080952Y-118845238D01*
X122985714Y-118940476D01*
X122890476Y-118988095D01*
G04 #@! TO.C,U2*
D18*
X140989047Y-115686190D02*
X140989047Y-116090952D01*
X141012857Y-116138571D01*
X141036666Y-116162380D01*
X141084285Y-116186190D01*
X141179523Y-116186190D01*
X141227142Y-116162380D01*
X141250952Y-116138571D01*
X141274761Y-116090952D01*
X141274761Y-115686190D01*
X141489047Y-115733809D02*
X141512857Y-115710000D01*
X141560476Y-115686190D01*
X141679523Y-115686190D01*
X141727142Y-115710000D01*
X141750952Y-115733809D01*
X141774761Y-115781428D01*
X141774761Y-115829047D01*
X141750952Y-115900476D01*
X141465238Y-116186190D01*
X141774761Y-116186190D01*
D13*
G04 #@! TO.C,Q2*
X138667619Y-130985238D02*
X138620000Y-131080476D01*
X138524761Y-131175714D01*
X138381904Y-131318571D01*
X138334285Y-131413809D01*
X138334285Y-131509047D01*
X138572380Y-131461428D02*
X138524761Y-131556666D01*
X138429523Y-131651904D01*
X138239047Y-131699523D01*
X137905714Y-131699523D01*
X137715238Y-131651904D01*
X137620000Y-131556666D01*
X137572380Y-131461428D01*
X137572380Y-131270952D01*
X137620000Y-131175714D01*
X137715238Y-131080476D01*
X137905714Y-131032857D01*
X138239047Y-131032857D01*
X138429523Y-131080476D01*
X138524761Y-131175714D01*
X138572380Y-131270952D01*
X138572380Y-131461428D01*
X137667619Y-130651904D02*
X137620000Y-130604285D01*
X137572380Y-130509047D01*
X137572380Y-130270952D01*
X137620000Y-130175714D01*
X137667619Y-130128095D01*
X137762857Y-130080476D01*
X137858095Y-130080476D01*
X138000952Y-130128095D01*
X138572380Y-130699523D01*
X138572380Y-130080476D01*
G04 #@! TO.C,R25*
D18*
X120296190Y-123551428D02*
X120058095Y-123718095D01*
X120296190Y-123837142D02*
X119796190Y-123837142D01*
X119796190Y-123646666D01*
X119820000Y-123599047D01*
X119843809Y-123575238D01*
X119891428Y-123551428D01*
X119962857Y-123551428D01*
X120010476Y-123575238D01*
X120034285Y-123599047D01*
X120058095Y-123646666D01*
X120058095Y-123837142D01*
X119843809Y-123360952D02*
X119820000Y-123337142D01*
X119796190Y-123289523D01*
X119796190Y-123170476D01*
X119820000Y-123122857D01*
X119843809Y-123099047D01*
X119891428Y-123075238D01*
X119939047Y-123075238D01*
X120010476Y-123099047D01*
X120296190Y-123384761D01*
X120296190Y-123075238D01*
X119796190Y-122622857D02*
X119796190Y-122860952D01*
X120034285Y-122884761D01*
X120010476Y-122860952D01*
X119986666Y-122813333D01*
X119986666Y-122694285D01*
X120010476Y-122646666D01*
X120034285Y-122622857D01*
X120081904Y-122599047D01*
X120200952Y-122599047D01*
X120248571Y-122622857D01*
X120272380Y-122646666D01*
X120296190Y-122694285D01*
X120296190Y-122813333D01*
X120272380Y-122860952D01*
X120248571Y-122884761D01*
D13*
G04 #@! TO.C,R27*
D18*
X101458571Y-112116190D02*
X101291904Y-111878095D01*
X101172857Y-112116190D02*
X101172857Y-111616190D01*
X101363333Y-111616190D01*
X101410952Y-111640000D01*
X101434761Y-111663809D01*
X101458571Y-111711428D01*
X101458571Y-111782857D01*
X101434761Y-111830476D01*
X101410952Y-111854285D01*
X101363333Y-111878095D01*
X101172857Y-111878095D01*
X101649047Y-111663809D02*
X101672857Y-111640000D01*
X101720476Y-111616190D01*
X101839523Y-111616190D01*
X101887142Y-111640000D01*
X101910952Y-111663809D01*
X101934761Y-111711428D01*
X101934761Y-111759047D01*
X101910952Y-111830476D01*
X101625238Y-112116190D01*
X101934761Y-112116190D01*
X102101428Y-111616190D02*
X102434761Y-111616190D01*
X102220476Y-112116190D01*
D13*
G04 #@! TO.C,C23*
D18*
X95548571Y-111091428D02*
X95572380Y-111115238D01*
X95596190Y-111186666D01*
X95596190Y-111234285D01*
X95572380Y-111305714D01*
X95524761Y-111353333D01*
X95477142Y-111377142D01*
X95381904Y-111400952D01*
X95310476Y-111400952D01*
X95215238Y-111377142D01*
X95167619Y-111353333D01*
X95120000Y-111305714D01*
X95096190Y-111234285D01*
X95096190Y-111186666D01*
X95120000Y-111115238D01*
X95143809Y-111091428D01*
X95143809Y-110900952D02*
X95120000Y-110877142D01*
X95096190Y-110829523D01*
X95096190Y-110710476D01*
X95120000Y-110662857D01*
X95143809Y-110639047D01*
X95191428Y-110615238D01*
X95239047Y-110615238D01*
X95310476Y-110639047D01*
X95596190Y-110924761D01*
X95596190Y-110615238D01*
X95096190Y-110448571D02*
X95096190Y-110139047D01*
X95286666Y-110305714D01*
X95286666Y-110234285D01*
X95310476Y-110186666D01*
X95334285Y-110162857D01*
X95381904Y-110139047D01*
X95500952Y-110139047D01*
X95548571Y-110162857D01*
X95572380Y-110186666D01*
X95596190Y-110234285D01*
X95596190Y-110377142D01*
X95572380Y-110424761D01*
X95548571Y-110448571D01*
D13*
G04 #@! TO.C,C21*
D18*
X126608571Y-133891428D02*
X126632380Y-133915238D01*
X126656190Y-133986666D01*
X126656190Y-134034285D01*
X126632380Y-134105714D01*
X126584761Y-134153333D01*
X126537142Y-134177142D01*
X126441904Y-134200952D01*
X126370476Y-134200952D01*
X126275238Y-134177142D01*
X126227619Y-134153333D01*
X126180000Y-134105714D01*
X126156190Y-134034285D01*
X126156190Y-133986666D01*
X126180000Y-133915238D01*
X126203809Y-133891428D01*
X126203809Y-133700952D02*
X126180000Y-133677142D01*
X126156190Y-133629523D01*
X126156190Y-133510476D01*
X126180000Y-133462857D01*
X126203809Y-133439047D01*
X126251428Y-133415238D01*
X126299047Y-133415238D01*
X126370476Y-133439047D01*
X126656190Y-133724761D01*
X126656190Y-133415238D01*
X126656190Y-132939047D02*
X126656190Y-133224761D01*
X126656190Y-133081904D02*
X126156190Y-133081904D01*
X126227619Y-133129523D01*
X126275238Y-133177142D01*
X126299047Y-133224761D01*
D13*
G04 #@! TO.C,C22*
D18*
X103708571Y-112058571D02*
X103684761Y-112082380D01*
X103613333Y-112106190D01*
X103565714Y-112106190D01*
X103494285Y-112082380D01*
X103446666Y-112034761D01*
X103422857Y-111987142D01*
X103399047Y-111891904D01*
X103399047Y-111820476D01*
X103422857Y-111725238D01*
X103446666Y-111677619D01*
X103494285Y-111630000D01*
X103565714Y-111606190D01*
X103613333Y-111606190D01*
X103684761Y-111630000D01*
X103708571Y-111653809D01*
X103899047Y-111653809D02*
X103922857Y-111630000D01*
X103970476Y-111606190D01*
X104089523Y-111606190D01*
X104137142Y-111630000D01*
X104160952Y-111653809D01*
X104184761Y-111701428D01*
X104184761Y-111749047D01*
X104160952Y-111820476D01*
X103875238Y-112106190D01*
X104184761Y-112106190D01*
X104375238Y-111653809D02*
X104399047Y-111630000D01*
X104446666Y-111606190D01*
X104565714Y-111606190D01*
X104613333Y-111630000D01*
X104637142Y-111653809D01*
X104660952Y-111701428D01*
X104660952Y-111749047D01*
X104637142Y-111820476D01*
X104351428Y-112106190D01*
X104660952Y-112106190D01*
D13*
G04 #@! TO.C,C19*
D18*
X128758571Y-133951428D02*
X128782380Y-133975238D01*
X128806190Y-134046666D01*
X128806190Y-134094285D01*
X128782380Y-134165714D01*
X128734761Y-134213333D01*
X128687142Y-134237142D01*
X128591904Y-134260952D01*
X128520476Y-134260952D01*
X128425238Y-134237142D01*
X128377619Y-134213333D01*
X128330000Y-134165714D01*
X128306190Y-134094285D01*
X128306190Y-134046666D01*
X128330000Y-133975238D01*
X128353809Y-133951428D01*
X128806190Y-133475238D02*
X128806190Y-133760952D01*
X128806190Y-133618095D02*
X128306190Y-133618095D01*
X128377619Y-133665714D01*
X128425238Y-133713333D01*
X128449047Y-133760952D01*
X128806190Y-133237142D02*
X128806190Y-133141904D01*
X128782380Y-133094285D01*
X128758571Y-133070476D01*
X128687142Y-133022857D01*
X128591904Y-132999047D01*
X128401428Y-132999047D01*
X128353809Y-133022857D01*
X128330000Y-133046666D01*
X128306190Y-133094285D01*
X128306190Y-133189523D01*
X128330000Y-133237142D01*
X128353809Y-133260952D01*
X128401428Y-133284761D01*
X128520476Y-133284761D01*
X128568095Y-133260952D01*
X128591904Y-133237142D01*
X128615714Y-133189523D01*
X128615714Y-133094285D01*
X128591904Y-133046666D01*
X128568095Y-133022857D01*
X128520476Y-132999047D01*
D13*
G04 #@! TO.C,C18*
D18*
X128058571Y-133981428D02*
X128082380Y-134005238D01*
X128106190Y-134076666D01*
X128106190Y-134124285D01*
X128082380Y-134195714D01*
X128034761Y-134243333D01*
X127987142Y-134267142D01*
X127891904Y-134290952D01*
X127820476Y-134290952D01*
X127725238Y-134267142D01*
X127677619Y-134243333D01*
X127630000Y-134195714D01*
X127606190Y-134124285D01*
X127606190Y-134076666D01*
X127630000Y-134005238D01*
X127653809Y-133981428D01*
X128106190Y-133505238D02*
X128106190Y-133790952D01*
X128106190Y-133648095D02*
X127606190Y-133648095D01*
X127677619Y-133695714D01*
X127725238Y-133743333D01*
X127749047Y-133790952D01*
X127820476Y-133219523D02*
X127796666Y-133267142D01*
X127772857Y-133290952D01*
X127725238Y-133314761D01*
X127701428Y-133314761D01*
X127653809Y-133290952D01*
X127630000Y-133267142D01*
X127606190Y-133219523D01*
X127606190Y-133124285D01*
X127630000Y-133076666D01*
X127653809Y-133052857D01*
X127701428Y-133029047D01*
X127725238Y-133029047D01*
X127772857Y-133052857D01*
X127796666Y-133076666D01*
X127820476Y-133124285D01*
X127820476Y-133219523D01*
X127844285Y-133267142D01*
X127868095Y-133290952D01*
X127915714Y-133314761D01*
X128010952Y-133314761D01*
X128058571Y-133290952D01*
X128082380Y-133267142D01*
X128106190Y-133219523D01*
X128106190Y-133124285D01*
X128082380Y-133076666D01*
X128058571Y-133052857D01*
X128010952Y-133029047D01*
X127915714Y-133029047D01*
X127868095Y-133052857D01*
X127844285Y-133076666D01*
X127820476Y-133124285D01*
D13*
G04 #@! TO.C,R24*
D18*
X121436190Y-123561428D02*
X121198095Y-123728095D01*
X121436190Y-123847142D02*
X120936190Y-123847142D01*
X120936190Y-123656666D01*
X120960000Y-123609047D01*
X120983809Y-123585238D01*
X121031428Y-123561428D01*
X121102857Y-123561428D01*
X121150476Y-123585238D01*
X121174285Y-123609047D01*
X121198095Y-123656666D01*
X121198095Y-123847142D01*
X120983809Y-123370952D02*
X120960000Y-123347142D01*
X120936190Y-123299523D01*
X120936190Y-123180476D01*
X120960000Y-123132857D01*
X120983809Y-123109047D01*
X121031428Y-123085238D01*
X121079047Y-123085238D01*
X121150476Y-123109047D01*
X121436190Y-123394761D01*
X121436190Y-123085238D01*
X121102857Y-122656666D02*
X121436190Y-122656666D01*
X120912380Y-122775714D02*
X121269523Y-122894761D01*
X121269523Y-122585238D01*
D13*
G04 #@! TO.C,C11*
D18*
X137458571Y-106948571D02*
X137434761Y-106972380D01*
X137363333Y-106996190D01*
X137315714Y-106996190D01*
X137244285Y-106972380D01*
X137196666Y-106924761D01*
X137172857Y-106877142D01*
X137149047Y-106781904D01*
X137149047Y-106710476D01*
X137172857Y-106615238D01*
X137196666Y-106567619D01*
X137244285Y-106520000D01*
X137315714Y-106496190D01*
X137363333Y-106496190D01*
X137434761Y-106520000D01*
X137458571Y-106543809D01*
X137934761Y-106996190D02*
X137649047Y-106996190D01*
X137791904Y-106996190D02*
X137791904Y-106496190D01*
X137744285Y-106567619D01*
X137696666Y-106615238D01*
X137649047Y-106639047D01*
X138410952Y-106996190D02*
X138125238Y-106996190D01*
X138268095Y-106996190D02*
X138268095Y-106496190D01*
X138220476Y-106567619D01*
X138172857Y-106615238D01*
X138125238Y-106639047D01*
D13*
G04 #@! TO.C,C12*
D18*
X135388571Y-106578571D02*
X135364761Y-106602380D01*
X135293333Y-106626190D01*
X135245714Y-106626190D01*
X135174285Y-106602380D01*
X135126666Y-106554761D01*
X135102857Y-106507142D01*
X135079047Y-106411904D01*
X135079047Y-106340476D01*
X135102857Y-106245238D01*
X135126666Y-106197619D01*
X135174285Y-106150000D01*
X135245714Y-106126190D01*
X135293333Y-106126190D01*
X135364761Y-106150000D01*
X135388571Y-106173809D01*
X135864761Y-106626190D02*
X135579047Y-106626190D01*
X135721904Y-106626190D02*
X135721904Y-106126190D01*
X135674285Y-106197619D01*
X135626666Y-106245238D01*
X135579047Y-106269047D01*
X136055238Y-106173809D02*
X136079047Y-106150000D01*
X136126666Y-106126190D01*
X136245714Y-106126190D01*
X136293333Y-106150000D01*
X136317142Y-106173809D01*
X136340952Y-106221428D01*
X136340952Y-106269047D01*
X136317142Y-106340476D01*
X136031428Y-106626190D01*
X136340952Y-106626190D01*
G04 #@! TO.C,MAX176321*
X141936190Y-106817619D02*
X141436190Y-106817619D01*
X141793333Y-106650952D01*
X141436190Y-106484285D01*
X141936190Y-106484285D01*
X141793333Y-106270000D02*
X141793333Y-106031904D01*
X141936190Y-106317619D02*
X141436190Y-106150952D01*
X141936190Y-105984285D01*
X141436190Y-105865238D02*
X141936190Y-105531904D01*
X141436190Y-105531904D02*
X141936190Y-105865238D01*
X141936190Y-105079523D02*
X141936190Y-105365238D01*
X141936190Y-105222380D02*
X141436190Y-105222380D01*
X141507619Y-105270000D01*
X141555238Y-105317619D01*
X141579047Y-105365238D01*
X141436190Y-104912857D02*
X141436190Y-104579523D01*
X141936190Y-104793809D01*
X141436190Y-104174761D02*
X141436190Y-104270000D01*
X141460000Y-104317619D01*
X141483809Y-104341428D01*
X141555238Y-104389047D01*
X141650476Y-104412857D01*
X141840952Y-104412857D01*
X141888571Y-104389047D01*
X141912380Y-104365238D01*
X141936190Y-104317619D01*
X141936190Y-104222380D01*
X141912380Y-104174761D01*
X141888571Y-104150952D01*
X141840952Y-104127142D01*
X141721904Y-104127142D01*
X141674285Y-104150952D01*
X141650476Y-104174761D01*
X141626666Y-104222380D01*
X141626666Y-104317619D01*
X141650476Y-104365238D01*
X141674285Y-104389047D01*
X141721904Y-104412857D01*
X141436190Y-103960476D02*
X141436190Y-103650952D01*
X141626666Y-103817619D01*
X141626666Y-103746190D01*
X141650476Y-103698571D01*
X141674285Y-103674761D01*
X141721904Y-103650952D01*
X141840952Y-103650952D01*
X141888571Y-103674761D01*
X141912380Y-103698571D01*
X141936190Y-103746190D01*
X141936190Y-103889047D01*
X141912380Y-103936666D01*
X141888571Y-103960476D01*
X141483809Y-103460476D02*
X141460000Y-103436666D01*
X141436190Y-103389047D01*
X141436190Y-103270000D01*
X141460000Y-103222380D01*
X141483809Y-103198571D01*
X141531428Y-103174761D01*
X141579047Y-103174761D01*
X141650476Y-103198571D01*
X141936190Y-103484285D01*
X141936190Y-103174761D01*
X141936190Y-102698571D02*
X141936190Y-102984285D01*
X141936190Y-102841428D02*
X141436190Y-102841428D01*
X141507619Y-102889047D01*
X141555238Y-102936666D01*
X141579047Y-102984285D01*
G04 #@! TO.C,C10*
X135098571Y-101848571D02*
X135074761Y-101872380D01*
X135003333Y-101896190D01*
X134955714Y-101896190D01*
X134884285Y-101872380D01*
X134836666Y-101824761D01*
X134812857Y-101777142D01*
X134789047Y-101681904D01*
X134789047Y-101610476D01*
X134812857Y-101515238D01*
X134836666Y-101467619D01*
X134884285Y-101420000D01*
X134955714Y-101396190D01*
X135003333Y-101396190D01*
X135074761Y-101420000D01*
X135098571Y-101443809D01*
X135574761Y-101896190D02*
X135289047Y-101896190D01*
X135431904Y-101896190D02*
X135431904Y-101396190D01*
X135384285Y-101467619D01*
X135336666Y-101515238D01*
X135289047Y-101539047D01*
X135884285Y-101396190D02*
X135931904Y-101396190D01*
X135979523Y-101420000D01*
X136003333Y-101443809D01*
X136027142Y-101491428D01*
X136050952Y-101586666D01*
X136050952Y-101705714D01*
X136027142Y-101800952D01*
X136003333Y-101848571D01*
X135979523Y-101872380D01*
X135931904Y-101896190D01*
X135884285Y-101896190D01*
X135836666Y-101872380D01*
X135812857Y-101848571D01*
X135789047Y-101800952D01*
X135765238Y-101705714D01*
X135765238Y-101586666D01*
X135789047Y-101491428D01*
X135812857Y-101443809D01*
X135836666Y-101420000D01*
X135884285Y-101396190D01*
D13*
G04 #@! TO.C,R17*
D18*
X145516190Y-115651428D02*
X145278095Y-115818095D01*
X145516190Y-115937142D02*
X145016190Y-115937142D01*
X145016190Y-115746666D01*
X145040000Y-115699047D01*
X145063809Y-115675238D01*
X145111428Y-115651428D01*
X145182857Y-115651428D01*
X145230476Y-115675238D01*
X145254285Y-115699047D01*
X145278095Y-115746666D01*
X145278095Y-115937142D01*
X145516190Y-115175238D02*
X145516190Y-115460952D01*
X145516190Y-115318095D02*
X145016190Y-115318095D01*
X145087619Y-115365714D01*
X145135238Y-115413333D01*
X145159047Y-115460952D01*
X145016190Y-115008571D02*
X145016190Y-114675238D01*
X145516190Y-114889523D01*
D13*
G04 #@! TO.C,R16*
D18*
X145416190Y-110111428D02*
X145178095Y-110278095D01*
X145416190Y-110397142D02*
X144916190Y-110397142D01*
X144916190Y-110206666D01*
X144940000Y-110159047D01*
X144963809Y-110135238D01*
X145011428Y-110111428D01*
X145082857Y-110111428D01*
X145130476Y-110135238D01*
X145154285Y-110159047D01*
X145178095Y-110206666D01*
X145178095Y-110397142D01*
X145416190Y-109635238D02*
X145416190Y-109920952D01*
X145416190Y-109778095D02*
X144916190Y-109778095D01*
X144987619Y-109825714D01*
X145035238Y-109873333D01*
X145059047Y-109920952D01*
X144916190Y-109206666D02*
X144916190Y-109301904D01*
X144940000Y-109349523D01*
X144963809Y-109373333D01*
X145035238Y-109420952D01*
X145130476Y-109444761D01*
X145320952Y-109444761D01*
X145368571Y-109420952D01*
X145392380Y-109397142D01*
X145416190Y-109349523D01*
X145416190Y-109254285D01*
X145392380Y-109206666D01*
X145368571Y-109182857D01*
X145320952Y-109159047D01*
X145201904Y-109159047D01*
X145154285Y-109182857D01*
X145130476Y-109206666D01*
X145106666Y-109254285D01*
X145106666Y-109349523D01*
X145130476Y-109397142D01*
X145154285Y-109420952D01*
X145201904Y-109444761D01*
D13*
G04 #@! TO.C,R15*
D18*
X146606190Y-115611428D02*
X146368095Y-115778095D01*
X146606190Y-115897142D02*
X146106190Y-115897142D01*
X146106190Y-115706666D01*
X146130000Y-115659047D01*
X146153809Y-115635238D01*
X146201428Y-115611428D01*
X146272857Y-115611428D01*
X146320476Y-115635238D01*
X146344285Y-115659047D01*
X146368095Y-115706666D01*
X146368095Y-115897142D01*
X146606190Y-115135238D02*
X146606190Y-115420952D01*
X146606190Y-115278095D02*
X146106190Y-115278095D01*
X146177619Y-115325714D01*
X146225238Y-115373333D01*
X146249047Y-115420952D01*
X146106190Y-114682857D02*
X146106190Y-114920952D01*
X146344285Y-114944761D01*
X146320476Y-114920952D01*
X146296666Y-114873333D01*
X146296666Y-114754285D01*
X146320476Y-114706666D01*
X146344285Y-114682857D01*
X146391904Y-114659047D01*
X146510952Y-114659047D01*
X146558571Y-114682857D01*
X146582380Y-114706666D01*
X146606190Y-114754285D01*
X146606190Y-114873333D01*
X146582380Y-114920952D01*
X146558571Y-114944761D01*
D13*
G04 #@! TO.C,R14*
D18*
X146566190Y-110111428D02*
X146328095Y-110278095D01*
X146566190Y-110397142D02*
X146066190Y-110397142D01*
X146066190Y-110206666D01*
X146090000Y-110159047D01*
X146113809Y-110135238D01*
X146161428Y-110111428D01*
X146232857Y-110111428D01*
X146280476Y-110135238D01*
X146304285Y-110159047D01*
X146328095Y-110206666D01*
X146328095Y-110397142D01*
X146566190Y-109635238D02*
X146566190Y-109920952D01*
X146566190Y-109778095D02*
X146066190Y-109778095D01*
X146137619Y-109825714D01*
X146185238Y-109873333D01*
X146209047Y-109920952D01*
X146232857Y-109206666D02*
X146566190Y-109206666D01*
X146042380Y-109325714D02*
X146399523Y-109444761D01*
X146399523Y-109135238D01*
D13*
G04 #@! TO.C,R13*
D18*
X147676190Y-115631428D02*
X147438095Y-115798095D01*
X147676190Y-115917142D02*
X147176190Y-115917142D01*
X147176190Y-115726666D01*
X147200000Y-115679047D01*
X147223809Y-115655238D01*
X147271428Y-115631428D01*
X147342857Y-115631428D01*
X147390476Y-115655238D01*
X147414285Y-115679047D01*
X147438095Y-115726666D01*
X147438095Y-115917142D01*
X147676190Y-115155238D02*
X147676190Y-115440952D01*
X147676190Y-115298095D02*
X147176190Y-115298095D01*
X147247619Y-115345714D01*
X147295238Y-115393333D01*
X147319047Y-115440952D01*
X147176190Y-114988571D02*
X147176190Y-114679047D01*
X147366666Y-114845714D01*
X147366666Y-114774285D01*
X147390476Y-114726666D01*
X147414285Y-114702857D01*
X147461904Y-114679047D01*
X147580952Y-114679047D01*
X147628571Y-114702857D01*
X147652380Y-114726666D01*
X147676190Y-114774285D01*
X147676190Y-114917142D01*
X147652380Y-114964761D01*
X147628571Y-114988571D01*
D13*
G04 #@! TO.C,R12*
D18*
X147656190Y-110091428D02*
X147418095Y-110258095D01*
X147656190Y-110377142D02*
X147156190Y-110377142D01*
X147156190Y-110186666D01*
X147180000Y-110139047D01*
X147203809Y-110115238D01*
X147251428Y-110091428D01*
X147322857Y-110091428D01*
X147370476Y-110115238D01*
X147394285Y-110139047D01*
X147418095Y-110186666D01*
X147418095Y-110377142D01*
X147656190Y-109615238D02*
X147656190Y-109900952D01*
X147656190Y-109758095D02*
X147156190Y-109758095D01*
X147227619Y-109805714D01*
X147275238Y-109853333D01*
X147299047Y-109900952D01*
X147203809Y-109424761D02*
X147180000Y-109400952D01*
X147156190Y-109353333D01*
X147156190Y-109234285D01*
X147180000Y-109186666D01*
X147203809Y-109162857D01*
X147251428Y-109139047D01*
X147299047Y-109139047D01*
X147370476Y-109162857D01*
X147656190Y-109448571D01*
X147656190Y-109139047D01*
D13*
G04 #@! TO.C,R11*
D18*
X149018571Y-116006190D02*
X148851904Y-115768095D01*
X148732857Y-116006190D02*
X148732857Y-115506190D01*
X148923333Y-115506190D01*
X148970952Y-115530000D01*
X148994761Y-115553809D01*
X149018571Y-115601428D01*
X149018571Y-115672857D01*
X148994761Y-115720476D01*
X148970952Y-115744285D01*
X148923333Y-115768095D01*
X148732857Y-115768095D01*
X149494761Y-116006190D02*
X149209047Y-116006190D01*
X149351904Y-116006190D02*
X149351904Y-115506190D01*
X149304285Y-115577619D01*
X149256666Y-115625238D01*
X149209047Y-115649047D01*
X149970952Y-116006190D02*
X149685238Y-116006190D01*
X149828095Y-116006190D02*
X149828095Y-115506190D01*
X149780476Y-115577619D01*
X149732857Y-115625238D01*
X149685238Y-115649047D01*
D13*
G04 #@! TO.C,R10*
D18*
X102478571Y-124556190D02*
X102311904Y-124318095D01*
X102192857Y-124556190D02*
X102192857Y-124056190D01*
X102383333Y-124056190D01*
X102430952Y-124080000D01*
X102454761Y-124103809D01*
X102478571Y-124151428D01*
X102478571Y-124222857D01*
X102454761Y-124270476D01*
X102430952Y-124294285D01*
X102383333Y-124318095D01*
X102192857Y-124318095D01*
X102954761Y-124556190D02*
X102669047Y-124556190D01*
X102811904Y-124556190D02*
X102811904Y-124056190D01*
X102764285Y-124127619D01*
X102716666Y-124175238D01*
X102669047Y-124199047D01*
X103264285Y-124056190D02*
X103311904Y-124056190D01*
X103359523Y-124080000D01*
X103383333Y-124103809D01*
X103407142Y-124151428D01*
X103430952Y-124246666D01*
X103430952Y-124365714D01*
X103407142Y-124460952D01*
X103383333Y-124508571D01*
X103359523Y-124532380D01*
X103311904Y-124556190D01*
X103264285Y-124556190D01*
X103216666Y-124532380D01*
X103192857Y-124508571D01*
X103169047Y-124460952D01*
X103145238Y-124365714D01*
X103145238Y-124246666D01*
X103169047Y-124151428D01*
X103192857Y-124103809D01*
X103216666Y-124080000D01*
X103264285Y-124056190D01*
D13*
G04 #@! TO.C,R9*
D18*
X149496666Y-117376190D02*
X149330000Y-117138095D01*
X149210952Y-117376190D02*
X149210952Y-116876190D01*
X149401428Y-116876190D01*
X149449047Y-116900000D01*
X149472857Y-116923809D01*
X149496666Y-116971428D01*
X149496666Y-117042857D01*
X149472857Y-117090476D01*
X149449047Y-117114285D01*
X149401428Y-117138095D01*
X149210952Y-117138095D01*
X149734761Y-117376190D02*
X149830000Y-117376190D01*
X149877619Y-117352380D01*
X149901428Y-117328571D01*
X149949047Y-117257142D01*
X149972857Y-117161904D01*
X149972857Y-116971428D01*
X149949047Y-116923809D01*
X149925238Y-116900000D01*
X149877619Y-116876190D01*
X149782380Y-116876190D01*
X149734761Y-116900000D01*
X149710952Y-116923809D01*
X149687142Y-116971428D01*
X149687142Y-117090476D01*
X149710952Y-117138095D01*
X149734761Y-117161904D01*
X149782380Y-117185714D01*
X149877619Y-117185714D01*
X149925238Y-117161904D01*
X149949047Y-117138095D01*
X149972857Y-117090476D01*
D13*
G04 #@! TO.C,R8*
D18*
X149476666Y-116706190D02*
X149310000Y-116468095D01*
X149190952Y-116706190D02*
X149190952Y-116206190D01*
X149381428Y-116206190D01*
X149429047Y-116230000D01*
X149452857Y-116253809D01*
X149476666Y-116301428D01*
X149476666Y-116372857D01*
X149452857Y-116420476D01*
X149429047Y-116444285D01*
X149381428Y-116468095D01*
X149190952Y-116468095D01*
X149762380Y-116420476D02*
X149714761Y-116396666D01*
X149690952Y-116372857D01*
X149667142Y-116325238D01*
X149667142Y-116301428D01*
X149690952Y-116253809D01*
X149714761Y-116230000D01*
X149762380Y-116206190D01*
X149857619Y-116206190D01*
X149905238Y-116230000D01*
X149929047Y-116253809D01*
X149952857Y-116301428D01*
X149952857Y-116325238D01*
X149929047Y-116372857D01*
X149905238Y-116396666D01*
X149857619Y-116420476D01*
X149762380Y-116420476D01*
X149714761Y-116444285D01*
X149690952Y-116468095D01*
X149667142Y-116515714D01*
X149667142Y-116610952D01*
X149690952Y-116658571D01*
X149714761Y-116682380D01*
X149762380Y-116706190D01*
X149857619Y-116706190D01*
X149905238Y-116682380D01*
X149929047Y-116658571D01*
X149952857Y-116610952D01*
X149952857Y-116515714D01*
X149929047Y-116468095D01*
X149905238Y-116444285D01*
X149857619Y-116420476D01*
D13*
G04 #@! TO.C,R7*
D18*
X149356666Y-115316190D02*
X149190000Y-115078095D01*
X149070952Y-115316190D02*
X149070952Y-114816190D01*
X149261428Y-114816190D01*
X149309047Y-114840000D01*
X149332857Y-114863809D01*
X149356666Y-114911428D01*
X149356666Y-114982857D01*
X149332857Y-115030476D01*
X149309047Y-115054285D01*
X149261428Y-115078095D01*
X149070952Y-115078095D01*
X149523333Y-114816190D02*
X149856666Y-114816190D01*
X149642380Y-115316190D01*
D13*
G04 #@! TO.C,R6*
D18*
X102906666Y-123856190D02*
X102740000Y-123618095D01*
X102620952Y-123856190D02*
X102620952Y-123356190D01*
X102811428Y-123356190D01*
X102859047Y-123380000D01*
X102882857Y-123403809D01*
X102906666Y-123451428D01*
X102906666Y-123522857D01*
X102882857Y-123570476D01*
X102859047Y-123594285D01*
X102811428Y-123618095D01*
X102620952Y-123618095D01*
X103335238Y-123356190D02*
X103240000Y-123356190D01*
X103192380Y-123380000D01*
X103168571Y-123403809D01*
X103120952Y-123475238D01*
X103097142Y-123570476D01*
X103097142Y-123760952D01*
X103120952Y-123808571D01*
X103144761Y-123832380D01*
X103192380Y-123856190D01*
X103287619Y-123856190D01*
X103335238Y-123832380D01*
X103359047Y-123808571D01*
X103382857Y-123760952D01*
X103382857Y-123641904D01*
X103359047Y-123594285D01*
X103335238Y-123570476D01*
X103287619Y-123546666D01*
X103192380Y-123546666D01*
X103144761Y-123570476D01*
X103120952Y-123594285D01*
X103097142Y-123641904D01*
D13*
G04 #@! TO.C,R5*
D18*
X102886666Y-123176190D02*
X102720000Y-122938095D01*
X102600952Y-123176190D02*
X102600952Y-122676190D01*
X102791428Y-122676190D01*
X102839047Y-122700000D01*
X102862857Y-122723809D01*
X102886666Y-122771428D01*
X102886666Y-122842857D01*
X102862857Y-122890476D01*
X102839047Y-122914285D01*
X102791428Y-122938095D01*
X102600952Y-122938095D01*
X103339047Y-122676190D02*
X103100952Y-122676190D01*
X103077142Y-122914285D01*
X103100952Y-122890476D01*
X103148571Y-122866666D01*
X103267619Y-122866666D01*
X103315238Y-122890476D01*
X103339047Y-122914285D01*
X103362857Y-122961904D01*
X103362857Y-123080952D01*
X103339047Y-123128571D01*
X103315238Y-123152380D01*
X103267619Y-123176190D01*
X103148571Y-123176190D01*
X103100952Y-123152380D01*
X103077142Y-123128571D01*
D13*
G04 #@! TO.C,R4*
D18*
X113516190Y-115533333D02*
X113278095Y-115700000D01*
X113516190Y-115819047D02*
X113016190Y-115819047D01*
X113016190Y-115628571D01*
X113040000Y-115580952D01*
X113063809Y-115557142D01*
X113111428Y-115533333D01*
X113182857Y-115533333D01*
X113230476Y-115557142D01*
X113254285Y-115580952D01*
X113278095Y-115628571D01*
X113278095Y-115819047D01*
X113182857Y-115104761D02*
X113516190Y-115104761D01*
X112992380Y-115223809D02*
X113349523Y-115342857D01*
X113349523Y-115033333D01*
G04 #@! TO.C,Cf1*
X143863809Y-117348571D02*
X143840000Y-117372380D01*
X143768571Y-117396190D01*
X143720952Y-117396190D01*
X143649523Y-117372380D01*
X143601904Y-117324761D01*
X143578095Y-117277142D01*
X143554285Y-117181904D01*
X143554285Y-117110476D01*
X143578095Y-117015238D01*
X143601904Y-116967619D01*
X143649523Y-116920000D01*
X143720952Y-116896190D01*
X143768571Y-116896190D01*
X143840000Y-116920000D01*
X143863809Y-116943809D01*
X144006666Y-117062857D02*
X144197142Y-117062857D01*
X144078095Y-117396190D02*
X144078095Y-116967619D01*
X144101904Y-116920000D01*
X144149523Y-116896190D01*
X144197142Y-116896190D01*
X144625714Y-117396190D02*
X144340000Y-117396190D01*
X144482857Y-117396190D02*
X144482857Y-116896190D01*
X144435238Y-116967619D01*
X144387619Y-117015238D01*
X144340000Y-117039047D01*
D13*
G04 #@! TO.C,D2*
X109572380Y-132768095D02*
X108572380Y-132768095D01*
X108572380Y-132530000D01*
X108620000Y-132387142D01*
X108715238Y-132291904D01*
X108810476Y-132244285D01*
X109000952Y-132196666D01*
X109143809Y-132196666D01*
X109334285Y-132244285D01*
X109429523Y-132291904D01*
X109524761Y-132387142D01*
X109572380Y-132530000D01*
X109572380Y-132768095D01*
X108667619Y-131815714D02*
X108620000Y-131768095D01*
X108572380Y-131672857D01*
X108572380Y-131434761D01*
X108620000Y-131339523D01*
X108667619Y-131291904D01*
X108762857Y-131244285D01*
X108858095Y-131244285D01*
X109000952Y-131291904D01*
X109572380Y-131863333D01*
X109572380Y-131244285D01*
G04 #@! TO.C,Rled1*
D18*
X113905238Y-134976190D02*
X113738571Y-134738095D01*
X113619523Y-134976190D02*
X113619523Y-134476190D01*
X113810000Y-134476190D01*
X113857619Y-134500000D01*
X113881428Y-134523809D01*
X113905238Y-134571428D01*
X113905238Y-134642857D01*
X113881428Y-134690476D01*
X113857619Y-134714285D01*
X113810000Y-134738095D01*
X113619523Y-134738095D01*
X114190952Y-134976190D02*
X114143333Y-134952380D01*
X114119523Y-134904761D01*
X114119523Y-134476190D01*
X114571904Y-134952380D02*
X114524285Y-134976190D01*
X114429047Y-134976190D01*
X114381428Y-134952380D01*
X114357619Y-134904761D01*
X114357619Y-134714285D01*
X114381428Y-134666666D01*
X114429047Y-134642857D01*
X114524285Y-134642857D01*
X114571904Y-134666666D01*
X114595714Y-134714285D01*
X114595714Y-134761904D01*
X114357619Y-134809523D01*
X115024285Y-134976190D02*
X115024285Y-134476190D01*
X115024285Y-134952380D02*
X114976666Y-134976190D01*
X114881428Y-134976190D01*
X114833809Y-134952380D01*
X114810000Y-134928571D01*
X114786190Y-134880952D01*
X114786190Y-134738095D01*
X114810000Y-134690476D01*
X114833809Y-134666666D01*
X114881428Y-134642857D01*
X114976666Y-134642857D01*
X115024285Y-134666666D01*
X115524285Y-134976190D02*
X115238571Y-134976190D01*
X115381428Y-134976190D02*
X115381428Y-134476190D01*
X115333809Y-134547619D01*
X115286190Y-134595238D01*
X115238571Y-134619047D01*
D13*
G04 #@! TO.C,J3*
X95556666Y-129312380D02*
X95556666Y-130026666D01*
X95509047Y-130169523D01*
X95413809Y-130264761D01*
X95270952Y-130312380D01*
X95175714Y-130312380D01*
X95937619Y-129312380D02*
X96556666Y-129312380D01*
X96223333Y-129693333D01*
X96366190Y-129693333D01*
X96461428Y-129740952D01*
X96509047Y-129788571D01*
X96556666Y-129883809D01*
X96556666Y-130121904D01*
X96509047Y-130217142D01*
X96461428Y-130264761D01*
X96366190Y-130312380D01*
X96080476Y-130312380D01*
X95985238Y-130264761D01*
X95937619Y-130217142D01*
G04 #@! TO.C,Q1*
X138707619Y-125125238D02*
X138660000Y-125220476D01*
X138564761Y-125315714D01*
X138421904Y-125458571D01*
X138374285Y-125553809D01*
X138374285Y-125649047D01*
X138612380Y-125601428D02*
X138564761Y-125696666D01*
X138469523Y-125791904D01*
X138279047Y-125839523D01*
X137945714Y-125839523D01*
X137755238Y-125791904D01*
X137660000Y-125696666D01*
X137612380Y-125601428D01*
X137612380Y-125410952D01*
X137660000Y-125315714D01*
X137755238Y-125220476D01*
X137945714Y-125172857D01*
X138279047Y-125172857D01*
X138469523Y-125220476D01*
X138564761Y-125315714D01*
X138612380Y-125410952D01*
X138612380Y-125601428D01*
X138612380Y-124220476D02*
X138612380Y-124791904D01*
X138612380Y-124506190D02*
X137612380Y-124506190D01*
X137755238Y-124601428D01*
X137850476Y-124696666D01*
X137898095Y-124791904D01*
G04 #@! TO.C,Q4*
X146657619Y-122355238D02*
X146610000Y-122450476D01*
X146514761Y-122545714D01*
X146371904Y-122688571D01*
X146324285Y-122783809D01*
X146324285Y-122879047D01*
X146562380Y-122831428D02*
X146514761Y-122926666D01*
X146419523Y-123021904D01*
X146229047Y-123069523D01*
X145895714Y-123069523D01*
X145705238Y-123021904D01*
X145610000Y-122926666D01*
X145562380Y-122831428D01*
X145562380Y-122640952D01*
X145610000Y-122545714D01*
X145705238Y-122450476D01*
X145895714Y-122402857D01*
X146229047Y-122402857D01*
X146419523Y-122450476D01*
X146514761Y-122545714D01*
X146562380Y-122640952D01*
X146562380Y-122831428D01*
X145895714Y-121545714D02*
X146562380Y-121545714D01*
X145514761Y-121783809D02*
X146229047Y-122021904D01*
X146229047Y-121402857D01*
G04 #@! TO.C,Q5*
X146657619Y-128345238D02*
X146610000Y-128440476D01*
X146514761Y-128535714D01*
X146371904Y-128678571D01*
X146324285Y-128773809D01*
X146324285Y-128869047D01*
X146562380Y-128821428D02*
X146514761Y-128916666D01*
X146419523Y-129011904D01*
X146229047Y-129059523D01*
X145895714Y-129059523D01*
X145705238Y-129011904D01*
X145610000Y-128916666D01*
X145562380Y-128821428D01*
X145562380Y-128630952D01*
X145610000Y-128535714D01*
X145705238Y-128440476D01*
X145895714Y-128392857D01*
X146229047Y-128392857D01*
X146419523Y-128440476D01*
X146514761Y-128535714D01*
X146562380Y-128630952D01*
X146562380Y-128821428D01*
X145562380Y-127488095D02*
X145562380Y-127964285D01*
X146038571Y-128011904D01*
X145990952Y-127964285D01*
X145943333Y-127869047D01*
X145943333Y-127630952D01*
X145990952Y-127535714D01*
X146038571Y-127488095D01*
X146133809Y-127440476D01*
X146371904Y-127440476D01*
X146467142Y-127488095D01*
X146514761Y-127535714D01*
X146562380Y-127630952D01*
X146562380Y-127869047D01*
X146514761Y-127964285D01*
X146467142Y-128011904D01*
G04 #@! TO.C,Q3*
X138617619Y-136855238D02*
X138570000Y-136950476D01*
X138474761Y-137045714D01*
X138331904Y-137188571D01*
X138284285Y-137283809D01*
X138284285Y-137379047D01*
X138522380Y-137331428D02*
X138474761Y-137426666D01*
X138379523Y-137521904D01*
X138189047Y-137569523D01*
X137855714Y-137569523D01*
X137665238Y-137521904D01*
X137570000Y-137426666D01*
X137522380Y-137331428D01*
X137522380Y-137140952D01*
X137570000Y-137045714D01*
X137665238Y-136950476D01*
X137855714Y-136902857D01*
X138189047Y-136902857D01*
X138379523Y-136950476D01*
X138474761Y-137045714D01*
X138522380Y-137140952D01*
X138522380Y-137331428D01*
X137522380Y-136569523D02*
X137522380Y-135950476D01*
X137903333Y-136283809D01*
X137903333Y-136140952D01*
X137950952Y-136045714D01*
X137998571Y-135998095D01*
X138093809Y-135950476D01*
X138331904Y-135950476D01*
X138427142Y-135998095D01*
X138474761Y-136045714D01*
X138522380Y-136140952D01*
X138522380Y-136426666D01*
X138474761Y-136521904D01*
X138427142Y-136569523D01*
G04 #@! TO.C,Q6*
X146657619Y-134335238D02*
X146610000Y-134430476D01*
X146514761Y-134525714D01*
X146371904Y-134668571D01*
X146324285Y-134763809D01*
X146324285Y-134859047D01*
X146562380Y-134811428D02*
X146514761Y-134906666D01*
X146419523Y-135001904D01*
X146229047Y-135049523D01*
X145895714Y-135049523D01*
X145705238Y-135001904D01*
X145610000Y-134906666D01*
X145562380Y-134811428D01*
X145562380Y-134620952D01*
X145610000Y-134525714D01*
X145705238Y-134430476D01*
X145895714Y-134382857D01*
X146229047Y-134382857D01*
X146419523Y-134430476D01*
X146514761Y-134525714D01*
X146562380Y-134620952D01*
X146562380Y-134811428D01*
X145562380Y-133525714D02*
X145562380Y-133716190D01*
X145610000Y-133811428D01*
X145657619Y-133859047D01*
X145800476Y-133954285D01*
X145990952Y-134001904D01*
X146371904Y-134001904D01*
X146467142Y-133954285D01*
X146514761Y-133906666D01*
X146562380Y-133811428D01*
X146562380Y-133620952D01*
X146514761Y-133525714D01*
X146467142Y-133478095D01*
X146371904Y-133430476D01*
X146133809Y-133430476D01*
X146038571Y-133478095D01*
X145990952Y-133525714D01*
X145943333Y-133620952D01*
X145943333Y-133811428D01*
X145990952Y-133906666D01*
X146038571Y-133954285D01*
X146133809Y-134001904D01*
G04 #@! TO.C,R3*
D18*
X130546666Y-118396190D02*
X130380000Y-118158095D01*
X130260952Y-118396190D02*
X130260952Y-117896190D01*
X130451428Y-117896190D01*
X130499047Y-117920000D01*
X130522857Y-117943809D01*
X130546666Y-117991428D01*
X130546666Y-118062857D01*
X130522857Y-118110476D01*
X130499047Y-118134285D01*
X130451428Y-118158095D01*
X130260952Y-118158095D01*
X130713333Y-117896190D02*
X131022857Y-117896190D01*
X130856190Y-118086666D01*
X130927619Y-118086666D01*
X130975238Y-118110476D01*
X130999047Y-118134285D01*
X131022857Y-118181904D01*
X131022857Y-118300952D01*
X130999047Y-118348571D01*
X130975238Y-118372380D01*
X130927619Y-118396190D01*
X130784761Y-118396190D01*
X130737142Y-118372380D01*
X130713333Y-118348571D01*
D13*
G04 #@! TO.C,R1*
D18*
X124306190Y-126683333D02*
X124068095Y-126850000D01*
X124306190Y-126969047D02*
X123806190Y-126969047D01*
X123806190Y-126778571D01*
X123830000Y-126730952D01*
X123853809Y-126707142D01*
X123901428Y-126683333D01*
X123972857Y-126683333D01*
X124020476Y-126707142D01*
X124044285Y-126730952D01*
X124068095Y-126778571D01*
X124068095Y-126969047D01*
X124306190Y-126207142D02*
X124306190Y-126492857D01*
X124306190Y-126350000D02*
X123806190Y-126350000D01*
X123877619Y-126397619D01*
X123925238Y-126445238D01*
X123949047Y-126492857D01*
D13*
G04 #@! TO.C,C20*
D18*
X125938571Y-133951428D02*
X125962380Y-133975238D01*
X125986190Y-134046666D01*
X125986190Y-134094285D01*
X125962380Y-134165714D01*
X125914761Y-134213333D01*
X125867142Y-134237142D01*
X125771904Y-134260952D01*
X125700476Y-134260952D01*
X125605238Y-134237142D01*
X125557619Y-134213333D01*
X125510000Y-134165714D01*
X125486190Y-134094285D01*
X125486190Y-134046666D01*
X125510000Y-133975238D01*
X125533809Y-133951428D01*
X125533809Y-133760952D02*
X125510000Y-133737142D01*
X125486190Y-133689523D01*
X125486190Y-133570476D01*
X125510000Y-133522857D01*
X125533809Y-133499047D01*
X125581428Y-133475238D01*
X125629047Y-133475238D01*
X125700476Y-133499047D01*
X125986190Y-133784761D01*
X125986190Y-133475238D01*
X125486190Y-133165714D02*
X125486190Y-133118095D01*
X125510000Y-133070476D01*
X125533809Y-133046666D01*
X125581428Y-133022857D01*
X125676666Y-132999047D01*
X125795714Y-132999047D01*
X125890952Y-133022857D01*
X125938571Y-133046666D01*
X125962380Y-133070476D01*
X125986190Y-133118095D01*
X125986190Y-133165714D01*
X125962380Y-133213333D01*
X125938571Y-133237142D01*
X125890952Y-133260952D01*
X125795714Y-133284761D01*
X125676666Y-133284761D01*
X125581428Y-133260952D01*
X125533809Y-133237142D01*
X125510000Y-133213333D01*
X125486190Y-133165714D01*
G04 #@! TO.C,C7*
X127358571Y-133513333D02*
X127382380Y-133537142D01*
X127406190Y-133608571D01*
X127406190Y-133656190D01*
X127382380Y-133727619D01*
X127334761Y-133775238D01*
X127287142Y-133799047D01*
X127191904Y-133822857D01*
X127120476Y-133822857D01*
X127025238Y-133799047D01*
X126977619Y-133775238D01*
X126930000Y-133727619D01*
X126906190Y-133656190D01*
X126906190Y-133608571D01*
X126930000Y-133537142D01*
X126953809Y-133513333D01*
X126906190Y-133346666D02*
X126906190Y-133013333D01*
X127406190Y-133227619D01*
D13*
G04 #@! TO.C,C6*
D18*
X127896666Y-116888571D02*
X127872857Y-116912380D01*
X127801428Y-116936190D01*
X127753809Y-116936190D01*
X127682380Y-116912380D01*
X127634761Y-116864761D01*
X127610952Y-116817142D01*
X127587142Y-116721904D01*
X127587142Y-116650476D01*
X127610952Y-116555238D01*
X127634761Y-116507619D01*
X127682380Y-116460000D01*
X127753809Y-116436190D01*
X127801428Y-116436190D01*
X127872857Y-116460000D01*
X127896666Y-116483809D01*
X128325238Y-116436190D02*
X128230000Y-116436190D01*
X128182380Y-116460000D01*
X128158571Y-116483809D01*
X128110952Y-116555238D01*
X128087142Y-116650476D01*
X128087142Y-116840952D01*
X128110952Y-116888571D01*
X128134761Y-116912380D01*
X128182380Y-116936190D01*
X128277619Y-116936190D01*
X128325238Y-116912380D01*
X128349047Y-116888571D01*
X128372857Y-116840952D01*
X128372857Y-116721904D01*
X128349047Y-116674285D01*
X128325238Y-116650476D01*
X128277619Y-116626666D01*
X128182380Y-116626666D01*
X128134761Y-116650476D01*
X128110952Y-116674285D01*
X128087142Y-116721904D01*
D13*
G04 #@! TO.C,C5*
D18*
X127016666Y-119148571D02*
X126992857Y-119172380D01*
X126921428Y-119196190D01*
X126873809Y-119196190D01*
X126802380Y-119172380D01*
X126754761Y-119124761D01*
X126730952Y-119077142D01*
X126707142Y-118981904D01*
X126707142Y-118910476D01*
X126730952Y-118815238D01*
X126754761Y-118767619D01*
X126802380Y-118720000D01*
X126873809Y-118696190D01*
X126921428Y-118696190D01*
X126992857Y-118720000D01*
X127016666Y-118743809D01*
X127469047Y-118696190D02*
X127230952Y-118696190D01*
X127207142Y-118934285D01*
X127230952Y-118910476D01*
X127278571Y-118886666D01*
X127397619Y-118886666D01*
X127445238Y-118910476D01*
X127469047Y-118934285D01*
X127492857Y-118981904D01*
X127492857Y-119100952D01*
X127469047Y-119148571D01*
X127445238Y-119172380D01*
X127397619Y-119196190D01*
X127278571Y-119196190D01*
X127230952Y-119172380D01*
X127207142Y-119148571D01*
D13*
G04 #@! TO.C,C4*
D18*
X127736666Y-126618571D02*
X127712857Y-126642380D01*
X127641428Y-126666190D01*
X127593809Y-126666190D01*
X127522380Y-126642380D01*
X127474761Y-126594761D01*
X127450952Y-126547142D01*
X127427142Y-126451904D01*
X127427142Y-126380476D01*
X127450952Y-126285238D01*
X127474761Y-126237619D01*
X127522380Y-126190000D01*
X127593809Y-126166190D01*
X127641428Y-126166190D01*
X127712857Y-126190000D01*
X127736666Y-126213809D01*
X128165238Y-126332857D02*
X128165238Y-126666190D01*
X128046190Y-126142380D02*
X127927142Y-126499523D01*
X128236666Y-126499523D01*
D13*
G04 #@! TO.C,C3*
D18*
X133448571Y-127913333D02*
X133472380Y-127937142D01*
X133496190Y-128008571D01*
X133496190Y-128056190D01*
X133472380Y-128127619D01*
X133424761Y-128175238D01*
X133377142Y-128199047D01*
X133281904Y-128222857D01*
X133210476Y-128222857D01*
X133115238Y-128199047D01*
X133067619Y-128175238D01*
X133020000Y-128127619D01*
X132996190Y-128056190D01*
X132996190Y-128008571D01*
X133020000Y-127937142D01*
X133043809Y-127913333D01*
X132996190Y-127746666D02*
X132996190Y-127437142D01*
X133186666Y-127603809D01*
X133186666Y-127532380D01*
X133210476Y-127484761D01*
X133234285Y-127460952D01*
X133281904Y-127437142D01*
X133400952Y-127437142D01*
X133448571Y-127460952D01*
X133472380Y-127484761D01*
X133496190Y-127532380D01*
X133496190Y-127675238D01*
X133472380Y-127722857D01*
X133448571Y-127746666D01*
D13*
G04 #@! TO.C,C2*
D18*
X134238571Y-127883333D02*
X134262380Y-127907142D01*
X134286190Y-127978571D01*
X134286190Y-128026190D01*
X134262380Y-128097619D01*
X134214761Y-128145238D01*
X134167142Y-128169047D01*
X134071904Y-128192857D01*
X134000476Y-128192857D01*
X133905238Y-128169047D01*
X133857619Y-128145238D01*
X133810000Y-128097619D01*
X133786190Y-128026190D01*
X133786190Y-127978571D01*
X133810000Y-127907142D01*
X133833809Y-127883333D01*
X133833809Y-127692857D02*
X133810000Y-127669047D01*
X133786190Y-127621428D01*
X133786190Y-127502380D01*
X133810000Y-127454761D01*
X133833809Y-127430952D01*
X133881428Y-127407142D01*
X133929047Y-127407142D01*
X134000476Y-127430952D01*
X134286190Y-127716666D01*
X134286190Y-127407142D01*
D13*
G04 #@! TO.C,C1*
D18*
X134988571Y-127853333D02*
X135012380Y-127877142D01*
X135036190Y-127948571D01*
X135036190Y-127996190D01*
X135012380Y-128067619D01*
X134964761Y-128115238D01*
X134917142Y-128139047D01*
X134821904Y-128162857D01*
X134750476Y-128162857D01*
X134655238Y-128139047D01*
X134607619Y-128115238D01*
X134560000Y-128067619D01*
X134536190Y-127996190D01*
X134536190Y-127948571D01*
X134560000Y-127877142D01*
X134583809Y-127853333D01*
X135036190Y-127377142D02*
X135036190Y-127662857D01*
X135036190Y-127520000D02*
X134536190Y-127520000D01*
X134607619Y-127567619D01*
X134655238Y-127615238D01*
X134679047Y-127662857D01*
D13*
G04 #@! TO.C,D3*
X105332380Y-129778095D02*
X104332380Y-129778095D01*
X104332380Y-129540000D01*
X104380000Y-129397142D01*
X104475238Y-129301904D01*
X104570476Y-129254285D01*
X104760952Y-129206666D01*
X104903809Y-129206666D01*
X105094285Y-129254285D01*
X105189523Y-129301904D01*
X105284761Y-129397142D01*
X105332380Y-129540000D01*
X105332380Y-129778095D01*
X104332380Y-128873333D02*
X104332380Y-128254285D01*
X104713333Y-128587619D01*
X104713333Y-128444761D01*
X104760952Y-128349523D01*
X104808571Y-128301904D01*
X104903809Y-128254285D01*
X105141904Y-128254285D01*
X105237142Y-128301904D01*
X105284761Y-128349523D01*
X105332380Y-128444761D01*
X105332380Y-128730476D01*
X105284761Y-128825714D01*
X105237142Y-128873333D01*
G04 #@! TO.C,R19*
D18*
X123236190Y-127201428D02*
X122998095Y-127368095D01*
X123236190Y-127487142D02*
X122736190Y-127487142D01*
X122736190Y-127296666D01*
X122760000Y-127249047D01*
X122783809Y-127225238D01*
X122831428Y-127201428D01*
X122902857Y-127201428D01*
X122950476Y-127225238D01*
X122974285Y-127249047D01*
X122998095Y-127296666D01*
X122998095Y-127487142D01*
X123236190Y-126725238D02*
X123236190Y-127010952D01*
X123236190Y-126868095D02*
X122736190Y-126868095D01*
X122807619Y-126915714D01*
X122855238Y-126963333D01*
X122879047Y-127010952D01*
X123236190Y-126487142D02*
X123236190Y-126391904D01*
X123212380Y-126344285D01*
X123188571Y-126320476D01*
X123117142Y-126272857D01*
X123021904Y-126249047D01*
X122831428Y-126249047D01*
X122783809Y-126272857D01*
X122760000Y-126296666D01*
X122736190Y-126344285D01*
X122736190Y-126439523D01*
X122760000Y-126487142D01*
X122783809Y-126510952D01*
X122831428Y-126534761D01*
X122950476Y-126534761D01*
X122998095Y-126510952D01*
X123021904Y-126487142D01*
X123045714Y-126439523D01*
X123045714Y-126344285D01*
X123021904Y-126296666D01*
X122998095Y-126272857D01*
X122950476Y-126249047D01*
D13*
G04 #@! TO.C,R28*
D18*
X122096190Y-127191428D02*
X121858095Y-127358095D01*
X122096190Y-127477142D02*
X121596190Y-127477142D01*
X121596190Y-127286666D01*
X121620000Y-127239047D01*
X121643809Y-127215238D01*
X121691428Y-127191428D01*
X121762857Y-127191428D01*
X121810476Y-127215238D01*
X121834285Y-127239047D01*
X121858095Y-127286666D01*
X121858095Y-127477142D01*
X121643809Y-127000952D02*
X121620000Y-126977142D01*
X121596190Y-126929523D01*
X121596190Y-126810476D01*
X121620000Y-126762857D01*
X121643809Y-126739047D01*
X121691428Y-126715238D01*
X121739047Y-126715238D01*
X121810476Y-126739047D01*
X122096190Y-127024761D01*
X122096190Y-126715238D01*
X121810476Y-126429523D02*
X121786666Y-126477142D01*
X121762857Y-126500952D01*
X121715238Y-126524761D01*
X121691428Y-126524761D01*
X121643809Y-126500952D01*
X121620000Y-126477142D01*
X121596190Y-126429523D01*
X121596190Y-126334285D01*
X121620000Y-126286666D01*
X121643809Y-126262857D01*
X121691428Y-126239047D01*
X121715238Y-126239047D01*
X121762857Y-126262857D01*
X121786666Y-126286666D01*
X121810476Y-126334285D01*
X121810476Y-126429523D01*
X121834285Y-126477142D01*
X121858095Y-126500952D01*
X121905714Y-126524761D01*
X122000952Y-126524761D01*
X122048571Y-126500952D01*
X122072380Y-126477142D01*
X122096190Y-126429523D01*
X122096190Y-126334285D01*
X122072380Y-126286666D01*
X122048571Y-126262857D01*
X122000952Y-126239047D01*
X121905714Y-126239047D01*
X121858095Y-126262857D01*
X121834285Y-126286666D01*
X121810476Y-126334285D01*
D13*
G04 #@! TO.C,R29*
D18*
X121006190Y-127191428D02*
X120768095Y-127358095D01*
X121006190Y-127477142D02*
X120506190Y-127477142D01*
X120506190Y-127286666D01*
X120530000Y-127239047D01*
X120553809Y-127215238D01*
X120601428Y-127191428D01*
X120672857Y-127191428D01*
X120720476Y-127215238D01*
X120744285Y-127239047D01*
X120768095Y-127286666D01*
X120768095Y-127477142D01*
X120553809Y-127000952D02*
X120530000Y-126977142D01*
X120506190Y-126929523D01*
X120506190Y-126810476D01*
X120530000Y-126762857D01*
X120553809Y-126739047D01*
X120601428Y-126715238D01*
X120649047Y-126715238D01*
X120720476Y-126739047D01*
X121006190Y-127024761D01*
X121006190Y-126715238D01*
X121006190Y-126477142D02*
X121006190Y-126381904D01*
X120982380Y-126334285D01*
X120958571Y-126310476D01*
X120887142Y-126262857D01*
X120791904Y-126239047D01*
X120601428Y-126239047D01*
X120553809Y-126262857D01*
X120530000Y-126286666D01*
X120506190Y-126334285D01*
X120506190Y-126429523D01*
X120530000Y-126477142D01*
X120553809Y-126500952D01*
X120601428Y-126524761D01*
X120720476Y-126524761D01*
X120768095Y-126500952D01*
X120791904Y-126477142D01*
X120815714Y-126429523D01*
X120815714Y-126334285D01*
X120791904Y-126286666D01*
X120768095Y-126262857D01*
X120720476Y-126239047D01*
D13*
G04 #@! TO.C,R30*
D18*
X119896190Y-127171428D02*
X119658095Y-127338095D01*
X119896190Y-127457142D02*
X119396190Y-127457142D01*
X119396190Y-127266666D01*
X119420000Y-127219047D01*
X119443809Y-127195238D01*
X119491428Y-127171428D01*
X119562857Y-127171428D01*
X119610476Y-127195238D01*
X119634285Y-127219047D01*
X119658095Y-127266666D01*
X119658095Y-127457142D01*
X119396190Y-127004761D02*
X119396190Y-126695238D01*
X119586666Y-126861904D01*
X119586666Y-126790476D01*
X119610476Y-126742857D01*
X119634285Y-126719047D01*
X119681904Y-126695238D01*
X119800952Y-126695238D01*
X119848571Y-126719047D01*
X119872380Y-126742857D01*
X119896190Y-126790476D01*
X119896190Y-126933333D01*
X119872380Y-126980952D01*
X119848571Y-127004761D01*
X119396190Y-126385714D02*
X119396190Y-126338095D01*
X119420000Y-126290476D01*
X119443809Y-126266666D01*
X119491428Y-126242857D01*
X119586666Y-126219047D01*
X119705714Y-126219047D01*
X119800952Y-126242857D01*
X119848571Y-126266666D01*
X119872380Y-126290476D01*
X119896190Y-126338095D01*
X119896190Y-126385714D01*
X119872380Y-126433333D01*
X119848571Y-126457142D01*
X119800952Y-126480952D01*
X119705714Y-126504761D01*
X119586666Y-126504761D01*
X119491428Y-126480952D01*
X119443809Y-126457142D01*
X119420000Y-126433333D01*
X119396190Y-126385714D01*
D13*
G04 #@! TO.C,C17*
D18*
X133458571Y-102798571D02*
X133434761Y-102822380D01*
X133363333Y-102846190D01*
X133315714Y-102846190D01*
X133244285Y-102822380D01*
X133196666Y-102774761D01*
X133172857Y-102727142D01*
X133149047Y-102631904D01*
X133149047Y-102560476D01*
X133172857Y-102465238D01*
X133196666Y-102417619D01*
X133244285Y-102370000D01*
X133315714Y-102346190D01*
X133363333Y-102346190D01*
X133434761Y-102370000D01*
X133458571Y-102393809D01*
X133934761Y-102846190D02*
X133649047Y-102846190D01*
X133791904Y-102846190D02*
X133791904Y-102346190D01*
X133744285Y-102417619D01*
X133696666Y-102465238D01*
X133649047Y-102489047D01*
X134101428Y-102346190D02*
X134434761Y-102346190D01*
X134220476Y-102846190D01*
D13*
G04 #@! TO.C,U3*
X114268095Y-124412380D02*
X114268095Y-125221904D01*
X114315714Y-125317142D01*
X114363333Y-125364761D01*
X114458571Y-125412380D01*
X114649047Y-125412380D01*
X114744285Y-125364761D01*
X114791904Y-125317142D01*
X114839523Y-125221904D01*
X114839523Y-124412380D01*
X115220476Y-124412380D02*
X115839523Y-124412380D01*
X115506190Y-124793333D01*
X115649047Y-124793333D01*
X115744285Y-124840952D01*
X115791904Y-124888571D01*
X115839523Y-124983809D01*
X115839523Y-125221904D01*
X115791904Y-125317142D01*
X115744285Y-125364761D01*
X115649047Y-125412380D01*
X115363333Y-125412380D01*
X115268095Y-125364761D01*
X115220476Y-125317142D01*
G04 #@! TO.C,J9*
X107952380Y-102423333D02*
X108666666Y-102423333D01*
X108809523Y-102470952D01*
X108904761Y-102566190D01*
X108952380Y-102709047D01*
X108952380Y-102804285D01*
X108952380Y-101899523D02*
X108952380Y-101709047D01*
X108904761Y-101613809D01*
X108857142Y-101566190D01*
X108714285Y-101470952D01*
X108523809Y-101423333D01*
X108142857Y-101423333D01*
X108047619Y-101470952D01*
X108000000Y-101518571D01*
X107952380Y-101613809D01*
X107952380Y-101804285D01*
X108000000Y-101899523D01*
X108047619Y-101947142D01*
X108142857Y-101994761D01*
X108380952Y-101994761D01*
X108476190Y-101947142D01*
X108523809Y-101899523D01*
X108571428Y-101804285D01*
X108571428Y-101613809D01*
X108523809Y-101518571D01*
X108476190Y-101470952D01*
X108380952Y-101423333D01*
G04 #@! TO.C,C24*
D18*
X109018571Y-123608571D02*
X108994761Y-123632380D01*
X108923333Y-123656190D01*
X108875714Y-123656190D01*
X108804285Y-123632380D01*
X108756666Y-123584761D01*
X108732857Y-123537142D01*
X108709047Y-123441904D01*
X108709047Y-123370476D01*
X108732857Y-123275238D01*
X108756666Y-123227619D01*
X108804285Y-123180000D01*
X108875714Y-123156190D01*
X108923333Y-123156190D01*
X108994761Y-123180000D01*
X109018571Y-123203809D01*
X109209047Y-123203809D02*
X109232857Y-123180000D01*
X109280476Y-123156190D01*
X109399523Y-123156190D01*
X109447142Y-123180000D01*
X109470952Y-123203809D01*
X109494761Y-123251428D01*
X109494761Y-123299047D01*
X109470952Y-123370476D01*
X109185238Y-123656190D01*
X109494761Y-123656190D01*
X109923333Y-123322857D02*
X109923333Y-123656190D01*
X109804285Y-123132380D02*
X109685238Y-123489523D01*
X109994761Y-123489523D01*
D13*
G04 #@! TO.C,C28*
D18*
X133438571Y-105798571D02*
X133414761Y-105822380D01*
X133343333Y-105846190D01*
X133295714Y-105846190D01*
X133224285Y-105822380D01*
X133176666Y-105774761D01*
X133152857Y-105727142D01*
X133129047Y-105631904D01*
X133129047Y-105560476D01*
X133152857Y-105465238D01*
X133176666Y-105417619D01*
X133224285Y-105370000D01*
X133295714Y-105346190D01*
X133343333Y-105346190D01*
X133414761Y-105370000D01*
X133438571Y-105393809D01*
X133629047Y-105393809D02*
X133652857Y-105370000D01*
X133700476Y-105346190D01*
X133819523Y-105346190D01*
X133867142Y-105370000D01*
X133890952Y-105393809D01*
X133914761Y-105441428D01*
X133914761Y-105489047D01*
X133890952Y-105560476D01*
X133605238Y-105846190D01*
X133914761Y-105846190D01*
X134200476Y-105560476D02*
X134152857Y-105536666D01*
X134129047Y-105512857D01*
X134105238Y-105465238D01*
X134105238Y-105441428D01*
X134129047Y-105393809D01*
X134152857Y-105370000D01*
X134200476Y-105346190D01*
X134295714Y-105346190D01*
X134343333Y-105370000D01*
X134367142Y-105393809D01*
X134390952Y-105441428D01*
X134390952Y-105465238D01*
X134367142Y-105512857D01*
X134343333Y-105536666D01*
X134295714Y-105560476D01*
X134200476Y-105560476D01*
X134152857Y-105584285D01*
X134129047Y-105608095D01*
X134105238Y-105655714D01*
X134105238Y-105750952D01*
X134129047Y-105798571D01*
X134152857Y-105822380D01*
X134200476Y-105846190D01*
X134295714Y-105846190D01*
X134343333Y-105822380D01*
X134367142Y-105798571D01*
X134390952Y-105750952D01*
X134390952Y-105655714D01*
X134367142Y-105608095D01*
X134343333Y-105584285D01*
X134295714Y-105560476D01*
D13*
G04 #@! TO.C,C30*
D18*
X129448571Y-133951428D02*
X129472380Y-133975238D01*
X129496190Y-134046666D01*
X129496190Y-134094285D01*
X129472380Y-134165714D01*
X129424761Y-134213333D01*
X129377142Y-134237142D01*
X129281904Y-134260952D01*
X129210476Y-134260952D01*
X129115238Y-134237142D01*
X129067619Y-134213333D01*
X129020000Y-134165714D01*
X128996190Y-134094285D01*
X128996190Y-134046666D01*
X129020000Y-133975238D01*
X129043809Y-133951428D01*
X128996190Y-133784761D02*
X128996190Y-133475238D01*
X129186666Y-133641904D01*
X129186666Y-133570476D01*
X129210476Y-133522857D01*
X129234285Y-133499047D01*
X129281904Y-133475238D01*
X129400952Y-133475238D01*
X129448571Y-133499047D01*
X129472380Y-133522857D01*
X129496190Y-133570476D01*
X129496190Y-133713333D01*
X129472380Y-133760952D01*
X129448571Y-133784761D01*
X128996190Y-133165714D02*
X128996190Y-133118095D01*
X129020000Y-133070476D01*
X129043809Y-133046666D01*
X129091428Y-133022857D01*
X129186666Y-132999047D01*
X129305714Y-132999047D01*
X129400952Y-133022857D01*
X129448571Y-133046666D01*
X129472380Y-133070476D01*
X129496190Y-133118095D01*
X129496190Y-133165714D01*
X129472380Y-133213333D01*
X129448571Y-133237142D01*
X129400952Y-133260952D01*
X129305714Y-133284761D01*
X129186666Y-133284761D01*
X129091428Y-133260952D01*
X129043809Y-133237142D01*
X129020000Y-133213333D01*
X128996190Y-133165714D01*
D13*
G04 #@! TO.C,Cf2*
D18*
X110413809Y-117718571D02*
X110390000Y-117742380D01*
X110318571Y-117766190D01*
X110270952Y-117766190D01*
X110199523Y-117742380D01*
X110151904Y-117694761D01*
X110128095Y-117647142D01*
X110104285Y-117551904D01*
X110104285Y-117480476D01*
X110128095Y-117385238D01*
X110151904Y-117337619D01*
X110199523Y-117290000D01*
X110270952Y-117266190D01*
X110318571Y-117266190D01*
X110390000Y-117290000D01*
X110413809Y-117313809D01*
X110556666Y-117432857D02*
X110747142Y-117432857D01*
X110628095Y-117766190D02*
X110628095Y-117337619D01*
X110651904Y-117290000D01*
X110699523Y-117266190D01*
X110747142Y-117266190D01*
X110890000Y-117313809D02*
X110913809Y-117290000D01*
X110961428Y-117266190D01*
X111080476Y-117266190D01*
X111128095Y-117290000D01*
X111151904Y-117313809D01*
X111175714Y-117361428D01*
X111175714Y-117409047D01*
X111151904Y-117480476D01*
X110866190Y-117766190D01*
X111175714Y-117766190D01*
D13*
G04 #@! TO.C,J1*
X155042023Y-116102380D02*
X155042023Y-116816666D01*
X154994404Y-116959523D01*
X154899166Y-117054761D01*
X154756309Y-117102380D01*
X154661071Y-117102380D01*
X156042023Y-117102380D02*
X155470595Y-117102380D01*
X155756309Y-117102380D02*
X155756309Y-116102380D01*
X155661071Y-116245238D01*
X155565833Y-116340476D01*
X155470595Y-116388095D01*
G04 #@! TO.C,R32*
D18*
X102448571Y-125226190D02*
X102281904Y-124988095D01*
X102162857Y-125226190D02*
X102162857Y-124726190D01*
X102353333Y-124726190D01*
X102400952Y-124750000D01*
X102424761Y-124773809D01*
X102448571Y-124821428D01*
X102448571Y-124892857D01*
X102424761Y-124940476D01*
X102400952Y-124964285D01*
X102353333Y-124988095D01*
X102162857Y-124988095D01*
X102615238Y-124726190D02*
X102924761Y-124726190D01*
X102758095Y-124916666D01*
X102829523Y-124916666D01*
X102877142Y-124940476D01*
X102900952Y-124964285D01*
X102924761Y-125011904D01*
X102924761Y-125130952D01*
X102900952Y-125178571D01*
X102877142Y-125202380D01*
X102829523Y-125226190D01*
X102686666Y-125226190D01*
X102639047Y-125202380D01*
X102615238Y-125178571D01*
X103115238Y-124773809D02*
X103139047Y-124750000D01*
X103186666Y-124726190D01*
X103305714Y-124726190D01*
X103353333Y-124750000D01*
X103377142Y-124773809D01*
X103400952Y-124821428D01*
X103400952Y-124869047D01*
X103377142Y-124940476D01*
X103091428Y-125226190D01*
X103400952Y-125226190D01*
D13*
G04 #@! TO.C,R33*
D18*
X104426190Y-124991428D02*
X104188095Y-125158095D01*
X104426190Y-125277142D02*
X103926190Y-125277142D01*
X103926190Y-125086666D01*
X103950000Y-125039047D01*
X103973809Y-125015238D01*
X104021428Y-124991428D01*
X104092857Y-124991428D01*
X104140476Y-125015238D01*
X104164285Y-125039047D01*
X104188095Y-125086666D01*
X104188095Y-125277142D01*
X103926190Y-124824761D02*
X103926190Y-124515238D01*
X104116666Y-124681904D01*
X104116666Y-124610476D01*
X104140476Y-124562857D01*
X104164285Y-124539047D01*
X104211904Y-124515238D01*
X104330952Y-124515238D01*
X104378571Y-124539047D01*
X104402380Y-124562857D01*
X104426190Y-124610476D01*
X104426190Y-124753333D01*
X104402380Y-124800952D01*
X104378571Y-124824761D01*
X103926190Y-124348571D02*
X103926190Y-124039047D01*
X104116666Y-124205714D01*
X104116666Y-124134285D01*
X104140476Y-124086666D01*
X104164285Y-124062857D01*
X104211904Y-124039047D01*
X104330952Y-124039047D01*
X104378571Y-124062857D01*
X104402380Y-124086666D01*
X104426190Y-124134285D01*
X104426190Y-124277142D01*
X104402380Y-124324761D01*
X104378571Y-124348571D01*
D13*
G04 #@! TO.C,R34*
D18*
X104426190Y-123511428D02*
X104188095Y-123678095D01*
X104426190Y-123797142D02*
X103926190Y-123797142D01*
X103926190Y-123606666D01*
X103950000Y-123559047D01*
X103973809Y-123535238D01*
X104021428Y-123511428D01*
X104092857Y-123511428D01*
X104140476Y-123535238D01*
X104164285Y-123559047D01*
X104188095Y-123606666D01*
X104188095Y-123797142D01*
X103926190Y-123344761D02*
X103926190Y-123035238D01*
X104116666Y-123201904D01*
X104116666Y-123130476D01*
X104140476Y-123082857D01*
X104164285Y-123059047D01*
X104211904Y-123035238D01*
X104330952Y-123035238D01*
X104378571Y-123059047D01*
X104402380Y-123082857D01*
X104426190Y-123130476D01*
X104426190Y-123273333D01*
X104402380Y-123320952D01*
X104378571Y-123344761D01*
X104092857Y-122606666D02*
X104426190Y-122606666D01*
X103902380Y-122725714D02*
X104259523Y-122844761D01*
X104259523Y-122535238D01*
D13*
G04 #@! TO.C,R35*
D18*
X105386190Y-124971428D02*
X105148095Y-125138095D01*
X105386190Y-125257142D02*
X104886190Y-125257142D01*
X104886190Y-125066666D01*
X104910000Y-125019047D01*
X104933809Y-124995238D01*
X104981428Y-124971428D01*
X105052857Y-124971428D01*
X105100476Y-124995238D01*
X105124285Y-125019047D01*
X105148095Y-125066666D01*
X105148095Y-125257142D01*
X104886190Y-124804761D02*
X104886190Y-124495238D01*
X105076666Y-124661904D01*
X105076666Y-124590476D01*
X105100476Y-124542857D01*
X105124285Y-124519047D01*
X105171904Y-124495238D01*
X105290952Y-124495238D01*
X105338571Y-124519047D01*
X105362380Y-124542857D01*
X105386190Y-124590476D01*
X105386190Y-124733333D01*
X105362380Y-124780952D01*
X105338571Y-124804761D01*
X104886190Y-124042857D02*
X104886190Y-124280952D01*
X105124285Y-124304761D01*
X105100476Y-124280952D01*
X105076666Y-124233333D01*
X105076666Y-124114285D01*
X105100476Y-124066666D01*
X105124285Y-124042857D01*
X105171904Y-124019047D01*
X105290952Y-124019047D01*
X105338571Y-124042857D01*
X105362380Y-124066666D01*
X105386190Y-124114285D01*
X105386190Y-124233333D01*
X105362380Y-124280952D01*
X105338571Y-124304761D01*
D13*
G04 #@! TO.C,R36*
D18*
X105366190Y-123491428D02*
X105128095Y-123658095D01*
X105366190Y-123777142D02*
X104866190Y-123777142D01*
X104866190Y-123586666D01*
X104890000Y-123539047D01*
X104913809Y-123515238D01*
X104961428Y-123491428D01*
X105032857Y-123491428D01*
X105080476Y-123515238D01*
X105104285Y-123539047D01*
X105128095Y-123586666D01*
X105128095Y-123777142D01*
X104866190Y-123324761D02*
X104866190Y-123015238D01*
X105056666Y-123181904D01*
X105056666Y-123110476D01*
X105080476Y-123062857D01*
X105104285Y-123039047D01*
X105151904Y-123015238D01*
X105270952Y-123015238D01*
X105318571Y-123039047D01*
X105342380Y-123062857D01*
X105366190Y-123110476D01*
X105366190Y-123253333D01*
X105342380Y-123300952D01*
X105318571Y-123324761D01*
X104866190Y-122586666D02*
X104866190Y-122681904D01*
X104890000Y-122729523D01*
X104913809Y-122753333D01*
X104985238Y-122800952D01*
X105080476Y-122824761D01*
X105270952Y-122824761D01*
X105318571Y-122800952D01*
X105342380Y-122777142D01*
X105366190Y-122729523D01*
X105366190Y-122634285D01*
X105342380Y-122586666D01*
X105318571Y-122562857D01*
X105270952Y-122539047D01*
X105151904Y-122539047D01*
X105104285Y-122562857D01*
X105080476Y-122586666D01*
X105056666Y-122634285D01*
X105056666Y-122729523D01*
X105080476Y-122777142D01*
X105104285Y-122800952D01*
X105151904Y-122824761D01*
D13*
G04 #@! TO.C,R37*
D18*
X106148571Y-123006190D02*
X105981904Y-122768095D01*
X105862857Y-123006190D02*
X105862857Y-122506190D01*
X106053333Y-122506190D01*
X106100952Y-122530000D01*
X106124761Y-122553809D01*
X106148571Y-122601428D01*
X106148571Y-122672857D01*
X106124761Y-122720476D01*
X106100952Y-122744285D01*
X106053333Y-122768095D01*
X105862857Y-122768095D01*
X106315238Y-122506190D02*
X106624761Y-122506190D01*
X106458095Y-122696666D01*
X106529523Y-122696666D01*
X106577142Y-122720476D01*
X106600952Y-122744285D01*
X106624761Y-122791904D01*
X106624761Y-122910952D01*
X106600952Y-122958571D01*
X106577142Y-122982380D01*
X106529523Y-123006190D01*
X106386666Y-123006190D01*
X106339047Y-122982380D01*
X106315238Y-122958571D01*
X106791428Y-122506190D02*
X107124761Y-122506190D01*
X106910476Y-123006190D01*
D13*
G04 #@! TO.C,R38*
D18*
X106028571Y-118146190D02*
X105861904Y-117908095D01*
X105742857Y-118146190D02*
X105742857Y-117646190D01*
X105933333Y-117646190D01*
X105980952Y-117670000D01*
X106004761Y-117693809D01*
X106028571Y-117741428D01*
X106028571Y-117812857D01*
X106004761Y-117860476D01*
X105980952Y-117884285D01*
X105933333Y-117908095D01*
X105742857Y-117908095D01*
X106195238Y-117646190D02*
X106504761Y-117646190D01*
X106338095Y-117836666D01*
X106409523Y-117836666D01*
X106457142Y-117860476D01*
X106480952Y-117884285D01*
X106504761Y-117931904D01*
X106504761Y-118050952D01*
X106480952Y-118098571D01*
X106457142Y-118122380D01*
X106409523Y-118146190D01*
X106266666Y-118146190D01*
X106219047Y-118122380D01*
X106195238Y-118098571D01*
X106790476Y-117860476D02*
X106742857Y-117836666D01*
X106719047Y-117812857D01*
X106695238Y-117765238D01*
X106695238Y-117741428D01*
X106719047Y-117693809D01*
X106742857Y-117670000D01*
X106790476Y-117646190D01*
X106885714Y-117646190D01*
X106933333Y-117670000D01*
X106957142Y-117693809D01*
X106980952Y-117741428D01*
X106980952Y-117765238D01*
X106957142Y-117812857D01*
X106933333Y-117836666D01*
X106885714Y-117860476D01*
X106790476Y-117860476D01*
X106742857Y-117884285D01*
X106719047Y-117908095D01*
X106695238Y-117955714D01*
X106695238Y-118050952D01*
X106719047Y-118098571D01*
X106742857Y-118122380D01*
X106790476Y-118146190D01*
X106885714Y-118146190D01*
X106933333Y-118122380D01*
X106957142Y-118098571D01*
X106980952Y-118050952D01*
X106980952Y-117955714D01*
X106957142Y-117908095D01*
X106933333Y-117884285D01*
X106885714Y-117860476D01*
D13*
G04 #@! TO.C,R39*
D18*
X128006190Y-107991428D02*
X127768095Y-108158095D01*
X128006190Y-108277142D02*
X127506190Y-108277142D01*
X127506190Y-108086666D01*
X127530000Y-108039047D01*
X127553809Y-108015238D01*
X127601428Y-107991428D01*
X127672857Y-107991428D01*
X127720476Y-108015238D01*
X127744285Y-108039047D01*
X127768095Y-108086666D01*
X127768095Y-108277142D01*
X127506190Y-107824761D02*
X127506190Y-107515238D01*
X127696666Y-107681904D01*
X127696666Y-107610476D01*
X127720476Y-107562857D01*
X127744285Y-107539047D01*
X127791904Y-107515238D01*
X127910952Y-107515238D01*
X127958571Y-107539047D01*
X127982380Y-107562857D01*
X128006190Y-107610476D01*
X128006190Y-107753333D01*
X127982380Y-107800952D01*
X127958571Y-107824761D01*
X128006190Y-107277142D02*
X128006190Y-107181904D01*
X127982380Y-107134285D01*
X127958571Y-107110476D01*
X127887142Y-107062857D01*
X127791904Y-107039047D01*
X127601428Y-107039047D01*
X127553809Y-107062857D01*
X127530000Y-107086666D01*
X127506190Y-107134285D01*
X127506190Y-107229523D01*
X127530000Y-107277142D01*
X127553809Y-107300952D01*
X127601428Y-107324761D01*
X127720476Y-107324761D01*
X127768095Y-107300952D01*
X127791904Y-107277142D01*
X127815714Y-107229523D01*
X127815714Y-107134285D01*
X127791904Y-107086666D01*
X127768095Y-107062857D01*
X127720476Y-107039047D01*
D13*
G04 #@! TO.C,R40*
D18*
X117168571Y-107656190D02*
X117001904Y-107418095D01*
X116882857Y-107656190D02*
X116882857Y-107156190D01*
X117073333Y-107156190D01*
X117120952Y-107180000D01*
X117144761Y-107203809D01*
X117168571Y-107251428D01*
X117168571Y-107322857D01*
X117144761Y-107370476D01*
X117120952Y-107394285D01*
X117073333Y-107418095D01*
X116882857Y-107418095D01*
X117597142Y-107322857D02*
X117597142Y-107656190D01*
X117478095Y-107132380D02*
X117359047Y-107489523D01*
X117668571Y-107489523D01*
X117954285Y-107156190D02*
X118001904Y-107156190D01*
X118049523Y-107180000D01*
X118073333Y-107203809D01*
X118097142Y-107251428D01*
X118120952Y-107346666D01*
X118120952Y-107465714D01*
X118097142Y-107560952D01*
X118073333Y-107608571D01*
X118049523Y-107632380D01*
X118001904Y-107656190D01*
X117954285Y-107656190D01*
X117906666Y-107632380D01*
X117882857Y-107608571D01*
X117859047Y-107560952D01*
X117835238Y-107465714D01*
X117835238Y-107346666D01*
X117859047Y-107251428D01*
X117882857Y-107203809D01*
X117906666Y-107180000D01*
X117954285Y-107156190D01*
D13*
G04 #@! TO.C,R41*
D18*
X119483809Y-109198571D02*
X119721904Y-109031904D01*
X119483809Y-108912857D02*
X119983809Y-108912857D01*
X119983809Y-109103333D01*
X119960000Y-109150952D01*
X119936190Y-109174761D01*
X119888571Y-109198571D01*
X119817142Y-109198571D01*
X119769523Y-109174761D01*
X119745714Y-109150952D01*
X119721904Y-109103333D01*
X119721904Y-108912857D01*
X119817142Y-109627142D02*
X119483809Y-109627142D01*
X120007619Y-109508095D02*
X119650476Y-109389047D01*
X119650476Y-109698571D01*
X119483809Y-110150952D02*
X119483809Y-109865238D01*
X119483809Y-110008095D02*
X119983809Y-110008095D01*
X119912380Y-109960476D01*
X119864761Y-109912857D01*
X119840952Y-109865238D01*
D13*
G04 #@! TO.C,R42*
D18*
X120733809Y-109198571D02*
X120971904Y-109031904D01*
X120733809Y-108912857D02*
X121233809Y-108912857D01*
X121233809Y-109103333D01*
X121210000Y-109150952D01*
X121186190Y-109174761D01*
X121138571Y-109198571D01*
X121067142Y-109198571D01*
X121019523Y-109174761D01*
X120995714Y-109150952D01*
X120971904Y-109103333D01*
X120971904Y-108912857D01*
X121067142Y-109627142D02*
X120733809Y-109627142D01*
X121257619Y-109508095D02*
X120900476Y-109389047D01*
X120900476Y-109698571D01*
X121186190Y-109865238D02*
X121210000Y-109889047D01*
X121233809Y-109936666D01*
X121233809Y-110055714D01*
X121210000Y-110103333D01*
X121186190Y-110127142D01*
X121138571Y-110150952D01*
X121090952Y-110150952D01*
X121019523Y-110127142D01*
X120733809Y-109841428D01*
X120733809Y-110150952D01*
D13*
G04 #@! TO.C,R43*
D18*
X148696190Y-105541428D02*
X148458095Y-105708095D01*
X148696190Y-105827142D02*
X148196190Y-105827142D01*
X148196190Y-105636666D01*
X148220000Y-105589047D01*
X148243809Y-105565238D01*
X148291428Y-105541428D01*
X148362857Y-105541428D01*
X148410476Y-105565238D01*
X148434285Y-105589047D01*
X148458095Y-105636666D01*
X148458095Y-105827142D01*
X148362857Y-105112857D02*
X148696190Y-105112857D01*
X148172380Y-105231904D02*
X148529523Y-105350952D01*
X148529523Y-105041428D01*
X148196190Y-104898571D02*
X148196190Y-104589047D01*
X148386666Y-104755714D01*
X148386666Y-104684285D01*
X148410476Y-104636666D01*
X148434285Y-104612857D01*
X148481904Y-104589047D01*
X148600952Y-104589047D01*
X148648571Y-104612857D01*
X148672380Y-104636666D01*
X148696190Y-104684285D01*
X148696190Y-104827142D01*
X148672380Y-104874761D01*
X148648571Y-104898571D01*
D13*
G04 #@! TO.C,R45*
D18*
X117028571Y-119006190D02*
X116861904Y-118768095D01*
X116742857Y-119006190D02*
X116742857Y-118506190D01*
X116933333Y-118506190D01*
X116980952Y-118530000D01*
X117004761Y-118553809D01*
X117028571Y-118601428D01*
X117028571Y-118672857D01*
X117004761Y-118720476D01*
X116980952Y-118744285D01*
X116933333Y-118768095D01*
X116742857Y-118768095D01*
X117457142Y-118672857D02*
X117457142Y-119006190D01*
X117338095Y-118482380D02*
X117219047Y-118839523D01*
X117528571Y-118839523D01*
X117957142Y-118506190D02*
X117719047Y-118506190D01*
X117695238Y-118744285D01*
X117719047Y-118720476D01*
X117766666Y-118696666D01*
X117885714Y-118696666D01*
X117933333Y-118720476D01*
X117957142Y-118744285D01*
X117980952Y-118791904D01*
X117980952Y-118910952D01*
X117957142Y-118958571D01*
X117933333Y-118982380D01*
X117885714Y-119006190D01*
X117766666Y-119006190D01*
X117719047Y-118982380D01*
X117695238Y-118958571D01*
D13*
G04 #@! TO.C,R46*
D18*
X117128571Y-105746190D02*
X116961904Y-105508095D01*
X116842857Y-105746190D02*
X116842857Y-105246190D01*
X117033333Y-105246190D01*
X117080952Y-105270000D01*
X117104761Y-105293809D01*
X117128571Y-105341428D01*
X117128571Y-105412857D01*
X117104761Y-105460476D01*
X117080952Y-105484285D01*
X117033333Y-105508095D01*
X116842857Y-105508095D01*
X117557142Y-105412857D02*
X117557142Y-105746190D01*
X117438095Y-105222380D02*
X117319047Y-105579523D01*
X117628571Y-105579523D01*
X118033333Y-105246190D02*
X117938095Y-105246190D01*
X117890476Y-105270000D01*
X117866666Y-105293809D01*
X117819047Y-105365238D01*
X117795238Y-105460476D01*
X117795238Y-105650952D01*
X117819047Y-105698571D01*
X117842857Y-105722380D01*
X117890476Y-105746190D01*
X117985714Y-105746190D01*
X118033333Y-105722380D01*
X118057142Y-105698571D01*
X118080952Y-105650952D01*
X118080952Y-105531904D01*
X118057142Y-105484285D01*
X118033333Y-105460476D01*
X117985714Y-105436666D01*
X117890476Y-105436666D01*
X117842857Y-105460476D01*
X117819047Y-105484285D01*
X117795238Y-105531904D01*
D13*
G04 #@! TO.C,R48*
D18*
X125146190Y-106481428D02*
X124908095Y-106648095D01*
X125146190Y-106767142D02*
X124646190Y-106767142D01*
X124646190Y-106576666D01*
X124670000Y-106529047D01*
X124693809Y-106505238D01*
X124741428Y-106481428D01*
X124812857Y-106481428D01*
X124860476Y-106505238D01*
X124884285Y-106529047D01*
X124908095Y-106576666D01*
X124908095Y-106767142D01*
X124812857Y-106052857D02*
X125146190Y-106052857D01*
X124622380Y-106171904D02*
X124979523Y-106290952D01*
X124979523Y-105981428D01*
X124860476Y-105719523D02*
X124836666Y-105767142D01*
X124812857Y-105790952D01*
X124765238Y-105814761D01*
X124741428Y-105814761D01*
X124693809Y-105790952D01*
X124670000Y-105767142D01*
X124646190Y-105719523D01*
X124646190Y-105624285D01*
X124670000Y-105576666D01*
X124693809Y-105552857D01*
X124741428Y-105529047D01*
X124765238Y-105529047D01*
X124812857Y-105552857D01*
X124836666Y-105576666D01*
X124860476Y-105624285D01*
X124860476Y-105719523D01*
X124884285Y-105767142D01*
X124908095Y-105790952D01*
X124955714Y-105814761D01*
X125050952Y-105814761D01*
X125098571Y-105790952D01*
X125122380Y-105767142D01*
X125146190Y-105719523D01*
X125146190Y-105624285D01*
X125122380Y-105576666D01*
X125098571Y-105552857D01*
X125050952Y-105529047D01*
X124955714Y-105529047D01*
X124908095Y-105552857D01*
X124884285Y-105576666D01*
X124860476Y-105624285D01*
D13*
G04 #@! TO.C,U4*
X112648095Y-110532380D02*
X112648095Y-111341904D01*
X112695714Y-111437142D01*
X112743333Y-111484761D01*
X112838571Y-111532380D01*
X113029047Y-111532380D01*
X113124285Y-111484761D01*
X113171904Y-111437142D01*
X113219523Y-111341904D01*
X113219523Y-110532380D01*
X114124285Y-110865714D02*
X114124285Y-111532380D01*
X113886190Y-110484761D02*
X113648095Y-111199047D01*
X114267142Y-111199047D01*
G04 #@! TO.C,U5*
X112758095Y-117042380D02*
X112758095Y-117851904D01*
X112805714Y-117947142D01*
X112853333Y-117994761D01*
X112948571Y-118042380D01*
X113139047Y-118042380D01*
X113234285Y-117994761D01*
X113281904Y-117947142D01*
X113329523Y-117851904D01*
X113329523Y-117042380D01*
X114281904Y-117042380D02*
X113805714Y-117042380D01*
X113758095Y-117518571D01*
X113805714Y-117470952D01*
X113900952Y-117423333D01*
X114139047Y-117423333D01*
X114234285Y-117470952D01*
X114281904Y-117518571D01*
X114329523Y-117613809D01*
X114329523Y-117851904D01*
X114281904Y-117947142D01*
X114234285Y-117994761D01*
X114139047Y-118042380D01*
X113900952Y-118042380D01*
X113805714Y-117994761D01*
X113758095Y-117947142D01*
G04 #@! TO.C,C13*
D18*
X124888571Y-115408571D02*
X124864761Y-115432380D01*
X124793333Y-115456190D01*
X124745714Y-115456190D01*
X124674285Y-115432380D01*
X124626666Y-115384761D01*
X124602857Y-115337142D01*
X124579047Y-115241904D01*
X124579047Y-115170476D01*
X124602857Y-115075238D01*
X124626666Y-115027619D01*
X124674285Y-114980000D01*
X124745714Y-114956190D01*
X124793333Y-114956190D01*
X124864761Y-114980000D01*
X124888571Y-115003809D01*
X125364761Y-115456190D02*
X125079047Y-115456190D01*
X125221904Y-115456190D02*
X125221904Y-114956190D01*
X125174285Y-115027619D01*
X125126666Y-115075238D01*
X125079047Y-115099047D01*
X125531428Y-114956190D02*
X125840952Y-114956190D01*
X125674285Y-115146666D01*
X125745714Y-115146666D01*
X125793333Y-115170476D01*
X125817142Y-115194285D01*
X125840952Y-115241904D01*
X125840952Y-115360952D01*
X125817142Y-115408571D01*
X125793333Y-115432380D01*
X125745714Y-115456190D01*
X125602857Y-115456190D01*
X125555238Y-115432380D01*
X125531428Y-115408571D01*
D13*
G04 #@! TO.C,J6*
X120136666Y-105512380D02*
X120136666Y-106226666D01*
X120089047Y-106369523D01*
X119993809Y-106464761D01*
X119850952Y-106512380D01*
X119755714Y-106512380D01*
X121041428Y-105512380D02*
X120850952Y-105512380D01*
X120755714Y-105560000D01*
X120708095Y-105607619D01*
X120612857Y-105750476D01*
X120565238Y-105940952D01*
X120565238Y-106321904D01*
X120612857Y-106417142D01*
X120660476Y-106464761D01*
X120755714Y-106512380D01*
X120946190Y-106512380D01*
X121041428Y-106464761D01*
X121089047Y-106417142D01*
X121136666Y-106321904D01*
X121136666Y-106083809D01*
X121089047Y-105988571D01*
X121041428Y-105940952D01*
X120946190Y-105893333D01*
X120755714Y-105893333D01*
X120660476Y-105940952D01*
X120612857Y-105988571D01*
X120565238Y-106083809D01*
G04 #@! TO.C,U9*
X113442380Y-113951904D02*
X114251904Y-113951904D01*
X114347142Y-113904285D01*
X114394761Y-113856666D01*
X114442380Y-113761428D01*
X114442380Y-113570952D01*
X114394761Y-113475714D01*
X114347142Y-113428095D01*
X114251904Y-113380476D01*
X113442380Y-113380476D01*
X114442380Y-112856666D02*
X114442380Y-112666190D01*
X114394761Y-112570952D01*
X114347142Y-112523333D01*
X114204285Y-112428095D01*
X114013809Y-112380476D01*
X113632857Y-112380476D01*
X113537619Y-112428095D01*
X113490000Y-112475714D01*
X113442380Y-112570952D01*
X113442380Y-112761428D01*
X113490000Y-112856666D01*
X113537619Y-112904285D01*
X113632857Y-112951904D01*
X113870952Y-112951904D01*
X113966190Y-112904285D01*
X114013809Y-112856666D01*
X114061428Y-112761428D01*
X114061428Y-112570952D01*
X114013809Y-112475714D01*
X113966190Y-112428095D01*
X113870952Y-112380476D01*
G04 #@! TO.C,SW2*
X127154761Y-104333333D02*
X127202380Y-104190476D01*
X127202380Y-103952380D01*
X127154761Y-103857142D01*
X127107142Y-103809523D01*
X127011904Y-103761904D01*
X126916666Y-103761904D01*
X126821428Y-103809523D01*
X126773809Y-103857142D01*
X126726190Y-103952380D01*
X126678571Y-104142857D01*
X126630952Y-104238095D01*
X126583333Y-104285714D01*
X126488095Y-104333333D01*
X126392857Y-104333333D01*
X126297619Y-104285714D01*
X126250000Y-104238095D01*
X126202380Y-104142857D01*
X126202380Y-103904761D01*
X126250000Y-103761904D01*
X126202380Y-103428571D02*
X127202380Y-103190476D01*
X126488095Y-103000000D01*
X127202380Y-102809523D01*
X126202380Y-102571428D01*
X126297619Y-102238095D02*
X126250000Y-102190476D01*
X126202380Y-102095238D01*
X126202380Y-101857142D01*
X126250000Y-101761904D01*
X126297619Y-101714285D01*
X126392857Y-101666666D01*
X126488095Y-101666666D01*
X126630952Y-101714285D01*
X127202380Y-102285714D01*
X127202380Y-101666666D01*
G04 #@! TO.C,U7*
D18*
X130829047Y-103506190D02*
X130829047Y-103910952D01*
X130852857Y-103958571D01*
X130876666Y-103982380D01*
X130924285Y-104006190D01*
X131019523Y-104006190D01*
X131067142Y-103982380D01*
X131090952Y-103958571D01*
X131114761Y-103910952D01*
X131114761Y-103506190D01*
X131305238Y-103506190D02*
X131638571Y-103506190D01*
X131424285Y-104006190D01*
D13*
G04 #@! TO.C,U10*
D18*
X131850952Y-111426190D02*
X131850952Y-111830952D01*
X131874761Y-111878571D01*
X131898571Y-111902380D01*
X131946190Y-111926190D01*
X132041428Y-111926190D01*
X132089047Y-111902380D01*
X132112857Y-111878571D01*
X132136666Y-111830952D01*
X132136666Y-111426190D01*
X132636666Y-111926190D02*
X132350952Y-111926190D01*
X132493809Y-111926190D02*
X132493809Y-111426190D01*
X132446190Y-111497619D01*
X132398571Y-111545238D01*
X132350952Y-111569047D01*
X132946190Y-111426190D02*
X132993809Y-111426190D01*
X133041428Y-111450000D01*
X133065238Y-111473809D01*
X133089047Y-111521428D01*
X133112857Y-111616666D01*
X133112857Y-111735714D01*
X133089047Y-111830952D01*
X133065238Y-111878571D01*
X133041428Y-111902380D01*
X132993809Y-111926190D01*
X132946190Y-111926190D01*
X132898571Y-111902380D01*
X132874761Y-111878571D01*
X132850952Y-111830952D01*
X132827142Y-111735714D01*
X132827142Y-111616666D01*
X132850952Y-111521428D01*
X132874761Y-111473809D01*
X132898571Y-111450000D01*
X132946190Y-111426190D01*
D13*
G04 #@! TO.C,C14*
D18*
X124888571Y-112618571D02*
X124864761Y-112642380D01*
X124793333Y-112666190D01*
X124745714Y-112666190D01*
X124674285Y-112642380D01*
X124626666Y-112594761D01*
X124602857Y-112547142D01*
X124579047Y-112451904D01*
X124579047Y-112380476D01*
X124602857Y-112285238D01*
X124626666Y-112237619D01*
X124674285Y-112190000D01*
X124745714Y-112166190D01*
X124793333Y-112166190D01*
X124864761Y-112190000D01*
X124888571Y-112213809D01*
X125364761Y-112666190D02*
X125079047Y-112666190D01*
X125221904Y-112666190D02*
X125221904Y-112166190D01*
X125174285Y-112237619D01*
X125126666Y-112285238D01*
X125079047Y-112309047D01*
X125793333Y-112332857D02*
X125793333Y-112666190D01*
X125674285Y-112142380D02*
X125555238Y-112499523D01*
X125864761Y-112499523D01*
D13*
G04 #@! TO.C,C15*
D18*
X124038571Y-106501428D02*
X124062380Y-106525238D01*
X124086190Y-106596666D01*
X124086190Y-106644285D01*
X124062380Y-106715714D01*
X124014761Y-106763333D01*
X123967142Y-106787142D01*
X123871904Y-106810952D01*
X123800476Y-106810952D01*
X123705238Y-106787142D01*
X123657619Y-106763333D01*
X123610000Y-106715714D01*
X123586190Y-106644285D01*
X123586190Y-106596666D01*
X123610000Y-106525238D01*
X123633809Y-106501428D01*
X124086190Y-106025238D02*
X124086190Y-106310952D01*
X124086190Y-106168095D02*
X123586190Y-106168095D01*
X123657619Y-106215714D01*
X123705238Y-106263333D01*
X123729047Y-106310952D01*
X123586190Y-105572857D02*
X123586190Y-105810952D01*
X123824285Y-105834761D01*
X123800476Y-105810952D01*
X123776666Y-105763333D01*
X123776666Y-105644285D01*
X123800476Y-105596666D01*
X123824285Y-105572857D01*
X123871904Y-105549047D01*
X123990952Y-105549047D01*
X124038571Y-105572857D01*
X124062380Y-105596666D01*
X124086190Y-105644285D01*
X124086190Y-105763333D01*
X124062380Y-105810952D01*
X124038571Y-105834761D01*
D13*
G04 #@! TO.C,C16*
D18*
X130528571Y-115371428D02*
X130552380Y-115395238D01*
X130576190Y-115466666D01*
X130576190Y-115514285D01*
X130552380Y-115585714D01*
X130504761Y-115633333D01*
X130457142Y-115657142D01*
X130361904Y-115680952D01*
X130290476Y-115680952D01*
X130195238Y-115657142D01*
X130147619Y-115633333D01*
X130100000Y-115585714D01*
X130076190Y-115514285D01*
X130076190Y-115466666D01*
X130100000Y-115395238D01*
X130123809Y-115371428D01*
X130576190Y-114895238D02*
X130576190Y-115180952D01*
X130576190Y-115038095D02*
X130076190Y-115038095D01*
X130147619Y-115085714D01*
X130195238Y-115133333D01*
X130219047Y-115180952D01*
X130076190Y-114466666D02*
X130076190Y-114561904D01*
X130100000Y-114609523D01*
X130123809Y-114633333D01*
X130195238Y-114680952D01*
X130290476Y-114704761D01*
X130480952Y-114704761D01*
X130528571Y-114680952D01*
X130552380Y-114657142D01*
X130576190Y-114609523D01*
X130576190Y-114514285D01*
X130552380Y-114466666D01*
X130528571Y-114442857D01*
X130480952Y-114419047D01*
X130361904Y-114419047D01*
X130314285Y-114442857D01*
X130290476Y-114466666D01*
X130266666Y-114514285D01*
X130266666Y-114609523D01*
X130290476Y-114657142D01*
X130314285Y-114680952D01*
X130361904Y-114704761D01*
D13*
G04 #@! TO.C,C29*
D18*
X134118571Y-111098571D02*
X134094761Y-111122380D01*
X134023333Y-111146190D01*
X133975714Y-111146190D01*
X133904285Y-111122380D01*
X133856666Y-111074761D01*
X133832857Y-111027142D01*
X133809047Y-110931904D01*
X133809047Y-110860476D01*
X133832857Y-110765238D01*
X133856666Y-110717619D01*
X133904285Y-110670000D01*
X133975714Y-110646190D01*
X134023333Y-110646190D01*
X134094761Y-110670000D01*
X134118571Y-110693809D01*
X134309047Y-110693809D02*
X134332857Y-110670000D01*
X134380476Y-110646190D01*
X134499523Y-110646190D01*
X134547142Y-110670000D01*
X134570952Y-110693809D01*
X134594761Y-110741428D01*
X134594761Y-110789047D01*
X134570952Y-110860476D01*
X134285238Y-111146190D01*
X134594761Y-111146190D01*
X134832857Y-111146190D02*
X134928095Y-111146190D01*
X134975714Y-111122380D01*
X134999523Y-111098571D01*
X135047142Y-111027142D01*
X135070952Y-110931904D01*
X135070952Y-110741428D01*
X135047142Y-110693809D01*
X135023333Y-110670000D01*
X134975714Y-110646190D01*
X134880476Y-110646190D01*
X134832857Y-110670000D01*
X134809047Y-110693809D01*
X134785238Y-110741428D01*
X134785238Y-110860476D01*
X134809047Y-110908095D01*
X134832857Y-110931904D01*
X134880476Y-110955714D01*
X134975714Y-110955714D01*
X135023333Y-110931904D01*
X135047142Y-110908095D01*
X135070952Y-110860476D01*
D13*
G04 #@! TO.C,C37*
D18*
X132428571Y-109248571D02*
X132404761Y-109272380D01*
X132333333Y-109296190D01*
X132285714Y-109296190D01*
X132214285Y-109272380D01*
X132166666Y-109224761D01*
X132142857Y-109177142D01*
X132119047Y-109081904D01*
X132119047Y-109010476D01*
X132142857Y-108915238D01*
X132166666Y-108867619D01*
X132214285Y-108820000D01*
X132285714Y-108796190D01*
X132333333Y-108796190D01*
X132404761Y-108820000D01*
X132428571Y-108843809D01*
X132595238Y-108796190D02*
X132904761Y-108796190D01*
X132738095Y-108986666D01*
X132809523Y-108986666D01*
X132857142Y-109010476D01*
X132880952Y-109034285D01*
X132904761Y-109081904D01*
X132904761Y-109200952D01*
X132880952Y-109248571D01*
X132857142Y-109272380D01*
X132809523Y-109296190D01*
X132666666Y-109296190D01*
X132619047Y-109272380D01*
X132595238Y-109248571D01*
X133071428Y-108796190D02*
X133404761Y-108796190D01*
X133190476Y-109296190D01*
D13*
G04 #@! TO.C,C38*
D18*
X128888571Y-107638571D02*
X128864761Y-107662380D01*
X128793333Y-107686190D01*
X128745714Y-107686190D01*
X128674285Y-107662380D01*
X128626666Y-107614761D01*
X128602857Y-107567142D01*
X128579047Y-107471904D01*
X128579047Y-107400476D01*
X128602857Y-107305238D01*
X128626666Y-107257619D01*
X128674285Y-107210000D01*
X128745714Y-107186190D01*
X128793333Y-107186190D01*
X128864761Y-107210000D01*
X128888571Y-107233809D01*
X129055238Y-107186190D02*
X129364761Y-107186190D01*
X129198095Y-107376666D01*
X129269523Y-107376666D01*
X129317142Y-107400476D01*
X129340952Y-107424285D01*
X129364761Y-107471904D01*
X129364761Y-107590952D01*
X129340952Y-107638571D01*
X129317142Y-107662380D01*
X129269523Y-107686190D01*
X129126666Y-107686190D01*
X129079047Y-107662380D01*
X129055238Y-107638571D01*
X129650476Y-107400476D02*
X129602857Y-107376666D01*
X129579047Y-107352857D01*
X129555238Y-107305238D01*
X129555238Y-107281428D01*
X129579047Y-107233809D01*
X129602857Y-107210000D01*
X129650476Y-107186190D01*
X129745714Y-107186190D01*
X129793333Y-107210000D01*
X129817142Y-107233809D01*
X129840952Y-107281428D01*
X129840952Y-107305238D01*
X129817142Y-107352857D01*
X129793333Y-107376666D01*
X129745714Y-107400476D01*
X129650476Y-107400476D01*
X129602857Y-107424285D01*
X129579047Y-107448095D01*
X129555238Y-107495714D01*
X129555238Y-107590952D01*
X129579047Y-107638571D01*
X129602857Y-107662380D01*
X129650476Y-107686190D01*
X129745714Y-107686190D01*
X129793333Y-107662380D01*
X129817142Y-107638571D01*
X129840952Y-107590952D01*
X129840952Y-107495714D01*
X129817142Y-107448095D01*
X129793333Y-107424285D01*
X129745714Y-107400476D01*
D13*
G04 #@! TO.C,C39*
D18*
X124888571Y-110298571D02*
X124864761Y-110322380D01*
X124793333Y-110346190D01*
X124745714Y-110346190D01*
X124674285Y-110322380D01*
X124626666Y-110274761D01*
X124602857Y-110227142D01*
X124579047Y-110131904D01*
X124579047Y-110060476D01*
X124602857Y-109965238D01*
X124626666Y-109917619D01*
X124674285Y-109870000D01*
X124745714Y-109846190D01*
X124793333Y-109846190D01*
X124864761Y-109870000D01*
X124888571Y-109893809D01*
X125055238Y-109846190D02*
X125364761Y-109846190D01*
X125198095Y-110036666D01*
X125269523Y-110036666D01*
X125317142Y-110060476D01*
X125340952Y-110084285D01*
X125364761Y-110131904D01*
X125364761Y-110250952D01*
X125340952Y-110298571D01*
X125317142Y-110322380D01*
X125269523Y-110346190D01*
X125126666Y-110346190D01*
X125079047Y-110322380D01*
X125055238Y-110298571D01*
X125602857Y-110346190D02*
X125698095Y-110346190D01*
X125745714Y-110322380D01*
X125769523Y-110298571D01*
X125817142Y-110227142D01*
X125840952Y-110131904D01*
X125840952Y-109941428D01*
X125817142Y-109893809D01*
X125793333Y-109870000D01*
X125745714Y-109846190D01*
X125650476Y-109846190D01*
X125602857Y-109870000D01*
X125579047Y-109893809D01*
X125555238Y-109941428D01*
X125555238Y-110060476D01*
X125579047Y-110108095D01*
X125602857Y-110131904D01*
X125650476Y-110155714D01*
X125745714Y-110155714D01*
X125793333Y-110131904D01*
X125817142Y-110108095D01*
X125840952Y-110060476D01*
D13*
G04 #@! TO.C,C41*
D18*
X128928571Y-108358571D02*
X128904761Y-108382380D01*
X128833333Y-108406190D01*
X128785714Y-108406190D01*
X128714285Y-108382380D01*
X128666666Y-108334761D01*
X128642857Y-108287142D01*
X128619047Y-108191904D01*
X128619047Y-108120476D01*
X128642857Y-108025238D01*
X128666666Y-107977619D01*
X128714285Y-107930000D01*
X128785714Y-107906190D01*
X128833333Y-107906190D01*
X128904761Y-107930000D01*
X128928571Y-107953809D01*
X129357142Y-108072857D02*
X129357142Y-108406190D01*
X129238095Y-107882380D02*
X129119047Y-108239523D01*
X129428571Y-108239523D01*
X129880952Y-108406190D02*
X129595238Y-108406190D01*
X129738095Y-108406190D02*
X129738095Y-107906190D01*
X129690476Y-107977619D01*
X129642857Y-108025238D01*
X129595238Y-108049047D01*
D13*
G04 #@! TO.C,C42*
D18*
X133798571Y-107531428D02*
X133822380Y-107555238D01*
X133846190Y-107626666D01*
X133846190Y-107674285D01*
X133822380Y-107745714D01*
X133774761Y-107793333D01*
X133727142Y-107817142D01*
X133631904Y-107840952D01*
X133560476Y-107840952D01*
X133465238Y-107817142D01*
X133417619Y-107793333D01*
X133370000Y-107745714D01*
X133346190Y-107674285D01*
X133346190Y-107626666D01*
X133370000Y-107555238D01*
X133393809Y-107531428D01*
X133512857Y-107102857D02*
X133846190Y-107102857D01*
X133322380Y-107221904D02*
X133679523Y-107340952D01*
X133679523Y-107031428D01*
X133393809Y-106864761D02*
X133370000Y-106840952D01*
X133346190Y-106793333D01*
X133346190Y-106674285D01*
X133370000Y-106626666D01*
X133393809Y-106602857D01*
X133441428Y-106579047D01*
X133489047Y-106579047D01*
X133560476Y-106602857D01*
X133846190Y-106888571D01*
X133846190Y-106579047D01*
D13*
G04 #@! TO.C,C43*
D18*
X129868571Y-115391428D02*
X129892380Y-115415238D01*
X129916190Y-115486666D01*
X129916190Y-115534285D01*
X129892380Y-115605714D01*
X129844761Y-115653333D01*
X129797142Y-115677142D01*
X129701904Y-115700952D01*
X129630476Y-115700952D01*
X129535238Y-115677142D01*
X129487619Y-115653333D01*
X129440000Y-115605714D01*
X129416190Y-115534285D01*
X129416190Y-115486666D01*
X129440000Y-115415238D01*
X129463809Y-115391428D01*
X129582857Y-114962857D02*
X129916190Y-114962857D01*
X129392380Y-115081904D02*
X129749523Y-115200952D01*
X129749523Y-114891428D01*
X129416190Y-114748571D02*
X129416190Y-114439047D01*
X129606666Y-114605714D01*
X129606666Y-114534285D01*
X129630476Y-114486666D01*
X129654285Y-114462857D01*
X129701904Y-114439047D01*
X129820952Y-114439047D01*
X129868571Y-114462857D01*
X129892380Y-114486666D01*
X129916190Y-114534285D01*
X129916190Y-114677142D01*
X129892380Y-114724761D01*
X129868571Y-114748571D01*
D13*
G04 #@! TO.C,C44*
D18*
X130978571Y-107521428D02*
X131002380Y-107545238D01*
X131026190Y-107616666D01*
X131026190Y-107664285D01*
X131002380Y-107735714D01*
X130954761Y-107783333D01*
X130907142Y-107807142D01*
X130811904Y-107830952D01*
X130740476Y-107830952D01*
X130645238Y-107807142D01*
X130597619Y-107783333D01*
X130550000Y-107735714D01*
X130526190Y-107664285D01*
X130526190Y-107616666D01*
X130550000Y-107545238D01*
X130573809Y-107521428D01*
X130692857Y-107092857D02*
X131026190Y-107092857D01*
X130502380Y-107211904D02*
X130859523Y-107330952D01*
X130859523Y-107021428D01*
X130692857Y-106616666D02*
X131026190Y-106616666D01*
X130502380Y-106735714D02*
X130859523Y-106854761D01*
X130859523Y-106545238D01*
D13*
G04 #@! TO.C,C46*
D18*
X126108571Y-108818571D02*
X126084761Y-108842380D01*
X126013333Y-108866190D01*
X125965714Y-108866190D01*
X125894285Y-108842380D01*
X125846666Y-108794761D01*
X125822857Y-108747142D01*
X125799047Y-108651904D01*
X125799047Y-108580476D01*
X125822857Y-108485238D01*
X125846666Y-108437619D01*
X125894285Y-108390000D01*
X125965714Y-108366190D01*
X126013333Y-108366190D01*
X126084761Y-108390000D01*
X126108571Y-108413809D01*
X126537142Y-108532857D02*
X126537142Y-108866190D01*
X126418095Y-108342380D02*
X126299047Y-108699523D01*
X126608571Y-108699523D01*
X127013333Y-108366190D02*
X126918095Y-108366190D01*
X126870476Y-108390000D01*
X126846666Y-108413809D01*
X126799047Y-108485238D01*
X126775238Y-108580476D01*
X126775238Y-108770952D01*
X126799047Y-108818571D01*
X126822857Y-108842380D01*
X126870476Y-108866190D01*
X126965714Y-108866190D01*
X127013333Y-108842380D01*
X127037142Y-108818571D01*
X127060952Y-108770952D01*
X127060952Y-108651904D01*
X127037142Y-108604285D01*
X127013333Y-108580476D01*
X126965714Y-108556666D01*
X126870476Y-108556666D01*
X126822857Y-108580476D01*
X126799047Y-108604285D01*
X126775238Y-108651904D01*
D13*
G04 #@! TO.C,C47*
D18*
X131218571Y-115371428D02*
X131242380Y-115395238D01*
X131266190Y-115466666D01*
X131266190Y-115514285D01*
X131242380Y-115585714D01*
X131194761Y-115633333D01*
X131147142Y-115657142D01*
X131051904Y-115680952D01*
X130980476Y-115680952D01*
X130885238Y-115657142D01*
X130837619Y-115633333D01*
X130790000Y-115585714D01*
X130766190Y-115514285D01*
X130766190Y-115466666D01*
X130790000Y-115395238D01*
X130813809Y-115371428D01*
X130932857Y-114942857D02*
X131266190Y-114942857D01*
X130742380Y-115061904D02*
X131099523Y-115180952D01*
X131099523Y-114871428D01*
X130766190Y-114728571D02*
X130766190Y-114395238D01*
X131266190Y-114609523D01*
D13*
G04 #@! TO.C,D1*
D18*
X113610952Y-135746190D02*
X113610952Y-135246190D01*
X113730000Y-135246190D01*
X113801428Y-135270000D01*
X113849047Y-135317619D01*
X113872857Y-135365238D01*
X113896666Y-135460476D01*
X113896666Y-135531904D01*
X113872857Y-135627142D01*
X113849047Y-135674761D01*
X113801428Y-135722380D01*
X113730000Y-135746190D01*
X113610952Y-135746190D01*
X114372857Y-135746190D02*
X114087142Y-135746190D01*
X114230000Y-135746190D02*
X114230000Y-135246190D01*
X114182380Y-135317619D01*
X114134761Y-135365238D01*
X114087142Y-135389047D01*
D13*
G04 #@! TO.C,L2*
D18*
X122706666Y-109446190D02*
X122468571Y-109446190D01*
X122468571Y-108946190D01*
X122849523Y-108993809D02*
X122873333Y-108970000D01*
X122920952Y-108946190D01*
X123040000Y-108946190D01*
X123087619Y-108970000D01*
X123111428Y-108993809D01*
X123135238Y-109041428D01*
X123135238Y-109089047D01*
X123111428Y-109160476D01*
X122825714Y-109446190D01*
X123135238Y-109446190D01*
D13*
G04 #@! TO.C,R44*
D18*
X149856190Y-105541428D02*
X149618095Y-105708095D01*
X149856190Y-105827142D02*
X149356190Y-105827142D01*
X149356190Y-105636666D01*
X149380000Y-105589047D01*
X149403809Y-105565238D01*
X149451428Y-105541428D01*
X149522857Y-105541428D01*
X149570476Y-105565238D01*
X149594285Y-105589047D01*
X149618095Y-105636666D01*
X149618095Y-105827142D01*
X149522857Y-105112857D02*
X149856190Y-105112857D01*
X149332380Y-105231904D02*
X149689523Y-105350952D01*
X149689523Y-105041428D01*
X149522857Y-104636666D02*
X149856190Y-104636666D01*
X149332380Y-104755714D02*
X149689523Y-104874761D01*
X149689523Y-104565238D01*
D13*
G04 #@! TO.C,R49*
D18*
X137338571Y-116526190D02*
X137171904Y-116288095D01*
X137052857Y-116526190D02*
X137052857Y-116026190D01*
X137243333Y-116026190D01*
X137290952Y-116050000D01*
X137314761Y-116073809D01*
X137338571Y-116121428D01*
X137338571Y-116192857D01*
X137314761Y-116240476D01*
X137290952Y-116264285D01*
X137243333Y-116288095D01*
X137052857Y-116288095D01*
X137767142Y-116192857D02*
X137767142Y-116526190D01*
X137648095Y-116002380D02*
X137529047Y-116359523D01*
X137838571Y-116359523D01*
X138052857Y-116526190D02*
X138148095Y-116526190D01*
X138195714Y-116502380D01*
X138219523Y-116478571D01*
X138267142Y-116407142D01*
X138290952Y-116311904D01*
X138290952Y-116121428D01*
X138267142Y-116073809D01*
X138243333Y-116050000D01*
X138195714Y-116026190D01*
X138100476Y-116026190D01*
X138052857Y-116050000D01*
X138029047Y-116073809D01*
X138005238Y-116121428D01*
X138005238Y-116240476D01*
X138029047Y-116288095D01*
X138052857Y-116311904D01*
X138100476Y-116335714D01*
X138195714Y-116335714D01*
X138243333Y-116311904D01*
X138267142Y-116288095D01*
X138290952Y-116240476D01*
D13*
G04 #@! TO.C,C40*
X101817142Y-116997142D02*
X101769523Y-117044761D01*
X101626666Y-117092380D01*
X101531428Y-117092380D01*
X101388571Y-117044761D01*
X101293333Y-116949523D01*
X101245714Y-116854285D01*
X101198095Y-116663809D01*
X101198095Y-116520952D01*
X101245714Y-116330476D01*
X101293333Y-116235238D01*
X101388571Y-116140000D01*
X101531428Y-116092380D01*
X101626666Y-116092380D01*
X101769523Y-116140000D01*
X101817142Y-116187619D01*
X102674285Y-116425714D02*
X102674285Y-117092380D01*
X102436190Y-116044761D02*
X102198095Y-116759047D01*
X102817142Y-116759047D01*
X103388571Y-116092380D02*
X103483809Y-116092380D01*
X103579047Y-116140000D01*
X103626666Y-116187619D01*
X103674285Y-116282857D01*
X103721904Y-116473333D01*
X103721904Y-116711428D01*
X103674285Y-116901904D01*
X103626666Y-116997142D01*
X103579047Y-117044761D01*
X103483809Y-117092380D01*
X103388571Y-117092380D01*
X103293333Y-117044761D01*
X103245714Y-116997142D01*
X103198095Y-116901904D01*
X103150476Y-116711428D01*
X103150476Y-116473333D01*
X103198095Y-116282857D01*
X103245714Y-116187619D01*
X103293333Y-116140000D01*
X103388571Y-116092380D01*
G04 #@! TO.C,D4*
D18*
X150736190Y-102049047D02*
X150236190Y-102049047D01*
X150236190Y-101930000D01*
X150260000Y-101858571D01*
X150307619Y-101810952D01*
X150355238Y-101787142D01*
X150450476Y-101763333D01*
X150521904Y-101763333D01*
X150617142Y-101787142D01*
X150664761Y-101810952D01*
X150712380Y-101858571D01*
X150736190Y-101930000D01*
X150736190Y-102049047D01*
X150402857Y-101334761D02*
X150736190Y-101334761D01*
X150212380Y-101453809D02*
X150569523Y-101572857D01*
X150569523Y-101263333D01*
D13*
G04 #@! TO.C,D5*
D18*
X151436190Y-102059047D02*
X150936190Y-102059047D01*
X150936190Y-101940000D01*
X150960000Y-101868571D01*
X151007619Y-101820952D01*
X151055238Y-101797142D01*
X151150476Y-101773333D01*
X151221904Y-101773333D01*
X151317142Y-101797142D01*
X151364761Y-101820952D01*
X151412380Y-101868571D01*
X151436190Y-101940000D01*
X151436190Y-102059047D01*
X150936190Y-101320952D02*
X150936190Y-101559047D01*
X151174285Y-101582857D01*
X151150476Y-101559047D01*
X151126666Y-101511428D01*
X151126666Y-101392380D01*
X151150476Y-101344761D01*
X151174285Y-101320952D01*
X151221904Y-101297142D01*
X151340952Y-101297142D01*
X151388571Y-101320952D01*
X151412380Y-101344761D01*
X151436190Y-101392380D01*
X151436190Y-101511428D01*
X151412380Y-101559047D01*
X151388571Y-101582857D01*
D13*
G04 #@! TO.C,JP2*
D18*
X117283333Y-127116190D02*
X117283333Y-127473333D01*
X117259523Y-127544761D01*
X117211904Y-127592380D01*
X117140476Y-127616190D01*
X117092857Y-127616190D01*
X117521428Y-127616190D02*
X117521428Y-127116190D01*
X117711904Y-127116190D01*
X117759523Y-127140000D01*
X117783333Y-127163809D01*
X117807142Y-127211428D01*
X117807142Y-127282857D01*
X117783333Y-127330476D01*
X117759523Y-127354285D01*
X117711904Y-127378095D01*
X117521428Y-127378095D01*
X117997619Y-127163809D02*
X118021428Y-127140000D01*
X118069047Y-127116190D01*
X118188095Y-127116190D01*
X118235714Y-127140000D01*
X118259523Y-127163809D01*
X118283333Y-127211428D01*
X118283333Y-127259047D01*
X118259523Y-127330476D01*
X117973809Y-127616190D01*
X118283333Y-127616190D01*
D13*
G04 #@! TO.C,JP4*
D18*
X117453333Y-123106190D02*
X117453333Y-123463333D01*
X117429523Y-123534761D01*
X117381904Y-123582380D01*
X117310476Y-123606190D01*
X117262857Y-123606190D01*
X117691428Y-123606190D02*
X117691428Y-123106190D01*
X117881904Y-123106190D01*
X117929523Y-123130000D01*
X117953333Y-123153809D01*
X117977142Y-123201428D01*
X117977142Y-123272857D01*
X117953333Y-123320476D01*
X117929523Y-123344285D01*
X117881904Y-123368095D01*
X117691428Y-123368095D01*
X118405714Y-123272857D02*
X118405714Y-123606190D01*
X118286666Y-123082380D02*
X118167619Y-123439523D01*
X118477142Y-123439523D01*
D13*
G04 #@! TO.C,JP5*
D18*
X125583333Y-127046190D02*
X125583333Y-127403333D01*
X125559523Y-127474761D01*
X125511904Y-127522380D01*
X125440476Y-127546190D01*
X125392857Y-127546190D01*
X125821428Y-127546190D02*
X125821428Y-127046190D01*
X126011904Y-127046190D01*
X126059523Y-127070000D01*
X126083333Y-127093809D01*
X126107142Y-127141428D01*
X126107142Y-127212857D01*
X126083333Y-127260476D01*
X126059523Y-127284285D01*
X126011904Y-127308095D01*
X125821428Y-127308095D01*
X126559523Y-127046190D02*
X126321428Y-127046190D01*
X126297619Y-127284285D01*
X126321428Y-127260476D01*
X126369047Y-127236666D01*
X126488095Y-127236666D01*
X126535714Y-127260476D01*
X126559523Y-127284285D01*
X126583333Y-127331904D01*
X126583333Y-127450952D01*
X126559523Y-127498571D01*
X126535714Y-127522380D01*
X126488095Y-127546190D01*
X126369047Y-127546190D01*
X126321428Y-127522380D01*
X126297619Y-127498571D01*
D13*
G04 #@! TO.C,JP6*
D18*
X122863333Y-123186190D02*
X122863333Y-123543333D01*
X122839523Y-123614761D01*
X122791904Y-123662380D01*
X122720476Y-123686190D01*
X122672857Y-123686190D01*
X123101428Y-123686190D02*
X123101428Y-123186190D01*
X123291904Y-123186190D01*
X123339523Y-123210000D01*
X123363333Y-123233809D01*
X123387142Y-123281428D01*
X123387142Y-123352857D01*
X123363333Y-123400476D01*
X123339523Y-123424285D01*
X123291904Y-123448095D01*
X123101428Y-123448095D01*
X123815714Y-123186190D02*
X123720476Y-123186190D01*
X123672857Y-123210000D01*
X123649047Y-123233809D01*
X123601428Y-123305238D01*
X123577619Y-123400476D01*
X123577619Y-123590952D01*
X123601428Y-123638571D01*
X123625238Y-123662380D01*
X123672857Y-123686190D01*
X123768095Y-123686190D01*
X123815714Y-123662380D01*
X123839523Y-123638571D01*
X123863333Y-123590952D01*
X123863333Y-123471904D01*
X123839523Y-123424285D01*
X123815714Y-123400476D01*
X123768095Y-123376666D01*
X123672857Y-123376666D01*
X123625238Y-123400476D01*
X123601428Y-123424285D01*
X123577619Y-123471904D01*
D13*
G04 #@! TO.C,C8*
D18*
X136828571Y-102373333D02*
X136852380Y-102397142D01*
X136876190Y-102468571D01*
X136876190Y-102516190D01*
X136852380Y-102587619D01*
X136804761Y-102635238D01*
X136757142Y-102659047D01*
X136661904Y-102682857D01*
X136590476Y-102682857D01*
X136495238Y-102659047D01*
X136447619Y-102635238D01*
X136400000Y-102587619D01*
X136376190Y-102516190D01*
X136376190Y-102468571D01*
X136400000Y-102397142D01*
X136423809Y-102373333D01*
X136590476Y-102087619D02*
X136566666Y-102135238D01*
X136542857Y-102159047D01*
X136495238Y-102182857D01*
X136471428Y-102182857D01*
X136423809Y-102159047D01*
X136400000Y-102135238D01*
X136376190Y-102087619D01*
X136376190Y-101992380D01*
X136400000Y-101944761D01*
X136423809Y-101920952D01*
X136471428Y-101897142D01*
X136495238Y-101897142D01*
X136542857Y-101920952D01*
X136566666Y-101944761D01*
X136590476Y-101992380D01*
X136590476Y-102087619D01*
X136614285Y-102135238D01*
X136638095Y-102159047D01*
X136685714Y-102182857D01*
X136780952Y-102182857D01*
X136828571Y-102159047D01*
X136852380Y-102135238D01*
X136876190Y-102087619D01*
X136876190Y-101992380D01*
X136852380Y-101944761D01*
X136828571Y-101920952D01*
X136780952Y-101897142D01*
X136685714Y-101897142D01*
X136638095Y-101920952D01*
X136614285Y-101944761D01*
X136590476Y-101992380D01*
D13*
G04 #@! TO.C,C9*
D18*
X142106666Y-102378571D02*
X142082857Y-102402380D01*
X142011428Y-102426190D01*
X141963809Y-102426190D01*
X141892380Y-102402380D01*
X141844761Y-102354761D01*
X141820952Y-102307142D01*
X141797142Y-102211904D01*
X141797142Y-102140476D01*
X141820952Y-102045238D01*
X141844761Y-101997619D01*
X141892380Y-101950000D01*
X141963809Y-101926190D01*
X142011428Y-101926190D01*
X142082857Y-101950000D01*
X142106666Y-101973809D01*
X142344761Y-102426190D02*
X142440000Y-102426190D01*
X142487619Y-102402380D01*
X142511428Y-102378571D01*
X142559047Y-102307142D01*
X142582857Y-102211904D01*
X142582857Y-102021428D01*
X142559047Y-101973809D01*
X142535238Y-101950000D01*
X142487619Y-101926190D01*
X142392380Y-101926190D01*
X142344761Y-101950000D01*
X142320952Y-101973809D01*
X142297142Y-102021428D01*
X142297142Y-102140476D01*
X142320952Y-102188095D01*
X142344761Y-102211904D01*
X142392380Y-102235714D01*
X142487619Y-102235714D01*
X142535238Y-102211904D01*
X142559047Y-102188095D01*
X142582857Y-102140476D01*
D13*
G04 #@! TO.C,C25*
X116997142Y-128737142D02*
X116949523Y-128784761D01*
X116806666Y-128832380D01*
X116711428Y-128832380D01*
X116568571Y-128784761D01*
X116473333Y-128689523D01*
X116425714Y-128594285D01*
X116378095Y-128403809D01*
X116378095Y-128260952D01*
X116425714Y-128070476D01*
X116473333Y-127975238D01*
X116568571Y-127880000D01*
X116711428Y-127832380D01*
X116806666Y-127832380D01*
X116949523Y-127880000D01*
X116997142Y-127927619D01*
X117378095Y-127927619D02*
X117425714Y-127880000D01*
X117520952Y-127832380D01*
X117759047Y-127832380D01*
X117854285Y-127880000D01*
X117901904Y-127927619D01*
X117949523Y-128022857D01*
X117949523Y-128118095D01*
X117901904Y-128260952D01*
X117330476Y-128832380D01*
X117949523Y-128832380D01*
X118854285Y-127832380D02*
X118378095Y-127832380D01*
X118330476Y-128308571D01*
X118378095Y-128260952D01*
X118473333Y-128213333D01*
X118711428Y-128213333D01*
X118806666Y-128260952D01*
X118854285Y-128308571D01*
X118901904Y-128403809D01*
X118901904Y-128641904D01*
X118854285Y-128737142D01*
X118806666Y-128784761D01*
X118711428Y-128832380D01*
X118473333Y-128832380D01*
X118378095Y-128784761D01*
X118330476Y-128737142D01*
G04 #@! TO.C,SW1*
X112534761Y-114273333D02*
X112582380Y-114130476D01*
X112582380Y-113892380D01*
X112534761Y-113797142D01*
X112487142Y-113749523D01*
X112391904Y-113701904D01*
X112296666Y-113701904D01*
X112201428Y-113749523D01*
X112153809Y-113797142D01*
X112106190Y-113892380D01*
X112058571Y-114082857D01*
X112010952Y-114178095D01*
X111963333Y-114225714D01*
X111868095Y-114273333D01*
X111772857Y-114273333D01*
X111677619Y-114225714D01*
X111630000Y-114178095D01*
X111582380Y-114082857D01*
X111582380Y-113844761D01*
X111630000Y-113701904D01*
X111582380Y-113368571D02*
X112582380Y-113130476D01*
X111868095Y-112940000D01*
X112582380Y-112749523D01*
X111582380Y-112511428D01*
X112582380Y-111606666D02*
X112582380Y-112178095D01*
X112582380Y-111892380D02*
X111582380Y-111892380D01*
X111725238Y-111987619D01*
X111820476Y-112082857D01*
X111868095Y-112178095D01*
G04 #@! TD*
M02*
