G04 #@! TF.GenerationSoftware,KiCad,Pcbnew,5.0.2-bee76a0~70~ubuntu18.04.1*
G04 #@! TF.CreationDate,2020-05-08T14:17:04+02:00*
G04 #@! TF.ProjectId,board,626f6172-642e-46b6-9963-61645f706362,rev?*
G04 #@! TF.SameCoordinates,Original*
G04 #@! TF.FileFunction,Other,Comment*
%FSLAX46Y46*%
G04 Gerber Fmt 4.6, Leading zero omitted, Abs format (unit mm)*
G04 Created by KiCad (PCBNEW 5.0.2-bee76a0~70~ubuntu18.04.1) date Fr 08 Mai 2020 14:17:04 CEST*
%MOMM*%
%LPD*%
G01*
G04 APERTURE LIST*
%ADD10C,0.300000*%
%ADD11C,0.150000*%
G04 APERTURE END LIST*
D10*
X171621428Y-113214285D02*
X171621428Y-114142857D01*
X171050000Y-113642857D01*
X171050000Y-113857142D01*
X170978571Y-114000000D01*
X170907142Y-114071428D01*
X170764285Y-114142857D01*
X170407142Y-114142857D01*
X170264285Y-114071428D01*
X170192857Y-114000000D01*
X170121428Y-113857142D01*
X170121428Y-113428571D01*
X170192857Y-113285714D01*
X170264285Y-113214285D01*
X170121428Y-114857142D02*
X170121428Y-115142857D01*
X170192857Y-115285714D01*
X170264285Y-115357142D01*
X170478571Y-115500000D01*
X170764285Y-115571428D01*
X171335714Y-115571428D01*
X171478571Y-115500000D01*
X171550000Y-115428571D01*
X171621428Y-115285714D01*
X171621428Y-115000000D01*
X171550000Y-114857142D01*
X171478571Y-114785714D01*
X171335714Y-114714285D01*
X170978571Y-114714285D01*
X170835714Y-114785714D01*
X170764285Y-114857142D01*
X170692857Y-115000000D01*
X170692857Y-115285714D01*
X170764285Y-115428571D01*
X170835714Y-115500000D01*
X170978571Y-115571428D01*
X170192857Y-116285714D02*
X170121428Y-116285714D01*
X169978571Y-116214285D01*
X169907142Y-116142857D01*
X171621428Y-117214285D02*
X171621428Y-117357142D01*
X171550000Y-117500000D01*
X171478571Y-117571428D01*
X171335714Y-117642857D01*
X171050000Y-117714285D01*
X170692857Y-117714285D01*
X170407142Y-117642857D01*
X170264285Y-117571428D01*
X170192857Y-117500000D01*
X170121428Y-117357142D01*
X170121428Y-117214285D01*
X170192857Y-117071428D01*
X170264285Y-117000000D01*
X170407142Y-116928571D01*
X170692857Y-116857142D01*
X171050000Y-116857142D01*
X171335714Y-116928571D01*
X171478571Y-117000000D01*
X171550000Y-117071428D01*
X171621428Y-117214285D01*
X171621428Y-118642857D02*
X171621428Y-118785714D01*
X171550000Y-118928571D01*
X171478571Y-119000000D01*
X171335714Y-119071428D01*
X171050000Y-119142857D01*
X170692857Y-119142857D01*
X170407142Y-119071428D01*
X170264285Y-119000000D01*
X170192857Y-118928571D01*
X170121428Y-118785714D01*
X170121428Y-118642857D01*
X170192857Y-118500000D01*
X170264285Y-118428571D01*
X170407142Y-118357142D01*
X170692857Y-118285714D01*
X171050000Y-118285714D01*
X171335714Y-118357142D01*
X171478571Y-118428571D01*
X171550000Y-118500000D01*
X171621428Y-118642857D01*
X171621428Y-120071428D02*
X171621428Y-120214285D01*
X171550000Y-120357142D01*
X171478571Y-120428571D01*
X171335714Y-120500000D01*
X171050000Y-120571428D01*
X170692857Y-120571428D01*
X170407142Y-120500000D01*
X170264285Y-120428571D01*
X170192857Y-120357142D01*
X170121428Y-120214285D01*
X170121428Y-120071428D01*
X170192857Y-119928571D01*
X170264285Y-119857142D01*
X170407142Y-119785714D01*
X170692857Y-119714285D01*
X171050000Y-119714285D01*
X171335714Y-119785714D01*
X171478571Y-119857142D01*
X171550000Y-119928571D01*
X171621428Y-120071428D01*
X170121428Y-122357142D02*
X171121428Y-122357142D01*
X170978571Y-122357142D02*
X171050000Y-122428571D01*
X171121428Y-122571428D01*
X171121428Y-122785714D01*
X171050000Y-122928571D01*
X170907142Y-123000000D01*
X170121428Y-123000000D01*
X170907142Y-123000000D02*
X171050000Y-123071428D01*
X171121428Y-123214285D01*
X171121428Y-123428571D01*
X171050000Y-123571428D01*
X170907142Y-123642857D01*
X170121428Y-123642857D01*
X170121428Y-124357142D02*
X171121428Y-124357142D01*
X170978571Y-124357142D02*
X171050000Y-124428571D01*
X171121428Y-124571428D01*
X171121428Y-124785714D01*
X171050000Y-124928571D01*
X170907142Y-125000000D01*
X170121428Y-125000000D01*
X170907142Y-125000000D02*
X171050000Y-125071428D01*
X171121428Y-125214285D01*
X171121428Y-125428571D01*
X171050000Y-125571428D01*
X170907142Y-125642857D01*
X170121428Y-125642857D01*
X168700000Y-100000000D02*
X168700000Y-139000000D01*
X157900000Y-100000000D02*
X169286421Y-100000000D01*
X157900000Y-139000000D02*
X169286421Y-139000000D01*
X168700000Y-139000000D02*
X168113579Y-137873496D01*
X168700000Y-139000000D02*
X169286421Y-137873496D01*
X168700000Y-100000000D02*
X168113579Y-101126504D01*
X168700000Y-100000000D02*
X169286421Y-101126504D01*
X120000000Y-75078571D02*
X119714285Y-75078571D01*
X119571428Y-75150000D01*
X119500000Y-75221428D01*
X119357142Y-75435714D01*
X119285714Y-75721428D01*
X119285714Y-76292857D01*
X119357142Y-76435714D01*
X119428571Y-76507142D01*
X119571428Y-76578571D01*
X119857142Y-76578571D01*
X120000000Y-76507142D01*
X120071428Y-76435714D01*
X120142857Y-76292857D01*
X120142857Y-75935714D01*
X120071428Y-75792857D01*
X120000000Y-75721428D01*
X119857142Y-75650000D01*
X119571428Y-75650000D01*
X119428571Y-75721428D01*
X119357142Y-75792857D01*
X119285714Y-75935714D01*
X121500000Y-75078571D02*
X120785714Y-75078571D01*
X120714285Y-75792857D01*
X120785714Y-75721428D01*
X120928571Y-75650000D01*
X121285714Y-75650000D01*
X121428571Y-75721428D01*
X121500000Y-75792857D01*
X121571428Y-75935714D01*
X121571428Y-76292857D01*
X121500000Y-76435714D01*
X121428571Y-76507142D01*
X121285714Y-76578571D01*
X120928571Y-76578571D01*
X120785714Y-76507142D01*
X120714285Y-76435714D01*
X122214285Y-76435714D02*
X122285714Y-76507142D01*
X122214285Y-76578571D01*
X122142857Y-76507142D01*
X122214285Y-76435714D01*
X122214285Y-76578571D01*
X123214285Y-75078571D02*
X123357142Y-75078571D01*
X123500000Y-75150000D01*
X123571428Y-75221428D01*
X123642857Y-75364285D01*
X123714285Y-75650000D01*
X123714285Y-76007142D01*
X123642857Y-76292857D01*
X123571428Y-76435714D01*
X123500000Y-76507142D01*
X123357142Y-76578571D01*
X123214285Y-76578571D01*
X123071428Y-76507142D01*
X123000000Y-76435714D01*
X122928571Y-76292857D01*
X122857142Y-76007142D01*
X122857142Y-75650000D01*
X122928571Y-75364285D01*
X123000000Y-75221428D01*
X123071428Y-75150000D01*
X123214285Y-75078571D01*
X124642857Y-75078571D02*
X124785714Y-75078571D01*
X124928571Y-75150000D01*
X125000000Y-75221428D01*
X125071428Y-75364285D01*
X125142857Y-75650000D01*
X125142857Y-76007142D01*
X125071428Y-76292857D01*
X125000000Y-76435714D01*
X124928571Y-76507142D01*
X124785714Y-76578571D01*
X124642857Y-76578571D01*
X124500000Y-76507142D01*
X124428571Y-76435714D01*
X124357142Y-76292857D01*
X124285714Y-76007142D01*
X124285714Y-75650000D01*
X124357142Y-75364285D01*
X124428571Y-75221428D01*
X124500000Y-75150000D01*
X124642857Y-75078571D01*
X126071428Y-75078571D02*
X126214285Y-75078571D01*
X126357142Y-75150000D01*
X126428571Y-75221428D01*
X126500000Y-75364285D01*
X126571428Y-75650000D01*
X126571428Y-76007142D01*
X126500000Y-76292857D01*
X126428571Y-76435714D01*
X126357142Y-76507142D01*
X126214285Y-76578571D01*
X126071428Y-76578571D01*
X125928571Y-76507142D01*
X125857142Y-76435714D01*
X125785714Y-76292857D01*
X125714285Y-76007142D01*
X125714285Y-75650000D01*
X125785714Y-75364285D01*
X125857142Y-75221428D01*
X125928571Y-75150000D01*
X126071428Y-75078571D01*
X128357142Y-76578571D02*
X128357142Y-75578571D01*
X128357142Y-75721428D02*
X128428571Y-75650000D01*
X128571428Y-75578571D01*
X128785714Y-75578571D01*
X128928571Y-75650000D01*
X129000000Y-75792857D01*
X129000000Y-76578571D01*
X129000000Y-75792857D02*
X129071428Y-75650000D01*
X129214285Y-75578571D01*
X129428571Y-75578571D01*
X129571428Y-75650000D01*
X129642857Y-75792857D01*
X129642857Y-76578571D01*
X130357142Y-76578571D02*
X130357142Y-75578571D01*
X130357142Y-75721428D02*
X130428571Y-75650000D01*
X130571428Y-75578571D01*
X130785714Y-75578571D01*
X130928571Y-75650000D01*
X131000000Y-75792857D01*
X131000000Y-76578571D01*
X131000000Y-75792857D02*
X131071428Y-75650000D01*
X131214285Y-75578571D01*
X131428571Y-75578571D01*
X131571428Y-75650000D01*
X131642857Y-75792857D01*
X131642857Y-76578571D01*
X93000000Y-78000000D02*
X158000000Y-78000000D01*
X93000000Y-100000000D02*
X93000000Y-77413579D01*
X158000000Y-100000000D02*
X158000000Y-77413579D01*
X158000000Y-78000000D02*
X156873496Y-78586421D01*
X158000000Y-78000000D02*
X156873496Y-77413579D01*
X93000000Y-78000000D02*
X94126504Y-78586421D01*
X93000000Y-78000000D02*
X94126504Y-77413579D01*
D11*
G04 #@! TO.C,H1*
X105270000Y-127500000D02*
G75*
G03X105270000Y-127500000I-2200000J0D01*
G01*
G04 #@! TO.C,H2*
X149800000Y-107700000D02*
G75*
G03X149800000Y-107700000I-2200000J0D01*
G01*
G04 #@! TD*
M02*
