<?xml version="1.0" standalone="no"?>
<!DOCTYPE svg PUBLIC "-//W3C//DTD SVG 1.1//EN"
"http://www.w3.org/Graphics/SVG/1.1/DTD/svg11.dtd">
<svg width="174.425" height="189.543" viewBox="0 0 3633.86 3948.82" version="1.1"
xmlns="http://www.w3.org/2000/svg"
xmlns:xlink="http://www.w3.org/1999/xlink">
<circle cx="1501.99" cy="618.586" r="39.4" style=""/>
<circle cx="1501.99" cy="818.586" r="39.4" style=""/>
<circle cx="1501.99" cy="1018.59" r="39.4" style=""/>
<circle cx="1501.99" cy="1218.59" r="39.4" style=""/>
<circle cx="1501.99" cy="1418.59" r="39.4" style=""/>
<circle cx="1501.99" cy="1618.59" r="39.4" style=""/>
<circle cx="1501.99" cy="2347.59" r="39.4" style=""/>
<circle cx="1501.99" cy="2547.59" r="39.4" style=""/>
<circle cx="1501.99" cy="2747.59" r="39.4" style=""/>
<circle cx="1501.99" cy="2947.59" r="39.4" style=""/>
<circle cx="1501.99" cy="3147.59" r="39.4" style=""/>
<circle cx="1501.99" cy="3347.59" r="39.4" style=""/>
<circle cx="2289.39" cy="3352.39" r="39.4" style=""/>
<circle cx="2289.39" cy="3152.39" r="39.4" style=""/>
<circle cx="2289.39" cy="2952.39" r="39.4" style=""/>
<circle cx="2289.39" cy="2752.39" r="39.4" style=""/>
<circle cx="2289.39" cy="2552.39" r="39.4" style=""/>
<circle cx="2289.39" cy="2352.39" r="39.4" style=""/>
<circle cx="2289.39" cy="1618.59" r="39.4" style=""/>
<circle cx="2289.39" cy="1418.59" r="39.4" style=""/>
<circle cx="2289.39" cy="1218.59" r="39.4" style=""/>
<circle cx="2289.39" cy="1018.59" r="39.4" style=""/>
<circle cx="2289.39" cy="818.586" r="39.4" style=""/>
<circle cx="2289.39" cy="618.586" r="39.4" style=""/>
<circle cx="3155.59" cy="538.186" r="39.4" style=""/>
<circle cx="3155.59" cy="738.186" r="39.4" style=""/>
<circle cx="3155.59" cy="938.186" r="39.4" style=""/>
<circle cx="3155.59" cy="1138.19" r="39.4" style=""/>
<circle cx="3155.59" cy="1338.19" r="39.4" style=""/>
<circle cx="3155.59" cy="1538.19" r="39.4" style=""/>
<circle cx="3155.59" cy="1738.19" r="39.4" style=""/>
<circle cx="3155.59" cy="2270.39" r="39.4" style=""/>
<circle cx="3155.59" cy="2470.39" r="39.4" style=""/>
<circle cx="3155.59" cy="2670.39" r="39.4" style=""/>
<circle cx="3155.59" cy="2870.39" r="39.4" style=""/>
<circle cx="3155.59" cy="3070.39" r="39.4" style=""/>
<circle cx="3155.59" cy="3270.39" r="39.4" style=""/>
<circle cx="3155.59" cy="3470.39" r="39.4" style=""/>
</svg>
