<?xml version="1.0" standalone="no"?>
<!DOCTYPE svg PUBLIC "-//W3C//DTD SVG 1.1//EN"
"http://www.w3.org/Graphics/SVG/1.1/DTD/svg11.dtd">
<svg width="174.425" height="189.543" viewBox="0 0 3633.86 3948.82" version="1.1"
xmlns="http://www.w3.org/2000/svg"
xmlns:xlink="http://www.w3.org/1999/xlink">
<g fill-rule="evenodd"><path d="M 315.354,1692.91 L 315.354,1574.8 L 551.575,1574.8 L 551.575,1692.91 L 315.354,1692.91 z " style="fill-opacity:1.000000;fill:rgb(103,198,105);stroke:rgb(0,0,0);stroke-width:2"/></g>
<g fill-rule="evenodd"><path d="M 315.354,892.913 L 315.354,774.803 L 551.575,774.803 L 551.575,892.913 L 315.354,892.913 z " style="fill-opacity:1.000000;fill:rgb(115,81,255);stroke:rgb(0,0,0);stroke-width:2"/></g>
<g fill-rule="evenodd"><path d="M 669.685,1373.23 L 669.685,1294.49 L 905.906,1294.49 L 905.906,1373.23 L 669.685,1373.23 z " style="fill-opacity:1.000000;fill:rgb(74,236,41);stroke:rgb(0,0,0);stroke-width:2"/></g>
<g fill-rule="evenodd"><path d="M 669.685,792.913 L 669.685,674.803 L 905.906,674.803 L 905.906,792.913 L 669.685,792.913 z " style="fill-opacity:1.000000;fill:rgb(205,186,171);stroke:rgb(0,0,0);stroke-width:2"/></g>
<g fill-rule="evenodd"><path d="M 340.551,2670.87 L 340.551,2552.76 L 576.772,2552.76 L 576.772,2670.87 L 340.551,2670.87 z " style="fill-opacity:1.000000;fill:rgb(242,251,227);stroke:rgb(0,0,0);stroke-width:2"/></g>
<g fill-rule="evenodd"><path d="M 694.882,2751.18 L 694.882,2672.44 L 931.102,2672.44 L 931.102,2751.18 L 694.882,2751.18 z " style="fill-opacity:1.000000;fill:rgb(70,124,194);stroke:rgb(0,0,0);stroke-width:2"/></g>
<g fill-rule="evenodd"><path d="M 3088.58,1757.87 L 2609.06,1757.87 L 2605.21,1757.5 L 2601.52,1756.38 L 2598.12,1754.56 L 2595.14,1752.11 L 2320.52,1477.5 L 2310.05,1482.16 L 2296.37,1485.07 L 2282.37,1485.07 L 2268.69,1482.16 L 2255.91,1476.47 L 2244.59,1468.24 L 2235.22,1457.84 L 2228.23,1445.73 L 2223.9,1432.42 L 2222.44,1418.5 L 2223.9,1404.59 L 2228.23,1391.28 L 2235.22,1379.16 L 2244.59,1368.77 L 2255.91,1360.54 L 2268.69,1354.85 L 2282.37,1351.94 L 2296.37,1351.94 L 2310.05,1354.85 L 2322.83,1360.54 L 2334.15,1368.77 L 2343.52,1379.16 L 2350.51,1391.28 L 2354.84,1404.59 L 2356.3,1418.5 L 2354.84,1432.42 L 2350.51,1445.73 L 2348.29,1449.58 L 2617.21,1718.5 L 3088.58,1718.5 L 3088.58,1671.26 L 3222.44,1671.26 L 3222.44,1805.12 L 3088.58,1805.12 L 3088.58,1757.87 z " style="fill-opacity:1.000000;fill:rgb(84,248,27);stroke:rgb(0,0,0);stroke-width:2"/></g>
<g fill-rule="evenodd"><path d="M 3091.92,1118.5 L 3094.37,1110.97 L 3101.37,1098.85 L 3110.73,1088.45 L 3122.05,1080.23 L 3134.83,1074.54 L 3148.52,1071.63 L 3162.51,1071.63 L 3176.19,1074.54 L 3188.98,1080.23 L 3200.3,1088.45 L 3209.66,1098.85 L 3216.65,1110.97 L 3220.98,1124.27 L 3222.44,1138.19 L 3220.98,1152.1 L 3216.65,1165.41 L 3209.66,1177.53 L 3200.3,1187.93 L 3188.98,1196.15 L 3176.19,1201.84 L 3162.51,1204.75 L 3148.52,1204.75 L 3134.83,1201.84 L 3122.05,1196.15 L 3110.73,1187.93 L 3101.37,1177.53 L 3094.37,1165.41 L 3091.92,1157.87 L 2791.73,1157.87 L 2787.89,1157.5 L 2784.2,1156.38 L 2780.8,1154.56 L 2777.81,1152.11 L 2463.89,838.189 L 2352.96,838.189 L 2350.51,845.726 L 2343.52,857.844 L 2334.15,868.242 L 2322.83,876.466 L 2310.05,882.157 L 2296.37,885.066 L 2282.37,885.066 L 2268.69,882.157 L 2255.91,876.466 L 2244.59,868.242 L 2235.22,857.844 L 2228.23,845.726 L 2223.9,832.419 L 2222.44,818.504 L 2223.9,804.589 L 2228.23,791.281 L 2235.22,779.164 L 2244.59,768.766 L 2255.91,760.542 L 2268.69,754.851 L 2282.37,751.941 L 2296.37,751.941 L 2310.05,754.851 L 2322.83,760.542 L 2334.15,768.766 L 2343.52,779.164 L 2350.51,791.281 L 2352.96,798.819 L 2472.05,798.819 L 2475.89,799.197 L 2479.58,800.317 L 2482.98,802.136 L 2485.97,804.585 L 2799.89,1118.5 L 3091.92,1118.5 z " style="fill-opacity:1.000000;fill:rgb(232,231,141);stroke:rgb(0,0,0);stroke-width:2"/></g>
<g fill-rule="evenodd"><path d="M 3091.92,1557.87 L 2719.29,1557.87 L 2715.45,1557.5 L 2711.76,1556.38 L 2708.35,1554.56 L 2705.37,1552.11 L 2391.45,1238.19 L 2352.96,1238.19 L 2350.51,1245.73 L 2343.52,1257.84 L 2334.15,1268.24 L 2322.83,1276.47 L 2310.05,1282.16 L 2296.37,1285.07 L 2282.37,1285.07 L 2268.69,1282.16 L 2255.91,1276.47 L 2244.59,1268.24 L 2235.22,1257.84 L 2228.23,1245.73 L 2223.9,1232.42 L 2222.44,1218.5 L 2223.9,1204.59 L 2228.23,1191.28 L 2235.22,1179.16 L 2244.59,1168.77 L 2255.91,1160.54 L 2268.69,1154.85 L 2282.37,1151.94 L 2296.37,1151.94 L 2310.05,1154.85 L 2322.83,1160.54 L 2334.15,1168.77 L 2343.52,1179.16 L 2350.51,1191.28 L 2352.96,1198.82 L 2399.61,1198.82 L 2403.45,1199.2 L 2407.14,1200.32 L 2410.54,1202.14 L 2413.53,1204.58 L 2727.45,1518.5 L 3091.92,1518.5 L 3094.37,1510.97 L 3101.37,1498.85 L 3110.73,1488.45 L 3122.05,1480.23 L 3134.83,1474.54 L 3148.52,1471.63 L 3162.51,1471.63 L 3176.19,1474.54 L 3188.98,1480.23 L 3200.3,1488.45 L 3209.66,1498.85 L 3216.65,1510.97 L 3220.98,1524.27 L 3222.44,1538.19 L 3220.98,1552.1 L 3216.65,1565.41 L 3209.66,1577.53 L 3200.3,1587.93 L 3188.98,1596.15 L 3176.19,1601.84 L 3162.51,1604.75 L 3148.52,1604.75 L 3134.83,1601.84 L 3122.05,1596.15 L 3110.73,1587.93 L 3101.37,1577.53 L 3094.37,1565.41 L 3091.92,1557.87 z " style="fill-opacity:1.000000;fill:rgb(118,90,46);stroke:rgb(0,0,0);stroke-width:2"/></g>
<g fill-rule="evenodd"><path d="M 3091.92,1357.87 L 2755.51,1357.87 L 2751.67,1357.5 L 2747.98,1356.38 L 2744.58,1354.56 L 2741.59,1352.11 L 2427.67,1038.19 L 2352.96,1038.19 L 2350.51,1045.73 L 2343.52,1057.84 L 2334.15,1068.24 L 2322.83,1076.47 L 2310.05,1082.16 L 2296.37,1085.07 L 2282.37,1085.07 L 2268.69,1082.16 L 2255.91,1076.47 L 2244.59,1068.24 L 2235.22,1057.84 L 2228.23,1045.73 L 2223.9,1032.42 L 2222.44,1018.5 L 2223.9,1004.59 L 2228.23,991.281 L 2235.22,979.164 L 2244.59,968.766 L 2255.91,960.542 L 2268.69,954.851 L 2282.37,951.941 L 2296.37,951.941 L 2310.05,954.851 L 2322.83,960.542 L 2334.15,968.766 L 2343.52,979.164 L 2350.51,991.281 L 2352.96,998.819 L 2435.83,998.819 L 2439.67,999.197 L 2443.36,1000.32 L 2446.76,1002.14 L 2449.75,1004.58 L 2763.67,1318.5 L 3091.92,1318.5 L 3094.37,1310.97 L 3101.37,1298.85 L 3110.73,1288.45 L 3122.05,1280.23 L 3134.83,1274.54 L 3148.52,1271.63 L 3162.51,1271.63 L 3176.19,1274.54 L 3188.98,1280.23 L 3200.3,1288.45 L 3209.66,1298.85 L 3216.65,1310.97 L 3220.98,1324.27 L 3222.44,1338.19 L 3220.98,1352.1 L 3216.65,1365.41 L 3209.66,1377.53 L 3200.3,1387.93 L 3188.98,1396.15 L 3176.19,1401.84 L 3162.51,1404.75 L 3148.52,1404.75 L 3134.83,1401.84 L 3122.05,1396.15 L 3110.73,1387.93 L 3101.37,1377.53 L 3094.37,1365.41 L 3091.92,1357.87 z " style="fill-opacity:1.000000;fill:rgb(99,51,159);stroke:rgb(0,0,0);stroke-width:2"/></g>
<g fill-rule="evenodd"><path d="M 3124.36,679.197 L 3134.83,674.536 L 3148.52,671.626 L 3162.51,671.626 L 3176.19,674.536 L 3188.98,680.227 L 3200.3,688.451 L 3209.66,698.849 L 3216.65,710.966 L 3220.98,724.274 L 3222.44,738.189 L 3220.98,752.104 L 3216.65,765.412 L 3209.66,777.529 L 3200.3,787.927 L 3188.98,796.151 L 3176.19,801.842 L 3162.51,804.751 L 3148.52,804.751 L 3134.83,801.842 L 3122.05,796.151 L 3110.73,787.927 L 3101.37,777.529 L 3094.37,765.412 L 3090.05,752.104 L 3088.58,738.189 L 3090.05,724.274 L 3094.37,710.966 L 3096.6,707.111 L 3027.67,638.189 L 2356.3,638.189 L 2356.3,685.433 L 2222.44,685.433 L 2222.44,551.575 L 2356.3,551.575 L 2356.3,598.819 L 3035.83,598.819 L 3039.67,599.197 L 3043.36,600.317 L 3046.76,602.136 L 3049.75,604.585 L 3124.36,679.197 z " style="fill-opacity:1.000000;fill:rgb(201,154,102);stroke:rgb(0,0,0);stroke-width:2"/></g>
<g fill-rule="evenodd"><path d="M 2352.96,2972.05 L 2350.51,2979.58 L 2343.52,2991.7 L 2334.15,3002.1 L 2322.83,3010.32 L 2310.05,3016.02 L 2296.37,3018.92 L 2282.37,3018.92 L 2268.69,3016.02 L 2255.91,3010.32 L 2244.59,3002.1 L 2235.22,2991.7 L 2228.23,2979.58 L 2223.9,2966.28 L 2222.44,2952.36 L 2223.9,2938.45 L 2228.23,2925.14 L 2235.22,2913.02 L 2244.59,2902.62 L 2255.91,2894.4 L 2268.69,2888.71 L 2282.37,2885.8 L 2296.37,2885.8 L 2310.05,2888.71 L 2322.83,2894.4 L 2334.15,2902.62 L 2343.52,2913.02 L 2350.51,2925.14 L 2352.96,2932.68 L 2837.4,2932.68 L 2841.24,2933.06 L 2844.93,2934.18 L 2848.34,2935.99 L 2851.32,2938.44 L 3124.36,3211.48 L 3134.83,3206.82 L 3148.52,3203.91 L 3162.51,3203.91 L 3176.19,3206.82 L 3188.98,3212.51 L 3200.3,3220.73 L 3209.66,3231.13 L 3216.65,3243.25 L 3220.98,3256.56 L 3222.44,3270.47 L 3220.98,3284.39 L 3216.65,3297.69 L 3209.66,3309.81 L 3200.3,3320.21 L 3188.98,3328.43 L 3176.19,3334.13 L 3162.51,3337.03 L 3148.52,3337.03 L 3134.83,3334.13 L 3122.05,3328.43 L 3110.73,3320.21 L 3101.37,3309.81 L 3094.37,3297.69 L 3090.05,3284.39 L 3088.58,3270.47 L 3090.05,3256.56 L 3094.37,3243.25 L 3096.59,3239.39 L 2829.25,2972.05 L 2352.96,2972.05 z " style="fill-opacity:1.000000;fill:rgb(50,13,183);stroke:rgb(0,0,0);stroke-width:2"/></g>
<g fill-rule="evenodd"><path d="M 2352.96,2772.05 L 2350.51,2779.58 L 2343.52,2791.7 L 2334.15,2802.1 L 2322.83,2810.32 L 2310.05,2816.02 L 2296.37,2818.92 L 2282.37,2818.92 L 2268.69,2816.02 L 2255.91,2810.32 L 2244.59,2802.1 L 2235.22,2791.7 L 2228.23,2779.58 L 2223.9,2766.28 L 2222.44,2752.36 L 2223.9,2738.45 L 2228.23,2725.14 L 2235.22,2713.02 L 2244.59,2702.62 L 2255.91,2694.4 L 2268.69,2688.71 L 2282.37,2685.8 L 2296.37,2685.8 L 2310.05,2688.71 L 2322.83,2694.4 L 2334.15,2702.62 L 2343.52,2713.02 L 2350.51,2725.14 L 2352.96,2732.68 L 2837.4,2732.68 L 2841.24,2733.06 L 2844.93,2734.18 L 2848.34,2735.99 L 2851.32,2738.44 L 3124.36,3011.48 L 3134.83,3006.82 L 3148.52,3003.91 L 3162.51,3003.91 L 3176.19,3006.82 L 3188.98,3012.51 L 3200.3,3020.73 L 3209.66,3031.13 L 3216.65,3043.25 L 3220.98,3056.56 L 3222.44,3070.47 L 3220.98,3084.39 L 3216.65,3097.69 L 3209.66,3109.81 L 3200.3,3120.21 L 3188.98,3128.43 L 3176.19,3134.13 L 3162.51,3137.03 L 3148.52,3137.03 L 3134.83,3134.13 L 3122.05,3128.43 L 3110.73,3120.21 L 3101.37,3109.81 L 3094.37,3097.69 L 3090.05,3084.39 L 3088.58,3070.47 L 3090.05,3056.56 L 3094.37,3043.25 L 3096.59,3039.39 L 2829.25,2772.05 L 2352.96,2772.05 z " style="fill-opacity:1.000000;fill:rgb(49,88,163);stroke:rgb(0,0,0);stroke-width:2"/></g>
<g fill-rule="evenodd"><path d="M 2352.96,2572.05 L 2350.51,2579.58 L 2343.52,2591.7 L 2334.15,2602.1 L 2322.83,2610.32 L 2310.05,2616.02 L 2296.37,2618.92 L 2282.37,2618.92 L 2268.69,2616.02 L 2255.91,2610.32 L 2244.59,2602.1 L 2235.22,2591.7 L 2228.23,2579.58 L 2223.9,2566.28 L 2222.44,2552.36 L 2223.9,2538.45 L 2228.23,2525.14 L 2235.22,2513.02 L 2244.59,2502.62 L 2255.91,2494.4 L 2268.69,2488.71 L 2282.37,2485.8 L 2296.37,2485.8 L 2310.05,2488.71 L 2322.83,2494.4 L 2334.15,2502.62 L 2343.52,2513.02 L 2350.51,2525.14 L 2352.96,2532.68 L 2837.4,2532.68 L 2841.24,2533.06 L 2844.93,2534.18 L 2848.34,2535.99 L 2851.32,2538.44 L 3124.36,2811.48 L 3134.83,2806.82 L 3148.52,2803.91 L 3162.51,2803.91 L 3176.19,2806.82 L 3188.98,2812.51 L 3200.3,2820.73 L 3209.66,2831.13 L 3216.65,2843.25 L 3220.98,2856.56 L 3222.44,2870.47 L 3220.98,2884.39 L 3216.65,2897.69 L 3209.66,2909.81 L 3200.3,2920.21 L 3188.98,2928.43 L 3176.19,2934.13 L 3162.51,2937.03 L 3148.52,2937.03 L 3134.83,2934.13 L 3122.05,2928.43 L 3110.73,2920.21 L 3101.37,2909.81 L 3094.37,2897.69 L 3090.05,2884.39 L 3088.58,2870.47 L 3090.05,2856.56 L 3094.37,2843.25 L 3096.6,2839.39 L 2829.25,2572.05 L 2352.96,2572.05 z " style="fill-opacity:1.000000;fill:rgb(90,37,93);stroke:rgb(0,0,0);stroke-width:2"/></g>
<g fill-rule="evenodd"><path d="M 2356.3,2372.05 L 2356.3,2419.29 L 2222.44,2419.29 L 2222.44,2285.43 L 2356.3,2285.43 L 2356.3,2332.68 L 3037.4,2332.68 L 3041.24,2333.06 L 3044.93,2334.18 L 3048.34,2335.99 L 3051.32,2338.44 L 3124.36,2411.48 L 3134.83,2406.82 L 3148.52,2403.91 L 3162.51,2403.91 L 3176.19,2406.82 L 3188.98,2412.51 L 3200.3,2420.73 L 3209.66,2431.13 L 3216.65,2443.25 L 3220.98,2456.56 L 3222.44,2470.47 L 3220.98,2484.39 L 3216.65,2497.69 L 3209.66,2509.81 L 3200.3,2520.21 L 3188.98,2528.43 L 3176.19,2534.13 L 3162.51,2537.03 L 3148.52,2537.03 L 3134.83,2534.13 L 3122.05,2528.43 L 3110.73,2520.21 L 3101.37,2509.81 L 3094.37,2497.69 L 3090.05,2484.39 L 3088.58,2470.47 L 3090.05,2456.56 L 3094.37,2443.25 L 3096.6,2439.39 L 3029.25,2372.05 L 2356.3,2372.05 z " style="fill-opacity:1.000000;fill:rgb(5,23,88);stroke:rgb(0,0,0);stroke-width:2"/></g>
<g fill-rule="evenodd"><path d="M 1565.56,1638.19 L 1563.11,1645.73 L 1556.12,1657.84 L 1546.75,1668.24 L 1535.43,1676.47 L 1522.65,1682.16 L 1508.96,1685.07 L 1494.97,1685.07 L 1481.29,1682.16 L 1468.5,1676.47 L 1457.18,1668.24 L 1447.82,1657.84 L 1440.83,1645.73 L 1436.5,1632.42 L 1435.04,1618.5 L 1436.5,1604.59 L 1440.83,1591.28 L 1447.82,1579.16 L 1457.18,1568.77 L 1468.5,1560.54 L 1481.29,1554.85 L 1494.97,1551.94 L 1508.96,1551.94 L 1522.65,1554.85 L 1535.43,1560.54 L 1546.75,1568.77 L 1556.12,1579.16 L 1563.11,1591.28 L 1565.56,1598.82 L 2225.78,1598.82 L 2228.23,1591.28 L 2235.22,1579.16 L 2244.59,1568.77 L 2255.91,1560.54 L 2268.69,1554.85 L 2282.37,1551.94 L 2296.37,1551.94 L 2310.05,1554.85 L 2322.83,1560.54 L 2334.15,1568.77 L 2343.52,1579.16 L 2350.51,1591.28 L 2354.84,1604.59 L 2356.3,1618.5 L 2354.84,1632.42 L 2350.51,1645.73 L 2348.29,1649.58 L 2653.43,1954.72 L 3137.12,1954.72 L 3293.31,1798.54 L 3293.31,1103.82 L 3186.66,997.181 L 3176.19,1001.84 L 3162.51,1004.75 L 3148.52,1004.75 L 3134.83,1001.84 L 3122.05,996.151 L 3110.73,987.927 L 3101.37,977.529 L 3094.37,965.412 L 3090.05,952.104 L 3088.58,938.189 L 3090.05,924.274 L 3094.37,910.966 L 3101.37,898.849 L 3110.73,888.451 L 3122.05,880.227 L 3134.83,874.536 L 3148.52,871.626 L 3162.51,871.626 L 3176.19,874.536 L 3186.66,879.197 L 3293.31,772.555 L 3293.31,407.76 L 3226.1,340.551 L 565.241,340.551 L 261.811,643.981 L 261.811,1293.42 L 343.193,1374.8 L 551.575,1374.8 L 551.575,1492.91 L 315.354,1492.91 L 315.354,1402.64 L 228.207,1315.49 L 225.758,1312.51 L 223.939,1309.11 L 222.819,1305.42 L 222.441,1301.57 L 222.441,635.827 L 222.819,631.986 L 223.939,628.294 L 225.758,624.89 L 228.207,621.907 L 543.167,306.947 L 546.15,304.499 L 549.553,302.68 L 553.246,301.559 L 557.087,301.181 L 3234.25,301.181 L 3238.09,301.559 L 3241.79,302.68 L 3245.19,304.499 L 3248.17,306.947 L 3326.91,385.687 L 3329.36,388.67 L 3331.18,392.073 L 3332.3,395.766 L 3332.68,399.606 L 3332.68,780.709 L 3332.3,784.549 L 3331.18,788.242 L 3329.36,791.645 L 3326.91,794.628 L 3214.43,907.111 L 3216.65,910.966 L 3220.98,924.274 L 3222.44,938.189 L 3220.98,952.104 L 3216.65,965.412 L 3214.43,969.267 L 3326.91,1081.75 L 3329.36,1084.73 L 3331.18,1088.14 L 3332.3,1091.83 L 3332.68,1095.67 L 3332.68,1806.69 L 3332.3,1810.53 L 3331.18,1814.23 L 3329.36,1817.63 L 3326.91,1820.61 L 3159.2,1988.33 L 3156.21,1990.78 L 3152.81,1992.6 L 3149.12,1993.72 L 3145.28,1994.09 L 2645.28,1994.09 L 2641.44,1993.72 L 2637.74,1992.6 L 2634.34,1990.78 L 2631.36,1988.33 L 2320.52,1677.5 L 2310.05,1682.16 L 2296.37,1685.07 L 2282.37,1685.07 L 2268.69,1682.16 L 2255.91,1676.47 L 2244.59,1668.24 L 2235.22,1657.84 L 2228.23,1645.73 L 2225.78,1638.19 L 1565.56,1638.19 z " style="fill-opacity:1.000000;fill:rgb(233,94,212);stroke:rgb(0,0,0);stroke-width:2"/></g>
<g fill-rule="evenodd"><path d="M 768.11,1573.23 L 669.685,1573.23 L 669.685,1494.49 L 905.906,1494.49 L 905.906,1573.23 L 807.48,1573.23 L 807.48,2248.54 L 886.894,2327.95 L 1435.04,2327.95 L 1435.04,2280.71 L 1568.9,2280.71 L 1568.9,2327.95 L 1600.11,2327.95 L 1888.84,2039.23 L 1891.82,2036.78 L 1895.22,2034.96 L 1898.92,2033.84 L 1902.76,2033.46 L 2840.55,2033.46 L 2844.39,2033.84 L 2848.08,2034.96 L 2851.49,2036.78 L 2854.47,2039.23 L 3066.03,2250.79 L 3091.92,2250.79 L 3094.37,2243.25 L 3101.37,2231.13 L 3110.73,2220.73 L 3122.05,2212.51 L 3134.83,2206.82 L 3148.52,2203.91 L 3162.51,2203.91 L 3176.19,2206.82 L 3188.98,2212.51 L 3200.3,2220.73 L 3209.66,2231.13 L 3216.65,2243.25 L 3220.98,2256.56 L 3222.44,2270.47 L 3220.98,2284.39 L 3216.65,2297.69 L 3209.66,2309.81 L 3200.3,2320.21 L 3188.98,2328.43 L 3176.19,2334.13 L 3162.51,2337.03 L 3148.52,2337.03 L 3134.83,2334.13 L 3122.05,2328.43 L 3110.73,2320.21 L 3101.37,2309.81 L 3094.37,2297.69 L 3091.92,2290.16 L 3057.87,2290.16 L 3054.03,2289.78 L 3050.34,2288.66 L 3046.94,2286.84 L 3043.95,2284.39 L 2832.4,2072.83 L 1910.91,2072.83 L 1622.19,2361.56 L 1619.2,2364.01 L 1615.8,2365.82 L 1612.11,2366.94 L 1608.27,2367.32 L 1568.9,2367.32 L 1568.9,2414.57 L 1435.04,2414.57 L 1435.04,2367.32 L 886.894,2367.32 L 832.677,2421.54 L 832.677,2452.76 L 931.102,2452.76 L 931.102,2570.87 L 694.882,2570.87 L 694.882,2452.76 L 793.307,2452.76 L 793.307,2413.39 L 793.685,2409.55 L 794.806,2405.85 L 796.625,2402.45 L 799.073,2399.47 L 850.901,2347.64 L 773.876,2270.61 L 771.428,2267.63 L 769.609,2264.23 L 768.488,2260.53 L 768.11,2256.69 L 768.11,1573.23 z " style="fill-opacity:1.000000;fill:rgb(171,178,205);stroke:rgb(0,0,0);stroke-width:2"/></g>
<g fill-rule="evenodd"><path d="M 576.772,3031.5 L 576.772,3070.87 L 340.551,3070.87 L 340.551,2952.76 L 576.772,2952.76 L 576.772,2992.13 L 1243.81,2992.13 L 1302.22,2933.72 L 1305.21,2931.27 L 1308.61,2929.45 L 1312.3,2928.33 L 1316.14,2927.95 L 1438.38,2927.95 L 1440.83,2920.42 L 1447.82,2908.3 L 1457.18,2897.9 L 1468.5,2889.68 L 1481.29,2883.98 L 1494.97,2881.08 L 1508.96,2881.08 L 1522.65,2883.98 L 1535.43,2889.68 L 1546.75,2897.9 L 1556.12,2908.3 L 1563.11,2920.42 L 1567.44,2933.72 L 1568.9,2947.64 L 1567.44,2961.55 L 1563.11,2974.86 L 1556.12,2986.98 L 1546.75,2997.38 L 1535.43,3005.6 L 1522.65,3011.29 L 1508.96,3014.2 L 1494.97,3014.2 L 1481.29,3011.29 L 1468.5,3005.6 L 1457.18,2997.38 L 1447.82,2986.98 L 1440.83,2974.86 L 1438.38,2967.32 L 1324.3,2967.32 L 1265.89,3025.73 L 1262.9,3028.18 L 1259.5,3030 L 1255.81,3031.12 L 1251.97,3031.5 L 576.772,3031.5 z " style="fill-opacity:1.000000;fill:rgb(198,155,180);stroke:rgb(0,0,0);stroke-width:2"/></g>
<g fill-rule="evenodd"><path d="M 576.772,2831.5 L 576.772,2870.87 L 340.551,2870.87 L 340.551,2752.76 L 576.772,2752.76 L 576.772,2792.13 L 1050.11,2792.13 L 1308.52,2533.72 L 1311.5,2531.27 L 1314.91,2529.45 L 1318.6,2528.33 L 1322.44,2527.95 L 1438.38,2527.95 L 1440.83,2520.42 L 1447.82,2508.3 L 1457.18,2497.9 L 1468.5,2489.68 L 1481.29,2483.98 L 1494.97,2481.08 L 1508.96,2481.08 L 1522.65,2483.98 L 1535.43,2489.68 L 1546.75,2497.9 L 1556.12,2508.3 L 1563.11,2520.42 L 1567.44,2533.72 L 1568.9,2547.64 L 1567.44,2561.55 L 1563.11,2574.86 L 1556.12,2586.98 L 1546.75,2597.38 L 1535.43,2605.6 L 1522.65,2611.29 L 1508.96,2614.2 L 1494.97,2614.2 L 1481.29,2611.29 L 1468.5,2605.6 L 1457.18,2597.38 L 1447.82,2586.98 L 1440.83,2574.86 L 1438.38,2567.32 L 1330.59,2567.32 L 1072.19,2825.73 L 1069.2,2828.18 L 1065.8,2830 L 1062.11,2831.12 L 1058.27,2831.5 L 576.772,2831.5 z " style="fill-opacity:1.000000;fill:rgb(84,17,14);stroke:rgb(0,0,0);stroke-width:2"/></g>
<g fill-rule="evenodd"><path d="M 931.102,3131.5 L 931.102,3151.18 L 694.882,3151.18 L 694.882,3072.44 L 931.102,3072.44 L 931.102,3092.13 L 1064.57,3092.13 L 1068.41,3092.5 L 1072.1,3093.62 L 1075.5,3095.44 L 1078.49,3097.89 L 1108.55,3127.95 L 1438.38,3127.95 L 1440.83,3120.42 L 1447.82,3108.3 L 1457.18,3097.9 L 1468.5,3089.68 L 1481.29,3083.98 L 1494.97,3081.08 L 1508.96,3081.08 L 1522.65,3083.98 L 1535.43,3089.68 L 1546.75,3097.9 L 1556.12,3108.3 L 1563.11,3120.42 L 1567.44,3133.72 L 1568.9,3147.64 L 1567.44,3161.55 L 1563.11,3174.86 L 1556.12,3186.98 L 1546.75,3197.38 L 1535.43,3205.6 L 1522.65,3211.29 L 1508.96,3214.2 L 1494.97,3214.2 L 1481.29,3211.29 L 1468.5,3205.6 L 1457.18,3197.38 L 1447.82,3186.98 L 1440.83,3174.86 L 1438.38,3167.32 L 1100.39,3167.32 L 1096.55,3166.94 L 1092.86,3165.82 L 1089.46,3164.01 L 1086.47,3161.56 L 1056.41,3131.5 L 931.102,3131.5 z " style="fill-opacity:1.000000;fill:rgb(130,116,65);stroke:rgb(0,0,0);stroke-width:2"/></g>
<g fill-rule="evenodd"><path d="M 931.102,2931.5 L 931.102,2951.18 L 694.882,2951.18 L 694.882,2872.44 L 931.102,2872.44 L 931.102,2892.13 L 1186.33,2892.13 L 1344.74,2733.72 L 1347.72,2731.27 L 1351.13,2729.45 L 1354.82,2728.33 L 1358.66,2727.95 L 1438.38,2727.95 L 1440.83,2720.42 L 1447.82,2708.3 L 1457.18,2697.9 L 1468.5,2689.68 L 1481.29,2683.98 L 1494.97,2681.08 L 1508.96,2681.08 L 1522.65,2683.98 L 1535.43,2689.68 L 1546.75,2697.9 L 1556.12,2708.3 L 1563.11,2720.42 L 1567.44,2733.72 L 1568.9,2747.64 L 1567.44,2761.55 L 1563.11,2774.86 L 1556.12,2786.98 L 1546.75,2797.38 L 1535.43,2805.6 L 1522.65,2811.29 L 1508.96,2814.2 L 1494.97,2814.2 L 1481.29,2811.29 L 1468.5,2805.6 L 1457.18,2797.38 L 1447.82,2786.98 L 1440.83,2774.86 L 1438.38,2767.32 L 1366.82,2767.32 L 1208.41,2925.73 L 1205.42,2928.18 L 1202.02,2930 L 1198.33,2931.12 L 1194.49,2931.5 L 931.102,2931.5 z " style="fill-opacity:1.000000;fill:rgb(33,61,220);stroke:rgb(0,0,0);stroke-width:2"/></g>
<g fill-rule="evenodd"><path d="M 438.976,3270.87 L 340.551,3270.87 L 340.551,3152.76 L 576.772,3152.76 L 576.772,3270.87 L 478.346,3270.87 L 478.346,3302.08 L 504.217,3327.95 L 1438.38,3327.95 L 1440.83,3320.42 L 1447.82,3308.3 L 1457.18,3297.9 L 1468.5,3289.68 L 1481.29,3283.98 L 1494.97,3281.08 L 1508.96,3281.08 L 1522.65,3283.98 L 1535.43,3289.68 L 1546.75,3297.9 L 1556.12,3308.3 L 1563.11,3320.42 L 1565.56,3327.95 L 2227.31,3327.95 L 2228.23,3325.14 L 2235.22,3313.02 L 2244.59,3302.62 L 2255.91,3294.4 L 2268.69,3288.71 L 2282.37,3285.8 L 2296.37,3285.8 L 2310.05,3288.71 L 2322.83,3294.4 L 2334.15,3302.62 L 2343.52,3313.02 L 2350.51,3325.14 L 2352.96,3332.68 L 2643.7,3332.68 L 2647.54,3333.06 L 2651.23,3334.18 L 2654.64,3335.99 L 2657.62,3338.44 L 2927.45,3608.27 L 3304.84,3608.27 L 3372.05,3541.06 L 3372.05,2914.85 L 3186.66,2729.46 L 3176.19,2734.13 L 3162.51,2737.03 L 3148.52,2737.03 L 3134.83,2734.13 L 3122.05,2728.43 L 3110.73,2720.21 L 3101.37,2709.81 L 3094.37,2697.69 L 3090.05,2684.39 L 3088.58,2670.47 L 3090.05,2656.56 L 3094.37,2643.25 L 3101.37,2631.13 L 3110.73,2620.73 L 3122.05,2612.51 L 3134.83,2606.82 L 3148.52,2603.91 L 3162.51,2603.91 L 3176.19,2606.82 L 3188.98,2612.51 L 3200.3,2620.73 L 3209.66,2631.13 L 3216.65,2643.25 L 3220.98,2656.56 L 3222.44,2670.47 L 3220.98,2684.39 L 3216.65,2697.69 L 3214.43,2701.55 L 3405.65,2892.77 L 3408.1,2895.76 L 3409.92,2899.16 L 3411.04,2902.85 L 3411.42,2906.69 L 3411.42,3549.21 L 3411.04,3553.05 L 3409.92,3556.75 L 3408.1,3560.15 L 3405.65,3563.13 L 3326.91,3641.87 L 3323.93,3644.32 L 3320.53,3646.14 L 3316.83,3647.26 L 3312.99,3647.64 L 2919.29,3647.64 L 2915.45,3647.26 L 2911.76,3646.14 L 2908.35,3644.32 L 2905.37,3641.87 L 2635.55,3372.05 L 2352.96,3372.05 L 2350.51,3379.58 L 2343.52,3391.7 L 2334.15,3402.1 L 2322.83,3410.32 L 2310.05,3416.02 L 2296.37,3418.92 L 2282.37,3418.92 L 2268.69,3416.02 L 2255.91,3410.32 L 2244.59,3402.1 L 2235.22,3391.7 L 2228.23,3379.58 L 2224.24,3367.32 L 1565.56,3367.32 L 1563.11,3374.86 L 1556.12,3386.98 L 1546.75,3397.38 L 1535.43,3405.6 L 1522.65,3411.29 L 1508.96,3414.2 L 1494.97,3414.2 L 1481.29,3411.29 L 1468.5,3405.6 L 1457.18,3397.38 L 1447.82,3386.98 L 1440.83,3374.86 L 1438.38,3367.32 L 496.063,3367.32 L 492.223,3366.94 L 488.53,3365.82 L 485.127,3364.01 L 482.144,3361.56 L 444.742,3324.16 L 442.294,3321.17 L 440.475,3317.77 L 439.355,3314.08 L 438.976,3310.24 L 438.976,3270.87 z " style="fill-opacity:1.000000;fill:rgb(135,112,233);stroke:rgb(0,0,0);stroke-width:2"/></g>
<g fill-rule="evenodd"><path d="M 551.575,1053.54 L 551.575,1092.91 L 315.354,1092.91 L 315.354,974.803 L 551.575,974.803 L 551.575,1014.17 L 1435.49,1014.17 L 1436.5,1004.59 L 1440.83,991.281 L 1447.82,979.164 L 1457.18,968.766 L 1468.5,960.542 L 1481.29,954.851 L 1494.97,951.941 L 1508.96,951.941 L 1522.65,954.851 L 1535.43,960.542 L 1546.75,968.766 L 1556.12,979.164 L 1563.11,991.281 L 1567.44,1004.59 L 1568.9,1018.5 L 1567.44,1032.42 L 1563.11,1045.73 L 1556.12,1057.84 L 1546.75,1068.24 L 1535.43,1076.47 L 1522.65,1082.16 L 1508.96,1085.07 L 1494.97,1085.07 L 1481.29,1082.16 L 1468.5,1076.47 L 1457.18,1068.24 L 1447.82,1057.84 L 1445.34,1053.54 L 551.575,1053.54 z " style="fill-opacity:1.000000;fill:rgb(62,161,65);stroke:rgb(0,0,0);stroke-width:2"/></g>
<g fill-rule="evenodd"><path d="M 905.906,1153.54 L 905.906,1173.23 L 669.685,1173.23 L 669.685,1094.49 L 905.906,1094.49 L 905.906,1114.17 L 1133.86,1114.17 L 1137.7,1114.55 L 1141.39,1115.67 L 1144.79,1117.49 L 1147.78,1119.94 L 1226.66,1198.82 L 1438.38,1198.82 L 1440.83,1191.28 L 1447.82,1179.16 L 1457.18,1168.77 L 1468.5,1160.54 L 1481.29,1154.85 L 1494.97,1151.94 L 1508.96,1151.94 L 1522.65,1154.85 L 1535.43,1160.54 L 1546.75,1168.77 L 1556.12,1179.16 L 1563.11,1191.28 L 1567.44,1204.59 L 1568.9,1218.5 L 1567.44,1232.42 L 1563.11,1245.73 L 1556.12,1257.84 L 1546.75,1268.24 L 1535.43,1276.47 L 1522.65,1282.16 L 1508.96,1285.07 L 1494.97,1285.07 L 1481.29,1282.16 L 1468.5,1276.47 L 1457.18,1268.24 L 1447.82,1257.84 L 1440.83,1245.73 L 1438.38,1238.19 L 1218.5,1238.19 L 1214.66,1237.81 L 1210.97,1236.69 L 1207.57,1234.87 L 1204.58,1232.42 L 1125.7,1153.54 L 905.906,1153.54 z " style="fill-opacity:1.000000;fill:rgb(225,252,103);stroke:rgb(0,0,0);stroke-width:2"/></g>
<g fill-rule="evenodd"><path d="M 905.906,953.543 L 905.906,973.228 L 669.685,973.228 L 669.685,894.488 L 905.906,894.488 L 905.906,914.173 L 1038.3,914.173 L 1147.89,804.585 L 1150.87,802.136 L 1154.28,800.317 L 1157.97,799.197 L 1161.81,798.819 L 1438.38,798.819 L 1440.83,791.281 L 1447.82,779.164 L 1457.18,768.766 L 1468.5,760.542 L 1481.29,754.851 L 1494.97,751.941 L 1508.96,751.941 L 1522.65,754.851 L 1535.43,760.542 L 1546.75,768.766 L 1556.12,779.164 L 1563.11,791.281 L 1567.44,804.589 L 1568.9,818.504 L 1567.44,832.419 L 1563.11,845.726 L 1556.12,857.844 L 1546.75,868.242 L 1535.43,876.466 L 1522.65,882.157 L 1508.96,885.066 L 1494.97,885.066 L 1481.29,882.157 L 1468.5,876.466 L 1457.18,868.242 L 1447.82,857.844 L 1440.83,845.726 L 1438.38,838.189 L 1169.96,838.189 L 1060.38,947.778 L 1057.39,950.226 L 1053.99,952.045 L 1050.3,953.165 L 1046.46,953.543 L 905.906,953.543 z " style="fill-opacity:1.000000;fill:rgb(62,1,126);stroke:rgb(0,0,0);stroke-width:2"/></g>
<g fill-rule="evenodd"><path d="M 551.575,1253.54 L 551.575,1292.91 L 315.354,1292.91 L 315.354,1174.8 L 551.575,1174.8 L 551.575,1214.17 L 997.638,1214.17 L 1001.48,1214.55 L 1005.17,1215.67 L 1008.57,1217.49 L 1011.56,1219.94 L 1190.44,1398.82 L 1438.38,1398.82 L 1440.83,1391.28 L 1447.82,1379.16 L 1457.18,1368.77 L 1468.5,1360.54 L 1481.29,1354.85 L 1494.97,1351.94 L 1508.96,1351.94 L 1522.65,1354.85 L 1535.43,1360.54 L 1546.75,1368.77 L 1556.12,1379.16 L 1563.11,1391.28 L 1567.44,1404.59 L 1568.9,1418.5 L 1567.44,1432.42 L 1563.11,1445.73 L 1556.12,1457.84 L 1546.75,1468.24 L 1535.43,1476.47 L 1522.65,1482.16 L 1508.96,1485.07 L 1494.97,1485.07 L 1481.29,1482.16 L 1468.5,1476.47 L 1457.18,1468.24 L 1447.82,1457.84 L 1440.83,1445.73 L 1438.38,1438.19 L 1182.28,1438.19 L 1178.44,1437.81 L 1174.75,1436.69 L 1171.35,1434.87 L 1168.36,1432.42 L 989.484,1253.54 L 551.575,1253.54 z " style="fill-opacity:1.000000;fill:rgb(151,234,220);stroke:rgb(0,0,0);stroke-width:2"/></g>
<g fill-rule="evenodd"><path d="M 1568.9,638.189 L 1568.9,685.433 L 1435.04,685.433 L 1435.04,551.575 L 1568.9,551.575 L 1568.9,598.819 L 1600.11,598.819 L 1741.59,457.34 L 1744.58,454.892 L 1747.98,453.073 L 1751.67,451.953 L 1755.51,451.575 L 3088.58,451.575 L 3092.42,451.953 L 3096.12,453.073 L 3099.52,454.892 L 3102.5,457.34 L 3124.36,479.197 L 3134.83,474.536 L 3148.52,471.626 L 3162.51,471.626 L 3176.19,474.536 L 3188.98,480.227 L 3200.3,488.451 L 3209.66,498.849 L 3216.65,510.966 L 3220.98,524.274 L 3222.44,538.189 L 3220.98,552.104 L 3216.65,565.412 L 3209.66,577.529 L 3200.3,587.927 L 3188.98,596.151 L 3176.19,601.842 L 3162.51,604.751 L 3148.52,604.751 L 3134.83,601.842 L 3122.05,596.151 L 3110.73,587.927 L 3101.37,577.529 L 3094.37,565.412 L 3090.05,552.104 L 3088.58,538.189 L 3090.05,524.274 L 3094.37,510.966 L 3096.6,507.111 L 3080.43,490.945 L 1763.67,490.945 L 1622.19,632.423 L 1619.2,634.871 L 1615.8,636.691 L 1612.11,637.811 L 1608.27,638.189 L 1568.9,638.189 z " style="fill-opacity:1.000000;fill:rgb(107,150,143);stroke:rgb(0,0,0);stroke-width:2"/></g>
<g fill-rule="evenodd"><path d="M 3088.58,3431.38 L 2829.25,3172.05 L 2352.96,3172.05 L 2350.51,3179.58 L 2343.52,3191.7 L 2334.15,3202.1 L 2322.83,3210.32 L 2310.05,3216.02 L 2296.37,3218.92 L 2282.37,3218.92 L 2268.69,3216.02 L 2255.91,3210.32 L 2244.59,3202.1 L 2235.22,3191.7 L 2228.23,3179.58 L 2223.9,3166.28 L 2222.44,3152.36 L 2223.9,3138.45 L 2228.23,3125.14 L 2235.22,3113.02 L 2244.59,3102.62 L 2255.91,3094.4 L 2268.69,3088.71 L 2282.37,3085.8 L 2296.37,3085.8 L 2310.05,3088.71 L 2322.83,3094.4 L 2334.15,3102.62 L 2343.52,3113.02 L 2350.51,3125.14 L 2352.96,3132.68 L 2837.4,3132.68 L 2841.24,3133.06 L 2844.93,3134.18 L 2848.34,3135.99 L 2851.32,3138.44 L 3116.42,3403.54 L 3222.44,3403.54 L 3222.44,3537.4 L 3088.58,3537.4 L 3088.58,3431.38 z " style="fill-opacity:1.000000;fill:rgb(56,92,42);stroke:rgb(0,0,0);stroke-width:2"/></g>
</svg>
