<?xml version="1.0" standalone="no"?>
<!DOCTYPE svg PUBLIC "-//W3C//DTD SVG 1.1//EN"
"http://www.w3.org/Graphics/SVG/1.1/DTD/svg11.dtd">
<svg width="154.583" height="162.142" viewBox="0 0 3220.47 3377.95" version="1.1"
xmlns="http://www.w3.org/2000/svg"
xmlns:xlink="http://www.w3.org/1999/xlink">
<g fill-rule="evenodd"><path d="M 108.661,1407.48 L 108.661,1289.37 L 344.882,1289.37 L 344.882,1407.48 L 108.661,1407.48 z " style="fill-opacity:1.000000;fill:rgb(103,198,105);stroke:rgb(0,0,0);stroke-width:2"/></g>
<g fill-rule="evenodd"><path d="M 108.661,607.48 L 108.661,489.37 L 344.882,489.37 L 344.882,607.48 L 108.661,607.48 z " style="fill-opacity:1.000000;fill:rgb(115,81,255);stroke:rgb(0,0,0);stroke-width:2"/></g>
<g fill-rule="evenodd"><path d="M 462.992,1087.8 L 462.992,1009.06 L 699.213,1009.06 L 699.213,1087.8 L 462.992,1087.8 z " style="fill-opacity:1.000000;fill:rgb(74,236,41);stroke:rgb(0,0,0);stroke-width:2"/></g>
<g fill-rule="evenodd"><path d="M 462.992,507.48 L 462.992,389.37 L 699.213,389.37 L 699.213,507.48 L 462.992,507.48 z " style="fill-opacity:1.000000;fill:rgb(205,186,171);stroke:rgb(0,0,0);stroke-width:2"/></g>
<g fill-rule="evenodd"><path d="M 133.858,2385.43 L 133.858,2267.32 L 370.079,2267.32 L 370.079,2385.43 L 133.858,2385.43 z " style="fill-opacity:1.000000;fill:rgb(242,251,227);stroke:rgb(0,0,0);stroke-width:2"/></g>
<g fill-rule="evenodd"><path d="M 488.189,2465.75 L 488.189,2387.01 L 724.409,2387.01 L 724.409,2465.75 L 488.189,2465.75 z " style="fill-opacity:1.000000;fill:rgb(70,124,194);stroke:rgb(0,0,0);stroke-width:2"/></g>
<g fill-rule="evenodd"><path d="M 370.079,2746.06 L 370.079,2785.43 L 133.858,2785.43 L 133.858,2667.32 L 370.079,2667.32 L 370.079,2706.69 L 1037.12,2706.69 L 1095.53,2648.29 L 1098.51,2645.84 L 1101.92,2644.02 L 1105.61,2642.9 L 1109.45,2642.52 L 1231.68,2642.52 L 1234.13,2634.98 L 1241.13,2622.86 L 1250.49,2612.47 L 1261.81,2604.24 L 1274.59,2598.55 L 1288.28,2595.64 L 1302.27,2595.64 L 1315.96,2598.55 L 1328.74,2604.24 L 1340.06,2612.47 L 1349.42,2622.86 L 1356.42,2634.98 L 1360.74,2648.29 L 1362.2,2662.2 L 1360.74,2676.12 L 1356.42,2689.43 L 1349.42,2701.54 L 1340.06,2711.94 L 1328.74,2720.17 L 1315.96,2725.86 L 1302.27,2728.77 L 1288.28,2728.77 L 1274.59,2725.86 L 1261.81,2720.17 L 1250.49,2711.94 L 1241.13,2701.54 L 1234.13,2689.43 L 1231.68,2681.89 L 1117.6,2681.89 L 1059.2,2740.3 L 1056.21,2742.75 L 1052.81,2744.56 L 1049.12,2745.68 L 1045.28,2746.06 L 370.079,2746.06 z " style="fill-opacity:1.000000;fill:rgb(84,248,27);stroke:rgb(0,0,0);stroke-width:2"/></g>
<g fill-rule="evenodd"><path d="M 370.079,2546.06 L 370.079,2585.43 L 133.858,2585.43 L 133.858,2467.32 L 370.079,2467.32 L 370.079,2506.69 L 843.421,2506.69 L 1101.83,2248.29 L 1104.81,2245.84 L 1108.21,2244.02 L 1111.91,2242.9 L 1115.75,2242.52 L 1231.68,2242.52 L 1234.13,2234.98 L 1241.13,2222.86 L 1250.49,2212.47 L 1261.81,2204.24 L 1274.59,2198.55 L 1288.28,2195.64 L 1302.27,2195.64 L 1315.96,2198.55 L 1328.74,2204.24 L 1340.06,2212.47 L 1349.42,2222.86 L 1356.42,2234.98 L 1360.74,2248.29 L 1362.2,2262.2 L 1360.74,2276.12 L 1356.42,2289.43 L 1349.42,2301.54 L 1340.06,2311.94 L 1328.74,2320.17 L 1315.96,2325.86 L 1302.27,2328.77 L 1288.28,2328.77 L 1274.59,2325.86 L 1261.81,2320.17 L 1250.49,2311.94 L 1241.13,2301.54 L 1234.13,2289.43 L 1231.68,2281.89 L 1123.9,2281.89 L 865.494,2540.3 L 862.511,2542.75 L 859.108,2544.56 L 855.415,2545.68 L 851.575,2546.06 L 370.079,2546.06 z " style="fill-opacity:1.000000;fill:rgb(232,231,141);stroke:rgb(0,0,0);stroke-width:2"/></g>
<g fill-rule="evenodd"><path d="M 724.409,2846.06 L 724.409,2865.75 L 488.189,2865.75 L 488.189,2787.01 L 724.409,2787.01 L 724.409,2806.69 L 857.874,2806.69 L 861.714,2807.07 L 865.407,2808.19 L 868.81,2810.01 L 871.793,2812.46 L 901.855,2842.52 L 1231.68,2842.52 L 1234.13,2834.98 L 1241.13,2822.86 L 1250.49,2812.47 L 1261.81,2804.24 L 1274.59,2798.55 L 1288.28,2795.64 L 1302.27,2795.64 L 1315.96,2798.55 L 1328.74,2804.24 L 1340.06,2812.47 L 1349.42,2822.86 L 1356.42,2834.98 L 1360.74,2848.29 L 1362.2,2862.2 L 1360.74,2876.12 L 1356.42,2889.43 L 1349.42,2901.54 L 1340.06,2911.94 L 1328.74,2920.17 L 1315.96,2925.86 L 1302.27,2928.77 L 1288.28,2928.77 L 1274.59,2925.86 L 1261.81,2920.17 L 1250.49,2911.94 L 1241.13,2901.54 L 1234.13,2889.43 L 1231.68,2881.89 L 893.701,2881.89 L 889.86,2881.51 L 886.168,2880.39 L 882.764,2878.57 L 879.781,2876.12 L 849.72,2846.06 L 724.409,2846.06 z " style="fill-opacity:1.000000;fill:rgb(118,90,46);stroke:rgb(0,0,0);stroke-width:2"/></g>
<g fill-rule="evenodd"><path d="M 724.409,2646.06 L 724.409,2665.75 L 488.189,2665.75 L 488.189,2587.01 L 724.409,2587.01 L 724.409,2606.69 L 979.641,2606.69 L 1138.05,2448.29 L 1141.03,2445.84 L 1144.44,2444.02 L 1148.13,2442.9 L 1151.97,2442.52 L 1231.68,2442.52 L 1234.13,2434.98 L 1241.13,2422.86 L 1250.49,2412.47 L 1261.81,2404.24 L 1274.59,2398.55 L 1288.28,2395.64 L 1302.27,2395.64 L 1315.96,2398.55 L 1328.74,2404.24 L 1340.06,2412.47 L 1349.42,2422.86 L 1356.42,2434.98 L 1360.74,2448.29 L 1362.2,2462.2 L 1360.74,2476.12 L 1356.42,2489.43 L 1349.42,2501.54 L 1340.06,2511.94 L 1328.74,2520.17 L 1315.96,2525.86 L 1302.27,2528.77 L 1288.28,2528.77 L 1274.59,2525.86 L 1261.81,2520.17 L 1250.49,2511.94 L 1241.13,2501.54 L 1234.13,2489.43 L 1231.68,2481.89 L 1160.12,2481.89 L 1001.71,2640.3 L 998.732,2642.75 L 995.328,2644.56 L 991.636,2645.68 L 987.795,2646.06 L 724.409,2646.06 z " style="fill-opacity:1.000000;fill:rgb(99,51,159);stroke:rgb(0,0,0);stroke-width:2"/></g>
<g fill-rule="evenodd"><path d="M 2017.55,3081.89 L 1358.87,3081.89 L 1356.42,3089.43 L 1349.42,3101.54 L 1340.06,3111.94 L 1328.74,3120.17 L 1315.96,3125.86 L 1302.27,3128.77 L 1288.28,3128.77 L 1274.59,3125.86 L 1261.81,3120.17 L 1250.49,3111.94 L 1241.13,3101.54 L 1234.13,3089.43 L 1231.68,3081.89 L 289.37,3081.89 L 285.53,3081.51 L 281.837,3080.39 L 278.434,3078.57 L 275.451,3076.12 L 238.049,3038.72 L 235.601,3035.74 L 233.782,3032.34 L 232.662,3028.64 L 232.283,3024.8 L 232.283,2985.43 L 133.858,2985.43 L 133.858,2867.32 L 370.079,2867.32 L 370.079,2985.43 L 271.654,2985.43 L 271.654,3016.65 L 297.524,3042.52 L 1231.68,3042.52 L 1234.13,3034.98 L 1241.13,3022.86 L 1250.49,3012.47 L 1261.81,3004.24 L 1274.59,2998.55 L 1288.28,2995.64 L 1302.27,2995.64 L 1315.96,2998.55 L 1328.74,3004.24 L 1340.06,3012.47 L 1349.42,3022.86 L 1356.42,3034.98 L 1358.87,3042.52 L 2020.62,3042.52 L 2021.53,3039.71 L 2028.53,3027.59 L 2037.89,3017.19 L 2049.21,3008.97 L 2061.99,3003.28 L 2075.68,3000.37 L 2089.67,3000.37 L 2103.36,3003.28 L 2116.14,3008.97 L 2127.46,3017.19 L 2136.82,3027.59 L 2143.82,3039.71 L 2146.27,3047.24 L 2437.01,3047.24 L 2440.85,3047.62 L 2444.54,3048.74 L 2447.94,3050.56 L 2450.93,3053.01 L 2720.75,3322.83 L 3098.15,3322.83 L 3165.35,3255.63 L 3165.35,2629.41 L 2979.97,2444.03 L 2969.5,2448.69 L 2955.81,2451.6 L 2941.82,2451.6 L 2928.14,2448.69 L 2915.35,2443 L 2904.03,2434.78 L 2894.67,2424.38 L 2887.68,2412.26 L 2883.35,2398.95 L 2881.89,2385.04 L 2883.35,2371.12 L 2887.68,2357.82 L 2894.67,2345.7 L 2904.03,2335.3 L 2915.35,2327.08 L 2928.14,2321.39 L 2941.82,2318.48 L 2955.81,2318.48 L 2969.5,2321.39 L 2982.28,2327.08 L 2993.6,2335.3 L 3002.97,2345.7 L 3009.96,2357.82 L 3014.29,2371.12 L 3015.75,2385.04 L 3014.29,2398.95 L 3009.96,2412.26 L 3007.74,2416.12 L 3198.96,2607.34 L 3201.41,2610.32 L 3203.23,2613.73 L 3204.35,2617.42 L 3204.72,2621.26 L 3204.72,3263.78 L 3204.35,3267.62 L 3203.23,3271.31 L 3201.41,3274.72 L 3198.96,3277.7 L 3120.22,3356.44 L 3117.24,3358.89 L 3113.83,3360.71 L 3110.14,3361.83 L 3106.3,3362.2 L 2712.6,3362.2 L 2708.76,3361.83 L 2705.07,3360.71 L 2701.66,3358.89 L 2698.68,3356.44 L 2428.85,3086.61 L 2146.27,3086.61 L 2143.82,3094.15 L 2136.82,3106.27 L 2127.46,3116.67 L 2116.14,3124.89 L 2103.36,3130.58 L 2089.67,3133.49 L 2075.68,3133.49 L 2061.99,3130.58 L 2049.21,3124.89 L 2037.89,3116.67 L 2028.53,3106.27 L 2021.53,3094.15 L 2017.55,3081.89 z " style="fill-opacity:1.000000;fill:rgb(201,154,102);stroke:rgb(0,0,0);stroke-width:2"/></g>
<g fill-rule="evenodd"><path d="M 2146.27,2886.61 L 2143.82,2894.15 L 2136.82,2906.27 L 2127.46,2916.67 L 2116.14,2924.89 L 2103.36,2930.58 L 2089.67,2933.49 L 2075.68,2933.49 L 2061.99,2930.58 L 2049.21,2924.89 L 2037.89,2916.67 L 2028.53,2906.27 L 2021.53,2894.15 L 2017.21,2880.84 L 2015.75,2866.93 L 2017.21,2853.01 L 2021.53,2839.71 L 2028.53,2827.59 L 2037.89,2817.19 L 2049.21,2808.97 L 2061.99,2803.28 L 2075.68,2800.37 L 2089.67,2800.37 L 2103.36,2803.28 L 2116.14,2808.97 L 2127.46,2817.19 L 2136.82,2827.59 L 2143.82,2839.71 L 2146.27,2847.24 L 2630.71,2847.24 L 2634.55,2847.62 L 2638.24,2848.74 L 2641.65,2850.56 L 2644.63,2853.01 L 2909.73,3118.11 L 3015.75,3118.11 L 3015.75,3251.97 L 2881.89,3251.97 L 2881.89,3145.95 L 2622.55,2886.61 L 2146.27,2886.61 z " style="fill-opacity:1.000000;fill:rgb(50,13,183);stroke:rgb(0,0,0);stroke-width:2"/></g>
<g fill-rule="evenodd"><path d="M 2146.27,2686.61 L 2143.82,2694.15 L 2136.82,2706.27 L 2127.46,2716.67 L 2116.14,2724.89 L 2103.36,2730.58 L 2089.67,2733.49 L 2075.68,2733.49 L 2061.99,2730.58 L 2049.21,2724.89 L 2037.89,2716.67 L 2028.53,2706.27 L 2021.53,2694.15 L 2017.21,2680.84 L 2015.75,2666.93 L 2017.21,2653.01 L 2021.53,2639.71 L 2028.53,2627.59 L 2037.89,2617.19 L 2049.21,2608.97 L 2061.99,2603.28 L 2075.68,2600.37 L 2089.67,2600.37 L 2103.36,2603.28 L 2116.14,2608.97 L 2127.46,2617.19 L 2136.82,2627.59 L 2143.82,2639.71 L 2146.27,2647.24 L 2630.71,2647.24 L 2634.55,2647.62 L 2638.24,2648.74 L 2641.65,2650.56 L 2644.63,2653.01 L 2917.67,2926.05 L 2928.14,2921.39 L 2941.82,2918.48 L 2955.81,2918.48 L 2969.5,2921.39 L 2982.28,2927.08 L 2993.6,2935.3 L 3002.97,2945.7 L 3009.96,2957.82 L 3014.29,2971.12 L 3015.75,2985.04 L 3014.29,2998.95 L 3009.96,3012.26 L 3002.97,3024.38 L 2993.6,3034.78 L 2982.28,3043 L 2969.5,3048.69 L 2955.81,3051.6 L 2941.82,3051.6 L 2928.14,3048.69 L 2915.35,3043 L 2904.03,3034.78 L 2894.67,3024.38 L 2887.68,3012.26 L 2883.35,2998.95 L 2881.89,2985.04 L 2883.35,2971.12 L 2887.68,2957.82 L 2889.9,2953.96 L 2622.55,2686.61 L 2146.27,2686.61 z " style="fill-opacity:1.000000;fill:rgb(49,88,163);stroke:rgb(0,0,0);stroke-width:2"/></g>
<g fill-rule="evenodd"><path d="M 2146.27,2486.61 L 2143.82,2494.15 L 2136.82,2506.27 L 2127.46,2516.67 L 2116.14,2524.89 L 2103.36,2530.58 L 2089.67,2533.49 L 2075.68,2533.49 L 2061.99,2530.58 L 2049.21,2524.89 L 2037.89,2516.67 L 2028.53,2506.27 L 2021.53,2494.15 L 2017.21,2480.84 L 2015.75,2466.93 L 2017.21,2453.01 L 2021.53,2439.71 L 2028.53,2427.59 L 2037.89,2417.19 L 2049.21,2408.97 L 2061.99,2403.28 L 2075.68,2400.37 L 2089.67,2400.37 L 2103.36,2403.28 L 2116.14,2408.97 L 2127.46,2417.19 L 2136.82,2427.59 L 2143.82,2439.71 L 2146.27,2447.24 L 2630.71,2447.24 L 2634.55,2447.62 L 2638.24,2448.74 L 2641.65,2450.56 L 2644.63,2453.01 L 2917.67,2726.05 L 2928.14,2721.39 L 2941.82,2718.48 L 2955.81,2718.48 L 2969.5,2721.39 L 2982.28,2727.08 L 2993.6,2735.3 L 3002.97,2745.7 L 3009.96,2757.82 L 3014.29,2771.12 L 3015.75,2785.04 L 3014.29,2798.95 L 3009.96,2812.26 L 3002.97,2824.38 L 2993.6,2834.78 L 2982.28,2843 L 2969.5,2848.69 L 2955.81,2851.6 L 2941.82,2851.6 L 2928.14,2848.69 L 2915.35,2843 L 2904.03,2834.78 L 2894.67,2824.38 L 2887.68,2812.26 L 2883.35,2798.95 L 2881.89,2785.04 L 2883.35,2771.12 L 2887.68,2757.82 L 2889.9,2753.96 L 2622.55,2486.61 L 2146.27,2486.61 z " style="fill-opacity:1.000000;fill:rgb(90,37,93);stroke:rgb(0,0,0);stroke-width:2"/></g>
<g fill-rule="evenodd"><path d="M 2146.27,2286.61 L 2143.82,2294.15 L 2136.82,2306.27 L 2127.46,2316.67 L 2116.14,2324.89 L 2103.36,2330.58 L 2089.67,2333.49 L 2075.68,2333.49 L 2061.99,2330.58 L 2049.21,2324.89 L 2037.89,2316.67 L 2028.53,2306.27 L 2021.53,2294.15 L 2017.21,2280.84 L 2015.75,2266.93 L 2017.21,2253.01 L 2021.53,2239.71 L 2028.53,2227.59 L 2037.89,2217.19 L 2049.21,2208.97 L 2061.99,2203.28 L 2075.68,2200.37 L 2089.67,2200.37 L 2103.36,2203.28 L 2116.14,2208.97 L 2127.46,2217.19 L 2136.82,2227.59 L 2143.82,2239.71 L 2146.27,2247.24 L 2630.71,2247.24 L 2634.55,2247.62 L 2638.24,2248.74 L 2641.65,2250.56 L 2644.63,2253.01 L 2917.67,2526.05 L 2928.14,2521.39 L 2941.82,2518.48 L 2955.81,2518.48 L 2969.5,2521.39 L 2982.28,2527.08 L 2993.6,2535.3 L 3002.97,2545.7 L 3009.96,2557.82 L 3014.29,2571.12 L 3015.75,2585.04 L 3014.29,2598.95 L 3009.96,2612.26 L 3002.97,2624.38 L 2993.6,2634.78 L 2982.28,2643 L 2969.5,2648.69 L 2955.81,2651.6 L 2941.82,2651.6 L 2928.14,2648.69 L 2915.35,2643 L 2904.03,2634.78 L 2894.67,2624.38 L 2887.68,2612.26 L 2883.35,2598.95 L 2881.89,2585.04 L 2883.35,2571.12 L 2887.68,2557.82 L 2889.9,2553.96 L 2622.55,2286.61 L 2146.27,2286.61 z " style="fill-opacity:1.000000;fill:rgb(5,23,88);stroke:rgb(0,0,0);stroke-width:2"/></g>
<g fill-rule="evenodd"><path d="M 2917.67,2126.05 L 2928.14,2121.39 L 2941.82,2118.48 L 2955.81,2118.48 L 2969.5,2121.39 L 2982.28,2127.08 L 2993.6,2135.3 L 3002.97,2145.7 L 3009.96,2157.82 L 3014.29,2171.12 L 3015.75,2185.04 L 3014.29,2198.95 L 3009.96,2212.26 L 3002.97,2224.38 L 2993.6,2234.78 L 2982.28,2243 L 2969.5,2248.69 L 2955.81,2251.6 L 2941.82,2251.6 L 2928.14,2248.69 L 2915.35,2243 L 2904.03,2234.78 L 2894.67,2224.38 L 2887.68,2212.26 L 2883.35,2198.95 L 2881.89,2185.04 L 2883.35,2171.12 L 2887.68,2157.82 L 2889.9,2153.96 L 2822.55,2086.61 L 2149.61,2086.61 L 2149.61,2133.86 L 2015.75,2133.86 L 2015.75,2000 L 2149.61,2000 L 2149.61,2047.24 L 2830.71,2047.24 L 2834.55,2047.62 L 2838.24,2048.74 L 2841.65,2050.56 L 2844.63,2053.01 L 2917.67,2126.05 z " style="fill-opacity:1.000000;fill:rgb(233,94,212);stroke:rgb(0,0,0);stroke-width:2"/></g>
<g fill-rule="evenodd"><path d="M 1358.87,1352.76 L 1356.42,1360.29 L 1349.42,1372.41 L 1340.06,1382.81 L 1328.74,1391.03 L 1315.96,1396.72 L 1302.27,1399.63 L 1288.28,1399.63 L 1274.59,1396.72 L 1261.81,1391.03 L 1250.49,1382.81 L 1241.13,1372.41 L 1234.13,1360.29 L 1229.81,1346.99 L 1228.35,1333.07 L 1229.81,1319.16 L 1234.13,1305.85 L 1241.13,1293.73 L 1250.49,1283.33 L 1261.81,1275.11 L 1274.59,1269.42 L 1288.28,1266.51 L 1302.27,1266.51 L 1315.96,1269.42 L 1328.74,1275.11 L 1340.06,1283.33 L 1349.42,1293.73 L 1356.42,1305.85 L 1358.87,1313.39 L 2019.09,1313.39 L 2021.53,1305.85 L 2028.53,1293.73 L 2037.89,1283.33 L 2049.21,1275.11 L 2061.99,1269.42 L 2075.68,1266.51 L 2089.67,1266.51 L 2103.36,1269.42 L 2116.14,1275.11 L 2127.46,1283.33 L 2136.82,1293.73 L 2143.82,1305.85 L 2148.14,1319.16 L 2149.61,1333.07 L 2148.14,1346.99 L 2143.82,1360.29 L 2141.59,1364.15 L 2446.74,1669.29 L 2930.43,1669.29 L 3086.61,1513.11 L 3086.61,818.39 L 2979.97,711.747 L 2969.5,716.409 L 2955.81,719.318 L 2941.82,719.318 L 2928.14,716.409 L 2915.35,710.718 L 2904.03,702.494 L 2894.67,692.096 L 2887.68,679.978 L 2883.35,666.671 L 2881.89,652.756 L 2883.35,638.841 L 2887.68,625.533 L 2894.67,613.416 L 2904.03,603.018 L 2915.35,594.794 L 2928.14,589.103 L 2941.82,586.193 L 2955.81,586.193 L 2969.5,589.103 L 2979.97,593.764 L 3086.61,487.122 L 3086.61,122.327 L 3019.41,55.1181 L 358.548,55.1181 L 55.1181,358.548 L 55.1181,1007.99 L 136.5,1089.37 L 344.882,1089.37 L 344.882,1207.48 L 108.661,1207.48 L 108.661,1117.21 L 21.5136,1030.06 L 19.0656,1027.08 L 17.2465,1023.67 L 16.1263,1019.98 L 15.748,1016.14 L 15.748,350.394 L 16.1263,346.553 L 17.2465,342.861 L 19.0656,339.457 L 21.5136,336.474 L 336.474,21.5136 L 339.457,19.0656 L 342.861,17.2465 L 346.553,16.1263 L 350.394,15.748 L 3027.56,15.748 L 3031.4,16.1263 L 3035.09,17.2465 L 3038.5,19.0656 L 3041.48,21.5136 L 3120.22,100.254 L 3122.67,103.237 L 3124.49,106.64 L 3125.61,110.333 L 3125.98,114.173 L 3125.98,495.276 L 3125.61,499.116 L 3124.49,502.809 L 3122.67,506.212 L 3120.22,509.195 L 3007.74,621.678 L 3009.96,625.533 L 3014.29,638.841 L 3015.75,652.756 L 3014.29,666.671 L 3009.96,679.978 L 3007.74,683.834 L 3120.22,796.317 L 3122.67,799.3 L 3124.49,802.703 L 3125.61,806.396 L 3125.98,810.236 L 3125.98,1521.26 L 3125.61,1525.1 L 3124.49,1528.79 L 3122.67,1532.2 L 3120.22,1535.18 L 2952.5,1702.9 L 2949.52,1705.34 L 2946.12,1707.16 L 2942.42,1708.28 L 2938.58,1708.66 L 2438.58,1708.66 L 2434.74,1708.28 L 2431.05,1707.16 L 2427.65,1705.34 L 2424.66,1702.9 L 2113.83,1392.06 L 2103.36,1396.72 L 2089.67,1399.63 L 2075.68,1399.63 L 2061.99,1396.72 L 2049.21,1391.03 L 2037.89,1382.81 L 2028.53,1372.41 L 2021.53,1360.29 L 2019.09,1352.76 L 1358.87,1352.76 z " style="fill-opacity:1.000000;fill:rgb(171,178,205);stroke:rgb(0,0,0);stroke-width:2"/></g>
<g fill-rule="evenodd"><path d="M 561.417,1287.8 L 462.992,1287.8 L 462.992,1209.06 L 699.213,1209.06 L 699.213,1287.8 L 600.787,1287.8 L 600.787,1963.11 L 680.201,2042.52 L 1228.35,2042.52 L 1228.35,1995.28 L 1362.2,1995.28 L 1362.2,2042.52 L 1393.42,2042.52 L 1682.14,1753.8 L 1685.13,1751.35 L 1688.53,1749.53 L 1692.22,1748.41 L 1696.06,1748.03 L 2633.86,1748.03 L 2637.7,1748.41 L 2641.39,1749.53 L 2644.79,1751.35 L 2647.78,1753.8 L 2859.33,1965.35 L 2885.23,1965.35 L 2887.68,1957.82 L 2894.67,1945.7 L 2904.03,1935.3 L 2915.35,1927.08 L 2928.14,1921.39 L 2941.82,1918.48 L 2955.81,1918.48 L 2969.5,1921.39 L 2982.28,1927.08 L 2993.6,1935.3 L 3002.97,1945.7 L 3009.96,1957.82 L 3014.29,1971.12 L 3015.75,1985.04 L 3014.29,1998.95 L 3009.96,2012.26 L 3002.97,2024.38 L 2993.6,2034.78 L 2982.28,2043 L 2969.5,2048.69 L 2955.81,2051.6 L 2941.82,2051.6 L 2928.14,2048.69 L 2915.35,2043 L 2904.03,2034.78 L 2894.67,2024.38 L 2887.68,2012.26 L 2885.23,2004.72 L 2851.18,2004.72 L 2847.34,2004.35 L 2843.65,2003.23 L 2840.24,2001.41 L 2837.26,1998.96 L 2625.7,1787.4 L 1704.22,1787.4 L 1415.49,2076.12 L 1412.51,2078.57 L 1409.11,2080.39 L 1405.42,2081.51 L 1401.57,2081.89 L 1362.2,2081.89 L 1362.2,2129.13 L 1228.35,2129.13 L 1228.35,2081.89 L 680.201,2081.89 L 625.984,2136.11 L 625.984,2167.32 L 724.409,2167.32 L 724.409,2285.43 L 488.189,2285.43 L 488.189,2167.32 L 586.614,2167.32 L 586.614,2127.95 L 586.992,2124.11 L 588.113,2120.42 L 589.932,2117.02 L 592.38,2114.03 L 644.208,2062.2 L 567.183,1985.18 L 564.735,1982.2 L 562.916,1978.79 L 561.796,1975.1 L 561.417,1971.26 L 561.417,1287.8 z " style="fill-opacity:1.000000;fill:rgb(198,155,180);stroke:rgb(0,0,0);stroke-width:2"/></g>
<g fill-rule="evenodd"><path d="M 344.882,768.11 L 344.882,807.48 L 108.661,807.48 L 108.661,689.37 L 344.882,689.37 L 344.882,728.74 L 1228.8,728.74 L 1229.81,719.156 L 1234.13,705.848 L 1241.13,693.731 L 1250.49,683.333 L 1261.81,675.109 L 1274.59,669.417 L 1288.28,666.508 L 1302.27,666.508 L 1315.96,669.417 L 1328.74,675.109 L 1340.06,683.333 L 1349.42,693.731 L 1356.42,705.848 L 1360.74,719.156 L 1362.2,733.071 L 1360.74,746.986 L 1356.42,760.293 L 1349.42,772.411 L 1340.06,782.809 L 1328.74,791.033 L 1315.96,796.724 L 1302.27,799.633 L 1288.28,799.633 L 1274.59,796.724 L 1261.81,791.033 L 1250.49,782.809 L 1241.13,772.411 L 1238.65,768.11 L 344.882,768.11 z " style="fill-opacity:1.000000;fill:rgb(84,17,14);stroke:rgb(0,0,0);stroke-width:2"/></g>
<g fill-rule="evenodd"><path d="M 699.213,868.11 L 699.213,887.795 L 462.992,887.795 L 462.992,809.055 L 699.213,809.055 L 699.213,828.74 L 927.165,828.74 L 931.006,829.118 L 934.698,830.239 L 938.102,832.058 L 941.085,834.506 L 1019.96,913.386 L 1231.68,913.386 L 1234.13,905.848 L 1241.13,893.731 L 1250.49,883.333 L 1261.81,875.109 L 1274.59,869.417 L 1288.28,866.508 L 1302.27,866.508 L 1315.96,869.417 L 1328.74,875.109 L 1340.06,883.333 L 1349.42,893.731 L 1356.42,905.848 L 1360.74,919.156 L 1362.2,933.071 L 1360.74,946.986 L 1356.42,960.293 L 1349.42,972.411 L 1340.06,982.809 L 1328.74,991.033 L 1315.96,996.724 L 1302.27,999.633 L 1288.28,999.633 L 1274.59,996.724 L 1261.81,991.033 L 1250.49,982.809 L 1241.13,972.411 L 1234.13,960.293 L 1231.68,952.756 L 1011.81,952.756 L 1007.97,952.378 L 1004.28,951.257 L 1000.87,949.438 L 997.892,946.99 L 919.012,868.11 L 699.213,868.11 z " style="fill-opacity:1.000000;fill:rgb(130,116,65);stroke:rgb(0,0,0);stroke-width:2"/></g>
<g fill-rule="evenodd"><path d="M 699.213,668.11 L 699.213,687.795 L 462.992,687.795 L 462.992,609.055 L 699.213,609.055 L 699.213,628.74 L 831.61,628.74 L 941.199,519.151 L 944.182,516.703 L 947.585,514.884 L 951.278,513.764 L 955.118,513.386 L 1231.68,513.386 L 1234.13,505.848 L 1241.13,493.731 L 1250.49,483.333 L 1261.81,475.109 L 1274.59,469.417 L 1288.28,466.508 L 1302.27,466.508 L 1315.96,469.417 L 1328.74,475.109 L 1340.06,483.333 L 1349.42,493.731 L 1356.42,505.848 L 1360.74,519.156 L 1362.2,533.071 L 1360.74,546.986 L 1356.42,560.293 L 1349.42,572.411 L 1340.06,582.809 L 1328.74,591.033 L 1315.96,596.724 L 1302.27,599.633 L 1288.28,599.633 L 1274.59,596.724 L 1261.81,591.033 L 1250.49,582.809 L 1241.13,572.411 L 1234.13,560.293 L 1231.68,552.756 L 963.272,552.756 L 853.683,662.345 L 850.7,664.793 L 847.297,666.612 L 843.604,667.732 L 839.764,668.11 L 699.213,668.11 z " style="fill-opacity:1.000000;fill:rgb(33,61,220);stroke:rgb(0,0,0);stroke-width:2"/></g>
<g fill-rule="evenodd"><path d="M 344.882,968.11 L 344.882,1007.48 L 108.661,1007.48 L 108.661,889.37 L 344.882,889.37 L 344.882,928.74 L 790.945,928.74 L 794.785,929.118 L 798.478,930.239 L 801.881,932.058 L 804.864,934.506 L 983.744,1113.39 L 1231.68,1113.39 L 1234.13,1105.85 L 1241.13,1093.73 L 1250.49,1083.33 L 1261.81,1075.11 L 1274.59,1069.42 L 1288.28,1066.51 L 1302.27,1066.51 L 1315.96,1069.42 L 1328.74,1075.11 L 1340.06,1083.33 L 1349.42,1093.73 L 1356.42,1105.85 L 1360.74,1119.16 L 1362.2,1133.07 L 1360.74,1146.99 L 1356.42,1160.29 L 1349.42,1172.41 L 1340.06,1182.81 L 1328.74,1191.03 L 1315.96,1196.72 L 1302.27,1199.63 L 1288.28,1199.63 L 1274.59,1196.72 L 1261.81,1191.03 L 1250.49,1182.81 L 1241.13,1172.41 L 1234.13,1160.29 L 1231.68,1152.76 L 975.591,1152.76 L 971.75,1152.38 L 968.057,1151.26 L 964.654,1149.44 L 961.671,1146.99 L 782.791,968.11 L 344.882,968.11 z " style="fill-opacity:1.000000;fill:rgb(135,112,233);stroke:rgb(0,0,0);stroke-width:2"/></g>
<g fill-rule="evenodd"><path d="M 1362.2,352.756 L 1362.2,400 L 1228.35,400 L 1228.35,266.142 L 1362.2,266.142 L 1362.2,313.386 L 1393.42,313.386 L 1534.9,171.907 L 1537.88,169.459 L 1541.29,167.64 L 1544.98,166.52 L 1548.82,166.142 L 2881.89,166.142 L 2885.73,166.52 L 2889.42,167.64 L 2892.83,169.459 L 2895.81,171.907 L 2917.67,193.764 L 2928.14,189.103 L 2941.82,186.193 L 2955.81,186.193 L 2969.5,189.103 L 2982.28,194.794 L 2993.6,203.018 L 3002.97,213.416 L 3009.96,225.533 L 3014.29,238.841 L 3015.75,252.756 L 3014.29,266.671 L 3009.96,279.978 L 3002.97,292.096 L 2993.6,302.494 L 2982.28,310.718 L 2969.5,316.409 L 2955.81,319.318 L 2941.82,319.318 L 2928.14,316.409 L 2915.35,310.718 L 2904.03,302.494 L 2894.67,292.096 L 2887.68,279.978 L 2883.35,266.671 L 2881.89,252.756 L 2883.35,238.841 L 2887.68,225.533 L 2889.9,221.678 L 2873.74,205.512 L 1556.97,205.512 L 1415.49,346.99 L 1412.51,349.438 L 1409.11,351.257 L 1405.42,352.378 L 1401.57,352.756 L 1362.2,352.756 z " style="fill-opacity:1.000000;fill:rgb(62,161,65);stroke:rgb(0,0,0);stroke-width:2"/></g>
<g fill-rule="evenodd"><path d="M 2141.59,1164.15 L 2410.52,1433.07 L 2881.89,1433.07 L 2881.89,1385.83 L 3015.75,1385.83 L 3015.75,1519.69 L 2881.89,1519.69 L 2881.89,1472.44 L 2402.36,1472.44 L 2398.52,1472.06 L 2394.83,1470.94 L 2391.43,1469.12 L 2388.44,1466.68 L 2113.83,1192.06 L 2103.36,1196.72 L 2089.67,1199.63 L 2075.68,1199.63 L 2061.99,1196.72 L 2049.21,1191.03 L 2037.89,1182.81 L 2028.53,1172.41 L 2021.53,1160.29 L 2017.21,1146.99 L 2015.75,1133.07 L 2017.21,1119.16 L 2021.53,1105.85 L 2028.53,1093.73 L 2037.89,1083.33 L 2049.21,1075.11 L 2061.99,1069.42 L 2075.68,1066.51 L 2089.67,1066.51 L 2103.36,1069.42 L 2116.14,1075.11 L 2127.46,1083.33 L 2136.82,1093.73 L 2143.82,1105.85 L 2148.14,1119.16 L 2149.61,1133.07 L 2148.14,1146.99 L 2143.82,1160.29 L 2141.59,1164.15 z " style="fill-opacity:1.000000;fill:rgb(225,252,103);stroke:rgb(0,0,0);stroke-width:2"/></g>
<g fill-rule="evenodd"><path d="M 2149.61,352.756 L 2149.61,400 L 2015.75,400 L 2015.75,266.142 L 2149.61,266.142 L 2149.61,313.386 L 2829.13,313.386 L 2832.97,313.764 L 2836.67,314.884 L 2840.07,316.703 L 2843.05,319.151 L 2917.67,393.764 L 2928.14,389.103 L 2941.82,386.193 L 2955.81,386.193 L 2969.5,389.103 L 2982.28,394.794 L 2993.6,403.018 L 3002.97,413.416 L 3009.96,425.533 L 3014.29,438.841 L 3015.75,452.756 L 3014.29,466.671 L 3009.96,479.978 L 3002.97,492.096 L 2993.6,502.494 L 2982.28,510.718 L 2969.5,516.409 L 2955.81,519.318 L 2941.82,519.318 L 2928.14,516.409 L 2915.35,510.718 L 2904.03,502.494 L 2894.67,492.096 L 2887.68,479.978 L 2883.35,466.671 L 2881.89,452.756 L 2883.35,438.841 L 2887.68,425.533 L 2889.9,421.678 L 2820.98,352.756 L 2149.61,352.756 z " style="fill-opacity:1.000000;fill:rgb(62,1,126);stroke:rgb(0,0,0);stroke-width:2"/></g>
<g fill-rule="evenodd"><path d="M 2146.27,952.756 L 2143.82,960.293 L 2136.82,972.411 L 2127.46,982.809 L 2116.14,991.033 L 2103.36,996.724 L 2089.67,999.633 L 2075.68,999.633 L 2061.99,996.724 L 2049.21,991.033 L 2037.89,982.809 L 2028.53,972.411 L 2021.53,960.293 L 2017.21,946.986 L 2015.75,933.071 L 2017.21,919.156 L 2021.53,905.848 L 2028.53,893.731 L 2037.89,883.333 L 2049.21,875.109 L 2061.99,869.417 L 2075.68,866.508 L 2089.67,866.508 L 2103.36,869.417 L 2116.14,875.109 L 2127.46,883.333 L 2136.82,893.731 L 2143.82,905.848 L 2146.27,913.386 L 2192.91,913.386 L 2196.75,913.764 L 2200.45,914.884 L 2203.85,916.703 L 2206.83,919.151 L 2520.75,1233.07 L 2885.23,1233.07 L 2887.68,1225.53 L 2894.67,1213.42 L 2904.03,1203.02 L 2915.35,1194.79 L 2928.14,1189.1 L 2941.82,1186.19 L 2955.81,1186.19 L 2969.5,1189.1 L 2982.28,1194.79 L 2993.6,1203.02 L 3002.97,1213.42 L 3009.96,1225.53 L 3014.29,1238.84 L 3015.75,1252.76 L 3014.29,1266.67 L 3009.96,1279.98 L 3002.97,1292.1 L 2993.6,1302.49 L 2982.28,1310.72 L 2969.5,1316.41 L 2955.81,1319.32 L 2941.82,1319.32 L 2928.14,1316.41 L 2915.35,1310.72 L 2904.03,1302.49 L 2894.67,1292.1 L 2887.68,1279.98 L 2885.23,1272.44 L 2512.6,1272.44 L 2508.76,1272.06 L 2505.07,1270.94 L 2501.66,1269.12 L 2498.68,1266.68 L 2184.76,952.756 L 2146.27,952.756 z " style="fill-opacity:1.000000;fill:rgb(151,234,220);stroke:rgb(0,0,0);stroke-width:2"/></g>
<g fill-rule="evenodd"><path d="M 2146.27,752.756 L 2143.82,760.293 L 2136.82,772.411 L 2127.46,782.809 L 2116.14,791.033 L 2103.36,796.724 L 2089.67,799.633 L 2075.68,799.633 L 2061.99,796.724 L 2049.21,791.033 L 2037.89,782.809 L 2028.53,772.411 L 2021.53,760.293 L 2017.21,746.986 L 2015.75,733.071 L 2017.21,719.156 L 2021.53,705.848 L 2028.53,693.731 L 2037.89,683.333 L 2049.21,675.109 L 2061.99,669.417 L 2075.68,666.508 L 2089.67,666.508 L 2103.36,669.417 L 2116.14,675.109 L 2127.46,683.333 L 2136.82,693.731 L 2143.82,705.848 L 2146.27,713.386 L 2229.13,713.386 L 2232.97,713.764 L 2236.67,714.884 L 2240.07,716.703 L 2243.05,719.151 L 2556.97,1033.07 L 2885.23,1033.07 L 2887.68,1025.53 L 2894.67,1013.42 L 2904.03,1003.02 L 2915.35,994.794 L 2928.14,989.103 L 2941.82,986.193 L 2955.81,986.193 L 2969.5,989.103 L 2982.28,994.794 L 2993.6,1003.02 L 3002.97,1013.42 L 3009.96,1025.53 L 3014.29,1038.84 L 3015.75,1052.76 L 3014.29,1066.67 L 3009.96,1079.98 L 3002.97,1092.1 L 2993.6,1102.49 L 2982.28,1110.72 L 2969.5,1116.41 L 2955.81,1119.32 L 2941.82,1119.32 L 2928.14,1116.41 L 2915.35,1110.72 L 2904.03,1102.49 L 2894.67,1092.1 L 2887.68,1079.98 L 2885.23,1072.44 L 2548.82,1072.44 L 2544.98,1072.06 L 2541.29,1070.94 L 2537.88,1069.12 L 2534.9,1066.68 L 2220.98,752.756 L 2146.27,752.756 z " style="fill-opacity:1.000000;fill:rgb(107,150,143);stroke:rgb(0,0,0);stroke-width:2"/></g>
<g fill-rule="evenodd"><path d="M 2146.27,552.756 L 2143.82,560.293 L 2136.82,572.411 L 2127.46,582.809 L 2116.14,591.033 L 2103.36,596.724 L 2089.67,599.633 L 2075.68,599.633 L 2061.99,596.724 L 2049.21,591.033 L 2037.89,582.809 L 2028.53,572.411 L 2021.53,560.293 L 2017.21,546.986 L 2015.75,533.071 L 2017.21,519.156 L 2021.53,505.848 L 2028.53,493.731 L 2037.89,483.333 L 2049.21,475.109 L 2061.99,469.417 L 2075.68,466.508 L 2089.67,466.508 L 2103.36,469.417 L 2116.14,475.109 L 2127.46,483.333 L 2136.82,493.731 L 2143.82,505.848 L 2146.27,513.386 L 2265.35,513.386 L 2269.19,513.764 L 2272.89,514.884 L 2276.29,516.703 L 2279.27,519.151 L 2593.19,833.071 L 2885.23,833.071 L 2887.68,825.533 L 2894.67,813.416 L 2904.03,803.018 L 2915.35,794.794 L 2928.14,789.103 L 2941.82,786.193 L 2955.81,786.193 L 2969.5,789.103 L 2982.28,794.794 L 2993.6,803.018 L 3002.97,813.416 L 3009.96,825.533 L 3014.29,838.841 L 3015.75,852.756 L 3014.29,866.671 L 3009.96,879.978 L 3002.97,892.096 L 2993.6,902.494 L 2982.28,910.718 L 2969.5,916.409 L 2955.81,919.318 L 2941.82,919.318 L 2928.14,916.409 L 2915.35,910.718 L 2904.03,902.494 L 2894.67,892.096 L 2887.68,879.978 L 2885.23,872.441 L 2585.04,872.441 L 2581.2,872.063 L 2577.51,870.943 L 2574.1,869.123 L 2571.12,866.675 L 2257.2,552.756 L 2146.27,552.756 z " style="fill-opacity:1.000000;fill:rgb(56,92,42);stroke:rgb(0,0,0);stroke-width:2"/></g>
</svg>
