M48
;DRILL file {KiCad 5.0.2-bee76a0~70~ubuntu18.04.1} date Thu 09 Jan 2020 10:12:08 PM CET
;FORMAT={-:-/ absolute / inch / decimal}
FMAT,2
INCH,TZ
T1C0.0394
%
G90
G05
T1
X1.4961Y-0.1874
X1.4961Y-0.2874
X1.4961Y-0.3874
X1.4961Y-0.4874
X1.4961Y-0.5874
X1.4961Y-0.6874
X1.4961Y-0.7874
X1.063Y-1.0945
X1.063Y-1.1945
X1.063Y-1.2945
X1.063Y-1.3945
X1.063Y-1.4945
X1.063Y-1.5945
X0.6693Y-0.2276
X0.6693Y-0.3276
X0.6693Y-0.4276
X0.6693Y-0.5276
X0.6693Y-0.6276
X0.6693Y-0.7276
X1.063Y-0.2276
X1.063Y-0.3276
X1.063Y-0.4276
X1.063Y-0.5276
X1.063Y-0.6276
X1.063Y-0.7276
X0.6693Y-1.0921
X0.6693Y-1.1921
X0.6693Y-1.2921
X0.6693Y-1.3921
X0.6693Y-1.4921
X0.6693Y-1.5921
X1.4961Y-1.0535
X1.4961Y-1.1535
X1.4961Y-1.2535
X1.4961Y-1.3535
X1.4961Y-1.4535
X1.4961Y-1.5535
X1.4961Y-1.6535
T0
M30
