<?xml version="1.0" standalone="no"?>
<!DOCTYPE svg PUBLIC "-//W3C//DTD SVG 1.1//EN"
"http://www.w3.org/Graphics/SVG/1.1/DTD/svg11.dtd">
<svg width="154.583" height="162.142" viewBox="0 0 3220.47 3377.95" version="1.1"
xmlns="http://www.w3.org/2000/svg"
xmlns:xlink="http://www.w3.org/1999/xlink">
<polyline points="100.787,1407.48 100.787,1289.37 102.113,1284.99 105.647,1282.09 344.881,1281.49 349.255,1282.82 352.155,1286.36 352.755,1407.48 351.427,1411.85 347.895,1414.75 108.661,1415.35 103.093,1413.05 100.787,1407.48" style="stroke:rgb(103,198,105);stroke-width:15.748031;fill:none;stroke-opacity:0.5;stroke-linecap:round;stroke-linejoin:round;;fill:none"/>
<polyline points="100.787,1407.48 100.787,1289.37 102.113,1284.99 105.647,1282.09 344.881,1281.49 349.255,1282.82 352.155,1286.36 352.755,1407.48 351.427,1411.85 347.895,1414.75 108.661,1415.35 103.093,1413.05 100.787,1407.48" style="stroke:rgb(0,0,0);stroke-width:1px;fill:none;stroke-opacity:1;stroke-linecap:round;stroke-linejoin:round;;fill:none"/>
<polyline points="100.787,607.479 100.787,489.369 102.113,484.995 105.647,482.095 344.881,481.495 349.255,482.823 352.155,486.357 352.755,607.479 351.427,611.855 347.895,614.755 108.661,615.353 103.093,613.047 100.787,607.479" style="stroke:rgb(115,81,255);stroke-width:15.748031;fill:none;stroke-opacity:0.5;stroke-linecap:round;stroke-linejoin:round;;fill:none"/>
<polyline points="100.787,607.479 100.787,489.369 102.113,484.995 105.647,482.095 344.881,481.495 349.255,482.823 352.155,486.357 352.755,607.479 351.427,611.855 347.895,614.755 108.661,615.353 103.093,613.047 100.787,607.479" style="stroke:rgb(0,0,0);stroke-width:1px;fill:none;stroke-opacity:1;stroke-linecap:round;stroke-linejoin:round;;fill:none"/>
<polyline points="455.117,1087.79 455.117,1009.05 456.445,1004.68 459.977,1001.78 699.211,1001.18 703.587,1002.51 706.487,1006.04 707.085,1087.79 705.759,1092.17 702.225,1095.07 462.991,1095.67 457.423,1093.36 455.117,1087.79" style="stroke:rgb(74,236,41);stroke-width:15.748031;fill:none;stroke-opacity:0.5;stroke-linecap:round;stroke-linejoin:round;;fill:none"/>
<polyline points="455.117,1087.79 455.117,1009.05 456.445,1004.68 459.977,1001.78 699.211,1001.18 703.587,1002.51 706.487,1006.04 707.085,1087.79 705.759,1092.17 702.225,1095.07 462.991,1095.67 457.423,1093.36 455.117,1087.79" style="stroke:rgb(0,0,0);stroke-width:1px;fill:none;stroke-opacity:1;stroke-linecap:round;stroke-linejoin:round;;fill:none"/>
<polyline points="455.117,507.479 455.117,389.369 456.445,384.995 459.977,382.095 699.211,381.495 703.587,382.823 706.487,386.357 707.085,507.479 705.759,511.855 702.225,514.755 462.991,515.353 457.423,513.047 455.117,507.479" style="stroke:rgb(205,186,171);stroke-width:15.748031;fill:none;stroke-opacity:0.5;stroke-linecap:round;stroke-linejoin:round;;fill:none"/>
<polyline points="455.117,507.479 455.117,389.369 456.445,384.995 459.977,382.095 699.211,381.495 703.587,382.823 706.487,386.357 707.085,507.479 705.759,511.855 702.225,514.755 462.991,515.353 457.423,513.047 455.117,507.479" style="stroke:rgb(0,0,0);stroke-width:1px;fill:none;stroke-opacity:1;stroke-linecap:round;stroke-linejoin:round;;fill:none"/>
<polyline points="125.983,2385.43 125.983,2267.32 127.311,2262.95 130.845,2260.05 370.077,2259.45 374.453,2260.77 377.353,2264.31 377.951,2385.43 376.625,2389.81 373.091,2392.71 133.857,2393.31 128.289,2391 125.983,2385.43" style="stroke:rgb(242,251,227);stroke-width:15.748031;fill:none;stroke-opacity:0.5;stroke-linecap:round;stroke-linejoin:round;;fill:none"/>
<polyline points="125.983,2385.43 125.983,2267.32 127.311,2262.95 130.845,2260.05 370.077,2259.45 374.453,2260.77 377.353,2264.31 377.951,2385.43 376.625,2389.81 373.091,2392.71 133.857,2393.31 128.289,2391 125.983,2385.43" style="stroke:rgb(0,0,0);stroke-width:1px;fill:none;stroke-opacity:1;stroke-linecap:round;stroke-linejoin:round;;fill:none"/>
<polyline points="480.315,2465.75 480.315,2387.01 481.641,2382.63 485.175,2379.73 724.409,2379.13 728.783,2380.46 731.683,2383.99 732.283,2465.75 730.955,2470.12 727.421,2473.02 488.189,2473.62 482.621,2471.31 480.315,2465.75" style="stroke:rgb(70,124,194);stroke-width:15.748031;fill:none;stroke-opacity:0.5;stroke-linecap:round;stroke-linejoin:round;;fill:none"/>
<polyline points="480.315,2465.75 480.315,2387.01 481.641,2382.63 485.175,2379.73 724.409,2379.13 728.783,2380.46 731.683,2383.99 732.283,2465.75 730.955,2470.12 727.421,2473.02 488.189,2473.62 482.621,2471.31 480.315,2465.75" style="stroke:rgb(0,0,0);stroke-width:1px;fill:none;stroke-opacity:1;stroke-linecap:round;stroke-linejoin:round;;fill:none"/>
<polyline points="125.983,2785.43 125.983,2667.32 128.289,2661.75 132.321,2659.6 371.613,2659.6 375.645,2661.75 377.801,2665.78 377.951,2698.82 1033.86,2698.82 1089.96,2642.72 1098.2,2637.07 1109.45,2634.64 1225.96,2634.64 1234.31,2618.93 1245.86,2606.09 1257.18,2597.87 1271.39,2591.36 1288.28,2587.77 1303.91,2587.94 1318.39,2591.06 1331.94,2597.05 1344.69,2606.09 1356.24,2618.93 1363.61,2631.78 1368.57,2647.46 1370.03,2663.03 1368.44,2677.76 1363.61,2692.63 1356.24,2705.48 1345.33,2717.79 1333.37,2726.54 1318.39,2733.34 1303.91,2736.47 1286.64,2736.47 1272.16,2733.34 1257.18,2726.54 1245.22,2717.79 1235.28,2706.81 1225.96,2689.76 1120.86,2689.76 1064.19,2746.38 1056.52,2751.51 1046.05,2753.9 377.951,2753.94 377.801,2786.97 375.645,2791 371.613,2793.15 133.857,2793.31 128.289,2791 125.983,2785.43" style="stroke:rgb(84,248,27);stroke-width:15.748031;fill:none;stroke-opacity:0.5;stroke-linecap:round;stroke-linejoin:round;;fill:none"/>
<polyline points="125.983,2785.43 125.983,2667.32 128.289,2661.75 132.321,2659.6 371.613,2659.6 375.645,2661.75 377.801,2665.78 377.951,2698.82 1033.86,2698.82 1089.96,2642.72 1098.2,2637.07 1109.45,2634.64 1225.96,2634.64 1234.31,2618.93 1245.86,2606.09 1257.18,2597.87 1271.39,2591.36 1288.28,2587.77 1303.91,2587.94 1318.39,2591.06 1331.94,2597.05 1344.69,2606.09 1356.24,2618.93 1363.61,2631.78 1368.57,2647.46 1370.03,2663.03 1368.44,2677.76 1363.61,2692.63 1356.24,2705.48 1345.33,2717.79 1333.37,2726.54 1318.39,2733.34 1303.91,2736.47 1286.64,2736.47 1272.16,2733.34 1257.18,2726.54 1245.22,2717.79 1235.28,2706.81 1225.96,2689.76 1120.86,2689.76 1064.19,2746.38 1056.52,2751.51 1046.05,2753.9 377.951,2753.94 377.801,2786.97 375.645,2791 371.613,2793.15 133.857,2793.31 128.289,2791 125.983,2785.43" style="stroke:rgb(0,0,0);stroke-width:1px;fill:none;stroke-opacity:1;stroke-linecap:round;stroke-linejoin:round;;fill:none"/>
<polyline points="125.983,2585.43 125.983,2467.32 128.289,2461.75 132.321,2459.6 371.613,2459.6 375.645,2461.75 377.801,2465.78 377.951,2498.82 840.159,2498.82 1096.26,2242.72 1104.5,2237.07 1115.75,2234.64 1225.96,2234.64 1235.28,2217.59 1245.22,2206.61 1257.87,2197.42 1272.95,2190.85 1286.64,2187.94 1302.27,2187.77 1319.16,2191.36 1332.68,2197.42 1345.33,2206.61 1356.24,2218.93 1363.61,2231.78 1368.23,2245.85 1370.03,2261.38 1368.44,2277.76 1363.61,2292.63 1356.24,2305.48 1345.33,2317.79 1332.68,2326.98 1318.39,2333.34 1303.91,2336.47 1286.64,2336.47 1272.16,2333.34 1257.87,2326.98 1245.22,2317.79 1235.28,2306.81 1225.96,2289.76 1127.16,2289.76 871.061,2545.86 866.223,2549.69 857.699,2553.22 377.951,2553.94 377.801,2586.97 375.645,2591 371.613,2593.15 133.857,2593.31 128.289,2591 125.983,2585.43" style="stroke:rgb(232,231,141);stroke-width:15.748031;fill:none;stroke-opacity:0.5;stroke-linecap:round;stroke-linejoin:round;;fill:none"/>
<polyline points="125.983,2585.43 125.983,2467.32 128.289,2461.75 132.321,2459.6 371.613,2459.6 375.645,2461.75 377.801,2465.78 377.951,2498.82 840.159,2498.82 1096.26,2242.72 1104.5,2237.07 1115.75,2234.64 1225.96,2234.64 1235.28,2217.59 1245.22,2206.61 1257.87,2197.42 1272.95,2190.85 1286.64,2187.94 1302.27,2187.77 1319.16,2191.36 1332.68,2197.42 1345.33,2206.61 1356.24,2218.93 1363.61,2231.78 1368.23,2245.85 1370.03,2261.38 1368.44,2277.76 1363.61,2292.63 1356.24,2305.48 1345.33,2317.79 1332.68,2326.98 1318.39,2333.34 1303.91,2336.47 1286.64,2336.47 1272.16,2333.34 1257.87,2326.98 1245.22,2317.79 1235.28,2306.81 1225.96,2289.76 1127.16,2289.76 871.061,2545.86 866.223,2549.69 857.699,2553.22 377.951,2553.94 377.801,2586.97 375.645,2591 371.613,2593.15 133.857,2593.31 128.289,2591 125.983,2585.43" style="stroke:rgb(0,0,0);stroke-width:1px;fill:none;stroke-opacity:1;stroke-linecap:round;stroke-linejoin:round;;fill:none"/>
<polyline points="480.315,2865.75 480.315,2787.01 482.621,2781.44 488.189,2779.13 725.945,2779.28 729.977,2781.44 731.683,2783.99 732.283,2798.82 857.873,2798.82 867.691,2800.65 877.361,2806.89 905.115,2834.64 1225.96,2834.64 1235.28,2817.59 1245.22,2806.61 1257.18,2797.87 1272.95,2790.85 1286.64,2787.94 1302.27,2787.77 1319.16,2791.36 1333.37,2797.87 1345.91,2807.2 1356.24,2818.93 1363.61,2831.78 1368.44,2846.65 1370.03,2861.38 1368.44,2877.76 1363.61,2892.63 1356.24,2905.48 1345.91,2917.21 1333.37,2926.54 1319.16,2933.05 1302.27,2936.64 1286.64,2936.47 1272.95,2933.56 1257.18,2926.54 1245.22,2917.79 1235.28,2906.81 1225.96,2889.76 892.929,2889.72 883.881,2887.92 877.769,2884.66 846.457,2853.94 732.283,2853.94 731.683,2868.76 728.783,2872.29 724.409,2873.62 488.189,2873.62 482.621,2871.31 480.315,2865.75" style="stroke:rgb(118,90,46);stroke-width:15.748031;fill:none;stroke-opacity:0.5;stroke-linecap:round;stroke-linejoin:round;;fill:none"/>
<polyline points="480.315,2865.75 480.315,2787.01 482.621,2781.44 488.189,2779.13 725.945,2779.28 729.977,2781.44 731.683,2783.99 732.283,2798.82 857.873,2798.82 867.691,2800.65 877.361,2806.89 905.115,2834.64 1225.96,2834.64 1235.28,2817.59 1245.22,2806.61 1257.18,2797.87 1272.95,2790.85 1286.64,2787.94 1302.27,2787.77 1319.16,2791.36 1333.37,2797.87 1345.91,2807.2 1356.24,2818.93 1363.61,2831.78 1368.44,2846.65 1370.03,2861.38 1368.44,2877.76 1363.61,2892.63 1356.24,2905.48 1345.91,2917.21 1333.37,2926.54 1319.16,2933.05 1302.27,2936.64 1286.64,2936.47 1272.95,2933.56 1257.18,2926.54 1245.22,2917.79 1235.28,2906.81 1225.96,2889.76 892.929,2889.72 883.881,2887.92 877.769,2884.66 846.457,2853.94 732.283,2853.94 731.683,2868.76 728.783,2872.29 724.409,2873.62 488.189,2873.62 482.621,2871.31 480.315,2865.75" style="stroke:rgb(0,0,0);stroke-width:1px;fill:none;stroke-opacity:1;stroke-linecap:round;stroke-linejoin:round;;fill:none"/>
<polyline points="480.315,2665.75 480.315,2587.01 481.641,2582.63 486.651,2579.28 724.409,2579.13 728.783,2580.46 731.683,2583.99 732.283,2598.82 976.379,2598.82 1132.48,2442.72 1142.15,2436.48 1151.97,2434.64 1225.96,2434.64 1235.28,2417.59 1245.22,2406.61 1257.87,2397.42 1272.95,2390.85 1286.64,2387.94 1302.27,2387.77 1319.16,2391.36 1332.68,2397.42 1345.33,2406.61 1356.24,2418.93 1363.61,2431.78 1368.44,2446.65 1370.03,2461.38 1368.44,2477.76 1363.61,2492.63 1356.24,2505.48 1345.33,2517.79 1332.68,2526.98 1318.39,2533.34 1303.91,2536.47 1286.64,2536.47 1272.16,2533.34 1257.87,2526.98 1245.22,2517.79 1235.28,2506.81 1225.96,2489.76 1163.38,2489.76 1007.28,2645.86 1002.44,2649.69 993.921,2653.22 732.283,2653.94 731.683,2668.76 728.783,2672.29 724.409,2673.62 488.189,2673.62 482.621,2671.31 480.315,2665.75" style="stroke:rgb(99,51,159);stroke-width:15.748031;fill:none;stroke-opacity:0.5;stroke-linecap:round;stroke-linejoin:round;;fill:none"/>
<polyline points="480.315,2665.75 480.315,2587.01 481.641,2582.63 486.651,2579.28 724.409,2579.13 728.783,2580.46 731.683,2583.99 732.283,2598.82 976.379,2598.82 1132.48,2442.72 1142.15,2436.48 1151.97,2434.64 1225.96,2434.64 1235.28,2417.59 1245.22,2406.61 1257.87,2397.42 1272.95,2390.85 1286.64,2387.94 1302.27,2387.77 1319.16,2391.36 1332.68,2397.42 1345.33,2406.61 1356.24,2418.93 1363.61,2431.78 1368.44,2446.65 1370.03,2461.38 1368.44,2477.76 1363.61,2492.63 1356.24,2505.48 1345.33,2517.79 1332.68,2526.98 1318.39,2533.34 1303.91,2536.47 1286.64,2536.47 1272.16,2533.34 1257.87,2526.98 1245.22,2517.79 1235.28,2506.81 1225.96,2489.76 1163.38,2489.76 1007.28,2645.86 1002.44,2649.69 993.921,2653.22 732.283,2653.94 731.683,2668.76 728.783,2672.29 724.409,2673.62 488.189,2673.62 482.621,2671.31 480.315,2665.75" style="stroke:rgb(0,0,0);stroke-width:1px;fill:none;stroke-opacity:1;stroke-linecap:round;stroke-linejoin:round;;fill:none"/>
<polyline points="125.983,2985.43 125.983,2867.32 127.311,2862.95 130.845,2860.05 370.077,2859.45 375.645,2861.75 377.951,2867.32 377.353,2988.44 374.453,2991.98 370.077,2993.31 279.527,2993.31 279.527,3013.39 300.785,3034.64 1225.96,3034.64 1234.31,3018.93 1245.86,3006.09 1257.18,2997.87 1271.39,2991.36 1288.28,2987.77 1302.27,2987.77 1317.59,2990.85 1333.37,2997.87 1345.33,3006.61 1355.27,3017.59 1364.59,3034.64 2015.36,3034.64 2022.16,3022.96 2032.04,3011.92 2045.27,3002.15 2058.79,2996.08 2074.04,2992.66 2090.49,2992.53 2106.56,2996.08 2120.08,3002.15 2132.09,3010.82 2143.64,3023.65 2151.99,3039.37 2437.01,3039.37 2448.25,3041.8 2456.49,3047.44 2724.01,3314.96 3094.88,3314.96 3157.48,3252.36 3157.48,2632.67 2978.23,2453.42 2971.14,2456.39 2956.64,2459.43 2940.18,2459.3 2924.93,2455.88 2912.15,2450.19 2898.18,2440.04 2888.3,2429.01 2880.19,2414.69 2875.65,2400.59 2874.06,2385.86 2875.65,2369.49 2880.19,2355.38 2888.82,2340.43 2899.4,2328.93 2911.42,2320.26 2924.93,2314.19 2941,2310.64 2956.64,2310.64 2971.14,2313.68 2986.22,2320.26 2998.23,2328.93 3009.78,2341.76 3017.45,2355.38 3021.99,2369.49 3023.58,2385.86 3021.99,2400.59 3017.45,2414.69 3204.52,2601.77 3210.17,2610.01 3212.18,2616.65 3212.18,3268.39 3210.17,3275.02 3204.52,3283.26 3125.78,3362.01 3117.54,3367.65 3110.91,3369.66 2712.6,3370.08 2702.78,3368.24 2693.11,3362.01 2425.59,3094.49 2151.99,3094.49 2142.67,3111.54 2132.09,3123.04 2120.08,3131.71 2104.99,3138.28 2090.49,3141.32 2075.68,3141.36 2058.79,3137.77 2045.27,3131.71 2033.26,3123.04 2021.71,3110.2 2014.71,3098.09 2011.83,3089.76 1364.59,3089.76 1356.24,3105.48 1344.69,3118.31 1333.37,3126.54 1319.16,3133.05 1302.27,3136.64 1286.64,3136.47 1272.95,3133.56 1257.18,3126.54 1245.22,3117.79 1235.28,3106.81 1225.96,3089.76 289.369,3089.76 279.551,3087.92 273.437,3084.66 229.513,3040.73 224.825,3029.41 224.409,2993.31 133.857,2993.31 128.289,2991 125.983,2985.43" style="stroke:rgb(201,154,102);stroke-width:15.748031;fill:none;stroke-opacity:0.5;stroke-linecap:round;stroke-linejoin:round;;fill:none"/>
<polyline points="125.983,2985.43 125.983,2867.32 127.311,2862.95 130.845,2860.05 370.077,2859.45 375.645,2861.75 377.951,2867.32 377.353,2988.44 374.453,2991.98 370.077,2993.31 279.527,2993.31 279.527,3013.39 300.785,3034.64 1225.96,3034.64 1234.31,3018.93 1245.86,3006.09 1257.18,2997.87 1271.39,2991.36 1288.28,2987.77 1302.27,2987.77 1317.59,2990.85 1333.37,2997.87 1345.33,3006.61 1355.27,3017.59 1364.59,3034.64 2015.36,3034.64 2022.16,3022.96 2032.04,3011.92 2045.27,3002.15 2058.79,2996.08 2074.04,2992.66 2090.49,2992.53 2106.56,2996.08 2120.08,3002.15 2132.09,3010.82 2143.64,3023.65 2151.99,3039.37 2437.01,3039.37 2448.25,3041.8 2456.49,3047.44 2724.01,3314.96 3094.88,3314.96 3157.48,3252.36 3157.48,2632.67 2978.23,2453.42 2971.14,2456.39 2956.64,2459.43 2940.18,2459.3 2924.93,2455.88 2912.15,2450.19 2898.18,2440.04 2888.3,2429.01 2880.19,2414.69 2875.65,2400.59 2874.06,2385.86 2875.65,2369.49 2880.19,2355.38 2888.82,2340.43 2899.4,2328.93 2911.42,2320.26 2924.93,2314.19 2941,2310.64 2956.64,2310.64 2971.14,2313.68 2986.22,2320.26 2998.23,2328.93 3009.78,2341.76 3017.45,2355.38 3021.99,2369.49 3023.58,2385.86 3021.99,2400.59 3017.45,2414.69 3204.52,2601.77 3210.17,2610.01 3212.18,2616.65 3212.18,3268.39 3210.17,3275.02 3204.52,3283.26 3125.78,3362.01 3117.54,3367.65 3110.91,3369.66 2712.6,3370.08 2702.78,3368.24 2693.11,3362.01 2425.59,3094.49 2151.99,3094.49 2142.67,3111.54 2132.09,3123.04 2120.08,3131.71 2104.99,3138.28 2090.49,3141.32 2075.68,3141.36 2058.79,3137.77 2045.27,3131.71 2033.26,3123.04 2021.71,3110.2 2014.71,3098.09 2011.83,3089.76 1364.59,3089.76 1356.24,3105.48 1344.69,3118.31 1333.37,3126.54 1319.16,3133.05 1302.27,3136.64 1286.64,3136.47 1272.95,3133.56 1257.18,3126.54 1245.22,3117.79 1235.28,3106.81 1225.96,3089.76 289.369,3089.76 279.551,3087.92 273.437,3084.66 229.513,3040.73 224.825,3029.41 224.409,2993.31 133.857,2993.31 128.289,2991 125.983,2985.43" style="stroke:rgb(0,0,0);stroke-width:1px;fill:none;stroke-opacity:1;stroke-linecap:round;stroke-linejoin:round;;fill:none"/>
<polyline points="2007.92,2867.75 2009.72,2850.58 2014.71,2835.77 2022.68,2822.32 2033.26,2810.82 2045.27,2802.15 2060.36,2795.57 2075.68,2792.49 2090.49,2792.53 2104.99,2795.57 2120.08,2802.15 2132.73,2811.34 2142.67,2822.32 2151.99,2839.37 2630.71,2839.37 2640.53,2841.21 2650.19,2847.44 2912.99,3110.23 3015.75,3110.23 3021.31,3112.54 3023.62,3118.11 3023.02,3254.98 3020.12,3258.51 3015.75,3259.84 2881.89,3259.84 2876.32,3257.53 2874.01,3251.97 2874.01,3149.21 2619.29,2894.49 2151.99,2894.49 2142.67,2911.54 2132.09,2923.04 2120.08,2931.71 2104.99,2938.28 2090.49,2941.32 2075.68,2941.36 2058.79,2937.77 2045.27,2931.71 2032.04,2921.93 2021.71,2910.2 2014.04,2896.58 2009.51,2882.48 2007.92,2867.75" style="stroke:rgb(50,13,183);stroke-width:15.748031;fill:none;stroke-opacity:0.5;stroke-linecap:round;stroke-linejoin:round;;fill:none"/>
<polyline points="2007.92,2867.75 2009.72,2850.58 2014.71,2835.77 2022.68,2822.32 2033.26,2810.82 2045.27,2802.15 2060.36,2795.57 2075.68,2792.49 2090.49,2792.53 2104.99,2795.57 2120.08,2802.15 2132.73,2811.34 2142.67,2822.32 2151.99,2839.37 2630.71,2839.37 2640.53,2841.21 2650.19,2847.44 2912.99,3110.23 3015.75,3110.23 3021.31,3112.54 3023.62,3118.11 3023.02,3254.98 3020.12,3258.51 3015.75,3259.84 2881.89,3259.84 2876.32,3257.53 2874.01,3251.97 2874.01,3149.21 2619.29,2894.49 2151.99,2894.49 2142.67,2911.54 2132.09,2923.04 2120.08,2931.71 2104.99,2938.28 2090.49,2941.32 2075.68,2941.36 2058.79,2937.77 2045.27,2931.71 2032.04,2921.93 2021.71,2910.2 2014.04,2896.58 2009.51,2882.48 2007.92,2867.75" style="stroke:rgb(0,0,0);stroke-width:1px;fill:none;stroke-opacity:1;stroke-linecap:round;stroke-linejoin:round;;fill:none"/>
<polyline points="2007.92,2667.75 2009.72,2650.58 2014.71,2635.77 2022.68,2622.32 2033.26,2610.82 2046.01,2601.77 2059.56,2595.79 2075.68,2592.49 2091.31,2592.66 2104.99,2595.57 2120.77,2602.59 2132.73,2611.34 2142.67,2622.32 2151.99,2639.37 2630.71,2639.37 2640.53,2641.21 2650.19,2647.44 2919.41,2916.65 2925.7,2913.9 2940.18,2910.77 2957.45,2910.77 2971.93,2913.9 2985.48,2919.88 2999.45,2930.03 3009.33,2941.07 3016.78,2953.88 3021.99,2969.49 3023.58,2985.86 3021.99,3000.59 3017.45,3014.69 3009.33,3029.01 2998.23,3041.15 2985.48,3050.19 2971.14,3056.39 2955.81,3059.47 2940.18,3059.3 2925.7,3056.18 2912.15,3050.19 2899.4,3041.15 2887.85,3028.31 2880.19,3014.69 2875.65,3000.59 2874.06,2984.21 2875.65,2969.49 2880.19,2955.38 2619.29,2694.49 2151.99,2694.49 2142.67,2711.54 2133.31,2721.93 2120.77,2731.26 2104.99,2738.28 2091.31,2741.19 2075.68,2741.36 2058.79,2737.77 2044.58,2731.26 2032.04,2721.93 2021.71,2710.2 2014.04,2696.58 2009.51,2682.48 2007.92,2667.75" style="stroke:rgb(49,88,163);stroke-width:15.748031;fill:none;stroke-opacity:0.5;stroke-linecap:round;stroke-linejoin:round;;fill:none"/>
<polyline points="2007.92,2667.75 2009.72,2650.58 2014.71,2635.77 2022.68,2622.32 2033.26,2610.82 2046.01,2601.77 2059.56,2595.79 2075.68,2592.49 2091.31,2592.66 2104.99,2595.57 2120.77,2602.59 2132.73,2611.34 2142.67,2622.32 2151.99,2639.37 2630.71,2639.37 2640.53,2641.21 2650.19,2647.44 2919.41,2916.65 2925.7,2913.9 2940.18,2910.77 2957.45,2910.77 2971.93,2913.9 2985.48,2919.88 2999.45,2930.03 3009.33,2941.07 3016.78,2953.88 3021.99,2969.49 3023.58,2985.86 3021.99,3000.59 3017.45,3014.69 3009.33,3029.01 2998.23,3041.15 2985.48,3050.19 2971.14,3056.39 2955.81,3059.47 2940.18,3059.3 2925.7,3056.18 2912.15,3050.19 2899.4,3041.15 2887.85,3028.31 2880.19,3014.69 2875.65,3000.59 2874.06,2984.21 2875.65,2969.49 2880.19,2955.38 2619.29,2694.49 2151.99,2694.49 2142.67,2711.54 2133.31,2721.93 2120.77,2731.26 2104.99,2738.28 2091.31,2741.19 2075.68,2741.36 2058.79,2737.77 2044.58,2731.26 2032.04,2721.93 2021.71,2710.2 2014.04,2696.58 2009.51,2682.48 2007.92,2667.75" style="stroke:rgb(0,0,0);stroke-width:1px;fill:none;stroke-opacity:1;stroke-linecap:round;stroke-linejoin:round;;fill:none"/>
<polyline points="2007.92,2467.75 2009.72,2450.58 2014.71,2435.77 2022.68,2422.32 2033.26,2410.82 2046.01,2401.77 2059.56,2395.79 2075.68,2392.49 2091.31,2392.66 2104.99,2395.57 2120.77,2402.59 2132.73,2411.34 2142.67,2422.32 2151.99,2439.37 2630.71,2439.37 2640.53,2441.21 2650.19,2447.44 2919.41,2716.65 2925.7,2713.9 2940.18,2710.77 2957.45,2710.77 2971.93,2713.9 2985.48,2719.88 2999.45,2730.03 3009.33,2741.07 3016.78,2753.88 3021.99,2769.49 3023.58,2785.86 3021.99,2800.59 3017.45,2814.69 3009.33,2829.01 2998.23,2841.15 2985.48,2850.19 2971.14,2856.39 2955.81,2859.47 2940.18,2859.3 2925.7,2856.18 2912.15,2850.19 2899.4,2841.15 2887.85,2828.31 2880.19,2814.69 2875.65,2800.59 2874.06,2784.21 2875.65,2769.49 2880.19,2755.38 2619.29,2494.49 2151.99,2494.49 2142.67,2511.54 2133.31,2521.93 2120.77,2531.26 2104.99,2538.28 2091.31,2541.19 2075.68,2541.36 2058.79,2537.77 2044.58,2531.26 2032.04,2521.93 2021.71,2510.2 2014.04,2496.58 2009.51,2482.48 2007.92,2467.75" style="stroke:rgb(90,37,93);stroke-width:15.748031;fill:none;stroke-opacity:0.5;stroke-linecap:round;stroke-linejoin:round;;fill:none"/>
<polyline points="2007.92,2467.75 2009.72,2450.58 2014.71,2435.77 2022.68,2422.32 2033.26,2410.82 2046.01,2401.77 2059.56,2395.79 2075.68,2392.49 2091.31,2392.66 2104.99,2395.57 2120.77,2402.59 2132.73,2411.34 2142.67,2422.32 2151.99,2439.37 2630.71,2439.37 2640.53,2441.21 2650.19,2447.44 2919.41,2716.65 2925.7,2713.9 2940.18,2710.77 2957.45,2710.77 2971.93,2713.9 2985.48,2719.88 2999.45,2730.03 3009.33,2741.07 3016.78,2753.88 3021.99,2769.49 3023.58,2785.86 3021.99,2800.59 3017.45,2814.69 3009.33,2829.01 2998.23,2841.15 2985.48,2850.19 2971.14,2856.39 2955.81,2859.47 2940.18,2859.3 2925.7,2856.18 2912.15,2850.19 2899.4,2841.15 2887.85,2828.31 2880.19,2814.69 2875.65,2800.59 2874.06,2784.21 2875.65,2769.49 2880.19,2755.38 2619.29,2494.49 2151.99,2494.49 2142.67,2511.54 2133.31,2521.93 2120.77,2531.26 2104.99,2538.28 2091.31,2541.19 2075.68,2541.36 2058.79,2537.77 2044.58,2531.26 2032.04,2521.93 2021.71,2510.2 2014.04,2496.58 2009.51,2482.48 2007.92,2467.75" style="stroke:rgb(0,0,0);stroke-width:1px;fill:none;stroke-opacity:1;stroke-linecap:round;stroke-linejoin:round;;fill:none"/>
<polyline points="2007.92,2267.75 2009.72,2250.58 2014.71,2235.77 2022.68,2222.32 2033.26,2210.82 2046.01,2201.77 2059.56,2195.79 2075.68,2192.49 2091.31,2192.66 2104.99,2195.57 2120.77,2202.59 2132.73,2211.34 2142.67,2222.32 2151.99,2239.37 2630.71,2239.37 2640.53,2241.21 2650.19,2247.44 2919.41,2516.65 2925.7,2513.9 2940.18,2510.77 2957.45,2510.77 2971.93,2513.9 2985.48,2519.88 2999.45,2530.03 3009.33,2541.07 3016.78,2553.88 3021.99,2569.49 3023.58,2585.86 3021.99,2600.59 3017.45,2614.69 3009.33,2629.01 2998.23,2641.15 2985.48,2650.19 2971.14,2656.39 2955.81,2659.47 2940.18,2659.3 2925.7,2656.18 2912.15,2650.19 2899.4,2641.15 2887.85,2628.31 2880.19,2614.69 2875.65,2600.59 2874.06,2584.21 2875.65,2569.49 2880.19,2555.38 2619.29,2294.49 2151.99,2294.49 2142.67,2311.54 2133.31,2321.93 2120.77,2331.26 2104.99,2338.28 2091.31,2341.19 2075.68,2341.36 2058.79,2337.77 2044.58,2331.26 2032.04,2321.93 2021.71,2310.2 2014.04,2296.58 2009.51,2282.48 2007.92,2267.75" style="stroke:rgb(5,23,88);stroke-width:15.748031;fill:none;stroke-opacity:0.5;stroke-linecap:round;stroke-linejoin:round;;fill:none"/>
<polyline points="2007.92,2267.75 2009.72,2250.58 2014.71,2235.77 2022.68,2222.32 2033.26,2210.82 2046.01,2201.77 2059.56,2195.79 2075.68,2192.49 2091.31,2192.66 2104.99,2195.57 2120.77,2202.59 2132.73,2211.34 2142.67,2222.32 2151.99,2239.37 2630.71,2239.37 2640.53,2241.21 2650.19,2247.44 2919.41,2516.65 2925.7,2513.9 2940.18,2510.77 2957.45,2510.77 2971.93,2513.9 2985.48,2519.88 2999.45,2530.03 3009.33,2541.07 3016.78,2553.88 3021.99,2569.49 3023.58,2585.86 3021.99,2600.59 3017.45,2614.69 3009.33,2629.01 2998.23,2641.15 2985.48,2650.19 2971.14,2656.39 2955.81,2659.47 2940.18,2659.3 2925.7,2656.18 2912.15,2650.19 2899.4,2641.15 2887.85,2628.31 2880.19,2614.69 2875.65,2600.59 2874.06,2584.21 2875.65,2569.49 2880.19,2555.38 2619.29,2294.49 2151.99,2294.49 2142.67,2311.54 2133.31,2321.93 2120.77,2331.26 2104.99,2338.28 2091.31,2341.19 2075.68,2341.36 2058.79,2337.77 2044.58,2331.26 2032.04,2321.93 2021.71,2310.2 2014.04,2296.58 2009.51,2282.48 2007.92,2267.75" style="stroke:rgb(0,0,0);stroke-width:1px;fill:none;stroke-opacity:1;stroke-linecap:round;stroke-linejoin:round;;fill:none"/>
<polyline points="2007.87,2133.86 2007.87,2000 2010.18,1994.43 2015.75,1992.12 2149.6,1992.12 2155.17,1994.43 2157.33,1998.46 2157.48,2039.37 2836.83,2040.09 2845.35,2043.62 2850.19,2047.44 2919.41,2116.65 2926.5,2113.68 2940.18,2110.77 2956.64,2110.64 2972.7,2114.19 2986.22,2120.26 2998.23,2128.93 3009.33,2141.07 3017.45,2155.38 3021.99,2169.49 3023.58,2185.86 3021.77,2201.39 3017.45,2214.69 3009.78,2228.31 2999.45,2240.04 2986.22,2249.82 2971.14,2256.39 2955.81,2259.47 2940.18,2259.3 2924.93,2255.88 2912.15,2250.19 2899.4,2241.15 2888.82,2229.65 2880.19,2214.69 2875.65,2200.59 2874.06,2185.86 2875.65,2169.49 2880.19,2155.38 2819.29,2094.49 2157.48,2094.49 2157.33,2135.39 2155.17,2139.42 2151.14,2141.58 2015.75,2141.73 2010.18,2139.42 2007.87,2133.86" style="stroke:rgb(233,94,212);stroke-width:15.748031;fill:none;stroke-opacity:0.5;stroke-linecap:round;stroke-linejoin:round;;fill:none"/>
<polyline points="2007.87,2133.86 2007.87,2000 2010.18,1994.43 2015.75,1992.12 2149.6,1992.12 2155.17,1994.43 2157.33,1998.46 2157.48,2039.37 2836.83,2040.09 2845.35,2043.62 2850.19,2047.44 2919.41,2116.65 2926.5,2113.68 2940.18,2110.77 2956.64,2110.64 2972.7,2114.19 2986.22,2120.26 2998.23,2128.93 3009.33,2141.07 3017.45,2155.38 3021.99,2169.49 3023.58,2185.86 3021.77,2201.39 3017.45,2214.69 3009.78,2228.31 2999.45,2240.04 2986.22,2249.82 2971.14,2256.39 2955.81,2259.47 2940.18,2259.3 2924.93,2255.88 2912.15,2250.19 2899.4,2241.15 2888.82,2229.65 2880.19,2214.69 2875.65,2200.59 2874.06,2185.86 2875.65,2169.49 2880.19,2155.38 2819.29,2094.49 2157.48,2094.49 2157.33,2135.39 2155.17,2139.42 2151.14,2141.58 2015.75,2141.73 2010.18,2139.42 2007.87,2133.86" style="stroke:rgb(0,0,0);stroke-width:1px;fill:none;stroke-opacity:1;stroke-linecap:round;stroke-linejoin:round;;fill:none"/>
<polyline points="7.87291,1016.14 7.87291,350.393 9.71091,340.575 15.9449,330.905 330.905,15.9448 335.745,12.1208 344.267,8.59076 3027.56,7.87276 3038.8,10.3008 3047.04,15.9448 3125.78,94.6848 3129.61,99.5248 3133.14,108.047 3133.14,501.401 3129.61,509.923 3125.78,514.763 3017.45,623.099 3022.11,638.017 3023.62,652.755 3022.11,667.493 3017.45,682.411 3125.78,790.749 3131.43,798.991 3133.44,805.623 3133.44,1525.87 3131.43,1532.5 3125.78,1540.75 2958.07,1708.46 2953.23,1712.29 2944.71,1715.82 2438.58,1716.53 2428.76,1714.7 2419.09,1708.46 2112.09,1401.46 2104.99,1404.42 2089.67,1407.51 2074.86,1407.46 2058.79,1403.92 2044.58,1397.4 2032.62,1388.66 2021.71,1376.35 2013.36,1360.63 1364.59,1360.63 1355.27,1377.68 1345.91,1388.08 1333.37,1397.4 1317.59,1404.42 1303.09,1407.46 1288.28,1407.51 1271.39,1403.92 1257.18,1397.4 1244.64,1388.08 1234.31,1376.35 1226.64,1362.72 1222.11,1348.62 1220.47,1333.07 1222.32,1316.72 1226.94,1302.64 1234.31,1289.79 1244.64,1278.06 1258.61,1267.91 1272.16,1261.93 1287.45,1258.68 1303.09,1258.68 1317.59,1261.71 1333.37,1268.74 1345.91,1278.06 1355.27,1288.46 1364.59,1305.51 2013.36,1305.51 2022.68,1288.46 2033.26,1276.96 2044.58,1268.74 2058.79,1262.22 2074.04,1258.8 2091.31,1258.8 2106.56,1262.22 2120.77,1268.74 2132.73,1277.48 2143.64,1289.79 2150.64,1301.91 2155.63,1316.72 2157.44,1332.25 2155.97,1347.81 2151.31,1362.73 2450,1661.42 2927.17,1661.42 3078.74,1509.84 3078.74,821.651 2978.23,721.141 2971.14,724.111 2957.45,727.019 2941,727.149 2924.93,723.601 2912.15,717.911 2899.4,708.863 2888.3,696.723 2880.86,683.915 2875.86,669.103 2874.01,652.755 2875.86,636.407 2880.86,621.595 2888.3,608.787 2899.4,596.647 2912.15,587.599 2924.93,581.909 2941,578.361 2957.45,578.491 2971.14,581.399 2978.23,584.369 3078.74,483.859 3078.74,125.589 3016.14,62.9908 361.809,62.9908 62.9909,361.809 62.9909,1004.72 139.761,1081.49 344.881,1081.49 349.255,1082.82 351.427,1084.99 352.755,1089.37 352.755,1207.48 351.427,1211.85 347.895,1214.75 344.881,1215.35 108.661,1215.35 104.285,1214.03 101.385,1210.49 100.787,1207.48 100.787,1120.47 15.4269,1035.05 9.71091,1025.96 7.87291,1016.14" style="stroke:rgb(171,178,205);stroke-width:15.748031;fill:none;stroke-opacity:0.5;stroke-linecap:round;stroke-linejoin:round;;fill:none"/>
<polyline points="7.87291,1016.14 7.87291,350.393 9.71091,340.575 15.9449,330.905 330.905,15.9448 335.745,12.1208 344.267,8.59076 3027.56,7.87276 3038.8,10.3008 3047.04,15.9448 3125.78,94.6848 3129.61,99.5248 3133.14,108.047 3133.14,501.401 3129.61,509.923 3125.78,514.763 3017.45,623.099 3022.11,638.017 3023.62,652.755 3022.11,667.493 3017.45,682.411 3125.78,790.749 3131.43,798.991 3133.44,805.623 3133.44,1525.87 3131.43,1532.5 3125.78,1540.75 2958.07,1708.46 2953.23,1712.29 2944.71,1715.82 2438.58,1716.53 2428.76,1714.7 2419.09,1708.46 2112.09,1401.46 2104.99,1404.42 2089.67,1407.51 2074.86,1407.46 2058.79,1403.92 2044.58,1397.4 2032.62,1388.66 2021.71,1376.35 2013.36,1360.63 1364.59,1360.63 1355.27,1377.68 1345.91,1388.08 1333.37,1397.4 1317.59,1404.42 1303.09,1407.46 1288.28,1407.51 1271.39,1403.92 1257.18,1397.4 1244.64,1388.08 1234.31,1376.35 1226.64,1362.72 1222.11,1348.62 1220.47,1333.07 1222.32,1316.72 1226.94,1302.64 1234.31,1289.79 1244.64,1278.06 1258.61,1267.91 1272.16,1261.93 1287.45,1258.68 1303.09,1258.68 1317.59,1261.71 1333.37,1268.74 1345.91,1278.06 1355.27,1288.46 1364.59,1305.51 2013.36,1305.51 2022.68,1288.46 2033.26,1276.96 2044.58,1268.74 2058.79,1262.22 2074.04,1258.8 2091.31,1258.8 2106.56,1262.22 2120.77,1268.74 2132.73,1277.48 2143.64,1289.79 2150.64,1301.91 2155.63,1316.72 2157.44,1332.25 2155.97,1347.81 2151.31,1362.73 2450,1661.42 2927.17,1661.42 3078.74,1509.84 3078.74,821.651 2978.23,721.141 2971.14,724.111 2957.45,727.019 2941,727.149 2924.93,723.601 2912.15,717.911 2899.4,708.863 2888.3,696.723 2880.86,683.915 2875.86,669.103 2874.01,652.755 2875.86,636.407 2880.86,621.595 2888.3,608.787 2899.4,596.647 2912.15,587.599 2924.93,581.909 2941,578.361 2957.45,578.491 2971.14,581.399 2978.23,584.369 3078.74,483.859 3078.74,125.589 3016.14,62.9908 361.809,62.9908 62.9909,361.809 62.9909,1004.72 139.761,1081.49 344.881,1081.49 349.255,1082.82 351.427,1084.99 352.755,1089.37 352.755,1207.48 351.427,1211.85 347.895,1214.75 344.881,1215.35 108.661,1215.35 104.285,1214.03 101.385,1210.49 100.787,1207.48 100.787,1120.47 15.4269,1035.05 9.71091,1025.96 7.87291,1016.14" style="stroke:rgb(0,0,0);stroke-width:1px;fill:none;stroke-opacity:1;stroke-linecap:round;stroke-linejoin:round;;fill:none"/>
<polyline points="455.117,1287.79 455.117,1209.05 456.445,1204.68 459.977,1201.78 699.211,1201.18 703.587,1202.51 706.487,1206.04 707.085,1287.79 704.779,1293.36 699.211,1295.67 608.661,1295.67 608.661,1959.84 683.461,2034.64 1220.47,2034.64 1220.62,1993.74 1222.78,1989.71 1228.34,1987.4 1363.74,1987.55 1367.77,1989.71 1369.93,1993.74 1370.08,2034.64 1390.16,2034.64 1676.57,1748.23 1684.82,1742.58 1696.06,1740.16 2638.47,1740.57 2645.1,1742.58 2653.34,1748.23 2862.59,1957.48 2879.5,1957.48 2888.3,1941.07 2898.18,1930.03 2910.72,1920.71 2924.93,1914.19 2941.82,1910.6 2957.45,1910.77 2971.93,1913.9 2985.48,1919.88 2998.23,1928.93 3009.33,1941.07 3016.78,1953.88 3022.11,1970.3 3023.58,1985.86 3021.77,2001.39 3016.78,2016.2 3009.33,2029.01 2998.23,2041.15 2985.48,2050.19 2971.93,2056.18 2955.81,2059.47 2940.18,2059.3 2925.7,2056.18 2912.15,2050.19 2899.4,2041.15 2888.82,2029.65 2879.5,2012.6 2846.57,2012.18 2839.93,2010.17 2832.26,2005.04 2622.44,1795.27 1707.48,1795.27 1420.49,2082.21 1412.82,2087.33 1406.19,2089.35 1370.08,2089.76 1369.93,2130.67 1367.77,2134.7 1365.22,2136.41 1225.33,2136.41 1222.78,2134.7 1220.62,2130.67 1220.47,2089.76 683.461,2089.76 633.857,2139.37 633.857,2159.45 724.409,2159.45 727.421,2160.05 730.955,2162.95 732.283,2167.32 732.283,2285.43 729.977,2291 724.409,2293.31 486.651,2293.15 481.641,2289.81 480.315,2285.43 480.315,2167.32 481.641,2162.95 485.175,2160.05 488.189,2159.45 578.739,2159.45 578.777,2127.18 579.457,2121.82 582.987,2113.3 633.071,2062.2 561.615,1990.75 555.971,1982.5 553.959,1975.87 553.543,1295.67 462.991,1295.67 457.423,1293.36 455.117,1287.79" style="stroke:rgb(198,155,180);stroke-width:15.748031;fill:none;stroke-opacity:0.5;stroke-linecap:round;stroke-linejoin:round;;fill:none"/>
<polyline points="455.117,1287.79 455.117,1209.05 456.445,1204.68 459.977,1201.78 699.211,1201.18 703.587,1202.51 706.487,1206.04 707.085,1287.79 704.779,1293.36 699.211,1295.67 608.661,1295.67 608.661,1959.84 683.461,2034.64 1220.47,2034.64 1220.62,1993.74 1222.78,1989.71 1228.34,1987.4 1363.74,1987.55 1367.77,1989.71 1369.93,1993.74 1370.08,2034.64 1390.16,2034.64 1676.57,1748.23 1684.82,1742.58 1696.06,1740.16 2638.47,1740.57 2645.1,1742.58 2653.34,1748.23 2862.59,1957.48 2879.5,1957.48 2888.3,1941.07 2898.18,1930.03 2910.72,1920.71 2924.93,1914.19 2941.82,1910.6 2957.45,1910.77 2971.93,1913.9 2985.48,1919.88 2998.23,1928.93 3009.33,1941.07 3016.78,1953.88 3022.11,1970.3 3023.58,1985.86 3021.77,2001.39 3016.78,2016.2 3009.33,2029.01 2998.23,2041.15 2985.48,2050.19 2971.93,2056.18 2955.81,2059.47 2940.18,2059.3 2925.7,2056.18 2912.15,2050.19 2899.4,2041.15 2888.82,2029.65 2879.5,2012.6 2846.57,2012.18 2839.93,2010.17 2832.26,2005.04 2622.44,1795.27 1707.48,1795.27 1420.49,2082.21 1412.82,2087.33 1406.19,2089.35 1370.08,2089.76 1369.93,2130.67 1367.77,2134.7 1365.22,2136.41 1225.33,2136.41 1222.78,2134.7 1220.62,2130.67 1220.47,2089.76 683.461,2089.76 633.857,2139.37 633.857,2159.45 724.409,2159.45 727.421,2160.05 730.955,2162.95 732.283,2167.32 732.283,2285.43 729.977,2291 724.409,2293.31 486.651,2293.15 481.641,2289.81 480.315,2285.43 480.315,2167.32 481.641,2162.95 485.175,2160.05 488.189,2159.45 578.739,2159.45 578.777,2127.18 579.457,2121.82 582.987,2113.3 633.071,2062.2 561.615,1990.75 555.971,1982.5 553.959,1975.87 553.543,1295.67 462.991,1295.67 457.423,1293.36 455.117,1287.79" style="stroke:rgb(0,0,0);stroke-width:1px;fill:none;stroke-opacity:1;stroke-linecap:round;stroke-linejoin:round;;fill:none"/>
<polyline points="100.787,807.479 100.787,689.369 103.093,683.801 108.661,681.495 346.417,681.647 350.449,683.801 352.603,687.833 352.755,720.865 1221.71,720.865 1227.31,701.911 1235.28,688.461 1245.86,676.961 1258.61,667.915 1272.16,661.929 1287.45,658.677 1302.27,658.633 1319.16,662.223 1333.37,668.737 1345.91,678.063 1356.24,689.793 1363.91,703.415 1368.44,717.517 1370.03,732.247 1368.44,748.623 1363.91,762.725 1356.24,776.347 1345.91,788.077 1333.37,797.403 1319.16,803.917 1302.27,807.507 1286.64,807.335 1272.16,804.213 1258.61,798.225 1244.64,788.077 1234.1,775.983 352.755,775.983 352.603,809.015 350.449,813.047 346.417,815.203 108.661,815.353 103.093,813.047 100.787,807.479" style="stroke:rgb(84,17,14);stroke-width:15.748031;fill:none;stroke-opacity:0.5;stroke-linecap:round;stroke-linejoin:round;;fill:none"/>
<polyline points="100.787,807.479 100.787,689.369 103.093,683.801 108.661,681.495 346.417,681.647 350.449,683.801 352.603,687.833 352.755,720.865 1221.71,720.865 1227.31,701.911 1235.28,688.461 1245.86,676.961 1258.61,667.915 1272.16,661.929 1287.45,658.677 1302.27,658.633 1319.16,662.223 1333.37,668.737 1345.91,678.063 1356.24,689.793 1363.91,703.415 1368.44,717.517 1370.03,732.247 1368.44,748.623 1363.91,762.725 1356.24,776.347 1345.91,788.077 1333.37,797.403 1319.16,803.917 1302.27,807.507 1286.64,807.335 1272.16,804.213 1258.61,798.225 1244.64,788.077 1234.1,775.983 352.755,775.983 352.603,809.015 350.449,813.047 346.417,815.203 108.661,815.353 103.093,813.047 100.787,807.479" style="stroke:rgb(0,0,0);stroke-width:1px;fill:none;stroke-opacity:1;stroke-linecap:round;stroke-linejoin:round;;fill:none"/>
<polyline points="455.117,887.795 455.117,809.055 456.445,804.679 459.977,801.779 699.211,801.181 703.587,802.507 706.487,806.041 707.085,820.865 927.165,820.865 936.983,822.703 946.651,828.937 1023.22,905.511 1225.96,905.511 1235.28,888.461 1244.64,878.063 1257.18,868.737 1272.16,861.929 1286.64,858.805 1303.91,858.805 1318.39,861.929 1333.37,868.737 1345.33,877.481 1355.27,888.461 1363.91,903.415 1368.44,917.517 1370.08,933.071 1368.57,947.809 1363.61,963.495 1356.24,976.347 1345.91,988.077 1333.37,997.403 1318.39,1004.21 1303.09,1007.46 1288.28,1007.51 1271.39,1003.92 1257.18,997.403 1245.86,989.179 1234.31,976.347 1225.96,960.629 1011.81,960.629 1001.99,958.791 992.323,952.557 915.749,875.983 707.085,875.983 706.487,890.807 703.587,894.341 699.211,895.669 462.991,895.669 457.423,893.363 455.117,887.795" style="stroke:rgb(130,116,65);stroke-width:15.748031;fill:none;stroke-opacity:0.5;stroke-linecap:round;stroke-linejoin:round;;fill:none"/>
<polyline points="455.117,887.795 455.117,809.055 456.445,804.679 459.977,801.779 699.211,801.181 703.587,802.507 706.487,806.041 707.085,820.865 927.165,820.865 936.983,822.703 946.651,828.937 1023.22,905.511 1225.96,905.511 1235.28,888.461 1244.64,878.063 1257.18,868.737 1272.16,861.929 1286.64,858.805 1303.91,858.805 1318.39,861.929 1333.37,868.737 1345.33,877.481 1355.27,888.461 1363.91,903.415 1368.44,917.517 1370.08,933.071 1368.57,947.809 1363.61,963.495 1356.24,976.347 1345.91,988.077 1333.37,997.403 1318.39,1004.21 1303.09,1007.46 1288.28,1007.51 1271.39,1003.92 1257.18,997.403 1245.86,989.179 1234.31,976.347 1225.96,960.629 1011.81,960.629 1001.99,958.791 992.323,952.557 915.749,875.983 707.085,875.983 706.487,890.807 703.587,894.341 699.211,895.669 462.991,895.669 457.423,893.363 455.117,887.795" style="stroke:rgb(0,0,0);stroke-width:1px;fill:none;stroke-opacity:1;stroke-linecap:round;stroke-linejoin:round;;fill:none"/>
<polyline points="455.117,687.795 455.117,609.055 456.445,604.679 459.977,601.779 699.211,601.181 703.587,602.507 706.487,606.041 707.085,620.865 828.347,620.865 935.631,513.583 943.873,507.939 950.505,505.927 1225.96,505.511 1235.28,488.461 1245.22,477.481 1257.18,468.737 1272.95,461.715 1287.45,458.677 1302.27,458.633 1319.16,462.223 1333.37,468.737 1344.69,476.961 1356.24,489.793 1363.91,503.415 1368.44,517.517 1370.08,533.071 1368.44,548.623 1363.91,562.725 1356.24,576.347 1345.91,588.077 1333.37,597.403 1318.39,604.213 1303.91,607.335 1286.64,607.335 1272.16,604.213 1257.18,597.403 1244.64,588.077 1235.28,577.679 1225.96,560.629 966.533,560.629 859.251,667.911 854.411,671.737 845.889,675.267 707.085,675.983 706.487,690.807 703.587,694.341 699.211,695.669 462.991,695.669 457.423,693.363 455.117,687.795" style="stroke:rgb(33,61,220);stroke-width:15.748031;fill:none;stroke-opacity:0.5;stroke-linecap:round;stroke-linejoin:round;;fill:none"/>
<polyline points="455.117,687.795 455.117,609.055 456.445,604.679 459.977,601.779 699.211,601.181 703.587,602.507 706.487,606.041 707.085,620.865 828.347,620.865 935.631,513.583 943.873,507.939 950.505,505.927 1225.96,505.511 1235.28,488.461 1245.22,477.481 1257.18,468.737 1272.95,461.715 1287.45,458.677 1302.27,458.633 1319.16,462.223 1333.37,468.737 1344.69,476.961 1356.24,489.793 1363.91,503.415 1368.44,517.517 1370.08,533.071 1368.44,548.623 1363.91,562.725 1356.24,576.347 1345.91,588.077 1333.37,597.403 1318.39,604.213 1303.91,607.335 1286.64,607.335 1272.16,604.213 1257.18,597.403 1244.64,588.077 1235.28,577.679 1225.96,560.629 966.533,560.629 859.251,667.911 854.411,671.737 845.889,675.267 707.085,675.983 706.487,690.807 703.587,694.341 699.211,695.669 462.991,695.669 457.423,693.363 455.117,687.795" style="stroke:rgb(0,0,0);stroke-width:1px;fill:none;stroke-opacity:1;stroke-linecap:round;stroke-linejoin:round;;fill:none"/>
<polyline points="100.787,1007.48 100.787,889.369 103.093,883.801 107.125,881.647 346.417,881.647 350.449,883.801 352.603,887.833 352.755,920.865 795.557,921.281 802.189,923.293 810.431,928.937 987.005,1105.51 1225.96,1105.51 1235.28,1088.46 1244.64,1078.06 1257.18,1068.74 1272.95,1061.71 1287.45,1058.68 1303.09,1058.68 1318.39,1061.93 1331.94,1067.91 1344.69,1076.96 1355.27,1088.46 1363.24,1101.91 1368.44,1117.52 1370.08,1133.07 1368.57,1147.81 1363.24,1164.23 1356.24,1176.35 1345.91,1188.08 1333.37,1197.4 1319.16,1203.92 1302.27,1207.51 1287.45,1207.46 1272.95,1204.42 1257.18,1197.4 1244.64,1188.08 1235.28,1177.68 1225.96,1160.63 969.463,1159.91 960.941,1156.38 956.103,1152.56 779.529,975.983 352.755,975.983 352.603,1009.01 350.449,1013.05 346.417,1015.2 108.661,1015.35 103.093,1013.05 100.787,1007.48" style="stroke:rgb(135,112,233);stroke-width:15.748031;fill:none;stroke-opacity:0.5;stroke-linecap:round;stroke-linejoin:round;;fill:none"/>
<polyline points="100.787,1007.48 100.787,889.369 103.093,883.801 107.125,881.647 346.417,881.647 350.449,883.801 352.603,887.833 352.755,920.865 795.557,921.281 802.189,923.293 810.431,928.937 987.005,1105.51 1225.96,1105.51 1235.28,1088.46 1244.64,1078.06 1257.18,1068.74 1272.95,1061.71 1287.45,1058.68 1303.09,1058.68 1318.39,1061.93 1331.94,1067.91 1344.69,1076.96 1355.27,1088.46 1363.24,1101.91 1368.44,1117.52 1370.08,1133.07 1368.57,1147.81 1363.24,1164.23 1356.24,1176.35 1345.91,1188.08 1333.37,1197.4 1319.16,1203.92 1302.27,1207.51 1287.45,1207.46 1272.95,1204.42 1257.18,1197.4 1244.64,1188.08 1235.28,1177.68 1225.96,1160.63 969.463,1159.91 960.941,1156.38 956.103,1152.56 779.529,975.983 352.755,975.983 352.603,1009.01 350.449,1013.05 346.417,1015.2 108.661,1015.35 103.093,1013.05 100.787,1007.48" style="stroke:rgb(0,0,0);stroke-width:1px;fill:none;stroke-opacity:1;stroke-linecap:round;stroke-linejoin:round;;fill:none"/>
<polyline points="1220.47,399.999 1220.47,266.141 1221.07,263.127 1223.97,259.593 1228.34,258.267 1363.74,258.419 1367.77,260.573 1369.93,264.605 1370.08,305.511 1390.16,305.511 1529.33,166.339 1537.57,160.695 1548.05,158.305 2882.66,158.305 2891.71,160.105 2897.82,163.371 2919.41,184.369 2926.5,181.399 2940.18,178.491 2956.64,178.361 2972.7,181.909 2986.91,188.423 2998.23,196.647 3008.82,208.147 3016.78,221.595 3021.77,236.407 3023.58,251.933 3022.11,267.493 3017.45,282.411 3009.33,296.723 2999.45,307.761 2986.91,317.087 2972.7,323.601 2956.64,327.149 2941.82,327.191 2926.5,324.111 2912.15,317.911 2899.4,308.863 2887.85,296.033 2880.19,282.411 2875.86,269.103 2874.06,253.579 2875.52,238.017 2880.19,223.099 2870.47,213.385 1560.23,213.385 1417.5,355.525 1406.19,360.213 1370.08,360.629 1370.08,399.999 1369.48,403.013 1366.58,406.547 1362.2,407.873 1228.34,407.873 1222.78,405.567 1220.47,399.999" style="stroke:rgb(62,161,65);stroke-width:15.748031;fill:none;stroke-opacity:0.5;stroke-linecap:round;stroke-linejoin:round;;fill:none"/>
<polyline points="1220.47,399.999 1220.47,266.141 1221.07,263.127 1223.97,259.593 1228.34,258.267 1363.74,258.419 1367.77,260.573 1369.93,264.605 1370.08,305.511 1390.16,305.511 1529.33,166.339 1537.57,160.695 1548.05,158.305 2882.66,158.305 2891.71,160.105 2897.82,163.371 2919.41,184.369 2926.5,181.399 2940.18,178.491 2956.64,178.361 2972.7,181.909 2986.91,188.423 2998.23,196.647 3008.82,208.147 3016.78,221.595 3021.77,236.407 3023.58,251.933 3022.11,267.493 3017.45,282.411 3009.33,296.723 2999.45,307.761 2986.91,317.087 2972.7,323.601 2956.64,327.149 2941.82,327.191 2926.5,324.111 2912.15,317.911 2899.4,308.863 2887.85,296.033 2880.19,282.411 2875.86,269.103 2874.06,253.579 2875.52,238.017 2880.19,223.099 2870.47,213.385 1560.23,213.385 1417.5,355.525 1406.19,360.213 1370.08,360.629 1370.08,399.999 1369.48,403.013 1366.58,406.547 1362.2,407.873 1228.34,407.873 1222.78,405.567 1220.47,399.999" style="stroke:rgb(0,0,0);stroke-width:1px;fill:none;stroke-opacity:1;stroke-linecap:round;stroke-linejoin:round;;fill:none"/>
<polyline points="2007.87,1133.07 2009.38,1147.81 2014.04,1162.72 2021.71,1176.35 2032.62,1188.66 2046.01,1198.22 2058.79,1203.92 2074.04,1207.33 2090.49,1207.46 2104.99,1204.42 2112.09,1201.46 2382.87,1472.24 2392.54,1478.48 2402.36,1480.31 2874.01,1480.31 2874.17,1521.22 2876.32,1525.25 2880.35,1527.41 3015.75,1527.56 3020.12,1526.23 3023.02,1522.7 3023.62,1385.83 3022.29,1381.45 3018.76,1378.55 2878.87,1378.55 2875.34,1381.45 2874.17,1384.29 2874.01,1425.2 2413.78,1425.2 2151.31,1162.73 2155.63,1149.42 2157.44,1133.89 2155.63,1116.72 2150.64,1101.91 2143.64,1089.79 2132.73,1077.48 2120.77,1068.74 2106.56,1062.22 2089.67,1058.63 2074.04,1058.8 2058.79,1062.22 2046.01,1067.91 2033.26,1076.96 2021.71,1089.79 2014.04,1103.41 2009.72,1116.72 2007.87,1133.07" style="stroke:rgb(225,252,103);stroke-width:15.748031;fill:none;stroke-opacity:0.5;stroke-linecap:round;stroke-linejoin:round;;fill:none"/>
<polyline points="2007.87,1133.07 2009.38,1147.81 2014.04,1162.72 2021.71,1176.35 2032.62,1188.66 2046.01,1198.22 2058.79,1203.92 2074.04,1207.33 2090.49,1207.46 2104.99,1204.42 2112.09,1201.46 2382.87,1472.24 2392.54,1478.48 2402.36,1480.31 2874.01,1480.31 2874.17,1521.22 2876.32,1525.25 2880.35,1527.41 3015.75,1527.56 3020.12,1526.23 3023.02,1522.7 3023.62,1385.83 3022.29,1381.45 3018.76,1378.55 2878.87,1378.55 2875.34,1381.45 2874.17,1384.29 2874.01,1425.2 2413.78,1425.2 2151.31,1162.73 2155.63,1149.42 2157.44,1133.89 2155.63,1116.72 2150.64,1101.91 2143.64,1089.79 2132.73,1077.48 2120.77,1068.74 2106.56,1062.22 2089.67,1058.63 2074.04,1058.8 2058.79,1062.22 2046.01,1067.91 2033.26,1076.96 2021.71,1089.79 2014.04,1103.41 2009.72,1116.72 2007.87,1133.07" style="stroke:rgb(0,0,0);stroke-width:1px;fill:none;stroke-opacity:1;stroke-linecap:round;stroke-linejoin:round;;fill:none"/>
<polyline points="2007.87,399.999 2007.87,266.141 2010.18,260.573 2015.75,258.267 2149.6,258.267 2153.98,259.593 2157.33,264.605 2157.48,305.511 2835.26,306.229 2843.78,309.759 2848.62,313.583 2919.41,384.369 2926.5,381.399 2940.18,378.491 2956.64,378.361 2972.7,381.909 2985.48,387.599 2998.23,396.647 3009.33,408.787 3016.78,421.595 3021.77,436.407 3023.62,452.755 3021.77,469.103 3016.78,483.915 3008.82,497.363 2998.23,508.863 2986.91,517.087 2971.14,524.111 2955.81,527.191 2941,527.149 2926.5,524.111 2912.15,517.911 2899.4,508.863 2888.82,497.363 2880.19,482.411 2875.52,467.493 2874.01,452.755 2875.52,438.017 2880.19,423.099 2817.72,360.629 2157.48,360.629 2157.33,401.535 2155.17,405.567 2151.14,407.721 2015.75,407.873 2010.18,405.567 2007.87,399.999" style="stroke:rgb(62,1,126);stroke-width:15.748031;fill:none;stroke-opacity:0.5;stroke-linecap:round;stroke-linejoin:round;;fill:none"/>
<polyline points="2007.87,399.999 2007.87,266.141 2010.18,260.573 2015.75,258.267 2149.6,258.267 2153.98,259.593 2157.33,264.605 2157.48,305.511 2835.26,306.229 2843.78,309.759 2848.62,313.583 2919.41,384.369 2926.5,381.399 2940.18,378.491 2956.64,378.361 2972.7,381.909 2985.48,387.599 2998.23,396.647 3009.33,408.787 3016.78,421.595 3021.77,436.407 3023.62,452.755 3021.77,469.103 3016.78,483.915 3008.82,497.363 2998.23,508.863 2986.91,517.087 2971.14,524.111 2955.81,527.191 2941,527.149 2926.5,524.111 2912.15,517.911 2899.4,508.863 2888.82,497.363 2880.19,482.411 2875.52,467.493 2874.01,452.755 2875.52,438.017 2880.19,423.099 2817.72,360.629 2157.48,360.629 2157.33,401.535 2155.17,405.567 2151.14,407.721 2015.75,407.873 2010.18,405.567 2007.87,399.999" style="stroke:rgb(0,0,0);stroke-width:1px;fill:none;stroke-opacity:1;stroke-linecap:round;stroke-linejoin:round;;fill:none"/>
<polyline points="2007.87,933.071 2009.38,947.809 2014.04,962.725 2022.68,977.679 2032.62,988.659 2044.58,997.403 2058.79,1003.92 2074.04,1007.33 2091.31,1007.33 2106.56,1003.92 2120.77,997.403 2133.31,988.077 2142.67,977.679 2151.99,960.629 2181.5,960.629 2493.11,1272.24 2502.78,1278.48 2512.6,1280.31 2879.5,1280.31 2888.3,1296.72 2899.4,1308.86 2912.15,1317.91 2924.93,1323.6 2941.82,1327.19 2956.64,1327.15 2971.14,1324.11 2986.91,1317.09 2998.23,1308.86 3008.82,1297.36 3017.45,1282.41 3022.11,1267.49 3023.62,1252.75 3022.11,1238.02 3017.45,1223.1 3009.78,1209.48 2999.45,1197.75 2986.91,1188.42 2972.7,1181.91 2956.64,1178.36 2941,1178.36 2926.5,1181.4 2910.72,1188.42 2899.4,1196.65 2888.82,1208.15 2879.5,1225.2 2524.01,1225.2 2207.56,909.759 2202.73,907.349 2193.68,905.549 2151.99,905.511 2142.67,888.461 2132.73,877.481 2120.77,868.737 2104.99,861.715 2090.49,858.677 2074.86,858.677 2060.36,861.715 2046.01,867.915 2033.26,876.961 2022.68,888.461 2014.04,903.415 2009.38,918.331 2007.87,933.071" style="stroke:rgb(151,234,220);stroke-width:15.748031;fill:none;stroke-opacity:0.5;stroke-linecap:round;stroke-linejoin:round;;fill:none"/>
<polyline points="2007.87,933.071 2009.38,947.809 2014.04,962.725 2022.68,977.679 2032.62,988.659 2044.58,997.403 2058.79,1003.92 2074.04,1007.33 2091.31,1007.33 2106.56,1003.92 2120.77,997.403 2133.31,988.077 2142.67,977.679 2151.99,960.629 2181.5,960.629 2493.11,1272.24 2502.78,1278.48 2512.6,1280.31 2879.5,1280.31 2888.3,1296.72 2899.4,1308.86 2912.15,1317.91 2924.93,1323.6 2941.82,1327.19 2956.64,1327.15 2971.14,1324.11 2986.91,1317.09 2998.23,1308.86 3008.82,1297.36 3017.45,1282.41 3022.11,1267.49 3023.62,1252.75 3022.11,1238.02 3017.45,1223.1 3009.78,1209.48 2999.45,1197.75 2986.91,1188.42 2972.7,1181.91 2956.64,1178.36 2941,1178.36 2926.5,1181.4 2910.72,1188.42 2899.4,1196.65 2888.82,1208.15 2879.5,1225.2 2524.01,1225.2 2207.56,909.759 2202.73,907.349 2193.68,905.549 2151.99,905.511 2142.67,888.461 2132.73,877.481 2120.77,868.737 2104.99,861.715 2090.49,858.677 2074.86,858.677 2060.36,861.715 2046.01,867.915 2033.26,876.961 2022.68,888.461 2014.04,903.415 2009.38,918.331 2007.87,933.071" style="stroke:rgb(0,0,0);stroke-width:1px;fill:none;stroke-opacity:1;stroke-linecap:round;stroke-linejoin:round;;fill:none"/>
<polyline points="2007.87,733.071 2009.38,747.809 2014.04,762.725 2022.68,777.679 2032.62,788.659 2046.01,798.225 2060.36,804.425 2074.86,807.463 2090.49,807.463 2104.99,804.425 2120.77,797.403 2133.31,788.077 2142.67,777.679 2151.99,760.629 2217.72,760.629 2529.33,1072.24 2539,1078.48 2548.82,1080.31 2879.5,1080.31 2888.3,1096.72 2899.4,1108.86 2912.15,1117.91 2924.93,1123.6 2941.82,1127.19 2956.64,1127.15 2971.14,1124.11 2986.91,1117.09 2998.23,1108.86 3008.82,1097.36 3017.45,1082.41 3022.11,1067.49 3023.62,1052.75 3022.11,1038.02 3017.45,1023.1 3009.78,1009.48 2999.45,997.749 2986.91,988.423 2972.7,981.909 2956.64,978.361 2941,978.361 2926.5,981.399 2910.72,988.423 2899.4,996.647 2888.82,1008.15 2879.5,1025.2 2560.23,1025.2 2248.62,713.583 2238.95,707.349 2229.13,705.511 2151.99,705.511 2142.67,688.461 2132.73,677.481 2120.77,668.737 2104.99,661.715 2090.49,658.677 2074.86,658.677 2060.36,661.715 2046.01,667.915 2033.26,676.961 2022.68,688.461 2014.04,703.415 2009.38,718.331 2007.87,733.071" style="stroke:rgb(107,150,143);stroke-width:15.748031;fill:none;stroke-opacity:0.5;stroke-linecap:round;stroke-linejoin:round;;fill:none"/>
<polyline points="2007.87,733.071 2009.38,747.809 2014.04,762.725 2022.68,777.679 2032.62,788.659 2046.01,798.225 2060.36,804.425 2074.86,807.463 2090.49,807.463 2104.99,804.425 2120.77,797.403 2133.31,788.077 2142.67,777.679 2151.99,760.629 2217.72,760.629 2529.33,1072.24 2539,1078.48 2548.82,1080.31 2879.5,1080.31 2888.3,1096.72 2899.4,1108.86 2912.15,1117.91 2924.93,1123.6 2941.82,1127.19 2956.64,1127.15 2971.14,1124.11 2986.91,1117.09 2998.23,1108.86 3008.82,1097.36 3017.45,1082.41 3022.11,1067.49 3023.62,1052.75 3022.11,1038.02 3017.45,1023.1 3009.78,1009.48 2999.45,997.749 2986.91,988.423 2972.7,981.909 2956.64,978.361 2941,978.361 2926.5,981.399 2910.72,988.423 2899.4,996.647 2888.82,1008.15 2879.5,1025.2 2560.23,1025.2 2248.62,713.583 2238.95,707.349 2229.13,705.511 2151.99,705.511 2142.67,688.461 2132.73,677.481 2120.77,668.737 2104.99,661.715 2090.49,658.677 2074.86,658.677 2060.36,661.715 2046.01,667.915 2033.26,676.961 2022.68,688.461 2014.04,703.415 2009.38,718.331 2007.87,733.071" style="stroke:rgb(0,0,0);stroke-width:1px;fill:none;stroke-opacity:1;stroke-linecap:round;stroke-linejoin:round;;fill:none"/>
<polyline points="2007.87,533.071 2009.38,547.809 2014.04,562.725 2022.68,577.679 2032.62,588.659 2046.01,598.225 2060.36,604.425 2074.86,607.463 2090.49,607.463 2104.99,604.425 2120.77,597.403 2133.31,588.077 2142.67,577.679 2151.99,560.629 2253.94,560.629 2565.55,872.243 2575.22,878.477 2585.04,880.315 2879.5,880.315 2888.3,896.723 2899.4,908.863 2912.15,917.911 2924.93,923.601 2941.82,927.191 2956.64,927.149 2971.14,924.111 2986.91,917.087 2998.23,908.863 3008.82,897.363 3017.45,882.411 3022.11,867.493 3023.62,852.755 3022.11,838.017 3017.45,823.099 3009.78,809.479 2999.45,797.749 2986.91,788.423 2972.7,781.909 2956.64,778.361 2941,778.361 2926.5,781.399 2910.72,788.423 2899.4,796.647 2888.82,808.147 2879.5,825.195 2596.45,825.197 2284.84,513.583 2275.17,507.349 2265.35,505.511 2151.99,505.511 2142.67,488.461 2132.73,477.481 2120.77,468.737 2104.99,461.715 2090.49,458.677 2074.86,458.677 2060.36,461.715 2046.01,467.915 2033.26,476.961 2022.68,488.461 2014.04,503.415 2009.38,518.331 2007.87,533.071" style="stroke:rgb(56,92,42);stroke-width:15.748031;fill:none;stroke-opacity:0.5;stroke-linecap:round;stroke-linejoin:round;;fill:none"/>
<polyline points="2007.87,533.071 2009.38,547.809 2014.04,562.725 2022.68,577.679 2032.62,588.659 2046.01,598.225 2060.36,604.425 2074.86,607.463 2090.49,607.463 2104.99,604.425 2120.77,597.403 2133.31,588.077 2142.67,577.679 2151.99,560.629 2253.94,560.629 2565.55,872.243 2575.22,878.477 2585.04,880.315 2879.5,880.315 2888.3,896.723 2899.4,908.863 2912.15,917.911 2924.93,923.601 2941.82,927.191 2956.64,927.149 2971.14,924.111 2986.91,917.087 2998.23,908.863 3008.82,897.363 3017.45,882.411 3022.11,867.493 3023.62,852.755 3022.11,838.017 3017.45,823.099 3009.78,809.479 2999.45,797.749 2986.91,788.423 2972.7,781.909 2956.64,778.361 2941,778.361 2926.5,781.399 2910.72,788.423 2899.4,796.647 2888.82,808.147 2879.5,825.195 2596.45,825.197 2284.84,513.583 2275.17,507.349 2265.35,505.511 2151.99,505.511 2142.67,488.461 2132.73,477.481 2120.77,468.737 2104.99,461.715 2090.49,458.677 2074.86,458.677 2060.36,461.715 2046.01,467.915 2033.26,476.961 2022.68,488.461 2014.04,503.415 2009.38,518.331 2007.87,533.071" style="stroke:rgb(0,0,0);stroke-width:1px;fill:none;stroke-opacity:1;stroke-linecap:round;stroke-linejoin:round;;fill:none"/>
</svg>
