<?xml version="1.0" standalone="no"?>
<!DOCTYPE svg PUBLIC "-//W3C//DTD SVG 1.1//EN"
"http://www.w3.org/Graphics/SVG/1.1/DTD/svg11.dtd">
<svg width="174.425" height="189.543" viewBox="0 0 3633.86 3948.82" version="1.1"
xmlns="http://www.w3.org/2000/svg"
xmlns:xlink="http://www.w3.org/1999/xlink">
<polyline points="84.6458,3785.43 84.6458,163.386 86.1598,148.026 90.6398,133.254 97.9158,119.642 107.71,107.71 119.642,97.9158 133.254,90.6398 148.026,86.1598 163.386,84.6458 3470.47,84.6458 3485.83,86.1598 3500.6,90.6398 3514.22,97.9158 3526.15,107.71 3535.94,119.642 3543.22,133.254 3547.7,148.026 3549.21,163.386 3549.21,3785.43 3547.7,3800.79 3543.22,3815.56 3535.94,3829.18 3526.15,3841.11 3514.22,3850.9 3500.6,3858.18 3485.83,3862.66 3470.47,3864.17 163.386,3864.17 148.026,3862.66 133.254,3858.18 119.642,3850.9 107.71,3841.11 97.9158,3829.18 90.6398,3815.56 86.1598,3800.79 84.6458,3785.43" style="stroke:rgb(103,198,105);stroke-width:157.480315;fill:none;stroke-opacity:0.5;stroke-linecap:round;stroke-linejoin:round;;fill:none"/>
<polyline points="84.6458,3785.43 84.6458,163.386 86.1598,148.026 90.6398,133.254 97.9158,119.642 107.71,107.71 119.642,97.9158 133.254,90.6398 148.026,86.1598 163.386,84.6458 3470.47,84.6458 3485.83,86.1598 3500.6,90.6398 3514.22,97.9158 3526.15,107.71 3535.94,119.642 3543.22,133.254 3547.7,148.026 3549.21,163.386 3549.21,3785.43 3547.7,3800.79 3543.22,3815.56 3535.94,3829.18 3526.15,3841.11 3514.22,3850.9 3500.6,3858.18 3485.83,3862.66 3470.47,3864.17 163.386,3864.17 148.026,3862.66 133.254,3858.18 119.642,3850.9 107.71,3841.11 97.9158,3829.18 90.6398,3815.56 86.1598,3800.79 84.6458,3785.43" style="stroke:rgb(0,0,0);stroke-width:1px;fill:none;stroke-opacity:1;stroke-linecap:round;stroke-linejoin:round;;fill:none"/>
</svg>
