G04 #@! TF.GenerationSoftware,KiCad,Pcbnew,5.1.5-52549c5~84~ubuntu18.04.1*
G04 #@! TF.CreationDate,2020-04-17T16:24:41+02:00*
G04 #@! TF.ProjectId,board,626f6172-642e-46b6-9963-61645f706362,rev?*
G04 #@! TF.SameCoordinates,Original*
G04 #@! TF.FileFunction,Legend,Top*
G04 #@! TF.FilePolarity,Positive*
%FSLAX46Y46*%
G04 Gerber Fmt 4.6, Leading zero omitted, Abs format (unit mm)*
G04 Created by KiCad (PCBNEW 5.1.5-52549c5~84~ubuntu18.04.1) date 2020-04-17 16:24:41*
%MOMM*%
%LPD*%
G04 APERTURE LIST*
%ADD10C,0.300000*%
%ADD11C,0.120000*%
%ADD12C,0.150000*%
%ADD13C,0.127000*%
%ADD14C,0.152400*%
%ADD15C,0.010000*%
%ADD16C,0.060000*%
%ADD17C,0.100000*%
%ADD18C,0.050000*%
G04 APERTURE END LIST*
D10*
X109417142Y-136670000D02*
X109274285Y-136574761D01*
X109060000Y-136574761D01*
X108845714Y-136670000D01*
X108702857Y-136860476D01*
X108631428Y-137050952D01*
X108560000Y-137431904D01*
X108560000Y-137717619D01*
X108631428Y-138098571D01*
X108702857Y-138289047D01*
X108845714Y-138479523D01*
X109060000Y-138574761D01*
X109202857Y-138574761D01*
X109417142Y-138479523D01*
X109488571Y-138384285D01*
X109488571Y-137717619D01*
X109202857Y-137717619D01*
X110131428Y-138574761D02*
X110131428Y-136574761D01*
X110988571Y-138574761D01*
X110988571Y-136574761D01*
X111702857Y-138574761D02*
X111702857Y-136574761D01*
X112060000Y-136574761D01*
X112274285Y-136670000D01*
X112417142Y-136860476D01*
X112488571Y-137050952D01*
X112560000Y-137431904D01*
X112560000Y-137717619D01*
X112488571Y-138098571D01*
X112417142Y-138289047D01*
X112274285Y-138479523D01*
X112060000Y-138574761D01*
X111702857Y-138574761D01*
D11*
X102997000Y-110098578D02*
X102997000Y-109581422D01*
X101577000Y-110098578D02*
X101577000Y-109581422D01*
D12*
X140425000Y-109275000D02*
X140300000Y-109275000D01*
X140425000Y-113925000D02*
X140200000Y-113925000D01*
X135175000Y-113925000D02*
X135400000Y-113925000D01*
X135175000Y-109275000D02*
X135400000Y-109275000D01*
X140425000Y-109275000D02*
X140425000Y-113925000D01*
X135175000Y-109275000D02*
X135175000Y-113925000D01*
X140300000Y-109275000D02*
X140300000Y-107925000D01*
D11*
X96300000Y-100620000D02*
X97900000Y-100620000D01*
X96300000Y-114580000D02*
X97900000Y-114580000D01*
X102300000Y-100620000D02*
X103900000Y-100620000D01*
X102300000Y-114580000D02*
X103900000Y-114580000D01*
X93600000Y-103800000D02*
X93600000Y-105400000D01*
X106600000Y-103800000D02*
X106600000Y-105400000D01*
X93600000Y-109800000D02*
X93600000Y-111400000D01*
X106600000Y-109800000D02*
X106600000Y-111400000D01*
D13*
X99640000Y-127820000D02*
X94630000Y-127820000D01*
X99630000Y-116210000D02*
X94610000Y-116210000D01*
X99630000Y-128830000D02*
X99630000Y-116190000D01*
X94620000Y-128810000D02*
X99620000Y-128810000D01*
X94620000Y-116210000D02*
X94630000Y-128830000D01*
D11*
X104902000Y-110098578D02*
X104902000Y-109581422D01*
X103482000Y-110098578D02*
X103482000Y-109581422D01*
X136241422Y-118410000D02*
X136758578Y-118410000D01*
X136241422Y-116990000D02*
X136758578Y-116990000D01*
D12*
X128150000Y-119150000D02*
X128150000Y-119675000D01*
X134450000Y-119150000D02*
X134450000Y-119675000D01*
X134450000Y-125450000D02*
X134450000Y-124925000D01*
X128150000Y-125450000D02*
X128150000Y-124925000D01*
X134450000Y-119150000D02*
X133925000Y-119150000D01*
X134450000Y-125450000D02*
X133925000Y-125450000D01*
X128150000Y-119150000D02*
X128675000Y-119150000D01*
D11*
X122458578Y-116890000D02*
X121941422Y-116890000D01*
X122458578Y-118310000D02*
X121941422Y-118310000D01*
D12*
X144345000Y-109265000D02*
X144245000Y-109265000D01*
X144345000Y-113915000D02*
X144145000Y-113915000D01*
X141095000Y-113915000D02*
X141295000Y-113915000D01*
X141095000Y-109265000D02*
X141295000Y-109265000D01*
X144345000Y-109265000D02*
X144345000Y-113915000D01*
X141095000Y-109265000D02*
X141095000Y-113915000D01*
X144245000Y-109265000D02*
X144245000Y-107915000D01*
D11*
X142750000Y-132700000D02*
X139620000Y-132700000D01*
X142080000Y-129100000D02*
X139620000Y-129100000D01*
D14*
X96772800Y-108293600D02*
X96315600Y-108293600D01*
X100227200Y-111646400D02*
X100684400Y-111646400D01*
X100684400Y-111646400D02*
X100684400Y-108293600D01*
X100684400Y-108293600D02*
X100227200Y-108293600D01*
X96315600Y-108293600D02*
X96315600Y-111646400D01*
X96315600Y-111646400D02*
X96772800Y-111646400D01*
D11*
X129010000Y-130841422D02*
X129010000Y-131358578D01*
X127590000Y-130841422D02*
X127590000Y-131358578D01*
X133290000Y-130841422D02*
X133290000Y-131358578D01*
X134710000Y-130841422D02*
X134710000Y-131358578D01*
X132810000Y-130841422D02*
X132810000Y-131358578D01*
X131390000Y-130841422D02*
X131390000Y-131358578D01*
X136410000Y-104041422D02*
X136410000Y-104558578D01*
X134990000Y-104041422D02*
X134990000Y-104558578D01*
D12*
X140799999Y-105500001D02*
X140299999Y-105500001D01*
X137549999Y-102250001D02*
X138049999Y-102250001D01*
X137549999Y-105500001D02*
X138049999Y-105500001D01*
X140799999Y-102250001D02*
X140799999Y-102750001D01*
X137549999Y-102250001D02*
X137549999Y-102750001D01*
X137549999Y-105500001D02*
X137549999Y-105000001D01*
X140799999Y-105500001D02*
X140799999Y-105000001D01*
D11*
X108365000Y-133015000D02*
X108365000Y-135300000D01*
X109835000Y-133015000D02*
X108365000Y-133015000D01*
X109835000Y-135300000D02*
X109835000Y-133015000D01*
X157330000Y-138439200D02*
X156000000Y-138439200D01*
X157330000Y-137109200D02*
X157330000Y-138439200D01*
X157330000Y-135839200D02*
X154670000Y-135839200D01*
X154670000Y-135839200D02*
X154670000Y-117999200D01*
X157330000Y-135839200D02*
X157330000Y-117999200D01*
X157330000Y-117999200D02*
X154670000Y-117999200D01*
D12*
X108150000Y-130700000D02*
X93150000Y-130700000D01*
X108150000Y-138700000D02*
X108150000Y-130700000D01*
X93150000Y-138700000D02*
X108150000Y-138700000D01*
X93150000Y-130700000D02*
X93150000Y-138700000D01*
X96150000Y-138700000D02*
X96150000Y-138100000D01*
X96150000Y-135300000D02*
X96150000Y-134100000D01*
X96150000Y-130700000D02*
X96150000Y-131300000D01*
D11*
X142740000Y-126785000D02*
X139610000Y-126785000D01*
X142070000Y-123185000D02*
X139610000Y-123185000D01*
X146900000Y-120500000D02*
X150030000Y-120500000D01*
X147570000Y-124100000D02*
X150030000Y-124100000D01*
X146900000Y-126450000D02*
X150030000Y-126450000D01*
X147570000Y-130050000D02*
X150030000Y-130050000D01*
X142700000Y-138570000D02*
X139570000Y-138570000D01*
X142030000Y-134970000D02*
X139570000Y-134970000D01*
X146900000Y-132450000D02*
X150030000Y-132450000D01*
X147570000Y-136050000D02*
X150030000Y-136050000D01*
X125690000Y-130841422D02*
X125690000Y-131358578D01*
X127110000Y-130841422D02*
X127110000Y-131358578D01*
X129490000Y-130841422D02*
X129490000Y-131358578D01*
X130910000Y-130841422D02*
X130910000Y-131358578D01*
X105580000Y-129960000D02*
X105580000Y-124060000D01*
X109480000Y-129960000D02*
X109480000Y-124060000D01*
X109480000Y-124060000D02*
X108405000Y-124060000D01*
X141190000Y-122030000D02*
G75*
G03X141190000Y-122030000I-700000J0D01*
G01*
X143424000Y-122046000D02*
G75*
G03X143424000Y-122046000I-700000J0D01*
G01*
X141148000Y-127950000D02*
G75*
G03X141148000Y-127950000I-700000J0D01*
G01*
X143400000Y-127950000D02*
G75*
G03X143400000Y-127950000I-700000J0D01*
G01*
X141270000Y-133860000D02*
G75*
G03X141270000Y-133860000I-700000J0D01*
G01*
X143500000Y-133850000D02*
G75*
G03X143500000Y-133850000I-700000J0D01*
G01*
X110785000Y-100400000D02*
X107670000Y-100400000D01*
X107670000Y-100400000D02*
X107670000Y-106000000D01*
X115170000Y-106000000D02*
X107670000Y-106000000D01*
X115170000Y-104470000D02*
X115170000Y-106000000D01*
X113925000Y-103200000D02*
X112055000Y-103200000D01*
X112055000Y-103200000D02*
X112055000Y-101330000D01*
X113325000Y-100400000D02*
X115170000Y-100400000D01*
X115170000Y-100400000D02*
X115170000Y-101930000D01*
X136610000Y-130841422D02*
X136610000Y-131358578D01*
X135190000Y-130841422D02*
X135190000Y-131358578D01*
D15*
G36*
X134058423Y-136101777D02*
G01*
X134096263Y-136105066D01*
X134116759Y-136108897D01*
X134168390Y-136125874D01*
X134213060Y-136149654D01*
X134250646Y-136179527D01*
X134281024Y-136214781D01*
X134304071Y-136254703D01*
X134319661Y-136298583D01*
X134327672Y-136345708D01*
X134327980Y-136395366D01*
X134320461Y-136446846D01*
X134304990Y-136499436D01*
X134281445Y-136552424D01*
X134249701Y-136605099D01*
X134211669Y-136654398D01*
X134162024Y-136705506D01*
X134107034Y-136750255D01*
X134047863Y-136788142D01*
X133985678Y-136818666D01*
X133921645Y-136841325D01*
X133856929Y-136855617D01*
X133792695Y-136861041D01*
X133738218Y-136858169D01*
X133683393Y-136847107D01*
X133634297Y-136828036D01*
X133591371Y-136801148D01*
X133572887Y-136785333D01*
X133541140Y-136751436D01*
X133518000Y-136716962D01*
X133502118Y-136679320D01*
X133492141Y-136635916D01*
X133490986Y-136628145D01*
X133488426Y-136573755D01*
X133495286Y-136518691D01*
X133510934Y-136463752D01*
X133524275Y-136433475D01*
X133889164Y-136433475D01*
X133891545Y-136455112D01*
X133904506Y-136499304D01*
X133925689Y-136538657D01*
X133954198Y-136572122D01*
X133989137Y-136598653D01*
X134029610Y-136617204D01*
X134030453Y-136617481D01*
X134050411Y-136621460D01*
X134077461Y-136623152D01*
X134095684Y-136622976D01*
X134119938Y-136621571D01*
X134138324Y-136618634D01*
X134155122Y-136613176D01*
X134172690Y-136605155D01*
X134209679Y-136581788D01*
X134240282Y-136551948D01*
X134263754Y-136517048D01*
X134279349Y-136478504D01*
X134286322Y-136437728D01*
X134283925Y-136396134D01*
X134283670Y-136394722D01*
X134270966Y-136352824D01*
X134249644Y-136314438D01*
X134220985Y-136281215D01*
X134186270Y-136254806D01*
X134167445Y-136244858D01*
X134137518Y-136235350D01*
X134102396Y-136230786D01*
X134065790Y-136231225D01*
X134031413Y-136236724D01*
X134013531Y-136242426D01*
X133978383Y-136261486D01*
X133947691Y-136287944D01*
X133922440Y-136320087D01*
X133903613Y-136356199D01*
X133892193Y-136394567D01*
X133889164Y-136433475D01*
X133524275Y-136433475D01*
X133534736Y-136409736D01*
X133566061Y-136357441D01*
X133604274Y-136307666D01*
X133648745Y-136261207D01*
X133698840Y-136218864D01*
X133753926Y-136181434D01*
X133813370Y-136149716D01*
X133876541Y-136124507D01*
X133894886Y-136118701D01*
X133931263Y-136110238D01*
X133972757Y-136104503D01*
X134016199Y-136101636D01*
X134058423Y-136101777D01*
G37*
X134058423Y-136101777D02*
X134096263Y-136105066D01*
X134116759Y-136108897D01*
X134168390Y-136125874D01*
X134213060Y-136149654D01*
X134250646Y-136179527D01*
X134281024Y-136214781D01*
X134304071Y-136254703D01*
X134319661Y-136298583D01*
X134327672Y-136345708D01*
X134327980Y-136395366D01*
X134320461Y-136446846D01*
X134304990Y-136499436D01*
X134281445Y-136552424D01*
X134249701Y-136605099D01*
X134211669Y-136654398D01*
X134162024Y-136705506D01*
X134107034Y-136750255D01*
X134047863Y-136788142D01*
X133985678Y-136818666D01*
X133921645Y-136841325D01*
X133856929Y-136855617D01*
X133792695Y-136861041D01*
X133738218Y-136858169D01*
X133683393Y-136847107D01*
X133634297Y-136828036D01*
X133591371Y-136801148D01*
X133572887Y-136785333D01*
X133541140Y-136751436D01*
X133518000Y-136716962D01*
X133502118Y-136679320D01*
X133492141Y-136635916D01*
X133490986Y-136628145D01*
X133488426Y-136573755D01*
X133495286Y-136518691D01*
X133510934Y-136463752D01*
X133524275Y-136433475D01*
X133889164Y-136433475D01*
X133891545Y-136455112D01*
X133904506Y-136499304D01*
X133925689Y-136538657D01*
X133954198Y-136572122D01*
X133989137Y-136598653D01*
X134029610Y-136617204D01*
X134030453Y-136617481D01*
X134050411Y-136621460D01*
X134077461Y-136623152D01*
X134095684Y-136622976D01*
X134119938Y-136621571D01*
X134138324Y-136618634D01*
X134155122Y-136613176D01*
X134172690Y-136605155D01*
X134209679Y-136581788D01*
X134240282Y-136551948D01*
X134263754Y-136517048D01*
X134279349Y-136478504D01*
X134286322Y-136437728D01*
X134283925Y-136396134D01*
X134283670Y-136394722D01*
X134270966Y-136352824D01*
X134249644Y-136314438D01*
X134220985Y-136281215D01*
X134186270Y-136254806D01*
X134167445Y-136244858D01*
X134137518Y-136235350D01*
X134102396Y-136230786D01*
X134065790Y-136231225D01*
X134031413Y-136236724D01*
X134013531Y-136242426D01*
X133978383Y-136261486D01*
X133947691Y-136287944D01*
X133922440Y-136320087D01*
X133903613Y-136356199D01*
X133892193Y-136394567D01*
X133889164Y-136433475D01*
X133524275Y-136433475D01*
X133534736Y-136409736D01*
X133566061Y-136357441D01*
X133604274Y-136307666D01*
X133648745Y-136261207D01*
X133698840Y-136218864D01*
X133753926Y-136181434D01*
X133813370Y-136149716D01*
X133876541Y-136124507D01*
X133894886Y-136118701D01*
X133931263Y-136110238D01*
X133972757Y-136104503D01*
X134016199Y-136101636D01*
X134058423Y-136101777D01*
G36*
X132433665Y-136292400D02*
G01*
X132451199Y-136294815D01*
X132467879Y-136300076D01*
X132486678Y-136308404D01*
X132536544Y-136336810D01*
X132586028Y-136374026D01*
X132634186Y-136418713D01*
X132680077Y-136469536D01*
X132722757Y-136525158D01*
X132761285Y-136584244D01*
X132794717Y-136645456D01*
X132822112Y-136707459D01*
X132842526Y-136768917D01*
X132855018Y-136828492D01*
X132855381Y-136831129D01*
X132858149Y-136874196D01*
X132854456Y-136912257D01*
X132844593Y-136944427D01*
X132828853Y-136969822D01*
X132807525Y-136987556D01*
X132803187Y-136989832D01*
X132775219Y-136998318D01*
X132743409Y-136999581D01*
X132711189Y-136993488D01*
X132710740Y-136993346D01*
X132667203Y-136975057D01*
X132622270Y-136947842D01*
X132576881Y-136912665D01*
X132531976Y-136870487D01*
X132488495Y-136822272D01*
X132447378Y-136768982D01*
X132409565Y-136711579D01*
X132375996Y-136651026D01*
X132375540Y-136650119D01*
X132350181Y-136595845D01*
X132341711Y-136573574D01*
X132495284Y-136573574D01*
X132495543Y-136601315D01*
X132498121Y-136629311D01*
X132502567Y-136652702D01*
X132512407Y-136682865D01*
X132526999Y-136717156D01*
X132544535Y-136751944D01*
X132563208Y-136783596D01*
X132578382Y-136805022D01*
X132609895Y-136840806D01*
X132641152Y-136868895D01*
X132671506Y-136889000D01*
X132700309Y-136900834D01*
X132726913Y-136904109D01*
X132750670Y-136898538D01*
X132766133Y-136888466D01*
X132780767Y-136871999D01*
X132790019Y-136852003D01*
X132794606Y-136826313D01*
X132795402Y-136800316D01*
X132791584Y-136761085D01*
X132781587Y-136720767D01*
X132766265Y-136680451D01*
X132746466Y-136641228D01*
X132723042Y-136604188D01*
X132696844Y-136570421D01*
X132668723Y-136541018D01*
X132639529Y-136517069D01*
X132610113Y-136499664D01*
X132581326Y-136489894D01*
X132554019Y-136488849D01*
X132552521Y-136489075D01*
X132530226Y-136497610D01*
X132511870Y-136514429D01*
X132501805Y-136531686D01*
X132497365Y-136549295D01*
X132495284Y-136573574D01*
X132341711Y-136573574D01*
X132331505Y-136546742D01*
X132318956Y-136500850D01*
X132311980Y-136456209D01*
X132310024Y-136418820D01*
X132310147Y-136393734D01*
X132311356Y-136375780D01*
X132314108Y-136361950D01*
X132318861Y-136349235D01*
X132321443Y-136343751D01*
X132332212Y-136326421D01*
X132345671Y-136310733D01*
X132351471Y-136305651D01*
X132361774Y-136298608D01*
X132371873Y-136294452D01*
X132384939Y-136292443D01*
X132404145Y-136291838D01*
X132410641Y-136291820D01*
X132433665Y-136292400D01*
G37*
X132433665Y-136292400D02*
X132451199Y-136294815D01*
X132467879Y-136300076D01*
X132486678Y-136308404D01*
X132536544Y-136336810D01*
X132586028Y-136374026D01*
X132634186Y-136418713D01*
X132680077Y-136469536D01*
X132722757Y-136525158D01*
X132761285Y-136584244D01*
X132794717Y-136645456D01*
X132822112Y-136707459D01*
X132842526Y-136768917D01*
X132855018Y-136828492D01*
X132855381Y-136831129D01*
X132858149Y-136874196D01*
X132854456Y-136912257D01*
X132844593Y-136944427D01*
X132828853Y-136969822D01*
X132807525Y-136987556D01*
X132803187Y-136989832D01*
X132775219Y-136998318D01*
X132743409Y-136999581D01*
X132711189Y-136993488D01*
X132710740Y-136993346D01*
X132667203Y-136975057D01*
X132622270Y-136947842D01*
X132576881Y-136912665D01*
X132531976Y-136870487D01*
X132488495Y-136822272D01*
X132447378Y-136768982D01*
X132409565Y-136711579D01*
X132375996Y-136651026D01*
X132375540Y-136650119D01*
X132350181Y-136595845D01*
X132341711Y-136573574D01*
X132495284Y-136573574D01*
X132495543Y-136601315D01*
X132498121Y-136629311D01*
X132502567Y-136652702D01*
X132512407Y-136682865D01*
X132526999Y-136717156D01*
X132544535Y-136751944D01*
X132563208Y-136783596D01*
X132578382Y-136805022D01*
X132609895Y-136840806D01*
X132641152Y-136868895D01*
X132671506Y-136889000D01*
X132700309Y-136900834D01*
X132726913Y-136904109D01*
X132750670Y-136898538D01*
X132766133Y-136888466D01*
X132780767Y-136871999D01*
X132790019Y-136852003D01*
X132794606Y-136826313D01*
X132795402Y-136800316D01*
X132791584Y-136761085D01*
X132781587Y-136720767D01*
X132766265Y-136680451D01*
X132746466Y-136641228D01*
X132723042Y-136604188D01*
X132696844Y-136570421D01*
X132668723Y-136541018D01*
X132639529Y-136517069D01*
X132610113Y-136499664D01*
X132581326Y-136489894D01*
X132554019Y-136488849D01*
X132552521Y-136489075D01*
X132530226Y-136497610D01*
X132511870Y-136514429D01*
X132501805Y-136531686D01*
X132497365Y-136549295D01*
X132495284Y-136573574D01*
X132341711Y-136573574D01*
X132331505Y-136546742D01*
X132318956Y-136500850D01*
X132311980Y-136456209D01*
X132310024Y-136418820D01*
X132310147Y-136393734D01*
X132311356Y-136375780D01*
X132314108Y-136361950D01*
X132318861Y-136349235D01*
X132321443Y-136343751D01*
X132332212Y-136326421D01*
X132345671Y-136310733D01*
X132351471Y-136305651D01*
X132361774Y-136298608D01*
X132371873Y-136294452D01*
X132384939Y-136292443D01*
X132404145Y-136291838D01*
X132410641Y-136291820D01*
X132433665Y-136292400D01*
D16*
G36*
X133764692Y-137731830D02*
G01*
X133768884Y-137737238D01*
X133769842Y-137745434D01*
X133765424Y-137750854D01*
X133753375Y-137758710D01*
X133735655Y-137768093D01*
X133714225Y-137778090D01*
X133691046Y-137787791D01*
X133668078Y-137796284D01*
X133647282Y-137802659D01*
X133645917Y-137803013D01*
X133602856Y-137810486D01*
X133554361Y-137812860D01*
X133503785Y-137810138D01*
X133457500Y-137802965D01*
X133430200Y-137797186D01*
X133411309Y-137792973D01*
X133399286Y-137789840D01*
X133392588Y-137787302D01*
X133389673Y-137784876D01*
X133388999Y-137782076D01*
X133388997Y-137781433D01*
X133390026Y-137773727D01*
X133393898Y-137769084D01*
X133402140Y-137767369D01*
X133416276Y-137768449D01*
X133437832Y-137772190D01*
X133454960Y-137775657D01*
X133513922Y-137785109D01*
X133567388Y-137787441D01*
X133617312Y-137782442D01*
X133665646Y-137769901D01*
X133714342Y-137749609D01*
X133719221Y-137747188D01*
X133741207Y-137736758D01*
X133755915Y-137731654D01*
X133764692Y-137731830D01*
G37*
X133764692Y-137731830D02*
X133768884Y-137737238D01*
X133769842Y-137745434D01*
X133765424Y-137750854D01*
X133753375Y-137758710D01*
X133735655Y-137768093D01*
X133714225Y-137778090D01*
X133691046Y-137787791D01*
X133668078Y-137796284D01*
X133647282Y-137802659D01*
X133645917Y-137803013D01*
X133602856Y-137810486D01*
X133554361Y-137812860D01*
X133503785Y-137810138D01*
X133457500Y-137802965D01*
X133430200Y-137797186D01*
X133411309Y-137792973D01*
X133399286Y-137789840D01*
X133392588Y-137787302D01*
X133389673Y-137784876D01*
X133388999Y-137782076D01*
X133388997Y-137781433D01*
X133390026Y-137773727D01*
X133393898Y-137769084D01*
X133402140Y-137767369D01*
X133416276Y-137768449D01*
X133437832Y-137772190D01*
X133454960Y-137775657D01*
X133513922Y-137785109D01*
X133567388Y-137787441D01*
X133617312Y-137782442D01*
X133665646Y-137769901D01*
X133714342Y-137749609D01*
X133719221Y-137747188D01*
X133741207Y-137736758D01*
X133755915Y-137731654D01*
X133764692Y-137731830D01*
D13*
X156500000Y-117490000D02*
X156500000Y-100170000D01*
X156500000Y-100170000D02*
X151500000Y-100170000D01*
X151500000Y-100170000D02*
X151500000Y-117490000D01*
X151500000Y-117490000D02*
X156500000Y-117490000D01*
X151460000Y-101210000D02*
X156540000Y-101210000D01*
D11*
X115210000Y-109320000D02*
X115210000Y-107520000D01*
X111990000Y-107520000D02*
X111990000Y-109970000D01*
D12*
X114325000Y-121525000D02*
X115675000Y-121525000D01*
X114325000Y-118375000D02*
X109675000Y-118375000D01*
X114325000Y-121625000D02*
X109675000Y-121625000D01*
X114325000Y-118375000D02*
X114325000Y-118575000D01*
X109675000Y-118375000D02*
X109675000Y-118575000D01*
X109675000Y-121625000D02*
X109675000Y-121425000D01*
X114325000Y-121625000D02*
X114325000Y-121525000D01*
D11*
X116660000Y-104470000D02*
X117040000Y-104470000D01*
X116660000Y-100420000D02*
X116660000Y-100160000D01*
X116660000Y-104470000D02*
X116660000Y-102700000D01*
X124280000Y-104470000D02*
X123900000Y-104470000D01*
X124280000Y-102700000D02*
X124280000Y-104470000D01*
X124280000Y-100160000D02*
X124280000Y-100420000D01*
D12*
X114695000Y-116325000D02*
X114745000Y-116325000D01*
X114695000Y-112175000D02*
X114840000Y-112175000D01*
X119845000Y-112175000D02*
X119700000Y-112175000D01*
X119845000Y-116325000D02*
X119700000Y-116325000D01*
X114695000Y-116325000D02*
X114695000Y-112175000D01*
X119845000Y-116325000D02*
X119845000Y-112175000D01*
X114745000Y-116325000D02*
X114745000Y-117725000D01*
D11*
X116085000Y-137165000D02*
X113800000Y-137165000D01*
X116085000Y-138635000D02*
X116085000Y-137165000D01*
X113800000Y-138635000D02*
X116085000Y-138635000D01*
X121990000Y-107412779D02*
X121990000Y-107087221D01*
X123010000Y-107412779D02*
X123010000Y-107087221D01*
X130800000Y-116800000D02*
G75*
G03X130800000Y-116800000I-700000J0D01*
G01*
X105718578Y-117290000D02*
X105201422Y-117290000D01*
X105718578Y-115870000D02*
X105201422Y-115870000D01*
D17*
X148450000Y-102290000D02*
G75*
G03X148450000Y-102290000I-50000J0D01*
G01*
X149650000Y-102290000D02*
G75*
G03X149650000Y-102290000I-50000J0D01*
G01*
D11*
X118700000Y-123900000D02*
X118700000Y-126700000D01*
X118700000Y-126700000D02*
X116700000Y-126700000D01*
X116700000Y-126700000D02*
X116700000Y-123900000D01*
X116700000Y-123900000D02*
X118700000Y-123900000D01*
X118900000Y-122800000D02*
X116900000Y-122800000D01*
X118900000Y-120000000D02*
X118900000Y-122800000D01*
X116900000Y-120000000D02*
X118900000Y-120000000D01*
X116900000Y-122800000D02*
X116900000Y-120000000D01*
X125000000Y-123800000D02*
X127000000Y-123800000D01*
X125000000Y-126600000D02*
X125000000Y-123800000D01*
X127000000Y-126600000D02*
X125000000Y-126600000D01*
X127000000Y-123800000D02*
X127000000Y-126600000D01*
X122200000Y-122800000D02*
X122200000Y-120000000D01*
X122200000Y-120000000D02*
X124200000Y-120000000D01*
X124200000Y-120000000D02*
X124200000Y-122800000D01*
X124200000Y-122800000D02*
X122200000Y-122800000D01*
X138242779Y-101520000D02*
X137917221Y-101520000D01*
X138242779Y-100500000D02*
X137917221Y-100500000D01*
X141067221Y-101520000D02*
X141392779Y-101520000D01*
X141067221Y-100500000D02*
X141392779Y-100500000D01*
X116500000Y-137800000D02*
X119250000Y-137800000D01*
X125020000Y-137800000D02*
X122270000Y-137800000D01*
X125020000Y-130344437D02*
X125020000Y-137800000D01*
X116500000Y-130344437D02*
X116500000Y-137800000D01*
X117564437Y-129280000D02*
X119250000Y-129280000D01*
X123955563Y-129280000D02*
X122270000Y-129280000D01*
X123955563Y-129280000D02*
X125020000Y-130344437D01*
X117564437Y-129280000D02*
X116500000Y-130344437D01*
X123270000Y-128040000D02*
X123270000Y-129040000D01*
X123770000Y-128540000D02*
X122770000Y-128540000D01*
D15*
G36*
X135318201Y-134929738D02*
G01*
X135338348Y-134931965D01*
X135355863Y-134935564D01*
X135371188Y-134941308D01*
X135384766Y-134949971D01*
X135397039Y-134962324D01*
X135408450Y-134979140D01*
X135419440Y-135001193D01*
X135430453Y-135029255D01*
X135441931Y-135064099D01*
X135454316Y-135106498D01*
X135468050Y-135157225D01*
X135483577Y-135217052D01*
X135484299Y-135219867D01*
X135501506Y-135292474D01*
X135515540Y-135364276D01*
X135526689Y-135437443D01*
X135535238Y-135514150D01*
X135541474Y-135596569D01*
X135545609Y-135684760D01*
X135546717Y-135718405D01*
X135547222Y-135744525D01*
X135546933Y-135765749D01*
X135545658Y-135784703D01*
X135543208Y-135804014D01*
X135539391Y-135826309D01*
X135534016Y-135854217D01*
X135532872Y-135860020D01*
X135516391Y-135938711D01*
X135498865Y-136013406D01*
X135480546Y-136083339D01*
X135461687Y-136147741D01*
X135442541Y-136205845D01*
X135423359Y-136256882D01*
X135404394Y-136300085D01*
X135385900Y-136334686D01*
X135368657Y-136359293D01*
X135357953Y-136372749D01*
X135343677Y-136391717D01*
X135327975Y-136413311D01*
X135317487Y-136428152D01*
X135291986Y-136462275D01*
X135268222Y-136489201D01*
X135246922Y-136508184D01*
X135229823Y-136518106D01*
X135217848Y-136520698D01*
X135200149Y-136522358D01*
X135185639Y-136522712D01*
X135169049Y-136521866D01*
X135153769Y-136519024D01*
X135136746Y-136513303D01*
X135114929Y-136503818D01*
X135105960Y-136499618D01*
X135083192Y-136487894D01*
X135061706Y-136475181D01*
X135044652Y-136463418D01*
X135038199Y-136457955D01*
X135015298Y-136429710D01*
X134995228Y-136391883D01*
X134977972Y-136344420D01*
X134963507Y-136287269D01*
X134954959Y-136241020D01*
X134952442Y-136223764D01*
X134950422Y-136205587D01*
X134948848Y-136185174D01*
X134947672Y-136161208D01*
X134946843Y-136132375D01*
X134946312Y-136097359D01*
X134946029Y-136054844D01*
X134945945Y-136003516D01*
X134945945Y-136002260D01*
X134946068Y-135945778D01*
X134946514Y-135897431D01*
X134947403Y-135855192D01*
X134948857Y-135817037D01*
X134950997Y-135780942D01*
X134953942Y-135744882D01*
X134957814Y-135706833D01*
X134962734Y-135664769D01*
X134968823Y-135616667D01*
X134969068Y-135614778D01*
X134978126Y-135557754D01*
X134990976Y-135495299D01*
X135007031Y-135429301D01*
X135025706Y-135361648D01*
X135046413Y-135294227D01*
X135068565Y-135228927D01*
X135091577Y-135167635D01*
X135114862Y-135112239D01*
X135137832Y-135064626D01*
X135143030Y-135054937D01*
X135170897Y-135010835D01*
X135201983Y-134973517D01*
X135202588Y-134972896D01*
X135225380Y-134951619D01*
X135246068Y-134937902D01*
X135267763Y-134930583D01*
X135293575Y-134928502D01*
X135318201Y-134929738D01*
G37*
X135318201Y-134929738D02*
X135338348Y-134931965D01*
X135355863Y-134935564D01*
X135371188Y-134941308D01*
X135384766Y-134949971D01*
X135397039Y-134962324D01*
X135408450Y-134979140D01*
X135419440Y-135001193D01*
X135430453Y-135029255D01*
X135441931Y-135064099D01*
X135454316Y-135106498D01*
X135468050Y-135157225D01*
X135483577Y-135217052D01*
X135484299Y-135219867D01*
X135501506Y-135292474D01*
X135515540Y-135364276D01*
X135526689Y-135437443D01*
X135535238Y-135514150D01*
X135541474Y-135596569D01*
X135545609Y-135684760D01*
X135546717Y-135718405D01*
X135547222Y-135744525D01*
X135546933Y-135765749D01*
X135545658Y-135784703D01*
X135543208Y-135804014D01*
X135539391Y-135826309D01*
X135534016Y-135854217D01*
X135532872Y-135860020D01*
X135516391Y-135938711D01*
X135498865Y-136013406D01*
X135480546Y-136083339D01*
X135461687Y-136147741D01*
X135442541Y-136205845D01*
X135423359Y-136256882D01*
X135404394Y-136300085D01*
X135385900Y-136334686D01*
X135368657Y-136359293D01*
X135357953Y-136372749D01*
X135343677Y-136391717D01*
X135327975Y-136413311D01*
X135317487Y-136428152D01*
X135291986Y-136462275D01*
X135268222Y-136489201D01*
X135246922Y-136508184D01*
X135229823Y-136518106D01*
X135217848Y-136520698D01*
X135200149Y-136522358D01*
X135185639Y-136522712D01*
X135169049Y-136521866D01*
X135153769Y-136519024D01*
X135136746Y-136513303D01*
X135114929Y-136503818D01*
X135105960Y-136499618D01*
X135083192Y-136487894D01*
X135061706Y-136475181D01*
X135044652Y-136463418D01*
X135038199Y-136457955D01*
X135015298Y-136429710D01*
X134995228Y-136391883D01*
X134977972Y-136344420D01*
X134963507Y-136287269D01*
X134954959Y-136241020D01*
X134952442Y-136223764D01*
X134950422Y-136205587D01*
X134948848Y-136185174D01*
X134947672Y-136161208D01*
X134946843Y-136132375D01*
X134946312Y-136097359D01*
X134946029Y-136054844D01*
X134945945Y-136003516D01*
X134945945Y-136002260D01*
X134946068Y-135945778D01*
X134946514Y-135897431D01*
X134947403Y-135855192D01*
X134948857Y-135817037D01*
X134950997Y-135780942D01*
X134953942Y-135744882D01*
X134957814Y-135706833D01*
X134962734Y-135664769D01*
X134968823Y-135616667D01*
X134969068Y-135614778D01*
X134978126Y-135557754D01*
X134990976Y-135495299D01*
X135007031Y-135429301D01*
X135025706Y-135361648D01*
X135046413Y-135294227D01*
X135068565Y-135228927D01*
X135091577Y-135167635D01*
X135114862Y-135112239D01*
X135137832Y-135064626D01*
X135143030Y-135054937D01*
X135170897Y-135010835D01*
X135201983Y-134973517D01*
X135202588Y-134972896D01*
X135225380Y-134951619D01*
X135246068Y-134937902D01*
X135267763Y-134930583D01*
X135293575Y-134928502D01*
X135318201Y-134929738D01*
D11*
X111385000Y-114190000D02*
X111385000Y-108670000D01*
X108105000Y-116040000D02*
X108105000Y-114190000D01*
X107455000Y-114190000D02*
X108105000Y-114190000D01*
X107455000Y-114190000D02*
X107455000Y-108670000D01*
X107455000Y-108670000D02*
X108724000Y-108670000D01*
X110115000Y-114190000D02*
X111385000Y-114190000D01*
X110115000Y-108670000D02*
X111385000Y-108670000D01*
D12*
X131360000Y-112670000D02*
X131360000Y-109470000D01*
X131360000Y-109470000D02*
X127360000Y-109470000D01*
X127360000Y-109470000D02*
X127360000Y-113470000D01*
X127360000Y-113470000D02*
X130560000Y-113470000D01*
D18*
X96025121Y-111264170D02*
X96280089Y-111264170D01*
X96310086Y-111249172D01*
X96325084Y-111234174D01*
X96340082Y-111204177D01*
X96340082Y-111144185D01*
X96325084Y-111114188D01*
X96310086Y-111099190D01*
X96280089Y-111084192D01*
X96025121Y-111084192D01*
X96340082Y-110769231D02*
X96340082Y-110949209D01*
X96340082Y-110859220D02*
X96025121Y-110859220D01*
X96070115Y-110889216D01*
X96100112Y-110919213D01*
X96115110Y-110949209D01*
M02*
